<?xml version="1.0" encoding="UTF-8" standalone="no"?>
<!DOCTYPE svg PUBLIC "-//W3C//DTD SVG 1.1//EN"
 "http://www.w3.org/Graphics/SVG/1.1/DTD/svg11.dtd">
<!-- Generated by graphviz version 2.43.0 (0)
 -->
<!-- Title: Tent::centre_point Pages: 1 -->
<svg width="488pt" height="66pt"
 viewBox="0.00 0.00 488.00 66.00" xmlns="http://www.w3.org/2000/svg" xmlns:xlink="http://www.w3.org/1999/xlink">
<g id="graph0" class="graph" transform="scale(1 1) rotate(0) translate(4 62)">
<title>Tent::centre_point</title>
<!-- Node1 -->
<g id="node1" class="node">
<title>Node1</title>
<g id="a_node1"><a xlink:title="Metoda zwracajaca punkt centralny Tent">
<polygon fill="#bfbfbf" stroke="black" points="376,-19.5 376,-38.5 480,-38.5 480,-19.5 376,-19.5"/>
<text text-anchor="middle" x="428" y="-26.5" font-family="Helvetica,sans-Serif" font-size="10.00">Tent::centre_point</text>
</a>
</g>
</g>
<!-- Node2 -->
<g id="node2" class="node">
<title>Node2</title>
<g id="a_node2"><a xlink:href="class_tent.html#a048e58c462e4d7f069b2705308be29c1" target="_top" xlink:title="Metoda zwracajaca punkty specjalne Tent : cuts (jedna jest punktem przeciecia przekatnych dolnej pods...">
<polygon fill="none" stroke="black" points="227,-19.5 227,-38.5 340,-38.5 340,-19.5 227,-19.5"/>
<text text-anchor="middle" x="283.5" y="-26.5" font-family="Helvetica,sans-Serif" font-size="10.00">Tent::special_points</text>
</a>
</g>
</g>
<!-- Node1&#45;&gt;Node2 -->
<g id="edge1" class="edge">
<title>Node1&#45;&gt;Node2</title>
<path fill="none" stroke="midnightblue" d="M365.68,-29C357.15,-29 348.43,-29 340.01,-29"/>
<polygon fill="midnightblue" stroke="midnightblue" points="365.96,-32.5 375.96,-29 365.96,-25.5 365.96,-32.5"/>
</g>
<!-- Node3 -->
<g id="node3" class="node">
<title>Node3</title>
<g id="a_node3"><a xlink:href="class_tent.html#ab55be44d1debae187bfb2c66ca4839b3" target="_top" xlink:title="Przeciazenie operatora przypisania, umozliwia stosowanie metod typu Prism na obiekcie typu Tent">
<polygon fill="none" stroke="black" points="99,-38.5 99,-57.5 191,-57.5 191,-38.5 99,-38.5"/>
<text text-anchor="middle" x="145" y="-45.5" font-family="Helvetica,sans-Serif" font-size="10.00">Tent::operator=</text>
</a>
</g>
</g>
<!-- Node2&#45;&gt;Node3 -->
<g id="edge2" class="edge">
<title>Node2&#45;&gt;Node3</title>
<path fill="none" stroke="midnightblue" d="M216.8,-38.15C208.07,-39.36 199.29,-40.58 191.03,-41.73"/>
<polygon fill="midnightblue" stroke="midnightblue" points="217.56,-41.57 226.98,-36.73 216.59,-34.64 217.56,-41.57"/>
</g>
<!-- Node4 -->
<g id="node4" class="node">
<title>Node4</title>
<g id="a_node4"><a xlink:href="class_tent.html#a00e45b6c16c7ab25d9f8cceaa9afb080" target="_top" xlink:title="Konstruktor bezparametryczny klasy Tent. Dolna podstawa jest identyczna jak w bezparametrycznym Prism...">
<polygon fill="none" stroke="black" points="113.5,-0.5 113.5,-19.5 176.5,-19.5 176.5,-0.5 113.5,-0.5"/>
<text text-anchor="middle" x="145" y="-7.5" font-family="Helvetica,sans-Serif" font-size="10.00">Tent::Tent</text>
</a>
</g>
</g>
<!-- Node2&#45;&gt;Node4 -->
<g id="edge3" class="edge">
<title>Node2&#45;&gt;Node4</title>
<path fill="none" stroke="midnightblue" d="M216.85,-19.86C202.86,-17.92 188.73,-15.95 176.8,-14.29"/>
<polygon fill="midnightblue" stroke="midnightblue" points="216.59,-23.36 226.98,-21.27 217.56,-16.43 216.59,-23.36"/>
</g>
<!-- Node5 -->
<g id="node5" class="node">
<title>Node5</title>
<g id="a_node5"><a xlink:href="class_tent.html#a6831febfd74474f567f4419091883512" target="_top" xlink:title="Konstruktor parametryczny klasy Tent. Powstaje ostroslup jak z konstruktora parametrycznego,...">
<polygon fill="none" stroke="black" points="0,-0.5 0,-19.5 63,-19.5 63,-0.5 0,-0.5"/>
<text text-anchor="middle" x="31.5" y="-7.5" font-family="Helvetica,sans-Serif" font-size="10.00">Tent::Tent</text>
</a>
</g>
</g>
<!-- Node4&#45;&gt;Node5 -->
<g id="edge4" class="edge">
<title>Node4&#45;&gt;Node5</title>
<path fill="none" stroke="midnightblue" d="M102.99,-10C89.82,-10 75.46,-10 63.16,-10"/>
<polygon fill="midnightblue" stroke="midnightblue" points="103.24,-13.5 113.24,-10 103.24,-6.5 103.24,-13.5"/>
</g>
</g>
</svg>
