<?xml version="1.0" encoding="UTF-8" standalone="no"?>
<!DOCTYPE svg PUBLIC "-//W3C//DTD SVG 1.1//EN"
 "http://www.w3.org/Graphics/SVG/1.1/DTD/svg11.dtd">
<!-- Generated by graphviz version 2.43.0 (0)
 -->
<!-- Title: Scene::init_gnuplot Pages: 1 -->
<!--zoomable 568 -->
<svg id="main" version="1.1" xmlns="http://www.w3.org/2000/svg" xmlns:xlink="http://www.w3.org/1999/xlink" xml:space="preserve" onload="init(evt)">
<style type="text/css"><![CDATA[
.edge:hover path { stroke: red; }
.edge:hover polygon { stroke: red; fill: red; }
]]></style>
<script type="text/javascript"><![CDATA[
var edges = document.getElementsByTagName('g');
if (edges && edges.length) {
  for (var i=0;i<edges.length;i++) {
    if (edges[i].id.substr(0,4)=='edge') {
      edges[i].setAttribute('class','edge');
    }
  }
}
]]></script>
        <defs>
                <circle id="rim" cx="0" cy="0" r="7"/>
                <circle id="rim2" cx="0" cy="0" r="3.5"/>
                <g id="zoomPlus">
                        <use xlink:href="#rim" fill="#404040">
                                <set attributeName="fill" to="#808080" begin="zoomplus.mouseover" end="zoomplus.mouseout"/>
                        </use>
                        <path d="M-4,0h8M0,-4v8" fill="none" stroke="white" stroke-width="1.5" pointer-events="none"/>
                </g>
                <g id="zoomMin">
                        <use xlink:href="#rim" fill="#404040">
                                <set attributeName="fill" to="#808080" begin="zoomminus.mouseover" end="zoomminus.mouseout"/>
                        </use>
                        <path d="M-4,0h8" fill="none" stroke="white" stroke-width="1.5" pointer-events="none"/>
                </g>
                <g id="dirArrow">
                        <path fill="none" stroke="white" stroke-width="1.5" d="M0,-3.0v7 M-2.5,-0.5L0,-3.0L2.5,-0.5"/>
                </g>
               <g id="resetDef">
                       <use xlink:href="#rim2" fill="#404040">
                               <set attributeName="fill" to="#808080" begin="reset.mouseover" end="reset.mouseout"/>
                       </use>
               </g>
        </defs>

<script type="text/javascript">
var viewWidth = 861;
var viewHeight = 568;
var sectionId = 'dynsection-15';
</script>
<script xlink:href="svgpan.js"/>
<svg id="graph" class="graph">
<g id="viewport">
<title>Scene::init_gnuplot</title>
<!-- Node1 -->
<g id="node1" class="node">
<title>Node1</title>
<g id="a_node1"><a xlink:title="Metoda inicjalizujaca lacze do gnuplota.">
<polygon fill="#bfbfbf" stroke="black" points="0,-246 0,-265 110,-265 110,-246 0,-246"/>
<text text-anchor="middle" x="55" y="-253" font-family="Helvetica,sans-Serif" font-size="10.00">Scene::init_gnuplot</text>
</a>
</g>
</g>
<!-- Node2 -->
<g id="node2" class="node">
<title>Node2</title>
<g id="a_node2"><a xlink:href="class_scene.html#a15f741d7de1a9662c49f72d663d90b23" target="_top" xlink:title="Metoda dodajaca podstawowe elementy do listy objects.">
<polygon fill="none" stroke="black" points="146,-486 146,-505 287,-505 287,-486 146,-486"/>
<text text-anchor="middle" x="216.5" y="-493" font-family="Helvetica,sans-Serif" font-size="10.00">Scene::add_basic_objects</text>
</a>
</g>
</g>
<!-- Node1&#45;&gt;Node2 -->
<g id="edge1" class="edge">
<title>Node1&#45;&gt;Node2</title>
<path fill="none" stroke="midnightblue" d="M58.36,-265.08C66.22,-295.35 93.97,-390.49 146,-450.5 156.86,-463.03 172.05,-473.41 185.46,-481.03"/>
<polygon fill="midnightblue" stroke="midnightblue" points="183.92,-484.17 194.38,-485.85 187.25,-478.02 183.92,-484.17"/>
</g>
<!-- Node5 -->
<g id="node5" class="node">
<title>Node5</title>
<g id="a_node5"><a xlink:href="class_pz_g_1_1_lacze_do_g_n_u_plota.html#aa815ce8ec16e12fc246cf422e562869e" target="_top" xlink:title="Dodaje nazwę pliku.">
<polygon fill="none" stroke="black" points="346,-392.5 346,-422.5 476,-422.5 476,-392.5 346,-392.5"/>
<text text-anchor="start" x="354" y="-410.5" font-family="Helvetica,sans-Serif" font-size="10.00">PzG::LaczeDoGNUPlota</text>
<text text-anchor="middle" x="411" y="-399.5" font-family="Helvetica,sans-Serif" font-size="10.00">::DodajNazwePliku</text>
</a>
</g>
</g>
<!-- Node1&#45;&gt;Node5 -->
<g id="edge4" class="edge">
<title>Node1&#45;&gt;Node5</title>
<path fill="none" stroke="midnightblue" d="M60.99,-265.16C72.64,-286.64 103.87,-338.37 146,-362.5 177.61,-380.61 269.44,-393.41 335.93,-400.61"/>
<polygon fill="midnightblue" stroke="midnightblue" points="335.64,-404.1 345.95,-401.68 336.38,-397.14 335.64,-404.1"/>
</g>
<!-- Node7 -->
<g id="node7" class="node">
<title>Node7</title>
<g id="a_node7"><a xlink:href="class_scene.html#a3df6df98446d73c08274275ae036d4ad" target="_top" xlink:title="Metoda inicjujaca liste objects, dodajaca drony do listy.">
<polygon fill="none" stroke="black" points="162.5,-284 162.5,-303 270.5,-303 270.5,-284 162.5,-284"/>
<text text-anchor="middle" x="216.5" y="-291" font-family="Helvetica,sans-Serif" font-size="10.00">Scene::init_objects</text>
</a>
</g>
</g>
<!-- Node1&#45;&gt;Node7 -->
<g id="edge6" class="edge">
<title>Node1&#45;&gt;Node7</title>
<path fill="none" stroke="midnightblue" d="M96.25,-265.09C117.3,-270.1 143.26,-276.29 165.57,-281.61"/>
<polygon fill="midnightblue" stroke="midnightblue" points="165,-285.07 175.54,-283.98 166.62,-278.26 165,-285.07"/>
</g>
<!-- Node8 -->
<g id="node8" class="node">
<title>Node8</title>
<g id="a_node8"><a xlink:href="class_scene.html#ae8b7b8c6dc0f947c4da9ba6379519410" target="_top" xlink:title="Metoda iterujaca po kolejnych polach listy objects, zcyztujaca nazwy plikow i podajaca je do gnuplota...">
<polygon fill="none" stroke="black" points="161,-410.5 161,-440.5 272,-440.5 272,-410.5 161,-410.5"/>
<text text-anchor="start" x="169" y="-428.5" font-family="Helvetica,sans-Serif" font-size="10.00">Scene::iterate_over</text>
<text text-anchor="middle" x="216.5" y="-417.5" font-family="Helvetica,sans-Serif" font-size="10.00">_objects</text>
</a>
</g>
</g>
<!-- Node1&#45;&gt;Node8 -->
<g id="edge7" class="edge">
<title>Node1&#45;&gt;Node8</title>
<path fill="none" stroke="midnightblue" d="M59.76,-265.03C69.99,-289.81 100.61,-357 146,-395.5 150.49,-399.31 155.55,-402.71 160.82,-405.72"/>
<polygon fill="midnightblue" stroke="midnightblue" points="159.37,-408.91 169.86,-410.43 162.61,-402.7 159.37,-408.91"/>
</g>
<!-- Node10 -->
<g id="node10" class="node">
<title>Node10</title>
<g id="a_node10"><a xlink:href="class_plane.html#a81d5efe26f20d8939f6e32f5f288bed9" target="_top" xlink:title="Metoda tworzy plaszczyzne z podanych zakresow.">
<polygon fill="none" stroke="black" points="162,-246 162,-265 271,-265 271,-246 162,-246"/>
<text text-anchor="middle" x="216.5" y="-253" font-family="Helvetica,sans-Serif" font-size="10.00">Plane::make_plane</text>
</a>
</g>
</g>
<!-- Node1&#45;&gt;Node10 -->
<g id="edge10" class="edge">
<title>Node1&#45;&gt;Node10</title>
<path fill="none" stroke="midnightblue" d="M110.44,-255.5C123.68,-255.5 137.95,-255.5 151.57,-255.5"/>
<polygon fill="midnightblue" stroke="midnightblue" points="151.84,-259 161.84,-255.5 151.84,-252 151.84,-259"/>
</g>
<!-- Node11 -->
<g id="node11" class="node">
<title>Node11</title>
<g id="a_node11"><a xlink:href="class_pz_g_1_1_lacze_do_g_n_u_plota.html#a065f5b8402737cc62b0ad4f66d028335" target="_top" xlink:title="Generuje polecenie rysowania i przesyła je do gnuplota.">
<polygon fill="none" stroke="black" points="151.5,-196.5 151.5,-226.5 281.5,-226.5 281.5,-196.5 151.5,-196.5"/>
<text text-anchor="start" x="159.5" y="-214.5" font-family="Helvetica,sans-Serif" font-size="10.00">PzG::LaczeDoGNUPlota</text>
<text text-anchor="middle" x="216.5" y="-203.5" font-family="Helvetica,sans-Serif" font-size="10.00">::Rysuj</text>
</a>
</g>
</g>
<!-- Node1&#45;&gt;Node11 -->
<g id="edge11" class="edge">
<title>Node1&#45;&gt;Node11</title>
<path fill="none" stroke="midnightblue" d="M90.61,-245.95C108.33,-241.07 130.48,-234.95 151.18,-229.24"/>
<polygon fill="midnightblue" stroke="midnightblue" points="152.18,-232.6 160.89,-226.57 150.32,-225.85 152.18,-232.6"/>
</g>
<!-- Node18 -->
<g id="node18" class="node">
<title>Node18</title>
<g id="a_node18"><a xlink:href="class_drone.html#a63898ba4cc161710cf08f7b578f3d90f" target="_top" xlink:title="Metoda ustawiajaca nazwy plikow w laczy do gnuplota (nazwy final!)">
<polygon fill="none" stroke="black" points="156.5,-322.5 156.5,-352.5 276.5,-352.5 276.5,-322.5 156.5,-322.5"/>
<text text-anchor="start" x="164.5" y="-340.5" font-family="Helvetica,sans-Serif" font-size="10.00">Drone::set_filenames</text>
<text text-anchor="middle" x="216.5" y="-329.5" font-family="Helvetica,sans-Serif" font-size="10.00">_gnuplot</text>
</a>
</g>
</g>
<!-- Node1&#45;&gt;Node18 -->
<g id="edge18" class="edge">
<title>Node1&#45;&gt;Node18</title>
<path fill="none" stroke="midnightblue" d="M69.18,-265.16C86.26,-277.35 117.26,-298.44 146,-312.5 150.38,-314.64 154.99,-316.7 159.66,-318.65"/>
<polygon fill="midnightblue" stroke="midnightblue" points="158.71,-322.04 169.3,-322.49 161.31,-315.54 158.71,-322.04"/>
</g>
<!-- Node25 -->
<g id="node25" class="node">
<title>Node25</title>
<g id="a_node25"><a xlink:href="class_pz_g_1_1_lacze_do_g_n_u_plota.html#a9c91987dfc869d6fcea96205c581daef" target="_top" xlink:title="Ustawia zakres osi OX.">
<polygon fill="none" stroke="black" points="151.5,-147.5 151.5,-177.5 281.5,-177.5 281.5,-147.5 151.5,-147.5"/>
<text text-anchor="start" x="159.5" y="-165.5" font-family="Helvetica,sans-Serif" font-size="10.00">PzG::LaczeDoGNUPlota</text>
<text text-anchor="middle" x="216.5" y="-154.5" font-family="Helvetica,sans-Serif" font-size="10.00">::UstawZakresX</text>
</a>
</g>
</g>
<!-- Node1&#45;&gt;Node25 -->
<g id="edge26" class="edge">
<title>Node1&#45;&gt;Node25</title>
<path fill="none" stroke="midnightblue" d="M66.3,-245.79C82.26,-231.18 114.44,-203.47 146,-186.5 149.29,-184.73 152.73,-183.06 156.24,-181.48"/>
<polygon fill="midnightblue" stroke="midnightblue" points="157.82,-184.61 165.68,-177.5 155.11,-178.16 157.82,-184.61"/>
</g>
<!-- Node26 -->
<g id="node26" class="node">
<title>Node26</title>
<g id="a_node26"><a xlink:href="class_pz_g_1_1_lacze_do_g_n_u_plota.html#a54c6e9cf9ab2eae479451fd953c2717c" target="_top" xlink:title="Ustawia zakres osi OY.">
<polygon fill="none" stroke="black" points="151.5,-98.5 151.5,-128.5 281.5,-128.5 281.5,-98.5 151.5,-98.5"/>
<text text-anchor="start" x="159.5" y="-116.5" font-family="Helvetica,sans-Serif" font-size="10.00">PzG::LaczeDoGNUPlota</text>
<text text-anchor="middle" x="216.5" y="-105.5" font-family="Helvetica,sans-Serif" font-size="10.00">::UstawZakresY</text>
</a>
</g>
</g>
<!-- Node1&#45;&gt;Node26 -->
<g id="edge27" class="edge">
<title>Node1&#45;&gt;Node26</title>
<path fill="none" stroke="midnightblue" d="M60.87,-245.7C72.48,-223.28 104.03,-167.84 146,-137.5 148.08,-136 150.27,-134.58 152.52,-133.25"/>
<polygon fill="midnightblue" stroke="midnightblue" points="154.31,-136.26 161.53,-128.51 151.05,-130.06 154.31,-136.26"/>
</g>
<!-- Node27 -->
<g id="node27" class="node">
<title>Node27</title>
<g id="a_node27"><a xlink:href="class_pz_g_1_1_lacze_do_g_n_u_plota.html#a1dbbb2b86fb13b8632e6bad9df2a82e3" target="_top" xlink:title="Ustawia zakres osi OZ.">
<polygon fill="none" stroke="black" points="151.5,-49.5 151.5,-79.5 281.5,-79.5 281.5,-49.5 151.5,-49.5"/>
<text text-anchor="start" x="159.5" y="-67.5" font-family="Helvetica,sans-Serif" font-size="10.00">PzG::LaczeDoGNUPlota</text>
<text text-anchor="middle" x="216.5" y="-56.5" font-family="Helvetica,sans-Serif" font-size="10.00">::UstawZakresZ</text>
</a>
</g>
</g>
<!-- Node1&#45;&gt;Node27 -->
<g id="edge28" class="edge">
<title>Node1&#45;&gt;Node27</title>
<path fill="none" stroke="midnightblue" d="M58.57,-245.6C66.5,-216.97 93.3,-133.29 146,-88.5 147.37,-87.33 148.8,-86.23 150.28,-85.17"/>
<polygon fill="midnightblue" stroke="midnightblue" points="152.53,-87.9 159.22,-79.68 148.86,-81.93 152.53,-87.9"/>
</g>
<!-- Node28 -->
<g id="node28" class="node">
<title>Node28</title>
<g id="a_node28"><a xlink:href="class_pz_g_1_1_lacze_do_g_n_u_plota.html#ae92c65357bf682478cc68f77885b61d8" target="_top" xlink:title="Zmienia tryb rysowania.">
<polygon fill="none" stroke="black" points="151.5,-0.5 151.5,-30.5 281.5,-30.5 281.5,-0.5 151.5,-0.5"/>
<text text-anchor="start" x="159.5" y="-18.5" font-family="Helvetica,sans-Serif" font-size="10.00">PzG::LaczeDoGNUPlota</text>
<text text-anchor="middle" x="216.5" y="-7.5" font-family="Helvetica,sans-Serif" font-size="10.00">::ZmienTrybRys</text>
</a>
</g>
</g>
<!-- Node1&#45;&gt;Node28 -->
<g id="edge29" class="edge">
<title>Node1&#45;&gt;Node28</title>
<path fill="none" stroke="midnightblue" d="M57.22,-245.73C61.94,-212.05 82.05,-99.59 146,-39.5 147.13,-38.43 148.32,-37.42 149.54,-36.44"/>
<polygon fill="midnightblue" stroke="midnightblue" points="151.82,-39.13 158.17,-30.65 147.92,-33.32 151.82,-39.13"/>
</g>
<!-- Node3 -->
<g id="node3" class="node">
<title>Node3</title>
<g id="a_node3"><a xlink:href="class_scene.html#a16da566304f4ed4228fa89af25e330e5" target="_top" xlink:title="Metoda dodajaca prostopadloscian, ostroslup lub Triangular do listy objects.">
<polygon fill="none" stroke="black" points="345,-529.5 345,-559.5 477,-559.5 477,-529.5 345,-529.5"/>
<text text-anchor="start" x="353" y="-547.5" font-family="Helvetica,sans-Serif" font-size="10.00">Scene::add_object_type</text>
<text text-anchor="middle" x="411" y="-536.5" font-family="Helvetica,sans-Serif" font-size="10.00">_cuboid</text>
</a>
</g>
</g>
<!-- Node2&#45;&gt;Node3 -->
<g id="edge2" class="edge">
<title>Node2&#45;&gt;Node3</title>
<path fill="none" stroke="midnightblue" d="M255.07,-505.06C279.44,-511.27 311.93,-519.54 340.86,-526.9"/>
<polygon fill="midnightblue" stroke="midnightblue" points="340.37,-530.39 350.93,-529.46 342.1,-523.6 340.37,-530.39"/>
</g>
<!-- Node4 -->
<g id="node4" class="node">
<title>Node4</title>
<g id="a_node4"><a xlink:href="class_scene.html#a684bec8db49b527c34a567e91259102e" target="_top" xlink:title="Metoda dodajaca obiekt pochodny z Prism do listy objects.">
<polygon fill="none" stroke="black" points="345,-480.5 345,-510.5 477,-510.5 477,-480.5 345,-480.5"/>
<text text-anchor="start" x="353" y="-498.5" font-family="Helvetica,sans-Serif" font-size="10.00">Scene::add_object_type</text>
<text text-anchor="middle" x="411" y="-487.5" font-family="Helvetica,sans-Serif" font-size="10.00">_prism</text>
</a>
</g>
</g>
<!-- Node2&#45;&gt;Node4 -->
<g id="edge3" class="edge">
<title>Node2&#45;&gt;Node4</title>
<path fill="none" stroke="midnightblue" d="M287.27,-495.5C302.72,-495.5 319.15,-495.5 334.8,-495.5"/>
<polygon fill="midnightblue" stroke="midnightblue" points="334.95,-499 344.95,-495.5 334.95,-492 334.95,-499"/>
</g>
<!-- Node6 -->
<g id="node6" class="node">
<title>Node6</title>
<g id="a_node6"><a xlink:href="namespace_pz_g.html#ae1aad0c681853d7e47da4cdfccefc102" target="_top" xlink:title="Funkcja pomocnicza, sprawdza czy plik o podanej nazwie jest na dysku.">
<polygon fill="none" stroke="black" points="560,-398 560,-417 655,-417 655,-398 560,-398"/>
<text text-anchor="middle" x="607.5" y="-405" font-family="Helvetica,sans-Serif" font-size="10.00">PzG::CzyJestPlik</text>
</a>
</g>
</g>
<!-- Node5&#45;&gt;Node6 -->
<g id="edge5" class="edge">
<title>Node5&#45;&gt;Node6</title>
<path fill="none" stroke="midnightblue" d="M476.23,-407.5C499.93,-407.5 526.6,-407.5 549.6,-407.5"/>
<polygon fill="midnightblue" stroke="midnightblue" points="549.89,-411 559.89,-407.5 549.89,-404 549.89,-411"/>
</g>
<!-- Node8&#45;&gt;Node5 -->
<g id="edge8" class="edge">
<title>Node8&#45;&gt;Node5</title>
<path fill="none" stroke="midnightblue" d="M272.15,-420.39C291.83,-418.55 314.38,-416.44 335.46,-414.47"/>
<polygon fill="midnightblue" stroke="midnightblue" points="336.04,-417.93 345.67,-413.51 335.39,-410.96 336.04,-417.93"/>
</g>
<!-- Node9 -->
<g id="node9" class="node">
<title>Node9</title>
<g id="a_node9"><a xlink:href="class_scene.html#afdc407539e8e1c50d5ccd93b9b60ed52" target="_top" xlink:title="Metoda sprawdzajaca i zwracajaca rozmiar listy objects.">
<polygon fill="none" stroke="black" points="344.5,-442 344.5,-461 477.5,-461 477.5,-442 344.5,-442"/>
<text text-anchor="middle" x="411" y="-449" font-family="Helvetica,sans-Serif" font-size="10.00">Scene::get_objects_size</text>
</a>
</g>
</g>
<!-- Node8&#45;&gt;Node9 -->
<g id="edge9" class="edge">
<title>Node8&#45;&gt;Node9</title>
<path fill="none" stroke="midnightblue" d="M272.15,-432.88C291.44,-435.49 313.5,-438.47 334.23,-441.27"/>
<polygon fill="midnightblue" stroke="midnightblue" points="333.9,-444.75 344.28,-442.62 334.84,-437.82 333.9,-444.75"/>
</g>
<!-- Node12 -->
<g id="node12" class="node">
<title>Node12</title>
<g id="a_node12"><a xlink:href="namespace_pz_g.html#aa010184f31b26bb561b42f22438b821e" target="_top" xlink:title="Funkcja pomocnicza, dopisuje do polecenia wpisy związane z rysowaniem z pliku.">
<polygon fill="none" stroke="black" points="328,-202 328,-221 494,-221 494,-202 328,-202"/>
<text text-anchor="middle" x="411" y="-209" font-family="Helvetica,sans-Serif" font-size="10.00">PzG::DopiszRysowanieZPlikow</text>
</a>
</g>
</g>
<!-- Node11&#45;&gt;Node12 -->
<g id="edge12" class="edge">
<title>Node11&#45;&gt;Node12</title>
<path fill="none" stroke="midnightblue" d="M281.6,-211.5C293.14,-211.5 305.37,-211.5 317.52,-211.5"/>
<polygon fill="midnightblue" stroke="midnightblue" points="317.69,-215 327.69,-211.5 317.69,-208 317.69,-215"/>
</g>
<!-- Node13 -->
<g id="node13" class="node">
<title>Node13</title>
<g id="a_node13"><a xlink:href="namespace_pz_g.html#a7227cb39c785b1c746b6bb5515c0b781" target="_top" xlink:title="Dodaje do listy rysowanych punktów, punkty o różnych rozmiarach.">
<polygon fill="none" stroke="black" points="323,-152.5 323,-182.5 499,-182.5 499,-152.5 323,-152.5"/>
<text text-anchor="start" x="331" y="-170.5" font-family="Helvetica,sans-Serif" font-size="10.00">PzG::DopiszRysowanieZRoznych</text>
<text text-anchor="middle" x="411" y="-159.5" font-family="Helvetica,sans-Serif" font-size="10.00">Punktow</text>
</a>
</g>
</g>
<!-- Node11&#45;&gt;Node13 -->
<g id="edge13" class="edge">
<title>Node11&#45;&gt;Node13</title>
<path fill="none" stroke="midnightblue" d="M281.6,-196.85C298.42,-193 316.73,-188.82 334.1,-184.85"/>
<polygon fill="midnightblue" stroke="midnightblue" points="335.24,-188.18 344.21,-182.54 333.68,-181.35 335.24,-188.18"/>
</g>
<!-- Node14 -->
<g id="node14" class="node">
<title>Node14</title>
<g id="a_node14"><a xlink:href="namespace_pz_g.html#a169c311f0e0b6ffadcd44e91e749f72d" target="_top" xlink:title="Wczytuje z pliku listę punktów.">
<polygon fill="none" stroke="black" points="535,-152.5 535,-182.5 680,-182.5 680,-152.5 535,-152.5"/>
<text text-anchor="start" x="543" y="-170.5" font-family="Helvetica,sans-Serif" font-size="10.00">PzG::WczytajListeRoznych</text>
<text text-anchor="middle" x="607.5" y="-159.5" font-family="Helvetica,sans-Serif" font-size="10.00">Punktow</text>
</a>
</g>
</g>
<!-- Node13&#45;&gt;Node14 -->
<g id="edge14" class="edge">
<title>Node13&#45;&gt;Node14</title>
<path fill="none" stroke="midnightblue" d="M499.01,-167.5C507.5,-167.5 516.09,-167.5 524.52,-167.5"/>
<polygon fill="midnightblue" stroke="midnightblue" points="524.71,-171 534.71,-167.5 524.71,-164 524.71,-171"/>
</g>
<!-- Node15 -->
<g id="node15" class="node">
<title>Node15</title>
<g id="a_node15"><a xlink:href="class_pz_g_1_1_atrybuty_rysowania.html#ab068535b4d2f755c394557d1da72a4eb" target="_top" xlink:title="Zmienia kolor rysowania.">
<polygon fill="none" stroke="black" points="716,-201.5 716,-231.5 853,-231.5 853,-201.5 716,-201.5"/>
<text text-anchor="start" x="724" y="-219.5" font-family="Helvetica,sans-Serif" font-size="10.00">PzG::AtrybutyRysowania</text>
<text text-anchor="middle" x="784.5" y="-208.5" font-family="Helvetica,sans-Serif" font-size="10.00">::ZmienKolor</text>
</a>
</g>
</g>
<!-- Node14&#45;&gt;Node15 -->
<g id="edge15" class="edge">
<title>Node14&#45;&gt;Node15</title>
<path fill="none" stroke="midnightblue" d="M662.43,-182.6C680.65,-187.7 701.15,-193.44 720.04,-198.73"/>
<polygon fill="midnightblue" stroke="midnightblue" points="719.17,-202.12 729.74,-201.45 721.06,-195.38 719.17,-202.12"/>
</g>
<!-- Node16 -->
<g id="node16" class="node">
<title>Node16</title>
<g id="a_node16"><a xlink:href="class_pz_g_1_1_atrybuty_rysowania.html#af4b140eb03bc10b6fd816fad63f8372e" target="_top" xlink:title="Zmienia rozmiar rysowania.">
<polygon fill="none" stroke="black" points="716,-152.5 716,-182.5 853,-182.5 853,-152.5 716,-152.5"/>
<text text-anchor="start" x="724" y="-170.5" font-family="Helvetica,sans-Serif" font-size="10.00">PzG::AtrybutyRysowania</text>
<text text-anchor="middle" x="784.5" y="-159.5" font-family="Helvetica,sans-Serif" font-size="10.00">::ZmienRozmiar</text>
</a>
</g>
</g>
<!-- Node14&#45;&gt;Node16 -->
<g id="edge16" class="edge">
<title>Node14&#45;&gt;Node16</title>
<path fill="none" stroke="midnightblue" d="M680.18,-167.5C688.57,-167.5 697.16,-167.5 705.63,-167.5"/>
<polygon fill="midnightblue" stroke="midnightblue" points="705.87,-171 715.87,-167.5 705.87,-164 705.87,-171"/>
</g>
<!-- Node17 -->
<g id="node17" class="node">
<title>Node17</title>
<g id="a_node17"><a xlink:href="class_pz_g_1_1_atrybuty_rysowania.html#a2ac97706124b14072715ecf3f07e82b4" target="_top" xlink:title="Zmienia styl rysowania.">
<polygon fill="none" stroke="black" points="716,-103.5 716,-133.5 853,-133.5 853,-103.5 716,-103.5"/>
<text text-anchor="start" x="724" y="-121.5" font-family="Helvetica,sans-Serif" font-size="10.00">PzG::AtrybutyRysowania</text>
<text text-anchor="middle" x="784.5" y="-110.5" font-family="Helvetica,sans-Serif" font-size="10.00">::ZmienStyl</text>
</a>
</g>
</g>
<!-- Node14&#45;&gt;Node17 -->
<g id="edge17" class="edge">
<title>Node14&#45;&gt;Node17</title>
<path fill="none" stroke="midnightblue" d="M662.43,-152.4C680.65,-147.3 701.15,-141.56 720.04,-136.27"/>
<polygon fill="midnightblue" stroke="midnightblue" points="721.06,-139.62 729.74,-133.55 719.17,-132.88 721.06,-139.62"/>
</g>
<!-- Node18&#45;&gt;Node5 -->
<g id="edge21" class="edge">
<title>Node18&#45;&gt;Node5</title>
<path fill="none" stroke="midnightblue" d="M252.39,-352.51C281.7,-365.09 319.38,-381.21 323,-382.5 329.72,-384.89 336.79,-387.22 343.88,-389.43"/>
<polygon fill="midnightblue" stroke="midnightblue" points="342.93,-392.8 353.52,-392.37 344.97,-386.1 342.93,-392.8"/>
</g>
<!-- Node19 -->
<g id="node19" class="node">
<title>Node19</title>
<g id="a_node19"><a xlink:href="class_cuboid.html#abc62d20a2f1418af1c35e369da77f0fc" target="_top" xlink:title=" ">
<polygon fill="none" stroke="black" points="347,-278 347,-297 475,-297 475,-278 347,-278"/>
<text text-anchor="middle" x="411" y="-285" font-family="Helvetica,sans-Serif" font-size="10.00">Cuboid::Cuboid_To_File</text>
</a>
</g>
</g>
<!-- Node18&#45;&gt;Node19 -->
<g id="edge19" class="edge">
<title>Node18&#45;&gt;Node19</title>
<path fill="none" stroke="midnightblue" d="M266.15,-322.42C283.96,-317.11 304.32,-311.28 323,-306.5 332.77,-304 343.22,-301.54 353.35,-299.26"/>
<polygon fill="midnightblue" stroke="midnightblue" points="354.34,-302.63 363.35,-297.05 352.83,-295.79 354.34,-302.63"/>
</g>
<!-- Node21 -->
<g id="node21" class="node">
<title>Node21</title>
<g id="a_node21"><a xlink:href="class_block.html#aeef4dd3716afaea42688a4f96456ce27" target="_top" xlink:title="Metoda zwracajaca nazwe pliku z finalna (robocza) bryla">
<polygon fill="none" stroke="black" points="348.5,-240 348.5,-259 473.5,-259 473.5,-240 348.5,-240"/>
<text text-anchor="middle" x="411" y="-247" font-family="Helvetica,sans-Serif" font-size="10.00">Block::get_final_name</text>
</a>
</g>
</g>
<!-- Node18&#45;&gt;Node21 -->
<g id="edge22" class="edge">
<title>Node18&#45;&gt;Node21</title>
<path fill="none" stroke="midnightblue" d="M269.55,-322.34C275.69,-319.54 281.66,-316.27 287,-312.5 307.63,-297.92 301.46,-281.71 323,-268.5 327.78,-265.57 332.95,-263.09 338.3,-260.99"/>
<polygon fill="midnightblue" stroke="midnightblue" points="339.78,-264.18 348.09,-257.6 337.5,-257.56 339.78,-264.18"/>
</g>
<!-- Node22 -->
<g id="node22" class="node">
<title>Node22</title>
<g id="a_node22"><a xlink:href="class_block.html#aed17e0cb13b8eea50fe735ba05204da9" target="_top" xlink:title="Metoda zwracajaca nazwe pliku z wzorcowa bryla">
<polygon fill="none" stroke="black" points="341,-354 341,-373 481,-373 481,-354 341,-354"/>
<text text-anchor="middle" x="411" y="-361" font-family="Helvetica,sans-Serif" font-size="10.00">Block::get_sample_name</text>
</a>
</g>
</g>
<!-- Node18&#45;&gt;Node22 -->
<g id="edge23" class="edge">
<title>Node18&#45;&gt;Node22</title>
<path fill="none" stroke="midnightblue" d="M276.56,-345.48C293.72,-347.8 312.74,-350.36 330.92,-352.82"/>
<polygon fill="midnightblue" stroke="midnightblue" points="330.54,-356.3 340.92,-354.17 331.47,-349.36 330.54,-356.3"/>
</g>
<!-- Node23 -->
<g id="node23" class="node">
<title>Node23</title>
<g id="a_node23"><a xlink:href="class_prism.html#a2de0dab6d117fc3c8dcbc3c384d0fccd" target="_top" xlink:title=" ">
<polygon fill="none" stroke="black" points="353,-316 353,-335 469,-335 469,-316 353,-316"/>
<text text-anchor="middle" x="411" y="-323" font-family="Helvetica,sans-Serif" font-size="10.00">Prism::Prism_To_File</text>
</a>
</g>
</g>
<!-- Node18&#45;&gt;Node23 -->
<g id="edge24" class="edge">
<title>Node18&#45;&gt;Node23</title>
<path fill="none" stroke="midnightblue" d="M276.56,-333.82C297.46,-332.52 321.12,-331.04 342.65,-329.7"/>
<polygon fill="midnightblue" stroke="midnightblue" points="342.94,-333.19 352.7,-329.07 342.5,-326.2 342.94,-333.19"/>
</g>
<!-- Node20 -->
<g id="node20" class="node">
<title>Node20</title>
<g id="a_node20"><a xlink:href="class_cuboid.html#a12a97376443b1a15ae8342c1c75b3e1e" target="_top" xlink:title="Metoda wypisania odpowiednich wierzcholkow do pliku zgodnie z zaproponowanym sposobem zadaniu dron">
<polygon fill="none" stroke="black" points="540,-278 540,-297 675,-297 675,-278 540,-278"/>
<text text-anchor="middle" x="607.5" y="-285" font-family="Helvetica,sans-Serif" font-size="10.00">Cuboid::print_cuboid_3D</text>
</a>
</g>
</g>
<!-- Node19&#45;&gt;Node20 -->
<g id="edge20" class="edge">
<title>Node19&#45;&gt;Node20</title>
<path fill="none" stroke="midnightblue" d="M475.15,-287.5C492.57,-287.5 511.66,-287.5 529.76,-287.5"/>
<polygon fill="midnightblue" stroke="midnightblue" points="529.99,-291 539.99,-287.5 529.99,-284 529.99,-291"/>
</g>
<!-- Node24 -->
<g id="node24" class="node">
<title>Node24</title>
<g id="a_node24"><a xlink:href="class_prism.html#a764c6940e4fb65303981e8b877b28561" target="_top" xlink:title="Metoda wypisania odpowiednich wierzcholkow do pliku zgodnie z zaproponowanym sposobem zadaniu dron">
<polygon fill="none" stroke="black" points="545,-316 545,-335 670,-335 670,-316 545,-316"/>
<text text-anchor="middle" x="607.5" y="-323" font-family="Helvetica,sans-Serif" font-size="10.00">Prism::print_prism_3D</text>
</a>
</g>
</g>
<!-- Node23&#45;&gt;Node24 -->
<g id="edge25" class="edge">
<title>Node23&#45;&gt;Node24</title>
<path fill="none" stroke="midnightblue" d="M469.04,-325.5C489.56,-325.5 512.97,-325.5 534.59,-325.5"/>
<polygon fill="midnightblue" stroke="midnightblue" points="534.7,-329 544.7,-325.5 534.7,-322 534.7,-329"/>
</g>
</g>
</svg>
        <g id="navigator" transform="translate(0 0)" fill="#404254">
                <rect fill="#f2f5e9" fill-opacity="0.5" stroke="#606060" stroke-width=".5" x="0" y="0" width="60" height="60"/>
                <use id="zoomplus" xlink:href="#zoomPlus" x="17" y="9" onmousedown="handleZoom(evt,'in')"/>
                <use id="zoomminus" xlink:href="#zoomMin" x="42" y="9" onmousedown="handleZoom(evt,'out')"/>
                <use id="reset" xlink:href="#resetDef" x="30" y="36" onmousedown="handleReset()"/>
                <g id="arrowUp" xlink:href="#dirArrow" transform="translate(30 24)" onmousedown="handlePan(0,-1)">
                  <use xlink:href="#rim" fill="#404040">
                        <set attributeName="fill" to="#808080" begin="arrowUp.mouseover" end="arrowUp.mouseout"/>
                  </use>
                  <path fill="none" stroke="white" stroke-width="1.5" d="M0,-3.0v7 M-2.5,-0.5L0,-3.0L2.5,-0.5"/>
                </g>
                <g id="arrowRight" xlink:href="#dirArrow" transform="rotate(90) translate(36 -43)" onmousedown="handlePan(1,0)">
                  <use xlink:href="#rim" fill="#404040">
                        <set attributeName="fill" to="#808080" begin="arrowRight.mouseover" end="arrowRight.mouseout"/>
                  </use>
                  <path fill="none" stroke="white" stroke-width="1.5" d="M0,-3.0v7 M-2.5,-0.5L0,-3.0L2.5,-0.5"/>
                </g>
                <g id="arrowDown" xlink:href="#dirArrow" transform="rotate(180) translate(-30 -48)" onmousedown="handlePan(0,1)">
                  <use xlink:href="#rim" fill="#404040">
                        <set attributeName="fill" to="#808080" begin="arrowDown.mouseover" end="arrowDown.mouseout"/>
                  </use>
                  <path fill="none" stroke="white" stroke-width="1.5" d="M0,-3.0v7 M-2.5,-0.5L0,-3.0L2.5,-0.5"/>
                </g>
                <g id="arrowLeft" xlink:href="#dirArrow" transform="rotate(270) translate(-36 17)" onmousedown="handlePan(-1,0)">
                  <use xlink:href="#rim" fill="#404040">
                        <set attributeName="fill" to="#808080" begin="arrowLeft.mouseover" end="arrowLeft.mouseout"/>
                  </use>
                  <path fill="none" stroke="white" stroke-width="1.5" d="M0,-3.0v7 M-2.5,-0.5L0,-3.0L2.5,-0.5"/>
                </g>
        </g>
        <svg viewBox="0 0 15 15" width="100%" height="30px" preserveAspectRatio="xMaxYMin meet">
         <g id="arrow_out" transform="scale(0.3 0.3)">
          <a xlink:href="class_scene_ab57c9a7293ccbaf3dd7e9ac469a7a787_cgraph_org.svg" target="_base">
           <rect id="button" ry="5" rx="5" y="6" x="6" height="38" width="38"
                fill="#f2f5e9" fill-opacity="0.5" stroke="#606060" stroke-width="1.0"/>
           <path id="arrow"
             d="M 11.500037,31.436501 C 11.940474,20.09759 22.043105,11.32322 32.158766,21.979434 L 37.068811,17.246167 C 37.068811,17.246167 37.088388,32 37.088388,32 L 22.160133,31.978069 C 22.160133,31.978069 26.997745,27.140456 26.997745,27.140456 C 18.528582,18.264221 13.291696,25.230495 11.500037,31.436501 z"
             style="fill:#404040;"/>
          </a>
         </g>
        </svg>
</svg>
