<?xml version="1.0" encoding="UTF-8" standalone="no"?>
<!DOCTYPE svg PUBLIC "-//W3C//DTD SVG 1.1//EN"
 "http://www.w3.org/Graphics/SVG/1.1/DTD/svg11.dtd">
<!-- Generated by graphviz version 2.43.0 (0)
 -->
<!-- Title: PzG::AtrybutyRysowania Pages: 1 -->
<svg width="145pt" height="281pt"
 viewBox="0.00 0.00 145.00 281.00" xmlns="http://www.w3.org/2000/svg" xmlns:xlink="http://www.w3.org/1999/xlink">
<g id="graph0" class="graph" transform="scale(1 1) rotate(0) translate(4 277)">
<title>PzG::AtrybutyRysowania</title>
<!-- Node1 -->
<g id="node1" class="node">
<title>Node1</title>
<g id="a_node1"><a xlink:title="Modeluje zestaw informacji będący atrybutami rysowania.">
<polygon fill="#bfbfbf" stroke="black" points="0,-0.5 0,-145.5 137,-145.5 137,-0.5 0,-0.5"/>
<text text-anchor="middle" x="68.5" y="-133.5" font-family="Helvetica,sans-Serif" font-size="10.00">PzG::AtrybutyRysowania</text>
<polyline fill="none" stroke="black" points="0,-126.5 137,-126.5 "/>
<text text-anchor="middle" x="68.5" y="-114.5" font-family="Helvetica,sans-Serif" font-size="10.00"> </text>
<polyline fill="none" stroke="black" points="0,-107.5 137,-107.5 "/>
<text text-anchor="start" x="8" y="-95.5" font-family="Helvetica,sans-Serif" font-size="10.00">+ AtrybutyRysowania()</text>
<text text-anchor="start" x="8" y="-84.5" font-family="Helvetica,sans-Serif" font-size="10.00">+ operator&lt;()</text>
<text text-anchor="start" x="8" y="-73.5" font-family="Helvetica,sans-Serif" font-size="10.00">+ operator==()</text>
<text text-anchor="start" x="8" y="-62.5" font-family="Helvetica,sans-Serif" font-size="10.00">+ WezStyl()</text>
<text text-anchor="start" x="8" y="-51.5" font-family="Helvetica,sans-Serif" font-size="10.00">+ WezKolor()</text>
<text text-anchor="start" x="8" y="-40.5" font-family="Helvetica,sans-Serif" font-size="10.00">+ WezRozmiar()</text>
<text text-anchor="start" x="8" y="-29.5" font-family="Helvetica,sans-Serif" font-size="10.00">+ ZmienStyl()</text>
<text text-anchor="start" x="8" y="-18.5" font-family="Helvetica,sans-Serif" font-size="10.00">+ ZmienKolor()</text>
<text text-anchor="start" x="8" y="-7.5" font-family="Helvetica,sans-Serif" font-size="10.00">+ ZmienRozmiar()</text>
</a>
</g>
</g>
<!-- Node2 -->
<g id="node2" class="node">
<title>Node2</title>
<g id="a_node2"><a xlink:title=" ">
<polygon fill="none" stroke="#bfbfbf" points="54,-215.5 54,-272.5 83,-272.5 83,-215.5 54,-215.5"/>
<text text-anchor="middle" x="68.5" y="-260.5" font-family="Helvetica,sans-Serif" font-size="10.00">int</text>
<polyline fill="none" stroke="#bfbfbf" points="54,-253.5 83,-253.5 "/>
<text text-anchor="middle" x="68.5" y="-241.5" font-family="Helvetica,sans-Serif" font-size="10.00"> </text>
<polyline fill="none" stroke="#bfbfbf" points="54,-234.5 83,-234.5 "/>
<text text-anchor="middle" x="68.5" y="-222.5" font-family="Helvetica,sans-Serif" font-size="10.00"> </text>
</a>
</g>
</g>
<!-- Node2&#45;&gt;Node1 -->
<g id="edge1" class="edge">
<title>Node2&#45;&gt;Node1</title>
<path fill="none" stroke="#404040" d="M68.5,-215.47C68.5,-199.6 68.5,-178.71 68.5,-157.87"/>
<polygon fill="none" stroke="#404040" points="68.5,-157.64 64.5,-151.64 68.5,-145.64 72.5,-151.64 68.5,-157.64"/>
<text text-anchor="middle" x="93.5" y="-189" font-family="Helvetica,sans-Serif" font-size="10.00"> &#45;_Styl</text>
<text text-anchor="middle" x="93.5" y="-178" font-family="Helvetica,sans-Serif" font-size="10.00">&#45;_Rozmiar</text>
<text text-anchor="middle" x="93.5" y="-167" font-family="Helvetica,sans-Serif" font-size="10.00">&#45;_Kolor</text>
</g>
</g>
</svg>
