<?xml version="1.0" encoding="UTF-8" standalone="no"?>
<!DOCTYPE svg PUBLIC "-//W3C//DTD SVG 1.1//EN"
 "http://www.w3.org/Graphics/SVG/1.1/DTD/svg11.dtd">
<!-- Generated by graphviz version 2.43.0 (0)
 -->
<!-- Title: Prism::rotation_around_cen Pages: 1 -->
<!--zoomable 342 -->
<svg id="main" version="1.1" xmlns="http://www.w3.org/2000/svg" xmlns:xlink="http://www.w3.org/1999/xlink" xml:space="preserve" onload="init(evt)">
<style type="text/css"><![CDATA[
.edge:hover path { stroke: red; }
.edge:hover polygon { stroke: red; fill: red; }
]]></style>
<script type="text/javascript"><![CDATA[
var edges = document.getElementsByTagName('g');
if (edges && edges.length) {
  for (var i=0;i<edges.length;i++) {
    if (edges[i].id.substr(0,4)=='edge') {
      edges[i].setAttribute('class','edge');
    }
  }
}
]]></script>
        <defs>
                <circle id="rim" cx="0" cy="0" r="7"/>
                <circle id="rim2" cx="0" cy="0" r="3.5"/>
                <g id="zoomPlus">
                        <use xlink:href="#rim" fill="#404040">
                                <set attributeName="fill" to="#808080" begin="zoomplus.mouseover" end="zoomplus.mouseout"/>
                        </use>
                        <path d="M-4,0h8M0,-4v8" fill="none" stroke="white" stroke-width="1.5" pointer-events="none"/>
                </g>
                <g id="zoomMin">
                        <use xlink:href="#rim" fill="#404040">
                                <set attributeName="fill" to="#808080" begin="zoomminus.mouseover" end="zoomminus.mouseout"/>
                        </use>
                        <path d="M-4,0h8" fill="none" stroke="white" stroke-width="1.5" pointer-events="none"/>
                </g>
                <g id="dirArrow">
                        <path fill="none" stroke="white" stroke-width="1.5" d="M0,-3.0v7 M-2.5,-0.5L0,-3.0L2.5,-0.5"/>
                </g>
               <g id="resetDef">
                       <use xlink:href="#rim2" fill="#404040">
                               <set attributeName="fill" to="#808080" begin="reset.mouseover" end="reset.mouseout"/>
                       </use>
               </g>
        </defs>

<script type="text/javascript">
var viewWidth = 978;
var viewHeight = 342;
var sectionId = 'dynsection-31';
</script>
<script xlink:href="svgpan.js"/>
<svg id="graph" class="graph">
<g id="viewport">
<title>Prism::rotation_around_cen</title>
<!-- Node1 -->
<g id="node1" class="node">
<title>Node1</title>
<g id="a_node1"><a xlink:title="Metoda obracajaca graniastoslup o zadany kat w 3D wokol srodka figury">
<polygon fill="#bfbfbf" stroke="black" points="820,-156.6 820,-175.6 970,-175.6 970,-156.6 820,-156.6"/>
<text text-anchor="middle" x="895" y="-163.6" font-family="Helvetica,sans-Serif" font-size="10.00">Prism::rotation_around_cen</text>
</a>
</g>
</g>
<!-- Node2 -->
<g id="node2" class="node">
<title>Node2</title>
<g id="a_node2"><a xlink:href="class_drone.html#ad42bc54902df967b94717617aca1a974" target="_top" xlink:title="Metoda obracajaca dron o zadany kat w 3D wokol srodka figury">
<polygon fill="none" stroke="black" points="632,-178.6 632,-197.6 784,-197.6 784,-178.6 632,-178.6"/>
<text text-anchor="middle" x="708" y="-185.6" font-family="Helvetica,sans-Serif" font-size="10.00">Drone::rotation_around_cen</text>
</a>
</g>
</g>
<!-- Node1&#45;&gt;Node2 -->
<g id="edge1" class="edge">
<title>Node1&#45;&gt;Node2</title>
<path fill="none" stroke="midnightblue" d="M809.82,-176.11C801.24,-177.13 792.57,-178.16 784.1,-179.17"/>
<polygon fill="midnightblue" stroke="midnightblue" points="810.3,-179.58 819.82,-174.92 809.48,-172.63 810.3,-179.58"/>
</g>
<!-- Node15 -->
<g id="node15" class="node">
<title>Node15</title>
<g id="a_node15"><a xlink:href="class_drone.html#aedb04b80609b22ff4eb4a957bc149a48" target="_top" xlink:title="Metoda animujaca obrot rotorow i zapisujaca to w plikach. Metoda sluzy jako metoda pomocnicza,...">
<polygon fill="none" stroke="black" points="469,-107.1 469,-137.1 596,-137.1 596,-107.1 469,-107.1"/>
<text text-anchor="start" x="477" y="-125.1" font-family="Helvetica,sans-Serif" font-size="10.00">Drone::Rotors_rotation</text>
<text text-anchor="middle" x="532.5" y="-114.1" font-family="Helvetica,sans-Serif" font-size="10.00">_animation</text>
</a>
</g>
</g>
<!-- Node1&#45;&gt;Node15 -->
<g id="edge18" class="edge">
<title>Node1&#45;&gt;Node15</title>
<path fill="none" stroke="midnightblue" d="M809.47,-155.78C744.19,-147.82 655.3,-136.97 596.24,-129.76"/>
<polygon fill="midnightblue" stroke="midnightblue" points="809.39,-159.3 819.74,-157.04 810.24,-152.35 809.39,-159.3"/>
</g>
<!-- Node3 -->
<g id="node3" class="node">
<title>Node3</title>
<g id="a_node3"><a xlink:href="class_drone.html#ab692baa4be5c43b72990ce1b01bdc805" target="_top" xlink:title="Konstruktor bezparametryczny klasy Drone. Powstaly dron jest skonstruowany z bezparametrycznych prost...">
<polygon fill="none" stroke="black" points="492,-156.6 492,-175.6 573,-175.6 573,-156.6 492,-156.6"/>
<text text-anchor="middle" x="532.5" y="-163.6" font-family="Helvetica,sans-Serif" font-size="10.00">Drone::Drone</text>
</a>
</g>
</g>
<!-- Node2&#45;&gt;Node3 -->
<g id="edge2" class="edge">
<title>Node2&#45;&gt;Node3</title>
<path fill="none" stroke="midnightblue" d="M621.94,-177.32C604.97,-175.16 587.9,-173 573.36,-171.15"/>
<polygon fill="midnightblue" stroke="midnightblue" points="621.55,-180.79 631.91,-178.58 622.43,-173.85 621.55,-180.79"/>
</g>
<!-- Node4 -->
<g id="node4" class="node">
<title>Node4</title>
<g id="a_node4"><a xlink:href="class_drone.html#af03af60a9b92e4191a7e66b5c20b52bb" target="_top" xlink:title="Metoda zamieniajaca drona na tego z pliku sample.">
<polygon fill="none" stroke="black" points="471.5,-195.1 471.5,-225.1 593.5,-225.1 593.5,-195.1 471.5,-195.1"/>
<text text-anchor="start" x="479.5" y="-213.1" font-family="Helvetica,sans-Serif" font-size="10.00">Drone::Drone_change</text>
<text text-anchor="middle" x="532.5" y="-202.1" font-family="Helvetica,sans-Serif" font-size="10.00">_to_sample</text>
</a>
</g>
</g>
<!-- Node2&#45;&gt;Node4 -->
<g id="edge3" class="edge">
<title>Node2&#45;&gt;Node4</title>
<path fill="none" stroke="midnightblue" d="M621.94,-198.89C612.35,-200.1 602.73,-201.32 593.55,-202.49"/>
<polygon fill="midnightblue" stroke="midnightblue" points="622.43,-202.35 631.91,-197.62 621.55,-195.41 622.43,-202.35"/>
</g>
<!-- Node8 -->
<g id="node8" class="node">
<title>Node8</title>
<g id="a_node8"><a xlink:href="class_drone.html#af052f6bb793d1229b99b16b800b95b82" target="_top" xlink:title="Metoda animujaca obrot drona i wyrysowujaca calosc w gnuplocie.">
<polygon fill="none" stroke="black" points="299.5,-25.1 299.5,-55.1 424.5,-55.1 424.5,-25.1 299.5,-25.1"/>
<text text-anchor="start" x="307.5" y="-43.1" font-family="Helvetica,sans-Serif" font-size="10.00">Drone::Drone_rotation</text>
<text text-anchor="middle" x="362" y="-32.1" font-family="Helvetica,sans-Serif" font-size="10.00">_animation</text>
</a>
</g>
</g>
<!-- Node2&#45;&gt;Node8 -->
<g id="edge12" class="edge">
<title>Node2&#45;&gt;Node8</title>
<path fill="none" stroke="midnightblue" d="M691.12,-171.06C670.95,-150.46 634.18,-116.17 596,-97.1 541.61,-69.93 473.47,-55.21 424.96,-47.58"/>
<polygon fill="midnightblue" stroke="midnightblue" points="688.78,-173.68 698.23,-178.48 693.83,-168.84 688.78,-173.68"/>
</g>
<!-- Node9 -->
<g id="node9" class="node">
<title>Node9</title>
<g id="a_node9"><a xlink:href="class_drone.html#ab7808296cec81143dbddd7516340a371" target="_top" xlink:title="Metoda robiaca &quot;oblot&quot; drona wokol punktu (z modyfikacji)">
<polygon fill="none" stroke="black" points="291,-276.6 291,-295.6 433,-295.6 433,-276.6 291,-276.6"/>
<text text-anchor="middle" x="362" y="-283.6" font-family="Helvetica,sans-Serif" font-size="10.00">Drone::Drone_roundabout</text>
</a>
</g>
</g>
<!-- Node2&#45;&gt;Node9 -->
<g id="edge13" class="edge">
<title>Node2&#45;&gt;Node9</title>
<path fill="none" stroke="midnightblue" d="M677.77,-201.85C655.68,-211.84 624.41,-225.12 596,-234.1 536.33,-252.97 465.99,-267.67 418.32,-276.56"/>
<polygon fill="midnightblue" stroke="midnightblue" points="679.3,-205 686.93,-197.66 676.39,-198.64 679.3,-205"/>
</g>
<!-- Node11 -->
<g id="node11" class="node">
<title>Node11</title>
<g id="a_node11"><a xlink:href="class_scene.html#aa5fc0e5a94bfa0766f6e5ff10993630d" target="_top" xlink:title="Skanowanie powierzchni pod dronem, gdy dron nie moze wyladowac w danym miejscu &#160;&#160;Rysowany jest rownie...">
<polygon fill="none" stroke="black" points="479,-306.6 479,-325.6 586,-325.6 586,-306.6 479,-306.6"/>
<text text-anchor="middle" x="532.5" y="-313.6" font-family="Helvetica,sans-Serif" font-size="10.00">Scene::scan_plane</text>
</a>
</g>
</g>
<!-- Node2&#45;&gt;Node11 -->
<g id="edge14" class="edge">
<title>Node2&#45;&gt;Node11</title>
<path fill="none" stroke="midnightblue" d="M690.41,-204.72C669.58,-225.04 632.16,-259.73 596,-284.1 583.16,-292.75 567.68,-300.7 555.34,-306.51"/>
<polygon fill="midnightblue" stroke="midnightblue" points="692.88,-207.2 697.55,-197.69 687.97,-202.21 692.88,-207.2"/>
</g>
<!-- Node5 -->
<g id="node5" class="node">
<title>Node5</title>
<g id="a_node5"><a xlink:href="class_drone.html#a7eecbd031df9009e113d355a9dcdf4e1" target="_top" xlink:title="Metoda obliczajaca i przeprowadzajaca caly ruch drona (obrot o kat i przelot z zadania 5....">
<polygon fill="none" stroke="black" points="138.5,-71.1 138.5,-101.1 250.5,-101.1 250.5,-71.1 138.5,-71.1"/>
<text text-anchor="start" x="146.5" y="-89.1" font-family="Helvetica,sans-Serif" font-size="10.00">Drone::Drone_basic</text>
<text text-anchor="middle" x="194.5" y="-78.1" font-family="Helvetica,sans-Serif" font-size="10.00">_motion_flight</text>
</a>
</g>
</g>
<!-- Node4&#45;&gt;Node5 -->
<g id="edge4" class="edge">
<title>Node4&#45;&gt;Node5</title>
<path fill="none" stroke="midnightblue" d="M461.07,-222.1C400.85,-230.94 319.54,-239.06 291,-224.1 240.68,-197.73 211.61,-131.46 200.61,-101.38"/>
<polygon fill="midnightblue" stroke="midnightblue" points="461.93,-225.51 471.3,-220.57 460.89,-218.59 461.93,-225.51"/>
</g>
<!-- Node6 -->
<g id="node6" class="node">
<title>Node6</title>
<g id="a_node6"><a xlink:href="class_drone.html#a4abbed4a4cc52e5630f07f9129b46c5c" target="_top" xlink:title="Metoda realizujaca ladowanie drona.">
<polygon fill="none" stroke="black" points="299.5,-112.6 299.5,-131.6 424.5,-131.6 424.5,-112.6 299.5,-112.6"/>
<text text-anchor="middle" x="362" y="-119.6" font-family="Helvetica,sans-Serif" font-size="10.00">Drone::Drone_descent</text>
</a>
</g>
</g>
<!-- Node4&#45;&gt;Node6 -->
<g id="edge5" class="edge">
<title>Node4&#45;&gt;Node6</title>
<path fill="none" stroke="midnightblue" d="M476.94,-190.29C474.18,-188.67 471.51,-186.94 469,-185.1 448.63,-170.16 454.2,-154.84 433,-141.1 426.98,-137.2 420.17,-134.09 413.22,-131.62"/>
<polygon fill="midnightblue" stroke="midnightblue" points="475.53,-193.51 486,-195.1 478.81,-187.32 475.53,-193.51"/>
</g>
<!-- Node7 -->
<g id="node7" class="node">
<title>Node7</title>
<g id="a_node7"><a xlink:href="class_drone.html#aec9abadf85777ab20e361d1389aab466" target="_top" xlink:title="Metoda obliczajaca i przeprowadzajaca koncowy ruch drona (obrot o kat i koncowy przelot z zadania 5....">
<polygon fill="none" stroke="black" points="134,-22.1 134,-52.1 255,-52.1 255,-22.1 134,-22.1"/>
<text text-anchor="start" x="142" y="-40.1" font-family="Helvetica,sans-Serif" font-size="10.00">Drone::Drone_motion</text>
<text text-anchor="middle" x="194.5" y="-29.1" font-family="Helvetica,sans-Serif" font-size="10.00">_after_update</text>
</a>
</g>
</g>
<!-- Node4&#45;&gt;Node7 -->
<g id="edge6" class="edge">
<title>Node4&#45;&gt;Node7</title>
<path fill="none" stroke="midnightblue" d="M461.4,-212.87C399.8,-213.79 316.16,-210.9 291,-190.1 245.12,-152.17 294.68,-105.47 255,-61.1 251.96,-57.7 248.36,-54.77 244.47,-52.25"/>
<polygon fill="midnightblue" stroke="midnightblue" points="461.54,-216.36 471.47,-212.68 461.41,-209.36 461.54,-216.36"/>
</g>
<!-- Node4&#45;&gt;Node8 -->
<g id="edge7" class="edge">
<title>Node4&#45;&gt;Node8</title>
<path fill="none" stroke="midnightblue" d="M473.7,-189.17C472.05,-187.89 470.48,-186.53 469,-185.1 440.39,-157.43 456.31,-135.36 433,-103.1 419.4,-84.28 399.35,-66.96 384.19,-55.26"/>
<polygon fill="midnightblue" stroke="midnightblue" points="472.17,-192.35 482.44,-194.96 476.04,-186.52 472.17,-192.35"/>
</g>
<!-- Node4&#45;&gt;Node9 -->
<g id="edge10" class="edge">
<title>Node4&#45;&gt;Node9</title>
<path fill="none" stroke="midnightblue" d="M496.74,-230.15C478.17,-240.43 454.71,-252.71 433,-262.1 420.62,-267.45 406.62,-272.45 394.41,-276.49"/>
<polygon fill="midnightblue" stroke="midnightblue" points="498.68,-233.07 505.7,-225.14 495.27,-226.96 498.68,-233.07"/>
</g>
<!-- Node10 -->
<g id="node10" class="node">
<title>Node10</title>
<g id="a_node10"><a xlink:href="class_drone.html#a5fc9dd645ad3856b5d3c501c63c464e3" target="_top" xlink:title="Metoda animujaca translacje drona i wyrysowujaca calosc w gnuplocie.">
<polygon fill="none" stroke="black" points="292.5,-151.1 292.5,-181.1 431.5,-181.1 431.5,-151.1 292.5,-151.1"/>
<text text-anchor="start" x="300.5" y="-169.1" font-family="Helvetica,sans-Serif" font-size="10.00">Drone::Drone_translation</text>
<text text-anchor="middle" x="362" y="-158.1" font-family="Helvetica,sans-Serif" font-size="10.00">_animation</text>
</a>
</g>
</g>
<!-- Node4&#45;&gt;Node10 -->
<g id="edge11" class="edge">
<title>Node4&#45;&gt;Node10</title>
<path fill="none" stroke="midnightblue" d="M464.12,-192.51C449.69,-188.74 434.57,-184.79 420.54,-181.13"/>
<polygon fill="midnightblue" stroke="midnightblue" points="463.42,-195.94 473.98,-195.08 465.19,-189.17 463.42,-195.94"/>
</g>
<!-- Node8&#45;&gt;Node5 -->
<g id="edge8" class="edge">
<title>Node8&#45;&gt;Node5</title>
<path fill="none" stroke="midnightblue" d="M297.16,-57.84C281.43,-62.22 264.74,-66.86 249.53,-71.08"/>
<polygon fill="midnightblue" stroke="midnightblue" points="298.11,-61.21 306.81,-55.16 296.24,-54.47 298.11,-61.21"/>
</g>
<!-- Node8&#45;&gt;Node7 -->
<g id="edge9" class="edge">
<title>Node8&#45;&gt;Node7</title>
<path fill="none" stroke="midnightblue" d="M289.1,-38.8C277.81,-38.59 266.24,-38.38 255.25,-38.18"/>
<polygon fill="midnightblue" stroke="midnightblue" points="289.31,-42.3 299.37,-38.98 289.44,-35.3 289.31,-42.3"/>
</g>
<!-- Node12 -->
<g id="node12" class="node">
<title>Node12</title>
<g id="a_node12"><a xlink:href="class_scene.html#a5fb0b9741a75dec929b5ea5d6ac917a1" target="_top" xlink:title="Przelot aktywnego drona.">
<polygon fill="none" stroke="black" points="330,-314.6 330,-333.6 394,-333.6 394,-314.6 330,-314.6"/>
<text text-anchor="middle" x="362" y="-321.6" font-family="Helvetica,sans-Serif" font-size="10.00">Scene::fly</text>
</a>
</g>
</g>
<!-- Node11&#45;&gt;Node12 -->
<g id="edge15" class="edge">
<title>Node11&#45;&gt;Node12</title>
<path fill="none" stroke="midnightblue" d="M468.34,-319.1C442.97,-320.3 414.87,-321.64 394.08,-322.63"/>
<polygon fill="midnightblue" stroke="midnightblue" points="468.83,-322.58 478.65,-318.61 468.49,-315.59 468.83,-322.58"/>
</g>
<!-- Node13 -->
<g id="node13" class="node">
<title>Node13</title>
<g id="a_node13"><a xlink:href="class_menu.html#acd338552222b744cd030e17776cb5d9b" target="_top" xlink:title="Obsluguje wybor menu.">
<polygon fill="none" stroke="black" points="137.5,-314.6 137.5,-333.6 251.5,-333.6 251.5,-314.6 137.5,-314.6"/>
<text text-anchor="middle" x="194.5" y="-321.6" font-family="Helvetica,sans-Serif" font-size="10.00">Menu::switch_menu</text>
</a>
</g>
</g>
<!-- Node12&#45;&gt;Node13 -->
<g id="edge16" class="edge">
<title>Node12&#45;&gt;Node13</title>
<path fill="none" stroke="midnightblue" d="M319.86,-324.1C299.24,-324.1 273.98,-324.1 251.61,-324.1"/>
<polygon fill="midnightblue" stroke="midnightblue" points="319.87,-327.6 329.87,-324.1 319.87,-320.6 319.87,-327.6"/>
</g>
<!-- Node14 -->
<g id="node14" class="node">
<title>Node14</title>
<g id="a_node14"><a xlink:href="class_menu.html#af7e6a49bd56499facef9cc98561ea169" target="_top" xlink:title="Inicjuje i obsluguje menu.">
<polygon fill="none" stroke="black" points="0,-314.6 0,-333.6 98,-333.6 98,-314.6 0,-314.6"/>
<text text-anchor="middle" x="49" y="-321.6" font-family="Helvetica,sans-Serif" font-size="10.00">Menu::init_menu</text>
</a>
</g>
</g>
<!-- Node13&#45;&gt;Node14 -->
<g id="edge17" class="edge">
<title>Node13&#45;&gt;Node14</title>
<path fill="none" stroke="midnightblue" d="M127.13,-324.1C117.39,-324.1 107.52,-324.1 98.24,-324.1"/>
<polygon fill="midnightblue" stroke="midnightblue" points="127.2,-327.6 137.2,-324.1 127.2,-320.6 127.2,-327.6"/>
</g>
<!-- Node15&#45;&gt;Node5 -->
<g id="edge19" class="edge">
<title>Node15&#45;&gt;Node5</title>
<path fill="none" stroke="midnightblue" d="M458.78,-107.06C450.12,-105.57 441.38,-104.21 433,-103.1 370.91,-94.92 299.13,-90.47 250.88,-88.2"/>
<polygon fill="midnightblue" stroke="midnightblue" points="458.43,-110.56 468.89,-108.87 459.66,-103.67 458.43,-110.56"/>
</g>
<!-- Node15&#45;&gt;Node6 -->
<g id="edge20" class="edge">
<title>Node15&#45;&gt;Node6</title>
<path fill="none" stroke="midnightblue" d="M458.5,-122.1C447.22,-122.1 435.67,-122.1 424.67,-122.1"/>
<polygon fill="midnightblue" stroke="midnightblue" points="458.76,-125.6 468.76,-122.1 458.76,-118.6 458.76,-125.6"/>
</g>
<!-- Node15&#45;&gt;Node7 -->
<g id="edge21" class="edge">
<title>Node15&#45;&gt;Node7</title>
<path fill="none" stroke="midnightblue" d="M517.88,-98.15C501.54,-72.11 471.47,-31.98 433,-15.1 368.15,13.34 283.97,-6.03 235.22,-22.03"/>
<polygon fill="midnightblue" stroke="midnightblue" points="514.9,-99.98 523.08,-106.71 520.88,-96.34 514.9,-99.98"/>
</g>
<!-- Node15&#45;&gt;Node8 -->
<g id="edge22" class="edge">
<title>Node15&#45;&gt;Node8</title>
<path fill="none" stroke="midnightblue" d="M495.26,-102.07C476.8,-92.1 453.9,-80.08 433,-70.1 422.26,-64.98 410.42,-59.75 399.58,-55.12"/>
<polygon fill="midnightblue" stroke="midnightblue" points="493.75,-105.23 504.2,-106.93 497.09,-99.08 493.75,-105.23"/>
</g>
<!-- Node15&#45;&gt;Node9 -->
<g id="edge23" class="edge">
<title>Node15&#45;&gt;Node9</title>
<path fill="none" stroke="midnightblue" d="M476.31,-142.14C473.76,-143.69 471.31,-145.34 469,-147.1 456.13,-156.88 391.3,-246.61 369.88,-276.48"/>
<polygon fill="midnightblue" stroke="midnightblue" points="478.14,-145.13 485.23,-137.26 474.78,-138.99 478.14,-145.13"/>
</g>
<!-- Node15&#45;&gt;Node10 -->
<g id="edge24" class="edge">
<title>Node15&#45;&gt;Node10</title>
<path fill="none" stroke="midnightblue" d="M464.12,-139.7C449.69,-143.46 434.57,-147.41 420.54,-151.08"/>
<polygon fill="midnightblue" stroke="midnightblue" points="465.19,-143.03 473.98,-137.12 463.42,-136.26 465.19,-143.03"/>
</g>
</g>
</svg>
        <g id="navigator" transform="translate(0 0)" fill="#404254">
                <rect fill="#f2f5e9" fill-opacity="0.5" stroke="#606060" stroke-width=".5" x="0" y="0" width="60" height="60"/>
                <use id="zoomplus" xlink:href="#zoomPlus" x="17" y="9" onmousedown="handleZoom(evt,'in')"/>
                <use id="zoomminus" xlink:href="#zoomMin" x="42" y="9" onmousedown="handleZoom(evt,'out')"/>
                <use id="reset" xlink:href="#resetDef" x="30" y="36" onmousedown="handleReset()"/>
                <g id="arrowUp" xlink:href="#dirArrow" transform="translate(30 24)" onmousedown="handlePan(0,-1)">
                  <use xlink:href="#rim" fill="#404040">
                        <set attributeName="fill" to="#808080" begin="arrowUp.mouseover" end="arrowUp.mouseout"/>
                  </use>
                  <path fill="none" stroke="white" stroke-width="1.5" d="M0,-3.0v7 M-2.5,-0.5L0,-3.0L2.5,-0.5"/>
                </g>
                <g id="arrowRight" xlink:href="#dirArrow" transform="rotate(90) translate(36 -43)" onmousedown="handlePan(1,0)">
                  <use xlink:href="#rim" fill="#404040">
                        <set attributeName="fill" to="#808080" begin="arrowRight.mouseover" end="arrowRight.mouseout"/>
                  </use>
                  <path fill="none" stroke="white" stroke-width="1.5" d="M0,-3.0v7 M-2.5,-0.5L0,-3.0L2.5,-0.5"/>
                </g>
                <g id="arrowDown" xlink:href="#dirArrow" transform="rotate(180) translate(-30 -48)" onmousedown="handlePan(0,1)">
                  <use xlink:href="#rim" fill="#404040">
                        <set attributeName="fill" to="#808080" begin="arrowDown.mouseover" end="arrowDown.mouseout"/>
                  </use>
                  <path fill="none" stroke="white" stroke-width="1.5" d="M0,-3.0v7 M-2.5,-0.5L0,-3.0L2.5,-0.5"/>
                </g>
                <g id="arrowLeft" xlink:href="#dirArrow" transform="rotate(270) translate(-36 17)" onmousedown="handlePan(-1,0)">
                  <use xlink:href="#rim" fill="#404040">
                        <set attributeName="fill" to="#808080" begin="arrowLeft.mouseover" end="arrowLeft.mouseout"/>
                  </use>
                  <path fill="none" stroke="white" stroke-width="1.5" d="M0,-3.0v7 M-2.5,-0.5L0,-3.0L2.5,-0.5"/>
                </g>
        </g>
        <svg viewBox="0 0 15 15" width="100%" height="30px" preserveAspectRatio="xMaxYMin meet">
         <g id="arrow_out" transform="scale(0.3 0.3)">
          <a xlink:href="class_prism_a22c5467db5d960bddbaf9a52f55c55cb_icgraph_org.svg" target="_base">
           <rect id="button" ry="5" rx="5" y="6" x="6" height="38" width="38"
                fill="#f2f5e9" fill-opacity="0.5" stroke="#606060" stroke-width="1.0"/>
           <path id="arrow"
             d="M 11.500037,31.436501 C 11.940474,20.09759 22.043105,11.32322 32.158766,21.979434 L 37.068811,17.246167 C 37.068811,17.246167 37.088388,32 37.088388,32 L 22.160133,31.978069 C 22.160133,31.978069 26.997745,27.140456 26.997745,27.140456 C 18.528582,18.264221 13.291696,25.230495 11.500037,31.436501 z"
             style="fill:#404040;"/>
          </a>
         </g>
        </svg>
</svg>
