<?xml version="1.0" encoding="UTF-8" standalone="no"?>
<!DOCTYPE svg PUBLIC "-//W3C//DTD SVG 1.1//EN"
 "http://www.w3.org/Graphics/SVG/1.1/DTD/svg11.dtd">
<!-- Generated by graphviz version 2.43.0 (0)
 -->
<!-- Title: Drone::Drone_From_Sample Pages: 1 -->
<svg width="654pt" height="227pt"
 viewBox="0.00 0.00 654.00 227.24" xmlns="http://www.w3.org/2000/svg" xmlns:xlink="http://www.w3.org/1999/xlink">
<g id="graph0" class="graph" transform="scale(1 1) rotate(0) translate(4 223.24)">
<title>Drone::Drone_From_Sample</title>
<!-- Node1 -->
<g id="node1" class="node">
<title>Node1</title>
<g id="a_node1"><a xlink:title="Metoda wczytywania odpowiednich wierzcholkow z pliku wzorcowego zgodnie z zaproponowanym sposobem w z...">
<polygon fill="#bfbfbf" stroke="black" points="493,-110 493,-129 646,-129 646,-110 493,-110"/>
<text text-anchor="middle" x="569.5" y="-117" font-family="Helvetica,sans-Serif" font-size="10.00">Drone::Drone_From_Sample</text>
</a>
</g>
</g>
<!-- Node2 -->
<g id="node2" class="node">
<title>Node2</title>
<g id="a_node2"><a xlink:href="class_drone.html#af03af60a9b92e4191a7e66b5c20b52bb" target="_top" xlink:title="Metoda zamieniajaca drona na tego z pliku sample.">
<polygon fill="none" stroke="black" points="335,-104.5 335,-134.5 457,-134.5 457,-104.5 335,-104.5"/>
<text text-anchor="start" x="343" y="-122.5" font-family="Helvetica,sans-Serif" font-size="10.00">Drone::Drone_change</text>
<text text-anchor="middle" x="396" y="-111.5" font-family="Helvetica,sans-Serif" font-size="10.00">_to_sample</text>
</a>
</g>
</g>
<!-- Node1&#45;&gt;Node2 -->
<g id="edge1" class="edge">
<title>Node1&#45;&gt;Node2</title>
<path fill="none" stroke="midnightblue" d="M482.67,-119.5C474.04,-119.5 465.41,-119.5 457.13,-119.5"/>
<polygon fill="midnightblue" stroke="midnightblue" points="482.78,-123 492.78,-119.5 482.78,-116 482.78,-123"/>
</g>
<!-- Node3 -->
<g id="node3" class="node">
<title>Node3</title>
<g id="a_node3"><a xlink:href="class_drone.html#a7eecbd031df9009e113d355a9dcdf4e1" target="_top" xlink:title="Metoda obliczajaca i przeprowadzajaca caly ruch drona (obrot o kat i przelot z zadania 5....">
<polygon fill="none" stroke="black" points="4.5,-180.5 4.5,-210.5 116.5,-210.5 116.5,-180.5 4.5,-180.5"/>
<text text-anchor="start" x="12.5" y="-198.5" font-family="Helvetica,sans-Serif" font-size="10.00">Drone::Drone_basic</text>
<text text-anchor="middle" x="60.5" y="-187.5" font-family="Helvetica,sans-Serif" font-size="10.00">_motion_flight</text>
</a>
</g>
</g>
<!-- Node2&#45;&gt;Node3 -->
<g id="edge2" class="edge">
<title>Node2&#45;&gt;Node3</title>
<path fill="none" stroke="midnightblue" d="M377.22,-142.81C359.86,-163.48 331.38,-192.22 299,-204.5 239.78,-226.95 166.19,-219.24 116.75,-209.47"/>
<polygon fill="midnightblue" stroke="midnightblue" points="380.15,-144.76 383.74,-134.8 374.72,-140.35 380.15,-144.76"/>
</g>
<!-- Node4 -->
<g id="node4" class="node">
<title>Node4</title>
<g id="a_node4"><a xlink:href="class_drone.html#a4abbed4a4cc52e5630f07f9129b46c5c" target="_top" xlink:title="Metoda realizujaca ladowanie drona.">
<polygon fill="none" stroke="black" points="165.5,-176 165.5,-195 290.5,-195 290.5,-176 165.5,-176"/>
<text text-anchor="middle" x="228" y="-183" font-family="Helvetica,sans-Serif" font-size="10.00">Drone::Drone_descent</text>
</a>
</g>
</g>
<!-- Node2&#45;&gt;Node4 -->
<g id="edge3" class="edge">
<title>Node2&#45;&gt;Node4</title>
<path fill="none" stroke="midnightblue" d="M358.16,-139.58C340.59,-148.62 319.07,-158.94 299,-166.5 289.57,-170.05 279.2,-173.24 269.4,-175.94"/>
<polygon fill="midnightblue" stroke="midnightblue" points="360.23,-142.45 367.48,-134.72 356.99,-136.24 360.23,-142.45"/>
</g>
<!-- Node5 -->
<g id="node5" class="node">
<title>Node5</title>
<g id="a_node5"><a xlink:href="class_drone.html#aec9abadf85777ab20e361d1389aab466" target="_top" xlink:title="Metoda obliczajaca i przeprowadzajaca koncowy ruch drona (obrot o kat i koncowy przelot z zadania 5....">
<polygon fill="none" stroke="black" points="0,-104.5 0,-134.5 121,-134.5 121,-104.5 0,-104.5"/>
<text text-anchor="start" x="8" y="-122.5" font-family="Helvetica,sans-Serif" font-size="10.00">Drone::Drone_motion</text>
<text text-anchor="middle" x="60.5" y="-111.5" font-family="Helvetica,sans-Serif" font-size="10.00">_after_update</text>
</a>
</g>
</g>
<!-- Node2&#45;&gt;Node5 -->
<g id="edge4" class="edge">
<title>Node2&#45;&gt;Node5</title>
<path fill="none" stroke="midnightblue" d="M324.73,-117.05C316.06,-116.82 307.33,-116.63 299,-116.5 235.9,-115.51 220.1,-115.51 157,-116.5 145.39,-116.68 132.99,-116.99 121.1,-117.34"/>
<polygon fill="midnightblue" stroke="midnightblue" points="324.74,-120.55 334.83,-117.33 324.94,-113.56 324.74,-120.55"/>
</g>
<!-- Node6 -->
<g id="node6" class="node">
<title>Node6</title>
<g id="a_node6"><a xlink:href="class_drone.html#af052f6bb793d1229b99b16b800b95b82" target="_top" xlink:title="Metoda animujaca obrot drona i wyrysowujaca calosc w gnuplocie.">
<polygon fill="none" stroke="black" points="165.5,-126.5 165.5,-156.5 290.5,-156.5 290.5,-126.5 165.5,-126.5"/>
<text text-anchor="start" x="173.5" y="-144.5" font-family="Helvetica,sans-Serif" font-size="10.00">Drone::Drone_rotation</text>
<text text-anchor="middle" x="228" y="-133.5" font-family="Helvetica,sans-Serif" font-size="10.00">_animation</text>
</a>
</g>
</g>
<!-- Node2&#45;&gt;Node6 -->
<g id="edge5" class="edge">
<title>Node2&#45;&gt;Node6</title>
<path fill="none" stroke="midnightblue" d="M324.43,-128.85C313.23,-130.34 301.72,-131.86 290.75,-133.32"/>
<polygon fill="midnightblue" stroke="midnightblue" points="325.15,-132.29 334.6,-127.5 324.23,-125.35 325.15,-132.29"/>
</g>
<!-- Node7 -->
<g id="node7" class="node">
<title>Node7</title>
<g id="a_node7"><a xlink:href="class_drone.html#ab7808296cec81143dbddd7516340a371" target="_top" xlink:title="Metoda robiaca &quot;oblot&quot; drona wokol punktu (z modyfikacji)">
<polygon fill="none" stroke="black" points="157,-50 157,-69 299,-69 299,-50 157,-50"/>
<text text-anchor="middle" x="228" y="-57" font-family="Helvetica,sans-Serif" font-size="10.00">Drone::Drone_roundabout</text>
</a>
</g>
</g>
<!-- Node2&#45;&gt;Node7 -->
<g id="edge8" class="edge">
<title>Node2&#45;&gt;Node7</title>
<path fill="none" stroke="midnightblue" d="M345.79,-100.74C330.8,-95.11 314.26,-88.97 299,-83.5 285.34,-78.6 270.1,-73.35 257.33,-69.01"/>
<polygon fill="midnightblue" stroke="midnightblue" points="344.8,-104.11 355.39,-104.36 347.27,-97.56 344.8,-104.11"/>
</g>
<!-- Node8 -->
<g id="node8" class="node">
<title>Node8</title>
<g id="a_node8"><a xlink:href="class_drone.html#a5fc9dd645ad3856b5d3c501c63c464e3" target="_top" xlink:title="Metoda animujaca translacje drona i wyrysowujaca calosc w gnuplocie.">
<polygon fill="none" stroke="black" points="158.5,-0.5 158.5,-30.5 297.5,-30.5 297.5,-0.5 158.5,-0.5"/>
<text text-anchor="start" x="166.5" y="-18.5" font-family="Helvetica,sans-Serif" font-size="10.00">Drone::Drone_translation</text>
<text text-anchor="middle" x="228" y="-7.5" font-family="Helvetica,sans-Serif" font-size="10.00">_animation</text>
</a>
</g>
</g>
<!-- Node2&#45;&gt;Node8 -->
<g id="edge9" class="edge">
<title>Node2&#45;&gt;Node8</title>
<path fill="none" stroke="midnightblue" d="M372.62,-97.24C354.16,-79.87 326.6,-56.15 299,-40.5 292.49,-36.81 285.34,-33.51 278.16,-30.61"/>
<polygon fill="midnightblue" stroke="midnightblue" points="370.3,-99.87 379.95,-104.25 375.14,-94.81 370.3,-99.87"/>
</g>
<!-- Node6&#45;&gt;Node3 -->
<g id="edge6" class="edge">
<title>Node6&#45;&gt;Node3</title>
<path fill="none" stroke="midnightblue" d="M171.28,-159.68C150.6,-166.43 127.38,-174 107.64,-180.45"/>
<polygon fill="midnightblue" stroke="midnightblue" points="172.48,-162.97 180.9,-156.54 170.31,-156.32 172.48,-162.97"/>
</g>
<!-- Node6&#45;&gt;Node5 -->
<g id="edge7" class="edge">
<title>Node6&#45;&gt;Node5</title>
<path fill="none" stroke="midnightblue" d="M155.45,-131.99C144.04,-130.47 132.35,-128.92 121.25,-127.44"/>
<polygon fill="midnightblue" stroke="midnightblue" points="155,-135.46 165.37,-133.31 155.92,-128.52 155,-135.46"/>
</g>
</g>
</svg>
