<?xml version="1.0" encoding="UTF-8" standalone="no"?>
<!DOCTYPE svg PUBLIC "-//W3C//DTD SVG 1.1//EN"
 "http://www.w3.org/Graphics/SVG/1.1/DTD/svg11.dtd">
<!-- Generated by graphviz version 2.43.0 (0)
 -->
<!-- Title: Scene Pages: 1 -->
<svg width="729pt" height="2611pt"
 viewBox="0.00 0.00 729.27 2611.00" xmlns="http://www.w3.org/2000/svg" xmlns:xlink="http://www.w3.org/1999/xlink">
<g id="graph0" class="graph" transform="scale(1 1) rotate(0) translate(4 2607)">
<title>Scene</title>
<!-- Node1 -->
<g id="node1" class="node">
<title>Node1</title>
<g id="a_node1"><a xlink:title="Opisuje scene w 3D w ktorej poruszaja sie drony.">
<polygon fill="#bfbfbf" stroke="black" points="499.27,-0.5 499.27,-299.5 655.27,-299.5 655.27,-0.5 499.27,-0.5"/>
<text text-anchor="middle" x="577.27" y="-287.5" font-family="Helvetica,sans-Serif" font-size="10.00">Scene</text>
<polyline fill="none" stroke="black" points="499.27,-280.5 655.27,-280.5 "/>
<text text-anchor="middle" x="577.27" y="-268.5" font-family="Helvetica,sans-Serif" font-size="10.00"> </text>
<polyline fill="none" stroke="black" points="499.27,-261.5 655.27,-261.5 "/>
<text text-anchor="start" x="507.27" y="-249.5" font-family="Helvetica,sans-Serif" font-size="10.00">+ Scene()</text>
<text text-anchor="start" x="507.27" y="-238.5" font-family="Helvetica,sans-Serif" font-size="10.00">+ init_objects()</text>
<text text-anchor="start" x="507.27" y="-227.5" font-family="Helvetica,sans-Serif" font-size="10.00">+ add_basic_objects()</text>
<text text-anchor="start" x="507.27" y="-216.5" font-family="Helvetica,sans-Serif" font-size="10.00">+ add_object()</text>
<text text-anchor="start" x="507.27" y="-205.5" font-family="Helvetica,sans-Serif" font-size="10.00">+ delete_object()</text>
<text text-anchor="start" x="507.27" y="-194.5" font-family="Helvetica,sans-Serif" font-size="10.00">+ switch_object_position()</text>
<text text-anchor="start" x="507.27" y="-183.5" font-family="Helvetica,sans-Serif" font-size="10.00">+ add_object_type_cuboid()</text>
<text text-anchor="start" x="507.27" y="-172.5" font-family="Helvetica,sans-Serif" font-size="10.00">+ add_object_type_prism()</text>
<text text-anchor="start" x="507.27" y="-161.5" font-family="Helvetica,sans-Serif" font-size="10.00">+ create_filenames()</text>
<text text-anchor="start" x="507.27" y="-150.5" font-family="Helvetica,sans-Serif" font-size="10.00">+ switch_create_filenames()</text>
<text text-anchor="start" x="507.27" y="-139.5" font-family="Helvetica,sans-Serif" font-size="10.00">+ get_objects_size()</text>
<text text-anchor="start" x="507.27" y="-128.5" font-family="Helvetica,sans-Serif" font-size="10.00">+ check_scene()</text>
<text text-anchor="start" x="507.27" y="-117.5" font-family="Helvetica,sans-Serif" font-size="10.00">+ operator==()</text>
<text text-anchor="start" x="507.27" y="-106.5" font-family="Helvetica,sans-Serif" font-size="10.00">+ choose_drone()</text>
<text text-anchor="start" x="507.27" y="-95.5" font-family="Helvetica,sans-Serif" font-size="10.00">+ init_gnuplot()</text>
<text text-anchor="start" x="507.27" y="-84.5" font-family="Helvetica,sans-Serif" font-size="10.00">+ iterate_over_objects()</text>
<text text-anchor="start" x="507.27" y="-73.5" font-family="Helvetica,sans-Serif" font-size="10.00">+ get_active()</text>
<text text-anchor="start" x="507.27" y="-62.5" font-family="Helvetica,sans-Serif" font-size="10.00">+ get_filename_num()</text>
<text text-anchor="start" x="507.27" y="-51.5" font-family="Helvetica,sans-Serif" font-size="10.00">+ print_active()</text>
<text text-anchor="start" x="507.27" y="-40.5" font-family="Helvetica,sans-Serif" font-size="10.00">+ print_positions()</text>
<text text-anchor="start" x="507.27" y="-29.5" font-family="Helvetica,sans-Serif" font-size="10.00">+ fly()</text>
<text text-anchor="start" x="507.27" y="-18.5" font-family="Helvetica,sans-Serif" font-size="10.00">+ fly_roundabout()</text>
<text text-anchor="start" x="507.27" y="-7.5" font-family="Helvetica,sans-Serif" font-size="10.00">+ show_elements()</text>
</a>
</g>
</g>
<!-- Node2 -->
<g id="node2" class="node">
<title>Node2</title>
<g id="a_node2"><a xlink:href="class_drone.html" target="_top" xlink:title="Opisuje drona o prostopadlosciennym korpusie i 4 rotorach.">
<polygon fill="none" stroke="black" points="257.77,-347.5 257.77,-756.5 442.77,-756.5 442.77,-347.5 257.77,-347.5"/>
<text text-anchor="middle" x="350.27" y="-744.5" font-family="Helvetica,sans-Serif" font-size="10.00">Drone</text>
<polyline fill="none" stroke="black" points="257.77,-737.5 442.77,-737.5 "/>
<text text-anchor="middle" x="350.27" y="-725.5" font-family="Helvetica,sans-Serif" font-size="10.00"> </text>
<polyline fill="none" stroke="black" points="257.77,-718.5 442.77,-718.5 "/>
<text text-anchor="start" x="265.77" y="-706.5" font-family="Helvetica,sans-Serif" font-size="10.00">+ Drone()</text>
<text text-anchor="start" x="265.77" y="-695.5" font-family="Helvetica,sans-Serif" font-size="10.00">+ set_rotors_in_place()</text>
<text text-anchor="start" x="265.77" y="-684.5" font-family="Helvetica,sans-Serif" font-size="10.00">+ translation()</text>
<text text-anchor="start" x="265.77" y="-673.5" font-family="Helvetica,sans-Serif" font-size="10.00">+ translation_to_pos()</text>
<text text-anchor="start" x="265.77" y="-662.5" font-family="Helvetica,sans-Serif" font-size="10.00">+ rotation_around_cen()</text>
<text text-anchor="start" x="265.77" y="-651.5" font-family="Helvetica,sans-Serif" font-size="10.00">+ scale_dro()</text>
<text text-anchor="start" x="265.77" y="-640.5" font-family="Helvetica,sans-Serif" font-size="10.00">+ operator==()</text>
<text text-anchor="start" x="265.77" y="-629.5" font-family="Helvetica,sans-Serif" font-size="10.00">+ set_drone_pos()</text>
<text text-anchor="start" x="265.77" y="-618.5" font-family="Helvetica,sans-Serif" font-size="10.00">+ print_drone_pos()</text>
<text text-anchor="start" x="265.77" y="-607.5" font-family="Helvetica,sans-Serif" font-size="10.00">+ set_scale_all()</text>
<text text-anchor="start" x="265.77" y="-596.5" font-family="Helvetica,sans-Serif" font-size="10.00">+ get_dro()</text>
<text text-anchor="start" x="265.77" y="-585.5" font-family="Helvetica,sans-Serif" font-size="10.00">+ check_dro()</text>
<text text-anchor="start" x="265.77" y="-574.5" font-family="Helvetica,sans-Serif" font-size="10.00">+ get_orien()</text>
<text text-anchor="start" x="265.77" y="-563.5" font-family="Helvetica,sans-Serif" font-size="10.00">+ get_body_height()</text>
<text text-anchor="start" x="265.77" y="-552.5" font-family="Helvetica,sans-Serif" font-size="10.00">+ check_orien()</text>
<text text-anchor="start" x="265.77" y="-541.5" font-family="Helvetica,sans-Serif" font-size="10.00">+ setup_filenames()</text>
<text text-anchor="start" x="265.77" y="-530.5" font-family="Helvetica,sans-Serif" font-size="10.00">+ set_filenames_gnuplot()</text>
<text text-anchor="start" x="265.77" y="-519.5" font-family="Helvetica,sans-Serif" font-size="10.00">+ get_filenames()</text>
<text text-anchor="start" x="265.77" y="-508.5" font-family="Helvetica,sans-Serif" font-size="10.00">+ Print_to_gnuplot_drone()</text>
<text text-anchor="start" x="265.77" y="-497.5" font-family="Helvetica,sans-Serif" font-size="10.00">+ Print_to_files_drone()</text>
<text text-anchor="start" x="265.77" y="-486.5" font-family="Helvetica,sans-Serif" font-size="10.00">+ Rotors_rotation_animation()</text>
<text text-anchor="start" x="265.77" y="-475.5" font-family="Helvetica,sans-Serif" font-size="10.00">+ Drone_rotation_animation()</text>
<text text-anchor="start" x="265.77" y="-464.5" font-family="Helvetica,sans-Serif" font-size="10.00">+ Drone_make_path()</text>
<text text-anchor="start" x="265.77" y="-453.5" font-family="Helvetica,sans-Serif" font-size="10.00">+ Drone_path_to_file()</text>
<text text-anchor="start" x="265.77" y="-442.5" font-family="Helvetica,sans-Serif" font-size="10.00">+ Drone_path_clear()</text>
<text text-anchor="start" x="265.77" y="-431.5" font-family="Helvetica,sans-Serif" font-size="10.00">+ Drone_translation_animation()</text>
<text text-anchor="start" x="265.77" y="-420.5" font-family="Helvetica,sans-Serif" font-size="10.00">+ Drone_change_to_sample()</text>
<text text-anchor="start" x="265.77" y="-409.5" font-family="Helvetica,sans-Serif" font-size="10.00">+ Drone_From_Sample()</text>
<text text-anchor="start" x="265.77" y="-398.5" font-family="Helvetica,sans-Serif" font-size="10.00">+ Drone_basic_motion()</text>
<text text-anchor="start" x="265.77" y="-387.5" font-family="Helvetica,sans-Serif" font-size="10.00">+ Drone_roundabout()</text>
<text text-anchor="start" x="265.77" y="-376.5" font-family="Helvetica,sans-Serif" font-size="10.00">+ Drone_make_path_roundabout()</text>
<text text-anchor="start" x="265.77" y="-365.5" font-family="Helvetica,sans-Serif" font-size="10.00">+ print_name()</text>
<text text-anchor="start" x="265.77" y="-354.5" font-family="Helvetica,sans-Serif" font-size="10.00">+ print_pos()</text>
</a>
</g>
</g>
<!-- Node2&#45;&gt;Node1 -->
<g id="edge1" class="edge">
<title>Node2&#45;&gt;Node1</title>
<path fill="none" stroke="#404040" d="M442.93,-387.73C459.58,-358.39 476.85,-327.95 493.24,-299.07"/>
<polygon fill="none" stroke="#404040" points="493.31,-298.95 492.79,-291.75 499.24,-288.51 499.75,-295.7 493.31,-298.95"/>
<text text-anchor="middle" x="492.27" y="-321" font-family="Helvetica,sans-Serif" font-size="10.00"> &#45;flies</text>
</g>
<!-- Node3 -->
<g id="node3" class="node">
<title>Node3</title>
<g id="a_node3"><a xlink:href="class_block.html" target="_top" xlink:title="Opisuje figure geometryczna w przestrzeni trojwymiarowej.">
<polygon fill="none" stroke="black" points="65.77,-1294.5 65.77,-1505.5 190.77,-1505.5 190.77,-1294.5 65.77,-1294.5"/>
<text text-anchor="middle" x="128.27" y="-1493.5" font-family="Helvetica,sans-Serif" font-size="10.00">Block</text>
<polyline fill="none" stroke="black" points="65.77,-1486.5 190.77,-1486.5 "/>
<text text-anchor="middle" x="128.27" y="-1474.5" font-family="Helvetica,sans-Serif" font-size="10.00"> </text>
<polyline fill="none" stroke="black" points="65.77,-1467.5 190.77,-1467.5 "/>
<text text-anchor="start" x="73.77" y="-1455.5" font-family="Helvetica,sans-Serif" font-size="10.00">+ Block()</text>
<text text-anchor="start" x="73.77" y="-1444.5" font-family="Helvetica,sans-Serif" font-size="10.00">+ Block()</text>
<text text-anchor="start" x="73.77" y="-1433.5" font-family="Helvetica,sans-Serif" font-size="10.00">+ Block()</text>
<text text-anchor="start" x="73.77" y="-1422.5" font-family="Helvetica,sans-Serif" font-size="10.00">+ set_sample_name()</text>
<text text-anchor="start" x="73.77" y="-1411.5" font-family="Helvetica,sans-Serif" font-size="10.00">+ set_final_name()</text>
<text text-anchor="start" x="73.77" y="-1400.5" font-family="Helvetica,sans-Serif" font-size="10.00">+ set_scale()</text>
<text text-anchor="start" x="73.77" y="-1389.5" font-family="Helvetica,sans-Serif" font-size="10.00">+ set_scale()</text>
<text text-anchor="start" x="73.77" y="-1378.5" font-family="Helvetica,sans-Serif" font-size="10.00">+ check_block()</text>
<text text-anchor="start" x="73.77" y="-1367.5" font-family="Helvetica,sans-Serif" font-size="10.00">+ get_sample_name()</text>
<text text-anchor="start" x="73.77" y="-1356.5" font-family="Helvetica,sans-Serif" font-size="10.00">+ get_final_name()</text>
<text text-anchor="start" x="73.77" y="-1345.5" font-family="Helvetica,sans-Serif" font-size="10.00">+ get_scale()</text>
<text text-anchor="start" x="73.77" y="-1334.5" font-family="Helvetica,sans-Serif" font-size="10.00">+ print_name()</text>
<text text-anchor="start" x="73.77" y="-1323.5" font-family="Helvetica,sans-Serif" font-size="10.00">+ print_pos()</text>
<text text-anchor="start" x="73.77" y="-1312.5" font-family="Helvetica,sans-Serif" font-size="10.00">+ get_pos()</text>
<text text-anchor="start" x="73.77" y="-1301.5" font-family="Helvetica,sans-Serif" font-size="10.00">+ switch_pos()</text>
</a>
</g>
</g>
<!-- Node3&#45;&gt;Node2 -->
<g id="edge2" class="edge">
<title>Node3&#45;&gt;Node2</title>
<path fill="none" stroke="midnightblue" d="M64.3,-1284.84C57.71,-1268.85 52.06,-1252.3 48.27,-1236 4.85,-1048.97 -33.28,-977.82 48.27,-804 91.2,-712.5 185.69,-642.8 257.62,-600.34"/>
<polygon fill="none" stroke="midnightblue" points="61.14,-1286.36 68.28,-1294.19 67.58,-1283.62 61.14,-1286.36"/>
</g>
<!-- Node14 -->
<g id="node14" class="node">
<title>Node14</title>
<g id="a_node14"><a xlink:href="class_cuboid.html" target="_top" xlink:title="Opisuje prostopadloscian w przestrzeni trojwymiarowej.">
<polygon fill="none" stroke="black" points="57.77,-804.5 57.77,-1235.5 198.77,-1235.5 198.77,-804.5 57.77,-804.5"/>
<text text-anchor="middle" x="128.27" y="-1223.5" font-family="Helvetica,sans-Serif" font-size="10.00">Cuboid</text>
<polyline fill="none" stroke="black" points="57.77,-1216.5 198.77,-1216.5 "/>
<text text-anchor="middle" x="128.27" y="-1204.5" font-family="Helvetica,sans-Serif" font-size="10.00"> </text>
<polyline fill="none" stroke="black" points="57.77,-1197.5 198.77,-1197.5 "/>
<text text-anchor="start" x="65.77" y="-1185.5" font-family="Helvetica,sans-Serif" font-size="10.00">+ Cuboid()</text>
<text text-anchor="start" x="65.77" y="-1174.5" font-family="Helvetica,sans-Serif" font-size="10.00">+ Cuboid()</text>
<text text-anchor="start" x="65.77" y="-1163.5" font-family="Helvetica,sans-Serif" font-size="10.00">+ Cuboid()</text>
<text text-anchor="start" x="65.77" y="-1152.5" font-family="Helvetica,sans-Serif" font-size="10.00">+ Cuboid()</text>
<text text-anchor="start" x="65.77" y="-1141.5" font-family="Helvetica,sans-Serif" font-size="10.00">+ Cuboid()</text>
<text text-anchor="start" x="65.77" y="-1130.5" font-family="Helvetica,sans-Serif" font-size="10.00">+ Cuboid()</text>
<text text-anchor="start" x="65.77" y="-1119.5" font-family="Helvetica,sans-Serif" font-size="10.00">+ check_cub()</text>
<text text-anchor="start" x="65.77" y="-1108.5" font-family="Helvetica,sans-Serif" font-size="10.00">+ get_vec_opp()</text>
<text text-anchor="start" x="65.77" y="-1097.5" font-family="Helvetica,sans-Serif" font-size="10.00">+ check_vec_opp()</text>
<text text-anchor="start" x="65.77" y="-1086.5" font-family="Helvetica,sans-Serif" font-size="10.00">+ check_vec_len()</text>
<text text-anchor="start" x="65.77" y="-1075.5" font-family="Helvetica,sans-Serif" font-size="10.00">+ get_vec_len()</text>
<text text-anchor="start" x="65.77" y="-1064.5" font-family="Helvetica,sans-Serif" font-size="10.00">+ get_vec_perp()</text>
<text text-anchor="start" x="65.77" y="-1053.5" font-family="Helvetica,sans-Serif" font-size="10.00">+ check_vec_perp()</text>
<text text-anchor="start" x="65.77" y="-1042.5" font-family="Helvetica,sans-Serif" font-size="10.00">+ get_cub()</text>
<text text-anchor="start" x="65.77" y="-1031.5" font-family="Helvetica,sans-Serif" font-size="10.00">+ get_cub()</text>
<text text-anchor="start" x="65.77" y="-1020.5" font-family="Helvetica,sans-Serif" font-size="10.00">+ get_height()</text>
<text text-anchor="start" x="65.77" y="-1009.5" font-family="Helvetica,sans-Serif" font-size="10.00">+ operator==()</text>
<text text-anchor="start" x="65.77" y="-998.5" font-family="Helvetica,sans-Serif" font-size="10.00">+ translation()</text>
<text text-anchor="start" x="65.77" y="-987.5" font-family="Helvetica,sans-Serif" font-size="10.00">+ translation_to_O()</text>
<text text-anchor="start" x="65.77" y="-976.5" font-family="Helvetica,sans-Serif" font-size="10.00">+ rotation()</text>
<text text-anchor="start" x="65.77" y="-965.5" font-family="Helvetica,sans-Serif" font-size="10.00">+ rotation_around_cen()</text>
<text text-anchor="start" x="65.77" y="-954.5" font-family="Helvetica,sans-Serif" font-size="10.00">+ centre_point()</text>
<text text-anchor="start" x="65.77" y="-943.5" font-family="Helvetica,sans-Serif" font-size="10.00">+ get_basis_centre()</text>
<text text-anchor="start" x="65.77" y="-932.5" font-family="Helvetica,sans-Serif" font-size="10.00">+ special_points()</text>
<text text-anchor="start" x="65.77" y="-921.5" font-family="Helvetica,sans-Serif" font-size="10.00">+ print_cuboid()</text>
<text text-anchor="start" x="65.77" y="-910.5" font-family="Helvetica,sans-Serif" font-size="10.00">+ print_cuboid_weird()</text>
<text text-anchor="start" x="65.77" y="-899.5" font-family="Helvetica,sans-Serif" font-size="10.00">+ print_cuboid_3D()</text>
<text text-anchor="start" x="65.77" y="-888.5" font-family="Helvetica,sans-Serif" font-size="10.00">+ Cuboid_From_Sample()</text>
<text text-anchor="start" x="65.77" y="-877.5" font-family="Helvetica,sans-Serif" font-size="10.00">+ Cuboid_To_File()</text>
<text text-anchor="start" x="65.77" y="-866.5" font-family="Helvetica,sans-Serif" font-size="10.00">+ scale_cub()</text>
<text text-anchor="start" x="65.77" y="-855.5" font-family="Helvetica,sans-Serif" font-size="10.00">+ scale_cub()</text>
<text text-anchor="start" x="65.77" y="-844.5" font-family="Helvetica,sans-Serif" font-size="10.00">+ print_name()</text>
<text text-anchor="start" x="65.77" y="-833.5" font-family="Helvetica,sans-Serif" font-size="10.00">+ print_pos()</text>
<text text-anchor="start" x="65.77" y="-822.5" font-family="Helvetica,sans-Serif" font-size="10.00">+ get_pos()</text>
<text text-anchor="start" x="65.77" y="-811.5" font-family="Helvetica,sans-Serif" font-size="10.00">+ switch_pos()</text>
</a>
</g>
</g>
<!-- Node3&#45;&gt;Node14 -->
<g id="edge18" class="edge">
<title>Node3&#45;&gt;Node14</title>
<path fill="none" stroke="midnightblue" d="M128.27,-1284.32C128.27,-1268.71 128.27,-1252.29 128.27,-1235.6"/>
<polygon fill="none" stroke="midnightblue" points="124.77,-1284.46 128.27,-1294.46 131.77,-1284.46 124.77,-1284.46"/>
</g>
<!-- Node15 -->
<g id="node15" class="node">
<title>Node15</title>
<g id="a_node15"><a xlink:href="class_prism.html" target="_top" xlink:title="Opisuje graniastoslup o dwunastu wierzcholkach w przestrzeni trojwymiarowej.">
<polygon fill="none" stroke="black" points="217.27,-821 217.27,-1219 375.27,-1219 375.27,-821 217.27,-821"/>
<text text-anchor="middle" x="296.27" y="-1207" font-family="Helvetica,sans-Serif" font-size="10.00">Prism</text>
<polyline fill="none" stroke="black" points="217.27,-1200 375.27,-1200 "/>
<text text-anchor="middle" x="296.27" y="-1188" font-family="Helvetica,sans-Serif" font-size="10.00"> </text>
<polyline fill="none" stroke="black" points="217.27,-1181 375.27,-1181 "/>
<text text-anchor="start" x="225.27" y="-1169" font-family="Helvetica,sans-Serif" font-size="10.00">+ Prism()</text>
<text text-anchor="start" x="225.27" y="-1158" font-family="Helvetica,sans-Serif" font-size="10.00">+ Prism()</text>
<text text-anchor="start" x="225.27" y="-1147" font-family="Helvetica,sans-Serif" font-size="10.00">+ Prism()</text>
<text text-anchor="start" x="225.27" y="-1136" font-family="Helvetica,sans-Serif" font-size="10.00">+ Prism()</text>
<text text-anchor="start" x="225.27" y="-1125" font-family="Helvetica,sans-Serif" font-size="10.00">+ Prism()</text>
<text text-anchor="start" x="225.27" y="-1114" font-family="Helvetica,sans-Serif" font-size="10.00">+ get_pri()</text>
<text text-anchor="start" x="225.27" y="-1103" font-family="Helvetica,sans-Serif" font-size="10.00">+ get_pri()</text>
<text text-anchor="start" x="225.27" y="-1092" font-family="Helvetica,sans-Serif" font-size="10.00">+ check_pri()</text>
<text text-anchor="start" x="225.27" y="-1081" font-family="Helvetica,sans-Serif" font-size="10.00">+ get_height()</text>
<text text-anchor="start" x="225.27" y="-1070" font-family="Helvetica,sans-Serif" font-size="10.00">+ get_special_points()</text>
<text text-anchor="start" x="225.27" y="-1059" font-family="Helvetica,sans-Serif" font-size="10.00">+ get_vec_ver()</text>
<text text-anchor="start" x="225.27" y="-1048" font-family="Helvetica,sans-Serif" font-size="10.00">+ check_vec_ver()</text>
<text text-anchor="start" x="225.27" y="-1037" font-family="Helvetica,sans-Serif" font-size="10.00">+ get_vec_pairs()</text>
<text text-anchor="start" x="225.27" y="-1026" font-family="Helvetica,sans-Serif" font-size="10.00">+ check_vec_pairs()</text>
<text text-anchor="start" x="225.27" y="-1015" font-family="Helvetica,sans-Serif" font-size="10.00">+ check_vec_perp()</text>
<text text-anchor="start" x="225.27" y="-1004" font-family="Helvetica,sans-Serif" font-size="10.00">+ check_vec_basis()</text>
<text text-anchor="start" x="225.27" y="-993" font-family="Helvetica,sans-Serif" font-size="10.00">+ operator==()</text>
<text text-anchor="start" x="225.27" y="-982" font-family="Helvetica,sans-Serif" font-size="10.00">+ translation()</text>
<text text-anchor="start" x="225.27" y="-971" font-family="Helvetica,sans-Serif" font-size="10.00">+ translation_of_lower_cen()</text>
<text text-anchor="start" x="225.27" y="-960" font-family="Helvetica,sans-Serif" font-size="10.00">+ translation_to_O()</text>
<text text-anchor="start" x="225.27" y="-949" font-family="Helvetica,sans-Serif" font-size="10.00">+ rotation_around_cen()</text>
<text text-anchor="start" x="225.27" y="-938" font-family="Helvetica,sans-Serif" font-size="10.00">+ centre_point()</text>
<text text-anchor="start" x="225.27" y="-927" font-family="Helvetica,sans-Serif" font-size="10.00">+ get_basis_centre()</text>
<text text-anchor="start" x="225.27" y="-916" font-family="Helvetica,sans-Serif" font-size="10.00">+ special_points()</text>
<text text-anchor="start" x="225.27" y="-905" font-family="Helvetica,sans-Serif" font-size="10.00">+ print_prism_3D()</text>
<text text-anchor="start" x="225.27" y="-894" font-family="Helvetica,sans-Serif" font-size="10.00">+ Prism_From_Sample()</text>
<text text-anchor="start" x="225.27" y="-883" font-family="Helvetica,sans-Serif" font-size="10.00">+ Prism_To_File()</text>
<text text-anchor="start" x="225.27" y="-872" font-family="Helvetica,sans-Serif" font-size="10.00">+ scale_pri()</text>
<text text-anchor="start" x="225.27" y="-861" font-family="Helvetica,sans-Serif" font-size="10.00">+ scale_pri()</text>
<text text-anchor="start" x="225.27" y="-850" font-family="Helvetica,sans-Serif" font-size="10.00">+ print_pos()</text>
<text text-anchor="start" x="225.27" y="-839" font-family="Helvetica,sans-Serif" font-size="10.00">+ get_pos()</text>
<text text-anchor="start" x="225.27" y="-828" font-family="Helvetica,sans-Serif" font-size="10.00">+ switch_pos()</text>
</a>
</g>
</g>
<!-- Node3&#45;&gt;Node15 -->
<g id="edge21" class="edge">
<title>Node3&#45;&gt;Node15</title>
<path fill="none" stroke="midnightblue" d="M184.51,-1285.13C192.31,-1268.72 200.1,-1251.98 207.27,-1236 210.58,-1228.63 213.91,-1221.1 217.25,-1213.48"/>
<polygon fill="none" stroke="midnightblue" points="181.33,-1283.67 180.18,-1294.21 187.65,-1286.69 181.33,-1283.67"/>
</g>
<!-- Node4 -->
<g id="node4" class="node">
<title>Node4</title>
<g id="a_node4"><a xlink:href="class_vector.html" target="_top" xlink:title=" ">
<polygon fill="none" stroke="black" points="254.77,-1564.5 254.77,-1830.5 369.77,-1830.5 369.77,-1564.5 254.77,-1564.5"/>
<text text-anchor="middle" x="312.27" y="-1818.5" font-family="Helvetica,sans-Serif" font-size="10.00">Vector&lt; double, 3 &gt;</text>
<polyline fill="none" stroke="black" points="254.77,-1811.5 369.77,-1811.5 "/>
<text text-anchor="middle" x="312.27" y="-1799.5" font-family="Helvetica,sans-Serif" font-size="10.00"> </text>
<polyline fill="none" stroke="black" points="254.77,-1792.5 369.77,-1792.5 "/>
<text text-anchor="start" x="262.77" y="-1780.5" font-family="Helvetica,sans-Serif" font-size="10.00">+ Vector()</text>
<text text-anchor="start" x="262.77" y="-1769.5" font-family="Helvetica,sans-Serif" font-size="10.00">+ Vector()</text>
<text text-anchor="start" x="262.77" y="-1758.5" font-family="Helvetica,sans-Serif" font-size="10.00">+ operator+()</text>
<text text-anchor="start" x="262.77" y="-1747.5" font-family="Helvetica,sans-Serif" font-size="10.00">+ operator&#45;()</text>
<text text-anchor="start" x="262.77" y="-1736.5" font-family="Helvetica,sans-Serif" font-size="10.00">+ operator*()</text>
<text text-anchor="start" x="262.77" y="-1725.5" font-family="Helvetica,sans-Serif" font-size="10.00">+ operator/()</text>
<text text-anchor="start" x="262.77" y="-1714.5" font-family="Helvetica,sans-Serif" font-size="10.00">+ operator==()</text>
<text text-anchor="start" x="262.77" y="-1703.5" font-family="Helvetica,sans-Serif" font-size="10.00">+ scale_vec()</text>
<text text-anchor="start" x="262.77" y="-1692.5" font-family="Helvetica,sans-Serif" font-size="10.00">+ rotate()</text>
<text text-anchor="start" x="262.77" y="-1681.5" font-family="Helvetica,sans-Serif" font-size="10.00">+ rotate()</text>
<text text-anchor="start" x="262.77" y="-1670.5" font-family="Helvetica,sans-Serif" font-size="10.00">+ rotate()</text>
<text text-anchor="start" x="262.77" y="-1659.5" font-family="Helvetica,sans-Serif" font-size="10.00">+ modulus2()</text>
<text text-anchor="start" x="262.77" y="-1648.5" font-family="Helvetica,sans-Serif" font-size="10.00">+ get_vec()</text>
<text text-anchor="start" x="262.77" y="-1637.5" font-family="Helvetica,sans-Serif" font-size="10.00">+ get_len()</text>
<text text-anchor="start" x="262.77" y="-1626.5" font-family="Helvetica,sans-Serif" font-size="10.00">+ get_slope_angle()</text>
<text text-anchor="start" x="262.77" y="-1615.5" font-family="Helvetica,sans-Serif" font-size="10.00">+ get_slope_angle()</text>
<text text-anchor="start" x="262.77" y="-1604.5" font-family="Helvetica,sans-Serif" font-size="10.00">+ get_slope_angle()</text>
<text text-anchor="start" x="262.77" y="-1593.5" font-family="Helvetica,sans-Serif" font-size="10.00">+ operator[]()</text>
<text text-anchor="start" x="262.77" y="-1582.5" font-family="Helvetica,sans-Serif" font-size="10.00">+ operator[]()</text>
<text text-anchor="start" x="262.77" y="-1571.5" font-family="Helvetica,sans-Serif" font-size="10.00">+ scalar_prod()</text>
</a>
</g>
</g>
<!-- Node4&#45;&gt;Node2 -->
<g id="edge16" class="edge">
<title>Node4&#45;&gt;Node2</title>
<path fill="none" stroke="#404040" d="M341.61,-1564.33C345.48,-1544.82 349.17,-1524.93 352.27,-1506 402.79,-1197.79 405.28,-1115.62 384.27,-804 383.49,-792.4 382.51,-780.52 381.37,-768.54"/>
<polygon fill="none" stroke="#404040" points="381.37,-768.48 376.8,-762.9 380.19,-756.53 384.76,-762.11 381.37,-768.48"/>
<text text-anchor="middle" x="422.77" y="-1268" font-family="Helvetica,sans-Serif" font-size="10.00"> &#45;drone_orient</text>
<text text-anchor="middle" x="422.77" y="-1257" font-family="Helvetica,sans-Serif" font-size="10.00">&#45;drone_pos</text>
</g>
<!-- Node4&#45;&gt;Node3 -->
<g id="edge3" class="edge">
<title>Node4&#45;&gt;Node3</title>
<path fill="none" stroke="#404040" d="M254.58,-1637.36C230.93,-1610.92 204.62,-1578.45 185.27,-1546 179.73,-1536.7 174.52,-1526.77 169.69,-1516.62"/>
<polygon fill="none" stroke="#404040" points="169.61,-1516.45 163.47,-1512.67 164.59,-1505.55 170.73,-1509.33 169.61,-1516.45"/>
<text text-anchor="middle" x="203.77" y="-1532.5" font-family="Helvetica,sans-Serif" font-size="10.00"> #scale</text>
</g>
<!-- Node4&#45;&gt;Node14 -->
<g id="edge19" class="edge">
<title>Node4&#45;&gt;Node14</title>
<path fill="none" stroke="#404040" d="M275.36,-1564.34C269.94,-1544.78 264.45,-1524.87 259.27,-1506 236.14,-1421.63 211.03,-1328.93 189.03,-1247.36"/>
<polygon fill="none" stroke="#404040" points="189.01,-1247.26 183.58,-1242.51 185.88,-1235.67 191.31,-1240.42 189.01,-1247.26"/>
<text text-anchor="middle" x="279.27" y="-1408.5" font-family="Helvetica,sans-Serif" font-size="10.00"> #cuts</text>
<text text-anchor="middle" x="279.27" y="-1397.5" font-family="Helvetica,sans-Serif" font-size="10.00">#centre</text>
<text text-anchor="middle" x="279.27" y="-1386.5" font-family="Helvetica,sans-Serif" font-size="10.00">#tops</text>
</g>
<!-- Node4&#45;&gt;Node15 -->
<g id="edge22" class="edge">
<title>Node4&#45;&gt;Node15</title>
<path fill="none" stroke="#404040" d="M309.14,-1564.25C306.9,-1469.57 303.83,-1340.13 301.25,-1231.35"/>
<polygon fill="none" stroke="#404040" points="301.25,-1231.2 297.11,-1225.3 300.97,-1219.21 305.11,-1225.11 301.25,-1231.2"/>
<text text-anchor="middle" x="328.27" y="-1408.5" font-family="Helvetica,sans-Serif" font-size="10.00"> #cuts</text>
<text text-anchor="middle" x="328.27" y="-1397.5" font-family="Helvetica,sans-Serif" font-size="10.00">#centre</text>
<text text-anchor="middle" x="328.27" y="-1386.5" font-family="Helvetica,sans-Serif" font-size="10.00">#tops</text>
</g>
<!-- Node5 -->
<g id="node5" class="node">
<title>Node5</title>
<g id="a_node5"><a xlink:href="class_count.html" target="_top" xlink:title=" ">
<polygon fill="none" stroke="black" points="94.27,-2192.5 94.27,-2315.5 228.27,-2315.5 228.27,-2192.5 94.27,-2192.5"/>
<text text-anchor="start" x="102.27" y="-2303.5" font-family="Helvetica,sans-Serif" font-size="10.00">Count&lt; Vector&lt; double,</text>
<text text-anchor="middle" x="161.27" y="-2292.5" font-family="Helvetica,sans-Serif" font-size="10.00"> SIZE &gt; &gt;</text>
<polyline fill="none" stroke="black" points="94.27,-2285.5 228.27,-2285.5 "/>
<text text-anchor="middle" x="161.27" y="-2273.5" font-family="Helvetica,sans-Serif" font-size="10.00"> </text>
<polyline fill="none" stroke="black" points="94.27,-2266.5 228.27,-2266.5 "/>
<text text-anchor="start" x="102.27" y="-2254.5" font-family="Helvetica,sans-Serif" font-size="10.00">+ Count()</text>
<text text-anchor="start" x="102.27" y="-2243.5" font-family="Helvetica,sans-Serif" font-size="10.00">+ Count()</text>
<text text-anchor="start" x="102.27" y="-2232.5" font-family="Helvetica,sans-Serif" font-size="10.00">+ ~Count()</text>
<text text-anchor="start" x="102.27" y="-2221.5" font-family="Helvetica,sans-Serif" font-size="10.00">+ get_count()</text>
<text text-anchor="start" x="102.27" y="-2210.5" font-family="Helvetica,sans-Serif" font-size="10.00">+ print_count()</text>
<text text-anchor="start" x="102.27" y="-2199.5" font-family="Helvetica,sans-Serif" font-size="10.00">+ zero_count()</text>
</a>
</g>
</g>
<!-- Node5&#45;&gt;Node4 -->
<g id="edge4" class="edge">
<title>Node5&#45;&gt;Node4</title>
<path fill="none" stroke="midnightblue" d="M177.59,-2182.4C195.4,-2106.76 225.37,-1983.36 255.27,-1878 259.65,-1862.59 264.43,-1846.5 269.32,-1830.56"/>
<polygon fill="none" stroke="midnightblue" points="174.15,-2181.76 175.27,-2192.29 180.96,-2183.36 174.15,-2181.76"/>
</g>
<!-- Node6 -->
<g id="node6" class="node">
<title>Node6</title>
<g id="a_node6"><a xlink:title=" ">
<polygon fill="none" stroke="#bfbfbf" points="286.77,-2545.5 286.77,-2602.5 315.77,-2602.5 315.77,-2545.5 286.77,-2545.5"/>
<text text-anchor="middle" x="301.27" y="-2590.5" font-family="Helvetica,sans-Serif" font-size="10.00">int</text>
<polyline fill="none" stroke="#bfbfbf" points="286.77,-2583.5 315.77,-2583.5 "/>
<text text-anchor="middle" x="301.27" y="-2571.5" font-family="Helvetica,sans-Serif" font-size="10.00"> </text>
<polyline fill="none" stroke="#bfbfbf" points="286.77,-2564.5 315.77,-2564.5 "/>
<text text-anchor="middle" x="301.27" y="-2552.5" font-family="Helvetica,sans-Serif" font-size="10.00"> </text>
</a>
</g>
</g>
<!-- Node6&#45;&gt;Node1 -->
<g id="edge23" class="edge">
<title>Node6&#45;&gt;Node1</title>
<path fill="none" stroke="#404040" d="M316.11,-2572.42C373.44,-2569.32 577.27,-2549.96 577.27,-2431.5 577.27,-2431.5 577.27,-2431.5 577.27,-551 577.27,-472.23 577.27,-384.72 577.27,-311.7"/>
<polygon fill="none" stroke="#404040" points="577.27,-311.64 573.27,-305.64 577.27,-299.64 581.27,-305.64 577.27,-311.64"/>
<text text-anchor="middle" x="614.27" y="-1700.5" font-family="Helvetica,sans-Serif" font-size="10.00"> &#45;active</text>
<text text-anchor="middle" x="614.27" y="-1689.5" font-family="Helvetica,sans-Serif" font-size="10.00">&#45;filename_num</text>
</g>
<!-- Node6&#45;&gt;Node5 -->
<g id="edge5" class="edge">
<title>Node6&#45;&gt;Node5</title>
<path fill="none" stroke="#404040" d="M286.52,-2568.96C256.74,-2559.93 189.86,-2535.05 161.27,-2487 132.99,-2439.45 135.05,-2376.14 143.05,-2327.66"/>
<polygon fill="none" stroke="#404040" points="143.08,-2327.49 140.2,-2320.88 145.19,-2315.68 148.07,-2322.29 143.08,-2327.49"/>
<text text-anchor="middle" x="204.27" y="-2433.5" font-family="Helvetica,sans-Serif" font-size="10.00"> #objects_alive</text>
<text text-anchor="middle" x="204.27" y="-2422.5" font-family="Helvetica,sans-Serif" font-size="10.00">#objects_created</text>
</g>
<!-- Node7 -->
<g id="node7" class="node">
<title>Node7</title>
<g id="a_node7"><a xlink:href="class_count.html" target="_top" xlink:title="Pozwala na liczenie instancji stworzonych obiektow.">
<polygon fill="none" stroke="black" points="256.27,-2374.5 256.27,-2486.5 346.27,-2486.5 346.27,-2374.5 256.27,-2374.5"/>
<text text-anchor="middle" x="301.27" y="-2474.5" font-family="Helvetica,sans-Serif" font-size="10.00">Count&lt; T &gt;</text>
<polyline fill="none" stroke="black" points="256.27,-2467.5 346.27,-2467.5 "/>
<text text-anchor="middle" x="301.27" y="-2455.5" font-family="Helvetica,sans-Serif" font-size="10.00"> </text>
<polyline fill="none" stroke="black" points="256.27,-2448.5 346.27,-2448.5 "/>
<text text-anchor="start" x="264.27" y="-2436.5" font-family="Helvetica,sans-Serif" font-size="10.00">+ Count()</text>
<text text-anchor="start" x="264.27" y="-2425.5" font-family="Helvetica,sans-Serif" font-size="10.00">+ Count()</text>
<text text-anchor="start" x="264.27" y="-2414.5" font-family="Helvetica,sans-Serif" font-size="10.00">+ ~Count()</text>
<text text-anchor="start" x="264.27" y="-2403.5" font-family="Helvetica,sans-Serif" font-size="10.00">+ get_count()</text>
<text text-anchor="start" x="264.27" y="-2392.5" font-family="Helvetica,sans-Serif" font-size="10.00">+ print_count()</text>
<text text-anchor="start" x="264.27" y="-2381.5" font-family="Helvetica,sans-Serif" font-size="10.00">+ zero_count()</text>
</a>
</g>
</g>
<!-- Node6&#45;&gt;Node7 -->
<g id="edge7" class="edge">
<title>Node6&#45;&gt;Node7</title>
<path fill="none" stroke="#404040" d="M301.27,-2545.38C301.27,-2532.05 301.27,-2515.42 301.27,-2499.01"/>
<polygon fill="none" stroke="#404040" points="301.27,-2498.57 297.27,-2492.57 301.27,-2486.57 305.27,-2492.57 301.27,-2498.57"/>
<text text-anchor="middle" x="344.27" y="-2519" font-family="Helvetica,sans-Serif" font-size="10.00"> #objects_alive</text>
<text text-anchor="middle" x="344.27" y="-2508" font-family="Helvetica,sans-Serif" font-size="10.00">#objects_created</text>
</g>
<!-- Node7&#45;&gt;Node5 -->
<g id="edge6" class="edge">
<title>Node7&#45;&gt;Node5</title>
<path fill="none" stroke="orange" d="M247.4,-2390.76C237.93,-2384.74 227.99,-2378.9 218.27,-2374 197.19,-2363.36 182.51,-2374.84 168.27,-2356 159.58,-2344.5 155.74,-2330.01 154.53,-2315.62"/>
<polygon fill="orange" stroke="orange" points="245.66,-2393.8 255.95,-2396.31 249.47,-2387.93 245.66,-2393.8"/>
<text text-anchor="middle" x="238.27" y="-2342.5" font-family="Helvetica,sans-Serif" font-size="10.00"> &lt; Vector&lt; double, SIZE &gt; &gt;</text>
</g>
<!-- Node10 -->
<g id="node10" class="node">
<title>Node10</title>
<g id="a_node10"><a xlink:href="class_count.html" target="_top" xlink:title=" ">
<polygon fill="none" stroke="black" points="262.77,-2192.5 262.77,-2315.5 385.77,-2315.5 385.77,-2192.5 262.77,-2192.5"/>
<text text-anchor="start" x="270.77" y="-2303.5" font-family="Helvetica,sans-Serif" font-size="10.00">Count&lt; Vector&lt; type,</text>
<text text-anchor="middle" x="324.27" y="-2292.5" font-family="Helvetica,sans-Serif" font-size="10.00"> SIZE &gt; &gt;</text>
<polyline fill="none" stroke="black" points="262.77,-2285.5 385.77,-2285.5 "/>
<text text-anchor="middle" x="324.27" y="-2273.5" font-family="Helvetica,sans-Serif" font-size="10.00"> </text>
<polyline fill="none" stroke="black" points="262.77,-2266.5 385.77,-2266.5 "/>
<text text-anchor="start" x="270.77" y="-2254.5" font-family="Helvetica,sans-Serif" font-size="10.00">+ Count()</text>
<text text-anchor="start" x="270.77" y="-2243.5" font-family="Helvetica,sans-Serif" font-size="10.00">+ Count()</text>
<text text-anchor="start" x="270.77" y="-2232.5" font-family="Helvetica,sans-Serif" font-size="10.00">+ ~Count()</text>
<text text-anchor="start" x="270.77" y="-2221.5" font-family="Helvetica,sans-Serif" font-size="10.00">+ get_count()</text>
<text text-anchor="start" x="270.77" y="-2210.5" font-family="Helvetica,sans-Serif" font-size="10.00">+ print_count()</text>
<text text-anchor="start" x="270.77" y="-2199.5" font-family="Helvetica,sans-Serif" font-size="10.00">+ zero_count()</text>
</a>
</g>
</g>
<!-- Node7&#45;&gt;Node10 -->
<g id="edge12" class="edge">
<title>Node7&#45;&gt;Node10</title>
<path fill="none" stroke="orange" d="M309.9,-2364.03C311.99,-2348.15 314.22,-2331.24 316.28,-2315.6"/>
<polygon fill="orange" stroke="orange" points="306.39,-2363.92 308.55,-2374.29 313.33,-2364.83 306.39,-2363.92"/>
<text text-anchor="middle" x="378.77" y="-2342.5" font-family="Helvetica,sans-Serif" font-size="10.00"> &lt; Vector&lt; type, SIZE &gt; &gt;</text>
</g>
<!-- Node8 -->
<g id="node8" class="node">
<title>Node8</title>
<g id="a_node8"><a xlink:title=" ">
<polygon fill="none" stroke="#bfbfbf" points="430.27,-1983 430.27,-2040 480.27,-2040 480.27,-1983 430.27,-1983"/>
<text text-anchor="middle" x="455.27" y="-2028" font-family="Helvetica,sans-Serif" font-size="10.00">double</text>
<polyline fill="none" stroke="#bfbfbf" points="430.27,-2021 480.27,-2021 "/>
<text text-anchor="middle" x="455.27" y="-2009" font-family="Helvetica,sans-Serif" font-size="10.00"> </text>
<polyline fill="none" stroke="#bfbfbf" points="430.27,-2002 480.27,-2002 "/>
<text text-anchor="middle" x="455.27" y="-1990" font-family="Helvetica,sans-Serif" font-size="10.00"> </text>
</a>
</g>
</g>
<!-- Node8&#45;&gt;Node2 -->
<g id="edge15" class="edge">
<title>Node8&#45;&gt;Node2</title>
<path fill="none" stroke="#404040" d="M459.31,-1982.6C466.85,-1928.12 482.27,-1803.7 482.27,-1698.5 482.27,-1698.5 482.27,-1698.5 482.27,-1019 482.27,-935.22 462.28,-846.07 437.85,-768.41"/>
<polygon fill="none" stroke="#404040" points="437.71,-767.98 432.07,-763.48 434.06,-756.55 439.69,-761.04 437.71,-767.98"/>
<text text-anchor="middle" x="515.77" y="-1397.5" font-family="Helvetica,sans-Serif" font-size="10.00"> &#45;drone_angle</text>
</g>
<!-- Node8&#45;&gt;Node4 -->
<g id="edge8" class="edge">
<title>Node8&#45;&gt;Node4</title>
<path fill="none" stroke="#404040" d="M445.89,-1982.92C434.56,-1950.41 414.37,-1895 393.27,-1849 387.72,-1836.9 381.63,-1824.42 375.35,-1812.07"/>
<polygon fill="none" stroke="#404040" points="375.28,-1811.93 368.98,-1808.42 369.8,-1801.25 376.1,-1804.76 375.28,-1811.93"/>
<text text-anchor="middle" x="410.77" y="-1852" font-family="Helvetica,sans-Serif" font-size="10.00"> &#45;size</text>
</g>
<!-- Node9 -->
<g id="node9" class="node">
<title>Node9</title>
<g id="a_node9"><a xlink:href="class_vector.html" target="_top" xlink:title="Opisuje wektor o SIZE&#45;wierszach.">
<polygon fill="none" stroke="black" points="264.77,-1878.5 264.77,-2144.5 383.77,-2144.5 383.77,-1878.5 264.77,-1878.5"/>
<text text-anchor="middle" x="324.27" y="-2132.5" font-family="Helvetica,sans-Serif" font-size="10.00">Vector&lt; type, SIZE &gt;</text>
<polyline fill="none" stroke="black" points="264.77,-2125.5 383.77,-2125.5 "/>
<text text-anchor="middle" x="324.27" y="-2113.5" font-family="Helvetica,sans-Serif" font-size="10.00"> </text>
<polyline fill="none" stroke="black" points="264.77,-2106.5 383.77,-2106.5 "/>
<text text-anchor="start" x="272.77" y="-2094.5" font-family="Helvetica,sans-Serif" font-size="10.00">+ Vector()</text>
<text text-anchor="start" x="272.77" y="-2083.5" font-family="Helvetica,sans-Serif" font-size="10.00">+ Vector()</text>
<text text-anchor="start" x="272.77" y="-2072.5" font-family="Helvetica,sans-Serif" font-size="10.00">+ operator+()</text>
<text text-anchor="start" x="272.77" y="-2061.5" font-family="Helvetica,sans-Serif" font-size="10.00">+ operator&#45;()</text>
<text text-anchor="start" x="272.77" y="-2050.5" font-family="Helvetica,sans-Serif" font-size="10.00">+ operator*()</text>
<text text-anchor="start" x="272.77" y="-2039.5" font-family="Helvetica,sans-Serif" font-size="10.00">+ operator/()</text>
<text text-anchor="start" x="272.77" y="-2028.5" font-family="Helvetica,sans-Serif" font-size="10.00">+ operator==()</text>
<text text-anchor="start" x="272.77" y="-2017.5" font-family="Helvetica,sans-Serif" font-size="10.00">+ scale_vec()</text>
<text text-anchor="start" x="272.77" y="-2006.5" font-family="Helvetica,sans-Serif" font-size="10.00">+ rotate()</text>
<text text-anchor="start" x="272.77" y="-1995.5" font-family="Helvetica,sans-Serif" font-size="10.00">+ modulus2()</text>
<text text-anchor="start" x="272.77" y="-1984.5" font-family="Helvetica,sans-Serif" font-size="10.00">+ get_vec()</text>
<text text-anchor="start" x="272.77" y="-1973.5" font-family="Helvetica,sans-Serif" font-size="10.00">+ get_len()</text>
<text text-anchor="start" x="272.77" y="-1962.5" font-family="Helvetica,sans-Serif" font-size="10.00">+ get_slope_angle()</text>
<text text-anchor="start" x="272.77" y="-1951.5" font-family="Helvetica,sans-Serif" font-size="10.00">+ operator[]()</text>
<text text-anchor="start" x="272.77" y="-1940.5" font-family="Helvetica,sans-Serif" font-size="10.00">+ operator[]()</text>
<text text-anchor="start" x="272.77" y="-1929.5" font-family="Helvetica,sans-Serif" font-size="10.00">+ scalar_prod()</text>
<text text-anchor="start" x="272.77" y="-1918.5" font-family="Helvetica,sans-Serif" font-size="10.00">+ rotate()</text>
<text text-anchor="start" x="272.77" y="-1907.5" font-family="Helvetica,sans-Serif" font-size="10.00">+ get_slope_angle()</text>
<text text-anchor="start" x="272.77" y="-1896.5" font-family="Helvetica,sans-Serif" font-size="10.00">+ rotate()</text>
<text text-anchor="start" x="272.77" y="-1885.5" font-family="Helvetica,sans-Serif" font-size="10.00">+ get_slope_angle()</text>
</a>
</g>
</g>
<!-- Node9&#45;&gt;Node4 -->
<g id="edge9" class="edge">
<title>Node9&#45;&gt;Node4</title>
<path fill="none" stroke="orange" d="M318.8,-1868.16C318.31,-1855.62 317.83,-1842.97 317.35,-1830.52"/>
<polygon fill="orange" stroke="orange" points="315.3,-1868.33 319.18,-1878.18 322.3,-1868.06 315.3,-1868.33"/>
<text text-anchor="middle" x="353.77" y="-1852" font-family="Helvetica,sans-Serif" font-size="10.00"> &lt; double, 3 &gt;</text>
</g>
<!-- Node10&#45;&gt;Node9 -->
<g id="edge10" class="edge">
<title>Node10&#45;&gt;Node9</title>
<path fill="none" stroke="midnightblue" d="M324.27,-2182.05C324.27,-2170.14 324.27,-2157.44 324.27,-2144.56"/>
<polygon fill="none" stroke="midnightblue" points="320.77,-2182.31 324.27,-2192.31 327.77,-2182.31 320.77,-2182.31"/>
</g>
<!-- Node11 -->
<g id="node11" class="node">
<title>Node11</title>
<g id="a_node11"><a xlink:href="classstatic_01int.html" target="_top" xlink:title=" ">
<polygon fill="none" stroke="black" points="446.77,-2402 446.77,-2459 505.77,-2459 505.77,-2402 446.77,-2402"/>
<text text-anchor="middle" x="476.27" y="-2447" font-family="Helvetica,sans-Serif" font-size="10.00">static int</text>
<polyline fill="none" stroke="black" points="446.77,-2440 505.77,-2440 "/>
<text text-anchor="middle" x="476.27" y="-2428" font-family="Helvetica,sans-Serif" font-size="10.00"> </text>
<polyline fill="none" stroke="black" points="446.77,-2421 505.77,-2421 "/>
<text text-anchor="middle" x="476.27" y="-2409" font-family="Helvetica,sans-Serif" font-size="10.00"> </text>
</a>
</g>
</g>
<!-- Node11&#45;&gt;Node10 -->
<g id="edge11" class="edge">
<title>Node11&#45;&gt;Node10</title>
<path fill="none" stroke="#404040" d="M474.53,-2401.85C471.78,-2380.73 464.81,-2352.23 447.27,-2334 432.5,-2318.65 420.1,-2325.63 397.01,-2315.84"/>
<polygon fill="none" stroke="#404040" points="396.72,-2315.69 389.56,-2316.54 386.02,-2310.26 393.18,-2309.41 396.72,-2315.69"/>
<text text-anchor="middle" x="504.27" y="-2348" font-family="Helvetica,sans-Serif" font-size="10.00"> #objects_alive</text>
<text text-anchor="middle" x="504.27" y="-2337" font-family="Helvetica,sans-Serif" font-size="10.00">#objects_created</text>
</g>
<!-- Node12 -->
<g id="node12" class="node">
<title>Node12</title>
<g id="a_node12"><a xlink:title=" ">
<polygon fill="none" stroke="#bfbfbf" points="404.27,-2225.5 404.27,-2282.5 442.27,-2282.5 442.27,-2225.5 404.27,-2225.5"/>
<text text-anchor="middle" x="423.27" y="-2270.5" font-family="Helvetica,sans-Serif" font-size="10.00">type</text>
<polyline fill="none" stroke="#bfbfbf" points="404.27,-2263.5 442.27,-2263.5 "/>
<text text-anchor="middle" x="423.27" y="-2251.5" font-family="Helvetica,sans-Serif" font-size="10.00"> </text>
<polyline fill="none" stroke="#bfbfbf" points="404.27,-2244.5 442.27,-2244.5 "/>
<text text-anchor="middle" x="423.27" y="-2232.5" font-family="Helvetica,sans-Serif" font-size="10.00"> </text>
</a>
</g>
</g>
<!-- Node12&#45;&gt;Node9 -->
<g id="edge13" class="edge">
<title>Node12&#45;&gt;Node9</title>
<path fill="none" stroke="#404040" d="M411.92,-2225.41C404.54,-2207.49 394.29,-2182.6 383.4,-2156.14"/>
<polygon fill="none" stroke="#404040" points="383.27,-2155.82 377.28,-2151.79 378.7,-2144.72 384.68,-2148.75 383.27,-2155.82"/>
<text text-anchor="middle" x="402.77" y="-2166" font-family="Helvetica,sans-Serif" font-size="10.00"> &#45;size</text>
</g>
<!-- Node13 -->
<g id="node13" class="node">
<title>Node13</title>
<g id="a_node13"><a xlink:title=" ">
<polygon fill="none" stroke="#bfbfbf" points="58.27,-1669 58.27,-1726 102.27,-1726 102.27,-1669 58.27,-1669"/>
<text text-anchor="middle" x="80.27" y="-1714" font-family="Helvetica,sans-Serif" font-size="10.00">string</text>
<polyline fill="none" stroke="#bfbfbf" points="58.27,-1707 102.27,-1707 "/>
<text text-anchor="middle" x="80.27" y="-1695" font-family="Helvetica,sans-Serif" font-size="10.00"> </text>
<polyline fill="none" stroke="#bfbfbf" points="58.27,-1688 102.27,-1688 "/>
<text text-anchor="middle" x="80.27" y="-1676" font-family="Helvetica,sans-Serif" font-size="10.00"> </text>
</a>
</g>
</g>
<!-- Node13&#45;&gt;Node3 -->
<g id="edge14" class="edge">
<title>Node13&#45;&gt;Node3</title>
<path fill="none" stroke="#404040" d="M77.41,-1668.72C74.56,-1634.39 71.83,-1574.33 81.27,-1524 81.68,-1521.82 82.13,-1519.63 82.6,-1517.43"/>
<polygon fill="none" stroke="#404040" points="82.64,-1517.28 80.16,-1510.51 85.46,-1505.62 87.94,-1512.39 82.64,-1517.28"/>
<text text-anchor="middle" x="121.77" y="-1538" font-family="Helvetica,sans-Serif" font-size="10.00"> #sample_name</text>
<text text-anchor="middle" x="121.77" y="-1527" font-family="Helvetica,sans-Serif" font-size="10.00">#final_name</text>
</g>
<!-- Node14&#45;&gt;Node2 -->
<g id="edge17" class="edge">
<title>Node14&#45;&gt;Node2</title>
<path fill="none" stroke="#404040" d="M198.81,-825.02C201.92,-817.89 205.08,-810.86 208.27,-804 221.38,-775.82 236.48,-746.56 251.84,-718.38"/>
<polygon fill="none" stroke="#404040" points="251.96,-718.16 251.34,-710.98 257.73,-707.64 258.35,-714.83 251.96,-718.16"/>
<text text-anchor="middle" x="237.77" y="-778" font-family="Helvetica,sans-Serif" font-size="10.00"> &#45;body</text>
</g>
<!-- Node15&#45;&gt;Node2 -->
<g id="edge20" class="edge">
<title>Node15&#45;&gt;Node2</title>
<path fill="none" stroke="#404040" d="M319.25,-820.7C321.24,-803.49 323.27,-786.02 325.28,-768.68"/>
<polygon fill="none" stroke="#404040" points="325.28,-768.63 322,-762.2 326.67,-756.71 329.95,-763.13 325.28,-768.63"/>
<text text-anchor="middle" x="341.27" y="-778" font-family="Helvetica,sans-Serif" font-size="10.00"> &#45;rotors</text>
</g>
<!-- Node16 -->
<g id="node16" class="node">
<title>Node16</title>
<g id="a_node16"><a xlink:title=" ">
<polygon fill="none" stroke="#bfbfbf" points="605.27,-518 605.27,-586 721.27,-586 721.27,-518 605.27,-518"/>
<text text-anchor="start" x="613.27" y="-574" font-family="Helvetica,sans-Serif" font-size="10.00">list&lt; std::shared_ptr</text>
<text text-anchor="middle" x="663.27" y="-563" font-family="Helvetica,sans-Serif" font-size="10.00">&lt; Block &gt; &gt;</text>
<polyline fill="none" stroke="#bfbfbf" points="605.27,-556 721.27,-556 "/>
<text text-anchor="middle" x="663.27" y="-544" font-family="Helvetica,sans-Serif" font-size="10.00"> </text>
<polyline fill="none" stroke="#bfbfbf" points="605.27,-537 721.27,-537 "/>
<text text-anchor="middle" x="663.27" y="-525" font-family="Helvetica,sans-Serif" font-size="10.00"> </text>
</a>
</g>
</g>
<!-- Node16&#45;&gt;Node1 -->
<g id="edge24" class="edge">
<title>Node16&#45;&gt;Node1</title>
<path fill="none" stroke="#404040" d="M656.16,-517.93C646.44,-472.71 628.33,-388.47 611.91,-312.11"/>
<polygon fill="none" stroke="#404040" points="611.81,-311.66 606.64,-306.63 609.29,-299.93 614.46,-304.95 611.81,-311.66"/>
<text text-anchor="middle" x="635.77" y="-321" font-family="Helvetica,sans-Serif" font-size="10.00"> &#45;objects</text>
</g>
</g>
</svg>
