<?xml version="1.0" encoding="UTF-8" standalone="no"?>
<!DOCTYPE svg PUBLIC "-//W3C//DTD SVG 1.1//EN"
 "http://www.w3.org/Graphics/SVG/1.1/DTD/svg11.dtd">
<!-- Generated by graphviz version 2.43.0 (0)
 -->
<!-- Title: Prism::Prism Pages: 1 -->
<svg width="548pt" height="104pt"
 viewBox="0.00 0.00 548.00 104.00" xmlns="http://www.w3.org/2000/svg" xmlns:xlink="http://www.w3.org/1999/xlink">
<g id="graph0" class="graph" transform="scale(1 1) rotate(0) translate(4 100)">
<title>Prism::Prism</title>
<!-- Node1 -->
<g id="node1" class="node">
<title>Node1</title>
<g id="a_node1"><a xlink:title="Konstruktor bezparametryczny klasy Prism. Powstaly granistoslup ma podstawy &quot;tworzace&quot;:">
<polygon fill="#bfbfbf" stroke="black" points="0,-38.5 0,-57.5 78,-57.5 78,-38.5 0,-38.5"/>
<text text-anchor="middle" x="39" y="-45.5" font-family="Helvetica,sans-Serif" font-size="10.00">Prism::Prism</text>
</a>
</g>
</g>
<!-- Node2 -->
<g id="node2" class="node">
<title>Node2</title>
<g id="a_node2"><a xlink:href="class_prism.html#a07f15c416c9f9c54390bb8737b441a35" target="_top" xlink:title="Metoda skalujaca o wektor scale bedacy czlonkiem klasy block">
<polygon fill="none" stroke="black" points="127,-76.5 127,-95.5 221,-95.5 221,-76.5 127,-76.5"/>
<text text-anchor="middle" x="174" y="-83.5" font-family="Helvetica,sans-Serif" font-size="10.00">Prism::scale_pri</text>
</a>
</g>
</g>
<!-- Node1&#45;&gt;Node2 -->
<g id="edge1" class="edge">
<title>Node1&#45;&gt;Node2</title>
<path fill="none" stroke="midnightblue" d="M73.56,-57.59C90.57,-62.45 111.43,-68.41 129.64,-73.61"/>
<polygon fill="midnightblue" stroke="midnightblue" points="128.87,-77.03 139.45,-76.41 130.8,-70.3 128.87,-77.03"/>
</g>
<!-- Node5 -->
<g id="node5" class="node">
<title>Node5</title>
<g id="a_node5"><a xlink:href="class_block.html#adb6acd13e2ab79cf7e4733ca2d6ae166" target="_top" xlink:title="Metoda zapisujaca do klasy wektor reprezentujacy skale">
<polygon fill="none" stroke="black" points="126.5,-38.5 126.5,-57.5 221.5,-57.5 221.5,-38.5 126.5,-38.5"/>
<text text-anchor="middle" x="174" y="-45.5" font-family="Helvetica,sans-Serif" font-size="10.00">Block::set_scale</text>
</a>
</g>
</g>
<!-- Node1&#45;&gt;Node5 -->
<g id="edge4" class="edge">
<title>Node1&#45;&gt;Node5</title>
<path fill="none" stroke="midnightblue" d="M78.11,-48C89.98,-48 103.34,-48 116.2,-48"/>
<polygon fill="midnightblue" stroke="midnightblue" points="116.38,-51.5 126.38,-48 116.38,-44.5 116.38,-51.5"/>
</g>
<!-- Node6 -->
<g id="node6" class="node">
<title>Node6</title>
<g id="a_node6"><a xlink:href="class_prism.html#aa50fa1168351c867532aef9c19d2b921" target="_top" xlink:title="Metoda zwracajaca punkty specjalne graniastoslupa : cuts (czyli te ktore sa przecieciami przekatnych ...">
<polygon fill="none" stroke="black" points="114,-0.5 114,-19.5 234,-19.5 234,-0.5 114,-0.5"/>
<text text-anchor="middle" x="174" y="-7.5" font-family="Helvetica,sans-Serif" font-size="10.00">Prism::special_points</text>
</a>
</g>
</g>
<!-- Node1&#45;&gt;Node6 -->
<g id="edge5" class="edge">
<title>Node1&#45;&gt;Node6</title>
<path fill="none" stroke="midnightblue" d="M73.56,-38.41C90.57,-33.55 111.43,-27.59 129.64,-22.39"/>
<polygon fill="midnightblue" stroke="midnightblue" points="130.8,-25.7 139.45,-19.59 128.87,-18.97 130.8,-25.7"/>
</g>
<!-- Node3 -->
<g id="node3" class="node">
<title>Node3</title>
<g id="a_node3"><a xlink:href="class_prism.html#afed2c26932d5cb152fd620d2acbfbc3e" target="_top" xlink:title="Metoda przesuwajaca graniastoslup do srodka ukladu wspolrzednych (tak, ze srodek graniastoslupa pokry...">
<polygon fill="none" stroke="black" points="270,-76.5 270,-95.5 401,-95.5 401,-76.5 270,-76.5"/>
<text text-anchor="middle" x="335.5" y="-83.5" font-family="Helvetica,sans-Serif" font-size="10.00">Prism::translation_to_O</text>
</a>
</g>
</g>
<!-- Node2&#45;&gt;Node3 -->
<g id="edge2" class="edge">
<title>Node2&#45;&gt;Node3</title>
<path fill="none" stroke="midnightblue" d="M221.13,-86C233.23,-86 246.59,-86 259.77,-86"/>
<polygon fill="midnightblue" stroke="midnightblue" points="259.79,-89.5 269.79,-86 259.79,-82.5 259.79,-89.5"/>
</g>
<!-- Node4 -->
<g id="node4" class="node">
<title>Node4</title>
<g id="a_node4"><a xlink:href="class_prism.html#ade146d341c0468030f8c1258b7fe1041" target="_top" xlink:title="Metoda przesuwajaca graniastoslup o zadany wektor w 3D">
<polygon fill="none" stroke="black" points="437,-76.5 437,-95.5 540,-95.5 540,-76.5 437,-76.5"/>
<text text-anchor="middle" x="488.5" y="-83.5" font-family="Helvetica,sans-Serif" font-size="10.00">Prism::translation</text>
</a>
</g>
</g>
<!-- Node3&#45;&gt;Node4 -->
<g id="edge3" class="edge">
<title>Node3&#45;&gt;Node4</title>
<path fill="none" stroke="midnightblue" d="M401.41,-86C409.82,-86 418.41,-86 426.75,-86"/>
<polygon fill="midnightblue" stroke="midnightblue" points="426.77,-89.5 436.77,-86 426.77,-82.5 426.77,-89.5"/>
</g>
<!-- Node7 -->
<g id="node7" class="node">
<title>Node7</title>
<g id="a_node7"><a xlink:href="class_prism.html#a9c72237ab7f5b0741d936ccd14803021" target="_top" xlink:title="Metoda zwracajaca punkt centralny (czyli taki, ktorego odleglosci do kazdego wierzcholka sa rowne) gr...">
<polygon fill="none" stroke="black" points="280,-0.5 280,-19.5 391,-19.5 391,-0.5 280,-0.5"/>
<text text-anchor="middle" x="335.5" y="-7.5" font-family="Helvetica,sans-Serif" font-size="10.00">Prism::centre_point</text>
</a>
</g>
</g>
<!-- Node6&#45;&gt;Node7 -->
<g id="edge6" class="edge">
<title>Node6&#45;&gt;Node7</title>
<path fill="none" stroke="midnightblue" d="M234.39,-10C245.9,-10 258.02,-10 269.69,-10"/>
<polygon fill="midnightblue" stroke="midnightblue" points="269.8,-13.5 279.8,-10 269.8,-6.5 269.8,-13.5"/>
</g>
</g>
</svg>
