<?xml version="1.0" encoding="UTF-8" standalone="no"?>
<!DOCTYPE svg PUBLIC "-//W3C//DTD SVG 1.1//EN"
 "http://www.w3.org/Graphics/SVG/1.1/DTD/svg11.dtd">
<!-- Generated by graphviz version 2.43.0 (0)
 -->
<!-- Title: Drone::Rotors_rotation_animation Pages: 1 -->
<svg width="470pt" height="227pt"
 viewBox="0.00 0.00 470.00 226.97" xmlns="http://www.w3.org/2000/svg" xmlns:xlink="http://www.w3.org/1999/xlink">
<g id="graph0" class="graph" transform="scale(1 1) rotate(0) translate(4 222.97)">
<title>Drone::Rotors_rotation_animation</title>
<!-- Node1 -->
<g id="node1" class="node">
<title>Node1</title>
<g id="a_node1"><a xlink:title="Metoda animujaca obrot rotorow i zapisujaca to w plikach. Metoda sluzy jako metoda pomocnicza,...">
<polygon fill="#bfbfbf" stroke="black" points="335,-104.5 335,-134.5 462,-134.5 462,-104.5 335,-104.5"/>
<text text-anchor="start" x="343" y="-122.5" font-family="Helvetica,sans-Serif" font-size="10.00">Drone::Rotors_rotation</text>
<text text-anchor="middle" x="398.5" y="-111.5" font-family="Helvetica,sans-Serif" font-size="10.00">_animation</text>
</a>
</g>
</g>
<!-- Node2 -->
<g id="node2" class="node">
<title>Node2</title>
<g id="a_node2"><a xlink:href="class_drone.html#a7eecbd031df9009e113d355a9dcdf4e1" target="_top" xlink:title="Metoda obliczajaca i przeprowadzajaca caly ruch drona (obrot o kat i przelot z zadania 5....">
<polygon fill="none" stroke="black" points="4.5,-180.5 4.5,-210.5 116.5,-210.5 116.5,-180.5 4.5,-180.5"/>
<text text-anchor="start" x="12.5" y="-198.5" font-family="Helvetica,sans-Serif" font-size="10.00">Drone::Drone_basic</text>
<text text-anchor="middle" x="60.5" y="-187.5" font-family="Helvetica,sans-Serif" font-size="10.00">_motion_flight</text>
</a>
</g>
</g>
<!-- Node1&#45;&gt;Node2 -->
<g id="edge1" class="edge">
<title>Node1&#45;&gt;Node2</title>
<path fill="none" stroke="midnightblue" d="M379.36,-142.55C361.48,-163.25 332.08,-192.2 299,-204.5 239.63,-226.57 166.07,-218.94 116.68,-209.29"/>
<polygon fill="midnightblue" stroke="midnightblue" points="382.11,-144.72 385.85,-134.81 376.75,-140.22 382.11,-144.72"/>
</g>
<!-- Node3 -->
<g id="node3" class="node">
<title>Node3</title>
<g id="a_node3"><a xlink:href="class_drone.html#a4abbed4a4cc52e5630f07f9129b46c5c" target="_top" xlink:title="Metoda realizujaca ladowanie drona.">
<polygon fill="none" stroke="black" points="165.5,-176 165.5,-195 290.5,-195 290.5,-176 165.5,-176"/>
<text text-anchor="middle" x="228" y="-183" font-family="Helvetica,sans-Serif" font-size="10.00">Drone::Drone_descent</text>
</a>
</g>
</g>
<!-- Node1&#45;&gt;Node3 -->
<g id="edge2" class="edge">
<title>Node1&#45;&gt;Node3</title>
<path fill="none" stroke="midnightblue" d="M360.14,-139.28C342.02,-148.37 319.73,-158.81 299,-166.5 289.44,-170.05 278.92,-173.25 269,-175.97"/>
<polygon fill="midnightblue" stroke="midnightblue" points="361.88,-142.33 369.21,-134.67 358.71,-136.08 361.88,-142.33"/>
</g>
<!-- Node4 -->
<g id="node4" class="node">
<title>Node4</title>
<g id="a_node4"><a xlink:href="class_drone.html#aec9abadf85777ab20e361d1389aab466" target="_top" xlink:title="Metoda obliczajaca i przeprowadzajaca koncowy ruch drona (obrot o kat i koncowy przelot z zadania 5....">
<polygon fill="none" stroke="black" points="0,-104.5 0,-134.5 121,-134.5 121,-104.5 0,-104.5"/>
<text text-anchor="start" x="8" y="-122.5" font-family="Helvetica,sans-Serif" font-size="10.00">Drone::Drone_motion</text>
<text text-anchor="middle" x="60.5" y="-111.5" font-family="Helvetica,sans-Serif" font-size="10.00">_after_update</text>
</a>
</g>
</g>
<!-- Node1&#45;&gt;Node4 -->
<g id="edge3" class="edge">
<title>Node1&#45;&gt;Node4</title>
<path fill="none" stroke="midnightblue" d="M324.82,-117.04C316.12,-116.82 307.36,-116.63 299,-116.5 235.9,-115.54 220.1,-115.51 157,-116.5 145.39,-116.68 132.99,-116.99 121.1,-117.34"/>
<polygon fill="midnightblue" stroke="midnightblue" points="324.89,-120.54 334.98,-117.31 325.08,-113.54 324.89,-120.54"/>
</g>
<!-- Node5 -->
<g id="node5" class="node">
<title>Node5</title>
<g id="a_node5"><a xlink:href="class_drone.html#af052f6bb793d1229b99b16b800b95b82" target="_top" xlink:title="Metoda animujaca obrot drona i wyrysowujaca calosc w gnuplocie.">
<polygon fill="none" stroke="black" points="165.5,-126.5 165.5,-156.5 290.5,-156.5 290.5,-126.5 165.5,-126.5"/>
<text text-anchor="start" x="173.5" y="-144.5" font-family="Helvetica,sans-Serif" font-size="10.00">Drone::Drone_rotation</text>
<text text-anchor="middle" x="228" y="-133.5" font-family="Helvetica,sans-Serif" font-size="10.00">_animation</text>
</a>
</g>
</g>
<!-- Node1&#45;&gt;Node5 -->
<g id="edge4" class="edge">
<title>Node1&#45;&gt;Node5</title>
<path fill="none" stroke="midnightblue" d="M324.5,-129.03C313.22,-130.5 301.67,-132.01 290.67,-133.45"/>
<polygon fill="midnightblue" stroke="midnightblue" points="325.29,-132.46 334.76,-127.69 324.39,-125.52 325.29,-132.46"/>
</g>
<!-- Node6 -->
<g id="node6" class="node">
<title>Node6</title>
<g id="a_node6"><a xlink:href="class_drone.html#ab7808296cec81143dbddd7516340a371" target="_top" xlink:title="Metoda robiaca &quot;oblot&quot; drona wokol punktu (z modyfikacji)">
<polygon fill="none" stroke="black" points="157,-50 157,-69 299,-69 299,-50 157,-50"/>
<text text-anchor="middle" x="228" y="-57" font-family="Helvetica,sans-Serif" font-size="10.00">Drone::Drone_roundabout</text>
</a>
</g>
</g>
<!-- Node1&#45;&gt;Node6 -->
<g id="edge7" class="edge">
<title>Node1&#45;&gt;Node6</title>
<path fill="none" stroke="midnightblue" d="M347.42,-100.98C331.92,-95.3 314.78,-89.09 299,-83.5 285.32,-78.65 270.07,-73.41 257.31,-69.06"/>
<polygon fill="midnightblue" stroke="midnightblue" points="346.24,-104.27 356.83,-104.43 348.65,-97.7 346.24,-104.27"/>
</g>
<!-- Node7 -->
<g id="node7" class="node">
<title>Node7</title>
<g id="a_node7"><a xlink:href="class_drone.html#a5fc9dd645ad3856b5d3c501c63c464e3" target="_top" xlink:title="Metoda animujaca translacje drona i wyrysowujaca calosc w gnuplocie.">
<polygon fill="none" stroke="black" points="158.5,-0.5 158.5,-30.5 297.5,-30.5 297.5,-0.5 158.5,-0.5"/>
<text text-anchor="start" x="166.5" y="-18.5" font-family="Helvetica,sans-Serif" font-size="10.00">Drone::Drone_translation</text>
<text text-anchor="middle" x="228" y="-7.5" font-family="Helvetica,sans-Serif" font-size="10.00">_animation</text>
</a>
</g>
</g>
<!-- Node1&#45;&gt;Node7 -->
<g id="edge8" class="edge">
<title>Node1&#45;&gt;Node7</title>
<path fill="none" stroke="midnightblue" d="M374.44,-97.28C355.43,-79.93 327.13,-56.22 299,-40.5 292.35,-36.79 285.05,-33.46 277.75,-30.53"/>
<polygon fill="midnightblue" stroke="midnightblue" points="372.27,-100.04 381.98,-104.28 377.03,-94.91 372.27,-100.04"/>
</g>
<!-- Node5&#45;&gt;Node2 -->
<g id="edge5" class="edge">
<title>Node5&#45;&gt;Node2</title>
<path fill="none" stroke="midnightblue" d="M171.28,-159.68C150.6,-166.43 127.38,-174 107.64,-180.45"/>
<polygon fill="midnightblue" stroke="midnightblue" points="172.48,-162.97 180.9,-156.54 170.31,-156.32 172.48,-162.97"/>
</g>
<!-- Node5&#45;&gt;Node4 -->
<g id="edge6" class="edge">
<title>Node5&#45;&gt;Node4</title>
<path fill="none" stroke="midnightblue" d="M155.45,-131.99C144.04,-130.47 132.35,-128.92 121.25,-127.44"/>
<polygon fill="midnightblue" stroke="midnightblue" points="155,-135.46 165.37,-133.31 155.92,-128.52 155,-135.46"/>
</g>
</g>
</svg>
