<?xml version="1.0" encoding="UTF-8" standalone="no"?>
<!DOCTYPE svg PUBLIC "-//W3C//DTD SVG 1.1//EN"
 "http://www.w3.org/Graphics/SVG/1.1/DTD/svg11.dtd">
<!-- Generated by graphviz version 2.43.0 (0)
 -->
<!-- Title: Scene::create_filenames Pages: 1 -->
<svg width="569pt" height="28pt"
 viewBox="0.00 0.00 569.00 28.00" xmlns="http://www.w3.org/2000/svg" xmlns:xlink="http://www.w3.org/1999/xlink">
<g id="graph0" class="graph" transform="scale(1 1) rotate(0) translate(4 24)">
<title>Scene::create_filenames</title>
<!-- Node1 -->
<g id="node1" class="node">
<title>Node1</title>
<g id="a_node1"><a xlink:title="Metoda tworzaca nazwy programow, uzywana przy dodawaniu obiektow sceny.">
<polygon fill="#bfbfbf" stroke="black" points="425,-0.5 425,-19.5 561,-19.5 561,-0.5 425,-0.5"/>
<text text-anchor="middle" x="493" y="-7.5" font-family="Helvetica,sans-Serif" font-size="10.00">Scene::create_filenames</text>
</a>
</g>
</g>
<!-- Node2 -->
<g id="node2" class="node">
<title>Node2</title>
<g id="a_node2"><a xlink:href="class_scene.html#a8b87eec51d554a3ac01767a613871661" target="_top" xlink:title="Metoda dodajaca object zadany przez uzytkownika.">
<polygon fill="none" stroke="black" points="284,-0.5 284,-19.5 389,-19.5 389,-0.5 284,-0.5"/>
<text text-anchor="middle" x="336.5" y="-7.5" font-family="Helvetica,sans-Serif" font-size="10.00">Scene::add_object</text>
</a>
</g>
</g>
<!-- Node1&#45;&gt;Node2 -->
<g id="edge1" class="edge">
<title>Node1&#45;&gt;Node2</title>
<path fill="none" stroke="midnightblue" d="M414.62,-10C406.02,-10 397.42,-10 389.26,-10"/>
<polygon fill="midnightblue" stroke="midnightblue" points="414.68,-13.5 424.68,-10 414.68,-6.5 414.68,-13.5"/>
</g>
<!-- Node3 -->
<g id="node3" class="node">
<title>Node3</title>
<g id="a_node3"><a xlink:href="class_menu.html#acd338552222b744cd030e17776cb5d9b" target="_top" xlink:title="Obsluguje wybor menu.">
<polygon fill="none" stroke="black" points="134,-0.5 134,-19.5 248,-19.5 248,-0.5 134,-0.5"/>
<text text-anchor="middle" x="191" y="-7.5" font-family="Helvetica,sans-Serif" font-size="10.00">Menu::switch_menu</text>
</a>
</g>
</g>
<!-- Node2&#45;&gt;Node3 -->
<g id="edge2" class="edge">
<title>Node2&#45;&gt;Node3</title>
<path fill="none" stroke="midnightblue" d="M273.51,-10C265.06,-10 256.43,-10 248.1,-10"/>
<polygon fill="midnightblue" stroke="midnightblue" points="273.69,-13.5 283.69,-10 273.69,-6.5 273.69,-13.5"/>
</g>
<!-- Node4 -->
<g id="node4" class="node">
<title>Node4</title>
<g id="a_node4"><a xlink:href="class_menu.html#af7e6a49bd56499facef9cc98561ea169" target="_top" xlink:title="Inicjuje i obsluguje menu.">
<polygon fill="none" stroke="black" points="0,-0.5 0,-19.5 98,-19.5 98,-0.5 0,-0.5"/>
<text text-anchor="middle" x="49" y="-7.5" font-family="Helvetica,sans-Serif" font-size="10.00">Menu::init_menu</text>
</a>
</g>
</g>
<!-- Node3&#45;&gt;Node4 -->
<g id="edge3" class="edge">
<title>Node3&#45;&gt;Node4</title>
<path fill="none" stroke="midnightblue" d="M123.75,-10C115.08,-10 106.33,-10 98.04,-10"/>
<polygon fill="midnightblue" stroke="midnightblue" points="123.86,-13.5 133.86,-10 123.86,-6.5 123.86,-13.5"/>
</g>
</g>
</svg>
