<?xml version="1.0" encoding="UTF-8" standalone="no"?>
<!DOCTYPE svg PUBLIC "-//W3C//DTD SVG 1.1//EN"
 "http://www.w3.org/Graphics/SVG/1.1/DTD/svg11.dtd">
<!-- Generated by graphviz version 2.43.0 (0)
 -->
<!-- Title: PzG::AtrybutyRysowania::WezStyl Pages: 1 -->
<svg width="586pt" height="39pt"
 viewBox="0.00 0.00 586.00 39.00" xmlns="http://www.w3.org/2000/svg" xmlns:xlink="http://www.w3.org/1999/xlink">
<g id="graph0" class="graph" transform="scale(1 1) rotate(0) translate(4 35)">
<title>PzG::AtrybutyRysowania::WezStyl</title>
<!-- Node1 -->
<g id="node1" class="node">
<title>Node1</title>
<g id="a_node1"><a xlink:title="Udostępnia styl rysowania.">
<polygon fill="#bfbfbf" stroke="black" points="441,-0.5 441,-30.5 578,-30.5 578,-0.5 441,-0.5"/>
<text text-anchor="start" x="449" y="-18.5" font-family="Helvetica,sans-Serif" font-size="10.00">PzG::AtrybutyRysowania</text>
<text text-anchor="middle" x="509.5" y="-7.5" font-family="Helvetica,sans-Serif" font-size="10.00">::WezStyl</text>
</a>
</g>
</g>
<!-- Node2 -->
<g id="node2" class="node">
<title>Node2</title>
<g id="a_node2"><a xlink:href="namespace_pz_g.html#a85d3a77f67c2724ba3675bc3ef05eb81" target="_top" xlink:title="Dopisuje do polecenia rysowania wpisy z nazwami plików, w których są współrzędne punktów.">
<polygon fill="none" stroke="black" points="235,-0.5 235,-30.5 405,-30.5 405,-0.5 235,-0.5"/>
<text text-anchor="start" x="243" y="-18.5" font-family="Helvetica,sans-Serif" font-size="10.00">PzG::DopiszRysowaniePunktow</text>
<text text-anchor="middle" x="320" y="-7.5" font-family="Helvetica,sans-Serif" font-size="10.00">ZListy</text>
</a>
</g>
</g>
<!-- Node1&#45;&gt;Node2 -->
<g id="edge1" class="edge">
<title>Node1&#45;&gt;Node2</title>
<path fill="none" stroke="midnightblue" d="M430.68,-15.5C422.29,-15.5 413.72,-15.5 405.25,-15.5"/>
<polygon fill="midnightblue" stroke="midnightblue" points="430.81,-19 440.81,-15.5 430.81,-12 430.81,-19"/>
</g>
<!-- Node3 -->
<g id="node3" class="node">
<title>Node3</title>
<g id="a_node3"><a xlink:href="class_pz_g_1_1_lacze_do_g_n_u_plota.html#aee10e48fe1b9fba6e2897b4ccfa27aef" target="_top" xlink:title="Tworzy listę parametrów umożliwiających rysowanie brył z plików.">
<polygon fill="none" stroke="black" points="0,-0.5 0,-30.5 199,-30.5 199,-0.5 0,-0.5"/>
<text text-anchor="start" x="8" y="-18.5" font-family="Helvetica,sans-Serif" font-size="10.00">PzG::LaczeDoGNUPlota</text>
<text text-anchor="middle" x="99.5" y="-7.5" font-family="Helvetica,sans-Serif" font-size="10.00">::DopiszRysowanieZRoznychPunktow</text>
</a>
</g>
</g>
<!-- Node2&#45;&gt;Node3 -->
<g id="edge2" class="edge">
<title>Node2&#45;&gt;Node3</title>
<path fill="none" stroke="midnightblue" d="M224.63,-15.5C216.21,-15.5 207.67,-15.5 199.21,-15.5"/>
<polygon fill="midnightblue" stroke="midnightblue" points="224.83,-19 234.83,-15.5 224.83,-12 224.83,-19"/>
</g>
</g>
</svg>
