<?xml version="1.0" encoding="UTF-8" standalone="no"?>
<!DOCTYPE svg PUBLIC "-//W3C//DTD SVG 1.1//EN"
 "http://www.w3.org/Graphics/SVG/1.1/DTD/svg11.dtd">
<!-- Generated by graphviz version 2.43.0 (0)
 -->
<!-- Title: PzG::AtrybutyRysowania::ZmienKolor Pages: 1 -->
<!--zoomable 467 -->
<svg id="main" version="1.1" xmlns="http://www.w3.org/2000/svg" xmlns:xlink="http://www.w3.org/1999/xlink" xml:space="preserve" onload="init(evt)">
<style type="text/css"><![CDATA[
.edge:hover path { stroke: red; }
.edge:hover polygon { stroke: red; fill: red; }
]]></style>
<script type="text/javascript"><![CDATA[
var edges = document.getElementsByTagName('g');
if (edges && edges.length) {
  for (var i=0;i<edges.length;i++) {
    if (edges[i].id.substr(0,4)=='edge') {
      edges[i].setAttribute('class','edge');
    }
  }
}
]]></script>
        <defs>
                <circle id="rim" cx="0" cy="0" r="7"/>
                <circle id="rim2" cx="0" cy="0" r="3.5"/>
                <g id="zoomPlus">
                        <use xlink:href="#rim" fill="#404040">
                                <set attributeName="fill" to="#808080" begin="zoomplus.mouseover" end="zoomplus.mouseout"/>
                        </use>
                        <path d="M-4,0h8M0,-4v8" fill="none" stroke="white" stroke-width="1.5" pointer-events="none"/>
                </g>
                <g id="zoomMin">
                        <use xlink:href="#rim" fill="#404040">
                                <set attributeName="fill" to="#808080" begin="zoomminus.mouseover" end="zoomminus.mouseout"/>
                        </use>
                        <path d="M-4,0h8" fill="none" stroke="white" stroke-width="1.5" pointer-events="none"/>
                </g>
                <g id="dirArrow">
                        <path fill="none" stroke="white" stroke-width="1.5" d="M0,-3.0v7 M-2.5,-0.5L0,-3.0L2.5,-0.5"/>
                </g>
               <g id="resetDef">
                       <use xlink:href="#rim2" fill="#404040">
                               <set attributeName="fill" to="#808080" begin="reset.mouseover" end="reset.mouseout"/>
                       </use>
               </g>
        </defs>

<script type="text/javascript">
var viewWidth = 1414;
var viewHeight = 467;
var sectionId = 'dynsection-3';
</script>
<script xlink:href="svgpan.js"/>
<svg id="graph" class="graph">
<g id="viewport">
<title>PzG::AtrybutyRysowania::ZmienKolor</title>
<!-- Node1 -->
<g id="node1" class="node">
<title>Node1</title>
<g id="a_node1"><a xlink:title="Zmienia kolor rysowania.">
<polygon fill="#bfbfbf" stroke="black" points="1269,-239.5 1269,-269.5 1406,-269.5 1406,-239.5 1269,-239.5"/>
<text text-anchor="start" x="1277" y="-257.5" font-family="Helvetica,sans-Serif" font-size="10.00">PzG::AtrybutyRysowania</text>
<text text-anchor="middle" x="1337.5" y="-246.5" font-family="Helvetica,sans-Serif" font-size="10.00">::ZmienKolor</text>
</a>
</g>
</g>
<!-- Node2 -->
<g id="node2" class="node">
<title>Node2</title>
<g id="a_node2"><a xlink:href="namespace_pz_g.html#a169c311f0e0b6ffadcd44e91e749f72d" target="_top" xlink:title="Wczytuje z pliku listę punktów.">
<polygon fill="none" stroke="black" points="1088,-239.5 1088,-269.5 1233,-269.5 1233,-239.5 1088,-239.5"/>
<text text-anchor="start" x="1096" y="-257.5" font-family="Helvetica,sans-Serif" font-size="10.00">PzG::WczytajListeRoznych</text>
<text text-anchor="middle" x="1160.5" y="-246.5" font-family="Helvetica,sans-Serif" font-size="10.00">Punktow</text>
</a>
</g>
</g>
<!-- Node1&#45;&gt;Node2 -->
<g id="edge1" class="edge">
<title>Node1&#45;&gt;Node2</title>
<path fill="none" stroke="midnightblue" d="M1258.56,-254.5C1250.07,-254.5 1241.45,-254.5 1233.04,-254.5"/>
<polygon fill="midnightblue" stroke="midnightblue" points="1258.84,-258 1268.84,-254.5 1258.84,-251 1258.84,-258"/>
</g>
<!-- Node3 -->
<g id="node3" class="node">
<title>Node3</title>
<g id="a_node3"><a xlink:href="namespace_pz_g.html#a7227cb39c785b1c746b6bb5515c0b781" target="_top" xlink:title="Dodaje do listy rysowanych punktów, punkty o różnych rozmiarach.">
<polygon fill="none" stroke="black" points="876,-239.5 876,-269.5 1052,-269.5 1052,-239.5 876,-239.5"/>
<text text-anchor="start" x="884" y="-257.5" font-family="Helvetica,sans-Serif" font-size="10.00">PzG::DopiszRysowanieZRoznych</text>
<text text-anchor="middle" x="964" y="-246.5" font-family="Helvetica,sans-Serif" font-size="10.00">Punktow</text>
</a>
</g>
</g>
<!-- Node2&#45;&gt;Node3 -->
<g id="edge2" class="edge">
<title>Node2&#45;&gt;Node3</title>
<path fill="none" stroke="midnightblue" d="M1077.74,-254.5C1069.33,-254.5 1060.76,-254.5 1052.29,-254.5"/>
<polygon fill="midnightblue" stroke="midnightblue" points="1077.9,-258 1087.9,-254.5 1077.9,-251 1077.9,-258"/>
</g>
<!-- Node4 -->
<g id="node4" class="node">
<title>Node4</title>
<g id="a_node4"><a xlink:href="class_pz_g_1_1_lacze_do_g_n_u_plota.html#aee10e48fe1b9fba6e2897b4ccfa27aef" target="_top" xlink:title="Tworzy listę parametrów umożliwiających rysowanie brył z plików.">
<polygon fill="none" stroke="black" points="641,-264.5 641,-294.5 840,-294.5 840,-264.5 641,-264.5"/>
<text text-anchor="start" x="649" y="-282.5" font-family="Helvetica,sans-Serif" font-size="10.00">PzG::LaczeDoGNUPlota</text>
<text text-anchor="middle" x="740.5" y="-271.5" font-family="Helvetica,sans-Serif" font-size="10.00">::DopiszRysowanieZRoznychPunktow</text>
</a>
</g>
</g>
<!-- Node3&#45;&gt;Node4 -->
<g id="edge3" class="edge">
<title>Node3&#45;&gt;Node4</title>
<path fill="none" stroke="midnightblue" d="M865.62,-265.49C857.24,-266.44 848.76,-267.39 840.37,-268.34"/>
<polygon fill="midnightblue" stroke="midnightblue" points="866.23,-268.94 875.78,-264.34 865.45,-261.99 866.23,-268.94"/>
</g>
<!-- Node5 -->
<g id="node5" class="node">
<title>Node5</title>
<g id="a_node5"><a xlink:href="class_pz_g_1_1_lacze_do_g_n_u_plota.html#a065f5b8402737cc62b0ad4f66d028335" target="_top" xlink:title="Generuje polecenie rysowania i przesyła je do gnuplota.">
<polygon fill="none" stroke="black" points="675.5,-215.5 675.5,-245.5 805.5,-245.5 805.5,-215.5 675.5,-215.5"/>
<text text-anchor="start" x="683.5" y="-233.5" font-family="Helvetica,sans-Serif" font-size="10.00">PzG::LaczeDoGNUPlota</text>
<text text-anchor="middle" x="740.5" y="-222.5" font-family="Helvetica,sans-Serif" font-size="10.00">::Rysuj</text>
</a>
</g>
</g>
<!-- Node3&#45;&gt;Node5 -->
<g id="edge4" class="edge">
<title>Node3&#45;&gt;Node5</title>
<path fill="none" stroke="midnightblue" d="M865.57,-243.94C845.29,-241.75 824.42,-239.48 805.71,-237.46"/>
<polygon fill="midnightblue" stroke="midnightblue" points="865.46,-247.45 875.78,-245.05 866.21,-240.49 865.46,-247.45"/>
</g>
<!-- Node6 -->
<g id="node6" class="node">
<title>Node6</title>
<g id="a_node6"><a xlink:href="class_drone.html#a7eecbd031df9009e113d355a9dcdf4e1" target="_top" xlink:title="Metoda obliczajaca i przeprowadzajaca caly ruch drona (obrot o kat i przelot z zadania 5....">
<polygon fill="none" stroke="black" points="299,-394.5 299,-424.5 411,-424.5 411,-394.5 299,-394.5"/>
<text text-anchor="start" x="307" y="-412.5" font-family="Helvetica,sans-Serif" font-size="10.00">Drone::Drone_basic</text>
<text text-anchor="middle" x="355" y="-401.5" font-family="Helvetica,sans-Serif" font-size="10.00">_motion_flight</text>
</a>
</g>
</g>
<!-- Node5&#45;&gt;Node6 -->
<g id="edge5" class="edge">
<title>Node5&#45;&gt;Node6</title>
<path fill="none" stroke="midnightblue" d="M665.87,-239.21C656.56,-243.01 647.89,-248.27 641,-255.5 585.61,-313.61 667.16,-381.71 605,-432.5 541.97,-484 437.69,-447.72 386.4,-424.62"/>
<polygon fill="midnightblue" stroke="midnightblue" points="667.08,-242.5 675.36,-235.88 664.76,-235.89 667.08,-242.5"/>
</g>
<!-- Node7 -->
<g id="node7" class="node">
<title>Node7</title>
<g id="a_node7"><a xlink:href="class_drone.html#a4abbed4a4cc52e5630f07f9129b46c5c" target="_top" xlink:title="Metoda realizujaca ladowanie drona.">
<polygon fill="none" stroke="black" points="471,-202 471,-221 596,-221 596,-202 471,-202"/>
<text text-anchor="middle" x="533.5" y="-209" font-family="Helvetica,sans-Serif" font-size="10.00">Drone::Drone_descent</text>
</a>
</g>
</g>
<!-- Node5&#45;&gt;Node7 -->
<g id="edge6" class="edge">
<title>Node5&#45;&gt;Node7</title>
<path fill="none" stroke="midnightblue" d="M665.24,-223.62C642.61,-221.52 617.99,-219.24 596.28,-217.23"/>
<polygon fill="midnightblue" stroke="midnightblue" points="665.2,-227.13 675.48,-224.57 665.85,-220.16 665.2,-227.13"/>
</g>
<!-- Node8 -->
<g id="node8" class="node">
<title>Node8</title>
<g id="a_node8"><a xlink:href="class_drone.html#aec9abadf85777ab20e361d1389aab466" target="_top" xlink:title="Metoda obliczajaca i przeprowadzajaca koncowy ruch drona (obrot o kat i koncowy przelot z zadania 5....">
<polygon fill="none" stroke="black" points="294.5,-345.5 294.5,-375.5 415.5,-375.5 415.5,-345.5 294.5,-345.5"/>
<text text-anchor="start" x="302.5" y="-363.5" font-family="Helvetica,sans-Serif" font-size="10.00">Drone::Drone_motion</text>
<text text-anchor="middle" x="355" y="-352.5" font-family="Helvetica,sans-Serif" font-size="10.00">_after_update</text>
</a>
</g>
</g>
<!-- Node5&#45;&gt;Node8 -->
<g id="edge7" class="edge">
<title>Node5&#45;&gt;Node8</title>
<path fill="none" stroke="midnightblue" d="M665.8,-240.9C656.77,-244.47 648.2,-249.22 641,-255.5 608.85,-283.55 639.6,-319.52 605,-344.5 550.39,-383.93 470.25,-381.36 415.74,-373.27"/>
<polygon fill="midnightblue" stroke="midnightblue" points="667.04,-244.17 675.34,-237.58 664.74,-237.56 667.04,-244.17"/>
</g>
<!-- Node9 -->
<g id="node9" class="node">
<title>Node9</title>
<g id="a_node9"><a xlink:href="class_drone.html#ae1e0bb7bf7063795bce4bbf5ef99cb74" target="_top" xlink:title="Metoda zapisujaca sciezke do pliku oraz do lacza.">
<polygon fill="none" stroke="black" points="462,-316 462,-335 605,-335 605,-316 462,-316"/>
<text text-anchor="middle" x="533.5" y="-323" font-family="Helvetica,sans-Serif" font-size="10.00">Drone::Drone_path_to_file</text>
</a>
</g>
</g>
<!-- Node5&#45;&gt;Node9 -->
<g id="edge8" class="edge">
<title>Node5&#45;&gt;Node9</title>
<path fill="none" stroke="midnightblue" d="M665.88,-243.39C657.12,-246.58 648.6,-250.55 641,-255.5 619.25,-269.68 626.17,-286.47 605,-301.5 596.25,-307.71 585.76,-312.42 575.59,-315.94"/>
<polygon fill="midnightblue" stroke="midnightblue" points="667.05,-246.69 675.45,-240.23 664.86,-240.04 667.05,-246.69"/>
</g>
<!-- Node10 -->
<g id="node10" class="node">
<title>Node10</title>
<g id="a_node10"><a xlink:href="class_drone.html#ab7808296cec81143dbddd7516340a371" target="_top" xlink:title="Metoda robiaca &quot;oblot&quot; drona wokol punktu (z modyfikacji)">
<polygon fill="none" stroke="black" points="284,-297 284,-316 426,-316 426,-297 284,-297"/>
<text text-anchor="middle" x="355" y="-304" font-family="Helvetica,sans-Serif" font-size="10.00">Drone::Drone_roundabout</text>
</a>
</g>
</g>
<!-- Node5&#45;&gt;Node10 -->
<g id="edge16" class="edge">
<title>Node5&#45;&gt;Node10</title>
<path fill="none" stroke="midnightblue" d="M665.13,-245.48C645.57,-249.41 624.49,-253.63 605,-257.5 535.43,-271.33 454.88,-287.14 404.68,-296.98"/>
<polygon fill="midnightblue" stroke="midnightblue" points="666.09,-248.86 675.2,-243.46 664.71,-242 666.09,-248.86"/>
</g>
<!-- Node11 -->
<g id="node11" class="node">
<title>Node11</title>
<g id="a_node11"><a xlink:href="class_drone.html#a5fc9dd645ad3856b5d3c501c63c464e3" target="_top" xlink:title="Metoda animujaca translacje drona i wyrysowujaca calosc w gnuplocie.">
<polygon fill="none" stroke="black" points="285.5,-240.5 285.5,-270.5 424.5,-270.5 424.5,-240.5 285.5,-240.5"/>
<text text-anchor="start" x="293.5" y="-258.5" font-family="Helvetica,sans-Serif" font-size="10.00">Drone::Drone_translation</text>
<text text-anchor="middle" x="355" y="-247.5" font-family="Helvetica,sans-Serif" font-size="10.00">_animation</text>
</a>
</g>
</g>
<!-- Node5&#45;&gt;Node11 -->
<g id="edge17" class="edge">
<title>Node5&#45;&gt;Node11</title>
<path fill="none" stroke="midnightblue" d="M665.29,-235.34C595.66,-239.88 492.36,-246.61 424.61,-251.03"/>
<polygon fill="midnightblue" stroke="midnightblue" points="665.56,-238.83 675.31,-234.68 665.1,-231.84 665.56,-238.83"/>
</g>
<!-- Node12 -->
<g id="node12" class="node">
<title>Node12</title>
<g id="a_node12"><a xlink:href="class_drone.html#af052f6bb793d1229b99b16b800b95b82" target="_top" xlink:title="Metoda animujaca obrot drona i wyrysowujaca calosc w gnuplocie.">
<polygon fill="none" stroke="black" points="471,-392.5 471,-422.5 596,-422.5 596,-392.5 471,-392.5"/>
<text text-anchor="start" x="479" y="-410.5" font-family="Helvetica,sans-Serif" font-size="10.00">Drone::Drone_rotation</text>
<text text-anchor="middle" x="533.5" y="-399.5" font-family="Helvetica,sans-Serif" font-size="10.00">_animation</text>
</a>
</g>
</g>
<!-- Node5&#45;&gt;Node12 -->
<g id="edge13" class="edge">
<title>Node5&#45;&gt;Node12</title>
<path fill="none" stroke="midnightblue" d="M665.76,-240.03C656.62,-243.73 648.03,-248.74 641,-255.5 600.26,-294.7 642.6,-335.29 605,-377.5 599.6,-383.56 592.77,-388.43 585.5,-392.34"/>
<polygon fill="midnightblue" stroke="midnightblue" points="667.17,-243.25 675.45,-236.64 664.86,-236.64 667.17,-243.25"/>
</g>
<!-- Node13 -->
<g id="node13" class="node">
<title>Node13</title>
<g id="a_node13"><a xlink:href="class_scene.html#ab57c9a7293ccbaf3dd7e9ac469a7a787" target="_top" xlink:title="Metoda inicjalizujaca lacze do gnuplota.">
<polygon fill="none" stroke="black" points="136,-126 136,-145 246,-145 246,-126 136,-126"/>
<text text-anchor="middle" x="191" y="-133" font-family="Helvetica,sans-Serif" font-size="10.00">Scene::init_gnuplot</text>
</a>
</g>
</g>
<!-- Node5&#45;&gt;Node13 -->
<g id="edge18" class="edge">
<title>Node5&#45;&gt;Node13</title>
<path fill="none" stroke="midnightblue" d="M709.19,-209.63C682.92,-192.77 643.22,-170.16 605,-159.5 480.3,-124.74 326.45,-127.03 246.33,-131.43"/>
<polygon fill="midnightblue" stroke="midnightblue" points="707.61,-212.78 717.89,-215.32 711.44,-206.92 707.61,-212.78"/>
</g>
<!-- Node14 -->
<g id="node14" class="node">
<title>Node14</title>
<g id="a_node14"><a xlink:href="class_menu.html#af7e6a49bd56499facef9cc98561ea169" target="_top" xlink:title="Inicjuje i obsluguje menu.">
<polygon fill="none" stroke="black" points="0,-126 0,-145 98,-145 98,-126 0,-126"/>
<text text-anchor="middle" x="49" y="-133" font-family="Helvetica,sans-Serif" font-size="10.00">Menu::init_menu</text>
</a>
</g>
</g>
<!-- Node5&#45;&gt;Node14 -->
<g id="edge20" class="edge">
<title>Node5&#45;&gt;Node14</title>
<path fill="none" stroke="midnightblue" d="M684.85,-212.45C660.64,-205.13 631.66,-197.29 605,-192.5 398.3,-155.33 341.61,-186.19 134,-154.5 118.48,-152.13 101.56,-148.51 87,-145.06"/>
<polygon fill="midnightblue" stroke="midnightblue" points="683.98,-215.84 694.57,-215.43 686.03,-209.15 683.98,-215.84"/>
</g>
<!-- Node15 -->
<g id="node15" class="node">
<title>Node15</title>
<g id="a_node15"><a xlink:href="class_drone.html#a577871807280aab8d9c0d4e45b435ec4" target="_top" xlink:title="Metoda rysujaca drona w gnuplocie. Przeznaczona do testow">
<polygon fill="none" stroke="black" points="468,-0.5 468,-30.5 599,-30.5 599,-0.5 468,-0.5"/>
<text text-anchor="start" x="476" y="-18.5" font-family="Helvetica,sans-Serif" font-size="10.00">Drone::Print_to_gnuplot</text>
<text text-anchor="middle" x="533.5" y="-7.5" font-family="Helvetica,sans-Serif" font-size="10.00">_drone</text>
</a>
</g>
</g>
<!-- Node5&#45;&gt;Node15 -->
<g id="edge21" class="edge">
<title>Node5&#45;&gt;Node15</title>
<path fill="none" stroke="midnightblue" d="M728.47,-206.22C709.07,-166.13 665.14,-86.01 605,-40.5 599.93,-36.66 594.21,-33.37 588.29,-30.57"/>
<polygon fill="midnightblue" stroke="midnightblue" points="725.32,-207.74 732.76,-215.28 731.64,-204.74 725.32,-207.74"/>
</g>
<!-- Node16 -->
<g id="node16" class="node">
<title>Node16</title>
<g id="a_node16"><a xlink:href="class_scene.html#aa5fc0e5a94bfa0766f6e5ff10993630d" target="_top" xlink:title="Skanowanie powierzchni pod dronem, gdy dron nie moze wyladowac w danym miejscu &#160;&#160;Rysowany jest rownie...">
<polygon fill="none" stroke="black" points="480,-50 480,-69 587,-69 587,-50 480,-50"/>
<text text-anchor="middle" x="533.5" y="-57" font-family="Helvetica,sans-Serif" font-size="10.00">Scene::scan_plane</text>
</a>
</g>
</g>
<!-- Node5&#45;&gt;Node16 -->
<g id="edge22" class="edge">
<title>Node5&#45;&gt;Node16</title>
<path fill="none" stroke="midnightblue" d="M723.75,-206.89C701.09,-174.66 656.34,-117.06 605,-83.5 595.58,-77.35 584.43,-72.6 573.8,-69.02"/>
<polygon fill="midnightblue" stroke="midnightblue" points="720.97,-209.03 729.54,-215.27 726.73,-205.05 720.97,-209.03"/>
</g>
<!-- Node18 -->
<g id="node18" class="node">
<title>Node18</title>
<g id="a_node18"><a xlink:href="class_menu.html#acd338552222b744cd030e17776cb5d9b" target="_top" xlink:title="Obsluguje wybor menu.">
<polygon fill="none" stroke="black" points="134,-88 134,-107 248,-107 248,-88 134,-88"/>
<text text-anchor="middle" x="191" y="-95" font-family="Helvetica,sans-Serif" font-size="10.00">Menu::switch_menu</text>
</a>
</g>
</g>
<!-- Node5&#45;&gt;Node18 -->
<g id="edge26" class="edge">
<title>Node5&#45;&gt;Node18</title>
<path fill="none" stroke="midnightblue" d="M717.69,-208.04C692.89,-184.11 649.98,-147.41 605,-130.5 484.14,-85.07 329.72,-87.13 248.22,-92.41"/>
<polygon fill="midnightblue" stroke="midnightblue" points="715.5,-210.79 725.09,-215.31 720.41,-205.8 715.5,-210.79"/>
</g>
<!-- Node9&#45;&gt;Node6 -->
<g id="edge9" class="edge">
<title>Node9&#45;&gt;Node6</title>
<path fill="none" stroke="midnightblue" d="M508.81,-340.51C487.64,-353.51 455.52,-372.26 426,-385.5 418.97,-388.65 411.39,-391.65 403.9,-394.39"/>
<polygon fill="midnightblue" stroke="midnightblue" points="510.79,-343.4 517.44,-335.15 507.1,-337.45 510.79,-343.4"/>
</g>
<!-- Node9&#45;&gt;Node8 -->
<g id="edge10" class="edge">
<title>Node9&#45;&gt;Node8</title>
<path fill="none" stroke="midnightblue" d="M474.32,-337.04C455.44,-340.78 434.48,-344.94 415.51,-348.7"/>
<polygon fill="midnightblue" stroke="midnightblue" points="475.14,-340.44 484.27,-335.06 473.78,-333.58 475.14,-340.44"/>
</g>
<!-- Node9&#45;&gt;Node10 -->
<g id="edge11" class="edge">
<title>Node9&#45;&gt;Node10</title>
<path fill="none" stroke="midnightblue" d="M451.93,-316.83C443.31,-315.9 434.6,-314.96 426.12,-314.05"/>
<polygon fill="midnightblue" stroke="midnightblue" points="451.66,-320.32 461.98,-317.91 452.41,-313.36 451.66,-320.32"/>
</g>
<!-- Node9&#45;&gt;Node11 -->
<g id="edge12" class="edge">
<title>Node9&#45;&gt;Node11</title>
<path fill="none" stroke="midnightblue" d="M498.75,-312.12C468.85,-300.26 425.23,-282.96 394.09,-270.61"/>
<polygon fill="midnightblue" stroke="midnightblue" points="497.74,-315.48 508.33,-315.91 500.32,-308.97 497.74,-315.48"/>
</g>
<!-- Node12&#45;&gt;Node6 -->
<g id="edge14" class="edge">
<title>Node12&#45;&gt;Node6</title>
<path fill="none" stroke="midnightblue" d="M460.63,-408.31C444.14,-408.5 426.87,-408.7 411.21,-408.87"/>
<polygon fill="midnightblue" stroke="midnightblue" points="460.81,-411.81 470.77,-408.2 460.73,-404.81 460.81,-411.81"/>
</g>
<!-- Node12&#45;&gt;Node8 -->
<g id="edge15" class="edge">
<title>Node12&#45;&gt;Node8</title>
<path fill="none" stroke="midnightblue" d="M466.44,-389.91C448.67,-385.18 429.6,-380.1 412.4,-375.52"/>
<polygon fill="midnightblue" stroke="midnightblue" points="465.61,-393.31 476.17,-392.5 467.41,-386.54 465.61,-393.31"/>
</g>
<!-- Node13&#45;&gt;Node14 -->
<g id="edge19" class="edge">
<title>Node13&#45;&gt;Node14</title>
<path fill="none" stroke="midnightblue" d="M125.82,-135.5C116.48,-135.5 107,-135.5 98.05,-135.5"/>
<polygon fill="midnightblue" stroke="midnightblue" points="125.87,-139 135.87,-135.5 125.87,-132 125.87,-139"/>
</g>
<!-- Node17 -->
<g id="node17" class="node">
<title>Node17</title>
<g id="a_node17"><a xlink:href="class_scene.html#a5fb0b9741a75dec929b5ea5d6ac917a1" target="_top" xlink:title="Przelot aktywnego drona.">
<polygon fill="none" stroke="black" points="323,-50 323,-69 387,-69 387,-50 323,-50"/>
<text text-anchor="middle" x="355" y="-57" font-family="Helvetica,sans-Serif" font-size="10.00">Scene::fly</text>
</a>
</g>
</g>
<!-- Node16&#45;&gt;Node17 -->
<g id="edge23" class="edge">
<title>Node16&#45;&gt;Node17</title>
<path fill="none" stroke="midnightblue" d="M469.44,-59.5C441.48,-59.5 409.85,-59.5 387.11,-59.5"/>
<polygon fill="midnightblue" stroke="midnightblue" points="469.54,-63 479.54,-59.5 469.54,-56 469.54,-63"/>
</g>
<!-- Node17&#45;&gt;Node18 -->
<g id="edge24" class="edge">
<title>Node17&#45;&gt;Node18</title>
<path fill="none" stroke="midnightblue" d="M313,-69.12C288.39,-74.89 257.21,-82.2 232.66,-87.96"/>
<polygon fill="midnightblue" stroke="midnightblue" points="313.83,-72.52 322.76,-66.83 312.23,-65.7 313.83,-72.52"/>
</g>
<!-- Node18&#45;&gt;Node14 -->
<g id="edge25" class="edge">
<title>Node18&#45;&gt;Node14</title>
<path fill="none" stroke="midnightblue" d="M144.88,-109.75C125.59,-114.98 103.39,-121.01 85.32,-125.91"/>
<polygon fill="midnightblue" stroke="midnightblue" points="145.94,-113.09 154.67,-107.09 144.1,-106.33 145.94,-113.09"/>
</g>
</g>
</svg>
        <g id="navigator" transform="translate(0 0)" fill="#404254">
                <rect fill="#f2f5e9" fill-opacity="0.5" stroke="#606060" stroke-width=".5" x="0" y="0" width="60" height="60"/>
                <use id="zoomplus" xlink:href="#zoomPlus" x="17" y="9" onmousedown="handleZoom(evt,'in')"/>
                <use id="zoomminus" xlink:href="#zoomMin" x="42" y="9" onmousedown="handleZoom(evt,'out')"/>
                <use id="reset" xlink:href="#resetDef" x="30" y="36" onmousedown="handleReset()"/>
                <g id="arrowUp" xlink:href="#dirArrow" transform="translate(30 24)" onmousedown="handlePan(0,-1)">
                  <use xlink:href="#rim" fill="#404040">
                        <set attributeName="fill" to="#808080" begin="arrowUp.mouseover" end="arrowUp.mouseout"/>
                  </use>
                  <path fill="none" stroke="white" stroke-width="1.5" d="M0,-3.0v7 M-2.5,-0.5L0,-3.0L2.5,-0.5"/>
                </g>
                <g id="arrowRight" xlink:href="#dirArrow" transform="rotate(90) translate(36 -43)" onmousedown="handlePan(1,0)">
                  <use xlink:href="#rim" fill="#404040">
                        <set attributeName="fill" to="#808080" begin="arrowRight.mouseover" end="arrowRight.mouseout"/>
                  </use>
                  <path fill="none" stroke="white" stroke-width="1.5" d="M0,-3.0v7 M-2.5,-0.5L0,-3.0L2.5,-0.5"/>
                </g>
                <g id="arrowDown" xlink:href="#dirArrow" transform="rotate(180) translate(-30 -48)" onmousedown="handlePan(0,1)">
                  <use xlink:href="#rim" fill="#404040">
                        <set attributeName="fill" to="#808080" begin="arrowDown.mouseover" end="arrowDown.mouseout"/>
                  </use>
                  <path fill="none" stroke="white" stroke-width="1.5" d="M0,-3.0v7 M-2.5,-0.5L0,-3.0L2.5,-0.5"/>
                </g>
                <g id="arrowLeft" xlink:href="#dirArrow" transform="rotate(270) translate(-36 17)" onmousedown="handlePan(-1,0)">
                  <use xlink:href="#rim" fill="#404040">
                        <set attributeName="fill" to="#808080" begin="arrowLeft.mouseover" end="arrowLeft.mouseout"/>
                  </use>
                  <path fill="none" stroke="white" stroke-width="1.5" d="M0,-3.0v7 M-2.5,-0.5L0,-3.0L2.5,-0.5"/>
                </g>
        </g>
        <svg viewBox="0 0 15 15" width="100%" height="30px" preserveAspectRatio="xMaxYMin meet">
         <g id="arrow_out" transform="scale(0.3 0.3)">
          <a xlink:href="class_pz_g_1_1_atrybuty_rysowania_ab068535b4d2f755c394557d1da72a4eb_icgraph_org.svg" target="_base">
           <rect id="button" ry="5" rx="5" y="6" x="6" height="38" width="38"
                fill="#f2f5e9" fill-opacity="0.5" stroke="#606060" stroke-width="1.0"/>
           <path id="arrow"
             d="M 11.500037,31.436501 C 11.940474,20.09759 22.043105,11.32322 32.158766,21.979434 L 37.068811,17.246167 C 37.068811,17.246167 37.088388,32 37.088388,32 L 22.160133,31.978069 C 22.160133,31.978069 26.997745,27.140456 26.997745,27.140456 C 18.528582,18.264221 13.291696,25.230495 11.500037,31.436501 z"
             style="fill:#404040;"/>
          </a>
         </g>
        </svg>
</svg>
