<?xml version="1.0" encoding="UTF-8" standalone="no"?>
<!DOCTYPE svg PUBLIC "-//W3C//DTD SVG 1.1//EN"
 "http://www.w3.org/Graphics/SVG/1.1/DTD/svg11.dtd">
<!-- Generated by graphviz version 2.43.0 (0)
 -->
<!-- Title: Triangular::Triangular Pages: 1 -->
<svg width="628pt" height="218pt"
 viewBox="0.00 0.00 628.00 218.00" xmlns="http://www.w3.org/2000/svg" xmlns:xlink="http://www.w3.org/1999/xlink">
<g id="graph0" class="graph" transform="scale(1 1) rotate(0) translate(4 214)">
<title>Triangular::Triangular</title>
<!-- Node1 -->
<g id="node1" class="node">
<title>Node1</title>
<g id="a_node1"><a xlink:title="Konstruktor parametryczny klasy Triangular. Powstaje ostroslup jak z konstruktora parametrycznego,...">
<polygon fill="#bfbfbf" stroke="black" points="0,-95.5 0,-114.5 119,-114.5 119,-95.5 0,-95.5"/>
<text text-anchor="middle" x="59.5" y="-102.5" font-family="Helvetica,sans-Serif" font-size="10.00">Triangular::Triangular</text>
</a>
</g>
</g>
<!-- Node2 -->
<g id="node2" class="node">
<title>Node2</title>
<g id="a_node2"><a xlink:href="class_cuboid.html#a7ea89af123502b41ef349f4aedb93b5e" target="_top" xlink:title="Metoda skalujaca o wektor scale bedacy czlonkiem klasy block">
<polygon fill="none" stroke="black" points="172.5,-190.5 172.5,-209.5 276.5,-209.5 276.5,-190.5 172.5,-190.5"/>
<text text-anchor="middle" x="224.5" y="-197.5" font-family="Helvetica,sans-Serif" font-size="10.00">Cuboid::scale_cub</text>
</a>
</g>
</g>
<!-- Node1&#45;&gt;Node2 -->
<g id="edge1" class="edge">
<title>Node1&#45;&gt;Node2</title>
<path fill="none" stroke="midnightblue" d="M69.76,-114.67C85.69,-130.76 119.97,-163.03 155,-181 159.48,-183.3 164.28,-185.35 169.17,-187.17"/>
<polygon fill="midnightblue" stroke="midnightblue" points="168.06,-190.49 178.65,-190.39 170.31,-183.86 168.06,-190.49"/>
</g>
<!-- Node4 -->
<g id="node4" class="node">
<title>Node4</title>
<g id="a_node4"><a xlink:href="class_block.html#a640a910076d8b10533a9a80d740f8f03" target="_top" xlink:title="Metoda zapisujaca do klasy nazwe pliku z finalna (robocza) bryla">
<polygon fill="none" stroke="black" points="162.5,-152.5 162.5,-171.5 286.5,-171.5 286.5,-152.5 162.5,-152.5"/>
<text text-anchor="middle" x="224.5" y="-159.5" font-family="Helvetica,sans-Serif" font-size="10.00">Block::set_final_name</text>
</a>
</g>
</g>
<!-- Node1&#45;&gt;Node4 -->
<g id="edge3" class="edge">
<title>Node1&#45;&gt;Node4</title>
<path fill="none" stroke="midnightblue" d="M82.39,-114.61C101.38,-122.76 129.71,-134.44 155,-143 161.91,-145.34 169.28,-147.61 176.54,-149.72"/>
<polygon fill="midnightblue" stroke="midnightblue" points="175.72,-153.13 186.3,-152.49 177.63,-146.4 175.72,-153.13"/>
</g>
<!-- Node5 -->
<g id="node5" class="node">
<title>Node5</title>
<g id="a_node5"><a xlink:href="class_block.html#acf20b290f1543e580ff1f2c6d98ff4c4" target="_top" xlink:title="Metoda zapisujaca do klasy nazwe pliku z wzorcowa bryla">
<polygon fill="none" stroke="black" points="155,-114.5 155,-133.5 294,-133.5 294,-114.5 155,-114.5"/>
<text text-anchor="middle" x="224.5" y="-121.5" font-family="Helvetica,sans-Serif" font-size="10.00">Block::set_sample_name</text>
</a>
</g>
</g>
<!-- Node1&#45;&gt;Node5 -->
<g id="edge4" class="edge">
<title>Node1&#45;&gt;Node5</title>
<path fill="none" stroke="midnightblue" d="M119.35,-111.86C127.61,-112.82 136.2,-113.82 144.76,-114.82"/>
<polygon fill="midnightblue" stroke="midnightblue" points="144.42,-118.31 154.76,-115.99 145.23,-111.35 144.42,-118.31"/>
</g>
<!-- Node6 -->
<g id="node6" class="node">
<title>Node6</title>
<g id="a_node6"><a xlink:href="class_block.html#adb6acd13e2ab79cf7e4733ca2d6ae166" target="_top" xlink:title="Metoda zapisujaca do klasy wektor reprezentujacy skale">
<polygon fill="none" stroke="black" points="177,-76.5 177,-95.5 272,-95.5 272,-76.5 177,-76.5"/>
<text text-anchor="middle" x="224.5" y="-83.5" font-family="Helvetica,sans-Serif" font-size="10.00">Block::set_scale</text>
</a>
</g>
</g>
<!-- Node1&#45;&gt;Node6 -->
<g id="edge5" class="edge">
<title>Node1&#45;&gt;Node6</title>
<path fill="none" stroke="midnightblue" d="M119.35,-98.14C134.68,-96.35 151.18,-94.43 166.43,-92.65"/>
<polygon fill="midnightblue" stroke="midnightblue" points="167.22,-96.08 176.75,-91.45 166.41,-89.13 167.22,-96.08"/>
</g>
<!-- Node7 -->
<g id="node7" class="node">
<title>Node7</title>
<g id="a_node7"><a xlink:href="class_triangular.html#a372567a0c98eda392d4860dfab3c56c4" target="_top" xlink:title="Metoda zwracajaca punkty specjalne Triangular : cuts (czyli te ktore sa przecieciami przekatnych dwoc...">
<polygon fill="none" stroke="black" points="346,-14 346,-44 451,-44 451,-14 346,-14"/>
<text text-anchor="start" x="354" y="-32" font-family="Helvetica,sans-Serif" font-size="10.00">Triangular::special</text>
<text text-anchor="middle" x="398.5" y="-21" font-family="Helvetica,sans-Serif" font-size="10.00">_points</text>
</a>
</g>
</g>
<!-- Node1&#45;&gt;Node7 -->
<g id="edge6" class="edge">
<title>Node1&#45;&gt;Node7</title>
<path fill="none" stroke="midnightblue" d="M80.32,-95.49C99.13,-86.84 128.41,-74.33 155,-67 215.22,-50.41 285.98,-40.36 335.46,-34.8"/>
<polygon fill="midnightblue" stroke="midnightblue" points="336.13,-38.25 345.69,-33.68 335.37,-31.29 336.13,-38.25"/>
</g>
<!-- Node9 -->
<g id="node9" class="node">
<title>Node9</title>
<g id="a_node9"><a xlink:href="class_triangular.html#a919ce19be6c96fbe4c92239ccbbb579b" target="_top" xlink:title="Konstruktor bezparametryczny klasy Triangular. Powstaly graniastoslup ma jeden prostokat &quot;tworzacy&quot;: ...">
<polygon fill="none" stroke="black" points="165,-0.5 165,-19.5 284,-19.5 284,-0.5 165,-0.5"/>
<text text-anchor="middle" x="224.5" y="-7.5" font-family="Helvetica,sans-Serif" font-size="10.00">Triangular::Triangular</text>
</a>
</g>
</g>
<!-- Node1&#45;&gt;Node9 -->
<g id="edge8" class="edge">
<title>Node1&#45;&gt;Node9</title>
<path fill="none" stroke="midnightblue" d="M71.09,-95.29C87.82,-80.37 121.88,-51.7 155,-34 162.83,-29.82 171.54,-26.12 180.06,-22.95"/>
<polygon fill="midnightblue" stroke="midnightblue" points="181.26,-26.24 189.53,-19.61 178.93,-19.64 181.26,-26.24"/>
</g>
<!-- Node3 -->
<g id="node3" class="node">
<title>Node3</title>
<g id="a_node3"><a xlink:href="class_cuboid.html#a42bdce7c214e759cb6ea94d4f547a5b9" target="_top" xlink:title="Metoda przesuwajaca prostopadloscian do (0,0,0)">
<polygon fill="none" stroke="black" points="330,-190.5 330,-209.5 467,-209.5 467,-190.5 330,-190.5"/>
<text text-anchor="middle" x="398.5" y="-197.5" font-family="Helvetica,sans-Serif" font-size="10.00">Cuboid::translation_to_O</text>
</a>
</g>
</g>
<!-- Node2&#45;&gt;Node3 -->
<g id="edge2" class="edge">
<title>Node2&#45;&gt;Node3</title>
<path fill="none" stroke="midnightblue" d="M276.64,-200C290.24,-200 305.23,-200 319.9,-200"/>
<polygon fill="midnightblue" stroke="midnightblue" points="319.98,-203.5 329.98,-200 319.98,-196.5 319.98,-203.5"/>
</g>
<!-- Node8 -->
<g id="node8" class="node">
<title>Node8</title>
<g id="a_node8"><a xlink:href="class_cuboid.html#aafa18740d9c98ca928395b9873a9c63d" target="_top" xlink:title="Metoda zwracajaca punkt centralny (czyli taki, ktorego odleglosci do kazdego wierzcholka sa rowne) pr...">
<polygon fill="none" stroke="black" points="503,-19.5 503,-38.5 620,-38.5 620,-19.5 503,-19.5"/>
<text text-anchor="middle" x="561.5" y="-26.5" font-family="Helvetica,sans-Serif" font-size="10.00">Cuboid::centre_point</text>
</a>
</g>
</g>
<!-- Node7&#45;&gt;Node8 -->
<g id="edge7" class="edge">
<title>Node7&#45;&gt;Node8</title>
<path fill="none" stroke="midnightblue" d="M451.33,-29C464.57,-29 479,-29 492.9,-29"/>
<polygon fill="midnightblue" stroke="midnightblue" points="492.91,-32.5 502.91,-29 492.91,-25.5 492.91,-32.5"/>
</g>
<!-- Node9&#45;&gt;Node7 -->
<g id="edge9" class="edge">
<title>Node9&#45;&gt;Node7</title>
<path fill="none" stroke="midnightblue" d="M284.21,-16.49C300.81,-18.32 318.93,-20.32 335.71,-22.17"/>
<polygon fill="midnightblue" stroke="midnightblue" points="335.63,-25.69 345.95,-23.31 336.4,-18.73 335.63,-25.69"/>
</g>
</g>
</svg>
