<?xml version="1.0" encoding="UTF-8" standalone="no"?>
<!DOCTYPE svg PUBLIC "-//W3C//DTD SVG 1.1//EN"
 "http://www.w3.org/Graphics/SVG/1.1/DTD/svg11.dtd">
<!-- Generated by graphviz version 2.43.0 (0)
 -->
<!-- Title: Prism::get_basis_centre Pages: 1 -->
<svg width="412pt" height="66pt"
 viewBox="0.00 0.00 412.00 66.00" xmlns="http://www.w3.org/2000/svg" xmlns:xlink="http://www.w3.org/1999/xlink">
<g id="graph0" class="graph" transform="scale(1 1) rotate(0) translate(4 62)">
<title>Prism::get_basis_centre</title>
<!-- Node1 -->
<g id="node1" class="node">
<title>Node1</title>
<g id="a_node1"><a xlink:title="Metoda zwracajaca srodek podstawy ostroslupa">
<polygon fill="#bfbfbf" stroke="black" points="271,-19.5 271,-38.5 404,-38.5 404,-19.5 271,-19.5"/>
<text text-anchor="middle" x="337.5" y="-26.5" font-family="Helvetica,sans-Serif" font-size="10.00">Prism::get_basis_centre</text>
</a>
</g>
</g>
<!-- Node2 -->
<g id="node2" class="node">
<title>Node2</title>
<g id="a_node2"><a xlink:href="class_prism.html#acdbef3f647d4cb196aff468f43382ac5" target="_top" xlink:title="Zwraca pozycje obiektu do Vector3D">
<polygon fill="none" stroke="black" points="143,-38.5 143,-57.5 232,-57.5 232,-38.5 143,-38.5"/>
<text text-anchor="middle" x="187.5" y="-45.5" font-family="Helvetica,sans-Serif" font-size="10.00">Prism::get_pos</text>
</a>
</g>
</g>
<!-- Node1&#45;&gt;Node2 -->
<g id="edge1" class="edge">
<title>Node1&#45;&gt;Node2</title>
<path fill="none" stroke="midnightblue" d="M260.65,-38.74C250.97,-39.98 241.34,-41.22 232.41,-42.36"/>
<polygon fill="midnightblue" stroke="midnightblue" points="261.25,-42.19 270.72,-37.44 260.36,-35.25 261.25,-42.19"/>
</g>
<!-- Node4 -->
<g id="node4" class="node">
<title>Node4</title>
<g id="a_node4"><a xlink:href="class_prism.html#a3e4405a0c5bbbfa00effdca79c81106a" target="_top" xlink:title="Wypisuje pozycje (x,y) obiektu">
<polygon fill="none" stroke="black" points="140,-0.5 140,-19.5 235,-19.5 235,-0.5 140,-0.5"/>
<text text-anchor="middle" x="187.5" y="-7.5" font-family="Helvetica,sans-Serif" font-size="10.00">Prism::print_pos</text>
</a>
</g>
</g>
<!-- Node1&#45;&gt;Node4 -->
<g id="edge3" class="edge">
<title>Node1&#45;&gt;Node4</title>
<path fill="none" stroke="midnightblue" d="M260.8,-19.28C252.01,-18.15 243.24,-17.03 235.01,-15.97"/>
<polygon fill="midnightblue" stroke="midnightblue" points="260.36,-22.75 270.72,-20.56 261.25,-15.81 260.36,-22.75"/>
</g>
<!-- Node3 -->
<g id="node3" class="node">
<title>Node3</title>
<g id="a_node3"><a xlink:href="class_prism.html#a8a80c4334810ad934e6e43bb5ee14f07" target="_top" xlink:title="Zmiana pozycji obiektu na plaszczyznie XY na nowe wspolrzedne.">
<polygon fill="none" stroke="black" points="0,-38.5 0,-57.5 104,-57.5 104,-38.5 0,-38.5"/>
<text text-anchor="middle" x="52" y="-45.5" font-family="Helvetica,sans-Serif" font-size="10.00">Prism::switch_pos</text>
</a>
</g>
</g>
<!-- Node2&#45;&gt;Node3 -->
<g id="edge2" class="edge">
<title>Node2&#45;&gt;Node3</title>
<path fill="none" stroke="midnightblue" d="M132.76,-48C123.35,-48 113.58,-48 104.24,-48"/>
<polygon fill="midnightblue" stroke="midnightblue" points="132.79,-51.5 142.79,-48 132.79,-44.5 132.79,-51.5"/>
</g>
</g>
</svg>
