<?xml version="1.0" encoding="UTF-8" standalone="no"?>
<!DOCTYPE svg PUBLIC "-//W3C//DTD SVG 1.1//EN"
 "http://www.w3.org/Graphics/SVG/1.1/DTD/svg11.dtd">
<!-- Generated by graphviz version 2.43.0 (0)
 -->
<!-- Title: PzG::LaczeDoGNUPlota::Rysuj Pages: 1 -->
<svg width="704pt" height="137pt"
 viewBox="0.00 0.00 704.00 137.00" xmlns="http://www.w3.org/2000/svg" xmlns:xlink="http://www.w3.org/1999/xlink">
<g id="graph0" class="graph" transform="scale(1 1) rotate(0) translate(4 133)">
<title>PzG::LaczeDoGNUPlota::Rysuj</title>
<!-- Node1 -->
<g id="node1" class="node">
<title>Node1</title>
<g id="a_node1"><a xlink:title="Generuje polecenie rysowania i przesyła je do gnuplota.">
<polygon fill="#bfbfbf" stroke="black" points="0,-71.5 0,-101.5 130,-101.5 130,-71.5 0,-71.5"/>
<text text-anchor="start" x="8" y="-89.5" font-family="Helvetica,sans-Serif" font-size="10.00">PzG::LaczeDoGNUPlota</text>
<text text-anchor="middle" x="65" y="-78.5" font-family="Helvetica,sans-Serif" font-size="10.00">::Rysuj</text>
</a>
</g>
</g>
<!-- Node2 -->
<g id="node2" class="node">
<title>Node2</title>
<g id="a_node2"><a xlink:href="namespace_pz_g.html#aa010184f31b26bb561b42f22438b821e" target="_top" xlink:title="Funkcja pomocnicza, dopisuje do polecenia wpisy związane z rysowaniem z pliku.">
<polygon fill="none" stroke="black" points="171,-99 171,-118 337,-118 337,-99 171,-99"/>
<text text-anchor="middle" x="254" y="-106" font-family="Helvetica,sans-Serif" font-size="10.00">PzG::DopiszRysowanieZPlikow</text>
</a>
</g>
</g>
<!-- Node1&#45;&gt;Node2 -->
<g id="edge1" class="edge">
<title>Node1&#45;&gt;Node2</title>
<path fill="none" stroke="midnightblue" d="M130.09,-94.04C140.45,-95.26 151.35,-96.54 162.2,-97.82"/>
<polygon fill="midnightblue" stroke="midnightblue" points="161.79,-101.29 172.13,-98.99 162.61,-94.34 161.79,-101.29"/>
</g>
<!-- Node3 -->
<g id="node3" class="node">
<title>Node3</title>
<g id="a_node3"><a xlink:href="namespace_pz_g.html#a7227cb39c785b1c746b6bb5515c0b781" target="_top" xlink:title="Dodaje do listy rysowanych punktów, punkty o różnych rozmiarach.">
<polygon fill="none" stroke="black" points="166,-49.5 166,-79.5 342,-79.5 342,-49.5 166,-49.5"/>
<text text-anchor="start" x="174" y="-67.5" font-family="Helvetica,sans-Serif" font-size="10.00">PzG::DopiszRysowanieZRoznych</text>
<text text-anchor="middle" x="254" y="-56.5" font-family="Helvetica,sans-Serif" font-size="10.00">Punktow</text>
</a>
</g>
</g>
<!-- Node1&#45;&gt;Node3 -->
<g id="edge2" class="edge">
<title>Node1&#45;&gt;Node3</title>
<path fill="none" stroke="midnightblue" d="M130.09,-78.96C138.38,-77.99 147,-76.97 155.67,-75.95"/>
<polygon fill="midnightblue" stroke="midnightblue" points="156.33,-79.4 165.85,-74.75 155.51,-72.45 156.33,-79.4"/>
</g>
<!-- Node4 -->
<g id="node4" class="node">
<title>Node4</title>
<g id="a_node4"><a xlink:href="namespace_pz_g.html#a169c311f0e0b6ffadcd44e91e749f72d" target="_top" xlink:title="Wczytuje z pliku listę punktów.">
<polygon fill="none" stroke="black" points="378,-49.5 378,-79.5 523,-79.5 523,-49.5 378,-49.5"/>
<text text-anchor="start" x="386" y="-67.5" font-family="Helvetica,sans-Serif" font-size="10.00">PzG::WczytajListeRoznych</text>
<text text-anchor="middle" x="450.5" y="-56.5" font-family="Helvetica,sans-Serif" font-size="10.00">Punktow</text>
</a>
</g>
</g>
<!-- Node3&#45;&gt;Node4 -->
<g id="edge3" class="edge">
<title>Node3&#45;&gt;Node4</title>
<path fill="none" stroke="midnightblue" d="M342.01,-64.5C350.5,-64.5 359.09,-64.5 367.52,-64.5"/>
<polygon fill="midnightblue" stroke="midnightblue" points="367.71,-68 377.71,-64.5 367.71,-61 367.71,-68"/>
</g>
<!-- Node5 -->
<g id="node5" class="node">
<title>Node5</title>
<g id="a_node5"><a xlink:href="class_pz_g_1_1_atrybuty_rysowania.html#ab068535b4d2f755c394557d1da72a4eb" target="_top" xlink:title="Zmienia kolor rysowania.">
<polygon fill="none" stroke="black" points="559,-98.5 559,-128.5 696,-128.5 696,-98.5 559,-98.5"/>
<text text-anchor="start" x="567" y="-116.5" font-family="Helvetica,sans-Serif" font-size="10.00">PzG::AtrybutyRysowania</text>
<text text-anchor="middle" x="627.5" y="-105.5" font-family="Helvetica,sans-Serif" font-size="10.00">::ZmienKolor</text>
</a>
</g>
</g>
<!-- Node4&#45;&gt;Node5 -->
<g id="edge4" class="edge">
<title>Node4&#45;&gt;Node5</title>
<path fill="none" stroke="midnightblue" d="M505.43,-79.6C523.65,-84.7 544.15,-90.44 563.04,-95.73"/>
<polygon fill="midnightblue" stroke="midnightblue" points="562.17,-99.12 572.74,-98.45 564.06,-92.38 562.17,-99.12"/>
</g>
<!-- Node6 -->
<g id="node6" class="node">
<title>Node6</title>
<g id="a_node6"><a xlink:href="class_pz_g_1_1_atrybuty_rysowania.html#af4b140eb03bc10b6fd816fad63f8372e" target="_top" xlink:title="Zmienia rozmiar rysowania.">
<polygon fill="none" stroke="black" points="559,-49.5 559,-79.5 696,-79.5 696,-49.5 559,-49.5"/>
<text text-anchor="start" x="567" y="-67.5" font-family="Helvetica,sans-Serif" font-size="10.00">PzG::AtrybutyRysowania</text>
<text text-anchor="middle" x="627.5" y="-56.5" font-family="Helvetica,sans-Serif" font-size="10.00">::ZmienRozmiar</text>
</a>
</g>
</g>
<!-- Node4&#45;&gt;Node6 -->
<g id="edge5" class="edge">
<title>Node4&#45;&gt;Node6</title>
<path fill="none" stroke="midnightblue" d="M523.18,-64.5C531.57,-64.5 540.16,-64.5 548.63,-64.5"/>
<polygon fill="midnightblue" stroke="midnightblue" points="548.87,-68 558.87,-64.5 548.87,-61 548.87,-68"/>
</g>
<!-- Node7 -->
<g id="node7" class="node">
<title>Node7</title>
<g id="a_node7"><a xlink:href="class_pz_g_1_1_atrybuty_rysowania.html#a2ac97706124b14072715ecf3f07e82b4" target="_top" xlink:title="Zmienia styl rysowania.">
<polygon fill="none" stroke="black" points="559,-0.5 559,-30.5 696,-30.5 696,-0.5 559,-0.5"/>
<text text-anchor="start" x="567" y="-18.5" font-family="Helvetica,sans-Serif" font-size="10.00">PzG::AtrybutyRysowania</text>
<text text-anchor="middle" x="627.5" y="-7.5" font-family="Helvetica,sans-Serif" font-size="10.00">::ZmienStyl</text>
</a>
</g>
</g>
<!-- Node4&#45;&gt;Node7 -->
<g id="edge6" class="edge">
<title>Node4&#45;&gt;Node7</title>
<path fill="none" stroke="midnightblue" d="M505.43,-49.4C523.65,-44.3 544.15,-38.56 563.04,-33.27"/>
<polygon fill="midnightblue" stroke="midnightblue" points="564.06,-36.62 572.74,-30.55 562.17,-29.88 564.06,-36.62"/>
</g>
</g>
</svg>
