<?xml version="1.0" encoding="UTF-8" standalone="no"?>
<!DOCTYPE svg PUBLIC "-//W3C//DTD SVG 1.1//EN"
 "http://www.w3.org/Graphics/SVG/1.1/DTD/svg11.dtd">
<!-- Generated by graphviz version 2.43.0 (0)
 -->
<!-- Title: Block::get_final_name Pages: 1 -->
<svg width="997pt" height="280pt"
 viewBox="0.00 0.00 997.00 279.50" xmlns="http://www.w3.org/2000/svg" xmlns:xlink="http://www.w3.org/1999/xlink">
<g id="graph0" class="graph" transform="scale(1 1) rotate(0) translate(4 275.5)">
<title>Block::get_final_name</title>
<!-- Node1 -->
<g id="node1" class="node">
<title>Node1</title>
<g id="a_node1"><a xlink:title="Metoda zwracajaca nazwe pliku z finalna (robocza) bryla">
<polygon fill="#bfbfbf" stroke="black" points="864,-158.5 864,-177.5 989,-177.5 989,-158.5 864,-158.5"/>
<text text-anchor="middle" x="926.5" y="-165.5" font-family="Helvetica,sans-Serif" font-size="10.00">Block::get_final_name</text>
</a>
</g>
</g>
<!-- Node2 -->
<g id="node2" class="node">
<title>Node2</title>
<g id="a_node2"><a xlink:href="class_cuboid.html#a773f92fecdf9686b951cf5736c83f318" target="_top" xlink:title="Metoda wczytywania odpowiednich wierzcholkow z pliku wzorcowego zgodnie z zaproponowanym sposobem zad...">
<polygon fill="none" stroke="black" points="693,-235 693,-265 813,-265 813,-235 693,-235"/>
<text text-anchor="start" x="701" y="-253" font-family="Helvetica,sans-Serif" font-size="10.00">Cuboid::Cuboid_From</text>
<text text-anchor="middle" x="753" y="-242" font-family="Helvetica,sans-Serif" font-size="10.00">_Sample</text>
</a>
</g>
</g>
<!-- Node1&#45;&gt;Node2 -->
<g id="edge1" class="edge">
<title>Node1&#45;&gt;Node2</title>
<path fill="none" stroke="midnightblue" d="M902.71,-183.12C883.39,-195.49 854.65,-212.86 828,-225 820.1,-228.6 811.53,-231.96 803.11,-234.98"/>
<polygon fill="midnightblue" stroke="midnightblue" points="904.65,-186.03 911.13,-177.66 900.84,-180.16 904.65,-186.03"/>
</g>
<!-- Node9 -->
<g id="node9" class="node">
<title>Node9</title>
<g id="a_node9"><a xlink:href="class_drone.html#addf8532ee98ca800a64a78f3808fce98" target="_top" xlink:title="Metoda zwracajaca nazwy plikow do zapisu dla drona.">
<polygon fill="none" stroke="black" points="692.5,-196.5 692.5,-215.5 813.5,-215.5 813.5,-196.5 692.5,-196.5"/>
<text text-anchor="middle" x="753" y="-203.5" font-family="Helvetica,sans-Serif" font-size="10.00">Drone::get_filenames</text>
</a>
</g>
</g>
<!-- Node1&#45;&gt;Node9 -->
<g id="edge9" class="edge">
<title>Node1&#45;&gt;Node9</title>
<path fill="none" stroke="midnightblue" d="M872.46,-179.75C848.21,-185.13 819.85,-191.41 796.97,-196.48"/>
<polygon fill="midnightblue" stroke="midnightblue" points="873.22,-183.17 882.22,-177.59 871.7,-176.34 873.22,-183.17"/>
</g>
<!-- Node10 -->
<g id="node10" class="node">
<title>Node10</title>
<g id="a_node10"><a xlink:href="class_drone.html#aae0029f50083a01fe75c7d504c2fe5b9" target="_top" xlink:title="Metoda zapisujaca parametry drona do plikow (do plikow final kazdego z elementow)">
<polygon fill="none" stroke="black" points="508,-115 508,-145 623,-145 623,-115 508,-115"/>
<text text-anchor="start" x="516" y="-133" font-family="Helvetica,sans-Serif" font-size="10.00">Drone::Print_to_files</text>
<text text-anchor="middle" x="565.5" y="-122" font-family="Helvetica,sans-Serif" font-size="10.00">_drone</text>
</a>
</g>
</g>
<!-- Node1&#45;&gt;Node10 -->
<g id="edge11" class="edge">
<title>Node1&#45;&gt;Node10</title>
<path fill="none" stroke="midnightblue" d="M872.3,-156.43C857.97,-153.65 842.44,-150.92 828,-149 757.73,-139.63 676.17,-134.63 623.07,-132.15"/>
<polygon fill="midnightblue" stroke="midnightblue" points="871.99,-159.94 882.49,-158.46 873.36,-153.08 871.99,-159.94"/>
</g>
<!-- Node12 -->
<g id="node12" class="node">
<title>Node12</title>
<g id="a_node12"><a xlink:href="class_prism.html#a5e0a2234e9ebe3b51146c0ddc42e8b48" target="_top" xlink:title="Metoda wczytywania odpowiednich wierzcholkow z pliku wzorcowego zgodnie z zaproponowanym sposobem zad...">
<polygon fill="none" stroke="black" points="678,-158.5 678,-177.5 828,-177.5 828,-158.5 678,-158.5"/>
<text text-anchor="middle" x="753" y="-165.5" font-family="Helvetica,sans-Serif" font-size="10.00">Prism::Prism_From_Sample</text>
</a>
</g>
</g>
<!-- Node1&#45;&gt;Node12 -->
<g id="edge21" class="edge">
<title>Node1&#45;&gt;Node12</title>
<path fill="none" stroke="midnightblue" d="M853.47,-168C845.08,-168 836.51,-168 828.1,-168"/>
<polygon fill="midnightblue" stroke="midnightblue" points="853.58,-171.5 863.58,-168 853.58,-164.5 853.58,-171.5"/>
</g>
<!-- Node13 -->
<g id="node13" class="node">
<title>Node13</title>
<g id="a_node13"><a xlink:href="class_drone.html#a63898ba4cc161710cf08f7b578f3d90f" target="_top" xlink:title="Metoda ustawiajaca nazwy plikow w laczy do gnuplota (nazwy final!)">
<polygon fill="none" stroke="black" points="693,-71 693,-101 813,-101 813,-71 693,-71"/>
<text text-anchor="start" x="701" y="-89" font-family="Helvetica,sans-Serif" font-size="10.00">Drone::set_filenames</text>
<text text-anchor="middle" x="753" y="-78" font-family="Helvetica,sans-Serif" font-size="10.00">_gnuplot</text>
</a>
</g>
</g>
<!-- Node1&#45;&gt;Node13 -->
<g id="edge23" class="edge">
<title>Node1&#45;&gt;Node13</title>
<path fill="none" stroke="midnightblue" d="M900.01,-153.46C880.56,-142.59 852.94,-127.67 828,-116 816.95,-110.83 804.75,-105.67 793.5,-101.12"/>
<polygon fill="midnightblue" stroke="midnightblue" points="898.43,-156.59 908.86,-158.44 901.86,-150.48 898.43,-156.59"/>
</g>
<!-- Node3 -->
<g id="node3" class="node">
<title>Node3</title>
<g id="a_node3"><a xlink:href="class_drone.html#ada6f4e93f4a63cbe1d6fbebf329efe62" target="_top" xlink:title="Metoda wczytywania odpowiednich wierzcholkow z pliku wzorcowego zgodnie z zaproponowanym sposobem w z...">
<polygon fill="none" stroke="black" points="489,-218.5 489,-237.5 642,-237.5 642,-218.5 489,-218.5"/>
<text text-anchor="middle" x="565.5" y="-225.5" font-family="Helvetica,sans-Serif" font-size="10.00">Drone::Drone_From_Sample</text>
</a>
</g>
</g>
<!-- Node2&#45;&gt;Node3 -->
<g id="edge2" class="edge">
<title>Node2&#45;&gt;Node3</title>
<path fill="none" stroke="midnightblue" d="M682.8,-241.79C669.53,-240.22 655.57,-238.56 642.11,-236.97"/>
<polygon fill="midnightblue" stroke="midnightblue" points="682.45,-245.28 692.8,-242.98 683.28,-238.33 682.45,-245.28"/>
</g>
<!-- Node4 -->
<g id="node4" class="node">
<title>Node4</title>
<g id="a_node4"><a xlink:href="class_drone.html#af03af60a9b92e4191a7e66b5c20b52bb" target="_top" xlink:title="Metoda zamieniajaca drona na tego z pliku sample.">
<polygon fill="none" stroke="black" points="328.5,-241 328.5,-271 450.5,-271 450.5,-241 328.5,-241"/>
<text text-anchor="start" x="336.5" y="-259" font-family="Helvetica,sans-Serif" font-size="10.00">Drone::Drone_change</text>
<text text-anchor="middle" x="389.5" y="-248" font-family="Helvetica,sans-Serif" font-size="10.00">_to_sample</text>
</a>
</g>
</g>
<!-- Node3&#45;&gt;Node4 -->
<g id="edge3" class="edge">
<title>Node3&#45;&gt;Node4</title>
<path fill="none" stroke="midnightblue" d="M495.04,-239.18C480.3,-241.55 464.86,-244.03 450.51,-246.34"/>
<polygon fill="midnightblue" stroke="midnightblue" points="495.79,-242.6 505.11,-237.56 494.68,-235.69 495.79,-242.6"/>
</g>
<!-- Node5 -->
<g id="node5" class="node">
<title>Node5</title>
<g id="a_node5"><a xlink:href="class_drone.html#ac4d24c27fb2c107d2e8bda0c2bf5cfa1" target="_top" xlink:title="Metoda obliczajaca i przeprowadzajaca caly ruch drona (obrot o kat i przelot z zadania 5....">
<polygon fill="none" stroke="black" points="0,-93 0,-123 112,-123 112,-93 0,-93"/>
<text text-anchor="start" x="8" y="-111" font-family="Helvetica,sans-Serif" font-size="10.00">Drone::Drone_basic</text>
<text text-anchor="middle" x="56" y="-100" font-family="Helvetica,sans-Serif" font-size="10.00">_motion</text>
</a>
</g>
</g>
<!-- Node4&#45;&gt;Node5 -->
<g id="edge4" class="edge">
<title>Node4&#45;&gt;Node5</title>
<path fill="none" stroke="midnightblue" d="M318.09,-267.63C267.52,-272.41 199.47,-271.21 148,-242 100.55,-215.07 72.76,-152 62.08,-123.03"/>
<polygon fill="midnightblue" stroke="midnightblue" points="318.7,-271.09 328.29,-266.57 317.98,-264.13 318.7,-271.09"/>
</g>
<!-- Node6 -->
<g id="node6" class="node">
<title>Node6</title>
<g id="a_node6"><a xlink:href="class_drone.html#af052f6bb793d1229b99b16b800b95b82" target="_top" xlink:title="Metoda animujaca obrot drona i wyrysowujaca calosc w gnuplocie.">
<polygon fill="none" stroke="black" points="156.5,-115 156.5,-145 281.5,-145 281.5,-115 156.5,-115"/>
<text text-anchor="start" x="164.5" y="-133" font-family="Helvetica,sans-Serif" font-size="10.00">Drone::Drone_rotation</text>
<text text-anchor="middle" x="219" y="-122" font-family="Helvetica,sans-Serif" font-size="10.00">_animation</text>
</a>
</g>
</g>
<!-- Node4&#45;&gt;Node6 -->
<g id="edge5" class="edge">
<title>Node4&#45;&gt;Node6</title>
<path fill="none" stroke="midnightblue" d="M371.12,-232.81C353.07,-210.16 322.9,-176.11 290,-155 284.14,-151.24 277.63,-147.95 271.02,-145.1"/>
<polygon fill="midnightblue" stroke="midnightblue" points="368.51,-235.15 377.42,-240.88 374.02,-230.84 368.51,-235.15"/>
</g>
<!-- Node7 -->
<g id="node7" class="node">
<title>Node7</title>
<g id="a_node7"><a xlink:href="class_drone.html#ab7808296cec81143dbddd7516340a371" target="_top" xlink:title="Metoda robiaca &quot;oblot&quot; drona wokol punktu (z modyfikacji)">
<polygon fill="none" stroke="black" points="148,-213.5 148,-232.5 290,-232.5 290,-213.5 148,-213.5"/>
<text text-anchor="middle" x="219" y="-220.5" font-family="Helvetica,sans-Serif" font-size="10.00">Drone::Drone_roundabout</text>
</a>
</g>
</g>
<!-- Node4&#45;&gt;Node7 -->
<g id="edge7" class="edge">
<title>Node4&#45;&gt;Node7</title>
<path fill="none" stroke="midnightblue" d="M317.92,-242.18C301.32,-238.93 283.98,-235.53 268.6,-232.52"/>
<polygon fill="midnightblue" stroke="midnightblue" points="317.66,-245.69 328.14,-244.18 319,-238.82 317.66,-245.69"/>
</g>
<!-- Node8 -->
<g id="node8" class="node">
<title>Node8</title>
<g id="a_node8"><a xlink:href="class_drone.html#a5fc9dd645ad3856b5d3c501c63c464e3" target="_top" xlink:title="Metoda animujaca translacje drona i wyrysowujaca calosc w gnuplocie.">
<polygon fill="none" stroke="black" points="149.5,-164 149.5,-194 288.5,-194 288.5,-164 149.5,-164"/>
<text text-anchor="start" x="157.5" y="-182" font-family="Helvetica,sans-Serif" font-size="10.00">Drone::Drone_translation</text>
<text text-anchor="middle" x="219" y="-171" font-family="Helvetica,sans-Serif" font-size="10.00">_animation</text>
</a>
</g>
</g>
<!-- Node4&#45;&gt;Node8 -->
<g id="edge8" class="edge">
<title>Node4&#45;&gt;Node8</title>
<path fill="none" stroke="midnightblue" d="M353.3,-235.85C334.78,-225.65 311.5,-213.46 290,-204 282.09,-200.52 273.52,-197.15 265.18,-194.07"/>
<polygon fill="midnightblue" stroke="midnightblue" points="351.81,-239.02 362.25,-240.83 355.21,-232.91 351.81,-239.02"/>
</g>
<!-- Node6&#45;&gt;Node5 -->
<g id="edge6" class="edge">
<title>Node6&#45;&gt;Node5</title>
<path fill="none" stroke="midnightblue" d="M146.22,-120.19C134.75,-118.62 123.04,-117.02 112.04,-115.52"/>
<polygon fill="midnightblue" stroke="midnightblue" points="145.83,-123.67 156.21,-121.56 146.78,-116.74 145.83,-123.67"/>
</g>
<!-- Node9&#45;&gt;Node3 -->
<g id="edge10" class="edge">
<title>Node9&#45;&gt;Node3</title>
<path fill="none" stroke="midnightblue" d="M681.99,-214.3C668.94,-215.85 655.26,-217.47 642.06,-219.04"/>
<polygon fill="midnightblue" stroke="midnightblue" points="682.77,-217.74 692.29,-213.08 681.94,-210.78 682.77,-217.74"/>
</g>
<!-- Node10&#45;&gt;Node5 -->
<g id="edge12" class="edge">
<title>Node10&#45;&gt;Node5</title>
<path fill="none" stroke="midnightblue" d="M514.22,-111.85C495.29,-105.89 473.41,-100.02 453,-97 318.9,-77.15 283.27,-87.12 148,-96 136.39,-96.76 124,-98.07 112.23,-99.54"/>
<polygon fill="midnightblue" stroke="midnightblue" points="513.23,-115.21 523.82,-114.96 515.39,-108.55 513.23,-115.21"/>
</g>
<!-- Node10&#45;&gt;Node6 -->
<g id="edge13" class="edge">
<title>Node10&#45;&gt;Node6</title>
<path fill="none" stroke="midnightblue" d="M497.86,-113.25C483.18,-110.23 467.64,-107.56 453,-106 396.87,-100.03 382.1,-99.73 326,-106 309.5,-107.84 291.82,-111.26 275.72,-114.94"/>
<polygon fill="midnightblue" stroke="midnightblue" points="497.36,-116.72 507.87,-115.38 498.82,-109.87 497.36,-116.72"/>
</g>
<!-- Node10&#45;&gt;Node7 -->
<g id="edge14" class="edge">
<title>Node10&#45;&gt;Node7</title>
<path fill="none" stroke="midnightblue" d="M523.26,-149.24C502.53,-158.34 476.8,-168.76 453,-176 396.94,-193.05 331.38,-205.64 284.11,-213.48"/>
<polygon fill="midnightblue" stroke="midnightblue" points="524.7,-152.43 532.41,-145.17 521.85,-146.03 524.7,-152.43"/>
</g>
<!-- Node10&#45;&gt;Node8 -->
<g id="edge15" class="edge">
<title>Node10&#45;&gt;Node8</title>
<path fill="none" stroke="midnightblue" d="M497.74,-146.31C483.06,-149.52 467.56,-152.63 453,-155 398.01,-163.96 335.15,-170.21 288.59,-174.07"/>
<polygon fill="midnightblue" stroke="midnightblue" points="498.74,-149.68 507.74,-144.08 497.22,-142.84 498.74,-149.68"/>
</g>
<!-- Node11 -->
<g id="node11" class="node">
<title>Node11</title>
<g id="a_node11"><a xlink:href="class_drone.html#aedb04b80609b22ff4eb4a957bc149a48" target="_top" xlink:title="Metoda animujaca obrot rotorow i zapisujaca to w plikach. Metoda sluzy jako metoda pomocnicza,...">
<polygon fill="none" stroke="black" points="326,-115 326,-145 453,-145 453,-115 326,-115"/>
<text text-anchor="start" x="334" y="-133" font-family="Helvetica,sans-Serif" font-size="10.00">Drone::Rotors_rotation</text>
<text text-anchor="middle" x="389.5" y="-122" font-family="Helvetica,sans-Serif" font-size="10.00">_animation</text>
</a>
</g>
</g>
<!-- Node10&#45;&gt;Node11 -->
<g id="edge16" class="edge">
<title>Node10&#45;&gt;Node11</title>
<path fill="none" stroke="midnightblue" d="M497.12,-130C482.61,-130 467.33,-130 453.01,-130"/>
<polygon fill="midnightblue" stroke="midnightblue" points="497.53,-133.5 507.53,-130 497.53,-126.5 497.53,-133.5"/>
</g>
<!-- Node11&#45;&gt;Node5 -->
<g id="edge17" class="edge">
<title>Node11&#45;&gt;Node5</title>
<path fill="none" stroke="midnightblue" d="M326.78,-112.58C314.68,-109.84 302.01,-107.44 290,-106 229.55,-98.74 159.65,-100.71 112.3,-103.56"/>
<polygon fill="midnightblue" stroke="midnightblue" points="326.25,-116.05 336.78,-114.94 327.86,-109.24 326.25,-116.05"/>
</g>
<!-- Node11&#45;&gt;Node6 -->
<g id="edge18" class="edge">
<title>Node11&#45;&gt;Node6</title>
<path fill="none" stroke="midnightblue" d="M315.5,-130C304.22,-130 292.67,-130 281.67,-130"/>
<polygon fill="midnightblue" stroke="midnightblue" points="315.76,-133.5 325.76,-130 315.76,-126.5 315.76,-133.5"/>
</g>
<!-- Node11&#45;&gt;Node7 -->
<g id="edge19" class="edge">
<title>Node11&#45;&gt;Node7</title>
<path fill="none" stroke="midnightblue" d="M364.82,-151.91C345.86,-168.37 317.91,-190.36 290,-204 282.31,-207.76 273.76,-210.86 265.36,-213.39"/>
<polygon fill="midnightblue" stroke="midnightblue" points="367.2,-154.47 372.36,-145.23 362.56,-149.23 367.2,-154.47"/>
</g>
<!-- Node11&#45;&gt;Node8 -->
<g id="edge20" class="edge">
<title>Node11&#45;&gt;Node8</title>
<path fill="none" stroke="midnightblue" d="M326.97,-147.89C308.84,-153.16 289.2,-158.88 271.76,-163.95"/>
<polygon fill="midnightblue" stroke="midnightblue" points="327.94,-151.25 336.57,-145.1 325.99,-144.53 327.94,-151.25"/>
</g>
<!-- Node12&#45;&gt;Node3 -->
<g id="edge22" class="edge">
<title>Node12&#45;&gt;Node3</title>
<path fill="none" stroke="midnightblue" d="M702.11,-180.08C694.01,-182.25 685.74,-184.59 678,-187 647.28,-196.57 612.6,-209.7 590.19,-218.5"/>
<polygon fill="midnightblue" stroke="midnightblue" points="703.07,-183.44 711.85,-177.52 701.29,-176.67 703.07,-183.44"/>
</g>
<!-- Node14 -->
<g id="node14" class="node">
<title>Node14</title>
<g id="a_node14"><a xlink:href="class_scene.html#ab57c9a7293ccbaf3dd7e9ac469a7a787" target="_top" xlink:title="Metoda inicjalizujaca lacze do gnuplota.">
<polygon fill="none" stroke="black" points="510.5,-38.5 510.5,-57.5 620.5,-57.5 620.5,-38.5 510.5,-38.5"/>
<text text-anchor="middle" x="565.5" y="-45.5" font-family="Helvetica,sans-Serif" font-size="10.00">Scene::init_gnuplot</text>
</a>
</g>
</g>
<!-- Node13&#45;&gt;Node14 -->
<g id="edge24" class="edge">
<title>Node13&#45;&gt;Node14</title>
<path fill="none" stroke="midnightblue" d="M682.97,-71.86C659.68,-67.09 634.25,-61.88 613.12,-57.55"/>
<polygon fill="midnightblue" stroke="midnightblue" points="682.3,-75.29 692.8,-73.87 683.7,-68.44 682.3,-75.29"/>
</g>
<!-- Node15 -->
<g id="node15" class="node">
<title>Node15</title>
<g id="a_node15"><a xlink:href="class_menu.html#af7e6a49bd56499facef9cc98561ea169" target="_top" xlink:title="Inicjuje i obsluguje menu.">
<polygon fill="none" stroke="black" points="340.5,-0.5 340.5,-19.5 438.5,-19.5 438.5,-0.5 340.5,-0.5"/>
<text text-anchor="middle" x="389.5" y="-7.5" font-family="Helvetica,sans-Serif" font-size="10.00">Menu::init_menu</text>
</a>
</g>
</g>
<!-- Node14&#45;&gt;Node15 -->
<g id="edge25" class="edge">
<title>Node14&#45;&gt;Node15</title>
<path fill="none" stroke="midnightblue" d="M510.69,-36.25C486.08,-30.87 457.31,-24.59 434.09,-19.52"/>
<polygon fill="midnightblue" stroke="midnightblue" points="510.08,-39.7 520.59,-38.41 511.57,-32.86 510.08,-39.7"/>
</g>
</g>
</svg>
