<?xml version="1.0" encoding="UTF-8" standalone="no"?>
<!DOCTYPE svg PUBLIC "-//W3C//DTD SVG 1.1//EN"
 "http://www.w3.org/Graphics/SVG/1.1/DTD/svg11.dtd">
<!-- Generated by graphviz version 2.43.0 (0)
 -->
<!-- Title: Circus::operator= Pages: 1 -->
<svg width="415pt" height="66pt"
 viewBox="0.00 0.00 415.00 66.00" xmlns="http://www.w3.org/2000/svg" xmlns:xlink="http://www.w3.org/1999/xlink">
<g id="graph0" class="graph" transform="scale(1 1) rotate(0) translate(4 62)">
<title>Circus::operator=</title>
<!-- Node1 -->
<g id="node1" class="node">
<title>Node1</title>
<g id="a_node1"><a xlink:title="Przeciazenie operatora przypisania, umozliwia stosowanie metod typu Prism na obiekcie typu Circus">
<polygon fill="#bfbfbf" stroke="black" points="0,-19.5 0,-38.5 102,-38.5 102,-19.5 0,-19.5"/>
<text text-anchor="middle" x="51" y="-26.5" font-family="Helvetica,sans-Serif" font-size="10.00">Circus::operator=</text>
</a>
</g>
</g>
<!-- Node2 -->
<g id="node2" class="node">
<title>Node2</title>
<g id="a_node2"><a xlink:href="class_prism.html#aafbcafcb7ef643ea3a9f95ba270bb0e2" target="_top" xlink:title="Metoda zwracajaca wierzcholki graniastoslupa do tablicy 2x6 Vector3D">
<polygon fill="none" stroke="black" points="157,-38.5 157,-57.5 241,-57.5 241,-38.5 157,-38.5"/>
<text text-anchor="middle" x="199" y="-45.5" font-family="Helvetica,sans-Serif" font-size="10.00">Prism::get_pri</text>
</a>
</g>
</g>
<!-- Node1&#45;&gt;Node2 -->
<g id="edge1" class="edge">
<title>Node1&#45;&gt;Node2</title>
<path fill="none" stroke="midnightblue" d="M102.24,-35.54C116.58,-37.4 132.22,-39.44 146.62,-41.31"/>
<polygon fill="midnightblue" stroke="midnightblue" points="146.49,-44.83 156.86,-42.65 147.39,-37.88 146.49,-44.83"/>
</g>
<!-- Node3 -->
<g id="node3" class="node">
<title>Node3</title>
<g id="a_node3"><a xlink:href="class_circus.html#aba4a0a8726ff0878279959df92f23f07" target="_top" xlink:title="Metoda zwracajaca punkty specjalne graniastoslupa :">
<polygon fill="none" stroke="black" points="138,-0.5 138,-19.5 260,-19.5 260,-0.5 138,-0.5"/>
<text text-anchor="middle" x="199" y="-7.5" font-family="Helvetica,sans-Serif" font-size="10.00">Circus::special_points</text>
</a>
</g>
</g>
<!-- Node1&#45;&gt;Node3 -->
<g id="edge2" class="edge">
<title>Node1&#45;&gt;Node3</title>
<path fill="none" stroke="midnightblue" d="M102.24,-22.46C110.49,-21.39 119.16,-20.26 127.78,-19.14"/>
<polygon fill="midnightblue" stroke="midnightblue" points="128.38,-22.59 137.84,-17.83 127.47,-15.65 128.38,-22.59"/>
</g>
<!-- Node4 -->
<g id="node4" class="node">
<title>Node4</title>
<g id="a_node4"><a xlink:href="class_prism.html#a9c72237ab7f5b0741d936ccd14803021" target="_top" xlink:title="Metoda zwracajaca punkt centralny (czyli taki, ktorego odleglosci do kazdego wierzcholka sa rowne) gr...">
<polygon fill="none" stroke="black" points="296,-0.5 296,-19.5 407,-19.5 407,-0.5 296,-0.5"/>
<text text-anchor="middle" x="351.5" y="-7.5" font-family="Helvetica,sans-Serif" font-size="10.00">Prism::centre_point</text>
</a>
</g>
</g>
<!-- Node3&#45;&gt;Node4 -->
<g id="edge3" class="edge">
<title>Node3&#45;&gt;Node4</title>
<path fill="none" stroke="midnightblue" d="M260.35,-10C268.72,-10 277.35,-10 285.79,-10"/>
<polygon fill="midnightblue" stroke="midnightblue" points="285.98,-13.5 295.98,-10 285.98,-6.5 285.98,-13.5"/>
</g>
</g>
</svg>
