<?xml version="1.0" encoding="UTF-8" standalone="no"?>
<!DOCTYPE svg PUBLIC "-//W3C//DTD SVG 1.1//EN"
 "http://www.w3.org/Graphics/SVG/1.1/DTD/svg11.dtd">
<!-- Generated by graphviz version 2.43.0 (0)
 -->
<!-- Title: PzG::LaczeDoGNUPlota::Rysuj Pages: 1 -->
<svg width="495pt" height="355pt"
 viewBox="0.00 0.00 495.00 355.00" xmlns="http://www.w3.org/2000/svg" xmlns:xlink="http://www.w3.org/1999/xlink">
<g id="graph0" class="graph" transform="scale(1 1) rotate(0) translate(4 351)">
<title>PzG::LaczeDoGNUPlota::Rysuj</title>
<!-- Node1 -->
<g id="node1" class="node">
<title>Node1</title>
<g id="a_node1"><a xlink:title="Generuje polecenie rysowania i przesyła je do gnuplota.">
<polygon fill="#bfbfbf" stroke="black" points="357,-158.5 357,-188.5 487,-188.5 487,-158.5 357,-158.5"/>
<text text-anchor="start" x="365" y="-176.5" font-family="Helvetica,sans-Serif" font-size="10.00">PzG::LaczeDoGNUPlota</text>
<text text-anchor="middle" x="422" y="-165.5" font-family="Helvetica,sans-Serif" font-size="10.00">::Rysuj</text>
</a>
</g>
</g>
<!-- Node2 -->
<g id="node2" class="node">
<title>Node2</title>
<g id="a_node2"><a xlink:href="class_drone.html#ac4d24c27fb2c107d2e8bda0c2bf5cfa1" target="_top" xlink:title="Metoda obliczajaca i przeprowadzajaca caly ruch drona (obrot o kat i przelot z zadania 5....">
<polygon fill="none" stroke="black" points="15,-272.5 15,-302.5 127,-302.5 127,-272.5 15,-272.5"/>
<text text-anchor="start" x="23" y="-290.5" font-family="Helvetica,sans-Serif" font-size="10.00">Drone::Drone_basic</text>
<text text-anchor="middle" x="71" y="-279.5" font-family="Helvetica,sans-Serif" font-size="10.00">_motion</text>
</a>
</g>
</g>
<!-- Node1&#45;&gt;Node2 -->
<g id="edge1" class="edge">
<title>Node1&#45;&gt;Node2</title>
<path fill="none" stroke="midnightblue" d="M399.1,-195.77C380.15,-213.61 351.13,-237.7 321,-250.5 258.05,-277.25 179.01,-285.12 127.08,-287.2"/>
<polygon fill="midnightblue" stroke="midnightblue" points="401.56,-198.26 406.33,-188.8 396.7,-193.22 401.56,-198.26"/>
</g>
<!-- Node3 -->
<g id="node3" class="node">
<title>Node3</title>
<g id="a_node3"><a xlink:href="class_drone.html#a9d09f6cd9ed8d60dfd1979b31101f400" target="_top" xlink:title="Metoda zapisujaca sciezke do pliku oraz do lacza.">
<polygon fill="none" stroke="black" points="178,-202 178,-221 321,-221 321,-202 178,-202"/>
<text text-anchor="middle" x="249.5" y="-209" font-family="Helvetica,sans-Serif" font-size="10.00">Drone::Drone_path_to_file</text>
</a>
</g>
</g>
<!-- Node1&#45;&gt;Node3 -->
<g id="edge2" class="edge">
<title>Node1&#45;&gt;Node3</title>
<path fill="none" stroke="midnightblue" d="M346.78,-190.04C328.52,-194.11 309.57,-198.34 293.36,-201.95"/>
<polygon fill="midnightblue" stroke="midnightblue" points="347.54,-193.46 356.54,-187.87 346.02,-186.63 347.54,-193.46"/>
</g>
<!-- Node4 -->
<g id="node4" class="node">
<title>Node4</title>
<g id="a_node4"><a xlink:href="class_drone.html#ab7808296cec81143dbddd7516340a371" target="_top" xlink:title="Metoda robiaca &quot;oblot&quot; drona wokol punktu (z modyfikacji)">
<polygon fill="none" stroke="black" points="0,-221 0,-240 142,-240 142,-221 0,-221"/>
<text text-anchor="middle" x="71" y="-228" font-family="Helvetica,sans-Serif" font-size="10.00">Drone::Drone_roundabout</text>
</a>
</g>
</g>
<!-- Node1&#45;&gt;Node4 -->
<g id="edge8" class="edge">
<title>Node1&#45;&gt;Node4</title>
<path fill="none" stroke="midnightblue" d="M393.43,-194.45C374.25,-207.65 347.47,-223.49 321,-230.5 262.18,-246.09 192.77,-244.53 142.2,-239.98"/>
<polygon fill="midnightblue" stroke="midnightblue" points="395.54,-197.24 401.67,-188.61 391.49,-191.53 395.54,-197.24"/>
</g>
<!-- Node5 -->
<g id="node5" class="node">
<title>Node5</title>
<g id="a_node5"><a xlink:href="class_drone.html#a5fc9dd645ad3856b5d3c501c63c464e3" target="_top" xlink:title="Metoda animujaca translacje drona i wyrysowujaca calosc w gnuplocie.">
<polygon fill="none" stroke="black" points="1.5,-164.5 1.5,-194.5 140.5,-194.5 140.5,-164.5 1.5,-164.5"/>
<text text-anchor="start" x="9.5" y="-182.5" font-family="Helvetica,sans-Serif" font-size="10.00">Drone::Drone_translation</text>
<text text-anchor="middle" x="71" y="-171.5" font-family="Helvetica,sans-Serif" font-size="10.00">_animation</text>
</a>
</g>
</g>
<!-- Node1&#45;&gt;Node5 -->
<g id="edge9" class="edge">
<title>Node1&#45;&gt;Node5</title>
<path fill="none" stroke="midnightblue" d="M346.66,-174.78C285.69,-175.83 200.06,-177.3 140.68,-178.32"/>
<polygon fill="midnightblue" stroke="midnightblue" points="347.05,-178.27 356.99,-174.6 346.93,-171.27 347.05,-178.27"/>
</g>
<!-- Node6 -->
<g id="node6" class="node">
<title>Node6</title>
<g id="a_node6"><a xlink:href="class_drone.html#af052f6bb793d1229b99b16b800b95b82" target="_top" xlink:title="Metoda animujaca obrot drona i wyrysowujaca calosc w gnuplocie.">
<polygon fill="none" stroke="black" points="187,-316.5 187,-346.5 312,-346.5 312,-316.5 187,-316.5"/>
<text text-anchor="start" x="195" y="-334.5" font-family="Helvetica,sans-Serif" font-size="10.00">Drone::Drone_rotation</text>
<text text-anchor="middle" x="249.5" y="-323.5" font-family="Helvetica,sans-Serif" font-size="10.00">_animation</text>
</a>
</g>
</g>
<!-- Node1&#45;&gt;Node6 -->
<g id="edge6" class="edge">
<title>Node1&#45;&gt;Node6</title>
<path fill="none" stroke="midnightblue" d="M407.54,-197.34C390.57,-225.54 358.98,-272.33 321,-301.5 313.3,-307.41 304.26,-312.4 295.27,-316.49"/>
<polygon fill="midnightblue" stroke="midnightblue" points="410.66,-198.94 412.72,-188.54 404.63,-195.38 410.66,-198.94"/>
</g>
<!-- Node7 -->
<g id="node7" class="node">
<title>Node7</title>
<g id="a_node7"><a xlink:href="class_scene.html#ab57c9a7293ccbaf3dd7e9ac469a7a787" target="_top" xlink:title="Metoda inicjalizujaca lacze do gnuplota.">
<polygon fill="none" stroke="black" points="194.5,-88 194.5,-107 304.5,-107 304.5,-88 194.5,-88"/>
<text text-anchor="middle" x="249.5" y="-95" font-family="Helvetica,sans-Serif" font-size="10.00">Scene::init_gnuplot</text>
</a>
</g>
</g>
<!-- Node1&#45;&gt;Node7 -->
<g id="edge10" class="edge">
<title>Node1&#45;&gt;Node7</title>
<path fill="none" stroke="midnightblue" d="M385.94,-153.61C367.04,-143.31 343.11,-130.95 321,-121.5 308.4,-116.11 294.14,-111.07 281.77,-107.02"/>
<polygon fill="midnightblue" stroke="midnightblue" points="384.34,-156.72 394.79,-158.48 387.72,-150.59 384.34,-156.72"/>
</g>
<!-- Node8 -->
<g id="node8" class="node">
<title>Node8</title>
<g id="a_node8"><a xlink:href="class_menu.html#af7e6a49bd56499facef9cc98561ea169" target="_top" xlink:title="Inicjuje i obsluguje menu.">
<polygon fill="none" stroke="black" points="22,-88 22,-107 120,-107 120,-88 22,-88"/>
<text text-anchor="middle" x="71" y="-95" font-family="Helvetica,sans-Serif" font-size="10.00">Menu::init_menu</text>
</a>
</g>
</g>
<!-- Node1&#45;&gt;Node8 -->
<g id="edge12" class="edge">
<title>Node1&#45;&gt;Node8</title>
<path fill="none" stroke="midnightblue" d="M346.88,-157.36C276.69,-142.07 173.67,-119.64 115.74,-107.02"/>
<polygon fill="midnightblue" stroke="midnightblue" points="346.47,-160.85 356.99,-159.56 347.96,-154.01 346.47,-160.85"/>
</g>
<!-- Node9 -->
<g id="node9" class="node">
<title>Node9</title>
<g id="a_node9"><a xlink:href="class_drone.html#a577871807280aab8d9c0d4e45b435ec4" target="_top" xlink:title="Metoda rysujaca drona w gnuplocie. Przeznaczona do testow">
<polygon fill="none" stroke="black" points="184,-0.5 184,-30.5 315,-30.5 315,-0.5 184,-0.5"/>
<text text-anchor="start" x="192" y="-18.5" font-family="Helvetica,sans-Serif" font-size="10.00">Drone::Print_to_gnuplot</text>
<text text-anchor="middle" x="249.5" y="-7.5" font-family="Helvetica,sans-Serif" font-size="10.00">_drone</text>
</a>
</g>
</g>
<!-- Node1&#45;&gt;Node9 -->
<g id="edge13" class="edge">
<title>Node1&#45;&gt;Node9</title>
<path fill="none" stroke="midnightblue" d="M408.8,-149.62C392.55,-120.04 361.13,-69.97 321,-40.5 315.77,-36.66 309.89,-33.36 303.82,-30.55"/>
<polygon fill="midnightblue" stroke="midnightblue" points="405.72,-151.29 413.53,-158.45 411.89,-147.98 405.72,-151.29"/>
</g>
<!-- Node10 -->
<g id="node10" class="node">
<title>Node10</title>
<g id="a_node10"><a xlink:href="class_menu.html#acd338552222b744cd030e17776cb5d9b" target="_top" xlink:title="Obsluguje wybor menu.">
<polygon fill="none" stroke="black" points="192.5,-50 192.5,-69 306.5,-69 306.5,-50 192.5,-50"/>
<text text-anchor="middle" x="249.5" y="-57" font-family="Helvetica,sans-Serif" font-size="10.00">Menu::switch_menu</text>
</a>
</g>
</g>
<!-- Node1&#45;&gt;Node10 -->
<g id="edge14" class="edge">
<title>Node1&#45;&gt;Node10</title>
<path fill="none" stroke="midnightblue" d="M402.7,-150.47C384.29,-128.8 353.96,-97 321,-78.5 314.15,-74.65 306.48,-71.55 298.79,-69.07"/>
<polygon fill="midnightblue" stroke="midnightblue" points="400.07,-152.78 409.16,-158.23 405.45,-148.3 400.07,-152.78"/>
</g>
<!-- Node3&#45;&gt;Node2 -->
<g id="edge3" class="edge">
<title>Node3&#45;&gt;Node2</title>
<path fill="none" stroke="midnightblue" d="M216.7,-225.19C185.77,-238.51 138.89,-258.7 106.93,-272.46"/>
<polygon fill="midnightblue" stroke="midnightblue" points="218.35,-228.3 226.15,-221.13 215.58,-221.87 218.35,-228.3"/>
</g>
<!-- Node3&#45;&gt;Node4 -->
<g id="edge4" class="edge">
<title>Node3&#45;&gt;Node4</title>
<path fill="none" stroke="midnightblue" d="M167.93,-220.17C159.31,-221.1 150.6,-222.04 142.12,-222.95"/>
<polygon fill="midnightblue" stroke="midnightblue" points="168.41,-223.64 177.98,-219.09 167.66,-216.68 168.41,-223.64"/>
</g>
<!-- Node3&#45;&gt;Node5 -->
<g id="edge5" class="edge">
<title>Node3&#45;&gt;Node5</title>
<path fill="none" stroke="midnightblue" d="M186.04,-200.17C171.34,-197.51 155.59,-194.66 140.64,-191.94"/>
<polygon fill="midnightblue" stroke="midnightblue" points="185.56,-203.65 196.02,-201.99 186.81,-196.76 185.56,-203.65"/>
</g>
<!-- Node6&#45;&gt;Node2 -->
<g id="edge7" class="edge">
<title>Node6&#45;&gt;Node2</title>
<path fill="none" stroke="midnightblue" d="M178.37,-314.02C161.37,-309.78 143.43,-305.31 127.23,-301.27"/>
<polygon fill="midnightblue" stroke="midnightblue" points="177.7,-317.46 188.25,-316.48 179.4,-310.67 177.7,-317.46"/>
</g>
<!-- Node7&#45;&gt;Node8 -->
<g id="edge11" class="edge">
<title>Node7&#45;&gt;Node8</title>
<path fill="none" stroke="midnightblue" d="M183.94,-97.5C162.89,-97.5 139.88,-97.5 120.23,-97.5"/>
<polygon fill="midnightblue" stroke="midnightblue" points="184.1,-101 194.1,-97.5 184.1,-94 184.1,-101"/>
</g>
<!-- Node10&#45;&gt;Node8 -->
<g id="edge15" class="edge">
<title>Node10&#45;&gt;Node8</title>
<path fill="none" stroke="midnightblue" d="M193.91,-71.25C168.96,-76.63 139.77,-82.91 116.22,-87.98"/>
<polygon fill="midnightblue" stroke="midnightblue" points="194.92,-74.62 203.96,-69.09 193.45,-67.77 194.92,-74.62"/>
</g>
</g>
</svg>
