<?xml version="1.0" encoding="UTF-8" standalone="no"?>
<!DOCTYPE svg PUBLIC "-//W3C//DTD SVG 1.1//EN"
 "http://www.w3.org/Graphics/SVG/1.1/DTD/svg11.dtd">
<!-- Generated by graphviz version 2.43.0 (0)
 -->
<!-- Title: Drone::Drone Pages: 1 -->
<svg width="781pt" height="230pt"
 viewBox="0.00 0.00 781.00 229.50" xmlns="http://www.w3.org/2000/svg" xmlns:xlink="http://www.w3.org/1999/xlink">
<g id="graph0" class="graph" transform="scale(1 1) rotate(0) translate(4 225.5)">
<title>Drone::Drone</title>
<!-- Node1 -->
<g id="node1" class="node">
<title>Node1</title>
<g id="a_node1"><a xlink:title="Konstruktor bezparametryczny klasy Drone. Powstaly dron jest skonstruowany z bezparametrycznych prost...">
<polygon fill="#bfbfbf" stroke="black" points="0,-88 0,-107 81,-107 81,-88 0,-88"/>
<text text-anchor="middle" x="40.5" y="-95" font-family="Helvetica,sans-Serif" font-size="10.00">Drone::Drone</text>
</a>
</g>
</g>
<!-- Node2 -->
<g id="node2" class="node">
<title>Node2</title>
<g id="a_node2"><a xlink:href="class_drone.html#ad42bc54902df967b94717617aca1a974" target="_top" xlink:title="Metoda obracajaca dron o zadany kat w 3D wokol srodka figury">
<polygon fill="none" stroke="black" points="117,-126 117,-145 269,-145 269,-126 117,-126"/>
<text text-anchor="middle" x="193" y="-133" font-family="Helvetica,sans-Serif" font-size="10.00">Drone::rotation_around_cen</text>
</a>
</g>
</g>
<!-- Node1&#45;&gt;Node2 -->
<g id="edge1" class="edge">
<title>Node1&#45;&gt;Node2</title>
<path fill="none" stroke="midnightblue" d="M79.48,-107.09C99.16,-112.06 123.39,-118.18 144.32,-123.46"/>
<polygon fill="midnightblue" stroke="midnightblue" points="143.74,-126.93 154.3,-125.98 145.46,-120.14 143.74,-126.93"/>
</g>
<!-- Node9 -->
<g id="node9" class="node">
<title>Node9</title>
<g id="a_node9"><a xlink:href="class_drone.html#aea963b77f42c204504542a3d9190d762" target="_top" xlink:title="Metoda uzywana przy konstruowania drona Ustawia rotory w ten sposob, ze srodek ich dolnej podstawy je...">
<polygon fill="none" stroke="black" points="325.5,-38.5 325.5,-68.5 440.5,-68.5 440.5,-38.5 325.5,-38.5"/>
<text text-anchor="start" x="333.5" y="-56.5" font-family="Helvetica,sans-Serif" font-size="10.00">Drone::set_rotors_in</text>
<text text-anchor="middle" x="383" y="-45.5" font-family="Helvetica,sans-Serif" font-size="10.00">_place</text>
</a>
</g>
</g>
<!-- Node1&#45;&gt;Node9 -->
<g id="edge17" class="edge">
<title>Node1&#45;&gt;Node9</title>
<path fill="none" stroke="midnightblue" d="M74.72,-87.98C87.8,-84.53 103.01,-80.91 117,-78.5 183.96,-66.99 261.41,-60.45 315.22,-56.97"/>
<polygon fill="midnightblue" stroke="midnightblue" points="315.56,-60.46 325.32,-56.34 315.12,-53.47 315.56,-60.46"/>
</g>
<!-- Node12 -->
<g id="node12" class="node">
<title>Node12</title>
<g id="a_node12"><a xlink:href="class_cuboid.html#a7ea89af123502b41ef349f4aedb93b5e" target="_top" xlink:title="Metoda skalujaca o wektor scale bedacy czlonkiem klasy block">
<polygon fill="none" stroke="black" points="141,-88 141,-107 245,-107 245,-88 141,-88"/>
<text text-anchor="middle" x="193" y="-95" font-family="Helvetica,sans-Serif" font-size="10.00">Cuboid::scale_cub</text>
</a>
</g>
</g>
<!-- Node1&#45;&gt;Node12 -->
<g id="edge13" class="edge">
<title>Node1&#45;&gt;Node12</title>
<path fill="none" stroke="midnightblue" d="M81.04,-97.5C96.19,-97.5 113.85,-97.5 130.56,-97.5"/>
<polygon fill="midnightblue" stroke="midnightblue" points="130.82,-101 140.82,-97.5 130.82,-94 130.82,-101"/>
</g>
<!-- Node13 -->
<g id="node13" class="node">
<title>Node13</title>
<g id="a_node13"><a xlink:href="class_prism.html#a07f15c416c9f9c54390bb8737b441a35" target="_top" xlink:title="Metoda skalujaca o wektor scale bedacy czlonkiem klasy block">
<polygon fill="none" stroke="black" points="336,-202 336,-221 430,-221 430,-202 336,-202"/>
<text text-anchor="middle" x="383" y="-209" font-family="Helvetica,sans-Serif" font-size="10.00">Prism::scale_pri</text>
</a>
</g>
</g>
<!-- Node1&#45;&gt;Node13 -->
<g id="edge15" class="edge">
<title>Node1&#45;&gt;Node13</title>
<path fill="none" stroke="midnightblue" d="M51.31,-107.2C64.89,-120.04 90.72,-142.47 117,-154.5 184.88,-185.57 270.38,-200.02 325.61,-206.52"/>
<polygon fill="midnightblue" stroke="midnightblue" points="325.23,-210 335.56,-207.64 326.01,-203.04 325.23,-210"/>
</g>
<!-- Node14 -->
<g id="node14" class="node">
<title>Node14</title>
<g id="a_node14"><a xlink:href="class_block.html#adb6acd13e2ab79cf7e4733ca2d6ae166" target="_top" xlink:title="Metoda zapisujaca do klasy wektor reprezentujacy skale">
<polygon fill="none" stroke="black" points="145.5,-12 145.5,-31 240.5,-31 240.5,-12 145.5,-12"/>
<text text-anchor="middle" x="193" y="-19" font-family="Helvetica,sans-Serif" font-size="10.00">Block::set_scale</text>
</a>
</g>
</g>
<!-- Node1&#45;&gt;Node14 -->
<g id="edge18" class="edge">
<title>Node1&#45;&gt;Node14</title>
<path fill="none" stroke="midnightblue" d="M53.11,-87.87C67.39,-76.44 92.71,-57.42 117,-45.5 125.83,-41.16 135.63,-37.37 145.15,-34.15"/>
<polygon fill="midnightblue" stroke="midnightblue" points="146.47,-37.4 154.92,-31.01 144.33,-30.74 146.47,-37.4"/>
</g>
<!-- Node3 -->
<g id="node3" class="node">
<title>Node3</title>
<g id="a_node3"><a xlink:href="class_prism.html#a22c5467db5d960bddbaf9a52f55c55cb" target="_top" xlink:title="Metoda obracajaca graniastoslup o zadany kat w 3D wokol srodka figury">
<polygon fill="none" stroke="black" points="308,-164 308,-183 458,-183 458,-164 308,-164"/>
<text text-anchor="middle" x="383" y="-171" font-family="Helvetica,sans-Serif" font-size="10.00">Prism::rotation_around_cen</text>
</a>
</g>
</g>
<!-- Node2&#45;&gt;Node3 -->
<g id="edge2" class="edge">
<title>Node2&#45;&gt;Node3</title>
<path fill="none" stroke="midnightblue" d="M241.44,-145.09C266.81,-150.22 298.23,-156.57 324.92,-161.96"/>
<polygon fill="midnightblue" stroke="midnightblue" points="324.41,-165.43 334.9,-163.98 325.79,-158.57 324.41,-165.43"/>
</g>
<!-- Node6 -->
<g id="node6" class="node">
<title>Node6</title>
<g id="a_node6"><a xlink:href="class_cuboid.html#a6c697c2d9b36a14c43c7328876d5a1f0" target="_top" xlink:title="Metoda obracajaca prostopadloscian o zadany kat w 3D wokol srodka figury">
<polygon fill="none" stroke="black" points="305,-126 305,-145 461,-145 461,-126 305,-126"/>
<text text-anchor="middle" x="383" y="-133" font-family="Helvetica,sans-Serif" font-size="10.00">Cuboid::rotation_around_cen</text>
</a>
</g>
</g>
<!-- Node2&#45;&gt;Node6 -->
<g id="edge6" class="edge">
<title>Node2&#45;&gt;Node6</title>
<path fill="none" stroke="midnightblue" d="M269.11,-135.5C277.57,-135.5 286.23,-135.5 294.82,-135.5"/>
<polygon fill="midnightblue" stroke="midnightblue" points="294.85,-139 304.85,-135.5 294.85,-132 294.85,-139"/>
</g>
<!-- Node2&#45;&gt;Node9 -->
<g id="edge9" class="edge">
<title>Node2&#45;&gt;Node9</title>
<path fill="none" stroke="midnightblue" d="M239.82,-125.91C249.6,-123.31 259.76,-120.17 269,-116.5 297.8,-105.05 328.38,-87.64 350.46,-74.02"/>
<polygon fill="midnightblue" stroke="midnightblue" points="352.45,-76.9 359.07,-68.63 348.74,-70.97 352.45,-76.9"/>
</g>
<!-- Node4 -->
<g id="node4" class="node">
<title>Node4</title>
<g id="a_node4"><a xlink:href="class_prism.html#ade146d341c0468030f8c1258b7fe1041" target="_top" xlink:title="Metoda przesuwajaca graniastoslup o zadany wektor w 3D">
<polygon fill="none" stroke="black" points="670,-164 670,-183 773,-183 773,-164 670,-164"/>
<text text-anchor="middle" x="721.5" y="-171" font-family="Helvetica,sans-Serif" font-size="10.00">Prism::translation</text>
</a>
</g>
</g>
<!-- Node3&#45;&gt;Node4 -->
<g id="edge3" class="edge">
<title>Node3&#45;&gt;Node4</title>
<path fill="none" stroke="midnightblue" d="M458.26,-173.5C518.76,-173.5 603.11,-173.5 659.66,-173.5"/>
<polygon fill="midnightblue" stroke="midnightblue" points="659.88,-177 669.88,-173.5 659.88,-170 659.88,-177"/>
</g>
<!-- Node5 -->
<g id="node5" class="node">
<title>Node5</title>
<g id="a_node5"><a xlink:href="class_prism.html#afed2c26932d5cb152fd620d2acbfbc3e" target="_top" xlink:title="Metoda przesuwajaca graniastoslup do srodka ukladu wspolrzednych (tak, ze srodek graniastoslupa pokry...">
<polygon fill="none" stroke="black" points="500,-202 500,-221 631,-221 631,-202 500,-202"/>
<text text-anchor="middle" x="565.5" y="-209" font-family="Helvetica,sans-Serif" font-size="10.00">Prism::translation_to_O</text>
</a>
</g>
</g>
<!-- Node3&#45;&gt;Node5 -->
<g id="edge4" class="edge">
<title>Node3&#45;&gt;Node5</title>
<path fill="none" stroke="midnightblue" d="M429.55,-183.09C453.8,-188.19 483.8,-194.51 509.36,-199.89"/>
<polygon fill="midnightblue" stroke="midnightblue" points="508.77,-203.34 519.28,-201.98 510.22,-196.49 508.77,-203.34"/>
</g>
<!-- Node5&#45;&gt;Node4 -->
<g id="edge5" class="edge">
<title>Node5&#45;&gt;Node4</title>
<path fill="none" stroke="midnightblue" d="M605.36,-201.91C625.59,-196.92 650.52,-190.77 672,-185.47"/>
<polygon fill="midnightblue" stroke="midnightblue" points="673.05,-188.81 681.92,-183.02 671.37,-182.02 673.05,-188.81"/>
</g>
<!-- Node7 -->
<g id="node7" class="node">
<title>Node7</title>
<g id="a_node7"><a xlink:href="class_cuboid.html#a3f6b1b9ea7de433af5b0d462d29f4272" target="_top" xlink:title="Metoda przesuwajaca prostopadloscian o zadany kat w 3D">
<polygon fill="none" stroke="black" points="511,-126 511,-145 620,-145 620,-126 511,-126"/>
<text text-anchor="middle" x="565.5" y="-133" font-family="Helvetica,sans-Serif" font-size="10.00">Cuboid::translation</text>
</a>
</g>
</g>
<!-- Node6&#45;&gt;Node7 -->
<g id="edge7" class="edge">
<title>Node6&#45;&gt;Node7</title>
<path fill="none" stroke="midnightblue" d="M461.07,-135.5C474.3,-135.5 487.92,-135.5 500.75,-135.5"/>
<polygon fill="midnightblue" stroke="midnightblue" points="500.85,-139 510.85,-135.5 500.85,-132 500.85,-139"/>
</g>
<!-- Node8 -->
<g id="node8" class="node">
<title>Node8</title>
<g id="a_node8"><a xlink:href="class_cuboid.html#a42bdce7c214e759cb6ea94d4f547a5b9" target="_top" xlink:title="Metoda przesuwajaca prostopadloscian do (0,0,0)">
<polygon fill="none" stroke="black" points="497,-88 497,-107 634,-107 634,-88 497,-88"/>
<text text-anchor="middle" x="565.5" y="-95" font-family="Helvetica,sans-Serif" font-size="10.00">Cuboid::translation_to_O</text>
</a>
</g>
</g>
<!-- Node6&#45;&gt;Node8 -->
<g id="edge8" class="edge">
<title>Node6&#45;&gt;Node8</title>
<path fill="none" stroke="midnightblue" d="M429.55,-125.91C453.8,-120.81 483.8,-114.49 509.36,-109.11"/>
<polygon fill="midnightblue" stroke="midnightblue" points="510.22,-112.51 519.28,-107.02 508.77,-105.66 510.22,-112.51"/>
</g>
<!-- Node10 -->
<g id="node10" class="node">
<title>Node10</title>
<g id="a_node10"><a xlink:href="class_cuboid.html#a99d30564d6129e6905c5333e04df9606" target="_top" xlink:title="Metoda zwracajaca wierzcholki prostopadloscianu do Vector3D">
<polygon fill="none" stroke="black" points="518,-50 518,-69 613,-69 613,-50 518,-50"/>
<text text-anchor="middle" x="565.5" y="-57" font-family="Helvetica,sans-Serif" font-size="10.00">Cuboid::get_cub</text>
</a>
</g>
</g>
<!-- Node9&#45;&gt;Node10 -->
<g id="edge10" class="edge">
<title>Node9&#45;&gt;Node10</title>
<path fill="none" stroke="midnightblue" d="M440.62,-55.38C461.94,-56.09 486.19,-56.9 507.54,-57.61"/>
<polygon fill="midnightblue" stroke="midnightblue" points="507.66,-61.11 517.77,-57.95 507.89,-54.12 507.66,-61.11"/>
</g>
<!-- Node11 -->
<g id="node11" class="node">
<title>Node11</title>
<g id="a_node11"><a xlink:href="class_prism.html#a4e2b0b9c37d6a53af869522a4bf364ac" target="_top" xlink:title="Metoda przesuwajaca graniastoslup o zadany wektor w 3D w taki sposob, ze srodek jego dolnej podstawy ...">
<polygon fill="none" stroke="black" points="514,-0.5 514,-30.5 617,-30.5 617,-0.5 514,-0.5"/>
<text text-anchor="start" x="522" y="-18.5" font-family="Helvetica,sans-Serif" font-size="10.00">Prism::translation</text>
<text text-anchor="middle" x="565.5" y="-7.5" font-family="Helvetica,sans-Serif" font-size="10.00">_of_lower_cen</text>
</a>
</g>
</g>
<!-- Node9&#45;&gt;Node11 -->
<g id="edge11" class="edge">
<title>Node9&#45;&gt;Node11</title>
<path fill="none" stroke="midnightblue" d="M440.62,-41.58C460.78,-37.33 483.57,-32.54 504.05,-28.23"/>
<polygon fill="midnightblue" stroke="midnightblue" points="504.83,-31.64 513.89,-26.15 503.39,-24.79 504.83,-31.64"/>
</g>
<!-- Node11&#45;&gt;Node4 -->
<g id="edge12" class="edge">
<title>Node11&#45;&gt;Node4</title>
<path fill="none" stroke="midnightblue" d="M617.11,-30.09C623.13,-33 628.92,-36.44 634,-40.5 673.28,-71.9 700.53,-126.16 712.93,-154.7"/>
<polygon fill="midnightblue" stroke="midnightblue" points="709.72,-156.1 716.82,-163.97 716.17,-153.39 709.72,-156.1"/>
</g>
<!-- Node12&#45;&gt;Node8 -->
<g id="edge14" class="edge">
<title>Node12&#45;&gt;Node8</title>
<path fill="none" stroke="midnightblue" d="M245.13,-97.5C307.69,-97.5 414.25,-97.5 486.93,-97.5"/>
<polygon fill="midnightblue" stroke="midnightblue" points="486.96,-101 496.96,-97.5 486.96,-94 486.96,-101"/>
</g>
<!-- Node13&#45;&gt;Node5 -->
<g id="edge16" class="edge">
<title>Node13&#45;&gt;Node5</title>
<path fill="none" stroke="midnightblue" d="M430.01,-211.5C448.15,-211.5 469.46,-211.5 489.7,-211.5"/>
<polygon fill="midnightblue" stroke="midnightblue" points="489.84,-215 499.84,-211.5 489.84,-208 489.84,-215"/>
</g>
</g>
</svg>
