<?xml version="1.0" encoding="UTF-8" standalone="no"?>
<!DOCTYPE svg PUBLIC "-//W3C//DTD SVG 1.1//EN"
 "http://www.w3.org/Graphics/SVG/1.1/DTD/svg11.dtd">
<!-- Generated by graphviz version 2.43.0 (0)
 -->
<!-- Title: Prism::rotation_around_cen Pages: 1 -->
<!--zoomable 187 -->
<svg id="main" version="1.1" xmlns="http://www.w3.org/2000/svg" xmlns:xlink="http://www.w3.org/1999/xlink" xml:space="preserve" onload="init(evt)">
<style type="text/css"><![CDATA[
.edge:hover path { stroke: red; }
.edge:hover polygon { stroke: red; fill: red; }
]]></style>
<script type="text/javascript"><![CDATA[
var edges = document.getElementsByTagName('g');
if (edges && edges.length) {
  for (var i=0;i<edges.length;i++) {
    if (edges[i].id.substr(0,4)=='edge') {
      edges[i].setAttribute('class','edge');
    }
  }
}
]]></script>
        <defs>
                <circle id="rim" cx="0" cy="0" r="7"/>
                <circle id="rim2" cx="0" cy="0" r="3.5"/>
                <g id="zoomPlus">
                        <use xlink:href="#rim" fill="#404040">
                                <set attributeName="fill" to="#808080" begin="zoomplus.mouseover" end="zoomplus.mouseout"/>
                        </use>
                        <path d="M-4,0h8M0,-4v8" fill="none" stroke="white" stroke-width="1.5" pointer-events="none"/>
                </g>
                <g id="zoomMin">
                        <use xlink:href="#rim" fill="#404040">
                                <set attributeName="fill" to="#808080" begin="zoomminus.mouseover" end="zoomminus.mouseout"/>
                        </use>
                        <path d="M-4,0h8" fill="none" stroke="white" stroke-width="1.5" pointer-events="none"/>
                </g>
                <g id="dirArrow">
                        <path fill="none" stroke="white" stroke-width="1.5" d="M0,-3.0v7 M-2.5,-0.5L0,-3.0L2.5,-0.5"/>
                </g>
               <g id="resetDef">
                       <use xlink:href="#rim2" fill="#404040">
                               <set attributeName="fill" to="#808080" begin="reset.mouseover" end="reset.mouseout"/>
                       </use>
               </g>
        </defs>

<script type="text/javascript">
var viewWidth = 835;
var viewHeight = 187;
var sectionId = 'dynsection-28';
</script>
<script xlink:href="svgpan.js"/>
<svg id="graph" class="graph">
<g id="viewport">
<title>Prism::rotation_around_cen</title>
<!-- Node1 -->
<g id="node1" class="node">
<title>Node1</title>
<g id="a_node1"><a xlink:title="Metoda obracajaca graniastoslup o zadany kat w 3D wokol srodka figury">
<polygon fill="#bfbfbf" stroke="black" points="677,-83.68 677,-102.68 827,-102.68 827,-83.68 677,-83.68"/>
<text text-anchor="middle" x="752" y="-90.68" font-family="Helvetica,sans-Serif" font-size="10.00">Prism::rotation_around_cen</text>
</a>
</g>
</g>
<!-- Node2 -->
<g id="node2" class="node">
<title>Node2</title>
<g id="a_node2"><a xlink:href="class_drone.html#ad42bc54902df967b94717617aca1a974" target="_top" xlink:title="Metoda obracajaca dron o zadany kat w 3D wokol srodka figury">
<polygon fill="none" stroke="black" points="489,-64.68 489,-83.68 641,-83.68 641,-64.68 489,-64.68"/>
<text text-anchor="middle" x="565" y="-71.68" font-family="Helvetica,sans-Serif" font-size="10.00">Drone::rotation_around_cen</text>
</a>
</g>
</g>
<!-- Node1&#45;&gt;Node2 -->
<g id="edge1" class="edge">
<title>Node1&#45;&gt;Node2</title>
<path fill="none" stroke="midnightblue" d="M666.82,-84.53C658.24,-83.65 649.57,-82.76 641.1,-81.89"/>
<polygon fill="midnightblue" stroke="midnightblue" points="666.51,-88.02 676.82,-85.56 667.23,-81.06 666.51,-88.02"/>
</g>
<!-- Node9 -->
<g id="node9" class="node">
<title>Node9</title>
<g id="a_node9"><a xlink:href="class_drone.html#aedb04b80609b22ff4eb4a957bc149a48" target="_top" xlink:title="Metoda animujaca obrot rotorow i zapisujaca to w plikach. Metoda sluzy jako metoda pomocnicza,...">
<polygon fill="none" stroke="black" points="326,-108.18 326,-138.18 453,-138.18 453,-108.18 326,-108.18"/>
<text text-anchor="start" x="334" y="-126.18" font-family="Helvetica,sans-Serif" font-size="10.00">Drone::Rotors_rotation</text>
<text text-anchor="middle" x="389.5" y="-115.18" font-family="Helvetica,sans-Serif" font-size="10.00">_animation</text>
</a>
</g>
</g>
<!-- Node1&#45;&gt;Node9 -->
<g id="edge11" class="edge">
<title>Node1&#45;&gt;Node9</title>
<path fill="none" stroke="midnightblue" d="M666.47,-100.21C601.19,-105.65 512.3,-113.04 453.24,-117.96"/>
<polygon fill="midnightblue" stroke="midnightblue" points="667.07,-103.68 676.74,-99.36 666.49,-96.7 667.07,-103.68"/>
</g>
<!-- Node3 -->
<g id="node3" class="node">
<title>Node3</title>
<g id="a_node3"><a xlink:href="class_drone.html#ab692baa4be5c43b72990ce1b01bdc805" target="_top" xlink:title="Konstruktor bezparametryczny klasy Drone. Powstaly dron jest skonstruowany z bezparametrycznych prost...">
<polygon fill="none" stroke="black" points="349,-20.68 349,-39.68 430,-39.68 430,-20.68 349,-20.68"/>
<text text-anchor="middle" x="389.5" y="-27.68" font-family="Helvetica,sans-Serif" font-size="10.00">Drone::Drone</text>
</a>
</g>
</g>
<!-- Node2&#45;&gt;Node3 -->
<g id="edge2" class="edge">
<title>Node2&#45;&gt;Node3</title>
<path fill="none" stroke="midnightblue" d="M516.44,-62.12C488.61,-55.06 453.98,-46.28 428.07,-39.71"/>
<polygon fill="midnightblue" stroke="midnightblue" points="515.8,-65.57 526.35,-64.63 517.52,-58.78 515.8,-65.57"/>
</g>
<!-- Node4 -->
<g id="node4" class="node">
<title>Node4</title>
<g id="a_node4"><a xlink:href="class_drone.html#af03af60a9b92e4191a7e66b5c20b52bb" target="_top" xlink:title="Metoda zamieniajaca drona na tego z pliku sample.">
<polygon fill="none" stroke="black" points="328.5,-59.18 328.5,-89.18 450.5,-89.18 450.5,-59.18 328.5,-59.18"/>
<text text-anchor="start" x="336.5" y="-77.18" font-family="Helvetica,sans-Serif" font-size="10.00">Drone::Drone_change</text>
<text text-anchor="middle" x="389.5" y="-66.18" font-family="Helvetica,sans-Serif" font-size="10.00">_to_sample</text>
</a>
</g>
</g>
<!-- Node2&#45;&gt;Node4 -->
<g id="edge3" class="edge">
<title>Node2&#45;&gt;Node4</title>
<path fill="none" stroke="midnightblue" d="M478.64,-74.18C469.15,-74.18 459.64,-74.18 450.55,-74.18"/>
<polygon fill="midnightblue" stroke="midnightblue" points="478.91,-77.68 488.91,-74.18 478.91,-70.68 478.91,-77.68"/>
</g>
<!-- Node6 -->
<g id="node6" class="node">
<title>Node6</title>
<g id="a_node6"><a xlink:href="class_drone.html#af052f6bb793d1229b99b16b800b95b82" target="_top" xlink:title="Metoda animujaca obrot drona i wyrysowujaca calosc w gnuplocie.">
<polygon fill="none" stroke="black" points="156.5,-130.18 156.5,-160.18 281.5,-160.18 281.5,-130.18 156.5,-130.18"/>
<text text-anchor="start" x="164.5" y="-148.18" font-family="Helvetica,sans-Serif" font-size="10.00">Drone::Drone_rotation</text>
<text text-anchor="middle" x="219" y="-137.18" font-family="Helvetica,sans-Serif" font-size="10.00">_animation</text>
</a>
</g>
</g>
<!-- Node2&#45;&gt;Node6 -->
<g id="edge9" class="edge">
<title>Node2&#45;&gt;Node6</title>
<path fill="none" stroke="midnightblue" d="M546.5,-90.73C525.97,-108.9 490.02,-136.97 453,-148.18 396.86,-165.18 329.56,-161.96 281.76,-155.97"/>
<polygon fill="midnightblue" stroke="midnightblue" points="549.02,-93.17 554.07,-83.86 544.31,-87.99 549.02,-93.17"/>
</g>
<!-- Node7 -->
<g id="node7" class="node">
<title>Node7</title>
<g id="a_node7"><a xlink:href="class_drone.html#ab7808296cec81143dbddd7516340a371" target="_top" xlink:title="Metoda robiaca &quot;oblot&quot; drona wokol punktu (z modyfikacji)">
<polygon fill="none" stroke="black" points="148,-4.68 148,-23.68 290,-23.68 290,-4.68 148,-4.68"/>
<text text-anchor="middle" x="219" y="-11.68" font-family="Helvetica,sans-Serif" font-size="10.00">Drone::Drone_roundabout</text>
</a>
</g>
</g>
<!-- Node2&#45;&gt;Node7 -->
<g id="edge10" class="edge">
<title>Node2&#45;&gt;Node7</title>
<path fill="none" stroke="midnightblue" d="M543.74,-58.35C522.5,-42.86 487.49,-20.28 453,-11.18 395.89,3.9 328.14,0.8 280.46,-4.64"/>
<polygon fill="midnightblue" stroke="midnightblue" points="541.85,-61.31 551.95,-64.5 546.04,-55.71 541.85,-61.31"/>
</g>
<!-- Node5 -->
<g id="node5" class="node">
<title>Node5</title>
<g id="a_node5"><a xlink:href="class_drone.html#ac4d24c27fb2c107d2e8bda0c2bf5cfa1" target="_top" xlink:title="Metoda obliczajaca i przeprowadzajaca caly ruch drona (obrot o kat i przelot z zadania 5....">
<polygon fill="none" stroke="black" points="0,-130.18 0,-160.18 112,-160.18 112,-130.18 0,-130.18"/>
<text text-anchor="start" x="8" y="-148.18" font-family="Helvetica,sans-Serif" font-size="10.00">Drone::Drone_basic</text>
<text text-anchor="middle" x="56" y="-137.18" font-family="Helvetica,sans-Serif" font-size="10.00">_motion</text>
</a>
</g>
</g>
<!-- Node4&#45;&gt;Node5 -->
<g id="edge4" class="edge">
<title>Node4&#45;&gt;Node5</title>
<path fill="none" stroke="midnightblue" d="M318.14,-61.26C269.05,-55.18 202.8,-52.92 148,-72.18 115.33,-83.66 85.7,-112.38 69.63,-130.18"/>
<polygon fill="midnightblue" stroke="midnightblue" points="317.97,-64.77 328.34,-62.61 318.88,-57.83 317.97,-64.77"/>
</g>
<!-- Node4&#45;&gt;Node6 -->
<g id="edge5" class="edge">
<title>Node4&#45;&gt;Node6</title>
<path fill="none" stroke="midnightblue" d="M338.6,-93.25C334.3,-95.16 330.05,-97.15 326,-99.18 309.24,-107.58 306.97,-113.2 290,-121.18 283.14,-124.4 275.72,-127.42 268.37,-130.14"/>
<polygon fill="midnightblue" stroke="midnightblue" points="340.24,-96.36 348.05,-89.2 337.48,-89.93 340.24,-96.36"/>
</g>
<!-- Node4&#45;&gt;Node7 -->
<g id="edge7" class="edge">
<title>Node4&#45;&gt;Node7</title>
<path fill="none" stroke="midnightblue" d="M338.42,-55.65C322.92,-49.98 305.78,-43.77 290,-38.18 276.32,-33.33 261.07,-28.09 248.31,-23.74"/>
<polygon fill="midnightblue" stroke="midnightblue" points="337.24,-58.95 347.83,-59.11 339.65,-52.38 337.24,-58.95"/>
</g>
<!-- Node8 -->
<g id="node8" class="node">
<title>Node8</title>
<g id="a_node8"><a xlink:href="class_drone.html#a5fc9dd645ad3856b5d3c501c63c464e3" target="_top" xlink:title="Metoda animujaca translacje drona i wyrysowujaca calosc w gnuplocie.">
<polygon fill="none" stroke="black" points="149.5,-81.18 149.5,-111.18 288.5,-111.18 288.5,-81.18 149.5,-81.18"/>
<text text-anchor="start" x="157.5" y="-99.18" font-family="Helvetica,sans-Serif" font-size="10.00">Drone::Drone_translation</text>
<text text-anchor="middle" x="219" y="-88.18" font-family="Helvetica,sans-Serif" font-size="10.00">_animation</text>
</a>
</g>
</g>
<!-- Node4&#45;&gt;Node8 -->
<g id="edge8" class="edge">
<title>Node4&#45;&gt;Node8</title>
<path fill="none" stroke="midnightblue" d="M318.07,-83.37C308.3,-84.65 298.27,-85.96 288.53,-87.23"/>
<polygon fill="midnightblue" stroke="midnightblue" points="318.68,-86.82 328.14,-82.06 317.77,-79.88 318.68,-86.82"/>
</g>
<!-- Node6&#45;&gt;Node5 -->
<g id="edge6" class="edge">
<title>Node6&#45;&gt;Node5</title>
<path fill="none" stroke="midnightblue" d="M145.87,-145.18C134.51,-145.18 122.93,-145.18 112.04,-145.18"/>
<polygon fill="midnightblue" stroke="midnightblue" points="146.21,-148.68 156.21,-145.18 146.21,-141.68 146.21,-148.68"/>
</g>
<!-- Node9&#45;&gt;Node5 -->
<g id="edge12" class="edge">
<title>Node9&#45;&gt;Node5</title>
<path fill="none" stroke="midnightblue" d="M355.62,-143.42C337.09,-153.64 313.08,-164.95 290,-170.18 228.45,-184.11 210.54,-178.61 148,-170.18 132.9,-168.14 116.76,-164.29 102.33,-160.2"/>
<polygon fill="midnightblue" stroke="midnightblue" points="357.55,-146.35 364.51,-138.37 354.09,-140.27 357.55,-146.35"/>
</g>
<!-- Node9&#45;&gt;Node6 -->
<g id="edge13" class="edge">
<title>Node9&#45;&gt;Node6</title>
<path fill="none" stroke="midnightblue" d="M315.5,-132.71C304.22,-134.18 292.67,-135.69 281.67,-137.13"/>
<polygon fill="midnightblue" stroke="midnightblue" points="316.29,-136.14 325.76,-131.37 315.39,-129.19 316.29,-136.14"/>
</g>
<!-- Node9&#45;&gt;Node7 -->
<g id="edge14" class="edge">
<title>Node9&#45;&gt;Node7</title>
<path fill="none" stroke="midnightblue" d="M334.8,-103.83C331.77,-102.35 328.82,-100.8 326,-99.18 315.77,-93.31 256.83,-44.73 231.53,-23.76"/>
<polygon fill="midnightblue" stroke="midnightblue" points="333.45,-107.07 344,-108.06 336.37,-100.71 333.45,-107.07"/>
</g>
<!-- Node9&#45;&gt;Node8 -->
<g id="edge15" class="edge">
<title>Node9&#45;&gt;Node8</title>
<path fill="none" stroke="midnightblue" d="M315.74,-111.52C306.77,-110.08 297.64,-108.62 288.74,-107.19"/>
<polygon fill="midnightblue" stroke="midnightblue" points="315.33,-115 325.76,-113.12 316.44,-108.09 315.33,-115"/>
</g>
</g>
</svg>
        <g id="navigator" transform="translate(0 0)" fill="#404254">
                <rect fill="#f2f5e9" fill-opacity="0.5" stroke="#606060" stroke-width=".5" x="0" y="0" width="60" height="60"/>
                <use id="zoomplus" xlink:href="#zoomPlus" x="17" y="9" onmousedown="handleZoom(evt,'in')"/>
                <use id="zoomminus" xlink:href="#zoomMin" x="42" y="9" onmousedown="handleZoom(evt,'out')"/>
                <use id="reset" xlink:href="#resetDef" x="30" y="36" onmousedown="handleReset()"/>
                <g id="arrowUp" xlink:href="#dirArrow" transform="translate(30 24)" onmousedown="handlePan(0,-1)">
                  <use xlink:href="#rim" fill="#404040">
                        <set attributeName="fill" to="#808080" begin="arrowUp.mouseover" end="arrowUp.mouseout"/>
                  </use>
                  <path fill="none" stroke="white" stroke-width="1.5" d="M0,-3.0v7 M-2.5,-0.5L0,-3.0L2.5,-0.5"/>
                </g>
                <g id="arrowRight" xlink:href="#dirArrow" transform="rotate(90) translate(36 -43)" onmousedown="handlePan(1,0)">
                  <use xlink:href="#rim" fill="#404040">
                        <set attributeName="fill" to="#808080" begin="arrowRight.mouseover" end="arrowRight.mouseout"/>
                  </use>
                  <path fill="none" stroke="white" stroke-width="1.5" d="M0,-3.0v7 M-2.5,-0.5L0,-3.0L2.5,-0.5"/>
                </g>
                <g id="arrowDown" xlink:href="#dirArrow" transform="rotate(180) translate(-30 -48)" onmousedown="handlePan(0,1)">
                  <use xlink:href="#rim" fill="#404040">
                        <set attributeName="fill" to="#808080" begin="arrowDown.mouseover" end="arrowDown.mouseout"/>
                  </use>
                  <path fill="none" stroke="white" stroke-width="1.5" d="M0,-3.0v7 M-2.5,-0.5L0,-3.0L2.5,-0.5"/>
                </g>
                <g id="arrowLeft" xlink:href="#dirArrow" transform="rotate(270) translate(-36 17)" onmousedown="handlePan(-1,0)">
                  <use xlink:href="#rim" fill="#404040">
                        <set attributeName="fill" to="#808080" begin="arrowLeft.mouseover" end="arrowLeft.mouseout"/>
                  </use>
                  <path fill="none" stroke="white" stroke-width="1.5" d="M0,-3.0v7 M-2.5,-0.5L0,-3.0L2.5,-0.5"/>
                </g>
        </g>
        <svg viewBox="0 0 15 15" width="100%" height="30px" preserveAspectRatio="xMaxYMin meet">
         <g id="arrow_out" transform="scale(0.3 0.3)">
          <a xlink:href="class_prism_a22c5467db5d960bddbaf9a52f55c55cb_icgraph_org.svg" target="_base">
           <rect id="button" ry="5" rx="5" y="6" x="6" height="38" width="38"
                fill="#f2f5e9" fill-opacity="0.5" stroke="#606060" stroke-width="1.0"/>
           <path id="arrow"
             d="M 11.500037,31.436501 C 11.940474,20.09759 22.043105,11.32322 32.158766,21.979434 L 37.068811,17.246167 C 37.068811,17.246167 37.088388,32 37.088388,32 L 22.160133,31.978069 C 22.160133,31.978069 26.997745,27.140456 26.997745,27.140456 C 18.528582,18.264221 13.291696,25.230495 11.500037,31.436501 z"
             style="fill:#404040;"/>
          </a>
         </g>
        </svg>
</svg>
