<?xml version="1.0" encoding="UTF-8" standalone="no"?>
<!DOCTYPE svg PUBLIC "-//W3C//DTD SVG 1.1//EN"
 "http://www.w3.org/Graphics/SVG/1.1/DTD/svg11.dtd">
<!-- Generated by graphviz version 2.43.0 (0)
 -->
<!-- Title: Cuboid::translation_to_O Pages: 1 -->
<svg width="1009pt" height="307pt"
 viewBox="0.00 0.00 1009.00 306.50" xmlns="http://www.w3.org/2000/svg" xmlns:xlink="http://www.w3.org/1999/xlink">
<g id="graph0" class="graph" transform="scale(1 1) rotate(0) translate(4 302.5)">
<title>Cuboid::translation_to_O</title>
<!-- Node1 -->
<g id="node1" class="node">
<title>Node1</title>
<g id="a_node1"><a xlink:title="Metoda przesuwajaca prostopadloscian do (0,0,0)">
<polygon fill="#bfbfbf" stroke="black" points="864,-114.5 864,-133.5 1001,-133.5 1001,-114.5 864,-114.5"/>
<text text-anchor="middle" x="932.5" y="-121.5" font-family="Helvetica,sans-Serif" font-size="10.00">Cuboid::translation_to_O</text>
</a>
</g>
</g>
<!-- Node2 -->
<g id="node2" class="node">
<title>Node2</title>
<g id="a_node2"><a xlink:href="class_cuboid.html#a6c697c2d9b36a14c43c7328876d5a1f0" target="_top" xlink:title="Metoda obracajaca prostopadloscian o zadany kat w 3D wokol srodka figury">
<polygon fill="none" stroke="black" points="672,-161.5 672,-180.5 828,-180.5 828,-161.5 672,-161.5"/>
<text text-anchor="middle" x="750" y="-168.5" font-family="Helvetica,sans-Serif" font-size="10.00">Cuboid::rotation_around_cen</text>
</a>
</g>
</g>
<!-- Node1&#45;&gt;Node2 -->
<g id="edge1" class="edge">
<title>Node1&#45;&gt;Node2</title>
<path fill="none" stroke="midnightblue" d="M885.07,-136.09C854.82,-143.97 815.89,-154.1 787.78,-161.42"/>
<polygon fill="midnightblue" stroke="midnightblue" points="886.18,-139.42 894.97,-133.51 884.41,-132.64 886.18,-139.42"/>
</g>
<!-- Node10 -->
<g id="node10" class="node">
<title>Node10</title>
<g id="a_node10"><a xlink:href="class_cuboid.html#a7ea89af123502b41ef349f4aedb93b5e" target="_top" xlink:title="Metoda skalujaca o wektor scale bedacy czlonkiem klasy block">
<polygon fill="none" stroke="black" points="698,-95.5 698,-114.5 802,-114.5 802,-95.5 698,-95.5"/>
<text text-anchor="middle" x="750" y="-102.5" font-family="Helvetica,sans-Serif" font-size="10.00">Cuboid::scale_cub</text>
</a>
</g>
</g>
<!-- Node1&#45;&gt;Node10 -->
<g id="edge12" class="edge">
<title>Node1&#45;&gt;Node10</title>
<path fill="none" stroke="midnightblue" d="M853.62,-115.8C836.21,-113.97 818.18,-112.07 802.18,-110.39"/>
<polygon fill="midnightblue" stroke="midnightblue" points="853.46,-119.3 863.77,-116.87 854.2,-112.34 853.46,-119.3"/>
</g>
<!-- Node3 -->
<g id="node3" class="node">
<title>Node3</title>
<g id="a_node3"><a xlink:href="class_drone.html#ad42bc54902df967b94717617aca1a974" target="_top" xlink:title="Metoda obracajaca dron o zadany kat w 3D wokol srodka figury">
<polygon fill="none" stroke="black" points="484,-190.5 484,-209.5 636,-209.5 636,-190.5 484,-190.5"/>
<text text-anchor="middle" x="560" y="-197.5" font-family="Helvetica,sans-Serif" font-size="10.00">Drone::rotation_around_cen</text>
</a>
</g>
</g>
<!-- Node2&#45;&gt;Node3 -->
<g id="edge2" class="edge">
<title>Node2&#45;&gt;Node3</title>
<path fill="none" stroke="midnightblue" d="M676.85,-182.13C659.04,-184.88 640.12,-187.79 622.86,-190.46"/>
<polygon fill="midnightblue" stroke="midnightblue" points="677.83,-185.52 687.18,-180.54 676.76,-178.6 677.83,-185.52"/>
</g>
<!-- Node4 -->
<g id="node4" class="node">
<title>Node4</title>
<g id="a_node4"><a xlink:href="class_drone.html#ab692baa4be5c43b72990ce1b01bdc805" target="_top" xlink:title="Konstruktor bezparametryczny klasy Drone. Powstaly dron jest skonstruowany z bezparametrycznych prost...">
<polygon fill="none" stroke="black" points="346.5,-114.5 346.5,-133.5 427.5,-133.5 427.5,-114.5 346.5,-114.5"/>
<text text-anchor="middle" x="387" y="-121.5" font-family="Helvetica,sans-Serif" font-size="10.00">Drone::Drone</text>
</a>
</g>
</g>
<!-- Node3&#45;&gt;Node4 -->
<g id="edge3" class="edge">
<title>Node3&#45;&gt;Node4</title>
<path fill="none" stroke="midnightblue" d="M497.54,-187.14C492.85,-185.35 488.28,-183.31 484,-181 464.9,-170.69 466.38,-159.55 448,-148 438.79,-142.21 427.94,-137.36 418.02,-133.57"/>
<polygon fill="midnightblue" stroke="midnightblue" points="496.7,-190.55 507.3,-190.5 498.98,-183.94 496.7,-190.55"/>
</g>
<!-- Node5 -->
<g id="node5" class="node">
<title>Node5</title>
<g id="a_node5"><a xlink:href="class_drone.html#af03af60a9b92e4191a7e66b5c20b52bb" target="_top" xlink:title="Metoda zamieniajaca drona na tego z pliku sample.">
<polygon fill="none" stroke="black" points="326,-191 326,-221 448,-221 448,-191 326,-191"/>
<text text-anchor="start" x="334" y="-209" font-family="Helvetica,sans-Serif" font-size="10.00">Drone::Drone_change</text>
<text text-anchor="middle" x="387" y="-198" font-family="Helvetica,sans-Serif" font-size="10.00">_to_sample</text>
</a>
</g>
</g>
<!-- Node3&#45;&gt;Node5 -->
<g id="edge4" class="edge">
<title>Node3&#45;&gt;Node5</title>
<path fill="none" stroke="midnightblue" d="M473.81,-202.99C465.1,-203.29 456.4,-203.6 448.05,-203.89"/>
<polygon fill="midnightblue" stroke="midnightblue" points="474.13,-206.48 484,-202.63 473.88,-199.48 474.13,-206.48"/>
</g>
<!-- Node7 -->
<g id="node7" class="node">
<title>Node7</title>
<g id="a_node7"><a xlink:href="class_drone.html#af052f6bb793d1229b99b16b800b95b82" target="_top" xlink:title="Metoda animujaca obrot drona i wyrysowujaca calosc w gnuplocie.">
<polygon fill="none" stroke="black" points="156.5,-268 156.5,-298 281.5,-298 281.5,-268 156.5,-268"/>
<text text-anchor="start" x="164.5" y="-286" font-family="Helvetica,sans-Serif" font-size="10.00">Drone::Drone_rotation</text>
<text text-anchor="middle" x="219" y="-275" font-family="Helvetica,sans-Serif" font-size="10.00">_animation</text>
</a>
</g>
</g>
<!-- Node3&#45;&gt;Node7 -->
<g id="edge10" class="edge">
<title>Node3&#45;&gt;Node7</title>
<path fill="none" stroke="midnightblue" d="M515.42,-212.16C494.99,-217.77 470.29,-224.4 448,-230 391.84,-244.11 327.55,-258.94 281.59,-269.31"/>
<polygon fill="midnightblue" stroke="midnightblue" points="516.36,-215.53 525.08,-209.5 514.5,-208.78 516.36,-215.53"/>
</g>
<!-- Node8 -->
<g id="node8" class="node">
<title>Node8</title>
<g id="a_node8"><a xlink:href="class_drone.html#ab7808296cec81143dbddd7516340a371" target="_top" xlink:title="Metoda robiaca &quot;oblot&quot; drona wokol punktu (z modyfikacji)">
<polygon fill="none" stroke="black" points="148,-141.5 148,-160.5 290,-160.5 290,-141.5 148,-141.5"/>
<text text-anchor="middle" x="219" y="-148.5" font-family="Helvetica,sans-Serif" font-size="10.00">Drone::Drone_roundabout</text>
</a>
</g>
</g>
<!-- Node3&#45;&gt;Node8 -->
<g id="edge11" class="edge">
<title>Node3&#45;&gt;Node8</title>
<path fill="none" stroke="midnightblue" d="M495.9,-188.76C480.27,-186.1 463.54,-183.35 448,-181 395.2,-173.01 335.34,-165.18 290.2,-159.52"/>
<polygon fill="midnightblue" stroke="midnightblue" points="495.55,-192.25 505.99,-190.5 496.73,-185.35 495.55,-192.25"/>
</g>
<!-- Node6 -->
<g id="node6" class="node">
<title>Node6</title>
<g id="a_node6"><a xlink:href="class_drone.html#ac4d24c27fb2c107d2e8bda0c2bf5cfa1" target="_top" xlink:title="Metoda obliczajaca i przeprowadzajaca caly ruch drona (obrot o kat i przelot z zadania 5....">
<polygon fill="none" stroke="black" points="0,-246 0,-276 112,-276 112,-246 0,-246"/>
<text text-anchor="start" x="8" y="-264" font-family="Helvetica,sans-Serif" font-size="10.00">Drone::Drone_basic</text>
<text text-anchor="middle" x="56" y="-253" font-family="Helvetica,sans-Serif" font-size="10.00">_motion</text>
</a>
</g>
</g>
<!-- Node5&#45;&gt;Node6 -->
<g id="edge5" class="edge">
<title>Node5&#45;&gt;Node6</title>
<path fill="none" stroke="midnightblue" d="M315.74,-217.75C254.86,-227.92 167.98,-242.45 112.04,-251.8"/>
<polygon fill="midnightblue" stroke="midnightblue" points="316.37,-221.19 325.66,-216.09 315.22,-214.28 316.37,-221.19"/>
</g>
<!-- Node5&#45;&gt;Node7 -->
<g id="edge6" class="edge">
<title>Node5&#45;&gt;Node7</title>
<path fill="none" stroke="midnightblue" d="M346.69,-225.8C329.4,-234.37 308.79,-244.38 290,-253 279.06,-258.02 267.06,-263.26 256.12,-267.93"/>
<polygon fill="midnightblue" stroke="midnightblue" points="348.52,-228.8 355.92,-221.21 345.41,-222.53 348.52,-228.8"/>
</g>
<!-- Node5&#45;&gt;Node8 -->
<g id="edge8" class="edge">
<title>Node5&#45;&gt;Node8</title>
<path fill="none" stroke="midnightblue" d="M339.06,-187.39C323.55,-181.52 306.13,-175.2 290,-170 279.57,-166.64 268.15,-163.37 257.61,-160.51"/>
<polygon fill="midnightblue" stroke="midnightblue" points="337.85,-190.68 348.44,-190.98 340.35,-184.14 337.85,-190.68"/>
</g>
<!-- Node9 -->
<g id="node9" class="node">
<title>Node9</title>
<g id="a_node9"><a xlink:href="class_drone.html#a5fc9dd645ad3856b5d3c501c63c464e3" target="_top" xlink:title="Metoda animujaca translacje drona i wyrysowujaca calosc w gnuplocie.">
<polygon fill="none" stroke="black" points="149.5,-180 149.5,-210 288.5,-210 288.5,-180 149.5,-180"/>
<text text-anchor="start" x="157.5" y="-198" font-family="Helvetica,sans-Serif" font-size="10.00">Drone::Drone_translation</text>
<text text-anchor="middle" x="219" y="-187" font-family="Helvetica,sans-Serif" font-size="10.00">_animation</text>
</a>
</g>
</g>
<!-- Node5&#45;&gt;Node9 -->
<g id="edge9" class="edge">
<title>Node5&#45;&gt;Node9</title>
<path fill="none" stroke="midnightblue" d="M315.58,-201.33C306.62,-200.74 297.45,-200.13 288.51,-199.54"/>
<polygon fill="midnightblue" stroke="midnightblue" points="315.39,-204.83 325.6,-202 315.85,-197.84 315.39,-204.83"/>
</g>
<!-- Node7&#45;&gt;Node6 -->
<g id="edge7" class="edge">
<title>Node7&#45;&gt;Node6</title>
<path fill="none" stroke="midnightblue" d="M146.22,-273.19C134.75,-271.62 123.04,-270.02 112.04,-268.52"/>
<polygon fill="midnightblue" stroke="midnightblue" points="145.83,-276.67 156.21,-274.56 146.78,-269.74 145.83,-276.67"/>
</g>
<!-- Node10&#45;&gt;Node4 -->
<g id="edge14" class="edge">
<title>Node10&#45;&gt;Node4</title>
<path fill="none" stroke="midnightblue" d="M687.52,-108.24C613.28,-112.14 490.58,-118.6 427.76,-121.91"/>
<polygon fill="midnightblue" stroke="midnightblue" points="687.86,-111.72 697.66,-107.7 687.49,-104.73 687.86,-111.72"/>
</g>
<!-- Node11 -->
<g id="node11" class="node">
<title>Node11</title>
<g id="a_node11"><a xlink:href="class_cuboid.html#acb4ad8abd1f7f810d2512ff9ce1f9717" target="_top" xlink:title="Konstruktor bezparametryczny klasy Cuboid. Powstaly prostopadloscian ma dwa prostokaty &quot;tworzace&quot;: p1...">
<polygon fill="none" stroke="black" points="515,-0.5 515,-19.5 605,-19.5 605,-0.5 515,-0.5"/>
<text text-anchor="middle" x="560" y="-7.5" font-family="Helvetica,sans-Serif" font-size="10.00">Cuboid::Cuboid</text>
</a>
</g>
</g>
<!-- Node10&#45;&gt;Node11 -->
<g id="edge13" class="edge">
<title>Node10&#45;&gt;Node11</title>
<path fill="none" stroke="midnightblue" d="M729.56,-88.85C707.98,-71.67 671.48,-44.85 636,-29 626.31,-24.67 615.46,-21.21 605.09,-18.48"/>
<polygon fill="midnightblue" stroke="midnightblue" points="727.62,-91.78 737.6,-95.34 732.02,-86.33 727.62,-91.78"/>
</g>
<!-- Node12 -->
<g id="node12" class="node">
<title>Node12</title>
<g id="a_node12"><a xlink:href="class_pyramid.html#a188d1f3cca17418b95ae771dedc99f4a" target="_top" xlink:title="Konstruktor parametryczny klasy Pyramid. Powstaly ostroslupa ma jeden prostokat &quot;tworzacy&quot;: p1 = [0][...">
<polygon fill="none" stroke="black" points="508,-152.5 508,-171.5 612,-171.5 612,-152.5 508,-152.5"/>
<text text-anchor="middle" x="560" y="-159.5" font-family="Helvetica,sans-Serif" font-size="10.00">Pyramid::Pyramid</text>
</a>
</g>
</g>
<!-- Node10&#45;&gt;Node12 -->
<g id="edge15" class="edge">
<title>Node10&#45;&gt;Node12</title>
<path fill="none" stroke="midnightblue" d="M707.71,-117.52C673.02,-128.04 624.19,-142.84 592.57,-152.43"/>
<polygon fill="midnightblue" stroke="midnightblue" points="708.98,-120.79 717.53,-114.54 706.95,-114.09 708.98,-120.79"/>
</g>
<!-- Node13 -->
<g id="node13" class="node">
<title>Node13</title>
<g id="a_node13"><a xlink:href="class_drone.html#a77142062fb8a8af87df42b5c2e7e44e0" target="_top" xlink:title="Metoda skalujaca wszystkie elementy drona przez skale kazdego elementu">
<polygon fill="none" stroke="black" points="511,-76.5 511,-95.5 609,-95.5 609,-76.5 511,-76.5"/>
<text text-anchor="middle" x="560" y="-83.5" font-family="Helvetica,sans-Serif" font-size="10.00">Drone::scale_dro</text>
</a>
</g>
</g>
<!-- Node10&#45;&gt;Node13 -->
<g id="edge16" class="edge">
<title>Node10&#45;&gt;Node13</title>
<path fill="none" stroke="midnightblue" d="M687.35,-98.77C661.92,-96.2 632.89,-93.27 609.08,-90.86"/>
<polygon fill="midnightblue" stroke="midnightblue" points="687.33,-102.28 697.63,-99.81 688.03,-95.32 687.33,-102.28"/>
</g>
<!-- Node15 -->
<g id="node15" class="node">
<title>Node15</title>
<g id="a_node15"><a xlink:href="class_triangular.html#ad377db3bde29ea96fdc04fd3b645c07a" target="_top" xlink:title="Konstruktor parametryczny klasy Triangular. Powstaje ostroslup jak z konstruktora parametrycznego,...">
<polygon fill="none" stroke="black" points="500.5,-38.5 500.5,-57.5 619.5,-57.5 619.5,-38.5 500.5,-38.5"/>
<text text-anchor="middle" x="560" y="-45.5" font-family="Helvetica,sans-Serif" font-size="10.00">Triangular::Triangular</text>
</a>
</g>
</g>
<!-- Node10&#45;&gt;Node15 -->
<g id="edge18" class="edge">
<title>Node10&#45;&gt;Node15</title>
<path fill="none" stroke="midnightblue" d="M712.62,-91.98C690.58,-84.29 661.83,-74.6 636,-67 624.79,-63.7 612.54,-60.45 601.24,-57.59"/>
<polygon fill="midnightblue" stroke="midnightblue" points="711.65,-95.35 722.24,-95.36 713.97,-88.74 711.65,-95.35"/>
</g>
<!-- Node14 -->
<g id="node14" class="node">
<title>Node14</title>
<g id="a_node14"><a xlink:href="class_scene.html#adca9214dccab3d77eed9d8af7db67f94" target="_top" xlink:title="Konstruktor paramereyczny klasy Scene.">
<polygon fill="none" stroke="black" points="346.5,-76.5 346.5,-95.5 427.5,-95.5 427.5,-76.5 346.5,-76.5"/>
<text text-anchor="middle" x="387" y="-83.5" font-family="Helvetica,sans-Serif" font-size="10.00">Scene::Scene</text>
</a>
</g>
</g>
<!-- Node13&#45;&gt;Node14 -->
<g id="edge17" class="edge">
<title>Node13&#45;&gt;Node14</title>
<path fill="none" stroke="midnightblue" d="M500.81,-86C476.71,-86 449.38,-86 427.66,-86"/>
<polygon fill="midnightblue" stroke="midnightblue" points="500.91,-89.5 510.91,-86 500.91,-82.5 500.91,-89.5"/>
</g>
</g>
</svg>
