<?xml version="1.0" encoding="UTF-8" standalone="no"?>
<!DOCTYPE svg PUBLIC "-//W3C//DTD SVG 1.1//EN"
 "http://www.w3.org/Graphics/SVG/1.1/DTD/svg11.dtd">
<!-- Generated by graphviz version 2.43.0 (0)
 -->
<!-- Title: Cuboid::get_basis_centre Pages: 1 -->
<svg width="1388pt" height="275pt"
 viewBox="0.00 0.00 1388.00 275.00" xmlns="http://www.w3.org/2000/svg" xmlns:xlink="http://www.w3.org/1999/xlink">
<g id="graph0" class="graph" transform="scale(1 1) rotate(0) translate(4 271)">
<title>Cuboid::get_basis_centre</title>
<!-- Node1 -->
<g id="node1" class="node">
<title>Node1</title>
<g id="a_node1"><a xlink:title="Metoda zwracajaca srodek podstawy ostroslupa">
<polygon fill="#bfbfbf" stroke="black" points="1241,-114.5 1241,-133.5 1380,-133.5 1380,-114.5 1241,-114.5"/>
<text text-anchor="middle" x="1310.5" y="-121.5" font-family="Helvetica,sans-Serif" font-size="10.00">Cuboid::get_basis_centre</text>
</a>
</g>
</g>
<!-- Node2 -->
<g id="node2" class="node">
<title>Node2</title>
<g id="a_node2"><a xlink:href="class_pyramid.html#a0335a2572afad90c7124ee79b6df5aca" target="_top" xlink:title="Metoda zwracajaca punkt centralny (czyli taki, ktorego odleglosci do kazdego wierzcholka sa rowne) Py...">
<polygon fill="none" stroke="black" points="1058,-228.5 1058,-247.5 1182,-247.5 1182,-228.5 1058,-228.5"/>
<text text-anchor="middle" x="1120" y="-235.5" font-family="Helvetica,sans-Serif" font-size="10.00">Pyramid::centre_point</text>
</a>
</g>
</g>
<!-- Node1&#45;&gt;Node2 -->
<g id="edge1" class="edge">
<title>Node1&#45;&gt;Node2</title>
<path fill="none" stroke="midnightblue" d="M1295.54,-141.29C1277.13,-162.9 1242.63,-199.4 1205,-219 1197.57,-222.87 1189.38,-225.95 1181.1,-228.41"/>
<polygon fill="midnightblue" stroke="midnightblue" points="1298.28,-143.47 1301.99,-133.55 1292.9,-138.99 1298.28,-143.47"/>
</g>
<!-- Node7 -->
<g id="node7" class="node">
<title>Node7</title>
<g id="a_node7"><a xlink:href="class_cuboid.html#a79e4e3337e02d8f8a757561cedbdb71f" target="_top" xlink:title="Metoda zwracajaca dlugosc przekatnej podstawy prostopadloscianu">
<polygon fill="none" stroke="black" points="1035,-190.5 1035,-209.5 1205,-209.5 1205,-190.5 1035,-190.5"/>
<text text-anchor="middle" x="1120" y="-197.5" font-family="Helvetica,sans-Serif" font-size="10.00">Cuboid::get_basis_diagonal_len</text>
</a>
</g>
</g>
<!-- Node1&#45;&gt;Node7 -->
<g id="edge6" class="edge">
<title>Node1&#45;&gt;Node7</title>
<path fill="none" stroke="midnightblue" d="M1286.23,-139.15C1265.62,-151.95 1234.34,-169.93 1205,-181 1195.07,-184.75 1184.18,-187.88 1173.64,-190.45"/>
<polygon fill="midnightblue" stroke="midnightblue" points="1288.31,-141.97 1294.9,-133.67 1284.57,-136.05 1288.31,-141.97"/>
</g>
<!-- Node15 -->
<g id="node15" class="node">
<title>Node15</title>
<g id="a_node15"><a xlink:href="class_pyramid.html#a9bb27fa198548b56e3830bfb45c32bcb" target="_top" xlink:title="Metoda zwraca wysokosc ostroslupa">
<polygon fill="none" stroke="black" points="1062.5,-152.5 1062.5,-171.5 1177.5,-171.5 1177.5,-152.5 1062.5,-152.5"/>
<text text-anchor="middle" x="1120" y="-159.5" font-family="Helvetica,sans-Serif" font-size="10.00">Pyramid::get_height</text>
</a>
</g>
</g>
<!-- Node1&#45;&gt;Node15 -->
<g id="edge15" class="edge">
<title>Node1&#45;&gt;Node15</title>
<path fill="none" stroke="midnightblue" d="M1251.91,-135.61C1225.1,-141.01 1193.6,-147.36 1168.22,-152.48"/>
<polygon fill="midnightblue" stroke="midnightblue" points="1252.82,-139 1261.93,-133.59 1251.44,-132.13 1252.82,-139"/>
</g>
<!-- Node16 -->
<g id="node16" class="node">
<title>Node16</title>
<g id="a_node16"><a xlink:href="class_cuboid.html#a7bc29715dc1515f675cd56a30712357f" target="_top" xlink:title="Zwraca pozycje obiektu do Vector3D">
<polygon fill="none" stroke="black" points="1072.5,-114.5 1072.5,-133.5 1167.5,-133.5 1167.5,-114.5 1072.5,-114.5"/>
<text text-anchor="middle" x="1120" y="-121.5" font-family="Helvetica,sans-Serif" font-size="10.00">Cuboid::get_pos</text>
</a>
</g>
</g>
<!-- Node1&#45;&gt;Node16 -->
<g id="edge16" class="edge">
<title>Node1&#45;&gt;Node16</title>
<path fill="none" stroke="midnightblue" d="M1230.82,-124C1209.36,-124 1186.8,-124 1167.74,-124"/>
<polygon fill="midnightblue" stroke="midnightblue" points="1230.91,-127.5 1240.91,-124 1230.91,-120.5 1230.91,-127.5"/>
</g>
<!-- Node18 -->
<g id="node18" class="node">
<title>Node18</title>
<g id="a_node18"><a xlink:href="class_drone.html#abf6bc328fea7ec556e5a23ca37cf6d8e" target="_top" xlink:title="Zwraca pozycje srodka podstawy body">
<polygon fill="none" stroke="black" points="1075,-76.5 1075,-95.5 1165,-95.5 1165,-76.5 1075,-76.5"/>
<text text-anchor="middle" x="1120" y="-83.5" font-family="Helvetica,sans-Serif" font-size="10.00">Drone::get_pos</text>
</a>
</g>
</g>
<!-- Node1&#45;&gt;Node18 -->
<g id="edge18" class="edge">
<title>Node1&#45;&gt;Node18</title>
<path fill="none" stroke="midnightblue" d="M1251.93,-112.39C1224.08,-106.78 1191.17,-100.15 1165.31,-94.93"/>
<polygon fill="midnightblue" stroke="midnightblue" points="1251.44,-115.87 1261.93,-114.41 1252.82,-109 1251.44,-115.87"/>
</g>
<!-- Node20 -->
<g id="node20" class="node">
<title>Node20</title>
<g id="a_node20"><a xlink:href="class_cuboid.html#aefddc945ca09a67d437afa022a4f8d0b" target="_top" xlink:title="Wypisuje pozycje (x,y) obiektu">
<polygon fill="none" stroke="black" points="1069.5,-38.5 1069.5,-57.5 1170.5,-57.5 1170.5,-38.5 1069.5,-38.5"/>
<text text-anchor="middle" x="1120" y="-45.5" font-family="Helvetica,sans-Serif" font-size="10.00">Cuboid::print_pos</text>
</a>
</g>
</g>
<!-- Node1&#45;&gt;Node20 -->
<g id="edge21" class="edge">
<title>Node1&#45;&gt;Node20</title>
<path fill="none" stroke="midnightblue" d="M1286.23,-108.85C1265.62,-96.05 1234.34,-78.07 1205,-67 1194.09,-62.88 1182.03,-59.51 1170.53,-56.81"/>
<polygon fill="midnightblue" stroke="midnightblue" points="1284.57,-111.95 1294.9,-114.33 1288.31,-106.03 1284.57,-111.95"/>
</g>
<!-- Node21 -->
<g id="node21" class="node">
<title>Node21</title>
<g id="a_node21"><a xlink:href="class_drone.html#a64bab0d44c7468a84177cbff85c42acd" target="_top" xlink:title="Wypisuje pozycje (x,y) obiektu">
<polygon fill="none" stroke="black" points="1071.5,-0.5 1071.5,-19.5 1168.5,-19.5 1168.5,-0.5 1071.5,-0.5"/>
<text text-anchor="middle" x="1120" y="-7.5" font-family="Helvetica,sans-Serif" font-size="10.00">Drone::print_pos</text>
</a>
</g>
</g>
<!-- Node1&#45;&gt;Node21 -->
<g id="edge22" class="edge">
<title>Node1&#45;&gt;Node21</title>
<path fill="none" stroke="midnightblue" d="M1295.54,-106.71C1277.13,-85.1 1242.63,-48.6 1205,-29 1193.86,-23.2 1180.99,-19.16 1168.72,-16.35"/>
<polygon fill="midnightblue" stroke="midnightblue" points="1292.9,-109.01 1301.99,-114.45 1298.28,-104.53 1292.9,-109.01"/>
</g>
<!-- Node3 -->
<g id="node3" class="node">
<title>Node3</title>
<g id="a_node3"><a xlink:href="class_pyramid.html#a4e9bcb34458c0015d3a35b5f61747cc6" target="_top" xlink:title="Metoda zwracajaca punkty specjalne ostroslupau : cuts (czyli te ktore sa przecieciami przekatnych dwo...">
<polygon fill="none" stroke="black" points="864.5,-228.5 864.5,-247.5 997.5,-247.5 997.5,-228.5 864.5,-228.5"/>
<text text-anchor="middle" x="931" y="-235.5" font-family="Helvetica,sans-Serif" font-size="10.00">Pyramid::special_points</text>
</a>
</g>
</g>
<!-- Node2&#45;&gt;Node3 -->
<g id="edge2" class="edge">
<title>Node2&#45;&gt;Node3</title>
<path fill="none" stroke="midnightblue" d="M1047.66,-238C1031.2,-238 1013.76,-238 997.56,-238"/>
<polygon fill="midnightblue" stroke="midnightblue" points="1047.77,-241.5 1057.77,-238 1047.77,-234.5 1047.77,-241.5"/>
</g>
<!-- Node4 -->
<g id="node4" class="node">
<title>Node4</title>
<g id="a_node4"><a xlink:href="class_pyramid.html#af85549dc381715a489de5a0c0e8ef620" target="_top" xlink:title="Przeciazenie operatora przypisania, umozliwia stosowanie metod typu Cuboid na obiekcie typu Pyramid">
<polygon fill="none" stroke="black" points="699,-247.5 699,-266.5 812,-266.5 812,-247.5 699,-247.5"/>
<text text-anchor="middle" x="755.5" y="-254.5" font-family="Helvetica,sans-Serif" font-size="10.00">Pyramid::operator=</text>
</a>
</g>
</g>
<!-- Node3&#45;&gt;Node4 -->
<g id="edge3" class="edge">
<title>Node3&#45;&gt;Node4</title>
<path fill="none" stroke="midnightblue" d="M854.23,-246.3C840.13,-247.84 825.63,-249.43 812.26,-250.89"/>
<polygon fill="midnightblue" stroke="midnightblue" points="854.85,-249.75 864.41,-245.18 854.09,-242.79 854.85,-249.75"/>
</g>
<!-- Node5 -->
<g id="node5" class="node">
<title>Node5</title>
<g id="a_node5"><a xlink:href="class_pyramid.html#aa78baa6faa1c3fbcca510e8ddf37de49" target="_top" xlink:title="Konstruktor bezparametryczny klasy Pyramid. Powstaly ostroslupa ma jeden prostokat &quot;tworzacy&quot;: p1 = [...">
<polygon fill="none" stroke="black" points="703.5,-209.5 703.5,-228.5 807.5,-228.5 807.5,-209.5 703.5,-209.5"/>
<text text-anchor="middle" x="755.5" y="-216.5" font-family="Helvetica,sans-Serif" font-size="10.00">Pyramid::Pyramid</text>
</a>
</g>
</g>
<!-- Node3&#45;&gt;Node5 -->
<g id="edge4" class="edge">
<title>Node3&#45;&gt;Node5</title>
<path fill="none" stroke="midnightblue" d="M854.15,-229.69C838.41,-227.97 822.18,-226.19 807.58,-224.59"/>
<polygon fill="midnightblue" stroke="midnightblue" points="854.09,-233.21 864.41,-230.82 854.85,-226.25 854.09,-233.21"/>
</g>
<!-- Node6 -->
<g id="node6" class="node">
<title>Node6</title>
<g id="a_node6"><a xlink:href="class_pyramid.html#a188d1f3cca17418b95ae771dedc99f4a" target="_top" xlink:title="Konstruktor parametryczny klasy Pyramid. Powstaly ostroslupa ma jeden prostokat &quot;tworzacy&quot;: p1 = [0][...">
<polygon fill="none" stroke="black" points="535.5,-209.5 535.5,-228.5 639.5,-228.5 639.5,-209.5 535.5,-209.5"/>
<text text-anchor="middle" x="587.5" y="-216.5" font-family="Helvetica,sans-Serif" font-size="10.00">Pyramid::Pyramid</text>
</a>
</g>
</g>
<!-- Node5&#45;&gt;Node6 -->
<g id="edge5" class="edge">
<title>Node5&#45;&gt;Node6</title>
<path fill="none" stroke="midnightblue" d="M693.19,-219C675.62,-219 656.67,-219 639.78,-219"/>
<polygon fill="midnightblue" stroke="midnightblue" points="693.34,-222.5 703.34,-219 693.34,-215.5 693.34,-222.5"/>
</g>
<!-- Node8 -->
<g id="node8" class="node">
<title>Node8</title>
<g id="a_node8"><a xlink:href="class_drone.html#ab0684fb71c2da878193af0f27a44d276" target="_top" xlink:title="Zwraca promien okregu rzutowany przez dron na plaszczyzne XY">
<polygon fill="none" stroke="black" points="863,-171.5 863,-190.5 999,-190.5 999,-171.5 863,-171.5"/>
<text text-anchor="middle" x="931" y="-178.5" font-family="Helvetica,sans-Serif" font-size="10.00">Drone::get_drone_radius</text>
</a>
</g>
</g>
<!-- Node7&#45;&gt;Node8 -->
<g id="edge7" class="edge">
<title>Node7&#45;&gt;Node8</title>
<path fill="none" stroke="midnightblue" d="M1024.71,-190.42C1016.1,-189.54 1007.5,-188.67 999.2,-187.83"/>
<polygon fill="midnightblue" stroke="midnightblue" points="1024.5,-193.92 1034.8,-191.44 1025.2,-186.95 1024.5,-193.92"/>
</g>
<!-- Node9 -->
<g id="node9" class="node">
<title>Node9</title>
<g id="a_node9"><a xlink:href="class_drone.html#a5369b8139325f0f8d7eb0a7db7c684cd" target="_top" xlink:title="Methoda sprawdzajaca czy rzutowanie drona na plaszczyzne XY &#160;&#160;przecina sie z rzutowaniem prostopadlos...">
<polygon fill="none" stroke="black" points="684,-130.5 684,-149.5 827,-149.5 827,-130.5 684,-130.5"/>
<text text-anchor="middle" x="755.5" y="-137.5" font-family="Helvetica,sans-Serif" font-size="10.00">Drone::check_intersection</text>
</a>
</g>
</g>
<!-- Node8&#45;&gt;Node9 -->
<g id="edge8" class="edge">
<title>Node8&#45;&gt;Node9</title>
<path fill="none" stroke="midnightblue" d="M879.94,-169.17C853.55,-162.93 821.6,-155.38 796.82,-149.53"/>
<polygon fill="midnightblue" stroke="midnightblue" points="879.22,-172.6 889.76,-171.49 880.83,-165.78 879.22,-172.6"/>
</g>
<!-- Node10 -->
<g id="node10" class="node">
<title>Node10</title>
<g id="a_node10"><a xlink:href="class_scene.html#a1e55ef9fe4c36aea7cbc9304b18271cc" target="_top" xlink:title="Sprawdza czy jakis objekt koliduje z dronem jesli ten mialby wyladowac w danym miejscu">
<polygon fill="none" stroke="black" points="527,-125 527,-155 648,-155 648,-125 527,-125"/>
<text text-anchor="start" x="535" y="-143" font-family="Helvetica,sans-Serif" font-size="10.00">Scene::check_objects</text>
<text text-anchor="middle" x="587.5" y="-132" font-family="Helvetica,sans-Serif" font-size="10.00">_intersect</text>
</a>
</g>
</g>
<!-- Node9&#45;&gt;Node10 -->
<g id="edge9" class="edge">
<title>Node9&#45;&gt;Node10</title>
<path fill="none" stroke="midnightblue" d="M673.6,-140C665.03,-140 656.44,-140 648.18,-140"/>
<polygon fill="midnightblue" stroke="midnightblue" points="673.62,-143.5 683.62,-140 673.62,-136.5 673.62,-143.5"/>
</g>
<!-- Node11 -->
<g id="node11" class="node">
<title>Node11</title>
<g id="a_node11"><a xlink:href="class_scene.html#a5fb0b9741a75dec929b5ea5d6ac917a1" target="_top" xlink:title="Przelot aktywnego drona.">
<polygon fill="none" stroke="black" points="284,-130.5 284,-149.5 348,-149.5 348,-130.5 284,-130.5"/>
<text text-anchor="middle" x="316" y="-137.5" font-family="Helvetica,sans-Serif" font-size="10.00">Scene::fly</text>
</a>
</g>
</g>
<!-- Node10&#45;&gt;Node11 -->
<g id="edge10" class="edge">
<title>Node10&#45;&gt;Node11</title>
<path fill="none" stroke="midnightblue" d="M516.4,-140C461.95,-140 389.04,-140 348.16,-140"/>
<polygon fill="midnightblue" stroke="midnightblue" points="516.69,-143.5 526.69,-140 516.69,-136.5 516.69,-143.5"/>
</g>
<!-- Node14 -->
<g id="node14" class="node">
<title>Node14</title>
<g id="a_node14"><a xlink:href="class_scene.html#aa5fc0e5a94bfa0766f6e5ff10993630d" target="_top" xlink:title="Skanowanie powierzchni pod dronem, gdy dron nie moze wyladowac w danym miejscu &#160;&#160;Rysowany jest rownie...">
<polygon fill="none" stroke="black" points="384,-111.5 384,-130.5 491,-130.5 491,-111.5 384,-111.5"/>
<text text-anchor="middle" x="437.5" y="-118.5" font-family="Helvetica,sans-Serif" font-size="10.00">Scene::scan_plane</text>
</a>
</g>
</g>
<!-- Node10&#45;&gt;Node14 -->
<g id="edge13" class="edge">
<title>Node10&#45;&gt;Node14</title>
<path fill="none" stroke="midnightblue" d="M516.76,-131.05C508.21,-129.95 499.58,-128.84 491.34,-127.78"/>
<polygon fill="midnightblue" stroke="midnightblue" points="516.37,-134.52 526.73,-132.33 517.26,-127.58 516.37,-134.52"/>
</g>
<!-- Node12 -->
<g id="node12" class="node">
<title>Node12</title>
<g id="a_node12"><a xlink:href="class_menu.html#acd338552222b744cd030e17776cb5d9b" target="_top" xlink:title="Obsluguje wybor menu.">
<polygon fill="none" stroke="black" points="134,-130.5 134,-149.5 248,-149.5 248,-130.5 134,-130.5"/>
<text text-anchor="middle" x="191" y="-137.5" font-family="Helvetica,sans-Serif" font-size="10.00">Menu::switch_menu</text>
</a>
</g>
</g>
<!-- Node11&#45;&gt;Node12 -->
<g id="edge11" class="edge">
<title>Node11&#45;&gt;Node12</title>
<path fill="none" stroke="midnightblue" d="M273.93,-140C265.75,-140 257.01,-140 248.42,-140"/>
<polygon fill="midnightblue" stroke="midnightblue" points="273.96,-143.5 283.96,-140 273.96,-136.5 273.96,-143.5"/>
</g>
<!-- Node13 -->
<g id="node13" class="node">
<title>Node13</title>
<g id="a_node13"><a xlink:href="class_menu.html#af7e6a49bd56499facef9cc98561ea169" target="_top" xlink:title="Inicjuje i obsluguje menu.">
<polygon fill="none" stroke="black" points="0,-130.5 0,-149.5 98,-149.5 98,-130.5 0,-130.5"/>
<text text-anchor="middle" x="49" y="-137.5" font-family="Helvetica,sans-Serif" font-size="10.00">Menu::init_menu</text>
</a>
</g>
</g>
<!-- Node12&#45;&gt;Node13 -->
<g id="edge12" class="edge">
<title>Node12&#45;&gt;Node13</title>
<path fill="none" stroke="midnightblue" d="M123.75,-140C115.08,-140 106.33,-140 98.04,-140"/>
<polygon fill="midnightblue" stroke="midnightblue" points="123.86,-143.5 133.86,-140 123.86,-136.5 123.86,-143.5"/>
</g>
<!-- Node14&#45;&gt;Node11 -->
<g id="edge14" class="edge">
<title>Node14&#45;&gt;Node11</title>
<path fill="none" stroke="midnightblue" d="M373.74,-130.98C364.88,-132.39 356.12,-133.78 348.22,-135.04"/>
<polygon fill="midnightblue" stroke="midnightblue" points="374.41,-134.42 383.74,-129.39 373.31,-127.5 374.41,-134.42"/>
</g>
<!-- Node17 -->
<g id="node17" class="node">
<title>Node17</title>
<g id="a_node17"><a xlink:href="class_cuboid.html#a86ff038174be6b87663dde31595668d5" target="_top" xlink:title="Zmiana pozycji obiektu na plaszczyznie XY na nowe wspolrzedne.">
<polygon fill="none" stroke="black" points="876,-114.5 876,-133.5 986,-133.5 986,-114.5 876,-114.5"/>
<text text-anchor="middle" x="931" y="-121.5" font-family="Helvetica,sans-Serif" font-size="10.00">Cuboid::switch_pos</text>
</a>
</g>
</g>
<!-- Node16&#45;&gt;Node17 -->
<g id="edge17" class="edge">
<title>Node16&#45;&gt;Node17</title>
<path fill="none" stroke="midnightblue" d="M1062.19,-124C1038.01,-124 1009.93,-124 986.05,-124"/>
<polygon fill="midnightblue" stroke="midnightblue" points="1062.29,-127.5 1072.29,-124 1062.29,-120.5 1062.29,-127.5"/>
</g>
<!-- Node19 -->
<g id="node19" class="node">
<title>Node19</title>
<g id="a_node19"><a xlink:href="class_drone.html#ab717196d8d03bde942a75d1f693fe362" target="_top" xlink:title="Zwraca rzutowanie pozycje srodka podstawy body na XY">
<polygon fill="none" stroke="black" points="875.5,-76.5 875.5,-95.5 986.5,-95.5 986.5,-76.5 875.5,-76.5"/>
<text text-anchor="middle" x="931" y="-83.5" font-family="Helvetica,sans-Serif" font-size="10.00">Drone::get_pos_pro</text>
</a>
</g>
</g>
<!-- Node18&#45;&gt;Node19 -->
<g id="edge19" class="edge">
<title>Node18&#45;&gt;Node19</title>
<path fill="none" stroke="midnightblue" d="M1064.48,-86C1040.01,-86 1011.19,-86 986.69,-86"/>
<polygon fill="midnightblue" stroke="midnightblue" points="1064.68,-89.5 1074.68,-86 1064.68,-82.5 1064.68,-89.5"/>
</g>
<!-- Node19&#45;&gt;Node9 -->
<g id="edge20" class="edge">
<title>Node19&#45;&gt;Node9</title>
<path fill="none" stroke="midnightblue" d="M885.44,-98.36C877.94,-100.52 870.23,-102.79 863,-105 836.2,-113.2 805.85,-123.25 784.43,-130.47"/>
<polygon fill="midnightblue" stroke="midnightblue" points="886.49,-101.7 895.15,-95.59 884.57,-94.97 886.49,-101.7"/>
</g>
</g>
</svg>
