<?xml version="1.0" encoding="UTF-8" standalone="no"?>
<!DOCTYPE svg PUBLIC "-//W3C//DTD SVG 1.1//EN"
 "http://www.w3.org/Graphics/SVG/1.1/DTD/svg11.dtd">
<!-- Generated by graphviz version 2.43.0 (0)
 -->
<!-- Title: Drone Pages: 1 -->
<!--zoomable 2264 -->
<svg id="main" version="1.1" xmlns="http://www.w3.org/2000/svg" xmlns:xlink="http://www.w3.org/1999/xlink" xml:space="preserve" onload="init(evt)">
<style type="text/css"><![CDATA[
.edge:hover path { stroke: red; }
.edge:hover polygon { stroke: red; fill: red; }
]]></style>
<script type="text/javascript"><![CDATA[
var edges = document.getElementsByTagName('g');
if (edges && edges.length) {
  for (var i=0;i<edges.length;i++) {
    if (edges[i].id.substr(0,4)=='edge') {
      edges[i].setAttribute('class','edge');
    }
  }
}
]]></script>
        <defs>
                <circle id="rim" cx="0" cy="0" r="7"/>
                <circle id="rim2" cx="0" cy="0" r="3.5"/>
                <g id="zoomPlus">
                        <use xlink:href="#rim" fill="#404040">
                                <set attributeName="fill" to="#808080" begin="zoomplus.mouseover" end="zoomplus.mouseout"/>
                        </use>
                        <path d="M-4,0h8M0,-4v8" fill="none" stroke="white" stroke-width="1.5" pointer-events="none"/>
                </g>
                <g id="zoomMin">
                        <use xlink:href="#rim" fill="#404040">
                                <set attributeName="fill" to="#808080" begin="zoomminus.mouseover" end="zoomminus.mouseout"/>
                        </use>
                        <path d="M-4,0h8" fill="none" stroke="white" stroke-width="1.5" pointer-events="none"/>
                </g>
                <g id="dirArrow">
                        <path fill="none" stroke="white" stroke-width="1.5" d="M0,-3.0v7 M-2.5,-0.5L0,-3.0L2.5,-0.5"/>
                </g>
               <g id="resetDef">
                       <use xlink:href="#rim2" fill="#404040">
                               <set attributeName="fill" to="#808080" begin="reset.mouseover" end="reset.mouseout"/>
                       </use>
               </g>
        </defs>

<script type="text/javascript">
var viewWidth = 508;
var viewHeight = 2264;
var sectionId = 'dynsection-1';
</script>
<script xlink:href="svgpan.js"/>
<svg id="graph" class="graph">
<g id="viewport">
<title>Drone</title>
<!-- Node1 -->
<g id="node1" class="node">
<title>Node1</title>
<g id="a_node1"><a xlink:title="Opisuje drona o prostopadlosciennym korpusie i 4 rotorach.">
<polygon fill="#bfbfbf" stroke="black" points="142.68,-0.5 142.68,-409.5 327.68,-409.5 327.68,-0.5 142.68,-0.5"/>
<text text-anchor="middle" x="235.18" y="-397.5" font-family="Helvetica,sans-Serif" font-size="10.00">Drone</text>
<polyline fill="none" stroke="black" points="142.68,-390.5 327.68,-390.5 "/>
<text text-anchor="middle" x="235.18" y="-378.5" font-family="Helvetica,sans-Serif" font-size="10.00"> </text>
<polyline fill="none" stroke="black" points="142.68,-371.5 327.68,-371.5 "/>
<text text-anchor="start" x="150.68" y="-359.5" font-family="Helvetica,sans-Serif" font-size="10.00">+ Drone()</text>
<text text-anchor="start" x="150.68" y="-348.5" font-family="Helvetica,sans-Serif" font-size="10.00">+ set_rotors_in_place()</text>
<text text-anchor="start" x="150.68" y="-337.5" font-family="Helvetica,sans-Serif" font-size="10.00">+ translation()</text>
<text text-anchor="start" x="150.68" y="-326.5" font-family="Helvetica,sans-Serif" font-size="10.00">+ translation_to_pos()</text>
<text text-anchor="start" x="150.68" y="-315.5" font-family="Helvetica,sans-Serif" font-size="10.00">+ rotation_around_cen()</text>
<text text-anchor="start" x="150.68" y="-304.5" font-family="Helvetica,sans-Serif" font-size="10.00">+ scale_dro()</text>
<text text-anchor="start" x="150.68" y="-293.5" font-family="Helvetica,sans-Serif" font-size="10.00">+ operator==()</text>
<text text-anchor="start" x="150.68" y="-282.5" font-family="Helvetica,sans-Serif" font-size="10.00">+ set_drone_pos()</text>
<text text-anchor="start" x="150.68" y="-271.5" font-family="Helvetica,sans-Serif" font-size="10.00">+ print_drone_pos()</text>
<text text-anchor="start" x="150.68" y="-260.5" font-family="Helvetica,sans-Serif" font-size="10.00">+ set_scale_all()</text>
<text text-anchor="start" x="150.68" y="-249.5" font-family="Helvetica,sans-Serif" font-size="10.00">+ get_dro()</text>
<text text-anchor="start" x="150.68" y="-238.5" font-family="Helvetica,sans-Serif" font-size="10.00">+ check_dro()</text>
<text text-anchor="start" x="150.68" y="-227.5" font-family="Helvetica,sans-Serif" font-size="10.00">+ get_orien()</text>
<text text-anchor="start" x="150.68" y="-216.5" font-family="Helvetica,sans-Serif" font-size="10.00">+ get_body_height()</text>
<text text-anchor="start" x="150.68" y="-205.5" font-family="Helvetica,sans-Serif" font-size="10.00">+ check_orien()</text>
<text text-anchor="start" x="150.68" y="-194.5" font-family="Helvetica,sans-Serif" font-size="10.00">+ setup_filenames()</text>
<text text-anchor="start" x="150.68" y="-183.5" font-family="Helvetica,sans-Serif" font-size="10.00">+ set_filenames_gnuplot()</text>
<text text-anchor="start" x="150.68" y="-172.5" font-family="Helvetica,sans-Serif" font-size="10.00">+ get_filenames()</text>
<text text-anchor="start" x="150.68" y="-161.5" font-family="Helvetica,sans-Serif" font-size="10.00">+ Print_to_gnuplot_drone()</text>
<text text-anchor="start" x="150.68" y="-150.5" font-family="Helvetica,sans-Serif" font-size="10.00">+ Print_to_files_drone()</text>
<text text-anchor="start" x="150.68" y="-139.5" font-family="Helvetica,sans-Serif" font-size="10.00">+ Rotors_rotation_animation()</text>
<text text-anchor="start" x="150.68" y="-128.5" font-family="Helvetica,sans-Serif" font-size="10.00">+ Drone_rotation_animation()</text>
<text text-anchor="start" x="150.68" y="-117.5" font-family="Helvetica,sans-Serif" font-size="10.00">+ Drone_make_path()</text>
<text text-anchor="start" x="150.68" y="-106.5" font-family="Helvetica,sans-Serif" font-size="10.00">+ Drone_path_to_file()</text>
<text text-anchor="start" x="150.68" y="-95.5" font-family="Helvetica,sans-Serif" font-size="10.00">+ Drone_path_clear()</text>
<text text-anchor="start" x="150.68" y="-84.5" font-family="Helvetica,sans-Serif" font-size="10.00">+ Drone_translation_animation()</text>
<text text-anchor="start" x="150.68" y="-73.5" font-family="Helvetica,sans-Serif" font-size="10.00">+ Drone_change_to_sample()</text>
<text text-anchor="start" x="150.68" y="-62.5" font-family="Helvetica,sans-Serif" font-size="10.00">+ Drone_From_Sample()</text>
<text text-anchor="start" x="150.68" y="-51.5" font-family="Helvetica,sans-Serif" font-size="10.00">+ Drone_basic_motion()</text>
<text text-anchor="start" x="150.68" y="-40.5" font-family="Helvetica,sans-Serif" font-size="10.00">+ Drone_roundabout()</text>
<text text-anchor="start" x="150.68" y="-29.5" font-family="Helvetica,sans-Serif" font-size="10.00">+ Drone_make_path_roundabout()</text>
<text text-anchor="start" x="150.68" y="-18.5" font-family="Helvetica,sans-Serif" font-size="10.00">+ print_name()</text>
<text text-anchor="start" x="150.68" y="-7.5" font-family="Helvetica,sans-Serif" font-size="10.00">+ print_pos()</text>
</a>
</g>
</g>
<!-- Node2 -->
<g id="node2" class="node">
<title>Node2</title>
<g id="a_node2"><a xlink:href="class_block.html" target="_top" xlink:title="Opisuje figure geometryczna w przestrzeni trojwymiarowej.">
<polygon fill="none" stroke="black" points="172.68,-947.5 172.68,-1158.5 297.68,-1158.5 297.68,-947.5 172.68,-947.5"/>
<text text-anchor="middle" x="235.18" y="-1146.5" font-family="Helvetica,sans-Serif" font-size="10.00">Block</text>
<polyline fill="none" stroke="black" points="172.68,-1139.5 297.68,-1139.5 "/>
<text text-anchor="middle" x="235.18" y="-1127.5" font-family="Helvetica,sans-Serif" font-size="10.00"> </text>
<polyline fill="none" stroke="black" points="172.68,-1120.5 297.68,-1120.5 "/>
<text text-anchor="start" x="180.68" y="-1108.5" font-family="Helvetica,sans-Serif" font-size="10.00">+ Block()</text>
<text text-anchor="start" x="180.68" y="-1097.5" font-family="Helvetica,sans-Serif" font-size="10.00">+ Block()</text>
<text text-anchor="start" x="180.68" y="-1086.5" font-family="Helvetica,sans-Serif" font-size="10.00">+ Block()</text>
<text text-anchor="start" x="180.68" y="-1075.5" font-family="Helvetica,sans-Serif" font-size="10.00">+ set_sample_name()</text>
<text text-anchor="start" x="180.68" y="-1064.5" font-family="Helvetica,sans-Serif" font-size="10.00">+ set_final_name()</text>
<text text-anchor="start" x="180.68" y="-1053.5" font-family="Helvetica,sans-Serif" font-size="10.00">+ set_scale()</text>
<text text-anchor="start" x="180.68" y="-1042.5" font-family="Helvetica,sans-Serif" font-size="10.00">+ set_scale()</text>
<text text-anchor="start" x="180.68" y="-1031.5" font-family="Helvetica,sans-Serif" font-size="10.00">+ check_block()</text>
<text text-anchor="start" x="180.68" y="-1020.5" font-family="Helvetica,sans-Serif" font-size="10.00">+ get_sample_name()</text>
<text text-anchor="start" x="180.68" y="-1009.5" font-family="Helvetica,sans-Serif" font-size="10.00">+ get_final_name()</text>
<text text-anchor="start" x="180.68" y="-998.5" font-family="Helvetica,sans-Serif" font-size="10.00">+ get_scale()</text>
<text text-anchor="start" x="180.68" y="-987.5" font-family="Helvetica,sans-Serif" font-size="10.00">+ print_name()</text>
<text text-anchor="start" x="180.68" y="-976.5" font-family="Helvetica,sans-Serif" font-size="10.00">+ print_pos()</text>
<text text-anchor="start" x="180.68" y="-965.5" font-family="Helvetica,sans-Serif" font-size="10.00">+ get_pos()</text>
<text text-anchor="start" x="180.68" y="-954.5" font-family="Helvetica,sans-Serif" font-size="10.00">+ switch_pos()</text>
</a>
</g>
</g>
<!-- Node2&#45;&gt;Node1 -->
<g id="edge1" class="edge">
<title>Node2&#45;&gt;Node1</title>
<path fill="none" stroke="midnightblue" d="M235.18,-937.04C235.18,-801.82 235.18,-574.87 235.18,-409.64"/>
<polygon fill="none" stroke="midnightblue" points="231.68,-937.42 235.18,-947.42 238.68,-937.42 231.68,-937.42"/>
</g>
<!-- Node13 -->
<g id="node13" class="node">
<title>Node13</title>
<g id="a_node13"><a xlink:href="class_cuboid.html" target="_top" xlink:title="Opisuje prostopadloscian w przestrzeni trojwymiarowej.">
<polygon fill="none" stroke="black" points="263.68,-457.5 263.68,-888.5 404.68,-888.5 404.68,-457.5 263.68,-457.5"/>
<text text-anchor="middle" x="334.18" y="-876.5" font-family="Helvetica,sans-Serif" font-size="10.00">Cuboid</text>
<polyline fill="none" stroke="black" points="263.68,-869.5 404.68,-869.5 "/>
<text text-anchor="middle" x="334.18" y="-857.5" font-family="Helvetica,sans-Serif" font-size="10.00"> </text>
<polyline fill="none" stroke="black" points="263.68,-850.5 404.68,-850.5 "/>
<text text-anchor="start" x="271.68" y="-838.5" font-family="Helvetica,sans-Serif" font-size="10.00">+ Cuboid()</text>
<text text-anchor="start" x="271.68" y="-827.5" font-family="Helvetica,sans-Serif" font-size="10.00">+ Cuboid()</text>
<text text-anchor="start" x="271.68" y="-816.5" font-family="Helvetica,sans-Serif" font-size="10.00">+ Cuboid()</text>
<text text-anchor="start" x="271.68" y="-805.5" font-family="Helvetica,sans-Serif" font-size="10.00">+ Cuboid()</text>
<text text-anchor="start" x="271.68" y="-794.5" font-family="Helvetica,sans-Serif" font-size="10.00">+ Cuboid()</text>
<text text-anchor="start" x="271.68" y="-783.5" font-family="Helvetica,sans-Serif" font-size="10.00">+ Cuboid()</text>
<text text-anchor="start" x="271.68" y="-772.5" font-family="Helvetica,sans-Serif" font-size="10.00">+ check_cub()</text>
<text text-anchor="start" x="271.68" y="-761.5" font-family="Helvetica,sans-Serif" font-size="10.00">+ get_vec_opp()</text>
<text text-anchor="start" x="271.68" y="-750.5" font-family="Helvetica,sans-Serif" font-size="10.00">+ check_vec_opp()</text>
<text text-anchor="start" x="271.68" y="-739.5" font-family="Helvetica,sans-Serif" font-size="10.00">+ check_vec_len()</text>
<text text-anchor="start" x="271.68" y="-728.5" font-family="Helvetica,sans-Serif" font-size="10.00">+ get_vec_len()</text>
<text text-anchor="start" x="271.68" y="-717.5" font-family="Helvetica,sans-Serif" font-size="10.00">+ get_vec_perp()</text>
<text text-anchor="start" x="271.68" y="-706.5" font-family="Helvetica,sans-Serif" font-size="10.00">+ check_vec_perp()</text>
<text text-anchor="start" x="271.68" y="-695.5" font-family="Helvetica,sans-Serif" font-size="10.00">+ get_cub()</text>
<text text-anchor="start" x="271.68" y="-684.5" font-family="Helvetica,sans-Serif" font-size="10.00">+ get_cub()</text>
<text text-anchor="start" x="271.68" y="-673.5" font-family="Helvetica,sans-Serif" font-size="10.00">+ get_height()</text>
<text text-anchor="start" x="271.68" y="-662.5" font-family="Helvetica,sans-Serif" font-size="10.00">+ operator==()</text>
<text text-anchor="start" x="271.68" y="-651.5" font-family="Helvetica,sans-Serif" font-size="10.00">+ translation()</text>
<text text-anchor="start" x="271.68" y="-640.5" font-family="Helvetica,sans-Serif" font-size="10.00">+ translation_to_O()</text>
<text text-anchor="start" x="271.68" y="-629.5" font-family="Helvetica,sans-Serif" font-size="10.00">+ rotation()</text>
<text text-anchor="start" x="271.68" y="-618.5" font-family="Helvetica,sans-Serif" font-size="10.00">+ rotation_around_cen()</text>
<text text-anchor="start" x="271.68" y="-607.5" font-family="Helvetica,sans-Serif" font-size="10.00">+ centre_point()</text>
<text text-anchor="start" x="271.68" y="-596.5" font-family="Helvetica,sans-Serif" font-size="10.00">+ get_basis_centre()</text>
<text text-anchor="start" x="271.68" y="-585.5" font-family="Helvetica,sans-Serif" font-size="10.00">+ special_points()</text>
<text text-anchor="start" x="271.68" y="-574.5" font-family="Helvetica,sans-Serif" font-size="10.00">+ print_cuboid()</text>
<text text-anchor="start" x="271.68" y="-563.5" font-family="Helvetica,sans-Serif" font-size="10.00">+ print_cuboid_weird()</text>
<text text-anchor="start" x="271.68" y="-552.5" font-family="Helvetica,sans-Serif" font-size="10.00">+ print_cuboid_3D()</text>
<text text-anchor="start" x="271.68" y="-541.5" font-family="Helvetica,sans-Serif" font-size="10.00">+ Cuboid_From_Sample()</text>
<text text-anchor="start" x="271.68" y="-530.5" font-family="Helvetica,sans-Serif" font-size="10.00">+ Cuboid_To_File()</text>
<text text-anchor="start" x="271.68" y="-519.5" font-family="Helvetica,sans-Serif" font-size="10.00">+ scale_cub()</text>
<text text-anchor="start" x="271.68" y="-508.5" font-family="Helvetica,sans-Serif" font-size="10.00">+ scale_cub()</text>
<text text-anchor="start" x="271.68" y="-497.5" font-family="Helvetica,sans-Serif" font-size="10.00">+ print_name()</text>
<text text-anchor="start" x="271.68" y="-486.5" font-family="Helvetica,sans-Serif" font-size="10.00">+ print_pos()</text>
<text text-anchor="start" x="271.68" y="-475.5" font-family="Helvetica,sans-Serif" font-size="10.00">+ get_pos()</text>
<text text-anchor="start" x="271.68" y="-464.5" font-family="Helvetica,sans-Serif" font-size="10.00">+ switch_pos()</text>
</a>
</g>
</g>
<!-- Node2&#45;&gt;Node13 -->
<g id="edge17" class="edge">
<title>Node2&#45;&gt;Node13</title>
<path fill="none" stroke="midnightblue" d="M265.1,-937.77C269.22,-922.02 273.56,-905.45 277.98,-888.6"/>
<polygon fill="none" stroke="midnightblue" points="261.71,-936.9 262.56,-947.46 268.48,-938.67 261.71,-936.9"/>
</g>
<!-- Node14 -->
<g id="node14" class="node">
<title>Node14</title>
<g id="a_node14"><a xlink:href="class_prism.html" target="_top" xlink:title="Opisuje graniastoslup o dwunastu wierzcholkach w przestrzeni trojwymiarowej.">
<polygon fill="none" stroke="black" points="49.18,-474 49.18,-872 207.18,-872 207.18,-474 49.18,-474"/>
<text text-anchor="middle" x="128.18" y="-860" font-family="Helvetica,sans-Serif" font-size="10.00">Prism</text>
<polyline fill="none" stroke="black" points="49.18,-853 207.18,-853 "/>
<text text-anchor="middle" x="128.18" y="-841" font-family="Helvetica,sans-Serif" font-size="10.00"> </text>
<polyline fill="none" stroke="black" points="49.18,-834 207.18,-834 "/>
<text text-anchor="start" x="57.18" y="-822" font-family="Helvetica,sans-Serif" font-size="10.00">+ Prism()</text>
<text text-anchor="start" x="57.18" y="-811" font-family="Helvetica,sans-Serif" font-size="10.00">+ Prism()</text>
<text text-anchor="start" x="57.18" y="-800" font-family="Helvetica,sans-Serif" font-size="10.00">+ Prism()</text>
<text text-anchor="start" x="57.18" y="-789" font-family="Helvetica,sans-Serif" font-size="10.00">+ Prism()</text>
<text text-anchor="start" x="57.18" y="-778" font-family="Helvetica,sans-Serif" font-size="10.00">+ Prism()</text>
<text text-anchor="start" x="57.18" y="-767" font-family="Helvetica,sans-Serif" font-size="10.00">+ get_pri()</text>
<text text-anchor="start" x="57.18" y="-756" font-family="Helvetica,sans-Serif" font-size="10.00">+ get_pri()</text>
<text text-anchor="start" x="57.18" y="-745" font-family="Helvetica,sans-Serif" font-size="10.00">+ check_pri()</text>
<text text-anchor="start" x="57.18" y="-734" font-family="Helvetica,sans-Serif" font-size="10.00">+ get_height()</text>
<text text-anchor="start" x="57.18" y="-723" font-family="Helvetica,sans-Serif" font-size="10.00">+ get_special_points()</text>
<text text-anchor="start" x="57.18" y="-712" font-family="Helvetica,sans-Serif" font-size="10.00">+ get_vec_ver()</text>
<text text-anchor="start" x="57.18" y="-701" font-family="Helvetica,sans-Serif" font-size="10.00">+ check_vec_ver()</text>
<text text-anchor="start" x="57.18" y="-690" font-family="Helvetica,sans-Serif" font-size="10.00">+ get_vec_pairs()</text>
<text text-anchor="start" x="57.18" y="-679" font-family="Helvetica,sans-Serif" font-size="10.00">+ check_vec_pairs()</text>
<text text-anchor="start" x="57.18" y="-668" font-family="Helvetica,sans-Serif" font-size="10.00">+ check_vec_perp()</text>
<text text-anchor="start" x="57.18" y="-657" font-family="Helvetica,sans-Serif" font-size="10.00">+ check_vec_basis()</text>
<text text-anchor="start" x="57.18" y="-646" font-family="Helvetica,sans-Serif" font-size="10.00">+ operator==()</text>
<text text-anchor="start" x="57.18" y="-635" font-family="Helvetica,sans-Serif" font-size="10.00">+ translation()</text>
<text text-anchor="start" x="57.18" y="-624" font-family="Helvetica,sans-Serif" font-size="10.00">+ translation_of_lower_cen()</text>
<text text-anchor="start" x="57.18" y="-613" font-family="Helvetica,sans-Serif" font-size="10.00">+ translation_to_O()</text>
<text text-anchor="start" x="57.18" y="-602" font-family="Helvetica,sans-Serif" font-size="10.00">+ rotation_around_cen()</text>
<text text-anchor="start" x="57.18" y="-591" font-family="Helvetica,sans-Serif" font-size="10.00">+ centre_point()</text>
<text text-anchor="start" x="57.18" y="-580" font-family="Helvetica,sans-Serif" font-size="10.00">+ get_basis_centre()</text>
<text text-anchor="start" x="57.18" y="-569" font-family="Helvetica,sans-Serif" font-size="10.00">+ special_points()</text>
<text text-anchor="start" x="57.18" y="-558" font-family="Helvetica,sans-Serif" font-size="10.00">+ print_prism_3D()</text>
<text text-anchor="start" x="57.18" y="-547" font-family="Helvetica,sans-Serif" font-size="10.00">+ Prism_From_Sample()</text>
<text text-anchor="start" x="57.18" y="-536" font-family="Helvetica,sans-Serif" font-size="10.00">+ Prism_To_File()</text>
<text text-anchor="start" x="57.18" y="-525" font-family="Helvetica,sans-Serif" font-size="10.00">+ scale_pri()</text>
<text text-anchor="start" x="57.18" y="-514" font-family="Helvetica,sans-Serif" font-size="10.00">+ scale_pri()</text>
<text text-anchor="start" x="57.18" y="-503" font-family="Helvetica,sans-Serif" font-size="10.00">+ print_pos()</text>
<text text-anchor="start" x="57.18" y="-492" font-family="Helvetica,sans-Serif" font-size="10.00">+ get_pos()</text>
<text text-anchor="start" x="57.18" y="-481" font-family="Helvetica,sans-Serif" font-size="10.00">+ switch_pos()</text>
</a>
</g>
</g>
<!-- Node2&#45;&gt;Node14 -->
<g id="edge20" class="edge">
<title>Node2&#45;&gt;Node14</title>
<path fill="none" stroke="midnightblue" d="M202.81,-937.66C196.91,-916.8 190.59,-894.49 184.23,-872.01"/>
<polygon fill="none" stroke="midnightblue" points="199.5,-938.79 205.59,-947.46 206.23,-936.88 199.5,-938.79"/>
</g>
<!-- Node3 -->
<g id="node3" class="node">
<title>Node3</title>
<g id="a_node3"><a xlink:href="class_vector.html" target="_top" xlink:title=" ">
<polygon fill="none" stroke="black" points="81.68,-1217.5 81.68,-1483.5 196.68,-1483.5 196.68,-1217.5 81.68,-1217.5"/>
<text text-anchor="middle" x="139.18" y="-1471.5" font-family="Helvetica,sans-Serif" font-size="10.00">Vector&lt; double, 3 &gt;</text>
<polyline fill="none" stroke="black" points="81.68,-1464.5 196.68,-1464.5 "/>
<text text-anchor="middle" x="139.18" y="-1452.5" font-family="Helvetica,sans-Serif" font-size="10.00"> </text>
<polyline fill="none" stroke="black" points="81.68,-1445.5 196.68,-1445.5 "/>
<text text-anchor="start" x="89.68" y="-1433.5" font-family="Helvetica,sans-Serif" font-size="10.00">+ Vector()</text>
<text text-anchor="start" x="89.68" y="-1422.5" font-family="Helvetica,sans-Serif" font-size="10.00">+ Vector()</text>
<text text-anchor="start" x="89.68" y="-1411.5" font-family="Helvetica,sans-Serif" font-size="10.00">+ operator+()</text>
<text text-anchor="start" x="89.68" y="-1400.5" font-family="Helvetica,sans-Serif" font-size="10.00">+ operator&#45;()</text>
<text text-anchor="start" x="89.68" y="-1389.5" font-family="Helvetica,sans-Serif" font-size="10.00">+ operator*()</text>
<text text-anchor="start" x="89.68" y="-1378.5" font-family="Helvetica,sans-Serif" font-size="10.00">+ operator/()</text>
<text text-anchor="start" x="89.68" y="-1367.5" font-family="Helvetica,sans-Serif" font-size="10.00">+ operator==()</text>
<text text-anchor="start" x="89.68" y="-1356.5" font-family="Helvetica,sans-Serif" font-size="10.00">+ scale_vec()</text>
<text text-anchor="start" x="89.68" y="-1345.5" font-family="Helvetica,sans-Serif" font-size="10.00">+ rotate()</text>
<text text-anchor="start" x="89.68" y="-1334.5" font-family="Helvetica,sans-Serif" font-size="10.00">+ rotate()</text>
<text text-anchor="start" x="89.68" y="-1323.5" font-family="Helvetica,sans-Serif" font-size="10.00">+ rotate()</text>
<text text-anchor="start" x="89.68" y="-1312.5" font-family="Helvetica,sans-Serif" font-size="10.00">+ modulus2()</text>
<text text-anchor="start" x="89.68" y="-1301.5" font-family="Helvetica,sans-Serif" font-size="10.00">+ get_vec()</text>
<text text-anchor="start" x="89.68" y="-1290.5" font-family="Helvetica,sans-Serif" font-size="10.00">+ get_len()</text>
<text text-anchor="start" x="89.68" y="-1279.5" font-family="Helvetica,sans-Serif" font-size="10.00">+ get_slope_angle()</text>
<text text-anchor="start" x="89.68" y="-1268.5" font-family="Helvetica,sans-Serif" font-size="10.00">+ get_slope_angle()</text>
<text text-anchor="start" x="89.68" y="-1257.5" font-family="Helvetica,sans-Serif" font-size="10.00">+ get_slope_angle()</text>
<text text-anchor="start" x="89.68" y="-1246.5" font-family="Helvetica,sans-Serif" font-size="10.00">+ operator[]()</text>
<text text-anchor="start" x="89.68" y="-1235.5" font-family="Helvetica,sans-Serif" font-size="10.00">+ operator[]()</text>
<text text-anchor="start" x="89.68" y="-1224.5" font-family="Helvetica,sans-Serif" font-size="10.00">+ scalar_prod()</text>
</a>
</g>
</g>
<!-- Node3&#45;&gt;Node1 -->
<g id="edge15" class="edge">
<title>Node3&#45;&gt;Node1</title>
<path fill="none" stroke="#404040" d="M89.78,-1217.4C31.02,-1039.68 -48.61,-716 40.18,-457 59.56,-400.47 97.44,-346.85 134.7,-303.79"/>
<polygon fill="none" stroke="#404040" points="134.71,-303.78 135.67,-296.63 142.63,-294.77 141.67,-301.92 134.71,-303.78"/>
<text text-anchor="middle" x="52.68" y="-921" font-family="Helvetica,sans-Serif" font-size="10.00"> &#45;drone_orient</text>
<text text-anchor="middle" x="52.68" y="-910" font-family="Helvetica,sans-Serif" font-size="10.00">&#45;drone_pos</text>
</g>
<!-- Node3&#45;&gt;Node2 -->
<g id="edge2" class="edge">
<title>Node3&#45;&gt;Node2</title>
<path fill="none" stroke="#404040" d="M182.13,-1217.18C186.54,-1203.61 190.95,-1190.03 195.18,-1177 195.91,-1174.76 196.64,-1172.49 197.39,-1170.21"/>
<polygon fill="none" stroke="#404040" points="197.42,-1170.09 195.47,-1163.15 201.13,-1158.68 203.08,-1165.62 197.42,-1170.09"/>
<text text-anchor="middle" x="213.68" y="-1185.5" font-family="Helvetica,sans-Serif" font-size="10.00"> #scale</text>
</g>
<!-- Node3&#45;&gt;Node13 -->
<g id="edge18" class="edge">
<title>Node3&#45;&gt;Node13</title>
<path fill="none" stroke="#404040" d="M196.92,-1224.63C199.87,-1221.91 202.95,-1219.35 206.18,-1217 247.64,-1186.8 286.34,-1237.55 320.18,-1199 359,-1154.78 362.23,-1021.68 355.9,-900.58"/>
<polygon fill="none" stroke="#404040" points="355.89,-900.5 351.57,-894.73 355.23,-888.52 359.56,-894.29 355.89,-900.5"/>
<text text-anchor="middle" x="378.18" y="-1061.5" font-family="Helvetica,sans-Serif" font-size="10.00"> #cuts</text>
<text text-anchor="middle" x="378.18" y="-1050.5" font-family="Helvetica,sans-Serif" font-size="10.00">#centre</text>
<text text-anchor="middle" x="378.18" y="-1039.5" font-family="Helvetica,sans-Serif" font-size="10.00">#tops</text>
</g>
<!-- Node3&#45;&gt;Node14 -->
<g id="edge21" class="edge">
<title>Node3&#45;&gt;Node14</title>
<path fill="none" stroke="#404040" d="M126.64,-1217.39C125.2,-1197.83 123.97,-1177.9 123.18,-1159 119.41,-1069.1 119.66,-969.74 121.23,-884.49"/>
<polygon fill="none" stroke="#404040" points="121.23,-884.29 117.35,-878.21 121.46,-872.29 125.35,-878.37 121.23,-884.29"/>
<text text-anchor="middle" x="143.18" y="-1061.5" font-family="Helvetica,sans-Serif" font-size="10.00"> #cuts</text>
<text text-anchor="middle" x="143.18" y="-1050.5" font-family="Helvetica,sans-Serif" font-size="10.00">#centre</text>
<text text-anchor="middle" x="143.18" y="-1039.5" font-family="Helvetica,sans-Serif" font-size="10.00">#tops</text>
</g>
<!-- Node4 -->
<g id="node4" class="node">
<title>Node4</title>
<g id="a_node4"><a xlink:href="class_count.html" target="_top" xlink:title=" ">
<polygon fill="none" stroke="black" points="12.18,-1845.5 12.18,-1968.5 146.18,-1968.5 146.18,-1845.5 12.18,-1845.5"/>
<text text-anchor="start" x="20.18" y="-1956.5" font-family="Helvetica,sans-Serif" font-size="10.00">Count&lt; Vector&lt; double,</text>
<text text-anchor="middle" x="79.18" y="-1945.5" font-family="Helvetica,sans-Serif" font-size="10.00"> SIZE &gt; &gt;</text>
<polyline fill="none" stroke="black" points="12.18,-1938.5 146.18,-1938.5 "/>
<text text-anchor="middle" x="79.18" y="-1926.5" font-family="Helvetica,sans-Serif" font-size="10.00"> </text>
<polyline fill="none" stroke="black" points="12.18,-1919.5 146.18,-1919.5 "/>
<text text-anchor="start" x="20.18" y="-1907.5" font-family="Helvetica,sans-Serif" font-size="10.00">+ Count()</text>
<text text-anchor="start" x="20.18" y="-1896.5" font-family="Helvetica,sans-Serif" font-size="10.00">+ Count()</text>
<text text-anchor="start" x="20.18" y="-1885.5" font-family="Helvetica,sans-Serif" font-size="10.00">+ ~Count()</text>
<text text-anchor="start" x="20.18" y="-1874.5" font-family="Helvetica,sans-Serif" font-size="10.00">+ get_count()</text>
<text text-anchor="start" x="20.18" y="-1863.5" font-family="Helvetica,sans-Serif" font-size="10.00">+ print_count()</text>
<text text-anchor="start" x="20.18" y="-1852.5" font-family="Helvetica,sans-Serif" font-size="10.00">+ zero_count()</text>
</a>
</g>
</g>
<!-- Node4&#45;&gt;Node3 -->
<g id="edge3" class="edge">
<title>Node4&#45;&gt;Node3</title>
<path fill="none" stroke="midnightblue" d="M84.85,-1834.85C91.1,-1759.35 101.9,-1636.61 114.18,-1531 115.96,-1515.69 117.97,-1499.66 120.07,-1483.75"/>
<polygon fill="none" stroke="midnightblue" points="81.34,-1834.93 84,-1845.18 88.31,-1835.5 81.34,-1834.93"/>
</g>
<!-- Node5 -->
<g id="node5" class="node">
<title>Node5</title>
<g id="a_node5"><a xlink:title=" ">
<polygon fill="none" stroke="#bfbfbf" points="64.68,-2198.5 64.68,-2255.5 93.68,-2255.5 93.68,-2198.5 64.68,-2198.5"/>
<text text-anchor="middle" x="79.18" y="-2243.5" font-family="Helvetica,sans-Serif" font-size="10.00">int</text>
<polyline fill="none" stroke="#bfbfbf" points="64.68,-2236.5 93.68,-2236.5 "/>
<text text-anchor="middle" x="79.18" y="-2224.5" font-family="Helvetica,sans-Serif" font-size="10.00"> </text>
<polyline fill="none" stroke="#bfbfbf" points="64.68,-2217.5 93.68,-2217.5 "/>
<text text-anchor="middle" x="79.18" y="-2205.5" font-family="Helvetica,sans-Serif" font-size="10.00"> </text>
</a>
</g>
</g>
<!-- Node5&#45;&gt;Node4 -->
<g id="edge4" class="edge">
<title>Node5&#45;&gt;Node4</title>
<path fill="none" stroke="#404040" d="M76.34,-2198.15C74.76,-2181.33 72.97,-2159.46 72.18,-2140 70.14,-2089.82 70.7,-2077.2 72.18,-2027 72.62,-2011.98 73.37,-1995.91 74.23,-1980.6"/>
<polygon fill="none" stroke="#404040" points="74.23,-1980.49 70.59,-1974.27 74.93,-1968.51 78.58,-1974.73 74.23,-1980.49"/>
<text text-anchor="middle" x="115.18" y="-2086.5" font-family="Helvetica,sans-Serif" font-size="10.00"> #objects_alive</text>
<text text-anchor="middle" x="115.18" y="-2075.5" font-family="Helvetica,sans-Serif" font-size="10.00">#objects_created</text>
</g>
<!-- Node6 -->
<g id="node6" class="node">
<title>Node6</title>
<g id="a_node6"><a xlink:href="class_count.html" target="_top" xlink:title="Pozwala na liczenie instancji stworzonych obiektow.">
<polygon fill="none" stroke="black" points="167.18,-2027.5 167.18,-2139.5 257.18,-2139.5 257.18,-2027.5 167.18,-2027.5"/>
<text text-anchor="middle" x="212.18" y="-2127.5" font-family="Helvetica,sans-Serif" font-size="10.00">Count&lt; T &gt;</text>
<polyline fill="none" stroke="black" points="167.18,-2120.5 257.18,-2120.5 "/>
<text text-anchor="middle" x="212.18" y="-2108.5" font-family="Helvetica,sans-Serif" font-size="10.00"> </text>
<polyline fill="none" stroke="black" points="167.18,-2101.5 257.18,-2101.5 "/>
<text text-anchor="start" x="175.18" y="-2089.5" font-family="Helvetica,sans-Serif" font-size="10.00">+ Count()</text>
<text text-anchor="start" x="175.18" y="-2078.5" font-family="Helvetica,sans-Serif" font-size="10.00">+ Count()</text>
<text text-anchor="start" x="175.18" y="-2067.5" font-family="Helvetica,sans-Serif" font-size="10.00">+ ~Count()</text>
<text text-anchor="start" x="175.18" y="-2056.5" font-family="Helvetica,sans-Serif" font-size="10.00">+ get_count()</text>
<text text-anchor="start" x="175.18" y="-2045.5" font-family="Helvetica,sans-Serif" font-size="10.00">+ print_count()</text>
<text text-anchor="start" x="175.18" y="-2034.5" font-family="Helvetica,sans-Serif" font-size="10.00">+ zero_count()</text>
</a>
</g>
</g>
<!-- Node5&#45;&gt;Node6 -->
<g id="edge6" class="edge">
<title>Node5&#45;&gt;Node6</title>
<path fill="none" stroke="#404040" d="M93.92,-2210.32C109.52,-2193.72 135.07,-2166.54 158.43,-2141.68"/>
<polygon fill="none" stroke="#404040" points="158.7,-2141.39 159.9,-2134.28 166.92,-2132.65 165.73,-2139.76 158.7,-2141.39"/>
<text text-anchor="middle" x="185.18" y="-2172" font-family="Helvetica,sans-Serif" font-size="10.00"> #objects_alive</text>
<text text-anchor="middle" x="185.18" y="-2161" font-family="Helvetica,sans-Serif" font-size="10.00">#objects_created</text>
</g>
<!-- Node6&#45;&gt;Node4 -->
<g id="edge5" class="edge">
<title>Node6&#45;&gt;Node4</title>
<path fill="none" stroke="orange" d="M158.88,-2030.63C156.99,-2029.36 155.09,-2028.14 153.18,-2027 131.46,-2014.03 115.9,-2027.98 99.18,-2009 89.31,-1997.8 83.75,-1983.16 80.74,-1968.52"/>
<polygon fill="orange" stroke="orange" points="156.87,-2033.49 167.02,-2036.53 160.98,-2027.83 156.87,-2033.49"/>
<text text-anchor="middle" x="169.18" y="-1995.5" font-family="Helvetica,sans-Serif" font-size="10.00"> &lt; Vector&lt; double, SIZE &gt; &gt;</text>
</g>
<!-- Node9 -->
<g id="node9" class="node">
<title>Node9</title>
<g id="a_node9"><a xlink:href="class_count.html" target="_top" xlink:title=" ">
<polygon fill="none" stroke="black" points="220.68,-1845.5 220.68,-1968.5 343.68,-1968.5 343.68,-1845.5 220.68,-1845.5"/>
<text text-anchor="start" x="228.68" y="-1956.5" font-family="Helvetica,sans-Serif" font-size="10.00">Count&lt; Vector&lt; type,</text>
<text text-anchor="middle" x="282.18" y="-1945.5" font-family="Helvetica,sans-Serif" font-size="10.00"> SIZE &gt; &gt;</text>
<polyline fill="none" stroke="black" points="220.68,-1938.5 343.68,-1938.5 "/>
<text text-anchor="middle" x="282.18" y="-1926.5" font-family="Helvetica,sans-Serif" font-size="10.00"> </text>
<polyline fill="none" stroke="black" points="220.68,-1919.5 343.68,-1919.5 "/>
<text text-anchor="start" x="228.68" y="-1907.5" font-family="Helvetica,sans-Serif" font-size="10.00">+ Count()</text>
<text text-anchor="start" x="228.68" y="-1896.5" font-family="Helvetica,sans-Serif" font-size="10.00">+ Count()</text>
<text text-anchor="start" x="228.68" y="-1885.5" font-family="Helvetica,sans-Serif" font-size="10.00">+ ~Count()</text>
<text text-anchor="start" x="228.68" y="-1874.5" font-family="Helvetica,sans-Serif" font-size="10.00">+ get_count()</text>
<text text-anchor="start" x="228.68" y="-1863.5" font-family="Helvetica,sans-Serif" font-size="10.00">+ print_count()</text>
<text text-anchor="start" x="228.68" y="-1852.5" font-family="Helvetica,sans-Serif" font-size="10.00">+ zero_count()</text>
</a>
</g>
</g>
<!-- Node6&#45;&gt;Node9 -->
<g id="edge11" class="edge">
<title>Node6&#45;&gt;Node9</title>
<path fill="none" stroke="orange" d="M238.08,-2017.93C244.55,-2001.79 251.47,-1984.54 257.87,-1968.6"/>
<polygon fill="orange" stroke="orange" points="234.8,-2016.7 234.33,-2027.29 241.3,-2019.31 234.8,-2016.7"/>
<text text-anchor="middle" x="314.68" y="-1995.5" font-family="Helvetica,sans-Serif" font-size="10.00"> &lt; Vector&lt; type, SIZE &gt; &gt;</text>
</g>
<!-- Node7 -->
<g id="node7" class="node">
<title>Node7</title>
<g id="a_node7"><a xlink:title=" ">
<polygon fill="none" stroke="#bfbfbf" points="359.18,-1636 359.18,-1693 409.18,-1693 409.18,-1636 359.18,-1636"/>
<text text-anchor="middle" x="384.18" y="-1681" font-family="Helvetica,sans-Serif" font-size="10.00">double</text>
<polyline fill="none" stroke="#bfbfbf" points="359.18,-1674 409.18,-1674 "/>
<text text-anchor="middle" x="384.18" y="-1662" font-family="Helvetica,sans-Serif" font-size="10.00"> </text>
<polyline fill="none" stroke="#bfbfbf" points="359.18,-1655 409.18,-1655 "/>
<text text-anchor="middle" x="384.18" y="-1643" font-family="Helvetica,sans-Serif" font-size="10.00"> </text>
</a>
</g>
</g>
<!-- Node7&#45;&gt;Node1 -->
<g id="edge14" class="edge">
<title>Node7&#45;&gt;Node1</title>
<path fill="none" stroke="#404040" d="M391.52,-1635.76C405.18,-1581.56 433.18,-1457.6 433.18,-1351.5 433.18,-1351.5 433.18,-1351.5 433.18,-672 433.18,-576.07 447.42,-546.99 414.18,-457 396.07,-407.96 365.72,-359.81 335.11,-319"/>
<polygon fill="none" stroke="#404040" points="335.02,-318.88 328.2,-316.53 327.75,-309.33 334.57,-311.68 335.02,-318.88"/>
<text text-anchor="middle" x="466.68" y="-1050.5" font-family="Helvetica,sans-Serif" font-size="10.00"> &#45;drone_angle</text>
</g>
<!-- Node7&#45;&gt;Node3 -->
<g id="edge7" class="edge">
<title>Node7&#45;&gt;Node3</title>
<path fill="none" stroke="#404040" d="M362.96,-1635.81C335.95,-1601.71 286.7,-1543.25 236.18,-1502 224.13,-1492.17 216.77,-1495.38 206.18,-1484 205.67,-1483.45 205.17,-1482.9 204.67,-1482.35"/>
<polygon fill="none" stroke="#404040" points="204.53,-1482.18 197.6,-1480.17 196.79,-1473.01 203.72,-1475.02 204.53,-1482.18"/>
<text text-anchor="middle" x="259.68" y="-1505" font-family="Helvetica,sans-Serif" font-size="10.00"> &#45;size</text>
</g>
<!-- Node8 -->
<g id="node8" class="node">
<title>Node8</title>
<g id="a_node8"><a xlink:href="class_vector.html" target="_top" xlink:title="Opisuje wektor o SIZE&#45;wierszach.">
<polygon fill="none" stroke="black" points="123.68,-1531.5 123.68,-1797.5 242.68,-1797.5 242.68,-1531.5 123.68,-1531.5"/>
<text text-anchor="middle" x="183.18" y="-1785.5" font-family="Helvetica,sans-Serif" font-size="10.00">Vector&lt; type, SIZE &gt;</text>
<polyline fill="none" stroke="black" points="123.68,-1778.5 242.68,-1778.5 "/>
<text text-anchor="middle" x="183.18" y="-1766.5" font-family="Helvetica,sans-Serif" font-size="10.00"> </text>
<polyline fill="none" stroke="black" points="123.68,-1759.5 242.68,-1759.5 "/>
<text text-anchor="start" x="131.68" y="-1747.5" font-family="Helvetica,sans-Serif" font-size="10.00">+ Vector()</text>
<text text-anchor="start" x="131.68" y="-1736.5" font-family="Helvetica,sans-Serif" font-size="10.00">+ Vector()</text>
<text text-anchor="start" x="131.68" y="-1725.5" font-family="Helvetica,sans-Serif" font-size="10.00">+ operator+()</text>
<text text-anchor="start" x="131.68" y="-1714.5" font-family="Helvetica,sans-Serif" font-size="10.00">+ operator&#45;()</text>
<text text-anchor="start" x="131.68" y="-1703.5" font-family="Helvetica,sans-Serif" font-size="10.00">+ operator*()</text>
<text text-anchor="start" x="131.68" y="-1692.5" font-family="Helvetica,sans-Serif" font-size="10.00">+ operator/()</text>
<text text-anchor="start" x="131.68" y="-1681.5" font-family="Helvetica,sans-Serif" font-size="10.00">+ operator==()</text>
<text text-anchor="start" x="131.68" y="-1670.5" font-family="Helvetica,sans-Serif" font-size="10.00">+ scale_vec()</text>
<text text-anchor="start" x="131.68" y="-1659.5" font-family="Helvetica,sans-Serif" font-size="10.00">+ rotate()</text>
<text text-anchor="start" x="131.68" y="-1648.5" font-family="Helvetica,sans-Serif" font-size="10.00">+ modulus2()</text>
<text text-anchor="start" x="131.68" y="-1637.5" font-family="Helvetica,sans-Serif" font-size="10.00">+ get_vec()</text>
<text text-anchor="start" x="131.68" y="-1626.5" font-family="Helvetica,sans-Serif" font-size="10.00">+ get_len()</text>
<text text-anchor="start" x="131.68" y="-1615.5" font-family="Helvetica,sans-Serif" font-size="10.00">+ get_slope_angle()</text>
<text text-anchor="start" x="131.68" y="-1604.5" font-family="Helvetica,sans-Serif" font-size="10.00">+ operator[]()</text>
<text text-anchor="start" x="131.68" y="-1593.5" font-family="Helvetica,sans-Serif" font-size="10.00">+ operator[]()</text>
<text text-anchor="start" x="131.68" y="-1582.5" font-family="Helvetica,sans-Serif" font-size="10.00">+ scalar_prod()</text>
<text text-anchor="start" x="131.68" y="-1571.5" font-family="Helvetica,sans-Serif" font-size="10.00">+ rotate()</text>
<text text-anchor="start" x="131.68" y="-1560.5" font-family="Helvetica,sans-Serif" font-size="10.00">+ get_slope_angle()</text>
<text text-anchor="start" x="131.68" y="-1549.5" font-family="Helvetica,sans-Serif" font-size="10.00">+ rotate()</text>
<text text-anchor="start" x="131.68" y="-1538.5" font-family="Helvetica,sans-Serif" font-size="10.00">+ get_slope_angle()</text>
</a>
</g>
</g>
<!-- Node8&#45;&gt;Node3 -->
<g id="edge8" class="edge">
<title>Node8&#45;&gt;Node3</title>
<path fill="none" stroke="orange" d="M163.11,-1521.16C161.34,-1508.62 159.55,-1495.97 157.8,-1483.52"/>
<polygon fill="orange" stroke="orange" points="159.66,-1521.77 164.52,-1531.18 166.59,-1520.79 159.66,-1521.77"/>
<text text-anchor="middle" x="196.68" y="-1505" font-family="Helvetica,sans-Serif" font-size="10.00"> &lt; double, 3 &gt;</text>
</g>
<!-- Node9&#45;&gt;Node8 -->
<g id="edge9" class="edge">
<title>Node9&#45;&gt;Node8</title>
<path fill="none" stroke="midnightblue" d="M253.27,-1835.78C248.28,-1823.65 242.95,-1810.7 237.54,-1797.56"/>
<polygon fill="none" stroke="midnightblue" points="250.15,-1837.4 257.2,-1845.31 256.63,-1834.73 250.15,-1837.4"/>
</g>
<!-- Node10 -->
<g id="node10" class="node">
<title>Node10</title>
<g id="a_node10"><a xlink:href="classstatic_01int.html" target="_top" xlink:title=" ">
<polygon fill="none" stroke="black" points="381.68,-2055 381.68,-2112 440.68,-2112 440.68,-2055 381.68,-2055"/>
<text text-anchor="middle" x="411.18" y="-2100" font-family="Helvetica,sans-Serif" font-size="10.00">static int</text>
<polyline fill="none" stroke="black" points="381.68,-2093 440.68,-2093 "/>
<text text-anchor="middle" x="411.18" y="-2081" font-family="Helvetica,sans-Serif" font-size="10.00"> </text>
<polyline fill="none" stroke="black" points="381.68,-2074 440.68,-2074 "/>
<text text-anchor="middle" x="411.18" y="-2062" font-family="Helvetica,sans-Serif" font-size="10.00"> </text>
</a>
</g>
</g>
<!-- Node10&#45;&gt;Node9 -->
<g id="edge10" class="edge">
<title>Node10&#45;&gt;Node9</title>
<path fill="none" stroke="#404040" d="M407.66,-2054.63C404.06,-2034.47 396.95,-2007.3 383.18,-1987 375.03,-1974.98 364.47,-1963.96 353.26,-1954.21"/>
<polygon fill="none" stroke="#404040" points="352.98,-1953.97 345.81,-1953.22 343.74,-1946.32 350.91,-1947.06 352.98,-1953.97"/>
<text text-anchor="middle" x="437.18" y="-2001" font-family="Helvetica,sans-Serif" font-size="10.00"> #objects_alive</text>
<text text-anchor="middle" x="437.18" y="-1990" font-family="Helvetica,sans-Serif" font-size="10.00">#objects_created</text>
</g>
<!-- Node11 -->
<g id="node11" class="node">
<title>Node11</title>
<g id="a_node11"><a xlink:title=" ">
<polygon fill="none" stroke="#bfbfbf" points="164.18,-1878.5 164.18,-1935.5 202.18,-1935.5 202.18,-1878.5 164.18,-1878.5"/>
<text text-anchor="middle" x="183.18" y="-1923.5" font-family="Helvetica,sans-Serif" font-size="10.00">type</text>
<polyline fill="none" stroke="#bfbfbf" points="164.18,-1916.5 202.18,-1916.5 "/>
<text text-anchor="middle" x="183.18" y="-1904.5" font-family="Helvetica,sans-Serif" font-size="10.00"> </text>
<polyline fill="none" stroke="#bfbfbf" points="164.18,-1897.5 202.18,-1897.5 "/>
<text text-anchor="middle" x="183.18" y="-1885.5" font-family="Helvetica,sans-Serif" font-size="10.00"> </text>
</a>
</g>
</g>
<!-- Node11&#45;&gt;Node8 -->
<g id="edge12" class="edge">
<title>Node11&#45;&gt;Node8</title>
<path fill="none" stroke="#404040" d="M183.18,-1878.41C183.18,-1860.65 183.18,-1836.05 183.18,-1809.85"/>
<polygon fill="none" stroke="#404040" points="183.18,-1809.72 179.18,-1803.72 183.18,-1797.72 187.18,-1803.72 183.18,-1809.72"/>
<text text-anchor="middle" x="196.68" y="-1819" font-family="Helvetica,sans-Serif" font-size="10.00"> &#45;size</text>
</g>
<!-- Node12 -->
<g id="node12" class="node">
<title>Node12</title>
<g id="a_node12"><a xlink:title=" ">
<polygon fill="none" stroke="#bfbfbf" points="215.18,-1322 215.18,-1379 259.18,-1379 259.18,-1322 215.18,-1322"/>
<text text-anchor="middle" x="237.18" y="-1367" font-family="Helvetica,sans-Serif" font-size="10.00">string</text>
<polyline fill="none" stroke="#bfbfbf" points="215.18,-1360 259.18,-1360 "/>
<text text-anchor="middle" x="237.18" y="-1348" font-family="Helvetica,sans-Serif" font-size="10.00"> </text>
<polyline fill="none" stroke="#bfbfbf" points="215.18,-1341 259.18,-1341 "/>
<text text-anchor="middle" x="237.18" y="-1329" font-family="Helvetica,sans-Serif" font-size="10.00"> </text>
</a>
</g>
</g>
<!-- Node12&#45;&gt;Node2 -->
<g id="edge13" class="edge">
<title>Node12&#45;&gt;Node2</title>
<path fill="none" stroke="#404040" d="M236.99,-1321.97C236.76,-1287.46 236.34,-1226.13 235.97,-1170.84"/>
<polygon fill="none" stroke="#404040" points="235.97,-1170.78 231.93,-1164.81 235.89,-1158.78 239.93,-1164.75 235.97,-1170.78"/>
<text text-anchor="middle" x="276.68" y="-1191" font-family="Helvetica,sans-Serif" font-size="10.00"> #sample_name</text>
<text text-anchor="middle" x="276.68" y="-1180" font-family="Helvetica,sans-Serif" font-size="10.00">#final_name</text>
</g>
<!-- Node13&#45;&gt;Node1 -->
<g id="edge16" class="edge">
<title>Node13&#45;&gt;Node1</title>
<path fill="none" stroke="#404040" d="M288.59,-457.41C286.06,-445.5 283.52,-433.52 280.98,-421.6"/>
<polygon fill="none" stroke="#404040" points="280.95,-421.45 275.79,-416.41 278.46,-409.71 283.62,-414.75 280.95,-421.45"/>
<text text-anchor="middle" x="299.68" y="-431" font-family="Helvetica,sans-Serif" font-size="10.00"> &#45;body</text>
</g>
<!-- Node14&#45;&gt;Node1 -->
<g id="edge19" class="edge">
<title>Node14&#45;&gt;Node1</title>
<path fill="none" stroke="#404040" d="M173.71,-473.7C177.68,-456.41 181.71,-438.85 185.71,-421.43"/>
<polygon fill="none" stroke="#404040" points="185.72,-421.4 183.16,-414.66 188.41,-409.71 190.96,-416.45 185.72,-421.4"/>
<text text-anchor="middle" x="200.18" y="-431" font-family="Helvetica,sans-Serif" font-size="10.00"> &#45;rotors</text>
</g>
</g>
</svg>
        <g id="navigator" transform="translate(0 0)" fill="#404254">
                <rect fill="#f2f5e9" fill-opacity="0.5" stroke="#606060" stroke-width=".5" x="0" y="0" width="60" height="60"/>
                <use id="zoomplus" xlink:href="#zoomPlus" x="17" y="9" onmousedown="handleZoom(evt,'in')"/>
                <use id="zoomminus" xlink:href="#zoomMin" x="42" y="9" onmousedown="handleZoom(evt,'out')"/>
                <use id="reset" xlink:href="#resetDef" x="30" y="36" onmousedown="handleReset()"/>
                <g id="arrowUp" xlink:href="#dirArrow" transform="translate(30 24)" onmousedown="handlePan(0,-1)">
                  <use xlink:href="#rim" fill="#404040">
                        <set attributeName="fill" to="#808080" begin="arrowUp.mouseover" end="arrowUp.mouseout"/>
                  </use>
                  <path fill="none" stroke="white" stroke-width="1.5" d="M0,-3.0v7 M-2.5,-0.5L0,-3.0L2.5,-0.5"/>
                </g>
                <g id="arrowRight" xlink:href="#dirArrow" transform="rotate(90) translate(36 -43)" onmousedown="handlePan(1,0)">
                  <use xlink:href="#rim" fill="#404040">
                        <set attributeName="fill" to="#808080" begin="arrowRight.mouseover" end="arrowRight.mouseout"/>
                  </use>
                  <path fill="none" stroke="white" stroke-width="1.5" d="M0,-3.0v7 M-2.5,-0.5L0,-3.0L2.5,-0.5"/>
                </g>
                <g id="arrowDown" xlink:href="#dirArrow" transform="rotate(180) translate(-30 -48)" onmousedown="handlePan(0,1)">
                  <use xlink:href="#rim" fill="#404040">
                        <set attributeName="fill" to="#808080" begin="arrowDown.mouseover" end="arrowDown.mouseout"/>
                  </use>
                  <path fill="none" stroke="white" stroke-width="1.5" d="M0,-3.0v7 M-2.5,-0.5L0,-3.0L2.5,-0.5"/>
                </g>
                <g id="arrowLeft" xlink:href="#dirArrow" transform="rotate(270) translate(-36 17)" onmousedown="handlePan(-1,0)">
                  <use xlink:href="#rim" fill="#404040">
                        <set attributeName="fill" to="#808080" begin="arrowLeft.mouseover" end="arrowLeft.mouseout"/>
                  </use>
                  <path fill="none" stroke="white" stroke-width="1.5" d="M0,-3.0v7 M-2.5,-0.5L0,-3.0L2.5,-0.5"/>
                </g>
        </g>
        <svg viewBox="0 0 15 15" width="100%" height="30px" preserveAspectRatio="xMaxYMin meet">
         <g id="arrow_out" transform="scale(0.3 0.3)">
          <a xlink:href="class_drone__coll__graph_org.svg" target="_base">
           <rect id="button" ry="5" rx="5" y="6" x="6" height="38" width="38"
                fill="#f2f5e9" fill-opacity="0.5" stroke="#606060" stroke-width="1.0"/>
           <path id="arrow"
             d="M 11.500037,31.436501 C 11.940474,20.09759 22.043105,11.32322 32.158766,21.979434 L 37.068811,17.246167 C 37.068811,17.246167 37.088388,32 37.088388,32 L 22.160133,31.978069 C 22.160133,31.978069 26.997745,27.140456 26.997745,27.140456 C 18.528582,18.264221 13.291696,25.230495 11.500037,31.436501 z"
             style="fill:#404040;"/>
          </a>
         </g>
        </svg>
</svg>
