<?xml version="1.0" encoding="UTF-8" standalone="no"?>
<!DOCTYPE svg PUBLIC "-//W3C//DTD SVG 1.1//EN"
 "http://www.w3.org/Graphics/SVG/1.1/DTD/svg11.dtd">
<!-- Generated by graphviz version 2.43.0 (0)
 -->
<!-- Title: Pyramid Pages: 1 -->
<svg width="455pt" height="1947pt"
 viewBox="0.00 0.00 455.00 1947.00" xmlns="http://www.w3.org/2000/svg" xmlns:xlink="http://www.w3.org/1999/xlink">
<g id="graph0" class="graph" transform="scale(1 1) rotate(0) translate(4 1943)">
<title>Pyramid</title>
<!-- Node1 -->
<g id="node1" class="node">
<title>Node1</title>
<g id="a_node1"><a xlink:title="Opisuje ostroslup o podstawie prostokatnej w przestrzeni trojmwymiarowej Jest klasa dziedziczaca z kl...">
<polygon fill="#bfbfbf" stroke="black" points="177.5,-0.5 177.5,-123.5 282.5,-123.5 282.5,-0.5 177.5,-0.5"/>
<text text-anchor="middle" x="230" y="-111.5" font-family="Helvetica,sans-Serif" font-size="10.00">Pyramid</text>
<polyline fill="none" stroke="black" points="177.5,-104.5 282.5,-104.5 "/>
<text text-anchor="middle" x="230" y="-92.5" font-family="Helvetica,sans-Serif" font-size="10.00"> </text>
<polyline fill="none" stroke="black" points="177.5,-85.5 282.5,-85.5 "/>
<text text-anchor="start" x="185.5" y="-73.5" font-family="Helvetica,sans-Serif" font-size="10.00">+ Pyramid()</text>
<text text-anchor="start" x="185.5" y="-62.5" font-family="Helvetica,sans-Serif" font-size="10.00">+ Pyramid()</text>
<text text-anchor="start" x="185.5" y="-51.5" font-family="Helvetica,sans-Serif" font-size="10.00">+ centre_point()</text>
<text text-anchor="start" x="185.5" y="-40.5" font-family="Helvetica,sans-Serif" font-size="10.00">+ get_height()</text>
<text text-anchor="start" x="185.5" y="-29.5" font-family="Helvetica,sans-Serif" font-size="10.00">+ special_points()</text>
<text text-anchor="start" x="185.5" y="-18.5" font-family="Helvetica,sans-Serif" font-size="10.00">+ operator=()</text>
<text text-anchor="start" x="185.5" y="-7.5" font-family="Helvetica,sans-Serif" font-size="10.00">+ print_name()</text>
</a>
</g>
</g>
<!-- Node2 -->
<g id="node2" class="node">
<title>Node2</title>
<g id="a_node2"><a xlink:href="class_cuboid.html" target="_top" xlink:title="Opisuje prostopadloscian w przestrzeni trojwymiarowej.">
<polygon fill="none" stroke="black" points="159.5,-161.5 159.5,-592.5 300.5,-592.5 300.5,-161.5 159.5,-161.5"/>
<text text-anchor="middle" x="230" y="-580.5" font-family="Helvetica,sans-Serif" font-size="10.00">Cuboid</text>
<polyline fill="none" stroke="black" points="159.5,-573.5 300.5,-573.5 "/>
<text text-anchor="middle" x="230" y="-561.5" font-family="Helvetica,sans-Serif" font-size="10.00"> </text>
<polyline fill="none" stroke="black" points="159.5,-554.5 300.5,-554.5 "/>
<text text-anchor="start" x="167.5" y="-542.5" font-family="Helvetica,sans-Serif" font-size="10.00">+ Cuboid()</text>
<text text-anchor="start" x="167.5" y="-531.5" font-family="Helvetica,sans-Serif" font-size="10.00">+ Cuboid()</text>
<text text-anchor="start" x="167.5" y="-520.5" font-family="Helvetica,sans-Serif" font-size="10.00">+ Cuboid()</text>
<text text-anchor="start" x="167.5" y="-509.5" font-family="Helvetica,sans-Serif" font-size="10.00">+ Cuboid()</text>
<text text-anchor="start" x="167.5" y="-498.5" font-family="Helvetica,sans-Serif" font-size="10.00">+ Cuboid()</text>
<text text-anchor="start" x="167.5" y="-487.5" font-family="Helvetica,sans-Serif" font-size="10.00">+ Cuboid()</text>
<text text-anchor="start" x="167.5" y="-476.5" font-family="Helvetica,sans-Serif" font-size="10.00">+ check_cub()</text>
<text text-anchor="start" x="167.5" y="-465.5" font-family="Helvetica,sans-Serif" font-size="10.00">+ get_vec_opp()</text>
<text text-anchor="start" x="167.5" y="-454.5" font-family="Helvetica,sans-Serif" font-size="10.00">+ check_vec_opp()</text>
<text text-anchor="start" x="167.5" y="-443.5" font-family="Helvetica,sans-Serif" font-size="10.00">+ check_vec_len()</text>
<text text-anchor="start" x="167.5" y="-432.5" font-family="Helvetica,sans-Serif" font-size="10.00">+ get_vec_len()</text>
<text text-anchor="start" x="167.5" y="-421.5" font-family="Helvetica,sans-Serif" font-size="10.00">+ get_vec_perp()</text>
<text text-anchor="start" x="167.5" y="-410.5" font-family="Helvetica,sans-Serif" font-size="10.00">+ check_vec_perp()</text>
<text text-anchor="start" x="167.5" y="-399.5" font-family="Helvetica,sans-Serif" font-size="10.00">+ get_cub()</text>
<text text-anchor="start" x="167.5" y="-388.5" font-family="Helvetica,sans-Serif" font-size="10.00">+ get_cub()</text>
<text text-anchor="start" x="167.5" y="-377.5" font-family="Helvetica,sans-Serif" font-size="10.00">+ get_height()</text>
<text text-anchor="start" x="167.5" y="-366.5" font-family="Helvetica,sans-Serif" font-size="10.00">+ operator==()</text>
<text text-anchor="start" x="167.5" y="-355.5" font-family="Helvetica,sans-Serif" font-size="10.00">+ translation()</text>
<text text-anchor="start" x="167.5" y="-344.5" font-family="Helvetica,sans-Serif" font-size="10.00">+ translation_to_O()</text>
<text text-anchor="start" x="167.5" y="-333.5" font-family="Helvetica,sans-Serif" font-size="10.00">+ rotation()</text>
<text text-anchor="start" x="167.5" y="-322.5" font-family="Helvetica,sans-Serif" font-size="10.00">+ rotation_around_cen()</text>
<text text-anchor="start" x="167.5" y="-311.5" font-family="Helvetica,sans-Serif" font-size="10.00">+ centre_point()</text>
<text text-anchor="start" x="167.5" y="-300.5" font-family="Helvetica,sans-Serif" font-size="10.00">+ get_basis_centre()</text>
<text text-anchor="start" x="167.5" y="-289.5" font-family="Helvetica,sans-Serif" font-size="10.00">+ special_points()</text>
<text text-anchor="start" x="167.5" y="-278.5" font-family="Helvetica,sans-Serif" font-size="10.00">+ print_cuboid()</text>
<text text-anchor="start" x="167.5" y="-267.5" font-family="Helvetica,sans-Serif" font-size="10.00">+ print_cuboid_weird()</text>
<text text-anchor="start" x="167.5" y="-256.5" font-family="Helvetica,sans-Serif" font-size="10.00">+ print_cuboid_3D()</text>
<text text-anchor="start" x="167.5" y="-245.5" font-family="Helvetica,sans-Serif" font-size="10.00">+ Cuboid_From_Sample()</text>
<text text-anchor="start" x="167.5" y="-234.5" font-family="Helvetica,sans-Serif" font-size="10.00">+ Cuboid_To_File()</text>
<text text-anchor="start" x="167.5" y="-223.5" font-family="Helvetica,sans-Serif" font-size="10.00">+ scale_cub()</text>
<text text-anchor="start" x="167.5" y="-212.5" font-family="Helvetica,sans-Serif" font-size="10.00">+ scale_cub()</text>
<text text-anchor="start" x="167.5" y="-201.5" font-family="Helvetica,sans-Serif" font-size="10.00">+ print_name()</text>
<text text-anchor="start" x="167.5" y="-190.5" font-family="Helvetica,sans-Serif" font-size="10.00">+ print_pos()</text>
<text text-anchor="start" x="167.5" y="-179.5" font-family="Helvetica,sans-Serif" font-size="10.00">+ get_pos()</text>
<text text-anchor="start" x="167.5" y="-168.5" font-family="Helvetica,sans-Serif" font-size="10.00">+ switch_pos()</text>
</a>
</g>
</g>
<!-- Node2&#45;&gt;Node1 -->
<g id="edge1" class="edge">
<title>Node2&#45;&gt;Node1</title>
<path fill="none" stroke="midnightblue" d="M230,-151C230,-141.38 230,-132.19 230,-123.62"/>
<polygon fill="none" stroke="midnightblue" points="226.5,-151.18 230,-161.18 233.5,-151.18 226.5,-151.18"/>
</g>
<!-- Node3 -->
<g id="node3" class="node">
<title>Node3</title>
<g id="a_node3"><a xlink:href="class_block.html" target="_top" xlink:title="Opisuje figure geometryczna w przestrzeni trojwymiarowej.">
<polygon fill="none" stroke="black" points="276.5,-630.5 276.5,-841.5 401.5,-841.5 401.5,-630.5 276.5,-630.5"/>
<text text-anchor="middle" x="339" y="-829.5" font-family="Helvetica,sans-Serif" font-size="10.00">Block</text>
<polyline fill="none" stroke="black" points="276.5,-822.5 401.5,-822.5 "/>
<text text-anchor="middle" x="339" y="-810.5" font-family="Helvetica,sans-Serif" font-size="10.00"> </text>
<polyline fill="none" stroke="black" points="276.5,-803.5 401.5,-803.5 "/>
<text text-anchor="start" x="284.5" y="-791.5" font-family="Helvetica,sans-Serif" font-size="10.00">+ Block()</text>
<text text-anchor="start" x="284.5" y="-780.5" font-family="Helvetica,sans-Serif" font-size="10.00">+ Block()</text>
<text text-anchor="start" x="284.5" y="-769.5" font-family="Helvetica,sans-Serif" font-size="10.00">+ Block()</text>
<text text-anchor="start" x="284.5" y="-758.5" font-family="Helvetica,sans-Serif" font-size="10.00">+ set_sample_name()</text>
<text text-anchor="start" x="284.5" y="-747.5" font-family="Helvetica,sans-Serif" font-size="10.00">+ set_final_name()</text>
<text text-anchor="start" x="284.5" y="-736.5" font-family="Helvetica,sans-Serif" font-size="10.00">+ set_scale()</text>
<text text-anchor="start" x="284.5" y="-725.5" font-family="Helvetica,sans-Serif" font-size="10.00">+ set_scale()</text>
<text text-anchor="start" x="284.5" y="-714.5" font-family="Helvetica,sans-Serif" font-size="10.00">+ check_block()</text>
<text text-anchor="start" x="284.5" y="-703.5" font-family="Helvetica,sans-Serif" font-size="10.00">+ get_sample_name()</text>
<text text-anchor="start" x="284.5" y="-692.5" font-family="Helvetica,sans-Serif" font-size="10.00">+ get_final_name()</text>
<text text-anchor="start" x="284.5" y="-681.5" font-family="Helvetica,sans-Serif" font-size="10.00">+ get_scale()</text>
<text text-anchor="start" x="284.5" y="-670.5" font-family="Helvetica,sans-Serif" font-size="10.00">+ print_name()</text>
<text text-anchor="start" x="284.5" y="-659.5" font-family="Helvetica,sans-Serif" font-size="10.00">+ print_pos()</text>
<text text-anchor="start" x="284.5" y="-648.5" font-family="Helvetica,sans-Serif" font-size="10.00">+ get_pos()</text>
<text text-anchor="start" x="284.5" y="-637.5" font-family="Helvetica,sans-Serif" font-size="10.00">+ switch_pos()</text>
</a>
</g>
</g>
<!-- Node3&#45;&gt;Node2 -->
<g id="edge2" class="edge">
<title>Node3&#45;&gt;Node2</title>
<path fill="none" stroke="midnightblue" d="M304.05,-620.52C301.26,-611.4 298.4,-602.03 295.5,-592.51"/>
<polygon fill="none" stroke="midnightblue" points="300.77,-621.76 307.03,-630.3 307.46,-619.71 300.77,-621.76"/>
</g>
<!-- Node4 -->
<g id="node4" class="node">
<title>Node4</title>
<g id="a_node4"><a xlink:href="class_vector.html" target="_top" xlink:title=" ">
<polygon fill="none" stroke="black" points="172.5,-900.5 172.5,-1166.5 287.5,-1166.5 287.5,-900.5 172.5,-900.5"/>
<text text-anchor="middle" x="230" y="-1154.5" font-family="Helvetica,sans-Serif" font-size="10.00">Vector&lt; double, 3 &gt;</text>
<polyline fill="none" stroke="black" points="172.5,-1147.5 287.5,-1147.5 "/>
<text text-anchor="middle" x="230" y="-1135.5" font-family="Helvetica,sans-Serif" font-size="10.00"> </text>
<polyline fill="none" stroke="black" points="172.5,-1128.5 287.5,-1128.5 "/>
<text text-anchor="start" x="180.5" y="-1116.5" font-family="Helvetica,sans-Serif" font-size="10.00">+ Vector()</text>
<text text-anchor="start" x="180.5" y="-1105.5" font-family="Helvetica,sans-Serif" font-size="10.00">+ Vector()</text>
<text text-anchor="start" x="180.5" y="-1094.5" font-family="Helvetica,sans-Serif" font-size="10.00">+ operator+()</text>
<text text-anchor="start" x="180.5" y="-1083.5" font-family="Helvetica,sans-Serif" font-size="10.00">+ operator&#45;()</text>
<text text-anchor="start" x="180.5" y="-1072.5" font-family="Helvetica,sans-Serif" font-size="10.00">+ operator*()</text>
<text text-anchor="start" x="180.5" y="-1061.5" font-family="Helvetica,sans-Serif" font-size="10.00">+ operator/()</text>
<text text-anchor="start" x="180.5" y="-1050.5" font-family="Helvetica,sans-Serif" font-size="10.00">+ operator==()</text>
<text text-anchor="start" x="180.5" y="-1039.5" font-family="Helvetica,sans-Serif" font-size="10.00">+ scale_vec()</text>
<text text-anchor="start" x="180.5" y="-1028.5" font-family="Helvetica,sans-Serif" font-size="10.00">+ rotate()</text>
<text text-anchor="start" x="180.5" y="-1017.5" font-family="Helvetica,sans-Serif" font-size="10.00">+ rotate()</text>
<text text-anchor="start" x="180.5" y="-1006.5" font-family="Helvetica,sans-Serif" font-size="10.00">+ rotate()</text>
<text text-anchor="start" x="180.5" y="-995.5" font-family="Helvetica,sans-Serif" font-size="10.00">+ modulus2()</text>
<text text-anchor="start" x="180.5" y="-984.5" font-family="Helvetica,sans-Serif" font-size="10.00">+ get_vec()</text>
<text text-anchor="start" x="180.5" y="-973.5" font-family="Helvetica,sans-Serif" font-size="10.00">+ get_len()</text>
<text text-anchor="start" x="180.5" y="-962.5" font-family="Helvetica,sans-Serif" font-size="10.00">+ get_slope_angle()</text>
<text text-anchor="start" x="180.5" y="-951.5" font-family="Helvetica,sans-Serif" font-size="10.00">+ get_slope_angle()</text>
<text text-anchor="start" x="180.5" y="-940.5" font-family="Helvetica,sans-Serif" font-size="10.00">+ get_slope_angle()</text>
<text text-anchor="start" x="180.5" y="-929.5" font-family="Helvetica,sans-Serif" font-size="10.00">+ operator[]()</text>
<text text-anchor="start" x="180.5" y="-918.5" font-family="Helvetica,sans-Serif" font-size="10.00">+ operator[]()</text>
<text text-anchor="start" x="180.5" y="-907.5" font-family="Helvetica,sans-Serif" font-size="10.00">+ scalar_prod()</text>
</a>
</g>
</g>
<!-- Node4&#45;&gt;Node2 -->
<g id="edge15" class="edge">
<title>Node4&#45;&gt;Node2</title>
<path fill="none" stroke="#404040" d="M227.65,-900.3C227.38,-880.76 227.15,-860.85 227,-842 226.26,-747.78 226.44,-724.22 227,-630 227.05,-621.75 227.11,-613.34 227.17,-604.85"/>
<polygon fill="none" stroke="#404040" points="227.17,-604.8 223.22,-598.77 227.27,-592.8 231.22,-598.84 227.17,-604.8"/>
<text text-anchor="middle" x="247" y="-744.5" font-family="Helvetica,sans-Serif" font-size="10.00"> #cuts</text>
<text text-anchor="middle" x="247" y="-733.5" font-family="Helvetica,sans-Serif" font-size="10.00">#centre</text>
<text text-anchor="middle" x="247" y="-722.5" font-family="Helvetica,sans-Serif" font-size="10.00">#tops</text>
</g>
<!-- Node4&#45;&gt;Node3 -->
<g id="edge3" class="edge">
<title>Node4&#45;&gt;Node3</title>
<path fill="none" stroke="#404040" d="M278.76,-900.31C284.54,-884.63 290.41,-868.72 296.1,-853.29"/>
<polygon fill="none" stroke="#404040" points="296.26,-852.86 294.59,-845.84 300.42,-841.6 302.09,-848.61 296.26,-852.86"/>
<text text-anchor="middle" x="310.5" y="-868.5" font-family="Helvetica,sans-Serif" font-size="10.00"> #scale</text>
</g>
<!-- Node5 -->
<g id="node5" class="node">
<title>Node5</title>
<g id="a_node5"><a xlink:href="class_count.html" target="_top" xlink:title=" ">
<polygon fill="none" stroke="black" points="0,-1528.5 0,-1651.5 134,-1651.5 134,-1528.5 0,-1528.5"/>
<text text-anchor="start" x="8" y="-1639.5" font-family="Helvetica,sans-Serif" font-size="10.00">Count&lt; Vector&lt; double,</text>
<text text-anchor="middle" x="67" y="-1628.5" font-family="Helvetica,sans-Serif" font-size="10.00"> SIZE &gt; &gt;</text>
<polyline fill="none" stroke="black" points="0,-1621.5 134,-1621.5 "/>
<text text-anchor="middle" x="67" y="-1609.5" font-family="Helvetica,sans-Serif" font-size="10.00"> </text>
<polyline fill="none" stroke="black" points="0,-1602.5 134,-1602.5 "/>
<text text-anchor="start" x="8" y="-1590.5" font-family="Helvetica,sans-Serif" font-size="10.00">+ Count()</text>
<text text-anchor="start" x="8" y="-1579.5" font-family="Helvetica,sans-Serif" font-size="10.00">+ Count()</text>
<text text-anchor="start" x="8" y="-1568.5" font-family="Helvetica,sans-Serif" font-size="10.00">+ ~Count()</text>
<text text-anchor="start" x="8" y="-1557.5" font-family="Helvetica,sans-Serif" font-size="10.00">+ get_count()</text>
<text text-anchor="start" x="8" y="-1546.5" font-family="Helvetica,sans-Serif" font-size="10.00">+ print_count()</text>
<text text-anchor="start" x="8" y="-1535.5" font-family="Helvetica,sans-Serif" font-size="10.00">+ zero_count()</text>
</a>
</g>
</g>
<!-- Node5&#45;&gt;Node4 -->
<g id="edge4" class="edge">
<title>Node5&#45;&gt;Node4</title>
<path fill="none" stroke="midnightblue" d="M82.02,-1518.36C98.78,-1442.44 127.93,-1318.58 161,-1214 165.88,-1198.56 171.39,-1182.53 177.11,-1166.68"/>
<polygon fill="none" stroke="midnightblue" points="78.56,-1517.77 79.83,-1528.29 85.4,-1519.28 78.56,-1517.77"/>
</g>
<!-- Node6 -->
<g id="node6" class="node">
<title>Node6</title>
<g id="a_node6"><a xlink:title=" ">
<polygon fill="none" stroke="#bfbfbf" points="35.5,-1881.5 35.5,-1938.5 64.5,-1938.5 64.5,-1881.5 35.5,-1881.5"/>
<text text-anchor="middle" x="50" y="-1926.5" font-family="Helvetica,sans-Serif" font-size="10.00">int</text>
<polyline fill="none" stroke="#bfbfbf" points="35.5,-1919.5 64.5,-1919.5 "/>
<text text-anchor="middle" x="50" y="-1907.5" font-family="Helvetica,sans-Serif" font-size="10.00"> </text>
<polyline fill="none" stroke="#bfbfbf" points="35.5,-1900.5 64.5,-1900.5 "/>
<text text-anchor="middle" x="50" y="-1888.5" font-family="Helvetica,sans-Serif" font-size="10.00"> </text>
</a>
</g>
</g>
<!-- Node6&#45;&gt;Node5 -->
<g id="edge5" class="edge">
<title>Node6&#45;&gt;Node5</title>
<path fill="none" stroke="#404040" d="M47.16,-1881.15C45.58,-1864.33 43.79,-1842.46 43,-1823 40.96,-1772.82 38.05,-1759.98 43,-1710 44.79,-1691.96 47.42,-1687.77 51,-1670 51.41,-1667.97 51.82,-1665.92 52.24,-1663.84"/>
<polygon fill="none" stroke="#404040" points="52.29,-1663.57 49.56,-1656.9 54.67,-1651.81 57.4,-1658.48 52.29,-1663.57"/>
<text text-anchor="middle" x="86" y="-1769.5" font-family="Helvetica,sans-Serif" font-size="10.00"> #objects_alive</text>
<text text-anchor="middle" x="86" y="-1758.5" font-family="Helvetica,sans-Serif" font-size="10.00">#objects_created</text>
</g>
<!-- Node7 -->
<g id="node7" class="node">
<title>Node7</title>
<g id="a_node7"><a xlink:href="class_count.html" target="_top" xlink:title="Pozwala na liczenie instancji stworzonych obiektow.">
<polygon fill="none" stroke="black" points="138,-1710.5 138,-1822.5 228,-1822.5 228,-1710.5 138,-1710.5"/>
<text text-anchor="middle" x="183" y="-1810.5" font-family="Helvetica,sans-Serif" font-size="10.00">Count&lt; T &gt;</text>
<polyline fill="none" stroke="black" points="138,-1803.5 228,-1803.5 "/>
<text text-anchor="middle" x="183" y="-1791.5" font-family="Helvetica,sans-Serif" font-size="10.00"> </text>
<polyline fill="none" stroke="black" points="138,-1784.5 228,-1784.5 "/>
<text text-anchor="start" x="146" y="-1772.5" font-family="Helvetica,sans-Serif" font-size="10.00">+ Count()</text>
<text text-anchor="start" x="146" y="-1761.5" font-family="Helvetica,sans-Serif" font-size="10.00">+ Count()</text>
<text text-anchor="start" x="146" y="-1750.5" font-family="Helvetica,sans-Serif" font-size="10.00">+ ~Count()</text>
<text text-anchor="start" x="146" y="-1739.5" font-family="Helvetica,sans-Serif" font-size="10.00">+ get_count()</text>
<text text-anchor="start" x="146" y="-1728.5" font-family="Helvetica,sans-Serif" font-size="10.00">+ print_count()</text>
<text text-anchor="start" x="146" y="-1717.5" font-family="Helvetica,sans-Serif" font-size="10.00">+ zero_count()</text>
</a>
</g>
</g>
<!-- Node6&#45;&gt;Node7 -->
<g id="edge7" class="edge">
<title>Node6&#45;&gt;Node7</title>
<path fill="none" stroke="#404040" d="M64.74,-1893.32C80.34,-1876.72 105.89,-1849.54 129.25,-1824.68"/>
<polygon fill="none" stroke="#404040" points="129.52,-1824.39 130.72,-1817.28 137.74,-1815.65 136.55,-1822.76 129.52,-1824.39"/>
<text text-anchor="middle" x="156" y="-1855" font-family="Helvetica,sans-Serif" font-size="10.00"> #objects_alive</text>
<text text-anchor="middle" x="156" y="-1844" font-family="Helvetica,sans-Serif" font-size="10.00">#objects_created</text>
</g>
<!-- Node7&#45;&gt;Node5 -->
<g id="edge6" class="edge">
<title>Node7&#45;&gt;Node5</title>
<path fill="none" stroke="orange" d="M129.75,-1713.55C127.85,-1712.3 125.93,-1711.11 124,-1710 99.88,-1696.09 80.62,-1714.34 64,-1692 55.41,-1680.46 52.64,-1665.95 52.83,-1651.56"/>
<polygon fill="orange" stroke="orange" points="127.76,-1716.43 137.93,-1719.38 131.82,-1710.73 127.76,-1716.43"/>
<text text-anchor="middle" x="134" y="-1678.5" font-family="Helvetica,sans-Serif" font-size="10.00"> &lt; Vector&lt; double, SIZE &gt; &gt;</text>
</g>
<!-- Node10 -->
<g id="node10" class="node">
<title>Node10</title>
<g id="a_node10"><a xlink:href="class_count.html" target="_top" xlink:title=" ">
<polygon fill="none" stroke="black" points="168.5,-1528.5 168.5,-1651.5 291.5,-1651.5 291.5,-1528.5 168.5,-1528.5"/>
<text text-anchor="start" x="176.5" y="-1639.5" font-family="Helvetica,sans-Serif" font-size="10.00">Count&lt; Vector&lt; type,</text>
<text text-anchor="middle" x="230" y="-1628.5" font-family="Helvetica,sans-Serif" font-size="10.00"> SIZE &gt; &gt;</text>
<polyline fill="none" stroke="black" points="168.5,-1621.5 291.5,-1621.5 "/>
<text text-anchor="middle" x="230" y="-1609.5" font-family="Helvetica,sans-Serif" font-size="10.00"> </text>
<polyline fill="none" stroke="black" points="168.5,-1602.5 291.5,-1602.5 "/>
<text text-anchor="start" x="176.5" y="-1590.5" font-family="Helvetica,sans-Serif" font-size="10.00">+ Count()</text>
<text text-anchor="start" x="176.5" y="-1579.5" font-family="Helvetica,sans-Serif" font-size="10.00">+ Count()</text>
<text text-anchor="start" x="176.5" y="-1568.5" font-family="Helvetica,sans-Serif" font-size="10.00">+ ~Count()</text>
<text text-anchor="start" x="176.5" y="-1557.5" font-family="Helvetica,sans-Serif" font-size="10.00">+ get_count()</text>
<text text-anchor="start" x="176.5" y="-1546.5" font-family="Helvetica,sans-Serif" font-size="10.00">+ print_count()</text>
<text text-anchor="start" x="176.5" y="-1535.5" font-family="Helvetica,sans-Serif" font-size="10.00">+ zero_count()</text>
</a>
</g>
</g>
<!-- Node7&#45;&gt;Node10 -->
<g id="edge12" class="edge">
<title>Node7&#45;&gt;Node10</title>
<path fill="none" stroke="orange" d="M205.54,-1700.52C206.4,-1697.65 207.22,-1694.8 208,-1692 211.61,-1679.03 214.99,-1664.99 217.97,-1651.63"/>
<polygon fill="orange" stroke="orange" points="202.12,-1699.74 202.52,-1710.33 208.81,-1701.8 202.12,-1699.74"/>
<text text-anchor="middle" x="278.5" y="-1678.5" font-family="Helvetica,sans-Serif" font-size="10.00"> &lt; Vector&lt; type, SIZE &gt; &gt;</text>
</g>
<!-- Node8 -->
<g id="node8" class="node">
<title>Node8</title>
<g id="a_node8"><a xlink:title=" ">
<polygon fill="none" stroke="#bfbfbf" points="308,-1319 308,-1376 358,-1376 358,-1319 308,-1319"/>
<text text-anchor="middle" x="333" y="-1364" font-family="Helvetica,sans-Serif" font-size="10.00">double</text>
<polyline fill="none" stroke="#bfbfbf" points="308,-1357 358,-1357 "/>
<text text-anchor="middle" x="333" y="-1345" font-family="Helvetica,sans-Serif" font-size="10.00"> </text>
<polyline fill="none" stroke="#bfbfbf" points="308,-1338 358,-1338 "/>
<text text-anchor="middle" x="333" y="-1326" font-family="Helvetica,sans-Serif" font-size="10.00"> </text>
</a>
</g>
</g>
<!-- Node8&#45;&gt;Node4 -->
<g id="edge8" class="edge">
<title>Node8&#45;&gt;Node4</title>
<path fill="none" stroke="#404040" d="M330.66,-1318.76C327.35,-1286.11 319.95,-1230.56 305,-1185 301.38,-1173.97 297.08,-1162.74 292.39,-1151.64"/>
<polygon fill="none" stroke="#404040" points="292.37,-1151.59 286.31,-1147.68 287.59,-1140.59 293.65,-1144.49 292.37,-1151.59"/>
<text text-anchor="middle" x="321.5" y="-1188" font-family="Helvetica,sans-Serif" font-size="10.00"> &#45;size</text>
</g>
<!-- Node9 -->
<g id="node9" class="node">
<title>Node9</title>
<g id="a_node9"><a xlink:href="class_vector.html" target="_top" xlink:title="Opisuje wektor o SIZE&#45;wierszach.">
<polygon fill="none" stroke="black" points="170.5,-1214.5 170.5,-1480.5 289.5,-1480.5 289.5,-1214.5 170.5,-1214.5"/>
<text text-anchor="middle" x="230" y="-1468.5" font-family="Helvetica,sans-Serif" font-size="10.00">Vector&lt; type, SIZE &gt;</text>
<polyline fill="none" stroke="black" points="170.5,-1461.5 289.5,-1461.5 "/>
<text text-anchor="middle" x="230" y="-1449.5" font-family="Helvetica,sans-Serif" font-size="10.00"> </text>
<polyline fill="none" stroke="black" points="170.5,-1442.5 289.5,-1442.5 "/>
<text text-anchor="start" x="178.5" y="-1430.5" font-family="Helvetica,sans-Serif" font-size="10.00">+ Vector()</text>
<text text-anchor="start" x="178.5" y="-1419.5" font-family="Helvetica,sans-Serif" font-size="10.00">+ Vector()</text>
<text text-anchor="start" x="178.5" y="-1408.5" font-family="Helvetica,sans-Serif" font-size="10.00">+ operator+()</text>
<text text-anchor="start" x="178.5" y="-1397.5" font-family="Helvetica,sans-Serif" font-size="10.00">+ operator&#45;()</text>
<text text-anchor="start" x="178.5" y="-1386.5" font-family="Helvetica,sans-Serif" font-size="10.00">+ operator*()</text>
<text text-anchor="start" x="178.5" y="-1375.5" font-family="Helvetica,sans-Serif" font-size="10.00">+ operator/()</text>
<text text-anchor="start" x="178.5" y="-1364.5" font-family="Helvetica,sans-Serif" font-size="10.00">+ operator==()</text>
<text text-anchor="start" x="178.5" y="-1353.5" font-family="Helvetica,sans-Serif" font-size="10.00">+ scale_vec()</text>
<text text-anchor="start" x="178.5" y="-1342.5" font-family="Helvetica,sans-Serif" font-size="10.00">+ rotate()</text>
<text text-anchor="start" x="178.5" y="-1331.5" font-family="Helvetica,sans-Serif" font-size="10.00">+ modulus2()</text>
<text text-anchor="start" x="178.5" y="-1320.5" font-family="Helvetica,sans-Serif" font-size="10.00">+ get_vec()</text>
<text text-anchor="start" x="178.5" y="-1309.5" font-family="Helvetica,sans-Serif" font-size="10.00">+ get_len()</text>
<text text-anchor="start" x="178.5" y="-1298.5" font-family="Helvetica,sans-Serif" font-size="10.00">+ get_slope_angle()</text>
<text text-anchor="start" x="178.5" y="-1287.5" font-family="Helvetica,sans-Serif" font-size="10.00">+ operator[]()</text>
<text text-anchor="start" x="178.5" y="-1276.5" font-family="Helvetica,sans-Serif" font-size="10.00">+ operator[]()</text>
<text text-anchor="start" x="178.5" y="-1265.5" font-family="Helvetica,sans-Serif" font-size="10.00">+ scalar_prod()</text>
<text text-anchor="start" x="178.5" y="-1254.5" font-family="Helvetica,sans-Serif" font-size="10.00">+ rotate()</text>
<text text-anchor="start" x="178.5" y="-1243.5" font-family="Helvetica,sans-Serif" font-size="10.00">+ get_slope_angle()</text>
<text text-anchor="start" x="178.5" y="-1232.5" font-family="Helvetica,sans-Serif" font-size="10.00">+ rotate()</text>
<text text-anchor="start" x="178.5" y="-1221.5" font-family="Helvetica,sans-Serif" font-size="10.00">+ get_slope_angle()</text>
</a>
</g>
</g>
<!-- Node9&#45;&gt;Node4 -->
<g id="edge9" class="edge">
<title>Node9&#45;&gt;Node4</title>
<path fill="none" stroke="orange" d="M230,-1204.16C230,-1191.62 230,-1178.97 230,-1166.52"/>
<polygon fill="orange" stroke="orange" points="226.5,-1204.18 230,-1214.18 233.5,-1204.18 226.5,-1204.18"/>
<text text-anchor="middle" x="265.5" y="-1188" font-family="Helvetica,sans-Serif" font-size="10.00"> &lt; double, 3 &gt;</text>
</g>
<!-- Node10&#45;&gt;Node9 -->
<g id="edge10" class="edge">
<title>Node10&#45;&gt;Node9</title>
<path fill="none" stroke="midnightblue" d="M230,-1518.05C230,-1506.14 230,-1493.44 230,-1480.56"/>
<polygon fill="none" stroke="midnightblue" points="226.5,-1518.31 230,-1528.31 233.5,-1518.31 226.5,-1518.31"/>
</g>
<!-- Node11 -->
<g id="node11" class="node">
<title>Node11</title>
<g id="a_node11"><a xlink:href="classstatic_01int.html" target="_top" xlink:title=" ">
<polygon fill="none" stroke="black" points="352.5,-1738 352.5,-1795 411.5,-1795 411.5,-1738 352.5,-1738"/>
<text text-anchor="middle" x="382" y="-1783" font-family="Helvetica,sans-Serif" font-size="10.00">static int</text>
<polyline fill="none" stroke="black" points="352.5,-1776 411.5,-1776 "/>
<text text-anchor="middle" x="382" y="-1764" font-family="Helvetica,sans-Serif" font-size="10.00"> </text>
<polyline fill="none" stroke="black" points="352.5,-1757 411.5,-1757 "/>
<text text-anchor="middle" x="382" y="-1745" font-family="Helvetica,sans-Serif" font-size="10.00"> </text>
</a>
</g>
</g>
<!-- Node11&#45;&gt;Node10 -->
<g id="edge11" class="edge">
<title>Node11&#45;&gt;Node10</title>
<path fill="none" stroke="#404040" d="M378.15,-1737.96C373.88,-1716.9 365.03,-1688.43 347,-1670 333.74,-1656.45 323.12,-1661.31 302.46,-1651.83"/>
<polygon fill="none" stroke="#404040" points="302.4,-1651.8 295.22,-1652.47 291.84,-1646.11 299.02,-1645.43 302.4,-1651.8"/>
<text text-anchor="middle" x="404" y="-1684" font-family="Helvetica,sans-Serif" font-size="10.00"> #objects_alive</text>
<text text-anchor="middle" x="404" y="-1673" font-family="Helvetica,sans-Serif" font-size="10.00">#objects_created</text>
</g>
<!-- Node12 -->
<g id="node12" class="node">
<title>Node12</title>
<g id="a_node12"><a xlink:title=" ">
<polygon fill="none" stroke="#bfbfbf" points="310,-1561.5 310,-1618.5 348,-1618.5 348,-1561.5 310,-1561.5"/>
<text text-anchor="middle" x="329" y="-1606.5" font-family="Helvetica,sans-Serif" font-size="10.00">type</text>
<polyline fill="none" stroke="#bfbfbf" points="310,-1599.5 348,-1599.5 "/>
<text text-anchor="middle" x="329" y="-1587.5" font-family="Helvetica,sans-Serif" font-size="10.00"> </text>
<polyline fill="none" stroke="#bfbfbf" points="310,-1580.5 348,-1580.5 "/>
<text text-anchor="middle" x="329" y="-1568.5" font-family="Helvetica,sans-Serif" font-size="10.00"> </text>
</a>
</g>
</g>
<!-- Node12&#45;&gt;Node9 -->
<g id="edge13" class="edge">
<title>Node12&#45;&gt;Node9</title>
<path fill="none" stroke="#404040" d="M317.64,-1561.41C310.27,-1543.49 300.02,-1518.6 289.13,-1492.14"/>
<polygon fill="none" stroke="#404040" points="289,-1491.82 283.01,-1487.79 284.43,-1480.72 290.41,-1484.75 289,-1491.82"/>
<text text-anchor="middle" x="308.5" y="-1502" font-family="Helvetica,sans-Serif" font-size="10.00"> &#45;size</text>
</g>
<!-- Node13 -->
<g id="node13" class="node">
<title>Node13</title>
<g id="a_node13"><a xlink:title=" ">
<polygon fill="none" stroke="#bfbfbf" points="317,-1005 317,-1062 361,-1062 361,-1005 317,-1005"/>
<text text-anchor="middle" x="339" y="-1050" font-family="Helvetica,sans-Serif" font-size="10.00">string</text>
<polyline fill="none" stroke="#bfbfbf" points="317,-1043 361,-1043 "/>
<text text-anchor="middle" x="339" y="-1031" font-family="Helvetica,sans-Serif" font-size="10.00"> </text>
<polyline fill="none" stroke="#bfbfbf" points="317,-1024 361,-1024 "/>
<text text-anchor="middle" x="339" y="-1012" font-family="Helvetica,sans-Serif" font-size="10.00"> </text>
</a>
</g>
</g>
<!-- Node13&#45;&gt;Node3 -->
<g id="edge14" class="edge">
<title>Node13&#45;&gt;Node3</title>
<path fill="none" stroke="#404040" d="M339,-1004.97C339,-970.46 339,-909.13 339,-853.84"/>
<polygon fill="none" stroke="#404040" points="339,-853.78 335,-847.78 339,-841.78 343,-847.78 339,-853.78"/>
<text text-anchor="middle" x="379.5" y="-874" font-family="Helvetica,sans-Serif" font-size="10.00"> #sample_name</text>
<text text-anchor="middle" x="379.5" y="-863" font-family="Helvetica,sans-Serif" font-size="10.00">#final_name</text>
</g>
</g>
</svg>
