<?xml version="1.0" encoding="UTF-8" standalone="no"?>
<!DOCTYPE svg PUBLIC "-//W3C//DTD SVG 1.1//EN"
 "http://www.w3.org/Graphics/SVG/1.1/DTD/svg11.dtd">
<!-- Generated by graphviz version 2.43.0 (0)
 -->
<!-- Title: PzG::InfoPunktyDoRysowania Pages: 1 -->
<!--zoomable 595 -->
<svg id="main" version="1.1" xmlns="http://www.w3.org/2000/svg" xmlns:xlink="http://www.w3.org/1999/xlink" xml:space="preserve" onload="init(evt)">
<style type="text/css"><![CDATA[
.edge:hover path { stroke: red; }
.edge:hover polygon { stroke: red; fill: red; }
]]></style>
<script type="text/javascript"><![CDATA[
var edges = document.getElementsByTagName('g');
if (edges && edges.length) {
  for (var i=0;i<edges.length;i++) {
    if (edges[i].id.substr(0,4)=='edge') {
      edges[i].setAttribute('class','edge');
    }
  }
}
]]></script>
        <defs>
                <circle id="rim" cx="0" cy="0" r="7"/>
                <circle id="rim2" cx="0" cy="0" r="3.5"/>
                <g id="zoomPlus">
                        <use xlink:href="#rim" fill="#404040">
                                <set attributeName="fill" to="#808080" begin="zoomplus.mouseover" end="zoomplus.mouseout"/>
                        </use>
                        <path d="M-4,0h8M0,-4v8" fill="none" stroke="white" stroke-width="1.5" pointer-events="none"/>
                </g>
                <g id="zoomMin">
                        <use xlink:href="#rim" fill="#404040">
                                <set attributeName="fill" to="#808080" begin="zoomminus.mouseover" end="zoomminus.mouseout"/>
                        </use>
                        <path d="M-4,0h8" fill="none" stroke="white" stroke-width="1.5" pointer-events="none"/>
                </g>
                <g id="dirArrow">
                        <path fill="none" stroke="white" stroke-width="1.5" d="M0,-3.0v7 M-2.5,-0.5L0,-3.0L2.5,-0.5"/>
                </g>
               <g id="resetDef">
                       <use xlink:href="#rim2" fill="#404040">
                               <set attributeName="fill" to="#808080" begin="reset.mouseover" end="reset.mouseout"/>
                       </use>
               </g>
        </defs>

<script type="text/javascript">
var viewWidth = 380;
var viewHeight = 595;
var sectionId = 'dynsection-0';
</script>
<script xlink:href="svgpan.js"/>
<svg id="graph" class="graph">
<g id="viewport">
<title>PzG::InfoPunktyDoRysowania</title>
<!-- Node1 -->
<g id="node1" class="node">
<title>Node1</title>
<g id="a_node1"><a xlink:title="Modeluje zestaw informacji o rysowanych punktach.">
<polygon fill="#bfbfbf" stroke="black" points="56.5,-0.5 56.5,-211.5 280.5,-211.5 280.5,-0.5 56.5,-0.5"/>
<text text-anchor="middle" x="168.5" y="-199.5" font-family="Helvetica,sans-Serif" font-size="10.00">PzG::InfoPunktyDoRysowania</text>
<polyline fill="none" stroke="black" points="56.5,-192.5 280.5,-192.5 "/>
<text text-anchor="middle" x="168.5" y="-180.5" font-family="Helvetica,sans-Serif" font-size="10.00"> </text>
<polyline fill="none" stroke="black" points="56.5,-173.5 280.5,-173.5 "/>
<text text-anchor="start" x="64.5" y="-161.5" font-family="Helvetica,sans-Serif" font-size="10.00">+ InfoPunktyDoRysowania()</text>
<text text-anchor="start" x="64.5" y="-150.5" font-family="Helvetica,sans-Serif" font-size="10.00">+ UstawWspolrzEtykietyDlaPrzesuniecia()</text>
<text text-anchor="start" x="64.5" y="-139.5" font-family="Helvetica,sans-Serif" font-size="10.00">+ WezEtykiete()</text>
<text text-anchor="start" x="64.5" y="-128.5" font-family="Helvetica,sans-Serif" font-size="10.00">+ WezWspolrzEtykiety()</text>
<text text-anchor="start" x="64.5" y="-117.5" font-family="Helvetica,sans-Serif" font-size="10.00">+ operator&lt;()</text>
<text text-anchor="start" x="64.5" y="-106.5" font-family="Helvetica,sans-Serif" font-size="10.00">+ WezAtrybuty()</text>
<text text-anchor="start" x="64.5" y="-95.5" font-family="Helvetica,sans-Serif" font-size="10.00">+ OtworzAtrybuty()</text>
<text text-anchor="start" x="64.5" y="-84.5" font-family="Helvetica,sans-Serif" font-size="10.00">+ WezWspolrz()</text>
<text text-anchor="start" x="64.5" y="-73.5" font-family="Helvetica,sans-Serif" font-size="10.00">+ OtworzWspolrz()</text>
<text text-anchor="start" x="64.5" y="-62.5" font-family="Helvetica,sans-Serif" font-size="10.00">+ DodajDoEtykiety()</text>
<text text-anchor="start" x="64.5" y="-51.5" font-family="Helvetica,sans-Serif" font-size="10.00">+ ZmienPrzesEtykiety</text>
<text text-anchor="start" x="64.5" y="-40.5" font-family="Helvetica,sans-Serif" font-size="10.00">_WzgWspoPunktu()</text>
<text text-anchor="start" x="64.5" y="-29.5" font-family="Helvetica,sans-Serif" font-size="10.00">+ ZmienPrzesEtykiety</text>
<text text-anchor="start" x="64.5" y="-18.5" font-family="Helvetica,sans-Serif" font-size="10.00">_WzgRozmPunktu()</text>
<text text-anchor="start" x="64.5" y="-7.5" font-family="Helvetica,sans-Serif" font-size="10.00">&#45; WyznaczWspolrzEtykiety()</text>
</a>
</g>
</g>
<!-- Node2 -->
<g id="node2" class="node">
<title>Node2</title>
<g id="a_node2"><a xlink:href="class_pz_g_1_1_atrybuty_rysowania.html" target="_top" xlink:title="Modeluje zestaw informacji będący atrybutami rysowania.">
<polygon fill="none" stroke="black" points="0,-314.5 0,-459.5 137,-459.5 137,-314.5 0,-314.5"/>
<text text-anchor="middle" x="68.5" y="-447.5" font-family="Helvetica,sans-Serif" font-size="10.00">PzG::AtrybutyRysowania</text>
<polyline fill="none" stroke="black" points="0,-440.5 137,-440.5 "/>
<text text-anchor="middle" x="68.5" y="-428.5" font-family="Helvetica,sans-Serif" font-size="10.00"> </text>
<polyline fill="none" stroke="black" points="0,-421.5 137,-421.5 "/>
<text text-anchor="start" x="8" y="-409.5" font-family="Helvetica,sans-Serif" font-size="10.00">+ AtrybutyRysowania()</text>
<text text-anchor="start" x="8" y="-398.5" font-family="Helvetica,sans-Serif" font-size="10.00">+ operator&lt;()</text>
<text text-anchor="start" x="8" y="-387.5" font-family="Helvetica,sans-Serif" font-size="10.00">+ operator==()</text>
<text text-anchor="start" x="8" y="-376.5" font-family="Helvetica,sans-Serif" font-size="10.00">+ WezStyl()</text>
<text text-anchor="start" x="8" y="-365.5" font-family="Helvetica,sans-Serif" font-size="10.00">+ WezKolor()</text>
<text text-anchor="start" x="8" y="-354.5" font-family="Helvetica,sans-Serif" font-size="10.00">+ WezRozmiar()</text>
<text text-anchor="start" x="8" y="-343.5" font-family="Helvetica,sans-Serif" font-size="10.00">+ ZmienStyl()</text>
<text text-anchor="start" x="8" y="-332.5" font-family="Helvetica,sans-Serif" font-size="10.00">+ ZmienKolor()</text>
<text text-anchor="start" x="8" y="-321.5" font-family="Helvetica,sans-Serif" font-size="10.00">+ ZmienRozmiar()</text>
</a>
</g>
</g>
<!-- Node2&#45;&gt;Node1 -->
<g id="edge1" class="edge">
<title>Node2&#45;&gt;Node1</title>
<path fill="none" stroke="#404040" d="M90.92,-314.23C99.49,-287.64 109.6,-257.33 119.5,-230 120.36,-227.64 121.23,-225.25 122.11,-222.85"/>
<polygon fill="none" stroke="#404040" points="122.15,-222.75 120.5,-215.73 126.35,-211.51 128,-218.53 122.15,-222.75"/>
<text text-anchor="middle" x="139" y="-260.5" font-family="Helvetica,sans-Serif" font-size="10.00"> &#45;_Atryb</text>
</g>
<!-- Node3 -->
<g id="node3" class="node">
<title>Node3</title>
<g id="a_node3"><a xlink:title=" ">
<polygon fill="none" stroke="#bfbfbf" points="54,-529.5 54,-586.5 83,-586.5 83,-529.5 54,-529.5"/>
<text text-anchor="middle" x="68.5" y="-574.5" font-family="Helvetica,sans-Serif" font-size="10.00">int</text>
<polyline fill="none" stroke="#bfbfbf" points="54,-567.5 83,-567.5 "/>
<text text-anchor="middle" x="68.5" y="-555.5" font-family="Helvetica,sans-Serif" font-size="10.00"> </text>
<polyline fill="none" stroke="#bfbfbf" points="54,-548.5 83,-548.5 "/>
<text text-anchor="middle" x="68.5" y="-536.5" font-family="Helvetica,sans-Serif" font-size="10.00"> </text>
</a>
</g>
</g>
<!-- Node3&#45;&gt;Node2 -->
<g id="edge2" class="edge">
<title>Node3&#45;&gt;Node2</title>
<path fill="none" stroke="#404040" d="M68.5,-529.47C68.5,-513.6 68.5,-492.71 68.5,-471.87"/>
<polygon fill="none" stroke="#404040" points="68.5,-471.64 64.5,-465.64 68.5,-459.64 72.5,-465.64 68.5,-471.64"/>
<text text-anchor="middle" x="93.5" y="-503" font-family="Helvetica,sans-Serif" font-size="10.00"> &#45;_Styl</text>
<text text-anchor="middle" x="93.5" y="-492" font-family="Helvetica,sans-Serif" font-size="10.00">&#45;_Rozmiar</text>
<text text-anchor="middle" x="93.5" y="-481" font-family="Helvetica,sans-Serif" font-size="10.00">&#45;_Kolor</text>
</g>
<!-- Node4 -->
<g id="node4" class="node">
<title>Node4</title>
<g id="a_node4"><a xlink:href="class_pz_g_1_1_wektor2f.html" target="_top" xlink:title="Klasa pomocnicza, pozwala modelować wektor dwuwymiarowy.">
<polygon fill="none" stroke="black" points="155,-325.5 155,-448.5 248,-448.5 248,-325.5 155,-325.5"/>
<text text-anchor="middle" x="201.5" y="-436.5" font-family="Helvetica,sans-Serif" font-size="10.00">PzG::Wektor2f</text>
<polyline fill="none" stroke="black" points="155,-429.5 248,-429.5 "/>
<text text-anchor="middle" x="201.5" y="-417.5" font-family="Helvetica,sans-Serif" font-size="10.00"> </text>
<polyline fill="none" stroke="black" points="155,-410.5 248,-410.5 "/>
<text text-anchor="start" x="163" y="-398.5" font-family="Helvetica,sans-Serif" font-size="10.00">+ Wektor2f()</text>
<text text-anchor="start" x="163" y="-387.5" font-family="Helvetica,sans-Serif" font-size="10.00">+ Wektor2f()</text>
<text text-anchor="start" x="163" y="-376.5" font-family="Helvetica,sans-Serif" font-size="10.00">+ operator+=()</text>
<text text-anchor="start" x="163" y="-365.5" font-family="Helvetica,sans-Serif" font-size="10.00">+ operator+()</text>
<text text-anchor="start" x="163" y="-354.5" font-family="Helvetica,sans-Serif" font-size="10.00">+ operator*=()</text>
<text text-anchor="start" x="163" y="-343.5" font-family="Helvetica,sans-Serif" font-size="10.00">+ operator*()</text>
<text text-anchor="start" x="163" y="-332.5" font-family="Helvetica,sans-Serif" font-size="10.00">+ Zmien()</text>
</a>
</g>
</g>
<!-- Node4&#45;&gt;Node1 -->
<g id="edge3" class="edge">
<title>Node4&#45;&gt;Node1</title>
<path fill="none" stroke="#404040" d="M176.82,-325.26C173.8,-315.61 171.19,-305.64 169.5,-296 165.43,-272.77 163.57,-247.7 162.99,-223.63"/>
<polygon fill="none" stroke="#404040" points="162.99,-223.54 158.9,-217.6 162.81,-211.54 166.9,-217.48 162.99,-223.54"/>
<text text-anchor="middle" x="234.5" y="-288" font-family="Helvetica,sans-Serif" font-size="10.00"> &#45;_Wspolrz</text>
<text text-anchor="start" x="169.5" y="-277" font-family="Helvetica,sans-Serif" font-size="10.00">&#45;_PrzesEtykiety</text>
<text text-anchor="middle" x="234.5" y="-266" font-family="Helvetica,sans-Serif" font-size="10.00">_WzgWspoPunktu</text>
<text text-anchor="middle" x="234.5" y="-255" font-family="Helvetica,sans-Serif" font-size="10.00">&#45;_WspolrzEtykiety</text>
<text text-anchor="start" x="169.5" y="-244" font-family="Helvetica,sans-Serif" font-size="10.00">&#45;_PrzesEtykiety_WzgRozm</text>
<text text-anchor="middle" x="234.5" y="-233" font-family="Helvetica,sans-Serif" font-size="10.00">Punktu</text>
</g>
<!-- Node5 -->
<g id="node5" class="node">
<title>Node5</title>
<g id="a_node5"><a xlink:title=" ">
<polygon fill="none" stroke="#bfbfbf" points="182.5,-529.5 182.5,-586.5 220.5,-586.5 220.5,-529.5 182.5,-529.5"/>
<text text-anchor="middle" x="201.5" y="-574.5" font-family="Helvetica,sans-Serif" font-size="10.00">float</text>
<polyline fill="none" stroke="#bfbfbf" points="182.5,-567.5 220.5,-567.5 "/>
<text text-anchor="middle" x="201.5" y="-555.5" font-family="Helvetica,sans-Serif" font-size="10.00"> </text>
<polyline fill="none" stroke="#bfbfbf" points="182.5,-548.5 220.5,-548.5 "/>
<text text-anchor="middle" x="201.5" y="-536.5" font-family="Helvetica,sans-Serif" font-size="10.00"> </text>
</a>
</g>
</g>
<!-- Node5&#45;&gt;Node4 -->
<g id="edge4" class="edge">
<title>Node5&#45;&gt;Node4</title>
<path fill="none" stroke="#404040" d="M201.5,-529.47C201.5,-510.83 201.5,-485.26 201.5,-460.98"/>
<polygon fill="none" stroke="#404040" points="201.5,-460.83 197.5,-454.83 201.5,-448.83 205.5,-454.83 201.5,-460.83"/>
<text text-anchor="middle" x="210.5" y="-497.5" font-family="Helvetica,sans-Serif" font-size="10.00"> +x</text>
<text text-anchor="middle" x="210.5" y="-486.5" font-family="Helvetica,sans-Serif" font-size="10.00">+y</text>
</g>
<!-- Node6 -->
<g id="node6" class="node">
<title>Node6</title>
<g id="a_node6"><a xlink:title=" ">
<polygon fill="none" stroke="#bfbfbf" points="299.5,-358.5 299.5,-415.5 343.5,-415.5 343.5,-358.5 299.5,-358.5"/>
<text text-anchor="middle" x="321.5" y="-403.5" font-family="Helvetica,sans-Serif" font-size="10.00">string</text>
<polyline fill="none" stroke="#bfbfbf" points="299.5,-396.5 343.5,-396.5 "/>
<text text-anchor="middle" x="321.5" y="-384.5" font-family="Helvetica,sans-Serif" font-size="10.00"> </text>
<polyline fill="none" stroke="#bfbfbf" points="299.5,-377.5 343.5,-377.5 "/>
<text text-anchor="middle" x="321.5" y="-365.5" font-family="Helvetica,sans-Serif" font-size="10.00"> </text>
</a>
</g>
</g>
<!-- Node6&#45;&gt;Node1 -->
<g id="edge5" class="edge">
<title>Node6&#45;&gt;Node1</title>
<path fill="none" stroke="#404040" d="M322.98,-358.41C323.55,-325.87 320.78,-271.03 299.5,-230 296.06,-223.37 292.12,-216.9 287.79,-210.62"/>
<polygon fill="none" stroke="#404040" points="287.78,-210.61 281.02,-208.12 280.71,-200.92 287.48,-203.4 287.78,-210.61"/>
<text text-anchor="middle" x="345" y="-260.5" font-family="Helvetica,sans-Serif" font-size="10.00"> &#45;_Etykieta</text>
</g>
</g>
</svg>
        <g id="navigator" transform="translate(0 0)" fill="#404254">
                <rect fill="#f2f5e9" fill-opacity="0.5" stroke="#606060" stroke-width=".5" x="0" y="0" width="60" height="60"/>
                <use id="zoomplus" xlink:href="#zoomPlus" x="17" y="9" onmousedown="handleZoom(evt,'in')"/>
                <use id="zoomminus" xlink:href="#zoomMin" x="42" y="9" onmousedown="handleZoom(evt,'out')"/>
                <use id="reset" xlink:href="#resetDef" x="30" y="36" onmousedown="handleReset()"/>
                <g id="arrowUp" xlink:href="#dirArrow" transform="translate(30 24)" onmousedown="handlePan(0,-1)">
                  <use xlink:href="#rim" fill="#404040">
                        <set attributeName="fill" to="#808080" begin="arrowUp.mouseover" end="arrowUp.mouseout"/>
                  </use>
                  <path fill="none" stroke="white" stroke-width="1.5" d="M0,-3.0v7 M-2.5,-0.5L0,-3.0L2.5,-0.5"/>
                </g>
                <g id="arrowRight" xlink:href="#dirArrow" transform="rotate(90) translate(36 -43)" onmousedown="handlePan(1,0)">
                  <use xlink:href="#rim" fill="#404040">
                        <set attributeName="fill" to="#808080" begin="arrowRight.mouseover" end="arrowRight.mouseout"/>
                  </use>
                  <path fill="none" stroke="white" stroke-width="1.5" d="M0,-3.0v7 M-2.5,-0.5L0,-3.0L2.5,-0.5"/>
                </g>
                <g id="arrowDown" xlink:href="#dirArrow" transform="rotate(180) translate(-30 -48)" onmousedown="handlePan(0,1)">
                  <use xlink:href="#rim" fill="#404040">
                        <set attributeName="fill" to="#808080" begin="arrowDown.mouseover" end="arrowDown.mouseout"/>
                  </use>
                  <path fill="none" stroke="white" stroke-width="1.5" d="M0,-3.0v7 M-2.5,-0.5L0,-3.0L2.5,-0.5"/>
                </g>
                <g id="arrowLeft" xlink:href="#dirArrow" transform="rotate(270) translate(-36 17)" onmousedown="handlePan(-1,0)">
                  <use xlink:href="#rim" fill="#404040">
                        <set attributeName="fill" to="#808080" begin="arrowLeft.mouseover" end="arrowLeft.mouseout"/>
                  </use>
                  <path fill="none" stroke="white" stroke-width="1.5" d="M0,-3.0v7 M-2.5,-0.5L0,-3.0L2.5,-0.5"/>
                </g>
        </g>
        <svg viewBox="0 0 15 15" width="100%" height="30px" preserveAspectRatio="xMaxYMin meet">
         <g id="arrow_out" transform="scale(0.3 0.3)">
          <a xlink:href="class_pz_g_1_1_info_punkty_do_rysowania__coll__graph_org.svg" target="_base">
           <rect id="button" ry="5" rx="5" y="6" x="6" height="38" width="38"
                fill="#f2f5e9" fill-opacity="0.5" stroke="#606060" stroke-width="1.0"/>
           <path id="arrow"
             d="M 11.500037,31.436501 C 11.940474,20.09759 22.043105,11.32322 32.158766,21.979434 L 37.068811,17.246167 C 37.068811,17.246167 37.088388,32 37.088388,32 L 22.160133,31.978069 C 22.160133,31.978069 26.997745,27.140456 26.997745,27.140456 C 18.528582,18.264221 13.291696,25.230495 11.500037,31.436501 z"
             style="fill:#404040;"/>
          </a>
         </g>
        </svg>
</svg>
