<?xml version="1.0" encoding="UTF-8" standalone="no"?>
<!DOCTYPE svg PUBLIC "-//W3C//DTD SVG 1.1//EN"
 "http://www.w3.org/Graphics/SVG/1.1/DTD/svg11.dtd">
<!-- Generated by graphviz version 2.43.0 (0)
 -->
<!-- Title: Drone::remove_files Pages: 1 -->
<svg width="299pt" height="66pt"
 viewBox="0.00 0.00 299.00 66.00" xmlns="http://www.w3.org/2000/svg" xmlns:xlink="http://www.w3.org/1999/xlink">
<g id="graph0" class="graph" transform="scale(1 1) rotate(0) translate(4 62)">
<title>Drone::remove_files</title>
<!-- Node1 -->
<g id="node1" class="node">
<title>Node1</title>
<g id="a_node1"><a xlink:title="Metoda usuwajaca pliki drona.">
<polygon fill="#bfbfbf" stroke="black" points="0,-19.5 0,-38.5 115,-38.5 115,-19.5 0,-19.5"/>
<text text-anchor="middle" x="57.5" y="-26.5" font-family="Helvetica,sans-Serif" font-size="10.00">Drone::remove_files</text>
</a>
</g>
</g>
<!-- Node2 -->
<g id="node2" class="node">
<title>Node2</title>
<g id="a_node2"><a xlink:href="class_block.html#aeef4dd3716afaea42688a4f96456ce27" target="_top" xlink:title="Metoda zwracajaca nazwe pliku z finalna (robocza) bryla">
<polygon fill="none" stroke="black" points="158.5,-38.5 158.5,-57.5 283.5,-57.5 283.5,-38.5 158.5,-38.5"/>
<text text-anchor="middle" x="221" y="-45.5" font-family="Helvetica,sans-Serif" font-size="10.00">Block::get_final_name</text>
</a>
</g>
</g>
<!-- Node1&#45;&gt;Node2 -->
<g id="edge1" class="edge">
<title>Node1&#45;&gt;Node2</title>
<path fill="none" stroke="midnightblue" d="M115.44,-35.7C126.08,-36.95 137.32,-38.27 148.34,-39.57"/>
<polygon fill="midnightblue" stroke="midnightblue" points="148.02,-43.06 158.36,-40.75 148.84,-36.1 148.02,-43.06"/>
</g>
<!-- Node3 -->
<g id="node3" class="node">
<title>Node3</title>
<g id="a_node3"><a xlink:href="class_block.html#aed17e0cb13b8eea50fe735ba05204da9" target="_top" xlink:title="Metoda zwracajaca nazwe pliku z wzorcowa bryla">
<polygon fill="none" stroke="black" points="151,-0.5 151,-19.5 291,-19.5 291,-0.5 151,-0.5"/>
<text text-anchor="middle" x="221" y="-7.5" font-family="Helvetica,sans-Serif" font-size="10.00">Block::get_sample_name</text>
</a>
</g>
</g>
<!-- Node1&#45;&gt;Node3 -->
<g id="edge2" class="edge">
<title>Node1&#45;&gt;Node3</title>
<path fill="none" stroke="midnightblue" d="M115.44,-22.3C123.66,-21.33 132.25,-20.32 140.81,-19.32"/>
<polygon fill="midnightblue" stroke="midnightblue" points="141.31,-22.78 150.83,-18.14 140.49,-15.83 141.31,-22.78"/>
</g>
</g>
</svg>
