<?xml version="1.0" encoding="UTF-8" standalone="no"?>
<!DOCTYPE svg PUBLIC "-//W3C//DTD SVG 1.1//EN"
 "http://www.w3.org/Graphics/SVG/1.1/DTD/svg11.dtd">
<!-- Generated by graphviz version 2.43.0 (0)
 -->
<!-- Title: PzG::AtrybutyRysowania::ZmienStyl Pages: 1 -->
<svg width="1130pt" height="355pt"
 viewBox="0.00 0.00 1130.00 355.00" xmlns="http://www.w3.org/2000/svg" xmlns:xlink="http://www.w3.org/1999/xlink">
<g id="graph0" class="graph" transform="scale(1 1) rotate(0) translate(4 351)">
<title>PzG::AtrybutyRysowania::ZmienStyl</title>
<!-- Node1 -->
<g id="node1" class="node">
<title>Node1</title>
<g id="a_node1"><a xlink:title="Zmienia styl rysowania.">
<polygon fill="#bfbfbf" stroke="black" points="985,-182.5 985,-212.5 1122,-212.5 1122,-182.5 985,-182.5"/>
<text text-anchor="start" x="993" y="-200.5" font-family="Helvetica,sans-Serif" font-size="10.00">PzG::AtrybutyRysowania</text>
<text text-anchor="middle" x="1053.5" y="-189.5" font-family="Helvetica,sans-Serif" font-size="10.00">::ZmienStyl</text>
</a>
</g>
</g>
<!-- Node2 -->
<g id="node2" class="node">
<title>Node2</title>
<g id="a_node2"><a xlink:href="namespace_pz_g.html#a169c311f0e0b6ffadcd44e91e749f72d" target="_top" xlink:title="Wczytuje z pliku listę punktów.">
<polygon fill="none" stroke="black" points="804,-182.5 804,-212.5 949,-212.5 949,-182.5 804,-182.5"/>
<text text-anchor="start" x="812" y="-200.5" font-family="Helvetica,sans-Serif" font-size="10.00">PzG::WczytajListeRoznych</text>
<text text-anchor="middle" x="876.5" y="-189.5" font-family="Helvetica,sans-Serif" font-size="10.00">Punktow</text>
</a>
</g>
</g>
<!-- Node1&#45;&gt;Node2 -->
<g id="edge1" class="edge">
<title>Node1&#45;&gt;Node2</title>
<path fill="none" stroke="midnightblue" d="M974.56,-197.5C966.07,-197.5 957.45,-197.5 949.04,-197.5"/>
<polygon fill="midnightblue" stroke="midnightblue" points="974.84,-201 984.84,-197.5 974.84,-194 974.84,-201"/>
</g>
<!-- Node3 -->
<g id="node3" class="node">
<title>Node3</title>
<g id="a_node3"><a xlink:href="namespace_pz_g.html#a7227cb39c785b1c746b6bb5515c0b781" target="_top" xlink:title="Dodaje do listy rysowanych punktów, punkty o różnych rozmiarach.">
<polygon fill="none" stroke="black" points="592,-182.5 592,-212.5 768,-212.5 768,-182.5 592,-182.5"/>
<text text-anchor="start" x="600" y="-200.5" font-family="Helvetica,sans-Serif" font-size="10.00">PzG::DopiszRysowanieZRoznych</text>
<text text-anchor="middle" x="680" y="-189.5" font-family="Helvetica,sans-Serif" font-size="10.00">Punktow</text>
</a>
</g>
</g>
<!-- Node2&#45;&gt;Node3 -->
<g id="edge2" class="edge">
<title>Node2&#45;&gt;Node3</title>
<path fill="none" stroke="midnightblue" d="M793.74,-197.5C785.33,-197.5 776.76,-197.5 768.29,-197.5"/>
<polygon fill="midnightblue" stroke="midnightblue" points="793.9,-201 803.9,-197.5 793.9,-194 793.9,-201"/>
</g>
<!-- Node4 -->
<g id="node4" class="node">
<title>Node4</title>
<g id="a_node4"><a xlink:href="class_pz_g_1_1_lacze_do_g_n_u_plota.html#aee10e48fe1b9fba6e2897b4ccfa27aef" target="_top" xlink:title="Tworzy listę parametrów umożliwiających rysowanie brył z plików.">
<polygon fill="none" stroke="black" points="357,-207.5 357,-237.5 556,-237.5 556,-207.5 357,-207.5"/>
<text text-anchor="start" x="365" y="-225.5" font-family="Helvetica,sans-Serif" font-size="10.00">PzG::LaczeDoGNUPlota</text>
<text text-anchor="middle" x="456.5" y="-214.5" font-family="Helvetica,sans-Serif" font-size="10.00">::DopiszRysowanieZRoznychPunktow</text>
</a>
</g>
</g>
<!-- Node3&#45;&gt;Node4 -->
<g id="edge3" class="edge">
<title>Node3&#45;&gt;Node4</title>
<path fill="none" stroke="midnightblue" d="M581.62,-208.49C573.24,-209.44 564.76,-210.39 556.37,-211.34"/>
<polygon fill="midnightblue" stroke="midnightblue" points="582.23,-211.94 591.78,-207.34 581.45,-204.99 582.23,-211.94"/>
</g>
<!-- Node5 -->
<g id="node5" class="node">
<title>Node5</title>
<g id="a_node5"><a xlink:href="class_pz_g_1_1_lacze_do_g_n_u_plota.html#a065f5b8402737cc62b0ad4f66d028335" target="_top" xlink:title="Generuje polecenie rysowania i przesyła je do gnuplota.">
<polygon fill="none" stroke="black" points="391.5,-158.5 391.5,-188.5 521.5,-188.5 521.5,-158.5 391.5,-158.5"/>
<text text-anchor="start" x="399.5" y="-176.5" font-family="Helvetica,sans-Serif" font-size="10.00">PzG::LaczeDoGNUPlota</text>
<text text-anchor="middle" x="456.5" y="-165.5" font-family="Helvetica,sans-Serif" font-size="10.00">::Rysuj</text>
</a>
</g>
</g>
<!-- Node3&#45;&gt;Node5 -->
<g id="edge4" class="edge">
<title>Node3&#45;&gt;Node5</title>
<path fill="none" stroke="midnightblue" d="M581.57,-186.94C561.29,-184.75 540.42,-182.48 521.71,-180.46"/>
<polygon fill="midnightblue" stroke="midnightblue" points="581.46,-190.45 591.78,-188.05 582.21,-183.49 581.46,-190.45"/>
</g>
<!-- Node6 -->
<g id="node6" class="node">
<title>Node6</title>
<g id="a_node6"><a xlink:href="class_drone.html#ac4d24c27fb2c107d2e8bda0c2bf5cfa1" target="_top" xlink:title="Metoda obliczajaca i przeprowadzajaca caly ruch drona (obrot o kat i przelot z zadania 5....">
<polygon fill="none" stroke="black" points="15,-272.5 15,-302.5 127,-302.5 127,-272.5 15,-272.5"/>
<text text-anchor="start" x="23" y="-290.5" font-family="Helvetica,sans-Serif" font-size="10.00">Drone::Drone_basic</text>
<text text-anchor="middle" x="71" y="-279.5" font-family="Helvetica,sans-Serif" font-size="10.00">_motion</text>
</a>
</g>
</g>
<!-- Node5&#45;&gt;Node6 -->
<g id="edge5" class="edge">
<title>Node5&#45;&gt;Node6</title>
<path fill="none" stroke="midnightblue" d="M381.69,-185.77C372.93,-189.06 364.46,-193.22 357,-198.5 333.45,-215.16 345.42,-237.15 321,-252.5 262.33,-289.38 180.67,-293.98 127.1,-292.15"/>
<polygon fill="midnightblue" stroke="midnightblue" points="382.93,-189.05 391.29,-182.54 380.7,-182.42 382.93,-189.05"/>
</g>
<!-- Node7 -->
<g id="node7" class="node">
<title>Node7</title>
<g id="a_node7"><a xlink:href="class_drone.html#a9d09f6cd9ed8d60dfd1979b31101f400" target="_top" xlink:title="Metoda zapisujaca sciezke do pliku oraz do lacza.">
<polygon fill="none" stroke="black" points="178,-202 178,-221 321,-221 321,-202 178,-202"/>
<text text-anchor="middle" x="249.5" y="-209" font-family="Helvetica,sans-Serif" font-size="10.00">Drone::Drone_path_to_file</text>
</a>
</g>
</g>
<!-- Node5&#45;&gt;Node7 -->
<g id="edge6" class="edge">
<title>Node5&#45;&gt;Node7</title>
<path fill="none" stroke="midnightblue" d="M381.53,-187.21C355.19,-192.09 326.11,-197.49 302.05,-201.94"/>
<polygon fill="midnightblue" stroke="midnightblue" points="382.29,-190.63 391.48,-185.37 381.01,-183.75 382.29,-190.63"/>
</g>
<!-- Node8 -->
<g id="node8" class="node">
<title>Node8</title>
<g id="a_node8"><a xlink:href="class_drone.html#ab7808296cec81143dbddd7516340a371" target="_top" xlink:title="Metoda robiaca &quot;oblot&quot; drona wokol punktu (z modyfikacji)">
<polygon fill="none" stroke="black" points="0,-221 0,-240 142,-240 142,-221 0,-221"/>
<text text-anchor="middle" x="71" y="-228" font-family="Helvetica,sans-Serif" font-size="10.00">Drone::Drone_roundabout</text>
</a>
</g>
</g>
<!-- Node5&#45;&gt;Node8 -->
<g id="edge12" class="edge">
<title>Node5&#45;&gt;Node8</title>
<path fill="none" stroke="midnightblue" d="M381.64,-188.09C373.1,-190.98 364.7,-194.42 357,-198.5 338.09,-208.53 341.01,-222.89 321,-230.5 254.13,-255.93 169.65,-248.48 118.28,-240.03"/>
<polygon fill="midnightblue" stroke="midnightblue" points="382.81,-191.39 391.31,-185.05 380.72,-184.71 382.81,-191.39"/>
</g>
<!-- Node9 -->
<g id="node9" class="node">
<title>Node9</title>
<g id="a_node9"><a xlink:href="class_drone.html#a5fc9dd645ad3856b5d3c501c63c464e3" target="_top" xlink:title="Metoda animujaca translacje drona i wyrysowujaca calosc w gnuplocie.">
<polygon fill="none" stroke="black" points="1.5,-164.5 1.5,-194.5 140.5,-194.5 140.5,-164.5 1.5,-164.5"/>
<text text-anchor="start" x="9.5" y="-182.5" font-family="Helvetica,sans-Serif" font-size="10.00">Drone::Drone_translation</text>
<text text-anchor="middle" x="71" y="-171.5" font-family="Helvetica,sans-Serif" font-size="10.00">_animation</text>
</a>
</g>
</g>
<!-- Node5&#45;&gt;Node9 -->
<g id="edge13" class="edge">
<title>Node5&#45;&gt;Node9</title>
<path fill="none" stroke="midnightblue" d="M381.29,-174.66C311.66,-175.75 208.36,-177.37 140.61,-178.43"/>
<polygon fill="midnightblue" stroke="midnightblue" points="381.37,-178.16 391.31,-174.5 381.26,-171.16 381.37,-178.16"/>
</g>
<!-- Node10 -->
<g id="node10" class="node">
<title>Node10</title>
<g id="a_node10"><a xlink:href="class_drone.html#af052f6bb793d1229b99b16b800b95b82" target="_top" xlink:title="Metoda animujaca obrot drona i wyrysowujaca calosc w gnuplocie.">
<polygon fill="none" stroke="black" points="187,-316.5 187,-346.5 312,-346.5 312,-316.5 187,-316.5"/>
<text text-anchor="start" x="195" y="-334.5" font-family="Helvetica,sans-Serif" font-size="10.00">Drone::Drone_rotation</text>
<text text-anchor="middle" x="249.5" y="-323.5" font-family="Helvetica,sans-Serif" font-size="10.00">_animation</text>
</a>
</g>
</g>
<!-- Node5&#45;&gt;Node10 -->
<g id="edge10" class="edge">
<title>Node5&#45;&gt;Node10</title>
<path fill="none" stroke="midnightblue" d="M381.7,-183.5C372.64,-187.13 364.1,-192 357,-198.5 321.24,-231.25 354.14,-266.1 321,-301.5 315.27,-307.62 308.1,-312.54 300.53,-316.49"/>
<polygon fill="midnightblue" stroke="midnightblue" points="382.99,-186.76 391.28,-180.15 380.68,-180.15 382.99,-186.76"/>
</g>
<!-- Node11 -->
<g id="node11" class="node">
<title>Node11</title>
<g id="a_node11"><a xlink:href="class_scene.html#ab57c9a7293ccbaf3dd7e9ac469a7a787" target="_top" xlink:title="Metoda inicjalizujaca lacze do gnuplota.">
<polygon fill="none" stroke="black" points="194.5,-88 194.5,-107 304.5,-107 304.5,-88 194.5,-88"/>
<text text-anchor="middle" x="249.5" y="-95" font-family="Helvetica,sans-Serif" font-size="10.00">Scene::init_gnuplot</text>
</a>
</g>
</g>
<!-- Node5&#45;&gt;Node11 -->
<g id="edge14" class="edge">
<title>Node5&#45;&gt;Node11</title>
<path fill="none" stroke="midnightblue" d="M408.18,-154.66C382.49,-144.57 350.11,-132.08 321,-121.5 307.39,-116.55 292.19,-111.34 279.41,-107.04"/>
<polygon fill="midnightblue" stroke="midnightblue" points="407.09,-158 417.68,-158.4 409.66,-151.48 407.09,-158"/>
</g>
<!-- Node12 -->
<g id="node12" class="node">
<title>Node12</title>
<g id="a_node12"><a xlink:href="class_menu.html#af7e6a49bd56499facef9cc98561ea169" target="_top" xlink:title="Inicjuje i obsluguje menu.">
<polygon fill="none" stroke="black" points="22,-88 22,-107 120,-107 120,-88 22,-88"/>
<text text-anchor="middle" x="71" y="-95" font-family="Helvetica,sans-Serif" font-size="10.00">Menu::init_menu</text>
</a>
</g>
</g>
<!-- Node5&#45;&gt;Node12 -->
<g id="edge16" class="edge">
<title>Node5&#45;&gt;Node12</title>
<path fill="none" stroke="midnightblue" d="M381.18,-158.77C304.02,-143.48 185.63,-120.02 119.99,-107.01"/>
<polygon fill="midnightblue" stroke="midnightblue" points="380.82,-162.27 391.31,-160.78 382.18,-155.4 380.82,-162.27"/>
</g>
<!-- Node13 -->
<g id="node13" class="node">
<title>Node13</title>
<g id="a_node13"><a xlink:href="class_drone.html#a577871807280aab8d9c0d4e45b435ec4" target="_top" xlink:title="Metoda rysujaca drona w gnuplocie. Przeznaczona do testow">
<polygon fill="none" stroke="black" points="184,-0.5 184,-30.5 315,-30.5 315,-0.5 184,-0.5"/>
<text text-anchor="start" x="192" y="-18.5" font-family="Helvetica,sans-Serif" font-size="10.00">Drone::Print_to_gnuplot</text>
<text text-anchor="middle" x="249.5" y="-7.5" font-family="Helvetica,sans-Serif" font-size="10.00">_drone</text>
</a>
</g>
</g>
<!-- Node5&#45;&gt;Node13 -->
<g id="edge17" class="edge">
<title>Node5&#45;&gt;Node13</title>
<path fill="none" stroke="midnightblue" d="M437.4,-150.11C413.59,-120.77 369.11,-70.68 321,-40.5 314.95,-36.7 308.24,-33.39 301.45,-30.51"/>
<polygon fill="midnightblue" stroke="midnightblue" points="434.85,-152.52 443.83,-158.15 440.32,-148.15 434.85,-152.52"/>
</g>
<!-- Node14 -->
<g id="node14" class="node">
<title>Node14</title>
<g id="a_node14"><a xlink:href="class_menu.html#acd338552222b744cd030e17776cb5d9b" target="_top" xlink:title="Obsluguje wybor menu.">
<polygon fill="none" stroke="black" points="192.5,-50 192.5,-69 306.5,-69 306.5,-50 192.5,-50"/>
<text text-anchor="middle" x="249.5" y="-57" font-family="Helvetica,sans-Serif" font-size="10.00">Menu::switch_menu</text>
</a>
</g>
</g>
<!-- Node5&#45;&gt;Node14 -->
<g id="edge18" class="edge">
<title>Node5&#45;&gt;Node14</title>
<path fill="none" stroke="midnightblue" d="M430.71,-151.89C404.92,-130.44 362.56,-98.02 321,-78.5 312.97,-74.73 304.06,-71.6 295.35,-69.04"/>
<polygon fill="midnightblue" stroke="midnightblue" points="428.58,-154.67 438.48,-158.44 433.09,-149.32 428.58,-154.67"/>
</g>
<!-- Node7&#45;&gt;Node6 -->
<g id="edge7" class="edge">
<title>Node7&#45;&gt;Node6</title>
<path fill="none" stroke="midnightblue" d="M216.7,-225.19C185.77,-238.51 138.89,-258.7 106.93,-272.46"/>
<polygon fill="midnightblue" stroke="midnightblue" points="218.35,-228.3 226.15,-221.13 215.58,-221.87 218.35,-228.3"/>
</g>
<!-- Node7&#45;&gt;Node8 -->
<g id="edge8" class="edge">
<title>Node7&#45;&gt;Node8</title>
<path fill="none" stroke="midnightblue" d="M167.93,-220.17C159.31,-221.1 150.6,-222.04 142.12,-222.95"/>
<polygon fill="midnightblue" stroke="midnightblue" points="168.41,-223.64 177.98,-219.09 167.66,-216.68 168.41,-223.64"/>
</g>
<!-- Node7&#45;&gt;Node9 -->
<g id="edge9" class="edge">
<title>Node7&#45;&gt;Node9</title>
<path fill="none" stroke="midnightblue" d="M186.04,-200.17C171.34,-197.51 155.59,-194.66 140.64,-191.94"/>
<polygon fill="midnightblue" stroke="midnightblue" points="185.56,-203.65 196.02,-201.99 186.81,-196.76 185.56,-203.65"/>
</g>
<!-- Node10&#45;&gt;Node6 -->
<g id="edge11" class="edge">
<title>Node10&#45;&gt;Node6</title>
<path fill="none" stroke="midnightblue" d="M178.37,-314.02C161.37,-309.78 143.43,-305.31 127.23,-301.27"/>
<polygon fill="midnightblue" stroke="midnightblue" points="177.7,-317.46 188.25,-316.48 179.4,-310.67 177.7,-317.46"/>
</g>
<!-- Node11&#45;&gt;Node12 -->
<g id="edge15" class="edge">
<title>Node11&#45;&gt;Node12</title>
<path fill="none" stroke="midnightblue" d="M183.94,-97.5C162.89,-97.5 139.88,-97.5 120.23,-97.5"/>
<polygon fill="midnightblue" stroke="midnightblue" points="184.1,-101 194.1,-97.5 184.1,-94 184.1,-101"/>
</g>
<!-- Node14&#45;&gt;Node12 -->
<g id="edge19" class="edge">
<title>Node14&#45;&gt;Node12</title>
<path fill="none" stroke="midnightblue" d="M193.91,-71.25C168.96,-76.63 139.77,-82.91 116.22,-87.98"/>
<polygon fill="midnightblue" stroke="midnightblue" points="194.92,-74.62 203.96,-69.09 193.45,-67.77 194.92,-74.62"/>
</g>
</g>
</svg>
