<?xml version="1.0" encoding="UTF-8" standalone="no"?>
<!DOCTYPE svg PUBLIC "-//W3C//DTD SVG 1.1//EN"
 "http://www.w3.org/Graphics/SVG/1.1/DTD/svg11.dtd">
<!-- Generated by graphviz version 2.43.0 (0)
 -->
<!-- Title: Scene::scan_plane Pages: 1 -->
<!--zoomable 717 -->
<svg id="main" version="1.1" xmlns="http://www.w3.org/2000/svg" xmlns:xlink="http://www.w3.org/1999/xlink" xml:space="preserve" onload="init(evt)">
<style type="text/css"><![CDATA[
.edge:hover path { stroke: red; }
.edge:hover polygon { stroke: red; fill: red; }
]]></style>
<script type="text/javascript"><![CDATA[
var edges = document.getElementsByTagName('g');
if (edges && edges.length) {
  for (var i=0;i<edges.length;i++) {
    if (edges[i].id.substr(0,4)=='edge') {
      edges[i].setAttribute('class','edge');
    }
  }
}
]]></script>
        <defs>
                <circle id="rim" cx="0" cy="0" r="7"/>
                <circle id="rim2" cx="0" cy="0" r="3.5"/>
                <g id="zoomPlus">
                        <use xlink:href="#rim" fill="#404040">
                                <set attributeName="fill" to="#808080" begin="zoomplus.mouseover" end="zoomplus.mouseout"/>
                        </use>
                        <path d="M-4,0h8M0,-4v8" fill="none" stroke="white" stroke-width="1.5" pointer-events="none"/>
                </g>
                <g id="zoomMin">
                        <use xlink:href="#rim" fill="#404040">
                                <set attributeName="fill" to="#808080" begin="zoomminus.mouseover" end="zoomminus.mouseout"/>
                        </use>
                        <path d="M-4,0h8" fill="none" stroke="white" stroke-width="1.5" pointer-events="none"/>
                </g>
                <g id="dirArrow">
                        <path fill="none" stroke="white" stroke-width="1.5" d="M0,-3.0v7 M-2.5,-0.5L0,-3.0L2.5,-0.5"/>
                </g>
               <g id="resetDef">
                       <use xlink:href="#rim2" fill="#404040">
                               <set attributeName="fill" to="#808080" begin="reset.mouseover" end="reset.mouseout"/>
                       </use>
               </g>
        </defs>

<script type="text/javascript">
var viewWidth = 1077;
var viewHeight = 717;
var sectionId = 'dynsection-28';
</script>
<script xlink:href="svgpan.js"/>
<svg id="graph" class="graph">
<g id="viewport">
<title>Scene::scan_plane</title>
<!-- Node1 -->
<g id="node1" class="node">
<title>Node1</title>
<g id="a_node1"><a xlink:title="Skanowanie powierzchni pod dronem, gdy dron nie moze wyladowac w danym miejscu &#160;&#160;Rysowany jest rownie...">
<polygon fill="#bfbfbf" stroke="black" points="0,-340 0,-359 107,-359 107,-340 0,-340"/>
<text text-anchor="middle" x="53.5" y="-347" font-family="Helvetica,sans-Serif" font-size="10.00">Scene::scan_plane</text>
</a>
</g>
</g>
<!-- Node2 -->
<g id="node2" class="node">
<title>Node2</title>
<g id="a_node2"><a xlink:href="class_scene.html#a1e55ef9fe4c36aea7cbc9304b18271cc" target="_top" xlink:title="Sprawdza czy jakis objekt koliduje z dronem jesli ten mialby wyladowac w danym miejscu">
<polygon fill="none" stroke="black" points="158.5,-579.5 158.5,-609.5 279.5,-609.5 279.5,-579.5 158.5,-579.5"/>
<text text-anchor="start" x="166.5" y="-597.5" font-family="Helvetica,sans-Serif" font-size="10.00">Scene::check_objects</text>
<text text-anchor="middle" x="219" y="-586.5" font-family="Helvetica,sans-Serif" font-size="10.00">_intersect</text>
</a>
</g>
</g>
<!-- Node1&#45;&gt;Node2 -->
<g id="edge1" class="edge">
<title>Node1&#45;&gt;Node2</title>
<path fill="none" stroke="midnightblue" d="M55.47,-359.07C59.41,-393.08 77.37,-509.38 143,-570.5 144.97,-572.33 147.08,-574.03 149.3,-575.59"/>
<polygon fill="midnightblue" stroke="midnightblue" points="147.94,-578.86 158.31,-581.01 151.54,-572.86 147.94,-578.86"/>
</g>
<!-- Node14 -->
<g id="node14" class="node">
<title>Node14</title>
<g id="a_node14"><a xlink:href="class_pz_g_1_1_lacze_do_g_n_u_plota.html#aa815ce8ec16e12fc246cf422e562869e" target="_top" xlink:title="Dodaje nazwę pliku.">
<polygon fill="none" stroke="black" points="154,-530.5 154,-560.5 284,-560.5 284,-530.5 154,-530.5"/>
<text text-anchor="start" x="162" y="-548.5" font-family="Helvetica,sans-Serif" font-size="10.00">PzG::LaczeDoGNUPlota</text>
<text text-anchor="middle" x="219" y="-537.5" font-family="Helvetica,sans-Serif" font-size="10.00">::DodajNazwePliku</text>
</a>
</g>
</g>
<!-- Node1&#45;&gt;Node14 -->
<g id="edge14" class="edge">
<title>Node1&#45;&gt;Node14</title>
<path fill="none" stroke="midnightblue" d="M56.77,-359.24C64.03,-388.22 89.4,-474.66 143,-520.5 144.96,-522.18 147.04,-523.74 149.21,-525.21"/>
<polygon fill="midnightblue" stroke="midnightblue" points="147.56,-528.3 157.95,-530.35 151.1,-522.26 147.56,-528.3"/>
</g>
<!-- Node16 -->
<g id="node16" class="node">
<title>Node16</title>
<g id="a_node16"><a xlink:href="class_block.html#aeef4dd3716afaea42688a4f96456ce27" target="_top" xlink:title="Metoda zwracajaca nazwe pliku z finalna (robocza) bryla">
<polygon fill="none" stroke="black" points="156.5,-492 156.5,-511 281.5,-511 281.5,-492 156.5,-492"/>
<text text-anchor="middle" x="219" y="-499" font-family="Helvetica,sans-Serif" font-size="10.00">Block::get_final_name</text>
</a>
</g>
</g>
<!-- Node1&#45;&gt;Node16 -->
<g id="edge16" class="edge">
<title>Node1&#45;&gt;Node16</title>
<path fill="none" stroke="midnightblue" d="M58.11,-359.32C67.76,-384.13 96.59,-449.65 143,-482.5 145.74,-484.44 148.66,-486.18 151.7,-487.75"/>
<polygon fill="midnightblue" stroke="midnightblue" points="150.55,-491.07 161.11,-491.93 153.4,-484.67 150.55,-491.07"/>
</g>
<!-- Node17 -->
<g id="node17" class="node">
<title>Node17</title>
<g id="a_node17"><a xlink:href="class_drone.html#ac8dedb6cf49bdb580df253e3a90d3637" target="_top" xlink:title="Metoda zwracajaca orientacje drona">
<polygon fill="none" stroke="black" points="170,-454 170,-473 268,-473 268,-454 170,-454"/>
<text text-anchor="middle" x="219" y="-461" font-family="Helvetica,sans-Serif" font-size="10.00">Drone::get_orien</text>
</a>
</g>
</g>
<!-- Node1&#45;&gt;Node17 -->
<g id="edge17" class="edge">
<title>Node1&#45;&gt;Node17</title>
<path fill="none" stroke="midnightblue" d="M60.54,-359C73.3,-378.26 104.98,-422 143,-444.5 148.39,-447.69 154.3,-450.34 160.36,-452.56"/>
<polygon fill="midnightblue" stroke="midnightblue" points="159.37,-455.92 169.96,-455.68 161.54,-449.26 159.37,-455.92"/>
</g>
<!-- Node18 -->
<g id="node18" class="node">
<title>Node18</title>
<g id="a_node18"><a xlink:href="class_prism.html#a2de0dab6d117fc3c8dcbc3c384d0fccd" target="_top" xlink:title=" ">
<polygon fill="none" stroke="black" points="161,-416 161,-435 277,-435 277,-416 161,-416"/>
<text text-anchor="middle" x="219" y="-423" font-family="Helvetica,sans-Serif" font-size="10.00">Prism::Prism_To_File</text>
</a>
</g>
</g>
<!-- Node1&#45;&gt;Node18 -->
<g id="edge18" class="edge">
<title>Node1&#45;&gt;Node18</title>
<path fill="none" stroke="midnightblue" d="M68.69,-359.18C85.74,-370.48 115.51,-389.21 143,-401.5 152.45,-405.73 162.88,-409.55 172.87,-412.85"/>
<polygon fill="midnightblue" stroke="midnightblue" points="172.08,-416.27 182.67,-415.96 174.2,-409.6 172.08,-416.27"/>
</g>
<!-- Node20 -->
<g id="node20" class="node">
<title>Node20</title>
<g id="a_node20"><a xlink:href="class_drone.html#ad42bc54902df967b94717617aca1a974" target="_top" xlink:title="Metoda obracajaca dron o zadany kat w 3D wokol srodka figury">
<polygon fill="none" stroke="black" points="143,-259 143,-278 295,-278 295,-259 143,-259"/>
<text text-anchor="middle" x="219" y="-266" font-family="Helvetica,sans-Serif" font-size="10.00">Drone::rotation_around_cen</text>
</a>
</g>
</g>
<!-- Node1&#45;&gt;Node20 -->
<g id="edge20" class="edge">
<title>Node1&#45;&gt;Node20</title>
<path fill="none" stroke="midnightblue" d="M69.13,-339.91C86.35,-328.85 116.04,-310.52 143,-297.5 155,-291.7 168.48,-286.19 180.67,-281.57"/>
<polygon fill="midnightblue" stroke="midnightblue" points="181.96,-284.82 190.12,-278.06 179.52,-278.26 181.96,-284.82"/>
</g>
<!-- Node22 -->
<g id="node22" class="node">
<title>Node22</title>
<g id="a_node22"><a xlink:href="class_prism.html#ade146d341c0468030f8c1258b7fe1041" target="_top" xlink:title="Metoda przesuwajaca graniastoslup o zadany wektor w 3D">
<polygon fill="none" stroke="black" points="757.5,-302 757.5,-321 860.5,-321 860.5,-302 757.5,-302"/>
<text text-anchor="middle" x="809" y="-309" font-family="Helvetica,sans-Serif" font-size="10.00">Prism::translation</text>
</a>
</g>
</g>
<!-- Node1&#45;&gt;Node22 -->
<g id="edge45" class="edge">
<title>Node1&#45;&gt;Node22</title>
<path fill="none" stroke="midnightblue" d="M90.39,-359.01C106.37,-362.77 125.5,-366.64 143,-368.5 383.87,-394.06 451.71,-421.77 688,-368.5 723.59,-360.48 761.02,-340.6 784.43,-326.59"/>
<polygon fill="midnightblue" stroke="midnightblue" points="786.56,-329.38 793.26,-321.17 782.9,-323.41 786.56,-329.38"/>
</g>
<!-- Node23 -->
<g id="node23" class="node">
<title>Node23</title>
<g id="a_node23"><a xlink:href="class_prism.html#afed2c26932d5cb152fd620d2acbfbc3e" target="_top" xlink:title="Metoda przesuwajaca graniastoslup do srodka ukladu wspolrzednych (tak, ze srodek graniastoslupa pokry...">
<polygon fill="none" stroke="black" points="550,-340 550,-359 681,-359 681,-340 550,-340"/>
<text text-anchor="middle" x="615.5" y="-347" font-family="Helvetica,sans-Serif" font-size="10.00">Prism::translation_to_O</text>
</a>
</g>
</g>
<!-- Node1&#45;&gt;Node23 -->
<g id="edge46" class="edge">
<title>Node1&#45;&gt;Node23</title>
<path fill="none" stroke="midnightblue" d="M90.39,-339.99C106.37,-336.23 125.5,-332.36 143,-330.5 282.57,-315.69 446.51,-329.21 539.69,-339.78"/>
<polygon fill="midnightblue" stroke="midnightblue" points="539.53,-343.28 549.86,-340.95 540.33,-336.33 539.53,-343.28"/>
</g>
<!-- Node30 -->
<g id="node30" class="node">
<title>Node30</title>
<g id="a_node30"><a xlink:href="class_pz_g_1_1_lacze_do_g_n_u_plota.html#a065f5b8402737cc62b0ad4f66d028335" target="_top" xlink:title="Generuje polecenie rysowania i przesyła je do gnuplota.">
<polygon fill="none" stroke="black" points="154,-138.5 154,-168.5 284,-168.5 284,-138.5 154,-138.5"/>
<text text-anchor="start" x="162" y="-156.5" font-family="Helvetica,sans-Serif" font-size="10.00">PzG::LaczeDoGNUPlota</text>
<text text-anchor="middle" x="219" y="-145.5" font-family="Helvetica,sans-Serif" font-size="10.00">::Rysuj</text>
</a>
</g>
</g>
<!-- Node1&#45;&gt;Node30 -->
<g id="edge32" class="edge">
<title>Node1&#45;&gt;Node30</title>
<path fill="none" stroke="midnightblue" d="M58.71,-339.83C69.78,-315.25 101.65,-249.19 143,-205.5 154.35,-193.51 168.88,-182.67 182.12,-174.02"/>
<polygon fill="midnightblue" stroke="midnightblue" points="184.01,-176.97 190.6,-168.67 180.27,-171.05 184.01,-176.97"/>
</g>
<!-- Node37 -->
<g id="node37" class="node">
<title>Node37</title>
<g id="a_node37"><a xlink:href="class_prism.html#a07f15c416c9f9c54390bb8737b441a35" target="_top" xlink:title="Metoda skalujaca o wektor scale bedacy czlonkiem klasy block">
<polygon fill="none" stroke="black" points="172,-340 172,-359 266,-359 266,-340 172,-340"/>
<text text-anchor="middle" x="219" y="-347" font-family="Helvetica,sans-Serif" font-size="10.00">Prism::scale_pri</text>
</a>
</g>
</g>
<!-- Node1&#45;&gt;Node37 -->
<g id="edge39" class="edge">
<title>Node1&#45;&gt;Node37</title>
<path fill="none" stroke="midnightblue" d="M107.13,-349.5C124.53,-349.5 143.96,-349.5 161.63,-349.5"/>
<polygon fill="midnightblue" stroke="midnightblue" points="161.8,-353 171.8,-349.5 161.8,-346 161.8,-353"/>
</g>
<!-- Node38 -->
<g id="node38" class="node">
<title>Node38</title>
<g id="a_node38"><a xlink:href="class_block.html#adb6acd13e2ab79cf7e4733ca2d6ae166" target="_top" xlink:title="Metoda zapisujaca do klasy wektor reprezentujacy skale">
<polygon fill="none" stroke="black" points="171.5,-100 171.5,-119 266.5,-119 266.5,-100 171.5,-100"/>
<text text-anchor="middle" x="219" y="-107" font-family="Helvetica,sans-Serif" font-size="10.00">Block::set_scale</text>
</a>
</g>
</g>
<!-- Node1&#45;&gt;Node38 -->
<g id="edge41" class="edge">
<title>Node1&#45;&gt;Node38</title>
<path fill="none" stroke="midnightblue" d="M55.38,-339.86C59.03,-305.61 76.1,-188.71 143,-129.5 148.48,-124.65 155.01,-120.96 161.9,-118.15"/>
<polygon fill="midnightblue" stroke="midnightblue" points="163.15,-121.42 171.45,-114.84 160.86,-114.81 163.15,-121.42"/>
</g>
<!-- Node39 -->
<g id="node39" class="node">
<title>Node39</title>
<g id="a_node39"><a xlink:href="class_drone.html#a9684cd7ce04b7e6191f3d6b3a745370b" target="_top" xlink:title="Przesuwa drona o zadany wektor w 3D">
<polygon fill="none" stroke="black" points="367,-138 367,-157 471,-157 471,-138 367,-138"/>
<text text-anchor="middle" x="419" y="-145" font-family="Helvetica,sans-Serif" font-size="10.00">Drone::translation</text>
</a>
</g>
</g>
<!-- Node1&#45;&gt;Node39 -->
<g id="edge42" class="edge">
<title>Node1&#45;&gt;Node39</title>
<path fill="none" stroke="midnightblue" d="M60.96,-339.72C74.26,-320.23 106.5,-276.17 143,-249.5 179.87,-222.56 287.58,-180.67 331,-166.5 339.33,-163.78 348.23,-161.34 357.05,-159.18"/>
<polygon fill="midnightblue" stroke="midnightblue" points="358,-162.55 366.94,-156.86 356.4,-155.73 358,-162.55"/>
</g>
<!-- Node40 -->
<g id="node40" class="node">
<title>Node40</title>
<g id="a_node40"><a xlink:href="class_pz_g_1_1_lacze_do_g_n_u_plota.html#a7fa4e775e1aee74869fae174c567c2a6" target="_top" xlink:title="Usuwa z listy nazw plików z danymi do rysowania usuwa wybraną nazwę.">
<polygon fill="none" stroke="black" points="154,-6.5 154,-36.5 284,-36.5 284,-6.5 154,-6.5"/>
<text text-anchor="start" x="162" y="-24.5" font-family="Helvetica,sans-Serif" font-size="10.00">PzG::LaczeDoGNUPlota</text>
<text text-anchor="middle" x="219" y="-13.5" font-family="Helvetica,sans-Serif" font-size="10.00">::UsunNazwePliku</text>
</a>
</g>
</g>
<!-- Node1&#45;&gt;Node40 -->
<g id="edge47" class="edge">
<title>Node1&#45;&gt;Node40</title>
<path fill="none" stroke="midnightblue" d="M56.03,-339.81C62.02,-304.07 86.39,-177.25 143,-90.5 154.99,-72.12 172.97,-55.36 188.32,-42.95"/>
<polygon fill="midnightblue" stroke="midnightblue" points="190.8,-45.45 196.52,-36.53 186.49,-39.94 190.8,-45.45"/>
</g>
<!-- Node3 -->
<g id="node3" class="node">
<title>Node3</title>
<g id="a_node3"><a xlink:href="class_drone.html#a5369b8139325f0f8d7eb0a7db7c684cd" target="_top" xlink:title="Methoda sprawdzajaca czy rzutowanie drona na plaszczyzne XY &#160;&#160;przecina sie z rzutowaniem prostopadlos...">
<polygon fill="none" stroke="black" points="347.5,-585 347.5,-604 490.5,-604 490.5,-585 347.5,-585"/>
<text text-anchor="middle" x="419" y="-592" font-family="Helvetica,sans-Serif" font-size="10.00">Drone::check_intersection</text>
</a>
</g>
</g>
<!-- Node2&#45;&gt;Node3 -->
<g id="edge2" class="edge">
<title>Node2&#45;&gt;Node3</title>
<path fill="none" stroke="midnightblue" d="M279.68,-594.5C297.72,-594.5 317.86,-594.5 337.05,-594.5"/>
<polygon fill="midnightblue" stroke="midnightblue" points="337.29,-598 347.29,-594.5 337.29,-591 337.29,-598"/>
</g>
<!-- Node4 -->
<g id="node4" class="node">
<title>Node4</title>
<g id="a_node4"><a xlink:href="class_drone.html#a0a57fc27f1cfacca5172426c15749b75" target="_top" xlink:title="Methoda powieksza rzutowana figure o radius w odpowiedni sposob.">
<polygon fill="none" stroke="black" points="549,-563 549,-582 682,-582 682,-563 549,-563"/>
<text text-anchor="middle" x="615.5" y="-570" font-family="Helvetica,sans-Serif" font-size="10.00">Drone::enlargen_by_rad</text>
</a>
</g>
</g>
<!-- Node3&#45;&gt;Node4 -->
<g id="edge3" class="edge">
<title>Node3&#45;&gt;Node4</title>
<path fill="none" stroke="midnightblue" d="M490.77,-586.5C506.36,-584.73 522.94,-582.86 538.72,-581.07"/>
<polygon fill="midnightblue" stroke="midnightblue" points="539.41,-584.52 548.96,-579.91 538.63,-577.56 539.41,-584.52"/>
</g>
<!-- Node5 -->
<g id="node5" class="node">
<title>Node5</title>
<g id="a_node5"><a xlink:href="class_cuboid.html#a215319dead51277df1c35673c1eb29b3" target="_top" xlink:title="Metoda zwracajaca wierzcholki podstawy prostopadloscianu zrzutowane na plaszczyzne XY do tablicy">
<polygon fill="none" stroke="black" points="553.5,-525 553.5,-544 677.5,-544 677.5,-525 553.5,-525"/>
<text text-anchor="middle" x="615.5" y="-532" font-family="Helvetica,sans-Serif" font-size="10.00">Cuboid::get_basis_pro</text>
</a>
</g>
</g>
<!-- Node3&#45;&gt;Node5 -->
<g id="edge4" class="edge">
<title>Node3&#45;&gt;Node5</title>
<path fill="none" stroke="midnightblue" d="M447.2,-584.89C472.03,-576.26 509.79,-563.44 543,-553.5 550.79,-551.17 559.09,-548.83 567.18,-546.63"/>
<polygon fill="midnightblue" stroke="midnightblue" points="568.15,-550 576.9,-544.02 566.33,-543.23 568.15,-550"/>
</g>
<!-- Node6 -->
<g id="node6" class="node">
<title>Node6</title>
<g id="a_node6"><a xlink:href="class_drone.html#ab0684fb71c2da878193af0f27a44d276" target="_top" xlink:title="Zwraca promien okregu rzutowany przez dron na plaszczyzne XY">
<polygon fill="none" stroke="black" points="547.5,-689 547.5,-708 683.5,-708 683.5,-689 547.5,-689"/>
<text text-anchor="middle" x="615.5" y="-696" font-family="Helvetica,sans-Serif" font-size="10.00">Drone::get_drone_radius</text>
</a>
</g>
</g>
<!-- Node3&#45;&gt;Node6 -->
<g id="edge5" class="edge">
<title>Node3&#45;&gt;Node6</title>
<path fill="none" stroke="midnightblue" d="M431.06,-604.14C451.67,-621.64 497.98,-658.73 543,-679.5 548.23,-681.91 553.82,-684.06 559.49,-685.97"/>
<polygon fill="midnightblue" stroke="midnightblue" points="558.45,-689.31 569.04,-688.95 560.54,-682.63 558.45,-689.31"/>
</g>
<!-- Node10 -->
<g id="node10" class="node">
<title>Node10</title>
<g id="a_node10"><a xlink:href="class_drone.html#ab717196d8d03bde942a75d1f693fe362" target="_top" xlink:title="Zwraca rzutowanie pozycje srodka podstawy body na XY">
<polygon fill="none" stroke="black" points="560,-487 560,-506 671,-506 671,-487 560,-487"/>
<text text-anchor="middle" x="615.5" y="-494" font-family="Helvetica,sans-Serif" font-size="10.00">Drone::get_pos_pro</text>
</a>
</g>
</g>
<!-- Node3&#45;&gt;Node10 -->
<g id="edge9" class="edge">
<title>Node3&#45;&gt;Node10</title>
<path fill="none" stroke="midnightblue" d="M464.1,-584.93C478.69,-580.35 494.39,-573.78 507,-564.5 528.76,-548.48 520.67,-530.72 543,-515.5 546.04,-513.42 549.3,-511.58 552.69,-509.93"/>
<polygon fill="midnightblue" stroke="midnightblue" points="554.06,-513.15 561.91,-506.02 551.33,-506.7 554.06,-513.15"/>
</g>
<!-- Node12 -->
<g id="node12" class="node">
<title>Node12</title>
<g id="a_node12"><a xlink:href="class_drone.html#a0920ad155e2877898f21a038d68e96f9" target="_top" xlink:title="Methoda sprawdza czy punkt 0,0,0 miesci sie w powiekszonym przez metode &#160;&#160;enlargen_by_rad obszarze w ...">
<polygon fill="none" stroke="black" points="560.5,-651 560.5,-670 670.5,-670 670.5,-651 560.5,-651"/>
<text text-anchor="middle" x="615.5" y="-658" font-family="Helvetica,sans-Serif" font-size="10.00">Drone::main_check</text>
</a>
</g>
</g>
<!-- Node3&#45;&gt;Node12 -->
<g id="edge12" class="edge">
<title>Node3&#45;&gt;Node12</title>
<path fill="none" stroke="midnightblue" d="M442.87,-604.07C467.37,-614.13 507.54,-630.05 543,-641.5 550.39,-643.89 558.28,-646.21 566.02,-648.36"/>
<polygon fill="midnightblue" stroke="midnightblue" points="565.12,-651.74 575.69,-650.98 566.96,-644.98 565.12,-651.74"/>
</g>
<!-- Node13 -->
<g id="node13" class="node">
<title>Node13</title>
<g id="a_node13"><a xlink:href="class_drone.html#a8e86dfee9cdbdc1d2791ad51d1212517" target="_top" xlink:title="Methoda uzywana przy check_intersection() przesuwajaca i rotujaca caly uklad.">
<polygon fill="none" stroke="black" points="551,-601.5 551,-631.5 680,-631.5 680,-601.5 551,-601.5"/>
<text text-anchor="start" x="559" y="-619.5" font-family="Helvetica,sans-Serif" font-size="10.00">Drone::new_coordinate</text>
<text text-anchor="middle" x="615.5" y="-608.5" font-family="Helvetica,sans-Serif" font-size="10.00">_system_intersection</text>
</a>
</g>
</g>
<!-- Node3&#45;&gt;Node13 -->
<g id="edge13" class="edge">
<title>Node3&#45;&gt;Node13</title>
<path fill="none" stroke="midnightblue" d="M490.77,-602.5C507.05,-604.35 524.4,-606.31 540.8,-608.16"/>
<polygon fill="midnightblue" stroke="midnightblue" points="540.55,-611.66 550.88,-609.3 541.33,-604.7 540.55,-611.66"/>
</g>
<!-- Node7 -->
<g id="node7" class="node">
<title>Node7</title>
<g id="a_node7"><a xlink:href="class_prism.html#ab08ae36567a12753d78ae4b5fb2fbfa2" target="_top" xlink:title="Metoda zwracajaca dlugosc przekatnej podstawy prostopadloscianu">
<polygon fill="none" stroke="black" points="727,-651 727,-670 891,-670 891,-651 727,-651"/>
<text text-anchor="middle" x="809" y="-658" font-family="Helvetica,sans-Serif" font-size="10.00">Prism::get_basis_diagonal_len</text>
</a>
</g>
</g>
<!-- Node6&#45;&gt;Node7 -->
<g id="edge6" class="edge">
<title>Node6&#45;&gt;Node7</title>
<path fill="none" stroke="midnightblue" d="M664.82,-688.91C690.66,-683.78 722.67,-677.43 749.86,-672.04"/>
<polygon fill="midnightblue" stroke="midnightblue" points="750.9,-675.4 760.02,-670.02 749.53,-668.53 750.9,-675.4"/>
</g>
<!-- Node8 -->
<g id="node8" class="node">
<title>Node8</title>
<g id="a_node8"><a xlink:href="class_cuboid.html#a79e4e3337e02d8f8a757561cedbdb71f" target="_top" xlink:title="Metoda zwracajaca dlugosc przekatnej podstawy prostopadloscianu">
<polygon fill="none" stroke="black" points="724,-689 724,-708 894,-708 894,-689 724,-689"/>
<text text-anchor="middle" x="809" y="-696" font-family="Helvetica,sans-Serif" font-size="10.00">Cuboid::get_basis_diagonal_len</text>
</a>
</g>
</g>
<!-- Node6&#45;&gt;Node8 -->
<g id="edge7" class="edge">
<title>Node6&#45;&gt;Node8</title>
<path fill="none" stroke="midnightblue" d="M683.75,-698.5C693.45,-698.5 703.57,-698.5 713.68,-698.5"/>
<polygon fill="midnightblue" stroke="midnightblue" points="713.77,-702 723.77,-698.5 713.77,-695 713.77,-702"/>
</g>
<!-- Node9 -->
<g id="node9" class="node">
<title>Node9</title>
<g id="a_node9"><a xlink:href="class_cuboid.html#a0e7f901199262984ab6ba0da01d96c40" target="_top" xlink:title="Metoda zwracajaca srodek podstawy ostroslupa">
<polygon fill="none" stroke="black" points="930,-638 930,-657 1069,-657 1069,-638 930,-638"/>
<text text-anchor="middle" x="999.5" y="-645" font-family="Helvetica,sans-Serif" font-size="10.00">Cuboid::get_basis_centre</text>
</a>
</g>
</g>
<!-- Node8&#45;&gt;Node9 -->
<g id="edge8" class="edge">
<title>Node8&#45;&gt;Node9</title>
<path fill="none" stroke="midnightblue" d="M855.05,-688.96C867.7,-686.11 881.43,-682.84 894,-679.5 915.86,-673.69 940.02,-666.35 959.6,-660.17"/>
<polygon fill="midnightblue" stroke="midnightblue" points="960.92,-663.42 969.39,-657.05 958.8,-656.75 960.92,-663.42"/>
</g>
<!-- Node11 -->
<g id="node11" class="node">
<title>Node11</title>
<g id="a_node11"><a xlink:href="class_drone.html#abf6bc328fea7ec556e5a23ca37cf6d8e" target="_top" xlink:title="Zwraca pozycje srodka podstawy body">
<polygon fill="none" stroke="black" points="764,-537 764,-556 854,-556 854,-537 764,-537"/>
<text text-anchor="middle" x="809" y="-544" font-family="Helvetica,sans-Serif" font-size="10.00">Drone::get_pos</text>
</a>
</g>
</g>
<!-- Node10&#45;&gt;Node11 -->
<g id="edge10" class="edge">
<title>Node10&#45;&gt;Node11</title>
<path fill="none" stroke="midnightblue" d="M652.97,-506.02C683.75,-514.06 728.01,-525.62 761.37,-534.32"/>
<polygon fill="midnightblue" stroke="midnightblue" points="760.78,-537.79 771.34,-536.93 762.55,-531.02 760.78,-537.79"/>
</g>
<!-- Node11&#45;&gt;Node9 -->
<g id="edge11" class="edge">
<title>Node11&#45;&gt;Node9</title>
<path fill="none" stroke="midnightblue" d="M827.73,-556C860.85,-573.75 932.29,-612.02 971.46,-633.01"/>
<polygon fill="midnightblue" stroke="midnightblue" points="970.21,-636.31 980.68,-637.95 973.51,-630.14 970.21,-636.31"/>
</g>
<!-- Node15 -->
<g id="node15" class="node">
<title>Node15</title>
<g id="a_node15"><a xlink:href="namespace_pz_g.html#ae1aad0c681853d7e47da4cdfccefc102" target="_top" xlink:title="Funkcja pomocnicza, sprawdza czy plik o podanej nazwie jest na dysku.">
<polygon fill="none" stroke="black" points="371.5,-536 371.5,-555 466.5,-555 466.5,-536 371.5,-536"/>
<text text-anchor="middle" x="419" y="-543" font-family="Helvetica,sans-Serif" font-size="10.00">PzG::CzyJestPlik</text>
</a>
</g>
</g>
<!-- Node14&#45;&gt;Node15 -->
<g id="edge15" class="edge">
<title>Node14&#45;&gt;Node15</title>
<path fill="none" stroke="midnightblue" d="M284.01,-545.5C308.92,-545.5 337.23,-545.5 361.39,-545.5"/>
<polygon fill="midnightblue" stroke="midnightblue" points="361.46,-549 371.46,-545.5 361.46,-542 361.46,-549"/>
</g>
<!-- Node19 -->
<g id="node19" class="node">
<title>Node19</title>
<g id="a_node19"><a xlink:href="class_prism.html#a764c6940e4fb65303981e8b877b28561" target="_top" xlink:title="Metoda wypisania odpowiednich wierzcholkow do pliku zgodnie z zaproponowanym sposobem zadaniu dron">
<polygon fill="none" stroke="black" points="356.5,-416 356.5,-435 481.5,-435 481.5,-416 356.5,-416"/>
<text text-anchor="middle" x="419" y="-423" font-family="Helvetica,sans-Serif" font-size="10.00">Prism::print_prism_3D</text>
</a>
</g>
</g>
<!-- Node18&#45;&gt;Node19 -->
<g id="edge19" class="edge">
<title>Node18&#45;&gt;Node19</title>
<path fill="none" stroke="midnightblue" d="M277,-425.5C298.5,-425.5 323.24,-425.5 345.94,-425.5"/>
<polygon fill="midnightblue" stroke="midnightblue" points="346.21,-429 356.21,-425.5 346.21,-422 346.21,-429"/>
</g>
<!-- Node21 -->
<g id="node21" class="node">
<title>Node21</title>
<g id="a_node21"><a xlink:href="class_prism.html#a22c5467db5d960bddbaf9a52f55c55cb" target="_top" xlink:title="Metoda obracajaca graniastoslup o zadany kat w 3D wokol srodka figury">
<polygon fill="none" stroke="black" points="344,-264 344,-283 494,-283 494,-264 344,-264"/>
<text text-anchor="middle" x="419" y="-271" font-family="Helvetica,sans-Serif" font-size="10.00">Prism::rotation_around_cen</text>
</a>
</g>
</g>
<!-- Node20&#45;&gt;Node21 -->
<g id="edge21" class="edge">
<title>Node20&#45;&gt;Node21</title>
<path fill="none" stroke="midnightblue" d="M295.14,-270.4C307.74,-270.72 320.89,-271.05 333.71,-271.37"/>
<polygon fill="midnightblue" stroke="midnightblue" points="333.81,-274.88 343.9,-271.63 333.99,-267.88 333.81,-274.88"/>
</g>
<!-- Node24 -->
<g id="node24" class="node">
<title>Node24</title>
<g id="a_node24"><a xlink:href="class_cuboid.html#a6c697c2d9b36a14c43c7328876d5a1f0" target="_top" xlink:title="Metoda obracajaca prostopadloscian o zadany kat w 3D wokol srodka figury">
<polygon fill="none" stroke="black" points="341,-176 341,-195 497,-195 497,-176 341,-176"/>
<text text-anchor="middle" x="419" y="-183" font-family="Helvetica,sans-Serif" font-size="10.00">Cuboid::rotation_around_cen</text>
</a>
</g>
</g>
<!-- Node20&#45;&gt;Node24 -->
<g id="edge25" class="edge">
<title>Node20&#45;&gt;Node24</title>
<path fill="none" stroke="midnightblue" d="M244.01,-258.93C259.09,-252.53 278.7,-243.47 295,-233.5 312.29,-222.93 312.69,-214.2 331,-205.5 337.11,-202.6 343.67,-200.1 350.35,-197.96"/>
<polygon fill="midnightblue" stroke="midnightblue" points="351.57,-201.25 360.17,-195.07 349.59,-194.53 351.57,-201.25"/>
</g>
<!-- Node27 -->
<g id="node27" class="node">
<title>Node27</title>
<g id="a_node27"><a xlink:href="class_drone.html#aea963b77f42c204504542a3d9190d762" target="_top" xlink:title="Metoda uzywana przy konstruowania drona Ustawia rotory w ten sposob, ze srodek ich dolnej podstawy je...">
<polygon fill="none" stroke="black" points="361.5,-214.5 361.5,-244.5 476.5,-244.5 476.5,-214.5 361.5,-214.5"/>
<text text-anchor="start" x="369.5" y="-232.5" font-family="Helvetica,sans-Serif" font-size="10.00">Drone::set_rotors_in</text>
<text text-anchor="middle" x="419" y="-221.5" font-family="Helvetica,sans-Serif" font-size="10.00">_place</text>
</a>
</g>
</g>
<!-- Node20&#45;&gt;Node27 -->
<g id="edge28" class="edge">
<title>Node20&#45;&gt;Node27</title>
<path fill="none" stroke="midnightblue" d="M268.44,-258.96C293.42,-254.04 324.27,-247.96 351.45,-242.61"/>
<polygon fill="midnightblue" stroke="midnightblue" points="352.15,-246.04 361.28,-240.67 350.8,-239.17 352.15,-246.04"/>
</g>
<!-- Node21&#45;&gt;Node22 -->
<g id="edge22" class="edge">
<title>Node21&#45;&gt;Node22</title>
<path fill="none" stroke="midnightblue" d="M475.28,-283.02C496.42,-286.41 520.78,-289.99 543,-292.5 612.76,-300.37 693.23,-305.6 747.03,-308.55"/>
<polygon fill="midnightblue" stroke="midnightblue" points="746.91,-312.04 757.08,-309.09 747.29,-305.05 746.91,-312.04"/>
</g>
<!-- Node21&#45;&gt;Node23 -->
<g id="edge23" class="edge">
<title>Node21&#45;&gt;Node23</title>
<path fill="none" stroke="midnightblue" d="M467.76,-283.07C480.87,-286.66 494.82,-291.39 507,-297.5 525.12,-306.59 525.14,-315.92 543,-325.5 550.96,-329.77 559.83,-333.49 568.54,-336.63"/>
<polygon fill="midnightblue" stroke="midnightblue" points="567.64,-340.02 578.24,-339.94 569.9,-333.4 567.64,-340.02"/>
</g>
<!-- Node23&#45;&gt;Node22 -->
<g id="edge24" class="edge">
<title>Node23&#45;&gt;Node22</title>
<path fill="none" stroke="midnightblue" d="M664.82,-339.91C690.66,-334.78 722.67,-328.43 749.86,-323.04"/>
<polygon fill="midnightblue" stroke="midnightblue" points="750.9,-326.4 760.02,-321.02 749.53,-319.53 750.9,-326.4"/>
</g>
<!-- Node25 -->
<g id="node25" class="node">
<title>Node25</title>
<g id="a_node25"><a xlink:href="class_cuboid.html#a3f6b1b9ea7de433af5b0d462d29f4272" target="_top" xlink:title="Metoda przesuwajaca prostopadloscian o zadany kat w 3D">
<polygon fill="none" stroke="black" points="561,-138 561,-157 670,-157 670,-138 561,-138"/>
<text text-anchor="middle" x="615.5" y="-145" font-family="Helvetica,sans-Serif" font-size="10.00">Cuboid::translation</text>
</a>
</g>
</g>
<!-- Node24&#45;&gt;Node25 -->
<g id="edge26" class="edge">
<title>Node24&#45;&gt;Node25</title>
<path fill="none" stroke="midnightblue" d="M468.83,-175.96C495.19,-170.81 527.92,-164.42 555.67,-158.99"/>
<polygon fill="midnightblue" stroke="midnightblue" points="556.51,-162.4 565.65,-157.04 555.16,-155.53 556.51,-162.4"/>
</g>
<!-- Node26 -->
<g id="node26" class="node">
<title>Node26</title>
<g id="a_node26"><a xlink:href="class_cuboid.html#a42bdce7c214e759cb6ea94d4f547a5b9" target="_top" xlink:title="Metoda przesuwajaca prostopadloscian do (0,0,0)">
<polygon fill="none" stroke="black" points="547,-176 547,-195 684,-195 684,-176 547,-176"/>
<text text-anchor="middle" x="615.5" y="-183" font-family="Helvetica,sans-Serif" font-size="10.00">Cuboid::translation_to_O</text>
</a>
</g>
</g>
<!-- Node24&#45;&gt;Node26 -->
<g id="edge27" class="edge">
<title>Node24&#45;&gt;Node26</title>
<path fill="none" stroke="midnightblue" d="M497.15,-185.5C510.12,-185.5 523.59,-185.5 536.58,-185.5"/>
<polygon fill="midnightblue" stroke="midnightblue" points="536.88,-189 546.88,-185.5 536.88,-182 536.88,-189"/>
</g>
<!-- Node28 -->
<g id="node28" class="node">
<title>Node28</title>
<g id="a_node28"><a xlink:href="class_cuboid.html#a99d30564d6129e6905c5333e04df9606" target="_top" xlink:title="Metoda zwracajaca wierzcholki prostopadloscianu do Vector3D">
<polygon fill="none" stroke="black" points="568,-264 568,-283 663,-283 663,-264 568,-264"/>
<text text-anchor="middle" x="615.5" y="-271" font-family="Helvetica,sans-Serif" font-size="10.00">Cuboid::get_cub</text>
</a>
</g>
</g>
<!-- Node27&#45;&gt;Node28 -->
<g id="edge29" class="edge">
<title>Node27&#45;&gt;Node28</title>
<path fill="none" stroke="midnightblue" d="M476.52,-242.29C503.67,-248.43 535.99,-255.74 562.52,-261.74"/>
<polygon fill="midnightblue" stroke="midnightblue" points="561.86,-265.18 572.39,-263.97 563.41,-258.35 561.86,-265.18"/>
</g>
<!-- Node29 -->
<g id="node29" class="node">
<title>Node29</title>
<g id="a_node29"><a xlink:href="class_prism.html#a4e2b0b9c37d6a53af869522a4bf364ac" target="_top" xlink:title="Metoda przesuwajaca graniastoslup o zadany wektor w 3D w taki sposob, ze srodek jego dolnej podstawy ...">
<polygon fill="none" stroke="black" points="564,-214.5 564,-244.5 667,-244.5 667,-214.5 564,-214.5"/>
<text text-anchor="start" x="572" y="-232.5" font-family="Helvetica,sans-Serif" font-size="10.00">Prism::translation</text>
<text text-anchor="middle" x="615.5" y="-221.5" font-family="Helvetica,sans-Serif" font-size="10.00">_of_lower_cen</text>
</a>
</g>
</g>
<!-- Node27&#45;&gt;Node29 -->
<g id="edge30" class="edge">
<title>Node27&#45;&gt;Node29</title>
<path fill="none" stroke="midnightblue" d="M476.52,-229.5C500.66,-229.5 528.89,-229.5 553.51,-229.5"/>
<polygon fill="midnightblue" stroke="midnightblue" points="553.81,-233 563.81,-229.5 553.81,-226 553.81,-233"/>
</g>
<!-- Node29&#45;&gt;Node22 -->
<g id="edge31" class="edge">
<title>Node29&#45;&gt;Node22</title>
<path fill="none" stroke="midnightblue" d="M661.78,-244.51C670.54,-247.65 679.61,-251.05 688,-254.5 720.25,-267.75 756.26,-285.23 780.34,-297.32"/>
<polygon fill="midnightblue" stroke="midnightblue" points="779.07,-300.6 789.57,-301.99 782.22,-294.35 779.07,-300.6"/>
</g>
<!-- Node31 -->
<g id="node31" class="node">
<title>Node31</title>
<g id="a_node31"><a xlink:href="namespace_pz_g.html#aa010184f31b26bb561b42f22438b821e" target="_top" xlink:title="Funkcja pomocnicza, dopisuje do polecenia wpisy związane z rysowaniem z pliku.">
<polygon fill="none" stroke="black" points="336,-50 336,-69 502,-69 502,-50 336,-50"/>
<text text-anchor="middle" x="419" y="-57" font-family="Helvetica,sans-Serif" font-size="10.00">PzG::DopiszRysowanieZPlikow</text>
</a>
</g>
</g>
<!-- Node30&#45;&gt;Node31 -->
<g id="edge33" class="edge">
<title>Node30&#45;&gt;Node31</title>
<path fill="none" stroke="midnightblue" d="M277.53,-138.49C283.71,-135.68 289.67,-132.38 295,-128.5 316.84,-112.59 308.42,-94.34 331,-79.5 334.82,-76.99 338.91,-74.79 343.16,-72.87"/>
<polygon fill="midnightblue" stroke="midnightblue" points="344.69,-76.03 352.69,-69.08 342.1,-69.53 344.69,-76.03"/>
</g>
<!-- Node32 -->
<g id="node32" class="node">
<title>Node32</title>
<g id="a_node32"><a xlink:href="namespace_pz_g.html#a7227cb39c785b1c746b6bb5515c0b781" target="_top" xlink:title="Dodaje do listy rysowanych punktów, punkty o różnych rozmiarach.">
<polygon fill="none" stroke="black" points="331,-88.5 331,-118.5 507,-118.5 507,-88.5 331,-88.5"/>
<text text-anchor="start" x="339" y="-106.5" font-family="Helvetica,sans-Serif" font-size="10.00">PzG::DopiszRysowanieZRoznych</text>
<text text-anchor="middle" x="419" y="-95.5" font-family="Helvetica,sans-Serif" font-size="10.00">Punktow</text>
</a>
</g>
</g>
<!-- Node30&#45;&gt;Node32 -->
<g id="edge34" class="edge">
<title>Node30&#45;&gt;Node32</title>
<path fill="none" stroke="midnightblue" d="M279.41,-138.5C301.14,-133.01 325.91,-126.75 348.45,-121.06"/>
<polygon fill="midnightblue" stroke="midnightblue" points="349.45,-124.42 358.29,-118.58 347.74,-117.63 349.45,-124.42"/>
</g>
<!-- Node33 -->
<g id="node33" class="node">
<title>Node33</title>
<g id="a_node33"><a xlink:href="namespace_pz_g.html#a169c311f0e0b6ffadcd44e91e749f72d" target="_top" xlink:title="Wczytuje z pliku listę punktów.">
<polygon fill="none" stroke="black" points="543,-50.5 543,-80.5 688,-80.5 688,-50.5 543,-50.5"/>
<text text-anchor="start" x="551" y="-68.5" font-family="Helvetica,sans-Serif" font-size="10.00">PzG::WczytajListeRoznych</text>
<text text-anchor="middle" x="615.5" y="-57.5" font-family="Helvetica,sans-Serif" font-size="10.00">Punktow</text>
</a>
</g>
</g>
<!-- Node32&#45;&gt;Node33 -->
<g id="edge35" class="edge">
<title>Node32&#45;&gt;Node33</title>
<path fill="none" stroke="midnightblue" d="M496.87,-88.48C508.73,-86.16 521.02,-83.76 532.98,-81.43"/>
<polygon fill="midnightblue" stroke="midnightblue" points="533.79,-84.83 542.93,-79.48 532.45,-77.96 533.79,-84.83"/>
</g>
<!-- Node34 -->
<g id="node34" class="node">
<title>Node34</title>
<g id="a_node34"><a xlink:href="class_pz_g_1_1_atrybuty_rysowania.html#ab068535b4d2f755c394557d1da72a4eb" target="_top" xlink:title="Zmienia kolor rysowania.">
<polygon fill="none" stroke="black" points="740.5,-50.5 740.5,-80.5 877.5,-80.5 877.5,-50.5 740.5,-50.5"/>
<text text-anchor="start" x="748.5" y="-68.5" font-family="Helvetica,sans-Serif" font-size="10.00">PzG::AtrybutyRysowania</text>
<text text-anchor="middle" x="809" y="-57.5" font-family="Helvetica,sans-Serif" font-size="10.00">::ZmienKolor</text>
</a>
</g>
</g>
<!-- Node33&#45;&gt;Node34 -->
<g id="edge36" class="edge">
<title>Node33&#45;&gt;Node34</title>
<path fill="none" stroke="midnightblue" d="M688.08,-65.5C701.84,-65.5 716.32,-65.5 730.27,-65.5"/>
<polygon fill="midnightblue" stroke="midnightblue" points="730.31,-69 740.31,-65.5 730.31,-62 730.31,-69"/>
</g>
<!-- Node35 -->
<g id="node35" class="node">
<title>Node35</title>
<g id="a_node35"><a xlink:href="class_pz_g_1_1_atrybuty_rysowania.html#af4b140eb03bc10b6fd816fad63f8372e" target="_top" xlink:title="Zmienia rozmiar rysowania.">
<polygon fill="none" stroke="black" points="740.5,-1.5 740.5,-31.5 877.5,-31.5 877.5,-1.5 740.5,-1.5"/>
<text text-anchor="start" x="748.5" y="-19.5" font-family="Helvetica,sans-Serif" font-size="10.00">PzG::AtrybutyRysowania</text>
<text text-anchor="middle" x="809" y="-8.5" font-family="Helvetica,sans-Serif" font-size="10.00">::ZmienRozmiar</text>
</a>
</g>
</g>
<!-- Node33&#45;&gt;Node35 -->
<g id="edge37" class="edge">
<title>Node33&#45;&gt;Node35</title>
<path fill="none" stroke="midnightblue" d="M675.26,-50.47C695.57,-45.27 718.51,-39.4 739.53,-34.02"/>
<polygon fill="midnightblue" stroke="midnightblue" points="740.53,-37.38 749.35,-31.51 738.8,-30.59 740.53,-37.38"/>
</g>
<!-- Node36 -->
<g id="node36" class="node">
<title>Node36</title>
<g id="a_node36"><a xlink:href="class_pz_g_1_1_atrybuty_rysowania.html#a2ac97706124b14072715ecf3f07e82b4" target="_top" xlink:title="Zmienia styl rysowania.">
<polygon fill="none" stroke="black" points="740.5,-99.5 740.5,-129.5 877.5,-129.5 877.5,-99.5 740.5,-99.5"/>
<text text-anchor="start" x="748.5" y="-117.5" font-family="Helvetica,sans-Serif" font-size="10.00">PzG::AtrybutyRysowania</text>
<text text-anchor="middle" x="809" y="-106.5" font-family="Helvetica,sans-Serif" font-size="10.00">::ZmienStyl</text>
</a>
</g>
</g>
<!-- Node33&#45;&gt;Node36 -->
<g id="edge38" class="edge">
<title>Node33&#45;&gt;Node36</title>
<path fill="none" stroke="midnightblue" d="M675.26,-80.53C695.57,-85.73 718.51,-91.6 739.53,-96.98"/>
<polygon fill="midnightblue" stroke="midnightblue" points="738.8,-100.41 749.35,-99.49 740.53,-93.62 738.8,-100.41"/>
</g>
<!-- Node37&#45;&gt;Node23 -->
<g id="edge40" class="edge">
<title>Node37&#45;&gt;Node23</title>
<path fill="none" stroke="midnightblue" d="M266.03,-349.5C333.27,-349.5 459.12,-349.5 539.75,-349.5"/>
<polygon fill="midnightblue" stroke="midnightblue" points="539.84,-353 549.84,-349.5 539.84,-346 539.84,-353"/>
</g>
<!-- Node39&#45;&gt;Node22 -->
<g id="edge43" class="edge">
<title>Node39&#45;&gt;Node22</title>
<path fill="none" stroke="midnightblue" d="M468.18,-137.99C534.88,-125.86 651.27,-108.66 688,-128.5 753.69,-163.98 789.24,-252.83 802.22,-292.2"/>
<polygon fill="midnightblue" stroke="midnightblue" points="798.93,-293.43 805.28,-301.91 805.61,-291.32 798.93,-293.43"/>
</g>
<!-- Node39&#45;&gt;Node25 -->
<g id="edge44" class="edge">
<title>Node39&#45;&gt;Node25</title>
<path fill="none" stroke="midnightblue" d="M471.1,-147.5C495.45,-147.5 524.81,-147.5 550.61,-147.5"/>
<polygon fill="midnightblue" stroke="midnightblue" points="550.68,-151 560.68,-147.5 550.68,-144 550.68,-151"/>
</g>
<!-- Node41 -->
<g id="node41" class="node">
<title>Node41</title>
<g id="a_node41"><a xlink:href="class_pz_g_1_1_info_pliku_do_rysowania.html#a714aaa4c8e7bbd167ccbb1e797ca158c" target="_top" xlink:title="Udostępia nazwę pliku do rysowania.">
<polygon fill="none" stroke="black" points="344,-0.5 344,-30.5 494,-30.5 494,-0.5 344,-0.5"/>
<text text-anchor="start" x="352" y="-18.5" font-family="Helvetica,sans-Serif" font-size="10.00">PzG::InfoPlikuDoRysowania</text>
<text text-anchor="middle" x="419" y="-7.5" font-family="Helvetica,sans-Serif" font-size="10.00">::WezNazwePliku</text>
</a>
</g>
</g>
<!-- Node40&#45;&gt;Node41 -->
<g id="edge48" class="edge">
<title>Node40&#45;&gt;Node41</title>
<path fill="none" stroke="midnightblue" d="M284.01,-19.56C299.82,-19.08 317,-18.56 333.62,-18.06"/>
<polygon fill="midnightblue" stroke="midnightblue" points="333.99,-21.55 343.88,-17.75 333.78,-14.55 333.99,-21.55"/>
</g>
</g>
</svg>
        <g id="navigator" transform="translate(0 0)" fill="#404254">
                <rect fill="#f2f5e9" fill-opacity="0.5" stroke="#606060" stroke-width=".5" x="0" y="0" width="60" height="60"/>
                <use id="zoomplus" xlink:href="#zoomPlus" x="17" y="9" onmousedown="handleZoom(evt,'in')"/>
                <use id="zoomminus" xlink:href="#zoomMin" x="42" y="9" onmousedown="handleZoom(evt,'out')"/>
                <use id="reset" xlink:href="#resetDef" x="30" y="36" onmousedown="handleReset()"/>
                <g id="arrowUp" xlink:href="#dirArrow" transform="translate(30 24)" onmousedown="handlePan(0,-1)">
                  <use xlink:href="#rim" fill="#404040">
                        <set attributeName="fill" to="#808080" begin="arrowUp.mouseover" end="arrowUp.mouseout"/>
                  </use>
                  <path fill="none" stroke="white" stroke-width="1.5" d="M0,-3.0v7 M-2.5,-0.5L0,-3.0L2.5,-0.5"/>
                </g>
                <g id="arrowRight" xlink:href="#dirArrow" transform="rotate(90) translate(36 -43)" onmousedown="handlePan(1,0)">
                  <use xlink:href="#rim" fill="#404040">
                        <set attributeName="fill" to="#808080" begin="arrowRight.mouseover" end="arrowRight.mouseout"/>
                  </use>
                  <path fill="none" stroke="white" stroke-width="1.5" d="M0,-3.0v7 M-2.5,-0.5L0,-3.0L2.5,-0.5"/>
                </g>
                <g id="arrowDown" xlink:href="#dirArrow" transform="rotate(180) translate(-30 -48)" onmousedown="handlePan(0,1)">
                  <use xlink:href="#rim" fill="#404040">
                        <set attributeName="fill" to="#808080" begin="arrowDown.mouseover" end="arrowDown.mouseout"/>
                  </use>
                  <path fill="none" stroke="white" stroke-width="1.5" d="M0,-3.0v7 M-2.5,-0.5L0,-3.0L2.5,-0.5"/>
                </g>
                <g id="arrowLeft" xlink:href="#dirArrow" transform="rotate(270) translate(-36 17)" onmousedown="handlePan(-1,0)">
                  <use xlink:href="#rim" fill="#404040">
                        <set attributeName="fill" to="#808080" begin="arrowLeft.mouseover" end="arrowLeft.mouseout"/>
                  </use>
                  <path fill="none" stroke="white" stroke-width="1.5" d="M0,-3.0v7 M-2.5,-0.5L0,-3.0L2.5,-0.5"/>
                </g>
        </g>
        <svg viewBox="0 0 15 15" width="100%" height="30px" preserveAspectRatio="xMaxYMin meet">
         <g id="arrow_out" transform="scale(0.3 0.3)">
          <a xlink:href="class_scene_aa5fc0e5a94bfa0766f6e5ff10993630d_cgraph_org.svg" target="_base">
           <rect id="button" ry="5" rx="5" y="6" x="6" height="38" width="38"
                fill="#f2f5e9" fill-opacity="0.5" stroke="#606060" stroke-width="1.0"/>
           <path id="arrow"
             d="M 11.500037,31.436501 C 11.940474,20.09759 22.043105,11.32322 32.158766,21.979434 L 37.068811,17.246167 C 37.068811,17.246167 37.088388,32 37.088388,32 L 22.160133,31.978069 C 22.160133,31.978069 26.997745,27.140456 26.997745,27.140456 C 18.528582,18.264221 13.291696,25.230495 11.500037,31.436501 z"
             style="fill:#404040;"/>
          </a>
         </g>
        </svg>
</svg>
