<?xml version="1.0" encoding="UTF-8" standalone="no"?>
<!DOCTYPE svg PUBLIC "-//W3C//DTD SVG 1.1//EN"
 "http://www.w3.org/Graphics/SVG/1.1/DTD/svg11.dtd">
<!-- Generated by graphviz version 2.43.0 (0)
 -->
<!-- Title: Drone::Drone_make_path Pages: 1 -->
<svg width="323pt" height="88pt"
 viewBox="0.00 0.00 323.00 88.00" xmlns="http://www.w3.org/2000/svg" xmlns:xlink="http://www.w3.org/1999/xlink">
<g id="graph0" class="graph" transform="scale(1 1) rotate(0) translate(4 84)">
<title>Drone::Drone_make_path</title>
<!-- Node1 -->
<g id="node1" class="node">
<title>Node1</title>
<g id="a_node1"><a xlink:title="Metoda przygotowujaca sciezke drona z uzyciem std::vector&lt;&gt;">
<polygon fill="#bfbfbf" stroke="black" points="175,-30 175,-49 315,-49 315,-30 175,-30"/>
<text text-anchor="middle" x="245" y="-37" font-family="Helvetica,sans-Serif" font-size="10.00">Drone::Drone_make_path</text>
</a>
</g>
</g>
<!-- Node2 -->
<g id="node2" class="node">
<title>Node2</title>
<g id="a_node2"><a xlink:href="class_drone.html#ac4d24c27fb2c107d2e8bda0c2bf5cfa1" target="_top" xlink:title="Metoda obliczajaca i przeprowadzajaca caly ruch drona (obrot o kat i przelot z zadania 5....">
<polygon fill="none" stroke="black" points="13.5,-49.5 13.5,-79.5 125.5,-79.5 125.5,-49.5 13.5,-49.5"/>
<text text-anchor="start" x="21.5" y="-67.5" font-family="Helvetica,sans-Serif" font-size="10.00">Drone::Drone_basic</text>
<text text-anchor="middle" x="69.5" y="-56.5" font-family="Helvetica,sans-Serif" font-size="10.00">_motion</text>
</a>
</g>
</g>
<!-- Node1&#45;&gt;Node2 -->
<g id="edge1" class="edge">
<title>Node1&#45;&gt;Node2</title>
<path fill="none" stroke="midnightblue" d="M167.7,-50.49C153.56,-52.53 139.04,-54.62 125.68,-56.55"/>
<polygon fill="midnightblue" stroke="midnightblue" points="168.51,-53.91 177.91,-49.02 167.52,-46.98 168.51,-53.91"/>
</g>
<!-- Node3 -->
<g id="node3" class="node">
<title>Node3</title>
<g id="a_node3"><a xlink:href="class_drone.html#a5fc9dd645ad3856b5d3c501c63c464e3" target="_top" xlink:title="Metoda animujaca translacje drona i wyrysowujaca calosc w gnuplocie.">
<polygon fill="none" stroke="black" points="0,-0.5 0,-30.5 139,-30.5 139,-0.5 0,-0.5"/>
<text text-anchor="start" x="8" y="-18.5" font-family="Helvetica,sans-Serif" font-size="10.00">Drone::Drone_translation</text>
<text text-anchor="middle" x="69.5" y="-7.5" font-family="Helvetica,sans-Serif" font-size="10.00">_animation</text>
</a>
</g>
</g>
<!-- Node1&#45;&gt;Node3 -->
<g id="edge2" class="edge">
<title>Node1&#45;&gt;Node3</title>
<path fill="none" stroke="midnightblue" d="M164.88,-28.55C156.25,-27.36 147.53,-26.16 139.05,-24.98"/>
<polygon fill="midnightblue" stroke="midnightblue" points="164.54,-32.04 174.93,-29.95 165.5,-25.11 164.54,-32.04"/>
</g>
</g>
</svg>
