<?xml version="1.0" encoding="UTF-8" standalone="no"?>
<!DOCTYPE svg PUBLIC "-//W3C//DTD SVG 1.1//EN"
 "http://www.w3.org/Graphics/SVG/1.1/DTD/svg11.dtd">
<!-- Generated by graphviz version 2.43.0 (0)
 -->
<!-- Title: Circus Pages: 1 -->
<!--zoomable 2002 -->
<svg id="main" version="1.1" xmlns="http://www.w3.org/2000/svg" xmlns:xlink="http://www.w3.org/1999/xlink" xml:space="preserve" onload="init(evt)">
<style type="text/css"><![CDATA[
.edge:hover path { stroke: red; }
.edge:hover polygon { stroke: red; fill: red; }
]]></style>
<script type="text/javascript"><![CDATA[
var edges = document.getElementsByTagName('g');
if (edges && edges.length) {
  for (var i=0;i<edges.length;i++) {
    if (edges[i].id.substr(0,4)=='edge') {
      edges[i].setAttribute('class','edge');
    }
  }
}
]]></script>
        <defs>
                <circle id="rim" cx="0" cy="0" r="7"/>
                <circle id="rim2" cx="0" cy="0" r="3.5"/>
                <g id="zoomPlus">
                        <use xlink:href="#rim" fill="#404040">
                                <set attributeName="fill" to="#808080" begin="zoomplus.mouseover" end="zoomplus.mouseout"/>
                        </use>
                        <path d="M-4,0h8M0,-4v8" fill="none" stroke="white" stroke-width="1.5" pointer-events="none"/>
                </g>
                <g id="zoomMin">
                        <use xlink:href="#rim" fill="#404040">
                                <set attributeName="fill" to="#808080" begin="zoomminus.mouseover" end="zoomminus.mouseout"/>
                        </use>
                        <path d="M-4,0h8" fill="none" stroke="white" stroke-width="1.5" pointer-events="none"/>
                </g>
                <g id="dirArrow">
                        <path fill="none" stroke="white" stroke-width="1.5" d="M0,-3.0v7 M-2.5,-0.5L0,-3.0L2.5,-0.5"/>
                </g>
               <g id="resetDef">
                       <use xlink:href="#rim2" fill="#404040">
                               <set attributeName="fill" to="#808080" begin="reset.mouseover" end="reset.mouseout"/>
                       </use>
               </g>
        </defs>

<script type="text/javascript">
var viewWidth = 455;
var viewHeight = 2002;
var sectionId = 'dynsection-1';
</script>
<script xlink:href="svgpan.js"/>
<svg id="graph" class="graph">
<g id="viewport">
<title>Circus</title>
<!-- Node1 -->
<g id="node1" class="node">
<title>Node1</title>
<g id="a_node1"><a xlink:title="Opisuje graniastoslup szesciokatny o podwyzszonym srodku gornej podstawy. Jest klasa dziedziczaca z k...">
<polygon fill="#bfbfbf" stroke="black" points="177.5,-0.5 177.5,-112.5 282.5,-112.5 282.5,-0.5 177.5,-0.5"/>
<text text-anchor="middle" x="230" y="-100.5" font-family="Helvetica,sans-Serif" font-size="10.00">Circus</text>
<polyline fill="none" stroke="black" points="177.5,-93.5 282.5,-93.5 "/>
<text text-anchor="middle" x="230" y="-81.5" font-family="Helvetica,sans-Serif" font-size="10.00"> </text>
<polyline fill="none" stroke="black" points="177.5,-74.5 282.5,-74.5 "/>
<text text-anchor="start" x="185.5" y="-62.5" font-family="Helvetica,sans-Serif" font-size="10.00">+ Circus()</text>
<text text-anchor="start" x="185.5" y="-51.5" font-family="Helvetica,sans-Serif" font-size="10.00">+ Circus()</text>
<text text-anchor="start" x="185.5" y="-40.5" font-family="Helvetica,sans-Serif" font-size="10.00">+ special_points()</text>
<text text-anchor="start" x="185.5" y="-29.5" font-family="Helvetica,sans-Serif" font-size="10.00">+ operator=()</text>
<text text-anchor="start" x="185.5" y="-18.5" font-family="Helvetica,sans-Serif" font-size="10.00">+ print_name()</text>
<text text-anchor="start" x="185.5" y="-7.5" font-family="Helvetica,sans-Serif" font-size="10.00">+ get_type()</text>
</a>
</g>
</g>
<!-- Node2 -->
<g id="node2" class="node">
<title>Node2</title>
<g id="a_node2"><a xlink:href="class_prism.html" target="_top" xlink:title="Opisuje graniastoslup o dwunastu wierzcholkach w przestrzeni trojwymiarowej.">
<polygon fill="none" stroke="black" points="151,-150.5 151,-570.5 309,-570.5 309,-150.5 151,-150.5"/>
<text text-anchor="middle" x="230" y="-558.5" font-family="Helvetica,sans-Serif" font-size="10.00">Prism</text>
<polyline fill="none" stroke="black" points="151,-551.5 309,-551.5 "/>
<text text-anchor="middle" x="230" y="-539.5" font-family="Helvetica,sans-Serif" font-size="10.00"> </text>
<polyline fill="none" stroke="black" points="151,-532.5 309,-532.5 "/>
<text text-anchor="start" x="159" y="-520.5" font-family="Helvetica,sans-Serif" font-size="10.00">+ Prism()</text>
<text text-anchor="start" x="159" y="-509.5" font-family="Helvetica,sans-Serif" font-size="10.00">+ Prism()</text>
<text text-anchor="start" x="159" y="-498.5" font-family="Helvetica,sans-Serif" font-size="10.00">+ Prism()</text>
<text text-anchor="start" x="159" y="-487.5" font-family="Helvetica,sans-Serif" font-size="10.00">+ Prism()</text>
<text text-anchor="start" x="159" y="-476.5" font-family="Helvetica,sans-Serif" font-size="10.00">+ Prism()</text>
<text text-anchor="start" x="159" y="-465.5" font-family="Helvetica,sans-Serif" font-size="10.00">+ get_pri()</text>
<text text-anchor="start" x="159" y="-454.5" font-family="Helvetica,sans-Serif" font-size="10.00">+ get_pri()</text>
<text text-anchor="start" x="159" y="-443.5" font-family="Helvetica,sans-Serif" font-size="10.00">+ check_pri()</text>
<text text-anchor="start" x="159" y="-432.5" font-family="Helvetica,sans-Serif" font-size="10.00">+ get_height()</text>
<text text-anchor="start" x="159" y="-421.5" font-family="Helvetica,sans-Serif" font-size="10.00">+ get_basis_diagonal_len()</text>
<text text-anchor="start" x="159" y="-410.5" font-family="Helvetica,sans-Serif" font-size="10.00">+ get_basis_pro()</text>
<text text-anchor="start" x="159" y="-399.5" font-family="Helvetica,sans-Serif" font-size="10.00">+ get_special_points()</text>
<text text-anchor="start" x="159" y="-388.5" font-family="Helvetica,sans-Serif" font-size="10.00">+ get_vec_ver()</text>
<text text-anchor="start" x="159" y="-377.5" font-family="Helvetica,sans-Serif" font-size="10.00">+ check_vec_ver()</text>
<text text-anchor="start" x="159" y="-366.5" font-family="Helvetica,sans-Serif" font-size="10.00">+ get_vec_pairs()</text>
<text text-anchor="start" x="159" y="-355.5" font-family="Helvetica,sans-Serif" font-size="10.00">+ check_vec_pairs()</text>
<text text-anchor="start" x="159" y="-344.5" font-family="Helvetica,sans-Serif" font-size="10.00">+ check_vec_perp()</text>
<text text-anchor="start" x="159" y="-333.5" font-family="Helvetica,sans-Serif" font-size="10.00">+ check_vec_basis()</text>
<text text-anchor="start" x="159" y="-322.5" font-family="Helvetica,sans-Serif" font-size="10.00">+ operator==()</text>
<text text-anchor="start" x="159" y="-311.5" font-family="Helvetica,sans-Serif" font-size="10.00">+ translation()</text>
<text text-anchor="start" x="159" y="-300.5" font-family="Helvetica,sans-Serif" font-size="10.00">+ translation_of_lower_cen()</text>
<text text-anchor="start" x="159" y="-289.5" font-family="Helvetica,sans-Serif" font-size="10.00">+ translation_to_O()</text>
<text text-anchor="start" x="159" y="-278.5" font-family="Helvetica,sans-Serif" font-size="10.00">+ rotation_around_cen()</text>
<text text-anchor="start" x="159" y="-267.5" font-family="Helvetica,sans-Serif" font-size="10.00">+ centre_point()</text>
<text text-anchor="start" x="159" y="-256.5" font-family="Helvetica,sans-Serif" font-size="10.00">+ get_basis_centre()</text>
<text text-anchor="start" x="159" y="-245.5" font-family="Helvetica,sans-Serif" font-size="10.00">+ special_points()</text>
<text text-anchor="start" x="159" y="-234.5" font-family="Helvetica,sans-Serif" font-size="10.00">+ print_prism_3D()</text>
<text text-anchor="start" x="159" y="-223.5" font-family="Helvetica,sans-Serif" font-size="10.00">+ Prism_From_Sample()</text>
<text text-anchor="start" x="159" y="-212.5" font-family="Helvetica,sans-Serif" font-size="10.00">+ Prism_To_File()</text>
<text text-anchor="start" x="159" y="-201.5" font-family="Helvetica,sans-Serif" font-size="10.00">+ scale_pri()</text>
<text text-anchor="start" x="159" y="-190.5" font-family="Helvetica,sans-Serif" font-size="10.00">+ scale_pri()</text>
<text text-anchor="start" x="159" y="-179.5" font-family="Helvetica,sans-Serif" font-size="10.00">+ print_pos()</text>
<text text-anchor="start" x="159" y="-168.5" font-family="Helvetica,sans-Serif" font-size="10.00">+ get_pos()</text>
<text text-anchor="start" x="159" y="-157.5" font-family="Helvetica,sans-Serif" font-size="10.00">+ switch_pos()</text>
</a>
</g>
</g>
<!-- Node2&#45;&gt;Node1 -->
<g id="edge1" class="edge">
<title>Node2&#45;&gt;Node1</title>
<path fill="none" stroke="midnightblue" d="M230,-139.92C230,-130.26 230,-121.06 230,-112.56"/>
<polygon fill="none" stroke="midnightblue" points="226.5,-140.16 230,-150.16 233.5,-140.16 226.5,-140.16"/>
</g>
<!-- Node3 -->
<g id="node3" class="node">
<title>Node3</title>
<g id="a_node3"><a xlink:href="class_block.html" target="_top" xlink:title="Opisuje figure geometryczna w przestrzeni trojwymiarowej.">
<polygon fill="none" stroke="black" points="276.5,-608.5 276.5,-852.5 401.5,-852.5 401.5,-608.5 276.5,-608.5"/>
<text text-anchor="middle" x="339" y="-840.5" font-family="Helvetica,sans-Serif" font-size="10.00">Block</text>
<polyline fill="none" stroke="black" points="276.5,-833.5 401.5,-833.5 "/>
<text text-anchor="middle" x="339" y="-821.5" font-family="Helvetica,sans-Serif" font-size="10.00"> </text>
<polyline fill="none" stroke="black" points="276.5,-814.5 401.5,-814.5 "/>
<text text-anchor="start" x="284.5" y="-802.5" font-family="Helvetica,sans-Serif" font-size="10.00">+ Block()</text>
<text text-anchor="start" x="284.5" y="-791.5" font-family="Helvetica,sans-Serif" font-size="10.00">+ Block()</text>
<text text-anchor="start" x="284.5" y="-780.5" font-family="Helvetica,sans-Serif" font-size="10.00">+ Block()</text>
<text text-anchor="start" x="284.5" y="-769.5" font-family="Helvetica,sans-Serif" font-size="10.00">+ ~Block()</text>
<text text-anchor="start" x="284.5" y="-758.5" font-family="Helvetica,sans-Serif" font-size="10.00">+ set_sample_name()</text>
<text text-anchor="start" x="284.5" y="-747.5" font-family="Helvetica,sans-Serif" font-size="10.00">+ set_final_name()</text>
<text text-anchor="start" x="284.5" y="-736.5" font-family="Helvetica,sans-Serif" font-size="10.00">+ set_scale()</text>
<text text-anchor="start" x="284.5" y="-725.5" font-family="Helvetica,sans-Serif" font-size="10.00">+ set_scale()</text>
<text text-anchor="start" x="284.5" y="-714.5" font-family="Helvetica,sans-Serif" font-size="10.00">+ check_block()</text>
<text text-anchor="start" x="284.5" y="-703.5" font-family="Helvetica,sans-Serif" font-size="10.00">+ get_sample_name()</text>
<text text-anchor="start" x="284.5" y="-692.5" font-family="Helvetica,sans-Serif" font-size="10.00">+ get_final_name()</text>
<text text-anchor="start" x="284.5" y="-681.5" font-family="Helvetica,sans-Serif" font-size="10.00">+ get_scale()</text>
<text text-anchor="start" x="284.5" y="-670.5" font-family="Helvetica,sans-Serif" font-size="10.00">+ print_name()</text>
<text text-anchor="start" x="284.5" y="-659.5" font-family="Helvetica,sans-Serif" font-size="10.00">+ print_pos()</text>
<text text-anchor="start" x="284.5" y="-648.5" font-family="Helvetica,sans-Serif" font-size="10.00">+ get_pos()</text>
<text text-anchor="start" x="284.5" y="-637.5" font-family="Helvetica,sans-Serif" font-size="10.00">+ switch_pos()</text>
<text text-anchor="start" x="284.5" y="-626.5" font-family="Helvetica,sans-Serif" font-size="10.00">+ get_type()</text>
<text text-anchor="start" x="284.5" y="-615.5" font-family="Helvetica,sans-Serif" font-size="10.00">+ get_basis_pro()</text>
</a>
</g>
</g>
<!-- Node3&#45;&gt;Node2 -->
<g id="edge2" class="edge">
<title>Node3&#45;&gt;Node2</title>
<path fill="none" stroke="midnightblue" d="M300.24,-598.64C297.53,-589.49 294.76,-580.15 291.97,-570.71"/>
<polygon fill="none" stroke="midnightblue" points="296.96,-599.9 303.16,-608.49 303.67,-597.91 296.96,-599.9"/>
</g>
<!-- Node4 -->
<g id="node4" class="node">
<title>Node4</title>
<g id="a_node4"><a xlink:href="class_vector.html" target="_top" xlink:title=" ">
<polygon fill="none" stroke="black" points="172.5,-911.5 172.5,-1199.5 287.5,-1199.5 287.5,-911.5 172.5,-911.5"/>
<text text-anchor="middle" x="230" y="-1187.5" font-family="Helvetica,sans-Serif" font-size="10.00">Vector&lt; double, 3 &gt;</text>
<polyline fill="none" stroke="black" points="172.5,-1180.5 287.5,-1180.5 "/>
<text text-anchor="middle" x="230" y="-1168.5" font-family="Helvetica,sans-Serif" font-size="10.00"> </text>
<polyline fill="none" stroke="black" points="172.5,-1161.5 287.5,-1161.5 "/>
<text text-anchor="start" x="180.5" y="-1149.5" font-family="Helvetica,sans-Serif" font-size="10.00">+ Vector()</text>
<text text-anchor="start" x="180.5" y="-1138.5" font-family="Helvetica,sans-Serif" font-size="10.00">+ Vector()</text>
<text text-anchor="start" x="180.5" y="-1127.5" font-family="Helvetica,sans-Serif" font-size="10.00">+ operator+()</text>
<text text-anchor="start" x="180.5" y="-1116.5" font-family="Helvetica,sans-Serif" font-size="10.00">+ operator&#45;()</text>
<text text-anchor="start" x="180.5" y="-1105.5" font-family="Helvetica,sans-Serif" font-size="10.00">+ operator*()</text>
<text text-anchor="start" x="180.5" y="-1094.5" font-family="Helvetica,sans-Serif" font-size="10.00">+ operator/()</text>
<text text-anchor="start" x="180.5" y="-1083.5" font-family="Helvetica,sans-Serif" font-size="10.00">+ operator==()</text>
<text text-anchor="start" x="180.5" y="-1072.5" font-family="Helvetica,sans-Serif" font-size="10.00">+ scale_vec()</text>
<text text-anchor="start" x="180.5" y="-1061.5" font-family="Helvetica,sans-Serif" font-size="10.00">+ rotate()</text>
<text text-anchor="start" x="180.5" y="-1050.5" font-family="Helvetica,sans-Serif" font-size="10.00">+ rotate()</text>
<text text-anchor="start" x="180.5" y="-1039.5" font-family="Helvetica,sans-Serif" font-size="10.00">+ rotate()</text>
<text text-anchor="start" x="180.5" y="-1028.5" font-family="Helvetica,sans-Serif" font-size="10.00">+ modulus2()</text>
<text text-anchor="start" x="180.5" y="-1017.5" font-family="Helvetica,sans-Serif" font-size="10.00">+ get_vec()</text>
<text text-anchor="start" x="180.5" y="-1006.5" font-family="Helvetica,sans-Serif" font-size="10.00">+ translation()</text>
<text text-anchor="start" x="180.5" y="-995.5" font-family="Helvetica,sans-Serif" font-size="10.00">+ get_len()</text>
<text text-anchor="start" x="180.5" y="-984.5" font-family="Helvetica,sans-Serif" font-size="10.00">+ get_slope_angle()</text>
<text text-anchor="start" x="180.5" y="-973.5" font-family="Helvetica,sans-Serif" font-size="10.00">+ get_slope_angle()</text>
<text text-anchor="start" x="180.5" y="-962.5" font-family="Helvetica,sans-Serif" font-size="10.00">+ get_slope_angle()</text>
<text text-anchor="start" x="180.5" y="-951.5" font-family="Helvetica,sans-Serif" font-size="10.00">+ get_quarter()</text>
<text text-anchor="start" x="180.5" y="-940.5" font-family="Helvetica,sans-Serif" font-size="10.00">+ operator[]()</text>
<text text-anchor="start" x="180.5" y="-929.5" font-family="Helvetica,sans-Serif" font-size="10.00">+ operator[]()</text>
<text text-anchor="start" x="180.5" y="-918.5" font-family="Helvetica,sans-Serif" font-size="10.00">+ scalar_prod()</text>
</a>
</g>
</g>
<!-- Node4&#45;&gt;Node2 -->
<g id="edge15" class="edge">
<title>Node4&#45;&gt;Node2</title>
<path fill="none" stroke="#404040" d="M227.61,-911.4C227.36,-891.78 227.14,-871.89 227,-853 226.19,-744.11 226.34,-716.89 227,-608 227.05,-599.71 227.11,-591.26 227.18,-582.73"/>
<polygon fill="none" stroke="#404040" points="227.18,-582.62 223.23,-576.58 227.28,-570.62 231.23,-576.65 227.18,-582.62"/>
<text text-anchor="middle" x="247" y="-739" font-family="Helvetica,sans-Serif" font-size="10.00"> #cuts</text>
<text text-anchor="middle" x="247" y="-728" font-family="Helvetica,sans-Serif" font-size="10.00">#centre</text>
<text text-anchor="middle" x="247" y="-717" font-family="Helvetica,sans-Serif" font-size="10.00">#tops</text>
</g>
<!-- Node4&#45;&gt;Node3 -->
<g id="edge3" class="edge">
<title>Node4&#45;&gt;Node3</title>
<path fill="none" stroke="#404040" d="M278.28,-911.42C283.55,-895.82 288.89,-879.99 294.11,-864.52"/>
<polygon fill="none" stroke="#404040" points="294.24,-864.14 292.37,-857.17 298.08,-852.77 299.95,-859.73 294.24,-864.14"/>
<text text-anchor="middle" x="310.5" y="-879.5" font-family="Helvetica,sans-Serif" font-size="10.00"> #scale</text>
</g>
<!-- Node5 -->
<g id="node5" class="node">
<title>Node5</title>
<g id="a_node5"><a xlink:href="class_count.html" target="_top" xlink:title=" ">
<polygon fill="none" stroke="black" points="0,-1583.5 0,-1706.5 134,-1706.5 134,-1583.5 0,-1583.5"/>
<text text-anchor="start" x="8" y="-1694.5" font-family="Helvetica,sans-Serif" font-size="10.00">Count&lt; Vector&lt; double,</text>
<text text-anchor="middle" x="67" y="-1683.5" font-family="Helvetica,sans-Serif" font-size="10.00"> SIZE &gt; &gt;</text>
<polyline fill="none" stroke="black" points="0,-1676.5 134,-1676.5 "/>
<text text-anchor="middle" x="67" y="-1664.5" font-family="Helvetica,sans-Serif" font-size="10.00"> </text>
<polyline fill="none" stroke="black" points="0,-1657.5 134,-1657.5 "/>
<text text-anchor="start" x="8" y="-1645.5" font-family="Helvetica,sans-Serif" font-size="10.00">+ Count()</text>
<text text-anchor="start" x="8" y="-1634.5" font-family="Helvetica,sans-Serif" font-size="10.00">+ Count()</text>
<text text-anchor="start" x="8" y="-1623.5" font-family="Helvetica,sans-Serif" font-size="10.00">+ ~Count()</text>
<text text-anchor="start" x="8" y="-1612.5" font-family="Helvetica,sans-Serif" font-size="10.00">+ get_count()</text>
<text text-anchor="start" x="8" y="-1601.5" font-family="Helvetica,sans-Serif" font-size="10.00">+ print_count()</text>
<text text-anchor="start" x="8" y="-1590.5" font-family="Helvetica,sans-Serif" font-size="10.00">+ zero_count()</text>
</a>
</g>
</g>
<!-- Node5&#45;&gt;Node4 -->
<g id="edge4" class="edge">
<title>Node5&#45;&gt;Node4</title>
<path fill="none" stroke="midnightblue" d="M81.18,-1573.28C97.78,-1493.38 127.35,-1359.76 161,-1247 165.6,-1231.58 170.76,-1215.59 176.14,-1199.72"/>
<polygon fill="none" stroke="midnightblue" points="77.72,-1572.73 79.12,-1583.23 84.57,-1574.15 77.72,-1572.73"/>
</g>
<!-- Node6 -->
<g id="node6" class="node">
<title>Node6</title>
<g id="a_node6"><a xlink:title=" ">
<polygon fill="none" stroke="#bfbfbf" points="35.5,-1936.5 35.5,-1993.5 64.5,-1993.5 64.5,-1936.5 35.5,-1936.5"/>
<text text-anchor="middle" x="50" y="-1981.5" font-family="Helvetica,sans-Serif" font-size="10.00">int</text>
<polyline fill="none" stroke="#bfbfbf" points="35.5,-1974.5 64.5,-1974.5 "/>
<text text-anchor="middle" x="50" y="-1962.5" font-family="Helvetica,sans-Serif" font-size="10.00"> </text>
<polyline fill="none" stroke="#bfbfbf" points="35.5,-1955.5 64.5,-1955.5 "/>
<text text-anchor="middle" x="50" y="-1943.5" font-family="Helvetica,sans-Serif" font-size="10.00"> </text>
</a>
</g>
</g>
<!-- Node6&#45;&gt;Node5 -->
<g id="edge5" class="edge">
<title>Node6&#45;&gt;Node5</title>
<path fill="none" stroke="#404040" d="M47.16,-1936.15C45.58,-1919.33 43.79,-1897.46 43,-1878 40.96,-1827.82 38.05,-1814.98 43,-1765 44.79,-1746.96 47.42,-1742.77 51,-1725 51.41,-1722.97 51.82,-1720.92 52.24,-1718.84"/>
<polygon fill="none" stroke="#404040" points="52.29,-1718.57 49.56,-1711.9 54.67,-1706.81 57.4,-1713.48 52.29,-1718.57"/>
<text text-anchor="middle" x="86" y="-1824.5" font-family="Helvetica,sans-Serif" font-size="10.00"> #objects_alive</text>
<text text-anchor="middle" x="86" y="-1813.5" font-family="Helvetica,sans-Serif" font-size="10.00">#objects_created</text>
</g>
<!-- Node7 -->
<g id="node7" class="node">
<title>Node7</title>
<g id="a_node7"><a xlink:href="class_count.html" target="_top" xlink:title="Pozwala na liczenie instancji stworzonych obiektow.">
<polygon fill="none" stroke="black" points="138,-1765.5 138,-1877.5 228,-1877.5 228,-1765.5 138,-1765.5"/>
<text text-anchor="middle" x="183" y="-1865.5" font-family="Helvetica,sans-Serif" font-size="10.00">Count&lt; T &gt;</text>
<polyline fill="none" stroke="black" points="138,-1858.5 228,-1858.5 "/>
<text text-anchor="middle" x="183" y="-1846.5" font-family="Helvetica,sans-Serif" font-size="10.00"> </text>
<polyline fill="none" stroke="black" points="138,-1839.5 228,-1839.5 "/>
<text text-anchor="start" x="146" y="-1827.5" font-family="Helvetica,sans-Serif" font-size="10.00">+ Count()</text>
<text text-anchor="start" x="146" y="-1816.5" font-family="Helvetica,sans-Serif" font-size="10.00">+ Count()</text>
<text text-anchor="start" x="146" y="-1805.5" font-family="Helvetica,sans-Serif" font-size="10.00">+ ~Count()</text>
<text text-anchor="start" x="146" y="-1794.5" font-family="Helvetica,sans-Serif" font-size="10.00">+ get_count()</text>
<text text-anchor="start" x="146" y="-1783.5" font-family="Helvetica,sans-Serif" font-size="10.00">+ print_count()</text>
<text text-anchor="start" x="146" y="-1772.5" font-family="Helvetica,sans-Serif" font-size="10.00">+ zero_count()</text>
</a>
</g>
</g>
<!-- Node6&#45;&gt;Node7 -->
<g id="edge7" class="edge">
<title>Node6&#45;&gt;Node7</title>
<path fill="none" stroke="#404040" d="M64.74,-1948.32C80.34,-1931.72 105.89,-1904.54 129.25,-1879.68"/>
<polygon fill="none" stroke="#404040" points="129.52,-1879.39 130.72,-1872.28 137.74,-1870.65 136.55,-1877.76 129.52,-1879.39"/>
<text text-anchor="middle" x="156" y="-1910" font-family="Helvetica,sans-Serif" font-size="10.00"> #objects_alive</text>
<text text-anchor="middle" x="156" y="-1899" font-family="Helvetica,sans-Serif" font-size="10.00">#objects_created</text>
</g>
<!-- Node7&#45;&gt;Node5 -->
<g id="edge6" class="edge">
<title>Node7&#45;&gt;Node5</title>
<path fill="none" stroke="orange" d="M129.75,-1768.55C127.85,-1767.3 125.93,-1766.11 124,-1765 99.88,-1751.09 80.62,-1769.34 64,-1747 55.41,-1735.46 52.64,-1720.95 52.83,-1706.56"/>
<polygon fill="orange" stroke="orange" points="127.76,-1771.43 137.93,-1774.38 131.82,-1765.73 127.76,-1771.43"/>
<text text-anchor="middle" x="134" y="-1733.5" font-family="Helvetica,sans-Serif" font-size="10.00"> &lt; Vector&lt; double, SIZE &gt; &gt;</text>
</g>
<!-- Node10 -->
<g id="node10" class="node">
<title>Node10</title>
<g id="a_node10"><a xlink:href="class_count.html" target="_top" xlink:title=" ">
<polygon fill="none" stroke="black" points="168.5,-1583.5 168.5,-1706.5 291.5,-1706.5 291.5,-1583.5 168.5,-1583.5"/>
<text text-anchor="start" x="176.5" y="-1694.5" font-family="Helvetica,sans-Serif" font-size="10.00">Count&lt; Vector&lt; type,</text>
<text text-anchor="middle" x="230" y="-1683.5" font-family="Helvetica,sans-Serif" font-size="10.00"> SIZE &gt; &gt;</text>
<polyline fill="none" stroke="black" points="168.5,-1676.5 291.5,-1676.5 "/>
<text text-anchor="middle" x="230" y="-1664.5" font-family="Helvetica,sans-Serif" font-size="10.00"> </text>
<polyline fill="none" stroke="black" points="168.5,-1657.5 291.5,-1657.5 "/>
<text text-anchor="start" x="176.5" y="-1645.5" font-family="Helvetica,sans-Serif" font-size="10.00">+ Count()</text>
<text text-anchor="start" x="176.5" y="-1634.5" font-family="Helvetica,sans-Serif" font-size="10.00">+ Count()</text>
<text text-anchor="start" x="176.5" y="-1623.5" font-family="Helvetica,sans-Serif" font-size="10.00">+ ~Count()</text>
<text text-anchor="start" x="176.5" y="-1612.5" font-family="Helvetica,sans-Serif" font-size="10.00">+ get_count()</text>
<text text-anchor="start" x="176.5" y="-1601.5" font-family="Helvetica,sans-Serif" font-size="10.00">+ print_count()</text>
<text text-anchor="start" x="176.5" y="-1590.5" font-family="Helvetica,sans-Serif" font-size="10.00">+ zero_count()</text>
</a>
</g>
</g>
<!-- Node7&#45;&gt;Node10 -->
<g id="edge12" class="edge">
<title>Node7&#45;&gt;Node10</title>
<path fill="none" stroke="orange" d="M205.54,-1755.52C206.4,-1752.65 207.22,-1749.8 208,-1747 211.61,-1734.03 214.99,-1719.99 217.97,-1706.63"/>
<polygon fill="orange" stroke="orange" points="202.12,-1754.74 202.52,-1765.33 208.81,-1756.8 202.12,-1754.74"/>
<text text-anchor="middle" x="278.5" y="-1733.5" font-family="Helvetica,sans-Serif" font-size="10.00"> &lt; Vector&lt; type, SIZE &gt; &gt;</text>
</g>
<!-- Node8 -->
<g id="node8" class="node">
<title>Node8</title>
<g id="a_node8"><a xlink:title=" ">
<polygon fill="none" stroke="#bfbfbf" points="308,-1363 308,-1420 358,-1420 358,-1363 308,-1363"/>
<text text-anchor="middle" x="333" y="-1408" font-family="Helvetica,sans-Serif" font-size="10.00">double</text>
<polyline fill="none" stroke="#bfbfbf" points="308,-1401 358,-1401 "/>
<text text-anchor="middle" x="333" y="-1389" font-family="Helvetica,sans-Serif" font-size="10.00"> </text>
<polyline fill="none" stroke="#bfbfbf" points="308,-1382 358,-1382 "/>
<text text-anchor="middle" x="333" y="-1370" font-family="Helvetica,sans-Serif" font-size="10.00"> </text>
</a>
</g>
</g>
<!-- Node8&#45;&gt;Node4 -->
<g id="edge8" class="edge">
<title>Node8&#45;&gt;Node4</title>
<path fill="none" stroke="#404040" d="M330.85,-1362.78C327.65,-1328.25 320.27,-1267.74 305,-1218 301.36,-1206.13 297.01,-1194.01 292.27,-1182.01"/>
<polygon fill="none" stroke="#404040" points="292.13,-1181.67 286.17,-1177.62 287.62,-1170.55 293.58,-1174.61 292.13,-1181.67"/>
<text text-anchor="middle" x="321.5" y="-1221" font-family="Helvetica,sans-Serif" font-size="10.00"> &#45;size</text>
</g>
<!-- Node9 -->
<g id="node9" class="node">
<title>Node9</title>
<g id="a_node9"><a xlink:href="class_vector.html" target="_top" xlink:title="Opisuje wektor o SIZE&#45;wierszach.">
<polygon fill="none" stroke="black" points="170.5,-1247.5 170.5,-1535.5 289.5,-1535.5 289.5,-1247.5 170.5,-1247.5"/>
<text text-anchor="middle" x="230" y="-1523.5" font-family="Helvetica,sans-Serif" font-size="10.00">Vector&lt; type, SIZE &gt;</text>
<polyline fill="none" stroke="black" points="170.5,-1516.5 289.5,-1516.5 "/>
<text text-anchor="middle" x="230" y="-1504.5" font-family="Helvetica,sans-Serif" font-size="10.00"> </text>
<polyline fill="none" stroke="black" points="170.5,-1497.5 289.5,-1497.5 "/>
<text text-anchor="start" x="178.5" y="-1485.5" font-family="Helvetica,sans-Serif" font-size="10.00">+ Vector()</text>
<text text-anchor="start" x="178.5" y="-1474.5" font-family="Helvetica,sans-Serif" font-size="10.00">+ Vector()</text>
<text text-anchor="start" x="178.5" y="-1463.5" font-family="Helvetica,sans-Serif" font-size="10.00">+ operator+()</text>
<text text-anchor="start" x="178.5" y="-1452.5" font-family="Helvetica,sans-Serif" font-size="10.00">+ operator&#45;()</text>
<text text-anchor="start" x="178.5" y="-1441.5" font-family="Helvetica,sans-Serif" font-size="10.00">+ operator*()</text>
<text text-anchor="start" x="178.5" y="-1430.5" font-family="Helvetica,sans-Serif" font-size="10.00">+ operator/()</text>
<text text-anchor="start" x="178.5" y="-1419.5" font-family="Helvetica,sans-Serif" font-size="10.00">+ operator==()</text>
<text text-anchor="start" x="178.5" y="-1408.5" font-family="Helvetica,sans-Serif" font-size="10.00">+ scale_vec()</text>
<text text-anchor="start" x="178.5" y="-1397.5" font-family="Helvetica,sans-Serif" font-size="10.00">+ rotate()</text>
<text text-anchor="start" x="178.5" y="-1386.5" font-family="Helvetica,sans-Serif" font-size="10.00">+ modulus2()</text>
<text text-anchor="start" x="178.5" y="-1375.5" font-family="Helvetica,sans-Serif" font-size="10.00">+ get_vec()</text>
<text text-anchor="start" x="178.5" y="-1364.5" font-family="Helvetica,sans-Serif" font-size="10.00">+ translation()</text>
<text text-anchor="start" x="178.5" y="-1353.5" font-family="Helvetica,sans-Serif" font-size="10.00">+ get_len()</text>
<text text-anchor="start" x="178.5" y="-1342.5" font-family="Helvetica,sans-Serif" font-size="10.00">+ get_slope_angle()</text>
<text text-anchor="start" x="178.5" y="-1331.5" font-family="Helvetica,sans-Serif" font-size="10.00">+ get_quarter()</text>
<text text-anchor="start" x="178.5" y="-1320.5" font-family="Helvetica,sans-Serif" font-size="10.00">+ operator[]()</text>
<text text-anchor="start" x="178.5" y="-1309.5" font-family="Helvetica,sans-Serif" font-size="10.00">+ operator[]()</text>
<text text-anchor="start" x="178.5" y="-1298.5" font-family="Helvetica,sans-Serif" font-size="10.00">+ scalar_prod()</text>
<text text-anchor="start" x="178.5" y="-1287.5" font-family="Helvetica,sans-Serif" font-size="10.00">+ rotate()</text>
<text text-anchor="start" x="178.5" y="-1276.5" font-family="Helvetica,sans-Serif" font-size="10.00">+ get_slope_angle()</text>
<text text-anchor="start" x="178.5" y="-1265.5" font-family="Helvetica,sans-Serif" font-size="10.00">+ rotate()</text>
<text text-anchor="start" x="178.5" y="-1254.5" font-family="Helvetica,sans-Serif" font-size="10.00">+ get_slope_angle()</text>
</a>
</g>
</g>
<!-- Node9&#45;&gt;Node4 -->
<g id="edge9" class="edge">
<title>Node9&#45;&gt;Node4</title>
<path fill="none" stroke="orange" d="M230,-1237.34C230,-1224.76 230,-1212.07 230,-1199.57"/>
<polygon fill="orange" stroke="orange" points="226.5,-1237.4 230,-1247.4 233.5,-1237.4 226.5,-1237.4"/>
<text text-anchor="middle" x="265.5" y="-1221" font-family="Helvetica,sans-Serif" font-size="10.00"> &lt; double, 3 &gt;</text>
</g>
<!-- Node10&#45;&gt;Node9 -->
<g id="edge10" class="edge">
<title>Node10&#45;&gt;Node9</title>
<path fill="none" stroke="midnightblue" d="M230,-1573.22C230,-1561.34 230,-1548.65 230,-1535.7"/>
<polygon fill="none" stroke="midnightblue" points="226.5,-1573.44 230,-1583.44 233.5,-1573.44 226.5,-1573.44"/>
</g>
<!-- Node11 -->
<g id="node11" class="node">
<title>Node11</title>
<g id="a_node11"><a xlink:href="classstatic_01int.html" target="_top" xlink:title=" ">
<polygon fill="none" stroke="black" points="352.5,-1793 352.5,-1850 411.5,-1850 411.5,-1793 352.5,-1793"/>
<text text-anchor="middle" x="382" y="-1838" font-family="Helvetica,sans-Serif" font-size="10.00">static int</text>
<polyline fill="none" stroke="black" points="352.5,-1831 411.5,-1831 "/>
<text text-anchor="middle" x="382" y="-1819" font-family="Helvetica,sans-Serif" font-size="10.00"> </text>
<polyline fill="none" stroke="black" points="352.5,-1812 411.5,-1812 "/>
<text text-anchor="middle" x="382" y="-1800" font-family="Helvetica,sans-Serif" font-size="10.00"> </text>
</a>
</g>
</g>
<!-- Node11&#45;&gt;Node10 -->
<g id="edge11" class="edge">
<title>Node11&#45;&gt;Node10</title>
<path fill="none" stroke="#404040" d="M378.15,-1792.96C373.88,-1771.9 365.03,-1743.43 347,-1725 333.74,-1711.45 323.12,-1716.31 302.46,-1706.83"/>
<polygon fill="none" stroke="#404040" points="302.4,-1706.8 295.22,-1707.47 291.84,-1701.11 299.02,-1700.43 302.4,-1706.8"/>
<text text-anchor="middle" x="404" y="-1739" font-family="Helvetica,sans-Serif" font-size="10.00"> #objects_alive</text>
<text text-anchor="middle" x="404" y="-1728" font-family="Helvetica,sans-Serif" font-size="10.00">#objects_created</text>
</g>
<!-- Node12 -->
<g id="node12" class="node">
<title>Node12</title>
<g id="a_node12"><a xlink:title=" ">
<polygon fill="none" stroke="#bfbfbf" points="310,-1616.5 310,-1673.5 348,-1673.5 348,-1616.5 310,-1616.5"/>
<text text-anchor="middle" x="329" y="-1661.5" font-family="Helvetica,sans-Serif" font-size="10.00">type</text>
<polyline fill="none" stroke="#bfbfbf" points="310,-1654.5 348,-1654.5 "/>
<text text-anchor="middle" x="329" y="-1642.5" font-family="Helvetica,sans-Serif" font-size="10.00"> </text>
<polyline fill="none" stroke="#bfbfbf" points="310,-1635.5 348,-1635.5 "/>
<text text-anchor="middle" x="329" y="-1623.5" font-family="Helvetica,sans-Serif" font-size="10.00"> </text>
</a>
</g>
</g>
<!-- Node12&#45;&gt;Node9 -->
<g id="edge13" class="edge">
<title>Node12&#45;&gt;Node9</title>
<path fill="none" stroke="#404040" d="M318.03,-1616.12C311,-1598.28 301.26,-1573.54 290.82,-1547"/>
<polygon fill="none" stroke="#404040" points="290.7,-1546.7 284.78,-1542.58 286.3,-1535.53 292.22,-1539.65 290.7,-1546.7"/>
<text text-anchor="middle" x="310.5" y="-1557" font-family="Helvetica,sans-Serif" font-size="10.00"> &#45;size</text>
</g>
<!-- Node13 -->
<g id="node13" class="node">
<title>Node13</title>
<g id="a_node13"><a xlink:title=" ">
<polygon fill="none" stroke="#bfbfbf" points="317,-1027 317,-1084 361,-1084 361,-1027 317,-1027"/>
<text text-anchor="middle" x="339" y="-1072" font-family="Helvetica,sans-Serif" font-size="10.00">string</text>
<polyline fill="none" stroke="#bfbfbf" points="317,-1065 361,-1065 "/>
<text text-anchor="middle" x="339" y="-1053" font-family="Helvetica,sans-Serif" font-size="10.00"> </text>
<polyline fill="none" stroke="#bfbfbf" points="317,-1046 361,-1046 "/>
<text text-anchor="middle" x="339" y="-1034" font-family="Helvetica,sans-Serif" font-size="10.00"> </text>
</a>
</g>
</g>
<!-- Node13&#45;&gt;Node3 -->
<g id="edge14" class="edge">
<title>Node13&#45;&gt;Node3</title>
<path fill="none" stroke="#404040" d="M339,-1026.96C339,-990.92 339,-925.24 339,-864.95"/>
<polygon fill="none" stroke="#404040" points="339,-864.57 335,-858.57 339,-852.57 343,-858.57 339,-864.57"/>
<text text-anchor="middle" x="379.5" y="-885" font-family="Helvetica,sans-Serif" font-size="10.00"> #sample_name</text>
<text text-anchor="middle" x="379.5" y="-874" font-family="Helvetica,sans-Serif" font-size="10.00">#final_name</text>
</g>
</g>
</svg>
        <g id="navigator" transform="translate(0 0)" fill="#404254">
                <rect fill="#f2f5e9" fill-opacity="0.5" stroke="#606060" stroke-width=".5" x="0" y="0" width="60" height="60"/>
                <use id="zoomplus" xlink:href="#zoomPlus" x="17" y="9" onmousedown="handleZoom(evt,'in')"/>
                <use id="zoomminus" xlink:href="#zoomMin" x="42" y="9" onmousedown="handleZoom(evt,'out')"/>
                <use id="reset" xlink:href="#resetDef" x="30" y="36" onmousedown="handleReset()"/>
                <g id="arrowUp" xlink:href="#dirArrow" transform="translate(30 24)" onmousedown="handlePan(0,-1)">
                  <use xlink:href="#rim" fill="#404040">
                        <set attributeName="fill" to="#808080" begin="arrowUp.mouseover" end="arrowUp.mouseout"/>
                  </use>
                  <path fill="none" stroke="white" stroke-width="1.5" d="M0,-3.0v7 M-2.5,-0.5L0,-3.0L2.5,-0.5"/>
                </g>
                <g id="arrowRight" xlink:href="#dirArrow" transform="rotate(90) translate(36 -43)" onmousedown="handlePan(1,0)">
                  <use xlink:href="#rim" fill="#404040">
                        <set attributeName="fill" to="#808080" begin="arrowRight.mouseover" end="arrowRight.mouseout"/>
                  </use>
                  <path fill="none" stroke="white" stroke-width="1.5" d="M0,-3.0v7 M-2.5,-0.5L0,-3.0L2.5,-0.5"/>
                </g>
                <g id="arrowDown" xlink:href="#dirArrow" transform="rotate(180) translate(-30 -48)" onmousedown="handlePan(0,1)">
                  <use xlink:href="#rim" fill="#404040">
                        <set attributeName="fill" to="#808080" begin="arrowDown.mouseover" end="arrowDown.mouseout"/>
                  </use>
                  <path fill="none" stroke="white" stroke-width="1.5" d="M0,-3.0v7 M-2.5,-0.5L0,-3.0L2.5,-0.5"/>
                </g>
                <g id="arrowLeft" xlink:href="#dirArrow" transform="rotate(270) translate(-36 17)" onmousedown="handlePan(-1,0)">
                  <use xlink:href="#rim" fill="#404040">
                        <set attributeName="fill" to="#808080" begin="arrowLeft.mouseover" end="arrowLeft.mouseout"/>
                  </use>
                  <path fill="none" stroke="white" stroke-width="1.5" d="M0,-3.0v7 M-2.5,-0.5L0,-3.0L2.5,-0.5"/>
                </g>
        </g>
        <svg viewBox="0 0 15 15" width="100%" height="30px" preserveAspectRatio="xMaxYMin meet">
         <g id="arrow_out" transform="scale(0.3 0.3)">
          <a xlink:href="class_circus__coll__graph_org.svg" target="_base">
           <rect id="button" ry="5" rx="5" y="6" x="6" height="38" width="38"
                fill="#f2f5e9" fill-opacity="0.5" stroke="#606060" stroke-width="1.0"/>
           <path id="arrow"
             d="M 11.500037,31.436501 C 11.940474,20.09759 22.043105,11.32322 32.158766,21.979434 L 37.068811,17.246167 C 37.068811,17.246167 37.088388,32 37.088388,32 L 22.160133,31.978069 C 22.160133,31.978069 26.997745,27.140456 26.997745,27.140456 C 18.528582,18.264221 13.291696,25.230495 11.500037,31.436501 z"
             style="fill:#404040;"/>
          </a>
         </g>
        </svg>
</svg>
