<?xml version="1.0" encoding="UTF-8" standalone="no"?>
<!DOCTYPE svg PUBLIC "-//W3C//DTD SVG 1.1//EN"
 "http://www.w3.org/Graphics/SVG/1.1/DTD/svg11.dtd">
<!-- Generated by graphviz version 2.43.0 (0)
 -->
<!-- Title: Cuboid::centre_point Pages: 1 -->
<svg width="780pt" height="417pt"
 viewBox="0.00 0.00 780.00 416.99" xmlns="http://www.w3.org/2000/svg" xmlns:xlink="http://www.w3.org/1999/xlink">
<g id="graph0" class="graph" transform="scale(1 1) rotate(0) translate(4 412.99)">
<title>Cuboid::centre_point</title>
<!-- Node1 -->
<g id="node1" class="node">
<title>Node1</title>
<g id="a_node1"><a xlink:title="Metoda zwracajaca punkt centralny (czyli taki, ktorego odleglosci do kazdego wierzcholka sa rowne) pr...">
<polygon fill="#bfbfbf" stroke="black" points="655,-308.49 655,-327.49 772,-327.49 772,-308.49 655,-308.49"/>
<text text-anchor="middle" x="713.5" y="-315.49" font-family="Helvetica,sans-Serif" font-size="10.00">Cuboid::centre_point</text>
</a>
</g>
</g>
<!-- Node2 -->
<g id="node2" class="node">
<title>Node2</title>
<g id="a_node2"><a xlink:href="class_triangular.html#a372567a0c98eda392d4860dfab3c56c4" target="_top" xlink:title="Metoda zwracajaca punkty specjalne Triangular : cuts (czyli te ktore sa przecieciami przekatnych dwoc...">
<polygon fill="none" stroke="black" points="503.5,-346.99 503.5,-376.99 608.5,-376.99 608.5,-346.99 503.5,-346.99"/>
<text text-anchor="start" x="511.5" y="-364.99" font-family="Helvetica,sans-Serif" font-size="10.00">Triangular::special</text>
<text text-anchor="middle" x="556" y="-353.99" font-family="Helvetica,sans-Serif" font-size="10.00">_points</text>
</a>
</g>
</g>
<!-- Node1&#45;&gt;Node2 -->
<g id="edge1" class="edge">
<title>Node1&#45;&gt;Node2</title>
<path fill="none" stroke="midnightblue" d="M669.02,-330.3C650.31,-335.59 628.28,-341.83 608.73,-347.36"/>
<polygon fill="midnightblue" stroke="midnightblue" points="670.09,-333.63 678.76,-327.54 668.18,-326.9 670.09,-333.63"/>
</g>
<!-- Node6 -->
<g id="node6" class="node">
<title>Node6</title>
<g id="a_node6"><a xlink:href="class_cuboid.html#a66a27613db3b2af0b1c5fefc3e20ebf5" target="_top" xlink:title="Metoda zwracajaca punkty specjalne prostopadloscianu : cuts (czyli te ktore sa przecieciami przekatny...">
<polygon fill="none" stroke="black" points="493,-308.49 493,-327.49 619,-327.49 619,-308.49 493,-308.49"/>
<text text-anchor="middle" x="556" y="-315.49" font-family="Helvetica,sans-Serif" font-size="10.00">Cuboid::special_points</text>
</a>
</g>
</g>
<!-- Node1&#45;&gt;Node6 -->
<g id="edge5" class="edge">
<title>Node1&#45;&gt;Node6</title>
<path fill="none" stroke="midnightblue" d="M644.43,-317.99C636.02,-317.99 627.44,-317.99 619.12,-317.99"/>
<polygon fill="midnightblue" stroke="midnightblue" points="644.6,-321.49 654.6,-317.99 644.6,-314.49 644.6,-321.49"/>
</g>
<!-- Node8 -->
<g id="node8" class="node">
<title>Node8</title>
<g id="a_node8"><a xlink:href="class_drone.html#a6662bd8203e8c9a0721c457b3612a7c1" target="_top" xlink:title="Metoda uzywana przy konstruowania drona przesuwa drona w ten sposob, ze Vector3D centre prostopadlosc...">
<polygon fill="none" stroke="black" points="504,-171.99 504,-201.99 608,-201.99 608,-171.99 504,-171.99"/>
<text text-anchor="start" x="512" y="-189.99" font-family="Helvetica,sans-Serif" font-size="10.00">Drone::translation</text>
<text text-anchor="middle" x="556" y="-178.99" font-family="Helvetica,sans-Serif" font-size="10.00">_to_pos</text>
</a>
</g>
</g>
<!-- Node1&#45;&gt;Node8 -->
<g id="edge7" class="edge">
<title>Node1&#45;&gt;Node8</title>
<path fill="none" stroke="midnightblue" d="M693.31,-301.83C663.01,-276.3 604.49,-227 574.96,-202.13"/>
<polygon fill="midnightblue" stroke="midnightblue" points="691.16,-304.6 701.07,-308.36 695.67,-299.24 691.16,-304.6"/>
</g>
<!-- Node3 -->
<g id="node3" class="node">
<title>Node3</title>
<g id="a_node3"><a xlink:href="class_triangular.html#aa23c433e870c03fbb5caf31ab474a3ec" target="_top" xlink:title="Przeciazenie operatora przypisania, umozliwia stosowanie metod typu Cuboid na obiekcie typu Triangula...">
<polygon fill="none" stroke="black" points="336,-389.49 336,-408.49 456,-408.49 456,-389.49 336,-389.49"/>
<text text-anchor="middle" x="396" y="-396.49" font-family="Helvetica,sans-Serif" font-size="10.00">Triangular::operator=</text>
</a>
</g>
</g>
<!-- Node2&#45;&gt;Node3 -->
<g id="edge2" class="edge">
<title>Node2&#45;&gt;Node3</title>
<path fill="none" stroke="midnightblue" d="M493.33,-376.44C474.62,-380.82 454.54,-385.52 437.58,-389.49"/>
<polygon fill="midnightblue" stroke="midnightblue" points="494.33,-379.8 503.26,-374.11 492.73,-372.98 494.33,-379.8"/>
</g>
<!-- Node4 -->
<g id="node4" class="node">
<title>Node4</title>
<g id="a_node4"><a xlink:href="class_triangular.html#a919ce19be6c96fbe4c92239ccbbb579b" target="_top" xlink:title="Konstruktor bezparametryczny klasy Triangular. Powstaly graniastoslup ma jeden prostokat &quot;tworzacy&quot;: ...">
<polygon fill="none" stroke="black" points="336.5,-351.49 336.5,-370.49 455.5,-370.49 455.5,-351.49 336.5,-351.49"/>
<text text-anchor="middle" x="396" y="-358.49" font-family="Helvetica,sans-Serif" font-size="10.00">Triangular::Triangular</text>
</a>
</g>
</g>
<!-- Node2&#45;&gt;Node4 -->
<g id="edge3" class="edge">
<title>Node2&#45;&gt;Node4</title>
<path fill="none" stroke="midnightblue" d="M493.09,-361.6C480.78,-361.52 467.89,-361.44 455.7,-361.37"/>
<polygon fill="midnightblue" stroke="midnightblue" points="493.24,-365.1 503.26,-361.67 493.29,-358.1 493.24,-365.1"/>
</g>
<!-- Node5 -->
<g id="node5" class="node">
<title>Node5</title>
<g id="a_node5"><a xlink:href="class_triangular.html#ad377db3bde29ea96fdc04fd3b645c07a" target="_top" xlink:title="Konstruktor parametryczny klasy Triangular. Powstaje ostroslup jak z konstruktora parametrycznego,...">
<polygon fill="none" stroke="black" points="168.5,-351.49 168.5,-370.49 287.5,-370.49 287.5,-351.49 168.5,-351.49"/>
<text text-anchor="middle" x="228" y="-358.49" font-family="Helvetica,sans-Serif" font-size="10.00">Triangular::Triangular</text>
</a>
</g>
</g>
<!-- Node4&#45;&gt;Node5 -->
<g id="edge4" class="edge">
<title>Node4&#45;&gt;Node5</title>
<path fill="none" stroke="midnightblue" d="M326.28,-360.99C313.42,-360.99 300.08,-360.99 287.56,-360.99"/>
<polygon fill="midnightblue" stroke="midnightblue" points="326.47,-364.49 336.47,-360.99 326.47,-357.49 326.47,-364.49"/>
</g>
<!-- Node7 -->
<g id="node7" class="node">
<title>Node7</title>
<g id="a_node7"><a xlink:href="class_cuboid.html#a1abf60e93d024b7a01ee5b1a48f1f08a" target="_top" xlink:title="Konstruktor bezparametryczny klasy Cuboid. Powstaly prostopadloscian ma dwa prostokaty &quot;tworzace&quot;: p1...">
<polygon fill="none" stroke="black" points="351,-310.49 351,-329.49 441,-329.49 441,-310.49 351,-310.49"/>
<text text-anchor="middle" x="396" y="-317.49" font-family="Helvetica,sans-Serif" font-size="10.00">Cuboid::Cuboid</text>
</a>
</g>
</g>
<!-- Node6&#45;&gt;Node7 -->
<g id="edge6" class="edge">
<title>Node6&#45;&gt;Node7</title>
<path fill="none" stroke="midnightblue" d="M482.45,-318.91C468.47,-319.09 454.22,-319.27 441.47,-319.43"/>
<polygon fill="midnightblue" stroke="midnightblue" points="482.6,-322.41 492.55,-318.79 482.51,-315.41 482.6,-322.41"/>
</g>
<!-- Node9 -->
<g id="node9" class="node">
<title>Node9</title>
<g id="a_node9"><a xlink:href="class_drone.html#a7eecbd031df9009e113d355a9dcdf4e1" target="_top" xlink:title="Metoda obliczajaca i przeprowadzajaca caly ruch drona (obrot o kat i przelot z zadania 5....">
<polygon fill="none" stroke="black" points="4.5,-152.99 4.5,-182.99 116.5,-182.99 116.5,-152.99 4.5,-152.99"/>
<text text-anchor="start" x="12.5" y="-170.99" font-family="Helvetica,sans-Serif" font-size="10.00">Drone::Drone_basic</text>
<text text-anchor="middle" x="60.5" y="-159.99" font-family="Helvetica,sans-Serif" font-size="10.00">_motion_flight</text>
</a>
</g>
</g>
<!-- Node8&#45;&gt;Node9 -->
<g id="edge8" class="edge">
<title>Node8&#45;&gt;Node9</title>
<path fill="none" stroke="midnightblue" d="M534.41,-209.73C516.14,-228.08 487.66,-252.5 457,-262.99 330.85,-306.18 280.25,-313.86 157,-262.99 117.66,-246.76 85.99,-205.59 70.96,-183.15"/>
<polygon fill="midnightblue" stroke="midnightblue" points="537.16,-211.92 541.59,-202.3 532.12,-207.06 537.16,-211.92"/>
</g>
<!-- Node10 -->
<g id="node10" class="node">
<title>Node10</title>
<g id="a_node10"><a xlink:href="class_drone.html#af03af60a9b92e4191a7e66b5c20b52bb" target="_top" xlink:title="Metoda zamieniajaca drona na tego z pliku sample.">
<polygon fill="none" stroke="black" points="335,-108.99 335,-138.99 457,-138.99 457,-108.99 335,-108.99"/>
<text text-anchor="start" x="343" y="-126.99" font-family="Helvetica,sans-Serif" font-size="10.00">Drone::Drone_change</text>
<text text-anchor="middle" x="396" y="-115.99" font-family="Helvetica,sans-Serif" font-size="10.00">_to_sample</text>
</a>
</g>
</g>
<!-- Node8&#45;&gt;Node10 -->
<g id="edge9" class="edge">
<title>Node8&#45;&gt;Node10</title>
<path fill="none" stroke="midnightblue" d="M507.79,-168.17C484.47,-158.87 456.71,-147.8 434.81,-139.07"/>
<polygon fill="midnightblue" stroke="midnightblue" points="506.57,-171.45 517.16,-171.9 509.16,-164.95 506.57,-171.45"/>
</g>
<!-- Node11 -->
<g id="node11" class="node">
<title>Node11</title>
<g id="a_node11"><a xlink:href="class_drone.html#a4abbed4a4cc52e5630f07f9129b46c5c" target="_top" xlink:title="Metoda realizujaca ladowanie drona.">
<polygon fill="none" stroke="black" points="165.5,-234.49 165.5,-253.49 290.5,-253.49 290.5,-234.49 165.5,-234.49"/>
<text text-anchor="middle" x="228" y="-241.49" font-family="Helvetica,sans-Serif" font-size="10.00">Drone::Drone_descent</text>
</a>
</g>
</g>
<!-- Node8&#45;&gt;Node11 -->
<g id="edge18" class="edge">
<title>Node8&#45;&gt;Node11</title>
<path fill="none" stroke="midnightblue" d="M493.86,-197.45C449.71,-205.02 388.65,-215.55 335,-224.99 317.69,-228.04 298.8,-231.41 281.83,-234.46"/>
<polygon fill="midnightblue" stroke="midnightblue" points="494.6,-200.87 503.86,-195.73 493.41,-193.97 494.6,-200.87"/>
</g>
<!-- Node12 -->
<g id="node12" class="node">
<title>Node12</title>
<g id="a_node12"><a xlink:href="class_drone.html#aec9abadf85777ab20e361d1389aab466" target="_top" xlink:title="Metoda obliczajaca i przeprowadzajaca koncowy ruch drona (obrot o kat i koncowy przelot z zadania 5....">
<polygon fill="none" stroke="black" points="0,-64.99 0,-94.99 121,-94.99 121,-64.99 0,-64.99"/>
<text text-anchor="start" x="8" y="-82.99" font-family="Helvetica,sans-Serif" font-size="10.00">Drone::Drone_motion</text>
<text text-anchor="middle" x="60.5" y="-71.99" font-family="Helvetica,sans-Serif" font-size="10.00">_after_update</text>
</a>
</g>
</g>
<!-- Node8&#45;&gt;Node12 -->
<g id="edge19" class="edge">
<title>Node8&#45;&gt;Node12</title>
<path fill="none" stroke="midnightblue" d="M543.9,-162.66C528.69,-132.1 498.46,-80.26 457,-51.99 397.06,-11.13 370.96,-20.18 299,-10.99 236.4,-3 217.05,8.43 157,-10.99 124.3,-21.57 93.39,-47.98 76.01,-64.89"/>
<polygon fill="midnightblue" stroke="midnightblue" points="540.8,-164.29 548.3,-171.77 547.1,-161.25 540.8,-164.29"/>
</g>
<!-- Node14 -->
<g id="node14" class="node">
<title>Node14</title>
<g id="a_node14"><a xlink:href="class_drone.html#ab7808296cec81143dbddd7516340a371" target="_top" xlink:title="Metoda robiaca &quot;oblot&quot; drona wokol punktu (z modyfikacji)">
<polygon fill="none" stroke="black" points="157,-196.49 157,-215.49 299,-215.49 299,-196.49 157,-196.49"/>
<text text-anchor="middle" x="228" y="-203.49" font-family="Helvetica,sans-Serif" font-size="10.00">Drone::Drone_roundabout</text>
</a>
</g>
</g>
<!-- Node8&#45;&gt;Node14 -->
<g id="edge20" class="edge">
<title>Node8&#45;&gt;Node14</title>
<path fill="none" stroke="midnightblue" d="M493.79,-186.61C449.6,-186.76 388.54,-187.86 335,-191.99 321.21,-193.06 306.47,-194.69 292.5,-196.47"/>
<polygon fill="midnightblue" stroke="midnightblue" points="493.81,-190.11 503.8,-186.59 493.79,-183.11 493.81,-190.11"/>
</g>
<!-- Node15 -->
<g id="node15" class="node">
<title>Node15</title>
<g id="a_node15"><a xlink:href="class_drone.html#a5fc9dd645ad3856b5d3c501c63c464e3" target="_top" xlink:title="Metoda animujaca translacje drona i wyrysowujaca calosc w gnuplocie.">
<polygon fill="none" stroke="black" points="158.5,-20.99 158.5,-50.99 297.5,-50.99 297.5,-20.99 158.5,-20.99"/>
<text text-anchor="start" x="166.5" y="-38.99" font-family="Helvetica,sans-Serif" font-size="10.00">Drone::Drone_translation</text>
<text text-anchor="middle" x="228" y="-27.99" font-family="Helvetica,sans-Serif" font-size="10.00">_animation</text>
</a>
</g>
</g>
<!-- Node8&#45;&gt;Node15 -->
<g id="edge21" class="edge">
<title>Node8&#45;&gt;Node15</title>
<path fill="none" stroke="midnightblue" d="M535.61,-164.46C517.27,-144.49 487.99,-115.95 457,-98.99 407.19,-71.74 344.69,-55.55 297.72,-46.42"/>
<polygon fill="midnightblue" stroke="midnightblue" points="533.03,-166.82 542.32,-171.91 538.23,-162.13 533.03,-166.82"/>
</g>
<!-- Node16 -->
<g id="node16" class="node">
<title>Node16</title>
<g id="a_node16"><a xlink:href="class_scene.html#adca9214dccab3d77eed9d8af7db67f94" target="_top" xlink:title="Konstruktor paramereyczny klasy Scene.">
<polygon fill="none" stroke="black" points="355.5,-234.49 355.5,-253.49 436.5,-253.49 436.5,-234.49 355.5,-234.49"/>
<text text-anchor="middle" x="396" y="-241.49" font-family="Helvetica,sans-Serif" font-size="10.00">Scene::Scene</text>
</a>
</g>
</g>
<!-- Node8&#45;&gt;Node16 -->
<g id="edge22" class="edge">
<title>Node8&#45;&gt;Node16</title>
<path fill="none" stroke="midnightblue" d="M503.51,-205.57C476.88,-215.18 445.49,-226.5 423.71,-234.36"/>
<polygon fill="midnightblue" stroke="midnightblue" points="504.85,-208.81 513.07,-202.12 502.48,-202.22 504.85,-208.81"/>
</g>
<!-- Node10&#45;&gt;Node9 -->
<g id="edge10" class="edge">
<title>Node10&#45;&gt;Node9</title>
<path fill="none" stroke="midnightblue" d="M334.04,-141.58C322.48,-144.42 310.43,-147.06 299,-148.99 237,-159.46 164.9,-164.2 116.55,-166.32"/>
<polygon fill="midnightblue" stroke="midnightblue" points="335.21,-144.89 344.04,-139.03 333.49,-138.1 335.21,-144.89"/>
</g>
<!-- Node10&#45;&gt;Node11 -->
<g id="edge11" class="edge">
<title>Node10&#45;&gt;Node11</title>
<path fill="none" stroke="midnightblue" d="M374.47,-146.86C349.06,-174.96 308.03,-219.61 299,-224.99 292.51,-228.87 285.22,-231.97 277.86,-234.44"/>
<polygon fill="midnightblue" stroke="midnightblue" points="377.4,-148.85 381.49,-139.08 372.2,-144.16 377.4,-148.85"/>
</g>
<!-- Node10&#45;&gt;Node12 -->
<g id="edge12" class="edge">
<title>Node10&#45;&gt;Node12</title>
<path fill="none" stroke="midnightblue" d="M334.04,-106.41C322.48,-103.57 310.43,-100.92 299,-98.99 239.04,-88.87 169.63,-84.11 121.4,-81.89"/>
<polygon fill="midnightblue" stroke="midnightblue" points="333.49,-109.89 344.04,-108.96 335.21,-103.1 333.49,-109.89"/>
</g>
<!-- Node13 -->
<g id="node13" class="node">
<title>Node13</title>
<g id="a_node13"><a xlink:href="class_drone.html#af052f6bb793d1229b99b16b800b95b82" target="_top" xlink:title="Metoda animujaca obrot drona i wyrysowujaca calosc w gnuplocie.">
<polygon fill="none" stroke="black" points="165.5,-108.99 165.5,-138.99 290.5,-138.99 290.5,-108.99 165.5,-108.99"/>
<text text-anchor="start" x="173.5" y="-126.99" font-family="Helvetica,sans-Serif" font-size="10.00">Drone::Drone_rotation</text>
<text text-anchor="middle" x="228" y="-115.99" font-family="Helvetica,sans-Serif" font-size="10.00">_animation</text>
</a>
</g>
</g>
<!-- Node10&#45;&gt;Node13 -->
<g id="edge13" class="edge">
<title>Node10&#45;&gt;Node13</title>
<path fill="none" stroke="midnightblue" d="M324.43,-123.99C313.23,-123.99 301.72,-123.99 290.75,-123.99"/>
<polygon fill="midnightblue" stroke="midnightblue" points="324.6,-127.49 334.6,-123.99 324.6,-120.49 324.6,-127.49"/>
</g>
<!-- Node10&#45;&gt;Node14 -->
<g id="edge16" class="edge">
<title>Node10&#45;&gt;Node14</title>
<path fill="none" stroke="midnightblue" d="M353.03,-143.65C346.87,-146.91 340.69,-150.41 335,-153.99 317.85,-164.8 316.83,-172.35 299,-181.99 288.15,-187.86 275.59,-192.7 264.14,-196.46"/>
<polygon fill="midnightblue" stroke="midnightblue" points="354.68,-146.73 361.97,-139.05 351.48,-140.51 354.68,-146.73"/>
</g>
<!-- Node10&#45;&gt;Node15 -->
<g id="edge17" class="edge">
<title>Node10&#45;&gt;Node15</title>
<path fill="none" stroke="midnightblue" d="M363.28,-103.31C344.87,-91.69 321.03,-77.3 299,-65.99 288.77,-60.74 277.4,-55.59 266.86,-51.09"/>
<polygon fill="midnightblue" stroke="midnightblue" points="361.53,-106.35 371.85,-108.76 365.29,-100.44 361.53,-106.35"/>
</g>
<!-- Node13&#45;&gt;Node9 -->
<g id="edge14" class="edge">
<title>Node13&#45;&gt;Node9</title>
<path fill="none" stroke="midnightblue" d="M160.55,-141.66C145.97,-145.54 130.69,-149.6 116.62,-153.34"/>
<polygon fill="midnightblue" stroke="midnightblue" points="161.74,-144.97 170.51,-139.01 159.94,-138.2 161.74,-144.97"/>
</g>
<!-- Node13&#45;&gt;Node12 -->
<g id="edge15" class="edge">
<title>Node13&#45;&gt;Node12</title>
<path fill="none" stroke="midnightblue" d="M160.82,-106.4C146.65,-102.63 131.79,-98.68 118.02,-95.02"/>
<polygon fill="midnightblue" stroke="midnightblue" points="159.94,-109.79 170.51,-108.98 161.74,-103.02 159.94,-109.79"/>
</g>
</g>
</svg>
