<?xml version="1.0" encoding="UTF-8" standalone="no"?>
<!DOCTYPE svg PUBLIC "-//W3C//DTD SVG 1.1//EN"
 "http://www.w3.org/Graphics/SVG/1.1/DTD/svg11.dtd">
<!-- Generated by graphviz version 2.43.0 (0)
 -->
<!-- Title: Pyramid::Pyramid Pages: 1 -->
<!--zoomable 218 -->
<svg id="main" version="1.1" xmlns="http://www.w3.org/2000/svg" xmlns:xlink="http://www.w3.org/1999/xlink" xml:space="preserve" onload="init(evt)">
<style type="text/css"><![CDATA[
.edge:hover path { stroke: red; }
.edge:hover polygon { stroke: red; fill: red; }
]]></style>
<script type="text/javascript"><![CDATA[
var edges = document.getElementsByTagName('g');
if (edges && edges.length) {
  for (var i=0;i<edges.length;i++) {
    if (edges[i].id.substr(0,4)=='edge') {
      edges[i].setAttribute('class','edge');
    }
  }
}
]]></script>
        <defs>
                <circle id="rim" cx="0" cy="0" r="7"/>
                <circle id="rim2" cx="0" cy="0" r="3.5"/>
                <g id="zoomPlus">
                        <use xlink:href="#rim" fill="#404040">
                                <set attributeName="fill" to="#808080" begin="zoomplus.mouseover" end="zoomplus.mouseout"/>
                        </use>
                        <path d="M-4,0h8M0,-4v8" fill="none" stroke="white" stroke-width="1.5" pointer-events="none"/>
                </g>
                <g id="zoomMin">
                        <use xlink:href="#rim" fill="#404040">
                                <set attributeName="fill" to="#808080" begin="zoomminus.mouseover" end="zoomminus.mouseout"/>
                        </use>
                        <path d="M-4,0h8" fill="none" stroke="white" stroke-width="1.5" pointer-events="none"/>
                </g>
                <g id="dirArrow">
                        <path fill="none" stroke="white" stroke-width="1.5" d="M0,-3.0v7 M-2.5,-0.5L0,-3.0L2.5,-0.5"/>
                </g>
               <g id="resetDef">
                       <use xlink:href="#rim2" fill="#404040">
                               <set attributeName="fill" to="#808080" begin="reset.mouseover" end="reset.mouseout"/>
                       </use>
               </g>
        </defs>

<script type="text/javascript">
var viewWidth = 795;
var viewHeight = 218;
var sectionId = 'dynsection-4';
</script>
<script xlink:href="svgpan.js"/>
<svg id="graph" class="graph">
<g id="viewport">
<title>Pyramid::Pyramid</title>
<!-- Node1 -->
<g id="node1" class="node">
<title>Node1</title>
<g id="a_node1"><a xlink:title="Konstruktor parametryczny klasy Pyramid. Powstaly ostroslupa ma jeden prostokat &quot;tworzacy&quot;: p1 = [0][...">
<polygon fill="#bfbfbf" stroke="black" points="0,-95.5 0,-114.5 104,-114.5 104,-95.5 0,-95.5"/>
<text text-anchor="middle" x="52" y="-102.5" font-family="Helvetica,sans-Serif" font-size="10.00">Pyramid::Pyramid</text>
</a>
</g>
</g>
<!-- Node2 -->
<g id="node2" class="node">
<title>Node2</title>
<g id="a_node2"><a xlink:href="class_pyramid.html#aa78baa6faa1c3fbcca510e8ddf37de49" target="_top" xlink:title="Konstruktor bezparametryczny klasy Pyramid. Powstaly ostroslupa ma jeden prostokat &quot;tworzacy&quot;: p1 = [...">
<polygon fill="none" stroke="black" points="157.5,-190.5 157.5,-209.5 261.5,-209.5 261.5,-190.5 157.5,-190.5"/>
<text text-anchor="middle" x="209.5" y="-197.5" font-family="Helvetica,sans-Serif" font-size="10.00">Pyramid::Pyramid</text>
</a>
</g>
</g>
<!-- Node1&#45;&gt;Node2 -->
<g id="edge1" class="edge">
<title>Node1&#45;&gt;Node2</title>
<path fill="none" stroke="midnightblue" d="M62.35,-114.53C77.45,-129.46 108.71,-158.47 140,-176 147.51,-180.21 155.88,-183.88 164.13,-187"/>
<polygon fill="midnightblue" stroke="midnightblue" points="163.1,-190.34 173.69,-190.41 165.45,-183.75 163.1,-190.34"/>
</g>
<!-- Node3 -->
<g id="node3" class="node">
<title>Node3</title>
<g id="a_node3"><a xlink:href="class_pyramid.html#a4e9bcb34458c0015d3a35b5f61747cc6" target="_top" xlink:title="Metoda zwracajaca punkty specjalne ostroslupau : cuts (czyli te ktore sa przecieciami przekatnych dwo...">
<polygon fill="none" stroke="black" points="317,-171.5 317,-190.5 450,-190.5 450,-171.5 317,-171.5"/>
<text text-anchor="middle" x="383.5" y="-178.5" font-family="Helvetica,sans-Serif" font-size="10.00">Pyramid::special_points</text>
</a>
</g>
</g>
<!-- Node1&#45;&gt;Node3 -->
<g id="edge10" class="edge">
<title>Node1&#45;&gt;Node3</title>
<path fill="none" stroke="midnightblue" d="M71.15,-114.57C88.41,-123.27 115.32,-135.8 140,-143 194.71,-158.95 258.44,-168.6 306.84,-174.19"/>
<polygon fill="midnightblue" stroke="midnightblue" points="306.59,-177.68 316.92,-175.32 307.37,-170.73 306.59,-177.68"/>
</g>
<!-- Node6 -->
<g id="node6" class="node">
<title>Node6</title>
<g id="a_node6"><a xlink:href="class_cuboid.html#a7ea89af123502b41ef349f4aedb93b5e" target="_top" xlink:title="Metoda skalujaca o wektor scale bedacy czlonkiem klasy block">
<polygon fill="none" stroke="black" points="157.5,-114.5 157.5,-133.5 261.5,-133.5 261.5,-114.5 157.5,-114.5"/>
<text text-anchor="middle" x="209.5" y="-121.5" font-family="Helvetica,sans-Serif" font-size="10.00">Cuboid::scale_cub</text>
</a>
</g>
</g>
<!-- Node1&#45;&gt;Node6 -->
<g id="edge5" class="edge">
<title>Node1&#45;&gt;Node6</title>
<path fill="none" stroke="midnightblue" d="M104.35,-111.27C118.09,-112.95 133.07,-114.78 147.29,-116.52"/>
<polygon fill="midnightblue" stroke="midnightblue" points="147.12,-120.03 157.47,-117.77 147.97,-113.08 147.12,-120.03"/>
</g>
<!-- Node8 -->
<g id="node8" class="node">
<title>Node8</title>
<g id="a_node8"><a xlink:href="class_block.html#a640a910076d8b10533a9a80d740f8f03" target="_top" xlink:title="Metoda zapisujaca do klasy nazwe pliku z finalna (robocza) bryla">
<polygon fill="none" stroke="black" points="147.5,-76.5 147.5,-95.5 271.5,-95.5 271.5,-76.5 147.5,-76.5"/>
<text text-anchor="middle" x="209.5" y="-83.5" font-family="Helvetica,sans-Serif" font-size="10.00">Block::set_final_name</text>
</a>
</g>
</g>
<!-- Node1&#45;&gt;Node8 -->
<g id="edge7" class="edge">
<title>Node1&#45;&gt;Node8</title>
<path fill="none" stroke="midnightblue" d="M104.35,-98.73C114.91,-97.44 126.22,-96.05 137.34,-94.69"/>
<polygon fill="midnightblue" stroke="midnightblue" points="137.98,-98.14 147.48,-93.46 137.13,-91.19 137.98,-98.14"/>
</g>
<!-- Node9 -->
<g id="node9" class="node">
<title>Node9</title>
<g id="a_node9"><a xlink:href="class_block.html#acf20b290f1543e580ff1f2c6d98ff4c4" target="_top" xlink:title="Metoda zapisujaca do klasy nazwe pliku z wzorcowa bryla">
<polygon fill="none" stroke="black" points="140,-38.5 140,-57.5 279,-57.5 279,-38.5 140,-38.5"/>
<text text-anchor="middle" x="209.5" y="-45.5" font-family="Helvetica,sans-Serif" font-size="10.00">Block::set_sample_name</text>
</a>
</g>
</g>
<!-- Node1&#45;&gt;Node9 -->
<g id="edge8" class="edge">
<title>Node1&#45;&gt;Node9</title>
<path fill="none" stroke="midnightblue" d="M72.72,-95.43C90.15,-87.21 116.39,-75.38 140,-67 146.56,-64.67 153.56,-62.44 160.49,-60.39"/>
<polygon fill="midnightblue" stroke="midnightblue" points="161.87,-63.63 170.52,-57.51 159.94,-56.9 161.87,-63.63"/>
</g>
<!-- Node10 -->
<g id="node10" class="node">
<title>Node10</title>
<g id="a_node10"><a xlink:href="class_block.html#adb6acd13e2ab79cf7e4733ca2d6ae166" target="_top" xlink:title="Metoda zapisujaca do klasy wektor reprezentujacy skale">
<polygon fill="none" stroke="black" points="162,-0.5 162,-19.5 257,-19.5 257,-0.5 162,-0.5"/>
<text text-anchor="middle" x="209.5" y="-7.5" font-family="Helvetica,sans-Serif" font-size="10.00">Block::set_scale</text>
</a>
</g>
</g>
<!-- Node1&#45;&gt;Node10 -->
<g id="edge9" class="edge">
<title>Node1&#45;&gt;Node10</title>
<path fill="none" stroke="midnightblue" d="M61.36,-95.29C75.78,-79.14 106.99,-46.79 140,-29 144.19,-26.74 148.68,-24.73 153.27,-22.95"/>
<polygon fill="midnightblue" stroke="midnightblue" points="154.53,-26.21 162.8,-19.59 152.2,-19.61 154.53,-26.21"/>
</g>
<!-- Node2&#45;&gt;Node3 -->
<g id="edge2" class="edge">
<title>Node2&#45;&gt;Node3</title>
<path fill="none" stroke="midnightblue" d="M261.64,-194.35C275.86,-192.78 291.6,-191.04 306.9,-189.35"/>
<polygon fill="midnightblue" stroke="midnightblue" points="307.31,-192.83 316.87,-188.25 306.55,-185.87 307.31,-192.83"/>
</g>
<!-- Node4 -->
<g id="node4" class="node">
<title>Node4</title>
<g id="a_node4"><a xlink:href="class_pyramid.html#a0335a2572afad90c7124ee79b6df5aca" target="_top" xlink:title="Metoda zwracajaca punkt centralny (czyli taki, ktorego odleglosci do kazdego wierzcholka sa rowne) Py...">
<polygon fill="none" stroke="black" points="488,-171.5 488,-190.5 612,-190.5 612,-171.5 488,-171.5"/>
<text text-anchor="middle" x="550" y="-178.5" font-family="Helvetica,sans-Serif" font-size="10.00">Pyramid::centre_point</text>
</a>
</g>
</g>
<!-- Node3&#45;&gt;Node4 -->
<g id="edge3" class="edge">
<title>Node3&#45;&gt;Node4</title>
<path fill="none" stroke="midnightblue" d="M450.46,-181C459.42,-181 468.65,-181 477.7,-181"/>
<polygon fill="midnightblue" stroke="midnightblue" points="477.82,-184.5 487.82,-181 477.82,-177.5 477.82,-184.5"/>
</g>
<!-- Node5 -->
<g id="node5" class="node">
<title>Node5</title>
<g id="a_node5"><a xlink:href="class_cuboid.html#a0e7f901199262984ab6ba0da01d96c40" target="_top" xlink:title="Metoda zwracajaca srodek podstawy ostroslupa">
<polygon fill="none" stroke="black" points="648,-171.5 648,-190.5 787,-190.5 787,-171.5 648,-171.5"/>
<text text-anchor="middle" x="717.5" y="-178.5" font-family="Helvetica,sans-Serif" font-size="10.00">Cuboid::get_basis_centre</text>
</a>
</g>
</g>
<!-- Node4&#45;&gt;Node5 -->
<g id="edge4" class="edge">
<title>Node4&#45;&gt;Node5</title>
<path fill="none" stroke="midnightblue" d="M612.16,-181C620.49,-181 629.15,-181 637.74,-181"/>
<polygon fill="midnightblue" stroke="midnightblue" points="637.79,-184.5 647.79,-181 637.79,-177.5 637.79,-184.5"/>
</g>
<!-- Node7 -->
<g id="node7" class="node">
<title>Node7</title>
<g id="a_node7"><a xlink:href="class_cuboid.html#a42bdce7c214e759cb6ea94d4f547a5b9" target="_top" xlink:title="Metoda przesuwajaca prostopadloscian do (0,0,0)">
<polygon fill="none" stroke="black" points="315,-114.5 315,-133.5 452,-133.5 452,-114.5 315,-114.5"/>
<text text-anchor="middle" x="383.5" y="-121.5" font-family="Helvetica,sans-Serif" font-size="10.00">Cuboid::translation_to_O</text>
</a>
</g>
</g>
<!-- Node6&#45;&gt;Node7 -->
<g id="edge6" class="edge">
<title>Node6&#45;&gt;Node7</title>
<path fill="none" stroke="midnightblue" d="M261.64,-124C275.24,-124 290.23,-124 304.9,-124"/>
<polygon fill="midnightblue" stroke="midnightblue" points="304.98,-127.5 314.98,-124 304.98,-120.5 304.98,-127.5"/>
</g>
</g>
</svg>
        <g id="navigator" transform="translate(0 0)" fill="#404254">
                <rect fill="#f2f5e9" fill-opacity="0.5" stroke="#606060" stroke-width=".5" x="0" y="0" width="60" height="60"/>
                <use id="zoomplus" xlink:href="#zoomPlus" x="17" y="9" onmousedown="handleZoom(evt,'in')"/>
                <use id="zoomminus" xlink:href="#zoomMin" x="42" y="9" onmousedown="handleZoom(evt,'out')"/>
                <use id="reset" xlink:href="#resetDef" x="30" y="36" onmousedown="handleReset()"/>
                <g id="arrowUp" xlink:href="#dirArrow" transform="translate(30 24)" onmousedown="handlePan(0,-1)">
                  <use xlink:href="#rim" fill="#404040">
                        <set attributeName="fill" to="#808080" begin="arrowUp.mouseover" end="arrowUp.mouseout"/>
                  </use>
                  <path fill="none" stroke="white" stroke-width="1.5" d="M0,-3.0v7 M-2.5,-0.5L0,-3.0L2.5,-0.5"/>
                </g>
                <g id="arrowRight" xlink:href="#dirArrow" transform="rotate(90) translate(36 -43)" onmousedown="handlePan(1,0)">
                  <use xlink:href="#rim" fill="#404040">
                        <set attributeName="fill" to="#808080" begin="arrowRight.mouseover" end="arrowRight.mouseout"/>
                  </use>
                  <path fill="none" stroke="white" stroke-width="1.5" d="M0,-3.0v7 M-2.5,-0.5L0,-3.0L2.5,-0.5"/>
                </g>
                <g id="arrowDown" xlink:href="#dirArrow" transform="rotate(180) translate(-30 -48)" onmousedown="handlePan(0,1)">
                  <use xlink:href="#rim" fill="#404040">
                        <set attributeName="fill" to="#808080" begin="arrowDown.mouseover" end="arrowDown.mouseout"/>
                  </use>
                  <path fill="none" stroke="white" stroke-width="1.5" d="M0,-3.0v7 M-2.5,-0.5L0,-3.0L2.5,-0.5"/>
                </g>
                <g id="arrowLeft" xlink:href="#dirArrow" transform="rotate(270) translate(-36 17)" onmousedown="handlePan(-1,0)">
                  <use xlink:href="#rim" fill="#404040">
                        <set attributeName="fill" to="#808080" begin="arrowLeft.mouseover" end="arrowLeft.mouseout"/>
                  </use>
                  <path fill="none" stroke="white" stroke-width="1.5" d="M0,-3.0v7 M-2.5,-0.5L0,-3.0L2.5,-0.5"/>
                </g>
        </g>
        <svg viewBox="0 0 15 15" width="100%" height="30px" preserveAspectRatio="xMaxYMin meet">
         <g id="arrow_out" transform="scale(0.3 0.3)">
          <a xlink:href="class_pyramid_a188d1f3cca17418b95ae771dedc99f4a_cgraph_org.svg" target="_base">
           <rect id="button" ry="5" rx="5" y="6" x="6" height="38" width="38"
                fill="#f2f5e9" fill-opacity="0.5" stroke="#606060" stroke-width="1.0"/>
           <path id="arrow"
             d="M 11.500037,31.436501 C 11.940474,20.09759 22.043105,11.32322 32.158766,21.979434 L 37.068811,17.246167 C 37.068811,17.246167 37.088388,32 37.088388,32 L 22.160133,31.978069 C 22.160133,31.978069 26.997745,27.140456 26.997745,27.140456 C 18.528582,18.264221 13.291696,25.230495 11.500037,31.436501 z"
             style="fill:#404040;"/>
          </a>
         </g>
        </svg>
</svg>
