<?xml version="1.0" encoding="UTF-8" standalone="no"?>
<!DOCTYPE svg PUBLIC "-//W3C//DTD SVG 1.1//EN"
 "http://www.w3.org/Graphics/SVG/1.1/DTD/svg11.dtd">
<!-- Generated by graphviz version 2.43.0 (0)
 -->
<!-- Title: Drone::rotation_around_cen Pages: 1 -->
<svg width="664pt" height="205pt"
 viewBox="0.00 0.00 664.00 205.05" xmlns="http://www.w3.org/2000/svg" xmlns:xlink="http://www.w3.org/1999/xlink">
<g id="graph0" class="graph" transform="scale(1 1) rotate(0) translate(4 201.05)">
<title>Drone::rotation_around_cen</title>
<!-- Node1 -->
<g id="node1" class="node">
<title>Node1</title>
<g id="a_node1"><a xlink:title="Metoda obracajaca dron o zadany kat w 3D wokol srodka figury">
<polygon fill="#bfbfbf" stroke="black" points="0,-110 0,-129 152,-129 152,-110 0,-110"/>
<text text-anchor="middle" x="76" y="-117" font-family="Helvetica,sans-Serif" font-size="10.00">Drone::rotation_around_cen</text>
</a>
</g>
</g>
<!-- Node2 -->
<g id="node2" class="node">
<title>Node2</title>
<g id="a_node2"><a xlink:href="class_prism.html#a22c5467db5d960bddbaf9a52f55c55cb" target="_top" xlink:title="Metoda obracajaca graniastoslup o zadany kat w 3D wokol srodka figury">
<polygon fill="none" stroke="black" points="191,-164 191,-183 341,-183 341,-164 191,-164"/>
<text text-anchor="middle" x="266" y="-171" font-family="Helvetica,sans-Serif" font-size="10.00">Prism::rotation_around_cen</text>
</a>
</g>
</g>
<!-- Node1&#45;&gt;Node2 -->
<g id="edge1" class="edge">
<title>Node1&#45;&gt;Node2</title>
<path fill="none" stroke="midnightblue" d="M110.18,-129.03C141.36,-137.99 188.19,-151.44 222.18,-161.2"/>
<polygon fill="midnightblue" stroke="midnightblue" points="221.26,-164.58 231.84,-163.97 223.19,-157.85 221.26,-164.58"/>
</g>
<!-- Node5 -->
<g id="node5" class="node">
<title>Node5</title>
<g id="a_node5"><a xlink:href="class_cuboid.html#a6c697c2d9b36a14c43c7328876d5a1f0" target="_top" xlink:title="Metoda obracajaca prostopadloscian o zadany kat w 3D wokol srodka figury">
<polygon fill="none" stroke="black" points="188,-110 188,-129 344,-129 344,-110 188,-110"/>
<text text-anchor="middle" x="266" y="-117" font-family="Helvetica,sans-Serif" font-size="10.00">Cuboid::rotation_around_cen</text>
</a>
</g>
</g>
<!-- Node1&#45;&gt;Node5 -->
<g id="edge5" class="edge">
<title>Node1&#45;&gt;Node5</title>
<path fill="none" stroke="midnightblue" d="M152.11,-119.5C160.57,-119.5 169.23,-119.5 177.82,-119.5"/>
<polygon fill="midnightblue" stroke="midnightblue" points="177.85,-123 187.85,-119.5 177.85,-116 177.85,-123"/>
</g>
<!-- Node8 -->
<g id="node8" class="node">
<title>Node8</title>
<g id="a_node8"><a xlink:href="class_drone.html#aea963b77f42c204504542a3d9190d762" target="_top" xlink:title="Metoda uzywana przy konstruowania drona Ustawia rotory w ten sposob, ze srodek ich dolnej podstawy je...">
<polygon fill="none" stroke="black" points="208.5,-44.5 208.5,-74.5 323.5,-74.5 323.5,-44.5 208.5,-44.5"/>
<text text-anchor="start" x="216.5" y="-62.5" font-family="Helvetica,sans-Serif" font-size="10.00">Drone::set_rotors_in</text>
<text text-anchor="middle" x="266" y="-51.5" font-family="Helvetica,sans-Serif" font-size="10.00">_place</text>
</a>
</g>
</g>
<!-- Node1&#45;&gt;Node8 -->
<g id="edge8" class="edge">
<title>Node1&#45;&gt;Node8</title>
<path fill="none" stroke="midnightblue" d="M106.79,-109.99C133.93,-101.33 174.75,-88.3 208.13,-77.65"/>
<polygon fill="midnightblue" stroke="midnightblue" points="209.31,-80.95 217.77,-74.57 207.18,-74.28 209.31,-80.95"/>
</g>
<!-- Node3 -->
<g id="node3" class="node">
<title>Node3</title>
<g id="a_node3"><a xlink:href="class_prism.html#ade146d341c0468030f8c1258b7fe1041" target="_top" xlink:title="Metoda przesuwajaca graniastoslup o zadany wektor w 3D">
<polygon fill="none" stroke="black" points="553,-164 553,-183 656,-183 656,-164 553,-164"/>
<text text-anchor="middle" x="604.5" y="-171" font-family="Helvetica,sans-Serif" font-size="10.00">Prism::translation</text>
</a>
</g>
</g>
<!-- Node2&#45;&gt;Node3 -->
<g id="edge2" class="edge">
<title>Node2&#45;&gt;Node3</title>
<path fill="none" stroke="midnightblue" d="M312.96,-183.01C333.39,-186.78 357.8,-190.65 380,-192.5 440.68,-197.57 456.47,-199.07 517,-192.5 530.64,-191.02 545.29,-188.26 558.57,-185.3"/>
<polygon fill="midnightblue" stroke="midnightblue" points="559.48,-188.68 568.43,-183.01 557.9,-181.86 559.48,-188.68"/>
</g>
<!-- Node4 -->
<g id="node4" class="node">
<title>Node4</title>
<g id="a_node4"><a xlink:href="class_prism.html#afed2c26932d5cb152fd620d2acbfbc3e" target="_top" xlink:title="Metoda przesuwajaca graniastoslup do srodka ukladu wspolrzednych (tak, ze srodek graniastoslupa pokry...">
<polygon fill="none" stroke="black" points="383,-164 383,-183 514,-183 514,-164 383,-164"/>
<text text-anchor="middle" x="448.5" y="-171" font-family="Helvetica,sans-Serif" font-size="10.00">Prism::translation_to_O</text>
</a>
</g>
</g>
<!-- Node2&#45;&gt;Node4 -->
<g id="edge3" class="edge">
<title>Node2&#45;&gt;Node4</title>
<path fill="none" stroke="midnightblue" d="M341.2,-173.5C351.55,-173.5 362.2,-173.5 372.57,-173.5"/>
<polygon fill="midnightblue" stroke="midnightblue" points="372.82,-177 382.82,-173.5 372.82,-170 372.82,-177"/>
</g>
<!-- Node4&#45;&gt;Node3 -->
<g id="edge4" class="edge">
<title>Node4&#45;&gt;Node3</title>
<path fill="none" stroke="midnightblue" d="M514.36,-173.5C523.68,-173.5 533.24,-173.5 542.48,-173.5"/>
<polygon fill="midnightblue" stroke="midnightblue" points="542.74,-177 552.74,-173.5 542.74,-170 542.74,-177"/>
</g>
<!-- Node6 -->
<g id="node6" class="node">
<title>Node6</title>
<g id="a_node6"><a xlink:href="class_cuboid.html#a3f6b1b9ea7de433af5b0d462d29f4272" target="_top" xlink:title="Metoda przesuwajaca prostopadloscian o zadany kat w 3D">
<polygon fill="none" stroke="black" points="394,-126 394,-145 503,-145 503,-126 394,-126"/>
<text text-anchor="middle" x="448.5" y="-133" font-family="Helvetica,sans-Serif" font-size="10.00">Cuboid::translation</text>
</a>
</g>
</g>
<!-- Node5&#45;&gt;Node6 -->
<g id="edge6" class="edge">
<title>Node5&#45;&gt;Node6</title>
<path fill="none" stroke="midnightblue" d="M344.07,-126.33C357.3,-127.5 370.92,-128.71 383.75,-129.85"/>
<polygon fill="midnightblue" stroke="midnightblue" points="383.58,-133.35 393.85,-130.74 384.2,-126.38 383.58,-133.35"/>
</g>
<!-- Node7 -->
<g id="node7" class="node">
<title>Node7</title>
<g id="a_node7"><a xlink:href="class_cuboid.html#a42bdce7c214e759cb6ea94d4f547a5b9" target="_top" xlink:title="Metoda przesuwajaca prostopadloscian do (0,0,0)">
<polygon fill="none" stroke="black" points="380,-88 380,-107 517,-107 517,-88 380,-88"/>
<text text-anchor="middle" x="448.5" y="-95" font-family="Helvetica,sans-Serif" font-size="10.00">Cuboid::translation_to_O</text>
</a>
</g>
</g>
<!-- Node5&#45;&gt;Node7 -->
<g id="edge7" class="edge">
<title>Node5&#45;&gt;Node7</title>
<path fill="none" stroke="midnightblue" d="M344.07,-110.11C352.61,-109.07 361.31,-108 369.86,-106.96"/>
<polygon fill="midnightblue" stroke="midnightblue" points="370.3,-110.44 379.8,-105.75 369.45,-103.49 370.3,-110.44"/>
</g>
<!-- Node9 -->
<g id="node9" class="node">
<title>Node9</title>
<g id="a_node9"><a xlink:href="class_cuboid.html#a99d30564d6129e6905c5333e04df9606" target="_top" xlink:title="Metoda zwracajaca wierzcholki prostopadloscianu do Vector3D">
<polygon fill="none" stroke="black" points="401,-50 401,-69 496,-69 496,-50 401,-50"/>
<text text-anchor="middle" x="448.5" y="-57" font-family="Helvetica,sans-Serif" font-size="10.00">Cuboid::get_cub</text>
</a>
</g>
</g>
<!-- Node8&#45;&gt;Node9 -->
<g id="edge9" class="edge">
<title>Node8&#45;&gt;Node9</title>
<path fill="none" stroke="midnightblue" d="M323.62,-59.5C344.94,-59.5 369.19,-59.5 390.54,-59.5"/>
<polygon fill="midnightblue" stroke="midnightblue" points="390.77,-63 400.77,-59.5 390.77,-56 390.77,-63"/>
</g>
<!-- Node10 -->
<g id="node10" class="node">
<title>Node10</title>
<g id="a_node10"><a xlink:href="class_prism.html#a4e2b0b9c37d6a53af869522a4bf364ac" target="_top" xlink:title="Metoda przesuwajaca graniastoslup o zadany wektor w 3D w taki sposob, ze srodek jego dolnej podstawy ...">
<polygon fill="none" stroke="black" points="397,-0.5 397,-30.5 500,-30.5 500,-0.5 397,-0.5"/>
<text text-anchor="start" x="405" y="-18.5" font-family="Helvetica,sans-Serif" font-size="10.00">Prism::translation</text>
<text text-anchor="middle" x="448.5" y="-7.5" font-family="Helvetica,sans-Serif" font-size="10.00">_of_lower_cen</text>
</a>
</g>
</g>
<!-- Node8&#45;&gt;Node10 -->
<g id="edge10" class="edge">
<title>Node8&#45;&gt;Node10</title>
<path fill="none" stroke="midnightblue" d="M323.62,-45.7C343.78,-40.78 366.57,-35.23 387.05,-30.24"/>
<polygon fill="midnightblue" stroke="midnightblue" points="388.01,-33.61 396.89,-27.84 386.35,-26.8 388.01,-33.61"/>
</g>
<!-- Node10&#45;&gt;Node3 -->
<g id="edge11" class="edge">
<title>Node10&#45;&gt;Node3</title>
<path fill="none" stroke="midnightblue" d="M500.11,-30.09C506.13,-33 511.92,-36.44 517,-40.5 556.28,-71.9 583.53,-126.16 595.93,-154.7"/>
<polygon fill="midnightblue" stroke="midnightblue" points="592.72,-156.1 599.82,-163.97 599.17,-153.39 592.72,-156.1"/>
</g>
</g>
</svg>
