<?xml version="1.0" encoding="UTF-8" standalone="no"?>
<!DOCTYPE svg PUBLIC "-//W3C//DTD SVG 1.1//EN"
 "http://www.w3.org/Graphics/SVG/1.1/DTD/svg11.dtd">
<!-- Generated by graphviz version 2.43.0 (0)
 -->
<!-- Title: PzG::LaczeDoGNUPlota::UsunNazwePliku Pages: 1 -->
<svg width="576pt" height="39pt"
 viewBox="0.00 0.00 576.00 39.00" xmlns="http://www.w3.org/2000/svg" xmlns:xlink="http://www.w3.org/1999/xlink">
<g id="graph0" class="graph" transform="scale(1 1) rotate(0) translate(4 35)">
<title>PzG::LaczeDoGNUPlota::UsunNazwePliku</title>
<!-- Node1 -->
<g id="node1" class="node">
<title>Node1</title>
<g id="a_node1"><a xlink:title="Usuwa z listy nazw plików z danymi do rysowania usuwa wybraną nazwę.">
<polygon fill="#bfbfbf" stroke="black" points="438,-0.5 438,-30.5 568,-30.5 568,-0.5 438,-0.5"/>
<text text-anchor="start" x="446" y="-18.5" font-family="Helvetica,sans-Serif" font-size="10.00">PzG::LaczeDoGNUPlota</text>
<text text-anchor="middle" x="503" y="-7.5" font-family="Helvetica,sans-Serif" font-size="10.00">::UsunNazwePliku</text>
</a>
</g>
</g>
<!-- Node2 -->
<g id="node2" class="node">
<title>Node2</title>
<g id="a_node2"><a xlink:href="class_scene.html#aa86f467ff8da149dac89813f90b1ee18" target="_top" xlink:title="Metoda usuwajaca object zadany przez uzytkownika.">
<polygon fill="none" stroke="black" points="284,-6 284,-25 402,-25 402,-6 284,-6"/>
<text text-anchor="middle" x="343" y="-13" font-family="Helvetica,sans-Serif" font-size="10.00">Scene::delete_object</text>
</a>
</g>
</g>
<!-- Node1&#45;&gt;Node2 -->
<g id="edge1" class="edge">
<title>Node1&#45;&gt;Node2</title>
<path fill="none" stroke="midnightblue" d="M427.7,-15.5C419.11,-15.5 410.44,-15.5 402.1,-15.5"/>
<polygon fill="midnightblue" stroke="midnightblue" points="427.74,-19 437.74,-15.5 427.74,-12 427.74,-19"/>
</g>
<!-- Node3 -->
<g id="node3" class="node">
<title>Node3</title>
<g id="a_node3"><a xlink:href="class_menu.html#acd338552222b744cd030e17776cb5d9b" target="_top" xlink:title="Obsluguje wybor menu.">
<polygon fill="none" stroke="black" points="134,-6 134,-25 248,-25 248,-6 134,-6"/>
<text text-anchor="middle" x="191" y="-13" font-family="Helvetica,sans-Serif" font-size="10.00">Menu::switch_menu</text>
</a>
</g>
</g>
<!-- Node2&#45;&gt;Node3 -->
<g id="edge2" class="edge">
<title>Node2&#45;&gt;Node3</title>
<path fill="none" stroke="midnightblue" d="M273.33,-15.5C264.87,-15.5 256.3,-15.5 248.05,-15.5"/>
<polygon fill="midnightblue" stroke="midnightblue" points="273.58,-19 283.58,-15.5 273.58,-12 273.58,-19"/>
</g>
<!-- Node4 -->
<g id="node4" class="node">
<title>Node4</title>
<g id="a_node4"><a xlink:href="class_menu.html#af7e6a49bd56499facef9cc98561ea169" target="_top" xlink:title="Inicjuje i obsluguje menu.">
<polygon fill="none" stroke="black" points="0,-6 0,-25 98,-25 98,-6 0,-6"/>
<text text-anchor="middle" x="49" y="-13" font-family="Helvetica,sans-Serif" font-size="10.00">Menu::init_menu</text>
</a>
</g>
</g>
<!-- Node3&#45;&gt;Node4 -->
<g id="edge3" class="edge">
<title>Node3&#45;&gt;Node4</title>
<path fill="none" stroke="midnightblue" d="M123.75,-15.5C115.08,-15.5 106.33,-15.5 98.04,-15.5"/>
<polygon fill="midnightblue" stroke="midnightblue" points="123.86,-19 133.86,-15.5 123.86,-12 123.86,-19"/>
</g>
</g>
</svg>
