<?xml version="1.0" encoding="UTF-8" standalone="no"?>
<!DOCTYPE svg PUBLIC "-//W3C//DTD SVG 1.1//EN"
 "http://www.w3.org/Graphics/SVG/1.1/DTD/svg11.dtd">
<!-- Generated by graphviz version 2.43.0 (0)
 -->
<!-- Title: Tent::Tent Pages: 1 -->
<!--zoomable 218 -->
<svg id="main" version="1.1" xmlns="http://www.w3.org/2000/svg" xmlns:xlink="http://www.w3.org/1999/xlink" xml:space="preserve" onload="init(evt)">
<style type="text/css"><![CDATA[
.edge:hover path { stroke: red; }
.edge:hover polygon { stroke: red; fill: red; }
]]></style>
<script type="text/javascript"><![CDATA[
var edges = document.getElementsByTagName('g');
if (edges && edges.length) {
  for (var i=0;i<edges.length;i++) {
    if (edges[i].id.substr(0,4)=='edge') {
      edges[i].setAttribute('class','edge');
    }
  }
}
]]></script>
        <defs>
                <circle id="rim" cx="0" cy="0" r="7"/>
                <circle id="rim2" cx="0" cy="0" r="3.5"/>
                <g id="zoomPlus">
                        <use xlink:href="#rim" fill="#404040">
                                <set attributeName="fill" to="#808080" begin="zoomplus.mouseover" end="zoomplus.mouseout"/>
                        </use>
                        <path d="M-4,0h8M0,-4v8" fill="none" stroke="white" stroke-width="1.5" pointer-events="none"/>
                </g>
                <g id="zoomMin">
                        <use xlink:href="#rim" fill="#404040">
                                <set attributeName="fill" to="#808080" begin="zoomminus.mouseover" end="zoomminus.mouseout"/>
                        </use>
                        <path d="M-4,0h8" fill="none" stroke="white" stroke-width="1.5" pointer-events="none"/>
                </g>
                <g id="dirArrow">
                        <path fill="none" stroke="white" stroke-width="1.5" d="M0,-3.0v7 M-2.5,-0.5L0,-3.0L2.5,-0.5"/>
                </g>
               <g id="resetDef">
                       <use xlink:href="#rim2" fill="#404040">
                               <set attributeName="fill" to="#808080" begin="reset.mouseover" end="reset.mouseout"/>
                       </use>
               </g>
        </defs>

<script type="text/javascript">
var viewWidth = 553;
var viewHeight = 218;
var sectionId = 'dynsection-4';
</script>
<script xlink:href="svgpan.js"/>
<svg id="graph" class="graph">
<g id="viewport">
<title>Tent::Tent</title>
<!-- Node1 -->
<g id="node1" class="node">
<title>Node1</title>
<g id="a_node1"><a xlink:title="Konstruktor parametryczny klasy Tent. Powstaje ostroslup jak z konstruktora parametrycznego,...">
<polygon fill="#bfbfbf" stroke="black" points="0,-95.5 0,-114.5 63,-114.5 63,-95.5 0,-95.5"/>
<text text-anchor="middle" x="31.5" y="-102.5" font-family="Helvetica,sans-Serif" font-size="10.00">Tent::Tent</text>
</a>
</g>
</g>
<!-- Node2 -->
<g id="node2" class="node">
<title>Node2</title>
<g id="a_node2"><a xlink:href="class_prism.html#a07f15c416c9f9c54390bb8737b441a35" target="_top" xlink:title="Metoda skalujaca o wektor scale bedacy czlonkiem klasy block">
<polygon fill="none" stroke="black" points="121.5,-190.5 121.5,-209.5 215.5,-209.5 215.5,-190.5 121.5,-190.5"/>
<text text-anchor="middle" x="168.5" y="-197.5" font-family="Helvetica,sans-Serif" font-size="10.00">Prism::scale_pri</text>
</a>
</g>
</g>
<!-- Node1&#45;&gt;Node2 -->
<g id="edge1" class="edge">
<title>Node1&#45;&gt;Node2</title>
<path fill="none" stroke="midnightblue" d="M38.18,-114.52C48.31,-130.69 71.1,-163.46 99,-181 103.03,-183.54 107.41,-185.74 111.93,-187.65"/>
<polygon fill="midnightblue" stroke="midnightblue" points="110.75,-190.95 121.35,-191.18 113.21,-184.39 110.75,-190.95"/>
</g>
<!-- Node5 -->
<g id="node5" class="node">
<title>Node5</title>
<g id="a_node5"><a xlink:href="class_block.html#a640a910076d8b10533a9a80d740f8f03" target="_top" xlink:title="Metoda zapisujaca do klasy nazwe pliku z finalna (robocza) bryla">
<polygon fill="none" stroke="black" points="106.5,-152.5 106.5,-171.5 230.5,-171.5 230.5,-152.5 106.5,-152.5"/>
<text text-anchor="middle" x="168.5" y="-159.5" font-family="Helvetica,sans-Serif" font-size="10.00">Block::set_final_name</text>
</a>
</g>
</g>
<!-- Node1&#45;&gt;Node5 -->
<g id="edge4" class="edge">
<title>Node1&#45;&gt;Node5</title>
<path fill="none" stroke="midnightblue" d="M46.76,-114.54C59.87,-122.97 80.1,-135.12 99,-143 104.76,-145.4 110.91,-147.59 117.08,-149.56"/>
<polygon fill="midnightblue" stroke="midnightblue" points="116.14,-152.94 126.73,-152.48 118.17,-146.24 116.14,-152.94"/>
</g>
<!-- Node6 -->
<g id="node6" class="node">
<title>Node6</title>
<g id="a_node6"><a xlink:href="class_block.html#acf20b290f1543e580ff1f2c6d98ff4c4" target="_top" xlink:title="Metoda zapisujaca do klasy nazwe pliku z wzorcowa bryla">
<polygon fill="none" stroke="black" points="99,-114.5 99,-133.5 238,-133.5 238,-114.5 99,-114.5"/>
<text text-anchor="middle" x="168.5" y="-121.5" font-family="Helvetica,sans-Serif" font-size="10.00">Block::set_sample_name</text>
</a>
</g>
</g>
<!-- Node1&#45;&gt;Node6 -->
<g id="edge5" class="edge">
<title>Node1&#45;&gt;Node6</title>
<path fill="none" stroke="midnightblue" d="M63.13,-109.31C71.27,-110.46 80.45,-111.75 89.89,-113.08"/>
<polygon fill="midnightblue" stroke="midnightblue" points="89.41,-116.54 99.8,-114.47 90.38,-109.61 89.41,-116.54"/>
</g>
<!-- Node7 -->
<g id="node7" class="node">
<title>Node7</title>
<g id="a_node7"><a xlink:href="class_block.html#adb6acd13e2ab79cf7e4733ca2d6ae166" target="_top" xlink:title="Metoda zapisujaca do klasy wektor reprezentujacy skale">
<polygon fill="none" stroke="black" points="121,-76.5 121,-95.5 216,-95.5 216,-76.5 121,-76.5"/>
<text text-anchor="middle" x="168.5" y="-83.5" font-family="Helvetica,sans-Serif" font-size="10.00">Block::set_scale</text>
</a>
</g>
</g>
<!-- Node1&#45;&gt;Node7 -->
<g id="edge6" class="edge">
<title>Node1&#45;&gt;Node7</title>
<path fill="none" stroke="midnightblue" d="M63.13,-100.69C77.24,-98.7 94.45,-96.28 110.79,-93.98"/>
<polygon fill="midnightblue" stroke="midnightblue" points="111.41,-97.43 120.82,-92.57 110.43,-90.5 111.41,-97.43"/>
</g>
<!-- Node8 -->
<g id="node8" class="node">
<title>Node8</title>
<g id="a_node8"><a xlink:href="class_tent.html#a048e58c462e4d7f069b2705308be29c1" target="_top" xlink:title="Metoda zwracajaca punkty specjalne Tent : cuts (jedna jest punktem przeciecia przekatnych dolnej pods...">
<polygon fill="none" stroke="black" points="283,-19.5 283,-38.5 396,-38.5 396,-19.5 283,-19.5"/>
<text text-anchor="middle" x="339.5" y="-26.5" font-family="Helvetica,sans-Serif" font-size="10.00">Tent::special_points</text>
</a>
</g>
</g>
<!-- Node1&#45;&gt;Node8 -->
<g id="edge7" class="edge">
<title>Node1&#45;&gt;Node8</title>
<path fill="none" stroke="midnightblue" d="M46.06,-95.29C59.02,-86.49 79.43,-73.88 99,-67 155.73,-47.04 223.71,-37.53 272.73,-33.01"/>
<polygon fill="midnightblue" stroke="midnightblue" points="273.24,-36.48 282.9,-32.12 272.63,-29.51 273.24,-36.48"/>
</g>
<!-- Node10 -->
<g id="node10" class="node">
<title>Node10</title>
<g id="a_node10"><a xlink:href="class_tent.html#a00e45b6c16c7ab25d9f8cceaa9afb080" target="_top" xlink:title="Konstruktor bezparametryczny klasy Tent. Dolna podstawa jest identyczna jak w bezparametrycznym Prism...">
<polygon fill="none" stroke="black" points="137,-0.5 137,-19.5 200,-19.5 200,-0.5 137,-0.5"/>
<text text-anchor="middle" x="168.5" y="-7.5" font-family="Helvetica,sans-Serif" font-size="10.00">Tent::Tent</text>
</a>
</g>
</g>
<!-- Node1&#45;&gt;Node10 -->
<g id="edge9" class="edge">
<title>Node1&#45;&gt;Node10</title>
<path fill="none" stroke="midnightblue" d="M39.14,-95.34C50,-80.22 72.97,-50.97 99,-34 107.55,-28.43 117.55,-23.98 127.22,-20.5"/>
<polygon fill="midnightblue" stroke="midnightblue" points="128.34,-23.82 136.72,-17.34 126.13,-17.18 128.34,-23.82"/>
</g>
<!-- Node3 -->
<g id="node3" class="node">
<title>Node3</title>
<g id="a_node3"><a xlink:href="class_prism.html#afed2c26932d5cb152fd620d2acbfbc3e" target="_top" xlink:title="Metoda przesuwajaca graniastoslup do srodka ukladu wspolrzednych (tak, ze srodek graniastoslupa pokry...">
<polygon fill="none" stroke="black" points="274,-190.5 274,-209.5 405,-209.5 405,-190.5 274,-190.5"/>
<text text-anchor="middle" x="339.5" y="-197.5" font-family="Helvetica,sans-Serif" font-size="10.00">Prism::translation_to_O</text>
</a>
</g>
</g>
<!-- Node2&#45;&gt;Node3 -->
<g id="edge2" class="edge">
<title>Node2&#45;&gt;Node3</title>
<path fill="none" stroke="midnightblue" d="M215.68,-200C230.49,-200 247.29,-200 263.61,-200"/>
<polygon fill="midnightblue" stroke="midnightblue" points="263.69,-203.5 273.69,-200 263.69,-196.5 263.69,-203.5"/>
</g>
<!-- Node4 -->
<g id="node4" class="node">
<title>Node4</title>
<g id="a_node4"><a xlink:href="class_prism.html#ade146d341c0468030f8c1258b7fe1041" target="_top" xlink:title="Metoda przesuwajaca graniastoslup o zadany wektor w 3D">
<polygon fill="none" stroke="black" points="441.5,-190.5 441.5,-209.5 544.5,-209.5 544.5,-190.5 441.5,-190.5"/>
<text text-anchor="middle" x="493" y="-197.5" font-family="Helvetica,sans-Serif" font-size="10.00">Prism::translation</text>
</a>
</g>
</g>
<!-- Node3&#45;&gt;Node4 -->
<g id="edge3" class="edge">
<title>Node3&#45;&gt;Node4</title>
<path fill="none" stroke="midnightblue" d="M405.19,-200C413.77,-200 422.54,-200 431.05,-200"/>
<polygon fill="midnightblue" stroke="midnightblue" points="431.27,-203.5 441.27,-200 431.27,-196.5 431.27,-203.5"/>
</g>
<!-- Node9 -->
<g id="node9" class="node">
<title>Node9</title>
<g id="a_node9"><a xlink:href="class_tent.html#aad3cec7038a0f405b226417ccd2cf5f3" target="_top" xlink:title="Metoda zwracajaca punkt centralny Tent">
<polygon fill="none" stroke="black" points="441,-19.5 441,-38.5 545,-38.5 545,-19.5 441,-19.5"/>
<text text-anchor="middle" x="493" y="-26.5" font-family="Helvetica,sans-Serif" font-size="10.00">Tent::centre_point</text>
</a>
</g>
</g>
<!-- Node8&#45;&gt;Node9 -->
<g id="edge8" class="edge">
<title>Node8&#45;&gt;Node9</title>
<path fill="none" stroke="midnightblue" d="M396.05,-29C407.3,-29 419.19,-29 430.63,-29"/>
<polygon fill="midnightblue" stroke="midnightblue" points="430.98,-32.5 440.98,-29 430.98,-25.5 430.98,-32.5"/>
</g>
<!-- Node10&#45;&gt;Node8 -->
<g id="edge10" class="edge">
<title>Node10&#45;&gt;Node8</title>
<path fill="none" stroke="midnightblue" d="M200.1,-13.44C220.34,-15.72 247.64,-18.79 272.65,-21.6"/>
<polygon fill="midnightblue" stroke="midnightblue" points="272.51,-25.1 282.84,-22.74 273.29,-18.15 272.51,-25.1"/>
</g>
</g>
</svg>
        <g id="navigator" transform="translate(0 0)" fill="#404254">
                <rect fill="#f2f5e9" fill-opacity="0.5" stroke="#606060" stroke-width=".5" x="0" y="0" width="60" height="60"/>
                <use id="zoomplus" xlink:href="#zoomPlus" x="17" y="9" onmousedown="handleZoom(evt,'in')"/>
                <use id="zoomminus" xlink:href="#zoomMin" x="42" y="9" onmousedown="handleZoom(evt,'out')"/>
                <use id="reset" xlink:href="#resetDef" x="30" y="36" onmousedown="handleReset()"/>
                <g id="arrowUp" xlink:href="#dirArrow" transform="translate(30 24)" onmousedown="handlePan(0,-1)">
                  <use xlink:href="#rim" fill="#404040">
                        <set attributeName="fill" to="#808080" begin="arrowUp.mouseover" end="arrowUp.mouseout"/>
                  </use>
                  <path fill="none" stroke="white" stroke-width="1.5" d="M0,-3.0v7 M-2.5,-0.5L0,-3.0L2.5,-0.5"/>
                </g>
                <g id="arrowRight" xlink:href="#dirArrow" transform="rotate(90) translate(36 -43)" onmousedown="handlePan(1,0)">
                  <use xlink:href="#rim" fill="#404040">
                        <set attributeName="fill" to="#808080" begin="arrowRight.mouseover" end="arrowRight.mouseout"/>
                  </use>
                  <path fill="none" stroke="white" stroke-width="1.5" d="M0,-3.0v7 M-2.5,-0.5L0,-3.0L2.5,-0.5"/>
                </g>
                <g id="arrowDown" xlink:href="#dirArrow" transform="rotate(180) translate(-30 -48)" onmousedown="handlePan(0,1)">
                  <use xlink:href="#rim" fill="#404040">
                        <set attributeName="fill" to="#808080" begin="arrowDown.mouseover" end="arrowDown.mouseout"/>
                  </use>
                  <path fill="none" stroke="white" stroke-width="1.5" d="M0,-3.0v7 M-2.5,-0.5L0,-3.0L2.5,-0.5"/>
                </g>
                <g id="arrowLeft" xlink:href="#dirArrow" transform="rotate(270) translate(-36 17)" onmousedown="handlePan(-1,0)">
                  <use xlink:href="#rim" fill="#404040">
                        <set attributeName="fill" to="#808080" begin="arrowLeft.mouseover" end="arrowLeft.mouseout"/>
                  </use>
                  <path fill="none" stroke="white" stroke-width="1.5" d="M0,-3.0v7 M-2.5,-0.5L0,-3.0L2.5,-0.5"/>
                </g>
        </g>
        <svg viewBox="0 0 15 15" width="100%" height="30px" preserveAspectRatio="xMaxYMin meet">
         <g id="arrow_out" transform="scale(0.3 0.3)">
          <a xlink:href="class_tent_a6831febfd74474f567f4419091883512_cgraph_org.svg" target="_base">
           <rect id="button" ry="5" rx="5" y="6" x="6" height="38" width="38"
                fill="#f2f5e9" fill-opacity="0.5" stroke="#606060" stroke-width="1.0"/>
           <path id="arrow"
             d="M 11.500037,31.436501 C 11.940474,20.09759 22.043105,11.32322 32.158766,21.979434 L 37.068811,17.246167 C 37.068811,17.246167 37.088388,32 37.088388,32 L 22.160133,31.978069 C 22.160133,31.978069 26.997745,27.140456 26.997745,27.140456 C 18.528582,18.264221 13.291696,25.230495 11.500037,31.436501 z"
             style="fill:#404040;"/>
          </a>
         </g>
        </svg>
</svg>
