<?xml version="1.0" encoding="UTF-8" standalone="no"?>
<!DOCTYPE svg PUBLIC "-//W3C//DTD SVG 1.1//EN"
 "http://www.w3.org/Graphics/SVG/1.1/DTD/svg11.dtd">
<!-- Generated by graphviz version 2.43.0 (0)
 -->
<!-- Title: Vector::get_len Pages: 1 -->
<svg width="901pt" height="287pt"
 viewBox="0.00 0.00 901.00 286.50" xmlns="http://www.w3.org/2000/svg" xmlns:xlink="http://www.w3.org/1999/xlink">
<g id="graph0" class="graph" transform="scale(1 1) rotate(0) translate(4 282.5)">
<title>Vector::get_len</title>
<!-- Node1 -->
<g id="node1" class="node">
<title>Node1</title>
<g id="a_node1"><a xlink:title="Zwraca dlugosc wektora &#160;&#160;Argumenty: &#160;&#160;Brak &#160;&#160;Zwraca:">
<polygon fill="#bfbfbf" stroke="black" points="804,-145 804,-164 893,-164 893,-145 804,-145"/>
<text text-anchor="middle" x="848.5" y="-152" font-family="Helvetica,sans-Serif" font-size="10.00">Vector::get_len</text>
</a>
</g>
</g>
<!-- Node2 -->
<g id="node2" class="node">
<title>Node2</title>
<g id="a_node2"><a xlink:href="class_drone.html#af5242f58fd5a72f0031f3767983ecaba" target="_top" xlink:title="Metoda sprawdzajaca orientacje drona &#160;&#160;Vector3D dron_orien musi byc jednostkowy, oraz miec skladowa z...">
<polygon fill="none" stroke="black" points="655.5,-259 655.5,-278 765.5,-278 765.5,-259 655.5,-259"/>
<text text-anchor="middle" x="710.5" y="-266" font-family="Helvetica,sans-Serif" font-size="10.00">Drone::check_orien</text>
</a>
</g>
</g>
<!-- Node1&#45;&gt;Node2 -->
<g id="edge1" class="edge">
<title>Node1&#45;&gt;Node2</title>
<path fill="none" stroke="midnightblue" d="M836.62,-172.82C823.08,-194.12 798.03,-228.99 768,-249.5 762.45,-253.29 756.07,-256.39 749.65,-258.89"/>
<polygon fill="midnightblue" stroke="midnightblue" points="839.74,-174.43 842.01,-164.08 833.78,-170.76 839.74,-174.43"/>
</g>
<!-- Node4 -->
<g id="node4" class="node">
<title>Node4</title>
<g id="a_node4"><a xlink:href="class_tent.html#adfa80cbe6c03c4b60132f4413cc4c037" target="_top" xlink:title="Metoda zwracajaca wysokosc Tent.">
<polygon fill="none" stroke="black" points="663,-221 663,-240 758,-240 758,-221 663,-221"/>
<text text-anchor="middle" x="710.5" y="-228" font-family="Helvetica,sans-Serif" font-size="10.00">Tent::get_height</text>
</a>
</g>
</g>
<!-- Node1&#45;&gt;Node4 -->
<g id="edge3" class="edge">
<title>Node1&#45;&gt;Node4</title>
<path fill="none" stroke="midnightblue" d="M828.56,-170.56C813.08,-183.06 790.19,-200.14 768,-211.5 760.91,-215.13 752.97,-218.3 745.34,-220.95"/>
<polygon fill="midnightblue" stroke="midnightblue" points="830.85,-173.21 836.35,-164.15 826.41,-167.8 830.85,-173.21"/>
</g>
<!-- Node5 -->
<g id="node5" class="node">
<title>Node5</title>
<g id="a_node5"><a xlink:href="class_volcano.html#a4117c8ac48ff87892ab217c70f29bfae" target="_top" xlink:title="Metoda zwracajaca wysokosc Volcano.">
<polygon fill="none" stroke="black" points="654,-183 654,-202 767,-202 767,-183 654,-183"/>
<text text-anchor="middle" x="710.5" y="-190" font-family="Helvetica,sans-Serif" font-size="10.00">Volcano::get_height</text>
</a>
</g>
</g>
<!-- Node1&#45;&gt;Node5 -->
<g id="edge4" class="edge">
<title>Node1&#45;&gt;Node5</title>
<path fill="none" stroke="midnightblue" d="M803.41,-166.82C784.73,-172.04 763.28,-178.03 745.81,-182.91"/>
<polygon fill="midnightblue" stroke="midnightblue" points="804.49,-170.15 813.18,-164.09 802.61,-163.41 804.49,-170.15"/>
</g>
<!-- Node6 -->
<g id="node6" class="node">
<title>Node6</title>
<g id="a_node6"><a xlink:href="class_pyramid.html#a9bb27fa198548b56e3830bfb45c32bcb" target="_top" xlink:title="Metoda zwraca wysokosc ostroslupa">
<polygon fill="none" stroke="black" points="653,-145 653,-164 768,-164 768,-145 653,-145"/>
<text text-anchor="middle" x="710.5" y="-152" font-family="Helvetica,sans-Serif" font-size="10.00">Pyramid::get_height</text>
</a>
</g>
</g>
<!-- Node1&#45;&gt;Node6 -->
<g id="edge5" class="edge">
<title>Node1&#45;&gt;Node6</title>
<path fill="none" stroke="midnightblue" d="M793.67,-154.5C785.27,-154.5 776.58,-154.5 768.12,-154.5"/>
<polygon fill="midnightblue" stroke="midnightblue" points="793.72,-158 803.72,-154.5 793.72,-151 793.72,-158"/>
</g>
<!-- Node7 -->
<g id="node7" class="node">
<title>Node7</title>
<g id="a_node7"><a xlink:href="class_prism.html#a2dcb8deabee97e0aa96fdf60e56d84cd" target="_top" xlink:title="Metoda zwracajaca wysokosc graniastoslupa">
<polygon fill="none" stroke="black" points="659.5,-107 659.5,-126 761.5,-126 761.5,-107 659.5,-107"/>
<text text-anchor="middle" x="710.5" y="-114" font-family="Helvetica,sans-Serif" font-size="10.00">Prism::get_height</text>
</a>
</g>
</g>
<!-- Node1&#45;&gt;Node7 -->
<g id="edge6" class="edge">
<title>Node1&#45;&gt;Node7</title>
<path fill="none" stroke="midnightblue" d="M803.41,-142.18C784.73,-136.96 763.28,-130.97 745.81,-126.09"/>
<polygon fill="midnightblue" stroke="midnightblue" points="802.61,-145.59 813.18,-144.91 804.49,-138.85 802.61,-145.59"/>
</g>
<!-- Node8 -->
<g id="node8" class="node">
<title>Node8</title>
<g id="a_node8"><a xlink:href="class_cuboid.html#a08fae08a1c8c70ada48ce3af46c82eee" target="_top" xlink:title="Metoda zwracajaca wysokosc prostopadloscianu">
<polygon fill="none" stroke="black" points="656.5,-69 656.5,-88 764.5,-88 764.5,-69 656.5,-69"/>
<text text-anchor="middle" x="710.5" y="-76" font-family="Helvetica,sans-Serif" font-size="10.00">Cuboid::get_height</text>
</a>
</g>
</g>
<!-- Node1&#45;&gt;Node8 -->
<g id="edge7" class="edge">
<title>Node1&#45;&gt;Node8</title>
<path fill="none" stroke="midnightblue" d="M828.56,-138.44C813.08,-125.94 790.19,-108.86 768,-97.5 760.91,-93.87 752.97,-90.7 745.34,-88.05"/>
<polygon fill="midnightblue" stroke="midnightblue" points="826.41,-141.2 836.35,-144.85 830.85,-135.79 826.41,-141.2"/>
</g>
<!-- Node17 -->
<g id="node17" class="node">
<title>Node17</title>
<g id="a_node17"><a xlink:href="class_cuboid.html#a63fdccd9593f1a7191395a103b7c6366" target="_top" xlink:title="Zapisuje do tablicy tab w kolejnosci: 1.dluzsze przeciwlegle boki 2.krotsze przeciwlegle boki 3....">
<polygon fill="none" stroke="black" points="653,-31 653,-50 768,-50 768,-31 653,-31"/>
<text text-anchor="middle" x="710.5" y="-38" font-family="Helvetica,sans-Serif" font-size="10.00">Cuboid::get_vec_len</text>
</a>
</g>
</g>
<!-- Node1&#45;&gt;Node17 -->
<g id="edge17" class="edge">
<title>Node1&#45;&gt;Node17</title>
<path fill="none" stroke="midnightblue" d="M836.62,-136.18C823.08,-114.88 798.03,-80.01 768,-59.5 762.45,-55.71 756.07,-52.61 749.65,-50.11"/>
<polygon fill="midnightblue" stroke="midnightblue" points="833.78,-138.24 842.01,-144.92 839.74,-134.57 833.78,-138.24"/>
</g>
<!-- Node3 -->
<g id="node3" class="node">
<title>Node3</title>
<g id="a_node3"><a xlink:href="class_drone.html#a40e3c3f032ef691392293efd12a5014b" target="_top" xlink:title="Metoda sprawdzajaca budowe drona">
<polygon fill="none" stroke="black" points="500,-259 500,-278 601,-278 601,-259 500,-259"/>
<text text-anchor="middle" x="550.5" y="-266" font-family="Helvetica,sans-Serif" font-size="10.00">Drone::check_dro</text>
</a>
</g>
</g>
<!-- Node2&#45;&gt;Node3 -->
<g id="edge2" class="edge">
<title>Node2&#45;&gt;Node3</title>
<path fill="none" stroke="midnightblue" d="M645.12,-268.5C630.47,-268.5 615.13,-268.5 601.2,-268.5"/>
<polygon fill="midnightblue" stroke="midnightblue" points="645.13,-272 655.13,-268.5 645.13,-265 645.13,-272"/>
</g>
<!-- Node9 -->
<g id="node9" class="node">
<title>Node9</title>
<g id="a_node9"><a xlink:href="class_drone.html#af17a599d6dc882cdf7c665da7ec88acd" target="_top" xlink:title="Metoda zwracajaca wysokosc body">
<polygon fill="none" stroke="black" points="484,-88 484,-107 617,-107 617,-88 484,-88"/>
<text text-anchor="middle" x="550.5" y="-95" font-family="Helvetica,sans-Serif" font-size="10.00">Drone::get_body_height</text>
</a>
</g>
</g>
<!-- Node8&#45;&gt;Node9 -->
<g id="edge8" class="edge">
<title>Node8&#45;&gt;Node9</title>
<path fill="none" stroke="midnightblue" d="M646.5,-86.08C636.81,-87.24 626.79,-88.45 617.04,-89.62"/>
<polygon fill="midnightblue" stroke="midnightblue" points="646.94,-89.55 656.45,-84.88 646.1,-82.6 646.94,-89.55"/>
</g>
<!-- Node10 -->
<g id="node10" class="node">
<title>Node10</title>
<g id="a_node10"><a xlink:href="class_drone.html#a55c483c4e4cf0ec91d5bda5448417f08" target="_top" xlink:title="Metoda ustawiajaca drone_pos">
<polygon fill="none" stroke="black" points="489.5,-50 489.5,-69 611.5,-69 611.5,-50 489.5,-50"/>
<text text-anchor="middle" x="550.5" y="-57" font-family="Helvetica,sans-Serif" font-size="10.00">Drone::set_drone_pos</text>
</a>
</g>
</g>
<!-- Node8&#45;&gt;Node10 -->
<g id="edge9" class="edge">
<title>Node8&#45;&gt;Node10</title>
<path fill="none" stroke="midnightblue" d="M646.18,-70.89C634.83,-69.52 623.03,-68.1 611.77,-66.75"/>
<polygon fill="midnightblue" stroke="midnightblue" points="646.1,-74.4 656.45,-72.12 646.94,-67.45 646.1,-74.4"/>
</g>
<!-- Node11 -->
<g id="node11" class="node">
<title>Node11</title>
<g id="a_node11"><a xlink:href="class_drone.html#af03af60a9b92e4191a7e66b5c20b52bb" target="_top" xlink:title="Metoda zamieniajaca drona na tego z pliku sample.">
<polygon fill="none" stroke="black" points="326,-66.5 326,-96.5 448,-96.5 448,-66.5 326,-66.5"/>
<text text-anchor="start" x="334" y="-84.5" font-family="Helvetica,sans-Serif" font-size="10.00">Drone::Drone_change</text>
<text text-anchor="middle" x="387" y="-73.5" font-family="Helvetica,sans-Serif" font-size="10.00">_to_sample</text>
</a>
</g>
</g>
<!-- Node10&#45;&gt;Node11 -->
<g id="edge10" class="edge">
<title>Node10&#45;&gt;Node11</title>
<path fill="none" stroke="midnightblue" d="M479.15,-69.08C468.83,-70.49 458.28,-71.93 448.19,-73.3"/>
<polygon fill="midnightblue" stroke="midnightblue" points="479.93,-72.51 489.36,-67.69 478.98,-65.57 479.93,-72.51"/>
</g>
<!-- Node16 -->
<g id="node16" class="node">
<title>Node16</title>
<g id="a_node16"><a xlink:href="class_scene.html#adca9214dccab3d77eed9d8af7db67f94" target="_top" xlink:title="Konstruktor paramereyczny klasy Scene.">
<polygon fill="none" stroke="black" points="346.5,-28 346.5,-47 427.5,-47 427.5,-28 346.5,-28"/>
<text text-anchor="middle" x="387" y="-35" font-family="Helvetica,sans-Serif" font-size="10.00">Scene::Scene</text>
</a>
</g>
</g>
<!-- Node10&#45;&gt;Node16 -->
<g id="edge16" class="edge">
<title>Node10&#45;&gt;Node16</title>
<path fill="none" stroke="midnightblue" d="M479.08,-49.91C461.44,-47.5 443.14,-45.01 427.6,-42.9"/>
<polygon fill="midnightblue" stroke="midnightblue" points="478.98,-53.43 489.36,-51.31 479.93,-46.49 478.98,-53.43"/>
</g>
<!-- Node12 -->
<g id="node12" class="node">
<title>Node12</title>
<g id="a_node12"><a xlink:href="class_drone.html#ac4d24c27fb2c107d2e8bda0c2bf5cfa1" target="_top" xlink:title="Metoda obliczajaca i przeprowadzajaca caly ruch drona (obrot o kat i przelot z zadania 5....">
<polygon fill="none" stroke="black" points="0,-110.5 0,-140.5 112,-140.5 112,-110.5 0,-110.5"/>
<text text-anchor="start" x="8" y="-128.5" font-family="Helvetica,sans-Serif" font-size="10.00">Drone::Drone_basic</text>
<text text-anchor="middle" x="56" y="-117.5" font-family="Helvetica,sans-Serif" font-size="10.00">_motion</text>
</a>
</g>
</g>
<!-- Node11&#45;&gt;Node12 -->
<g id="edge11" class="edge">
<title>Node11&#45;&gt;Node12</title>
<path fill="none" stroke="midnightblue" d="M353.77,-101.88C335.76,-112.06 312.48,-123.29 290,-128.5 230.49,-142.29 160.12,-138.77 112.4,-133.56"/>
<polygon fill="midnightblue" stroke="midnightblue" points="355.8,-104.75 362.68,-96.69 352.28,-98.7 355.8,-104.75"/>
</g>
<!-- Node13 -->
<g id="node13" class="node">
<title>Node13</title>
<g id="a_node13"><a xlink:href="class_drone.html#af052f6bb793d1229b99b16b800b95b82" target="_top" xlink:title="Metoda animujaca obrot drona i wyrysowujaca calosc w gnuplocie.">
<polygon fill="none" stroke="black" points="156.5,-88.5 156.5,-118.5 281.5,-118.5 281.5,-88.5 156.5,-88.5"/>
<text text-anchor="start" x="164.5" y="-106.5" font-family="Helvetica,sans-Serif" font-size="10.00">Drone::Drone_rotation</text>
<text text-anchor="middle" x="219" y="-95.5" font-family="Helvetica,sans-Serif" font-size="10.00">_animation</text>
</a>
</g>
</g>
<!-- Node11&#45;&gt;Node13 -->
<g id="edge12" class="edge">
<title>Node11&#45;&gt;Node13</title>
<path fill="none" stroke="midnightblue" d="M315.43,-90.85C304.23,-92.34 292.72,-93.86 281.75,-95.32"/>
<polygon fill="midnightblue" stroke="midnightblue" points="316.15,-94.29 325.6,-89.5 315.23,-87.35 316.15,-94.29"/>
</g>
<!-- Node14 -->
<g id="node14" class="node">
<title>Node14</title>
<g id="a_node14"><a xlink:href="class_drone.html#ab7808296cec81143dbddd7516340a371" target="_top" xlink:title="Metoda robiaca &quot;oblot&quot; drona wokol punktu (z modyfikacji)">
<polygon fill="none" stroke="black" points="148,-50 148,-69 290,-69 290,-50 148,-50"/>
<text text-anchor="middle" x="219" y="-57" font-family="Helvetica,sans-Serif" font-size="10.00">Drone::Drone_roundabout</text>
</a>
</g>
</g>
<!-- Node11&#45;&gt;Node14 -->
<g id="edge14" class="edge">
<title>Node11&#45;&gt;Node14</title>
<path fill="none" stroke="midnightblue" d="M315.5,-72.16C307.13,-71.05 298.58,-69.91 290.21,-68.81"/>
<polygon fill="midnightblue" stroke="midnightblue" points="315.23,-75.65 325.6,-73.5 316.15,-68.71 315.23,-75.65"/>
</g>
<!-- Node15 -->
<g id="node15" class="node">
<title>Node15</title>
<g id="a_node15"><a xlink:href="class_drone.html#a5fc9dd645ad3856b5d3c501c63c464e3" target="_top" xlink:title="Metoda animujaca translacje drona i wyrysowujaca calosc w gnuplocie.">
<polygon fill="none" stroke="black" points="149.5,-0.5 149.5,-30.5 288.5,-30.5 288.5,-0.5 149.5,-0.5"/>
<text text-anchor="start" x="157.5" y="-18.5" font-family="Helvetica,sans-Serif" font-size="10.00">Drone::Drone_translation</text>
<text text-anchor="middle" x="219" y="-7.5" font-family="Helvetica,sans-Serif" font-size="10.00">_animation</text>
</a>
</g>
</g>
<!-- Node11&#45;&gt;Node15 -->
<g id="edge15" class="edge">
<title>Node11&#45;&gt;Node15</title>
<path fill="none" stroke="midnightblue" d="M339.88,-62.41C335.18,-60.43 330.49,-58.43 326,-56.5 309.92,-49.58 306.26,-47 290,-40.5 281.61,-37.14 272.58,-33.75 263.88,-30.6"/>
<polygon fill="midnightblue" stroke="midnightblue" points="338.88,-65.79 349.45,-66.43 341.59,-59.33 338.88,-65.79"/>
</g>
<!-- Node13&#45;&gt;Node12 -->
<g id="edge13" class="edge">
<title>Node13&#45;&gt;Node12</title>
<path fill="none" stroke="midnightblue" d="M146.22,-113.31C134.75,-114.88 123.04,-116.48 112.04,-117.98"/>
<polygon fill="midnightblue" stroke="midnightblue" points="146.78,-116.76 156.21,-111.94 145.83,-109.83 146.78,-116.76"/>
</g>
</g>
</svg>
