<?xml version="1.0" encoding="UTF-8" standalone="no"?>
<!DOCTYPE svg PUBLIC "-//W3C//DTD SVG 1.1//EN"
 "http://www.w3.org/Graphics/SVG/1.1/DTD/svg11.dtd">
<!-- Generated by graphviz version 2.43.0 (0)
 -->
<!-- Title: Drone::get_drone_radius Pages: 1 -->
<svg width="525pt" height="66pt"
 viewBox="0.00 0.00 525.00 66.00" xmlns="http://www.w3.org/2000/svg" xmlns:xlink="http://www.w3.org/1999/xlink">
<g id="graph0" class="graph" transform="scale(1 1) rotate(0) translate(4 62)">
<title>Drone::get_drone_radius</title>
<!-- Node1 -->
<g id="node1" class="node">
<title>Node1</title>
<g id="a_node1"><a xlink:title="Zwraca promien okregu rzutowany przez dron na plaszczyzne XY">
<polygon fill="#bfbfbf" stroke="black" points="0,-19.5 0,-38.5 136,-38.5 136,-19.5 0,-19.5"/>
<text text-anchor="middle" x="68" y="-26.5" font-family="Helvetica,sans-Serif" font-size="10.00">Drone::get_drone_radius</text>
</a>
</g>
</g>
<!-- Node2 -->
<g id="node2" class="node">
<title>Node2</title>
<g id="a_node2"><a xlink:href="class_prism.html#ab08ae36567a12753d78ae4b5fb2fbfa2" target="_top" xlink:title="Metoda zwracajaca dlugosc przekatnej podstawy prostopadloscianu">
<polygon fill="none" stroke="black" points="175,-38.5 175,-57.5 339,-57.5 339,-38.5 175,-38.5"/>
<text text-anchor="middle" x="257" y="-45.5" font-family="Helvetica,sans-Serif" font-size="10.00">Prism::get_basis_diagonal_len</text>
</a>
</g>
</g>
<!-- Node1&#45;&gt;Node2 -->
<g id="edge1" class="edge">
<title>Node1&#45;&gt;Node2</title>
<path fill="none" stroke="midnightblue" d="M136.25,-35.83C145.57,-36.78 155.28,-37.77 164.95,-38.75"/>
<polygon fill="midnightblue" stroke="midnightblue" points="164.69,-42.24 174.99,-39.77 165.4,-35.28 164.69,-42.24"/>
</g>
<!-- Node3 -->
<g id="node3" class="node">
<title>Node3</title>
<g id="a_node3"><a xlink:href="class_cuboid.html#a79e4e3337e02d8f8a757561cedbdb71f" target="_top" xlink:title="Metoda zwracajaca dlugosc przekatnej podstawy prostopadloscianu">
<polygon fill="none" stroke="black" points="172,-0.5 172,-19.5 342,-19.5 342,-0.5 172,-0.5"/>
<text text-anchor="middle" x="257" y="-7.5" font-family="Helvetica,sans-Serif" font-size="10.00">Cuboid::get_basis_diagonal_len</text>
</a>
</g>
</g>
<!-- Node1&#45;&gt;Node3 -->
<g id="edge2" class="edge">
<title>Node1&#45;&gt;Node3</title>
<path fill="none" stroke="midnightblue" d="M136.25,-22.17C144.53,-21.33 153.1,-20.45 161.69,-19.58"/>
<polygon fill="midnightblue" stroke="midnightblue" points="162.16,-23.05 171.76,-18.56 161.45,-16.09 162.16,-23.05"/>
</g>
<!-- Node4 -->
<g id="node4" class="node">
<title>Node4</title>
<g id="a_node4"><a xlink:href="class_cuboid.html#a0e7f901199262984ab6ba0da01d96c40" target="_top" xlink:title="Metoda zwracajaca srodek podstawy ostroslupa">
<polygon fill="none" stroke="black" points="378,-0.5 378,-19.5 517,-19.5 517,-0.5 378,-0.5"/>
<text text-anchor="middle" x="447.5" y="-7.5" font-family="Helvetica,sans-Serif" font-size="10.00">Cuboid::get_basis_centre</text>
</a>
</g>
</g>
<!-- Node3&#45;&gt;Node4 -->
<g id="edge3" class="edge">
<title>Node3&#45;&gt;Node4</title>
<path fill="none" stroke="midnightblue" d="M342.05,-10C350.57,-10 359.19,-10 367.65,-10"/>
<polygon fill="midnightblue" stroke="midnightblue" points="367.86,-13.5 377.86,-10 367.86,-6.5 367.86,-13.5"/>
</g>
</g>
</svg>
