<?xml version="1.0" encoding="UTF-8" standalone="no"?>
<!DOCTYPE svg PUBLIC "-//W3C//DTD SVG 1.1//EN"
 "http://www.w3.org/Graphics/SVG/1.1/DTD/svg11.dtd">
<!-- Generated by graphviz version 2.43.0 (0)
 -->
<!-- Title: PzG::LaczeDoGNUPlota::DopiszRysowanieZRoznychPunktow Pages: 1 -->
<svg width="773pt" height="186pt"
 viewBox="0.00 0.00 773.00 186.00" xmlns="http://www.w3.org/2000/svg" xmlns:xlink="http://www.w3.org/1999/xlink">
<g id="graph0" class="graph" transform="scale(1 1) rotate(0) translate(4 182)">
<title>PzG::LaczeDoGNUPlota::DopiszRysowanieZRoznychPunktow</title>
<!-- Node1 -->
<g id="node1" class="node">
<title>Node1</title>
<g id="a_node1"><a xlink:title="Tworzy listę parametrów umożliwiających rysowanie brył z plików.">
<polygon fill="#bfbfbf" stroke="black" points="0,-49.5 0,-79.5 199,-79.5 199,-49.5 0,-49.5"/>
<text text-anchor="start" x="8" y="-67.5" font-family="Helvetica,sans-Serif" font-size="10.00">PzG::LaczeDoGNUPlota</text>
<text text-anchor="middle" x="99.5" y="-56.5" font-family="Helvetica,sans-Serif" font-size="10.00">::DopiszRysowanieZRoznychPunktow</text>
</a>
</g>
</g>
<!-- Node2 -->
<g id="node2" class="node">
<title>Node2</title>
<g id="a_node2"><a xlink:href="namespace_pz_g.html#a85d3a77f67c2724ba3675bc3ef05eb81" target="_top" xlink:title="Dopisuje do polecenia rysowania wpisy z nazwami plików, w których są współrzędne punktów.">
<polygon fill="none" stroke="black" points="238,-98.5 238,-128.5 408,-128.5 408,-98.5 238,-98.5"/>
<text text-anchor="start" x="246" y="-116.5" font-family="Helvetica,sans-Serif" font-size="10.00">PzG::DopiszRysowaniePunktow</text>
<text text-anchor="middle" x="323" y="-105.5" font-family="Helvetica,sans-Serif" font-size="10.00">ZListy</text>
</a>
</g>
</g>
<!-- Node1&#45;&gt;Node2 -->
<g id="edge1" class="edge">
<title>Node1&#45;&gt;Node2</title>
<path fill="none" stroke="midnightblue" d="M168.46,-79.53C192.38,-84.83 219.45,-90.81 244.12,-96.27"/>
<polygon fill="midnightblue" stroke="midnightblue" points="243.65,-99.75 254.17,-98.49 245.16,-92.92 243.65,-99.75"/>
</g>
<!-- Node5 -->
<g id="node5" class="node">
<title>Node5</title>
<g id="a_node5"><a xlink:href="namespace_pz_g.html#a7227cb39c785b1c746b6bb5515c0b781" target="_top" xlink:title="Dodaje do listy rysowanych punktów, punkty o różnych rozmiarach.">
<polygon fill="none" stroke="black" points="235,-49.5 235,-79.5 411,-79.5 411,-49.5 235,-49.5"/>
<text text-anchor="start" x="243" y="-67.5" font-family="Helvetica,sans-Serif" font-size="10.00">PzG::DopiszRysowanieZRoznych</text>
<text text-anchor="middle" x="323" y="-56.5" font-family="Helvetica,sans-Serif" font-size="10.00">Punktow</text>
</a>
</g>
</g>
<!-- Node1&#45;&gt;Node5 -->
<g id="edge4" class="edge">
<title>Node1&#45;&gt;Node5</title>
<path fill="none" stroke="midnightblue" d="M199.27,-64.5C207.71,-64.5 216.26,-64.5 224.69,-64.5"/>
<polygon fill="midnightblue" stroke="midnightblue" points="224.92,-68 234.92,-64.5 224.92,-61 224.92,-68"/>
</g>
<!-- Node10 -->
<g id="node10" class="node">
<title>Node10</title>
<g id="a_node10"><a xlink:href="namespace_pz_g.html#ae6b9705e199ad695b61b4e902eaf0d6c" target="_top" xlink:title="Dopisuje do tworzonego polenia dla gnuplota wpisy ustawiające etykiety punktów.">
<polygon fill="none" stroke="black" points="241,-11 241,-30 405,-30 405,-11 241,-11"/>
<text text-anchor="middle" x="323" y="-18" font-family="Helvetica,sans-Serif" font-size="10.00">PzG::DopiszUstawieniaEtykiet</text>
</a>
</g>
</g>
<!-- Node1&#45;&gt;Node10 -->
<g id="edge9" class="edge">
<title>Node1&#45;&gt;Node10</title>
<path fill="none" stroke="midnightblue" d="M176.11,-49.48C204.89,-43.76 237.21,-37.34 264.09,-32"/>
<polygon fill="midnightblue" stroke="midnightblue" points="264.99,-35.39 274.11,-30.01 263.62,-28.53 264.99,-35.39"/>
</g>
<!-- Node3 -->
<g id="node3" class="node">
<title>Node3</title>
<g id="a_node3"><a xlink:href="class_pz_g_1_1_atrybuty_rysowania.html#a9f0f08bb69dca9c12e7f55c165c6223e" target="_top" xlink:title="Udostępnia rozmiar rysowania.">
<polygon fill="none" stroke="black" points="451,-147.5 451,-177.5 588,-177.5 588,-147.5 451,-147.5"/>
<text text-anchor="start" x="459" y="-165.5" font-family="Helvetica,sans-Serif" font-size="10.00">PzG::AtrybutyRysowania</text>
<text text-anchor="middle" x="519.5" y="-154.5" font-family="Helvetica,sans-Serif" font-size="10.00">::WezRozmiar</text>
</a>
</g>
</g>
<!-- Node2&#45;&gt;Node3 -->
<g id="edge2" class="edge">
<title>Node2&#45;&gt;Node3</title>
<path fill="none" stroke="midnightblue" d="M383.68,-128.53C404.31,-133.73 427.6,-139.6 448.95,-144.98"/>
<polygon fill="midnightblue" stroke="midnightblue" points="448.38,-148.44 458.93,-147.49 450.09,-141.66 448.38,-148.44"/>
</g>
<!-- Node4 -->
<g id="node4" class="node">
<title>Node4</title>
<g id="a_node4"><a xlink:href="class_pz_g_1_1_atrybuty_rysowania.html#a85f1665049d64618e1ac1d18c000ff76" target="_top" xlink:title="Udostępnia styl rysowania.">
<polygon fill="none" stroke="black" points="451,-98.5 451,-128.5 588,-128.5 588,-98.5 451,-98.5"/>
<text text-anchor="start" x="459" y="-116.5" font-family="Helvetica,sans-Serif" font-size="10.00">PzG::AtrybutyRysowania</text>
<text text-anchor="middle" x="519.5" y="-105.5" font-family="Helvetica,sans-Serif" font-size="10.00">::WezStyl</text>
</a>
</g>
</g>
<!-- Node2&#45;&gt;Node4 -->
<g id="edge3" class="edge">
<title>Node2&#45;&gt;Node4</title>
<path fill="none" stroke="midnightblue" d="M408.18,-113.5C418.99,-113.5 430.03,-113.5 440.73,-113.5"/>
<polygon fill="midnightblue" stroke="midnightblue" points="440.88,-117 450.88,-113.5 440.88,-110 440.88,-117"/>
</g>
<!-- Node6 -->
<g id="node6" class="node">
<title>Node6</title>
<g id="a_node6"><a xlink:href="namespace_pz_g.html#a169c311f0e0b6ffadcd44e91e749f72d" target="_top" xlink:title="Wczytuje z pliku listę punktów.">
<polygon fill="none" stroke="black" points="447,-49.5 447,-79.5 592,-79.5 592,-49.5 447,-49.5"/>
<text text-anchor="start" x="455" y="-67.5" font-family="Helvetica,sans-Serif" font-size="10.00">PzG::WczytajListeRoznych</text>
<text text-anchor="middle" x="519.5" y="-56.5" font-family="Helvetica,sans-Serif" font-size="10.00">Punktow</text>
</a>
</g>
</g>
<!-- Node5&#45;&gt;Node6 -->
<g id="edge5" class="edge">
<title>Node5&#45;&gt;Node6</title>
<path fill="none" stroke="midnightblue" d="M411.01,-64.5C419.5,-64.5 428.09,-64.5 436.52,-64.5"/>
<polygon fill="midnightblue" stroke="midnightblue" points="436.71,-68 446.71,-64.5 436.71,-61 436.71,-68"/>
</g>
<!-- Node7 -->
<g id="node7" class="node">
<title>Node7</title>
<g id="a_node7"><a xlink:href="class_pz_g_1_1_atrybuty_rysowania.html#ab068535b4d2f755c394557d1da72a4eb" target="_top" xlink:title="Zmienia kolor rysowania.">
<polygon fill="none" stroke="black" points="628,-98.5 628,-128.5 765,-128.5 765,-98.5 628,-98.5"/>
<text text-anchor="start" x="636" y="-116.5" font-family="Helvetica,sans-Serif" font-size="10.00">PzG::AtrybutyRysowania</text>
<text text-anchor="middle" x="696.5" y="-105.5" font-family="Helvetica,sans-Serif" font-size="10.00">::ZmienKolor</text>
</a>
</g>
</g>
<!-- Node6&#45;&gt;Node7 -->
<g id="edge6" class="edge">
<title>Node6&#45;&gt;Node7</title>
<path fill="none" stroke="midnightblue" d="M574.43,-79.6C592.65,-84.7 613.15,-90.44 632.04,-95.73"/>
<polygon fill="midnightblue" stroke="midnightblue" points="631.17,-99.12 641.74,-98.45 633.06,-92.38 631.17,-99.12"/>
</g>
<!-- Node8 -->
<g id="node8" class="node">
<title>Node8</title>
<g id="a_node8"><a xlink:href="class_pz_g_1_1_atrybuty_rysowania.html#af4b140eb03bc10b6fd816fad63f8372e" target="_top" xlink:title="Zmienia rozmiar rysowania.">
<polygon fill="none" stroke="black" points="628,-49.5 628,-79.5 765,-79.5 765,-49.5 628,-49.5"/>
<text text-anchor="start" x="636" y="-67.5" font-family="Helvetica,sans-Serif" font-size="10.00">PzG::AtrybutyRysowania</text>
<text text-anchor="middle" x="696.5" y="-56.5" font-family="Helvetica,sans-Serif" font-size="10.00">::ZmienRozmiar</text>
</a>
</g>
</g>
<!-- Node6&#45;&gt;Node8 -->
<g id="edge7" class="edge">
<title>Node6&#45;&gt;Node8</title>
<path fill="none" stroke="midnightblue" d="M592.18,-64.5C600.57,-64.5 609.16,-64.5 617.63,-64.5"/>
<polygon fill="midnightblue" stroke="midnightblue" points="617.87,-68 627.87,-64.5 617.87,-61 617.87,-68"/>
</g>
<!-- Node9 -->
<g id="node9" class="node">
<title>Node9</title>
<g id="a_node9"><a xlink:href="class_pz_g_1_1_atrybuty_rysowania.html#a2ac97706124b14072715ecf3f07e82b4" target="_top" xlink:title="Zmienia styl rysowania.">
<polygon fill="none" stroke="black" points="628,-0.5 628,-30.5 765,-30.5 765,-0.5 628,-0.5"/>
<text text-anchor="start" x="636" y="-18.5" font-family="Helvetica,sans-Serif" font-size="10.00">PzG::AtrybutyRysowania</text>
<text text-anchor="middle" x="696.5" y="-7.5" font-family="Helvetica,sans-Serif" font-size="10.00">::ZmienStyl</text>
</a>
</g>
</g>
<!-- Node6&#45;&gt;Node9 -->
<g id="edge8" class="edge">
<title>Node6&#45;&gt;Node9</title>
<path fill="none" stroke="midnightblue" d="M574.43,-49.4C592.65,-44.3 613.15,-38.56 632.04,-33.27"/>
<polygon fill="midnightblue" stroke="midnightblue" points="633.06,-36.62 641.74,-30.55 631.17,-29.88 633.06,-36.62"/>
</g>
</g>
</svg>
