<?xml version="1.0" encoding="UTF-8" standalone="no"?>
<!DOCTYPE svg PUBLIC "-//W3C//DTD SVG 1.1//EN"
 "http://www.w3.org/Graphics/SVG/1.1/DTD/svg11.dtd">
<!-- Generated by graphviz version 2.43.0 (0)
 -->
<!-- Title: Circus::Circus Pages: 1 -->
<svg width="396pt" height="28pt"
 viewBox="0.00 0.00 396.00 28.00" xmlns="http://www.w3.org/2000/svg" xmlns:xlink="http://www.w3.org/1999/xlink">
<g id="graph0" class="graph" transform="scale(1 1) rotate(0) translate(4 24)">
<title>Circus::Circus</title>
<!-- Node1 -->
<g id="node1" class="node">
<title>Node1</title>
<g id="a_node1"><a xlink:title="Konstruktor bezparametryczny klasy Circus. Dolna podstawa jest identyczna jak w bezparametrycznym Pri...">
<polygon fill="#bfbfbf" stroke="black" points="0,-0.5 0,-19.5 83,-19.5 83,-0.5 0,-0.5"/>
<text text-anchor="middle" x="41.5" y="-7.5" font-family="Helvetica,sans-Serif" font-size="10.00">Circus::Circus</text>
</a>
</g>
</g>
<!-- Node2 -->
<g id="node2" class="node">
<title>Node2</title>
<g id="a_node2"><a xlink:href="class_circus.html#aba4a0a8726ff0878279959df92f23f07" target="_top" xlink:title="Metoda zwracajaca punkty specjalne graniastoslupa :">
<polygon fill="none" stroke="black" points="119,-0.5 119,-19.5 241,-19.5 241,-0.5 119,-0.5"/>
<text text-anchor="middle" x="180" y="-7.5" font-family="Helvetica,sans-Serif" font-size="10.00">Circus::special_points</text>
</a>
</g>
</g>
<!-- Node1&#45;&gt;Node2 -->
<g id="edge1" class="edge">
<title>Node1&#45;&gt;Node2</title>
<path fill="none" stroke="midnightblue" d="M83.08,-10C91.16,-10 99.86,-10 108.61,-10"/>
<polygon fill="midnightblue" stroke="midnightblue" points="108.86,-13.5 118.86,-10 108.86,-6.5 108.86,-13.5"/>
</g>
<!-- Node3 -->
<g id="node3" class="node">
<title>Node3</title>
<g id="a_node3"><a xlink:href="class_prism.html#a9c72237ab7f5b0741d936ccd14803021" target="_top" xlink:title="Metoda zwracajaca punkt centralny (czyli taki, ktorego odleglosci do kazdego wierzcholka sa rowne) gr...">
<polygon fill="none" stroke="black" points="277,-0.5 277,-19.5 388,-19.5 388,-0.5 277,-0.5"/>
<text text-anchor="middle" x="332.5" y="-7.5" font-family="Helvetica,sans-Serif" font-size="10.00">Prism::centre_point</text>
</a>
</g>
</g>
<!-- Node2&#45;&gt;Node3 -->
<g id="edge2" class="edge">
<title>Node2&#45;&gt;Node3</title>
<path fill="none" stroke="midnightblue" d="M241.35,-10C249.72,-10 258.35,-10 266.79,-10"/>
<polygon fill="midnightblue" stroke="midnightblue" points="266.98,-13.5 276.98,-10 266.98,-6.5 266.98,-13.5"/>
</g>
</g>
</svg>
