<?xml version="1.0" encoding="UTF-8" standalone="no"?>
<!DOCTYPE svg PUBLIC "-//W3C//DTD SVG 1.1//EN"
 "http://www.w3.org/Graphics/SVG/1.1/DTD/svg11.dtd">
<!-- Generated by graphviz version 2.43.0 (0)
 -->
<!-- Title: Prism::check_pri Pages: 1 -->
<svg width="427pt" height="104pt"
 viewBox="0.00 0.00 427.00 104.00" xmlns="http://www.w3.org/2000/svg" xmlns:xlink="http://www.w3.org/1999/xlink">
<g id="graph0" class="graph" transform="scale(1 1) rotate(0) translate(4 100)">
<title>Prism::check_pri</title>
<!-- Node1 -->
<g id="node1" class="node">
<title>Node1</title>
<g id="a_node1"><a xlink:title="Sprawdza czy graniastoslup jest poprawnie zbudowany">
<polygon fill="#bfbfbf" stroke="black" points="0,-38.5 0,-57.5 97,-57.5 97,-38.5 0,-38.5"/>
<text text-anchor="middle" x="48.5" y="-45.5" font-family="Helvetica,sans-Serif" font-size="10.00">Prism::check_pri</text>
</a>
</g>
</g>
<!-- Node2 -->
<g id="node2" class="node">
<title>Node2</title>
<g id="a_node2"><a xlink:href="class_prism.html#af26b9e6f30ee147bc48d4829570bccb2" target="_top" xlink:title="Metoda sprawdzajaca katy wewnetrzne podstaw graniastoslupa sa rowne 60 st.">
<polygon fill="none" stroke="black" points="133,-76.5 133,-95.5 265,-95.5 265,-76.5 133,-76.5"/>
<text text-anchor="middle" x="199" y="-83.5" font-family="Helvetica,sans-Serif" font-size="10.00">Prism::check_vec_basis</text>
</a>
</g>
</g>
<!-- Node1&#45;&gt;Node2 -->
<g id="edge1" class="edge">
<title>Node1&#45;&gt;Node2</title>
<path fill="none" stroke="midnightblue" d="M86.97,-57.59C106.39,-62.56 130.3,-68.68 150.95,-73.96"/>
<polygon fill="midnightblue" stroke="midnightblue" points="150.24,-77.39 160.8,-76.48 151.98,-70.61 150.24,-77.39"/>
</g>
<!-- Node3 -->
<g id="node3" class="node">
<title>Node3</title>
<g id="a_node3"><a xlink:href="class_prism.html#ab708a61827a72bb83b58716cbbb8b71c" target="_top" xlink:title="Metoda sprawdzajaca czy wektory zwrocone przez get_vec_opp() sa parami rowne. Ponadto sprawdza tez ro...">
<polygon fill="none" stroke="black" points="133.5,-38.5 133.5,-57.5 264.5,-57.5 264.5,-38.5 133.5,-38.5"/>
<text text-anchor="middle" x="199" y="-45.5" font-family="Helvetica,sans-Serif" font-size="10.00">Prism::check_vec_pairs</text>
</a>
</g>
</g>
<!-- Node1&#45;&gt;Node3 -->
<g id="edge2" class="edge">
<title>Node1&#45;&gt;Node3</title>
<path fill="none" stroke="midnightblue" d="M97.3,-48C105.53,-48 114.26,-48 123,-48"/>
<polygon fill="midnightblue" stroke="midnightblue" points="123.23,-51.5 133.23,-48 123.23,-44.5 123.23,-51.5"/>
</g>
<!-- Node5 -->
<g id="node5" class="node">
<title>Node5</title>
<g id="a_node5"><a xlink:href="class_prism.html#afc476609b83a6460d1d51c39c788e804" target="_top" xlink:title="Metoda sprawdzajaca czy wektory zwrocone przez get_vec_ver() sa rowne">
<polygon fill="none" stroke="black" points="138,-0.5 138,-19.5 260,-19.5 260,-0.5 138,-0.5"/>
<text text-anchor="middle" x="199" y="-7.5" font-family="Helvetica,sans-Serif" font-size="10.00">Prism::check_vec_ver</text>
</a>
</g>
</g>
<!-- Node1&#45;&gt;Node5 -->
<g id="edge4" class="edge">
<title>Node1&#45;&gt;Node5</title>
<path fill="none" stroke="midnightblue" d="M86.97,-38.41C106.39,-33.44 130.3,-27.32 150.95,-22.04"/>
<polygon fill="midnightblue" stroke="midnightblue" points="151.98,-25.39 160.8,-19.52 150.24,-18.61 151.98,-25.39"/>
</g>
<!-- Node4 -->
<g id="node4" class="node">
<title>Node4</title>
<g id="a_node4"><a xlink:href="class_prism.html#accc9d8d5e3a86d3ed3eafe64d08c02fc" target="_top" xlink:title="Metoda zwracajaca do tablicy wektorow wektory &quot;przeciwlegle&quot; obydwoch podstaw graniastoslupa: Dla 2 p...">
<polygon fill="none" stroke="black" points="301,-38.5 301,-57.5 419,-57.5 419,-38.5 301,-38.5"/>
<text text-anchor="middle" x="360" y="-45.5" font-family="Helvetica,sans-Serif" font-size="10.00">Prism::get_vec_pairs</text>
</a>
</g>
</g>
<!-- Node3&#45;&gt;Node4 -->
<g id="edge3" class="edge">
<title>Node3&#45;&gt;Node4</title>
<path fill="none" stroke="midnightblue" d="M264.67,-48C273.26,-48 282.09,-48 290.74,-48"/>
<polygon fill="midnightblue" stroke="midnightblue" points="290.78,-51.5 300.78,-48 290.78,-44.5 290.78,-51.5"/>
</g>
<!-- Node6 -->
<g id="node6" class="node">
<title>Node6</title>
<g id="a_node6"><a xlink:href="class_prism.html#a6d1ecf663c216d4e4d83b7fa80169e8a" target="_top" xlink:title="Metoda zwracajaca do tablicy wektorow wektory &quot;pionowe&quot; graniastoslupa (czyli te ktore sa wzgledem si...">
<polygon fill="none" stroke="black" points="305,-0.5 305,-19.5 415,-19.5 415,-0.5 305,-0.5"/>
<text text-anchor="middle" x="360" y="-7.5" font-family="Helvetica,sans-Serif" font-size="10.00">Prism::get_vec_ver</text>
</a>
</g>
</g>
<!-- Node5&#45;&gt;Node6 -->
<g id="edge5" class="edge">
<title>Node5&#45;&gt;Node6</title>
<path fill="none" stroke="midnightblue" d="M260.11,-10C271.36,-10 283.15,-10 294.52,-10"/>
<polygon fill="midnightblue" stroke="midnightblue" points="294.81,-13.5 304.81,-10 294.81,-6.5 294.81,-13.5"/>
</g>
</g>
</svg>
