<?xml version="1.0" encoding="UTF-8" standalone="no"?>
<!DOCTYPE svg PUBLIC "-//W3C//DTD SVG 1.1//EN"
 "http://www.w3.org/Graphics/SVG/1.1/DTD/svg11.dtd">
<!-- Generated by graphviz version 2.43.0 (0)
 -->
<!-- Title: Matrix::rotation_matrix Pages: 1 -->
<svg width="776pt" height="400pt"
 viewBox="0.00 0.00 776.00 400.00" xmlns="http://www.w3.org/2000/svg" xmlns:xlink="http://www.w3.org/1999/xlink">
<g id="graph0" class="graph" transform="scale(1 1) rotate(0) translate(4 396)">
<title>Matrix::rotation_matrix</title>
<!-- Node1 -->
<g id="node1" class="node">
<title>Node1</title>
<g id="a_node1"><a xlink:title=" ">
<polygon fill="#bfbfbf" stroke="black" points="638,-192 638,-211 768,-211 768,-192 638,-192"/>
<text text-anchor="middle" x="703" y="-199" font-family="Helvetica,sans-Serif" font-size="10.00">Matrix::rotation_matrix</text>
</a>
</g>
</g>
<!-- Node2 -->
<g id="node2" class="node">
<title>Node2</title>
<g id="a_node2"><a xlink:href="class_scene.html#a16da566304f4ed4228fa89af25e330e5" target="_top" xlink:title="Metoda dodajaca prostopadloscian, ostroslup lub Triangular do listy objects.">
<polygon fill="none" stroke="black" points="466,-312.5 466,-342.5 598,-342.5 598,-312.5 466,-312.5"/>
<text text-anchor="start" x="474" y="-330.5" font-family="Helvetica,sans-Serif" font-size="10.00">Scene::add_object_type</text>
<text text-anchor="middle" x="532" y="-319.5" font-family="Helvetica,sans-Serif" font-size="10.00">_cuboid</text>
</a>
</g>
</g>
<!-- Node1&#45;&gt;Node2 -->
<g id="edge1" class="edge">
<title>Node1&#45;&gt;Node2</title>
<path fill="none" stroke="midnightblue" d="M688.63,-219.2C671,-241.45 637.97,-279.5 602,-302.5 596.1,-306.28 589.54,-309.58 582.9,-312.45"/>
<polygon fill="midnightblue" stroke="midnightblue" points="691.44,-221.29 694.81,-211.25 685.91,-217 691.44,-221.29"/>
</g>
<!-- Node8 -->
<g id="node8" class="node">
<title>Node8</title>
<g id="a_node8"><a xlink:href="class_scene.html#a684bec8db49b527c34a567e91259102e" target="_top" xlink:title="Metoda dodajaca obiekt pochodny z Prism do listy objects.">
<polygon fill="none" stroke="black" points="466,-361.5 466,-391.5 598,-391.5 598,-361.5 466,-361.5"/>
<text text-anchor="start" x="474" y="-379.5" font-family="Helvetica,sans-Serif" font-size="10.00">Scene::add_object_type</text>
<text text-anchor="middle" x="532" y="-368.5" font-family="Helvetica,sans-Serif" font-size="10.00">_prism</text>
</a>
</g>
</g>
<!-- Node1&#45;&gt;Node8 -->
<g id="edge8" class="edge">
<title>Node1&#45;&gt;Node8</title>
<path fill="none" stroke="midnightblue" d="M694.22,-220.7C680.35,-252.57 648.41,-316.46 602,-352.5 597.59,-355.92 592.66,-358.88 587.52,-361.43"/>
<polygon fill="midnightblue" stroke="midnightblue" points="697.56,-221.78 698.22,-211.2 691.11,-219.06 697.56,-221.78"/>
</g>
<!-- Node9 -->
<g id="node9" class="node">
<title>Node9</title>
<g id="a_node9"><a xlink:href="class_drone.html#ab692baa4be5c43b72990ce1b01bdc805" target="_top" xlink:title="Konstruktor bezparametryczny klasy Drone. Powstaly dron jest skonstruowany z bezparametrycznych prost...">
<polygon fill="none" stroke="black" points="491.5,-274 491.5,-293 572.5,-293 572.5,-274 491.5,-274"/>
<text text-anchor="middle" x="532" y="-281" font-family="Helvetica,sans-Serif" font-size="10.00">Drone::Drone</text>
</a>
</g>
</g>
<!-- Node1&#45;&gt;Node9 -->
<g id="edge11" class="edge">
<title>Node1&#45;&gt;Node9</title>
<path fill="none" stroke="midnightblue" d="M678.92,-216.59C659.08,-229.14 629.4,-246.93 602,-259.5 590.01,-265 576.38,-269.99 564.41,-273.98"/>
<polygon fill="midnightblue" stroke="midnightblue" points="681.03,-219.4 687.56,-211.06 677.25,-213.5 681.03,-219.4"/>
</g>
<!-- Node10 -->
<g id="node10" class="node">
<title>Node10</title>
<g id="a_node10"><a xlink:href="class_drone.html#af03af60a9b92e4191a7e66b5c20b52bb" target="_top" xlink:title="Metoda zamieniajaca drona na tego z pliku sample.">
<polygon fill="none" stroke="black" points="471,-137.5 471,-167.5 593,-167.5 593,-137.5 471,-137.5"/>
<text text-anchor="start" x="479" y="-155.5" font-family="Helvetica,sans-Serif" font-size="10.00">Drone::Drone_change</text>
<text text-anchor="middle" x="532" y="-144.5" font-family="Helvetica,sans-Serif" font-size="10.00">_to_sample</text>
</a>
</g>
</g>
<!-- Node1&#45;&gt;Node10 -->
<g id="edge12" class="edge">
<title>Node1&#45;&gt;Node10</title>
<path fill="none" stroke="midnightblue" d="M659.35,-189.13C636.72,-182.57 608.74,-174.46 584.86,-167.54"/>
<polygon fill="midnightblue" stroke="midnightblue" points="658.43,-192.51 669.01,-191.94 660.38,-185.79 658.43,-192.51"/>
</g>
<!-- Node12 -->
<g id="node12" class="node">
<title>Node12</title>
<g id="a_node12"><a xlink:href="class_drone.html#af052f6bb793d1229b99b16b800b95b82" target="_top" xlink:title="Metoda animujaca obrot drona i wyrysowujaca calosc w gnuplocie.">
<polygon fill="none" stroke="black" points="292.5,-219.5 292.5,-249.5 417.5,-249.5 417.5,-219.5 292.5,-219.5"/>
<text text-anchor="start" x="300.5" y="-237.5" font-family="Helvetica,sans-Serif" font-size="10.00">Drone::Drone_rotation</text>
<text text-anchor="middle" x="355" y="-226.5" font-family="Helvetica,sans-Serif" font-size="10.00">_animation</text>
</a>
</g>
</g>
<!-- Node1&#45;&gt;Node12 -->
<g id="edge20" class="edge">
<title>Node1&#45;&gt;Node12</title>
<path fill="none" stroke="midnightblue" d="M660.96,-213.85C643.03,-218.7 621.65,-223.76 602,-226.5 539.68,-235.2 467.67,-236.54 417.73,-236.11"/>
<polygon fill="midnightblue" stroke="midnightblue" points="662.11,-217.16 670.81,-211.11 660.24,-210.42 662.11,-217.16"/>
</g>
<!-- Node13 -->
<g id="node13" class="node">
<title>Node13</title>
<g id="a_node13"><a xlink:href="class_drone.html#ab7808296cec81143dbddd7516340a371" target="_top" xlink:title="Metoda robiaca &quot;oblot&quot; drona wokol punktu (z modyfikacji)">
<polygon fill="none" stroke="black" points="284,-94 284,-113 426,-113 426,-94 284,-94"/>
<text text-anchor="middle" x="355" y="-101" font-family="Helvetica,sans-Serif" font-size="10.00">Drone::Drone_roundabout</text>
</a>
</g>
</g>
<!-- Node1&#45;&gt;Node13 -->
<g id="edge21" class="edge">
<title>Node1&#45;&gt;Node13</title>
<path fill="none" stroke="midnightblue" d="M693.43,-182.66C679.17,-153.92 647.57,-100.18 602,-78.5 526.22,-42.44 422.71,-76.04 378.03,-93.93"/>
<polygon fill="midnightblue" stroke="midnightblue" points="690.27,-184.17 697.74,-191.69 696.59,-181.15 690.27,-184.17"/>
</g>
<!-- Node15 -->
<g id="node15" class="node">
<title>Node15</title>
<g id="a_node15"><a xlink:href="class_drone.html#ab2a22e3257125dccc19ed2c288e5f52f" target="_top" xlink:title="Metoda przygotowujaca sciezke drona z uzyciem std::vector&lt;&gt; do roundabout.">
<polygon fill="none" stroke="black" points="462,-88.5 462,-118.5 602,-118.5 602,-88.5 462,-88.5"/>
<text text-anchor="start" x="470" y="-106.5" font-family="Helvetica,sans-Serif" font-size="10.00">Drone::Drone_make_path</text>
<text text-anchor="middle" x="532" y="-95.5" font-family="Helvetica,sans-Serif" font-size="10.00">_roundabout</text>
</a>
</g>
</g>
<!-- Node1&#45;&gt;Node15 -->
<g id="edge18" class="edge">
<title>Node1&#45;&gt;Node15</title>
<path fill="none" stroke="midnightblue" d="M683.27,-185.3C663.94,-169.22 632.41,-144.69 602,-128.5 595.14,-124.85 587.63,-121.52 580.17,-118.56"/>
<polygon fill="midnightblue" stroke="midnightblue" points="681.11,-188.06 691,-191.83 685.62,-182.71 681.11,-188.06"/>
</g>
<!-- Node16 -->
<g id="node16" class="node">
<title>Node16</title>
<g id="a_node16"><a xlink:href="class_vector.html#afcc0ab18c788de7c4b149c8a79006648" target="_top" xlink:title=" ">
<polygon fill="none" stroke="black" points="474.5,-0.5 474.5,-30.5 589.5,-30.5 589.5,-0.5 474.5,-0.5"/>
<text text-anchor="start" x="482.5" y="-18.5" font-family="Helvetica,sans-Serif" font-size="10.00">Vector&lt; double, 3 &gt;</text>
<text text-anchor="middle" x="532" y="-7.5" font-family="Helvetica,sans-Serif" font-size="10.00">::rotate</text>
</a>
</g>
</g>
<!-- Node1&#45;&gt;Node16 -->
<g id="edge22" class="edge">
<title>Node1&#45;&gt;Node16</title>
<path fill="none" stroke="midnightblue" d="M694.08,-182.05C680,-149.68 647.77,-84.48 602,-45.5 595.04,-39.57 586.73,-34.64 578.32,-30.61"/>
<polygon fill="midnightblue" stroke="midnightblue" points="691.03,-183.83 698.14,-191.68 697.48,-181.11 691.03,-183.83"/>
</g>
<!-- Node17 -->
<g id="node17" class="node">
<title>Node17</title>
<g id="a_node17"><a xlink:href="class_drone.html#aedb04b80609b22ff4eb4a957bc149a48" target="_top" xlink:title="Metoda animujaca obrot rotorow i zapisujaca to w plikach. Metoda sluzy jako metoda pomocnicza,...">
<polygon fill="none" stroke="black" points="468.5,-186.5 468.5,-216.5 595.5,-216.5 595.5,-186.5 468.5,-186.5"/>
<text text-anchor="start" x="476.5" y="-204.5" font-family="Helvetica,sans-Serif" font-size="10.00">Drone::Rotors_rotation</text>
<text text-anchor="middle" x="532" y="-193.5" font-family="Helvetica,sans-Serif" font-size="10.00">_animation</text>
</a>
</g>
</g>
<!-- Node1&#45;&gt;Node17 -->
<g id="edge23" class="edge">
<title>Node1&#45;&gt;Node17</title>
<path fill="none" stroke="midnightblue" d="M627.48,-201.5C616.81,-201.5 605.93,-201.5 595.52,-201.5"/>
<polygon fill="midnightblue" stroke="midnightblue" points="627.63,-205 637.63,-201.5 627.63,-198 627.63,-205"/>
</g>
<!-- Node3 -->
<g id="node3" class="node">
<title>Node3</title>
<g id="a_node3"><a xlink:href="class_scene.html#a15f741d7de1a9662c49f72d663d90b23" target="_top" xlink:title="Metoda dodajaca podstawowe elementy do listy objects.">
<polygon fill="none" stroke="black" points="284.5,-361 284.5,-380 425.5,-380 425.5,-361 284.5,-361"/>
<text text-anchor="middle" x="355" y="-368" font-family="Helvetica,sans-Serif" font-size="10.00">Scene::add_basic_objects</text>
</a>
</g>
</g>
<!-- Node2&#45;&gt;Node3 -->
<g id="edge2" class="edge">
<title>Node2&#45;&gt;Node3</title>
<path fill="none" stroke="midnightblue" d="M460.01,-344.94C437.72,-350.42 413.94,-356.26 394.75,-360.98"/>
<polygon fill="midnightblue" stroke="midnightblue" points="460.92,-348.32 469.79,-342.54 459.25,-341.53 460.92,-348.32"/>
</g>
<!-- Node6 -->
<g id="node6" class="node">
<title>Node6</title>
<g id="a_node6"><a xlink:href="class_scene.html#a8b87eec51d554a3ac01767a613871661" target="_top" xlink:title="Metoda dodajaca object zadany przez uzytkownika.">
<polygon fill="none" stroke="black" points="302.5,-323 302.5,-342 407.5,-342 407.5,-323 302.5,-323"/>
<text text-anchor="middle" x="355" y="-330" font-family="Helvetica,sans-Serif" font-size="10.00">Scene::add_object</text>
</a>
</g>
</g>
<!-- Node2&#45;&gt;Node6 -->
<g id="edge5" class="edge">
<title>Node2&#45;&gt;Node6</title>
<path fill="none" stroke="midnightblue" d="M455.8,-329.65C439.52,-330.11 422.67,-330.6 407.55,-331.03"/>
<polygon fill="midnightblue" stroke="midnightblue" points="455.94,-333.15 465.84,-329.36 455.74,-326.15 455.94,-333.15"/>
</g>
<!-- Node4 -->
<g id="node4" class="node">
<title>Node4</title>
<g id="a_node4"><a xlink:href="class_scene.html#ab57c9a7293ccbaf3dd7e9ac469a7a787" target="_top" xlink:title="Metoda inicjalizujaca lacze do gnuplota.">
<polygon fill="none" stroke="black" points="136,-361 136,-380 246,-380 246,-361 136,-361"/>
<text text-anchor="middle" x="191" y="-368" font-family="Helvetica,sans-Serif" font-size="10.00">Scene::init_gnuplot</text>
</a>
</g>
</g>
<!-- Node3&#45;&gt;Node4 -->
<g id="edge3" class="edge">
<title>Node3&#45;&gt;Node4</title>
<path fill="none" stroke="midnightblue" d="M274.19,-370.5C264.78,-370.5 255.36,-370.5 246.42,-370.5"/>
<polygon fill="midnightblue" stroke="midnightblue" points="274.36,-374 284.36,-370.5 274.36,-367 274.36,-374"/>
</g>
<!-- Node5 -->
<g id="node5" class="node">
<title>Node5</title>
<g id="a_node5"><a xlink:href="class_menu.html#af7e6a49bd56499facef9cc98561ea169" target="_top" xlink:title="Inicjuje i obsluguje menu.">
<polygon fill="none" stroke="black" points="0,-342 0,-361 98,-361 98,-342 0,-342"/>
<text text-anchor="middle" x="49" y="-349" font-family="Helvetica,sans-Serif" font-size="10.00">Menu::init_menu</text>
</a>
</g>
</g>
<!-- Node4&#45;&gt;Node5 -->
<g id="edge4" class="edge">
<title>Node4&#45;&gt;Node5</title>
<path fill="none" stroke="midnightblue" d="M125.82,-361.79C116.48,-360.52 107,-359.24 98.05,-358.02"/>
<polygon fill="midnightblue" stroke="midnightblue" points="125.49,-365.28 135.87,-363.15 126.43,-358.34 125.49,-365.28"/>
</g>
<!-- Node7 -->
<g id="node7" class="node">
<title>Node7</title>
<g id="a_node7"><a xlink:href="class_menu.html#acd338552222b744cd030e17776cb5d9b" target="_top" xlink:title="Obsluguje wybor menu.">
<polygon fill="none" stroke="black" points="134,-323 134,-342 248,-342 248,-323 134,-323"/>
<text text-anchor="middle" x="191" y="-330" font-family="Helvetica,sans-Serif" font-size="10.00">Menu::switch_menu</text>
</a>
</g>
</g>
<!-- Node6&#45;&gt;Node7 -->
<g id="edge6" class="edge">
<title>Node6&#45;&gt;Node7</title>
<path fill="none" stroke="midnightblue" d="M292,-332.5C277.61,-332.5 262.38,-332.5 248.26,-332.5"/>
<polygon fill="midnightblue" stroke="midnightblue" points="292.3,-336 302.3,-332.5 292.3,-329 292.3,-336"/>
</g>
<!-- Node7&#45;&gt;Node5 -->
<g id="edge7" class="edge">
<title>Node7&#45;&gt;Node5</title>
<path fill="none" stroke="midnightblue" d="M123.75,-341.49C115.08,-342.67 106.33,-343.86 98.04,-344.98"/>
<polygon fill="midnightblue" stroke="midnightblue" points="124.42,-344.93 133.86,-340.12 123.48,-338 124.42,-344.93"/>
</g>
<!-- Node8&#45;&gt;Node3 -->
<g id="edge9" class="edge">
<title>Node8&#45;&gt;Node3</title>
<path fill="none" stroke="midnightblue" d="M455.57,-373.91C445.62,-373.57 435.46,-373.22 425.62,-372.89"/>
<polygon fill="midnightblue" stroke="midnightblue" points="455.72,-377.42 465.84,-374.27 455.96,-370.43 455.72,-377.42"/>
</g>
<!-- Node8&#45;&gt;Node6 -->
<g id="edge10" class="edge">
<title>Node8&#45;&gt;Node6</title>
<path fill="none" stroke="midnightblue" d="M461.5,-359.03C438.42,-353.22 413.6,-346.98 393.83,-342.01"/>
<polygon fill="midnightblue" stroke="midnightblue" points="460.71,-362.44 471.26,-361.48 462.42,-355.65 460.71,-362.44"/>
</g>
<!-- Node11 -->
<g id="node11" class="node">
<title>Node11</title>
<g id="a_node11"><a xlink:href="class_drone.html#ac4d24c27fb2c107d2e8bda0c2bf5cfa1" target="_top" xlink:title="Metoda obliczajaca i przeprowadzajaca caly ruch drona (obrot o kat i przelot z zadania 5....">
<polygon fill="none" stroke="black" points="135,-219.5 135,-249.5 247,-249.5 247,-219.5 135,-219.5"/>
<text text-anchor="start" x="143" y="-237.5" font-family="Helvetica,sans-Serif" font-size="10.00">Drone::Drone_basic</text>
<text text-anchor="middle" x="191" y="-226.5" font-family="Helvetica,sans-Serif" font-size="10.00">_motion</text>
</a>
</g>
</g>
<!-- Node10&#45;&gt;Node11 -->
<g id="edge13" class="edge">
<title>Node10&#45;&gt;Node11</title>
<path fill="none" stroke="midnightblue" d="M460.65,-143.64C409.96,-139.95 340.77,-140.54 284,-161.5 251.48,-173.5 221.58,-201.76 205.16,-219.38"/>
<polygon fill="midnightblue" stroke="midnightblue" points="460.6,-147.14 470.85,-144.45 461.16,-140.17 460.6,-147.14"/>
</g>
<!-- Node10&#45;&gt;Node12 -->
<g id="edge14" class="edge">
<title>Node10&#45;&gt;Node12</title>
<path fill="none" stroke="midnightblue" d="M472.68,-171.72C468.99,-173.51 465.4,-175.44 462,-177.5 443.44,-188.75 444.66,-199.41 426,-210.5 420.37,-213.85 414.2,-216.81 407.94,-219.42"/>
<polygon fill="midnightblue" stroke="midnightblue" points="474.32,-174.81 482,-167.51 471.44,-168.43 474.32,-174.81"/>
</g>
<!-- Node10&#45;&gt;Node13 -->
<g id="edge16" class="edge">
<title>Node10&#45;&gt;Node13</title>
<path fill="none" stroke="midnightblue" d="M467.21,-134.64C441.06,-127.32 411.85,-119.14 389.94,-113"/>
<polygon fill="midnightblue" stroke="midnightblue" points="466.49,-138.07 477.07,-137.4 468.38,-131.33 466.49,-138.07"/>
</g>
<!-- Node14 -->
<g id="node14" class="node">
<title>Node14</title>
<g id="a_node14"><a xlink:href="class_drone.html#a5fc9dd645ad3856b5d3c501c63c464e3" target="_top" xlink:title="Metoda animujaca translacje drona i wyrysowujaca calosc w gnuplocie.">
<polygon fill="none" stroke="black" points="285.5,-170.5 285.5,-200.5 424.5,-200.5 424.5,-170.5 285.5,-170.5"/>
<text text-anchor="start" x="293.5" y="-188.5" font-family="Helvetica,sans-Serif" font-size="10.00">Drone::Drone_translation</text>
<text text-anchor="middle" x="355" y="-177.5" font-family="Helvetica,sans-Serif" font-size="10.00">_animation</text>
</a>
</g>
</g>
<!-- Node10&#45;&gt;Node14 -->
<g id="edge17" class="edge">
<title>Node10&#45;&gt;Node14</title>
<path fill="none" stroke="midnightblue" d="M460.9,-165.72C448.99,-167.97 436.63,-170.3 424.75,-172.54"/>
<polygon fill="midnightblue" stroke="midnightblue" points="461.6,-169.15 470.77,-163.86 460.3,-162.27 461.6,-169.15"/>
</g>
<!-- Node12&#45;&gt;Node11 -->
<g id="edge15" class="edge">
<title>Node12&#45;&gt;Node11</title>
<path fill="none" stroke="midnightblue" d="M282.09,-234.5C270.37,-234.5 258.4,-234.5 247.17,-234.5"/>
<polygon fill="midnightblue" stroke="midnightblue" points="282.29,-238 292.29,-234.5 282.29,-231 282.29,-238"/>
</g>
<!-- Node15&#45;&gt;Node13 -->
<g id="edge19" class="edge">
<title>Node15&#45;&gt;Node13</title>
<path fill="none" stroke="midnightblue" d="M451.83,-103.5C443.25,-103.5 434.56,-103.5 426.1,-103.5"/>
<polygon fill="midnightblue" stroke="midnightblue" points="451.84,-107 461.84,-103.5 451.84,-100 451.84,-107"/>
</g>
<!-- Node17&#45;&gt;Node11 -->
<g id="edge24" class="edge">
<title>Node17&#45;&gt;Node11</title>
<path fill="none" stroke="midnightblue" d="M502.6,-222.39C482.37,-235.91 453.93,-252.3 426,-259.5 364.89,-275.26 346.56,-267.85 284,-259.5 268.74,-257.46 252.43,-253.61 237.84,-249.52"/>
<polygon fill="midnightblue" stroke="midnightblue" points="504.75,-225.16 511.01,-216.61 500.79,-219.39 504.75,-225.16"/>
</g>
<!-- Node17&#45;&gt;Node12 -->
<g id="edge25" class="edge">
<title>Node17&#45;&gt;Node12</title>
<path fill="none" stroke="midnightblue" d="M458.14,-215.24C444.68,-217.78 430.75,-220.4 417.66,-222.87"/>
<polygon fill="midnightblue" stroke="midnightblue" points="459.14,-218.61 468.32,-213.32 457.84,-211.73 459.14,-218.61"/>
</g>
<!-- Node17&#45;&gt;Node13 -->
<g id="edge26" class="edge">
<title>Node17&#45;&gt;Node13</title>
<path fill="none" stroke="midnightblue" d="M472.97,-182.64C469.21,-181.01 465.52,-179.3 462,-177.5 425.02,-158.62 386.13,-128.38 367.4,-113.06"/>
<polygon fill="midnightblue" stroke="midnightblue" points="471.83,-185.96 482.41,-186.5 474.48,-179.48 471.83,-185.96"/>
</g>
<!-- Node17&#45;&gt;Node14 -->
<g id="edge27" class="edge">
<title>Node17&#45;&gt;Node14</title>
<path fill="none" stroke="midnightblue" d="M458.25,-194.85C447.17,-193.84 435.76,-192.79 424.77,-191.79"/>
<polygon fill="midnightblue" stroke="midnightblue" points="458.04,-198.34 468.32,-195.77 458.68,-191.37 458.04,-198.34"/>
</g>
</g>
</svg>
