<?xml version="1.0" encoding="UTF-8" standalone="no"?>
<!DOCTYPE svg PUBLIC "-//W3C//DTD SVG 1.1//EN"
 "http://www.w3.org/Graphics/SVG/1.1/DTD/svg11.dtd">
<!-- Generated by graphviz version 2.43.0 (0)
 -->
<!-- Title: Prism::print_prism_3D Pages: 1 -->
<svg width="941pt" height="254pt"
 viewBox="0.00 0.00 941.00 254.27" xmlns="http://www.w3.org/2000/svg" xmlns:xlink="http://www.w3.org/1999/xlink">
<g id="graph0" class="graph" transform="scale(1 1) rotate(0) translate(4 250.27)">
<title>Prism::print_prism_3D</title>
<!-- Node1 -->
<g id="node1" class="node">
<title>Node1</title>
<g id="a_node1"><a xlink:title="Metoda wypisania odpowiednich wierzcholkow do pliku zgodnie z zaproponowanym sposobem zadaniu dron">
<polygon fill="#bfbfbf" stroke="black" points="808,-68.5 808,-87.5 933,-87.5 933,-68.5 808,-68.5"/>
<text text-anchor="middle" x="870.5" y="-75.5" font-family="Helvetica,sans-Serif" font-size="10.00">Prism::print_prism_3D</text>
</a>
</g>
</g>
<!-- Node2 -->
<g id="node2" class="node">
<title>Node2</title>
<g id="a_node2"><a xlink:href="class_prism.html#a2de0dab6d117fc3c8dcbc3c384d0fccd" target="_top" xlink:title=" ">
<polygon fill="none" stroke="black" points="656,-68.5 656,-87.5 772,-87.5 772,-68.5 656,-68.5"/>
<text text-anchor="middle" x="714" y="-75.5" font-family="Helvetica,sans-Serif" font-size="10.00">Prism::Prism_To_File</text>
</a>
</g>
</g>
<!-- Node1&#45;&gt;Node2 -->
<g id="edge1" class="edge">
<title>Node1&#45;&gt;Node2</title>
<path fill="none" stroke="midnightblue" d="M797.96,-78C789.35,-78 780.65,-78 772.28,-78"/>
<polygon fill="midnightblue" stroke="midnightblue" points="797.99,-81.5 807.99,-78 797.99,-74.5 797.99,-81.5"/>
</g>
<!-- Node3 -->
<g id="node3" class="node">
<title>Node3</title>
<g id="a_node3"><a xlink:href="class_drone.html#aae0029f50083a01fe75c7d504c2fe5b9" target="_top" xlink:title="Metoda zapisujaca parametry drona do plikow (do plikow final kazdego z elementow)">
<polygon fill="none" stroke="black" points="497,-152 497,-182 612,-182 612,-152 497,-152"/>
<text text-anchor="start" x="505" y="-170" font-family="Helvetica,sans-Serif" font-size="10.00">Drone::Print_to_files</text>
<text text-anchor="middle" x="554.5" y="-159" font-family="Helvetica,sans-Serif" font-size="10.00">_drone</text>
</a>
</g>
</g>
<!-- Node2&#45;&gt;Node3 -->
<g id="edge2" class="edge">
<title>Node2&#45;&gt;Node3</title>
<path fill="none" stroke="midnightblue" d="M687.43,-92.45C658.48,-108.81 611.56,-135.32 582.17,-151.93"/>
<polygon fill="midnightblue" stroke="midnightblue" points="689.16,-95.49 696.14,-87.52 685.72,-89.4 689.16,-95.49"/>
</g>
<!-- Node9 -->
<g id="node9" class="node">
<title>Node9</title>
<g id="a_node9"><a xlink:href="class_drone.html#a577871807280aab8d9c0d4e45b435ec4" target="_top" xlink:title="Metoda rysujaca drona w gnuplocie. Przeznaczona do testow">
<polygon fill="none" stroke="black" points="489,-88 489,-118 620,-118 620,-88 489,-88"/>
<text text-anchor="start" x="497" y="-106" font-family="Helvetica,sans-Serif" font-size="10.00">Drone::Print_to_gnuplot</text>
<text text-anchor="middle" x="554.5" y="-95" font-family="Helvetica,sans-Serif" font-size="10.00">_drone</text>
</a>
</g>
</g>
<!-- Node2&#45;&gt;Node9 -->
<g id="edge13" class="edge">
<title>Node2&#45;&gt;Node9</title>
<path fill="none" stroke="midnightblue" d="M645.56,-88.7C637.16,-90.04 628.59,-91.4 620.23,-92.73"/>
<polygon fill="midnightblue" stroke="midnightblue" points="646.37,-92.12 655.69,-87.1 645.27,-85.21 646.37,-92.12"/>
</g>
<!-- Node10 -->
<g id="node10" class="node">
<title>Node10</title>
<g id="a_node10"><a xlink:href="class_drone.html#a63898ba4cc161710cf08f7b578f3d90f" target="_top" xlink:title="Metoda ustawiajaca nazwy plikow w laczy do gnuplota (nazwy final!)">
<polygon fill="none" stroke="black" points="494.5,-39 494.5,-69 614.5,-69 614.5,-39 494.5,-39"/>
<text text-anchor="start" x="502.5" y="-57" font-family="Helvetica,sans-Serif" font-size="10.00">Drone::set_filenames</text>
<text text-anchor="middle" x="554.5" y="-46" font-family="Helvetica,sans-Serif" font-size="10.00">_gnuplot</text>
</a>
</g>
</g>
<!-- Node2&#45;&gt;Node10 -->
<g id="edge14" class="edge">
<title>Node2&#45;&gt;Node10</title>
<path fill="none" stroke="midnightblue" d="M645.53,-67.72C635.24,-66.15 624.7,-64.54 614.62,-63.01"/>
<polygon fill="midnightblue" stroke="midnightblue" points="645.28,-71.22 655.69,-69.27 646.33,-64.3 645.28,-71.22"/>
</g>
<!-- Node13 -->
<g id="node13" class="node">
<title>Node13</title>
<g id="a_node13"><a xlink:href="class_prism.html#a8a80c4334810ad934e6e43bb5ee14f07" target="_top" xlink:title="Zmiana pozycji obiektu na plaszczyznie XY na nowe wspolrzedne.">
<polygon fill="none" stroke="black" points="502.5,-0.5 502.5,-19.5 606.5,-19.5 606.5,-0.5 502.5,-0.5"/>
<text text-anchor="middle" x="554.5" y="-7.5" font-family="Helvetica,sans-Serif" font-size="10.00">Prism::switch_pos</text>
</a>
</g>
</g>
<!-- Node2&#45;&gt;Node13 -->
<g id="edge17" class="edge">
<title>Node2&#45;&gt;Node13</title>
<path fill="none" stroke="midnightblue" d="M688.13,-63.16C669.76,-52.63 643.9,-38.71 620,-29 611.24,-25.44 601.56,-22.23 592.43,-19.51"/>
<polygon fill="midnightblue" stroke="midnightblue" points="686.6,-66.32 697.01,-68.32 690.12,-60.27 686.6,-66.32"/>
</g>
<!-- Node4 -->
<g id="node4" class="node">
<title>Node4</title>
<g id="a_node4"><a xlink:href="class_drone.html#ac4d24c27fb2c107d2e8bda0c2bf5cfa1" target="_top" xlink:title="Metoda obliczajaca i przeprowadzajaca caly ruch drona (obrot o kat i przelot z zadania 5....">
<polygon fill="none" stroke="black" points="0,-198 0,-228 112,-228 112,-198 0,-198"/>
<text text-anchor="start" x="8" y="-216" font-family="Helvetica,sans-Serif" font-size="10.00">Drone::Drone_basic</text>
<text text-anchor="middle" x="56" y="-205" font-family="Helvetica,sans-Serif" font-size="10.00">_motion</text>
</a>
</g>
</g>
<!-- Node3&#45;&gt;Node4 -->
<g id="edge3" class="edge">
<title>Node3&#45;&gt;Node4</title>
<path fill="none" stroke="midnightblue" d="M507.09,-185.71C490.24,-192.07 470.93,-198.86 453,-204 321.89,-241.59 283.17,-256.23 148,-238 132.9,-235.96 116.76,-232.11 102.33,-228.02"/>
<polygon fill="midnightblue" stroke="midnightblue" points="508.62,-188.87 516.7,-182.03 506.11,-182.33 508.62,-188.87"/>
</g>
<!-- Node5 -->
<g id="node5" class="node">
<title>Node5</title>
<g id="a_node5"><a xlink:href="class_drone.html#af052f6bb793d1229b99b16b800b95b82" target="_top" xlink:title="Metoda animujaca obrot drona i wyrysowujaca calosc w gnuplocie.">
<polygon fill="none" stroke="black" points="156.5,-198 156.5,-228 281.5,-228 281.5,-198 156.5,-198"/>
<text text-anchor="start" x="164.5" y="-216" font-family="Helvetica,sans-Serif" font-size="10.00">Drone::Drone_rotation</text>
<text text-anchor="middle" x="219" y="-205" font-family="Helvetica,sans-Serif" font-size="10.00">_animation</text>
</a>
</g>
</g>
<!-- Node3&#45;&gt;Node5 -->
<g id="edge4" class="edge">
<title>Node3&#45;&gt;Node5</title>
<path fill="none" stroke="midnightblue" d="M486.7,-177.12C475.46,-178.78 463.9,-180.46 453,-182 395.02,-190.18 328.83,-198.93 281.85,-205.04"/>
<polygon fill="midnightblue" stroke="midnightblue" points="487.54,-180.54 496.92,-175.61 486.51,-173.61 487.54,-180.54"/>
</g>
<!-- Node6 -->
<g id="node6" class="node">
<title>Node6</title>
<g id="a_node6"><a xlink:href="class_drone.html#ab7808296cec81143dbddd7516340a371" target="_top" xlink:title="Metoda robiaca &quot;oblot&quot; drona wokol punktu (z modyfikacji)">
<polygon fill="none" stroke="black" points="148,-159.5 148,-178.5 290,-178.5 290,-159.5 148,-159.5"/>
<text text-anchor="middle" x="219" y="-166.5" font-family="Helvetica,sans-Serif" font-size="10.00">Drone::Drone_roundabout</text>
</a>
</g>
</g>
<!-- Node3&#45;&gt;Node6 -->
<g id="edge6" class="edge">
<title>Node3&#45;&gt;Node6</title>
<path fill="none" stroke="midnightblue" d="M486.59,-167.4C429.63,-167.74 348.07,-168.23 290.2,-168.58"/>
<polygon fill="midnightblue" stroke="midnightblue" points="486.95,-170.9 496.93,-167.34 486.91,-163.9 486.95,-170.9"/>
</g>
<!-- Node7 -->
<g id="node7" class="node">
<title>Node7</title>
<g id="a_node7"><a xlink:href="class_drone.html#a5fc9dd645ad3856b5d3c501c63c464e3" target="_top" xlink:title="Metoda animujaca translacje drona i wyrysowujaca calosc w gnuplocie.">
<polygon fill="none" stroke="black" points="149.5,-72 149.5,-102 288.5,-102 288.5,-72 149.5,-72"/>
<text text-anchor="start" x="157.5" y="-90" font-family="Helvetica,sans-Serif" font-size="10.00">Drone::Drone_translation</text>
<text text-anchor="middle" x="219" y="-79" font-family="Helvetica,sans-Serif" font-size="10.00">_animation</text>
</a>
</g>
</g>
<!-- Node3&#45;&gt;Node7 -->
<g id="edge7" class="edge">
<title>Node3&#45;&gt;Node7</title>
<path fill="none" stroke="midnightblue" d="M519.65,-146.55C491.2,-129.4 454.87,-107.6 453,-107 399.58,-89.77 335.9,-85.32 288.63,-84.87"/>
<polygon fill="midnightblue" stroke="midnightblue" points="518.19,-149.75 528.56,-151.92 521.8,-143.76 518.19,-149.75"/>
</g>
<!-- Node8 -->
<g id="node8" class="node">
<title>Node8</title>
<g id="a_node8"><a xlink:href="class_drone.html#aedb04b80609b22ff4eb4a957bc149a48" target="_top" xlink:title="Metoda animujaca obrot rotorow i zapisujaca to w plikach. Metoda sluzy jako metoda pomocnicza,...">
<polygon fill="none" stroke="black" points="326,-116 326,-146 453,-146 453,-116 326,-116"/>
<text text-anchor="start" x="334" y="-134" font-family="Helvetica,sans-Serif" font-size="10.00">Drone::Rotors_rotation</text>
<text text-anchor="middle" x="389.5" y="-123" font-family="Helvetica,sans-Serif" font-size="10.00">_animation</text>
</a>
</g>
</g>
<!-- Node3&#45;&gt;Node8 -->
<g id="edge8" class="edge">
<title>Node3&#45;&gt;Node8</title>
<path fill="none" stroke="midnightblue" d="M487.17,-152.35C475.91,-149.86 464.25,-147.29 453.08,-144.82"/>
<polygon fill="midnightblue" stroke="midnightblue" points="486.43,-155.77 496.95,-154.51 487.94,-148.94 486.43,-155.77"/>
</g>
<!-- Node5&#45;&gt;Node4 -->
<g id="edge5" class="edge">
<title>Node5&#45;&gt;Node4</title>
<path fill="none" stroke="midnightblue" d="M145.87,-213C134.51,-213 122.93,-213 112.04,-213"/>
<polygon fill="midnightblue" stroke="midnightblue" points="146.21,-216.5 156.21,-213 146.21,-209.5 146.21,-216.5"/>
</g>
<!-- Node8&#45;&gt;Node4 -->
<g id="edge9" class="edge">
<title>Node8&#45;&gt;Node4</title>
<path fill="none" stroke="midnightblue" d="M315.71,-127.02C266.91,-126.67 201.96,-130.78 148,-150 118.68,-160.45 90.02,-182.9 72.94,-197.98"/>
<polygon fill="midnightblue" stroke="midnightblue" points="315.82,-130.52 325.86,-127.15 315.91,-123.52 315.82,-130.52"/>
</g>
<!-- Node8&#45;&gt;Node5 -->
<g id="edge10" class="edge">
<title>Node8&#45;&gt;Node5</title>
<path fill="none" stroke="midnightblue" d="M356.74,-151.36C337.81,-162.98 313.06,-177.32 290,-188 282.39,-191.53 274.13,-194.87 266.04,-197.9"/>
<polygon fill="midnightblue" stroke="midnightblue" points="358.61,-154.31 365.26,-146.06 354.92,-148.37 358.61,-154.31"/>
</g>
<!-- Node8&#45;&gt;Node6 -->
<g id="edge11" class="edge">
<title>Node8&#45;&gt;Node6</title>
<path fill="none" stroke="midnightblue" d="M315.98,-147.36C297.67,-151.48 278.6,-155.78 262.34,-159.45"/>
<polygon fill="midnightblue" stroke="midnightblue" points="316.77,-150.76 325.76,-145.15 315.23,-143.94 316.77,-150.76"/>
</g>
<!-- Node8&#45;&gt;Node7 -->
<g id="edge12" class="edge">
<title>Node8&#45;&gt;Node7</title>
<path fill="none" stroke="midnightblue" d="M321.12,-113.41C306.69,-109.64 291.57,-105.69 277.54,-102.03"/>
<polygon fill="midnightblue" stroke="midnightblue" points="320.42,-116.84 330.98,-115.98 322.19,-110.07 320.42,-116.84"/>
</g>
<!-- Node11 -->
<g id="node11" class="node">
<title>Node11</title>
<g id="a_node11"><a xlink:href="class_scene.html#ab57c9a7293ccbaf3dd7e9ac469a7a787" target="_top" xlink:title="Metoda inicjalizujaca lacze do gnuplota.">
<polygon fill="none" stroke="black" points="334.5,-36.5 334.5,-55.5 444.5,-55.5 444.5,-36.5 334.5,-36.5"/>
<text text-anchor="middle" x="389.5" y="-43.5" font-family="Helvetica,sans-Serif" font-size="10.00">Scene::init_gnuplot</text>
</a>
</g>
</g>
<!-- Node10&#45;&gt;Node11 -->
<g id="edge15" class="edge">
<title>Node10&#45;&gt;Node11</title>
<path fill="none" stroke="midnightblue" d="M484.19,-50.6C470.96,-49.95 457.29,-49.28 444.62,-48.66"/>
<polygon fill="midnightblue" stroke="midnightblue" points="484.03,-54.09 494.19,-51.09 484.38,-47.1 484.03,-54.09"/>
</g>
<!-- Node12 -->
<g id="node12" class="node">
<title>Node12</title>
<g id="a_node12"><a xlink:href="class_menu.html#af7e6a49bd56499facef9cc98561ea169" target="_top" xlink:title="Inicjuje i obsluguje menu.">
<polygon fill="none" stroke="black" points="170,-33.5 170,-52.5 268,-52.5 268,-33.5 170,-33.5"/>
<text text-anchor="middle" x="219" y="-40.5" font-family="Helvetica,sans-Serif" font-size="10.00">Menu::init_menu</text>
</a>
</g>
</g>
<!-- Node11&#45;&gt;Node12 -->
<g id="edge16" class="edge">
<title>Node11&#45;&gt;Node12</title>
<path fill="none" stroke="midnightblue" d="M324.1,-44.85C305.52,-44.52 285.58,-44.17 268.17,-43.86"/>
<polygon fill="midnightblue" stroke="midnightblue" points="324.2,-48.36 334.26,-45.03 324.32,-41.36 324.2,-48.36"/>
</g>
</g>
</svg>
