<?xml version="1.0" encoding="UTF-8" standalone="no"?>
<!DOCTYPE svg PUBLIC "-//W3C//DTD SVG 1.1//EN"
 "http://www.w3.org/Graphics/SVG/1.1/DTD/svg11.dtd">
<!-- Generated by graphviz version 2.43.0 (0)
 -->
<!-- Title: Prism::Prism Pages: 1 -->
<svg width="389pt" height="28pt"
 viewBox="0.00 0.00 389.00 28.00" xmlns="http://www.w3.org/2000/svg" xmlns:xlink="http://www.w3.org/1999/xlink">
<g id="graph0" class="graph" transform="scale(1 1) rotate(0) translate(4 24)">
<title>Prism::Prism</title>
<!-- Node1 -->
<g id="node1" class="node">
<title>Node1</title>
<g id="a_node1"><a xlink:title="Konstruktor parametryczny klasy Prism. Przeznaczony do konstrukcji prostopadloscianu razem z polami r...">
<polygon fill="#bfbfbf" stroke="black" points="0,-0.5 0,-19.5 78,-19.5 78,-0.5 0,-0.5"/>
<text text-anchor="middle" x="39" y="-7.5" font-family="Helvetica,sans-Serif" font-size="10.00">Prism::Prism</text>
</a>
</g>
</g>
<!-- Node2 -->
<g id="node2" class="node">
<title>Node2</title>
<g id="a_node2"><a xlink:href="class_prism.html#aa50fa1168351c867532aef9c19d2b921" target="_top" xlink:title="Metoda zwracajaca punkty specjalne graniastoslupa : cuts (czyli te ktore sa przecieciami przekatnych ...">
<polygon fill="none" stroke="black" points="114,-0.5 114,-19.5 234,-19.5 234,-0.5 114,-0.5"/>
<text text-anchor="middle" x="174" y="-7.5" font-family="Helvetica,sans-Serif" font-size="10.00">Prism::special_points</text>
</a>
</g>
</g>
<!-- Node1&#45;&gt;Node2 -->
<g id="edge1" class="edge">
<title>Node1&#45;&gt;Node2</title>
<path fill="none" stroke="midnightblue" d="M78.11,-10C86.11,-10 94.79,-10 103.53,-10"/>
<polygon fill="midnightblue" stroke="midnightblue" points="103.79,-13.5 113.79,-10 103.79,-6.5 103.79,-13.5"/>
</g>
<!-- Node3 -->
<g id="node3" class="node">
<title>Node3</title>
<g id="a_node3"><a xlink:href="class_prism.html#a9c72237ab7f5b0741d936ccd14803021" target="_top" xlink:title="Metoda zwracajaca punkt centralny (czyli taki, ktorego odleglosci do kazdego wierzcholka sa rowne) gr...">
<polygon fill="none" stroke="black" points="270,-0.5 270,-19.5 381,-19.5 381,-0.5 270,-0.5"/>
<text text-anchor="middle" x="325.5" y="-7.5" font-family="Helvetica,sans-Serif" font-size="10.00">Prism::centre_point</text>
</a>
</g>
</g>
<!-- Node2&#45;&gt;Node3 -->
<g id="edge2" class="edge">
<title>Node2&#45;&gt;Node3</title>
<path fill="none" stroke="midnightblue" d="M234.09,-10C242.44,-10 251.07,-10 259.53,-10"/>
<polygon fill="midnightblue" stroke="midnightblue" points="259.73,-13.5 269.73,-10 259.73,-6.5 259.73,-13.5"/>
</g>
</g>
</svg>
