<?xml version="1.0" encoding="UTF-8" standalone="no"?>
<!DOCTYPE svg PUBLIC "-//W3C//DTD SVG 1.1//EN"
 "http://www.w3.org/Graphics/SVG/1.1/DTD/svg11.dtd">
<!-- Generated by graphviz version 2.43.0 (0)
 -->
<!-- Title: Circus::special_points Pages: 1 -->
<svg width="387pt" height="66pt"
 viewBox="0.00 0.00 387.00 66.00" xmlns="http://www.w3.org/2000/svg" xmlns:xlink="http://www.w3.org/1999/xlink">
<g id="graph0" class="graph" transform="scale(1 1) rotate(0) translate(4 62)">
<title>Circus::special_points</title>
<!-- Node1 -->
<g id="node1" class="node">
<title>Node1</title>
<g id="a_node1"><a xlink:title="Metoda zwracajaca punkty specjalne graniastoslupa :">
<polygon fill="#bfbfbf" stroke="black" points="257,-19.5 257,-38.5 379,-38.5 379,-19.5 257,-19.5"/>
<text text-anchor="middle" x="318" y="-26.5" font-family="Helvetica,sans-Serif" font-size="10.00">Circus::special_points</text>
</a>
</g>
</g>
<!-- Node2 -->
<g id="node2" class="node">
<title>Node2</title>
<g id="a_node2"><a xlink:href="class_circus.html#aaa613f7735bb421bf375246dd96e7116" target="_top" xlink:title="Konstruktor bezparametryczny klasy Circus. Dolna podstawa jest identyczna jak w bezparametrycznym Pri...">
<polygon fill="none" stroke="black" points="128.5,-38.5 128.5,-57.5 211.5,-57.5 211.5,-38.5 128.5,-38.5"/>
<text text-anchor="middle" x="170" y="-45.5" font-family="Helvetica,sans-Serif" font-size="10.00">Circus::Circus</text>
</a>
</g>
</g>
<!-- Node1&#45;&gt;Node2 -->
<g id="edge1" class="edge">
<title>Node1&#45;&gt;Node2</title>
<path fill="none" stroke="midnightblue" d="M246.69,-38.15C234.63,-39.72 222.47,-41.3 211.53,-42.73"/>
<polygon fill="midnightblue" stroke="midnightblue" points="247.31,-41.6 256.77,-36.84 246.41,-34.66 247.31,-41.6"/>
</g>
<!-- Node4 -->
<g id="node4" class="node">
<title>Node4</title>
<g id="a_node4"><a xlink:href="class_circus.html#abc3ed1cf2a93593c32eac91b29eea59f" target="_top" xlink:title="Przeciazenie operatora przypisania, umozliwia stosowanie metod typu Prism na obiekcie typu Circus">
<polygon fill="none" stroke="black" points="119,-0.5 119,-19.5 221,-19.5 221,-0.5 119,-0.5"/>
<text text-anchor="middle" x="170" y="-7.5" font-family="Helvetica,sans-Serif" font-size="10.00">Circus::operator=</text>
</a>
</g>
</g>
<!-- Node1&#45;&gt;Node4 -->
<g id="edge3" class="edge">
<title>Node1&#45;&gt;Node4</title>
<path fill="none" stroke="midnightblue" d="M246.75,-19.86C238.17,-18.74 229.54,-17.62 221.33,-16.55"/>
<polygon fill="midnightblue" stroke="midnightblue" points="246.41,-23.34 256.77,-21.16 247.31,-16.4 246.41,-23.34"/>
</g>
<!-- Node3 -->
<g id="node3" class="node">
<title>Node3</title>
<g id="a_node3"><a xlink:href="class_circus.html#a5aab1830e67f62f80525d04de23db7da" target="_top" xlink:title="Konstruktor parametryczny klasy Circus. Powstaje ostroslup jak z konstruktora parametrycznego,...">
<polygon fill="none" stroke="black" points="0,-38.5 0,-57.5 83,-57.5 83,-38.5 0,-38.5"/>
<text text-anchor="middle" x="41.5" y="-45.5" font-family="Helvetica,sans-Serif" font-size="10.00">Circus::Circus</text>
</a>
</g>
</g>
<!-- Node2&#45;&gt;Node3 -->
<g id="edge2" class="edge">
<title>Node2&#45;&gt;Node3</title>
<path fill="none" stroke="midnightblue" d="M118.22,-48C106.56,-48 94.31,-48 83.15,-48"/>
<polygon fill="midnightblue" stroke="midnightblue" points="118.28,-51.5 128.28,-48 118.28,-44.5 118.28,-51.5"/>
</g>
</g>
</svg>
