<?xml version="1.0" encoding="UTF-8" standalone="no"?>
<!DOCTYPE svg PUBLIC "-//W3C//DTD SVG 1.1//EN"
 "http://www.w3.org/Graphics/SVG/1.1/DTD/svg11.dtd">
<!-- Generated by graphviz version 2.43.0 (0)
 -->
<!-- Title: Scene Pages: 1 -->
<svg width="311pt" height="468pt"
 viewBox="0.00 0.00 310.50 468.00" xmlns="http://www.w3.org/2000/svg" xmlns:xlink="http://www.w3.org/1999/xlink">
<g id="graph0" class="graph" transform="scale(1 1) rotate(0) translate(4 464)">
<title>Scene</title>
<!-- Node1 -->
<g id="node1" class="node">
<title>Node1</title>
<g id="a_node1"><a xlink:title="Opisuje scene w 3D w ktorej poruszaja sie drony.">
<polygon fill="#bfbfbf" stroke="black" points="33.5,-0.5 33.5,-332.5 189.5,-332.5 189.5,-0.5 33.5,-0.5"/>
<text text-anchor="middle" x="111.5" y="-320.5" font-family="Helvetica,sans-Serif" font-size="10.00">Scene</text>
<polyline fill="none" stroke="black" points="33.5,-313.5 189.5,-313.5 "/>
<text text-anchor="middle" x="111.5" y="-301.5" font-family="Helvetica,sans-Serif" font-size="10.00"> </text>
<polyline fill="none" stroke="black" points="33.5,-294.5 189.5,-294.5 "/>
<text text-anchor="start" x="41.5" y="-282.5" font-family="Helvetica,sans-Serif" font-size="10.00">+ Scene()</text>
<text text-anchor="start" x="41.5" y="-271.5" font-family="Helvetica,sans-Serif" font-size="10.00">+ delete_scene_files()</text>
<text text-anchor="start" x="41.5" y="-260.5" font-family="Helvetica,sans-Serif" font-size="10.00">+ init_objects()</text>
<text text-anchor="start" x="41.5" y="-249.5" font-family="Helvetica,sans-Serif" font-size="10.00">+ add_basic_objects()</text>
<text text-anchor="start" x="41.5" y="-238.5" font-family="Helvetica,sans-Serif" font-size="10.00">+ add_object()</text>
<text text-anchor="start" x="41.5" y="-227.5" font-family="Helvetica,sans-Serif" font-size="10.00">+ delete_object()</text>
<text text-anchor="start" x="41.5" y="-216.5" font-family="Helvetica,sans-Serif" font-size="10.00">+ switch_object_position()</text>
<text text-anchor="start" x="41.5" y="-205.5" font-family="Helvetica,sans-Serif" font-size="10.00">+ add_object_type_cuboid()</text>
<text text-anchor="start" x="41.5" y="-194.5" font-family="Helvetica,sans-Serif" font-size="10.00">+ add_object_type_prism()</text>
<text text-anchor="start" x="41.5" y="-183.5" font-family="Helvetica,sans-Serif" font-size="10.00">+ create_filenames()</text>
<text text-anchor="start" x="41.5" y="-172.5" font-family="Helvetica,sans-Serif" font-size="10.00">+ switch_create_filenames()</text>
<text text-anchor="start" x="41.5" y="-161.5" font-family="Helvetica,sans-Serif" font-size="10.00">+ get_objects_size()</text>
<text text-anchor="start" x="41.5" y="-150.5" font-family="Helvetica,sans-Serif" font-size="10.00">+ check_scene()</text>
<text text-anchor="start" x="41.5" y="-139.5" font-family="Helvetica,sans-Serif" font-size="10.00">+ operator==()</text>
<text text-anchor="start" x="41.5" y="-128.5" font-family="Helvetica,sans-Serif" font-size="10.00">+ choose_drone()</text>
<text text-anchor="start" x="41.5" y="-117.5" font-family="Helvetica,sans-Serif" font-size="10.00">+ init_gnuplot()</text>
<text text-anchor="start" x="41.5" y="-106.5" font-family="Helvetica,sans-Serif" font-size="10.00">+ iterate_over_objects()</text>
<text text-anchor="start" x="41.5" y="-95.5" font-family="Helvetica,sans-Serif" font-size="10.00">+ get_active()</text>
<text text-anchor="start" x="41.5" y="-84.5" font-family="Helvetica,sans-Serif" font-size="10.00">+ get_filename_num()</text>
<text text-anchor="start" x="41.5" y="-73.5" font-family="Helvetica,sans-Serif" font-size="10.00">+ print_active()</text>
<text text-anchor="start" x="41.5" y="-62.5" font-family="Helvetica,sans-Serif" font-size="10.00">+ print_positions()</text>
<text text-anchor="start" x="41.5" y="-51.5" font-family="Helvetica,sans-Serif" font-size="10.00">+ fly()</text>
<text text-anchor="start" x="41.5" y="-40.5" font-family="Helvetica,sans-Serif" font-size="10.00">+ check_objects_intersect()</text>
<text text-anchor="start" x="41.5" y="-29.5" font-family="Helvetica,sans-Serif" font-size="10.00">+ scan_plane()</text>
<text text-anchor="start" x="41.5" y="-18.5" font-family="Helvetica,sans-Serif" font-size="10.00">+ fly_roundabout()</text>
<text text-anchor="start" x="41.5" y="-7.5" font-family="Helvetica,sans-Serif" font-size="10.00">+ show_elements()</text>
</a>
</g>
</g>
<!-- Node2 -->
<g id="node2" class="node">
<title>Node2</title>
<g id="a_node2"><a xlink:title=" ">
<polygon fill="none" stroke="#bfbfbf" points="0,-397 0,-454 29,-454 29,-397 0,-397"/>
<text text-anchor="middle" x="14.5" y="-442" font-family="Helvetica,sans-Serif" font-size="10.00">int</text>
<polyline fill="none" stroke="#bfbfbf" points="0,-435 29,-435 "/>
<text text-anchor="middle" x="14.5" y="-423" font-family="Helvetica,sans-Serif" font-size="10.00"> </text>
<polyline fill="none" stroke="#bfbfbf" points="0,-416 29,-416 "/>
<text text-anchor="middle" x="14.5" y="-404" font-family="Helvetica,sans-Serif" font-size="10.00"> </text>
</a>
</g>
</g>
<!-- Node2&#45;&gt;Node1 -->
<g id="edge1" class="edge">
<title>Node2&#45;&gt;Node1</title>
<path fill="none" stroke="#404040" d="M20.58,-396.99C23.92,-383.06 28.41,-365.98 33.5,-351 34.27,-348.73 35.06,-346.44 35.86,-344.15"/>
<polygon fill="none" stroke="#404040" points="35.95,-343.91 34.2,-336.91 39.98,-332.61 41.73,-339.6 35.95,-343.91"/>
<text text-anchor="middle" x="70.5" y="-365" font-family="Helvetica,sans-Serif" font-size="10.00"> &#45;active</text>
<text text-anchor="middle" x="70.5" y="-354" font-family="Helvetica,sans-Serif" font-size="10.00">&#45;filename_num</text>
</g>
<!-- Node3 -->
<g id="node3" class="node">
<title>Node3</title>
<g id="a_node3"><a xlink:title=" ">
<polygon fill="none" stroke="#bfbfbf" points="55,-391.5 55,-459.5 168,-459.5 168,-391.5 55,-391.5"/>
<text text-anchor="start" x="63" y="-447.5" font-family="Helvetica,sans-Serif" font-size="10.00">vector&lt; std::shared</text>
<text text-anchor="middle" x="111.5" y="-436.5" font-family="Helvetica,sans-Serif" font-size="10.00">_ptr&lt; Drone &gt; &gt;</text>
<polyline fill="none" stroke="#bfbfbf" points="55,-429.5 168,-429.5 "/>
<text text-anchor="middle" x="111.5" y="-417.5" font-family="Helvetica,sans-Serif" font-size="10.00"> </text>
<polyline fill="none" stroke="#bfbfbf" points="55,-410.5 168,-410.5 "/>
<text text-anchor="middle" x="111.5" y="-398.5" font-family="Helvetica,sans-Serif" font-size="10.00"> </text>
</a>
</g>
</g>
<!-- Node3&#45;&gt;Node1 -->
<g id="edge2" class="edge">
<title>Node3&#45;&gt;Node1</title>
<path fill="none" stroke="#404040" d="M111.5,-391.43C111.5,-378.31 111.5,-362.16 111.5,-344.58"/>
<polygon fill="none" stroke="#404040" points="111.5,-344.53 107.5,-338.53 111.5,-332.53 115.5,-338.53 111.5,-344.53"/>
<text text-anchor="middle" x="125.5" y="-359.5" font-family="Helvetica,sans-Serif" font-size="10.00"> &#45;flies</text>
</g>
<!-- Node4 -->
<g id="node4" class="node">
<title>Node4</title>
<g id="a_node4"><a xlink:title=" ">
<polygon fill="none" stroke="#bfbfbf" points="186.5,-391.5 186.5,-459.5 302.5,-459.5 302.5,-391.5 186.5,-391.5"/>
<text text-anchor="start" x="194.5" y="-447.5" font-family="Helvetica,sans-Serif" font-size="10.00">list&lt; std::shared_ptr</text>
<text text-anchor="middle" x="244.5" y="-436.5" font-family="Helvetica,sans-Serif" font-size="10.00">&lt; Block &gt; &gt;</text>
<polyline fill="none" stroke="#bfbfbf" points="186.5,-429.5 302.5,-429.5 "/>
<text text-anchor="middle" x="244.5" y="-417.5" font-family="Helvetica,sans-Serif" font-size="10.00"> </text>
<polyline fill="none" stroke="#bfbfbf" points="186.5,-410.5 302.5,-410.5 "/>
<text text-anchor="middle" x="244.5" y="-398.5" font-family="Helvetica,sans-Serif" font-size="10.00"> </text>
</a>
</g>
</g>
<!-- Node4&#45;&gt;Node1 -->
<g id="edge3" class="edge">
<title>Node4&#45;&gt;Node1</title>
<path fill="none" stroke="#404040" d="M227.38,-391.43C218.65,-374.56 207.32,-352.66 195.17,-329.17"/>
<polygon fill="none" stroke="#404040" points="195.05,-328.94 188.74,-325.45 189.53,-318.29 195.84,-321.78 195.05,-328.94"/>
<text text-anchor="middle" x="237" y="-359.5" font-family="Helvetica,sans-Serif" font-size="10.00"> &#45;objects</text>
</g>
</g>
</svg>
