<?xml version="1.0" encoding="UTF-8" standalone="no"?>
<!DOCTYPE svg PUBLIC "-//W3C//DTD SVG 1.1//EN"
 "http://www.w3.org/Graphics/SVG/1.1/DTD/svg11.dtd">
<!-- Generated by graphviz version 2.43.0 (0)
 -->
<!-- Title: PzG::InfoPlikuDoRysowania Pages: 1 -->
<svg width="304pt" height="325pt"
 viewBox="0.00 0.00 304.00 325.00" xmlns="http://www.w3.org/2000/svg" xmlns:xlink="http://www.w3.org/1999/xlink">
<g id="graph0" class="graph" transform="scale(1 1) rotate(0) translate(4 321)">
<title>PzG::InfoPlikuDoRysowania</title>
<!-- Node1 -->
<g id="node1" class="node">
<title>Node1</title>
<g id="a_node1"><a xlink:title="Zestaw informacji dotyczący pliku i sposobu rysowania.">
<polygon fill="#bfbfbf" stroke="black" points="86,-0.5 86,-189.5 236,-189.5 236,-0.5 86,-0.5"/>
<text text-anchor="middle" x="161" y="-177.5" font-family="Helvetica,sans-Serif" font-size="10.00">PzG::InfoPlikuDoRysowania</text>
<polyline fill="none" stroke="black" points="86,-170.5 236,-170.5 "/>
<text text-anchor="middle" x="161" y="-158.5" font-family="Helvetica,sans-Serif" font-size="10.00"> </text>
<polyline fill="none" stroke="black" points="86,-151.5 236,-151.5 "/>
<text text-anchor="start" x="94" y="-139.5" font-family="Helvetica,sans-Serif" font-size="10.00">+ InfoPlikuDoRysowania()</text>
<text text-anchor="start" x="94" y="-128.5" font-family="Helvetica,sans-Serif" font-size="10.00">+ WezNazwePliku()</text>
<text text-anchor="start" x="94" y="-117.5" font-family="Helvetica,sans-Serif" font-size="10.00">+ ZmienNazwePliku()</text>
<text text-anchor="start" x="94" y="-106.5" font-family="Helvetica,sans-Serif" font-size="10.00">+ WezSposobRys()</text>
<text text-anchor="start" x="94" y="-95.5" font-family="Helvetica,sans-Serif" font-size="10.00">+ ZmienSposobRys()</text>
<text text-anchor="start" x="94" y="-84.5" font-family="Helvetica,sans-Serif" font-size="10.00">+ WezSzerokosc()</text>
<text text-anchor="start" x="94" y="-73.5" font-family="Helvetica,sans-Serif" font-size="10.00">+ ZmienSzerokosc()</text>
<text text-anchor="start" x="94" y="-62.5" font-family="Helvetica,sans-Serif" font-size="10.00">+ WezKolor()</text>
<text text-anchor="start" x="94" y="-51.5" font-family="Helvetica,sans-Serif" font-size="10.00">+ ZmienKolor()</text>
<text text-anchor="start" x="94" y="-40.5" font-family="Helvetica,sans-Serif" font-size="10.00">+ WezStyl()</text>
<text text-anchor="start" x="94" y="-29.5" font-family="Helvetica,sans-Serif" font-size="10.00">+ ZmienStyl()</text>
<text text-anchor="start" x="94" y="-18.5" font-family="Helvetica,sans-Serif" font-size="10.00">+ WezEtykiete()</text>
<text text-anchor="start" x="94" y="-7.5" font-family="Helvetica,sans-Serif" font-size="10.00">+ ZmienEtykiete()</text>
</a>
</g>
</g>
<!-- Node2 -->
<g id="node2" class="node">
<title>Node2</title>
<g id="a_node2"><a xlink:title=" ">
<polygon fill="none" stroke="#bfbfbf" points="0,-259.5 0,-316.5 128,-316.5 128,-259.5 0,-259.5"/>
<text text-anchor="middle" x="64" y="-304.5" font-family="Helvetica,sans-Serif" font-size="10.00">TypSposobuRysowania</text>
<polyline fill="none" stroke="#bfbfbf" points="0,-297.5 128,-297.5 "/>
<text text-anchor="middle" x="64" y="-285.5" font-family="Helvetica,sans-Serif" font-size="10.00"> </text>
<polyline fill="none" stroke="#bfbfbf" points="0,-278.5 128,-278.5 "/>
<text text-anchor="middle" x="64" y="-266.5" font-family="Helvetica,sans-Serif" font-size="10.00"> </text>
</a>
</g>
</g>
<!-- Node2&#45;&gt;Node1 -->
<g id="edge1" class="edge">
<title>Node2&#45;&gt;Node1</title>
<path fill="none" stroke="#404040" d="M71.75,-259.33C76.49,-243.89 83.16,-224.49 91,-208 92.23,-205.42 93.5,-202.83 94.81,-200.23"/>
<polygon fill="none" stroke="#404040" points="94.84,-200.17 94.07,-193 100.4,-189.54 101.16,-196.71 94.84,-200.17"/>
<text text-anchor="middle" x="124" y="-222" font-family="Helvetica,sans-Serif" font-size="10.00"> &#45;_SposobRys</text>
</g>
<!-- Node3 -->
<g id="node3" class="node">
<title>Node3</title>
<g id="a_node3"><a xlink:title=" ">
<polygon fill="none" stroke="#bfbfbf" points="146.5,-259.5 146.5,-316.5 175.5,-316.5 175.5,-259.5 146.5,-259.5"/>
<text text-anchor="middle" x="161" y="-304.5" font-family="Helvetica,sans-Serif" font-size="10.00">int</text>
<polyline fill="none" stroke="#bfbfbf" points="146.5,-297.5 175.5,-297.5 "/>
<text text-anchor="middle" x="161" y="-285.5" font-family="Helvetica,sans-Serif" font-size="10.00"> </text>
<polyline fill="none" stroke="#bfbfbf" points="146.5,-278.5 175.5,-278.5 "/>
<text text-anchor="middle" x="161" y="-266.5" font-family="Helvetica,sans-Serif" font-size="10.00"> </text>
</a>
</g>
</g>
<!-- Node3&#45;&gt;Node1 -->
<g id="edge2" class="edge">
<title>Node3&#45;&gt;Node1</title>
<path fill="none" stroke="#404040" d="M161,-259.23C161,-243.67 161,-223.18 161,-201.99"/>
<polygon fill="none" stroke="#404040" points="161,-201.82 157,-195.82 161,-189.82 165,-195.82 161,-201.82"/>
<text text-anchor="middle" x="190" y="-233" font-family="Helvetica,sans-Serif" font-size="10.00"> &#45;_Styl</text>
<text text-anchor="middle" x="190" y="-222" font-family="Helvetica,sans-Serif" font-size="10.00">&#45;_Szerokosc</text>
<text text-anchor="middle" x="190" y="-211" font-family="Helvetica,sans-Serif" font-size="10.00">&#45;_Kolor</text>
</g>
<!-- Node4 -->
<g id="node4" class="node">
<title>Node4</title>
<g id="a_node4"><a xlink:title=" ">
<polygon fill="none" stroke="#bfbfbf" points="220,-259.5 220,-316.5 264,-316.5 264,-259.5 220,-259.5"/>
<text text-anchor="middle" x="242" y="-304.5" font-family="Helvetica,sans-Serif" font-size="10.00">string</text>
<polyline fill="none" stroke="#bfbfbf" points="220,-297.5 264,-297.5 "/>
<text text-anchor="middle" x="242" y="-285.5" font-family="Helvetica,sans-Serif" font-size="10.00"> </text>
<polyline fill="none" stroke="#bfbfbf" points="220,-278.5 264,-278.5 "/>
<text text-anchor="middle" x="242" y="-266.5" font-family="Helvetica,sans-Serif" font-size="10.00"> </text>
</a>
</g>
</g>
<!-- Node4&#45;&gt;Node1 -->
<g id="edge3" class="edge">
<title>Node4&#45;&gt;Node1</title>
<path fill="none" stroke="#404040" d="M235.87,-259.47C232.06,-244.07 226.62,-224.67 220,-208 219.06,-205.65 218.09,-203.28 217.09,-200.9"/>
<polygon fill="none" stroke="#404040" points="217.02,-200.73 210.95,-196.83 212.21,-189.73 218.28,-193.63 217.02,-200.73"/>
<text text-anchor="middle" x="263" y="-227.5" font-family="Helvetica,sans-Serif" font-size="10.00"> &#45;_Etykieta</text>
<text text-anchor="middle" x="263" y="-216.5" font-family="Helvetica,sans-Serif" font-size="10.00">&#45;_NazwaPliku</text>
</g>
</g>
</svg>
