<?xml version="1.0" encoding="UTF-8" standalone="no"?>
<!DOCTYPE svg PUBLIC "-//W3C//DTD SVG 1.1//EN"
 "http://www.w3.org/Graphics/SVG/1.1/DTD/svg11.dtd">
<!-- Generated by graphviz version 2.43.0 (0)
 -->
<!-- Title: Drone::Drone_From_Sample Pages: 1 -->
<!--zoomable 154 -->
<svg id="main" version="1.1" xmlns="http://www.w3.org/2000/svg" xmlns:xlink="http://www.w3.org/1999/xlink" xml:space="preserve" onload="init(evt)">
<style type="text/css"><![CDATA[
.edge:hover path { stroke: red; }
.edge:hover polygon { stroke: red; fill: red; }
]]></style>
<script type="text/javascript"><![CDATA[
var edges = document.getElementsByTagName('g');
if (edges && edges.length) {
  for (var i=0;i<edges.length;i++) {
    if (edges[i].id.substr(0,4)=='edge') {
      edges[i].setAttribute('class','edge');
    }
  }
}
]]></script>
        <defs>
                <circle id="rim" cx="0" cy="0" r="7"/>
                <circle id="rim2" cx="0" cy="0" r="3.5"/>
                <g id="zoomPlus">
                        <use xlink:href="#rim" fill="#404040">
                                <set attributeName="fill" to="#808080" begin="zoomplus.mouseover" end="zoomplus.mouseout"/>
                        </use>
                        <path d="M-4,0h8M0,-4v8" fill="none" stroke="white" stroke-width="1.5" pointer-events="none"/>
                </g>
                <g id="zoomMin">
                        <use xlink:href="#rim" fill="#404040">
                                <set attributeName="fill" to="#808080" begin="zoomminus.mouseover" end="zoomminus.mouseout"/>
                        </use>
                        <path d="M-4,0h8" fill="none" stroke="white" stroke-width="1.5" pointer-events="none"/>
                </g>
                <g id="dirArrow">
                        <path fill="none" stroke="white" stroke-width="1.5" d="M0,-3.0v7 M-2.5,-0.5L0,-3.0L2.5,-0.5"/>
                </g>
               <g id="resetDef">
                       <use xlink:href="#rim2" fill="#404040">
                               <set attributeName="fill" to="#808080" begin="reset.mouseover" end="reset.mouseout"/>
                       </use>
               </g>
        </defs>

<script type="text/javascript">
var viewWidth = 523;
var viewHeight = 154;
var sectionId = 'dynsection-8';
</script>
<script xlink:href="svgpan.js"/>
<svg id="graph" class="graph">
<g id="viewport">
<title>Drone::Drone_From_Sample</title>
<!-- Node1 -->
<g id="node1" class="node">
<title>Node1</title>
<g id="a_node1"><a xlink:title="Metoda wczytywania odpowiednich wierzcholkow z pliku wzorcowego zgodnie z zaproponowanym sposobem w z...">
<polygon fill="#bfbfbf" stroke="black" points="0,-60.5 0,-79.5 153,-79.5 153,-60.5 0,-60.5"/>
<text text-anchor="middle" x="76.5" y="-67.5" font-family="Helvetica,sans-Serif" font-size="10.00">Drone::Drone_From_Sample</text>
</a>
</g>
</g>
<!-- Node2 -->
<g id="node2" class="node">
<title>Node2</title>
<g id="a_node2"><a xlink:href="class_cuboid.html#a773f92fecdf9686b951cf5736c83f318" target="_top" xlink:title="Metoda wczytywania odpowiednich wierzcholkow z pliku wzorcowego zgodnie z zaproponowanym sposobem zad...">
<polygon fill="none" stroke="black" points="204,-77 204,-107 324,-107 324,-77 204,-77"/>
<text text-anchor="start" x="212" y="-95" font-family="Helvetica,sans-Serif" font-size="10.00">Cuboid::Cuboid_From</text>
<text text-anchor="middle" x="264" y="-84" font-family="Helvetica,sans-Serif" font-size="10.00">_Sample</text>
</a>
</g>
</g>
<!-- Node1&#45;&gt;Node2 -->
<g id="edge1" class="edge">
<title>Node1&#45;&gt;Node2</title>
<path fill="none" stroke="midnightblue" d="M153.22,-78.98C166.71,-80.58 180.7,-82.24 193.99,-83.82"/>
<polygon fill="midnightblue" stroke="midnightblue" points="193.66,-87.3 204,-85 194.48,-80.35 193.66,-87.3"/>
</g>
<!-- Node7 -->
<g id="node7" class="node">
<title>Node7</title>
<g id="a_node7"><a xlink:href="class_drone.html#addf8532ee98ca800a64a78f3808fce98" target="_top" xlink:title="Metoda zwracajaca nazwy plikow do zapisu dla drona.">
<polygon fill="none" stroke="black" points="203.5,-126.5 203.5,-145.5 324.5,-145.5 324.5,-126.5 203.5,-126.5"/>
<text text-anchor="middle" x="264" y="-133.5" font-family="Helvetica,sans-Serif" font-size="10.00">Drone::get_filenames</text>
</a>
</g>
</g>
<!-- Node1&#45;&gt;Node7 -->
<g id="edge6" class="edge">
<title>Node1&#45;&gt;Node7</title>
<path fill="none" stroke="midnightblue" d="M97.7,-79.58C119.78,-89.8 156.35,-106 189,-117 196.17,-119.42 203.81,-121.7 211.37,-123.79"/>
<polygon fill="midnightblue" stroke="midnightblue" points="210.63,-127.21 221.2,-126.41 212.44,-120.45 210.63,-127.21"/>
</g>
<!-- Node8 -->
<g id="node8" class="node">
<title>Node8</title>
<g id="a_node8"><a xlink:href="class_prism.html#a5e0a2234e9ebe3b51146c0ddc42e8b48" target="_top" xlink:title="Metoda wczytywania odpowiednich wierzcholkow z pliku wzorcowego zgodnie z zaproponowanym sposobem zad...">
<polygon fill="none" stroke="black" points="189,-38.5 189,-57.5 339,-57.5 339,-38.5 189,-38.5"/>
<text text-anchor="middle" x="264" y="-45.5" font-family="Helvetica,sans-Serif" font-size="10.00">Prism::Prism_From_Sample</text>
</a>
</g>
</g>
<!-- Node1&#45;&gt;Node8 -->
<g id="edge9" class="edge">
<title>Node1&#45;&gt;Node8</title>
<path fill="none" stroke="midnightblue" d="M153.22,-61.02C161.64,-60.02 170.26,-59 178.78,-57.99"/>
<polygon fill="midnightblue" stroke="midnightblue" points="179.21,-61.46 188.72,-56.81 178.38,-54.51 179.21,-61.46"/>
</g>
<!-- Node9 -->
<g id="node9" class="node">
<title>Node9</title>
<g id="a_node9"><a xlink:href="class_drone.html#add09c27034d4ff229cc22b58c443c0f4" target="_top" xlink:title="Metoda ustawiajaca nazwy plikow do zapisu dla drona.">
<polygon fill="none" stroke="black" points="198,-0.5 198,-19.5 330,-19.5 330,-0.5 198,-0.5"/>
<text text-anchor="middle" x="264" y="-7.5" font-family="Helvetica,sans-Serif" font-size="10.00">Drone::setup_filenames</text>
</a>
</g>
</g>
<!-- Node1&#45;&gt;Node9 -->
<g id="edge14" class="edge">
<title>Node1&#45;&gt;Node9</title>
<path fill="none" stroke="midnightblue" d="M101.19,-60.5C123.6,-51.7 158.28,-38.57 189,-29 196.74,-26.59 205.01,-24.25 213.11,-22.08"/>
<polygon fill="midnightblue" stroke="midnightblue" points="214.07,-25.44 222.85,-19.52 212.29,-18.67 214.07,-25.44"/>
</g>
<!-- Node3 -->
<g id="node3" class="node">
<title>Node3</title>
<g id="a_node3"><a xlink:href="class_block.html#aeef4dd3716afaea42688a4f96456ce27" target="_top" xlink:title="Metoda zwracajaca nazwe pliku z finalna (robocza) bryla">
<polygon fill="none" stroke="black" points="382.5,-118.5 382.5,-137.5 507.5,-137.5 507.5,-118.5 382.5,-118.5"/>
<text text-anchor="middle" x="445" y="-125.5" font-family="Helvetica,sans-Serif" font-size="10.00">Block::get_final_name</text>
</a>
</g>
</g>
<!-- Node2&#45;&gt;Node3 -->
<g id="edge2" class="edge">
<title>Node2&#45;&gt;Node3</title>
<path fill="none" stroke="midnightblue" d="M324.11,-103.89C344.23,-107.93 366.68,-112.45 386.66,-116.47"/>
<polygon fill="midnightblue" stroke="midnightblue" points="386.06,-119.92 396.56,-118.46 387.44,-113.06 386.06,-119.92"/>
</g>
<!-- Node4 -->
<g id="node4" class="node">
<title>Node4</title>
<g id="a_node4"><a xlink:href="class_block.html#aed17e0cb13b8eea50fe735ba05204da9" target="_top" xlink:title="Metoda zwracajaca nazwe pliku z wzorcowa bryla">
<polygon fill="none" stroke="black" points="375,-80.5 375,-99.5 515,-99.5 515,-80.5 375,-80.5"/>
<text text-anchor="middle" x="445" y="-87.5" font-family="Helvetica,sans-Serif" font-size="10.00">Block::get_sample_name</text>
</a>
</g>
</g>
<!-- Node2&#45;&gt;Node4 -->
<g id="edge3" class="edge">
<title>Node2&#45;&gt;Node4</title>
<path fill="none" stroke="midnightblue" d="M324.11,-91.34C337.01,-91.2 350.87,-91.04 364.42,-90.89"/>
<polygon fill="midnightblue" stroke="midnightblue" points="364.74,-94.39 374.7,-90.77 364.66,-87.39 364.74,-94.39"/>
</g>
<!-- Node5 -->
<g id="node5" class="node">
<title>Node5</title>
<g id="a_node5"><a xlink:href="class_block.html#a640a910076d8b10533a9a80d740f8f03" target="_top" xlink:title="Metoda zapisujaca do klasy nazwe pliku z finalna (robocza) bryla">
<polygon fill="none" stroke="black" points="383,-39.5 383,-58.5 507,-58.5 507,-39.5 383,-39.5"/>
<text text-anchor="middle" x="445" y="-46.5" font-family="Helvetica,sans-Serif" font-size="10.00">Block::set_final_name</text>
</a>
</g>
</g>
<!-- Node2&#45;&gt;Node5 -->
<g id="edge4" class="edge">
<title>Node2&#45;&gt;Node5</title>
<path fill="none" stroke="midnightblue" d="M324.11,-77.8C346.98,-72.31 372.86,-66.09 394.7,-60.84"/>
<polygon fill="midnightblue" stroke="midnightblue" points="395.52,-64.25 404.43,-58.51 393.89,-57.44 395.52,-64.25"/>
</g>
<!-- Node6 -->
<g id="node6" class="node">
<title>Node6</title>
<g id="a_node6"><a xlink:href="class_block.html#acf20b290f1543e580ff1f2c6d98ff4c4" target="_top" xlink:title="Metoda zapisujaca do klasy nazwe pliku z wzorcowa bryla">
<polygon fill="none" stroke="black" points="375.5,-1.5 375.5,-20.5 514.5,-20.5 514.5,-1.5 375.5,-1.5"/>
<text text-anchor="middle" x="445" y="-8.5" font-family="Helvetica,sans-Serif" font-size="10.00">Block::set_sample_name</text>
</a>
</g>
</g>
<!-- Node2&#45;&gt;Node6 -->
<g id="edge5" class="edge">
<title>Node2&#45;&gt;Node6</title>
<path fill="none" stroke="midnightblue" d="M319.72,-76.84C326.44,-74.02 333.03,-70.76 339,-67 358.41,-54.77 355.25,-41.68 375,-30 378.67,-27.83 382.6,-25.9 386.64,-24.19"/>
<polygon fill="midnightblue" stroke="midnightblue" points="388.12,-27.37 396.24,-20.56 385.65,-20.82 388.12,-27.37"/>
</g>
<!-- Node7&#45;&gt;Node3 -->
<g id="edge7" class="edge">
<title>Node7&#45;&gt;Node3</title>
<path fill="none" stroke="midnightblue" d="M324.6,-133.34C339.79,-132.66 356.27,-131.92 372,-131.22"/>
<polygon fill="midnightblue" stroke="midnightblue" points="372.37,-134.7 382.21,-130.76 372.06,-127.71 372.37,-134.7"/>
</g>
<!-- Node7&#45;&gt;Node4 -->
<g id="edge8" class="edge">
<title>Node7&#45;&gt;Node4</title>
<path fill="none" stroke="midnightblue" d="M302.27,-126.43C314.02,-123.42 327.05,-120.07 339,-117 357.92,-112.14 378.76,-106.78 396.84,-102.13"/>
<polygon fill="midnightblue" stroke="midnightblue" points="397.77,-105.51 406.58,-99.63 396.03,-98.73 397.77,-105.51"/>
</g>
<!-- Node8&#45;&gt;Node3 -->
<g id="edge10" class="edge">
<title>Node8&#45;&gt;Node3</title>
<path fill="none" stroke="midnightblue" d="M316.02,-57.53C324.04,-60.21 332,-63.64 339,-68 359.58,-80.82 354.45,-96.13 375,-109 378.4,-111.13 382.04,-113.02 385.8,-114.7"/>
<polygon fill="midnightblue" stroke="midnightblue" points="384.76,-118.06 395.34,-118.47 387.33,-111.55 384.76,-118.06"/>
</g>
<!-- Node8&#45;&gt;Node4 -->
<g id="edge11" class="edge">
<title>Node8&#45;&gt;Node4</title>
<path fill="none" stroke="midnightblue" d="M305.62,-57.53C331.62,-63.63 365.55,-71.59 393.31,-78.11"/>
<polygon fill="midnightblue" stroke="midnightblue" points="392.7,-81.56 403.23,-80.43 394.3,-74.74 392.7,-81.56"/>
</g>
<!-- Node8&#45;&gt;Node5 -->
<g id="edge12" class="edge">
<title>Node8&#45;&gt;Node5</title>
<path fill="none" stroke="midnightblue" d="M339.1,-48.41C350.22,-48.48 361.66,-48.54 372.72,-48.6"/>
<polygon fill="midnightblue" stroke="midnightblue" points="372.73,-52.1 382.75,-48.66 372.77,-45.1 372.73,-52.1"/>
</g>
<!-- Node8&#45;&gt;Node6 -->
<g id="edge13" class="edge">
<title>Node8&#45;&gt;Node6</title>
<path fill="none" stroke="midnightblue" d="M311.1,-38.47C334.5,-33.64 363.12,-27.72 387.8,-22.62"/>
<polygon fill="midnightblue" stroke="midnightblue" points="388.66,-26.01 397.75,-20.56 387.25,-19.16 388.66,-26.01"/>
</g>
<!-- Node9&#45;&gt;Node5 -->
<g id="edge15" class="edge">
<title>Node9&#45;&gt;Node5</title>
<path fill="none" stroke="midnightblue" d="M308.79,-19.54C333.37,-24.9 364.23,-31.62 390.27,-37.29"/>
<polygon fill="midnightblue" stroke="midnightblue" points="389.84,-40.78 400.35,-39.49 391.33,-33.94 389.84,-40.78"/>
</g>
<!-- Node9&#45;&gt;Node6 -->
<g id="edge16" class="edge">
<title>Node9&#45;&gt;Node6</title>
<path fill="none" stroke="midnightblue" d="M330.13,-10.36C341.49,-10.43 353.43,-10.49 365.12,-10.56"/>
<polygon fill="midnightblue" stroke="midnightblue" points="365.28,-14.06 375.3,-10.62 365.32,-7.06 365.28,-14.06"/>
</g>
</g>
</svg>
        <g id="navigator" transform="translate(0 0)" fill="#404254">
                <rect fill="#f2f5e9" fill-opacity="0.5" stroke="#606060" stroke-width=".5" x="0" y="0" width="60" height="60"/>
                <use id="zoomplus" xlink:href="#zoomPlus" x="17" y="9" onmousedown="handleZoom(evt,'in')"/>
                <use id="zoomminus" xlink:href="#zoomMin" x="42" y="9" onmousedown="handleZoom(evt,'out')"/>
                <use id="reset" xlink:href="#resetDef" x="30" y="36" onmousedown="handleReset()"/>
                <g id="arrowUp" xlink:href="#dirArrow" transform="translate(30 24)" onmousedown="handlePan(0,-1)">
                  <use xlink:href="#rim" fill="#404040">
                        <set attributeName="fill" to="#808080" begin="arrowUp.mouseover" end="arrowUp.mouseout"/>
                  </use>
                  <path fill="none" stroke="white" stroke-width="1.5" d="M0,-3.0v7 M-2.5,-0.5L0,-3.0L2.5,-0.5"/>
                </g>
                <g id="arrowRight" xlink:href="#dirArrow" transform="rotate(90) translate(36 -43)" onmousedown="handlePan(1,0)">
                  <use xlink:href="#rim" fill="#404040">
                        <set attributeName="fill" to="#808080" begin="arrowRight.mouseover" end="arrowRight.mouseout"/>
                  </use>
                  <path fill="none" stroke="white" stroke-width="1.5" d="M0,-3.0v7 M-2.5,-0.5L0,-3.0L2.5,-0.5"/>
                </g>
                <g id="arrowDown" xlink:href="#dirArrow" transform="rotate(180) translate(-30 -48)" onmousedown="handlePan(0,1)">
                  <use xlink:href="#rim" fill="#404040">
                        <set attributeName="fill" to="#808080" begin="arrowDown.mouseover" end="arrowDown.mouseout"/>
                  </use>
                  <path fill="none" stroke="white" stroke-width="1.5" d="M0,-3.0v7 M-2.5,-0.5L0,-3.0L2.5,-0.5"/>
                </g>
                <g id="arrowLeft" xlink:href="#dirArrow" transform="rotate(270) translate(-36 17)" onmousedown="handlePan(-1,0)">
                  <use xlink:href="#rim" fill="#404040">
                        <set attributeName="fill" to="#808080" begin="arrowLeft.mouseover" end="arrowLeft.mouseout"/>
                  </use>
                  <path fill="none" stroke="white" stroke-width="1.5" d="M0,-3.0v7 M-2.5,-0.5L0,-3.0L2.5,-0.5"/>
                </g>
        </g>
        <svg viewBox="0 0 15 15" width="100%" height="30px" preserveAspectRatio="xMaxYMin meet">
         <g id="arrow_out" transform="scale(0.3 0.3)">
          <a xlink:href="class_drone_ada6f4e93f4a63cbe1d6fbebf329efe62_cgraph_org.svg" target="_base">
           <rect id="button" ry="5" rx="5" y="6" x="6" height="38" width="38"
                fill="#f2f5e9" fill-opacity="0.5" stroke="#606060" stroke-width="1.0"/>
           <path id="arrow"
             d="M 11.500037,31.436501 C 11.940474,20.09759 22.043105,11.32322 32.158766,21.979434 L 37.068811,17.246167 C 37.068811,17.246167 37.088388,32 37.088388,32 L 22.160133,31.978069 C 22.160133,31.978069 26.997745,27.140456 26.997745,27.140456 C 18.528582,18.264221 13.291696,25.230495 11.500037,31.436501 z"
             style="fill:#404040;"/>
          </a>
         </g>
        </svg>
</svg>
