<?xml version="1.0" encoding="UTF-8" standalone="no"?>
<!DOCTYPE svg PUBLIC "-//W3C//DTD SVG 1.1//EN"
 "http://www.w3.org/Graphics/SVG/1.1/DTD/svg11.dtd">
<!-- Generated by graphviz version 2.43.0 (0)
 -->
<!-- Title: PzG::Wektor2f Pages: 1 -->
<svg width="101pt" height="248pt"
 viewBox="0.00 0.00 101.00 248.00" xmlns="http://www.w3.org/2000/svg" xmlns:xlink="http://www.w3.org/1999/xlink">
<g id="graph0" class="graph" transform="scale(1 1) rotate(0) translate(4 244)">
<title>PzG::Wektor2f</title>
<!-- Node1 -->
<g id="node1" class="node">
<title>Node1</title>
<g id="a_node1"><a xlink:title="Klasa pomocnicza, pozwala modelować wektor dwuwymiarowy.">
<polygon fill="#bfbfbf" stroke="black" points="0,-0.5 0,-123.5 93,-123.5 93,-0.5 0,-0.5"/>
<text text-anchor="middle" x="46.5" y="-111.5" font-family="Helvetica,sans-Serif" font-size="10.00">PzG::Wektor2f</text>
<polyline fill="none" stroke="black" points="0,-104.5 93,-104.5 "/>
<text text-anchor="middle" x="46.5" y="-92.5" font-family="Helvetica,sans-Serif" font-size="10.00"> </text>
<polyline fill="none" stroke="black" points="0,-85.5 93,-85.5 "/>
<text text-anchor="start" x="8" y="-73.5" font-family="Helvetica,sans-Serif" font-size="10.00">+ Wektor2f()</text>
<text text-anchor="start" x="8" y="-62.5" font-family="Helvetica,sans-Serif" font-size="10.00">+ Wektor2f()</text>
<text text-anchor="start" x="8" y="-51.5" font-family="Helvetica,sans-Serif" font-size="10.00">+ operator+=()</text>
<text text-anchor="start" x="8" y="-40.5" font-family="Helvetica,sans-Serif" font-size="10.00">+ operator+()</text>
<text text-anchor="start" x="8" y="-29.5" font-family="Helvetica,sans-Serif" font-size="10.00">+ operator*=()</text>
<text text-anchor="start" x="8" y="-18.5" font-family="Helvetica,sans-Serif" font-size="10.00">+ operator*()</text>
<text text-anchor="start" x="8" y="-7.5" font-family="Helvetica,sans-Serif" font-size="10.00">+ Zmien()</text>
</a>
</g>
</g>
<!-- Node2 -->
<g id="node2" class="node">
<title>Node2</title>
<g id="a_node2"><a xlink:title=" ">
<polygon fill="none" stroke="#bfbfbf" points="27.5,-182.5 27.5,-239.5 65.5,-239.5 65.5,-182.5 27.5,-182.5"/>
<text text-anchor="middle" x="46.5" y="-227.5" font-family="Helvetica,sans-Serif" font-size="10.00">float</text>
<polyline fill="none" stroke="#bfbfbf" points="27.5,-220.5 65.5,-220.5 "/>
<text text-anchor="middle" x="46.5" y="-208.5" font-family="Helvetica,sans-Serif" font-size="10.00"> </text>
<polyline fill="none" stroke="#bfbfbf" points="27.5,-201.5 65.5,-201.5 "/>
<text text-anchor="middle" x="46.5" y="-189.5" font-family="Helvetica,sans-Serif" font-size="10.00"> </text>
</a>
</g>
</g>
<!-- Node2&#45;&gt;Node1 -->
<g id="edge1" class="edge">
<title>Node2&#45;&gt;Node1</title>
<path fill="none" stroke="#404040" d="M46.5,-182.35C46.5,-169.03 46.5,-152.37 46.5,-135.76"/>
<polygon fill="none" stroke="#404040" points="46.5,-135.72 42.5,-129.72 46.5,-123.72 50.5,-129.72 46.5,-135.72"/>
<text text-anchor="middle" x="55.5" y="-156" font-family="Helvetica,sans-Serif" font-size="10.00"> +x</text>
<text text-anchor="middle" x="55.5" y="-145" font-family="Helvetica,sans-Serif" font-size="10.00">+y</text>
</g>
</g>
</svg>
