<?xml version="1.0" encoding="UTF-8" standalone="no"?>
<!DOCTYPE svg PUBLIC "-//W3C//DTD SVG 1.1//EN"
 "http://www.w3.org/Graphics/SVG/1.1/DTD/svg11.dtd">
<!-- Generated by graphviz version 2.43.0 (0)
 -->
<!-- Title: Drone::Drone_basic_motion Pages: 1 -->
<svg width="1184pt" height="694pt"
 viewBox="0.00 0.00 1184.00 693.50" xmlns="http://www.w3.org/2000/svg" xmlns:xlink="http://www.w3.org/1999/xlink">
<g id="graph0" class="graph" transform="scale(1 1) rotate(0) translate(4 689.5)">
<title>Drone::Drone_basic_motion</title>
<!-- Node1 -->
<g id="node1" class="node">
<title>Node1</title>
<g id="a_node1"><a xlink:title="Metoda obliczajaca i przeprowadzajaca caly ruch drona (obrot o kat i przelot z zadania 5....">
<polygon fill="#bfbfbf" stroke="black" points="0,-174.5 0,-204.5 112,-204.5 112,-174.5 0,-174.5"/>
<text text-anchor="start" x="8" y="-192.5" font-family="Helvetica,sans-Serif" font-size="10.00">Drone::Drone_basic</text>
<text text-anchor="middle" x="56" y="-181.5" font-family="Helvetica,sans-Serif" font-size="10.00">_motion</text>
</a>
</g>
</g>
<!-- Node2 -->
<g id="node2" class="node">
<title>Node2</title>
<g id="a_node2"><a xlink:href="class_drone.html#af03af60a9b92e4191a7e66b5c20b52bb" target="_top" xlink:title="Metoda zamieniajaca drona na tego z pliku sample.">
<polygon fill="none" stroke="black" points="331,-382.5 331,-412.5 453,-412.5 453,-382.5 331,-382.5"/>
<text text-anchor="start" x="339" y="-400.5" font-family="Helvetica,sans-Serif" font-size="10.00">Drone::Drone_change</text>
<text text-anchor="middle" x="392" y="-389.5" font-family="Helvetica,sans-Serif" font-size="10.00">_to_sample</text>
</a>
</g>
</g>
<!-- Node1&#45;&gt;Node2 -->
<g id="edge1" class="edge">
<title>Node1&#45;&gt;Node2</title>
<path fill="none" stroke="midnightblue" d="M59.77,-204.55C67.11,-239.72 90.56,-327.31 148,-367.5 198.04,-402.51 268.45,-407.67 320.6,-405.46"/>
<polygon fill="midnightblue" stroke="midnightblue" points="320.98,-408.95 330.78,-404.93 320.61,-401.96 320.98,-408.95"/>
</g>
<!-- Node24 -->
<g id="node24" class="node">
<title>Node24</title>
<g id="a_node24"><a xlink:href="class_drone.html#a6662bd8203e8c9a0721c457b3612a7c1" target="_top" xlink:title="Metoda uzywana przy konstruowania drona przesuwa drona w ten sposob, ze Vector3D centre prostopadlosc...">
<polygon fill="none" stroke="black" points="529,-382.5 529,-412.5 633,-412.5 633,-382.5 529,-382.5"/>
<text text-anchor="start" x="537" y="-400.5" font-family="Helvetica,sans-Serif" font-size="10.00">Drone::translation</text>
<text text-anchor="middle" x="581" y="-389.5" font-family="Helvetica,sans-Serif" font-size="10.00">_to_pos</text>
</a>
</g>
</g>
<!-- Node1&#45;&gt;Node24 -->
<g id="edge66" class="edge">
<title>Node1&#45;&gt;Node24</title>
<path fill="none" stroke="midnightblue" d="M67.78,-204.85C83.18,-225.6 113.47,-262.35 148,-282.5 211.17,-319.36 415.48,-364.28 518.87,-385.41"/>
<polygon fill="midnightblue" stroke="midnightblue" points="518.36,-388.88 528.85,-387.44 519.75,-382.02 518.36,-388.88"/>
</g>
<!-- Node27 -->
<g id="node27" class="node">
<title>Node27</title>
<g id="a_node27"><a xlink:href="class_drone.html#ac120bf483eb7684725fa5b8d23856834" target="_top" xlink:title="Metoda przygotowujaca sciezke drona z uzyciem std::vector&lt;&gt;">
<polygon fill="none" stroke="black" points="149.5,-66 149.5,-85 289.5,-85 289.5,-66 149.5,-66"/>
<text text-anchor="middle" x="219.5" y="-73" font-family="Helvetica,sans-Serif" font-size="10.00">Drone::Drone_make_path</text>
</a>
</g>
</g>
<!-- Node1&#45;&gt;Node27 -->
<g id="edge38" class="edge">
<title>Node1&#45;&gt;Node27</title>
<path fill="none" stroke="midnightblue" d="M67.46,-174.19C82.69,-153.06 113.03,-115.23 148,-94.5 151.68,-92.32 155.62,-90.38 159.67,-88.66"/>
<polygon fill="midnightblue" stroke="midnightblue" points="161.18,-91.84 169.31,-85.04 158.72,-85.28 161.18,-91.84"/>
</g>
<!-- Node28 -->
<g id="node28" class="node">
<title>Node28</title>
<g id="a_node28"><a xlink:href="class_drone.html#ab06e550555b07d95a4e40b55f539e2bd" target="_top" xlink:title="Oczyszcza plik ze sciezka.">
<polygon fill="none" stroke="black" points="151,-28 151,-47 288,-47 288,-28 151,-28"/>
<text text-anchor="middle" x="219.5" y="-35" font-family="Helvetica,sans-Serif" font-size="10.00">Drone::Drone_path_clear</text>
</a>
</g>
</g>
<!-- Node1&#45;&gt;Node28 -->
<g id="edge39" class="edge">
<title>Node1&#45;&gt;Node28</title>
<path fill="none" stroke="midnightblue" d="M63.19,-174.11C75.21,-146.24 104.42,-87.42 148,-56.5 150.83,-54.5 153.85,-52.7 157,-51.1"/>
<polygon fill="midnightblue" stroke="midnightblue" points="158.42,-54.3 166.15,-47.06 155.59,-47.9 158.42,-54.3"/>
</g>
<!-- Node29 -->
<g id="node29" class="node">
<title>Node29</title>
<g id="a_node29"><a xlink:href="class_drone.html#a9d09f6cd9ed8d60dfd1979b31101f400" target="_top" xlink:title="Metoda zapisujaca sciezke do pliku oraz do lacza.">
<polygon fill="none" stroke="black" points="148,-104 148,-123 291,-123 291,-104 148,-104"/>
<text text-anchor="middle" x="219.5" y="-111" font-family="Helvetica,sans-Serif" font-size="10.00">Drone::Drone_path_to_file</text>
</a>
</g>
</g>
<!-- Node1&#45;&gt;Node29 -->
<g id="edge40" class="edge">
<title>Node1&#45;&gt;Node29</title>
<path fill="none" stroke="midnightblue" d="M80.67,-174.3C98.67,-163.17 124.28,-148.2 148,-137.5 157.01,-133.44 166.93,-129.66 176.4,-126.36"/>
<polygon fill="midnightblue" stroke="midnightblue" points="177.71,-129.62 186.06,-123.1 175.47,-122.98 177.71,-129.62"/>
</g>
<!-- Node32 -->
<g id="node32" class="node">
<title>Node32</title>
<g id="a_node32"><a xlink:href="class_pz_g_1_1_lacze_do_g_n_u_plota.html#a065f5b8402737cc62b0ad4f66d028335" target="_top" xlink:title="Generuje polecenie rysowania i przesyła je do gnuplota.">
<polygon fill="none" stroke="black" points="327,-130.5 327,-160.5 457,-160.5 457,-130.5 327,-130.5"/>
<text text-anchor="start" x="335" y="-148.5" font-family="Helvetica,sans-Serif" font-size="10.00">PzG::LaczeDoGNUPlota</text>
<text text-anchor="middle" x="392" y="-137.5" font-family="Helvetica,sans-Serif" font-size="10.00">::Rysuj</text>
</a>
</g>
</g>
<!-- Node1&#45;&gt;Node32 -->
<g id="edge65" class="edge">
<title>Node1&#45;&gt;Node32</title>
<path fill="none" stroke="midnightblue" d="M112.3,-180.72C124.08,-178.93 136.44,-177.1 148,-175.5 204.61,-167.65 268.77,-159.77 316.95,-154.06"/>
<polygon fill="midnightblue" stroke="midnightblue" points="317.46,-157.53 326.98,-152.88 316.64,-150.57 317.46,-157.53"/>
</g>
<!-- Node39 -->
<g id="node39" class="node">
<title>Node39</title>
<g id="a_node39"><a xlink:href="class_drone.html#af052f6bb793d1229b99b16b800b95b82" target="_top" xlink:title="Metoda animujaca obrot drona i wyrysowujaca calosc w gnuplocie.">
<polygon fill="none" stroke="black" points="157,-218.5 157,-248.5 282,-248.5 282,-218.5 157,-218.5"/>
<text text-anchor="start" x="165" y="-236.5" font-family="Helvetica,sans-Serif" font-size="10.00">Drone::Drone_rotation</text>
<text text-anchor="middle" x="219.5" y="-225.5" font-family="Helvetica,sans-Serif" font-size="10.00">_animation</text>
</a>
</g>
</g>
<!-- Node1&#45;&gt;Node39 -->
<g id="edge50" class="edge">
<title>Node1&#45;&gt;Node39</title>
<path fill="none" stroke="midnightblue" d="M112.13,-204.52C125.44,-208.15 139.78,-212.05 153.5,-215.79"/>
<polygon fill="midnightblue" stroke="midnightblue" points="152.78,-219.22 163.35,-218.47 154.62,-212.47 152.78,-219.22"/>
</g>
<!-- Node40 -->
<g id="node40" class="node">
<title>Node40</title>
<g id="a_node40"><a xlink:href="class_drone.html#aae0029f50083a01fe75c7d504c2fe5b9" target="_top" xlink:title="Metoda zapisujaca parametry drona do plikow (do plikow final kazdego z elementow)">
<polygon fill="none" stroke="black" points="523.5,-206.5 523.5,-236.5 638.5,-236.5 638.5,-206.5 523.5,-206.5"/>
<text text-anchor="start" x="531.5" y="-224.5" font-family="Helvetica,sans-Serif" font-size="10.00">Drone::Print_to_files</text>
<text text-anchor="middle" x="581" y="-213.5" font-family="Helvetica,sans-Serif" font-size="10.00">_drone</text>
</a>
</g>
</g>
<!-- Node1&#45;&gt;Node40 -->
<g id="edge63" class="edge">
<title>Node1&#45;&gt;Node40</title>
<path fill="none" stroke="midnightblue" d="M112.48,-192.89C209.28,-198.82 408.68,-211.02 513.02,-217.4"/>
<polygon fill="midnightblue" stroke="midnightblue" points="512.92,-220.9 523.12,-218.02 513.35,-213.92 512.92,-220.9"/>
</g>
<!-- Node45 -->
<g id="node45" class="node">
<title>Node45</title>
<g id="a_node45"><a xlink:href="class_drone.html#aedb04b80609b22ff4eb4a957bc149a48" target="_top" xlink:title="Metoda animujaca obrot rotorow i zapisujaca to w plikach. Metoda sluzy jako metoda pomocnicza,...">
<polygon fill="none" stroke="black" points="328.5,-256.5 328.5,-286.5 455.5,-286.5 455.5,-256.5 328.5,-256.5"/>
<text text-anchor="start" x="336.5" y="-274.5" font-family="Helvetica,sans-Serif" font-size="10.00">Drone::Rotors_rotation</text>
<text text-anchor="middle" x="392" y="-263.5" font-family="Helvetica,sans-Serif" font-size="10.00">_animation</text>
</a>
</g>
</g>
<!-- Node1&#45;&gt;Node45 -->
<g id="edge64" class="edge">
<title>Node1&#45;&gt;Node45</title>
<path fill="none" stroke="midnightblue" d="M71.43,-204.65C88.11,-221.02 117.24,-246.28 148,-257.5 202.58,-277.4 268.61,-279.96 318.06,-278.07"/>
<polygon fill="midnightblue" stroke="midnightblue" points="318.52,-281.56 328.35,-277.61 318.2,-274.56 318.52,-281.56"/>
</g>
<!-- Node3 -->
<g id="node3" class="node">
<title>Node3</title>
<g id="a_node3"><a xlink:href="class_drone.html#ada6f4e93f4a63cbe1d6fbebf329efe62" target="_top" xlink:title="Metoda wczytywania odpowiednich wierzcholkow z pliku wzorcowego zgodnie z zaproponowanym sposobem w z...">
<polygon fill="none" stroke="black" points="504.5,-540 504.5,-559 657.5,-559 657.5,-540 504.5,-540"/>
<text text-anchor="middle" x="581" y="-547" font-family="Helvetica,sans-Serif" font-size="10.00">Drone::Drone_From_Sample</text>
</a>
</g>
</g>
<!-- Node2&#45;&gt;Node3 -->
<g id="edge2" class="edge">
<title>Node2&#45;&gt;Node3</title>
<path fill="none" stroke="midnightblue" d="M411.61,-412.63C447.02,-441.41 523.78,-503.8 560.13,-533.35"/>
<polygon fill="midnightblue" stroke="midnightblue" points="558.09,-536.2 568.06,-539.79 562.51,-530.77 558.09,-536.2"/>
</g>
<!-- Node12 -->
<g id="node12" class="node">
<title>Node12</title>
<g id="a_node12"><a xlink:href="class_drone.html#ad42bc54902df967b94717617aca1a974" target="_top" xlink:title="Metoda obracajaca dron o zadany kat w 3D wokol srodka figury">
<polygon fill="none" stroke="black" points="505,-306 505,-325 657,-325 657,-306 505,-306"/>
<text text-anchor="middle" x="581" y="-313" font-family="Helvetica,sans-Serif" font-size="10.00">Drone::rotation_around_cen</text>
</a>
</g>
</g>
<!-- Node2&#45;&gt;Node12 -->
<g id="edge19" class="edge">
<title>Node2&#45;&gt;Node12</title>
<path fill="none" stroke="midnightblue" d="M427.3,-382.46C462.04,-367.23 515.3,-343.87 548.86,-329.15"/>
<polygon fill="midnightblue" stroke="midnightblue" points="550.44,-332.29 558.19,-325.06 547.62,-325.87 550.44,-332.29"/>
</g>
<!-- Node22 -->
<g id="node22" class="node">
<title>Node22</title>
<g id="a_node22"><a xlink:href="class_drone.html#a55c483c4e4cf0ec91d5bda5448417f08" target="_top" xlink:title="Metoda ustawiajaca drone_pos">
<polygon fill="none" stroke="black" points="520,-622 520,-641 642,-641 642,-622 520,-622"/>
<text text-anchor="middle" x="581" y="-629" font-family="Helvetica,sans-Serif" font-size="10.00">Drone::set_drone_pos</text>
</a>
</g>
</g>
<!-- Node2&#45;&gt;Node22 -->
<g id="edge31" class="edge">
<title>Node2&#45;&gt;Node22</title>
<path fill="none" stroke="midnightblue" d="M399.23,-412.56C412.8,-444.1 447.49,-518.31 493,-568.5 510.68,-588 535.32,-605.15 553.86,-616.61"/>
<polygon fill="midnightblue" stroke="midnightblue" points="552.3,-619.76 562.67,-621.92 555.91,-613.76 552.3,-619.76"/>
</g>
<!-- Node2&#45;&gt;Node24 -->
<g id="edge33" class="edge">
<title>Node2&#45;&gt;Node24</title>
<path fill="none" stroke="midnightblue" d="M453.2,-397.5C474.12,-397.5 497.6,-397.5 518.61,-397.5"/>
<polygon fill="midnightblue" stroke="midnightblue" points="518.71,-401 528.71,-397.5 518.71,-394 518.71,-401"/>
</g>
<!-- Node4 -->
<g id="node4" class="node">
<title>Node4</title>
<g id="a_node4"><a xlink:href="class_cuboid.html#a773f92fecdf9686b951cf5736c83f318" target="_top" xlink:title="Metoda wczytywania odpowiednich wierzcholkow z pliku wzorcowego zgodnie z zaproponowanym sposobem zad...">
<polygon fill="none" stroke="black" points="723,-578.5 723,-608.5 843,-608.5 843,-578.5 723,-578.5"/>
<text text-anchor="start" x="731" y="-596.5" font-family="Helvetica,sans-Serif" font-size="10.00">Cuboid::Cuboid_From</text>
<text text-anchor="middle" x="783" y="-585.5" font-family="Helvetica,sans-Serif" font-size="10.00">_Sample</text>
</a>
</g>
</g>
<!-- Node3&#45;&gt;Node4 -->
<g id="edge3" class="edge">
<title>Node3&#45;&gt;Node4</title>
<path fill="none" stroke="midnightblue" d="M625.4,-559.05C650.88,-564.65 683.68,-571.87 712.68,-578.25"/>
<polygon fill="midnightblue" stroke="midnightblue" points="712.24,-581.74 722.75,-580.47 713.74,-574.9 712.24,-581.74"/>
</g>
<!-- Node9 -->
<g id="node9" class="node">
<title>Node9</title>
<g id="a_node9"><a xlink:href="class_drone.html#addf8532ee98ca800a64a78f3808fce98" target="_top" xlink:title="Metoda zwracajaca nazwy plikow do zapisu dla drona.">
<polygon fill="none" stroke="black" points="722.5,-502 722.5,-521 843.5,-521 843.5,-502 722.5,-502"/>
<text text-anchor="middle" x="783" y="-509" font-family="Helvetica,sans-Serif" font-size="10.00">Drone::get_filenames</text>
</a>
</g>
</g>
<!-- Node3&#45;&gt;Node9 -->
<g id="edge8" class="edge">
<title>Node3&#45;&gt;Node9</title>
<path fill="none" stroke="midnightblue" d="M632.21,-539.96C659.43,-534.79 693.26,-528.36 721.88,-522.92"/>
<polygon fill="midnightblue" stroke="midnightblue" points="722.6,-526.35 731.77,-521.04 721.29,-519.47 722.6,-526.35"/>
</g>
<!-- Node10 -->
<g id="node10" class="node">
<title>Node10</title>
<g id="a_node10"><a xlink:href="class_prism.html#a5e0a2234e9ebe3b51146c0ddc42e8b48" target="_top" xlink:title="Metoda wczytywania odpowiednich wierzcholkow z pliku wzorcowego zgodnie z zaproponowanym sposobem zad...">
<polygon fill="none" stroke="black" points="708,-540 708,-559 858,-559 858,-540 708,-540"/>
<text text-anchor="middle" x="783" y="-547" font-family="Helvetica,sans-Serif" font-size="10.00">Prism::Prism_From_Sample</text>
</a>
</g>
</g>
<!-- Node3&#45;&gt;Node10 -->
<g id="edge11" class="edge">
<title>Node3&#45;&gt;Node10</title>
<path fill="none" stroke="midnightblue" d="M657.61,-549.5C670.75,-549.5 684.48,-549.5 697.82,-549.5"/>
<polygon fill="midnightblue" stroke="midnightblue" points="697.94,-553 707.94,-549.5 697.94,-546 697.94,-553"/>
</g>
<!-- Node11 -->
<g id="node11" class="node">
<title>Node11</title>
<g id="a_node11"><a xlink:href="class_drone.html#add09c27034d4ff229cc22b58c443c0f4" target="_top" xlink:title="Metoda ustawiajaca nazwy plikow do zapisu dla drona.">
<polygon fill="none" stroke="black" points="717,-628 717,-647 849,-647 849,-628 717,-628"/>
<text text-anchor="middle" x="783" y="-635" font-family="Helvetica,sans-Serif" font-size="10.00">Drone::setup_filenames</text>
</a>
</g>
</g>
<!-- Node3&#45;&gt;Node11 -->
<g id="edge16" class="edge">
<title>Node3&#45;&gt;Node11</title>
<path fill="none" stroke="midnightblue" d="M596.14,-559.11C618.38,-573.84 663.33,-602.02 705,-618.5 711.28,-620.98 717.98,-623.21 724.71,-625.19"/>
<polygon fill="midnightblue" stroke="midnightblue" points="723.97,-628.62 734.54,-627.92 725.84,-621.88 723.97,-628.62"/>
</g>
<!-- Node5 -->
<g id="node5" class="node">
<title>Node5</title>
<g id="a_node5"><a xlink:href="class_block.html#aeef4dd3716afaea42688a4f96456ce27" target="_top" xlink:title="Metoda zwracajaca nazwe pliku z finalna (robocza) bryla">
<polygon fill="none" stroke="black" points="904.5,-502 904.5,-521 1029.5,-521 1029.5,-502 904.5,-502"/>
<text text-anchor="middle" x="967" y="-509" font-family="Helvetica,sans-Serif" font-size="10.00">Block::get_final_name</text>
</a>
</g>
</g>
<!-- Node4&#45;&gt;Node5 -->
<g id="edge4" class="edge">
<title>Node4&#45;&gt;Node5</title>
<path fill="none" stroke="midnightblue" d="M841.39,-578.44C848.24,-575.62 854.94,-572.33 861,-568.5 880.67,-556.08 877.05,-542.47 897,-530.5 900.6,-528.34 904.44,-526.42 908.41,-524.72"/>
<polygon fill="midnightblue" stroke="midnightblue" points="909.75,-527.95 917.83,-521.11 907.24,-521.42 909.75,-527.95"/>
</g>
<!-- Node6 -->
<g id="node6" class="node">
<title>Node6</title>
<g id="a_node6"><a xlink:href="class_block.html#aed17e0cb13b8eea50fe735ba05204da9" target="_top" xlink:title="Metoda zwracajaca nazwe pliku z wzorcowa bryla">
<polygon fill="none" stroke="black" points="897,-540 897,-559 1037,-559 1037,-540 897,-540"/>
<text text-anchor="middle" x="967" y="-547" font-family="Helvetica,sans-Serif" font-size="10.00">Block::get_sample_name</text>
</a>
</g>
</g>
<!-- Node4&#45;&gt;Node6 -->
<g id="edge5" class="edge">
<title>Node4&#45;&gt;Node6</title>
<path fill="none" stroke="midnightblue" d="M843.09,-579.21C866.87,-573.47 893.98,-566.91 916.67,-561.43"/>
<polygon fill="midnightblue" stroke="midnightblue" points="917.54,-564.82 926.43,-559.07 915.89,-558.01 917.54,-564.82"/>
</g>
<!-- Node7 -->
<g id="node7" class="node">
<title>Node7</title>
<g id="a_node7"><a xlink:href="class_block.html#a640a910076d8b10533a9a80d740f8f03" target="_top" xlink:title="Metoda zapisujaca do klasy nazwe pliku z finalna (robocza) bryla">
<polygon fill="none" stroke="black" points="905,-581 905,-600 1029,-600 1029,-581 905,-581"/>
<text text-anchor="middle" x="967" y="-588" font-family="Helvetica,sans-Serif" font-size="10.00">Block::set_final_name</text>
</a>
</g>
</g>
<!-- Node4&#45;&gt;Node7 -->
<g id="edge6" class="edge">
<title>Node4&#45;&gt;Node7</title>
<path fill="none" stroke="midnightblue" d="M843.09,-592.53C859.42,-592.26 877.32,-591.96 894.29,-591.68"/>
<polygon fill="midnightblue" stroke="midnightblue" points="894.77,-595.17 904.71,-591.51 894.65,-588.18 894.77,-595.17"/>
</g>
<!-- Node8 -->
<g id="node8" class="node">
<title>Node8</title>
<g id="a_node8"><a xlink:href="class_block.html#acf20b290f1543e580ff1f2c6d98ff4c4" target="_top" xlink:title="Metoda zapisujaca do klasy nazwe pliku z wzorcowa bryla">
<polygon fill="none" stroke="black" points="897.5,-619 897.5,-638 1036.5,-638 1036.5,-619 897.5,-619"/>
<text text-anchor="middle" x="967" y="-626" font-family="Helvetica,sans-Serif" font-size="10.00">Block::set_sample_name</text>
</a>
</g>
</g>
<!-- Node4&#45;&gt;Node8 -->
<g id="edge7" class="edge">
<title>Node4&#45;&gt;Node8</title>
<path fill="none" stroke="midnightblue" d="M843.09,-604.86C863.33,-608.76 885.99,-613.11 906.29,-617.02"/>
<polygon fill="midnightblue" stroke="midnightblue" points="905.87,-620.5 916.35,-618.95 907.19,-613.63 905.87,-620.5"/>
</g>
<!-- Node9&#45;&gt;Node5 -->
<g id="edge9" class="edge">
<title>Node9&#45;&gt;Node5</title>
<path fill="none" stroke="midnightblue" d="M843.59,-511.5C859.73,-511.5 877.38,-511.5 894.11,-511.5"/>
<polygon fill="midnightblue" stroke="midnightblue" points="894.4,-515 904.4,-511.5 894.4,-508 894.4,-515"/>
</g>
<!-- Node9&#45;&gt;Node6 -->
<g id="edge10" class="edge">
<title>Node9&#45;&gt;Node6</title>
<path fill="none" stroke="midnightblue" d="M829.93,-521.09C854.38,-526.19 884.63,-532.51 910.4,-537.89"/>
<polygon fill="midnightblue" stroke="midnightblue" points="909.9,-541.36 920.4,-539.98 911.33,-534.51 909.9,-541.36"/>
</g>
<!-- Node10&#45;&gt;Node5 -->
<g id="edge12" class="edge">
<title>Node10&#45;&gt;Node5</title>
<path fill="none" stroke="midnightblue" d="M829.93,-539.91C854.38,-534.81 884.63,-528.49 910.4,-523.11"/>
<polygon fill="midnightblue" stroke="midnightblue" points="911.33,-526.49 920.4,-521.02 909.9,-519.64 911.33,-526.49"/>
</g>
<!-- Node10&#45;&gt;Node6 -->
<g id="edge13" class="edge">
<title>Node10&#45;&gt;Node6</title>
<path fill="none" stroke="midnightblue" d="M858.03,-549.5C867.42,-549.5 877.07,-549.5 886.54,-549.5"/>
<polygon fill="midnightblue" stroke="midnightblue" points="886.74,-553 896.74,-549.5 886.74,-546 886.74,-553"/>
</g>
<!-- Node10&#45;&gt;Node7 -->
<g id="edge14" class="edge">
<title>Node10&#45;&gt;Node7</title>
<path fill="none" stroke="midnightblue" d="M826.21,-559.01C852.31,-564.89 886,-572.48 913.76,-578.73"/>
<polygon fill="midnightblue" stroke="midnightblue" points="913.18,-582.19 923.7,-580.97 914.72,-575.36 913.18,-582.19"/>
</g>
<!-- Node10&#45;&gt;Node8 -->
<g id="edge15" class="edge">
<title>Node10&#45;&gt;Node8</title>
<path fill="none" stroke="midnightblue" d="M837.44,-559.02C845.66,-561.7 853.8,-565.12 861,-569.5 881.44,-581.92 876.65,-596.93 897,-609.5 900.41,-611.61 904.06,-613.48 907.83,-615.16"/>
<polygon fill="midnightblue" stroke="midnightblue" points="906.8,-618.51 917.39,-618.91 909.35,-612 906.8,-618.51"/>
</g>
<!-- Node11&#45;&gt;Node7 -->
<g id="edge17" class="edge">
<title>Node11&#45;&gt;Node7</title>
<path fill="none" stroke="midnightblue" d="M823.21,-627.98C835.33,-624.99 848.73,-621.65 861,-618.5 880.67,-613.45 902.37,-607.7 920.9,-602.72"/>
<polygon fill="midnightblue" stroke="midnightblue" points="921.82,-606.1 930.56,-600.13 920,-599.34 921.82,-606.1"/>
</g>
<!-- Node11&#45;&gt;Node8 -->
<g id="edge18" class="edge">
<title>Node11&#45;&gt;Node8</title>
<path fill="none" stroke="midnightblue" d="M849.19,-634.28C861.51,-633.67 874.51,-633.02 887.19,-632.4"/>
<polygon fill="midnightblue" stroke="midnightblue" points="887.45,-635.89 897.27,-631.9 887.11,-628.9 887.45,-635.89"/>
</g>
<!-- Node13 -->
<g id="node13" class="node">
<title>Node13</title>
<g id="a_node13"><a xlink:href="class_prism.html#a22c5467db5d960bddbaf9a52f55c55cb" target="_top" xlink:title="Metoda obracajaca graniastoslup o zadany kat w 3D wokol srodka figury">
<polygon fill="none" stroke="black" points="708,-262 708,-281 858,-281 858,-262 708,-262"/>
<text text-anchor="middle" x="783" y="-269" font-family="Helvetica,sans-Serif" font-size="10.00">Prism::rotation_around_cen</text>
</a>
</g>
</g>
<!-- Node12&#45;&gt;Node13 -->
<g id="edge20" class="edge">
<title>Node12&#45;&gt;Node13</title>
<path fill="none" stroke="midnightblue" d="M625.4,-305.95C655.67,-299.29 696.26,-290.36 728.53,-283.26"/>
<polygon fill="midnightblue" stroke="midnightblue" points="729.67,-286.6 738.69,-281.03 728.17,-279.76 729.67,-286.6"/>
</g>
<!-- Node16 -->
<g id="node16" class="node">
<title>Node16</title>
<g id="a_node16"><a xlink:href="class_cuboid.html#a6c697c2d9b36a14c43c7328876d5a1f0" target="_top" xlink:title="Metoda obracajaca prostopadloscian o zadany kat w 3D wokol srodka figury">
<polygon fill="none" stroke="black" points="705,-350 705,-369 861,-369 861,-350 705,-350"/>
<text text-anchor="middle" x="783" y="-357" font-family="Helvetica,sans-Serif" font-size="10.00">Cuboid::rotation_around_cen</text>
</a>
</g>
</g>
<!-- Node12&#45;&gt;Node16 -->
<g id="edge24" class="edge">
<title>Node12&#45;&gt;Node16</title>
<path fill="none" stroke="midnightblue" d="M625.4,-325.05C655.67,-331.71 696.26,-340.64 728.53,-347.74"/>
<polygon fill="midnightblue" stroke="midnightblue" points="728.17,-351.24 738.69,-349.97 729.67,-344.4 728.17,-351.24"/>
</g>
<!-- Node19 -->
<g id="node19" class="node">
<title>Node19</title>
<g id="a_node19"><a xlink:href="class_drone.html#aea963b77f42c204504542a3d9190d762" target="_top" xlink:title="Metoda uzywana przy konstruowania drona Ustawia rotory w ten sposob, ze srodek ich dolnej podstawy je...">
<polygon fill="none" stroke="black" points="725.5,-300.5 725.5,-330.5 840.5,-330.5 840.5,-300.5 725.5,-300.5"/>
<text text-anchor="start" x="733.5" y="-318.5" font-family="Helvetica,sans-Serif" font-size="10.00">Drone::set_rotors_in</text>
<text text-anchor="middle" x="783" y="-307.5" font-family="Helvetica,sans-Serif" font-size="10.00">_place</text>
</a>
</g>
</g>
<!-- Node12&#45;&gt;Node19 -->
<g id="edge27" class="edge">
<title>Node12&#45;&gt;Node19</title>
<path fill="none" stroke="midnightblue" d="M657.04,-315.5C676.12,-315.5 696.49,-315.5 715.14,-315.5"/>
<polygon fill="midnightblue" stroke="midnightblue" points="715.29,-319 725.29,-315.5 715.29,-312 715.29,-319"/>
</g>
<!-- Node14 -->
<g id="node14" class="node">
<title>Node14</title>
<g id="a_node14"><a xlink:href="class_prism.html#ade146d341c0468030f8c1258b7fe1041" target="_top" xlink:title="Metoda przesuwajaca graniastoslup o zadany wektor w 3D">
<polygon fill="none" stroke="black" points="1073,-303 1073,-322 1176,-322 1176,-303 1073,-303"/>
<text text-anchor="middle" x="1124.5" y="-310" font-family="Helvetica,sans-Serif" font-size="10.00">Prism::translation</text>
</a>
</g>
</g>
<!-- Node13&#45;&gt;Node14 -->
<g id="edge21" class="edge">
<title>Node13&#45;&gt;Node14</title>
<path fill="none" stroke="midnightblue" d="M814.82,-261.98C863.32,-248.59 959.86,-228.37 1037,-252.5 1064.03,-260.96 1090.04,-281.17 1106.35,-295.8"/>
<polygon fill="midnightblue" stroke="midnightblue" points="1104.24,-298.61 1113.95,-302.85 1109,-293.48 1104.24,-298.61"/>
</g>
<!-- Node15 -->
<g id="node15" class="node">
<title>Node15</title>
<g id="a_node15"><a xlink:href="class_prism.html#afed2c26932d5cb152fd620d2acbfbc3e" target="_top" xlink:title="Metoda przesuwajaca graniastoslup do srodka ukladu wspolrzednych (tak, ze srodek graniastoslupa pokry...">
<polygon fill="none" stroke="black" points="901.5,-262 901.5,-281 1032.5,-281 1032.5,-262 901.5,-262"/>
<text text-anchor="middle" x="967" y="-269" font-family="Helvetica,sans-Serif" font-size="10.00">Prism::translation_to_O</text>
</a>
</g>
</g>
<!-- Node13&#45;&gt;Node15 -->
<g id="edge22" class="edge">
<title>Node13&#45;&gt;Node15</title>
<path fill="none" stroke="midnightblue" d="M858.03,-271.5C869.03,-271.5 880.37,-271.5 891.38,-271.5"/>
<polygon fill="midnightblue" stroke="midnightblue" points="891.39,-275 901.39,-271.5 891.39,-268 891.39,-275"/>
</g>
<!-- Node15&#45;&gt;Node14 -->
<g id="edge23" class="edge">
<title>Node15&#45;&gt;Node14</title>
<path fill="none" stroke="midnightblue" d="M1004.07,-281.01C1025.97,-286.78 1054.14,-294.21 1077.62,-300.4"/>
<polygon fill="midnightblue" stroke="midnightblue" points="1076.8,-303.81 1087.36,-302.97 1078.58,-297.04 1076.8,-303.81"/>
</g>
<!-- Node17 -->
<g id="node17" class="node">
<title>Node17</title>
<g id="a_node17"><a xlink:href="class_cuboid.html#a3f6b1b9ea7de433af5b0d462d29f4272" target="_top" xlink:title="Metoda przesuwajaca prostopadloscian o zadany kat w 3D">
<polygon fill="none" stroke="black" points="912.5,-426 912.5,-445 1021.5,-445 1021.5,-426 912.5,-426"/>
<text text-anchor="middle" x="967" y="-433" font-family="Helvetica,sans-Serif" font-size="10.00">Cuboid::translation</text>
</a>
</g>
</g>
<!-- Node16&#45;&gt;Node17 -->
<g id="edge25" class="edge">
<title>Node16&#45;&gt;Node17</title>
<path fill="none" stroke="midnightblue" d="M839.36,-369.07C846.9,-371.53 854.34,-374.62 861,-378.5 881.11,-390.2 877.05,-404.53 897,-416.5 900.6,-418.66 904.44,-420.58 908.41,-422.28"/>
<polygon fill="midnightblue" stroke="midnightblue" points="907.24,-425.58 917.83,-425.89 909.75,-419.05 907.24,-425.58"/>
</g>
<!-- Node18 -->
<g id="node18" class="node">
<title>Node18</title>
<g id="a_node18"><a xlink:href="class_cuboid.html#a42bdce7c214e759cb6ea94d4f547a5b9" target="_top" xlink:title="Metoda przesuwajaca prostopadloscian do (0,0,0)">
<polygon fill="none" stroke="black" points="898.5,-388 898.5,-407 1035.5,-407 1035.5,-388 898.5,-388"/>
<text text-anchor="middle" x="967" y="-395" font-family="Helvetica,sans-Serif" font-size="10.00">Cuboid::translation_to_O</text>
</a>
</g>
</g>
<!-- Node16&#45;&gt;Node18 -->
<g id="edge26" class="edge">
<title>Node16&#45;&gt;Node18</title>
<path fill="none" stroke="midnightblue" d="M829.93,-369.09C854.38,-374.19 884.63,-380.51 910.4,-385.89"/>
<polygon fill="midnightblue" stroke="midnightblue" points="909.9,-389.36 920.4,-387.98 911.33,-382.51 909.9,-389.36"/>
</g>
<!-- Node20 -->
<g id="node20" class="node">
<title>Node20</title>
<g id="a_node20"><a xlink:href="class_cuboid.html#a99d30564d6129e6905c5333e04df9606" target="_top" xlink:title="Metoda zwracajaca wierzcholki prostopadloscianu do Vector3D">
<polygon fill="none" stroke="black" points="919.5,-300 919.5,-319 1014.5,-319 1014.5,-300 919.5,-300"/>
<text text-anchor="middle" x="967" y="-307" font-family="Helvetica,sans-Serif" font-size="10.00">Cuboid::get_cub</text>
</a>
</g>
</g>
<!-- Node19&#45;&gt;Node20 -->
<g id="edge28" class="edge">
<title>Node19&#45;&gt;Node20</title>
<path fill="none" stroke="midnightblue" d="M840.59,-313.63C862.39,-312.92 887.28,-312.1 909.11,-311.38"/>
<polygon fill="midnightblue" stroke="midnightblue" points="909.34,-314.87 919.22,-311.04 909.11,-307.87 909.34,-314.87"/>
</g>
<!-- Node21 -->
<g id="node21" class="node">
<title>Node21</title>
<g id="a_node21"><a xlink:href="class_prism.html#a4e2b0b9c37d6a53af869522a4bf364ac" target="_top" xlink:title="Metoda przesuwajaca graniastoslup o zadany wektor w 3D w taki sposob, ze srodek jego dolnej podstawy ...">
<polygon fill="none" stroke="black" points="915.5,-338.5 915.5,-368.5 1018.5,-368.5 1018.5,-338.5 915.5,-338.5"/>
<text text-anchor="start" x="923.5" y="-356.5" font-family="Helvetica,sans-Serif" font-size="10.00">Prism::translation</text>
<text text-anchor="middle" x="967" y="-345.5" font-family="Helvetica,sans-Serif" font-size="10.00">_of_lower_cen</text>
</a>
</g>
</g>
<!-- Node19&#45;&gt;Node21 -->
<g id="edge29" class="edge">
<title>Node19&#45;&gt;Node21</title>
<path fill="none" stroke="midnightblue" d="M840.59,-327.32C861.12,-331.6 884.4,-336.46 905.28,-340.82"/>
<polygon fill="midnightblue" stroke="midnightblue" points="904.81,-344.3 915.31,-342.92 906.24,-337.45 904.81,-344.3"/>
</g>
<!-- Node21&#45;&gt;Node14 -->
<g id="edge30" class="edge">
<title>Node21&#45;&gt;Node14</title>
<path fill="none" stroke="midnightblue" d="M1018.92,-340.08C1037.75,-335.11 1058.98,-329.51 1077.36,-324.66"/>
<polygon fill="midnightblue" stroke="midnightblue" points="1078.47,-327.99 1087.25,-322.06 1076.69,-321.22 1078.47,-327.99"/>
</g>
<!-- Node23 -->
<g id="node23" class="node">
<title>Node23</title>
<g id="a_node23"><a xlink:href="class_cuboid.html#a08fae08a1c8c70ada48ce3af46c82eee" target="_top" xlink:title="Metoda zwracajaca wysokosc prostopadloscianu">
<polygon fill="none" stroke="black" points="729,-666 729,-685 837,-685 837,-666 729,-666"/>
<text text-anchor="middle" x="783" y="-673" font-family="Helvetica,sans-Serif" font-size="10.00">Cuboid::get_height</text>
</a>
</g>
</g>
<!-- Node22&#45;&gt;Node23 -->
<g id="edge32" class="edge">
<title>Node22&#45;&gt;Node23</title>
<path fill="none" stroke="midnightblue" d="M625.4,-641.05C655.67,-647.71 696.26,-656.64 728.53,-663.74"/>
<polygon fill="midnightblue" stroke="midnightblue" points="728.17,-667.24 738.69,-665.97 729.67,-660.4 728.17,-667.24"/>
</g>
<!-- Node25 -->
<g id="node25" class="node">
<title>Node25</title>
<g id="a_node25"><a xlink:href="class_cuboid.html#aafa18740d9c98ca928395b9873a9c63d" target="_top" xlink:title="Metoda zwracajaca punkt centralny (czyli taki, ktorego odleglosci do kazdego wierzcholka sa rowne) pr...">
<polygon fill="none" stroke="black" points="724.5,-464 724.5,-483 841.5,-483 841.5,-464 724.5,-464"/>
<text text-anchor="middle" x="783" y="-471" font-family="Helvetica,sans-Serif" font-size="10.00">Cuboid::centre_point</text>
</a>
</g>
</g>
<!-- Node24&#45;&gt;Node25 -->
<g id="edge34" class="edge">
<title>Node24&#45;&gt;Node25</title>
<path fill="none" stroke="midnightblue" d="M615.06,-412.52C639.62,-423.42 674.09,-438.18 705,-449.5 715.98,-453.52 728,-457.47 739.2,-460.98"/>
<polygon fill="midnightblue" stroke="midnightblue" points="738.2,-464.33 748.79,-463.92 740.26,-457.64 738.2,-464.33"/>
</g>
<!-- Node26 -->
<g id="node26" class="node">
<title>Node26</title>
<g id="a_node26"><a xlink:href="class_drone.html#a9684cd7ce04b7e6191f3d6b3a745370b" target="_top" xlink:title="Przesuwa drona o zadany wektor w 3D">
<polygon fill="none" stroke="black" points="731,-388 731,-407 835,-407 835,-388 731,-388"/>
<text text-anchor="middle" x="783" y="-395" font-family="Helvetica,sans-Serif" font-size="10.00">Drone::translation</text>
</a>
</g>
</g>
<!-- Node24&#45;&gt;Node26 -->
<g id="edge35" class="edge">
<title>Node24&#45;&gt;Node26</title>
<path fill="none" stroke="midnightblue" d="M633.25,-397.5C659.94,-397.5 692.78,-397.5 720.8,-397.5"/>
<polygon fill="midnightblue" stroke="midnightblue" points="720.89,-401 730.89,-397.5 720.89,-394 720.89,-401"/>
</g>
<!-- Node26&#45;&gt;Node14 -->
<g id="edge36" class="edge">
<title>Node26&#45;&gt;Node14</title>
<path fill="none" stroke="midnightblue" d="M826.16,-407C837.88,-410.6 850.32,-415.36 861,-421.5 879.81,-432.32 876.77,-446.63 897,-454.5 954.99,-477.06 982.75,-484.98 1037,-454.5 1084.05,-428.07 1108.51,-364.51 1118.29,-332.15"/>
<polygon fill="midnightblue" stroke="midnightblue" points="1121.77,-332.69 1121.14,-322.11 1115.04,-330.77 1121.77,-332.69"/>
</g>
<!-- Node26&#45;&gt;Node17 -->
<g id="edge37" class="edge">
<title>Node26&#45;&gt;Node17</title>
<path fill="none" stroke="midnightblue" d="M829.93,-407.09C854.38,-412.19 884.63,-418.51 910.4,-423.89"/>
<polygon fill="midnightblue" stroke="midnightblue" points="909.9,-427.36 920.4,-425.98 911.33,-420.51 909.9,-427.36"/>
</g>
<!-- Node30 -->
<g id="node30" class="node">
<title>Node30</title>
<g id="a_node30"><a xlink:href="class_pz_g_1_1_lacze_do_g_n_u_plota.html#aa815ce8ec16e12fc246cf422e562869e" target="_top" xlink:title="Dodaje nazwę pliku.">
<polygon fill="none" stroke="black" points="327,-81.5 327,-111.5 457,-111.5 457,-81.5 327,-81.5"/>
<text text-anchor="start" x="335" y="-99.5" font-family="Helvetica,sans-Serif" font-size="10.00">PzG::LaczeDoGNUPlota</text>
<text text-anchor="middle" x="392" y="-88.5" font-family="Helvetica,sans-Serif" font-size="10.00">::DodajNazwePliku</text>
</a>
</g>
</g>
<!-- Node29&#45;&gt;Node30 -->
<g id="edge41" class="edge">
<title>Node29&#45;&gt;Node30</title>
<path fill="none" stroke="midnightblue" d="M291.33,-106.44C299.72,-105.6 308.3,-104.75 316.74,-103.9"/>
<polygon fill="midnightblue" stroke="midnightblue" points="317.33,-107.36 326.93,-102.89 316.64,-100.4 317.33,-107.36"/>
</g>
<!-- Node29&#45;&gt;Node32 -->
<g id="edge43" class="edge">
<title>Node29&#45;&gt;Node32</title>
<path fill="none" stroke="midnightblue" d="M271.19,-123.01C285.53,-125.7 301.43,-128.69 316.84,-131.58"/>
<polygon fill="midnightblue" stroke="midnightblue" points="316.4,-135.06 326.87,-133.46 317.69,-128.18 316.4,-135.06"/>
</g>
<!-- Node31 -->
<g id="node31" class="node">
<title>Node31</title>
<g id="a_node31"><a xlink:href="namespace_pz_g.html#ae1aad0c681853d7e47da4cdfccefc102" target="_top" xlink:title="Funkcja pomocnicza, sprawdza czy plik o podanej nazwie jest na dysku.">
<polygon fill="none" stroke="black" points="533.5,-67 533.5,-86 628.5,-86 628.5,-67 533.5,-67"/>
<text text-anchor="middle" x="581" y="-74" font-family="Helvetica,sans-Serif" font-size="10.00">PzG::CzyJestPlik</text>
</a>
</g>
</g>
<!-- Node30&#45;&gt;Node31 -->
<g id="edge42" class="edge">
<title>Node30&#45;&gt;Node31</title>
<path fill="none" stroke="midnightblue" d="M457.09,-89.65C478.63,-87.34 502.48,-84.79 523.39,-82.55"/>
<polygon fill="midnightblue" stroke="midnightblue" points="523.83,-86.03 533.4,-81.48 523.09,-79.07 523.83,-86.03"/>
</g>
<!-- Node33 -->
<g id="node33" class="node">
<title>Node33</title>
<g id="a_node33"><a xlink:href="namespace_pz_g.html#aa010184f31b26bb561b42f22438b821e" target="_top" xlink:title="Funkcja pomocnicza, dopisuje do polecenia wpisy związane z rysowaniem z pliku.">
<polygon fill="none" stroke="black" points="498,-155 498,-174 664,-174 664,-155 498,-155"/>
<text text-anchor="middle" x="581" y="-162" font-family="Helvetica,sans-Serif" font-size="10.00">PzG::DopiszRysowanieZPlikow</text>
</a>
</g>
</g>
<!-- Node32&#45;&gt;Node33 -->
<g id="edge44" class="edge">
<title>Node32&#45;&gt;Node33</title>
<path fill="none" stroke="midnightblue" d="M457.09,-152.01C467.03,-153.02 477.46,-154.08 487.86,-155.14"/>
<polygon fill="midnightblue" stroke="midnightblue" points="487.51,-158.62 497.82,-156.15 488.22,-151.66 487.51,-158.62"/>
</g>
<!-- Node34 -->
<g id="node34" class="node">
<title>Node34</title>
<g id="a_node34"><a xlink:href="namespace_pz_g.html#a7227cb39c785b1c746b6bb5515c0b781" target="_top" xlink:title="Dodaje do listy rysowanych punktów, punkty o różnych rozmiarach.">
<polygon fill="none" stroke="black" points="493,-105.5 493,-135.5 669,-135.5 669,-105.5 493,-105.5"/>
<text text-anchor="start" x="501" y="-123.5" font-family="Helvetica,sans-Serif" font-size="10.00">PzG::DopiszRysowanieZRoznych</text>
<text text-anchor="middle" x="581" y="-112.5" font-family="Helvetica,sans-Serif" font-size="10.00">Punktow</text>
</a>
</g>
</g>
<!-- Node32&#45;&gt;Node34 -->
<g id="edge45" class="edge">
<title>Node32&#45;&gt;Node34</title>
<path fill="none" stroke="midnightblue" d="M457.09,-136.93C465.38,-135.82 474,-134.67 482.67,-133.51"/>
<polygon fill="midnightblue" stroke="midnightblue" points="483.4,-136.95 492.85,-132.15 482.48,-130.01 483.4,-136.95"/>
</g>
<!-- Node35 -->
<g id="node35" class="node">
<title>Node35</title>
<g id="a_node35"><a xlink:href="namespace_pz_g.html#a169c311f0e0b6ffadcd44e91e749f72d" target="_top" xlink:title="Wczytuje z pliku listę punktów.">
<polygon fill="none" stroke="black" points="710.5,-74.5 710.5,-104.5 855.5,-104.5 855.5,-74.5 710.5,-74.5"/>
<text text-anchor="start" x="718.5" y="-92.5" font-family="Helvetica,sans-Serif" font-size="10.00">PzG::WczytajListeRoznych</text>
<text text-anchor="middle" x="783" y="-81.5" font-family="Helvetica,sans-Serif" font-size="10.00">Punktow</text>
</a>
</g>
</g>
<!-- Node34&#45;&gt;Node35 -->
<g id="edge46" class="edge">
<title>Node34&#45;&gt;Node35</title>
<path fill="none" stroke="midnightblue" d="M669.14,-106.99C679.48,-105.39 690.01,-103.76 700.28,-102.17"/>
<polygon fill="midnightblue" stroke="midnightblue" points="701.09,-105.58 710.43,-100.59 700.01,-98.67 701.09,-105.58"/>
</g>
<!-- Node36 -->
<g id="node36" class="node">
<title>Node36</title>
<g id="a_node36"><a xlink:href="class_pz_g_1_1_atrybuty_rysowania.html#ab068535b4d2f755c394557d1da72a4eb" target="_top" xlink:title="Zmienia kolor rysowania.">
<polygon fill="none" stroke="black" points="898.5,-49.5 898.5,-79.5 1035.5,-79.5 1035.5,-49.5 898.5,-49.5"/>
<text text-anchor="start" x="906.5" y="-67.5" font-family="Helvetica,sans-Serif" font-size="10.00">PzG::AtrybutyRysowania</text>
<text text-anchor="middle" x="967" y="-56.5" font-family="Helvetica,sans-Serif" font-size="10.00">::ZmienKolor</text>
</a>
</g>
</g>
<!-- Node35&#45;&gt;Node36 -->
<g id="edge47" class="edge">
<title>Node35&#45;&gt;Node36</title>
<path fill="none" stroke="midnightblue" d="M855.67,-79.66C866.3,-78.2 877.3,-76.68 888.05,-75.21"/>
<polygon fill="midnightblue" stroke="midnightblue" points="888.83,-78.63 898.26,-73.81 887.87,-71.7 888.83,-78.63"/>
</g>
<!-- Node37 -->
<g id="node37" class="node">
<title>Node37</title>
<g id="a_node37"><a xlink:href="class_pz_g_1_1_atrybuty_rysowania.html#af4b140eb03bc10b6fd816fad63f8372e" target="_top" xlink:title="Zmienia rozmiar rysowania.">
<polygon fill="none" stroke="black" points="898.5,-0.5 898.5,-30.5 1035.5,-30.5 1035.5,-0.5 898.5,-0.5"/>
<text text-anchor="start" x="906.5" y="-18.5" font-family="Helvetica,sans-Serif" font-size="10.00">PzG::AtrybutyRysowania</text>
<text text-anchor="middle" x="967" y="-7.5" font-family="Helvetica,sans-Serif" font-size="10.00">::ZmienRozmiar</text>
</a>
</g>
</g>
<!-- Node35&#45;&gt;Node37 -->
<g id="edge48" class="edge">
<title>Node35&#45;&gt;Node37</title>
<path fill="none" stroke="midnightblue" d="M816.34,-74.35C838.77,-64.04 869.46,-50.36 897,-39.5 901.67,-37.66 906.55,-35.81 911.46,-34"/>
<polygon fill="midnightblue" stroke="midnightblue" points="912.68,-37.28 920.89,-30.59 910.3,-30.7 912.68,-37.28"/>
</g>
<!-- Node38 -->
<g id="node38" class="node">
<title>Node38</title>
<g id="a_node38"><a xlink:href="class_pz_g_1_1_atrybuty_rysowania.html#a2ac97706124b14072715ecf3f07e82b4" target="_top" xlink:title="Zmienia styl rysowania.">
<polygon fill="none" stroke="black" points="898.5,-98.5 898.5,-128.5 1035.5,-128.5 1035.5,-98.5 898.5,-98.5"/>
<text text-anchor="start" x="906.5" y="-116.5" font-family="Helvetica,sans-Serif" font-size="10.00">PzG::AtrybutyRysowania</text>
<text text-anchor="middle" x="967" y="-105.5" font-family="Helvetica,sans-Serif" font-size="10.00">::ZmienStyl</text>
</a>
</g>
</g>
<!-- Node35&#45;&gt;Node38 -->
<g id="edge49" class="edge">
<title>Node35&#45;&gt;Node38</title>
<path fill="none" stroke="midnightblue" d="M855.67,-98.95C866.3,-100.35 877.3,-101.8 888.05,-103.22"/>
<polygon fill="midnightblue" stroke="midnightblue" points="887.88,-106.73 898.26,-104.57 888.8,-99.79 887.88,-106.73"/>
</g>
<!-- Node39&#45;&gt;Node2 -->
<g id="edge51" class="edge">
<title>Node39&#45;&gt;Node2</title>
<path fill="none" stroke="midnightblue" d="M236.23,-248.63C266.43,-277.68 332.64,-341.36 367.87,-375.25"/>
<polygon fill="midnightblue" stroke="midnightblue" points="365.67,-377.99 375.3,-382.4 370.52,-372.95 365.67,-377.99"/>
</g>
<!-- Node39&#45;&gt;Node12 -->
<g id="edge58" class="edge">
<title>Node39&#45;&gt;Node12</title>
<path fill="none" stroke="midnightblue" d="M240.03,-248.53C260.48,-263.35 294.12,-285.22 327,-295.5 381.1,-312.41 444.71,-317.38 494.61,-318.13"/>
<polygon fill="midnightblue" stroke="midnightblue" points="494.69,-321.64 504.73,-318.23 494.76,-314.64 494.69,-321.64"/>
</g>
<!-- Node39&#45;&gt;Node32 -->
<g id="edge62" class="edge">
<title>Node39&#45;&gt;Node32</title>
<path fill="none" stroke="midnightblue" d="M249.81,-218.37C278.2,-203.72 321.4,-181.42 352.54,-165.35"/>
<polygon fill="midnightblue" stroke="midnightblue" points="354.51,-168.27 361.79,-160.58 351.3,-162.05 354.51,-168.27"/>
</g>
<!-- Node39&#45;&gt;Node40 -->
<g id="edge52" class="edge">
<title>Node39&#45;&gt;Node40</title>
<path fill="none" stroke="midnightblue" d="M282.3,-231.44C346.61,-229.29 447,-225.94 513.13,-223.73"/>
<polygon fill="midnightblue" stroke="midnightblue" points="513.56,-227.22 523.44,-223.39 513.33,-220.22 513.56,-227.22"/>
</g>
<!-- Node39&#45;&gt;Node45 -->
<g id="edge59" class="edge">
<title>Node39&#45;&gt;Node45</title>
<path fill="none" stroke="midnightblue" d="M282.05,-247.22C293.83,-249.84 306.26,-252.61 318.34,-255.31"/>
<polygon fill="midnightblue" stroke="midnightblue" points="317.87,-258.79 328.39,-257.55 319.39,-251.95 317.87,-258.79"/>
</g>
<!-- Node40&#45;&gt;Node5 -->
<g id="edge55" class="edge">
<title>Node40&#45;&gt;Node5</title>
<path fill="none" stroke="midnightblue" d="M606.02,-236.52C625.65,-249.97 652.72,-271.4 669,-296.5 699.3,-343.22 664.61,-378.17 705,-416.5 756.77,-465.62 795.38,-426.47 861,-454.5 878.46,-461.96 880.46,-468.18 897,-477.5 909.49,-484.54 923.63,-491.65 935.84,-497.53"/>
<polygon fill="midnightblue" stroke="midnightblue" points="934.63,-500.83 945.16,-501.97 937.64,-494.51 934.63,-500.83"/>
</g>
<!-- Node41 -->
<g id="node41" class="node">
<title>Node41</title>
<g id="a_node41"><a xlink:href="class_cuboid.html#abc62d20a2f1418af1c35e369da77f0fc" target="_top" xlink:title=" ">
<polygon fill="none" stroke="black" points="719,-199 719,-218 847,-218 847,-199 719,-199"/>
<text text-anchor="middle" x="783" y="-206" font-family="Helvetica,sans-Serif" font-size="10.00">Cuboid::Cuboid_To_File</text>
</a>
</g>
</g>
<!-- Node40&#45;&gt;Node41 -->
<g id="edge53" class="edge">
<title>Node40&#45;&gt;Node41</title>
<path fill="none" stroke="midnightblue" d="M638.51,-217.83C660.34,-216.41 685.62,-214.76 708.81,-213.26"/>
<polygon fill="midnightblue" stroke="midnightblue" points="709.2,-216.74 718.95,-212.6 708.74,-209.75 709.2,-216.74"/>
</g>
<!-- Node43 -->
<g id="node43" class="node">
<title>Node43</title>
<g id="a_node43"><a xlink:href="class_prism.html#a2de0dab6d117fc3c8dcbc3c384d0fccd" target="_top" xlink:title=" ">
<polygon fill="none" stroke="black" points="725,-154 725,-173 841,-173 841,-154 725,-154"/>
<text text-anchor="middle" x="783" y="-161" font-family="Helvetica,sans-Serif" font-size="10.00">Prism::Prism_To_File</text>
</a>
</g>
</g>
<!-- Node40&#45;&gt;Node43 -->
<g id="edge56" class="edge">
<title>Node40&#45;&gt;Node43</title>
<path fill="none" stroke="midnightblue" d="M633.77,-206.49C666.56,-196.98 708.45,-184.83 739.33,-175.87"/>
<polygon fill="midnightblue" stroke="midnightblue" points="740.32,-179.23 748.95,-173.09 738.37,-172.51 740.32,-179.23"/>
</g>
<!-- Node42 -->
<g id="node42" class="node">
<title>Node42</title>
<g id="a_node42"><a xlink:href="class_cuboid.html#a12a97376443b1a15ae8342c1c75b3e1e" target="_top" xlink:title="Metoda wypisania odpowiednich wierzcholkow do pliku zgodnie z zaproponowanym sposobem zadaniu dron">
<polygon fill="none" stroke="black" points="899.5,-186 899.5,-205 1034.5,-205 1034.5,-186 899.5,-186"/>
<text text-anchor="middle" x="967" y="-193" font-family="Helvetica,sans-Serif" font-size="10.00">Cuboid::print_cuboid_3D</text>
</a>
</g>
</g>
<!-- Node41&#45;&gt;Node42 -->
<g id="edge54" class="edge">
<title>Node41&#45;&gt;Node42</title>
<path fill="none" stroke="midnightblue" d="M847.14,-203.99C860.69,-203.02 875.15,-201.99 889.16,-200.99"/>
<polygon fill="midnightblue" stroke="midnightblue" points="889.53,-204.47 899.25,-200.27 889.03,-197.49 889.53,-204.47"/>
</g>
<!-- Node44 -->
<g id="node44" class="node">
<title>Node44</title>
<g id="a_node44"><a xlink:href="class_prism.html#a764c6940e4fb65303981e8b877b28561" target="_top" xlink:title="Metoda wypisania odpowiednich wierzcholkow do pliku zgodnie z zaproponowanym sposobem zadaniu dron">
<polygon fill="none" stroke="black" points="904.5,-148 904.5,-167 1029.5,-167 1029.5,-148 904.5,-148"/>
<text text-anchor="middle" x="967" y="-155" font-family="Helvetica,sans-Serif" font-size="10.00">Prism::print_prism_3D</text>
</a>
</g>
</g>
<!-- Node43&#45;&gt;Node44 -->
<g id="edge57" class="edge">
<title>Node43&#45;&gt;Node44</title>
<path fill="none" stroke="midnightblue" d="M841.09,-161.62C857.91,-161.06 876.53,-160.45 894.15,-159.87"/>
<polygon fill="midnightblue" stroke="midnightblue" points="894.5,-163.36 904.38,-159.53 894.27,-156.36 894.5,-163.36"/>
</g>
<!-- Node45&#45;&gt;Node13 -->
<g id="edge61" class="edge">
<title>Node45&#45;&gt;Node13</title>
<path fill="none" stroke="midnightblue" d="M455.93,-271.5C521.65,-271.5 625.1,-271.5 697.81,-271.5"/>
<polygon fill="midnightblue" stroke="midnightblue" points="697.86,-275 707.86,-271.5 697.86,-268 697.86,-275"/>
</g>
<!-- Node45&#45;&gt;Node40 -->
<g id="edge60" class="edge">
<title>Node45&#45;&gt;Node40</title>
<path fill="none" stroke="midnightblue" d="M449.11,-256.5C469.45,-251.06 492.61,-244.87 513.74,-239.22"/>
<polygon fill="midnightblue" stroke="midnightblue" points="514.85,-242.54 523.61,-236.58 513.05,-235.78 514.85,-242.54"/>
</g>
</g>
</svg>
