<?xml version="1.0" encoding="UTF-8" standalone="no"?>
<!DOCTYPE svg PUBLIC "-//W3C//DTD SVG 1.1//EN"
 "http://www.w3.org/Graphics/SVG/1.1/DTD/svg11.dtd">
<!-- Generated by graphviz version 2.43.0 (0)
 -->
<!-- Title: Scene::check_objects_intersect Pages: 1 -->
<svg width="861pt" height="230pt"
 viewBox="0.00 0.00 861.00 229.50" xmlns="http://www.w3.org/2000/svg" xmlns:xlink="http://www.w3.org/1999/xlink">
<g id="graph0" class="graph" transform="scale(1 1) rotate(0) translate(4 225.5)">
<title>Scene::check_objects_intersect</title>
<!-- Node1 -->
<g id="node1" class="node">
<title>Node1</title>
<g id="a_node1"><a xlink:title="Sprawdza czy jakis objekt koliduje z dronem jesli ten mialby wyladowac w danym miejscu">
<polygon fill="#bfbfbf" stroke="black" points="0,-101.5 0,-131.5 121,-131.5 121,-101.5 0,-101.5"/>
<text text-anchor="start" x="8" y="-119.5" font-family="Helvetica,sans-Serif" font-size="10.00">Scene::check_objects</text>
<text text-anchor="middle" x="60.5" y="-108.5" font-family="Helvetica,sans-Serif" font-size="10.00">_intersect</text>
</a>
</g>
</g>
<!-- Node2 -->
<g id="node2" class="node">
<title>Node2</title>
<g id="a_node2"><a xlink:href="class_drone.html#a5369b8139325f0f8d7eb0a7db7c684cd" target="_top" xlink:title="Methoda sprawdzajaca czy rzutowanie drona na plaszczyzne XY &#160;&#160;przecina sie z rzutowaniem prostopadlos...">
<polygon fill="none" stroke="black" points="157,-107 157,-126 300,-126 300,-107 157,-107"/>
<text text-anchor="middle" x="228.5" y="-114" font-family="Helvetica,sans-Serif" font-size="10.00">Drone::check_intersection</text>
</a>
</g>
</g>
<!-- Node1&#45;&gt;Node2 -->
<g id="edge1" class="edge">
<title>Node1&#45;&gt;Node2</title>
<path fill="none" stroke="midnightblue" d="M121.43,-116.5C129.71,-116.5 138.32,-116.5 146.89,-116.5"/>
<polygon fill="midnightblue" stroke="midnightblue" points="146.92,-120 156.92,-116.5 146.92,-113 146.92,-120"/>
</g>
<!-- Node3 -->
<g id="node3" class="node">
<title>Node3</title>
<g id="a_node3"><a xlink:href="class_drone.html#a0a57fc27f1cfacca5172426c15749b75" target="_top" xlink:title="Methoda powieksza rzutowana figure o radius w odpowiedni sposob.">
<polygon fill="none" stroke="black" points="337.5,-202 337.5,-221 470.5,-221 470.5,-202 337.5,-202"/>
<text text-anchor="middle" x="404" y="-209" font-family="Helvetica,sans-Serif" font-size="10.00">Drone::enlargen_by_rad</text>
</a>
</g>
</g>
<!-- Node2&#45;&gt;Node3 -->
<g id="edge2" class="edge">
<title>Node2&#45;&gt;Node3</title>
<path fill="none" stroke="midnightblue" d="M240.2,-126.08C258.54,-142.03 297.72,-174.1 336,-192.5 340.71,-194.77 345.75,-196.81 350.86,-198.64"/>
<polygon fill="midnightblue" stroke="midnightblue" points="350.13,-202.08 360.72,-201.9 352.33,-195.44 350.13,-202.08"/>
</g>
<!-- Node4 -->
<g id="node4" class="node">
<title>Node4</title>
<g id="a_node4"><a xlink:href="class_cuboid.html#a215319dead51277df1c35673c1eb29b3" target="_top" xlink:title="Metoda zwracajaca wierzcholki podstawy prostopadloscianu zrzutowane na plaszczyzne XY do tablicy">
<polygon fill="none" stroke="black" points="342,-164 342,-183 466,-183 466,-164 342,-164"/>
<text text-anchor="middle" x="404" y="-171" font-family="Helvetica,sans-Serif" font-size="10.00">Cuboid::get_basis_pro</text>
</a>
</g>
</g>
<!-- Node2&#45;&gt;Node4 -->
<g id="edge3" class="edge">
<title>Node2&#45;&gt;Node4</title>
<path fill="none" stroke="midnightblue" d="M254.73,-126.04C276.21,-134.03 307.95,-145.53 336,-154.5 343.05,-156.75 350.55,-159.02 357.89,-161.15"/>
<polygon fill="midnightblue" stroke="midnightblue" points="357.17,-164.59 367.75,-163.98 359.1,-157.86 357.17,-164.59"/>
</g>
<!-- Node5 -->
<g id="node5" class="node">
<title>Node5</title>
<g id="a_node5"><a xlink:href="class_drone.html#ab0684fb71c2da878193af0f27a44d276" target="_top" xlink:title="Zwraca promien okregu rzutowany przez dron na plaszczyzne XY">
<polygon fill="none" stroke="black" points="336,-126 336,-145 472,-145 472,-126 336,-126"/>
<text text-anchor="middle" x="404" y="-133" font-family="Helvetica,sans-Serif" font-size="10.00">Drone::get_drone_radius</text>
</a>
</g>
</g>
<!-- Node2&#45;&gt;Node5 -->
<g id="edge4" class="edge">
<title>Node2&#45;&gt;Node5</title>
<path fill="none" stroke="midnightblue" d="M300.07,-124.23C308.57,-125.16 317.28,-126.11 325.86,-127.05"/>
<polygon fill="midnightblue" stroke="midnightblue" points="325.54,-130.54 335.86,-128.15 326.3,-123.58 325.54,-130.54"/>
</g>
<!-- Node9 -->
<g id="node9" class="node">
<title>Node9</title>
<g id="a_node9"><a xlink:href="class_drone.html#ab717196d8d03bde942a75d1f693fe362" target="_top" xlink:title="Zwraca rzutowanie pozycje srodka podstawy body na XY">
<polygon fill="none" stroke="black" points="348.5,-88 348.5,-107 459.5,-107 459.5,-88 348.5,-88"/>
<text text-anchor="middle" x="404" y="-95" font-family="Helvetica,sans-Serif" font-size="10.00">Drone::get_pos_pro</text>
</a>
</g>
</g>
<!-- Node2&#45;&gt;Node9 -->
<g id="edge8" class="edge">
<title>Node2&#45;&gt;Node9</title>
<path fill="none" stroke="midnightblue" d="M300.07,-108.77C312.68,-107.39 325.76,-105.96 338.19,-104.6"/>
<polygon fill="midnightblue" stroke="midnightblue" points="338.9,-108.04 348.46,-103.47 338.14,-101.08 338.9,-108.04"/>
</g>
<!-- Node11 -->
<g id="node11" class="node">
<title>Node11</title>
<g id="a_node11"><a xlink:href="class_drone.html#a0920ad155e2877898f21a038d68e96f9" target="_top" xlink:title="Methoda sprawdza czy punkt 0,0,0 miesci sie w powiekszonym przez metode &#160;&#160;enlargen_by_rad obszarze w ...">
<polygon fill="none" stroke="black" points="349,-50 349,-69 459,-69 459,-50 349,-50"/>
<text text-anchor="middle" x="404" y="-57" font-family="Helvetica,sans-Serif" font-size="10.00">Drone::main_check</text>
</a>
</g>
</g>
<!-- Node2&#45;&gt;Node11 -->
<g id="edge11" class="edge">
<title>Node2&#45;&gt;Node11</title>
<path fill="none" stroke="midnightblue" d="M254.73,-106.96C276.21,-98.97 307.95,-87.47 336,-78.5 343.05,-76.25 350.55,-73.98 357.89,-71.85"/>
<polygon fill="midnightblue" stroke="midnightblue" points="359.1,-75.14 367.75,-69.02 357.17,-68.41 359.1,-75.14"/>
</g>
<!-- Node12 -->
<g id="node12" class="node">
<title>Node12</title>
<g id="a_node12"><a xlink:href="class_drone.html#a8e86dfee9cdbdc1d2791ad51d1212517" target="_top" xlink:title="Methoda uzywana przy check_intersection() przesuwajaca i rotujaca caly uklad.">
<polygon fill="none" stroke="black" points="339.5,-0.5 339.5,-30.5 468.5,-30.5 468.5,-0.5 339.5,-0.5"/>
<text text-anchor="start" x="347.5" y="-18.5" font-family="Helvetica,sans-Serif" font-size="10.00">Drone::new_coordinate</text>
<text text-anchor="middle" x="404" y="-7.5" font-family="Helvetica,sans-Serif" font-size="10.00">_system_intersection</text>
</a>
</g>
</g>
<!-- Node2&#45;&gt;Node12 -->
<g id="edge12" class="edge">
<title>Node2&#45;&gt;Node12</title>
<path fill="none" stroke="midnightblue" d="M240.97,-106.76C259.8,-91.13 298.89,-60.22 336,-40.5 339.93,-38.41 344.07,-36.42 348.29,-34.53"/>
<polygon fill="midnightblue" stroke="midnightblue" points="349.76,-37.71 357.6,-30.59 347.02,-31.27 349.76,-37.71"/>
</g>
<!-- Node6 -->
<g id="node6" class="node">
<title>Node6</title>
<g id="a_node6"><a xlink:href="class_prism.html#ab08ae36567a12753d78ae4b5fb2fbfa2" target="_top" xlink:title="Metoda zwracajaca dlugosc przekatnej podstawy prostopadloscianu">
<polygon fill="none" stroke="black" points="511,-164 511,-183 675,-183 675,-164 511,-164"/>
<text text-anchor="middle" x="593" y="-171" font-family="Helvetica,sans-Serif" font-size="10.00">Prism::get_basis_diagonal_len</text>
</a>
</g>
</g>
<!-- Node5&#45;&gt;Node6 -->
<g id="edge5" class="edge">
<title>Node5&#45;&gt;Node6</title>
<path fill="none" stroke="midnightblue" d="M452.19,-145.09C477.42,-150.22 508.67,-156.57 535.23,-161.96"/>
<polygon fill="midnightblue" stroke="midnightblue" points="534.65,-165.42 545.15,-163.98 536.05,-158.56 534.65,-165.42"/>
</g>
<!-- Node7 -->
<g id="node7" class="node">
<title>Node7</title>
<g id="a_node7"><a xlink:href="class_cuboid.html#a79e4e3337e02d8f8a757561cedbdb71f" target="_top" xlink:title="Metoda zwracajaca dlugosc przekatnej podstawy prostopadloscianu">
<polygon fill="none" stroke="black" points="508,-126 508,-145 678,-145 678,-126 508,-126"/>
<text text-anchor="middle" x="593" y="-133" font-family="Helvetica,sans-Serif" font-size="10.00">Cuboid::get_basis_diagonal_len</text>
</a>
</g>
</g>
<!-- Node5&#45;&gt;Node7 -->
<g id="edge6" class="edge">
<title>Node5&#45;&gt;Node7</title>
<path fill="none" stroke="midnightblue" d="M472.25,-135.5C480.53,-135.5 489.1,-135.5 497.69,-135.5"/>
<polygon fill="midnightblue" stroke="midnightblue" points="497.76,-139 507.76,-135.5 497.76,-132 497.76,-139"/>
</g>
<!-- Node8 -->
<g id="node8" class="node">
<title>Node8</title>
<g id="a_node8"><a xlink:href="class_cuboid.html#a0e7f901199262984ab6ba0da01d96c40" target="_top" xlink:title="Metoda zwracajaca srodek podstawy ostroslupa">
<polygon fill="none" stroke="black" points="714,-107 714,-126 853,-126 853,-107 714,-107"/>
<text text-anchor="middle" x="783.5" y="-114" font-family="Helvetica,sans-Serif" font-size="10.00">Cuboid::get_basis_centre</text>
</a>
</g>
</g>
<!-- Node7&#45;&gt;Node8 -->
<g id="edge7" class="edge">
<title>Node7&#45;&gt;Node8</title>
<path fill="none" stroke="midnightblue" d="M678.05,-127.03C686.57,-126.17 695.19,-125.3 703.65,-124.45"/>
<polygon fill="midnightblue" stroke="midnightblue" points="704.27,-127.9 713.86,-123.42 703.56,-120.94 704.27,-127.9"/>
</g>
<!-- Node10 -->
<g id="node10" class="node">
<title>Node10</title>
<g id="a_node10"><a xlink:href="class_drone.html#abf6bc328fea7ec556e5a23ca37cf6d8e" target="_top" xlink:title="Zwraca pozycje srodka podstawy body">
<polygon fill="none" stroke="black" points="548,-88 548,-107 638,-107 638,-88 548,-88"/>
<text text-anchor="middle" x="593" y="-95" font-family="Helvetica,sans-Serif" font-size="10.00">Drone::get_pos</text>
</a>
</g>
</g>
<!-- Node9&#45;&gt;Node10 -->
<g id="edge9" class="edge">
<title>Node9&#45;&gt;Node10</title>
<path fill="none" stroke="midnightblue" d="M459.59,-97.5C484.12,-97.5 512.99,-97.5 537.5,-97.5"/>
<polygon fill="midnightblue" stroke="midnightblue" points="537.72,-101 547.72,-97.5 537.72,-94 537.72,-101"/>
</g>
<!-- Node10&#45;&gt;Node8 -->
<g id="edge10" class="edge">
<title>Node10&#45;&gt;Node8</title>
<path fill="none" stroke="midnightblue" d="M638.19,-101.95C657.73,-103.92 681.3,-106.3 703.68,-108.56"/>
<polygon fill="midnightblue" stroke="midnightblue" points="703.56,-112.06 713.86,-109.58 704.27,-105.1 703.56,-112.06"/>
</g>
</g>
</svg>
