<?xml version="1.0" encoding="UTF-8" standalone="no"?>
<!DOCTYPE svg PUBLIC "-//W3C//DTD SVG 1.1//EN"
 "http://www.w3.org/Graphics/SVG/1.1/DTD/svg11.dtd">
<!-- Generated by graphviz version 2.43.0 (0)
 -->
<!-- Title: Volcano::operator= Pages: 1 -->
<svg width="443pt" height="66pt"
 viewBox="0.00 0.00 443.00 66.00" xmlns="http://www.w3.org/2000/svg" xmlns:xlink="http://www.w3.org/1999/xlink">
<g id="graph0" class="graph" transform="scale(1 1) rotate(0) translate(4 62)">
<title>Volcano::operator=</title>
<!-- Node1 -->
<g id="node1" class="node">
<title>Node1</title>
<g id="a_node1"><a xlink:title="Przeciazenie operatora przypisania, umozliwia stosowanie metod typu Prism na obiekcie typu Volcano">
<polygon fill="#bfbfbf" stroke="black" points="0,-19.5 0,-38.5 110,-38.5 110,-19.5 0,-19.5"/>
<text text-anchor="middle" x="55" y="-26.5" font-family="Helvetica,sans-Serif" font-size="10.00">Volcano::operator=</text>
</a>
</g>
</g>
<!-- Node2 -->
<g id="node2" class="node">
<title>Node2</title>
<g id="a_node2"><a xlink:href="class_prism.html#aafbcafcb7ef643ea3a9f95ba270bb0e2" target="_top" xlink:title="Metoda zwracajaca wierzcholki graniastoslupa do tablicy 2x6 Vector3D">
<polygon fill="none" stroke="black" points="169.5,-38.5 169.5,-57.5 253.5,-57.5 253.5,-38.5 169.5,-38.5"/>
<text text-anchor="middle" x="211.5" y="-45.5" font-family="Helvetica,sans-Serif" font-size="10.00">Prism::get_pri</text>
</a>
</g>
</g>
<!-- Node1&#45;&gt;Node2 -->
<g id="edge1" class="edge">
<title>Node1&#45;&gt;Node2</title>
<path fill="none" stroke="midnightblue" d="M110.04,-35.65C126.03,-37.61 143.48,-39.76 159.28,-41.7"/>
<polygon fill="midnightblue" stroke="midnightblue" points="159.05,-45.2 169.4,-42.95 159.9,-38.25 159.05,-45.2"/>
</g>
<!-- Node3 -->
<g id="node3" class="node">
<title>Node3</title>
<g id="a_node3"><a xlink:href="class_volcano.html#a6da2e3f5ecf61268b3bcf467d9f1267e" target="_top" xlink:title="Metoda zwracajaca punkty specjalne Volcano :">
<polygon fill="none" stroke="black" points="146,-0.5 146,-19.5 277,-19.5 277,-0.5 146,-0.5"/>
<text text-anchor="middle" x="211.5" y="-7.5" font-family="Helvetica,sans-Serif" font-size="10.00">Volcano::special_points</text>
</a>
</g>
</g>
<!-- Node1&#45;&gt;Node3 -->
<g id="edge2" class="edge">
<title>Node1&#45;&gt;Node3</title>
<path fill="none" stroke="midnightblue" d="M110.04,-22.35C118.36,-21.33 127.07,-20.26 135.74,-19.19"/>
<polygon fill="midnightblue" stroke="midnightblue" points="136.38,-22.64 145.88,-17.95 135.52,-15.69 136.38,-22.64"/>
</g>
<!-- Node4 -->
<g id="node4" class="node">
<title>Node4</title>
<g id="a_node4"><a xlink:href="class_volcano.html#ad4d02f553b43cb787cf2370750e0c525" target="_top" xlink:title="Metoda zwracajaca punkt centralny Volcano">
<polygon fill="none" stroke="black" points="313,-0.5 313,-19.5 435,-19.5 435,-0.5 313,-0.5"/>
<text text-anchor="middle" x="374" y="-7.5" font-family="Helvetica,sans-Serif" font-size="10.00">Volcano::centre_point</text>
</a>
</g>
</g>
<!-- Node3&#45;&gt;Node4 -->
<g id="edge3" class="edge">
<title>Node3&#45;&gt;Node4</title>
<path fill="none" stroke="midnightblue" d="M277.32,-10C285.67,-10 294.25,-10 302.68,-10"/>
<polygon fill="midnightblue" stroke="midnightblue" points="302.87,-13.5 312.87,-10 302.87,-6.5 302.87,-13.5"/>
</g>
</g>
</svg>
