<?xml version="1.0" encoding="UTF-8" standalone="no"?>
<!DOCTYPE svg PUBLIC "-//W3C//DTD SVG 1.1//EN"
 "http://www.w3.org/Graphics/SVG/1.1/DTD/svg11.dtd">
<!-- Generated by graphviz version 2.43.0 (0)
 -->
<!-- Title: Prism::translation_to_O Pages: 1 -->
<svg width="1002pt" height="365pt"
 viewBox="0.00 0.00 1002.00 364.65" xmlns="http://www.w3.org/2000/svg" xmlns:xlink="http://www.w3.org/1999/xlink">
<g id="graph0" class="graph" transform="scale(1 1) rotate(0) translate(4 360.65)">
<title>Prism::translation_to_O</title>
<!-- Node1 -->
<g id="node1" class="node">
<title>Node1</title>
<g id="a_node1"><a xlink:title="Metoda przesuwajaca graniastoslup do srodka ukladu wspolrzednych (tak, ze srodek graniastoslupa pokry...">
<polygon fill="#bfbfbf" stroke="black" points="863,-171.5 863,-190.5 994,-190.5 994,-171.5 863,-171.5"/>
<text text-anchor="middle" x="928.5" y="-178.5" font-family="Helvetica,sans-Serif" font-size="10.00">Prism::translation_to_O</text>
</a>
</g>
</g>
<!-- Node2 -->
<g id="node2" class="node">
<title>Node2</title>
<g id="a_node2"><a xlink:href="class_prism.html#a22c5467db5d960bddbaf9a52f55c55cb" target="_top" xlink:title="Metoda obracajaca graniastoslup o zadany kat w 3D wokol srodka figury">
<polygon fill="none" stroke="black" points="677,-228.5 677,-247.5 827,-247.5 827,-228.5 677,-228.5"/>
<text text-anchor="middle" x="752" y="-235.5" font-family="Helvetica,sans-Serif" font-size="10.00">Prism::rotation_around_cen</text>
</a>
</g>
</g>
<!-- Node1&#45;&gt;Node2 -->
<g id="edge1" class="edge">
<title>Node1&#45;&gt;Node2</title>
<path fill="none" stroke="midnightblue" d="M888.76,-193.66C856.59,-204.16 811.53,-218.88 782.3,-228.43"/>
<polygon fill="midnightblue" stroke="midnightblue" points="889.87,-196.97 898.29,-190.54 887.7,-190.32 889.87,-196.97"/>
</g>
<!-- Node11 -->
<g id="node11" class="node">
<title>Node11</title>
<g id="a_node11"><a xlink:href="class_prism.html#a07f15c416c9f9c54390bb8737b441a35" target="_top" xlink:title="Metoda skalujaca o wektor scale bedacy czlonkiem klasy block">
<polygon fill="none" stroke="black" points="705,-114.5 705,-133.5 799,-133.5 799,-114.5 705,-114.5"/>
<text text-anchor="middle" x="752" y="-121.5" font-family="Helvetica,sans-Serif" font-size="10.00">Prism::scale_pri</text>
</a>
</g>
</g>
<!-- Node1&#45;&gt;Node11 -->
<g id="edge17" class="edge">
<title>Node1&#45;&gt;Node11</title>
<path fill="none" stroke="midnightblue" d="M888.76,-168.34C856.59,-157.84 811.53,-143.12 782.3,-133.57"/>
<polygon fill="midnightblue" stroke="midnightblue" points="887.7,-171.68 898.29,-171.46 889.87,-165.03 887.7,-171.68"/>
</g>
<!-- Node3 -->
<g id="node3" class="node">
<title>Node3</title>
<g id="a_node3"><a xlink:href="class_drone.html#ad42bc54902df967b94717617aca1a974" target="_top" xlink:title="Metoda obracajaca dron o zadany kat w 3D wokol srodka figury">
<polygon fill="none" stroke="black" points="489,-228.5 489,-247.5 641,-247.5 641,-228.5 489,-228.5"/>
<text text-anchor="middle" x="565" y="-235.5" font-family="Helvetica,sans-Serif" font-size="10.00">Drone::rotation_around_cen</text>
</a>
</g>
</g>
<!-- Node2&#45;&gt;Node3 -->
<g id="edge2" class="edge">
<title>Node2&#45;&gt;Node3</title>
<path fill="none" stroke="midnightblue" d="M666.82,-238C658.24,-238 649.57,-238 641.1,-238"/>
<polygon fill="midnightblue" stroke="midnightblue" points="666.82,-241.5 676.82,-238 666.82,-234.5 666.82,-241.5"/>
</g>
<!-- Node10 -->
<g id="node10" class="node">
<title>Node10</title>
<g id="a_node10"><a xlink:href="class_drone.html#aedb04b80609b22ff4eb4a957bc149a48" target="_top" xlink:title="Metoda animujaca obrot rotorow i zapisujaca to w plikach. Metoda sluzy jako metoda pomocnicza,...">
<polygon fill="none" stroke="black" points="326,-303 326,-333 453,-333 453,-303 326,-303"/>
<text text-anchor="start" x="334" y="-321" font-family="Helvetica,sans-Serif" font-size="10.00">Drone::Rotors_rotation</text>
<text text-anchor="middle" x="389.5" y="-310" font-family="Helvetica,sans-Serif" font-size="10.00">_animation</text>
</a>
</g>
</g>
<!-- Node2&#45;&gt;Node10 -->
<g id="edge12" class="edge">
<title>Node2&#45;&gt;Node10</title>
<path fill="none" stroke="midnightblue" d="M697.81,-249.8C632.59,-264.28 522.22,-288.77 453.02,-304.13"/>
<polygon fill="midnightblue" stroke="midnightblue" points="698.87,-253.15 707.87,-247.57 697.35,-246.32 698.87,-253.15"/>
</g>
<!-- Node4 -->
<g id="node4" class="node">
<title>Node4</title>
<g id="a_node4"><a xlink:href="class_drone.html#ab692baa4be5c43b72990ce1b01bdc805" target="_top" xlink:title="Konstruktor bezparametryczny klasy Drone. Powstaly dron jest skonstruowany z bezparametrycznych prost...">
<polygon fill="none" stroke="black" points="349,-122.5 349,-141.5 430,-141.5 430,-122.5 349,-122.5"/>
<text text-anchor="middle" x="389.5" y="-129.5" font-family="Helvetica,sans-Serif" font-size="10.00">Drone::Drone</text>
</a>
</g>
</g>
<!-- Node3&#45;&gt;Node4 -->
<g id="edge3" class="edge">
<title>Node3&#45;&gt;Node4</title>
<path fill="none" stroke="midnightblue" d="M499.03,-224.58C495.53,-222.93 492.16,-221.08 489,-219 467.03,-204.52 472.37,-189.8 453,-172 439.63,-159.71 422.02,-148.82 408.91,-141.52"/>
<polygon fill="midnightblue" stroke="midnightblue" points="497.95,-227.92 508.53,-228.5 500.61,-221.45 497.95,-227.92"/>
</g>
<!-- Node5 -->
<g id="node5" class="node">
<title>Node5</title>
<g id="a_node5"><a xlink:href="class_drone.html#af03af60a9b92e4191a7e66b5c20b52bb" target="_top" xlink:title="Metoda zamieniajaca drona na tego z pliku sample.">
<polygon fill="none" stroke="black" points="328.5,-215 328.5,-245 450.5,-245 450.5,-215 328.5,-215"/>
<text text-anchor="start" x="336.5" y="-233" font-family="Helvetica,sans-Serif" font-size="10.00">Drone::Drone_change</text>
<text text-anchor="middle" x="389.5" y="-222" font-family="Helvetica,sans-Serif" font-size="10.00">_to_sample</text>
</a>
</g>
</g>
<!-- Node3&#45;&gt;Node5 -->
<g id="edge4" class="edge">
<title>Node3&#45;&gt;Node5</title>
<path fill="none" stroke="midnightblue" d="M478.64,-234.06C469.15,-233.63 459.64,-233.19 450.55,-232.77"/>
<polygon fill="midnightblue" stroke="midnightblue" points="478.76,-237.57 488.91,-234.54 479.08,-230.58 478.76,-237.57"/>
</g>
<!-- Node7 -->
<g id="node7" class="node">
<title>Node7</title>
<g id="a_node7"><a xlink:href="class_drone.html#af052f6bb793d1229b99b16b800b95b82" target="_top" xlink:title="Metoda animujaca obrot drona i wyrysowujaca calosc w gnuplocie.">
<polygon fill="none" stroke="black" points="156.5,-256 156.5,-286 281.5,-286 281.5,-256 156.5,-256"/>
<text text-anchor="start" x="164.5" y="-274" font-family="Helvetica,sans-Serif" font-size="10.00">Drone::Drone_rotation</text>
<text text-anchor="middle" x="219" y="-263" font-family="Helvetica,sans-Serif" font-size="10.00">_animation</text>
</a>
</g>
</g>
<!-- Node3&#45;&gt;Node7 -->
<g id="edge10" class="edge">
<title>Node3&#45;&gt;Node7</title>
<path fill="none" stroke="midnightblue" d="M497.89,-249.05C483.14,-251.26 467.56,-253.39 453,-255 395.17,-261.4 328.96,-265.65 281.94,-268.16"/>
<polygon fill="midnightblue" stroke="midnightblue" points="498.58,-252.49 507.94,-247.52 497.52,-245.57 498.58,-252.49"/>
</g>
<!-- Node8 -->
<g id="node8" class="node">
<title>Node8</title>
<g id="a_node8"><a xlink:href="class_drone.html#ab7808296cec81143dbddd7516340a371" target="_top" xlink:title="Metoda robiaca &quot;oblot&quot; drona wokol punktu (z modyfikacji)">
<polygon fill="none" stroke="black" points="148,-179.5 148,-198.5 290,-198.5 290,-179.5 148,-179.5"/>
<text text-anchor="middle" x="219" y="-186.5" font-family="Helvetica,sans-Serif" font-size="10.00">Drone::Drone_roundabout</text>
</a>
</g>
</g>
<!-- Node3&#45;&gt;Node8 -->
<g id="edge11" class="edge">
<title>Node3&#45;&gt;Node8</title>
<path fill="none" stroke="midnightblue" d="M513.44,-225.92C505.23,-223.75 496.85,-221.41 489,-219 472.74,-214.02 469.64,-209.54 453,-206 399.05,-194.52 336.66,-190.44 290.03,-189.14"/>
<polygon fill="midnightblue" stroke="midnightblue" points="512.76,-229.35 523.32,-228.47 514.51,-222.58 512.76,-229.35"/>
</g>
<!-- Node6 -->
<g id="node6" class="node">
<title>Node6</title>
<g id="a_node6"><a xlink:href="class_drone.html#ac4d24c27fb2c107d2e8bda0c2bf5cfa1" target="_top" xlink:title="Metoda obliczajaca i przeprowadzajaca caly ruch drona (obrot o kat i przelot z zadania 5....">
<polygon fill="none" stroke="black" points="0,-256 0,-286 112,-286 112,-256 0,-256"/>
<text text-anchor="start" x="8" y="-274" font-family="Helvetica,sans-Serif" font-size="10.00">Drone::Drone_basic</text>
<text text-anchor="middle" x="56" y="-263" font-family="Helvetica,sans-Serif" font-size="10.00">_motion</text>
</a>
</g>
</g>
<!-- Node5&#45;&gt;Node6 -->
<g id="edge5" class="edge">
<title>Node5&#45;&gt;Node6</title>
<path fill="none" stroke="midnightblue" d="M318.33,-231.5C270.14,-233.37 204.86,-237.58 148,-247 134.62,-249.22 120.35,-252.52 107.18,-255.97"/>
<polygon fill="midnightblue" stroke="midnightblue" points="318.47,-235 328.34,-231.13 318.22,-228 318.47,-235"/>
</g>
<!-- Node5&#45;&gt;Node7 -->
<g id="edge6" class="edge">
<title>Node5&#45;&gt;Node7</title>
<path fill="none" stroke="midnightblue" d="M318.09,-247.13C305.99,-250.08 293.49,-253.12 281.64,-256"/>
<polygon fill="midnightblue" stroke="midnightblue" points="319.25,-250.45 328.14,-244.69 317.6,-243.65 319.25,-250.45"/>
</g>
<!-- Node5&#45;&gt;Node8 -->
<g id="edge8" class="edge">
<title>Node5&#45;&gt;Node8</title>
<path fill="none" stroke="midnightblue" d="M318.33,-212.93C298.12,-208.01 276.79,-202.82 259.18,-198.53"/>
<polygon fill="midnightblue" stroke="midnightblue" points="317.6,-216.35 328.14,-215.31 319.25,-209.55 317.6,-216.35"/>
</g>
<!-- Node9 -->
<g id="node9" class="node">
<title>Node9</title>
<g id="a_node9"><a xlink:href="class_drone.html#a5fc9dd645ad3856b5d3c501c63c464e3" target="_top" xlink:title="Metoda animujaca translacje drona i wyrysowujaca calosc w gnuplocie.">
<polygon fill="none" stroke="black" points="149.5,-305 149.5,-335 288.5,-335 288.5,-305 149.5,-305"/>
<text text-anchor="start" x="157.5" y="-323" font-family="Helvetica,sans-Serif" font-size="10.00">Drone::Drone_translation</text>
<text text-anchor="middle" x="219" y="-312" font-family="Helvetica,sans-Serif" font-size="10.00">_animation</text>
</a>
</g>
</g>
<!-- Node5&#45;&gt;Node9 -->
<g id="edge9" class="edge">
<title>Node5&#45;&gt;Node9</title>
<path fill="none" stroke="midnightblue" d="M360.82,-251.4C341.7,-265.45 315.27,-283.47 290,-296 283.44,-299.25 276.33,-302.25 269.24,-304.94"/>
<polygon fill="midnightblue" stroke="midnightblue" points="363.13,-254.04 369.06,-245.26 358.95,-248.43 363.13,-254.04"/>
</g>
<!-- Node7&#45;&gt;Node6 -->
<g id="edge7" class="edge">
<title>Node7&#45;&gt;Node6</title>
<path fill="none" stroke="midnightblue" d="M145.87,-271C134.51,-271 122.93,-271 112.04,-271"/>
<polygon fill="midnightblue" stroke="midnightblue" points="146.21,-274.5 156.21,-271 146.21,-267.5 146.21,-274.5"/>
</g>
<!-- Node10&#45;&gt;Node6 -->
<g id="edge13" class="edge">
<title>Node10&#45;&gt;Node6</title>
<path fill="none" stroke="midnightblue" d="M338.98,-336.08C289.3,-351.36 211.28,-367.48 148,-345 115.19,-333.34 85.61,-304.24 69.58,-286.2"/>
<polygon fill="midnightblue" stroke="midnightblue" points="340.06,-339.41 348.53,-333.05 337.94,-332.74 340.06,-339.41"/>
</g>
<!-- Node10&#45;&gt;Node7 -->
<g id="edge14" class="edge">
<title>Node10&#45;&gt;Node7</title>
<path fill="none" stroke="midnightblue" d="M324.97,-300.28C308.13,-295.58 290.11,-290.56 273.84,-286.02"/>
<polygon fill="midnightblue" stroke="midnightblue" points="324.15,-303.68 334.72,-303 326.03,-296.94 324.15,-303.68"/>
</g>
<!-- Node10&#45;&gt;Node8 -->
<g id="edge15" class="edge">
<title>Node10&#45;&gt;Node8</title>
<path fill="none" stroke="midnightblue" d="M360.49,-296.56C323.51,-268.25 259.92,-219.56 232.83,-198.82"/>
<polygon fill="midnightblue" stroke="midnightblue" points="358.77,-299.65 368.84,-302.95 363.03,-294.09 358.77,-299.65"/>
</g>
<!-- Node10&#45;&gt;Node9 -->
<g id="edge16" class="edge">
<title>Node10&#45;&gt;Node9</title>
<path fill="none" stroke="midnightblue" d="M315.74,-318.86C306.77,-318.97 297.64,-319.08 288.74,-319.18"/>
<polygon fill="midnightblue" stroke="midnightblue" points="315.8,-322.36 325.76,-318.74 315.72,-315.36 315.8,-322.36"/>
</g>
<!-- Node11&#45;&gt;Node4 -->
<g id="edge19" class="edge">
<title>Node11&#45;&gt;Node4</title>
<path fill="none" stroke="midnightblue" d="M694.98,-125.24C621.51,-126.87 494.44,-129.69 430.17,-131.12"/>
<polygon fill="midnightblue" stroke="midnightblue" points="695.06,-128.74 704.98,-125.02 694.9,-121.74 695.06,-128.74"/>
</g>
<!-- Node12 -->
<g id="node12" class="node">
<title>Node12</title>
<g id="a_node12"><a xlink:href="class_circus.html#a5aab1830e67f62f80525d04de23db7da" target="_top" xlink:title="Konstruktor parametryczny klasy Circus. Powstaje ostroslup jak z konstruktora parametrycznego,...">
<polygon fill="none" stroke="black" points="523.5,-190.5 523.5,-209.5 606.5,-209.5 606.5,-190.5 523.5,-190.5"/>
<text text-anchor="middle" x="565" y="-197.5" font-family="Helvetica,sans-Serif" font-size="10.00">Circus::Circus</text>
</a>
</g>
</g>
<!-- Node11&#45;&gt;Node12 -->
<g id="edge18" class="edge">
<title>Node11&#45;&gt;Node12</title>
<path fill="none" stroke="midnightblue" d="M726.23,-138.94C704.42,-151.57 671.48,-169.42 641,-181 630.08,-185.15 617.91,-188.67 606.62,-191.52"/>
<polygon fill="midnightblue" stroke="midnightblue" points="728.29,-141.79 735.14,-133.71 724.74,-135.75 728.29,-141.79"/>
</g>
<!-- Node13 -->
<g id="node13" class="node">
<title>Node13</title>
<g id="a_node13"><a xlink:href="class_prism.html#aa84930a585c7817f74a14d95ea74cb5a" target="_top" xlink:title="Konstruktor bezparametryczny klasy Prism. Powstaly granistoslup ma podstawy &quot;tworzace&quot;:">
<polygon fill="none" stroke="black" points="526,-152.5 526,-171.5 604,-171.5 604,-152.5 526,-152.5"/>
<text text-anchor="middle" x="565" y="-159.5" font-family="Helvetica,sans-Serif" font-size="10.00">Prism::Prism</text>
</a>
</g>
</g>
<!-- Node11&#45;&gt;Node13 -->
<g id="edge20" class="edge">
<title>Node11&#45;&gt;Node13</title>
<path fill="none" stroke="midnightblue" d="M694.69,-135.57C665.36,-141.59 630.27,-148.8 604.15,-154.16"/>
<polygon fill="midnightblue" stroke="midnightblue" points="695.7,-138.93 704.79,-133.49 694.29,-132.07 695.7,-138.93"/>
</g>
<!-- Node14 -->
<g id="node14" class="node">
<title>Node14</title>
<g id="a_node14"><a xlink:href="class_drone.html#a77142062fb8a8af87df42b5c2e7e44e0" target="_top" xlink:title="Metoda skalujaca wszystkie elementy drona przez skale kazdego elementu">
<polygon fill="none" stroke="black" points="516,-38.5 516,-57.5 614,-57.5 614,-38.5 516,-38.5"/>
<text text-anchor="middle" x="565" y="-45.5" font-family="Helvetica,sans-Serif" font-size="10.00">Drone::scale_dro</text>
</a>
</g>
</g>
<!-- Node11&#45;&gt;Node14 -->
<g id="edge21" class="edge">
<title>Node11&#45;&gt;Node14</title>
<path fill="none" stroke="midnightblue" d="M726.23,-109.06C704.42,-96.43 671.48,-78.58 641,-67 631.46,-63.37 620.97,-60.23 610.94,-57.59"/>
<polygon fill="midnightblue" stroke="midnightblue" points="724.74,-112.25 735.14,-114.29 728.29,-106.21 724.74,-112.25"/>
</g>
<!-- Node16 -->
<g id="node16" class="node">
<title>Node16</title>
<g id="a_node16"><a xlink:href="class_tent.html#a6831febfd74474f567f4419091883512" target="_top" xlink:title="Konstruktor parametryczny klasy Tent. Powstaje ostroslup jak z konstruktora parametrycznego,...">
<polygon fill="none" stroke="black" points="533.5,-0.5 533.5,-19.5 596.5,-19.5 596.5,-0.5 533.5,-0.5"/>
<text text-anchor="middle" x="565" y="-7.5" font-family="Helvetica,sans-Serif" font-size="10.00">Tent::Tent</text>
</a>
</g>
</g>
<!-- Node11&#45;&gt;Node16 -->
<g id="edge23" class="edge">
<title>Node11&#45;&gt;Node16</title>
<path fill="none" stroke="midnightblue" d="M735.73,-106.56C715.98,-85.11 679.53,-49.07 641,-29 627.3,-21.86 610.77,-17.3 596.73,-14.45"/>
<polygon fill="midnightblue" stroke="midnightblue" points="733.38,-109.18 742.67,-114.26 738.57,-104.49 733.38,-109.18"/>
</g>
<!-- Node17 -->
<g id="node17" class="node">
<title>Node17</title>
<g id="a_node17"><a xlink:href="class_volcano.html#a1324b87f13755c4b12b54485352c5b8d" target="_top" xlink:title="Konstruktor parametryczny klasy Volcano. Powstaje ostroslup jak z konstruktora parametrycznego,...">
<polygon fill="none" stroke="black" points="515.5,-76.5 515.5,-95.5 614.5,-95.5 614.5,-76.5 515.5,-76.5"/>
<text text-anchor="middle" x="565" y="-83.5" font-family="Helvetica,sans-Serif" font-size="10.00">Volcano::Volcano</text>
</a>
</g>
</g>
<!-- Node11&#45;&gt;Node17 -->
<g id="edge24" class="edge">
<title>Node11&#45;&gt;Node17</title>
<path fill="none" stroke="midnightblue" d="M694.92,-112.48C668.48,-107.05 637.32,-100.65 612.26,-95.5"/>
<polygon fill="midnightblue" stroke="midnightblue" points="694.29,-115.93 704.79,-114.51 695.7,-109.07 694.29,-115.93"/>
</g>
<!-- Node15 -->
<g id="node15" class="node">
<title>Node15</title>
<g id="a_node15"><a xlink:href="class_scene.html#adca9214dccab3d77eed9d8af7db67f94" target="_top" xlink:title="Konstruktor paramereyczny klasy Scene.">
<polygon fill="none" stroke="black" points="349,-38.5 349,-57.5 430,-57.5 430,-38.5 349,-38.5"/>
<text text-anchor="middle" x="389.5" y="-45.5" font-family="Helvetica,sans-Serif" font-size="10.00">Scene::Scene</text>
</a>
</g>
</g>
<!-- Node14&#45;&gt;Node15 -->
<g id="edge22" class="edge">
<title>Node14&#45;&gt;Node15</title>
<path fill="none" stroke="midnightblue" d="M505.62,-48C480.78,-48 452.44,-48 430.1,-48"/>
<polygon fill="midnightblue" stroke="midnightblue" points="505.67,-51.5 515.67,-48 505.67,-44.5 505.67,-51.5"/>
</g>
</g>
</svg>
