<?xml version="1.0" encoding="UTF-8" standalone="no"?>
<!DOCTYPE svg PUBLIC "-//W3C//DTD SVG 1.1//EN"
 "http://www.w3.org/Graphics/SVG/1.1/DTD/svg11.dtd">
<!-- Generated by graphviz version 2.43.0 (0)
 -->
<!-- Title: Block::set_scale Pages: 1 -->
<svg width="375pt" height="294pt"
 viewBox="0.00 0.00 375.00 294.00" xmlns="http://www.w3.org/2000/svg" xmlns:xlink="http://www.w3.org/1999/xlink">
<g id="graph0" class="graph" transform="scale(1 1) rotate(0) translate(4 290)">
<title>Block::set_scale</title>
<!-- Node1 -->
<g id="node1" class="node">
<title>Node1</title>
<g id="a_node1"><a xlink:title="Metoda zapisujaca do klasy wektor reprezentujacy skale">
<polygon fill="#bfbfbf" stroke="black" points="272,-133.5 272,-152.5 367,-152.5 367,-133.5 272,-133.5"/>
<text text-anchor="middle" x="319.5" y="-140.5" font-family="Helvetica,sans-Serif" font-size="10.00">Block::set_scale</text>
</a>
</g>
</g>
<!-- Node2 -->
<g id="node2" class="node">
<title>Node2</title>
<g id="a_node2"><a xlink:href="class_circus.html#a5aab1830e67f62f80525d04de23db7da" target="_top" xlink:title="Konstruktor parametryczny klasy Circus. Powstaje ostroslup jak z konstruktora parametrycznego,...">
<polygon fill="none" stroke="black" points="135,-266.5 135,-285.5 218,-285.5 218,-266.5 135,-266.5"/>
<text text-anchor="middle" x="176.5" y="-273.5" font-family="Helvetica,sans-Serif" font-size="10.00">Circus::Circus</text>
</a>
</g>
</g>
<!-- Node1&#45;&gt;Node2 -->
<g id="edge1" class="edge">
<title>Node1&#45;&gt;Node2</title>
<path fill="none" stroke="midnightblue" d="M309.69,-161.74C296.92,-186.97 270.89,-231.6 236,-257 230.65,-260.9 224.46,-264.02 218.15,-266.52"/>
<polygon fill="midnightblue" stroke="midnightblue" points="312.95,-163.04 314.21,-152.52 306.67,-159.96 312.95,-163.04"/>
</g>
<!-- Node3 -->
<g id="node3" class="node">
<title>Node3</title>
<g id="a_node3"><a xlink:href="class_drone.html#ab692baa4be5c43b72990ce1b01bdc805" target="_top" xlink:title="Konstruktor bezparametryczny klasy Drone. Powstaly dron jest skonstruowany z bezparametrycznych prost...">
<polygon fill="none" stroke="black" points="136,-228.5 136,-247.5 217,-247.5 217,-228.5 136,-228.5"/>
<text text-anchor="middle" x="176.5" y="-235.5" font-family="Helvetica,sans-Serif" font-size="10.00">Drone::Drone</text>
</a>
</g>
</g>
<!-- Node1&#45;&gt;Node3 -->
<g id="edge2" class="edge">
<title>Node1&#45;&gt;Node3</title>
<path fill="none" stroke="midnightblue" d="M303.94,-160.19C288.62,-177.29 263.01,-203.2 236,-219 229.55,-222.77 222.25,-225.9 215.05,-228.46"/>
<polygon fill="midnightblue" stroke="midnightblue" points="306.65,-162.41 310.6,-152.58 301.38,-157.8 306.65,-162.41"/>
</g>
<!-- Node4 -->
<g id="node4" class="node">
<title>Node4</title>
<g id="a_node4"><a xlink:href="class_prism.html#aa84930a585c7817f74a14d95ea74cb5a" target="_top" xlink:title="Konstruktor bezparametryczny klasy Prism. Powstaly granistoslup ma podstawy &quot;tworzace&quot;:">
<polygon fill="none" stroke="black" points="137.5,-190.5 137.5,-209.5 215.5,-209.5 215.5,-190.5 137.5,-190.5"/>
<text text-anchor="middle" x="176.5" y="-197.5" font-family="Helvetica,sans-Serif" font-size="10.00">Prism::Prism</text>
</a>
</g>
</g>
<!-- Node1&#45;&gt;Node4 -->
<g id="edge3" class="edge">
<title>Node1&#45;&gt;Node4</title>
<path fill="none" stroke="midnightblue" d="M290.24,-157.02C274.47,-164.58 254.36,-173.82 236,-181 227.45,-184.35 218.04,-187.59 209.32,-190.42"/>
<polygon fill="midnightblue" stroke="midnightblue" points="291.97,-160.07 299.44,-152.56 288.92,-153.77 291.97,-160.07"/>
</g>
<!-- Node5 -->
<g id="node5" class="node">
<title>Node5</title>
<g id="a_node5"><a xlink:href="class_pyramid.html#a188d1f3cca17418b95ae771dedc99f4a" target="_top" xlink:title="Konstruktor parametryczny klasy Pyramid. Powstaly ostroslupa ma jeden prostokat &quot;tworzacy&quot;: p1 = [0][...">
<polygon fill="none" stroke="black" points="124.5,-152.5 124.5,-171.5 228.5,-171.5 228.5,-152.5 124.5,-152.5"/>
<text text-anchor="middle" x="176.5" y="-159.5" font-family="Helvetica,sans-Serif" font-size="10.00">Pyramid::Pyramid</text>
</a>
</g>
</g>
<!-- Node1&#45;&gt;Node5 -->
<g id="edge4" class="edge">
<title>Node1&#45;&gt;Node5</title>
<path fill="none" stroke="midnightblue" d="M261.71,-150.65C250.85,-152.12 239.55,-153.64 228.87,-155.08"/>
<polygon fill="midnightblue" stroke="midnightblue" points="262.5,-154.08 271.94,-149.27 261.56,-147.14 262.5,-154.08"/>
</g>
<!-- Node6 -->
<g id="node6" class="node">
<title>Node6</title>
<g id="a_node6"><a xlink:href="class_drone.html#a77fbd50ce9e1711d3b435c73859babcb" target="_top" xlink:title="Metoda ustawiajaca skale wszystkich elementow drona">
<polygon fill="none" stroke="black" points="119,-114.5 119,-133.5 234,-133.5 234,-114.5 119,-114.5"/>
<text text-anchor="middle" x="176.5" y="-121.5" font-family="Helvetica,sans-Serif" font-size="10.00">Drone::set_scale_all</text>
</a>
</g>
</g>
<!-- Node1&#45;&gt;Node6 -->
<g id="edge5" class="edge">
<title>Node1&#45;&gt;Node6</title>
<path fill="none" stroke="midnightblue" d="M261.8,-135.36C252.66,-134.13 243.21,-132.85 234.08,-131.62"/>
<polygon fill="midnightblue" stroke="midnightblue" points="261.56,-138.86 271.94,-136.73 262.5,-131.92 261.56,-138.86"/>
</g>
<!-- Node8 -->
<g id="node8" class="node">
<title>Node8</title>
<g id="a_node8"><a xlink:href="class_tent.html#a6831febfd74474f567f4419091883512" target="_top" xlink:title="Konstruktor parametryczny klasy Tent. Powstaje ostroslup jak z konstruktora parametrycznego,...">
<polygon fill="none" stroke="black" points="145,-76.5 145,-95.5 208,-95.5 208,-76.5 145,-76.5"/>
<text text-anchor="middle" x="176.5" y="-83.5" font-family="Helvetica,sans-Serif" font-size="10.00">Tent::Tent</text>
</a>
</g>
</g>
<!-- Node1&#45;&gt;Node8 -->
<g id="edge7" class="edge">
<title>Node1&#45;&gt;Node8</title>
<path fill="none" stroke="midnightblue" d="M290.24,-128.98C274.47,-121.42 254.36,-112.18 236,-105 227.05,-101.5 217.16,-98.11 208.1,-95.19"/>
<polygon fill="midnightblue" stroke="midnightblue" points="288.92,-132.23 299.44,-133.44 291.97,-125.93 288.92,-132.23"/>
</g>
<!-- Node9 -->
<g id="node9" class="node">
<title>Node9</title>
<g id="a_node9"><a xlink:href="class_triangular.html#ad377db3bde29ea96fdc04fd3b645c07a" target="_top" xlink:title="Konstruktor parametryczny klasy Triangular. Powstaje ostroslup jak z konstruktora parametrycznego,...">
<polygon fill="none" stroke="black" points="117,-38.5 117,-57.5 236,-57.5 236,-38.5 117,-38.5"/>
<text text-anchor="middle" x="176.5" y="-45.5" font-family="Helvetica,sans-Serif" font-size="10.00">Triangular::Triangular</text>
</a>
</g>
</g>
<!-- Node1&#45;&gt;Node9 -->
<g id="edge8" class="edge">
<title>Node1&#45;&gt;Node9</title>
<path fill="none" stroke="midnightblue" d="M303.94,-125.81C288.62,-108.71 263.01,-82.8 236,-67 229.55,-63.23 222.25,-60.1 215.05,-57.54"/>
<polygon fill="midnightblue" stroke="midnightblue" points="301.38,-128.2 310.6,-133.42 306.65,-123.59 301.38,-128.2"/>
</g>
<!-- Node10 -->
<g id="node10" class="node">
<title>Node10</title>
<g id="a_node10"><a xlink:href="class_volcano.html#a1324b87f13755c4b12b54485352c5b8d" target="_top" xlink:title="Konstruktor parametryczny klasy Volcano. Powstaje ostroslup jak z konstruktora parametrycznego,...">
<polygon fill="none" stroke="black" points="127,-0.5 127,-19.5 226,-19.5 226,-0.5 127,-0.5"/>
<text text-anchor="middle" x="176.5" y="-7.5" font-family="Helvetica,sans-Serif" font-size="10.00">Volcano::Volcano</text>
</a>
</g>
</g>
<!-- Node1&#45;&gt;Node10 -->
<g id="edge9" class="edge">
<title>Node1&#45;&gt;Node10</title>
<path fill="none" stroke="midnightblue" d="M309.69,-124.26C296.92,-99.03 270.89,-54.4 236,-29 230.73,-25.17 224.66,-22.08 218.45,-19.61"/>
<polygon fill="midnightblue" stroke="midnightblue" points="306.67,-126.04 314.21,-133.48 312.95,-122.96 306.67,-126.04"/>
</g>
<!-- Node7 -->
<g id="node7" class="node">
<title>Node7</title>
<g id="a_node7"><a xlink:href="class_scene.html#adca9214dccab3d77eed9d8af7db67f94" target="_top" xlink:title="Konstruktor paramereyczny klasy Scene.">
<polygon fill="none" stroke="black" points="0,-114.5 0,-133.5 81,-133.5 81,-114.5 0,-114.5"/>
<text text-anchor="middle" x="40.5" y="-121.5" font-family="Helvetica,sans-Serif" font-size="10.00">Scene::Scene</text>
</a>
</g>
</g>
<!-- Node6&#45;&gt;Node7 -->
<g id="edge6" class="edge">
<title>Node6&#45;&gt;Node7</title>
<path fill="none" stroke="midnightblue" d="M108.6,-124C99.28,-124 89.96,-124 81.36,-124"/>
<polygon fill="midnightblue" stroke="midnightblue" points="108.67,-127.5 118.67,-124 108.67,-120.5 108.67,-127.5"/>
</g>
</g>
</svg>
