<?xml version="1.0" encoding="UTF-8" standalone="no"?>
<!DOCTYPE svg PUBLIC "-//W3C//DTD SVG 1.1//EN"
 "http://www.w3.org/Graphics/SVG/1.1/DTD/svg11.dtd">
<!-- Generated by graphviz version 2.43.0 (0)
 -->
<!-- Title: Block::set_sample_name Pages: 1 -->
<svg width="1006pt" height="306pt"
 viewBox="0.00 0.00 1006.00 306.00" xmlns="http://www.w3.org/2000/svg" xmlns:xlink="http://www.w3.org/1999/xlink">
<g id="graph0" class="graph" transform="scale(1 1) rotate(0) translate(4 302)">
<title>Block::set_sample_name</title>
<!-- Node1 -->
<g id="node1" class="node">
<title>Node1</title>
<g id="a_node1"><a xlink:title="Metoda zapisujaca do klasy nazwe pliku z wzorcowa bryla">
<polygon fill="#bfbfbf" stroke="black" points="859,-133.5 859,-152.5 998,-152.5 998,-133.5 859,-133.5"/>
<text text-anchor="middle" x="928.5" y="-140.5" font-family="Helvetica,sans-Serif" font-size="10.00">Block::set_sample_name</text>
</a>
</g>
</g>
<!-- Node2 -->
<g id="node2" class="node">
<title>Node2</title>
<g id="a_node2"><a xlink:href="class_circus.html#a5aab1830e67f62f80525d04de23db7da" target="_top" xlink:title="Konstruktor parametryczny klasy Circus. Powstaje ostroslup jak z konstruktora parametrycznego,...">
<polygon fill="none" stroke="black" points="706.5,-278.5 706.5,-297.5 789.5,-297.5 789.5,-278.5 706.5,-278.5"/>
<text text-anchor="middle" x="748" y="-285.5" font-family="Helvetica,sans-Serif" font-size="10.00">Circus::Circus</text>
</a>
</g>
</g>
<!-- Node1&#45;&gt;Node2 -->
<g id="edge1" class="edge">
<title>Node1&#45;&gt;Node2</title>
<path fill="none" stroke="midnightblue" d="M917.43,-161.34C901.26,-189.03 866.8,-241.24 823,-269 813.03,-275.32 801.05,-279.54 789.66,-282.36"/>
<polygon fill="midnightblue" stroke="midnightblue" points="920.48,-163.07 922.38,-152.64 914.39,-159.6 920.48,-163.07"/>
</g>
<!-- Node3 -->
<g id="node3" class="node">
<title>Node3</title>
<g id="a_node3"><a xlink:href="class_cuboid.html#a773f92fecdf9686b951cf5736c83f318" target="_top" xlink:title="Metoda wczytywania odpowiednich wierzcholkow z pliku wzorcowego zgodnie z zaproponowanym sposobem zad...">
<polygon fill="none" stroke="black" points="688,-229 688,-259 808,-259 808,-229 688,-229"/>
<text text-anchor="start" x="696" y="-247" font-family="Helvetica,sans-Serif" font-size="10.00">Cuboid::Cuboid_From</text>
<text text-anchor="middle" x="748" y="-236" font-family="Helvetica,sans-Serif" font-size="10.00">_Sample</text>
</a>
</g>
</g>
<!-- Node1&#45;&gt;Node3 -->
<g id="edge2" class="edge">
<title>Node1&#45;&gt;Node3</title>
<path fill="none" stroke="midnightblue" d="M908.91,-159.23C888.86,-176.06 855.43,-202.23 823,-219 815.89,-222.68 808.13,-225.98 800.39,-228.9"/>
<polygon fill="midnightblue" stroke="midnightblue" points="911.3,-161.79 916.65,-152.64 906.76,-156.46 911.3,-161.79"/>
</g>
<!-- Node10 -->
<g id="node10" class="node">
<title>Node10</title>
<g id="a_node10"><a xlink:href="class_prism.html#a5e0a2234e9ebe3b51146c0ddc42e8b48" target="_top" xlink:title="Metoda wczytywania odpowiednich wierzcholkow z pliku wzorcowego zgodnie z zaproponowanym sposobem zad...">
<polygon fill="none" stroke="black" points="673,-190.5 673,-209.5 823,-209.5 823,-190.5 673,-190.5"/>
<text text-anchor="middle" x="748" y="-197.5" font-family="Helvetica,sans-Serif" font-size="10.00">Prism::Prism_From_Sample</text>
</a>
</g>
</g>
<!-- Node1&#45;&gt;Node10 -->
<g id="edge10" class="edge">
<title>Node1&#45;&gt;Node10</title>
<path fill="none" stroke="midnightblue" d="M893.79,-156.21C873.45,-163.93 846.93,-173.6 823,-181 812.1,-184.37 800.18,-187.62 789.14,-190.45"/>
<polygon fill="midnightblue" stroke="midnightblue" points="895.15,-159.43 903.24,-152.59 892.65,-152.9 895.15,-159.43"/>
</g>
<!-- Node11 -->
<g id="node11" class="node">
<title>Node11</title>
<g id="a_node11"><a xlink:href="class_pyramid.html#a188d1f3cca17418b95ae771dedc99f4a" target="_top" xlink:title="Konstruktor parametryczny klasy Pyramid. Powstaly ostroslupa ma jeden prostokat &quot;tworzacy&quot;: p1 = [0][...">
<polygon fill="none" stroke="black" points="696,-152.5 696,-171.5 800,-171.5 800,-152.5 696,-152.5"/>
<text text-anchor="middle" x="748" y="-159.5" font-family="Helvetica,sans-Serif" font-size="10.00">Pyramid::Pyramid</text>
</a>
</g>
</g>
<!-- Node1&#45;&gt;Node11 -->
<g id="edge12" class="edge">
<title>Node1&#45;&gt;Node11</title>
<path fill="none" stroke="midnightblue" d="M848.81,-151.38C832.3,-153.13 815.31,-154.94 800.13,-156.56"/>
<polygon fill="midnightblue" stroke="midnightblue" points="849.42,-154.83 859,-150.29 848.68,-147.87 849.42,-154.83"/>
</g>
<!-- Node12 -->
<g id="node12" class="node">
<title>Node12</title>
<g id="a_node12"><a xlink:href="class_drone.html#add09c27034d4ff229cc22b58c443c0f4" target="_top" xlink:title="Metoda ustawiajaca nazwy plikow do zapisu dla drona.">
<polygon fill="none" stroke="black" points="682,-114.5 682,-133.5 814,-133.5 814,-114.5 682,-114.5"/>
<text text-anchor="middle" x="748" y="-121.5" font-family="Helvetica,sans-Serif" font-size="10.00">Drone::setup_filenames</text>
</a>
</g>
</g>
<!-- Node1&#45;&gt;Node12 -->
<g id="edge13" class="edge">
<title>Node1&#45;&gt;Node12</title>
<path fill="none" stroke="midnightblue" d="M848.87,-134.63C837.25,-133.39 825.39,-132.13 814.09,-130.93"/>
<polygon fill="midnightblue" stroke="midnightblue" points="848.68,-138.13 859,-135.71 849.42,-131.17 848.68,-138.13"/>
</g>
<!-- Node14 -->
<g id="node14" class="node">
<title>Node14</title>
<g id="a_node14"><a xlink:href="class_tent.html#a6831febfd74474f567f4419091883512" target="_top" xlink:title="Konstruktor parametryczny klasy Tent. Powstaje ostroslup jak z konstruktora parametrycznego,...">
<polygon fill="none" stroke="black" points="716.5,-76.5 716.5,-95.5 779.5,-95.5 779.5,-76.5 716.5,-76.5"/>
<text text-anchor="middle" x="748" y="-83.5" font-family="Helvetica,sans-Serif" font-size="10.00">Tent::Tent</text>
</a>
</g>
</g>
<!-- Node1&#45;&gt;Node14 -->
<g id="edge16" class="edge">
<title>Node1&#45;&gt;Node14</title>
<path fill="none" stroke="midnightblue" d="M893.79,-129.79C873.45,-122.07 846.93,-112.4 823,-105 808.93,-100.65 793.15,-96.5 779.79,-93.19"/>
<polygon fill="midnightblue" stroke="midnightblue" points="892.65,-133.1 903.24,-133.41 895.15,-126.57 892.65,-133.1"/>
</g>
<!-- Node15 -->
<g id="node15" class="node">
<title>Node15</title>
<g id="a_node15"><a xlink:href="class_triangular.html#ad377db3bde29ea96fdc04fd3b645c07a" target="_top" xlink:title="Konstruktor parametryczny klasy Triangular. Powstaje ostroslup jak z konstruktora parametrycznego,...">
<polygon fill="none" stroke="black" points="688.5,-38.5 688.5,-57.5 807.5,-57.5 807.5,-38.5 688.5,-38.5"/>
<text text-anchor="middle" x="748" y="-45.5" font-family="Helvetica,sans-Serif" font-size="10.00">Triangular::Triangular</text>
</a>
</g>
</g>
<!-- Node1&#45;&gt;Node15 -->
<g id="edge17" class="edge">
<title>Node1&#45;&gt;Node15</title>
<path fill="none" stroke="midnightblue" d="M909.47,-126.56C889.66,-109.33 856.21,-82.64 823,-67 814.96,-63.21 806.06,-60.11 797.3,-57.59"/>
<polygon fill="midnightblue" stroke="midnightblue" points="907.28,-129.3 917.09,-133.31 911.92,-124.06 907.28,-129.3"/>
</g>
<!-- Node16 -->
<g id="node16" class="node">
<title>Node16</title>
<g id="a_node16"><a xlink:href="class_volcano.html#a1324b87f13755c4b12b54485352c5b8d" target="_top" xlink:title="Konstruktor parametryczny klasy Volcano. Powstaje ostroslup jak z konstruktora parametrycznego,...">
<polygon fill="none" stroke="black" points="698.5,-0.5 698.5,-19.5 797.5,-19.5 797.5,-0.5 698.5,-0.5"/>
<text text-anchor="middle" x="748" y="-7.5" font-family="Helvetica,sans-Serif" font-size="10.00">Volcano::Volcano</text>
</a>
</g>
</g>
<!-- Node1&#45;&gt;Node16 -->
<g id="edge18" class="edge">
<title>Node1&#45;&gt;Node16</title>
<path fill="none" stroke="midnightblue" d="M915.79,-124.64C898.59,-99.21 864.04,-53.61 823,-29 815.26,-24.36 806.42,-20.85 797.59,-18.19"/>
<polygon fill="midnightblue" stroke="midnightblue" points="913.08,-126.9 921.51,-133.32 918.93,-123.04 913.08,-126.9"/>
</g>
<!-- Node4 -->
<g id="node4" class="node">
<title>Node4</title>
<g id="a_node4"><a xlink:href="class_drone.html#ada6f4e93f4a63cbe1d6fbebf329efe62" target="_top" xlink:title="Metoda wczytywania odpowiednich wierzcholkow z pliku wzorcowego zgodnie z zaproponowanym sposobem w z...">
<polygon fill="none" stroke="black" points="484,-190.5 484,-209.5 637,-209.5 637,-190.5 484,-190.5"/>
<text text-anchor="middle" x="560.5" y="-197.5" font-family="Helvetica,sans-Serif" font-size="10.00">Drone::Drone_From_Sample</text>
</a>
</g>
</g>
<!-- Node3&#45;&gt;Node4 -->
<g id="edge3" class="edge">
<title>Node3&#45;&gt;Node4</title>
<path fill="none" stroke="midnightblue" d="M677.74,-227.57C652.11,-221.49 623.91,-214.8 601.7,-209.54"/>
<polygon fill="midnightblue" stroke="midnightblue" points="677.26,-231.05 687.8,-229.96 678.87,-224.24 677.26,-231.05"/>
</g>
<!-- Node5 -->
<g id="node5" class="node">
<title>Node5</title>
<g id="a_node5"><a xlink:href="class_drone.html#af03af60a9b92e4191a7e66b5c20b52bb" target="_top" xlink:title="Metoda zamieniajaca drona na tego z pliku sample.">
<polygon fill="none" stroke="black" points="326,-185 326,-215 448,-215 448,-185 326,-185"/>
<text text-anchor="start" x="334" y="-203" font-family="Helvetica,sans-Serif" font-size="10.00">Drone::Drone_change</text>
<text text-anchor="middle" x="387" y="-192" font-family="Helvetica,sans-Serif" font-size="10.00">_to_sample</text>
</a>
</g>
</g>
<!-- Node4&#45;&gt;Node5 -->
<g id="edge4" class="edge">
<title>Node4&#45;&gt;Node5</title>
<path fill="none" stroke="midnightblue" d="M473.67,-200C465.04,-200 456.41,-200 448.13,-200"/>
<polygon fill="midnightblue" stroke="midnightblue" points="473.78,-203.5 483.78,-200 473.78,-196.5 473.78,-203.5"/>
</g>
<!-- Node6 -->
<g id="node6" class="node">
<title>Node6</title>
<g id="a_node6"><a xlink:href="class_drone.html#ac4d24c27fb2c107d2e8bda0c2bf5cfa1" target="_top" xlink:title="Metoda obliczajaca i przeprowadzajaca caly ruch drona (obrot o kat i przelot z zadania 5....">
<polygon fill="none" stroke="black" points="0,-229 0,-259 112,-259 112,-229 0,-229"/>
<text text-anchor="start" x="8" y="-247" font-family="Helvetica,sans-Serif" font-size="10.00">Drone::Drone_basic</text>
<text text-anchor="middle" x="56" y="-236" font-family="Helvetica,sans-Serif" font-size="10.00">_motion</text>
</a>
</g>
</g>
<!-- Node5&#45;&gt;Node6 -->
<g id="edge5" class="edge">
<title>Node5&#45;&gt;Node6</title>
<path fill="none" stroke="midnightblue" d="M353.77,-220.38C335.76,-230.56 312.48,-241.79 290,-247 230.49,-260.79 160.12,-257.27 112.4,-252.06"/>
<polygon fill="midnightblue" stroke="midnightblue" points="355.8,-223.25 362.68,-215.19 352.28,-217.2 355.8,-223.25"/>
</g>
<!-- Node7 -->
<g id="node7" class="node">
<title>Node7</title>
<g id="a_node7"><a xlink:href="class_drone.html#af052f6bb793d1229b99b16b800b95b82" target="_top" xlink:title="Metoda animujaca obrot drona i wyrysowujaca calosc w gnuplocie.">
<polygon fill="none" stroke="black" points="156.5,-207 156.5,-237 281.5,-237 281.5,-207 156.5,-207"/>
<text text-anchor="start" x="164.5" y="-225" font-family="Helvetica,sans-Serif" font-size="10.00">Drone::Drone_rotation</text>
<text text-anchor="middle" x="219" y="-214" font-family="Helvetica,sans-Serif" font-size="10.00">_animation</text>
</a>
</g>
</g>
<!-- Node5&#45;&gt;Node7 -->
<g id="edge6" class="edge">
<title>Node5&#45;&gt;Node7</title>
<path fill="none" stroke="midnightblue" d="M315.43,-209.35C304.23,-210.84 292.72,-212.36 281.75,-213.82"/>
<polygon fill="midnightblue" stroke="midnightblue" points="316.15,-212.79 325.6,-208 315.23,-205.85 316.15,-212.79"/>
</g>
<!-- Node8 -->
<g id="node8" class="node">
<title>Node8</title>
<g id="a_node8"><a xlink:href="class_drone.html#ab7808296cec81143dbddd7516340a371" target="_top" xlink:title="Metoda robiaca &quot;oblot&quot; drona wokol punktu (z modyfikacji)">
<polygon fill="none" stroke="black" points="148,-168.5 148,-187.5 290,-187.5 290,-168.5 148,-168.5"/>
<text text-anchor="middle" x="219" y="-175.5" font-family="Helvetica,sans-Serif" font-size="10.00">Drone::Drone_roundabout</text>
</a>
</g>
</g>
<!-- Node5&#45;&gt;Node8 -->
<g id="edge8" class="edge">
<title>Node5&#45;&gt;Node8</title>
<path fill="none" stroke="midnightblue" d="M315.5,-190.66C307.13,-189.55 298.58,-188.41 290.21,-187.31"/>
<polygon fill="midnightblue" stroke="midnightblue" points="315.23,-194.15 325.6,-192 316.15,-187.21 315.23,-194.15"/>
</g>
<!-- Node9 -->
<g id="node9" class="node">
<title>Node9</title>
<g id="a_node9"><a xlink:href="class_drone.html#a5fc9dd645ad3856b5d3c501c63c464e3" target="_top" xlink:title="Metoda animujaca translacje drona i wyrysowujaca calosc w gnuplocie.">
<polygon fill="none" stroke="black" points="149.5,-119 149.5,-149 288.5,-149 288.5,-119 149.5,-119"/>
<text text-anchor="start" x="157.5" y="-137" font-family="Helvetica,sans-Serif" font-size="10.00">Drone::Drone_translation</text>
<text text-anchor="middle" x="219" y="-126" font-family="Helvetica,sans-Serif" font-size="10.00">_animation</text>
</a>
</g>
</g>
<!-- Node5&#45;&gt;Node9 -->
<g id="edge9" class="edge">
<title>Node5&#45;&gt;Node9</title>
<path fill="none" stroke="midnightblue" d="M342.66,-180.83C326.25,-173.75 307.35,-165.8 290,-159 281.47,-155.66 272.29,-152.25 263.47,-149.06"/>
<polygon fill="midnightblue" stroke="midnightblue" points="341.43,-184.11 352,-184.88 344.22,-177.69 341.43,-184.11"/>
</g>
<!-- Node7&#45;&gt;Node6 -->
<g id="edge7" class="edge">
<title>Node7&#45;&gt;Node6</title>
<path fill="none" stroke="midnightblue" d="M146.22,-231.81C134.75,-233.38 123.04,-234.98 112.04,-236.48"/>
<polygon fill="midnightblue" stroke="midnightblue" points="146.78,-235.26 156.21,-230.44 145.83,-228.33 146.78,-235.26"/>
</g>
<!-- Node10&#45;&gt;Node4 -->
<g id="edge11" class="edge">
<title>Node10&#45;&gt;Node4</title>
<path fill="none" stroke="midnightblue" d="M662.84,-200C654.23,-200 645.52,-200 637.01,-200"/>
<polygon fill="midnightblue" stroke="midnightblue" points="662.89,-203.5 672.89,-200 662.89,-196.5 662.89,-203.5"/>
</g>
<!-- Node12&#45;&gt;Node4 -->
<g id="edge14" class="edge">
<title>Node12&#45;&gt;Node4</title>
<path fill="none" stroke="midnightblue" d="M693.1,-136.34C686.26,-138.35 679.42,-140.57 673,-143 637.62,-156.4 598.83,-177.91 577.6,-190.32"/>
<polygon fill="midnightblue" stroke="midnightblue" points="694.37,-139.63 703.07,-133.57 692.49,-132.88 694.37,-139.63"/>
</g>
<!-- Node13 -->
<g id="node13" class="node">
<title>Node13</title>
<g id="a_node13"><a xlink:href="class_scene.html#adca9214dccab3d77eed9d8af7db67f94" target="_top" xlink:title="Konstruktor paramereyczny klasy Scene.">
<polygon fill="none" stroke="black" points="520,-114.5 520,-133.5 601,-133.5 601,-114.5 520,-114.5"/>
<text text-anchor="middle" x="560.5" y="-121.5" font-family="Helvetica,sans-Serif" font-size="10.00">Scene::Scene</text>
</a>
</g>
</g>
<!-- Node12&#45;&gt;Node13 -->
<g id="edge15" class="edge">
<title>Node12&#45;&gt;Node13</title>
<path fill="none" stroke="midnightblue" d="M671.62,-124C647.45,-124 621.64,-124 601.09,-124"/>
<polygon fill="midnightblue" stroke="midnightblue" points="671.86,-127.5 681.86,-124 671.86,-120.5 671.86,-127.5"/>
</g>
</g>
</svg>
