<?xml version="1.0" encoding="UTF-8" standalone="no"?>
<!DOCTYPE svg PUBLIC "-//W3C//DTD SVG 1.1//EN"
 "http://www.w3.org/Graphics/SVG/1.1/DTD/svg11.dtd">
<!-- Generated by graphviz version 2.43.0 (0)
 -->
<!-- Title: Vector&lt; type, SIZE &gt; Pages: 1 -->
<svg width="261pt" height="733pt"
 viewBox="0.00 0.00 260.50 733.00" xmlns="http://www.w3.org/2000/svg" xmlns:xlink="http://www.w3.org/1999/xlink">
<g id="graph0" class="graph" transform="scale(1 1) rotate(0) translate(4 729)">
<title>Vector&lt; type, SIZE &gt;</title>
<!-- Node1 -->
<g id="node1" class="node">
<title>Node1</title>
<g id="a_node1"><a xlink:title="Opisuje wektor o SIZE&#45;wierszach.">
<polygon fill="#bfbfbf" stroke="black" points="73,-0.5 73,-266.5 192,-266.5 192,-0.5 73,-0.5"/>
<text text-anchor="middle" x="132.5" y="-254.5" font-family="Helvetica,sans-Serif" font-size="10.00">Vector&lt; type, SIZE &gt;</text>
<polyline fill="none" stroke="black" points="73,-247.5 192,-247.5 "/>
<text text-anchor="middle" x="132.5" y="-235.5" font-family="Helvetica,sans-Serif" font-size="10.00"> </text>
<polyline fill="none" stroke="black" points="73,-228.5 192,-228.5 "/>
<text text-anchor="start" x="81" y="-216.5" font-family="Helvetica,sans-Serif" font-size="10.00">+ Vector()</text>
<text text-anchor="start" x="81" y="-205.5" font-family="Helvetica,sans-Serif" font-size="10.00">+ Vector()</text>
<text text-anchor="start" x="81" y="-194.5" font-family="Helvetica,sans-Serif" font-size="10.00">+ operator+()</text>
<text text-anchor="start" x="81" y="-183.5" font-family="Helvetica,sans-Serif" font-size="10.00">+ operator&#45;()</text>
<text text-anchor="start" x="81" y="-172.5" font-family="Helvetica,sans-Serif" font-size="10.00">+ operator*()</text>
<text text-anchor="start" x="81" y="-161.5" font-family="Helvetica,sans-Serif" font-size="10.00">+ operator/()</text>
<text text-anchor="start" x="81" y="-150.5" font-family="Helvetica,sans-Serif" font-size="10.00">+ operator==()</text>
<text text-anchor="start" x="81" y="-139.5" font-family="Helvetica,sans-Serif" font-size="10.00">+ scale_vec()</text>
<text text-anchor="start" x="81" y="-128.5" font-family="Helvetica,sans-Serif" font-size="10.00">+ rotate()</text>
<text text-anchor="start" x="81" y="-117.5" font-family="Helvetica,sans-Serif" font-size="10.00">+ modulus2()</text>
<text text-anchor="start" x="81" y="-106.5" font-family="Helvetica,sans-Serif" font-size="10.00">+ get_vec()</text>
<text text-anchor="start" x="81" y="-95.5" font-family="Helvetica,sans-Serif" font-size="10.00">+ get_len()</text>
<text text-anchor="start" x="81" y="-84.5" font-family="Helvetica,sans-Serif" font-size="10.00">+ get_slope_angle()</text>
<text text-anchor="start" x="81" y="-73.5" font-family="Helvetica,sans-Serif" font-size="10.00">+ operator[]()</text>
<text text-anchor="start" x="81" y="-62.5" font-family="Helvetica,sans-Serif" font-size="10.00">+ operator[]()</text>
<text text-anchor="start" x="81" y="-51.5" font-family="Helvetica,sans-Serif" font-size="10.00">+ scalar_prod()</text>
<text text-anchor="start" x="81" y="-40.5" font-family="Helvetica,sans-Serif" font-size="10.00">+ rotate()</text>
<text text-anchor="start" x="81" y="-29.5" font-family="Helvetica,sans-Serif" font-size="10.00">+ get_slope_angle()</text>
<text text-anchor="start" x="81" y="-18.5" font-family="Helvetica,sans-Serif" font-size="10.00">+ rotate()</text>
<text text-anchor="start" x="81" y="-7.5" font-family="Helvetica,sans-Serif" font-size="10.00">+ get_slope_angle()</text>
</a>
</g>
</g>
<!-- Node2 -->
<g id="node2" class="node">
<title>Node2</title>
<g id="a_node2"><a xlink:href="class_count.html" target="_top" xlink:title=" ">
<polygon fill="none" stroke="black" points="22,-314.5 22,-437.5 145,-437.5 145,-314.5 22,-314.5"/>
<text text-anchor="start" x="30" y="-425.5" font-family="Helvetica,sans-Serif" font-size="10.00">Count&lt; Vector&lt; type,</text>
<text text-anchor="middle" x="83.5" y="-414.5" font-family="Helvetica,sans-Serif" font-size="10.00"> SIZE &gt; &gt;</text>
<polyline fill="none" stroke="black" points="22,-407.5 145,-407.5 "/>
<text text-anchor="middle" x="83.5" y="-395.5" font-family="Helvetica,sans-Serif" font-size="10.00"> </text>
<polyline fill="none" stroke="black" points="22,-388.5 145,-388.5 "/>
<text text-anchor="start" x="30" y="-376.5" font-family="Helvetica,sans-Serif" font-size="10.00">+ Count()</text>
<text text-anchor="start" x="30" y="-365.5" font-family="Helvetica,sans-Serif" font-size="10.00">+ Count()</text>
<text text-anchor="start" x="30" y="-354.5" font-family="Helvetica,sans-Serif" font-size="10.00">+ ~Count()</text>
<text text-anchor="start" x="30" y="-343.5" font-family="Helvetica,sans-Serif" font-size="10.00">+ get_count()</text>
<text text-anchor="start" x="30" y="-332.5" font-family="Helvetica,sans-Serif" font-size="10.00">+ print_count()</text>
<text text-anchor="start" x="30" y="-321.5" font-family="Helvetica,sans-Serif" font-size="10.00">+ zero_count()</text>
</a>
</g>
</g>
<!-- Node2&#45;&gt;Node1 -->
<g id="edge1" class="edge">
<title>Node2&#45;&gt;Node1</title>
<path fill="none" stroke="midnightblue" d="M97.88,-304.42C100.33,-292.39 102.94,-279.57 105.59,-266.56"/>
<polygon fill="none" stroke="midnightblue" points="94.43,-303.81 95.86,-314.31 101.29,-305.21 94.43,-303.81"/>
</g>
<!-- Node3 -->
<g id="node3" class="node">
<title>Node3</title>
<g id="a_node3"><a xlink:href="classstatic_01int.html" target="_top" xlink:title=" ">
<polygon fill="none" stroke="black" points="0,-524 0,-581 59,-581 59,-524 0,-524"/>
<text text-anchor="middle" x="29.5" y="-569" font-family="Helvetica,sans-Serif" font-size="10.00">static int</text>
<polyline fill="none" stroke="black" points="0,-562 59,-562 "/>
<text text-anchor="middle" x="29.5" y="-550" font-family="Helvetica,sans-Serif" font-size="10.00"> </text>
<polyline fill="none" stroke="black" points="0,-543 59,-543 "/>
<text text-anchor="middle" x="29.5" y="-531" font-family="Helvetica,sans-Serif" font-size="10.00"> </text>
</a>
</g>
</g>
<!-- Node3&#45;&gt;Node2 -->
<g id="edge2" class="edge">
<title>Node3&#45;&gt;Node2</title>
<path fill="none" stroke="#404040" d="M25.66,-523.68C23.97,-504.28 23.67,-478.01 30.5,-456 31.25,-453.6 32.09,-451.2 33.02,-448.82"/>
<polygon fill="none" stroke="#404040" points="33.04,-448.76 31.83,-441.65 37.93,-437.8 39.14,-444.91 33.04,-448.76"/>
<text text-anchor="middle" x="73.5" y="-470" font-family="Helvetica,sans-Serif" font-size="10.00"> #objects_alive</text>
<text text-anchor="middle" x="73.5" y="-459" font-family="Helvetica,sans-Serif" font-size="10.00">#objects_created</text>
</g>
<!-- Node4 -->
<g id="node4" class="node">
<title>Node4</title>
<g id="a_node4"><a xlink:href="class_count.html" target="_top" xlink:title="Pozwala na liczenie instancji stworzonych obiektow.">
<polygon fill="none" stroke="black" points="93.5,-496.5 93.5,-608.5 183.5,-608.5 183.5,-496.5 93.5,-496.5"/>
<text text-anchor="middle" x="138.5" y="-596.5" font-family="Helvetica,sans-Serif" font-size="10.00">Count&lt; T &gt;</text>
<polyline fill="none" stroke="black" points="93.5,-589.5 183.5,-589.5 "/>
<text text-anchor="middle" x="138.5" y="-577.5" font-family="Helvetica,sans-Serif" font-size="10.00"> </text>
<polyline fill="none" stroke="black" points="93.5,-570.5 183.5,-570.5 "/>
<text text-anchor="start" x="101.5" y="-558.5" font-family="Helvetica,sans-Serif" font-size="10.00">+ Count()</text>
<text text-anchor="start" x="101.5" y="-547.5" font-family="Helvetica,sans-Serif" font-size="10.00">+ Count()</text>
<text text-anchor="start" x="101.5" y="-536.5" font-family="Helvetica,sans-Serif" font-size="10.00">+ ~Count()</text>
<text text-anchor="start" x="101.5" y="-525.5" font-family="Helvetica,sans-Serif" font-size="10.00">+ get_count()</text>
<text text-anchor="start" x="101.5" y="-514.5" font-family="Helvetica,sans-Serif" font-size="10.00">+ print_count()</text>
<text text-anchor="start" x="101.5" y="-503.5" font-family="Helvetica,sans-Serif" font-size="10.00">+ zero_count()</text>
</a>
</g>
</g>
<!-- Node4&#45;&gt;Node2 -->
<g id="edge3" class="edge">
<title>Node4&#45;&gt;Node2</title>
<path fill="none" stroke="orange" d="M125.08,-486.5C122.52,-476.21 119.64,-465.76 116.5,-456 114.59,-450.06 112.42,-443.94 110.12,-437.86"/>
<polygon fill="orange" stroke="orange" points="121.7,-487.38 127.45,-496.27 128.5,-485.73 121.7,-487.38"/>
<text text-anchor="middle" x="188" y="-464.5" font-family="Helvetica,sans-Serif" font-size="10.00"> &lt; Vector&lt; type, SIZE &gt; &gt;</text>
</g>
<!-- Node5 -->
<g id="node5" class="node">
<title>Node5</title>
<g id="a_node5"><a xlink:title=" ">
<polygon fill="none" stroke="#bfbfbf" points="124,-667.5 124,-724.5 153,-724.5 153,-667.5 124,-667.5"/>
<text text-anchor="middle" x="138.5" y="-712.5" font-family="Helvetica,sans-Serif" font-size="10.00">int</text>
<polyline fill="none" stroke="#bfbfbf" points="124,-705.5 153,-705.5 "/>
<text text-anchor="middle" x="138.5" y="-693.5" font-family="Helvetica,sans-Serif" font-size="10.00"> </text>
<polyline fill="none" stroke="#bfbfbf" points="124,-686.5 153,-686.5 "/>
<text text-anchor="middle" x="138.5" y="-674.5" font-family="Helvetica,sans-Serif" font-size="10.00"> </text>
</a>
</g>
</g>
<!-- Node5&#45;&gt;Node4 -->
<g id="edge4" class="edge">
<title>Node5&#45;&gt;Node4</title>
<path fill="none" stroke="#404040" d="M138.5,-667.38C138.5,-654.05 138.5,-637.42 138.5,-621.01"/>
<polygon fill="none" stroke="#404040" points="138.5,-620.57 134.5,-614.57 138.5,-608.57 142.5,-614.57 138.5,-620.57"/>
<text text-anchor="middle" x="181.5" y="-641" font-family="Helvetica,sans-Serif" font-size="10.00"> #objects_alive</text>
<text text-anchor="middle" x="181.5" y="-630" font-family="Helvetica,sans-Serif" font-size="10.00">#objects_created</text>
</g>
<!-- Node6 -->
<g id="node6" class="node">
<title>Node6</title>
<g id="a_node6"><a xlink:title=" ">
<polygon fill="none" stroke="#bfbfbf" points="163.5,-347.5 163.5,-404.5 201.5,-404.5 201.5,-347.5 163.5,-347.5"/>
<text text-anchor="middle" x="182.5" y="-392.5" font-family="Helvetica,sans-Serif" font-size="10.00">type</text>
<polyline fill="none" stroke="#bfbfbf" points="163.5,-385.5 201.5,-385.5 "/>
<text text-anchor="middle" x="182.5" y="-373.5" font-family="Helvetica,sans-Serif" font-size="10.00"> </text>
<polyline fill="none" stroke="#bfbfbf" points="163.5,-366.5 201.5,-366.5 "/>
<text text-anchor="middle" x="182.5" y="-354.5" font-family="Helvetica,sans-Serif" font-size="10.00"> </text>
</a>
</g>
</g>
<!-- Node6&#45;&gt;Node1 -->
<g id="edge5" class="edge">
<title>Node6&#45;&gt;Node1</title>
<path fill="none" stroke="#404040" d="M176.76,-347.41C173.06,-329.57 167.91,-304.82 162.44,-278.5"/>
<polygon fill="none" stroke="#404040" points="162.43,-278.47 157.29,-273.41 159.99,-266.72 165.13,-271.78 162.43,-278.47"/>
<text text-anchor="middle" x="178" y="-288" font-family="Helvetica,sans-Serif" font-size="10.00"> &#45;size</text>
</g>
</g>
</svg>
