<?xml version="1.0" encoding="UTF-8" standalone="no"?>
<!DOCTYPE svg PUBLIC "-//W3C//DTD SVG 1.1//EN"
 "http://www.w3.org/Graphics/SVG/1.1/DTD/svg11.dtd">
<!-- Generated by graphviz version 2.43.0 (0)
 -->
<!-- Title: Drone::Drone_rotation_animation Pages: 1 -->
<svg width="1018pt" height="717pt"
 viewBox="0.00 0.00 1018.00 716.50" xmlns="http://www.w3.org/2000/svg" xmlns:xlink="http://www.w3.org/1999/xlink">
<g id="graph0" class="graph" transform="scale(1 1) rotate(0) translate(4 712.5)">
<title>Drone::Drone_rotation_animation</title>
<!-- Node1 -->
<g id="node1" class="node">
<title>Node1</title>
<g id="a_node1"><a xlink:title="Metoda animujaca obrot drona i wyrysowujaca calosc w gnuplocie.">
<polygon fill="#bfbfbf" stroke="black" points="0,-472.5 0,-502.5 125,-502.5 125,-472.5 0,-472.5"/>
<text text-anchor="start" x="8" y="-490.5" font-family="Helvetica,sans-Serif" font-size="10.00">Drone::Drone_rotation</text>
<text text-anchor="middle" x="62.5" y="-479.5" font-family="Helvetica,sans-Serif" font-size="10.00">_animation</text>
</a>
</g>
</g>
<!-- Node2 -->
<g id="node2" class="node">
<title>Node2</title>
<g id="a_node2"><a xlink:href="class_drone.html#af03af60a9b92e4191a7e66b5c20b52bb" target="_top" xlink:title="Metoda zamieniajaca drona na tego z pliku sample.">
<polygon fill="none" stroke="black" points="165,-385.5 165,-415.5 287,-415.5 287,-385.5 165,-385.5"/>
<text text-anchor="start" x="173" y="-403.5" font-family="Helvetica,sans-Serif" font-size="10.00">Drone::Drone_change</text>
<text text-anchor="middle" x="226" y="-392.5" font-family="Helvetica,sans-Serif" font-size="10.00">_to_sample</text>
</a>
</g>
</g>
<!-- Node1&#45;&gt;Node2 -->
<g id="edge1" class="edge">
<title>Node1&#45;&gt;Node2</title>
<path fill="none" stroke="midnightblue" d="M91.63,-472.35C118.3,-457.98 158.52,-436.31 187.82,-420.53"/>
<polygon fill="midnightblue" stroke="midnightblue" points="189.78,-423.45 196.92,-415.63 186.46,-417.29 189.78,-423.45"/>
</g>
<!-- Node12 -->
<g id="node12" class="node">
<title>Node12</title>
<g id="a_node12"><a xlink:href="class_drone.html#ad42bc54902df967b94717617aca1a974" target="_top" xlink:title="Metoda obracajaca dron o zadany kat w 3D wokol srodka figury">
<polygon fill="none" stroke="black" points="339,-478 339,-497 491,-497 491,-478 339,-478"/>
<text text-anchor="middle" x="415" y="-485" font-family="Helvetica,sans-Serif" font-size="10.00">Drone::rotation_around_cen</text>
</a>
</g>
</g>
<!-- Node1&#45;&gt;Node12 -->
<g id="edge44" class="edge">
<title>Node1&#45;&gt;Node12</title>
<path fill="none" stroke="midnightblue" d="M125.36,-487.5C181.76,-487.5 265.64,-487.5 328.46,-487.5"/>
<polygon fill="midnightblue" stroke="midnightblue" points="328.74,-491 338.74,-487.5 328.74,-484 328.74,-491"/>
</g>
<!-- Node27 -->
<g id="node27" class="node">
<title>Node27</title>
<g id="a_node27"><a xlink:href="class_drone.html#aae0029f50083a01fe75c7d504c2fe5b9" target="_top" xlink:title="Metoda zapisujaca parametry drona do plikow (do plikow final kazdego z elementow)">
<polygon fill="none" stroke="black" points="357.5,-579.5 357.5,-609.5 472.5,-609.5 472.5,-579.5 357.5,-579.5"/>
<text text-anchor="start" x="365.5" y="-597.5" font-family="Helvetica,sans-Serif" font-size="10.00">Drone::Print_to_files</text>
<text text-anchor="middle" x="415" y="-586.5" font-family="Helvetica,sans-Serif" font-size="10.00">_drone</text>
</a>
</g>
</g>
<!-- Node1&#45;&gt;Node27 -->
<g id="edge38" class="edge">
<title>Node1&#45;&gt;Node27</title>
<path fill="none" stroke="midnightblue" d="M74.75,-502.58C91.13,-523.22 123.69,-559.52 161,-575.5 220.22,-600.86 294.35,-603.44 347.02,-601"/>
<polygon fill="midnightblue" stroke="midnightblue" points="347.46,-604.48 357.26,-600.45 347.09,-597.49 347.46,-604.48"/>
</g>
<!-- Node32 -->
<g id="node32" class="node">
<title>Node32</title>
<g id="a_node32"><a xlink:href="class_drone.html#aedb04b80609b22ff4eb4a957bc149a48" target="_top" xlink:title="Metoda animujaca obrot rotorow i zapisujaca to w plikach. Metoda sluzy jako metoda pomocnicza,...">
<polygon fill="none" stroke="black" points="162.5,-535.5 162.5,-565.5 289.5,-565.5 289.5,-535.5 162.5,-535.5"/>
<text text-anchor="start" x="170.5" y="-553.5" font-family="Helvetica,sans-Serif" font-size="10.00">Drone::Rotors_rotation</text>
<text text-anchor="middle" x="226" y="-542.5" font-family="Helvetica,sans-Serif" font-size="10.00">_animation</text>
</a>
</g>
</g>
<!-- Node1&#45;&gt;Node32 -->
<g id="edge45" class="edge">
<title>Node1&#45;&gt;Node32</title>
<path fill="none" stroke="midnightblue" d="M102.18,-502.59C124.57,-511.32 152.95,-522.39 176.79,-531.69"/>
<polygon fill="midnightblue" stroke="midnightblue" points="175.76,-535.05 186.35,-535.42 178.31,-528.53 175.76,-535.05"/>
</g>
<!-- Node33 -->
<g id="node33" class="node">
<title>Node33</title>
<g id="a_node33"><a xlink:href="class_pz_g_1_1_lacze_do_g_n_u_plota.html#a065f5b8402737cc62b0ad4f66d028335" target="_top" xlink:title="Generuje polecenie rysowania i przesyła je do gnuplota.">
<polygon fill="none" stroke="black" points="161,-167.5 161,-197.5 291,-197.5 291,-167.5 161,-167.5"/>
<text text-anchor="start" x="169" y="-185.5" font-family="Helvetica,sans-Serif" font-size="10.00">PzG::LaczeDoGNUPlota</text>
<text text-anchor="middle" x="226" y="-174.5" font-family="Helvetica,sans-Serif" font-size="10.00">::Rysuj</text>
</a>
</g>
</g>
<!-- Node1&#45;&gt;Node33 -->
<g id="edge48" class="edge">
<title>Node1&#45;&gt;Node33</title>
<path fill="none" stroke="midnightblue" d="M71.51,-472.38C97.55,-423.19 180.02,-267.45 212.08,-206.91"/>
<polygon fill="midnightblue" stroke="midnightblue" points="215.36,-208.19 216.94,-197.72 209.17,-204.92 215.36,-208.19"/>
</g>
<!-- Node3 -->
<g id="node3" class="node">
<title>Node3</title>
<g id="a_node3"><a xlink:href="class_drone.html#ada6f4e93f4a63cbe1d6fbebf329efe62" target="_top" xlink:title="Metoda wczytywania odpowiednich wierzcholkow z pliku wzorcowego zgodnie z zaproponowanym sposobem w z...">
<polygon fill="none" stroke="black" points="338.5,-222 338.5,-241 491.5,-241 491.5,-222 338.5,-222"/>
<text text-anchor="middle" x="415" y="-229" font-family="Helvetica,sans-Serif" font-size="10.00">Drone::Drone_From_Sample</text>
</a>
</g>
</g>
<!-- Node2&#45;&gt;Node3 -->
<g id="edge2" class="edge">
<title>Node2&#45;&gt;Node3</title>
<path fill="none" stroke="midnightblue" d="M243.92,-385.2C279.03,-353.48 359.51,-280.75 395.74,-248.01"/>
<polygon fill="midnightblue" stroke="midnightblue" points="398.08,-250.6 403.16,-241.3 393.39,-245.41 398.08,-250.6"/>
</g>
<!-- Node2&#45;&gt;Node12 -->
<g id="edge19" class="edge">
<title>Node2&#45;&gt;Node12</title>
<path fill="none" stroke="midnightblue" d="M259.57,-415.65C294.62,-431.96 349.9,-457.68 383.94,-473.52"/>
<polygon fill="midnightblue" stroke="midnightblue" points="382.82,-476.85 393.36,-477.9 385.77,-470.51 382.82,-476.85"/>
</g>
<!-- Node22 -->
<g id="node22" class="node">
<title>Node22</title>
<g id="a_node22"><a xlink:href="class_drone.html#a55c483c4e4cf0ec91d5bda5448417f08" target="_top" xlink:title="Metoda ustawiajaca drone_pos">
<polygon fill="none" stroke="black" points="354,-391 354,-410 476,-410 476,-391 354,-391"/>
<text text-anchor="middle" x="415" y="-398" font-family="Helvetica,sans-Serif" font-size="10.00">Drone::set_drone_pos</text>
</a>
</g>
</g>
<!-- Node2&#45;&gt;Node22 -->
<g id="edge31" class="edge">
<title>Node2&#45;&gt;Node22</title>
<path fill="none" stroke="midnightblue" d="M287.2,-400.5C305.21,-400.5 325.13,-400.5 343.73,-400.5"/>
<polygon fill="midnightblue" stroke="midnightblue" points="343.92,-404 353.92,-400.5 343.92,-397 343.92,-404"/>
</g>
<!-- Node24 -->
<g id="node24" class="node">
<title>Node24</title>
<g id="a_node24"><a xlink:href="class_drone.html#a6662bd8203e8c9a0721c457b3612a7c1" target="_top" xlink:title="Metoda uzywana przy konstruowania drona przesuwa drona w ten sposob, ze Vector3D centre prostopadlosc...">
<polygon fill="none" stroke="black" points="363,-341.5 363,-371.5 467,-371.5 467,-341.5 363,-341.5"/>
<text text-anchor="start" x="371" y="-359.5" font-family="Helvetica,sans-Serif" font-size="10.00">Drone::translation</text>
<text text-anchor="middle" x="415" y="-348.5" font-family="Helvetica,sans-Serif" font-size="10.00">_to_pos</text>
</a>
</g>
</g>
<!-- Node2&#45;&gt;Node24 -->
<g id="edge33" class="edge">
<title>Node2&#45;&gt;Node24</title>
<path fill="none" stroke="midnightblue" d="M287.2,-386.34C308.21,-381.39 331.81,-375.84 352.9,-370.88"/>
<polygon fill="midnightblue" stroke="midnightblue" points="353.78,-374.27 362.71,-368.57 352.17,-367.45 353.78,-374.27"/>
</g>
<!-- Node4 -->
<g id="node4" class="node">
<title>Node4</title>
<g id="a_node4"><a xlink:href="class_cuboid.html#a773f92fecdf9686b951cf5736c83f318" target="_top" xlink:title="Metoda wczytywania odpowiednich wierzcholkow z pliku wzorcowego zgodnie z zaproponowanym sposobem zad...">
<polygon fill="none" stroke="black" points="557,-216.5 557,-246.5 677,-246.5 677,-216.5 557,-216.5"/>
<text text-anchor="start" x="565" y="-234.5" font-family="Helvetica,sans-Serif" font-size="10.00">Cuboid::Cuboid_From</text>
<text text-anchor="middle" x="617" y="-223.5" font-family="Helvetica,sans-Serif" font-size="10.00">_Sample</text>
</a>
</g>
</g>
<!-- Node3&#45;&gt;Node4 -->
<g id="edge3" class="edge">
<title>Node3&#45;&gt;Node4</title>
<path fill="none" stroke="midnightblue" d="M491.61,-231.5C509.64,-231.5 528.8,-231.5 546.54,-231.5"/>
<polygon fill="midnightblue" stroke="midnightblue" points="546.8,-235 556.8,-231.5 546.8,-228 546.8,-235"/>
</g>
<!-- Node9 -->
<g id="node9" class="node">
<title>Node9</title>
<g id="a_node9"><a xlink:href="class_drone.html#addf8532ee98ca800a64a78f3808fce98" target="_top" xlink:title="Metoda zwracajaca nazwy plikow do zapisu dla drona.">
<polygon fill="none" stroke="black" points="556.5,-266 556.5,-285 677.5,-285 677.5,-266 556.5,-266"/>
<text text-anchor="middle" x="617" y="-273" font-family="Helvetica,sans-Serif" font-size="10.00">Drone::get_filenames</text>
</a>
</g>
</g>
<!-- Node3&#45;&gt;Node9 -->
<g id="edge8" class="edge">
<title>Node3&#45;&gt;Node9</title>
<path fill="none" stroke="midnightblue" d="M459.4,-241.05C489.67,-247.71 530.26,-256.64 562.53,-263.74"/>
<polygon fill="midnightblue" stroke="midnightblue" points="562.17,-267.24 572.69,-265.97 563.67,-260.4 562.17,-267.24"/>
</g>
<!-- Node10 -->
<g id="node10" class="node">
<title>Node10</title>
<g id="a_node10"><a xlink:href="class_prism.html#a5e0a2234e9ebe3b51146c0ddc42e8b48" target="_top" xlink:title="Metoda wczytywania odpowiednich wierzcholkow z pliku wzorcowego zgodnie z zaproponowanym sposobem zad...">
<polygon fill="none" stroke="black" points="542,-178 542,-197 692,-197 692,-178 542,-178"/>
<text text-anchor="middle" x="617" y="-185" font-family="Helvetica,sans-Serif" font-size="10.00">Prism::Prism_From_Sample</text>
</a>
</g>
</g>
<!-- Node3&#45;&gt;Node10 -->
<g id="edge11" class="edge">
<title>Node3&#45;&gt;Node10</title>
<path fill="none" stroke="midnightblue" d="M459.4,-221.95C489.67,-215.29 530.26,-206.36 562.53,-199.26"/>
<polygon fill="midnightblue" stroke="midnightblue" points="563.67,-202.6 572.69,-197.03 562.17,-195.76 563.67,-202.6"/>
</g>
<!-- Node11 -->
<g id="node11" class="node">
<title>Node11</title>
<g id="a_node11"><a xlink:href="class_drone.html#add09c27034d4ff229cc22b58c443c0f4" target="_top" xlink:title="Metoda ustawiajaca nazwy plikow do zapisu dla drona.">
<polygon fill="none" stroke="black" points="551,-140 551,-159 683,-159 683,-140 551,-140"/>
<text text-anchor="middle" x="617" y="-147" font-family="Helvetica,sans-Serif" font-size="10.00">Drone::setup_filenames</text>
</a>
</g>
</g>
<!-- Node3&#45;&gt;Node11 -->
<g id="edge16" class="edge">
<title>Node3&#45;&gt;Node11</title>
<path fill="none" stroke="midnightblue" d="M454.31,-222C470.04,-217.17 488.04,-210.41 503,-201.5 521.65,-190.4 519.87,-178.75 539,-168.5 543.25,-166.22 547.78,-164.21 552.43,-162.44"/>
<polygon fill="midnightblue" stroke="midnightblue" points="553.78,-165.68 562.11,-159.12 551.51,-159.05 553.78,-165.68"/>
</g>
<!-- Node5 -->
<g id="node5" class="node">
<title>Node5</title>
<g id="a_node5"><a xlink:href="class_block.html#aeef4dd3716afaea42688a4f96456ce27" target="_top" xlink:title="Metoda zwracajaca nazwe pliku z finalna (robocza) bryla">
<polygon fill="none" stroke="black" points="738.5,-265 738.5,-284 863.5,-284 863.5,-265 738.5,-265"/>
<text text-anchor="middle" x="801" y="-272" font-family="Helvetica,sans-Serif" font-size="10.00">Block::get_final_name</text>
</a>
</g>
</g>
<!-- Node4&#45;&gt;Node5 -->
<g id="edge4" class="edge">
<title>Node4&#45;&gt;Node5</title>
<path fill="none" stroke="midnightblue" d="M677.09,-245.46C700.49,-250.99 727.12,-257.28 749.59,-262.59"/>
<polygon fill="midnightblue" stroke="midnightblue" points="749.06,-266.06 759.6,-264.95 750.67,-259.25 749.06,-266.06"/>
</g>
<!-- Node6 -->
<g id="node6" class="node">
<title>Node6</title>
<g id="a_node6"><a xlink:href="class_block.html#aed17e0cb13b8eea50fe735ba05204da9" target="_top" xlink:title="Metoda zwracajaca nazwe pliku z wzorcowa bryla">
<polygon fill="none" stroke="black" points="731,-224 731,-243 871,-243 871,-224 731,-224"/>
<text text-anchor="middle" x="801" y="-231" font-family="Helvetica,sans-Serif" font-size="10.00">Block::get_sample_name</text>
</a>
</g>
</g>
<!-- Node4&#45;&gt;Node6 -->
<g id="edge5" class="edge">
<title>Node4&#45;&gt;Node6</title>
<path fill="none" stroke="midnightblue" d="M677.09,-232.15C691.01,-232.3 706.06,-232.47 720.7,-232.63"/>
<polygon fill="midnightblue" stroke="midnightblue" points="720.72,-236.13 730.76,-232.74 720.8,-229.13 720.72,-236.13"/>
</g>
<!-- Node7 -->
<g id="node7" class="node">
<title>Node7</title>
<g id="a_node7"><a xlink:href="class_block.html#a640a910076d8b10533a9a80d740f8f03" target="_top" xlink:title="Metoda zapisujaca do klasy nazwe pliku z finalna (robocza) bryla">
<polygon fill="none" stroke="black" points="739,-186 739,-205 863,-205 863,-186 739,-186"/>
<text text-anchor="middle" x="801" y="-193" font-family="Helvetica,sans-Serif" font-size="10.00">Block::set_final_name</text>
</a>
</g>
</g>
<!-- Node4&#45;&gt;Node7 -->
<g id="edge6" class="edge">
<title>Node4&#45;&gt;Node7</title>
<path fill="none" stroke="midnightblue" d="M677.09,-219.81C697.87,-215.7 721.2,-211.09 741.9,-206.99"/>
<polygon fill="midnightblue" stroke="midnightblue" points="742.7,-210.4 751.83,-205.03 741.34,-203.54 742.7,-210.4"/>
</g>
<!-- Node8 -->
<g id="node8" class="node">
<title>Node8</title>
<g id="a_node8"><a xlink:href="class_block.html#acf20b290f1543e580ff1f2c6d98ff4c4" target="_top" xlink:title="Metoda zapisujaca do klasy nazwe pliku z wzorcowa bryla">
<polygon fill="none" stroke="black" points="731.5,-148 731.5,-167 870.5,-167 870.5,-148 731.5,-148"/>
<text text-anchor="middle" x="801" y="-155" font-family="Helvetica,sans-Serif" font-size="10.00">Block::set_sample_name</text>
</a>
</g>
</g>
<!-- Node4&#45;&gt;Node8 -->
<g id="edge7" class="edge">
<title>Node4&#45;&gt;Node8</title>
<path fill="none" stroke="midnightblue" d="M673.35,-216.37C680.82,-213.52 688.23,-210.24 695,-206.5 713.23,-196.44 712.54,-186.15 731,-176.5 735.31,-174.24 739.93,-172.23 744.64,-170.45"/>
<polygon fill="midnightblue" stroke="midnightblue" points="746.09,-173.65 754.4,-167.08 743.81,-167.03 746.09,-173.65"/>
</g>
<!-- Node9&#45;&gt;Node5 -->
<g id="edge9" class="edge">
<title>Node9&#45;&gt;Node5</title>
<path fill="none" stroke="midnightblue" d="M677.59,-275.17C693.73,-275.08 711.38,-274.99 728.11,-274.89"/>
<polygon fill="midnightblue" stroke="midnightblue" points="728.42,-278.39 738.4,-274.84 728.38,-271.39 728.42,-278.39"/>
</g>
<!-- Node9&#45;&gt;Node6 -->
<g id="edge10" class="edge">
<title>Node9&#45;&gt;Node6</title>
<path fill="none" stroke="midnightblue" d="M659.3,-265.97C685.73,-259.87 720.24,-251.91 748.46,-245.39"/>
<polygon fill="midnightblue" stroke="midnightblue" points="749.59,-248.72 758.55,-243.07 748.02,-241.9 749.59,-248.72"/>
</g>
<!-- Node10&#45;&gt;Node5 -->
<g id="edge12" class="edge">
<title>Node10&#45;&gt;Node5</title>
<path fill="none" stroke="midnightblue" d="M675.31,-197.06C682.24,-199.52 688.99,-202.61 695,-206.5 716.8,-220.6 709.69,-237.68 731,-252.5 735.83,-255.86 741.19,-258.72 746.74,-261.16"/>
<polygon fill="midnightblue" stroke="midnightblue" points="745.6,-264.47 756.18,-264.88 748.16,-257.96 745.6,-264.47"/>
</g>
<!-- Node10&#45;&gt;Node6 -->
<g id="edge13" class="edge">
<title>Node10&#45;&gt;Node6</title>
<path fill="none" stroke="midnightblue" d="M657.19,-197.09C669.32,-200.08 682.72,-203.41 695,-206.5 714.1,-211.31 735.12,-216.7 753.31,-221.39"/>
<polygon fill="midnightblue" stroke="midnightblue" points="752.53,-224.8 763.09,-223.92 754.28,-218.03 752.53,-224.8"/>
</g>
<!-- Node10&#45;&gt;Node7 -->
<g id="edge14" class="edge">
<title>Node10&#45;&gt;Node7</title>
<path fill="none" stroke="midnightblue" d="M692.03,-190.75C704.17,-191.29 716.74,-191.84 728.82,-192.37"/>
<polygon fill="midnightblue" stroke="midnightblue" points="728.68,-195.87 738.83,-192.81 728.99,-188.88 728.68,-195.87"/>
</g>
<!-- Node10&#45;&gt;Node8 -->
<g id="edge15" class="edge">
<title>Node10&#45;&gt;Node8</title>
<path fill="none" stroke="midnightblue" d="M675.84,-177.97C693.83,-175 713.84,-171.7 732.44,-168.64"/>
<polygon fill="midnightblue" stroke="midnightblue" points="733.02,-172.09 742.31,-167.01 731.88,-165.18 733.02,-172.09"/>
</g>
<!-- Node11&#45;&gt;Node7 -->
<g id="edge17" class="edge">
<title>Node11&#45;&gt;Node7</title>
<path fill="none" stroke="midnightblue" d="M657.19,-159.09C669.32,-162.08 682.72,-165.41 695,-168.5 714.1,-173.31 735.12,-178.7 753.31,-183.39"/>
<polygon fill="midnightblue" stroke="midnightblue" points="752.53,-186.8 763.09,-185.92 754.28,-180.03 752.53,-186.8"/>
</g>
<!-- Node11&#45;&gt;Node8 -->
<g id="edge18" class="edge">
<title>Node11&#45;&gt;Node8</title>
<path fill="none" stroke="midnightblue" d="M683.19,-152.37C695.51,-152.91 708.51,-153.48 721.19,-154.04"/>
<polygon fill="midnightblue" stroke="midnightblue" points="721.12,-157.54 731.27,-154.48 721.43,-150.54 721.12,-157.54"/>
</g>
<!-- Node13 -->
<g id="node13" class="node">
<title>Node13</title>
<g id="a_node13"><a xlink:href="class_prism.html#a22c5467db5d960bddbaf9a52f55c55cb" target="_top" xlink:title="Metoda obracajaca graniastoslup o zadany kat w 3D wokol srodka figury">
<polygon fill="none" stroke="black" points="542,-563 542,-582 692,-582 692,-563 542,-563"/>
<text text-anchor="middle" x="617" y="-570" font-family="Helvetica,sans-Serif" font-size="10.00">Prism::rotation_around_cen</text>
</a>
</g>
</g>
<!-- Node12&#45;&gt;Node13 -->
<g id="edge20" class="edge">
<title>Node12&#45;&gt;Node13</title>
<path fill="none" stroke="midnightblue" d="M438.55,-497.09C474.13,-512.21 543.42,-541.65 584.09,-558.94"/>
<polygon fill="midnightblue" stroke="midnightblue" points="582.96,-562.26 593.53,-562.95 585.69,-555.82 582.96,-562.26"/>
</g>
<!-- Node16 -->
<g id="node16" class="node">
<title>Node16</title>
<g id="a_node16"><a xlink:href="class_cuboid.html#a6c697c2d9b36a14c43c7328876d5a1f0" target="_top" xlink:title="Metoda obracajaca prostopadloscian o zadany kat w 3D wokol srodka figury">
<polygon fill="none" stroke="black" points="539,-456 539,-475 695,-475 695,-456 539,-456"/>
<text text-anchor="middle" x="617" y="-463" font-family="Helvetica,sans-Serif" font-size="10.00">Cuboid::rotation_around_cen</text>
</a>
</g>
</g>
<!-- Node12&#45;&gt;Node16 -->
<g id="edge24" class="edge">
<title>Node12&#45;&gt;Node16</title>
<path fill="none" stroke="midnightblue" d="M491.04,-479.25C503.37,-477.89 516.25,-476.47 528.84,-475.09"/>
<polygon fill="midnightblue" stroke="midnightblue" points="529.31,-478.56 538.87,-473.98 528.55,-471.6 529.31,-478.56"/>
</g>
<!-- Node19 -->
<g id="node19" class="node">
<title>Node19</title>
<g id="a_node19"><a xlink:href="class_drone.html#aea963b77f42c204504542a3d9190d762" target="_top" xlink:title="Metoda uzywana przy konstruowania drona Ustawia rotory w ten sposob, ze srodek ich dolnej podstawy je...">
<polygon fill="none" stroke="black" points="559.5,-494.5 559.5,-524.5 674.5,-524.5 674.5,-494.5 559.5,-494.5"/>
<text text-anchor="start" x="567.5" y="-512.5" font-family="Helvetica,sans-Serif" font-size="10.00">Drone::set_rotors_in</text>
<text text-anchor="middle" x="617" y="-501.5" font-family="Helvetica,sans-Serif" font-size="10.00">_place</text>
</a>
</g>
</g>
<!-- Node12&#45;&gt;Node19 -->
<g id="edge27" class="edge">
<title>Node12&#45;&gt;Node19</title>
<path fill="none" stroke="midnightblue" d="M491.04,-495.75C510.12,-497.85 530.49,-500.09 549.14,-502.14"/>
<polygon fill="midnightblue" stroke="midnightblue" points="548.97,-505.65 559.29,-503.26 549.74,-498.69 548.97,-505.65"/>
</g>
<!-- Node14 -->
<g id="node14" class="node">
<title>Node14</title>
<g id="a_node14"><a xlink:href="class_prism.html#ade146d341c0468030f8c1258b7fe1041" target="_top" xlink:title="Metoda przesuwajaca graniastoslup o zadany wektor w 3D">
<polygon fill="none" stroke="black" points="907,-553 907,-572 1010,-572 1010,-553 907,-553"/>
<text text-anchor="middle" x="958.5" y="-560" font-family="Helvetica,sans-Serif" font-size="10.00">Prism::translation</text>
</a>
</g>
</g>
<!-- Node13&#45;&gt;Node14 -->
<g id="edge21" class="edge">
<title>Node13&#45;&gt;Node14</title>
<path fill="none" stroke="midnightblue" d="M644.98,-582.1C667.61,-589.62 700.96,-599.45 731,-603.5 792.67,-611.81 810.3,-617.16 871,-603.5 893.36,-598.47 916.74,-586.96 933.54,-577.41"/>
<polygon fill="midnightblue" stroke="midnightblue" points="935.77,-580.16 942.62,-572.08 932.23,-574.12 935.77,-580.16"/>
</g>
<!-- Node15 -->
<g id="node15" class="node">
<title>Node15</title>
<g id="a_node15"><a xlink:href="class_prism.html#afed2c26932d5cb152fd620d2acbfbc3e" target="_top" xlink:title="Metoda przesuwajaca graniastoslup do srodka ukladu wspolrzednych (tak, ze srodek graniastoslupa pokry...">
<polygon fill="none" stroke="black" points="735.5,-575 735.5,-594 866.5,-594 866.5,-575 735.5,-575"/>
<text text-anchor="middle" x="801" y="-582" font-family="Helvetica,sans-Serif" font-size="10.00">Prism::translation_to_O</text>
</a>
</g>
</g>
<!-- Node13&#45;&gt;Node15 -->
<g id="edge22" class="edge">
<title>Node13&#45;&gt;Node15</title>
<path fill="none" stroke="midnightblue" d="M692.03,-577.38C703.03,-578.11 714.37,-578.85 725.38,-579.58"/>
<polygon fill="midnightblue" stroke="midnightblue" points="725.18,-583.07 735.39,-580.24 725.64,-576.09 725.18,-583.07"/>
</g>
<!-- Node15&#45;&gt;Node14 -->
<g id="edge23" class="edge">
<title>Node15&#45;&gt;Node14</title>
<path fill="none" stroke="midnightblue" d="M866.6,-575.36C876.5,-573.96 886.71,-572.52 896.53,-571.13"/>
<polygon fill="midnightblue" stroke="midnightblue" points="897.2,-574.57 906.61,-569.7 896.22,-567.64 897.2,-574.57"/>
</g>
<!-- Node17 -->
<g id="node17" class="node">
<title>Node17</title>
<g id="a_node17"><a xlink:href="class_cuboid.html#a3f6b1b9ea7de433af5b0d462d29f4272" target="_top" xlink:title="Metoda przesuwajaca prostopadloscian o zadany kat w 3D">
<polygon fill="none" stroke="black" points="746.5,-411 746.5,-430 855.5,-430 855.5,-411 746.5,-411"/>
<text text-anchor="middle" x="801" y="-418" font-family="Helvetica,sans-Serif" font-size="10.00">Cuboid::translation</text>
</a>
</g>
</g>
<!-- Node16&#45;&gt;Node17 -->
<g id="edge25" class="edge">
<title>Node16&#45;&gt;Node17</title>
<path fill="none" stroke="midnightblue" d="M656.78,-455.94C669.01,-452.92 682.57,-449.57 695,-446.5 713.44,-441.94 733.7,-436.93 751.46,-432.53"/>
<polygon fill="midnightblue" stroke="midnightblue" points="752.74,-435.82 761.6,-430.02 751.05,-429.02 752.74,-435.82"/>
</g>
<!-- Node18 -->
<g id="node18" class="node">
<title>Node18</title>
<g id="a_node18"><a xlink:href="class_cuboid.html#a42bdce7c214e759cb6ea94d4f547a5b9" target="_top" xlink:title="Metoda przesuwajaca prostopadloscian do (0,0,0)">
<polygon fill="none" stroke="black" points="732.5,-449 732.5,-468 869.5,-468 869.5,-449 732.5,-449"/>
<text text-anchor="middle" x="801" y="-456" font-family="Helvetica,sans-Serif" font-size="10.00">Cuboid::translation_to_O</text>
</a>
</g>
</g>
<!-- Node16&#45;&gt;Node18 -->
<g id="edge26" class="edge">
<title>Node16&#45;&gt;Node18</title>
<path fill="none" stroke="midnightblue" d="M695.18,-462.53C704.19,-462.18 713.39,-461.83 722.41,-461.48"/>
<polygon fill="midnightblue" stroke="midnightblue" points="722.63,-464.98 732.49,-461.1 722.36,-457.98 722.63,-464.98"/>
</g>
<!-- Node20 -->
<g id="node20" class="node">
<title>Node20</title>
<g id="a_node20"><a xlink:href="class_cuboid.html#a99d30564d6129e6905c5333e04df9606" target="_top" xlink:title="Metoda zwracajaca wierzcholki prostopadloscianu do Vector3D">
<polygon fill="none" stroke="black" points="753.5,-487 753.5,-506 848.5,-506 848.5,-487 753.5,-487"/>
<text text-anchor="middle" x="801" y="-494" font-family="Helvetica,sans-Serif" font-size="10.00">Cuboid::get_cub</text>
</a>
</g>
</g>
<!-- Node19&#45;&gt;Node20 -->
<g id="edge28" class="edge">
<title>Node19&#45;&gt;Node20</title>
<path fill="none" stroke="midnightblue" d="M674.59,-505.46C696.39,-503.9 721.28,-502.12 743.11,-500.56"/>
<polygon fill="midnightblue" stroke="midnightblue" points="743.5,-504.04 753.22,-499.84 743,-497.06 743.5,-504.04"/>
</g>
<!-- Node21 -->
<g id="node21" class="node">
<title>Node21</title>
<g id="a_node21"><a xlink:href="class_prism.html#a4e2b0b9c37d6a53af869522a4bf364ac" target="_top" xlink:title="Metoda przesuwajaca graniastoslup o zadany wektor w 3D w taki sposob, ze srodek jego dolnej podstawy ...">
<polygon fill="none" stroke="black" points="749.5,-525.5 749.5,-555.5 852.5,-555.5 852.5,-525.5 749.5,-525.5"/>
<text text-anchor="start" x="757.5" y="-543.5" font-family="Helvetica,sans-Serif" font-size="10.00">Prism::translation</text>
<text text-anchor="middle" x="801" y="-532.5" font-family="Helvetica,sans-Serif" font-size="10.00">_of_lower_cen</text>
</a>
</g>
</g>
<!-- Node19&#45;&gt;Node21 -->
<g id="edge29" class="edge">
<title>Node19&#45;&gt;Node21</title>
<path fill="none" stroke="midnightblue" d="M674.59,-519.14C695.12,-522.64 718.4,-526.6 739.28,-530.16"/>
<polygon fill="midnightblue" stroke="midnightblue" points="738.87,-533.64 749.31,-531.87 740.04,-526.74 738.87,-533.64"/>
</g>
<!-- Node21&#45;&gt;Node14 -->
<g id="edge30" class="edge">
<title>Node21&#45;&gt;Node14</title>
<path fill="none" stroke="midnightblue" d="M852.92,-547.7C866.82,-549.67 882.02,-551.82 896.42,-553.86"/>
<polygon fill="midnightblue" stroke="midnightblue" points="896.34,-557.38 906.73,-555.32 897.32,-550.45 896.34,-557.38"/>
</g>
<!-- Node23 -->
<g id="node23" class="node">
<title>Node23</title>
<g id="a_node23"><a xlink:href="class_cuboid.html#a08fae08a1c8c70ada48ce3af46c82eee" target="_top" xlink:title="Metoda zwracajaca wysokosc prostopadloscianu">
<polygon fill="none" stroke="black" points="563,-342 563,-361 671,-361 671,-342 563,-342"/>
<text text-anchor="middle" x="617" y="-349" font-family="Helvetica,sans-Serif" font-size="10.00">Cuboid::get_height</text>
</a>
</g>
</g>
<!-- Node22&#45;&gt;Node23 -->
<g id="edge32" class="edge">
<title>Node22&#45;&gt;Node23</title>
<path fill="none" stroke="midnightblue" d="M461.69,-390.92C475.04,-388.02 489.63,-384.73 503,-381.5 525.72,-376.01 550.86,-369.38 571.66,-363.76"/>
<polygon fill="midnightblue" stroke="midnightblue" points="572.75,-367.09 581.48,-361.09 570.91,-360.34 572.75,-367.09"/>
</g>
<!-- Node25 -->
<g id="node25" class="node">
<title>Node25</title>
<g id="a_node25"><a xlink:href="class_cuboid.html#aafa18740d9c98ca928395b9873a9c63d" target="_top" xlink:title="Metoda zwracajaca punkt centralny (czyli taki, ktorego odleglosci do kazdego wierzcholka sa rowne) pr...">
<polygon fill="none" stroke="black" points="558.5,-304 558.5,-323 675.5,-323 675.5,-304 558.5,-304"/>
<text text-anchor="middle" x="617" y="-311" font-family="Helvetica,sans-Serif" font-size="10.00">Cuboid::centre_point</text>
</a>
</g>
</g>
<!-- Node24&#45;&gt;Node25 -->
<g id="edge34" class="edge">
<title>Node24&#45;&gt;Node25</title>
<path fill="none" stroke="midnightblue" d="M467.25,-345.48C496.13,-339.27 532.2,-331.52 561.59,-325.2"/>
<polygon fill="midnightblue" stroke="midnightblue" points="562.64,-328.55 571.68,-323.03 561.17,-321.71 562.64,-328.55"/>
</g>
<!-- Node26 -->
<g id="node26" class="node">
<title>Node26</title>
<g id="a_node26"><a xlink:href="class_drone.html#a9684cd7ce04b7e6191f3d6b3a745370b" target="_top" xlink:title="Przesuwa drona o zadany wektor w 3D">
<polygon fill="none" stroke="black" points="565,-418 565,-437 669,-437 669,-418 565,-418"/>
<text text-anchor="middle" x="617" y="-425" font-family="Helvetica,sans-Serif" font-size="10.00">Drone::translation</text>
</a>
</g>
</g>
<!-- Node24&#45;&gt;Node26 -->
<g id="edge35" class="edge">
<title>Node24&#45;&gt;Node26</title>
<path fill="none" stroke="midnightblue" d="M467.35,-370.27C479.14,-373.7 491.56,-377.54 503,-381.5 531.25,-391.28 562.69,-404.25 585.22,-413.93"/>
<polygon fill="midnightblue" stroke="midnightblue" points="584.03,-417.23 594.6,-417.99 586.81,-410.8 584.03,-417.23"/>
</g>
<!-- Node26&#45;&gt;Node14 -->
<g id="edge36" class="edge">
<title>Node26&#45;&gt;Node14</title>
<path fill="none" stroke="midnightblue" d="M650.79,-417.89C673.16,-411.84 703.6,-404.61 731,-401.5 792.82,-394.48 817.6,-369.57 871,-401.5 923.1,-432.65 945.63,-507.15 953.7,-542.81"/>
<polygon fill="midnightblue" stroke="midnightblue" points="950.34,-543.86 955.83,-552.93 957.19,-542.42 950.34,-543.86"/>
</g>
<!-- Node26&#45;&gt;Node17 -->
<g id="edge37" class="edge">
<title>Node26&#45;&gt;Node17</title>
<path fill="none" stroke="midnightblue" d="M669.18,-425.53C689.97,-424.73 714.2,-423.8 736.13,-422.96"/>
<polygon fill="midnightblue" stroke="midnightblue" points="736.49,-426.45 746.35,-422.56 736.22,-419.45 736.49,-426.45"/>
</g>
<!-- Node27&#45;&gt;Node5 -->
<g id="edge41" class="edge">
<title>Node27&#45;&gt;Node5</title>
<path fill="none" stroke="midnightblue" d="M435.39,-579.2C454.83,-562.98 484.46,-535.7 503,-506.5 527.88,-467.33 504.39,-439.4 539,-408.5 592.23,-360.97 632.03,-404.07 695,-370.5 732.71,-350.39 767.41,-313.61 785.95,-291.88"/>
<polygon fill="midnightblue" stroke="midnightblue" points="788.72,-294.02 792.44,-284.1 783.35,-289.53 788.72,-294.02"/>
</g>
<!-- Node28 -->
<g id="node28" class="node">
<title>Node28</title>
<g id="a_node28"><a xlink:href="class_cuboid.html#abc62d20a2f1418af1c35e369da77f0fc" target="_top" xlink:title=" ">
<polygon fill="none" stroke="black" points="553,-681 553,-700 681,-700 681,-681 553,-681"/>
<text text-anchor="middle" x="617" y="-688" font-family="Helvetica,sans-Serif" font-size="10.00">Cuboid::Cuboid_To_File</text>
</a>
</g>
</g>
<!-- Node27&#45;&gt;Node28 -->
<g id="edge39" class="edge">
<title>Node27&#45;&gt;Node28</title>
<path fill="none" stroke="midnightblue" d="M444.06,-609.57C468.82,-622.69 505.99,-642 539,-657.5 553.3,-664.22 569.33,-671.18 583.05,-676.96"/>
<polygon fill="midnightblue" stroke="midnightblue" points="581.99,-680.31 592.57,-680.95 584.69,-673.86 581.99,-680.31"/>
</g>
<!-- Node30 -->
<g id="node30" class="node">
<title>Node30</title>
<g id="a_node30"><a xlink:href="class_prism.html#a2de0dab6d117fc3c8dcbc3c384d0fccd" target="_top" xlink:title=" ">
<polygon fill="none" stroke="black" points="559,-629 559,-648 675,-648 675,-629 559,-629"/>
<text text-anchor="middle" x="617" y="-636" font-family="Helvetica,sans-Serif" font-size="10.00">Prism::Prism_To_File</text>
</a>
</g>
</g>
<!-- Node27&#45;&gt;Node30 -->
<g id="edge42" class="edge">
<title>Node27&#45;&gt;Node30</title>
<path fill="none" stroke="midnightblue" d="M472.51,-606.93C500.8,-613.16 534.86,-620.65 562.7,-626.77"/>
<polygon fill="midnightblue" stroke="midnightblue" points="562.13,-630.23 572.65,-628.96 563.63,-623.4 562.13,-630.23"/>
</g>
<!-- Node29 -->
<g id="node29" class="node">
<title>Node29</title>
<g id="a_node29"><a xlink:href="class_cuboid.html#a12a97376443b1a15ae8342c1c75b3e1e" target="_top" xlink:title="Metoda wypisania odpowiednich wierzcholkow do pliku zgodnie z zaproponowanym sposobem zadaniu dron">
<polygon fill="none" stroke="black" points="733.5,-689 733.5,-708 868.5,-708 868.5,-689 733.5,-689"/>
<text text-anchor="middle" x="801" y="-696" font-family="Helvetica,sans-Serif" font-size="10.00">Cuboid::print_cuboid_3D</text>
</a>
</g>
</g>
<!-- Node28&#45;&gt;Node29 -->
<g id="edge40" class="edge">
<title>Node28&#45;&gt;Node29</title>
<path fill="none" stroke="midnightblue" d="M681.14,-693.28C694.69,-693.87 709.15,-694.51 723.16,-695.12"/>
<polygon fill="midnightblue" stroke="midnightblue" points="723.11,-698.62 733.25,-695.57 723.41,-691.63 723.11,-698.62"/>
</g>
<!-- Node31 -->
<g id="node31" class="node">
<title>Node31</title>
<g id="a_node31"><a xlink:href="class_prism.html#a764c6940e4fb65303981e8b877b28561" target="_top" xlink:title="Metoda wypisania odpowiednich wierzcholkow do pliku zgodnie z zaproponowanym sposobem zadaniu dron">
<polygon fill="none" stroke="black" points="738.5,-651 738.5,-670 863.5,-670 863.5,-651 738.5,-651"/>
<text text-anchor="middle" x="801" y="-658" font-family="Helvetica,sans-Serif" font-size="10.00">Prism::print_prism_3D</text>
</a>
</g>
</g>
<!-- Node30&#45;&gt;Node31 -->
<g id="edge43" class="edge">
<title>Node30&#45;&gt;Node31</title>
<path fill="none" stroke="midnightblue" d="M675.09,-645.4C691.91,-647.43 710.53,-649.68 728.15,-651.81"/>
<polygon fill="midnightblue" stroke="midnightblue" points="728.04,-655.33 738.38,-653.05 728.88,-648.38 728.04,-655.33"/>
</g>
<!-- Node32&#45;&gt;Node13 -->
<g id="edge47" class="edge">
<title>Node32&#45;&gt;Node13</title>
<path fill="none" stroke="midnightblue" d="M289.93,-554.06C355.65,-557.78 459.1,-563.63 531.81,-567.74"/>
<polygon fill="midnightblue" stroke="midnightblue" points="531.68,-571.24 541.86,-568.31 532.07,-564.25 531.68,-571.24"/>
</g>
<!-- Node32&#45;&gt;Node27 -->
<g id="edge46" class="edge">
<title>Node32&#45;&gt;Node27</title>
<path fill="none" stroke="midnightblue" d="M289.53,-565.21C308.07,-569.57 328.44,-574.37 347.24,-578.79"/>
<polygon fill="midnightblue" stroke="midnightblue" points="346.66,-582.25 357.2,-581.14 348.27,-575.44 346.66,-582.25"/>
</g>
<!-- Node34 -->
<g id="node34" class="node">
<title>Node34</title>
<g id="a_node34"><a xlink:href="namespace_pz_g.html#aa010184f31b26bb561b42f22438b821e" target="_top" xlink:title="Funkcja pomocnicza, dopisuje do polecenia wpisy związane z rysowaniem z pliku.">
<polygon fill="none" stroke="black" points="332,-173 332,-192 498,-192 498,-173 332,-173"/>
<text text-anchor="middle" x="415" y="-180" font-family="Helvetica,sans-Serif" font-size="10.00">PzG::DopiszRysowanieZPlikow</text>
</a>
</g>
</g>
<!-- Node33&#45;&gt;Node34 -->
<g id="edge49" class="edge">
<title>Node33&#45;&gt;Node34</title>
<path fill="none" stroke="midnightblue" d="M291.09,-182.5C300.93,-182.5 311.24,-182.5 321.54,-182.5"/>
<polygon fill="midnightblue" stroke="midnightblue" points="321.82,-186 331.82,-182.5 321.82,-179 321.82,-186"/>
</g>
<!-- Node35 -->
<g id="node35" class="node">
<title>Node35</title>
<g id="a_node35"><a xlink:href="namespace_pz_g.html#a7227cb39c785b1c746b6bb5515c0b781" target="_top" xlink:title="Dodaje do listy rysowanych punktów, punkty o różnych rozmiarach.">
<polygon fill="none" stroke="black" points="327,-101.5 327,-131.5 503,-131.5 503,-101.5 327,-101.5"/>
<text text-anchor="start" x="335" y="-119.5" font-family="Helvetica,sans-Serif" font-size="10.00">PzG::DopiszRysowanieZRoznych</text>
<text text-anchor="middle" x="415" y="-108.5" font-family="Helvetica,sans-Serif" font-size="10.00">Punktow</text>
</a>
</g>
</g>
<!-- Node33&#45;&gt;Node35 -->
<g id="edge50" class="edge">
<title>Node33&#45;&gt;Node35</title>
<path fill="none" stroke="midnightblue" d="M269.9,-167.36C297.22,-157.72 332.79,-145.16 361.75,-134.94"/>
<polygon fill="midnightblue" stroke="midnightblue" points="363.03,-138.2 371.3,-131.57 360.7,-131.6 363.03,-138.2"/>
</g>
<!-- Node36 -->
<g id="node36" class="node">
<title>Node36</title>
<g id="a_node36"><a xlink:href="namespace_pz_g.html#a169c311f0e0b6ffadcd44e91e749f72d" target="_top" xlink:title="Wczytuje z pliku listę punktów.">
<polygon fill="none" stroke="black" points="544.5,-70.5 544.5,-100.5 689.5,-100.5 689.5,-70.5 544.5,-70.5"/>
<text text-anchor="start" x="552.5" y="-88.5" font-family="Helvetica,sans-Serif" font-size="10.00">PzG::WczytajListeRoznych</text>
<text text-anchor="middle" x="617" y="-77.5" font-family="Helvetica,sans-Serif" font-size="10.00">Punktow</text>
</a>
</g>
</g>
<!-- Node35&#45;&gt;Node36 -->
<g id="edge51" class="edge">
<title>Node35&#45;&gt;Node36</title>
<path fill="none" stroke="midnightblue" d="M503.14,-102.99C513.48,-101.39 524.01,-99.76 534.28,-98.17"/>
<polygon fill="midnightblue" stroke="midnightblue" points="535.09,-101.58 544.43,-96.59 534.01,-94.67 535.09,-101.58"/>
</g>
<!-- Node37 -->
<g id="node37" class="node">
<title>Node37</title>
<g id="a_node37"><a xlink:href="class_pz_g_1_1_atrybuty_rysowania.html#ab068535b4d2f755c394557d1da72a4eb" target="_top" xlink:title="Zmienia kolor rysowania.">
<polygon fill="none" stroke="black" points="732.5,-49.5 732.5,-79.5 869.5,-79.5 869.5,-49.5 732.5,-49.5"/>
<text text-anchor="start" x="740.5" y="-67.5" font-family="Helvetica,sans-Serif" font-size="10.00">PzG::AtrybutyRysowania</text>
<text text-anchor="middle" x="801" y="-56.5" font-family="Helvetica,sans-Serif" font-size="10.00">::ZmienKolor</text>
</a>
</g>
</g>
<!-- Node36&#45;&gt;Node37 -->
<g id="edge52" class="edge">
<title>Node36&#45;&gt;Node37</title>
<path fill="none" stroke="midnightblue" d="M689.67,-77.23C700.3,-76 711.3,-74.74 722.05,-73.49"/>
<polygon fill="midnightblue" stroke="midnightblue" points="722.72,-76.94 732.26,-72.32 721.92,-69.99 722.72,-76.94"/>
</g>
<!-- Node38 -->
<g id="node38" class="node">
<title>Node38</title>
<g id="a_node38"><a xlink:href="class_pz_g_1_1_atrybuty_rysowania.html#af4b140eb03bc10b6fd816fad63f8372e" target="_top" xlink:title="Zmienia rozmiar rysowania.">
<polygon fill="none" stroke="black" points="732.5,-0.5 732.5,-30.5 869.5,-30.5 869.5,-0.5 732.5,-0.5"/>
<text text-anchor="start" x="740.5" y="-18.5" font-family="Helvetica,sans-Serif" font-size="10.00">PzG::AtrybutyRysowania</text>
<text text-anchor="middle" x="801" y="-7.5" font-family="Helvetica,sans-Serif" font-size="10.00">::ZmienRozmiar</text>
</a>
</g>
</g>
<!-- Node36&#45;&gt;Node38 -->
<g id="edge53" class="edge">
<title>Node36&#45;&gt;Node38</title>
<path fill="none" stroke="midnightblue" d="M653.69,-70.42C675.84,-61.2 704.94,-49.33 731,-39.5 735.85,-37.67 740.9,-35.82 745.97,-33.99"/>
<polygon fill="midnightblue" stroke="midnightblue" points="747.46,-37.18 755.71,-30.53 745.11,-30.58 747.46,-37.18"/>
</g>
<!-- Node39 -->
<g id="node39" class="node">
<title>Node39</title>
<g id="a_node39"><a xlink:href="class_pz_g_1_1_atrybuty_rysowania.html#a2ac97706124b14072715ecf3f07e82b4" target="_top" xlink:title="Zmienia styl rysowania.">
<polygon fill="none" stroke="black" points="732.5,-98.5 732.5,-128.5 869.5,-128.5 869.5,-98.5 732.5,-98.5"/>
<text text-anchor="start" x="740.5" y="-116.5" font-family="Helvetica,sans-Serif" font-size="10.00">PzG::AtrybutyRysowania</text>
<text text-anchor="middle" x="801" y="-105.5" font-family="Helvetica,sans-Serif" font-size="10.00">::ZmienStyl</text>
</a>
</g>
</g>
<!-- Node36&#45;&gt;Node39 -->
<g id="edge54" class="edge">
<title>Node36&#45;&gt;Node39</title>
<path fill="none" stroke="midnightblue" d="M689.67,-96.53C700.3,-98.16 711.3,-99.85 722.05,-101.51"/>
<polygon fill="midnightblue" stroke="midnightblue" points="721.84,-105.02 732.26,-103.08 722.91,-98.1 721.84,-105.02"/>
</g>
</g>
</svg>
