<?xml version="1.0" encoding="UTF-8" standalone="no"?>
<!DOCTYPE svg PUBLIC "-//W3C//DTD SVG 1.1//EN"
 "http://www.w3.org/Graphics/SVG/1.1/DTD/svg11.dtd">
<!-- Generated by graphviz version 2.43.0 (0)
 -->
<!-- Title: Drone::check_intersection Pages: 1 -->
<svg width="704pt" height="142pt"
 viewBox="0.00 0.00 704.00 142.00" xmlns="http://www.w3.org/2000/svg" xmlns:xlink="http://www.w3.org/1999/xlink">
<g id="graph0" class="graph" transform="scale(1 1) rotate(0) translate(4 138)">
<title>Drone::check_intersection</title>
<!-- Node1 -->
<g id="node1" class="node">
<title>Node1</title>
<g id="a_node1"><a xlink:title="Methoda sprawdzajaca czy rzutowanie drona na plaszczyzne XY &#160;&#160;przecina sie z rzutowaniem granistoslup...">
<polygon fill="#bfbfbf" stroke="black" points="0,-57.5 0,-76.5 143,-76.5 143,-57.5 0,-57.5"/>
<text text-anchor="middle" x="71.5" y="-64.5" font-family="Helvetica,sans-Serif" font-size="10.00">Drone::check_intersection</text>
</a>
</g>
</g>
<!-- Node2 -->
<g id="node2" class="node">
<title>Node2</title>
<g id="a_node2"><a xlink:href="class_prism.html#a1fcb34b9c294eeb0103776dbca082365" target="_top" xlink:title="Metoda zwracajaca srodek podstawy ostroslupa">
<polygon fill="none" stroke="black" points="180.5,-114.5 180.5,-133.5 313.5,-133.5 313.5,-114.5 180.5,-114.5"/>
<text text-anchor="middle" x="247" y="-121.5" font-family="Helvetica,sans-Serif" font-size="10.00">Prism::get_basis_centre</text>
</a>
</g>
</g>
<!-- Node1&#45;&gt;Node2 -->
<g id="edge1" class="edge">
<title>Node1&#45;&gt;Node2</title>
<path fill="none" stroke="midnightblue" d="M101.54,-76.54C130.44,-86.03 174.98,-100.67 206.96,-111.17"/>
<polygon fill="midnightblue" stroke="midnightblue" points="206.27,-114.63 216.87,-114.43 208.46,-107.98 206.27,-114.63"/>
</g>
<!-- Node3 -->
<g id="node3" class="node">
<title>Node3</title>
<g id="a_node3"><a xlink:href="class_prism.html#ab08ae36567a12753d78ae4b5fb2fbfa2" target="_top" xlink:title="Metoda zwracajaca dlugosc przekatnej podstawy prostopadloscianu">
<polygon fill="none" stroke="black" points="354,-76.5 354,-95.5 518,-95.5 518,-76.5 354,-76.5"/>
<text text-anchor="middle" x="436" y="-83.5" font-family="Helvetica,sans-Serif" font-size="10.00">Prism::get_basis_diagonal_len</text>
</a>
</g>
</g>
<!-- Node1&#45;&gt;Node3 -->
<g id="edge2" class="edge">
<title>Node1&#45;&gt;Node3</title>
<path fill="none" stroke="midnightblue" d="M143.25,-70.71C200.54,-73.71 281.64,-77.96 343.79,-81.22"/>
<polygon fill="midnightblue" stroke="midnightblue" points="343.82,-84.73 353.99,-81.75 344.19,-77.74 343.82,-84.73"/>
</g>
<!-- Node4 -->
<g id="node4" class="node">
<title>Node4</title>
<g id="a_node4"><a xlink:href="class_drone.html#ab0684fb71c2da878193af0f27a44d276" target="_top" xlink:title="Zwraca promien okregu rzutowany przez dron na plaszczyzne XY">
<polygon fill="none" stroke="black" points="179,-38.5 179,-57.5 315,-57.5 315,-38.5 179,-38.5"/>
<text text-anchor="middle" x="247" y="-45.5" font-family="Helvetica,sans-Serif" font-size="10.00">Drone::get_drone_radius</text>
</a>
</g>
</g>
<!-- Node1&#45;&gt;Node4 -->
<g id="edge3" class="edge">
<title>Node1&#45;&gt;Node4</title>
<path fill="none" stroke="midnightblue" d="M143.07,-59.27C151.57,-58.34 160.28,-57.39 168.86,-56.45"/>
<polygon fill="midnightblue" stroke="midnightblue" points="169.3,-59.92 178.86,-55.35 168.54,-52.96 169.3,-59.92"/>
</g>
<!-- Node7 -->
<g id="node7" class="node">
<title>Node7</title>
<g id="a_node7"><a xlink:href="class_drone.html#ab717196d8d03bde942a75d1f693fe362" target="_top" xlink:title="Zwraca rzutowanie pozycje srodka podstawy body na XY">
<polygon fill="none" stroke="black" points="191.5,-0.5 191.5,-19.5 302.5,-19.5 302.5,-0.5 191.5,-0.5"/>
<text text-anchor="middle" x="247" y="-7.5" font-family="Helvetica,sans-Serif" font-size="10.00">Drone::get_pos_pro</text>
</a>
</g>
</g>
<!-- Node1&#45;&gt;Node7 -->
<g id="edge7" class="edge">
<title>Node1&#45;&gt;Node7</title>
<path fill="none" stroke="midnightblue" d="M97.73,-57.46C119.21,-49.47 150.95,-37.97 179,-29 186.05,-26.75 193.55,-24.48 200.89,-22.35"/>
<polygon fill="midnightblue" stroke="midnightblue" points="202.1,-25.64 210.75,-19.52 200.17,-18.91 202.1,-25.64"/>
</g>
<!-- Node4&#45;&gt;Node3 -->
<g id="edge4" class="edge">
<title>Node4&#45;&gt;Node3</title>
<path fill="none" stroke="midnightblue" d="M295.19,-57.59C320.42,-62.72 351.67,-69.07 378.23,-74.46"/>
<polygon fill="midnightblue" stroke="midnightblue" points="377.65,-77.92 388.15,-76.48 379.05,-71.06 377.65,-77.92"/>
</g>
<!-- Node5 -->
<g id="node5" class="node">
<title>Node5</title>
<g id="a_node5"><a xlink:href="class_cuboid.html#a79e4e3337e02d8f8a757561cedbdb71f" target="_top" xlink:title="Metoda zwracajaca dlugosc przekatnej podstawy prostopadloscianu">
<polygon fill="none" stroke="black" points="351,-38.5 351,-57.5 521,-57.5 521,-38.5 351,-38.5"/>
<text text-anchor="middle" x="436" y="-45.5" font-family="Helvetica,sans-Serif" font-size="10.00">Cuboid::get_basis_diagonal_len</text>
</a>
</g>
</g>
<!-- Node4&#45;&gt;Node5 -->
<g id="edge5" class="edge">
<title>Node4&#45;&gt;Node5</title>
<path fill="none" stroke="midnightblue" d="M315.25,-48C323.53,-48 332.1,-48 340.69,-48"/>
<polygon fill="midnightblue" stroke="midnightblue" points="340.76,-51.5 350.76,-48 340.76,-44.5 340.76,-51.5"/>
</g>
<!-- Node6 -->
<g id="node6" class="node">
<title>Node6</title>
<g id="a_node6"><a xlink:href="class_cuboid.html#a0e7f901199262984ab6ba0da01d96c40" target="_top" xlink:title="Metoda zwracajaca srodek podstawy ostroslupa">
<polygon fill="none" stroke="black" points="557,-19.5 557,-38.5 696,-38.5 696,-19.5 557,-19.5"/>
<text text-anchor="middle" x="626.5" y="-26.5" font-family="Helvetica,sans-Serif" font-size="10.00">Cuboid::get_basis_centre</text>
</a>
</g>
</g>
<!-- Node5&#45;&gt;Node6 -->
<g id="edge6" class="edge">
<title>Node5&#45;&gt;Node6</title>
<path fill="none" stroke="midnightblue" d="M521.05,-39.53C529.57,-38.67 538.19,-37.8 546.65,-36.95"/>
<polygon fill="midnightblue" stroke="midnightblue" points="547.27,-40.4 556.86,-35.92 546.56,-33.44 547.27,-40.4"/>
</g>
<!-- Node8 -->
<g id="node8" class="node">
<title>Node8</title>
<g id="a_node8"><a xlink:href="class_drone.html#abf6bc328fea7ec556e5a23ca37cf6d8e" target="_top" xlink:title="Zwraca pozycje srodka podstawy body">
<polygon fill="none" stroke="black" points="391,-0.5 391,-19.5 481,-19.5 481,-0.5 391,-0.5"/>
<text text-anchor="middle" x="436" y="-7.5" font-family="Helvetica,sans-Serif" font-size="10.00">Drone::get_pos</text>
</a>
</g>
</g>
<!-- Node7&#45;&gt;Node8 -->
<g id="edge8" class="edge">
<title>Node7&#45;&gt;Node8</title>
<path fill="none" stroke="midnightblue" d="M302.59,-10C327.12,-10 355.99,-10 380.5,-10"/>
<polygon fill="midnightblue" stroke="midnightblue" points="380.72,-13.5 390.72,-10 380.72,-6.5 380.72,-13.5"/>
</g>
<!-- Node8&#45;&gt;Node6 -->
<g id="edge9" class="edge">
<title>Node8&#45;&gt;Node6</title>
<path fill="none" stroke="midnightblue" d="M481.19,-14.45C500.73,-16.42 524.3,-18.8 546.68,-21.06"/>
<polygon fill="midnightblue" stroke="midnightblue" points="546.56,-24.56 556.86,-22.08 547.27,-17.6 546.56,-24.56"/>
</g>
</g>
</svg>
