<?xml version="1.0" encoding="UTF-8" standalone="no"?>
<!DOCTYPE svg PUBLIC "-//W3C//DTD SVG 1.1//EN"
 "http://www.w3.org/Graphics/SVG/1.1/DTD/svg11.dtd">
<!-- Generated by graphviz version 2.43.0 (0)
 -->
<!-- Title: Pyramid::Pyramid Pages: 1 -->
<svg width="616pt" height="28pt"
 viewBox="0.00 0.00 616.00 28.00" xmlns="http://www.w3.org/2000/svg" xmlns:xlink="http://www.w3.org/1999/xlink">
<g id="graph0" class="graph" transform="scale(1 1) rotate(0) translate(4 24)">
<title>Pyramid::Pyramid</title>
<!-- Node1 -->
<g id="node1" class="node">
<title>Node1</title>
<g id="a_node1"><a xlink:title="Konstruktor bezparametryczny klasy Pyramid. Powstaly ostroslupa ma jeden prostokat &quot;tworzacy&quot;: p1 = [...">
<polygon fill="#bfbfbf" stroke="black" points="0,-0.5 0,-19.5 104,-19.5 104,-0.5 0,-0.5"/>
<text text-anchor="middle" x="52" y="-7.5" font-family="Helvetica,sans-Serif" font-size="10.00">Pyramid::Pyramid</text>
</a>
</g>
</g>
<!-- Node2 -->
<g id="node2" class="node">
<title>Node2</title>
<g id="a_node2"><a xlink:href="class_pyramid.html#a4e9bcb34458c0015d3a35b5f61747cc6" target="_top" xlink:title="Metoda zwracajaca punkty specjalne ostroslupau : cuts (czyli te ktore sa przecieciami przekatnych dwo...">
<polygon fill="none" stroke="black" points="140,-0.5 140,-19.5 273,-19.5 273,-0.5 140,-0.5"/>
<text text-anchor="middle" x="206.5" y="-7.5" font-family="Helvetica,sans-Serif" font-size="10.00">Pyramid::special_points</text>
</a>
</g>
</g>
<!-- Node1&#45;&gt;Node2 -->
<g id="edge1" class="edge">
<title>Node1&#45;&gt;Node2</title>
<path fill="none" stroke="midnightblue" d="M104.2,-10C112.41,-10 121.06,-10 129.7,-10"/>
<polygon fill="midnightblue" stroke="midnightblue" points="129.81,-13.5 139.81,-10 129.81,-6.5 129.81,-13.5"/>
</g>
<!-- Node3 -->
<g id="node3" class="node">
<title>Node3</title>
<g id="a_node3"><a xlink:href="class_pyramid.html#a0335a2572afad90c7124ee79b6df5aca" target="_top" xlink:title="Metoda zwracajaca punkt centralny (czyli taki, ktorego odleglosci do kazdego wierzcholka sa rowne) Py...">
<polygon fill="none" stroke="black" points="309,-0.5 309,-19.5 433,-19.5 433,-0.5 309,-0.5"/>
<text text-anchor="middle" x="371" y="-7.5" font-family="Helvetica,sans-Serif" font-size="10.00">Pyramid::centre_point</text>
</a>
</g>
</g>
<!-- Node2&#45;&gt;Node3 -->
<g id="edge2" class="edge">
<title>Node2&#45;&gt;Node3</title>
<path fill="none" stroke="midnightblue" d="M273.13,-10C281.52,-10 290.14,-10 298.62,-10"/>
<polygon fill="midnightblue" stroke="midnightblue" points="298.86,-13.5 308.86,-10 298.86,-6.5 298.86,-13.5"/>
</g>
<!-- Node4 -->
<g id="node4" class="node">
<title>Node4</title>
<g id="a_node4"><a xlink:href="class_cuboid.html#a0e7f901199262984ab6ba0da01d96c40" target="_top" xlink:title="Metoda zwracajaca srodek podstawy ostroslupa">
<polygon fill="none" stroke="black" points="469,-0.5 469,-19.5 608,-19.5 608,-0.5 469,-0.5"/>
<text text-anchor="middle" x="538.5" y="-7.5" font-family="Helvetica,sans-Serif" font-size="10.00">Cuboid::get_basis_centre</text>
</a>
</g>
</g>
<!-- Node3&#45;&gt;Node4 -->
<g id="edge3" class="edge">
<title>Node3&#45;&gt;Node4</title>
<path fill="none" stroke="midnightblue" d="M433.16,-10C441.49,-10 450.15,-10 458.74,-10"/>
<polygon fill="midnightblue" stroke="midnightblue" points="458.79,-13.5 468.79,-10 458.79,-6.5 458.79,-13.5"/>
</g>
</g>
</svg>
