<?xml version="1.0" encoding="UTF-8" standalone="no"?>
<!DOCTYPE svg PUBLIC "-//W3C//DTD SVG 1.1//EN"
 "http://www.w3.org/Graphics/SVG/1.1/DTD/svg11.dtd">
<!-- Generated by graphviz version 2.43.0 (0)
 -->
<!-- Title: Scene::add_basic_objects Pages: 1 -->
<svg width="317pt" height="88pt"
 viewBox="0.00 0.00 317.00 88.00" xmlns="http://www.w3.org/2000/svg" xmlns:xlink="http://www.w3.org/1999/xlink">
<g id="graph0" class="graph" transform="scale(1 1) rotate(0) translate(4 84)">
<title>Scene::add_basic_objects</title>
<!-- Node1 -->
<g id="node1" class="node">
<title>Node1</title>
<g id="a_node1"><a xlink:title="Metoda dodajaca podstawowe elementy do listy objects.">
<polygon fill="#bfbfbf" stroke="black" points="0,-30 0,-49 141,-49 141,-30 0,-30"/>
<text text-anchor="middle" x="70.5" y="-37" font-family="Helvetica,sans-Serif" font-size="10.00">Scene::add_basic_objects</text>
</a>
</g>
</g>
<!-- Node2 -->
<g id="node2" class="node">
<title>Node2</title>
<g id="a_node2"><a xlink:href="class_scene.html#a16da566304f4ed4228fa89af25e330e5" target="_top" xlink:title="Metoda dodajaca prostopadloscian, ostroslup lub Triangular do listy objects.">
<polygon fill="none" stroke="black" points="177,-49.5 177,-79.5 309,-79.5 309,-49.5 177,-49.5"/>
<text text-anchor="start" x="185" y="-67.5" font-family="Helvetica,sans-Serif" font-size="10.00">Scene::add_object_type</text>
<text text-anchor="middle" x="243" y="-56.5" font-family="Helvetica,sans-Serif" font-size="10.00">_cuboid</text>
</a>
</g>
</g>
<!-- Node1&#45;&gt;Node2 -->
<g id="edge1" class="edge">
<title>Node1&#45;&gt;Node2</title>
<path fill="none" stroke="midnightblue" d="M136.45,-49.02C146.4,-50.48 156.74,-52 166.89,-53.49"/>
<polygon fill="midnightblue" stroke="midnightblue" points="166.55,-56.97 176.95,-54.96 167.57,-50.05 166.55,-56.97"/>
</g>
<!-- Node3 -->
<g id="node3" class="node">
<title>Node3</title>
<g id="a_node3"><a xlink:href="class_scene.html#a684bec8db49b527c34a567e91259102e" target="_top" xlink:title="Metoda dodajaca obiekt pochodny z Prism do listy objects.">
<polygon fill="none" stroke="black" points="177,-0.5 177,-30.5 309,-30.5 309,-0.5 177,-0.5"/>
<text text-anchor="start" x="185" y="-18.5" font-family="Helvetica,sans-Serif" font-size="10.00">Scene::add_object_type</text>
<text text-anchor="middle" x="243" y="-7.5" font-family="Helvetica,sans-Serif" font-size="10.00">_prism</text>
</a>
</g>
</g>
<!-- Node1&#45;&gt;Node3 -->
<g id="edge2" class="edge">
<title>Node1&#45;&gt;Node3</title>
<path fill="none" stroke="midnightblue" d="M139.38,-29.95C148.35,-28.68 157.59,-27.38 166.68,-26.1"/>
<polygon fill="midnightblue" stroke="midnightblue" points="167.44,-29.53 176.86,-24.67 166.47,-22.6 167.44,-29.53"/>
</g>
</g>
</svg>
