<?xml version="1.0" encoding="UTF-8" standalone="no"?>
<!DOCTYPE svg PUBLIC "-//W3C//DTD SVG 1.1//EN"
 "http://www.w3.org/Graphics/SVG/1.1/DTD/svg11.dtd">
<!-- Generated by graphviz version 2.43.0 (0)
 -->
<!-- Title: PzG::InfoPlikuDoRysowania::ZmienSposobRys Pages: 1 -->
<svg width="359pt" height="100pt"
 viewBox="0.00 0.00 359.00 99.50" xmlns="http://www.w3.org/2000/svg" xmlns:xlink="http://www.w3.org/1999/xlink">
<g id="graph0" class="graph" transform="scale(1 1) rotate(0) translate(4 95.5)">
<title>PzG::InfoPlikuDoRysowania::ZmienSposobRys</title>
<!-- Node1 -->
<g id="node1" class="node">
<title>Node1</title>
<g id="a_node1"><a xlink:title="Zmienia sposób rysowania.">
<polygon fill="#bfbfbf" stroke="black" points="201,-27.5 201,-57.5 351,-57.5 351,-27.5 201,-27.5"/>
<text text-anchor="start" x="209" y="-45.5" font-family="Helvetica,sans-Serif" font-size="10.00">PzG::InfoPlikuDoRysowania</text>
<text text-anchor="middle" x="276" y="-34.5" font-family="Helvetica,sans-Serif" font-size="10.00">::ZmienSposobRys</text>
</a>
</g>
</g>
<!-- Node2 -->
<g id="node2" class="node">
<title>Node2</title>
<g id="a_node2"><a xlink:href="class_pz_g_1_1_lacze_do_g_n_u_plota.html#ab3286408bb2ca5c5382e721b40d07f4f" target="_top" xlink:title="Dodaje nazwę pliku.">
<polygon fill="none" stroke="black" points="0,-50 0,-91 165,-91 165,-50 0,-50"/>
<text text-anchor="start" x="8" y="-79" font-family="Helvetica,sans-Serif" font-size="10.00">PzG::LaczeDoGNUPlota</text>
<text text-anchor="start" x="8" y="-68" font-family="Helvetica,sans-Serif" font-size="10.00">::DodajNazwePliku_Jednakowe</text>
<text text-anchor="middle" x="82.5" y="-57" font-family="Helvetica,sans-Serif" font-size="10.00">Punkty</text>
</a>
</g>
</g>
<!-- Node1&#45;&gt;Node2 -->
<g id="edge1" class="edge">
<title>Node1&#45;&gt;Node2</title>
<path fill="none" stroke="midnightblue" d="M191.01,-54.78C182.47,-56.03 173.81,-57.3 165.29,-58.54"/>
<polygon fill="midnightblue" stroke="midnightblue" points="191.57,-58.24 200.96,-53.33 190.56,-51.31 191.57,-58.24"/>
</g>
<!-- Node3 -->
<g id="node3" class="node">
<title>Node3</title>
<g id="a_node3"><a xlink:href="class_pz_g_1_1_lacze_do_g_n_u_plota.html#a5d53870de4161dd855b327b3f5d1df9c" target="_top" xlink:title="Dodaje nazwę pliku.">
<polygon fill="none" stroke="black" points="6.5,-0.5 6.5,-30.5 158.5,-30.5 158.5,-0.5 6.5,-0.5"/>
<text text-anchor="start" x="14.5" y="-18.5" font-family="Helvetica,sans-Serif" font-size="10.00">PzG::LaczeDoGNUPlota</text>
<text text-anchor="middle" x="82.5" y="-7.5" font-family="Helvetica,sans-Serif" font-size="10.00">::DodajNazwePliku_Lamana</text>
</a>
</g>
</g>
<!-- Node1&#45;&gt;Node3 -->
<g id="edge2" class="edge">
<title>Node1&#45;&gt;Node3</title>
<path fill="none" stroke="midnightblue" d="M190.77,-30.62C180.06,-29.11 169.16,-27.58 158.61,-26.09"/>
<polygon fill="midnightblue" stroke="midnightblue" points="190.57,-34.13 200.96,-32.06 191.55,-27.2 190.57,-34.13"/>
</g>
</g>
</svg>
