<?xml version="1.0" encoding="UTF-8" standalone="no"?>
<!DOCTYPE svg PUBLIC "-//W3C//DTD SVG 1.1//EN"
 "http://www.w3.org/Graphics/SVG/1.1/DTD/svg11.dtd">
<!-- Generated by graphviz version 2.43.0 (0)
 -->
<!-- Title: Cuboid::get_basis_centre Pages: 1 -->
<!--zoomable 199 -->
<svg id="main" version="1.1" xmlns="http://www.w3.org/2000/svg" xmlns:xlink="http://www.w3.org/1999/xlink" xml:space="preserve" onload="init(evt)">
<style type="text/css"><![CDATA[
.edge:hover path { stroke: red; }
.edge:hover polygon { stroke: red; fill: red; }
]]></style>
<script type="text/javascript"><![CDATA[
var edges = document.getElementsByTagName('g');
if (edges && edges.length) {
  for (var i=0;i<edges.length;i++) {
    if (edges[i].id.substr(0,4)=='edge') {
      edges[i].setAttribute('class','edge');
    }
  }
}
]]></script>
        <defs>
                <circle id="rim" cx="0" cy="0" r="7"/>
                <circle id="rim2" cx="0" cy="0" r="3.5"/>
                <g id="zoomPlus">
                        <use xlink:href="#rim" fill="#404040">
                                <set attributeName="fill" to="#808080" begin="zoomplus.mouseover" end="zoomplus.mouseout"/>
                        </use>
                        <path d="M-4,0h8M0,-4v8" fill="none" stroke="white" stroke-width="1.5" pointer-events="none"/>
                </g>
                <g id="zoomMin">
                        <use xlink:href="#rim" fill="#404040">
                                <set attributeName="fill" to="#808080" begin="zoomminus.mouseover" end="zoomminus.mouseout"/>
                        </use>
                        <path d="M-4,0h8" fill="none" stroke="white" stroke-width="1.5" pointer-events="none"/>
                </g>
                <g id="dirArrow">
                        <path fill="none" stroke="white" stroke-width="1.5" d="M0,-3.0v7 M-2.5,-0.5L0,-3.0L2.5,-0.5"/>
                </g>
               <g id="resetDef">
                       <use xlink:href="#rim2" fill="#404040">
                               <set attributeName="fill" to="#808080" begin="reset.mouseover" end="reset.mouseout"/>
                       </use>
               </g>
        </defs>

<script type="text/javascript">
var viewWidth = 765;
var viewHeight = 199;
var sectionId = 'dynsection-22';
</script>
<script xlink:href="svgpan.js"/>
<svg id="graph" class="graph">
<g id="viewport">
<title>Cuboid::get_basis_centre</title>
<!-- Node1 -->
<g id="node1" class="node">
<title>Node1</title>
<g id="a_node1"><a xlink:title="Metoda zwracajaca srodek podstawy ostroslupa">
<polygon fill="#bfbfbf" stroke="black" points="618,-76.5 618,-95.5 757,-95.5 757,-76.5 618,-76.5"/>
<text text-anchor="middle" x="687.5" y="-83.5" font-family="Helvetica,sans-Serif" font-size="10.00">Cuboid::get_basis_centre</text>
</a>
</g>
</g>
<!-- Node2 -->
<g id="node2" class="node">
<title>Node2</title>
<g id="a_node2"><a xlink:href="class_pyramid.html#a0335a2572afad90c7124ee79b6df5aca" target="_top" xlink:title="Metoda zwracajaca punkt centralny (czyli taki, ktorego odleglosci do kazdego wierzcholka sa rowne) Py...">
<polygon fill="none" stroke="black" points="458,-152.5 458,-171.5 582,-171.5 582,-152.5 458,-152.5"/>
<text text-anchor="middle" x="520" y="-159.5" font-family="Helvetica,sans-Serif" font-size="10.00">Pyramid::centre_point</text>
</a>
</g>
</g>
<!-- Node1&#45;&gt;Node2 -->
<g id="edge1" class="edge">
<title>Node1&#45;&gt;Node2</title>
<path fill="none" stroke="midnightblue" d="M662.28,-101C641.52,-113.41 610.55,-130.91 582,-143 573.73,-146.5 564.58,-149.69 555.95,-152.42"/>
<polygon fill="midnightblue" stroke="midnightblue" points="664.31,-103.86 671.05,-95.69 660.68,-97.88 664.31,-103.86"/>
</g>
<!-- Node7 -->
<g id="node7" class="node">
<title>Node7</title>
<g id="a_node7"><a xlink:href="class_pyramid.html#a9bb27fa198548b56e3830bfb45c32bcb" target="_top" xlink:title="Metoda zwraca wysokosc ostroslupa">
<polygon fill="none" stroke="black" points="462.5,-114.5 462.5,-133.5 577.5,-133.5 577.5,-114.5 462.5,-114.5"/>
<text text-anchor="middle" x="520" y="-121.5" font-family="Helvetica,sans-Serif" font-size="10.00">Pyramid::get_height</text>
</a>
</g>
</g>
<!-- Node1&#45;&gt;Node7 -->
<g id="edge6" class="edge">
<title>Node1&#45;&gt;Node7</title>
<path fill="none" stroke="midnightblue" d="M634.69,-97.9C611.43,-103.24 584.35,-109.45 562.46,-114.48"/>
<polygon fill="midnightblue" stroke="midnightblue" points="635.77,-101.24 644.74,-95.59 634.21,-94.42 635.77,-101.24"/>
</g>
<!-- Node8 -->
<g id="node8" class="node">
<title>Node8</title>
<g id="a_node8"><a xlink:href="class_cuboid.html#a7bc29715dc1515f675cd56a30712357f" target="_top" xlink:title="Zwraca pozycje obiektu do Vector3D">
<polygon fill="none" stroke="black" points="472.5,-76.5 472.5,-95.5 567.5,-95.5 567.5,-76.5 472.5,-76.5"/>
<text text-anchor="middle" x="520" y="-83.5" font-family="Helvetica,sans-Serif" font-size="10.00">Cuboid::get_pos</text>
</a>
</g>
</g>
<!-- Node1&#45;&gt;Node8 -->
<g id="edge7" class="edge">
<title>Node1&#45;&gt;Node8</title>
<path fill="none" stroke="midnightblue" d="M607.39,-86C593.78,-86 580.04,-86 567.65,-86"/>
<polygon fill="midnightblue" stroke="midnightblue" points="607.75,-89.5 617.75,-86 607.75,-82.5 607.75,-89.5"/>
</g>
<!-- Node10 -->
<g id="node10" class="node">
<title>Node10</title>
<g id="a_node10"><a xlink:href="class_cuboid.html#aefddc945ca09a67d437afa022a4f8d0b" target="_top" xlink:title="Wypisuje pozycje (x,y) obiektu">
<polygon fill="none" stroke="black" points="469.5,-38.5 469.5,-57.5 570.5,-57.5 570.5,-38.5 469.5,-38.5"/>
<text text-anchor="middle" x="520" y="-45.5" font-family="Helvetica,sans-Serif" font-size="10.00">Cuboid::print_pos</text>
</a>
</g>
</g>
<!-- Node1&#45;&gt;Node10 -->
<g id="edge9" class="edge">
<title>Node1&#45;&gt;Node10</title>
<path fill="none" stroke="midnightblue" d="M634.69,-74.1C611.43,-68.76 584.35,-62.55 562.46,-57.52"/>
<polygon fill="midnightblue" stroke="midnightblue" points="634.21,-77.58 644.74,-76.41 635.77,-70.76 634.21,-77.58"/>
</g>
<!-- Node11 -->
<g id="node11" class="node">
<title>Node11</title>
<g id="a_node11"><a xlink:href="class_drone.html#a64bab0d44c7468a84177cbff85c42acd" target="_top" xlink:title="Wypisuje pozycje (x,y) obiektu">
<polygon fill="none" stroke="black" points="471.5,-0.5 471.5,-19.5 568.5,-19.5 568.5,-0.5 471.5,-0.5"/>
<text text-anchor="middle" x="520" y="-7.5" font-family="Helvetica,sans-Serif" font-size="10.00">Drone::print_pos</text>
</a>
</g>
</g>
<!-- Node1&#45;&gt;Node11 -->
<g id="edge10" class="edge">
<title>Node1&#45;&gt;Node11</title>
<path fill="none" stroke="midnightblue" d="M662.28,-71C641.52,-58.59 610.55,-41.09 582,-29 573.73,-25.5 564.58,-22.31 555.95,-19.58"/>
<polygon fill="midnightblue" stroke="midnightblue" points="660.68,-74.12 671.05,-76.31 664.31,-68.14 660.68,-74.12"/>
</g>
<!-- Node3 -->
<g id="node3" class="node">
<title>Node3</title>
<g id="a_node3"><a xlink:href="class_pyramid.html#a4e9bcb34458c0015d3a35b5f61747cc6" target="_top" xlink:title="Metoda zwracajaca punkty specjalne ostroslupau : cuts (czyli te ktore sa przecieciami przekatnych dwo...">
<polygon fill="none" stroke="black" points="289,-152.5 289,-171.5 422,-171.5 422,-152.5 289,-152.5"/>
<text text-anchor="middle" x="355.5" y="-159.5" font-family="Helvetica,sans-Serif" font-size="10.00">Pyramid::special_points</text>
</a>
</g>
</g>
<!-- Node2&#45;&gt;Node3 -->
<g id="edge2" class="edge">
<title>Node2&#45;&gt;Node3</title>
<path fill="none" stroke="midnightblue" d="M447.39,-162C438.97,-162 430.42,-162 422.09,-162"/>
<polygon fill="midnightblue" stroke="midnightblue" points="447.57,-165.5 457.57,-162 447.57,-158.5 447.57,-165.5"/>
</g>
<!-- Node4 -->
<g id="node4" class="node">
<title>Node4</title>
<g id="a_node4"><a xlink:href="class_pyramid.html#af85549dc381715a489de5a0c0e8ef620" target="_top" xlink:title="Przeciazenie operatora przypisania, umozliwia stosowanie metod typu Cuboid na obiekcie typu Pyramid">
<polygon fill="none" stroke="black" points="140,-171.5 140,-190.5 253,-190.5 253,-171.5 140,-171.5"/>
<text text-anchor="middle" x="196.5" y="-178.5" font-family="Helvetica,sans-Serif" font-size="10.00">Pyramid::operator=</text>
</a>
</g>
</g>
<!-- Node3&#45;&gt;Node4 -->
<g id="edge3" class="edge">
<title>Node3&#45;&gt;Node4</title>
<path fill="none" stroke="midnightblue" d="M278.83,-171.16C270.28,-172.19 261.68,-173.23 253.45,-174.23"/>
<polygon fill="midnightblue" stroke="midnightblue" points="279.32,-174.62 288.83,-169.95 278.48,-167.67 279.32,-174.62"/>
</g>
<!-- Node5 -->
<g id="node5" class="node">
<title>Node5</title>
<g id="a_node5"><a xlink:href="class_pyramid.html#aa78baa6faa1c3fbcca510e8ddf37de49" target="_top" xlink:title="Konstruktor bezparametryczny klasy Pyramid. Powstaly ostroslupa ma jeden prostokat &quot;tworzacy&quot;: p1 = [...">
<polygon fill="none" stroke="black" points="144.5,-133.5 144.5,-152.5 248.5,-152.5 248.5,-133.5 144.5,-133.5"/>
<text text-anchor="middle" x="196.5" y="-140.5" font-family="Helvetica,sans-Serif" font-size="10.00">Pyramid::Pyramid</text>
</a>
</g>
</g>
<!-- Node3&#45;&gt;Node5 -->
<g id="edge4" class="edge">
<title>Node3&#45;&gt;Node5</title>
<path fill="none" stroke="midnightblue" d="M278.67,-152.82C268.47,-151.59 258.21,-150.35 248.58,-149.18"/>
<polygon fill="midnightblue" stroke="midnightblue" points="278.48,-156.33 288.83,-154.05 279.32,-149.38 278.48,-156.33"/>
</g>
<!-- Node6 -->
<g id="node6" class="node">
<title>Node6</title>
<g id="a_node6"><a xlink:href="class_pyramid.html#a188d1f3cca17418b95ae771dedc99f4a" target="_top" xlink:title="Konstruktor parametryczny klasy Pyramid. Powstaly ostroslupa ma jeden prostokat &quot;tworzacy&quot;: p1 = [0][...">
<polygon fill="none" stroke="black" points="0,-133.5 0,-152.5 104,-152.5 104,-133.5 0,-133.5"/>
<text text-anchor="middle" x="52" y="-140.5" font-family="Helvetica,sans-Serif" font-size="10.00">Pyramid::Pyramid</text>
</a>
</g>
</g>
<!-- Node5&#45;&gt;Node6 -->
<g id="edge5" class="edge">
<title>Node5&#45;&gt;Node6</title>
<path fill="none" stroke="midnightblue" d="M134.16,-143C124.16,-143 113.89,-143 104.17,-143"/>
<polygon fill="midnightblue" stroke="midnightblue" points="134.46,-146.5 144.46,-143 134.46,-139.5 134.46,-146.5"/>
</g>
<!-- Node9 -->
<g id="node9" class="node">
<title>Node9</title>
<g id="a_node9"><a xlink:href="class_cuboid.html#a86ff038174be6b87663dde31595668d5" target="_top" xlink:title="Zmiana pozycji obiektu na plaszczyznie XY na nowe wspolrzedne.">
<polygon fill="none" stroke="black" points="300.5,-76.5 300.5,-95.5 410.5,-95.5 410.5,-76.5 300.5,-76.5"/>
<text text-anchor="middle" x="355.5" y="-83.5" font-family="Helvetica,sans-Serif" font-size="10.00">Cuboid::switch_pos</text>
</a>
</g>
</g>
<!-- Node8&#45;&gt;Node9 -->
<g id="edge8" class="edge">
<title>Node8&#45;&gt;Node9</title>
<path fill="none" stroke="midnightblue" d="M462.22,-86C445.44,-86 427.13,-86 410.53,-86"/>
<polygon fill="midnightblue" stroke="midnightblue" points="462.43,-89.5 472.43,-86 462.43,-82.5 462.43,-89.5"/>
</g>
</g>
</svg>
        <g id="navigator" transform="translate(0 0)" fill="#404254">
                <rect fill="#f2f5e9" fill-opacity="0.5" stroke="#606060" stroke-width=".5" x="0" y="0" width="60" height="60"/>
                <use id="zoomplus" xlink:href="#zoomPlus" x="17" y="9" onmousedown="handleZoom(evt,'in')"/>
                <use id="zoomminus" xlink:href="#zoomMin" x="42" y="9" onmousedown="handleZoom(evt,'out')"/>
                <use id="reset" xlink:href="#resetDef" x="30" y="36" onmousedown="handleReset()"/>
                <g id="arrowUp" xlink:href="#dirArrow" transform="translate(30 24)" onmousedown="handlePan(0,-1)">
                  <use xlink:href="#rim" fill="#404040">
                        <set attributeName="fill" to="#808080" begin="arrowUp.mouseover" end="arrowUp.mouseout"/>
                  </use>
                  <path fill="none" stroke="white" stroke-width="1.5" d="M0,-3.0v7 M-2.5,-0.5L0,-3.0L2.5,-0.5"/>
                </g>
                <g id="arrowRight" xlink:href="#dirArrow" transform="rotate(90) translate(36 -43)" onmousedown="handlePan(1,0)">
                  <use xlink:href="#rim" fill="#404040">
                        <set attributeName="fill" to="#808080" begin="arrowRight.mouseover" end="arrowRight.mouseout"/>
                  </use>
                  <path fill="none" stroke="white" stroke-width="1.5" d="M0,-3.0v7 M-2.5,-0.5L0,-3.0L2.5,-0.5"/>
                </g>
                <g id="arrowDown" xlink:href="#dirArrow" transform="rotate(180) translate(-30 -48)" onmousedown="handlePan(0,1)">
                  <use xlink:href="#rim" fill="#404040">
                        <set attributeName="fill" to="#808080" begin="arrowDown.mouseover" end="arrowDown.mouseout"/>
                  </use>
                  <path fill="none" stroke="white" stroke-width="1.5" d="M0,-3.0v7 M-2.5,-0.5L0,-3.0L2.5,-0.5"/>
                </g>
                <g id="arrowLeft" xlink:href="#dirArrow" transform="rotate(270) translate(-36 17)" onmousedown="handlePan(-1,0)">
                  <use xlink:href="#rim" fill="#404040">
                        <set attributeName="fill" to="#808080" begin="arrowLeft.mouseover" end="arrowLeft.mouseout"/>
                  </use>
                  <path fill="none" stroke="white" stroke-width="1.5" d="M0,-3.0v7 M-2.5,-0.5L0,-3.0L2.5,-0.5"/>
                </g>
        </g>
        <svg viewBox="0 0 15 15" width="100%" height="30px" preserveAspectRatio="xMaxYMin meet">
         <g id="arrow_out" transform="scale(0.3 0.3)">
          <a xlink:href="class_cuboid_a0e7f901199262984ab6ba0da01d96c40_icgraph_org.svg" target="_base">
           <rect id="button" ry="5" rx="5" y="6" x="6" height="38" width="38"
                fill="#f2f5e9" fill-opacity="0.5" stroke="#606060" stroke-width="1.0"/>
           <path id="arrow"
             d="M 11.500037,31.436501 C 11.940474,20.09759 22.043105,11.32322 32.158766,21.979434 L 37.068811,17.246167 C 37.068811,17.246167 37.088388,32 37.088388,32 L 22.160133,31.978069 C 22.160133,31.978069 26.997745,27.140456 26.997745,27.140456 C 18.528582,18.264221 13.291696,25.230495 11.500037,31.436501 z"
             style="fill:#404040;"/>
          </a>
         </g>
        </svg>
</svg>
