<?xml version="1.0" encoding="UTF-8" standalone="no"?>
<!DOCTYPE svg PUBLIC "-//W3C//DTD SVG 1.1//EN"
 "http://www.w3.org/Graphics/SVG/1.1/DTD/svg11.dtd">
<!-- Generated by graphviz version 2.43.0 (0)
 -->
<!-- Title: Drone::check_intersection Pages: 1 -->
<!--zoomable 53 -->
<svg id="main" version="1.1" xmlns="http://www.w3.org/2000/svg" xmlns:xlink="http://www.w3.org/1999/xlink" xml:space="preserve" onload="init(evt)">
<style type="text/css"><![CDATA[
.edge:hover path { stroke: red; }
.edge:hover polygon { stroke: red; fill: red; }
]]></style>
<script type="text/javascript"><![CDATA[
var edges = document.getElementsByTagName('g');
if (edges && edges.length) {
  for (var i=0;i<edges.length;i++) {
    if (edges[i].id.substr(0,4)=='edge') {
      edges[i].setAttribute('class','edge');
    }
  }
}
]]></script>
        <defs>
                <circle id="rim" cx="0" cy="0" r="7"/>
                <circle id="rim2" cx="0" cy="0" r="3.5"/>
                <g id="zoomPlus">
                        <use xlink:href="#rim" fill="#404040">
                                <set attributeName="fill" to="#808080" begin="zoomplus.mouseover" end="zoomplus.mouseout"/>
                        </use>
                        <path d="M-4,0h8M0,-4v8" fill="none" stroke="white" stroke-width="1.5" pointer-events="none"/>
                </g>
                <g id="zoomMin">
                        <use xlink:href="#rim" fill="#404040">
                                <set attributeName="fill" to="#808080" begin="zoomminus.mouseover" end="zoomminus.mouseout"/>
                        </use>
                        <path d="M-4,0h8" fill="none" stroke="white" stroke-width="1.5" pointer-events="none"/>
                </g>
                <g id="dirArrow">
                        <path fill="none" stroke="white" stroke-width="1.5" d="M0,-3.0v7 M-2.5,-0.5L0,-3.0L2.5,-0.5"/>
                </g>
               <g id="resetDef">
                       <use xlink:href="#rim2" fill="#404040">
                               <set attributeName="fill" to="#808080" begin="reset.mouseover" end="reset.mouseout"/>
                       </use>
               </g>
        </defs>

<script type="text/javascript">
var viewWidth = 835;
var viewHeight = 53;
var sectionId = 'dynsection-6';
</script>
<script xlink:href="svgpan.js"/>
<svg id="graph" class="graph">
<g id="viewport">
<title>Drone::check_intersection</title>
<!-- Node1 -->
<g id="node1" class="node">
<title>Node1</title>
<g id="a_node1"><a xlink:title="Methoda sprawdzajaca czy rzutowanie drona na plaszczyzne XY &#160;&#160;przecina sie z rzutowaniem prostopadlos...">
<polygon fill="#bfbfbf" stroke="black" points="684,-19.5 684,-38.5 827,-38.5 827,-19.5 684,-19.5"/>
<text text-anchor="middle" x="755.5" y="-26.5" font-family="Helvetica,sans-Serif" font-size="10.00">Drone::check_intersection</text>
</a>
</g>
</g>
<!-- Node2 -->
<g id="node2" class="node">
<title>Node2</title>
<g id="a_node2"><a xlink:href="class_scene.html#a1e55ef9fe4c36aea7cbc9304b18271cc" target="_top" xlink:title="Sprawdza czy jakis objekt koliduje z dronem jesli ten mialby wyladowac w danym miejscu">
<polygon fill="none" stroke="black" points="527,-14 527,-44 648,-44 648,-14 527,-14"/>
<text text-anchor="start" x="535" y="-32" font-family="Helvetica,sans-Serif" font-size="10.00">Scene::check_objects</text>
<text text-anchor="middle" x="587.5" y="-21" font-family="Helvetica,sans-Serif" font-size="10.00">_intersect</text>
</a>
</g>
</g>
<!-- Node1&#45;&gt;Node2 -->
<g id="edge1" class="edge">
<title>Node1&#45;&gt;Node2</title>
<path fill="none" stroke="midnightblue" d="M673.6,-29C665.03,-29 656.44,-29 648.18,-29"/>
<polygon fill="midnightblue" stroke="midnightblue" points="673.62,-32.5 683.62,-29 673.62,-25.5 673.62,-32.5"/>
</g>
<!-- Node3 -->
<g id="node3" class="node">
<title>Node3</title>
<g id="a_node3"><a xlink:href="class_scene.html#a5fb0b9741a75dec929b5ea5d6ac917a1" target="_top" xlink:title="Przelot aktywnego drona.">
<polygon fill="none" stroke="black" points="284,-19.5 284,-38.5 348,-38.5 348,-19.5 284,-19.5"/>
<text text-anchor="middle" x="316" y="-26.5" font-family="Helvetica,sans-Serif" font-size="10.00">Scene::fly</text>
</a>
</g>
</g>
<!-- Node2&#45;&gt;Node3 -->
<g id="edge2" class="edge">
<title>Node2&#45;&gt;Node3</title>
<path fill="none" stroke="midnightblue" d="M516.4,-29C461.95,-29 389.04,-29 348.16,-29"/>
<polygon fill="midnightblue" stroke="midnightblue" points="516.69,-32.5 526.69,-29 516.69,-25.5 516.69,-32.5"/>
</g>
<!-- Node6 -->
<g id="node6" class="node">
<title>Node6</title>
<g id="a_node6"><a xlink:href="class_scene.html#aa5fc0e5a94bfa0766f6e5ff10993630d" target="_top" xlink:title="Skanowanie powierzchni pod dronem, gdy dron nie moze wyladowac w danym miejscu &#160;&#160;Rysowany jest rownie...">
<polygon fill="none" stroke="black" points="384,-0.5 384,-19.5 491,-19.5 491,-0.5 384,-0.5"/>
<text text-anchor="middle" x="437.5" y="-7.5" font-family="Helvetica,sans-Serif" font-size="10.00">Scene::scan_plane</text>
</a>
</g>
</g>
<!-- Node2&#45;&gt;Node6 -->
<g id="edge5" class="edge">
<title>Node2&#45;&gt;Node6</title>
<path fill="none" stroke="midnightblue" d="M516.76,-20.05C508.21,-18.95 499.58,-17.84 491.34,-16.78"/>
<polygon fill="midnightblue" stroke="midnightblue" points="516.37,-23.52 526.73,-21.33 517.26,-16.58 516.37,-23.52"/>
</g>
<!-- Node4 -->
<g id="node4" class="node">
<title>Node4</title>
<g id="a_node4"><a xlink:href="class_menu.html#acd338552222b744cd030e17776cb5d9b" target="_top" xlink:title="Obsluguje wybor menu.">
<polygon fill="none" stroke="black" points="134,-19.5 134,-38.5 248,-38.5 248,-19.5 134,-19.5"/>
<text text-anchor="middle" x="191" y="-26.5" font-family="Helvetica,sans-Serif" font-size="10.00">Menu::switch_menu</text>
</a>
</g>
</g>
<!-- Node3&#45;&gt;Node4 -->
<g id="edge3" class="edge">
<title>Node3&#45;&gt;Node4</title>
<path fill="none" stroke="midnightblue" d="M273.93,-29C265.75,-29 257.01,-29 248.42,-29"/>
<polygon fill="midnightblue" stroke="midnightblue" points="273.96,-32.5 283.96,-29 273.96,-25.5 273.96,-32.5"/>
</g>
<!-- Node5 -->
<g id="node5" class="node">
<title>Node5</title>
<g id="a_node5"><a xlink:href="class_menu.html#af7e6a49bd56499facef9cc98561ea169" target="_top" xlink:title="Inicjuje i obsluguje menu.">
<polygon fill="none" stroke="black" points="0,-19.5 0,-38.5 98,-38.5 98,-19.5 0,-19.5"/>
<text text-anchor="middle" x="49" y="-26.5" font-family="Helvetica,sans-Serif" font-size="10.00">Menu::init_menu</text>
</a>
</g>
</g>
<!-- Node4&#45;&gt;Node5 -->
<g id="edge4" class="edge">
<title>Node4&#45;&gt;Node5</title>
<path fill="none" stroke="midnightblue" d="M123.75,-29C115.08,-29 106.33,-29 98.04,-29"/>
<polygon fill="midnightblue" stroke="midnightblue" points="123.86,-32.5 133.86,-29 123.86,-25.5 123.86,-32.5"/>
</g>
<!-- Node6&#45;&gt;Node3 -->
<g id="edge6" class="edge">
<title>Node6&#45;&gt;Node3</title>
<path fill="none" stroke="midnightblue" d="M373.74,-19.98C364.88,-21.39 356.12,-22.78 348.22,-24.04"/>
<polygon fill="midnightblue" stroke="midnightblue" points="374.41,-23.42 383.74,-18.39 373.31,-16.5 374.41,-23.42"/>
</g>
</g>
</svg>
        <g id="navigator" transform="translate(0 0)" fill="#404254">
                <rect fill="#f2f5e9" fill-opacity="0.5" stroke="#606060" stroke-width=".5" x="0" y="0" width="60" height="60"/>
                <use id="zoomplus" xlink:href="#zoomPlus" x="17" y="9" onmousedown="handleZoom(evt,'in')"/>
                <use id="zoomminus" xlink:href="#zoomMin" x="42" y="9" onmousedown="handleZoom(evt,'out')"/>
                <use id="reset" xlink:href="#resetDef" x="30" y="36" onmousedown="handleReset()"/>
                <g id="arrowUp" xlink:href="#dirArrow" transform="translate(30 24)" onmousedown="handlePan(0,-1)">
                  <use xlink:href="#rim" fill="#404040">
                        <set attributeName="fill" to="#808080" begin="arrowUp.mouseover" end="arrowUp.mouseout"/>
                  </use>
                  <path fill="none" stroke="white" stroke-width="1.5" d="M0,-3.0v7 M-2.5,-0.5L0,-3.0L2.5,-0.5"/>
                </g>
                <g id="arrowRight" xlink:href="#dirArrow" transform="rotate(90) translate(36 -43)" onmousedown="handlePan(1,0)">
                  <use xlink:href="#rim" fill="#404040">
                        <set attributeName="fill" to="#808080" begin="arrowRight.mouseover" end="arrowRight.mouseout"/>
                  </use>
                  <path fill="none" stroke="white" stroke-width="1.5" d="M0,-3.0v7 M-2.5,-0.5L0,-3.0L2.5,-0.5"/>
                </g>
                <g id="arrowDown" xlink:href="#dirArrow" transform="rotate(180) translate(-30 -48)" onmousedown="handlePan(0,1)">
                  <use xlink:href="#rim" fill="#404040">
                        <set attributeName="fill" to="#808080" begin="arrowDown.mouseover" end="arrowDown.mouseout"/>
                  </use>
                  <path fill="none" stroke="white" stroke-width="1.5" d="M0,-3.0v7 M-2.5,-0.5L0,-3.0L2.5,-0.5"/>
                </g>
                <g id="arrowLeft" xlink:href="#dirArrow" transform="rotate(270) translate(-36 17)" onmousedown="handlePan(-1,0)">
                  <use xlink:href="#rim" fill="#404040">
                        <set attributeName="fill" to="#808080" begin="arrowLeft.mouseover" end="arrowLeft.mouseout"/>
                  </use>
                  <path fill="none" stroke="white" stroke-width="1.5" d="M0,-3.0v7 M-2.5,-0.5L0,-3.0L2.5,-0.5"/>
                </g>
        </g>
        <svg viewBox="0 0 15 15" width="100%" height="30px" preserveAspectRatio="xMaxYMin meet">
         <g id="arrow_out" transform="scale(0.3 0.3)">
          <a xlink:href="class_drone_a5369b8139325f0f8d7eb0a7db7c684cd_icgraph_org.svg" target="_base">
           <rect id="button" ry="5" rx="5" y="6" x="6" height="38" width="38"
                fill="#f2f5e9" fill-opacity="0.5" stroke="#606060" stroke-width="1.0"/>
           <path id="arrow"
             d="M 11.500037,31.436501 C 11.940474,20.09759 22.043105,11.32322 32.158766,21.979434 L 37.068811,17.246167 C 37.068811,17.246167 37.088388,32 37.088388,32 L 22.160133,31.978069 C 22.160133,31.978069 26.997745,27.140456 26.997745,27.140456 C 18.528582,18.264221 13.291696,25.230495 11.500037,31.436501 z"
             style="fill:#404040;"/>
          </a>
         </g>
        </svg>
</svg>
