<?xml version="1.0" encoding="UTF-8" standalone="no"?>
<!DOCTYPE svg PUBLIC "-//W3C//DTD SVG 1.1//EN"
 "http://www.w3.org/Graphics/SVG/1.1/DTD/svg11.dtd">
<!-- Generated by graphviz version 2.43.0 (0)
 -->
<!-- Title: Drone::translation_to_pos Pages: 1 -->
<svg width="410pt" height="85pt"
 viewBox="0.00 0.00 410.00 85.00" xmlns="http://www.w3.org/2000/svg" xmlns:xlink="http://www.w3.org/1999/xlink">
<g id="graph0" class="graph" transform="scale(1 1) rotate(0) translate(4 81)">
<title>Drone::translation_to_pos</title>
<!-- Node1 -->
<g id="node1" class="node">
<title>Node1</title>
<g id="a_node1"><a xlink:title="Metoda uzywana przy konstruowania drona przesuwa drona w ten sposob, ze Vector3D centre prostopadlosc...">
<polygon fill="#bfbfbf" stroke="black" points="0,-33 0,-63 104,-63 104,-33 0,-33"/>
<text text-anchor="start" x="8" y="-51" font-family="Helvetica,sans-Serif" font-size="10.00">Drone::translation</text>
<text text-anchor="middle" x="52" y="-40" font-family="Helvetica,sans-Serif" font-size="10.00">_to_pos</text>
</a>
</g>
</g>
<!-- Node2 -->
<g id="node2" class="node">
<title>Node2</title>
<g id="a_node2"><a xlink:href="class_cuboid.html#aafa18740d9c98ca928395b9873a9c63d" target="_top" xlink:title="Metoda zwracajaca punkt centralny (czyli taki, ktorego odleglosci do kazdego wierzcholka sa rowne) pr...">
<polygon fill="none" stroke="black" points="140,-57.5 140,-76.5 257,-76.5 257,-57.5 140,-57.5"/>
<text text-anchor="middle" x="198.5" y="-64.5" font-family="Helvetica,sans-Serif" font-size="10.00">Cuboid::centre_point</text>
</a>
</g>
</g>
<!-- Node1&#45;&gt;Node2 -->
<g id="edge1" class="edge">
<title>Node1&#45;&gt;Node2</title>
<path fill="none" stroke="midnightblue" d="M104.35,-54.75C112.63,-55.84 121.31,-56.98 129.9,-58.11"/>
<polygon fill="midnightblue" stroke="midnightblue" points="129.55,-61.6 139.92,-59.43 130.46,-54.65 129.55,-61.6"/>
</g>
<!-- Node3 -->
<g id="node3" class="node">
<title>Node3</title>
<g id="a_node3"><a xlink:href="class_drone.html#a9684cd7ce04b7e6191f3d6b3a745370b" target="_top" xlink:title="Przesuwa drona o zadany wektor w 3D">
<polygon fill="none" stroke="black" points="146.5,-19.5 146.5,-38.5 250.5,-38.5 250.5,-19.5 146.5,-19.5"/>
<text text-anchor="middle" x="198.5" y="-26.5" font-family="Helvetica,sans-Serif" font-size="10.00">Drone::translation</text>
</a>
</g>
</g>
<!-- Node1&#45;&gt;Node3 -->
<g id="edge2" class="edge">
<title>Node1&#45;&gt;Node3</title>
<path fill="none" stroke="midnightblue" d="M104.35,-41.25C114.68,-39.89 125.63,-38.45 136.26,-37.05"/>
<polygon fill="midnightblue" stroke="midnightblue" points="136.85,-40.5 146.31,-35.73 135.94,-33.56 136.85,-40.5"/>
</g>
<!-- Node4 -->
<g id="node4" class="node">
<title>Node4</title>
<g id="a_node4"><a xlink:href="class_prism.html#ade146d341c0468030f8c1258b7fe1041" target="_top" xlink:title="Metoda przesuwajaca graniastoslup o zadany wektor w 3D">
<polygon fill="none" stroke="black" points="296,-38.5 296,-57.5 399,-57.5 399,-38.5 296,-38.5"/>
<text text-anchor="middle" x="347.5" y="-45.5" font-family="Helvetica,sans-Serif" font-size="10.00">Prism::translation</text>
</a>
</g>
</g>
<!-- Node3&#45;&gt;Node4 -->
<g id="edge3" class="edge">
<title>Node3&#45;&gt;Node4</title>
<path fill="none" stroke="midnightblue" d="M250.5,-35.59C261.79,-37.05 273.86,-38.61 285.5,-40.12"/>
<polygon fill="midnightblue" stroke="midnightblue" points="285.22,-43.61 295.59,-41.42 286.12,-36.67 285.22,-43.61"/>
</g>
<!-- Node5 -->
<g id="node5" class="node">
<title>Node5</title>
<g id="a_node5"><a xlink:href="class_cuboid.html#a3f6b1b9ea7de433af5b0d462d29f4272" target="_top" xlink:title="Metoda przesuwajaca prostopadloscian o zadany kat w 3D">
<polygon fill="none" stroke="black" points="293,-0.5 293,-19.5 402,-19.5 402,-0.5 293,-0.5"/>
<text text-anchor="middle" x="347.5" y="-7.5" font-family="Helvetica,sans-Serif" font-size="10.00">Cuboid::translation</text>
</a>
</g>
</g>
<!-- Node3&#45;&gt;Node5 -->
<g id="edge4" class="edge">
<title>Node3&#45;&gt;Node5</title>
<path fill="none" stroke="midnightblue" d="M250.5,-22.41C260.87,-21.07 271.9,-19.64 282.65,-18.25"/>
<polygon fill="midnightblue" stroke="midnightblue" points="283.37,-21.69 292.84,-16.94 282.47,-14.75 283.37,-21.69"/>
</g>
</g>
</svg>
