<?xml version="1.0" encoding="UTF-8" standalone="no"?>
<!DOCTYPE svg PUBLIC "-//W3C//DTD SVG 1.1//EN"
 "http://www.w3.org/Graphics/SVG/1.1/DTD/svg11.dtd">
<!-- Generated by graphviz version 2.43.0 (0)
 -->
<!-- Title: PzG::AtrybutyRysowania::WezRozmiar Pages: 1 -->
<svg width="586pt" height="88pt"
 viewBox="0.00 0.00 586.00 88.00" xmlns="http://www.w3.org/2000/svg" xmlns:xlink="http://www.w3.org/1999/xlink">
<g id="graph0" class="graph" transform="scale(1 1) rotate(0) translate(4 84)">
<title>PzG::AtrybutyRysowania::WezRozmiar</title>
<!-- Node1 -->
<g id="node1" class="node">
<title>Node1</title>
<g id="a_node1"><a xlink:title="Udostępnia rozmiar rysowania.">
<polygon fill="#bfbfbf" stroke="black" points="441,-24.5 441,-54.5 578,-54.5 578,-24.5 441,-24.5"/>
<text text-anchor="start" x="449" y="-42.5" font-family="Helvetica,sans-Serif" font-size="10.00">PzG::AtrybutyRysowania</text>
<text text-anchor="middle" x="509.5" y="-31.5" font-family="Helvetica,sans-Serif" font-size="10.00">::WezRozmiar</text>
</a>
</g>
</g>
<!-- Node2 -->
<g id="node2" class="node">
<title>Node2</title>
<g id="a_node2"><a xlink:href="namespace_pz_g.html#a85d3a77f67c2724ba3675bc3ef05eb81" target="_top" xlink:title="Dopisuje do polecenia rysowania wpisy z nazwami plików, w których są współrzędne punktów.">
<polygon fill="none" stroke="black" points="235,-49.5 235,-79.5 405,-79.5 405,-49.5 235,-49.5"/>
<text text-anchor="start" x="243" y="-67.5" font-family="Helvetica,sans-Serif" font-size="10.00">PzG::DopiszRysowaniePunktow</text>
<text text-anchor="middle" x="320" y="-56.5" font-family="Helvetica,sans-Serif" font-size="10.00">ZListy</text>
</a>
</g>
</g>
<!-- Node1&#45;&gt;Node2 -->
<g id="edge1" class="edge">
<title>Node1&#45;&gt;Node2</title>
<path fill="none" stroke="midnightblue" d="M430.68,-49.88C422.29,-51 413.72,-52.14 405.25,-53.27"/>
<polygon fill="midnightblue" stroke="midnightblue" points="431.36,-53.32 440.81,-48.53 430.43,-46.38 431.36,-53.32"/>
</g>
<!-- Node4 -->
<g id="node4" class="node">
<title>Node4</title>
<g id="a_node4"><a xlink:href="class_pz_g_1_1_info_punkty_do_rysowania.html#a191cbd40cc4a1cffbee988618f3dc258" target="_top" xlink:title="Wyznacza współrzędne położenia etykiety.">
<polygon fill="none" stroke="black" points="239.5,-0.5 239.5,-30.5 400.5,-30.5 400.5,-0.5 239.5,-0.5"/>
<text text-anchor="start" x="247.5" y="-18.5" font-family="Helvetica,sans-Serif" font-size="10.00">PzG::InfoPunktyDoRysowania</text>
<text text-anchor="middle" x="320" y="-7.5" font-family="Helvetica,sans-Serif" font-size="10.00">::WyznaczWspolrzEtykiety</text>
</a>
</g>
</g>
<!-- Node1&#45;&gt;Node4 -->
<g id="edge3" class="edge">
<title>Node1&#45;&gt;Node4</title>
<path fill="none" stroke="midnightblue" d="M430.62,-29.53C420.75,-28.27 410.63,-26.97 400.72,-25.7"/>
<polygon fill="midnightblue" stroke="midnightblue" points="430.44,-33.04 440.81,-30.84 431.33,-26.09 430.44,-33.04"/>
</g>
<!-- Node3 -->
<g id="node3" class="node">
<title>Node3</title>
<g id="a_node3"><a xlink:href="class_pz_g_1_1_lacze_do_g_n_u_plota.html#aee10e48fe1b9fba6e2897b4ccfa27aef" target="_top" xlink:title="Tworzy listę parametrów umożliwiających rysowanie brył z plików.">
<polygon fill="none" stroke="black" points="0,-49.5 0,-79.5 199,-79.5 199,-49.5 0,-49.5"/>
<text text-anchor="start" x="8" y="-67.5" font-family="Helvetica,sans-Serif" font-size="10.00">PzG::LaczeDoGNUPlota</text>
<text text-anchor="middle" x="99.5" y="-56.5" font-family="Helvetica,sans-Serif" font-size="10.00">::DopiszRysowanieZRoznychPunktow</text>
</a>
</g>
</g>
<!-- Node2&#45;&gt;Node3 -->
<g id="edge2" class="edge">
<title>Node2&#45;&gt;Node3</title>
<path fill="none" stroke="midnightblue" d="M224.63,-64.5C216.21,-64.5 207.67,-64.5 199.21,-64.5"/>
<polygon fill="midnightblue" stroke="midnightblue" points="224.83,-68 234.83,-64.5 224.83,-61 224.83,-68"/>
</g>
</g>
</svg>
