<?xml version="1.0" encoding="UTF-8" standalone="no"?>
<!DOCTYPE svg PUBLIC "-//W3C//DTD SVG 1.1//EN"
 "http://www.w3.org/Graphics/SVG/1.1/DTD/svg11.dtd">
<!-- Generated by graphviz version 2.43.0 (0)
 -->
<!-- Title: Block::get_sample_name Pages: 1 -->
<svg width="1007pt" height="215pt"
 viewBox="0.00 0.00 1007.00 215.00" xmlns="http://www.w3.org/2000/svg" xmlns:xlink="http://www.w3.org/1999/xlink">
<g id="graph0" class="graph" transform="scale(1 1) rotate(0) translate(4 211)">
<title>Block::get_sample_name</title>
<!-- Node1 -->
<g id="node1" class="node">
<title>Node1</title>
<g id="a_node1"><a xlink:title="Metoda zwracajaca nazwe pliku z wzorcowa bryla">
<polygon fill="#bfbfbf" stroke="black" points="859,-94 859,-113 999,-113 999,-94 859,-94"/>
<text text-anchor="middle" x="929" y="-101" font-family="Helvetica,sans-Serif" font-size="10.00">Block::get_sample_name</text>
</a>
</g>
</g>
<!-- Node2 -->
<g id="node2" class="node">
<title>Node2</title>
<g id="a_node2"><a xlink:href="class_cuboid.html#a773f92fecdf9686b951cf5736c83f318" target="_top" xlink:title="Metoda wczytywania odpowiednich wierzcholkow z pliku wzorcowego zgodnie z zaproponowanym sposobem zad...">
<polygon fill="none" stroke="black" points="688,-176.5 688,-206.5 808,-206.5 808,-176.5 688,-176.5"/>
<text text-anchor="start" x="696" y="-194.5" font-family="Helvetica,sans-Serif" font-size="10.00">Cuboid::Cuboid_From</text>
<text text-anchor="middle" x="748" y="-183.5" font-family="Helvetica,sans-Serif" font-size="10.00">_Sample</text>
</a>
</g>
</g>
<!-- Node1&#45;&gt;Node2 -->
<g id="edge1" class="edge">
<title>Node1&#45;&gt;Node2</title>
<path fill="none" stroke="midnightblue" d="M905.85,-118.71C885.11,-132.48 852.92,-152.67 823,-166.5 815.25,-170.09 806.83,-173.42 798.54,-176.41"/>
<polygon fill="midnightblue" stroke="midnightblue" points="907.91,-121.54 914.26,-113.06 904.01,-115.73 907.91,-121.54"/>
</g>
<!-- Node9 -->
<g id="node9" class="node">
<title>Node9</title>
<g id="a_node9"><a xlink:href="class_drone.html#addf8532ee98ca800a64a78f3808fce98" target="_top" xlink:title="Metoda zwracajaca nazwy plikow do zapisu dla drona.">
<polygon fill="none" stroke="black" points="687.5,-138 687.5,-157 808.5,-157 808.5,-138 687.5,-138"/>
<text text-anchor="middle" x="748" y="-145" font-family="Helvetica,sans-Serif" font-size="10.00">Drone::get_filenames</text>
</a>
</g>
</g>
<!-- Node1&#45;&gt;Node9 -->
<g id="edge9" class="edge">
<title>Node1&#45;&gt;Node9</title>
<path fill="none" stroke="midnightblue" d="M879.31,-115.47C850.54,-122.54 814.61,-131.37 787.76,-137.97"/>
<polygon fill="midnightblue" stroke="midnightblue" points="880.28,-118.83 889.16,-113.05 878.61,-112.04 880.28,-118.83"/>
</g>
<!-- Node10 -->
<g id="node10" class="node">
<title>Node10</title>
<g id="a_node10"><a xlink:href="class_drone.html#a577871807280aab8d9c0d4e45b435ec4" target="_top" xlink:title="Metoda rysujaca drona w gnuplocie. Przeznaczona do testow">
<polygon fill="none" stroke="black" points="682.5,-88.5 682.5,-118.5 813.5,-118.5 813.5,-88.5 682.5,-88.5"/>
<text text-anchor="start" x="690.5" y="-106.5" font-family="Helvetica,sans-Serif" font-size="10.00">Drone::Print_to_gnuplot</text>
<text text-anchor="middle" x="748" y="-95.5" font-family="Helvetica,sans-Serif" font-size="10.00">_drone</text>
</a>
</g>
</g>
<!-- Node1&#45;&gt;Node10 -->
<g id="edge11" class="edge">
<title>Node1&#45;&gt;Node10</title>
<path fill="none" stroke="midnightblue" d="M848.6,-103.5C836.9,-103.5 824.97,-103.5 813.62,-103.5"/>
<polygon fill="midnightblue" stroke="midnightblue" points="848.79,-107 858.79,-103.5 848.79,-100 848.79,-107"/>
</g>
<!-- Node11 -->
<g id="node11" class="node">
<title>Node11</title>
<g id="a_node11"><a xlink:href="class_prism.html#a5e0a2234e9ebe3b51146c0ddc42e8b48" target="_top" xlink:title="Metoda wczytywania odpowiednich wierzcholkow z pliku wzorcowego zgodnie z zaproponowanym sposobem zad...">
<polygon fill="none" stroke="black" points="673,-50 673,-69 823,-69 823,-50 673,-50"/>
<text text-anchor="middle" x="748" y="-57" font-family="Helvetica,sans-Serif" font-size="10.00">Prism::Prism_From_Sample</text>
</a>
</g>
</g>
<!-- Node1&#45;&gt;Node11 -->
<g id="edge12" class="edge">
<title>Node1&#45;&gt;Node11</title>
<path fill="none" stroke="midnightblue" d="M879.31,-91.53C850.54,-84.46 814.61,-75.63 787.76,-69.03"/>
<polygon fill="midnightblue" stroke="midnightblue" points="878.61,-94.96 889.16,-93.95 880.28,-88.17 878.61,-94.96"/>
</g>
<!-- Node12 -->
<g id="node12" class="node">
<title>Node12</title>
<g id="a_node12"><a xlink:href="class_drone.html#a63898ba4cc161710cf08f7b578f3d90f" target="_top" xlink:title="Metoda ustawiajaca nazwy plikow w laczy do gnuplota (nazwy final!)">
<polygon fill="none" stroke="black" points="688,-0.5 688,-30.5 808,-30.5 808,-0.5 688,-0.5"/>
<text text-anchor="start" x="696" y="-18.5" font-family="Helvetica,sans-Serif" font-size="10.00">Drone::set_filenames</text>
<text text-anchor="middle" x="748" y="-7.5" font-family="Helvetica,sans-Serif" font-size="10.00">_gnuplot</text>
</a>
</g>
</g>
<!-- Node1&#45;&gt;Node12 -->
<g id="edge14" class="edge">
<title>Node1&#45;&gt;Node12</title>
<path fill="none" stroke="midnightblue" d="M905.85,-88.29C885.11,-74.52 852.92,-54.33 823,-40.5 815.25,-36.91 806.83,-33.58 798.54,-30.59"/>
<polygon fill="midnightblue" stroke="midnightblue" points="904.01,-91.27 914.26,-93.94 907.91,-85.46 904.01,-91.27"/>
</g>
<!-- Node3 -->
<g id="node3" class="node">
<title>Node3</title>
<g id="a_node3"><a xlink:href="class_drone.html#ada6f4e93f4a63cbe1d6fbebf329efe62" target="_top" xlink:title="Metoda wczytywania odpowiednich wierzcholkow z pliku wzorcowego zgodnie z zaproponowanym sposobem w z...">
<polygon fill="none" stroke="black" points="484,-138 484,-157 637,-157 637,-138 484,-138"/>
<text text-anchor="middle" x="560.5" y="-145" font-family="Helvetica,sans-Serif" font-size="10.00">Drone::Drone_From_Sample</text>
</a>
</g>
</g>
<!-- Node2&#45;&gt;Node3 -->
<g id="edge2" class="edge">
<title>Node2&#45;&gt;Node3</title>
<path fill="none" stroke="midnightblue" d="M677.74,-175.07C652.11,-168.99 623.91,-162.3 601.7,-157.04"/>
<polygon fill="midnightblue" stroke="midnightblue" points="677.26,-178.55 687.8,-177.46 678.87,-171.74 677.26,-178.55"/>
</g>
<!-- Node4 -->
<g id="node4" class="node">
<title>Node4</title>
<g id="a_node4"><a xlink:href="class_drone.html#af03af60a9b92e4191a7e66b5c20b52bb" target="_top" xlink:title="Metoda zamieniajaca drona na tego z pliku sample.">
<polygon fill="none" stroke="black" points="326,-132.5 326,-162.5 448,-162.5 448,-132.5 326,-132.5"/>
<text text-anchor="start" x="334" y="-150.5" font-family="Helvetica,sans-Serif" font-size="10.00">Drone::Drone_change</text>
<text text-anchor="middle" x="387" y="-139.5" font-family="Helvetica,sans-Serif" font-size="10.00">_to_sample</text>
</a>
</g>
</g>
<!-- Node3&#45;&gt;Node4 -->
<g id="edge3" class="edge">
<title>Node3&#45;&gt;Node4</title>
<path fill="none" stroke="midnightblue" d="M473.67,-147.5C465.04,-147.5 456.41,-147.5 448.13,-147.5"/>
<polygon fill="midnightblue" stroke="midnightblue" points="473.78,-151 483.78,-147.5 473.78,-144 473.78,-151"/>
</g>
<!-- Node5 -->
<g id="node5" class="node">
<title>Node5</title>
<g id="a_node5"><a xlink:href="class_drone.html#ac4d24c27fb2c107d2e8bda0c2bf5cfa1" target="_top" xlink:title="Metoda obliczajaca i przeprowadzajaca caly ruch drona (obrot o kat i przelot z zadania 5....">
<polygon fill="none" stroke="black" points="0,-176.5 0,-206.5 112,-206.5 112,-176.5 0,-176.5"/>
<text text-anchor="start" x="8" y="-194.5" font-family="Helvetica,sans-Serif" font-size="10.00">Drone::Drone_basic</text>
<text text-anchor="middle" x="56" y="-183.5" font-family="Helvetica,sans-Serif" font-size="10.00">_motion</text>
</a>
</g>
</g>
<!-- Node4&#45;&gt;Node5 -->
<g id="edge4" class="edge">
<title>Node4&#45;&gt;Node5</title>
<path fill="none" stroke="midnightblue" d="M353.77,-167.88C335.76,-178.06 312.48,-189.29 290,-194.5 230.49,-208.29 160.12,-204.77 112.4,-199.56"/>
<polygon fill="midnightblue" stroke="midnightblue" points="355.8,-170.75 362.68,-162.69 352.28,-164.7 355.8,-170.75"/>
</g>
<!-- Node6 -->
<g id="node6" class="node">
<title>Node6</title>
<g id="a_node6"><a xlink:href="class_drone.html#af052f6bb793d1229b99b16b800b95b82" target="_top" xlink:title="Metoda animujaca obrot drona i wyrysowujaca calosc w gnuplocie.">
<polygon fill="none" stroke="black" points="156.5,-154.5 156.5,-184.5 281.5,-184.5 281.5,-154.5 156.5,-154.5"/>
<text text-anchor="start" x="164.5" y="-172.5" font-family="Helvetica,sans-Serif" font-size="10.00">Drone::Drone_rotation</text>
<text text-anchor="middle" x="219" y="-161.5" font-family="Helvetica,sans-Serif" font-size="10.00">_animation</text>
</a>
</g>
</g>
<!-- Node4&#45;&gt;Node6 -->
<g id="edge5" class="edge">
<title>Node4&#45;&gt;Node6</title>
<path fill="none" stroke="midnightblue" d="M315.43,-156.85C304.23,-158.34 292.72,-159.86 281.75,-161.32"/>
<polygon fill="midnightblue" stroke="midnightblue" points="316.15,-160.29 325.6,-155.5 315.23,-153.35 316.15,-160.29"/>
</g>
<!-- Node7 -->
<g id="node7" class="node">
<title>Node7</title>
<g id="a_node7"><a xlink:href="class_drone.html#ab7808296cec81143dbddd7516340a371" target="_top" xlink:title="Metoda robiaca &quot;oblot&quot; drona wokol punktu (z modyfikacji)">
<polygon fill="none" stroke="black" points="148,-116 148,-135 290,-135 290,-116 148,-116"/>
<text text-anchor="middle" x="219" y="-123" font-family="Helvetica,sans-Serif" font-size="10.00">Drone::Drone_roundabout</text>
</a>
</g>
</g>
<!-- Node4&#45;&gt;Node7 -->
<g id="edge7" class="edge">
<title>Node4&#45;&gt;Node7</title>
<path fill="none" stroke="midnightblue" d="M315.5,-138.16C307.13,-137.05 298.58,-135.91 290.21,-134.81"/>
<polygon fill="midnightblue" stroke="midnightblue" points="315.23,-141.65 325.6,-139.5 316.15,-134.71 315.23,-141.65"/>
</g>
<!-- Node8 -->
<g id="node8" class="node">
<title>Node8</title>
<g id="a_node8"><a xlink:href="class_drone.html#a5fc9dd645ad3856b5d3c501c63c464e3" target="_top" xlink:title="Metoda animujaca translacje drona i wyrysowujaca calosc w gnuplocie.">
<polygon fill="none" stroke="black" points="149.5,-66.5 149.5,-96.5 288.5,-96.5 288.5,-66.5 149.5,-66.5"/>
<text text-anchor="start" x="157.5" y="-84.5" font-family="Helvetica,sans-Serif" font-size="10.00">Drone::Drone_translation</text>
<text text-anchor="middle" x="219" y="-73.5" font-family="Helvetica,sans-Serif" font-size="10.00">_animation</text>
</a>
</g>
</g>
<!-- Node4&#45;&gt;Node8 -->
<g id="edge8" class="edge">
<title>Node4&#45;&gt;Node8</title>
<path fill="none" stroke="midnightblue" d="M342.66,-128.33C326.25,-121.25 307.35,-113.3 290,-106.5 281.47,-103.16 272.29,-99.75 263.47,-96.56"/>
<polygon fill="midnightblue" stroke="midnightblue" points="341.43,-131.61 352,-132.38 344.22,-125.19 341.43,-131.61"/>
</g>
<!-- Node6&#45;&gt;Node5 -->
<g id="edge6" class="edge">
<title>Node6&#45;&gt;Node5</title>
<path fill="none" stroke="midnightblue" d="M146.22,-179.31C134.75,-180.88 123.04,-182.48 112.04,-183.98"/>
<polygon fill="midnightblue" stroke="midnightblue" points="146.78,-182.76 156.21,-177.94 145.83,-175.83 146.78,-182.76"/>
</g>
<!-- Node9&#45;&gt;Node3 -->
<g id="edge10" class="edge">
<title>Node9&#45;&gt;Node3</title>
<path fill="none" stroke="midnightblue" d="M676.99,-147.5C663.94,-147.5 650.26,-147.5 637.06,-147.5"/>
<polygon fill="midnightblue" stroke="midnightblue" points="677.29,-151 687.29,-147.5 677.29,-144 677.29,-151"/>
</g>
<!-- Node11&#45;&gt;Node3 -->
<g id="edge13" class="edge">
<title>Node11&#45;&gt;Node3</title>
<path fill="none" stroke="midnightblue" d="M693.95,-71.87C686.79,-74.1 679.64,-76.65 673,-79.5 635.09,-95.79 594.73,-123.29 574.56,-137.82"/>
<polygon fill="midnightblue" stroke="midnightblue" points="695.04,-75.19 703.64,-69.01 693.06,-68.48 695.04,-75.19"/>
</g>
<!-- Node13 -->
<g id="node13" class="node">
<title>Node13</title>
<g id="a_node13"><a xlink:href="class_scene.html#ab57c9a7293ccbaf3dd7e9ac469a7a787" target="_top" xlink:title="Metoda inicjalizujaca lacze do gnuplota.">
<polygon fill="none" stroke="black" points="505.5,-6 505.5,-25 615.5,-25 615.5,-6 505.5,-6"/>
<text text-anchor="middle" x="560.5" y="-13" font-family="Helvetica,sans-Serif" font-size="10.00">Scene::init_gnuplot</text>
</a>
</g>
</g>
<!-- Node12&#45;&gt;Node13 -->
<g id="edge15" class="edge">
<title>Node12&#45;&gt;Node13</title>
<path fill="none" stroke="midnightblue" d="M677.59,-15.5C657.15,-15.5 635.09,-15.5 615.74,-15.5"/>
<polygon fill="midnightblue" stroke="midnightblue" points="677.8,-19 687.8,-15.5 677.8,-12 677.8,-19"/>
</g>
<!-- Node14 -->
<g id="node14" class="node">
<title>Node14</title>
<g id="a_node14"><a xlink:href="class_menu.html#af7e6a49bd56499facef9cc98561ea169" target="_top" xlink:title="Inicjuje i obsluguje menu.">
<polygon fill="none" stroke="black" points="338,-6 338,-25 436,-25 436,-6 338,-6"/>
<text text-anchor="middle" x="387" y="-13" font-family="Helvetica,sans-Serif" font-size="10.00">Menu::init_menu</text>
</a>
</g>
</g>
<!-- Node13&#45;&gt;Node14 -->
<g id="edge16" class="edge">
<title>Node13&#45;&gt;Node14</title>
<path fill="none" stroke="midnightblue" d="M495.17,-15.5C475.59,-15.5 454.43,-15.5 436.11,-15.5"/>
<polygon fill="midnightblue" stroke="midnightblue" points="495.24,-19 505.24,-15.5 495.24,-12 495.24,-19"/>
</g>
</g>
</svg>
