<?xml version="1.0" encoding="UTF-8" standalone="no"?>
<!DOCTYPE svg PUBLIC "-//W3C//DTD SVG 1.1//EN"
 "http://www.w3.org/Graphics/SVG/1.1/DTD/svg11.dtd">
<!-- Generated by graphviz version 2.43.0 (0)
 -->
<!-- Title: Drone::check_intersection Pages: 1 -->
<!--zoomable 230 -->
<svg id="main" version="1.1" xmlns="http://www.w3.org/2000/svg" xmlns:xlink="http://www.w3.org/1999/xlink" xml:space="preserve" onload="init(evt)">
<style type="text/css"><![CDATA[
.edge:hover path { stroke: red; }
.edge:hover polygon { stroke: red; fill: red; }
]]></style>
<script type="text/javascript"><![CDATA[
var edges = document.getElementsByTagName('g');
if (edges && edges.length) {
  for (var i=0;i<edges.length;i++) {
    if (edges[i].id.substr(0,4)=='edge') {
      edges[i].setAttribute('class','edge');
    }
  }
}
]]></script>
        <defs>
                <circle id="rim" cx="0" cy="0" r="7"/>
                <circle id="rim2" cx="0" cy="0" r="3.5"/>
                <g id="zoomPlus">
                        <use xlink:href="#rim" fill="#404040">
                                <set attributeName="fill" to="#808080" begin="zoomplus.mouseover" end="zoomplus.mouseout"/>
                        </use>
                        <path d="M-4,0h8M0,-4v8" fill="none" stroke="white" stroke-width="1.5" pointer-events="none"/>
                </g>
                <g id="zoomMin">
                        <use xlink:href="#rim" fill="#404040">
                                <set attributeName="fill" to="#808080" begin="zoomminus.mouseover" end="zoomminus.mouseout"/>
                        </use>
                        <path d="M-4,0h8" fill="none" stroke="white" stroke-width="1.5" pointer-events="none"/>
                </g>
                <g id="dirArrow">
                        <path fill="none" stroke="white" stroke-width="1.5" d="M0,-3.0v7 M-2.5,-0.5L0,-3.0L2.5,-0.5"/>
                </g>
               <g id="resetDef">
                       <use xlink:href="#rim2" fill="#404040">
                               <set attributeName="fill" to="#808080" begin="reset.mouseover" end="reset.mouseout"/>
                       </use>
               </g>
        </defs>

<script type="text/javascript">
var viewWidth = 704;
var viewHeight = 230;
var sectionId = 'dynsection-5';
</script>
<script xlink:href="svgpan.js"/>
<svg id="graph" class="graph">
<g id="viewport">
<title>Drone::check_intersection</title>
<!-- Node1 -->
<g id="node1" class="node">
<title>Node1</title>
<g id="a_node1"><a xlink:title="Methoda sprawdzajaca czy rzutowanie drona na plaszczyzne XY &#160;&#160;przecina sie z rzutowaniem prostopadlos...">
<polygon fill="#bfbfbf" stroke="black" points="0,-107 0,-126 143,-126 143,-107 0,-107"/>
<text text-anchor="middle" x="71.5" y="-114" font-family="Helvetica,sans-Serif" font-size="10.00">Drone::check_intersection</text>
</a>
</g>
</g>
<!-- Node2 -->
<g id="node2" class="node">
<title>Node2</title>
<g id="a_node2"><a xlink:href="class_drone.html#a0a57fc27f1cfacca5172426c15749b75" target="_top" xlink:title="Methoda powieksza rzutowana figure o radius w odpowiedni sposob.">
<polygon fill="none" stroke="black" points="180.5,-202 180.5,-221 313.5,-221 313.5,-202 180.5,-202"/>
<text text-anchor="middle" x="247" y="-209" font-family="Helvetica,sans-Serif" font-size="10.00">Drone::enlargen_by_rad</text>
</a>
</g>
</g>
<!-- Node1&#45;&gt;Node2 -->
<g id="edge1" class="edge">
<title>Node1&#45;&gt;Node2</title>
<path fill="none" stroke="midnightblue" d="M83.2,-126.08C101.54,-142.03 140.72,-174.1 179,-192.5 183.71,-194.77 188.75,-196.81 193.86,-198.64"/>
<polygon fill="midnightblue" stroke="midnightblue" points="193.13,-202.08 203.72,-201.9 195.33,-195.44 193.13,-202.08"/>
</g>
<!-- Node3 -->
<g id="node3" class="node">
<title>Node3</title>
<g id="a_node3"><a xlink:href="class_cuboid.html#a215319dead51277df1c35673c1eb29b3" target="_top" xlink:title="Metoda zwracajaca wierzcholki podstawy prostopadloscianu zrzutowane na plaszczyzne XY do tablicy">
<polygon fill="none" stroke="black" points="185,-164 185,-183 309,-183 309,-164 185,-164"/>
<text text-anchor="middle" x="247" y="-171" font-family="Helvetica,sans-Serif" font-size="10.00">Cuboid::get_basis_pro</text>
</a>
</g>
</g>
<!-- Node1&#45;&gt;Node3 -->
<g id="edge2" class="edge">
<title>Node1&#45;&gt;Node3</title>
<path fill="none" stroke="midnightblue" d="M97.73,-126.04C119.21,-134.03 150.95,-145.53 179,-154.5 186.05,-156.75 193.55,-159.02 200.89,-161.15"/>
<polygon fill="midnightblue" stroke="midnightblue" points="200.17,-164.59 210.75,-163.98 202.1,-157.86 200.17,-164.59"/>
</g>
<!-- Node4 -->
<g id="node4" class="node">
<title>Node4</title>
<g id="a_node4"><a xlink:href="class_drone.html#ab0684fb71c2da878193af0f27a44d276" target="_top" xlink:title="Zwraca promien okregu rzutowany przez dron na plaszczyzne XY">
<polygon fill="none" stroke="black" points="179,-126 179,-145 315,-145 315,-126 179,-126"/>
<text text-anchor="middle" x="247" y="-133" font-family="Helvetica,sans-Serif" font-size="10.00">Drone::get_drone_radius</text>
</a>
</g>
</g>
<!-- Node1&#45;&gt;Node4 -->
<g id="edge3" class="edge">
<title>Node1&#45;&gt;Node4</title>
<path fill="none" stroke="midnightblue" d="M143.07,-124.23C151.57,-125.16 160.28,-126.11 168.86,-127.05"/>
<polygon fill="midnightblue" stroke="midnightblue" points="168.54,-130.54 178.86,-128.15 169.3,-123.58 168.54,-130.54"/>
</g>
<!-- Node8 -->
<g id="node8" class="node">
<title>Node8</title>
<g id="a_node8"><a xlink:href="class_drone.html#ab717196d8d03bde942a75d1f693fe362" target="_top" xlink:title="Zwraca rzutowanie pozycje srodka podstawy body na XY">
<polygon fill="none" stroke="black" points="191.5,-88 191.5,-107 302.5,-107 302.5,-88 191.5,-88"/>
<text text-anchor="middle" x="247" y="-95" font-family="Helvetica,sans-Serif" font-size="10.00">Drone::get_pos_pro</text>
</a>
</g>
</g>
<!-- Node1&#45;&gt;Node8 -->
<g id="edge7" class="edge">
<title>Node1&#45;&gt;Node8</title>
<path fill="none" stroke="midnightblue" d="M143.07,-108.77C155.68,-107.39 168.76,-105.96 181.19,-104.6"/>
<polygon fill="midnightblue" stroke="midnightblue" points="181.9,-108.04 191.46,-103.47 181.14,-101.08 181.9,-108.04"/>
</g>
<!-- Node10 -->
<g id="node10" class="node">
<title>Node10</title>
<g id="a_node10"><a xlink:href="class_drone.html#a0920ad155e2877898f21a038d68e96f9" target="_top" xlink:title="Methoda sprawdza czy punkt 0,0,0 miesci sie w powiekszonym przez metode &#160;&#160;enlargen_by_rad obszarze w ...">
<polygon fill="none" stroke="black" points="192,-50 192,-69 302,-69 302,-50 192,-50"/>
<text text-anchor="middle" x="247" y="-57" font-family="Helvetica,sans-Serif" font-size="10.00">Drone::main_check</text>
</a>
</g>
</g>
<!-- Node1&#45;&gt;Node10 -->
<g id="edge10" class="edge">
<title>Node1&#45;&gt;Node10</title>
<path fill="none" stroke="midnightblue" d="M97.73,-106.96C119.21,-98.97 150.95,-87.47 179,-78.5 186.05,-76.25 193.55,-73.98 200.89,-71.85"/>
<polygon fill="midnightblue" stroke="midnightblue" points="202.1,-75.14 210.75,-69.02 200.17,-68.41 202.1,-75.14"/>
</g>
<!-- Node11 -->
<g id="node11" class="node">
<title>Node11</title>
<g id="a_node11"><a xlink:href="class_drone.html#a8e86dfee9cdbdc1d2791ad51d1212517" target="_top" xlink:title="Methoda uzywana przy check_intersection() przesuwajaca i rotujaca caly uklad.">
<polygon fill="none" stroke="black" points="182.5,-0.5 182.5,-30.5 311.5,-30.5 311.5,-0.5 182.5,-0.5"/>
<text text-anchor="start" x="190.5" y="-18.5" font-family="Helvetica,sans-Serif" font-size="10.00">Drone::new_coordinate</text>
<text text-anchor="middle" x="247" y="-7.5" font-family="Helvetica,sans-Serif" font-size="10.00">_system_intersection</text>
</a>
</g>
</g>
<!-- Node1&#45;&gt;Node11 -->
<g id="edge11" class="edge">
<title>Node1&#45;&gt;Node11</title>
<path fill="none" stroke="midnightblue" d="M83.97,-106.76C102.8,-91.13 141.89,-60.22 179,-40.5 182.93,-38.41 187.07,-36.42 191.29,-34.53"/>
<polygon fill="midnightblue" stroke="midnightblue" points="192.76,-37.71 200.6,-30.59 190.02,-31.27 192.76,-37.71"/>
</g>
<!-- Node5 -->
<g id="node5" class="node">
<title>Node5</title>
<g id="a_node5"><a xlink:href="class_prism.html#ab08ae36567a12753d78ae4b5fb2fbfa2" target="_top" xlink:title="Metoda zwracajaca dlugosc przekatnej podstawy prostopadloscianu">
<polygon fill="none" stroke="black" points="354,-164 354,-183 518,-183 518,-164 354,-164"/>
<text text-anchor="middle" x="436" y="-171" font-family="Helvetica,sans-Serif" font-size="10.00">Prism::get_basis_diagonal_len</text>
</a>
</g>
</g>
<!-- Node4&#45;&gt;Node5 -->
<g id="edge4" class="edge">
<title>Node4&#45;&gt;Node5</title>
<path fill="none" stroke="midnightblue" d="M295.19,-145.09C320.42,-150.22 351.67,-156.57 378.23,-161.96"/>
<polygon fill="midnightblue" stroke="midnightblue" points="377.65,-165.42 388.15,-163.98 379.05,-158.56 377.65,-165.42"/>
</g>
<!-- Node6 -->
<g id="node6" class="node">
<title>Node6</title>
<g id="a_node6"><a xlink:href="class_cuboid.html#a79e4e3337e02d8f8a757561cedbdb71f" target="_top" xlink:title="Metoda zwracajaca dlugosc przekatnej podstawy prostopadloscianu">
<polygon fill="none" stroke="black" points="351,-126 351,-145 521,-145 521,-126 351,-126"/>
<text text-anchor="middle" x="436" y="-133" font-family="Helvetica,sans-Serif" font-size="10.00">Cuboid::get_basis_diagonal_len</text>
</a>
</g>
</g>
<!-- Node4&#45;&gt;Node6 -->
<g id="edge5" class="edge">
<title>Node4&#45;&gt;Node6</title>
<path fill="none" stroke="midnightblue" d="M315.25,-135.5C323.53,-135.5 332.1,-135.5 340.69,-135.5"/>
<polygon fill="midnightblue" stroke="midnightblue" points="340.76,-139 350.76,-135.5 340.76,-132 340.76,-139"/>
</g>
<!-- Node7 -->
<g id="node7" class="node">
<title>Node7</title>
<g id="a_node7"><a xlink:href="class_cuboid.html#a0e7f901199262984ab6ba0da01d96c40" target="_top" xlink:title="Metoda zwracajaca srodek podstawy ostroslupa">
<polygon fill="none" stroke="black" points="557,-107 557,-126 696,-126 696,-107 557,-107"/>
<text text-anchor="middle" x="626.5" y="-114" font-family="Helvetica,sans-Serif" font-size="10.00">Cuboid::get_basis_centre</text>
</a>
</g>
</g>
<!-- Node6&#45;&gt;Node7 -->
<g id="edge6" class="edge">
<title>Node6&#45;&gt;Node7</title>
<path fill="none" stroke="midnightblue" d="M521.05,-127.03C529.57,-126.17 538.19,-125.3 546.65,-124.45"/>
<polygon fill="midnightblue" stroke="midnightblue" points="547.27,-127.9 556.86,-123.42 546.56,-120.94 547.27,-127.9"/>
</g>
<!-- Node9 -->
<g id="node9" class="node">
<title>Node9</title>
<g id="a_node9"><a xlink:href="class_drone.html#abf6bc328fea7ec556e5a23ca37cf6d8e" target="_top" xlink:title="Zwraca pozycje srodka podstawy body">
<polygon fill="none" stroke="black" points="391,-88 391,-107 481,-107 481,-88 391,-88"/>
<text text-anchor="middle" x="436" y="-95" font-family="Helvetica,sans-Serif" font-size="10.00">Drone::get_pos</text>
</a>
</g>
</g>
<!-- Node8&#45;&gt;Node9 -->
<g id="edge8" class="edge">
<title>Node8&#45;&gt;Node9</title>
<path fill="none" stroke="midnightblue" d="M302.59,-97.5C327.12,-97.5 355.99,-97.5 380.5,-97.5"/>
<polygon fill="midnightblue" stroke="midnightblue" points="380.72,-101 390.72,-97.5 380.72,-94 380.72,-101"/>
</g>
<!-- Node9&#45;&gt;Node7 -->
<g id="edge9" class="edge">
<title>Node9&#45;&gt;Node7</title>
<path fill="none" stroke="midnightblue" d="M481.19,-101.95C500.73,-103.92 524.3,-106.3 546.68,-108.56"/>
<polygon fill="midnightblue" stroke="midnightblue" points="546.56,-112.06 556.86,-109.58 547.27,-105.1 546.56,-112.06"/>
</g>
</g>
</svg>
        <g id="navigator" transform="translate(0 0)" fill="#404254">
                <rect fill="#f2f5e9" fill-opacity="0.5" stroke="#606060" stroke-width=".5" x="0" y="0" width="60" height="60"/>
                <use id="zoomplus" xlink:href="#zoomPlus" x="17" y="9" onmousedown="handleZoom(evt,'in')"/>
                <use id="zoomminus" xlink:href="#zoomMin" x="42" y="9" onmousedown="handleZoom(evt,'out')"/>
                <use id="reset" xlink:href="#resetDef" x="30" y="36" onmousedown="handleReset()"/>
                <g id="arrowUp" xlink:href="#dirArrow" transform="translate(30 24)" onmousedown="handlePan(0,-1)">
                  <use xlink:href="#rim" fill="#404040">
                        <set attributeName="fill" to="#808080" begin="arrowUp.mouseover" end="arrowUp.mouseout"/>
                  </use>
                  <path fill="none" stroke="white" stroke-width="1.5" d="M0,-3.0v7 M-2.5,-0.5L0,-3.0L2.5,-0.5"/>
                </g>
                <g id="arrowRight" xlink:href="#dirArrow" transform="rotate(90) translate(36 -43)" onmousedown="handlePan(1,0)">
                  <use xlink:href="#rim" fill="#404040">
                        <set attributeName="fill" to="#808080" begin="arrowRight.mouseover" end="arrowRight.mouseout"/>
                  </use>
                  <path fill="none" stroke="white" stroke-width="1.5" d="M0,-3.0v7 M-2.5,-0.5L0,-3.0L2.5,-0.5"/>
                </g>
                <g id="arrowDown" xlink:href="#dirArrow" transform="rotate(180) translate(-30 -48)" onmousedown="handlePan(0,1)">
                  <use xlink:href="#rim" fill="#404040">
                        <set attributeName="fill" to="#808080" begin="arrowDown.mouseover" end="arrowDown.mouseout"/>
                  </use>
                  <path fill="none" stroke="white" stroke-width="1.5" d="M0,-3.0v7 M-2.5,-0.5L0,-3.0L2.5,-0.5"/>
                </g>
                <g id="arrowLeft" xlink:href="#dirArrow" transform="rotate(270) translate(-36 17)" onmousedown="handlePan(-1,0)">
                  <use xlink:href="#rim" fill="#404040">
                        <set attributeName="fill" to="#808080" begin="arrowLeft.mouseover" end="arrowLeft.mouseout"/>
                  </use>
                  <path fill="none" stroke="white" stroke-width="1.5" d="M0,-3.0v7 M-2.5,-0.5L0,-3.0L2.5,-0.5"/>
                </g>
        </g>
        <svg viewBox="0 0 15 15" width="100%" height="30px" preserveAspectRatio="xMaxYMin meet">
         <g id="arrow_out" transform="scale(0.3 0.3)">
          <a xlink:href="class_drone_a5369b8139325f0f8d7eb0a7db7c684cd_cgraph_org.svg" target="_base">
           <rect id="button" ry="5" rx="5" y="6" x="6" height="38" width="38"
                fill="#f2f5e9" fill-opacity="0.5" stroke="#606060" stroke-width="1.0"/>
           <path id="arrow"
             d="M 11.500037,31.436501 C 11.940474,20.09759 22.043105,11.32322 32.158766,21.979434 L 37.068811,17.246167 C 37.068811,17.246167 37.088388,32 37.088388,32 L 22.160133,31.978069 C 22.160133,31.978069 26.997745,27.140456 26.997745,27.140456 C 18.528582,18.264221 13.291696,25.230495 11.500037,31.436501 z"
             style="fill:#404040;"/>
          </a>
         </g>
        </svg>
</svg>
