<?xml version="1.0" encoding="UTF-8" standalone="no"?>
<!DOCTYPE svg PUBLIC "-//W3C//DTD SVG 1.1//EN"
 "http://www.w3.org/Graphics/SVG/1.1/DTD/svg11.dtd">
<!-- Generated by graphviz version 2.43.0 (0)
 -->
<!-- Title: Drone::Print_to_files_drone Pages: 1 -->
<svg width="612pt" height="186pt"
 viewBox="0.00 0.00 612.00 186.41" xmlns="http://www.w3.org/2000/svg" xmlns:xlink="http://www.w3.org/1999/xlink">
<g id="graph0" class="graph" transform="scale(1 1) rotate(0) translate(4 182.41)">
<title>Drone::Print_to_files_drone</title>
<!-- Node1 -->
<g id="node1" class="node">
<title>Node1</title>
<g id="a_node1"><a xlink:title="Metoda zapisujaca parametry drona do plikow (do plikow final kazdego z elementow)">
<polygon fill="#bfbfbf" stroke="black" points="489,-82.5 489,-112.5 604,-112.5 604,-82.5 489,-82.5"/>
<text text-anchor="start" x="497" y="-100.5" font-family="Helvetica,sans-Serif" font-size="10.00">Drone::Print_to_files</text>
<text text-anchor="middle" x="546.5" y="-89.5" font-family="Helvetica,sans-Serif" font-size="10.00">_drone</text>
</a>
</g>
</g>
<!-- Node2 -->
<g id="node2" class="node">
<title>Node2</title>
<g id="a_node2"><a xlink:href="class_drone.html#ac4d24c27fb2c107d2e8bda0c2bf5cfa1" target="_top" xlink:title="Metoda obliczajaca i przeprowadzajaca caly ruch drona (obrot o kat i przelot z zadania 5....">
<polygon fill="none" stroke="black" points="0,-126.5 0,-156.5 112,-156.5 112,-126.5 0,-126.5"/>
<text text-anchor="start" x="8" y="-144.5" font-family="Helvetica,sans-Serif" font-size="10.00">Drone::Drone_basic</text>
<text text-anchor="middle" x="56" y="-133.5" font-family="Helvetica,sans-Serif" font-size="10.00">_motion</text>
</a>
</g>
</g>
<!-- Node1&#45;&gt;Node2 -->
<g id="edge1" class="edge">
<title>Node1&#45;&gt;Node2</title>
<path fill="none" stroke="midnightblue" d="M511.52,-117.69C494.49,-126.94 473.23,-137.22 453,-143.5 323.16,-183.78 282.72,-184.67 148,-166.5 132.9,-164.46 116.76,-160.61 102.33,-156.52"/>
<polygon fill="midnightblue" stroke="midnightblue" points="513.47,-120.61 520.51,-112.69 510.07,-114.5 513.47,-120.61"/>
</g>
<!-- Node3 -->
<g id="node3" class="node">
<title>Node3</title>
<g id="a_node3"><a xlink:href="class_drone.html#af052f6bb793d1229b99b16b800b95b82" target="_top" xlink:title="Metoda animujaca obrot drona i wyrysowujaca calosc w gnuplocie.">
<polygon fill="none" stroke="black" points="156.5,-126.5 156.5,-156.5 281.5,-156.5 281.5,-126.5 156.5,-126.5"/>
<text text-anchor="start" x="164.5" y="-144.5" font-family="Helvetica,sans-Serif" font-size="10.00">Drone::Drone_rotation</text>
<text text-anchor="middle" x="219" y="-133.5" font-family="Helvetica,sans-Serif" font-size="10.00">_animation</text>
</a>
</g>
</g>
<!-- Node1&#45;&gt;Node3 -->
<g id="edge2" class="edge">
<title>Node1&#45;&gt;Node3</title>
<path fill="none" stroke="midnightblue" d="M486.45,-115.18C475.41,-117.99 463.92,-120.6 453,-122.5 395.43,-132.54 328.9,-137.3 281.71,-139.54"/>
<polygon fill="midnightblue" stroke="midnightblue" points="487.65,-118.48 496.43,-112.55 485.87,-111.71 487.65,-118.48"/>
</g>
<!-- Node4 -->
<g id="node4" class="node">
<title>Node4</title>
<g id="a_node4"><a xlink:href="class_drone.html#ab7808296cec81143dbddd7516340a371" target="_top" xlink:title="Metoda robiaca &quot;oblot&quot; drona wokol punktu (z modyfikacji)">
<polygon fill="none" stroke="black" points="148,-50 148,-69 290,-69 290,-50 148,-50"/>
<text text-anchor="middle" x="219" y="-57" font-family="Helvetica,sans-Serif" font-size="10.00">Drone::Drone_roundabout</text>
</a>
</g>
</g>
<!-- Node1&#45;&gt;Node4 -->
<g id="edge4" class="edge">
<title>Node1&#45;&gt;Node4</title>
<path fill="none" stroke="midnightblue" d="M484.6,-79.92C474.13,-77.41 463.31,-75.13 453,-73.5 398.76,-64.92 336.67,-61.5 290.22,-60.18"/>
<polygon fill="midnightblue" stroke="midnightblue" points="483.95,-83.36 494.5,-82.38 485.64,-76.57 483.95,-83.36"/>
</g>
<!-- Node5 -->
<g id="node5" class="node">
<title>Node5</title>
<g id="a_node5"><a xlink:href="class_drone.html#a5fc9dd645ad3856b5d3c501c63c464e3" target="_top" xlink:title="Metoda animujaca translacje drona i wyrysowujaca calosc w gnuplocie.">
<polygon fill="none" stroke="black" points="149.5,-0.5 149.5,-30.5 288.5,-30.5 288.5,-0.5 149.5,-0.5"/>
<text text-anchor="start" x="157.5" y="-18.5" font-family="Helvetica,sans-Serif" font-size="10.00">Drone::Drone_translation</text>
<text text-anchor="middle" x="219" y="-7.5" font-family="Helvetica,sans-Serif" font-size="10.00">_animation</text>
</a>
</g>
</g>
<!-- Node1&#45;&gt;Node5 -->
<g id="edge5" class="edge">
<title>Node1&#45;&gt;Node5</title>
<path fill="none" stroke="midnightblue" d="M506.18,-78.12C490.02,-70.79 470.92,-62.91 453,-57.5 398.8,-41.13 335.46,-30.22 288.52,-23.63"/>
<polygon fill="midnightblue" stroke="midnightblue" points="504.78,-81.33 515.33,-82.36 507.72,-74.98 504.78,-81.33"/>
</g>
<!-- Node6 -->
<g id="node6" class="node">
<title>Node6</title>
<g id="a_node6"><a xlink:href="class_drone.html#aedb04b80609b22ff4eb4a957bc149a48" target="_top" xlink:title="Metoda animujaca obrot rotorow i zapisujaca to w plikach. Metoda sluzy jako metoda pomocnicza,...">
<polygon fill="none" stroke="black" points="326,-82.5 326,-112.5 453,-112.5 453,-82.5 326,-82.5"/>
<text text-anchor="start" x="334" y="-100.5" font-family="Helvetica,sans-Serif" font-size="10.00">Drone::Rotors_rotation</text>
<text text-anchor="middle" x="389.5" y="-89.5" font-family="Helvetica,sans-Serif" font-size="10.00">_animation</text>
</a>
</g>
</g>
<!-- Node1&#45;&gt;Node6 -->
<g id="edge6" class="edge">
<title>Node1&#45;&gt;Node6</title>
<path fill="none" stroke="midnightblue" d="M478.49,-97.5C470.05,-97.5 461.44,-97.5 453.08,-97.5"/>
<polygon fill="midnightblue" stroke="midnightblue" points="478.66,-101 488.66,-97.5 478.66,-94 478.66,-101"/>
</g>
<!-- Node3&#45;&gt;Node2 -->
<g id="edge3" class="edge">
<title>Node3&#45;&gt;Node2</title>
<path fill="none" stroke="midnightblue" d="M145.87,-141.5C134.51,-141.5 122.93,-141.5 112.04,-141.5"/>
<polygon fill="midnightblue" stroke="midnightblue" points="146.21,-145 156.21,-141.5 146.21,-138 146.21,-145"/>
</g>
<!-- Node6&#45;&gt;Node2 -->
<g id="edge7" class="edge">
<title>Node6&#45;&gt;Node2</title>
<path fill="none" stroke="midnightblue" d="M315.56,-100.25C267.66,-102.86 203.78,-107.9 148,-117.5 134.8,-119.77 120.71,-123.05 107.67,-126.46"/>
<polygon fill="midnightblue" stroke="midnightblue" points="316.03,-103.73 325.83,-99.71 315.66,-96.74 316.03,-103.73"/>
</g>
<!-- Node6&#45;&gt;Node3 -->
<g id="edge8" class="edge">
<title>Node6&#45;&gt;Node3</title>
<path fill="none" stroke="midnightblue" d="M321.12,-115.09C306.69,-118.86 291.57,-122.81 277.54,-126.47"/>
<polygon fill="midnightblue" stroke="midnightblue" points="322.19,-118.43 330.98,-112.52 320.42,-111.66 322.19,-118.43"/>
</g>
<!-- Node6&#45;&gt;Node4 -->
<g id="edge9" class="edge">
<title>Node6&#45;&gt;Node4</title>
<path fill="none" stroke="midnightblue" d="M315.98,-81.14C297.67,-77.02 278.6,-72.72 262.34,-69.05"/>
<polygon fill="midnightblue" stroke="midnightblue" points="315.23,-84.56 325.76,-83.35 316.77,-77.74 315.23,-84.56"/>
</g>
<!-- Node6&#45;&gt;Node5 -->
<g id="edge10" class="edge">
<title>Node6&#45;&gt;Node5</title>
<path fill="none" stroke="midnightblue" d="M356.74,-77.14C337.81,-65.52 313.06,-51.18 290,-40.5 282.39,-36.97 274.13,-33.63 266.04,-30.6"/>
<polygon fill="midnightblue" stroke="midnightblue" points="354.92,-80.13 365.26,-82.44 358.61,-74.19 354.92,-80.13"/>
</g>
</g>
</svg>
