<?xml version="1.0" encoding="UTF-8" standalone="no"?>
<!DOCTYPE svg PUBLIC "-//W3C//DTD SVG 1.1//EN"
 "http://www.w3.org/Graphics/SVG/1.1/DTD/svg11.dtd">
<!-- Generated by graphviz version 2.43.0 (0)
 -->
<!-- Title: Scene::add_object Pages: 1 -->
<svg width="440pt" height="176pt"
 viewBox="0.00 0.00 440.00 176.00" xmlns="http://www.w3.org/2000/svg" xmlns:xlink="http://www.w3.org/1999/xlink">
<g id="graph0" class="graph" transform="scale(1 1) rotate(0) translate(4 172)">
<title>Scene::add_object</title>
<!-- Node1 -->
<g id="node1" class="node">
<title>Node1</title>
<g id="a_node1"><a xlink:title="Metoda dodajaca object zadany przez uzytkownika.">
<polygon fill="#bfbfbf" stroke="black" points="0,-72 0,-91 105,-91 105,-72 0,-72"/>
<text text-anchor="middle" x="52.5" y="-79" font-family="Helvetica,sans-Serif" font-size="10.00">Scene::add_object</text>
</a>
</g>
</g>
<!-- Node2 -->
<g id="node2" class="node">
<title>Node2</title>
<g id="a_node2"><a xlink:href="class_scene.html#a16da566304f4ed4228fa89af25e330e5" target="_top" xlink:title="Metoda dodajaca prostopadloscian, ostroslup lub Triangular do listy objects.">
<polygon fill="none" stroke="black" points="143,-137.5 143,-167.5 275,-167.5 275,-137.5 143,-137.5"/>
<text text-anchor="start" x="151" y="-155.5" font-family="Helvetica,sans-Serif" font-size="10.00">Scene::add_object_type</text>
<text text-anchor="middle" x="209" y="-144.5" font-family="Helvetica,sans-Serif" font-size="10.00">_cuboid</text>
</a>
</g>
</g>
<!-- Node1&#45;&gt;Node2 -->
<g id="edge1" class="edge">
<title>Node1&#45;&gt;Node2</title>
<path fill="none" stroke="midnightblue" d="M69.58,-91.08C86.87,-101.15 115.32,-117.08 141,-128.5 145.05,-130.3 149.27,-132.07 153.55,-133.77"/>
<polygon fill="midnightblue" stroke="midnightblue" points="152.36,-137.06 162.95,-137.4 154.88,-130.53 152.36,-137.06"/>
</g>
<!-- Node3 -->
<g id="node3" class="node">
<title>Node3</title>
<g id="a_node3"><a xlink:href="class_scene.html#a684bec8db49b527c34a567e91259102e" target="_top" xlink:title="Metoda dodajaca obiekt pochodny z Prism do listy objects.">
<polygon fill="none" stroke="black" points="143,-88.5 143,-118.5 275,-118.5 275,-88.5 143,-88.5"/>
<text text-anchor="start" x="151" y="-106.5" font-family="Helvetica,sans-Serif" font-size="10.00">Scene::add_object_type</text>
<text text-anchor="middle" x="209" y="-95.5" font-family="Helvetica,sans-Serif" font-size="10.00">_prism</text>
</a>
</g>
</g>
<!-- Node1&#45;&gt;Node3 -->
<g id="edge2" class="edge">
<title>Node1&#45;&gt;Node3</title>
<path fill="none" stroke="midnightblue" d="M105.38,-88.89C114.2,-90.14 123.51,-91.47 132.79,-92.79"/>
<polygon fill="midnightblue" stroke="midnightblue" points="132.42,-96.27 142.81,-94.22 133.41,-89.34 132.42,-96.27"/>
</g>
<!-- Node4 -->
<g id="node4" class="node">
<title>Node4</title>
<g id="a_node4"><a xlink:href="class_scene.html#a0e6e9771175c23c6ed78a493ed6d8e63" target="_top" xlink:title="Metoda tworzaca nazwy programow, uzywana przy dodawaniu obiektow sceny.">
<polygon fill="none" stroke="black" points="141,-50 141,-69 277,-69 277,-50 141,-50"/>
<text text-anchor="middle" x="209" y="-57" font-family="Helvetica,sans-Serif" font-size="10.00">Scene::create_filenames</text>
</a>
</g>
</g>
<!-- Node1&#45;&gt;Node4 -->
<g id="edge3" class="edge">
<title>Node1&#45;&gt;Node4</title>
<path fill="none" stroke="midnightblue" d="M105.38,-74.11C113.63,-72.94 122.32,-71.7 131,-70.46"/>
<polygon fill="midnightblue" stroke="midnightblue" points="131.76,-73.89 141.17,-69.02 130.78,-66.96 131.76,-73.89"/>
</g>
<!-- Node6 -->
<g id="node6" class="node">
<title>Node6</title>
<g id="a_node6"><a xlink:href="class_pz_g_1_1_lacze_do_g_n_u_plota.html#aa815ce8ec16e12fc246cf422e562869e" target="_top" xlink:title="Dodaje nazwę pliku.">
<polygon fill="none" stroke="black" points="144,-0.5 144,-30.5 274,-30.5 274,-0.5 144,-0.5"/>
<text text-anchor="start" x="152" y="-18.5" font-family="Helvetica,sans-Serif" font-size="10.00">PzG::LaczeDoGNUPlota</text>
<text text-anchor="middle" x="209" y="-7.5" font-family="Helvetica,sans-Serif" font-size="10.00">::DodajNazwePliku</text>
</a>
</g>
</g>
<!-- Node1&#45;&gt;Node6 -->
<g id="edge5" class="edge">
<title>Node1&#45;&gt;Node6</title>
<path fill="none" stroke="midnightblue" d="M72.76,-71.93C90.35,-63.31 117.18,-50.5 141,-40.5 146.01,-38.4 151.26,-36.28 156.53,-34.22"/>
<polygon fill="midnightblue" stroke="midnightblue" points="157.9,-37.44 165.98,-30.58 155.39,-30.91 157.9,-37.44"/>
</g>
<!-- Node5 -->
<g id="node5" class="node">
<title>Node5</title>
<g id="a_node5"><a xlink:href="class_scene.html#a2724c6aee793b0deb0d58a990ab16832" target="_top" xlink:title="Metoda uzywana w switchu metody create_filenames. Sluzy do tworzenia pliku o odpowiedniej nazwie.">
<polygon fill="none" stroke="black" points="313,-44.5 313,-74.5 432,-74.5 432,-44.5 313,-44.5"/>
<text text-anchor="start" x="321" y="-62.5" font-family="Helvetica,sans-Serif" font-size="10.00">Scene::switch_create</text>
<text text-anchor="middle" x="372.5" y="-51.5" font-family="Helvetica,sans-Serif" font-size="10.00">_filenames</text>
</a>
</g>
</g>
<!-- Node4&#45;&gt;Node5 -->
<g id="edge4" class="edge">
<title>Node4&#45;&gt;Node5</title>
<path fill="none" stroke="midnightblue" d="M277.09,-59.5C285.53,-59.5 294.17,-59.5 302.64,-59.5"/>
<polygon fill="midnightblue" stroke="midnightblue" points="302.86,-63 312.86,-59.5 302.86,-56 302.86,-63"/>
</g>
<!-- Node7 -->
<g id="node7" class="node">
<title>Node7</title>
<g id="a_node7"><a xlink:href="namespace_pz_g.html#ae1aad0c681853d7e47da4cdfccefc102" target="_top" xlink:title="Funkcja pomocnicza, sprawdza czy plik o podanej nazwie jest na dysku.">
<polygon fill="none" stroke="black" points="325,-6 325,-25 420,-25 420,-6 325,-6"/>
<text text-anchor="middle" x="372.5" y="-13" font-family="Helvetica,sans-Serif" font-size="10.00">PzG::CzyJestPlik</text>
</a>
</g>
</g>
<!-- Node6&#45;&gt;Node7 -->
<g id="edge6" class="edge">
<title>Node6&#45;&gt;Node7</title>
<path fill="none" stroke="midnightblue" d="M274.29,-15.5C287.62,-15.5 301.57,-15.5 314.61,-15.5"/>
<polygon fill="midnightblue" stroke="midnightblue" points="314.84,-19 324.84,-15.5 314.84,-12 314.84,-19"/>
</g>
</g>
</svg>
