<?xml version="1.0" encoding="UTF-8" standalone="no"?>
<!DOCTYPE svg PUBLIC "-//W3C//DTD SVG 1.1//EN"
 "http://www.w3.org/Graphics/SVG/1.1/DTD/svg11.dtd">
<!-- Generated by graphviz version 2.43.0 (0)
 -->
<!-- Title: Drone::Drone_path_clear Pages: 1 -->
<svg width="323pt" height="78pt"
 viewBox="0.00 0.00 323.00 77.50" xmlns="http://www.w3.org/2000/svg" xmlns:xlink="http://www.w3.org/1999/xlink">
<g id="graph0" class="graph" transform="scale(1 1) rotate(0) translate(4 73.5)">
<title>Drone::Drone_path_clear</title>
<!-- Node1 -->
<g id="node1" class="node">
<title>Node1</title>
<g id="a_node1"><a xlink:title="Oczyszcza plik ze sciezka.">
<polygon fill="#bfbfbf" stroke="black" points="178,-22.5 178,-41.5 315,-41.5 315,-22.5 178,-22.5"/>
<text text-anchor="middle" x="246.5" y="-29.5" font-family="Helvetica,sans-Serif" font-size="10.00">Drone::Drone_path_clear</text>
</a>
</g>
</g>
<!-- Node2 -->
<g id="node2" class="node">
<title>Node2</title>
<g id="a_node2"><a xlink:href="class_drone.html#ac4d24c27fb2c107d2e8bda0c2bf5cfa1" target="_top" xlink:title="Metoda obliczajaca i przeprowadzajaca caly ruch drona (obrot o kat i przelot z zadania 5....">
<polygon fill="none" stroke="black" points="15,-39 15,-69 127,-69 127,-39 15,-39"/>
<text text-anchor="start" x="23" y="-57" font-family="Helvetica,sans-Serif" font-size="10.00">Drone::Drone_basic</text>
<text text-anchor="middle" x="71" y="-46" font-family="Helvetica,sans-Serif" font-size="10.00">_motion</text>
</a>
</g>
</g>
<!-- Node1&#45;&gt;Node2 -->
<g id="edge1" class="edge">
<title>Node1&#45;&gt;Node2</title>
<path fill="none" stroke="midnightblue" d="M167.96,-41.83C154.17,-43.58 140.07,-45.37 127.07,-47.02"/>
<polygon fill="midnightblue" stroke="midnightblue" points="168.44,-45.3 177.92,-40.57 167.56,-38.35 168.44,-45.3"/>
</g>
<!-- Node3 -->
<g id="node3" class="node">
<title>Node3</title>
<g id="a_node3"><a xlink:href="class_drone.html#ab7808296cec81143dbddd7516340a371" target="_top" xlink:title="Metoda robiaca &quot;oblot&quot; drona wokol punktu (z modyfikacji)">
<polygon fill="none" stroke="black" points="0,-0.5 0,-19.5 142,-19.5 142,-0.5 0,-0.5"/>
<text text-anchor="middle" x="71" y="-7.5" font-family="Helvetica,sans-Serif" font-size="10.00">Drone::Drone_roundabout</text>
</a>
</g>
</g>
<!-- Node1&#45;&gt;Node3 -->
<g id="edge2" class="edge">
<title>Node1&#45;&gt;Node3</title>
<path fill="none" stroke="midnightblue" d="M167.95,-22.17C159.39,-21.08 150.72,-19.98 142.25,-18.91"/>
<polygon fill="midnightblue" stroke="midnightblue" points="167.56,-25.65 177.92,-23.43 168.44,-18.7 167.56,-25.65"/>
</g>
</g>
</svg>
