<?xml version="1.0" encoding="UTF-8" standalone="no"?>
<!DOCTYPE svg PUBLIC "-//W3C//DTD SVG 1.1//EN"
 "http://www.w3.org/Graphics/SVG/1.1/DTD/svg11.dtd">
<!-- Generated by graphviz version 2.43.0 (0)
 -->
<!-- Title: Volcano::Volcano Pages: 1 -->
<svg width="607pt" height="218pt"
 viewBox="0.00 0.00 607.00 218.00" xmlns="http://www.w3.org/2000/svg" xmlns:xlink="http://www.w3.org/1999/xlink">
<g id="graph0" class="graph" transform="scale(1 1) rotate(0) translate(4 214)">
<title>Volcano::Volcano</title>
<!-- Node1 -->
<g id="node1" class="node">
<title>Node1</title>
<g id="a_node1"><a xlink:title="Konstruktor parametryczny klasy Volcano. Powstaje ostroslup jak z konstruktora parametrycznego,...">
<polygon fill="#bfbfbf" stroke="black" points="0,-95.5 0,-114.5 99,-114.5 99,-95.5 0,-95.5"/>
<text text-anchor="middle" x="49.5" y="-102.5" font-family="Helvetica,sans-Serif" font-size="10.00">Volcano::Volcano</text>
</a>
</g>
</g>
<!-- Node2 -->
<g id="node2" class="node">
<title>Node2</title>
<g id="a_node2"><a xlink:href="class_prism.html#a07f15c416c9f9c54390bb8737b441a35" target="_top" xlink:title="Metoda skalujaca o wektor scale bedacy czlonkiem klasy block">
<polygon fill="none" stroke="black" points="157.5,-190.5 157.5,-209.5 251.5,-209.5 251.5,-190.5 157.5,-190.5"/>
<text text-anchor="middle" x="204.5" y="-197.5" font-family="Helvetica,sans-Serif" font-size="10.00">Prism::scale_pri</text>
</a>
</g>
</g>
<!-- Node1&#45;&gt;Node2 -->
<g id="edge1" class="edge">
<title>Node1&#45;&gt;Node2</title>
<path fill="none" stroke="midnightblue" d="M58.56,-114.72C72.47,-130.89 102.65,-163.26 135,-181 139.18,-183.29 143.65,-185.32 148.24,-187.12"/>
<polygon fill="midnightblue" stroke="midnightblue" points="147.16,-190.45 157.75,-190.49 149.5,-183.85 147.16,-190.45"/>
</g>
<!-- Node5 -->
<g id="node5" class="node">
<title>Node5</title>
<g id="a_node5"><a xlink:href="class_block.html#a640a910076d8b10533a9a80d740f8f03" target="_top" xlink:title="Metoda zapisujaca do klasy nazwe pliku z finalna (robocza) bryla">
<polygon fill="none" stroke="black" points="142.5,-152.5 142.5,-171.5 266.5,-171.5 266.5,-152.5 142.5,-152.5"/>
<text text-anchor="middle" x="204.5" y="-159.5" font-family="Helvetica,sans-Serif" font-size="10.00">Block::set_final_name</text>
</a>
</g>
</g>
<!-- Node1&#45;&gt;Node5 -->
<g id="edge4" class="edge">
<title>Node1&#45;&gt;Node5</title>
<path fill="none" stroke="midnightblue" d="M69.62,-114.61C86.53,-122.86 112,-134.69 135,-143 141.47,-145.34 148.38,-147.56 155.22,-149.6"/>
<polygon fill="midnightblue" stroke="midnightblue" points="154.55,-153.05 165.13,-152.46 156.49,-146.33 154.55,-153.05"/>
</g>
<!-- Node6 -->
<g id="node6" class="node">
<title>Node6</title>
<g id="a_node6"><a xlink:href="class_block.html#acf20b290f1543e580ff1f2c6d98ff4c4" target="_top" xlink:title="Metoda zapisujaca do klasy nazwe pliku z wzorcowa bryla">
<polygon fill="none" stroke="black" points="135,-114.5 135,-133.5 274,-133.5 274,-114.5 135,-114.5"/>
<text text-anchor="middle" x="204.5" y="-121.5" font-family="Helvetica,sans-Serif" font-size="10.00">Block::set_sample_name</text>
</a>
</g>
</g>
<!-- Node1&#45;&gt;Node6 -->
<g id="edge5" class="edge">
<title>Node1&#45;&gt;Node6</title>
<path fill="none" stroke="midnightblue" d="M99.33,-111.06C107.44,-112.07 116.03,-113.14 124.66,-114.21"/>
<polygon fill="midnightblue" stroke="midnightblue" points="124.42,-117.71 134.78,-115.47 125.28,-110.76 124.42,-117.71"/>
</g>
<!-- Node7 -->
<g id="node7" class="node">
<title>Node7</title>
<g id="a_node7"><a xlink:href="class_block.html#adb6acd13e2ab79cf7e4733ca2d6ae166" target="_top" xlink:title="Metoda zapisujaca do klasy wektor reprezentujacy skale">
<polygon fill="none" stroke="black" points="157,-76.5 157,-95.5 252,-95.5 252,-76.5 157,-76.5"/>
<text text-anchor="middle" x="204.5" y="-83.5" font-family="Helvetica,sans-Serif" font-size="10.00">Block::set_scale</text>
</a>
</g>
</g>
<!-- Node1&#45;&gt;Node7 -->
<g id="edge6" class="edge">
<title>Node1&#45;&gt;Node7</title>
<path fill="none" stroke="midnightblue" d="M99.33,-98.94C114.47,-97.06 131.28,-94.97 146.89,-93.03"/>
<polygon fill="midnightblue" stroke="midnightblue" points="147.46,-96.49 156.96,-91.78 146.6,-89.54 147.46,-96.49"/>
</g>
<!-- Node8 -->
<g id="node8" class="node">
<title>Node8</title>
<g id="a_node8"><a xlink:href="class_volcano.html#a6da2e3f5ecf61268b3bcf467d9f1267e" target="_top" xlink:title="Metoda zwracajaca punkty specjalne Volcano :">
<polygon fill="none" stroke="black" points="310,-19.5 310,-38.5 441,-38.5 441,-19.5 310,-19.5"/>
<text text-anchor="middle" x="375.5" y="-26.5" font-family="Helvetica,sans-Serif" font-size="10.00">Volcano::special_points</text>
</a>
</g>
</g>
<!-- Node1&#45;&gt;Node8 -->
<g id="edge7" class="edge">
<title>Node1&#45;&gt;Node8</title>
<path fill="none" stroke="midnightblue" d="M68.1,-95.42C84.84,-86.72 110.95,-74.17 135,-67 189.05,-50.87 252.12,-41.22 299.96,-35.68"/>
<polygon fill="midnightblue" stroke="midnightblue" points="300.39,-39.15 309.93,-34.56 299.61,-32.2 300.39,-39.15"/>
</g>
<!-- Node10 -->
<g id="node10" class="node">
<title>Node10</title>
<g id="a_node10"><a xlink:href="class_volcano.html#a10c03cb4a3c883fa3d67d82f395042cc" target="_top" xlink:title="Konstruktor bezparametryczny klasy Volcano. Dolna podstawa jest identyczna jak w bezparametrycznym Pr...">
<polygon fill="none" stroke="black" points="155,-0.5 155,-19.5 254,-19.5 254,-0.5 155,-0.5"/>
<text text-anchor="middle" x="204.5" y="-7.5" font-family="Helvetica,sans-Serif" font-size="10.00">Volcano::Volcano</text>
</a>
</g>
</g>
<!-- Node1&#45;&gt;Node10 -->
<g id="edge9" class="edge">
<title>Node1&#45;&gt;Node10</title>
<path fill="none" stroke="midnightblue" d="M59.52,-95.45C74.12,-80.5 104.37,-51.45 135,-34 142.48,-29.74 150.84,-26.05 159.08,-22.92"/>
<polygon fill="midnightblue" stroke="midnightblue" points="160.4,-26.16 168.64,-19.51 158.05,-19.57 160.4,-26.16"/>
</g>
<!-- Node3 -->
<g id="node3" class="node">
<title>Node3</title>
<g id="a_node3"><a xlink:href="class_prism.html#afed2c26932d5cb152fd620d2acbfbc3e" target="_top" xlink:title="Metoda przesuwajaca graniastoslup do srodka ukladu wspolrzednych (tak, ze srodek graniastoslupa pokry...">
<polygon fill="none" stroke="black" points="310,-190.5 310,-209.5 441,-209.5 441,-190.5 310,-190.5"/>
<text text-anchor="middle" x="375.5" y="-197.5" font-family="Helvetica,sans-Serif" font-size="10.00">Prism::translation_to_O</text>
</a>
</g>
</g>
<!-- Node2&#45;&gt;Node3 -->
<g id="edge2" class="edge">
<title>Node2&#45;&gt;Node3</title>
<path fill="none" stroke="midnightblue" d="M251.68,-200C266.49,-200 283.29,-200 299.61,-200"/>
<polygon fill="midnightblue" stroke="midnightblue" points="299.69,-203.5 309.69,-200 299.69,-196.5 299.69,-203.5"/>
</g>
<!-- Node4 -->
<g id="node4" class="node">
<title>Node4</title>
<g id="a_node4"><a xlink:href="class_prism.html#ade146d341c0468030f8c1258b7fe1041" target="_top" xlink:title="Metoda przesuwajaca graniastoslup o zadany wektor w 3D">
<polygon fill="none" stroke="black" points="486.5,-190.5 486.5,-209.5 589.5,-209.5 589.5,-190.5 486.5,-190.5"/>
<text text-anchor="middle" x="538" y="-197.5" font-family="Helvetica,sans-Serif" font-size="10.00">Prism::translation</text>
</a>
</g>
</g>
<!-- Node3&#45;&gt;Node4 -->
<g id="edge3" class="edge">
<title>Node3&#45;&gt;Node4</title>
<path fill="none" stroke="midnightblue" d="M441.32,-200C452.78,-200 464.67,-200 476.02,-200"/>
<polygon fill="midnightblue" stroke="midnightblue" points="476.25,-203.5 486.25,-200 476.25,-196.5 476.25,-203.5"/>
</g>
<!-- Node9 -->
<g id="node9" class="node">
<title>Node9</title>
<g id="a_node9"><a xlink:href="class_volcano.html#ad4d02f553b43cb787cf2370750e0c525" target="_top" xlink:title="Metoda zwracajaca punkt centralny Volcano">
<polygon fill="none" stroke="black" points="477,-19.5 477,-38.5 599,-38.5 599,-19.5 477,-19.5"/>
<text text-anchor="middle" x="538" y="-26.5" font-family="Helvetica,sans-Serif" font-size="10.00">Volcano::centre_point</text>
</a>
</g>
</g>
<!-- Node8&#45;&gt;Node9 -->
<g id="edge8" class="edge">
<title>Node8&#45;&gt;Node9</title>
<path fill="none" stroke="midnightblue" d="M441.32,-29C449.67,-29 458.25,-29 466.68,-29"/>
<polygon fill="midnightblue" stroke="midnightblue" points="466.87,-32.5 476.87,-29 466.87,-25.5 466.87,-32.5"/>
</g>
<!-- Node10&#45;&gt;Node8 -->
<g id="edge10" class="edge">
<title>Node10&#45;&gt;Node8</title>
<path fill="none" stroke="midnightblue" d="M254.38,-15.5C268.62,-17.1 284.5,-18.88 299.94,-20.62"/>
<polygon fill="midnightblue" stroke="midnightblue" points="299.67,-24.11 309.99,-21.75 300.45,-17.15 299.67,-24.11"/>
</g>
</g>
</svg>
