<?xml version="1.0" encoding="UTF-8" standalone="no"?>
<!DOCTYPE svg PUBLIC "-//W3C//DTD SVG 1.1//EN"
 "http://www.w3.org/Graphics/SVG/1.1/DTD/svg11.dtd">
<!-- Generated by graphviz version 2.43.0 (0)
 -->
<!-- Title: Vector::scale_vec Pages: 1 -->
<svg width="521pt" height="332pt"
 viewBox="0.00 0.00 521.00 332.00" xmlns="http://www.w3.org/2000/svg" xmlns:xlink="http://www.w3.org/1999/xlink">
<g id="graph0" class="graph" transform="scale(1 1) rotate(0) translate(4 328)">
<title>Vector::scale_vec</title>
<!-- Node1 -->
<g id="node1" class="node">
<title>Node1</title>
<g id="a_node1"><a xlink:title="Skaluje wektor o inny wektors &#160;&#160;Argumenty:">
<polygon fill="#bfbfbf" stroke="black" points="412,-152.5 412,-171.5 513,-171.5 513,-152.5 412,-152.5"/>
<text text-anchor="middle" x="462.5" y="-159.5" font-family="Helvetica,sans-Serif" font-size="10.00">Vector::scale_vec</text>
</a>
</g>
</g>
<!-- Node2 -->
<g id="node2" class="node">
<title>Node2</title>
<g id="a_node2"><a xlink:href="class_cuboid.html#a7ea89af123502b41ef349f4aedb93b5e" target="_top" xlink:title="Metoda skalujaca o wektor scale bedacy czlonkiem klasy block">
<polygon fill="none" stroke="black" points="272,-209.5 272,-228.5 376,-228.5 376,-209.5 272,-209.5"/>
<text text-anchor="middle" x="324" y="-216.5" font-family="Helvetica,sans-Serif" font-size="10.00">Cuboid::scale_cub</text>
</a>
</g>
</g>
<!-- Node1&#45;&gt;Node2 -->
<g id="edge1" class="edge">
<title>Node1&#45;&gt;Node2</title>
<path fill="none" stroke="midnightblue" d="M429.22,-175.48C404.22,-185.92 370.19,-200.13 347.92,-209.43"/>
<polygon fill="midnightblue" stroke="midnightblue" points="430.77,-178.62 438.65,-171.54 428.08,-172.16 430.77,-178.62"/>
</g>
<!-- Node9 -->
<g id="node9" class="node">
<title>Node9</title>
<g id="a_node9"><a xlink:href="class_prism.html#a07f15c416c9f9c54390bb8737b441a35" target="_top" xlink:title="Metoda skalujaca o wektor scale bedacy czlonkiem klasy block">
<polygon fill="none" stroke="black" points="277,-114.5 277,-133.5 371,-133.5 371,-114.5 277,-114.5"/>
<text text-anchor="middle" x="324" y="-121.5" font-family="Helvetica,sans-Serif" font-size="10.00">Prism::scale_pri</text>
</a>
</g>
</g>
<!-- Node1&#45;&gt;Node9 -->
<g id="edge8" class="edge">
<title>Node1&#45;&gt;Node9</title>
<path fill="none" stroke="midnightblue" d="M417.25,-149.68C398.5,-144.46 376.97,-138.47 359.43,-133.59"/>
<polygon fill="midnightblue" stroke="midnightblue" points="416.48,-153.1 427.06,-152.41 418.36,-146.36 416.48,-153.1"/>
</g>
<!-- Node3 -->
<g id="node3" class="node">
<title>Node3</title>
<g id="a_node3"><a xlink:href="class_cuboid.html#acb4ad8abd1f7f810d2512ff9ce1f9717" target="_top" xlink:title="Konstruktor bezparametryczny klasy Cuboid. Powstaly prostopadloscian ma dwa prostokaty &quot;tworzace&quot;: p1...">
<polygon fill="none" stroke="black" points="131.5,-304.5 131.5,-323.5 221.5,-323.5 221.5,-304.5 131.5,-304.5"/>
<text text-anchor="middle" x="176.5" y="-311.5" font-family="Helvetica,sans-Serif" font-size="10.00">Cuboid::Cuboid</text>
</a>
</g>
</g>
<!-- Node2&#45;&gt;Node3 -->
<g id="edge2" class="edge">
<title>Node2&#45;&gt;Node3</title>
<path fill="none" stroke="midnightblue" d="M307.46,-236.14C291.15,-253.21 264.03,-279.1 236,-295 229.41,-298.74 221.97,-301.87 214.67,-304.43"/>
<polygon fill="midnightblue" stroke="midnightblue" points="310.28,-238.25 314.56,-228.55 305.17,-233.47 310.28,-238.25"/>
</g>
<!-- Node4 -->
<g id="node4" class="node">
<title>Node4</title>
<g id="a_node4"><a xlink:href="class_drone.html#ab692baa4be5c43b72990ce1b01bdc805" target="_top" xlink:title="Konstruktor bezparametryczny klasy Drone. Powstaly dron jest skonstruowany z bezparametrycznych prost...">
<polygon fill="none" stroke="black" points="136,-152.5 136,-171.5 217,-171.5 217,-152.5 136,-152.5"/>
<text text-anchor="middle" x="176.5" y="-159.5" font-family="Helvetica,sans-Serif" font-size="10.00">Drone::Drone</text>
</a>
</g>
</g>
<!-- Node2&#45;&gt;Node4 -->
<g id="edge3" class="edge">
<title>Node2&#45;&gt;Node4</title>
<path fill="none" stroke="midnightblue" d="M293.26,-205.15C276.59,-197.6 255.32,-188.34 236,-181 227.31,-177.7 217.78,-174.45 208.97,-171.6"/>
<polygon fill="midnightblue" stroke="midnightblue" points="291.94,-208.4 302.49,-209.36 294.85,-202.03 291.94,-208.4"/>
</g>
<!-- Node5 -->
<g id="node5" class="node">
<title>Node5</title>
<g id="a_node5"><a xlink:href="class_pyramid.html#a188d1f3cca17418b95ae771dedc99f4a" target="_top" xlink:title="Konstruktor parametryczny klasy Pyramid. Powstaly ostroslupa ma jeden prostokat &quot;tworzacy&quot;: p1 = [0][...">
<polygon fill="none" stroke="black" points="124.5,-266.5 124.5,-285.5 228.5,-285.5 228.5,-266.5 124.5,-266.5"/>
<text text-anchor="middle" x="176.5" y="-273.5" font-family="Helvetica,sans-Serif" font-size="10.00">Pyramid::Pyramid</text>
</a>
</g>
</g>
<!-- Node2&#45;&gt;Node5 -->
<g id="edge4" class="edge">
<title>Node2&#45;&gt;Node5</title>
<path fill="none" stroke="midnightblue" d="M293.26,-232.85C276.59,-240.4 255.32,-249.66 236,-257 227.31,-260.3 217.78,-263.55 208.97,-266.4"/>
<polygon fill="midnightblue" stroke="midnightblue" points="294.85,-235.97 302.49,-228.64 291.94,-229.6 294.85,-235.97"/>
</g>
<!-- Node6 -->
<g id="node6" class="node">
<title>Node6</title>
<g id="a_node6"><a xlink:href="class_drone.html#a77142062fb8a8af87df42b5c2e7e44e0" target="_top" xlink:title="Metoda skalujaca wszystkie elementy drona przez skale kazdego elementu">
<polygon fill="none" stroke="black" points="127.5,-190.5 127.5,-209.5 225.5,-209.5 225.5,-190.5 127.5,-190.5"/>
<text text-anchor="middle" x="176.5" y="-197.5" font-family="Helvetica,sans-Serif" font-size="10.00">Drone::scale_dro</text>
</a>
</g>
</g>
<!-- Node2&#45;&gt;Node6 -->
<g id="edge5" class="edge">
<title>Node2&#45;&gt;Node6</title>
<path fill="none" stroke="midnightblue" d="M261.77,-211C249.79,-209.44 237.39,-207.82 225.9,-206.32"/>
<polygon fill="midnightblue" stroke="midnightblue" points="261.33,-214.48 271.7,-212.3 262.24,-207.54 261.33,-214.48"/>
</g>
<!-- Node8 -->
<g id="node8" class="node">
<title>Node8</title>
<g id="a_node8"><a xlink:href="class_triangular.html#ad377db3bde29ea96fdc04fd3b645c07a" target="_top" xlink:title="Konstruktor parametryczny klasy Triangular. Powstaje ostroslup jak z konstruktora parametrycznego,...">
<polygon fill="none" stroke="black" points="117,-228.5 117,-247.5 236,-247.5 236,-228.5 117,-228.5"/>
<text text-anchor="middle" x="176.5" y="-235.5" font-family="Helvetica,sans-Serif" font-size="10.00">Triangular::Triangular</text>
</a>
</g>
</g>
<!-- Node2&#45;&gt;Node8 -->
<g id="edge7" class="edge">
<title>Node2&#45;&gt;Node8</title>
<path fill="none" stroke="midnightblue" d="M261.53,-227.03C253.08,-228.13 244.43,-229.26 236.03,-230.36"/>
<polygon fill="midnightblue" stroke="midnightblue" points="262.24,-230.46 271.7,-225.7 261.33,-223.52 262.24,-230.46"/>
</g>
<!-- Node7 -->
<g id="node7" class="node">
<title>Node7</title>
<g id="a_node7"><a xlink:href="class_scene.html#adca9214dccab3d77eed9d8af7db67f94" target="_top" xlink:title="Konstruktor paramereyczny klasy Scene.">
<polygon fill="none" stroke="black" points="0,-190.5 0,-209.5 81,-209.5 81,-190.5 0,-190.5"/>
<text text-anchor="middle" x="40.5" y="-197.5" font-family="Helvetica,sans-Serif" font-size="10.00">Scene::Scene</text>
</a>
</g>
</g>
<!-- Node6&#45;&gt;Node7 -->
<g id="edge6" class="edge">
<title>Node6&#45;&gt;Node7</title>
<path fill="none" stroke="midnightblue" d="M117.02,-200C104.85,-200 92.3,-200 81,-200"/>
<polygon fill="midnightblue" stroke="midnightblue" points="117.12,-203.5 127.12,-200 117.12,-196.5 117.12,-203.5"/>
</g>
<!-- Node9&#45;&gt;Node4 -->
<g id="edge10" class="edge">
<title>Node9&#45;&gt;Node4</title>
<path fill="none" stroke="midnightblue" d="M276.35,-136.18C256.15,-141.46 232.85,-147.54 213.95,-152.48"/>
<polygon fill="midnightblue" stroke="midnightblue" points="277.49,-139.5 286.28,-133.59 275.72,-132.73 277.49,-139.5"/>
</g>
<!-- Node9&#45;&gt;Node6 -->
<g id="edge12" class="edge">
<title>Node9&#45;&gt;Node6</title>
<path fill="none" stroke="midnightblue" d="M302.54,-139.66C285.47,-152.16 260.13,-169.43 236,-181 228.49,-184.6 220.12,-187.77 212.12,-190.44"/>
<polygon fill="midnightblue" stroke="midnightblue" points="304.73,-142.4 310.66,-133.62 300.55,-136.78 304.73,-142.4"/>
</g>
<!-- Node10 -->
<g id="node10" class="node">
<title>Node10</title>
<g id="a_node10"><a xlink:href="class_circus.html#a5aab1830e67f62f80525d04de23db7da" target="_top" xlink:title="Konstruktor parametryczny klasy Circus. Powstaje ostroslup jak z konstruktora parametrycznego,...">
<polygon fill="none" stroke="black" points="135,-0.5 135,-19.5 218,-19.5 218,-0.5 135,-0.5"/>
<text text-anchor="middle" x="176.5" y="-7.5" font-family="Helvetica,sans-Serif" font-size="10.00">Circus::Circus</text>
</a>
</g>
</g>
<!-- Node9&#45;&gt;Node10 -->
<g id="edge9" class="edge">
<title>Node9&#45;&gt;Node10</title>
<path fill="none" stroke="midnightblue" d="M310.93,-105.95C295.8,-84.66 267.95,-49.55 236,-29 230.07,-25.19 223.31,-22.08 216.55,-19.56"/>
<polygon fill="midnightblue" stroke="midnightblue" points="308.21,-108.18 316.78,-114.41 313.97,-104.19 308.21,-108.18"/>
</g>
<!-- Node11 -->
<g id="node11" class="node">
<title>Node11</title>
<g id="a_node11"><a xlink:href="class_prism.html#aa84930a585c7817f74a14d95ea74cb5a" target="_top" xlink:title="Konstruktor bezparametryczny klasy Prism. Powstaly granistoslup ma podstawy &quot;tworzace&quot;:">
<polygon fill="none" stroke="black" points="137.5,-114.5 137.5,-133.5 215.5,-133.5 215.5,-114.5 137.5,-114.5"/>
<text text-anchor="middle" x="176.5" y="-121.5" font-family="Helvetica,sans-Serif" font-size="10.00">Prism::Prism</text>
</a>
</g>
</g>
<!-- Node9&#45;&gt;Node11 -->
<g id="edge11" class="edge">
<title>Node9&#45;&gt;Node11</title>
<path fill="none" stroke="midnightblue" d="M266.6,-124C249.64,-124 231.43,-124 215.92,-124"/>
<polygon fill="midnightblue" stroke="midnightblue" points="266.96,-127.5 276.96,-124 266.96,-120.5 266.96,-127.5"/>
</g>
<!-- Node12 -->
<g id="node12" class="node">
<title>Node12</title>
<g id="a_node12"><a xlink:href="class_tent.html#a6831febfd74474f567f4419091883512" target="_top" xlink:title="Konstruktor parametryczny klasy Tent. Powstaje ostroslup jak z konstruktora parametrycznego,...">
<polygon fill="none" stroke="black" points="145,-76.5 145,-95.5 208,-95.5 208,-76.5 145,-76.5"/>
<text text-anchor="middle" x="176.5" y="-83.5" font-family="Helvetica,sans-Serif" font-size="10.00">Tent::Tent</text>
</a>
</g>
</g>
<!-- Node9&#45;&gt;Node12 -->
<g id="edge13" class="edge">
<title>Node9&#45;&gt;Node12</title>
<path fill="none" stroke="midnightblue" d="M276.35,-111.82C254.09,-106 228.06,-99.2 208.3,-94.04"/>
<polygon fill="midnightblue" stroke="midnightblue" points="275.72,-115.27 286.28,-114.41 277.49,-108.5 275.72,-115.27"/>
</g>
<!-- Node13 -->
<g id="node13" class="node">
<title>Node13</title>
<g id="a_node13"><a xlink:href="class_volcano.html#a1324b87f13755c4b12b54485352c5b8d" target="_top" xlink:title="Konstruktor parametryczny klasy Volcano. Powstaje ostroslup jak z konstruktora parametrycznego,...">
<polygon fill="none" stroke="black" points="127,-38.5 127,-57.5 226,-57.5 226,-38.5 127,-38.5"/>
<text text-anchor="middle" x="176.5" y="-45.5" font-family="Helvetica,sans-Serif" font-size="10.00">Volcano::Volcano</text>
</a>
</g>
</g>
<!-- Node9&#45;&gt;Node13 -->
<g id="edge14" class="edge">
<title>Node9&#45;&gt;Node13</title>
<path fill="none" stroke="midnightblue" d="M302.54,-108.34C285.47,-95.84 260.13,-78.57 236,-67 228.49,-63.4 220.12,-60.23 212.12,-57.56"/>
<polygon fill="midnightblue" stroke="midnightblue" points="300.55,-111.22 310.66,-114.38 304.73,-105.6 300.55,-111.22"/>
</g>
</g>
</svg>
