<?xml version="1.0" encoding="UTF-8" standalone="no"?>
<!DOCTYPE svg PUBLIC "-//W3C//DTD SVG 1.1//EN"
 "http://www.w3.org/Graphics/SVG/1.1/DTD/svg11.dtd">
<!-- Generated by graphviz version 2.43.0 (0)
 -->
<!-- Title: Triangular::special_points Pages: 1 -->
<svg width="424pt" height="66pt"
 viewBox="0.00 0.00 424.00 66.00" xmlns="http://www.w3.org/2000/svg" xmlns:xlink="http://www.w3.org/1999/xlink">
<g id="graph0" class="graph" transform="scale(1 1) rotate(0) translate(4 62)">
<title>Triangular::special_points</title>
<!-- Node1 -->
<g id="node1" class="node">
<title>Node1</title>
<g id="a_node1"><a xlink:title="Metoda zwracajaca punkty specjalne Triangular : cuts (czyli te ktore sa przecieciami przekatnych dwoc...">
<polygon fill="#bfbfbf" stroke="black" points="311,-14 311,-44 416,-44 416,-14 311,-14"/>
<text text-anchor="start" x="319" y="-32" font-family="Helvetica,sans-Serif" font-size="10.00">Triangular::special</text>
<text text-anchor="middle" x="363.5" y="-21" font-family="Helvetica,sans-Serif" font-size="10.00">_points</text>
</a>
</g>
</g>
<!-- Node2 -->
<g id="node2" class="node">
<title>Node2</title>
<g id="a_node2"><a xlink:href="class_triangular.html#aa23c433e870c03fbb5caf31ab474a3ec" target="_top" xlink:title="Przeciazenie operatora przypisania, umozliwia stosowanie metod typu Cuboid na obiekcie typu Triangula...">
<polygon fill="none" stroke="black" points="155,-38.5 155,-57.5 275,-57.5 275,-38.5 155,-38.5"/>
<text text-anchor="middle" x="215" y="-45.5" font-family="Helvetica,sans-Serif" font-size="10.00">Triangular::operator=</text>
</a>
</g>
</g>
<!-- Node1&#45;&gt;Node2 -->
<g id="edge1" class="edge">
<title>Node1&#45;&gt;Node2</title>
<path fill="none" stroke="midnightblue" d="M300.68,-37.02C292.24,-38.11 283.58,-39.23 275.19,-40.32"/>
<polygon fill="midnightblue" stroke="midnightblue" points="301.38,-40.46 310.85,-35.7 300.48,-33.51 301.38,-40.46"/>
</g>
<!-- Node3 -->
<g id="node3" class="node">
<title>Node3</title>
<g id="a_node3"><a xlink:href="class_triangular.html#a919ce19be6c96fbe4c92239ccbbb579b" target="_top" xlink:title="Konstruktor bezparametryczny klasy Triangular. Powstaly graniastoslup ma jeden prostokat &quot;tworzacy&quot;: ...">
<polygon fill="none" stroke="black" points="155.5,-0.5 155.5,-19.5 274.5,-19.5 274.5,-0.5 155.5,-0.5"/>
<text text-anchor="middle" x="215" y="-7.5" font-family="Helvetica,sans-Serif" font-size="10.00">Triangular::Triangular</text>
</a>
</g>
</g>
<!-- Node1&#45;&gt;Node3 -->
<g id="edge2" class="edge">
<title>Node1&#45;&gt;Node3</title>
<path fill="none" stroke="midnightblue" d="M300.82,-21C292.16,-19.88 283.28,-18.73 274.68,-17.61"/>
<polygon fill="midnightblue" stroke="midnightblue" points="300.48,-24.49 310.85,-22.3 301.38,-17.54 300.48,-24.49"/>
</g>
<!-- Node4 -->
<g id="node4" class="node">
<title>Node4</title>
<g id="a_node4"><a xlink:href="class_triangular.html#ad377db3bde29ea96fdc04fd3b645c07a" target="_top" xlink:title="Konstruktor parametryczny klasy Triangular. Powstaje ostroslup jak z konstruktora parametrycznego,...">
<polygon fill="none" stroke="black" points="0,-0.5 0,-19.5 119,-19.5 119,-0.5 0,-0.5"/>
<text text-anchor="middle" x="59.5" y="-7.5" font-family="Helvetica,sans-Serif" font-size="10.00">Triangular::Triangular</text>
</a>
</g>
</g>
<!-- Node3&#45;&gt;Node4 -->
<g id="edge3" class="edge">
<title>Node3&#45;&gt;Node4</title>
<path fill="none" stroke="midnightblue" d="M145.06,-10C136.44,-10 127.69,-10 119.25,-10"/>
<polygon fill="midnightblue" stroke="midnightblue" points="145.09,-13.5 155.09,-10 145.09,-6.5 145.09,-13.5"/>
</g>
</g>
</svg>
