<?xml version="1.0" encoding="UTF-8" standalone="no"?>
<!DOCTYPE svg PUBLIC "-//W3C//DTD SVG 1.1//EN"
 "http://www.w3.org/Graphics/SVG/1.1/DTD/svg11.dtd">
<!-- Generated by graphviz version 2.43.0 (0)
 -->
<!-- Title: Scene::switch_create_filenames Pages: 1 -->
<svg width="724pt" height="39pt"
 viewBox="0.00 0.00 724.00 39.00" xmlns="http://www.w3.org/2000/svg" xmlns:xlink="http://www.w3.org/1999/xlink">
<g id="graph0" class="graph" transform="scale(1 1) rotate(0) translate(4 35)">
<title>Scene::switch_create_filenames</title>
<!-- Node1 -->
<g id="node1" class="node">
<title>Node1</title>
<g id="a_node1"><a xlink:title="Metoda uzywana w switchu metody create_filenames. Sluzy do tworzenia pliku o odpowiedniej nazwie.">
<polygon fill="#bfbfbf" stroke="black" points="597,-0.5 597,-30.5 716,-30.5 716,-0.5 597,-0.5"/>
<text text-anchor="start" x="605" y="-18.5" font-family="Helvetica,sans-Serif" font-size="10.00">Scene::switch_create</text>
<text text-anchor="middle" x="656.5" y="-7.5" font-family="Helvetica,sans-Serif" font-size="10.00">_filenames</text>
</a>
</g>
</g>
<!-- Node2 -->
<g id="node2" class="node">
<title>Node2</title>
<g id="a_node2"><a xlink:href="class_scene.html#a0e6e9771175c23c6ed78a493ed6d8e63" target="_top" xlink:title="Metoda tworzaca nazwy programow, uzywana przy dodawaniu obiektow sceny.">
<polygon fill="none" stroke="black" points="425,-6 425,-25 561,-25 561,-6 425,-6"/>
<text text-anchor="middle" x="493" y="-13" font-family="Helvetica,sans-Serif" font-size="10.00">Scene::create_filenames</text>
</a>
</g>
</g>
<!-- Node1&#45;&gt;Node2 -->
<g id="edge1" class="edge">
<title>Node1&#45;&gt;Node2</title>
<path fill="none" stroke="midnightblue" d="M586.59,-15.5C578.18,-15.5 569.59,-15.5 561.2,-15.5"/>
<polygon fill="midnightblue" stroke="midnightblue" points="586.74,-19 596.74,-15.5 586.74,-12 586.74,-19"/>
</g>
<!-- Node3 -->
<g id="node3" class="node">
<title>Node3</title>
<g id="a_node3"><a xlink:href="class_scene.html#a8b87eec51d554a3ac01767a613871661" target="_top" xlink:title="Metoda dodajaca object zadany przez uzytkownika.">
<polygon fill="none" stroke="black" points="284,-6 284,-25 389,-25 389,-6 284,-6"/>
<text text-anchor="middle" x="336.5" y="-13" font-family="Helvetica,sans-Serif" font-size="10.00">Scene::add_object</text>
</a>
</g>
</g>
<!-- Node2&#45;&gt;Node3 -->
<g id="edge2" class="edge">
<title>Node2&#45;&gt;Node3</title>
<path fill="none" stroke="midnightblue" d="M414.62,-15.5C406.02,-15.5 397.42,-15.5 389.26,-15.5"/>
<polygon fill="midnightblue" stroke="midnightblue" points="414.68,-19 424.68,-15.5 414.68,-12 414.68,-19"/>
</g>
<!-- Node4 -->
<g id="node4" class="node">
<title>Node4</title>
<g id="a_node4"><a xlink:href="class_menu.html#acd338552222b744cd030e17776cb5d9b" target="_top" xlink:title="Obsluguje wybor menu.">
<polygon fill="none" stroke="black" points="134,-6 134,-25 248,-25 248,-6 134,-6"/>
<text text-anchor="middle" x="191" y="-13" font-family="Helvetica,sans-Serif" font-size="10.00">Menu::switch_menu</text>
</a>
</g>
</g>
<!-- Node3&#45;&gt;Node4 -->
<g id="edge3" class="edge">
<title>Node3&#45;&gt;Node4</title>
<path fill="none" stroke="midnightblue" d="M273.51,-15.5C265.06,-15.5 256.43,-15.5 248.1,-15.5"/>
<polygon fill="midnightblue" stroke="midnightblue" points="273.69,-19 283.69,-15.5 273.69,-12 273.69,-19"/>
</g>
<!-- Node5 -->
<g id="node5" class="node">
<title>Node5</title>
<g id="a_node5"><a xlink:href="class_menu.html#af7e6a49bd56499facef9cc98561ea169" target="_top" xlink:title="Inicjuje i obsluguje menu.">
<polygon fill="none" stroke="black" points="0,-6 0,-25 98,-25 98,-6 0,-6"/>
<text text-anchor="middle" x="49" y="-13" font-family="Helvetica,sans-Serif" font-size="10.00">Menu::init_menu</text>
</a>
</g>
</g>
<!-- Node4&#45;&gt;Node5 -->
<g id="edge4" class="edge">
<title>Node4&#45;&gt;Node5</title>
<path fill="none" stroke="midnightblue" d="M123.75,-15.5C115.08,-15.5 106.33,-15.5 98.04,-15.5"/>
<polygon fill="midnightblue" stroke="midnightblue" points="123.86,-19 133.86,-15.5 123.86,-12 123.86,-19"/>
</g>
</g>
</svg>
