<?xml version="1.0" encoding="UTF-8" standalone="no"?>
<!DOCTYPE svg PUBLIC "-//W3C//DTD SVG 1.1//EN"
 "http://www.w3.org/Graphics/SVG/1.1/DTD/svg11.dtd">
<!-- Generated by graphviz version 2.43.0 (0)
 -->
<!-- Title: Cuboid::translation_to_O Pages: 1 -->
<svg width="1152pt" height="451pt"
 viewBox="0.00 0.00 1152.00 450.50" xmlns="http://www.w3.org/2000/svg" xmlns:xlink="http://www.w3.org/1999/xlink">
<g id="graph0" class="graph" transform="scale(1 1) rotate(0) translate(4 446.5)">
<title>Cuboid::translation_to_O</title>
<!-- Node1 -->
<g id="node1" class="node">
<title>Node1</title>
<g id="a_node1"><a xlink:title="Metoda przesuwajaca prostopadloscian do (0,0,0)">
<polygon fill="#bfbfbf" stroke="black" points="1007,-114.5 1007,-133.5 1144,-133.5 1144,-114.5 1007,-114.5"/>
<text text-anchor="middle" x="1075.5" y="-121.5" font-family="Helvetica,sans-Serif" font-size="10.00">Cuboid::translation_to_O</text>
</a>
</g>
</g>
<!-- Node2 -->
<g id="node2" class="node">
<title>Node2</title>
<g id="a_node2"><a xlink:href="class_cuboid.html#a6c697c2d9b36a14c43c7328876d5a1f0" target="_top" xlink:title="Metoda obracajaca prostopadloscian o zadany kat w 3D wokol srodka figury">
<polygon fill="none" stroke="black" points="815,-180.5 815,-199.5 971,-199.5 971,-180.5 815,-180.5"/>
<text text-anchor="middle" x="893" y="-187.5" font-family="Helvetica,sans-Serif" font-size="10.00">Cuboid::rotation_around_cen</text>
</a>
</g>
</g>
<!-- Node1&#45;&gt;Node2 -->
<g id="edge1" class="edge">
<title>Node1&#45;&gt;Node2</title>
<path fill="none" stroke="midnightblue" d="M1038.42,-137.19C1003.4,-150 951.1,-169.12 919.99,-180.5"/>
<polygon fill="midnightblue" stroke="midnightblue" points="1040.06,-140.32 1048.25,-133.6 1037.66,-133.74 1040.06,-140.32"/>
</g>
<!-- Node16 -->
<g id="node16" class="node">
<title>Node16</title>
<g id="a_node16"><a xlink:href="class_cuboid.html#a7ea89af123502b41ef349f4aedb93b5e" target="_top" xlink:title="Metoda skalujaca o wektor scale bedacy czlonkiem klasy block">
<polygon fill="none" stroke="black" points="841,-95.5 841,-114.5 945,-114.5 945,-95.5 841,-95.5"/>
<text text-anchor="middle" x="893" y="-102.5" font-family="Helvetica,sans-Serif" font-size="10.00">Cuboid::scale_cub</text>
</a>
</g>
</g>
<!-- Node1&#45;&gt;Node16 -->
<g id="edge19" class="edge">
<title>Node1&#45;&gt;Node16</title>
<path fill="none" stroke="midnightblue" d="M996.62,-115.8C979.21,-113.97 961.18,-112.07 945.18,-110.39"/>
<polygon fill="midnightblue" stroke="midnightblue" points="996.46,-119.3 1006.77,-116.87 997.2,-112.34 996.46,-119.3"/>
</g>
<!-- Node3 -->
<g id="node3" class="node">
<title>Node3</title>
<g id="a_node3"><a xlink:href="class_drone.html#ad42bc54902df967b94717617aca1a974" target="_top" xlink:title="Metoda obracajaca dron o zadany kat w 3D wokol srodka figury">
<polygon fill="none" stroke="black" points="627,-209.5 627,-228.5 779,-228.5 779,-209.5 627,-209.5"/>
<text text-anchor="middle" x="703" y="-216.5" font-family="Helvetica,sans-Serif" font-size="10.00">Drone::rotation_around_cen</text>
</a>
</g>
</g>
<!-- Node2&#45;&gt;Node3 -->
<g id="edge2" class="edge">
<title>Node2&#45;&gt;Node3</title>
<path fill="none" stroke="midnightblue" d="M819.85,-201.13C802.04,-203.88 783.12,-206.79 765.86,-209.46"/>
<polygon fill="midnightblue" stroke="midnightblue" points="820.83,-204.52 830.18,-199.54 819.76,-197.6 820.83,-204.52"/>
</g>
<!-- Node4 -->
<g id="node4" class="node">
<title>Node4</title>
<g id="a_node4"><a xlink:href="class_drone.html#ab692baa4be5c43b72990ce1b01bdc805" target="_top" xlink:title="Konstruktor bezparametryczny klasy Drone. Powstaly dron jest skonstruowany z bezparametrycznych prost...">
<polygon fill="none" stroke="black" points="489.5,-152.5 489.5,-171.5 570.5,-171.5 570.5,-152.5 489.5,-152.5"/>
<text text-anchor="middle" x="530" y="-159.5" font-family="Helvetica,sans-Serif" font-size="10.00">Drone::Drone</text>
</a>
</g>
</g>
<!-- Node3&#45;&gt;Node4 -->
<g id="edge3" class="edge">
<title>Node3&#45;&gt;Node4</title>
<path fill="none" stroke="midnightblue" d="M664.95,-206.08C643.41,-198.62 615.72,-189.14 591,-181 581.45,-177.85 571.02,-174.52 561.57,-171.53"/>
<polygon fill="midnightblue" stroke="midnightblue" points="664.09,-209.48 674.69,-209.45 666.39,-202.87 664.09,-209.48"/>
</g>
<!-- Node5 -->
<g id="node5" class="node">
<title>Node5</title>
<g id="a_node5"><a xlink:href="class_drone.html#af03af60a9b92e4191a7e66b5c20b52bb" target="_top" xlink:title="Metoda zamieniajaca drona na tego z pliku sample.">
<polygon fill="none" stroke="black" points="469,-286 469,-316 591,-316 591,-286 469,-286"/>
<text text-anchor="start" x="477" y="-304" font-family="Helvetica,sans-Serif" font-size="10.00">Drone::Drone_change</text>
<text text-anchor="middle" x="530" y="-293" font-family="Helvetica,sans-Serif" font-size="10.00">_to_sample</text>
</a>
</g>
</g>
<!-- Node3&#45;&gt;Node5 -->
<g id="edge4" class="edge">
<title>Node3&#45;&gt;Node5</title>
<path fill="none" stroke="midnightblue" d="M672.73,-233.04C642.01,-247.76 593.9,-270.84 562.41,-285.94"/>
<polygon fill="midnightblue" stroke="midnightblue" points="674.55,-236.05 682.05,-228.57 671.52,-229.73 674.55,-236.05"/>
</g>
<!-- Node9 -->
<g id="node9" class="node">
<title>Node9</title>
<g id="a_node9"><a xlink:href="class_drone.html#af052f6bb793d1229b99b16b800b95b82" target="_top" xlink:title="Metoda animujaca obrot drona i wyrysowujaca calosc w gnuplocie.">
<polygon fill="none" stroke="black" points="299.5,-412 299.5,-442 424.5,-442 424.5,-412 299.5,-412"/>
<text text-anchor="start" x="307.5" y="-430" font-family="Helvetica,sans-Serif" font-size="10.00">Drone::Drone_rotation</text>
<text text-anchor="middle" x="362" y="-419" font-family="Helvetica,sans-Serif" font-size="10.00">_animation</text>
</a>
</g>
</g>
<!-- Node3&#45;&gt;Node9 -->
<g id="edge13" class="edge">
<title>Node3&#45;&gt;Node9</title>
<path fill="none" stroke="midnightblue" d="M687.26,-236.63C667.33,-259.6 629.8,-299.91 591,-326 532.8,-365.14 456.96,-395.19 409.11,-411.98"/>
<polygon fill="midnightblue" stroke="midnightblue" points="690.17,-238.62 694,-228.74 684.85,-234.07 690.17,-238.62"/>
</g>
<!-- Node10 -->
<g id="node10" class="node">
<title>Node10</title>
<g id="a_node10"><a xlink:href="class_drone.html#ab7808296cec81143dbddd7516340a371" target="_top" xlink:title="Metoda robiaca &quot;oblot&quot; drona wokol punktu (z modyfikacji)">
<polygon fill="none" stroke="black" points="291,-209.5 291,-228.5 433,-228.5 433,-209.5 291,-209.5"/>
<text text-anchor="middle" x="362" y="-216.5" font-family="Helvetica,sans-Serif" font-size="10.00">Drone::Drone_roundabout</text>
</a>
</g>
</g>
<!-- Node3&#45;&gt;Node10 -->
<g id="edge14" class="edge">
<title>Node3&#45;&gt;Node10</title>
<path fill="none" stroke="midnightblue" d="M616.74,-219C560.02,-219 486.42,-219 433.11,-219"/>
<polygon fill="midnightblue" stroke="midnightblue" points="616.76,-222.5 626.76,-219 616.76,-215.5 616.76,-222.5"/>
</g>
<!-- Node12 -->
<g id="node12" class="node">
<title>Node12</title>
<g id="a_node12"><a xlink:href="class_scene.html#aa5fc0e5a94bfa0766f6e5ff10993630d" target="_top" xlink:title="Skanowanie powierzchni pod dronem, gdy dron nie moze wyladowac w danym miejscu &#160;&#160;Rysowany jest rownie...">
<polygon fill="none" stroke="black" points="476.5,-190.5 476.5,-209.5 583.5,-209.5 583.5,-190.5 476.5,-190.5"/>
<text text-anchor="middle" x="530" y="-197.5" font-family="Helvetica,sans-Serif" font-size="10.00">Scene::scan_plane</text>
</a>
</g>
</g>
<!-- Node3&#45;&gt;Node12 -->
<g id="edge15" class="edge">
<title>Node3&#45;&gt;Node12</title>
<path fill="none" stroke="midnightblue" d="M617.01,-209.56C605.62,-208.29 594.22,-207.02 583.61,-205.85"/>
<polygon fill="midnightblue" stroke="midnightblue" points="616.67,-213.04 627,-210.67 617.44,-206.08 616.67,-213.04"/>
</g>
<!-- Node6 -->
<g id="node6" class="node">
<title>Node6</title>
<g id="a_node6"><a xlink:href="class_drone.html#a7eecbd031df9009e113d355a9dcdf4e1" target="_top" xlink:title="Metoda obliczajaca i przeprowadzajaca caly ruch drona (obrot o kat i przelot z zadania 5....">
<polygon fill="none" stroke="black" points="138.5,-390 138.5,-420 250.5,-420 250.5,-390 138.5,-390"/>
<text text-anchor="start" x="146.5" y="-408" font-family="Helvetica,sans-Serif" font-size="10.00">Drone::Drone_basic</text>
<text text-anchor="middle" x="194.5" y="-397" font-family="Helvetica,sans-Serif" font-size="10.00">_motion_flight</text>
</a>
</g>
</g>
<!-- Node5&#45;&gt;Node6 -->
<g id="edge5" class="edge">
<title>Node5&#45;&gt;Node6</title>
<path fill="none" stroke="midnightblue" d="M502.88,-322.42C484.44,-336.41 458.57,-353.91 433,-364 373.26,-387.58 299.77,-397.62 250.5,-401.88"/>
<polygon fill="midnightblue" stroke="midnightblue" points="505.04,-325.17 510.8,-316.27 500.75,-319.64 505.04,-325.17"/>
</g>
<!-- Node7 -->
<g id="node7" class="node">
<title>Node7</title>
<g id="a_node7"><a xlink:href="class_drone.html#a4abbed4a4cc52e5630f07f9129b46c5c" target="_top" xlink:title="Metoda realizujaca ladowanie drona.">
<polygon fill="none" stroke="black" points="299.5,-335.5 299.5,-354.5 424.5,-354.5 424.5,-335.5 299.5,-335.5"/>
<text text-anchor="middle" x="362" y="-342.5" font-family="Helvetica,sans-Serif" font-size="10.00">Drone::Drone_descent</text>
</a>
</g>
</g>
<!-- Node5&#45;&gt;Node7 -->
<g id="edge6" class="edge">
<title>Node5&#45;&gt;Node7</title>
<path fill="none" stroke="midnightblue" d="M462.53,-318.62C440.89,-324.35 417.69,-330.5 399.14,-335.42"/>
<polygon fill="midnightblue" stroke="midnightblue" points="463.57,-321.96 472.34,-316.02 461.77,-315.2 463.57,-321.96"/>
</g>
<!-- Node8 -->
<g id="node8" class="node">
<title>Node8</title>
<g id="a_node8"><a xlink:href="class_drone.html#aec9abadf85777ab20e361d1389aab466" target="_top" xlink:title="Metoda obliczajaca i przeprowadzajaca koncowy ruch drona (obrot o kat i koncowy przelot z zadania 5....">
<polygon fill="none" stroke="black" points="134,-291 134,-321 255,-321 255,-291 134,-291"/>
<text text-anchor="start" x="142" y="-309" font-family="Helvetica,sans-Serif" font-size="10.00">Drone::Drone_motion</text>
<text text-anchor="middle" x="194.5" y="-298" font-family="Helvetica,sans-Serif" font-size="10.00">_after_update</text>
</a>
</g>
</g>
<!-- Node5&#45;&gt;Node8 -->
<g id="edge7" class="edge">
<title>Node5&#45;&gt;Node8</title>
<path fill="none" stroke="midnightblue" d="M468.87,-283.58C457.07,-280.84 444.72,-278.44 433,-277 370.36,-269.29 353.43,-267.73 291,-277 272.49,-279.75 252.6,-285.34 235.79,-290.89"/>
<polygon fill="midnightblue" stroke="midnightblue" points="468.08,-286.99 478.62,-285.94 469.73,-280.19 468.08,-286.99"/>
</g>
<!-- Node5&#45;&gt;Node9 -->
<g id="edge8" class="edge">
<title>Node5&#45;&gt;Node9</title>
<path fill="none" stroke="midnightblue" d="M510.53,-323.96C492.53,-345.14 463.5,-376.35 433,-397 424.57,-402.71 414.88,-407.7 405.45,-411.88"/>
<polygon fill="midnightblue" stroke="midnightblue" points="513.36,-326.02 517.09,-316.1 507.99,-321.54 513.36,-326.02"/>
</g>
<!-- Node5&#45;&gt;Node10 -->
<g id="edge11" class="edge">
<title>Node5&#45;&gt;Node10</title>
<path fill="none" stroke="midnightblue" d="M498.33,-280.16C479.92,-268.25 455.74,-253.62 433,-243 421.13,-237.46 407.6,-232.52 395.63,-228.59"/>
<polygon fill="midnightblue" stroke="midnightblue" points="496.58,-283.2 506.87,-285.76 500.42,-277.35 496.58,-283.2"/>
</g>
<!-- Node11 -->
<g id="node11" class="node">
<title>Node11</title>
<g id="a_node11"><a xlink:href="class_drone.html#a5fc9dd645ad3856b5d3c501c63c464e3" target="_top" xlink:title="Metoda animujaca translacje drona i wyrysowujaca calosc w gnuplocie.">
<polygon fill="none" stroke="black" points="292.5,-286 292.5,-316 431.5,-316 431.5,-286 292.5,-286"/>
<text text-anchor="start" x="300.5" y="-304" font-family="Helvetica,sans-Serif" font-size="10.00">Drone::Drone_translation</text>
<text text-anchor="middle" x="362" y="-293" font-family="Helvetica,sans-Serif" font-size="10.00">_animation</text>
</a>
</g>
</g>
<!-- Node5&#45;&gt;Node11 -->
<g id="edge12" class="edge">
<title>Node5&#45;&gt;Node11</title>
<path fill="none" stroke="midnightblue" d="M458.58,-301C449.62,-301 440.45,-301 431.51,-301"/>
<polygon fill="midnightblue" stroke="midnightblue" points="458.6,-304.5 468.6,-301 458.6,-297.5 458.6,-304.5"/>
</g>
<!-- Node9&#45;&gt;Node6 -->
<g id="edge9" class="edge">
<title>Node9&#45;&gt;Node6</title>
<path fill="none" stroke="midnightblue" d="M289.13,-417.45C276.23,-415.73 262.97,-413.97 250.63,-412.33"/>
<polygon fill="midnightblue" stroke="midnightblue" points="289,-420.96 299.37,-418.81 289.92,-414.02 289,-420.96"/>
</g>
<!-- Node9&#45;&gt;Node8 -->
<g id="edge10" class="edge">
<title>Node9&#45;&gt;Node8</title>
<path fill="none" stroke="midnightblue" d="M332,-405.8C298.82,-381.54 245.32,-342.42 216.13,-321.08"/>
<polygon fill="midnightblue" stroke="midnightblue" points="330.24,-408.84 340.37,-411.92 334.37,-403.19 330.24,-408.84"/>
</g>
<!-- Node13 -->
<g id="node13" class="node">
<title>Node13</title>
<g id="a_node13"><a xlink:href="class_scene.html#a5fb0b9741a75dec929b5ea5d6ac917a1" target="_top" xlink:title="Przelot aktywnego drona.">
<polygon fill="none" stroke="black" points="330,-171.5 330,-190.5 394,-190.5 394,-171.5 330,-171.5"/>
<text text-anchor="middle" x="362" y="-178.5" font-family="Helvetica,sans-Serif" font-size="10.00">Scene::fly</text>
</a>
</g>
</g>
<!-- Node12&#45;&gt;Node13 -->
<g id="edge16" class="edge">
<title>Node12&#45;&gt;Node13</title>
<path fill="none" stroke="midnightblue" d="M466.48,-192.84C441.89,-190.03 414.74,-186.92 394.42,-184.6"/>
<polygon fill="midnightblue" stroke="midnightblue" points="466.14,-196.33 476.48,-193.99 466.94,-189.37 466.14,-196.33"/>
</g>
<!-- Node14 -->
<g id="node14" class="node">
<title>Node14</title>
<g id="a_node14"><a xlink:href="class_menu.html#acd338552222b744cd030e17776cb5d9b" target="_top" xlink:title="Obsluguje wybor menu.">
<polygon fill="none" stroke="black" points="137.5,-171.5 137.5,-190.5 251.5,-190.5 251.5,-171.5 137.5,-171.5"/>
<text text-anchor="middle" x="194.5" y="-178.5" font-family="Helvetica,sans-Serif" font-size="10.00">Menu::switch_menu</text>
</a>
</g>
</g>
<!-- Node13&#45;&gt;Node14 -->
<g id="edge17" class="edge">
<title>Node13&#45;&gt;Node14</title>
<path fill="none" stroke="midnightblue" d="M319.86,-181C299.24,-181 273.98,-181 251.61,-181"/>
<polygon fill="midnightblue" stroke="midnightblue" points="319.87,-184.5 329.87,-181 319.87,-177.5 319.87,-184.5"/>
</g>
<!-- Node15 -->
<g id="node15" class="node">
<title>Node15</title>
<g id="a_node15"><a xlink:href="class_menu.html#af7e6a49bd56499facef9cc98561ea169" target="_top" xlink:title="Inicjuje i obsluguje menu.">
<polygon fill="none" stroke="black" points="0,-171.5 0,-190.5 98,-190.5 98,-171.5 0,-171.5"/>
<text text-anchor="middle" x="49" y="-178.5" font-family="Helvetica,sans-Serif" font-size="10.00">Menu::init_menu</text>
</a>
</g>
</g>
<!-- Node14&#45;&gt;Node15 -->
<g id="edge18" class="edge">
<title>Node14&#45;&gt;Node15</title>
<path fill="none" stroke="midnightblue" d="M127.13,-181C117.39,-181 107.52,-181 98.24,-181"/>
<polygon fill="midnightblue" stroke="midnightblue" points="127.2,-184.5 137.2,-181 127.2,-177.5 127.2,-184.5"/>
</g>
<!-- Node16&#45;&gt;Node4 -->
<g id="edge21" class="edge">
<title>Node16&#45;&gt;Node4</title>
<path fill="none" stroke="midnightblue" d="M859.77,-118.22C837.48,-126.77 806.92,-137.33 779,-143 706.43,-157.74 619.79,-161.26 570.5,-161.98"/>
<polygon fill="midnightblue" stroke="midnightblue" points="861.05,-121.48 869.09,-114.58 858.5,-114.96 861.05,-121.48"/>
</g>
<!-- Node17 -->
<g id="node17" class="node">
<title>Node17</title>
<g id="a_node17"><a xlink:href="class_cuboid.html#acb4ad8abd1f7f810d2512ff9ce1f9717" target="_top" xlink:title="Konstruktor bezparametryczny klasy Cuboid. Powstaly prostopadloscian ma dwa prostokaty &quot;tworzace&quot;: p1...">
<polygon fill="none" stroke="black" points="658,-38.5 658,-57.5 748,-57.5 748,-38.5 658,-38.5"/>
<text text-anchor="middle" x="703" y="-45.5" font-family="Helvetica,sans-Serif" font-size="10.00">Cuboid::Cuboid</text>
</a>
</g>
</g>
<!-- Node16&#45;&gt;Node17 -->
<g id="edge20" class="edge">
<title>Node16&#45;&gt;Node17</title>
<path fill="none" stroke="midnightblue" d="M855.62,-91.98C833.58,-84.29 804.83,-74.6 779,-67 767.79,-63.7 755.54,-60.45 744.24,-57.59"/>
<polygon fill="midnightblue" stroke="midnightblue" points="854.65,-95.35 865.24,-95.36 856.97,-88.74 854.65,-95.35"/>
</g>
<!-- Node18 -->
<g id="node18" class="node">
<title>Node18</title>
<g id="a_node18"><a xlink:href="class_pyramid.html#a188d1f3cca17418b95ae771dedc99f4a" target="_top" xlink:title="Konstruktor parametryczny klasy Pyramid. Powstaly ostroslupa ma jeden prostokat &quot;tworzacy&quot;: p1 = [0][...">
<polygon fill="none" stroke="black" points="651,-0.5 651,-19.5 755,-19.5 755,-0.5 651,-0.5"/>
<text text-anchor="middle" x="703" y="-7.5" font-family="Helvetica,sans-Serif" font-size="10.00">Pyramid::Pyramid</text>
</a>
</g>
</g>
<!-- Node16&#45;&gt;Node18 -->
<g id="edge22" class="edge">
<title>Node16&#45;&gt;Node18</title>
<path fill="none" stroke="midnightblue" d="M872.56,-88.85C850.98,-71.67 814.48,-44.85 779,-29 770.54,-25.22 761.19,-22.1 752.05,-19.55"/>
<polygon fill="midnightblue" stroke="midnightblue" points="870.62,-91.78 880.6,-95.34 875.02,-86.33 870.62,-91.78"/>
</g>
<!-- Node19 -->
<g id="node19" class="node">
<title>Node19</title>
<g id="a_node19"><a xlink:href="class_drone.html#a77142062fb8a8af87df42b5c2e7e44e0" target="_top" xlink:title="Metoda skalujaca wszystkie elementy drona przez skale kazdego elementu">
<polygon fill="none" stroke="black" points="654,-114.5 654,-133.5 752,-133.5 752,-114.5 654,-114.5"/>
<text text-anchor="middle" x="703" y="-121.5" font-family="Helvetica,sans-Serif" font-size="10.00">Drone::scale_dro</text>
</a>
</g>
</g>
<!-- Node16&#45;&gt;Node19 -->
<g id="edge23" class="edge">
<title>Node16&#45;&gt;Node19</title>
<path fill="none" stroke="midnightblue" d="M830.35,-111.23C804.92,-113.8 775.89,-116.73 752.08,-119.14"/>
<polygon fill="midnightblue" stroke="midnightblue" points="831.03,-114.68 840.63,-110.19 830.33,-107.72 831.03,-114.68"/>
</g>
<!-- Node21 -->
<g id="node21" class="node">
<title>Node21</title>
<g id="a_node21"><a xlink:href="class_triangular.html#ad377db3bde29ea96fdc04fd3b645c07a" target="_top" xlink:title="Konstruktor parametryczny klasy Triangular. Powstaje ostroslup jak z konstruktora parametrycznego,...">
<polygon fill="none" stroke="black" points="643.5,-76.5 643.5,-95.5 762.5,-95.5 762.5,-76.5 643.5,-76.5"/>
<text text-anchor="middle" x="703" y="-83.5" font-family="Helvetica,sans-Serif" font-size="10.00">Triangular::Triangular</text>
</a>
</g>
</g>
<!-- Node16&#45;&gt;Node21 -->
<g id="edge25" class="edge">
<title>Node16&#45;&gt;Node21</title>
<path fill="none" stroke="midnightblue" d="M830.48,-98.78C808.67,-96.58 784.18,-94.1 762.61,-91.92"/>
<polygon fill="midnightblue" stroke="midnightblue" points="830.33,-102.28 840.63,-99.81 831.03,-95.32 830.33,-102.28"/>
</g>
<!-- Node20 -->
<g id="node20" class="node">
<title>Node20</title>
<g id="a_node20"><a xlink:href="class_scene.html#adca9214dccab3d77eed9d8af7db67f94" target="_top" xlink:title="Konstruktor paramereyczny klasy Scene.">
<polygon fill="none" stroke="black" points="489.5,-114.5 489.5,-133.5 570.5,-133.5 570.5,-114.5 489.5,-114.5"/>
<text text-anchor="middle" x="530" y="-121.5" font-family="Helvetica,sans-Serif" font-size="10.00">Scene::Scene</text>
</a>
</g>
</g>
<!-- Node19&#45;&gt;Node20 -->
<g id="edge24" class="edge">
<title>Node19&#45;&gt;Node20</title>
<path fill="none" stroke="midnightblue" d="M643.81,-124C619.71,-124 592.38,-124 570.66,-124"/>
<polygon fill="midnightblue" stroke="midnightblue" points="643.91,-127.5 653.91,-124 643.91,-120.5 643.91,-127.5"/>
</g>
</g>
</svg>
