<?xml version="1.0" encoding="UTF-8" standalone="no"?>
<!DOCTYPE svg PUBLIC "-//W3C//DTD SVG 1.1//EN"
 "http://www.w3.org/Graphics/SVG/1.1/DTD/svg11.dtd">
<!-- Generated by graphviz version 2.43.0 (0)
 -->
<!-- Title: Drone::setup_filenames Pages: 1 -->
<svg width="315pt" height="66pt"
 viewBox="0.00 0.00 315.00 66.00" xmlns="http://www.w3.org/2000/svg" xmlns:xlink="http://www.w3.org/1999/xlink">
<g id="graph0" class="graph" transform="scale(1 1) rotate(0) translate(4 62)">
<title>Drone::setup_filenames</title>
<!-- Node1 -->
<g id="node1" class="node">
<title>Node1</title>
<g id="a_node1"><a xlink:title="Metoda ustawiajaca nazwy plikow do zapisu dla drona.">
<polygon fill="#bfbfbf" stroke="black" points="0,-19.5 0,-38.5 132,-38.5 132,-19.5 0,-19.5"/>
<text text-anchor="middle" x="66" y="-26.5" font-family="Helvetica,sans-Serif" font-size="10.00">Drone::setup_filenames</text>
</a>
</g>
</g>
<!-- Node2 -->
<g id="node2" class="node">
<title>Node2</title>
<g id="a_node2"><a xlink:href="class_block.html#a640a910076d8b10533a9a80d740f8f03" target="_top" xlink:title="Metoda zapisujaca do klasy nazwe pliku z finalna (robocza) bryla">
<polygon fill="none" stroke="black" points="175.5,-38.5 175.5,-57.5 299.5,-57.5 299.5,-38.5 175.5,-38.5"/>
<text text-anchor="middle" x="237.5" y="-45.5" font-family="Helvetica,sans-Serif" font-size="10.00">Block::set_final_name</text>
</a>
</g>
</g>
<!-- Node1&#45;&gt;Node2 -->
<g id="edge1" class="edge">
<title>Node1&#45;&gt;Node2</title>
<path fill="none" stroke="midnightblue" d="M132.05,-36.29C142.91,-37.51 154.24,-38.78 165.25,-40.01"/>
<polygon fill="midnightblue" stroke="midnightblue" points="164.92,-43.5 175.25,-41.13 165.7,-36.54 164.92,-43.5"/>
</g>
<!-- Node3 -->
<g id="node3" class="node">
<title>Node3</title>
<g id="a_node3"><a xlink:href="class_block.html#acf20b290f1543e580ff1f2c6d98ff4c4" target="_top" xlink:title="Metoda zapisujaca do klasy nazwe pliku z wzorcowa bryla">
<polygon fill="none" stroke="black" points="168,-0.5 168,-19.5 307,-19.5 307,-0.5 168,-0.5"/>
<text text-anchor="middle" x="237.5" y="-7.5" font-family="Helvetica,sans-Serif" font-size="10.00">Block::set_sample_name</text>
</a>
</g>
</g>
<!-- Node1&#45;&gt;Node3 -->
<g id="edge2" class="edge">
<title>Node1&#45;&gt;Node3</title>
<path fill="none" stroke="midnightblue" d="M132.05,-21.71C140.5,-20.76 149.23,-19.78 157.88,-18.81"/>
<polygon fill="midnightblue" stroke="midnightblue" points="158.42,-22.27 167.97,-17.68 157.64,-15.32 158.42,-22.27"/>
</g>
</g>
</svg>
