<?xml version="1.0" encoding="UTF-8" standalone="no"?>
<!DOCTYPE svg PUBLIC "-//W3C//DTD SVG 1.1//EN"
 "http://www.w3.org/Graphics/SVG/1.1/DTD/svg11.dtd">
<!-- Generated by graphviz version 2.43.0 (0)
 -->
<!-- Title: Drone::Drone_path_clear Pages: 1 -->
<svg width="323pt" height="116pt"
 viewBox="0.00 0.00 323.00 116.00" xmlns="http://www.w3.org/2000/svg" xmlns:xlink="http://www.w3.org/1999/xlink">
<g id="graph0" class="graph" transform="scale(1 1) rotate(0) translate(4 112)">
<title>Drone::Drone_path_clear</title>
<!-- Node1 -->
<g id="node1" class="node">
<title>Node1</title>
<g id="a_node1"><a xlink:title="Oczyszcza plik ze sciezka.">
<polygon fill="#bfbfbf" stroke="black" points="178,-44.5 178,-63.5 315,-63.5 315,-44.5 178,-44.5"/>
<text text-anchor="middle" x="246.5" y="-51.5" font-family="Helvetica,sans-Serif" font-size="10.00">Drone::Drone_path_clear</text>
</a>
</g>
</g>
<!-- Node2 -->
<g id="node2" class="node">
<title>Node2</title>
<g id="a_node2"><a xlink:href="class_drone.html#a4abbed4a4cc52e5630f07f9129b46c5c" target="_top" xlink:title="Metoda realizujaca ladowanie drona.">
<polygon fill="none" stroke="black" points="8.5,-88.5 8.5,-107.5 133.5,-107.5 133.5,-88.5 8.5,-88.5"/>
<text text-anchor="middle" x="71" y="-95.5" font-family="Helvetica,sans-Serif" font-size="10.00">Drone::Drone_descent</text>
</a>
</g>
</g>
<!-- Node1&#45;&gt;Node2 -->
<g id="edge1" class="edge">
<title>Node1&#45;&gt;Node2</title>
<path fill="none" stroke="midnightblue" d="M197.94,-66.06C170.11,-73.12 135.48,-81.9 109.57,-88.47"/>
<polygon fill="midnightblue" stroke="midnightblue" points="199.02,-69.4 207.85,-63.55 197.3,-62.61 199.02,-69.4"/>
</g>
<!-- Node3 -->
<g id="node3" class="node">
<title>Node3</title>
<g id="a_node3"><a xlink:href="class_drone.html#aec9abadf85777ab20e361d1389aab466" target="_top" xlink:title="Metoda obliczajaca i przeprowadzajaca koncowy ruch drona (obrot o kat i koncowy przelot z zadania 5....">
<polygon fill="none" stroke="black" points="10.5,-39 10.5,-69 131.5,-69 131.5,-39 10.5,-39"/>
<text text-anchor="start" x="18.5" y="-57" font-family="Helvetica,sans-Serif" font-size="10.00">Drone::Drone_motion</text>
<text text-anchor="middle" x="71" y="-46" font-family="Helvetica,sans-Serif" font-size="10.00">_after_update</text>
</a>
</g>
</g>
<!-- Node1&#45;&gt;Node3 -->
<g id="edge2" class="edge">
<title>Node1&#45;&gt;Node3</title>
<path fill="none" stroke="midnightblue" d="M167.83,-54C155.73,-54 143.39,-54 131.77,-54"/>
<polygon fill="midnightblue" stroke="midnightblue" points="167.92,-57.5 177.92,-54 167.92,-50.5 167.92,-57.5"/>
</g>
<!-- Node4 -->
<g id="node4" class="node">
<title>Node4</title>
<g id="a_node4"><a xlink:href="class_drone.html#ab7808296cec81143dbddd7516340a371" target="_top" xlink:title="Metoda robiaca &quot;oblot&quot; drona wokol punktu (z modyfikacji)">
<polygon fill="none" stroke="black" points="0,-0.5 0,-19.5 142,-19.5 142,-0.5 0,-0.5"/>
<text text-anchor="middle" x="71" y="-7.5" font-family="Helvetica,sans-Serif" font-size="10.00">Drone::Drone_roundabout</text>
</a>
</g>
</g>
<!-- Node1&#45;&gt;Node4 -->
<g id="edge3" class="edge">
<title>Node1&#45;&gt;Node4</title>
<path fill="none" stroke="midnightblue" d="M197.94,-41.94C170.11,-34.88 135.48,-26.1 109.57,-19.53"/>
<polygon fill="midnightblue" stroke="midnightblue" points="197.3,-45.39 207.85,-44.45 199.02,-38.6 197.3,-45.39"/>
</g>
</g>
</svg>
