<?xml version="1.0" encoding="UTF-8" standalone="no"?>
<!DOCTYPE svg PUBLIC "-//W3C//DTD SVG 1.1//EN"
 "http://www.w3.org/Graphics/SVG/1.1/DTD/svg11.dtd">
<!-- Generated by graphviz version 2.43.0 (0)
 -->
<!-- Title: Block::get_final_name Pages: 1 -->
<svg width="1006pt" height="419pt"
 viewBox="0.00 0.00 1006.00 419.17" xmlns="http://www.w3.org/2000/svg" xmlns:xlink="http://www.w3.org/1999/xlink">
<g id="graph0" class="graph" transform="scale(1 1) rotate(0) translate(4 415.17)">
<title>Block::get_final_name</title>
<!-- Node1 -->
<g id="node1" class="node">
<title>Node1</title>
<g id="a_node1"><a xlink:title="Metoda zwracajaca nazwe pliku z finalna (robocza) bryla">
<polygon fill="#bfbfbf" stroke="black" points="873,-202.5 873,-221.5 998,-221.5 998,-202.5 873,-202.5"/>
<text text-anchor="middle" x="935.5" y="-209.5" font-family="Helvetica,sans-Serif" font-size="10.00">Block::get_final_name</text>
</a>
</g>
</g>
<!-- Node2 -->
<g id="node2" class="node">
<title>Node2</title>
<g id="a_node2"><a xlink:href="class_cuboid.html#a773f92fecdf9686b951cf5736c83f318" target="_top" xlink:title="Metoda wczytywania odpowiednich wierzcholkow z pliku wzorcowego zgodnie z zaproponowanym sposobem zad...">
<polygon fill="none" stroke="black" points="702,-241 702,-271 822,-271 822,-241 702,-241"/>
<text text-anchor="start" x="710" y="-259" font-family="Helvetica,sans-Serif" font-size="10.00">Cuboid::Cuboid_From</text>
<text text-anchor="middle" x="762" y="-248" font-family="Helvetica,sans-Serif" font-size="10.00">_Sample</text>
</a>
</g>
</g>
<!-- Node1&#45;&gt;Node2 -->
<g id="edge1" class="edge">
<title>Node1&#45;&gt;Node2</title>
<path fill="none" stroke="midnightblue" d="M887.35,-224.1C867.06,-229.3 843.14,-235.44 821.72,-240.93"/>
<polygon fill="midnightblue" stroke="midnightblue" points="888.47,-227.42 897.29,-221.55 886.73,-220.64 888.47,-227.42"/>
</g>
<!-- Node11 -->
<g id="node11" class="node">
<title>Node11</title>
<g id="a_node11"><a xlink:href="class_drone.html#addf8532ee98ca800a64a78f3808fce98" target="_top" xlink:title="Metoda zwracajaca nazwy plikow do zapisu dla drona.">
<polygon fill="none" stroke="black" points="701.5,-328.5 701.5,-347.5 822.5,-347.5 822.5,-328.5 701.5,-328.5"/>
<text text-anchor="middle" x="762" y="-335.5" font-family="Helvetica,sans-Serif" font-size="10.00">Drone::get_filenames</text>
</a>
</g>
</g>
<!-- Node1&#45;&gt;Node11 -->
<g id="edge12" class="edge">
<title>Node1&#45;&gt;Node11</title>
<path fill="none" stroke="midnightblue" d="M922.9,-230.27C906.66,-254.33 874.83,-296.24 837,-319 830.52,-322.9 823.26,-326 815.88,-328.47"/>
<polygon fill="midnightblue" stroke="midnightblue" points="925.96,-232 928.53,-221.72 920.11,-228.15 925.96,-232"/>
</g>
<!-- Node12 -->
<g id="node12" class="node">
<title>Node12</title>
<g id="a_node12"><a xlink:href="class_drone.html#aae0029f50083a01fe75c7d504c2fe5b9" target="_top" xlink:title="Metoda zapisujaca parametry drona do plikow (do plikow final kazdego z elementow)">
<polygon fill="none" stroke="black" points="517,-197 517,-227 632,-227 632,-197 517,-197"/>
<text text-anchor="start" x="525" y="-215" font-family="Helvetica,sans-Serif" font-size="10.00">Drone::Print_to_files</text>
<text text-anchor="middle" x="574.5" y="-204" font-family="Helvetica,sans-Serif" font-size="10.00">_drone</text>
</a>
</g>
</g>
<!-- Node1&#45;&gt;Node12 -->
<g id="edge14" class="edge">
<title>Node1&#45;&gt;Node12</title>
<path fill="none" stroke="midnightblue" d="M862.61,-212C794.84,-212 694.61,-212 632.27,-212"/>
<polygon fill="midnightblue" stroke="midnightblue" points="862.79,-215.5 872.79,-212 862.79,-208.5 862.79,-215.5"/>
</g>
<!-- Node14 -->
<g id="node14" class="node">
<title>Node14</title>
<g id="a_node14"><a xlink:href="class_prism.html#a5e0a2234e9ebe3b51146c0ddc42e8b48" target="_top" xlink:title="Metoda wczytywania odpowiednich wierzcholkow z pliku wzorcowego zgodnie z zaproponowanym sposobem zad...">
<polygon fill="none" stroke="black" points="687,-290.5 687,-309.5 837,-309.5 837,-290.5 687,-290.5"/>
<text text-anchor="middle" x="762" y="-297.5" font-family="Helvetica,sans-Serif" font-size="10.00">Prism::Prism_From_Sample</text>
</a>
</g>
</g>
<!-- Node1&#45;&gt;Node14 -->
<g id="edge28" class="edge">
<title>Node1&#45;&gt;Node14</title>
<path fill="none" stroke="midnightblue" d="M915.89,-228.34C897.17,-243.97 866.86,-267.17 837,-281 828.82,-284.79 819.76,-287.91 810.87,-290.44"/>
<polygon fill="midnightblue" stroke="midnightblue" points="918.29,-230.89 923.64,-221.74 913.75,-225.56 918.29,-230.89"/>
</g>
<!-- Node15 -->
<g id="node15" class="node">
<title>Node15</title>
<g id="a_node15"><a xlink:href="class_drone.html#ae33ffe55aea0ec73f28e24409088ee4c" target="_top" xlink:title="Metoda usuwajaca pliki drona.">
<polygon fill="none" stroke="black" points="704.5,-164.5 704.5,-183.5 819.5,-183.5 819.5,-164.5 704.5,-164.5"/>
<text text-anchor="middle" x="762" y="-171.5" font-family="Helvetica,sans-Serif" font-size="10.00">Drone::remove_files</text>
</a>
</g>
</g>
<!-- Node1&#45;&gt;Node15 -->
<g id="edge30" class="edge">
<title>Node1&#45;&gt;Node15</title>
<path fill="none" stroke="midnightblue" d="M881.46,-200.25C857.21,-194.87 828.85,-188.59 805.97,-183.52"/>
<polygon fill="midnightblue" stroke="midnightblue" points="880.7,-203.66 891.22,-202.41 882.22,-196.83 880.7,-203.66"/>
</g>
<!-- Node16 -->
<g id="node16" class="node">
<title>Node16</title>
<g id="a_node16"><a xlink:href="class_scene.html#aa5fc0e5a94bfa0766f6e5ff10993630d" target="_top" xlink:title="Skanowanie powierzchni pod dronem, gdy dron nie moze wyladowac w danym miejscu &#160;&#160;Rysowany jest rownie...">
<polygon fill="none" stroke="black" points="708.5,-126.5 708.5,-145.5 815.5,-145.5 815.5,-126.5 708.5,-126.5"/>
<text text-anchor="middle" x="762" y="-133.5" font-family="Helvetica,sans-Serif" font-size="10.00">Scene::scan_plane</text>
</a>
</g>
</g>
<!-- Node1&#45;&gt;Node16 -->
<g id="edge31" class="edge">
<title>Node1&#45;&gt;Node16</title>
<path fill="none" stroke="midnightblue" d="M912.6,-196.8C893.41,-184.09 864.4,-166.27 837,-155 828.05,-151.32 818.18,-148.19 808.65,-145.6"/>
<polygon fill="midnightblue" stroke="midnightblue" points="910.68,-199.73 920.92,-202.41 914.59,-193.92 910.68,-199.73"/>
</g>
<!-- Node20 -->
<g id="node20" class="node">
<title>Node20</title>
<g id="a_node20"><a xlink:href="class_drone.html#a63898ba4cc161710cf08f7b578f3d90f" target="_top" xlink:title="Metoda ustawiajaca nazwy plikow w laczy do gnuplota (nazwy final!)">
<polygon fill="none" stroke="black" points="702,-77 702,-107 822,-107 822,-77 702,-77"/>
<text text-anchor="start" x="710" y="-95" font-family="Helvetica,sans-Serif" font-size="10.00">Drone::set_filenames</text>
<text text-anchor="middle" x="762" y="-84" font-family="Helvetica,sans-Serif" font-size="10.00">_gnuplot</text>
</a>
</g>
</g>
<!-- Node1&#45;&gt;Node20 -->
<g id="edge35" class="edge">
<title>Node1&#45;&gt;Node20</title>
<path fill="none" stroke="midnightblue" d="M920.91,-194.65C903.54,-173.55 871.55,-138.14 837,-117 830.87,-113.25 824.11,-109.98 817.23,-107.15"/>
<polygon fill="midnightblue" stroke="midnightblue" points="918.22,-196.9 927.23,-202.49 923.67,-192.5 918.22,-196.9"/>
</g>
<!-- Node3 -->
<g id="node3" class="node">
<title>Node3</title>
<g id="a_node3"><a xlink:href="class_drone.html#ada6f4e93f4a63cbe1d6fbebf329efe62" target="_top" xlink:title="Metoda wczytywania odpowiednich wierzcholkow z pliku wzorcowego zgodnie z zaproponowanym sposobem w z...">
<polygon fill="none" stroke="black" points="498,-290.5 498,-309.5 651,-309.5 651,-290.5 498,-290.5"/>
<text text-anchor="middle" x="574.5" y="-297.5" font-family="Helvetica,sans-Serif" font-size="10.00">Drone::Drone_From_Sample</text>
</a>
</g>
</g>
<!-- Node2&#45;&gt;Node3 -->
<g id="edge2" class="edge">
<title>Node2&#45;&gt;Node3</title>
<path fill="none" stroke="midnightblue" d="M691.74,-272.43C666.11,-278.51 637.91,-285.2 615.7,-290.46"/>
<polygon fill="midnightblue" stroke="midnightblue" points="692.87,-275.76 701.8,-270.04 691.26,-268.95 692.87,-275.76"/>
</g>
<!-- Node4 -->
<g id="node4" class="node">
<title>Node4</title>
<g id="a_node4"><a xlink:href="class_drone.html#af03af60a9b92e4191a7e66b5c20b52bb" target="_top" xlink:title="Metoda zamieniajaca drona na tego z pliku sample.">
<polygon fill="none" stroke="black" points="337.5,-285 337.5,-315 459.5,-315 459.5,-285 337.5,-285"/>
<text text-anchor="start" x="345.5" y="-303" font-family="Helvetica,sans-Serif" font-size="10.00">Drone::Drone_change</text>
<text text-anchor="middle" x="398.5" y="-292" font-family="Helvetica,sans-Serif" font-size="10.00">_to_sample</text>
</a>
</g>
</g>
<!-- Node3&#45;&gt;Node4 -->
<g id="edge3" class="edge">
<title>Node3&#45;&gt;Node4</title>
<path fill="none" stroke="midnightblue" d="M487.66,-300C478.16,-300 468.64,-300 459.55,-300"/>
<polygon fill="midnightblue" stroke="midnightblue" points="487.94,-303.5 497.94,-300 487.94,-296.5 487.94,-303.5"/>
</g>
<!-- Node5 -->
<g id="node5" class="node">
<title>Node5</title>
<g id="a_node5"><a xlink:href="class_drone.html#a7eecbd031df9009e113d355a9dcdf4e1" target="_top" xlink:title="Metoda obliczajaca i przeprowadzajaca caly ruch drona (obrot o kat i przelot z zadania 5....">
<polygon fill="none" stroke="black" points="4.5,-218 4.5,-248 116.5,-248 116.5,-218 4.5,-218"/>
<text text-anchor="start" x="12.5" y="-236" font-family="Helvetica,sans-Serif" font-size="10.00">Drone::Drone_basic</text>
<text text-anchor="middle" x="60.5" y="-225" font-family="Helvetica,sans-Serif" font-size="10.00">_motion_flight</text>
</a>
</g>
</g>
<!-- Node4&#45;&gt;Node5 -->
<g id="edge4" class="edge">
<title>Node4&#45;&gt;Node5</title>
<path fill="none" stroke="midnightblue" d="M334.14,-317.2C284.44,-327.53 214.3,-335.03 157,-314 121.28,-300.89 89.77,-267.85 73.41,-248.26"/>
<polygon fill="midnightblue" stroke="midnightblue" points="335.09,-320.57 344.12,-315.03 333.6,-313.73 335.09,-320.57"/>
</g>
<!-- Node6 -->
<g id="node6" class="node">
<title>Node6</title>
<g id="a_node6"><a xlink:href="class_drone.html#a4abbed4a4cc52e5630f07f9129b46c5c" target="_top" xlink:title="Metoda realizujaca ladowanie drona.">
<polygon fill="none" stroke="black" points="165.5,-114.5 165.5,-133.5 290.5,-133.5 290.5,-114.5 165.5,-114.5"/>
<text text-anchor="middle" x="228" y="-121.5" font-family="Helvetica,sans-Serif" font-size="10.00">Drone::Drone_descent</text>
</a>
</g>
</g>
<!-- Node4&#45;&gt;Node6 -->
<g id="edge5" class="edge">
<title>Node4&#45;&gt;Node6</title>
<path fill="none" stroke="midnightblue" d="M371,-277.91C358.78,-266.66 344.83,-252.16 335,-237 310.88,-199.81 331.73,-173.88 299,-144 294.24,-139.65 288.6,-136.25 282.61,-133.57"/>
<polygon fill="midnightblue" stroke="midnightblue" points="368.94,-280.76 378.73,-284.82 373.6,-275.54 368.94,-280.76"/>
</g>
<!-- Node7 -->
<g id="node7" class="node">
<title>Node7</title>
<g id="a_node7"><a xlink:href="class_drone.html#aec9abadf85777ab20e361d1389aab466" target="_top" xlink:title="Metoda obliczajaca i przeprowadzajaca koncowy ruch drona (obrot o kat i koncowy przelot z zadania 5....">
<polygon fill="none" stroke="black" points="0,-131 0,-161 121,-161 121,-131 0,-131"/>
<text text-anchor="start" x="8" y="-149" font-family="Helvetica,sans-Serif" font-size="10.00">Drone::Drone_motion</text>
<text text-anchor="middle" x="60.5" y="-138" font-family="Helvetica,sans-Serif" font-size="10.00">_after_update</text>
</a>
</g>
</g>
<!-- Node4&#45;&gt;Node7 -->
<g id="edge6" class="edge">
<title>Node4&#45;&gt;Node7</title>
<path fill="none" stroke="midnightblue" d="M327.29,-311.73C275.86,-316.48 206.66,-314.46 157,-281 127.33,-261.01 141.5,-238.32 121,-209 108.5,-191.12 91.07,-173.29 78.31,-161.18"/>
<polygon fill="midnightblue" stroke="midnightblue" points="327.74,-315.2 337.33,-310.7 327.02,-308.24 327.74,-315.2"/>
</g>
<!-- Node8 -->
<g id="node8" class="node">
<title>Node8</title>
<g id="a_node8"><a xlink:href="class_drone.html#af052f6bb793d1229b99b16b800b95b82" target="_top" xlink:title="Metoda animujaca obrot drona i wyrysowujaca calosc w gnuplocie.">
<polygon fill="none" stroke="black" points="165.5,-153 165.5,-183 290.5,-183 290.5,-153 165.5,-153"/>
<text text-anchor="start" x="173.5" y="-171" font-family="Helvetica,sans-Serif" font-size="10.00">Drone::Drone_rotation</text>
<text text-anchor="middle" x="228" y="-160" font-family="Helvetica,sans-Serif" font-size="10.00">_animation</text>
</a>
</g>
</g>
<!-- Node4&#45;&gt;Node8 -->
<g id="edge7" class="edge">
<title>Node4&#45;&gt;Node8</title>
<path fill="none" stroke="midnightblue" d="M370.01,-278.46C335.8,-251.67 278.27,-206.6 248.36,-183.17"/>
<polygon fill="midnightblue" stroke="midnightblue" points="368.14,-281.45 378.17,-284.86 372.46,-275.94 368.14,-281.45"/>
</g>
<!-- Node9 -->
<g id="node9" class="node">
<title>Node9</title>
<g id="a_node9"><a xlink:href="class_drone.html#ab7808296cec81143dbddd7516340a371" target="_top" xlink:title="Metoda robiaca &quot;oblot&quot; drona wokol punktu (z modyfikacji)">
<polygon fill="none" stroke="black" points="157,-366.5 157,-385.5 299,-385.5 299,-366.5 157,-366.5"/>
<text text-anchor="middle" x="228" y="-373.5" font-family="Helvetica,sans-Serif" font-size="10.00">Drone::Drone_roundabout</text>
</a>
</g>
</g>
<!-- Node4&#45;&gt;Node9 -->
<g id="edge10" class="edge">
<title>Node4&#45;&gt;Node9</title>
<path fill="none" stroke="midnightblue" d="M362.74,-320.05C344.17,-330.32 320.71,-342.61 299,-352 286.62,-357.35 272.62,-362.35 260.41,-366.39"/>
<polygon fill="midnightblue" stroke="midnightblue" points="364.68,-322.97 371.7,-315.04 361.27,-316.86 364.68,-322.97"/>
</g>
<!-- Node10 -->
<g id="node10" class="node">
<title>Node10</title>
<g id="a_node10"><a xlink:href="class_drone.html#a5fc9dd645ad3856b5d3c501c63c464e3" target="_top" xlink:title="Metoda animujaca translacje drona i wyrysowujaca calosc w gnuplocie.">
<polygon fill="none" stroke="black" points="158.5,-241 158.5,-271 297.5,-271 297.5,-241 158.5,-241"/>
<text text-anchor="start" x="166.5" y="-259" font-family="Helvetica,sans-Serif" font-size="10.00">Drone::Drone_translation</text>
<text text-anchor="middle" x="228" y="-248" font-family="Helvetica,sans-Serif" font-size="10.00">_animation</text>
</a>
</g>
</g>
<!-- Node4&#45;&gt;Node10 -->
<g id="edge11" class="edge">
<title>Node4&#45;&gt;Node10</title>
<path fill="none" stroke="midnightblue" d="M330.12,-282.41C315.69,-278.64 300.57,-274.69 286.54,-271.03"/>
<polygon fill="midnightblue" stroke="midnightblue" points="329.42,-285.84 339.98,-284.98 331.19,-279.07 329.42,-285.84"/>
</g>
<!-- Node8&#45;&gt;Node5 -->
<g id="edge8" class="edge">
<title>Node8&#45;&gt;Node5</title>
<path fill="none" stroke="midnightblue" d="M179.25,-186.75C154.08,-196.64 123.6,-208.61 99.96,-217.89"/>
<polygon fill="midnightblue" stroke="midnightblue" points="180.59,-189.99 188.61,-183.08 178.03,-183.47 180.59,-189.99"/>
</g>
<!-- Node8&#45;&gt;Node7 -->
<g id="edge9" class="edge">
<title>Node8&#45;&gt;Node7</title>
<path fill="none" stroke="midnightblue" d="M155.45,-158.49C144.04,-156.97 132.35,-155.42 121.25,-153.94"/>
<polygon fill="midnightblue" stroke="midnightblue" points="155,-161.96 165.37,-159.81 155.92,-155.02 155,-161.96"/>
</g>
<!-- Node11&#45;&gt;Node3 -->
<g id="edge13" class="edge">
<title>Node11&#45;&gt;Node3</title>
<path fill="none" stroke="midnightblue" d="M704.33,-326.39C677.94,-320.99 646.95,-314.64 621.97,-309.52"/>
<polygon fill="midnightblue" stroke="midnightblue" points="703.69,-329.83 714.19,-328.41 705.1,-322.98 703.69,-329.83"/>
</g>
<!-- Node12&#45;&gt;Node5 -->
<g id="edge15" class="edge">
<title>Node12&#45;&gt;Node5</title>
<path fill="none" stroke="midnightblue" d="M544.67,-233.68C529.37,-246.25 511.09,-263.1 498,-281 475.46,-311.82 491.74,-335.06 462,-359 404.21,-405.53 372.75,-386.95 299,-395 236.26,-401.85 211.8,-426.31 157,-395 100.3,-362.61 73.91,-281.95 65.07,-248.21"/>
<polygon fill="midnightblue" stroke="midnightblue" points="547.19,-236.14 552.81,-227.15 542.82,-230.68 547.19,-236.14"/>
</g>
<!-- Node12&#45;&gt;Node6 -->
<g id="edge16" class="edge">
<title>Node12&#45;&gt;Node6</title>
<path fill="none" stroke="midnightblue" d="M528.35,-193.05C508.29,-185.14 484.22,-176.33 462,-170 404.9,-153.73 338.31,-141.21 290.98,-133.37"/>
<polygon fill="midnightblue" stroke="midnightblue" points="527.27,-196.39 537.85,-196.85 529.86,-189.89 527.27,-196.39"/>
</g>
<!-- Node12&#45;&gt;Node7 -->
<g id="edge17" class="edge">
<title>Node12&#45;&gt;Node7</title>
<path fill="none" stroke="midnightblue" d="M546.71,-190.66C524.93,-174.16 492.86,-151.71 462,-137 393.6,-104.39 373.94,-98.24 299,-87 236.59,-77.64 217.71,-69.76 157,-87 127,-95.52 97.2,-116.44 79.06,-130.93"/>
<polygon fill="midnightblue" stroke="midnightblue" points="544.75,-193.57 554.81,-196.89 549.01,-188.02 544.75,-193.57"/>
</g>
<!-- Node12&#45;&gt;Node8 -->
<g id="edge18" class="edge">
<title>Node12&#45;&gt;Node8</title>
<path fill="none" stroke="midnightblue" d="M506.74,-196.19C492.06,-193.12 476.56,-190.18 462,-188 404.18,-179.33 337.69,-174.09 290.57,-171.16"/>
<polygon fill="midnightblue" stroke="midnightblue" points="506.23,-199.66 516.75,-198.33 507.7,-192.82 506.23,-199.66"/>
</g>
<!-- Node12&#45;&gt;Node9 -->
<g id="edge19" class="edge">
<title>Node12&#45;&gt;Node9</title>
<path fill="none" stroke="midnightblue" d="M547.56,-234.04C532.57,-247.18 513.66,-264.46 498,-281 480.63,-299.35 483.54,-311.79 462,-325 412.76,-355.21 348,-367.64 299.25,-372.69"/>
<polygon fill="midnightblue" stroke="midnightblue" points="550.18,-236.41 555.43,-227.21 545.59,-231.12 550.18,-236.41"/>
</g>
<!-- Node12&#45;&gt;Node10 -->
<g id="edge20" class="edge">
<title>Node12&#45;&gt;Node10</title>
<path fill="none" stroke="midnightblue" d="M506.77,-228.55C492.1,-231.74 476.58,-234.78 462,-237 407.03,-245.36 344.17,-250.22 297.6,-252.92"/>
<polygon fill="midnightblue" stroke="midnightblue" points="507.78,-231.91 516.78,-226.32 506.26,-225.08 507.78,-231.91"/>
</g>
<!-- Node13 -->
<g id="node13" class="node">
<title>Node13</title>
<g id="a_node13"><a xlink:href="class_drone.html#aedb04b80609b22ff4eb4a957bc149a48" target="_top" xlink:title="Metoda animujaca obrot rotorow i zapisujaca to w plikach. Metoda sluzy jako metoda pomocnicza,...">
<polygon fill="none" stroke="black" points="335,-197 335,-227 462,-227 462,-197 335,-197"/>
<text text-anchor="start" x="343" y="-215" font-family="Helvetica,sans-Serif" font-size="10.00">Drone::Rotors_rotation</text>
<text text-anchor="middle" x="398.5" y="-204" font-family="Helvetica,sans-Serif" font-size="10.00">_animation</text>
</a>
</g>
</g>
<!-- Node12&#45;&gt;Node13 -->
<g id="edge21" class="edge">
<title>Node12&#45;&gt;Node13</title>
<path fill="none" stroke="midnightblue" d="M506.12,-212C491.61,-212 476.33,-212 462.01,-212"/>
<polygon fill="midnightblue" stroke="midnightblue" points="506.53,-215.5 516.53,-212 506.53,-208.5 506.53,-215.5"/>
</g>
<!-- Node13&#45;&gt;Node5 -->
<g id="edge22" class="edge">
<title>Node13&#45;&gt;Node5</title>
<path fill="none" stroke="midnightblue" d="M324.52,-216.56C262.05,-220.47 173.48,-226 116.76,-229.55"/>
<polygon fill="midnightblue" stroke="midnightblue" points="324.93,-220.04 334.7,-215.93 324.5,-213.06 324.93,-220.04"/>
</g>
<!-- Node13&#45;&gt;Node6 -->
<g id="edge23" class="edge">
<title>Node13&#45;&gt;Node6</title>
<path fill="none" stroke="midnightblue" d="M371.46,-190.5C352.39,-175.66 325.35,-156.45 299,-144 290.2,-139.84 280.36,-136.38 270.9,-133.56"/>
<polygon fill="midnightblue" stroke="midnightblue" points="369.36,-193.3 379.37,-196.76 373.7,-187.81 369.36,-193.3"/>
</g>
<!-- Node13&#45;&gt;Node7 -->
<g id="edge24" class="edge">
<title>Node13&#45;&gt;Node7</title>
<path fill="none" stroke="midnightblue" d="M383.88,-188.05C367.54,-162.01 337.47,-121.88 299,-105 241.2,-79.65 218.82,-92.29 157,-105 132.79,-109.98 107.14,-121.37 88.53,-130.89"/>
<polygon fill="midnightblue" stroke="midnightblue" points="380.9,-189.88 389.08,-196.61 386.88,-186.24 380.9,-189.88"/>
</g>
<!-- Node13&#45;&gt;Node8 -->
<g id="edge25" class="edge">
<title>Node13&#45;&gt;Node8</title>
<path fill="none" stroke="midnightblue" d="M330.12,-194.41C315.69,-190.64 300.57,-186.69 286.54,-183.03"/>
<polygon fill="midnightblue" stroke="midnightblue" points="329.42,-197.84 339.98,-196.98 331.19,-191.07 329.42,-197.84"/>
</g>
<!-- Node13&#45;&gt;Node9 -->
<g id="edge26" class="edge">
<title>Node13&#45;&gt;Node9</title>
<path fill="none" stroke="midnightblue" d="M374.58,-234.31C337.45,-270.45 265.62,-340.36 239.13,-366.14"/>
<polygon fill="midnightblue" stroke="midnightblue" points="377.22,-236.62 381.95,-227.13 372.34,-231.6 377.22,-236.62"/>
</g>
<!-- Node13&#45;&gt;Node10 -->
<g id="edge27" class="edge">
<title>Node13&#45;&gt;Node10</title>
<path fill="none" stroke="midnightblue" d="M330.12,-229.59C315.69,-233.36 300.57,-237.31 286.54,-240.97"/>
<polygon fill="midnightblue" stroke="midnightblue" points="331.19,-232.93 339.98,-227.02 329.42,-226.16 331.19,-232.93"/>
</g>
<!-- Node14&#45;&gt;Node3 -->
<g id="edge29" class="edge">
<title>Node14&#45;&gt;Node3</title>
<path fill="none" stroke="midnightblue" d="M676.84,-300C668.23,-300 659.52,-300 651.01,-300"/>
<polygon fill="midnightblue" stroke="midnightblue" points="676.89,-303.5 686.89,-300 676.89,-296.5 676.89,-303.5"/>
</g>
<!-- Node17 -->
<g id="node17" class="node">
<title>Node17</title>
<g id="a_node17"><a xlink:href="class_scene.html#a5fb0b9741a75dec929b5ea5d6ac917a1" target="_top" xlink:title="Przelot aktywnego drona.">
<polygon fill="none" stroke="black" points="542.5,-63.5 542.5,-82.5 606.5,-82.5 606.5,-63.5 542.5,-63.5"/>
<text text-anchor="middle" x="574.5" y="-70.5" font-family="Helvetica,sans-Serif" font-size="10.00">Scene::fly</text>
</a>
</g>
</g>
<!-- Node16&#45;&gt;Node17 -->
<g id="edge32" class="edge">
<title>Node16&#45;&gt;Node17</title>
<path fill="none" stroke="midnightblue" d="M710.23,-123.86C702.4,-121.73 694.45,-119.42 687,-117 655.33,-106.73 619.69,-92.11 597.42,-82.59"/>
<polygon fill="midnightblue" stroke="midnightblue" points="709.46,-127.28 720.03,-126.45 711.25,-120.51 709.46,-127.28"/>
</g>
<!-- Node18 -->
<g id="node18" class="node">
<title>Node18</title>
<g id="a_node18"><a xlink:href="class_menu.html#acd338552222b744cd030e17776cb5d9b" target="_top" xlink:title="Obsluguje wybor menu.">
<polygon fill="none" stroke="black" points="341.5,-0.5 341.5,-19.5 455.5,-19.5 455.5,-0.5 341.5,-0.5"/>
<text text-anchor="middle" x="398.5" y="-7.5" font-family="Helvetica,sans-Serif" font-size="10.00">Menu::switch_menu</text>
</a>
</g>
</g>
<!-- Node17&#45;&gt;Node18 -->
<g id="edge33" class="edge">
<title>Node17&#45;&gt;Node18</title>
<path fill="none" stroke="midnightblue" d="M537.28,-59.89C504.05,-47.85 455.6,-30.31 425.89,-19.55"/>
<polygon fill="midnightblue" stroke="midnightblue" points="536.48,-63.32 547.07,-63.43 538.86,-56.74 536.48,-63.32"/>
</g>
<!-- Node19 -->
<g id="node19" class="node">
<title>Node19</title>
<g id="a_node19"><a xlink:href="class_menu.html#af7e6a49bd56499facef9cc98561ea169" target="_top" xlink:title="Inicjuje i obsluguje menu.">
<polygon fill="none" stroke="black" points="179,-0.5 179,-19.5 277,-19.5 277,-0.5 179,-0.5"/>
<text text-anchor="middle" x="228" y="-7.5" font-family="Helvetica,sans-Serif" font-size="10.00">Menu::init_menu</text>
</a>
</g>
</g>
<!-- Node18&#45;&gt;Node19 -->
<g id="edge34" class="edge">
<title>Node18&#45;&gt;Node19</title>
<path fill="none" stroke="midnightblue" d="M331.24,-10C313.22,-10 294.06,-10 277.25,-10"/>
<polygon fill="midnightblue" stroke="midnightblue" points="331.39,-13.5 341.39,-10 331.39,-6.5 331.39,-13.5"/>
</g>
</g>
</svg>
