<?xml version="1.0" encoding="UTF-8" standalone="no"?>
<!DOCTYPE svg PUBLIC "-//W3C//DTD SVG 1.1//EN"
 "http://www.w3.org/Graphics/SVG/1.1/DTD/svg11.dtd">
<!-- Generated by graphviz version 2.43.0 (0)
 -->
<!-- Title: Drone::Rotors_rotation_animation Pages: 1 -->
<svg width="659pt" height="180pt"
 viewBox="0.00 0.00 659.00 180.00" xmlns="http://www.w3.org/2000/svg" xmlns:xlink="http://www.w3.org/1999/xlink">
<g id="graph0" class="graph" transform="scale(1 1) rotate(0) translate(4 176)">
<title>Drone::Rotors_rotation_animation</title>
<!-- Node1 -->
<g id="node1" class="node">
<title>Node1</title>
<g id="a_node1"><a xlink:title="Metoda animujaca obrot rotorow i zapisujaca to w plikach. Metoda sluzy jako metoda pomocnicza,...">
<polygon fill="#bfbfbf" stroke="black" points="0,-55 0,-85 127,-85 127,-55 0,-55"/>
<text text-anchor="start" x="8" y="-73" font-family="Helvetica,sans-Serif" font-size="10.00">Drone::Rotors_rotation</text>
<text text-anchor="middle" x="63.5" y="-62" font-family="Helvetica,sans-Serif" font-size="10.00">_animation</text>
</a>
</g>
</g>
<!-- Node2 -->
<g id="node2" class="node">
<title>Node2</title>
<g id="a_node2"><a xlink:href="class_drone.html#aae0029f50083a01fe75c7d504c2fe5b9" target="_top" xlink:title="Metoda zapisujaca parametry drona do plikow (do plikow final kazdego z elementow)">
<polygon fill="none" stroke="black" points="180.5,-93 180.5,-123 295.5,-123 295.5,-93 180.5,-93"/>
<text text-anchor="start" x="188.5" y="-111" font-family="Helvetica,sans-Serif" font-size="10.00">Drone::Print_to_files</text>
<text text-anchor="middle" x="238" y="-100" font-family="Helvetica,sans-Serif" font-size="10.00">_drone</text>
</a>
</g>
</g>
<!-- Node1&#45;&gt;Node2 -->
<g id="edge1" class="edge">
<title>Node1&#45;&gt;Node2</title>
<path fill="none" stroke="midnightblue" d="M127.26,-83.83C141.22,-86.9 156.06,-90.17 170.17,-93.28"/>
<polygon fill="midnightblue" stroke="midnightblue" points="169.77,-96.77 180.29,-95.51 171.28,-89.94 169.77,-96.77"/>
</g>
<!-- Node8 -->
<g id="node8" class="node">
<title>Node8</title>
<g id="a_node8"><a xlink:href="class_prism.html#a22c5467db5d960bddbaf9a52f55c55cb" target="_top" xlink:title="Metoda obracajaca graniastoslup o zadany kat w 3D wokol srodka figury">
<polygon fill="none" stroke="black" points="163,-38.5 163,-57.5 313,-57.5 313,-38.5 163,-38.5"/>
<text text-anchor="middle" x="238" y="-45.5" font-family="Helvetica,sans-Serif" font-size="10.00">Prism::rotation_around_cen</text>
</a>
</g>
</g>
<!-- Node1&#45;&gt;Node8 -->
<g id="edge7" class="edge">
<title>Node1&#45;&gt;Node8</title>
<path fill="none" stroke="midnightblue" d="M127.26,-62C135.57,-60.94 144.2,-59.84 152.79,-58.74"/>
<polygon fill="midnightblue" stroke="midnightblue" points="153.37,-62.19 162.85,-57.46 152.49,-55.25 153.37,-62.19"/>
</g>
<!-- Node3 -->
<g id="node3" class="node">
<title>Node3</title>
<g id="a_node3"><a xlink:href="class_cuboid.html#abc62d20a2f1418af1c35e369da77f0fc" target="_top" xlink:title=" ">
<polygon fill="none" stroke="black" points="350.5,-152.5 350.5,-171.5 478.5,-171.5 478.5,-152.5 350.5,-152.5"/>
<text text-anchor="middle" x="414.5" y="-159.5" font-family="Helvetica,sans-Serif" font-size="10.00">Cuboid::Cuboid_To_File</text>
</a>
</g>
</g>
<!-- Node2&#45;&gt;Node3 -->
<g id="edge2" class="edge">
<title>Node2&#45;&gt;Node3</title>
<path fill="none" stroke="midnightblue" d="M285.5,-123.04C305.07,-129.31 328.11,-136.6 349,-143 356.06,-145.16 363.57,-147.42 370.87,-149.58"/>
<polygon fill="midnightblue" stroke="midnightblue" points="370.06,-153 380.65,-152.47 372.05,-146.28 370.06,-153"/>
</g>
<!-- Node5 -->
<g id="node5" class="node">
<title>Node5</title>
<g id="a_node5"><a xlink:href="class_block.html#aeef4dd3716afaea42688a4f96456ce27" target="_top" xlink:title="Metoda zwracajaca nazwe pliku z finalna (robocza) bryla">
<polygon fill="none" stroke="black" points="352,-114.5 352,-133.5 477,-133.5 477,-114.5 352,-114.5"/>
<text text-anchor="middle" x="414.5" y="-121.5" font-family="Helvetica,sans-Serif" font-size="10.00">Block::get_final_name</text>
</a>
</g>
</g>
<!-- Node2&#45;&gt;Node5 -->
<g id="edge4" class="edge">
<title>Node2&#45;&gt;Node5</title>
<path fill="none" stroke="midnightblue" d="M295.66,-113.19C310.35,-114.54 326.37,-116.01 341.73,-117.42"/>
<polygon fill="midnightblue" stroke="midnightblue" points="341.43,-120.91 351.71,-118.33 342.07,-113.94 341.43,-120.91"/>
</g>
<!-- Node6 -->
<g id="node6" class="node">
<title>Node6</title>
<g id="a_node6"><a xlink:href="class_prism.html#a2de0dab6d117fc3c8dcbc3c384d0fccd" target="_top" xlink:title=" ">
<polygon fill="none" stroke="black" points="356.5,-76.5 356.5,-95.5 472.5,-95.5 472.5,-76.5 356.5,-76.5"/>
<text text-anchor="middle" x="414.5" y="-83.5" font-family="Helvetica,sans-Serif" font-size="10.00">Prism::Prism_To_File</text>
</a>
</g>
</g>
<!-- Node2&#45;&gt;Node6 -->
<g id="edge5" class="edge">
<title>Node2&#45;&gt;Node6</title>
<path fill="none" stroke="midnightblue" d="M295.66,-100.86C311.73,-98.83 329.38,-96.61 346.02,-94.51"/>
<polygon fill="midnightblue" stroke="midnightblue" points="346.75,-97.94 356.23,-93.22 345.87,-91 346.75,-97.94"/>
</g>
<!-- Node4 -->
<g id="node4" class="node">
<title>Node4</title>
<g id="a_node4"><a xlink:href="class_cuboid.html#a12a97376443b1a15ae8342c1c75b3e1e" target="_top" xlink:title="Metoda wypisania odpowiednich wierzcholkow do pliku zgodnie z zaproponowanym sposobem zadaniu dron">
<polygon fill="none" stroke="black" points="516,-152.5 516,-171.5 651,-171.5 651,-152.5 516,-152.5"/>
<text text-anchor="middle" x="583.5" y="-159.5" font-family="Helvetica,sans-Serif" font-size="10.00">Cuboid::print_cuboid_3D</text>
</a>
</g>
</g>
<!-- Node3&#45;&gt;Node4 -->
<g id="edge3" class="edge">
<title>Node3&#45;&gt;Node4</title>
<path fill="none" stroke="midnightblue" d="M478.64,-162C487.49,-162 496.68,-162 505.76,-162"/>
<polygon fill="midnightblue" stroke="midnightblue" points="505.93,-165.5 515.93,-162 505.93,-158.5 505.93,-165.5"/>
</g>
<!-- Node7 -->
<g id="node7" class="node">
<title>Node7</title>
<g id="a_node7"><a xlink:href="class_prism.html#a764c6940e4fb65303981e8b877b28561" target="_top" xlink:title="Metoda wypisania odpowiednich wierzcholkow do pliku zgodnie z zaproponowanym sposobem zadaniu dron">
<polygon fill="none" stroke="black" points="521,-76.5 521,-95.5 646,-95.5 646,-76.5 521,-76.5"/>
<text text-anchor="middle" x="583.5" y="-83.5" font-family="Helvetica,sans-Serif" font-size="10.00">Prism::print_prism_3D</text>
</a>
</g>
</g>
<!-- Node6&#45;&gt;Node7 -->
<g id="edge6" class="edge">
<title>Node6&#45;&gt;Node7</title>
<path fill="none" stroke="midnightblue" d="M472.5,-86C484.81,-86 497.97,-86 510.75,-86"/>
<polygon fill="midnightblue" stroke="midnightblue" points="510.9,-89.5 520.9,-86 510.9,-82.5 510.9,-89.5"/>
</g>
<!-- Node9 -->
<g id="node9" class="node">
<title>Node9</title>
<g id="a_node9"><a xlink:href="class_prism.html#ade146d341c0468030f8c1258b7fe1041" target="_top" xlink:title="Metoda przesuwajaca graniastoslup o zadany wektor w 3D">
<polygon fill="none" stroke="black" points="532,-19.5 532,-38.5 635,-38.5 635,-19.5 532,-19.5"/>
<text text-anchor="middle" x="583.5" y="-26.5" font-family="Helvetica,sans-Serif" font-size="10.00">Prism::translation</text>
</a>
</g>
</g>
<!-- Node8&#45;&gt;Node9 -->
<g id="edge8" class="edge">
<title>Node8&#45;&gt;Node9</title>
<path fill="none" stroke="midnightblue" d="M313.11,-43.9C375.44,-40.45 463.46,-35.58 521.71,-32.36"/>
<polygon fill="midnightblue" stroke="midnightblue" points="522.07,-35.85 531.86,-31.8 521.69,-28.86 522.07,-35.85"/>
</g>
<!-- Node10 -->
<g id="node10" class="node">
<title>Node10</title>
<g id="a_node10"><a xlink:href="class_prism.html#afed2c26932d5cb152fd620d2acbfbc3e" target="_top" xlink:title="Metoda przesuwajaca graniastoslup do srodka ukladu wspolrzednych (tak, ze srodek graniastoslupa pokry...">
<polygon fill="none" stroke="black" points="349,-0.5 349,-19.5 480,-19.5 480,-0.5 349,-0.5"/>
<text text-anchor="middle" x="414.5" y="-7.5" font-family="Helvetica,sans-Serif" font-size="10.00">Prism::translation_to_O</text>
</a>
</g>
</g>
<!-- Node8&#45;&gt;Node10 -->
<g id="edge9" class="edge">
<title>Node8&#45;&gt;Node10</title>
<path fill="none" stroke="midnightblue" d="M283.03,-38.41C306.37,-33.33 335.23,-27.04 359.87,-21.68"/>
<polygon fill="midnightblue" stroke="midnightblue" points="360.76,-25.07 369.78,-19.52 359.27,-18.23 360.76,-25.07"/>
</g>
<!-- Node10&#45;&gt;Node9 -->
<g id="edge10" class="edge">
<title>Node10&#45;&gt;Node9</title>
<path fill="none" stroke="midnightblue" d="M480.07,-17.35C493.74,-18.9 508.14,-20.54 521.67,-22.08"/>
<polygon fill="midnightblue" stroke="midnightblue" points="521.49,-25.58 531.83,-23.23 522.28,-18.63 521.49,-25.58"/>
</g>
</g>
</svg>
