<?xml version="1.0" encoding="UTF-8" standalone="no"?>
<!DOCTYPE svg PUBLIC "-//W3C//DTD SVG 1.1//EN"
 "http://www.w3.org/Graphics/SVG/1.1/DTD/svg11.dtd">
<!-- Generated by graphviz version 2.43.0 (0)
 -->
<!-- Title: Scene::add_basic_objects Pages: 1 -->
<svg width="483pt" height="39pt"
 viewBox="0.00 0.00 483.00 39.00" xmlns="http://www.w3.org/2000/svg" xmlns:xlink="http://www.w3.org/1999/xlink">
<g id="graph0" class="graph" transform="scale(1 1) rotate(0) translate(4 35)">
<title>Scene::add_basic_objects</title>
<!-- Node1 -->
<g id="node1" class="node">
<title>Node1</title>
<g id="a_node1"><a xlink:title="Metoda dodajaca podstawowe elementy do listy objects.">
<polygon fill="#bfbfbf" stroke="black" points="0,-6 0,-25 141,-25 141,-6 0,-6"/>
<text text-anchor="middle" x="70.5" y="-13" font-family="Helvetica,sans-Serif" font-size="10.00">Scene::add_basic_objects</text>
</a>
</g>
</g>
<!-- Node2 -->
<g id="node2" class="node">
<title>Node2</title>
<g id="a_node2"><a xlink:href="class_scene.html#ad20f726a6608059d57241a6de68025a3" target="_top" xlink:title="Metoda dodajaca prostopadloscian, ostroslup lub Triangular do listy objects.">
<polygon fill="none" stroke="black" points="177,-0.5 177,-30.5 309,-30.5 309,-0.5 177,-0.5"/>
<text text-anchor="start" x="185" y="-18.5" font-family="Helvetica,sans-Serif" font-size="10.00">Scene::add_object_type</text>
<text text-anchor="middle" x="243" y="-7.5" font-family="Helvetica,sans-Serif" font-size="10.00">_cuboid</text>
</a>
</g>
</g>
<!-- Node1&#45;&gt;Node2 -->
<g id="edge1" class="edge">
<title>Node1&#45;&gt;Node2</title>
<path fill="none" stroke="midnightblue" d="M141.34,-15.5C149.71,-15.5 158.28,-15.5 166.72,-15.5"/>
<polygon fill="midnightblue" stroke="midnightblue" points="166.93,-19 176.93,-15.5 166.93,-12 166.93,-19"/>
</g>
<!-- Node3 -->
<g id="node3" class="node">
<title>Node3</title>
<g id="a_node3"><a xlink:href="class_matrix.html#a4161a82fb401e474052c21b25a06a5ba" target="_top" xlink:title=" ">
<polygon fill="none" stroke="black" points="345,-6 345,-25 475,-25 475,-6 345,-6"/>
<text text-anchor="middle" x="410" y="-13" font-family="Helvetica,sans-Serif" font-size="10.00">Matrix::rotation_matrix</text>
</a>
</g>
</g>
<!-- Node2&#45;&gt;Node3 -->
<g id="edge2" class="edge">
<title>Node2&#45;&gt;Node3</title>
<path fill="none" stroke="midnightblue" d="M309.21,-15.5C317.54,-15.5 326.11,-15.5 334.57,-15.5"/>
<polygon fill="midnightblue" stroke="midnightblue" points="334.8,-19 344.8,-15.5 334.8,-12 334.8,-19"/>
</g>
</g>
</svg>
