<?xml version="1.0" encoding="UTF-8" standalone="no"?>
<!DOCTYPE svg PUBLIC "-//W3C//DTD SVG 1.1//EN"
 "http://www.w3.org/Graphics/SVG/1.1/DTD/svg11.dtd">
<!-- Generated by graphviz version 2.43.0 (0)
 -->
<!-- Title: Prism::get_vec_pairs Pages: 1 -->
<svg width="426pt" height="66pt"
 viewBox="0.00 0.00 426.00 66.00" xmlns="http://www.w3.org/2000/svg" xmlns:xlink="http://www.w3.org/1999/xlink">
<g id="graph0" class="graph" transform="scale(1 1) rotate(0) translate(4 62)">
<title>Prism::get_vec_pairs</title>
<!-- Node1 -->
<g id="node1" class="node">
<title>Node1</title>
<g id="a_node1"><a xlink:title="Metoda zwracajaca do tablicy wektorow wektory &quot;przeciwlegle&quot; obydwoch podstaw graniastoslupa: Dla 2 p...">
<polygon fill="#bfbfbf" stroke="black" points="300,-19.5 300,-38.5 418,-38.5 418,-19.5 300,-19.5"/>
<text text-anchor="middle" x="359" y="-26.5" font-family="Helvetica,sans-Serif" font-size="10.00">Prism::get_vec_pairs</text>
</a>
</g>
</g>
<!-- Node2 -->
<g id="node2" class="node">
<title>Node2</title>
<g id="a_node2"><a xlink:href="class_prism.html#ab708a61827a72bb83b58716cbbb8b71c" target="_top" xlink:title="Metoda sprawdzajaca czy wektory zwrocone przez get_vec_opp() sa parami rowne. Ponadto sprawdza tez ro...">
<polygon fill="none" stroke="black" points="133,-38.5 133,-57.5 264,-57.5 264,-38.5 133,-38.5"/>
<text text-anchor="middle" x="198.5" y="-45.5" font-family="Helvetica,sans-Serif" font-size="10.00">Prism::check_vec_pairs</text>
</a>
</g>
</g>
<!-- Node1&#45;&gt;Node2 -->
<g id="edge1" class="edge">
<title>Node1&#45;&gt;Node2</title>
<path fill="none" stroke="midnightblue" d="M289.91,-37.16C281.32,-38.19 272.56,-39.24 264.03,-40.26"/>
<polygon fill="midnightblue" stroke="midnightblue" points="290.37,-40.63 299.88,-35.97 289.53,-33.68 290.37,-40.63"/>
</g>
<!-- Node4 -->
<g id="node4" class="node">
<title>Node4</title>
<g id="a_node4"><a xlink:href="class_prism.html#a3df37e0c818988e0f4a7412ed063df67" target="_top" xlink:title="Metoda sprawdzajaca katy miedzy krawedziami &quot;pionowymi&quot; graniastoslupa sa prostopadle do podstaw.">
<polygon fill="none" stroke="black" points="134.5,-0.5 134.5,-19.5 262.5,-19.5 262.5,-0.5 134.5,-0.5"/>
<text text-anchor="middle" x="198.5" y="-7.5" font-family="Helvetica,sans-Serif" font-size="10.00">Prism::check_vec_perp</text>
</a>
</g>
</g>
<!-- Node1&#45;&gt;Node4 -->
<g id="edge3" class="edge">
<title>Node1&#45;&gt;Node4</title>
<path fill="none" stroke="midnightblue" d="M289.82,-20.83C280.81,-19.75 271.61,-18.64 262.69,-17.57"/>
<polygon fill="midnightblue" stroke="midnightblue" points="289.53,-24.32 299.88,-22.03 290.37,-17.37 289.53,-24.32"/>
</g>
<!-- Node3 -->
<g id="node3" class="node">
<title>Node3</title>
<g id="a_node3"><a xlink:href="class_prism.html#ad4f328dfec3ee556f1f3be26a6b7d1d8" target="_top" xlink:title="Sprawdza czy graniastoslup jest poprawnie zbudowany">
<polygon fill="none" stroke="black" points="0,-38.5 0,-57.5 97,-57.5 97,-38.5 0,-38.5"/>
<text text-anchor="middle" x="48.5" y="-45.5" font-family="Helvetica,sans-Serif" font-size="10.00">Prism::check_pri</text>
</a>
</g>
</g>
<!-- Node2&#45;&gt;Node3 -->
<g id="edge2" class="edge">
<title>Node2&#45;&gt;Node3</title>
<path fill="none" stroke="midnightblue" d="M122.45,-48C113.79,-48 105.16,-48 97.01,-48"/>
<polygon fill="midnightblue" stroke="midnightblue" points="122.59,-51.5 132.59,-48 122.59,-44.5 122.59,-51.5"/>
</g>
</g>
</svg>
