<?xml version="1.0" encoding="UTF-8" standalone="no"?>
<!DOCTYPE svg PUBLIC "-//W3C//DTD SVG 1.1//EN"
 "http://www.w3.org/Graphics/SVG/1.1/DTD/svg11.dtd">
<!-- Generated by graphviz version 2.43.0 (0)
 -->
<!-- Title: Plane Pages: 1 -->
<svg width="554pt" height="1522pt"
 viewBox="0.00 0.00 553.50 1522.00" xmlns="http://www.w3.org/2000/svg" xmlns:xlink="http://www.w3.org/1999/xlink">
<g id="graph0" class="graph" transform="scale(1 1) rotate(0) translate(4 1518)">
<title>Plane</title>
<!-- Node1 -->
<g id="node1" class="node">
<title>Node1</title>
<g id="a_node1"><a xlink:title="Opisuje plaska powierzchnie w 3D reprezentujaca powierzchnie marsa, plasczyzna docelowo rysuje sie w ...">
<polygon fill="#bfbfbf" stroke="black" points="294.5,-0.5 294.5,-90.5 390.5,-90.5 390.5,-0.5 294.5,-0.5"/>
<text text-anchor="middle" x="342.5" y="-78.5" font-family="Helvetica,sans-Serif" font-size="10.00">Plane</text>
<polyline fill="none" stroke="black" points="294.5,-71.5 390.5,-71.5 "/>
<text text-anchor="middle" x="342.5" y="-59.5" font-family="Helvetica,sans-Serif" font-size="10.00"> </text>
<polyline fill="none" stroke="black" points="294.5,-52.5 390.5,-52.5 "/>
<text text-anchor="start" x="302.5" y="-40.5" font-family="Helvetica,sans-Serif" font-size="10.00">+ Plane()</text>
<text text-anchor="start" x="302.5" y="-29.5" font-family="Helvetica,sans-Serif" font-size="10.00">+ get_plane()</text>
<text text-anchor="start" x="302.5" y="-18.5" font-family="Helvetica,sans-Serif" font-size="10.00">+ check_plane()</text>
<text text-anchor="start" x="302.5" y="-7.5" font-family="Helvetica,sans-Serif" font-size="10.00">+ make_plane()</text>
</a>
</g>
</g>
<!-- Node2 -->
<g id="node2" class="node">
<title>Node2</title>
<g id="a_node2"><a xlink:href="class_block.html" target="_top" xlink:title="Opisuje figure geometryczna w przestrzeni trojwymiarowej.">
<polygon fill="none" stroke="black" points="228,-128.5 228,-372.5 353,-372.5 353,-128.5 228,-128.5"/>
<text text-anchor="middle" x="290.5" y="-360.5" font-family="Helvetica,sans-Serif" font-size="10.00">Block</text>
<polyline fill="none" stroke="black" points="228,-353.5 353,-353.5 "/>
<text text-anchor="middle" x="290.5" y="-341.5" font-family="Helvetica,sans-Serif" font-size="10.00"> </text>
<polyline fill="none" stroke="black" points="228,-334.5 353,-334.5 "/>
<text text-anchor="start" x="236" y="-322.5" font-family="Helvetica,sans-Serif" font-size="10.00">+ Block()</text>
<text text-anchor="start" x="236" y="-311.5" font-family="Helvetica,sans-Serif" font-size="10.00">+ Block()</text>
<text text-anchor="start" x="236" y="-300.5" font-family="Helvetica,sans-Serif" font-size="10.00">+ Block()</text>
<text text-anchor="start" x="236" y="-289.5" font-family="Helvetica,sans-Serif" font-size="10.00">+ ~Block()</text>
<text text-anchor="start" x="236" y="-278.5" font-family="Helvetica,sans-Serif" font-size="10.00">+ set_sample_name()</text>
<text text-anchor="start" x="236" y="-267.5" font-family="Helvetica,sans-Serif" font-size="10.00">+ set_final_name()</text>
<text text-anchor="start" x="236" y="-256.5" font-family="Helvetica,sans-Serif" font-size="10.00">+ set_scale()</text>
<text text-anchor="start" x="236" y="-245.5" font-family="Helvetica,sans-Serif" font-size="10.00">+ set_scale()</text>
<text text-anchor="start" x="236" y="-234.5" font-family="Helvetica,sans-Serif" font-size="10.00">+ check_block()</text>
<text text-anchor="start" x="236" y="-223.5" font-family="Helvetica,sans-Serif" font-size="10.00">+ get_sample_name()</text>
<text text-anchor="start" x="236" y="-212.5" font-family="Helvetica,sans-Serif" font-size="10.00">+ get_final_name()</text>
<text text-anchor="start" x="236" y="-201.5" font-family="Helvetica,sans-Serif" font-size="10.00">+ get_scale()</text>
<text text-anchor="start" x="236" y="-190.5" font-family="Helvetica,sans-Serif" font-size="10.00">+ print_name()</text>
<text text-anchor="start" x="236" y="-179.5" font-family="Helvetica,sans-Serif" font-size="10.00">+ print_pos()</text>
<text text-anchor="start" x="236" y="-168.5" font-family="Helvetica,sans-Serif" font-size="10.00">+ get_pos()</text>
<text text-anchor="start" x="236" y="-157.5" font-family="Helvetica,sans-Serif" font-size="10.00">+ switch_pos()</text>
<text text-anchor="start" x="236" y="-146.5" font-family="Helvetica,sans-Serif" font-size="10.00">+ get_type()</text>
<text text-anchor="start" x="236" y="-135.5" font-family="Helvetica,sans-Serif" font-size="10.00">+ get_basis_pro()</text>
</a>
</g>
</g>
<!-- Node2&#45;&gt;Node1 -->
<g id="edge1" class="edge">
<title>Node2&#45;&gt;Node1</title>
<path fill="none" stroke="midnightblue" d="M324.05,-118.53C326.57,-108.69 328.99,-99.25 331.19,-90.64"/>
<polygon fill="none" stroke="midnightblue" points="320.59,-117.93 321.5,-128.48 327.37,-119.66 320.59,-117.93"/>
</g>
<!-- Node3 -->
<g id="node3" class="node">
<title>Node3</title>
<g id="a_node3"><a xlink:href="class_vector.html" target="_top" xlink:title=" ">
<polygon fill="none" stroke="black" points="160,-431.5 160,-719.5 275,-719.5 275,-431.5 160,-431.5"/>
<text text-anchor="middle" x="217.5" y="-707.5" font-family="Helvetica,sans-Serif" font-size="10.00">Vector&lt; double, 3 &gt;</text>
<polyline fill="none" stroke="black" points="160,-700.5 275,-700.5 "/>
<text text-anchor="middle" x="217.5" y="-688.5" font-family="Helvetica,sans-Serif" font-size="10.00"> </text>
<polyline fill="none" stroke="black" points="160,-681.5 275,-681.5 "/>
<text text-anchor="start" x="168" y="-669.5" font-family="Helvetica,sans-Serif" font-size="10.00">+ Vector()</text>
<text text-anchor="start" x="168" y="-658.5" font-family="Helvetica,sans-Serif" font-size="10.00">+ Vector()</text>
<text text-anchor="start" x="168" y="-647.5" font-family="Helvetica,sans-Serif" font-size="10.00">+ operator+()</text>
<text text-anchor="start" x="168" y="-636.5" font-family="Helvetica,sans-Serif" font-size="10.00">+ operator&#45;()</text>
<text text-anchor="start" x="168" y="-625.5" font-family="Helvetica,sans-Serif" font-size="10.00">+ operator*()</text>
<text text-anchor="start" x="168" y="-614.5" font-family="Helvetica,sans-Serif" font-size="10.00">+ operator/()</text>
<text text-anchor="start" x="168" y="-603.5" font-family="Helvetica,sans-Serif" font-size="10.00">+ operator==()</text>
<text text-anchor="start" x="168" y="-592.5" font-family="Helvetica,sans-Serif" font-size="10.00">+ scale_vec()</text>
<text text-anchor="start" x="168" y="-581.5" font-family="Helvetica,sans-Serif" font-size="10.00">+ rotate()</text>
<text text-anchor="start" x="168" y="-570.5" font-family="Helvetica,sans-Serif" font-size="10.00">+ rotate()</text>
<text text-anchor="start" x="168" y="-559.5" font-family="Helvetica,sans-Serif" font-size="10.00">+ rotate()</text>
<text text-anchor="start" x="168" y="-548.5" font-family="Helvetica,sans-Serif" font-size="10.00">+ modulus2()</text>
<text text-anchor="start" x="168" y="-537.5" font-family="Helvetica,sans-Serif" font-size="10.00">+ get_vec()</text>
<text text-anchor="start" x="168" y="-526.5" font-family="Helvetica,sans-Serif" font-size="10.00">+ translation()</text>
<text text-anchor="start" x="168" y="-515.5" font-family="Helvetica,sans-Serif" font-size="10.00">+ get_len()</text>
<text text-anchor="start" x="168" y="-504.5" font-family="Helvetica,sans-Serif" font-size="10.00">+ get_slope_angle()</text>
<text text-anchor="start" x="168" y="-493.5" font-family="Helvetica,sans-Serif" font-size="10.00">+ get_slope_angle()</text>
<text text-anchor="start" x="168" y="-482.5" font-family="Helvetica,sans-Serif" font-size="10.00">+ get_slope_angle()</text>
<text text-anchor="start" x="168" y="-471.5" font-family="Helvetica,sans-Serif" font-size="10.00">+ get_quarter()</text>
<text text-anchor="start" x="168" y="-460.5" font-family="Helvetica,sans-Serif" font-size="10.00">+ operator[]()</text>
<text text-anchor="start" x="168" y="-449.5" font-family="Helvetica,sans-Serif" font-size="10.00">+ operator[]()</text>
<text text-anchor="start" x="168" y="-438.5" font-family="Helvetica,sans-Serif" font-size="10.00">+ scalar_prod()</text>
</a>
</g>
</g>
<!-- Node3&#45;&gt;Node2 -->
<g id="edge2" class="edge">
<title>Node3&#45;&gt;Node2</title>
<path fill="none" stroke="#404040" d="M239.88,-431.4C242.57,-417.7 245.44,-404.06 248.5,-391 249.01,-388.83 249.53,-386.65 250.07,-384.45"/>
<polygon fill="none" stroke="#404040" points="250.12,-384.25 247.7,-377.45 253.04,-372.61 255.46,-379.4 250.12,-384.25"/>
<text text-anchor="middle" x="267" y="-399.5" font-family="Helvetica,sans-Serif" font-size="10.00"> #scale</text>
</g>
<!-- Node4 -->
<g id="node4" class="node">
<title>Node4</title>
<g id="a_node4"><a xlink:href="class_count.html" target="_top" xlink:title=" ">
<polygon fill="none" stroke="black" points="248.5,-1103.5 248.5,-1226.5 382.5,-1226.5 382.5,-1103.5 248.5,-1103.5"/>
<text text-anchor="start" x="256.5" y="-1214.5" font-family="Helvetica,sans-Serif" font-size="10.00">Count&lt; Vector&lt; double,</text>
<text text-anchor="middle" x="315.5" y="-1203.5" font-family="Helvetica,sans-Serif" font-size="10.00"> SIZE &gt; &gt;</text>
<polyline fill="none" stroke="black" points="248.5,-1196.5 382.5,-1196.5 "/>
<text text-anchor="middle" x="315.5" y="-1184.5" font-family="Helvetica,sans-Serif" font-size="10.00"> </text>
<polyline fill="none" stroke="black" points="248.5,-1177.5 382.5,-1177.5 "/>
<text text-anchor="start" x="256.5" y="-1165.5" font-family="Helvetica,sans-Serif" font-size="10.00">+ Count()</text>
<text text-anchor="start" x="256.5" y="-1154.5" font-family="Helvetica,sans-Serif" font-size="10.00">+ Count()</text>
<text text-anchor="start" x="256.5" y="-1143.5" font-family="Helvetica,sans-Serif" font-size="10.00">+ ~Count()</text>
<text text-anchor="start" x="256.5" y="-1132.5" font-family="Helvetica,sans-Serif" font-size="10.00">+ get_count()</text>
<text text-anchor="start" x="256.5" y="-1121.5" font-family="Helvetica,sans-Serif" font-size="10.00">+ print_count()</text>
<text text-anchor="start" x="256.5" y="-1110.5" font-family="Helvetica,sans-Serif" font-size="10.00">+ zero_count()</text>
</a>
</g>
</g>
<!-- Node4&#45;&gt;Node3 -->
<g id="edge3" class="edge">
<title>Node4&#45;&gt;Node3</title>
<path fill="none" stroke="midnightblue" d="M318.82,-1093.26C321.09,-1007.79 319.43,-860.24 289.5,-738 287.25,-728.83 281.93,-714.75 275.14,-698.64"/>
<polygon fill="none" stroke="midnightblue" points="315.32,-1093.27 318.52,-1103.37 322.31,-1093.48 315.32,-1093.27"/>
</g>
<!-- Node5 -->
<g id="node5" class="node">
<title>Node5</title>
<g id="a_node5"><a xlink:title=" ">
<polygon fill="none" stroke="#bfbfbf" points="353,-1456.5 353,-1513.5 382,-1513.5 382,-1456.5 353,-1456.5"/>
<text text-anchor="middle" x="367.5" y="-1501.5" font-family="Helvetica,sans-Serif" font-size="10.00">int</text>
<polyline fill="none" stroke="#bfbfbf" points="353,-1494.5 382,-1494.5 "/>
<text text-anchor="middle" x="367.5" y="-1482.5" font-family="Helvetica,sans-Serif" font-size="10.00"> </text>
<polyline fill="none" stroke="#bfbfbf" points="353,-1475.5 382,-1475.5 "/>
<text text-anchor="middle" x="367.5" y="-1463.5" font-family="Helvetica,sans-Serif" font-size="10.00"> </text>
</a>
</g>
</g>
<!-- Node5&#45;&gt;Node4 -->
<g id="edge4" class="edge">
<title>Node5&#45;&gt;Node4</title>
<path fill="none" stroke="#404040" d="M382.17,-1477.9C397.15,-1470.79 419.57,-1457.46 429.5,-1438 468.51,-1361.6 471.6,-1320.83 431.5,-1245 422.62,-1228.21 408.4,-1214.33 392.91,-1203.13"/>
<polygon fill="none" stroke="#404040" points="392.54,-1202.88 385.32,-1202.83 382.59,-1196.16 389.8,-1196.2 392.54,-1202.88"/>
<text text-anchor="middle" x="502.5" y="-1344.5" font-family="Helvetica,sans-Serif" font-size="10.00"> #objects_alive</text>
<text text-anchor="middle" x="502.5" y="-1333.5" font-family="Helvetica,sans-Serif" font-size="10.00">#objects_created</text>
</g>
<!-- Node6 -->
<g id="node6" class="node">
<title>Node6</title>
<g id="a_node6"><a xlink:href="class_count.html" target="_top" xlink:title="Pozwala na liczenie instancji stworzonych obiektow.">
<polygon fill="none" stroke="black" points="245.5,-1285.5 245.5,-1397.5 335.5,-1397.5 335.5,-1285.5 245.5,-1285.5"/>
<text text-anchor="middle" x="290.5" y="-1385.5" font-family="Helvetica,sans-Serif" font-size="10.00">Count&lt; T &gt;</text>
<polyline fill="none" stroke="black" points="245.5,-1378.5 335.5,-1378.5 "/>
<text text-anchor="middle" x="290.5" y="-1366.5" font-family="Helvetica,sans-Serif" font-size="10.00"> </text>
<polyline fill="none" stroke="black" points="245.5,-1359.5 335.5,-1359.5 "/>
<text text-anchor="start" x="253.5" y="-1347.5" font-family="Helvetica,sans-Serif" font-size="10.00">+ Count()</text>
<text text-anchor="start" x="253.5" y="-1336.5" font-family="Helvetica,sans-Serif" font-size="10.00">+ Count()</text>
<text text-anchor="start" x="253.5" y="-1325.5" font-family="Helvetica,sans-Serif" font-size="10.00">+ ~Count()</text>
<text text-anchor="start" x="253.5" y="-1314.5" font-family="Helvetica,sans-Serif" font-size="10.00">+ get_count()</text>
<text text-anchor="start" x="253.5" y="-1303.5" font-family="Helvetica,sans-Serif" font-size="10.00">+ print_count()</text>
<text text-anchor="start" x="253.5" y="-1292.5" font-family="Helvetica,sans-Serif" font-size="10.00">+ zero_count()</text>
</a>
</g>
</g>
<!-- Node5&#45;&gt;Node6 -->
<g id="edge6" class="edge">
<title>Node5&#45;&gt;Node6</title>
<path fill="none" stroke="#404040" d="M352.84,-1457.05C345.28,-1443.17 335.71,-1425.59 326.35,-1408.39"/>
<polygon fill="none" stroke="#404040" points="326.31,-1408.3 319.93,-1404.95 320.57,-1397.76 326.95,-1401.12 326.31,-1408.3"/>
<text text-anchor="middle" x="382.5" y="-1430" font-family="Helvetica,sans-Serif" font-size="10.00"> #objects_alive</text>
<text text-anchor="middle" x="382.5" y="-1419" font-family="Helvetica,sans-Serif" font-size="10.00">#objects_created</text>
</g>
<!-- Node6&#45;&gt;Node4 -->
<g id="edge5" class="edge">
<title>Node6&#45;&gt;Node4</title>
<path fill="none" stroke="orange" d="M288.71,-1275.38C289.14,-1265.17 290,-1254.77 291.5,-1245 292.42,-1239.05 293.68,-1232.93 295.15,-1226.84"/>
<polygon fill="orange" stroke="orange" points="285.21,-1275.39 288.41,-1285.49 292.2,-1275.6 285.21,-1275.39"/>
<text text-anchor="middle" x="361.5" y="-1253.5" font-family="Helvetica,sans-Serif" font-size="10.00"> &lt; Vector&lt; double, SIZE &gt; &gt;</text>
</g>
<!-- Node9 -->
<g id="node9" class="node">
<title>Node9</title>
<g id="a_node9"><a xlink:href="class_count.html" target="_top" xlink:title=" ">
<polygon fill="none" stroke="black" points="51,-1103.5 51,-1226.5 174,-1226.5 174,-1103.5 51,-1103.5"/>
<text text-anchor="start" x="59" y="-1214.5" font-family="Helvetica,sans-Serif" font-size="10.00">Count&lt; Vector&lt; type,</text>
<text text-anchor="middle" x="112.5" y="-1203.5" font-family="Helvetica,sans-Serif" font-size="10.00"> SIZE &gt; &gt;</text>
<polyline fill="none" stroke="black" points="51,-1196.5 174,-1196.5 "/>
<text text-anchor="middle" x="112.5" y="-1184.5" font-family="Helvetica,sans-Serif" font-size="10.00"> </text>
<polyline fill="none" stroke="black" points="51,-1177.5 174,-1177.5 "/>
<text text-anchor="start" x="59" y="-1165.5" font-family="Helvetica,sans-Serif" font-size="10.00">+ Count()</text>
<text text-anchor="start" x="59" y="-1154.5" font-family="Helvetica,sans-Serif" font-size="10.00">+ Count()</text>
<text text-anchor="start" x="59" y="-1143.5" font-family="Helvetica,sans-Serif" font-size="10.00">+ ~Count()</text>
<text text-anchor="start" x="59" y="-1132.5" font-family="Helvetica,sans-Serif" font-size="10.00">+ get_count()</text>
<text text-anchor="start" x="59" y="-1121.5" font-family="Helvetica,sans-Serif" font-size="10.00">+ print_count()</text>
<text text-anchor="start" x="59" y="-1110.5" font-family="Helvetica,sans-Serif" font-size="10.00">+ zero_count()</text>
</a>
</g>
</g>
<!-- Node6&#45;&gt;Node9 -->
<g id="edge11" class="edge">
<title>Node6&#45;&gt;Node9</title>
<path fill="none" stroke="orange" d="M236.02,-1320.88C208.9,-1308.82 177.33,-1291.03 155.5,-1267 144.99,-1255.43 136.81,-1240.91 130.53,-1226.52"/>
<polygon fill="orange" stroke="orange" points="234.83,-1324.18 245.4,-1324.9 237.59,-1317.74 234.83,-1324.18"/>
<text text-anchor="middle" x="220" y="-1253.5" font-family="Helvetica,sans-Serif" font-size="10.00"> &lt; Vector&lt; type, SIZE &gt; &gt;</text>
</g>
<!-- Node7 -->
<g id="node7" class="node">
<title>Node7</title>
<g id="a_node7"><a xlink:title=" ">
<polygon fill="none" stroke="#bfbfbf" points="348.5,-883 348.5,-940 398.5,-940 398.5,-883 348.5,-883"/>
<text text-anchor="middle" x="373.5" y="-928" font-family="Helvetica,sans-Serif" font-size="10.00">double</text>
<polyline fill="none" stroke="#bfbfbf" points="348.5,-921 398.5,-921 "/>
<text text-anchor="middle" x="373.5" y="-909" font-family="Helvetica,sans-Serif" font-size="10.00"> </text>
<polyline fill="none" stroke="#bfbfbf" points="348.5,-902 398.5,-902 "/>
<text text-anchor="middle" x="373.5" y="-890" font-family="Helvetica,sans-Serif" font-size="10.00"> </text>
</a>
</g>
</g>
<!-- Node7&#45;&gt;Node1 -->
<g id="edge14" class="edge">
<title>Node7&#45;&gt;Node1</title>
<path fill="none" stroke="#404040" d="M375.59,-882.94C382.74,-781.69 403.58,-420.98 362.5,-128 361.33,-119.66 359.67,-110.94 357.8,-102.43"/>
<polygon fill="none" stroke="#404040" points="357.77,-102.28 352.51,-97.35 355.05,-90.6 360.3,-95.53 357.77,-102.28"/>
<text text-anchor="middle" x="407.5" y="-405" font-family="Helvetica,sans-Serif" font-size="10.00"> &#45;range_x</text>
<text text-anchor="middle" x="407.5" y="-394" font-family="Helvetica,sans-Serif" font-size="10.00">&#45;range_y</text>
</g>
<!-- Node7&#45;&gt;Node3 -->
<g id="edge7" class="edge">
<title>Node7&#45;&gt;Node3</title>
<path fill="none" stroke="#404040" d="M372.41,-883C369.55,-845.91 359.38,-779.73 323.5,-738 311.05,-723.53 298.03,-733.47 284.5,-720 284.1,-719.6 283.7,-719.2 283.3,-718.79"/>
<polygon fill="none" stroke="#404040" points="283.3,-718.79 276.31,-717.02 275.26,-709.88 282.25,-711.66 283.3,-718.79"/>
<text text-anchor="middle" x="342" y="-741" font-family="Helvetica,sans-Serif" font-size="10.00"> &#45;size</text>
</g>
<!-- Node8 -->
<g id="node8" class="node">
<title>Node8</title>
<g id="a_node8"><a xlink:href="class_vector.html" target="_top" xlink:title="Opisuje wektor o SIZE&#45;wierszach.">
<polygon fill="none" stroke="black" points="152,-767.5 152,-1055.5 271,-1055.5 271,-767.5 152,-767.5"/>
<text text-anchor="middle" x="211.5" y="-1043.5" font-family="Helvetica,sans-Serif" font-size="10.00">Vector&lt; type, SIZE &gt;</text>
<polyline fill="none" stroke="black" points="152,-1036.5 271,-1036.5 "/>
<text text-anchor="middle" x="211.5" y="-1024.5" font-family="Helvetica,sans-Serif" font-size="10.00"> </text>
<polyline fill="none" stroke="black" points="152,-1017.5 271,-1017.5 "/>
<text text-anchor="start" x="160" y="-1005.5" font-family="Helvetica,sans-Serif" font-size="10.00">+ Vector()</text>
<text text-anchor="start" x="160" y="-994.5" font-family="Helvetica,sans-Serif" font-size="10.00">+ Vector()</text>
<text text-anchor="start" x="160" y="-983.5" font-family="Helvetica,sans-Serif" font-size="10.00">+ operator+()</text>
<text text-anchor="start" x="160" y="-972.5" font-family="Helvetica,sans-Serif" font-size="10.00">+ operator&#45;()</text>
<text text-anchor="start" x="160" y="-961.5" font-family="Helvetica,sans-Serif" font-size="10.00">+ operator*()</text>
<text text-anchor="start" x="160" y="-950.5" font-family="Helvetica,sans-Serif" font-size="10.00">+ operator/()</text>
<text text-anchor="start" x="160" y="-939.5" font-family="Helvetica,sans-Serif" font-size="10.00">+ operator==()</text>
<text text-anchor="start" x="160" y="-928.5" font-family="Helvetica,sans-Serif" font-size="10.00">+ scale_vec()</text>
<text text-anchor="start" x="160" y="-917.5" font-family="Helvetica,sans-Serif" font-size="10.00">+ rotate()</text>
<text text-anchor="start" x="160" y="-906.5" font-family="Helvetica,sans-Serif" font-size="10.00">+ modulus2()</text>
<text text-anchor="start" x="160" y="-895.5" font-family="Helvetica,sans-Serif" font-size="10.00">+ get_vec()</text>
<text text-anchor="start" x="160" y="-884.5" font-family="Helvetica,sans-Serif" font-size="10.00">+ translation()</text>
<text text-anchor="start" x="160" y="-873.5" font-family="Helvetica,sans-Serif" font-size="10.00">+ get_len()</text>
<text text-anchor="start" x="160" y="-862.5" font-family="Helvetica,sans-Serif" font-size="10.00">+ get_slope_angle()</text>
<text text-anchor="start" x="160" y="-851.5" font-family="Helvetica,sans-Serif" font-size="10.00">+ get_quarter()</text>
<text text-anchor="start" x="160" y="-840.5" font-family="Helvetica,sans-Serif" font-size="10.00">+ operator[]()</text>
<text text-anchor="start" x="160" y="-829.5" font-family="Helvetica,sans-Serif" font-size="10.00">+ operator[]()</text>
<text text-anchor="start" x="160" y="-818.5" font-family="Helvetica,sans-Serif" font-size="10.00">+ scalar_prod()</text>
<text text-anchor="start" x="160" y="-807.5" font-family="Helvetica,sans-Serif" font-size="10.00">+ rotate()</text>
<text text-anchor="start" x="160" y="-796.5" font-family="Helvetica,sans-Serif" font-size="10.00">+ get_slope_angle()</text>
<text text-anchor="start" x="160" y="-785.5" font-family="Helvetica,sans-Serif" font-size="10.00">+ rotate()</text>
<text text-anchor="start" x="160" y="-774.5" font-family="Helvetica,sans-Serif" font-size="10.00">+ get_slope_angle()</text>
</a>
</g>
</g>
<!-- Node8&#45;&gt;Node3 -->
<g id="edge8" class="edge">
<title>Node8&#45;&gt;Node3</title>
<path fill="none" stroke="orange" d="M214.25,-757.34C214.48,-744.76 214.71,-732.07 214.93,-719.57"/>
<polygon fill="orange" stroke="orange" points="210.75,-757.34 214.07,-767.4 217.75,-757.46 210.75,-757.34"/>
<text text-anchor="middle" x="250" y="-741" font-family="Helvetica,sans-Serif" font-size="10.00"> &lt; double, 3 &gt;</text>
</g>
<!-- Node9&#45;&gt;Node8 -->
<g id="edge9" class="edge">
<title>Node9&#45;&gt;Node8</title>
<path fill="none" stroke="midnightblue" d="M140.08,-1093.94C144.83,-1081.86 149.93,-1068.91 155.13,-1055.7"/>
<polygon fill="none" stroke="midnightblue" points="136.75,-1092.85 136.34,-1103.44 143.26,-1095.42 136.75,-1092.85"/>
</g>
<!-- Node10 -->
<g id="node10" class="node">
<title>Node10</title>
<g id="a_node10"><a xlink:href="classstatic_01int.html" target="_top" xlink:title=" ">
<polygon fill="none" stroke="black" points="0,-1313 0,-1370 59,-1370 59,-1313 0,-1313"/>
<text text-anchor="middle" x="29.5" y="-1358" font-family="Helvetica,sans-Serif" font-size="10.00">static int</text>
<polyline fill="none" stroke="black" points="0,-1351 59,-1351 "/>
<text text-anchor="middle" x="29.5" y="-1339" font-family="Helvetica,sans-Serif" font-size="10.00"> </text>
<polyline fill="none" stroke="black" points="0,-1332 59,-1332 "/>
<text text-anchor="middle" x="29.5" y="-1320" font-family="Helvetica,sans-Serif" font-size="10.00"> </text>
</a>
</g>
</g>
<!-- Node10&#45;&gt;Node9 -->
<g id="edge10" class="edge">
<title>Node10&#45;&gt;Node9</title>
<path fill="none" stroke="#404040" d="M24.32,-1313C21.88,-1293.26 21.24,-1266.47 30.5,-1245 33.76,-1237.44 38.13,-1230.25 43.17,-1223.5"/>
<polygon fill="none" stroke="#404040" points="43.37,-1223.25 44.07,-1216.07 50.96,-1213.95 50.27,-1221.13 43.37,-1223.25"/>
<text text-anchor="middle" x="73.5" y="-1259" font-family="Helvetica,sans-Serif" font-size="10.00"> #objects_alive</text>
<text text-anchor="middle" x="73.5" y="-1248" font-family="Helvetica,sans-Serif" font-size="10.00">#objects_created</text>
</g>
<!-- Node11 -->
<g id="node11" class="node">
<title>Node11</title>
<g id="a_node11"><a xlink:title=" ">
<polygon fill="none" stroke="#bfbfbf" points="192.5,-1136.5 192.5,-1193.5 230.5,-1193.5 230.5,-1136.5 192.5,-1136.5"/>
<text text-anchor="middle" x="211.5" y="-1181.5" font-family="Helvetica,sans-Serif" font-size="10.00">type</text>
<polyline fill="none" stroke="#bfbfbf" points="192.5,-1174.5 230.5,-1174.5 "/>
<text text-anchor="middle" x="211.5" y="-1162.5" font-family="Helvetica,sans-Serif" font-size="10.00"> </text>
<polyline fill="none" stroke="#bfbfbf" points="192.5,-1155.5 230.5,-1155.5 "/>
<text text-anchor="middle" x="211.5" y="-1143.5" font-family="Helvetica,sans-Serif" font-size="10.00"> </text>
</a>
</g>
</g>
<!-- Node11&#45;&gt;Node8 -->
<g id="edge12" class="edge">
<title>Node11&#45;&gt;Node8</title>
<path fill="none" stroke="#404040" d="M211.5,-1136.12C211.5,-1118.43 211.5,-1093.98 211.5,-1067.71"/>
<polygon fill="none" stroke="#404040" points="211.5,-1067.53 207.5,-1061.53 211.5,-1055.53 215.5,-1061.53 211.5,-1067.53"/>
<text text-anchor="middle" x="225" y="-1077" font-family="Helvetica,sans-Serif" font-size="10.00"> &#45;size</text>
</g>
<!-- Node12 -->
<g id="node12" class="node">
<title>Node12</title>
<g id="a_node12"><a xlink:title=" ">
<polygon fill="none" stroke="#bfbfbf" points="293.5,-547 293.5,-604 337.5,-604 337.5,-547 293.5,-547"/>
<text text-anchor="middle" x="315.5" y="-592" font-family="Helvetica,sans-Serif" font-size="10.00">string</text>
<polyline fill="none" stroke="#bfbfbf" points="293.5,-585 337.5,-585 "/>
<text text-anchor="middle" x="315.5" y="-573" font-family="Helvetica,sans-Serif" font-size="10.00"> </text>
<polyline fill="none" stroke="#bfbfbf" points="293.5,-566 337.5,-566 "/>
<text text-anchor="middle" x="315.5" y="-554" font-family="Helvetica,sans-Serif" font-size="10.00"> </text>
</a>
</g>
</g>
<!-- Node12&#45;&gt;Node2 -->
<g id="edge13" class="edge">
<title>Node12&#45;&gt;Node2</title>
<path fill="none" stroke="#404040" d="M310.19,-546.91C304.3,-514.87 295.15,-460.34 291.5,-413 290.8,-403.86 290.26,-394.42 289.85,-384.91"/>
<polygon fill="none" stroke="#404040" points="289.85,-384.82 285.63,-378.98 289.4,-372.83 293.62,-378.68 289.85,-384.82"/>
<text text-anchor="middle" x="332" y="-405" font-family="Helvetica,sans-Serif" font-size="10.00"> #sample_name</text>
<text text-anchor="middle" x="332" y="-394" font-family="Helvetica,sans-Serif" font-size="10.00">#final_name</text>
</g>
</g>
</svg>
