<?xml version="1.0" encoding="UTF-8" standalone="no"?>
<!DOCTYPE svg PUBLIC "-//W3C//DTD SVG 1.1//EN"
 "http://www.w3.org/Graphics/SVG/1.1/DTD/svg11.dtd">
<!-- Generated by graphviz version 2.43.0 (0)
 -->
<!-- Title: Volcano Pages: 1 -->
<svg width="455pt" height="1914pt"
 viewBox="0.00 0.00 455.00 1914.00" xmlns="http://www.w3.org/2000/svg" xmlns:xlink="http://www.w3.org/1999/xlink">
<g id="graph0" class="graph" transform="scale(1 1) rotate(0) translate(4 1910)">
<title>Volcano</title>
<!-- Node1 -->
<g id="node1" class="node">
<title>Node1</title>
<g id="a_node1"><a xlink:title="Opisuje graniastoslup szesciokatny o podwyzszonym srodku gornej podstawy. Jest klasa dziedziczaca z k...">
<polygon fill="#bfbfbf" stroke="black" points="177.5,-0.5 177.5,-123.5 282.5,-123.5 282.5,-0.5 177.5,-0.5"/>
<text text-anchor="middle" x="230" y="-111.5" font-family="Helvetica,sans-Serif" font-size="10.00">Volcano</text>
<polyline fill="none" stroke="black" points="177.5,-104.5 282.5,-104.5 "/>
<text text-anchor="middle" x="230" y="-92.5" font-family="Helvetica,sans-Serif" font-size="10.00"> </text>
<polyline fill="none" stroke="black" points="177.5,-85.5 282.5,-85.5 "/>
<text text-anchor="start" x="185.5" y="-73.5" font-family="Helvetica,sans-Serif" font-size="10.00">+ Volcano()</text>
<text text-anchor="start" x="185.5" y="-62.5" font-family="Helvetica,sans-Serif" font-size="10.00">+ Volcano()</text>
<text text-anchor="start" x="185.5" y="-51.5" font-family="Helvetica,sans-Serif" font-size="10.00">+ get_height()</text>
<text text-anchor="start" x="185.5" y="-40.5" font-family="Helvetica,sans-Serif" font-size="10.00">+ centre_point()</text>
<text text-anchor="start" x="185.5" y="-29.5" font-family="Helvetica,sans-Serif" font-size="10.00">+ special_points()</text>
<text text-anchor="start" x="185.5" y="-18.5" font-family="Helvetica,sans-Serif" font-size="10.00">+ operator=()</text>
<text text-anchor="start" x="185.5" y="-7.5" font-family="Helvetica,sans-Serif" font-size="10.00">+ print_name()</text>
</a>
</g>
</g>
<!-- Node2 -->
<g id="node2" class="node">
<title>Node2</title>
<g id="a_node2"><a xlink:href="class_prism.html" target="_top" xlink:title="Opisuje graniastoslup o dwunastu wierzcholkach w przestrzeni trojwymiarowej.">
<polygon fill="none" stroke="black" points="151,-161.5 151,-559.5 309,-559.5 309,-161.5 151,-161.5"/>
<text text-anchor="middle" x="230" y="-547.5" font-family="Helvetica,sans-Serif" font-size="10.00">Prism</text>
<polyline fill="none" stroke="black" points="151,-540.5 309,-540.5 "/>
<text text-anchor="middle" x="230" y="-528.5" font-family="Helvetica,sans-Serif" font-size="10.00"> </text>
<polyline fill="none" stroke="black" points="151,-521.5 309,-521.5 "/>
<text text-anchor="start" x="159" y="-509.5" font-family="Helvetica,sans-Serif" font-size="10.00">+ Prism()</text>
<text text-anchor="start" x="159" y="-498.5" font-family="Helvetica,sans-Serif" font-size="10.00">+ Prism()</text>
<text text-anchor="start" x="159" y="-487.5" font-family="Helvetica,sans-Serif" font-size="10.00">+ Prism()</text>
<text text-anchor="start" x="159" y="-476.5" font-family="Helvetica,sans-Serif" font-size="10.00">+ Prism()</text>
<text text-anchor="start" x="159" y="-465.5" font-family="Helvetica,sans-Serif" font-size="10.00">+ Prism()</text>
<text text-anchor="start" x="159" y="-454.5" font-family="Helvetica,sans-Serif" font-size="10.00">+ get_pri()</text>
<text text-anchor="start" x="159" y="-443.5" font-family="Helvetica,sans-Serif" font-size="10.00">+ get_pri()</text>
<text text-anchor="start" x="159" y="-432.5" font-family="Helvetica,sans-Serif" font-size="10.00">+ check_pri()</text>
<text text-anchor="start" x="159" y="-421.5" font-family="Helvetica,sans-Serif" font-size="10.00">+ get_height()</text>
<text text-anchor="start" x="159" y="-410.5" font-family="Helvetica,sans-Serif" font-size="10.00">+ get_special_points()</text>
<text text-anchor="start" x="159" y="-399.5" font-family="Helvetica,sans-Serif" font-size="10.00">+ get_vec_ver()</text>
<text text-anchor="start" x="159" y="-388.5" font-family="Helvetica,sans-Serif" font-size="10.00">+ check_vec_ver()</text>
<text text-anchor="start" x="159" y="-377.5" font-family="Helvetica,sans-Serif" font-size="10.00">+ get_vec_pairs()</text>
<text text-anchor="start" x="159" y="-366.5" font-family="Helvetica,sans-Serif" font-size="10.00">+ check_vec_pairs()</text>
<text text-anchor="start" x="159" y="-355.5" font-family="Helvetica,sans-Serif" font-size="10.00">+ check_vec_perp()</text>
<text text-anchor="start" x="159" y="-344.5" font-family="Helvetica,sans-Serif" font-size="10.00">+ check_vec_basis()</text>
<text text-anchor="start" x="159" y="-333.5" font-family="Helvetica,sans-Serif" font-size="10.00">+ operator==()</text>
<text text-anchor="start" x="159" y="-322.5" font-family="Helvetica,sans-Serif" font-size="10.00">+ translation()</text>
<text text-anchor="start" x="159" y="-311.5" font-family="Helvetica,sans-Serif" font-size="10.00">+ translation_of_lower_cen()</text>
<text text-anchor="start" x="159" y="-300.5" font-family="Helvetica,sans-Serif" font-size="10.00">+ translation_to_O()</text>
<text text-anchor="start" x="159" y="-289.5" font-family="Helvetica,sans-Serif" font-size="10.00">+ rotation_around_cen()</text>
<text text-anchor="start" x="159" y="-278.5" font-family="Helvetica,sans-Serif" font-size="10.00">+ centre_point()</text>
<text text-anchor="start" x="159" y="-267.5" font-family="Helvetica,sans-Serif" font-size="10.00">+ get_basis_centre()</text>
<text text-anchor="start" x="159" y="-256.5" font-family="Helvetica,sans-Serif" font-size="10.00">+ special_points()</text>
<text text-anchor="start" x="159" y="-245.5" font-family="Helvetica,sans-Serif" font-size="10.00">+ print_prism_3D()</text>
<text text-anchor="start" x="159" y="-234.5" font-family="Helvetica,sans-Serif" font-size="10.00">+ Prism_From_Sample()</text>
<text text-anchor="start" x="159" y="-223.5" font-family="Helvetica,sans-Serif" font-size="10.00">+ Prism_To_File()</text>
<text text-anchor="start" x="159" y="-212.5" font-family="Helvetica,sans-Serif" font-size="10.00">+ scale_pri()</text>
<text text-anchor="start" x="159" y="-201.5" font-family="Helvetica,sans-Serif" font-size="10.00">+ scale_pri()</text>
<text text-anchor="start" x="159" y="-190.5" font-family="Helvetica,sans-Serif" font-size="10.00">+ print_pos()</text>
<text text-anchor="start" x="159" y="-179.5" font-family="Helvetica,sans-Serif" font-size="10.00">+ get_pos()</text>
<text text-anchor="start" x="159" y="-168.5" font-family="Helvetica,sans-Serif" font-size="10.00">+ switch_pos()</text>
</a>
</g>
</g>
<!-- Node2&#45;&gt;Node1 -->
<g id="edge1" class="edge">
<title>Node2&#45;&gt;Node1</title>
<path fill="none" stroke="midnightblue" d="M230,-151.13C230,-141.49 230,-132.26 230,-123.64"/>
<polygon fill="none" stroke="midnightblue" points="226.5,-151.32 230,-161.32 233.5,-151.32 226.5,-151.32"/>
</g>
<!-- Node3 -->
<g id="node3" class="node">
<title>Node3</title>
<g id="a_node3"><a xlink:href="class_block.html" target="_top" xlink:title="Opisuje figure geometryczna w przestrzeni trojwymiarowej.">
<polygon fill="none" stroke="black" points="276.5,-597.5 276.5,-808.5 401.5,-808.5 401.5,-597.5 276.5,-597.5"/>
<text text-anchor="middle" x="339" y="-796.5" font-family="Helvetica,sans-Serif" font-size="10.00">Block</text>
<polyline fill="none" stroke="black" points="276.5,-789.5 401.5,-789.5 "/>
<text text-anchor="middle" x="339" y="-777.5" font-family="Helvetica,sans-Serif" font-size="10.00"> </text>
<polyline fill="none" stroke="black" points="276.5,-770.5 401.5,-770.5 "/>
<text text-anchor="start" x="284.5" y="-758.5" font-family="Helvetica,sans-Serif" font-size="10.00">+ Block()</text>
<text text-anchor="start" x="284.5" y="-747.5" font-family="Helvetica,sans-Serif" font-size="10.00">+ Block()</text>
<text text-anchor="start" x="284.5" y="-736.5" font-family="Helvetica,sans-Serif" font-size="10.00">+ Block()</text>
<text text-anchor="start" x="284.5" y="-725.5" font-family="Helvetica,sans-Serif" font-size="10.00">+ set_sample_name()</text>
<text text-anchor="start" x="284.5" y="-714.5" font-family="Helvetica,sans-Serif" font-size="10.00">+ set_final_name()</text>
<text text-anchor="start" x="284.5" y="-703.5" font-family="Helvetica,sans-Serif" font-size="10.00">+ set_scale()</text>
<text text-anchor="start" x="284.5" y="-692.5" font-family="Helvetica,sans-Serif" font-size="10.00">+ set_scale()</text>
<text text-anchor="start" x="284.5" y="-681.5" font-family="Helvetica,sans-Serif" font-size="10.00">+ check_block()</text>
<text text-anchor="start" x="284.5" y="-670.5" font-family="Helvetica,sans-Serif" font-size="10.00">+ get_sample_name()</text>
<text text-anchor="start" x="284.5" y="-659.5" font-family="Helvetica,sans-Serif" font-size="10.00">+ get_final_name()</text>
<text text-anchor="start" x="284.5" y="-648.5" font-family="Helvetica,sans-Serif" font-size="10.00">+ get_scale()</text>
<text text-anchor="start" x="284.5" y="-637.5" font-family="Helvetica,sans-Serif" font-size="10.00">+ print_name()</text>
<text text-anchor="start" x="284.5" y="-626.5" font-family="Helvetica,sans-Serif" font-size="10.00">+ print_pos()</text>
<text text-anchor="start" x="284.5" y="-615.5" font-family="Helvetica,sans-Serif" font-size="10.00">+ get_pos()</text>
<text text-anchor="start" x="284.5" y="-604.5" font-family="Helvetica,sans-Serif" font-size="10.00">+ switch_pos()</text>
</a>
</g>
</g>
<!-- Node3&#45;&gt;Node2 -->
<g id="edge2" class="edge">
<title>Node3&#45;&gt;Node2</title>
<path fill="none" stroke="midnightblue" d="M302.31,-587.38C299.42,-578.37 296.47,-569.13 293.47,-559.77"/>
<polygon fill="none" stroke="midnightblue" points="299.02,-588.6 305.41,-597.06 305.69,-586.47 299.02,-588.6"/>
</g>
<!-- Node4 -->
<g id="node4" class="node">
<title>Node4</title>
<g id="a_node4"><a xlink:href="class_vector.html" target="_top" xlink:title=" ">
<polygon fill="none" stroke="black" points="172.5,-867.5 172.5,-1133.5 287.5,-1133.5 287.5,-867.5 172.5,-867.5"/>
<text text-anchor="middle" x="230" y="-1121.5" font-family="Helvetica,sans-Serif" font-size="10.00">Vector&lt; double, 3 &gt;</text>
<polyline fill="none" stroke="black" points="172.5,-1114.5 287.5,-1114.5 "/>
<text text-anchor="middle" x="230" y="-1102.5" font-family="Helvetica,sans-Serif" font-size="10.00"> </text>
<polyline fill="none" stroke="black" points="172.5,-1095.5 287.5,-1095.5 "/>
<text text-anchor="start" x="180.5" y="-1083.5" font-family="Helvetica,sans-Serif" font-size="10.00">+ Vector()</text>
<text text-anchor="start" x="180.5" y="-1072.5" font-family="Helvetica,sans-Serif" font-size="10.00">+ Vector()</text>
<text text-anchor="start" x="180.5" y="-1061.5" font-family="Helvetica,sans-Serif" font-size="10.00">+ operator+()</text>
<text text-anchor="start" x="180.5" y="-1050.5" font-family="Helvetica,sans-Serif" font-size="10.00">+ operator&#45;()</text>
<text text-anchor="start" x="180.5" y="-1039.5" font-family="Helvetica,sans-Serif" font-size="10.00">+ operator*()</text>
<text text-anchor="start" x="180.5" y="-1028.5" font-family="Helvetica,sans-Serif" font-size="10.00">+ operator/()</text>
<text text-anchor="start" x="180.5" y="-1017.5" font-family="Helvetica,sans-Serif" font-size="10.00">+ operator==()</text>
<text text-anchor="start" x="180.5" y="-1006.5" font-family="Helvetica,sans-Serif" font-size="10.00">+ scale_vec()</text>
<text text-anchor="start" x="180.5" y="-995.5" font-family="Helvetica,sans-Serif" font-size="10.00">+ rotate()</text>
<text text-anchor="start" x="180.5" y="-984.5" font-family="Helvetica,sans-Serif" font-size="10.00">+ rotate()</text>
<text text-anchor="start" x="180.5" y="-973.5" font-family="Helvetica,sans-Serif" font-size="10.00">+ rotate()</text>
<text text-anchor="start" x="180.5" y="-962.5" font-family="Helvetica,sans-Serif" font-size="10.00">+ modulus2()</text>
<text text-anchor="start" x="180.5" y="-951.5" font-family="Helvetica,sans-Serif" font-size="10.00">+ get_vec()</text>
<text text-anchor="start" x="180.5" y="-940.5" font-family="Helvetica,sans-Serif" font-size="10.00">+ get_len()</text>
<text text-anchor="start" x="180.5" y="-929.5" font-family="Helvetica,sans-Serif" font-size="10.00">+ get_slope_angle()</text>
<text text-anchor="start" x="180.5" y="-918.5" font-family="Helvetica,sans-Serif" font-size="10.00">+ get_slope_angle()</text>
<text text-anchor="start" x="180.5" y="-907.5" font-family="Helvetica,sans-Serif" font-size="10.00">+ get_slope_angle()</text>
<text text-anchor="start" x="180.5" y="-896.5" font-family="Helvetica,sans-Serif" font-size="10.00">+ operator[]()</text>
<text text-anchor="start" x="180.5" y="-885.5" font-family="Helvetica,sans-Serif" font-size="10.00">+ operator[]()</text>
<text text-anchor="start" x="180.5" y="-874.5" font-family="Helvetica,sans-Serif" font-size="10.00">+ scalar_prod()</text>
</a>
</g>
</g>
<!-- Node4&#45;&gt;Node2 -->
<g id="edge15" class="edge">
<title>Node4&#45;&gt;Node2</title>
<path fill="none" stroke="#404040" d="M227.65,-867.3C227.38,-847.76 227.15,-827.85 227,-809 226.26,-714.78 226.4,-691.22 227,-597 227.05,-588.73 227.12,-580.3 227.19,-571.78"/>
<polygon fill="none" stroke="#404040" points="227.19,-571.69 223.24,-565.66 227.29,-559.69 231.24,-565.73 227.19,-571.69"/>
<text text-anchor="middle" x="247" y="-711.5" font-family="Helvetica,sans-Serif" font-size="10.00"> #cuts</text>
<text text-anchor="middle" x="247" y="-700.5" font-family="Helvetica,sans-Serif" font-size="10.00">#centre</text>
<text text-anchor="middle" x="247" y="-689.5" font-family="Helvetica,sans-Serif" font-size="10.00">#tops</text>
</g>
<!-- Node4&#45;&gt;Node3 -->
<g id="edge3" class="edge">
<title>Node4&#45;&gt;Node3</title>
<path fill="none" stroke="#404040" d="M278.76,-867.31C284.54,-851.63 290.41,-835.72 296.1,-820.29"/>
<polygon fill="none" stroke="#404040" points="296.26,-819.86 294.59,-812.84 300.42,-808.6 302.09,-815.61 296.26,-819.86"/>
<text text-anchor="middle" x="310.5" y="-835.5" font-family="Helvetica,sans-Serif" font-size="10.00"> #scale</text>
</g>
<!-- Node5 -->
<g id="node5" class="node">
<title>Node5</title>
<g id="a_node5"><a xlink:href="class_count.html" target="_top" xlink:title=" ">
<polygon fill="none" stroke="black" points="0,-1495.5 0,-1618.5 134,-1618.5 134,-1495.5 0,-1495.5"/>
<text text-anchor="start" x="8" y="-1606.5" font-family="Helvetica,sans-Serif" font-size="10.00">Count&lt; Vector&lt; double,</text>
<text text-anchor="middle" x="67" y="-1595.5" font-family="Helvetica,sans-Serif" font-size="10.00"> SIZE &gt; &gt;</text>
<polyline fill="none" stroke="black" points="0,-1588.5 134,-1588.5 "/>
<text text-anchor="middle" x="67" y="-1576.5" font-family="Helvetica,sans-Serif" font-size="10.00"> </text>
<polyline fill="none" stroke="black" points="0,-1569.5 134,-1569.5 "/>
<text text-anchor="start" x="8" y="-1557.5" font-family="Helvetica,sans-Serif" font-size="10.00">+ Count()</text>
<text text-anchor="start" x="8" y="-1546.5" font-family="Helvetica,sans-Serif" font-size="10.00">+ Count()</text>
<text text-anchor="start" x="8" y="-1535.5" font-family="Helvetica,sans-Serif" font-size="10.00">+ ~Count()</text>
<text text-anchor="start" x="8" y="-1524.5" font-family="Helvetica,sans-Serif" font-size="10.00">+ get_count()</text>
<text text-anchor="start" x="8" y="-1513.5" font-family="Helvetica,sans-Serif" font-size="10.00">+ print_count()</text>
<text text-anchor="start" x="8" y="-1502.5" font-family="Helvetica,sans-Serif" font-size="10.00">+ zero_count()</text>
</a>
</g>
</g>
<!-- Node5&#45;&gt;Node4 -->
<g id="edge4" class="edge">
<title>Node5&#45;&gt;Node4</title>
<path fill="none" stroke="midnightblue" d="M82.02,-1485.36C98.78,-1409.44 127.93,-1285.58 161,-1181 165.88,-1165.56 171.39,-1149.53 177.11,-1133.68"/>
<polygon fill="none" stroke="midnightblue" points="78.56,-1484.77 79.83,-1495.29 85.4,-1486.28 78.56,-1484.77"/>
</g>
<!-- Node6 -->
<g id="node6" class="node">
<title>Node6</title>
<g id="a_node6"><a xlink:title=" ">
<polygon fill="none" stroke="#bfbfbf" points="35.5,-1848.5 35.5,-1905.5 64.5,-1905.5 64.5,-1848.5 35.5,-1848.5"/>
<text text-anchor="middle" x="50" y="-1893.5" font-family="Helvetica,sans-Serif" font-size="10.00">int</text>
<polyline fill="none" stroke="#bfbfbf" points="35.5,-1886.5 64.5,-1886.5 "/>
<text text-anchor="middle" x="50" y="-1874.5" font-family="Helvetica,sans-Serif" font-size="10.00"> </text>
<polyline fill="none" stroke="#bfbfbf" points="35.5,-1867.5 64.5,-1867.5 "/>
<text text-anchor="middle" x="50" y="-1855.5" font-family="Helvetica,sans-Serif" font-size="10.00"> </text>
</a>
</g>
</g>
<!-- Node6&#45;&gt;Node5 -->
<g id="edge5" class="edge">
<title>Node6&#45;&gt;Node5</title>
<path fill="none" stroke="#404040" d="M47.16,-1848.15C45.58,-1831.33 43.79,-1809.46 43,-1790 40.96,-1739.82 38.05,-1726.98 43,-1677 44.79,-1658.96 47.42,-1654.77 51,-1637 51.41,-1634.97 51.82,-1632.92 52.24,-1630.84"/>
<polygon fill="none" stroke="#404040" points="52.29,-1630.57 49.56,-1623.9 54.67,-1618.81 57.4,-1625.48 52.29,-1630.57"/>
<text text-anchor="middle" x="86" y="-1736.5" font-family="Helvetica,sans-Serif" font-size="10.00"> #objects_alive</text>
<text text-anchor="middle" x="86" y="-1725.5" font-family="Helvetica,sans-Serif" font-size="10.00">#objects_created</text>
</g>
<!-- Node7 -->
<g id="node7" class="node">
<title>Node7</title>
<g id="a_node7"><a xlink:href="class_count.html" target="_top" xlink:title="Pozwala na liczenie instancji stworzonych obiektow.">
<polygon fill="none" stroke="black" points="138,-1677.5 138,-1789.5 228,-1789.5 228,-1677.5 138,-1677.5"/>
<text text-anchor="middle" x="183" y="-1777.5" font-family="Helvetica,sans-Serif" font-size="10.00">Count&lt; T &gt;</text>
<polyline fill="none" stroke="black" points="138,-1770.5 228,-1770.5 "/>
<text text-anchor="middle" x="183" y="-1758.5" font-family="Helvetica,sans-Serif" font-size="10.00"> </text>
<polyline fill="none" stroke="black" points="138,-1751.5 228,-1751.5 "/>
<text text-anchor="start" x="146" y="-1739.5" font-family="Helvetica,sans-Serif" font-size="10.00">+ Count()</text>
<text text-anchor="start" x="146" y="-1728.5" font-family="Helvetica,sans-Serif" font-size="10.00">+ Count()</text>
<text text-anchor="start" x="146" y="-1717.5" font-family="Helvetica,sans-Serif" font-size="10.00">+ ~Count()</text>
<text text-anchor="start" x="146" y="-1706.5" font-family="Helvetica,sans-Serif" font-size="10.00">+ get_count()</text>
<text text-anchor="start" x="146" y="-1695.5" font-family="Helvetica,sans-Serif" font-size="10.00">+ print_count()</text>
<text text-anchor="start" x="146" y="-1684.5" font-family="Helvetica,sans-Serif" font-size="10.00">+ zero_count()</text>
</a>
</g>
</g>
<!-- Node6&#45;&gt;Node7 -->
<g id="edge7" class="edge">
<title>Node6&#45;&gt;Node7</title>
<path fill="none" stroke="#404040" d="M64.74,-1860.32C80.34,-1843.72 105.89,-1816.54 129.25,-1791.68"/>
<polygon fill="none" stroke="#404040" points="129.52,-1791.39 130.72,-1784.28 137.74,-1782.65 136.55,-1789.76 129.52,-1791.39"/>
<text text-anchor="middle" x="156" y="-1822" font-family="Helvetica,sans-Serif" font-size="10.00"> #objects_alive</text>
<text text-anchor="middle" x="156" y="-1811" font-family="Helvetica,sans-Serif" font-size="10.00">#objects_created</text>
</g>
<!-- Node7&#45;&gt;Node5 -->
<g id="edge6" class="edge">
<title>Node7&#45;&gt;Node5</title>
<path fill="none" stroke="orange" d="M129.75,-1680.55C127.85,-1679.3 125.93,-1678.11 124,-1677 99.88,-1663.09 80.62,-1681.34 64,-1659 55.41,-1647.46 52.64,-1632.95 52.83,-1618.56"/>
<polygon fill="orange" stroke="orange" points="127.76,-1683.43 137.93,-1686.38 131.82,-1677.73 127.76,-1683.43"/>
<text text-anchor="middle" x="134" y="-1645.5" font-family="Helvetica,sans-Serif" font-size="10.00"> &lt; Vector&lt; double, SIZE &gt; &gt;</text>
</g>
<!-- Node10 -->
<g id="node10" class="node">
<title>Node10</title>
<g id="a_node10"><a xlink:href="class_count.html" target="_top" xlink:title=" ">
<polygon fill="none" stroke="black" points="168.5,-1495.5 168.5,-1618.5 291.5,-1618.5 291.5,-1495.5 168.5,-1495.5"/>
<text text-anchor="start" x="176.5" y="-1606.5" font-family="Helvetica,sans-Serif" font-size="10.00">Count&lt; Vector&lt; type,</text>
<text text-anchor="middle" x="230" y="-1595.5" font-family="Helvetica,sans-Serif" font-size="10.00"> SIZE &gt; &gt;</text>
<polyline fill="none" stroke="black" points="168.5,-1588.5 291.5,-1588.5 "/>
<text text-anchor="middle" x="230" y="-1576.5" font-family="Helvetica,sans-Serif" font-size="10.00"> </text>
<polyline fill="none" stroke="black" points="168.5,-1569.5 291.5,-1569.5 "/>
<text text-anchor="start" x="176.5" y="-1557.5" font-family="Helvetica,sans-Serif" font-size="10.00">+ Count()</text>
<text text-anchor="start" x="176.5" y="-1546.5" font-family="Helvetica,sans-Serif" font-size="10.00">+ Count()</text>
<text text-anchor="start" x="176.5" y="-1535.5" font-family="Helvetica,sans-Serif" font-size="10.00">+ ~Count()</text>
<text text-anchor="start" x="176.5" y="-1524.5" font-family="Helvetica,sans-Serif" font-size="10.00">+ get_count()</text>
<text text-anchor="start" x="176.5" y="-1513.5" font-family="Helvetica,sans-Serif" font-size="10.00">+ print_count()</text>
<text text-anchor="start" x="176.5" y="-1502.5" font-family="Helvetica,sans-Serif" font-size="10.00">+ zero_count()</text>
</a>
</g>
</g>
<!-- Node7&#45;&gt;Node10 -->
<g id="edge12" class="edge">
<title>Node7&#45;&gt;Node10</title>
<path fill="none" stroke="orange" d="M205.54,-1667.52C206.4,-1664.65 207.22,-1661.8 208,-1659 211.61,-1646.03 214.99,-1631.99 217.97,-1618.63"/>
<polygon fill="orange" stroke="orange" points="202.12,-1666.74 202.52,-1677.33 208.81,-1668.8 202.12,-1666.74"/>
<text text-anchor="middle" x="278.5" y="-1645.5" font-family="Helvetica,sans-Serif" font-size="10.00"> &lt; Vector&lt; type, SIZE &gt; &gt;</text>
</g>
<!-- Node8 -->
<g id="node8" class="node">
<title>Node8</title>
<g id="a_node8"><a xlink:title=" ">
<polygon fill="none" stroke="#bfbfbf" points="308,-1286 308,-1343 358,-1343 358,-1286 308,-1286"/>
<text text-anchor="middle" x="333" y="-1331" font-family="Helvetica,sans-Serif" font-size="10.00">double</text>
<polyline fill="none" stroke="#bfbfbf" points="308,-1324 358,-1324 "/>
<text text-anchor="middle" x="333" y="-1312" font-family="Helvetica,sans-Serif" font-size="10.00"> </text>
<polyline fill="none" stroke="#bfbfbf" points="308,-1305 358,-1305 "/>
<text text-anchor="middle" x="333" y="-1293" font-family="Helvetica,sans-Serif" font-size="10.00"> </text>
</a>
</g>
</g>
<!-- Node8&#45;&gt;Node4 -->
<g id="edge8" class="edge">
<title>Node8&#45;&gt;Node4</title>
<path fill="none" stroke="#404040" d="M330.66,-1285.76C327.35,-1253.11 319.95,-1197.56 305,-1152 301.38,-1140.97 297.08,-1129.74 292.39,-1118.64"/>
<polygon fill="none" stroke="#404040" points="292.37,-1118.59 286.31,-1114.68 287.59,-1107.59 293.65,-1111.49 292.37,-1118.59"/>
<text text-anchor="middle" x="321.5" y="-1155" font-family="Helvetica,sans-Serif" font-size="10.00"> &#45;size</text>
</g>
<!-- Node9 -->
<g id="node9" class="node">
<title>Node9</title>
<g id="a_node9"><a xlink:href="class_vector.html" target="_top" xlink:title="Opisuje wektor o SIZE&#45;wierszach.">
<polygon fill="none" stroke="black" points="170.5,-1181.5 170.5,-1447.5 289.5,-1447.5 289.5,-1181.5 170.5,-1181.5"/>
<text text-anchor="middle" x="230" y="-1435.5" font-family="Helvetica,sans-Serif" font-size="10.00">Vector&lt; type, SIZE &gt;</text>
<polyline fill="none" stroke="black" points="170.5,-1428.5 289.5,-1428.5 "/>
<text text-anchor="middle" x="230" y="-1416.5" font-family="Helvetica,sans-Serif" font-size="10.00"> </text>
<polyline fill="none" stroke="black" points="170.5,-1409.5 289.5,-1409.5 "/>
<text text-anchor="start" x="178.5" y="-1397.5" font-family="Helvetica,sans-Serif" font-size="10.00">+ Vector()</text>
<text text-anchor="start" x="178.5" y="-1386.5" font-family="Helvetica,sans-Serif" font-size="10.00">+ Vector()</text>
<text text-anchor="start" x="178.5" y="-1375.5" font-family="Helvetica,sans-Serif" font-size="10.00">+ operator+()</text>
<text text-anchor="start" x="178.5" y="-1364.5" font-family="Helvetica,sans-Serif" font-size="10.00">+ operator&#45;()</text>
<text text-anchor="start" x="178.5" y="-1353.5" font-family="Helvetica,sans-Serif" font-size="10.00">+ operator*()</text>
<text text-anchor="start" x="178.5" y="-1342.5" font-family="Helvetica,sans-Serif" font-size="10.00">+ operator/()</text>
<text text-anchor="start" x="178.5" y="-1331.5" font-family="Helvetica,sans-Serif" font-size="10.00">+ operator==()</text>
<text text-anchor="start" x="178.5" y="-1320.5" font-family="Helvetica,sans-Serif" font-size="10.00">+ scale_vec()</text>
<text text-anchor="start" x="178.5" y="-1309.5" font-family="Helvetica,sans-Serif" font-size="10.00">+ rotate()</text>
<text text-anchor="start" x="178.5" y="-1298.5" font-family="Helvetica,sans-Serif" font-size="10.00">+ modulus2()</text>
<text text-anchor="start" x="178.5" y="-1287.5" font-family="Helvetica,sans-Serif" font-size="10.00">+ get_vec()</text>
<text text-anchor="start" x="178.5" y="-1276.5" font-family="Helvetica,sans-Serif" font-size="10.00">+ get_len()</text>
<text text-anchor="start" x="178.5" y="-1265.5" font-family="Helvetica,sans-Serif" font-size="10.00">+ get_slope_angle()</text>
<text text-anchor="start" x="178.5" y="-1254.5" font-family="Helvetica,sans-Serif" font-size="10.00">+ operator[]()</text>
<text text-anchor="start" x="178.5" y="-1243.5" font-family="Helvetica,sans-Serif" font-size="10.00">+ operator[]()</text>
<text text-anchor="start" x="178.5" y="-1232.5" font-family="Helvetica,sans-Serif" font-size="10.00">+ scalar_prod()</text>
<text text-anchor="start" x="178.5" y="-1221.5" font-family="Helvetica,sans-Serif" font-size="10.00">+ rotate()</text>
<text text-anchor="start" x="178.5" y="-1210.5" font-family="Helvetica,sans-Serif" font-size="10.00">+ get_slope_angle()</text>
<text text-anchor="start" x="178.5" y="-1199.5" font-family="Helvetica,sans-Serif" font-size="10.00">+ rotate()</text>
<text text-anchor="start" x="178.5" y="-1188.5" font-family="Helvetica,sans-Serif" font-size="10.00">+ get_slope_angle()</text>
</a>
</g>
</g>
<!-- Node9&#45;&gt;Node4 -->
<g id="edge9" class="edge">
<title>Node9&#45;&gt;Node4</title>
<path fill="none" stroke="orange" d="M230,-1171.16C230,-1158.62 230,-1145.97 230,-1133.52"/>
<polygon fill="orange" stroke="orange" points="226.5,-1171.18 230,-1181.18 233.5,-1171.18 226.5,-1171.18"/>
<text text-anchor="middle" x="265.5" y="-1155" font-family="Helvetica,sans-Serif" font-size="10.00"> &lt; double, 3 &gt;</text>
</g>
<!-- Node10&#45;&gt;Node9 -->
<g id="edge10" class="edge">
<title>Node10&#45;&gt;Node9</title>
<path fill="none" stroke="midnightblue" d="M230,-1485.05C230,-1473.14 230,-1460.44 230,-1447.56"/>
<polygon fill="none" stroke="midnightblue" points="226.5,-1485.31 230,-1495.31 233.5,-1485.31 226.5,-1485.31"/>
</g>
<!-- Node11 -->
<g id="node11" class="node">
<title>Node11</title>
<g id="a_node11"><a xlink:href="classstatic_01int.html" target="_top" xlink:title=" ">
<polygon fill="none" stroke="black" points="352.5,-1705 352.5,-1762 411.5,-1762 411.5,-1705 352.5,-1705"/>
<text text-anchor="middle" x="382" y="-1750" font-family="Helvetica,sans-Serif" font-size="10.00">static int</text>
<polyline fill="none" stroke="black" points="352.5,-1743 411.5,-1743 "/>
<text text-anchor="middle" x="382" y="-1731" font-family="Helvetica,sans-Serif" font-size="10.00"> </text>
<polyline fill="none" stroke="black" points="352.5,-1724 411.5,-1724 "/>
<text text-anchor="middle" x="382" y="-1712" font-family="Helvetica,sans-Serif" font-size="10.00"> </text>
</a>
</g>
</g>
<!-- Node11&#45;&gt;Node10 -->
<g id="edge11" class="edge">
<title>Node11&#45;&gt;Node10</title>
<path fill="none" stroke="#404040" d="M378.15,-1704.96C373.88,-1683.9 365.03,-1655.43 347,-1637 333.74,-1623.45 323.12,-1628.31 302.46,-1618.83"/>
<polygon fill="none" stroke="#404040" points="302.4,-1618.8 295.22,-1619.47 291.84,-1613.11 299.02,-1612.43 302.4,-1618.8"/>
<text text-anchor="middle" x="404" y="-1651" font-family="Helvetica,sans-Serif" font-size="10.00"> #objects_alive</text>
<text text-anchor="middle" x="404" y="-1640" font-family="Helvetica,sans-Serif" font-size="10.00">#objects_created</text>
</g>
<!-- Node12 -->
<g id="node12" class="node">
<title>Node12</title>
<g id="a_node12"><a xlink:title=" ">
<polygon fill="none" stroke="#bfbfbf" points="310,-1528.5 310,-1585.5 348,-1585.5 348,-1528.5 310,-1528.5"/>
<text text-anchor="middle" x="329" y="-1573.5" font-family="Helvetica,sans-Serif" font-size="10.00">type</text>
<polyline fill="none" stroke="#bfbfbf" points="310,-1566.5 348,-1566.5 "/>
<text text-anchor="middle" x="329" y="-1554.5" font-family="Helvetica,sans-Serif" font-size="10.00"> </text>
<polyline fill="none" stroke="#bfbfbf" points="310,-1547.5 348,-1547.5 "/>
<text text-anchor="middle" x="329" y="-1535.5" font-family="Helvetica,sans-Serif" font-size="10.00"> </text>
</a>
</g>
</g>
<!-- Node12&#45;&gt;Node9 -->
<g id="edge13" class="edge">
<title>Node12&#45;&gt;Node9</title>
<path fill="none" stroke="#404040" d="M317.64,-1528.41C310.27,-1510.49 300.02,-1485.6 289.13,-1459.14"/>
<polygon fill="none" stroke="#404040" points="289,-1458.82 283.01,-1454.79 284.43,-1447.72 290.41,-1451.75 289,-1458.82"/>
<text text-anchor="middle" x="308.5" y="-1469" font-family="Helvetica,sans-Serif" font-size="10.00"> &#45;size</text>
</g>
<!-- Node13 -->
<g id="node13" class="node">
<title>Node13</title>
<g id="a_node13"><a xlink:title=" ">
<polygon fill="none" stroke="#bfbfbf" points="317,-972 317,-1029 361,-1029 361,-972 317,-972"/>
<text text-anchor="middle" x="339" y="-1017" font-family="Helvetica,sans-Serif" font-size="10.00">string</text>
<polyline fill="none" stroke="#bfbfbf" points="317,-1010 361,-1010 "/>
<text text-anchor="middle" x="339" y="-998" font-family="Helvetica,sans-Serif" font-size="10.00"> </text>
<polyline fill="none" stroke="#bfbfbf" points="317,-991 361,-991 "/>
<text text-anchor="middle" x="339" y="-979" font-family="Helvetica,sans-Serif" font-size="10.00"> </text>
</a>
</g>
</g>
<!-- Node13&#45;&gt;Node3 -->
<g id="edge14" class="edge">
<title>Node13&#45;&gt;Node3</title>
<path fill="none" stroke="#404040" d="M339,-971.97C339,-937.46 339,-876.13 339,-820.84"/>
<polygon fill="none" stroke="#404040" points="339,-820.78 335,-814.78 339,-808.78 343,-814.78 339,-820.78"/>
<text text-anchor="middle" x="379.5" y="-841" font-family="Helvetica,sans-Serif" font-size="10.00"> #sample_name</text>
<text text-anchor="middle" x="379.5" y="-830" font-family="Helvetica,sans-Serif" font-size="10.00">#final_name</text>
</g>
</g>
</svg>
