<?xml version="1.0" encoding="UTF-8" standalone="no"?>
<!DOCTYPE svg PUBLIC "-//W3C//DTD SVG 1.1//EN"
 "http://www.w3.org/Graphics/SVG/1.1/DTD/svg11.dtd">
<!-- Generated by graphviz version 2.43.0 (0)
 -->
<!-- Title: Drone::Print_to_files_drone Pages: 1 -->
<!--zoomable 284 -->
<svg id="main" version="1.1" xmlns="http://www.w3.org/2000/svg" xmlns:xlink="http://www.w3.org/1999/xlink" xml:space="preserve" onload="init(evt)">
<style type="text/css"><![CDATA[
.edge:hover path { stroke: red; }
.edge:hover polygon { stroke: red; fill: red; }
]]></style>
<script type="text/javascript"><![CDATA[
var edges = document.getElementsByTagName('g');
if (edges && edges.length) {
  for (var i=0;i<edges.length;i++) {
    if (edges[i].id.substr(0,4)=='edge') {
      edges[i].setAttribute('class','edge');
    }
  }
}
]]></script>
        <defs>
                <circle id="rim" cx="0" cy="0" r="7"/>
                <circle id="rim2" cx="0" cy="0" r="3.5"/>
                <g id="zoomPlus">
                        <use xlink:href="#rim" fill="#404040">
                                <set attributeName="fill" to="#808080" begin="zoomplus.mouseover" end="zoomplus.mouseout"/>
                        </use>
                        <path d="M-4,0h8M0,-4v8" fill="none" stroke="white" stroke-width="1.5" pointer-events="none"/>
                </g>
                <g id="zoomMin">
                        <use xlink:href="#rim" fill="#404040">
                                <set attributeName="fill" to="#808080" begin="zoomminus.mouseover" end="zoomminus.mouseout"/>
                        </use>
                        <path d="M-4,0h8" fill="none" stroke="white" stroke-width="1.5" pointer-events="none"/>
                </g>
                <g id="dirArrow">
                        <path fill="none" stroke="white" stroke-width="1.5" d="M0,-3.0v7 M-2.5,-0.5L0,-3.0L2.5,-0.5"/>
                </g>
               <g id="resetDef">
                       <use xlink:href="#rim2" fill="#404040">
                               <set attributeName="fill" to="#808080" begin="reset.mouseover" end="reset.mouseout"/>
                       </use>
               </g>
        </defs>

<script type="text/javascript">
var viewWidth = 621;
var viewHeight = 284;
var sectionId = 'dynsection-44';
</script>
<script xlink:href="svgpan.js"/>
<svg id="graph" class="graph">
<g id="viewport">
<title>Drone::Print_to_files_drone</title>
<!-- Node1 -->
<g id="node1" class="node">
<title>Node1</title>
<g id="a_node1"><a xlink:title="Metoda zapisujaca parametry drona do plikow (do plikow final kazdego z elementow)">
<polygon fill="#bfbfbf" stroke="black" points="498,-131.79 498,-161.79 613,-161.79 613,-131.79 498,-131.79"/>
<text text-anchor="start" x="506" y="-149.79" font-family="Helvetica,sans-Serif" font-size="10.00">Drone::Print_to_files</text>
<text text-anchor="middle" x="555.5" y="-138.79" font-family="Helvetica,sans-Serif" font-size="10.00">_drone</text>
</a>
</g>
</g>
<!-- Node2 -->
<g id="node2" class="node">
<title>Node2</title>
<g id="a_node2"><a xlink:href="class_drone.html#a7eecbd031df9009e113d355a9dcdf4e1" target="_top" xlink:title="Metoda obliczajaca i przeprowadzajaca caly ruch drona (obrot o kat i przelot z zadania 5....">
<polygon fill="none" stroke="black" points="4.5,-187.79 4.5,-217.79 116.5,-217.79 116.5,-187.79 4.5,-187.79"/>
<text text-anchor="start" x="12.5" y="-205.79" font-family="Helvetica,sans-Serif" font-size="10.00">Drone::Drone_basic</text>
<text text-anchor="middle" x="60.5" y="-194.79" font-family="Helvetica,sans-Serif" font-size="10.00">_motion_flight</text>
</a>
</g>
</g>
<!-- Node1&#45;&gt;Node2 -->
<g id="edge1" class="edge">
<title>Node1&#45;&gt;Node2</title>
<path fill="none" stroke="midnightblue" d="M533.26,-169.67C515.74,-187.22 489.4,-210.75 462,-224.79 395.52,-258.85 373.13,-256.61 299,-265.79 236.37,-273.54 217.45,-283.93 157,-265.79 125.99,-256.48 95.75,-233.49 77.88,-218.01"/>
<polygon fill="midnightblue" stroke="midnightblue" points="536.18,-171.69 540.66,-162.08 531.17,-166.8 536.18,-171.69"/>
</g>
<!-- Node3 -->
<g id="node3" class="node">
<title>Node3</title>
<g id="a_node3"><a xlink:href="class_drone.html#a4abbed4a4cc52e5630f07f9129b46c5c" target="_top" xlink:title="Metoda realizujaca ladowanie drona.">
<polygon fill="none" stroke="black" points="165.5,-237.29 165.5,-256.29 290.5,-256.29 290.5,-237.29 165.5,-237.29"/>
<text text-anchor="middle" x="228" y="-244.29" font-family="Helvetica,sans-Serif" font-size="10.00">Drone::Drone_descent</text>
</a>
</g>
</g>
<!-- Node1&#45;&gt;Node3 -->
<g id="edge2" class="edge">
<title>Node1&#45;&gt;Node3</title>
<path fill="none" stroke="midnightblue" d="M520.75,-167C503.63,-176.54 482.23,-187.43 462,-194.79 405.53,-215.35 338.28,-229.3 290.58,-237.53"/>
<polygon fill="midnightblue" stroke="midnightblue" points="522.82,-169.84 529.78,-161.86 519.36,-163.76 522.82,-169.84"/>
</g>
<!-- Node4 -->
<g id="node4" class="node">
<title>Node4</title>
<g id="a_node4"><a xlink:href="class_drone.html#aec9abadf85777ab20e361d1389aab466" target="_top" xlink:title="Metoda obliczajaca i przeprowadzajaca koncowy ruch drona (obrot o kat i koncowy przelot z zadania 5....">
<polygon fill="none" stroke="black" points="0,-105.79 0,-135.79 121,-135.79 121,-105.79 0,-105.79"/>
<text text-anchor="start" x="8" y="-123.79" font-family="Helvetica,sans-Serif" font-size="10.00">Drone::Drone_motion</text>
<text text-anchor="middle" x="60.5" y="-112.79" font-family="Helvetica,sans-Serif" font-size="10.00">_after_update</text>
</a>
</g>
</g>
<!-- Node1&#45;&gt;Node4 -->
<g id="edge3" class="edge">
<title>Node1&#45;&gt;Node4</title>
<path fill="none" stroke="midnightblue" d="M537.12,-123.43C520.22,-102.37 492.67,-72.13 462,-54.79 396.97,-18.02 373.13,-22.97 299,-13.79 236.37,-6.03 214.6,12.01 157,-13.79 114.73,-32.72 83.47,-80.62 69.54,-105.41"/>
<polygon fill="midnightblue" stroke="midnightblue" points="534.56,-125.83 543.48,-131.55 540.07,-121.52 534.56,-125.83"/>
</g>
<!-- Node5 -->
<g id="node5" class="node">
<title>Node5</title>
<g id="a_node5"><a xlink:href="class_drone.html#af052f6bb793d1229b99b16b800b95b82" target="_top" xlink:title="Metoda animujaca obrot drona i wyrysowujaca calosc w gnuplocie.">
<polygon fill="none" stroke="black" points="165.5,-187.79 165.5,-217.79 290.5,-217.79 290.5,-187.79 165.5,-187.79"/>
<text text-anchor="start" x="173.5" y="-205.79" font-family="Helvetica,sans-Serif" font-size="10.00">Drone::Drone_rotation</text>
<text text-anchor="middle" x="228" y="-194.79" font-family="Helvetica,sans-Serif" font-size="10.00">_animation</text>
</a>
</g>
</g>
<!-- Node1&#45;&gt;Node5 -->
<g id="edge4" class="edge">
<title>Node1&#45;&gt;Node5</title>
<path fill="none" stroke="midnightblue" d="M493.52,-164.49C483.06,-167.17 472.26,-169.73 462,-171.79 404.39,-183.35 337.87,-191.72 290.69,-196.82"/>
<polygon fill="midnightblue" stroke="midnightblue" points="494.63,-167.81 503.41,-161.89 492.85,-161.04 494.63,-167.81"/>
</g>
<!-- Node6 -->
<g id="node6" class="node">
<title>Node6</title>
<g id="a_node6"><a xlink:href="class_drone.html#ab7808296cec81143dbddd7516340a371" target="_top" xlink:title="Metoda robiaca &quot;oblot&quot; drona wokol punktu (z modyfikacji)">
<polygon fill="none" stroke="black" points="157,-73.29 157,-92.29 299,-92.29 299,-73.29 157,-73.29"/>
<text text-anchor="middle" x="228" y="-80.29" font-family="Helvetica,sans-Serif" font-size="10.00">Drone::Drone_roundabout</text>
</a>
</g>
</g>
<!-- Node1&#45;&gt;Node6 -->
<g id="edge7" class="edge">
<title>Node1&#45;&gt;Node6</title>
<path fill="none" stroke="midnightblue" d="M489.51,-129.2C480.3,-126.92 470.93,-124.71 462,-122.79 405.22,-110.57 340.03,-99.64 293.06,-92.3"/>
<polygon fill="midnightblue" stroke="midnightblue" points="488.86,-132.64 499.41,-131.69 490.57,-125.85 488.86,-132.64"/>
</g>
<!-- Node7 -->
<g id="node7" class="node">
<title>Node7</title>
<g id="a_node7"><a xlink:href="class_drone.html#a5fc9dd645ad3856b5d3c501c63c464e3" target="_top" xlink:title="Metoda animujaca translacje drona i wyrysowujaca calosc w gnuplocie.">
<polygon fill="none" stroke="black" points="158.5,-23.79 158.5,-53.79 297.5,-53.79 297.5,-23.79 158.5,-23.79"/>
<text text-anchor="start" x="166.5" y="-41.79" font-family="Helvetica,sans-Serif" font-size="10.00">Drone::Drone_translation</text>
<text text-anchor="middle" x="228" y="-30.79" font-family="Helvetica,sans-Serif" font-size="10.00">_animation</text>
</a>
</g>
</g>
<!-- Node1&#45;&gt;Node7 -->
<g id="edge8" class="edge">
<title>Node1&#45;&gt;Node7</title>
<path fill="none" stroke="midnightblue" d="M523.18,-126.31C505.75,-115.66 483.32,-103.16 462,-94.79 408.46,-73.78 344.79,-59.13 297.55,-50.1"/>
<polygon fill="midnightblue" stroke="midnightblue" points="521.47,-129.37 531.81,-131.68 525.17,-123.42 521.47,-129.37"/>
</g>
<!-- Node8 -->
<g id="node8" class="node">
<title>Node8</title>
<g id="a_node8"><a xlink:href="class_drone.html#aedb04b80609b22ff4eb4a957bc149a48" target="_top" xlink:title="Metoda animujaca obrot rotorow i zapisujaca to w plikach. Metoda sluzy jako metoda pomocnicza,...">
<polygon fill="none" stroke="black" points="335,-131.79 335,-161.79 462,-161.79 462,-131.79 335,-131.79"/>
<text text-anchor="start" x="343" y="-149.79" font-family="Helvetica,sans-Serif" font-size="10.00">Drone::Rotors_rotation</text>
<text text-anchor="middle" x="398.5" y="-138.79" font-family="Helvetica,sans-Serif" font-size="10.00">_animation</text>
</a>
</g>
</g>
<!-- Node1&#45;&gt;Node8 -->
<g id="edge9" class="edge">
<title>Node1&#45;&gt;Node8</title>
<path fill="none" stroke="midnightblue" d="M487.49,-146.79C479.05,-146.79 470.44,-146.79 462.08,-146.79"/>
<polygon fill="midnightblue" stroke="midnightblue" points="487.66,-150.29 497.66,-146.79 487.66,-143.29 487.66,-150.29"/>
</g>
<!-- Node5&#45;&gt;Node2 -->
<g id="edge5" class="edge">
<title>Node5&#45;&gt;Node2</title>
<path fill="none" stroke="midnightblue" d="M155.13,-202.79C142.23,-202.79 128.97,-202.79 116.63,-202.79"/>
<polygon fill="midnightblue" stroke="midnightblue" points="155.37,-206.29 165.37,-202.79 155.37,-199.29 155.37,-206.29"/>
</g>
<!-- Node5&#45;&gt;Node4 -->
<g id="edge6" class="edge">
<title>Node5&#45;&gt;Node4</title>
<path fill="none" stroke="midnightblue" d="M187.51,-183.22C158.21,-168.7 118.83,-149.19 91.94,-135.87"/>
<polygon fill="midnightblue" stroke="midnightblue" points="186.13,-186.44 196.64,-187.75 189.24,-180.17 186.13,-186.44"/>
</g>
<!-- Node8&#45;&gt;Node2 -->
<g id="edge10" class="edge">
<title>Node8&#45;&gt;Node2</title>
<path fill="none" stroke="midnightblue" d="M324.93,-154.26C277.03,-159.73 213,-168.06 157,-178.79 143.82,-181.31 129.74,-184.55 116.56,-187.82"/>
<polygon fill="midnightblue" stroke="midnightblue" points="325.35,-157.74 334.9,-153.14 324.57,-150.78 325.35,-157.74"/>
</g>
<!-- Node8&#45;&gt;Node3 -->
<g id="edge11" class="edge">
<title>Node8&#45;&gt;Node3</title>
<path fill="none" stroke="midnightblue" d="M375.86,-169.25C357.11,-187.49 328.44,-212.59 299,-227.79 291.62,-231.6 283.39,-234.71 275.24,-237.23"/>
<polygon fill="midnightblue" stroke="midnightblue" points="378.63,-171.43 383.26,-161.9 373.7,-166.46 378.63,-171.43"/>
</g>
<!-- Node8&#45;&gt;Node4 -->
<g id="edge12" class="edge">
<title>Node8&#45;&gt;Node4</title>
<path fill="none" stroke="midnightblue" d="M324.39,-141.13C263.54,-136.42 177.96,-129.8 121.18,-125.41"/>
<polygon fill="midnightblue" stroke="midnightblue" points="324.45,-144.65 334.7,-141.93 324.99,-137.67 324.45,-144.65"/>
</g>
<!-- Node8&#45;&gt;Node5 -->
<g id="edge13" class="edge">
<title>Node8&#45;&gt;Node5</title>
<path fill="none" stroke="midnightblue" d="M342.74,-164.99C320.6,-172.34 295.36,-180.74 274.28,-187.74"/>
<polygon fill="midnightblue" stroke="midnightblue" points="343.96,-168.27 352.35,-161.8 341.75,-161.63 343.96,-168.27"/>
</g>
<!-- Node8&#45;&gt;Node6 -->
<g id="edge14" class="edge">
<title>Node8&#45;&gt;Node6</title>
<path fill="none" stroke="midnightblue" d="M352.17,-127.77C335.53,-120.95 316.49,-113.33 299,-106.79 285.64,-101.79 270.71,-96.62 258.08,-92.36"/>
<polygon fill="midnightblue" stroke="midnightblue" points="351.09,-131.11 361.66,-131.68 353.75,-124.63 351.09,-131.11"/>
</g>
<!-- Node8&#45;&gt;Node7 -->
<g id="edge15" class="edge">
<title>Node8&#45;&gt;Node7</title>
<path fill="none" stroke="midnightblue" d="M375.64,-124.34C356.76,-106 328.01,-80.46 299,-63.79 292.51,-60.06 285.37,-56.74 278.2,-53.83"/>
<polygon fill="midnightblue" stroke="midnightblue" points="373.53,-127.17 383.1,-131.72 378.45,-122.2 373.53,-127.17"/>
</g>
</g>
</svg>
        <g id="navigator" transform="translate(0 0)" fill="#404254">
                <rect fill="#f2f5e9" fill-opacity="0.5" stroke="#606060" stroke-width=".5" x="0" y="0" width="60" height="60"/>
                <use id="zoomplus" xlink:href="#zoomPlus" x="17" y="9" onmousedown="handleZoom(evt,'in')"/>
                <use id="zoomminus" xlink:href="#zoomMin" x="42" y="9" onmousedown="handleZoom(evt,'out')"/>
                <use id="reset" xlink:href="#resetDef" x="30" y="36" onmousedown="handleReset()"/>
                <g id="arrowUp" xlink:href="#dirArrow" transform="translate(30 24)" onmousedown="handlePan(0,-1)">
                  <use xlink:href="#rim" fill="#404040">
                        <set attributeName="fill" to="#808080" begin="arrowUp.mouseover" end="arrowUp.mouseout"/>
                  </use>
                  <path fill="none" stroke="white" stroke-width="1.5" d="M0,-3.0v7 M-2.5,-0.5L0,-3.0L2.5,-0.5"/>
                </g>
                <g id="arrowRight" xlink:href="#dirArrow" transform="rotate(90) translate(36 -43)" onmousedown="handlePan(1,0)">
                  <use xlink:href="#rim" fill="#404040">
                        <set attributeName="fill" to="#808080" begin="arrowRight.mouseover" end="arrowRight.mouseout"/>
                  </use>
                  <path fill="none" stroke="white" stroke-width="1.5" d="M0,-3.0v7 M-2.5,-0.5L0,-3.0L2.5,-0.5"/>
                </g>
                <g id="arrowDown" xlink:href="#dirArrow" transform="rotate(180) translate(-30 -48)" onmousedown="handlePan(0,1)">
                  <use xlink:href="#rim" fill="#404040">
                        <set attributeName="fill" to="#808080" begin="arrowDown.mouseover" end="arrowDown.mouseout"/>
                  </use>
                  <path fill="none" stroke="white" stroke-width="1.5" d="M0,-3.0v7 M-2.5,-0.5L0,-3.0L2.5,-0.5"/>
                </g>
                <g id="arrowLeft" xlink:href="#dirArrow" transform="rotate(270) translate(-36 17)" onmousedown="handlePan(-1,0)">
                  <use xlink:href="#rim" fill="#404040">
                        <set attributeName="fill" to="#808080" begin="arrowLeft.mouseover" end="arrowLeft.mouseout"/>
                  </use>
                  <path fill="none" stroke="white" stroke-width="1.5" d="M0,-3.0v7 M-2.5,-0.5L0,-3.0L2.5,-0.5"/>
                </g>
        </g>
        <svg viewBox="0 0 15 15" width="100%" height="30px" preserveAspectRatio="xMaxYMin meet">
         <g id="arrow_out" transform="scale(0.3 0.3)">
          <a xlink:href="class_drone_aae0029f50083a01fe75c7d504c2fe5b9_icgraph_org.svg" target="_base">
           <rect id="button" ry="5" rx="5" y="6" x="6" height="38" width="38"
                fill="#f2f5e9" fill-opacity="0.5" stroke="#606060" stroke-width="1.0"/>
           <path id="arrow"
             d="M 11.500037,31.436501 C 11.940474,20.09759 22.043105,11.32322 32.158766,21.979434 L 37.068811,17.246167 C 37.068811,17.246167 37.088388,32 37.088388,32 L 22.160133,31.978069 C 22.160133,31.978069 26.997745,27.140456 26.997745,27.140456 C 18.528582,18.264221 13.291696,25.230495 11.500037,31.436501 z"
             style="fill:#404040;"/>
          </a>
         </g>
        </svg>
</svg>
