<?xml version="1.0" encoding="UTF-8" standalone="no"?>
<!DOCTYPE svg PUBLIC "-//W3C//DTD SVG 1.1//EN"
 "http://www.w3.org/Graphics/SVG/1.1/DTD/svg11.dtd">
<!-- Generated by graphviz version 2.43.0 (0)
 -->
<!-- Title: Matrix::apply_matrix_to_rotation Pages: 1 -->
<!--zoomable 187 -->
<svg id="main" version="1.1" xmlns="http://www.w3.org/2000/svg" xmlns:xlink="http://www.w3.org/1999/xlink" xml:space="preserve" onload="init(evt)">
<style type="text/css"><![CDATA[
.edge:hover path { stroke: red; }
.edge:hover polygon { stroke: red; fill: red; }
]]></style>
<script type="text/javascript"><![CDATA[
var edges = document.getElementsByTagName('g');
if (edges && edges.length) {
  for (var i=0;i<edges.length;i++) {
    if (edges[i].id.substr(0,4)=='edge') {
      edges[i].setAttribute('class','edge');
    }
  }
}
]]></script>
        <defs>
                <circle id="rim" cx="0" cy="0" r="7"/>
                <circle id="rim2" cx="0" cy="0" r="3.5"/>
                <g id="zoomPlus">
                        <use xlink:href="#rim" fill="#404040">
                                <set attributeName="fill" to="#808080" begin="zoomplus.mouseover" end="zoomplus.mouseout"/>
                        </use>
                        <path d="M-4,0h8M0,-4v8" fill="none" stroke="white" stroke-width="1.5" pointer-events="none"/>
                </g>
                <g id="zoomMin">
                        <use xlink:href="#rim" fill="#404040">
                                <set attributeName="fill" to="#808080" begin="zoomminus.mouseover" end="zoomminus.mouseout"/>
                        </use>
                        <path d="M-4,0h8" fill="none" stroke="white" stroke-width="1.5" pointer-events="none"/>
                </g>
                <g id="dirArrow">
                        <path fill="none" stroke="white" stroke-width="1.5" d="M0,-3.0v7 M-2.5,-0.5L0,-3.0L2.5,-0.5"/>
                </g>
               <g id="resetDef">
                       <use xlink:href="#rim2" fill="#404040">
                               <set attributeName="fill" to="#808080" begin="reset.mouseover" end="reset.mouseout"/>
                       </use>
               </g>
        </defs>

<script type="text/javascript">
var viewWidth = 996;
var viewHeight = 187;
var sectionId = 'dynsection-1';
</script>
<script xlink:href="svgpan.js"/>
<svg id="graph" class="graph">
<g id="viewport">
<title>Matrix::apply_matrix_to_rotation</title>
<!-- Node1 -->
<g id="node1" class="node">
<title>Node1</title>
<g id="a_node1"><a xlink:title=" ">
<polygon fill="#bfbfbf" stroke="black" points="869,-97.18 869,-127.18 988,-127.18 988,-97.18 869,-97.18"/>
<text text-anchor="start" x="877" y="-115.18" font-family="Helvetica,sans-Serif" font-size="10.00">Matrix::apply_matrix</text>
<text text-anchor="middle" x="928.5" y="-104.18" font-family="Helvetica,sans-Serif" font-size="10.00">_to_rotation</text>
</a>
</g>
</g>
<!-- Node2 -->
<g id="node2" class="node">
<title>Node2</title>
<g id="a_node2"><a xlink:href="class_cuboid.html#a23eefb4a7b07b31bcf4db7271b83b917" target="_top" xlink:title="Metoda obracajaca prostopadloscian o zadany kat w 3D">
<polygon fill="none" stroke="black" points="707.5,-140.68 707.5,-159.68 802.5,-159.68 802.5,-140.68 707.5,-140.68"/>
<text text-anchor="middle" x="755" y="-147.68" font-family="Helvetica,sans-Serif" font-size="10.00">Cuboid::rotation</text>
</a>
</g>
</g>
<!-- Node1&#45;&gt;Node2 -->
<g id="edge1" class="edge">
<title>Node1&#45;&gt;Node2</title>
<path fill="none" stroke="midnightblue" d="M859.15,-127.32C838.9,-131.81 817.3,-136.6 799.12,-140.62"/>
<polygon fill="midnightblue" stroke="midnightblue" points="859.95,-130.73 868.96,-125.15 858.44,-123.9 859.95,-130.73"/>
</g>
<!-- Node3 -->
<g id="node3" class="node">
<title>Node3</title>
<g id="a_node3"><a xlink:href="class_prism.html#a22c5467db5d960bddbaf9a52f55c55cb" target="_top" xlink:title="Metoda obracajaca graniastoslup o zadany kat w 3D wokol srodka figury">
<polygon fill="none" stroke="black" points="680,-102.68 680,-121.68 830,-121.68 830,-102.68 680,-102.68"/>
<text text-anchor="middle" x="755" y="-109.68" font-family="Helvetica,sans-Serif" font-size="10.00">Prism::rotation_around_cen</text>
</a>
</g>
</g>
<!-- Node1&#45;&gt;Node3 -->
<g id="edge2" class="edge">
<title>Node1&#45;&gt;Node3</title>
<path fill="none" stroke="midnightblue" d="M858.82,-112.18C849.36,-112.18 839.6,-112.18 830.05,-112.18"/>
<polygon fill="midnightblue" stroke="midnightblue" points="858.96,-115.68 868.96,-112.18 858.96,-108.68 858.96,-115.68"/>
</g>
<!-- Node12 -->
<g id="node12" class="node">
<title>Node12</title>
<g id="a_node12"><a xlink:href="class_cuboid.html#a6c697c2d9b36a14c43c7328876d5a1f0" target="_top" xlink:title="Metoda obracajaca prostopadloscian o zadany kat w 3D wokol srodka figury">
<polygon fill="none" stroke="black" points="677,-64.68 677,-83.68 833,-83.68 833,-64.68 677,-64.68"/>
<text text-anchor="middle" x="755" y="-71.68" font-family="Helvetica,sans-Serif" font-size="10.00">Cuboid::rotation_around_cen</text>
</a>
</g>
</g>
<!-- Node1&#45;&gt;Node12 -->
<g id="edge18" class="edge">
<title>Node1&#45;&gt;Node12</title>
<path fill="none" stroke="midnightblue" d="M859.15,-97.03C838.9,-92.55 817.3,-87.76 799.12,-83.73"/>
<polygon fill="midnightblue" stroke="midnightblue" points="858.44,-100.46 868.96,-99.21 859.95,-93.63 858.44,-100.46"/>
</g>
<!-- Node4 -->
<g id="node4" class="node">
<title>Node4</title>
<g id="a_node4"><a xlink:href="class_drone.html#ad42bc54902df967b94717617aca1a974" target="_top" xlink:title="Metoda obracajaca dron o zadany kat w 3D wokol srodka figury">
<polygon fill="none" stroke="black" points="489,-64.68 489,-83.68 641,-83.68 641,-64.68 489,-64.68"/>
<text text-anchor="middle" x="565" y="-71.68" font-family="Helvetica,sans-Serif" font-size="10.00">Drone::rotation_around_cen</text>
</a>
</g>
</g>
<!-- Node3&#45;&gt;Node4 -->
<g id="edge3" class="edge">
<title>Node3&#45;&gt;Node4</title>
<path fill="none" stroke="midnightblue" d="M696.56,-100.57C669.83,-95.16 638.41,-88.82 613.1,-83.7"/>
<polygon fill="midnightblue" stroke="midnightblue" points="696.06,-104.04 706.56,-102.59 697.45,-97.18 696.06,-104.04"/>
</g>
<!-- Node11 -->
<g id="node11" class="node">
<title>Node11</title>
<g id="a_node11"><a xlink:href="class_drone.html#aedb04b80609b22ff4eb4a957bc149a48" target="_top" xlink:title="Metoda animujaca obrot rotorow i zapisujaca to w plikach. Metoda sluzy jako metoda pomocnicza,...">
<polygon fill="none" stroke="black" points="326,-108.18 326,-138.18 453,-138.18 453,-108.18 326,-108.18"/>
<text text-anchor="start" x="334" y="-126.18" font-family="Helvetica,sans-Serif" font-size="10.00">Drone::Rotors_rotation</text>
<text text-anchor="middle" x="389.5" y="-115.18" font-family="Helvetica,sans-Serif" font-size="10.00">_animation</text>
</a>
</g>
</g>
<!-- Node3&#45;&gt;Node11 -->
<g id="edge13" class="edge">
<title>Node3&#45;&gt;Node11</title>
<path fill="none" stroke="midnightblue" d="M669.17,-114.75C603.03,-116.75 512.7,-119.48 453.04,-121.29"/>
<polygon fill="midnightblue" stroke="midnightblue" points="669.67,-118.23 679.56,-114.43 669.46,-111.24 669.67,-118.23"/>
</g>
<!-- Node5 -->
<g id="node5" class="node">
<title>Node5</title>
<g id="a_node5"><a xlink:href="class_drone.html#ab692baa4be5c43b72990ce1b01bdc805" target="_top" xlink:title="Konstruktor bezparametryczny klasy Drone. Powstaly dron jest skonstruowany z bezparametrycznych prost...">
<polygon fill="none" stroke="black" points="349,-20.68 349,-39.68 430,-39.68 430,-20.68 349,-20.68"/>
<text text-anchor="middle" x="389.5" y="-27.68" font-family="Helvetica,sans-Serif" font-size="10.00">Drone::Drone</text>
</a>
</g>
</g>
<!-- Node4&#45;&gt;Node5 -->
<g id="edge4" class="edge">
<title>Node4&#45;&gt;Node5</title>
<path fill="none" stroke="midnightblue" d="M516.44,-62.12C488.61,-55.06 453.98,-46.28 428.07,-39.71"/>
<polygon fill="midnightblue" stroke="midnightblue" points="515.8,-65.57 526.35,-64.63 517.52,-58.78 515.8,-65.57"/>
</g>
<!-- Node6 -->
<g id="node6" class="node">
<title>Node6</title>
<g id="a_node6"><a xlink:href="class_drone.html#af03af60a9b92e4191a7e66b5c20b52bb" target="_top" xlink:title="Metoda zamieniajaca drona na tego z pliku sample.">
<polygon fill="none" stroke="black" points="328.5,-59.18 328.5,-89.18 450.5,-89.18 450.5,-59.18 328.5,-59.18"/>
<text text-anchor="start" x="336.5" y="-77.18" font-family="Helvetica,sans-Serif" font-size="10.00">Drone::Drone_change</text>
<text text-anchor="middle" x="389.5" y="-66.18" font-family="Helvetica,sans-Serif" font-size="10.00">_to_sample</text>
</a>
</g>
</g>
<!-- Node4&#45;&gt;Node6 -->
<g id="edge5" class="edge">
<title>Node4&#45;&gt;Node6</title>
<path fill="none" stroke="midnightblue" d="M478.64,-74.18C469.15,-74.18 459.64,-74.18 450.55,-74.18"/>
<polygon fill="midnightblue" stroke="midnightblue" points="478.91,-77.68 488.91,-74.18 478.91,-70.68 478.91,-77.68"/>
</g>
<!-- Node8 -->
<g id="node8" class="node">
<title>Node8</title>
<g id="a_node8"><a xlink:href="class_drone.html#af052f6bb793d1229b99b16b800b95b82" target="_top" xlink:title="Metoda animujaca obrot drona i wyrysowujaca calosc w gnuplocie.">
<polygon fill="none" stroke="black" points="156.5,-130.18 156.5,-160.18 281.5,-160.18 281.5,-130.18 156.5,-130.18"/>
<text text-anchor="start" x="164.5" y="-148.18" font-family="Helvetica,sans-Serif" font-size="10.00">Drone::Drone_rotation</text>
<text text-anchor="middle" x="219" y="-137.18" font-family="Helvetica,sans-Serif" font-size="10.00">_animation</text>
</a>
</g>
</g>
<!-- Node4&#45;&gt;Node8 -->
<g id="edge11" class="edge">
<title>Node4&#45;&gt;Node8</title>
<path fill="none" stroke="midnightblue" d="M546.5,-90.73C525.97,-108.9 490.02,-136.97 453,-148.18 396.86,-165.18 329.56,-161.96 281.76,-155.97"/>
<polygon fill="midnightblue" stroke="midnightblue" points="549.02,-93.17 554.07,-83.86 544.31,-87.99 549.02,-93.17"/>
</g>
<!-- Node9 -->
<g id="node9" class="node">
<title>Node9</title>
<g id="a_node9"><a xlink:href="class_drone.html#ab7808296cec81143dbddd7516340a371" target="_top" xlink:title="Metoda robiaca &quot;oblot&quot; drona wokol punktu (z modyfikacji)">
<polygon fill="none" stroke="black" points="148,-4.68 148,-23.68 290,-23.68 290,-4.68 148,-4.68"/>
<text text-anchor="middle" x="219" y="-11.68" font-family="Helvetica,sans-Serif" font-size="10.00">Drone::Drone_roundabout</text>
</a>
</g>
</g>
<!-- Node4&#45;&gt;Node9 -->
<g id="edge12" class="edge">
<title>Node4&#45;&gt;Node9</title>
<path fill="none" stroke="midnightblue" d="M543.74,-58.35C522.5,-42.86 487.49,-20.28 453,-11.18 395.89,3.9 328.14,0.8 280.46,-4.64"/>
<polygon fill="midnightblue" stroke="midnightblue" points="541.85,-61.31 551.95,-64.5 546.04,-55.71 541.85,-61.31"/>
</g>
<!-- Node7 -->
<g id="node7" class="node">
<title>Node7</title>
<g id="a_node7"><a xlink:href="class_drone.html#ac4d24c27fb2c107d2e8bda0c2bf5cfa1" target="_top" xlink:title="Metoda obliczajaca i przeprowadzajaca caly ruch drona (obrot o kat i przelot z zadania 5....">
<polygon fill="none" stroke="black" points="0,-130.18 0,-160.18 112,-160.18 112,-130.18 0,-130.18"/>
<text text-anchor="start" x="8" y="-148.18" font-family="Helvetica,sans-Serif" font-size="10.00">Drone::Drone_basic</text>
<text text-anchor="middle" x="56" y="-137.18" font-family="Helvetica,sans-Serif" font-size="10.00">_motion</text>
</a>
</g>
</g>
<!-- Node6&#45;&gt;Node7 -->
<g id="edge6" class="edge">
<title>Node6&#45;&gt;Node7</title>
<path fill="none" stroke="midnightblue" d="M318.1,-60.71C269,-54.31 202.73,-51.73 148,-71.18 115.19,-82.84 85.61,-111.94 69.58,-129.98"/>
<polygon fill="midnightblue" stroke="midnightblue" points="317.92,-64.22 328.3,-62.13 318.88,-57.29 317.92,-64.22"/>
</g>
<!-- Node6&#45;&gt;Node8 -->
<g id="edge7" class="edge">
<title>Node6&#45;&gt;Node8</title>
<path fill="none" stroke="midnightblue" d="M339.2,-93.1C334.7,-95.07 330.24,-97.11 326,-99.18 309.36,-107.31 306.79,-112.36 290,-120.18 282.4,-123.72 274.14,-127.07 266.05,-130.11"/>
<polygon fill="midnightblue" stroke="midnightblue" points="340.6,-96.31 348.44,-89.18 337.87,-89.86 340.6,-96.31"/>
</g>
<!-- Node6&#45;&gt;Node9 -->
<g id="edge9" class="edge">
<title>Node6&#45;&gt;Node9</title>
<path fill="none" stroke="midnightblue" d="M338.42,-55.65C322.92,-49.98 305.78,-43.77 290,-38.18 276.32,-33.33 261.07,-28.09 248.31,-23.74"/>
<polygon fill="midnightblue" stroke="midnightblue" points="337.24,-58.95 347.83,-59.11 339.65,-52.38 337.24,-58.95"/>
</g>
<!-- Node10 -->
<g id="node10" class="node">
<title>Node10</title>
<g id="a_node10"><a xlink:href="class_drone.html#a5fc9dd645ad3856b5d3c501c63c464e3" target="_top" xlink:title="Metoda animujaca translacje drona i wyrysowujaca calosc w gnuplocie.">
<polygon fill="none" stroke="black" points="149.5,-81.18 149.5,-111.18 288.5,-111.18 288.5,-81.18 149.5,-81.18"/>
<text text-anchor="start" x="157.5" y="-99.18" font-family="Helvetica,sans-Serif" font-size="10.00">Drone::Drone_translation</text>
<text text-anchor="middle" x="219" y="-88.18" font-family="Helvetica,sans-Serif" font-size="10.00">_animation</text>
</a>
</g>
</g>
<!-- Node6&#45;&gt;Node10 -->
<g id="edge10" class="edge">
<title>Node6&#45;&gt;Node10</title>
<path fill="none" stroke="midnightblue" d="M318.07,-83.37C308.3,-84.65 298.27,-85.96 288.53,-87.23"/>
<polygon fill="midnightblue" stroke="midnightblue" points="318.68,-86.82 328.14,-82.06 317.77,-79.88 318.68,-86.82"/>
</g>
<!-- Node8&#45;&gt;Node7 -->
<g id="edge8" class="edge">
<title>Node8&#45;&gt;Node7</title>
<path fill="none" stroke="midnightblue" d="M145.87,-145.18C134.51,-145.18 122.93,-145.18 112.04,-145.18"/>
<polygon fill="midnightblue" stroke="midnightblue" points="146.21,-148.68 156.21,-145.18 146.21,-141.68 146.21,-148.68"/>
</g>
<!-- Node11&#45;&gt;Node7 -->
<g id="edge14" class="edge">
<title>Node11&#45;&gt;Node7</title>
<path fill="none" stroke="midnightblue" d="M355.62,-143.42C337.09,-153.64 313.08,-164.95 290,-170.18 228.45,-184.11 210.54,-178.61 148,-170.18 132.9,-168.14 116.76,-164.29 102.33,-160.2"/>
<polygon fill="midnightblue" stroke="midnightblue" points="357.55,-146.35 364.51,-138.37 354.09,-140.27 357.55,-146.35"/>
</g>
<!-- Node11&#45;&gt;Node8 -->
<g id="edge15" class="edge">
<title>Node11&#45;&gt;Node8</title>
<path fill="none" stroke="midnightblue" d="M315.5,-132.71C304.22,-134.18 292.67,-135.69 281.67,-137.13"/>
<polygon fill="midnightblue" stroke="midnightblue" points="316.29,-136.14 325.76,-131.37 315.39,-129.19 316.29,-136.14"/>
</g>
<!-- Node11&#45;&gt;Node9 -->
<g id="edge16" class="edge">
<title>Node11&#45;&gt;Node9</title>
<path fill="none" stroke="midnightblue" d="M336.74,-103.86C333.04,-102.06 329.43,-100.17 326,-98.18 315.89,-92.32 257.45,-44.81 231.92,-23.95"/>
<polygon fill="midnightblue" stroke="midnightblue" points="335.47,-107.14 346.02,-108.13 338.4,-100.77 335.47,-107.14"/>
</g>
<!-- Node11&#45;&gt;Node10 -->
<g id="edge17" class="edge">
<title>Node11&#45;&gt;Node10</title>
<path fill="none" stroke="midnightblue" d="M315.74,-111.52C306.77,-110.08 297.64,-108.62 288.74,-107.19"/>
<polygon fill="midnightblue" stroke="midnightblue" points="315.33,-115 325.76,-113.12 316.44,-108.09 315.33,-115"/>
</g>
<!-- Node12&#45;&gt;Node4 -->
<g id="edge19" class="edge">
<title>Node12&#45;&gt;Node4</title>
<path fill="none" stroke="midnightblue" d="M666.91,-74.18C658.28,-74.18 649.56,-74.18 641.07,-74.18"/>
<polygon fill="midnightblue" stroke="midnightblue" points="666.99,-77.68 676.99,-74.18 666.99,-70.68 666.99,-77.68"/>
</g>
</g>
</svg>
        <g id="navigator" transform="translate(0 0)" fill="#404254">
                <rect fill="#f2f5e9" fill-opacity="0.5" stroke="#606060" stroke-width=".5" x="0" y="0" width="60" height="60"/>
                <use id="zoomplus" xlink:href="#zoomPlus" x="17" y="9" onmousedown="handleZoom(evt,'in')"/>
                <use id="zoomminus" xlink:href="#zoomMin" x="42" y="9" onmousedown="handleZoom(evt,'out')"/>
                <use id="reset" xlink:href="#resetDef" x="30" y="36" onmousedown="handleReset()"/>
                <g id="arrowUp" xlink:href="#dirArrow" transform="translate(30 24)" onmousedown="handlePan(0,-1)">
                  <use xlink:href="#rim" fill="#404040">
                        <set attributeName="fill" to="#808080" begin="arrowUp.mouseover" end="arrowUp.mouseout"/>
                  </use>
                  <path fill="none" stroke="white" stroke-width="1.5" d="M0,-3.0v7 M-2.5,-0.5L0,-3.0L2.5,-0.5"/>
                </g>
                <g id="arrowRight" xlink:href="#dirArrow" transform="rotate(90) translate(36 -43)" onmousedown="handlePan(1,0)">
                  <use xlink:href="#rim" fill="#404040">
                        <set attributeName="fill" to="#808080" begin="arrowRight.mouseover" end="arrowRight.mouseout"/>
                  </use>
                  <path fill="none" stroke="white" stroke-width="1.5" d="M0,-3.0v7 M-2.5,-0.5L0,-3.0L2.5,-0.5"/>
                </g>
                <g id="arrowDown" xlink:href="#dirArrow" transform="rotate(180) translate(-30 -48)" onmousedown="handlePan(0,1)">
                  <use xlink:href="#rim" fill="#404040">
                        <set attributeName="fill" to="#808080" begin="arrowDown.mouseover" end="arrowDown.mouseout"/>
                  </use>
                  <path fill="none" stroke="white" stroke-width="1.5" d="M0,-3.0v7 M-2.5,-0.5L0,-3.0L2.5,-0.5"/>
                </g>
                <g id="arrowLeft" xlink:href="#dirArrow" transform="rotate(270) translate(-36 17)" onmousedown="handlePan(-1,0)">
                  <use xlink:href="#rim" fill="#404040">
                        <set attributeName="fill" to="#808080" begin="arrowLeft.mouseover" end="arrowLeft.mouseout"/>
                  </use>
                  <path fill="none" stroke="white" stroke-width="1.5" d="M0,-3.0v7 M-2.5,-0.5L0,-3.0L2.5,-0.5"/>
                </g>
        </g>
        <svg viewBox="0 0 15 15" width="100%" height="30px" preserveAspectRatio="xMaxYMin meet">
         <g id="arrow_out" transform="scale(0.3 0.3)">
          <a xlink:href="class_matrix_ad6df418144dfdc3236f990dc3fb0a50a_icgraph_org.svg" target="_base">
           <rect id="button" ry="5" rx="5" y="6" x="6" height="38" width="38"
                fill="#f2f5e9" fill-opacity="0.5" stroke="#606060" stroke-width="1.0"/>
           <path id="arrow"
             d="M 11.500037,31.436501 C 11.940474,20.09759 22.043105,11.32322 32.158766,21.979434 L 37.068811,17.246167 C 37.068811,17.246167 37.088388,32 37.088388,32 L 22.160133,31.978069 C 22.160133,31.978069 26.997745,27.140456 26.997745,27.140456 C 18.528582,18.264221 13.291696,25.230495 11.500037,31.436501 z"
             style="fill:#404040;"/>
          </a>
         </g>
        </svg>
</svg>
