<?xml version="1.0" encoding="UTF-8" standalone="no"?>
<!DOCTYPE svg PUBLIC "-//W3C//DTD SVG 1.1//EN"
 "http://www.w3.org/Graphics/SVG/1.1/DTD/svg11.dtd">
<!-- Generated by graphviz version 2.43.0 (0)
 -->
<!-- Title: Drone::translation Pages: 1 -->
<svg width="748pt" height="352pt"
 viewBox="0.00 0.00 748.00 352.30" xmlns="http://www.w3.org/2000/svg" xmlns:xlink="http://www.w3.org/1999/xlink">
<g id="graph0" class="graph" transform="scale(1 1) rotate(0) translate(4 348.3)">
<title>Drone::translation</title>
<!-- Node1 -->
<g id="node1" class="node">
<title>Node1</title>
<g id="a_node1"><a xlink:title="Przesuwa drona o zadany wektor w 3D">
<polygon fill="#bfbfbf" stroke="black" points="636,-210.8 636,-229.8 740,-229.8 740,-210.8 636,-210.8"/>
<text text-anchor="middle" x="688" y="-217.8" font-family="Helvetica,sans-Serif" font-size="10.00">Drone::translation</text>
</a>
</g>
</g>
<!-- Node2 -->
<g id="node2" class="node">
<title>Node2</title>
<g id="a_node2"><a xlink:href="class_scene.html#aa5fc0e5a94bfa0766f6e5ff10993630d" target="_top" xlink:title="Skanowanie powierzchni pod dronem, gdy dron nie moze wyladowac w danym miejscu &#160;&#160;Rysowany jest rownie...">
<polygon fill="none" stroke="black" points="493,-279.8 493,-298.8 600,-298.8 600,-279.8 493,-279.8"/>
<text text-anchor="middle" x="546.5" y="-286.8" font-family="Helvetica,sans-Serif" font-size="10.00">Scene::scan_plane</text>
</a>
</g>
</g>
<!-- Node1&#45;&gt;Node2 -->
<g id="edge1" class="edge">
<title>Node1&#45;&gt;Node2</title>
<path fill="none" stroke="midnightblue" d="M658.52,-234.39C631.13,-247.93 590.5,-268.03 566.73,-279.79"/>
<polygon fill="midnightblue" stroke="midnightblue" points="660.19,-237.46 667.6,-229.89 657.09,-231.19 660.19,-237.46"/>
</g>
<!-- Node6 -->
<g id="node6" class="node">
<title>Node6</title>
<g id="a_node6"><a xlink:href="class_drone.html#a6662bd8203e8c9a0721c457b3612a7c1" target="_top" xlink:title="Metoda uzywana przy konstruowania drona przesuwa drona w ten sposob, ze Vector3D centre prostopadlosc...">
<polygon fill="none" stroke="black" points="494.5,-183.3 494.5,-213.3 598.5,-213.3 598.5,-183.3 494.5,-183.3"/>
<text text-anchor="start" x="502.5" y="-201.3" font-family="Helvetica,sans-Serif" font-size="10.00">Drone::translation</text>
<text text-anchor="middle" x="546.5" y="-190.3" font-family="Helvetica,sans-Serif" font-size="10.00">_to_pos</text>
</a>
</g>
</g>
<!-- Node1&#45;&gt;Node6 -->
<g id="edge5" class="edge">
<title>Node1&#45;&gt;Node6</title>
<path fill="none" stroke="midnightblue" d="M625.75,-210.64C616.7,-209.21 607.46,-207.76 598.65,-206.37"/>
<polygon fill="midnightblue" stroke="midnightblue" points="625.42,-214.13 635.85,-212.23 626.51,-207.22 625.42,-214.13"/>
</g>
<!-- Node3 -->
<g id="node3" class="node">
<title>Node3</title>
<g id="a_node3"><a xlink:href="class_scene.html#a5fb0b9741a75dec929b5ea5d6ac917a1" target="_top" xlink:title="Przelot aktywnego drona.">
<polygon fill="none" stroke="black" points="364,-324.8 364,-343.8 428,-343.8 428,-324.8 364,-324.8"/>
<text text-anchor="middle" x="396" y="-331.8" font-family="Helvetica,sans-Serif" font-size="10.00">Scene::fly</text>
</a>
</g>
</g>
<!-- Node2&#45;&gt;Node3 -->
<g id="edge2" class="edge">
<title>Node2&#45;&gt;Node3</title>
<path fill="none" stroke="midnightblue" d="M504.42,-301.75C480.31,-309.05 450.35,-318.13 428.19,-324.85"/>
<polygon fill="midnightblue" stroke="midnightblue" points="505.45,-305.09 514.01,-298.84 503.42,-298.39 505.45,-305.09"/>
</g>
<!-- Node4 -->
<g id="node4" class="node">
<title>Node4</title>
<g id="a_node4"><a xlink:href="class_menu.html#acd338552222b744cd030e17776cb5d9b" target="_top" xlink:title="Obsluguje wybor menu.">
<polygon fill="none" stroke="black" points="171,-324.8 171,-343.8 285,-343.8 285,-324.8 171,-324.8"/>
<text text-anchor="middle" x="228" y="-331.8" font-family="Helvetica,sans-Serif" font-size="10.00">Menu::switch_menu</text>
</a>
</g>
</g>
<!-- Node3&#45;&gt;Node4 -->
<g id="edge3" class="edge">
<title>Node3&#45;&gt;Node4</title>
<path fill="none" stroke="midnightblue" d="M353.73,-334.3C333.06,-334.3 307.71,-334.3 285.28,-334.3"/>
<polygon fill="midnightblue" stroke="midnightblue" points="353.78,-337.8 363.78,-334.3 353.78,-330.8 353.78,-337.8"/>
</g>
<!-- Node5 -->
<g id="node5" class="node">
<title>Node5</title>
<g id="a_node5"><a xlink:href="class_menu.html#af7e6a49bd56499facef9cc98561ea169" target="_top" xlink:title="Inicjuje i obsluguje menu.">
<polygon fill="none" stroke="black" points="11.5,-324.8 11.5,-343.8 109.5,-343.8 109.5,-324.8 11.5,-324.8"/>
<text text-anchor="middle" x="60.5" y="-331.8" font-family="Helvetica,sans-Serif" font-size="10.00">Menu::init_menu</text>
</a>
</g>
</g>
<!-- Node4&#45;&gt;Node5 -->
<g id="edge4" class="edge">
<title>Node4&#45;&gt;Node5</title>
<path fill="none" stroke="midnightblue" d="M160.54,-334.3C143.55,-334.3 125.61,-334.3 109.73,-334.3"/>
<polygon fill="midnightblue" stroke="midnightblue" points="160.97,-337.8 170.97,-334.3 160.97,-330.8 160.97,-337.8"/>
</g>
<!-- Node7 -->
<g id="node7" class="node">
<title>Node7</title>
<g id="a_node7"><a xlink:href="class_drone.html#a7eecbd031df9009e113d355a9dcdf4e1" target="_top" xlink:title="Metoda obliczajaca i przeprowadzajaca caly ruch drona (obrot o kat i przelot z zadania 5....">
<polygon fill="none" stroke="black" points="4.5,-67.3 4.5,-97.3 116.5,-97.3 116.5,-67.3 4.5,-67.3"/>
<text text-anchor="start" x="12.5" y="-85.3" font-family="Helvetica,sans-Serif" font-size="10.00">Drone::Drone_basic</text>
<text text-anchor="middle" x="60.5" y="-74.3" font-family="Helvetica,sans-Serif" font-size="10.00">_motion_flight</text>
</a>
</g>
</g>
<!-- Node6&#45;&gt;Node7 -->
<g id="edge6" class="edge">
<title>Node6&#45;&gt;Node7</title>
<path fill="none" stroke="midnightblue" d="M536.37,-173.51C523.56,-142.32 497.23,-89.45 457,-61.3 346.98,15.7 286.46,10.4 157,-25.3 127.59,-33.41 98.11,-53.22 79.84,-67.2"/>
<polygon fill="midnightblue" stroke="midnightblue" points="533.26,-175.17 540.19,-183.19 539.77,-172.6 533.26,-175.17"/>
</g>
<!-- Node8 -->
<g id="node8" class="node">
<title>Node8</title>
<g id="a_node8"><a xlink:href="class_drone.html#af03af60a9b92e4191a7e66b5c20b52bb" target="_top" xlink:title="Metoda zamieniajaca drona na tego z pliku sample.">
<polygon fill="none" stroke="black" points="335,-120.3 335,-150.3 457,-150.3 457,-120.3 335,-120.3"/>
<text text-anchor="start" x="343" y="-138.3" font-family="Helvetica,sans-Serif" font-size="10.00">Drone::Drone_change</text>
<text text-anchor="middle" x="396" y="-127.3" font-family="Helvetica,sans-Serif" font-size="10.00">_to_sample</text>
</a>
</g>
</g>
<!-- Node6&#45;&gt;Node8 -->
<g id="edge7" class="edge">
<title>Node6&#45;&gt;Node8</title>
<path fill="none" stroke="midnightblue" d="M500.55,-179.23C478.75,-169.98 452.94,-159.03 432.54,-150.38"/>
<polygon fill="midnightblue" stroke="midnightblue" points="499.36,-182.53 509.93,-183.21 502.09,-176.08 499.36,-182.53"/>
</g>
<!-- Node9 -->
<g id="node9" class="node">
<title>Node9</title>
<g id="a_node9"><a xlink:href="class_drone.html#a4abbed4a4cc52e5630f07f9129b46c5c" target="_top" xlink:title="Metoda realizujaca ladowanie drona.">
<polygon fill="none" stroke="black" points="165.5,-198.8 165.5,-217.8 290.5,-217.8 290.5,-198.8 165.5,-198.8"/>
<text text-anchor="middle" x="228" y="-205.8" font-family="Helvetica,sans-Serif" font-size="10.00">Drone::Drone_descent</text>
</a>
</g>
</g>
<!-- Node6&#45;&gt;Node9 -->
<g id="edge16" class="edge">
<title>Node6&#45;&gt;Node9</title>
<path fill="none" stroke="midnightblue" d="M484.35,-196.78C442.32,-196.11 385.25,-195.93 335,-198.3 320.6,-198.98 305.13,-200.17 290.59,-201.5"/>
<polygon fill="midnightblue" stroke="midnightblue" points="484.37,-200.28 494.43,-196.96 484.49,-193.28 484.37,-200.28"/>
</g>
<!-- Node10 -->
<g id="node10" class="node">
<title>Node10</title>
<g id="a_node10"><a xlink:href="class_drone.html#aec9abadf85777ab20e361d1389aab466" target="_top" xlink:title="Metoda obliczajaca i przeprowadzajaca koncowy ruch drona (obrot o kat i koncowy przelot z zadania 5....">
<polygon fill="none" stroke="black" points="0,-155.3 0,-185.3 121,-185.3 121,-155.3 0,-155.3"/>
<text text-anchor="start" x="8" y="-173.3" font-family="Helvetica,sans-Serif" font-size="10.00">Drone::Drone_motion</text>
<text text-anchor="middle" x="60.5" y="-162.3" font-family="Helvetica,sans-Serif" font-size="10.00">_after_update</text>
</a>
</g>
</g>
<!-- Node6&#45;&gt;Node10 -->
<g id="edge17" class="edge">
<title>Node6&#45;&gt;Node10</title>
<path fill="none" stroke="midnightblue" d="M520.04,-219.92C503.24,-232.96 480.13,-248.67 457,-257.3 331.79,-303.99 278.96,-331.92 157,-277.3 114.73,-258.37 83.47,-210.46 69.54,-185.68"/>
<polygon fill="midnightblue" stroke="midnightblue" points="522.58,-222.37 528.22,-213.4 518.22,-216.9 522.58,-222.37"/>
</g>
<!-- Node12 -->
<g id="node12" class="node">
<title>Node12</title>
<g id="a_node12"><a xlink:href="class_drone.html#ab7808296cec81143dbddd7516340a371" target="_top" xlink:title="Metoda robiaca &quot;oblot&quot; drona wokol punktu (z modyfikacji)">
<polygon fill="none" stroke="black" points="157,-34.8 157,-53.8 299,-53.8 299,-34.8 157,-34.8"/>
<text text-anchor="middle" x="228" y="-41.8" font-family="Helvetica,sans-Serif" font-size="10.00">Drone::Drone_roundabout</text>
</a>
</g>
</g>
<!-- Node6&#45;&gt;Node12 -->
<g id="edge18" class="edge">
<title>Node6&#45;&gt;Node12</title>
<path fill="none" stroke="midnightblue" d="M527.61,-175.2C511.23,-155.54 485.28,-127.92 457,-111.3 405.07,-80.78 338.21,-63.28 290.35,-53.87"/>
<polygon fill="midnightblue" stroke="midnightblue" points="525,-177.54 534.02,-183.09 530.43,-173.12 525,-177.54"/>
</g>
<!-- Node13 -->
<g id="node13" class="node">
<title>Node13</title>
<g id="a_node13"><a xlink:href="class_drone.html#a5fc9dd645ad3856b5d3c501c63c464e3" target="_top" xlink:title="Metoda animujaca translacje drona i wyrysowujaca calosc w gnuplocie.">
<polygon fill="none" stroke="black" points="158.5,-237.3 158.5,-267.3 297.5,-267.3 297.5,-237.3 158.5,-237.3"/>
<text text-anchor="start" x="166.5" y="-255.3" font-family="Helvetica,sans-Serif" font-size="10.00">Drone::Drone_translation</text>
<text text-anchor="middle" x="228" y="-244.3" font-family="Helvetica,sans-Serif" font-size="10.00">_animation</text>
</a>
</g>
</g>
<!-- Node6&#45;&gt;Node13 -->
<g id="edge19" class="edge">
<title>Node6&#45;&gt;Node13</title>
<path fill="none" stroke="midnightblue" d="M508.05,-217.68C492.64,-224.78 474.36,-232.09 457,-236.3 404.46,-249.04 343.26,-252.75 297.5,-253.43"/>
<polygon fill="midnightblue" stroke="midnightblue" points="509.71,-220.77 517.25,-213.33 506.71,-214.45 509.71,-220.77"/>
</g>
<!-- Node14 -->
<g id="node14" class="node">
<title>Node14</title>
<g id="a_node14"><a xlink:href="class_scene.html#adca9214dccab3d77eed9d8af7db67f94" target="_top" xlink:title="Konstruktor paramereyczny klasy Scene.">
<polygon fill="none" stroke="black" points="355.5,-207.8 355.5,-226.8 436.5,-226.8 436.5,-207.8 355.5,-207.8"/>
<text text-anchor="middle" x="396" y="-214.8" font-family="Helvetica,sans-Serif" font-size="10.00">Scene::Scene</text>
</a>
</g>
</g>
<!-- Node6&#45;&gt;Node14 -->
<g id="edge20" class="edge">
<title>Node6&#45;&gt;Node14</title>
<path fill="none" stroke="midnightblue" d="M484.08,-206.16C468.17,-208.19 451.44,-210.33 436.94,-212.19"/>
<polygon fill="midnightblue" stroke="midnightblue" points="484.92,-209.58 494.39,-204.84 484.03,-202.64 484.92,-209.58"/>
</g>
<!-- Node8&#45;&gt;Node7 -->
<g id="edge8" class="edge">
<title>Node8&#45;&gt;Node7</title>
<path fill="none" stroke="midnightblue" d="M348.81,-116.84C333.22,-111.31 315.57,-105.79 299,-102.3 237.45,-89.34 165.27,-84.72 116.77,-83.1"/>
<polygon fill="midnightblue" stroke="midnightblue" points="347.62,-120.13 358.22,-120.27 350.02,-113.55 347.62,-120.13"/>
</g>
<!-- Node8&#45;&gt;Node9 -->
<g id="edge9" class="edge">
<title>Node8&#45;&gt;Node9</title>
<path fill="none" stroke="midnightblue" d="M355.32,-154.99C348.53,-158.4 341.55,-161.93 335,-165.3 318.91,-173.57 315.61,-177.12 299,-184.3 286.62,-189.65 272.62,-194.65 260.41,-198.69"/>
<polygon fill="midnightblue" stroke="midnightblue" points="357.04,-158.04 364.41,-150.43 353.9,-151.78 357.04,-158.04"/>
</g>
<!-- Node8&#45;&gt;Node10 -->
<g id="edge10" class="edge">
<title>Node8&#45;&gt;Node10</title>
<path fill="none" stroke="midnightblue" d="M324.82,-147.71C316.14,-149.03 307.38,-150.27 299,-151.3 238.65,-158.73 169.3,-163.89 121.18,-166.94"/>
<polygon fill="midnightblue" stroke="midnightblue" points="325.61,-151.13 334.94,-146.12 324.52,-144.21 325.61,-151.13"/>
</g>
<!-- Node11 -->
<g id="node11" class="node">
<title>Node11</title>
<g id="a_node11"><a xlink:href="class_drone.html#af052f6bb793d1229b99b16b800b95b82" target="_top" xlink:title="Metoda animujaca obrot drona i wyrysowujaca calosc w gnuplocie.">
<polygon fill="none" stroke="black" points="165.5,-111.3 165.5,-141.3 290.5,-141.3 290.5,-111.3 165.5,-111.3"/>
<text text-anchor="start" x="173.5" y="-129.3" font-family="Helvetica,sans-Serif" font-size="10.00">Drone::Drone_rotation</text>
<text text-anchor="middle" x="228" y="-118.3" font-family="Helvetica,sans-Serif" font-size="10.00">_animation</text>
</a>
</g>
</g>
<!-- Node8&#45;&gt;Node11 -->
<g id="edge11" class="edge">
<title>Node8&#45;&gt;Node11</title>
<path fill="none" stroke="midnightblue" d="M324.43,-131.47C313.23,-130.87 301.72,-130.24 290.75,-129.65"/>
<polygon fill="midnightblue" stroke="midnightblue" points="324.43,-134.98 334.6,-132.02 324.8,-127.99 324.43,-134.98"/>
</g>
<!-- Node8&#45;&gt;Node12 -->
<g id="edge14" class="edge">
<title>Node8&#45;&gt;Node12</title>
<path fill="none" stroke="midnightblue" d="M368.51,-113.77C349.91,-99.44 323.99,-80.99 299,-68.3 287.66,-62.54 274.62,-57.65 262.89,-53.81"/>
<polygon fill="midnightblue" stroke="midnightblue" points="366.47,-116.63 376.51,-120.03 370.79,-111.11 366.47,-116.63"/>
</g>
<!-- Node8&#45;&gt;Node13 -->
<g id="edge15" class="edge">
<title>Node8&#45;&gt;Node13</title>
<path fill="none" stroke="midnightblue" d="M373.8,-157.67C350.84,-181.52 315.3,-217.22 299,-227.3 292.96,-231.03 286.29,-234.31 279.53,-237.17"/>
<polygon fill="midnightblue" stroke="midnightblue" points="376.39,-160.03 380.78,-150.39 371.33,-155.19 376.39,-160.03"/>
</g>
<!-- Node11&#45;&gt;Node7 -->
<g id="edge12" class="edge">
<title>Node11&#45;&gt;Node7</title>
<path fill="none" stroke="midnightblue" d="M160.55,-108.63C145.97,-104.76 130.69,-100.7 116.62,-96.95"/>
<polygon fill="midnightblue" stroke="midnightblue" points="159.94,-112.09 170.51,-111.28 161.74,-105.33 159.94,-112.09"/>
</g>
<!-- Node11&#45;&gt;Node10 -->
<g id="edge13" class="edge">
<title>Node11&#45;&gt;Node10</title>
<path fill="none" stroke="midnightblue" d="M160.82,-143.89C146.65,-147.66 131.79,-151.61 118.02,-155.27"/>
<polygon fill="midnightblue" stroke="midnightblue" points="161.74,-147.27 170.51,-141.32 159.94,-140.51 161.74,-147.27"/>
</g>
</g>
</svg>
