<?xml version="1.0" encoding="UTF-8" standalone="no"?>
<!DOCTYPE svg PUBLIC "-//W3C//DTD SVG 1.1//EN"
 "http://www.w3.org/Graphics/SVG/1.1/DTD/svg11.dtd">
<!-- Generated by graphviz version 2.43.0 (0)
 -->
<!-- Title: Cuboid::translation Pages: 1 -->
<svg width="1124pt" height="404pt"
 viewBox="0.00 0.00 1124.00 404.30" xmlns="http://www.w3.org/2000/svg" xmlns:xlink="http://www.w3.org/1999/xlink">
<g id="graph0" class="graph" transform="scale(1 1) rotate(0) translate(4 400.3)">
<title>Cuboid::translation</title>
<!-- Node1 -->
<g id="node1" class="node">
<title>Node1</title>
<g id="a_node1"><a xlink:title="Metoda przesuwajaca prostopadloscian o zadany kat w 3D">
<polygon fill="#bfbfbf" stroke="black" points="1007,-262.8 1007,-281.8 1116,-281.8 1116,-262.8 1007,-262.8"/>
<text text-anchor="middle" x="1061.5" y="-269.8" font-family="Helvetica,sans-Serif" font-size="10.00">Cuboid::translation</text>
</a>
</g>
</g>
<!-- Node2 -->
<g id="node2" class="node">
<title>Node2</title>
<g id="a_node2"><a xlink:href="class_cuboid.html#a6c697c2d9b36a14c43c7328876d5a1f0" target="_top" xlink:title="Metoda obracajaca prostopadloscian o zadany kat w 3D wokol srodka figury">
<polygon fill="none" stroke="black" points="815,-262.8 815,-281.8 971,-281.8 971,-262.8 815,-262.8"/>
<text text-anchor="middle" x="893" y="-269.8" font-family="Helvetica,sans-Serif" font-size="10.00">Cuboid::rotation_around_cen</text>
</a>
</g>
</g>
<!-- Node1&#45;&gt;Node2 -->
<g id="edge1" class="edge">
<title>Node1&#45;&gt;Node2</title>
<path fill="none" stroke="midnightblue" d="M996.82,-272.3C988.42,-272.3 979.74,-272.3 971.14,-272.3"/>
<polygon fill="midnightblue" stroke="midnightblue" points="996.9,-275.8 1006.9,-272.3 996.9,-268.8 996.9,-275.8"/>
</g>
<!-- Node16 -->
<g id="node16" class="node">
<title>Node16</title>
<g id="a_node16"><a xlink:href="class_cuboid.html#a86ff038174be6b87663dde31595668d5" target="_top" xlink:title="Zmiana pozycji obiektu na plaszczyznie XY na nowe wspolrzedne.">
<polygon fill="none" stroke="black" points="838,-224.8 838,-243.8 948,-243.8 948,-224.8 838,-224.8"/>
<text text-anchor="middle" x="893" y="-231.8" font-family="Helvetica,sans-Serif" font-size="10.00">Cuboid::switch_pos</text>
</a>
</g>
</g>
<!-- Node1&#45;&gt;Node16 -->
<g id="edge19" class="edge">
<title>Node1&#45;&gt;Node16</title>
<path fill="none" stroke="midnightblue" d="M1008.69,-260.48C985.22,-255.12 957.83,-248.87 935.71,-243.82"/>
<polygon fill="midnightblue" stroke="midnightblue" points="1007.96,-263.9 1018.49,-262.71 1009.51,-257.07 1007.96,-263.9"/>
</g>
<!-- Node17 -->
<g id="node17" class="node">
<title>Node17</title>
<g id="a_node17"><a xlink:href="class_drone.html#a9684cd7ce04b7e6191f3d6b3a745370b" target="_top" xlink:title="Przesuwa drona o zadany wektor w 3D">
<polygon fill="none" stroke="black" points="841,-300.8 841,-319.8 945,-319.8 945,-300.8 841,-300.8"/>
<text text-anchor="middle" x="893" y="-307.8" font-family="Helvetica,sans-Serif" font-size="10.00">Drone::translation</text>
</a>
</g>
</g>
<!-- Node1&#45;&gt;Node17 -->
<g id="edge20" class="edge">
<title>Node1&#45;&gt;Node17</title>
<path fill="none" stroke="midnightblue" d="M1008.69,-284.13C985.22,-289.48 957.83,-295.73 935.71,-300.78"/>
<polygon fill="midnightblue" stroke="midnightblue" points="1009.51,-287.53 1018.49,-281.89 1007.96,-280.7 1009.51,-287.53"/>
</g>
<!-- Node3 -->
<g id="node3" class="node">
<title>Node3</title>
<g id="a_node3"><a xlink:href="class_drone.html#ad42bc54902df967b94717617aca1a974" target="_top" xlink:title="Metoda obracajaca dron o zadany kat w 3D wokol srodka figury">
<polygon fill="none" stroke="black" points="627,-262.8 627,-281.8 779,-281.8 779,-262.8 627,-262.8"/>
<text text-anchor="middle" x="703" y="-269.8" font-family="Helvetica,sans-Serif" font-size="10.00">Drone::rotation_around_cen</text>
</a>
</g>
</g>
<!-- Node2&#45;&gt;Node3 -->
<g id="edge2" class="edge">
<title>Node2&#45;&gt;Node3</title>
<path fill="none" stroke="midnightblue" d="M804.91,-272.3C796.28,-272.3 787.56,-272.3 779.07,-272.3"/>
<polygon fill="midnightblue" stroke="midnightblue" points="804.99,-275.8 814.99,-272.3 804.99,-268.8 804.99,-275.8"/>
</g>
<!-- Node4 -->
<g id="node4" class="node">
<title>Node4</title>
<g id="a_node4"><a xlink:href="class_drone.html#ab692baa4be5c43b72990ce1b01bdc805" target="_top" xlink:title="Konstruktor bezparametryczny klasy Drone. Powstaly dron jest skonstruowany z bezparametrycznych prost...">
<polygon fill="none" stroke="black" points="489.5,-338.8 489.5,-357.8 570.5,-357.8 570.5,-338.8 489.5,-338.8"/>
<text text-anchor="middle" x="530" y="-345.8" font-family="Helvetica,sans-Serif" font-size="10.00">Drone::Drone</text>
</a>
</g>
</g>
<!-- Node3&#45;&gt;Node4 -->
<g id="edge3" class="edge">
<title>Node3&#45;&gt;Node4</title>
<path fill="none" stroke="midnightblue" d="M673.27,-286.31C650.98,-297.05 619.23,-312.05 591,-324.3 579.58,-329.26 566.78,-334.43 555.95,-338.69"/>
<polygon fill="midnightblue" stroke="midnightblue" points="675.03,-289.35 682.51,-281.85 671.98,-283.05 675.03,-289.35"/>
</g>
<!-- Node5 -->
<g id="node5" class="node">
<title>Node5</title>
<g id="a_node5"><a xlink:href="class_drone.html#af03af60a9b92e4191a7e66b5c20b52bb" target="_top" xlink:title="Metoda zamieniajaca drona na tego z pliku sample.">
<polygon fill="none" stroke="black" points="469,-137.3 469,-167.3 591,-167.3 591,-137.3 469,-137.3"/>
<text text-anchor="start" x="477" y="-155.3" font-family="Helvetica,sans-Serif" font-size="10.00">Drone::Drone_change</text>
<text text-anchor="middle" x="530" y="-144.3" font-family="Helvetica,sans-Serif" font-size="10.00">_to_sample</text>
</a>
</g>
</g>
<!-- Node3&#45;&gt;Node5 -->
<g id="edge4" class="edge">
<title>Node3&#45;&gt;Node5</title>
<path fill="none" stroke="midnightblue" d="M683.99,-255.62C662.77,-236.48 625.98,-204.84 591,-182.3 582.68,-176.94 573.27,-171.83 564.41,-167.4"/>
<polygon fill="midnightblue" stroke="midnightblue" points="681.82,-258.38 691.57,-262.53 686.54,-253.21 681.82,-258.38"/>
</g>
<!-- Node9 -->
<g id="node9" class="node">
<title>Node9</title>
<g id="a_node9"><a xlink:href="class_drone.html#af052f6bb793d1229b99b16b800b95b82" target="_top" xlink:title="Metoda animujaca obrot drona i wyrysowujaca calosc w gnuplocie.">
<polygon fill="none" stroke="black" points="299.5,-149.3 299.5,-179.3 424.5,-179.3 424.5,-149.3 299.5,-149.3"/>
<text text-anchor="start" x="307.5" y="-167.3" font-family="Helvetica,sans-Serif" font-size="10.00">Drone::Drone_rotation</text>
<text text-anchor="middle" x="362" y="-156.3" font-family="Helvetica,sans-Serif" font-size="10.00">_animation</text>
</a>
</g>
</g>
<!-- Node3&#45;&gt;Node9 -->
<g id="edge13" class="edge">
<title>Node3&#45;&gt;Node9</title>
<path fill="none" stroke="midnightblue" d="M662.36,-259.67C599.54,-239.66 477.36,-200.73 410.14,-179.32"/>
<polygon fill="midnightblue" stroke="midnightblue" points="661.33,-263.02 671.92,-262.72 663.45,-256.35 661.33,-263.02"/>
</g>
<!-- Node10 -->
<g id="node10" class="node">
<title>Node10</title>
<g id="a_node10"><a xlink:href="class_drone.html#ab7808296cec81143dbddd7516340a371" target="_top" xlink:title="Metoda robiaca &quot;oblot&quot; drona wokol punktu (z modyfikacji)">
<polygon fill="none" stroke="black" points="291,-236.8 291,-255.8 433,-255.8 433,-236.8 291,-236.8"/>
<text text-anchor="middle" x="362" y="-243.8" font-family="Helvetica,sans-Serif" font-size="10.00">Drone::Drone_roundabout</text>
</a>
</g>
</g>
<!-- Node3&#45;&gt;Node10 -->
<g id="edge14" class="edge">
<title>Node3&#45;&gt;Node10</title>
<path fill="none" stroke="midnightblue" d="M616.74,-265.76C560.02,-261.41 486.42,-255.77 433.11,-251.68"/>
<polygon fill="midnightblue" stroke="midnightblue" points="616.53,-269.26 626.76,-266.53 617.06,-262.28 616.53,-269.26"/>
</g>
<!-- Node12 -->
<g id="node12" class="node">
<title>Node12</title>
<g id="a_node12"><a xlink:href="class_scene.html#aa5fc0e5a94bfa0766f6e5ff10993630d" target="_top" xlink:title="Skanowanie powierzchni pod dronem, gdy dron nie moze wyladowac w danym miejscu &#160;&#160;Rysowany jest rownie...">
<polygon fill="none" stroke="black" points="476.5,-376.8 476.5,-395.8 583.5,-395.8 583.5,-376.8 476.5,-376.8"/>
<text text-anchor="middle" x="530" y="-383.8" font-family="Helvetica,sans-Serif" font-size="10.00">Scene::scan_plane</text>
</a>
</g>
</g>
<!-- Node3&#45;&gt;Node12 -->
<g id="edge15" class="edge">
<title>Node3&#45;&gt;Node12</title>
<path fill="none" stroke="midnightblue" d="M681.69,-288.62C666.47,-300.96 645.21,-318.44 627,-334.3 610.63,-348.55 609.79,-356.43 591,-367.3 584.47,-371.08 577.11,-374.2 569.83,-376.74"/>
<polygon fill="midnightblue" stroke="midnightblue" points="684.31,-291 689.89,-281.99 679.91,-285.56 684.31,-291"/>
</g>
<!-- Node6 -->
<g id="node6" class="node">
<title>Node6</title>
<g id="a_node6"><a xlink:href="class_drone.html#a7eecbd031df9009e113d355a9dcdf4e1" target="_top" xlink:title="Metoda obliczajaca i przeprowadzajaca caly ruch drona (obrot o kat i przelot z zadania 5....">
<polygon fill="none" stroke="black" points="138.5,-193.3 138.5,-223.3 250.5,-223.3 250.5,-193.3 138.5,-193.3"/>
<text text-anchor="start" x="146.5" y="-211.3" font-family="Helvetica,sans-Serif" font-size="10.00">Drone::Drone_basic</text>
<text text-anchor="middle" x="194.5" y="-200.3" font-family="Helvetica,sans-Serif" font-size="10.00">_motion_flight</text>
</a>
</g>
</g>
<!-- Node5&#45;&gt;Node6 -->
<g id="edge5" class="edge">
<title>Node5&#45;&gt;Node6</title>
<path fill="none" stroke="midnightblue" d="M487.44,-171.32C470.84,-178.12 451.34,-185.12 433,-189.3 371.69,-203.26 299.46,-207.34 250.89,-208.35"/>
<polygon fill="midnightblue" stroke="midnightblue" points="488.99,-174.47 496.85,-167.37 486.28,-168.02 488.99,-174.47"/>
</g>
<!-- Node7 -->
<g id="node7" class="node">
<title>Node7</title>
<g id="a_node7"><a xlink:href="class_drone.html#a4abbed4a4cc52e5630f07f9129b46c5c" target="_top" xlink:title="Metoda realizujaca ladowanie drona.">
<polygon fill="none" stroke="black" points="299.5,-22.8 299.5,-41.8 424.5,-41.8 424.5,-22.8 299.5,-22.8"/>
<text text-anchor="middle" x="362" y="-29.8" font-family="Helvetica,sans-Serif" font-size="10.00">Drone::Drone_descent</text>
</a>
</g>
</g>
<!-- Node5&#45;&gt;Node7 -->
<g id="edge6" class="edge">
<title>Node5&#45;&gt;Node7</title>
<path fill="none" stroke="midnightblue" d="M474.18,-131.69C472.36,-130.31 470.63,-128.85 469,-127.3 441.95,-101.51 461.66,-75.29 433,-51.3 428.36,-47.42 423.01,-44.33 417.36,-41.87"/>
<polygon fill="midnightblue" stroke="midnightblue" points="472.32,-134.65 482.6,-137.18 476.14,-128.79 472.32,-134.65"/>
</g>
<!-- Node8 -->
<g id="node8" class="node">
<title>Node8</title>
<g id="a_node8"><a xlink:href="class_drone.html#aec9abadf85777ab20e361d1389aab466" target="_top" xlink:title="Metoda obliczajaca i przeprowadzajaca koncowy ruch drona (obrot o kat i koncowy przelot z zadania 5....">
<polygon fill="none" stroke="black" points="134,-105.3 134,-135.3 255,-135.3 255,-105.3 134,-105.3"/>
<text text-anchor="start" x="142" y="-123.3" font-family="Helvetica,sans-Serif" font-size="10.00">Drone::Drone_motion</text>
<text text-anchor="middle" x="194.5" y="-112.3" font-family="Helvetica,sans-Serif" font-size="10.00">_after_update</text>
</a>
</g>
</g>
<!-- Node5&#45;&gt;Node8 -->
<g id="edge7" class="edge">
<title>Node5&#45;&gt;Node8</title>
<path fill="none" stroke="midnightblue" d="M458.76,-143.19C450.09,-142.16 441.34,-141.17 433,-140.3 372.5,-133.98 303.17,-128.32 255.1,-124.65"/>
<polygon fill="midnightblue" stroke="midnightblue" points="458.52,-146.69 468.87,-144.41 459.36,-139.74 458.52,-146.69"/>
</g>
<!-- Node5&#45;&gt;Node9 -->
<g id="edge8" class="edge">
<title>Node5&#45;&gt;Node9</title>
<path fill="none" stroke="midnightblue" d="M458.43,-157.4C447.23,-158.21 435.72,-159.04 424.75,-159.84"/>
<polygon fill="midnightblue" stroke="midnightblue" points="458.88,-160.88 468.6,-156.67 458.37,-153.9 458.88,-160.88"/>
</g>
<!-- Node5&#45;&gt;Node10 -->
<g id="edge11" class="edge">
<title>Node5&#45;&gt;Node10</title>
<path fill="none" stroke="midnightblue" d="M503.95,-173.82C485.34,-188.96 458.82,-208.86 433,-222.3 421.95,-228.06 409.22,-232.9 397.68,-236.69"/>
<polygon fill="midnightblue" stroke="midnightblue" points="506.19,-176.51 511.66,-167.44 501.73,-171.11 506.19,-176.51"/>
</g>
<!-- Node11 -->
<g id="node11" class="node">
<title>Node11</title>
<g id="a_node11"><a xlink:href="class_drone.html#a5fc9dd645ad3856b5d3c501c63c464e3" target="_top" xlink:title="Metoda animujaca translacje drona i wyrysowujaca calosc w gnuplocie.">
<polygon fill="none" stroke="black" points="292.5,-61.3 292.5,-91.3 431.5,-91.3 431.5,-61.3 292.5,-61.3"/>
<text text-anchor="start" x="300.5" y="-79.3" font-family="Helvetica,sans-Serif" font-size="10.00">Drone::Drone_translation</text>
<text text-anchor="middle" x="362" y="-68.3" font-family="Helvetica,sans-Serif" font-size="10.00">_animation</text>
</a>
</g>
</g>
<!-- Node5&#45;&gt;Node11 -->
<g id="edge12" class="edge">
<title>Node5&#45;&gt;Node11</title>
<path fill="none" stroke="midnightblue" d="M481.35,-133.13C477.14,-131.23 472.97,-129.28 469,-127.3 452.41,-119.05 449.54,-114.63 433,-106.3 422.61,-101.07 411.09,-95.89 400.45,-91.34"/>
<polygon fill="midnightblue" stroke="midnightblue" points="480,-136.37 490.57,-137.18 482.82,-129.96 480,-136.37"/>
</g>
<!-- Node9&#45;&gt;Node6 -->
<g id="edge9" class="edge">
<title>Node9&#45;&gt;Node6</title>
<path fill="none" stroke="midnightblue" d="M294.55,-181.97C279.97,-185.84 264.69,-189.9 250.62,-193.65"/>
<polygon fill="midnightblue" stroke="midnightblue" points="295.74,-185.27 304.51,-179.32 293.94,-178.51 295.74,-185.27"/>
</g>
<!-- Node9&#45;&gt;Node8 -->
<g id="edge10" class="edge">
<title>Node9&#45;&gt;Node8</title>
<path fill="none" stroke="midnightblue" d="M294.82,-146.71C280.65,-142.94 265.79,-138.99 252.02,-135.33"/>
<polygon fill="midnightblue" stroke="midnightblue" points="293.94,-150.09 304.51,-149.28 295.74,-143.33 293.94,-150.09"/>
</g>
<!-- Node13 -->
<g id="node13" class="node">
<title>Node13</title>
<g id="a_node13"><a xlink:href="class_scene.html#a5fb0b9741a75dec929b5ea5d6ac917a1" target="_top" xlink:title="Przelot aktywnego drona.">
<polygon fill="none" stroke="black" points="330,-376.8 330,-395.8 394,-395.8 394,-376.8 330,-376.8"/>
<text text-anchor="middle" x="362" y="-383.8" font-family="Helvetica,sans-Serif" font-size="10.00">Scene::fly</text>
</a>
</g>
</g>
<!-- Node12&#45;&gt;Node13 -->
<g id="edge16" class="edge">
<title>Node12&#45;&gt;Node13</title>
<path fill="none" stroke="midnightblue" d="M466.15,-386.3C441.65,-386.3 414.65,-386.3 394.42,-386.3"/>
<polygon fill="midnightblue" stroke="midnightblue" points="466.48,-389.8 476.48,-386.3 466.48,-382.8 466.48,-389.8"/>
</g>
<!-- Node14 -->
<g id="node14" class="node">
<title>Node14</title>
<g id="a_node14"><a xlink:href="class_menu.html#acd338552222b744cd030e17776cb5d9b" target="_top" xlink:title="Obsluguje wybor menu.">
<polygon fill="none" stroke="black" points="137.5,-376.8 137.5,-395.8 251.5,-395.8 251.5,-376.8 137.5,-376.8"/>
<text text-anchor="middle" x="194.5" y="-383.8" font-family="Helvetica,sans-Serif" font-size="10.00">Menu::switch_menu</text>
</a>
</g>
</g>
<!-- Node13&#45;&gt;Node14 -->
<g id="edge17" class="edge">
<title>Node13&#45;&gt;Node14</title>
<path fill="none" stroke="midnightblue" d="M319.86,-386.3C299.24,-386.3 273.98,-386.3 251.61,-386.3"/>
<polygon fill="midnightblue" stroke="midnightblue" points="319.87,-389.8 329.87,-386.3 319.87,-382.8 319.87,-389.8"/>
</g>
<!-- Node15 -->
<g id="node15" class="node">
<title>Node15</title>
<g id="a_node15"><a xlink:href="class_menu.html#af7e6a49bd56499facef9cc98561ea169" target="_top" xlink:title="Inicjuje i obsluguje menu.">
<polygon fill="none" stroke="black" points="0,-376.8 0,-395.8 98,-395.8 98,-376.8 0,-376.8"/>
<text text-anchor="middle" x="49" y="-383.8" font-family="Helvetica,sans-Serif" font-size="10.00">Menu::init_menu</text>
</a>
</g>
</g>
<!-- Node14&#45;&gt;Node15 -->
<g id="edge18" class="edge">
<title>Node14&#45;&gt;Node15</title>
<path fill="none" stroke="midnightblue" d="M127.13,-386.3C117.39,-386.3 107.52,-386.3 98.24,-386.3"/>
<polygon fill="midnightblue" stroke="midnightblue" points="127.2,-389.8 137.2,-386.3 127.2,-382.8 127.2,-389.8"/>
</g>
<!-- Node17&#45;&gt;Node12 -->
<g id="edge21" class="edge">
<title>Node17&#45;&gt;Node12</title>
<path fill="none" stroke="midnightblue" d="M836.49,-321.99C765.02,-337.03 642.21,-362.89 576.17,-376.79"/>
<polygon fill="midnightblue" stroke="midnightblue" points="837.58,-325.33 846.64,-319.85 836.14,-318.48 837.58,-325.33"/>
</g>
<!-- Node18 -->
<g id="node18" class="node">
<title>Node18</title>
<g id="a_node18"><a xlink:href="class_drone.html#a6662bd8203e8c9a0721c457b3612a7c1" target="_top" xlink:title="Metoda uzywana przy konstruowania drona przesuwa drona w ten sposob, ze Vector3D centre prostopadlosc...">
<polygon fill="none" stroke="black" points="651,-115.3 651,-145.3 755,-145.3 755,-115.3 651,-115.3"/>
<text text-anchor="start" x="659" y="-133.3" font-family="Helvetica,sans-Serif" font-size="10.00">Drone::translation</text>
<text text-anchor="middle" x="703" y="-122.3" font-family="Helvetica,sans-Serif" font-size="10.00">_to_pos</text>
</a>
</g>
</g>
<!-- Node17&#45;&gt;Node18 -->
<g id="edge22" class="edge">
<title>Node17&#45;&gt;Node18</title>
<path fill="none" stroke="midnightblue" d="M831.13,-299.81C825.42,-297.51 819.93,-294.71 815,-291.3 786.58,-271.67 733.2,-181.51 712.5,-145.36"/>
<polygon fill="midnightblue" stroke="midnightblue" points="830.28,-303.22 840.88,-303.22 832.59,-296.61 830.28,-303.22"/>
</g>
<!-- Node18&#45;&gt;Node5 -->
<g id="edge24" class="edge">
<title>Node18&#45;&gt;Node5</title>
<path fill="none" stroke="midnightblue" d="M640.39,-138.23C624.41,-140.28 607.21,-142.5 591.3,-144.54"/>
<polygon fill="midnightblue" stroke="midnightblue" points="641.22,-141.65 650.69,-136.9 640.33,-134.71 641.22,-141.65"/>
</g>
<!-- Node18&#45;&gt;Node6 -->
<g id="edge23" class="edge">
<title>Node18&#45;&gt;Node6</title>
<path fill="none" stroke="midnightblue" d="M676.86,-151.68C655.22,-169.26 622.58,-193.87 591,-210.3 525.04,-244.62 506.31,-252.91 433,-265.3 370.77,-275.82 351.84,-282.08 291,-265.3 261.59,-257.19 232.11,-237.38 213.84,-223.4"/>
<polygon fill="midnightblue" stroke="midnightblue" points="679.1,-154.38 684.59,-145.32 674.65,-148.97 679.1,-154.38"/>
</g>
<!-- Node18&#45;&gt;Node7 -->
<g id="edge25" class="edge">
<title>Node18&#45;&gt;Node7</title>
<path fill="none" stroke="midnightblue" d="M669.56,-109.94C648.03,-97.3 618.74,-81.73 591,-72.3 536.4,-53.75 471.37,-43.42 424.76,-37.94"/>
<polygon fill="midnightblue" stroke="midnightblue" points="667.9,-113.02 678.28,-115.15 671.49,-107.01 667.9,-113.02"/>
</g>
<!-- Node18&#45;&gt;Node8 -->
<g id="edge26" class="edge">
<title>Node18&#45;&gt;Node8</title>
<path fill="none" stroke="midnightblue" d="M681.14,-108.1C660.34,-87.4 626.46,-57.38 591,-41.3 526.05,-11.86 504.04,-19.55 433,-13.3 370.13,-7.77 348.6,12.49 291,-13.3 248.73,-32.23 217.47,-80.14 203.54,-104.92"/>
<polygon fill="midnightblue" stroke="midnightblue" points="678.68,-110.59 688.19,-115.26 683.67,-105.68 678.68,-110.59"/>
</g>
<!-- Node18&#45;&gt;Node10 -->
<g id="edge27" class="edge">
<title>Node18&#45;&gt;Node10</title>
<path fill="none" stroke="midnightblue" d="M659.49,-149.56C638.99,-158.52 613.93,-169 591,-177.3 524.11,-201.51 444.18,-224.33 398.93,-236.71"/>
<polygon fill="midnightblue" stroke="midnightblue" points="661.11,-152.67 668.85,-145.43 658.29,-146.26 661.11,-152.67"/>
</g>
<!-- Node18&#45;&gt;Node11 -->
<g id="edge28" class="edge">
<title>Node18&#45;&gt;Node11</title>
<path fill="none" stroke="midnightblue" d="M659.94,-111.4C639.54,-103.12 614.44,-94.18 591,-89.3 538.21,-78.3 477.16,-75.32 431.53,-74.94"/>
<polygon fill="midnightblue" stroke="midnightblue" points="658.67,-114.67 669.24,-115.27 661.35,-108.2 658.67,-114.67"/>
</g>
<!-- Node19 -->
<g id="node19" class="node">
<title>Node19</title>
<g id="a_node19"><a xlink:href="class_scene.html#adca9214dccab3d77eed9d8af7db67f94" target="_top" xlink:title="Konstruktor paramereyczny klasy Scene.">
<polygon fill="none" stroke="black" points="489.5,-98.8 489.5,-117.8 570.5,-117.8 570.5,-98.8 489.5,-98.8"/>
<text text-anchor="middle" x="530" y="-105.8" font-family="Helvetica,sans-Serif" font-size="10.00">Scene::Scene</text>
</a>
</g>
</g>
<!-- Node18&#45;&gt;Node19 -->
<g id="edge29" class="edge">
<title>Node18&#45;&gt;Node19</title>
<path fill="none" stroke="midnightblue" d="M640.54,-122.39C617.24,-119.4 591.34,-116.06 570.58,-113.39"/>
<polygon fill="midnightblue" stroke="midnightblue" points="640.33,-125.9 650.69,-123.7 641.22,-118.95 640.33,-125.9"/>
</g>
</g>
</svg>
