<?xml version="1.0" encoding="UTF-8" standalone="no"?>
<!DOCTYPE svg PUBLIC "-//W3C//DTD SVG 1.1//EN"
 "http://www.w3.org/Graphics/SVG/1.1/DTD/svg11.dtd">
<!-- Generated by graphviz version 2.43.0 (0)
 -->
<!-- Title: Drone::Drone_roundabout Pages: 1 -->
<!--zoomable 735 -->
<svg id="main" version="1.1" xmlns="http://www.w3.org/2000/svg" xmlns:xlink="http://www.w3.org/1999/xlink" xml:space="preserve" onload="init(evt)">
<style type="text/css"><![CDATA[
.edge:hover path { stroke: red; }
.edge:hover polygon { stroke: red; fill: red; }
]]></style>
<script type="text/javascript"><![CDATA[
var edges = document.getElementsByTagName('g');
if (edges && edges.length) {
  for (var i=0;i<edges.length;i++) {
    if (edges[i].id.substr(0,4)=='edge') {
      edges[i].setAttribute('class','edge');
    }
  }
}
]]></script>
        <defs>
                <circle id="rim" cx="0" cy="0" r="7"/>
                <circle id="rim2" cx="0" cy="0" r="3.5"/>
                <g id="zoomPlus">
                        <use xlink:href="#rim" fill="#404040">
                                <set attributeName="fill" to="#808080" begin="zoomplus.mouseover" end="zoomplus.mouseout"/>
                        </use>
                        <path d="M-4,0h8M0,-4v8" fill="none" stroke="white" stroke-width="1.5" pointer-events="none"/>
                </g>
                <g id="zoomMin">
                        <use xlink:href="#rim" fill="#404040">
                                <set attributeName="fill" to="#808080" begin="zoomminus.mouseover" end="zoomminus.mouseout"/>
                        </use>
                        <path d="M-4,0h8" fill="none" stroke="white" stroke-width="1.5" pointer-events="none"/>
                </g>
                <g id="dirArrow">
                        <path fill="none" stroke="white" stroke-width="1.5" d="M0,-3.0v7 M-2.5,-0.5L0,-3.0L2.5,-0.5"/>
                </g>
               <g id="resetDef">
                       <use xlink:href="#rim2" fill="#404040">
                               <set attributeName="fill" to="#808080" begin="reset.mouseover" end="reset.mouseout"/>
                       </use>
               </g>
        </defs>

<script type="text/javascript">
var viewWidth = 1084;
var viewHeight = 735;
var sectionId = 'dynsection-18';
</script>
<script xlink:href="svgpan.js"/>
<svg id="graph" class="graph">
<g id="viewport">
<title>Drone::Drone_roundabout</title>
<!-- Node1 -->
<g id="node1" class="node">
<title>Node1</title>
<g id="a_node1"><a xlink:title="Metoda robiaca &quot;oblot&quot; drona wokol punktu (z modyfikacji)">
<polygon fill="#bfbfbf" stroke="black" points="0,-278 0,-297 142,-297 142,-278 0,-278"/>
<text text-anchor="middle" x="71" y="-285" font-family="Helvetica,sans-Serif" font-size="10.00">Drone::Drone_roundabout</text>
</a>
</g>
</g>
<!-- Node2 -->
<g id="node2" class="node">
<title>Node2</title>
<g id="a_node2"><a xlink:href="class_drone.html#af03af60a9b92e4191a7e66b5c20b52bb" target="_top" xlink:title="Metoda zamieniajaca drona na tego z pliku sample.">
<polygon fill="none" stroke="black" points="188.5,-316.5 188.5,-346.5 310.5,-346.5 310.5,-316.5 188.5,-316.5"/>
<text text-anchor="start" x="196.5" y="-334.5" font-family="Helvetica,sans-Serif" font-size="10.00">Drone::Drone_change</text>
<text text-anchor="middle" x="249.5" y="-323.5" font-family="Helvetica,sans-Serif" font-size="10.00">_to_sample</text>
</a>
</g>
</g>
<!-- Node1&#45;&gt;Node2 -->
<g id="edge1" class="edge">
<title>Node1&#45;&gt;Node2</title>
<path fill="none" stroke="midnightblue" d="M110.3,-297.05C130.26,-302.02 155.3,-308.27 178.57,-314.07"/>
<polygon fill="midnightblue" stroke="midnightblue" points="177.86,-317.5 188.41,-316.52 179.56,-310.71 177.86,-317.5"/>
</g>
<!-- Node12 -->
<g id="node12" class="node">
<title>Node12</title>
<g id="a_node12"><a xlink:href="class_drone.html#ad42bc54902df967b94717617aca1a974" target="_top" xlink:title="Metoda obracajaca dron o zadany kat w 3D wokol srodka figury">
<polygon fill="none" stroke="black" points="357.5,-350 357.5,-369 509.5,-369 509.5,-350 357.5,-350"/>
<text text-anchor="middle" x="433.5" y="-357" font-family="Helvetica,sans-Serif" font-size="10.00">Drone::rotation_around_cen</text>
</a>
</g>
</g>
<!-- Node1&#45;&gt;Node12 -->
<g id="edge56" class="edge">
<title>Node1&#45;&gt;Node12</title>
<path fill="none" stroke="midnightblue" d="M82.39,-297.24C100.26,-313.26 138.7,-344.58 178,-356.5 234.59,-373.66 301.56,-373.7 352.6,-369.83"/>
<polygon fill="midnightblue" stroke="midnightblue" points="352.91,-373.31 362.59,-369 352.33,-366.34 352.91,-373.31"/>
</g>
<!-- Node24 -->
<g id="node24" class="node">
<title>Node24</title>
<g id="a_node24"><a xlink:href="class_drone.html#a6662bd8203e8c9a0721c457b3612a7c1" target="_top" xlink:title="Metoda uzywana przy konstruowania drona przesuwa drona w ten sposob, ze Vector3D centre prostopadlosc...">
<polygon fill="none" stroke="black" points="381.5,-277.5 381.5,-307.5 485.5,-307.5 485.5,-277.5 381.5,-277.5"/>
<text text-anchor="start" x="389.5" y="-295.5" font-family="Helvetica,sans-Serif" font-size="10.00">Drone::translation</text>
<text text-anchor="middle" x="433.5" y="-284.5" font-family="Helvetica,sans-Serif" font-size="10.00">_to_pos</text>
</a>
</g>
</g>
<!-- Node1&#45;&gt;Node24 -->
<g id="edge61" class="edge">
<title>Node1&#45;&gt;Node24</title>
<path fill="none" stroke="midnightblue" d="M142.36,-288.48C208.84,-289.4 307.57,-290.77 370.98,-291.65"/>
<polygon fill="midnightblue" stroke="midnightblue" points="371.19,-295.15 381.23,-291.79 371.28,-288.15 371.19,-295.15"/>
</g>
<!-- Node27 -->
<g id="node27" class="node">
<title>Node27</title>
<g id="a_node27"><a xlink:href="class_drone.html#ab2a22e3257125dccc19ed2c288e5f52f" target="_top" xlink:title="Metoda przygotowujaca sciezke drona z uzyciem std::vector&lt;&gt; do roundabout.">
<polygon fill="none" stroke="black" points="179.5,-228.5 179.5,-258.5 319.5,-258.5 319.5,-228.5 179.5,-228.5"/>
<text text-anchor="start" x="187.5" y="-246.5" font-family="Helvetica,sans-Serif" font-size="10.00">Drone::Drone_make_path</text>
<text text-anchor="middle" x="249.5" y="-235.5" font-family="Helvetica,sans-Serif" font-size="10.00">_roundabout</text>
</a>
</g>
</g>
<!-- Node1&#45;&gt;Node27 -->
<g id="edge38" class="edge">
<title>Node1&#45;&gt;Node27</title>
<path fill="none" stroke="midnightblue" d="M110.3,-277.95C130.17,-273 155.08,-266.79 178.26,-261.01"/>
<polygon fill="midnightblue" stroke="midnightblue" points="179.21,-264.38 188.07,-258.57 177.52,-257.59 179.21,-264.38"/>
</g>
<!-- Node28 -->
<g id="node28" class="node">
<title>Node28</title>
<g id="a_node28"><a xlink:href="class_drone.html#ab06e550555b07d95a4e40b55f539e2bd" target="_top" xlink:title="Oczyszcza plik ze sciezka.">
<polygon fill="none" stroke="black" points="181,-190 181,-209 318,-209 318,-190 181,-190"/>
<text text-anchor="middle" x="249.5" y="-197" font-family="Helvetica,sans-Serif" font-size="10.00">Drone::Drone_path_clear</text>
</a>
</g>
</g>
<!-- Node1&#45;&gt;Node28 -->
<g id="edge39" class="edge">
<title>Node1&#45;&gt;Node28</title>
<path fill="none" stroke="midnightblue" d="M84.36,-277.84C103.45,-263.32 141.72,-235.85 178,-219.5 184.16,-216.73 190.79,-214.24 197.44,-212.05"/>
<polygon fill="midnightblue" stroke="midnightblue" points="198.62,-215.34 207.14,-209.04 196.55,-208.66 198.62,-215.34"/>
</g>
<!-- Node29 -->
<g id="node29" class="node">
<title>Node29</title>
<g id="a_node29"><a xlink:href="class_drone.html#a9d09f6cd9ed8d60dfd1979b31101f400" target="_top" xlink:title="Metoda zapisujaca sciezke do pliku oraz do lacza.">
<polygon fill="none" stroke="black" points="178,-148 178,-167 321,-167 321,-148 178,-148"/>
<text text-anchor="middle" x="249.5" y="-155" font-family="Helvetica,sans-Serif" font-size="10.00">Drone::Drone_path_to_file</text>
</a>
</g>
</g>
<!-- Node1&#45;&gt;Node29 -->
<g id="edge40" class="edge">
<title>Node1&#45;&gt;Node29</title>
<path fill="none" stroke="midnightblue" d="M79.07,-277.7C94.62,-256.82 133.94,-207.68 178,-180.5 184.33,-176.6 191.39,-173.28 198.53,-170.49"/>
<polygon fill="midnightblue" stroke="midnightblue" points="200.02,-173.68 208.25,-167.01 197.66,-167.09 200.02,-173.68"/>
</g>
<!-- Node32 -->
<g id="node32" class="node">
<title>Node32</title>
<g id="a_node32"><a xlink:href="class_pz_g_1_1_lacze_do_g_n_u_plota.html#a065f5b8402737cc62b0ad4f66d028335" target="_top" xlink:title="Generuje polecenie rysowania i przesyła je do gnuplota.">
<polygon fill="none" stroke="black" points="368.5,-93.5 368.5,-123.5 498.5,-123.5 498.5,-93.5 368.5,-93.5"/>
<text text-anchor="start" x="376.5" y="-111.5" font-family="Helvetica,sans-Serif" font-size="10.00">PzG::LaczeDoGNUPlota</text>
<text text-anchor="middle" x="433.5" y="-100.5" font-family="Helvetica,sans-Serif" font-size="10.00">::Rysuj</text>
</a>
</g>
</g>
<!-- Node1&#45;&gt;Node32 -->
<g id="edge60" class="edge">
<title>Node1&#45;&gt;Node32</title>
<path fill="none" stroke="midnightblue" d="M75.63,-277.7C86.39,-250.23 120.92,-172.32 178,-138.5 232.3,-106.33 304.57,-100.6 358.22,-101.89"/>
<polygon fill="midnightblue" stroke="midnightblue" points="358.24,-105.39 368.35,-102.22 358.47,-98.39 358.24,-105.39"/>
</g>
<!-- Node39 -->
<g id="node39" class="node">
<title>Node39</title>
<g id="a_node39"><a xlink:href="class_drone.html#aae0029f50083a01fe75c7d504c2fe5b9" target="_top" xlink:title="Metoda zapisujaca parametry drona do plikow (do plikow final kazdego z elementow)">
<polygon fill="none" stroke="black" points="376,-461.5 376,-491.5 491,-491.5 491,-461.5 376,-461.5"/>
<text text-anchor="start" x="384" y="-479.5" font-family="Helvetica,sans-Serif" font-size="10.00">Drone::Print_to_files</text>
<text text-anchor="middle" x="433.5" y="-468.5" font-family="Helvetica,sans-Serif" font-size="10.00">_drone</text>
</a>
</g>
</g>
<!-- Node1&#45;&gt;Node39 -->
<g id="edge50" class="edge">
<title>Node1&#45;&gt;Node39</title>
<path fill="none" stroke="midnightblue" d="M75.34,-297.38C85.52,-325.86 119.16,-408.34 178,-444.5 234.41,-479.16 311.13,-484.36 365.55,-482.62"/>
<polygon fill="midnightblue" stroke="midnightblue" points="365.93,-486.11 375.78,-482.2 365.65,-479.11 365.93,-486.11"/>
</g>
<!-- Node44 -->
<g id="node44" class="node">
<title>Node44</title>
<g id="a_node44"><a xlink:href="class_drone.html#aedb04b80609b22ff4eb4a957bc149a48" target="_top" xlink:title="Metoda animujaca obrot rotorow i zapisujaca to w plikach. Metoda sluzy jako metoda pomocnicza,...">
<polygon fill="none" stroke="black" points="186,-404.5 186,-434.5 313,-434.5 313,-404.5 186,-404.5"/>
<text text-anchor="start" x="194" y="-422.5" font-family="Helvetica,sans-Serif" font-size="10.00">Drone::Rotors_rotation</text>
<text text-anchor="middle" x="249.5" y="-411.5" font-family="Helvetica,sans-Serif" font-size="10.00">_animation</text>
</a>
</g>
</g>
<!-- Node1&#45;&gt;Node44 -->
<g id="edge57" class="edge">
<title>Node1&#45;&gt;Node44</title>
<path fill="none" stroke="midnightblue" d="M79.86,-297.13C96.29,-316.77 136.25,-361.89 178,-389.5 183.81,-393.34 190.2,-396.87 196.69,-400.05"/>
<polygon fill="midnightblue" stroke="midnightblue" points="195.65,-403.43 206.2,-404.46 198.6,-397.08 195.65,-403.43"/>
</g>
<!-- Node3 -->
<g id="node3" class="node">
<title>Node3</title>
<g id="a_node3"><a xlink:href="class_drone.html#ada6f4e93f4a63cbe1d6fbebf329efe62" target="_top" xlink:title="Metoda wczytywania odpowiednich wierzcholkow z pliku wzorcowego zgodnie z zaproponowanym sposobem w z...">
<polygon fill="none" stroke="black" points="357,-581 357,-600 510,-600 510,-581 357,-581"/>
<text text-anchor="middle" x="433.5" y="-588" font-family="Helvetica,sans-Serif" font-size="10.00">Drone::Drone_From_Sample</text>
</a>
</g>
</g>
<!-- Node2&#45;&gt;Node3 -->
<g id="edge2" class="edge">
<title>Node2&#45;&gt;Node3</title>
<path fill="none" stroke="midnightblue" d="M272.33,-346.59C287.84,-358.33 308.13,-375.87 321,-395.5 348.29,-437.1 332.47,-458.21 357,-501.5 372.71,-529.23 397.61,-556.47 414.48,-573.37"/>
<polygon fill="midnightblue" stroke="midnightblue" points="412.45,-576.28 422.04,-580.79 417.36,-571.28 412.45,-576.28"/>
</g>
<!-- Node2&#45;&gt;Node12 -->
<g id="edge19" class="edge">
<title>Node2&#45;&gt;Node12</title>
<path fill="none" stroke="midnightblue" d="M310.6,-340.75C326.55,-343.2 343.93,-345.87 360.45,-348.41"/>
<polygon fill="midnightblue" stroke="midnightblue" points="360.18,-351.91 370.6,-349.98 361.24,-345 360.18,-351.91"/>
</g>
<!-- Node22 -->
<g id="node22" class="node">
<title>Node22</title>
<g id="a_node22"><a xlink:href="class_drone.html#a55c483c4e4cf0ec91d5bda5448417f08" target="_top" xlink:title="Metoda ustawiajaca drone_pos">
<polygon fill="none" stroke="black" points="372.5,-213 372.5,-232 494.5,-232 494.5,-213 372.5,-213"/>
<text text-anchor="middle" x="433.5" y="-220" font-family="Helvetica,sans-Serif" font-size="10.00">Drone::set_drone_pos</text>
</a>
</g>
</g>
<!-- Node2&#45;&gt;Node22 -->
<g id="edge31" class="edge">
<title>Node2&#45;&gt;Node22</title>
<path fill="none" stroke="midnightblue" d="M275.81,-316.34C310.63,-295.49 372.92,-258.18 407.55,-237.44"/>
<polygon fill="midnightblue" stroke="midnightblue" points="409.76,-240.2 416.54,-232.06 406.16,-234.2 409.76,-240.2"/>
</g>
<!-- Node2&#45;&gt;Node24 -->
<g id="edge33" class="edge">
<title>Node2&#45;&gt;Node24</title>
<path fill="none" stroke="midnightblue" d="M310.6,-318.62C330.08,-314.45 351.71,-309.81 371.28,-305.62"/>
<polygon fill="midnightblue" stroke="midnightblue" points="372.26,-308.99 381.3,-303.47 370.79,-302.14 372.26,-308.99"/>
</g>
<!-- Node4 -->
<g id="node4" class="node">
<title>Node4</title>
<g id="a_node4"><a xlink:href="class_cuboid.html#a773f92fecdf9686b951cf5736c83f318" target="_top" xlink:title="Metoda wczytywania odpowiednich wierzcholkow z pliku wzorcowego zgodnie z zaproponowanym sposobem zad...">
<polygon fill="none" stroke="black" points="574,-657.5 574,-687.5 694,-687.5 694,-657.5 574,-657.5"/>
<text text-anchor="start" x="582" y="-675.5" font-family="Helvetica,sans-Serif" font-size="10.00">Cuboid::Cuboid_From</text>
<text text-anchor="middle" x="634" y="-664.5" font-family="Helvetica,sans-Serif" font-size="10.00">_Sample</text>
</a>
</g>
</g>
<!-- Node3&#45;&gt;Node4 -->
<g id="edge3" class="edge">
<title>Node3&#45;&gt;Node4</title>
<path fill="none" stroke="midnightblue" d="M453.57,-600.14C475.56,-611.07 512.93,-629.13 546,-642.5 555.77,-646.45 566.27,-650.35 576.49,-653.97"/>
<polygon fill="midnightblue" stroke="midnightblue" points="575.57,-657.36 586.16,-657.35 577.87,-650.75 575.57,-657.36"/>
</g>
<!-- Node9 -->
<g id="node9" class="node">
<title>Node9</title>
<g id="a_node9"><a xlink:href="class_drone.html#addf8532ee98ca800a64a78f3808fce98" target="_top" xlink:title="Metoda zwracajaca nazwy plikow do zapisu dla drona.">
<polygon fill="none" stroke="black" points="573.5,-707 573.5,-726 694.5,-726 694.5,-707 573.5,-707"/>
<text text-anchor="middle" x="634" y="-714" font-family="Helvetica,sans-Serif" font-size="10.00">Drone::get_filenames</text>
</a>
</g>
</g>
<!-- Node3&#45;&gt;Node9 -->
<g id="edge8" class="edge">
<title>Node3&#45;&gt;Node9</title>
<path fill="none" stroke="midnightblue" d="M441.62,-600.32C457.65,-621.66 498.89,-672.38 546,-697.5 551.55,-700.46 557.53,-702.96 563.67,-705.07"/>
<polygon fill="midnightblue" stroke="midnightblue" points="562.82,-708.47 573.41,-708.07 564.89,-701.78 562.82,-708.47"/>
</g>
<!-- Node10 -->
<g id="node10" class="node">
<title>Node10</title>
<g id="a_node10"><a xlink:href="class_prism.html#a5e0a2234e9ebe3b51146c0ddc42e8b48" target="_top" xlink:title="Metoda wczytywania odpowiednich wierzcholkow z pliku wzorcowego zgodnie z zaproponowanym sposobem zad...">
<polygon fill="none" stroke="black" points="559,-581 559,-600 709,-600 709,-581 559,-581"/>
<text text-anchor="middle" x="634" y="-588" font-family="Helvetica,sans-Serif" font-size="10.00">Prism::Prism_From_Sample</text>
</a>
</g>
</g>
<!-- Node3&#45;&gt;Node10 -->
<g id="edge11" class="edge">
<title>Node3&#45;&gt;Node10</title>
<path fill="none" stroke="midnightblue" d="M510.11,-590.5C522.73,-590.5 535.9,-590.5 548.72,-590.5"/>
<polygon fill="midnightblue" stroke="midnightblue" points="548.91,-594 558.91,-590.5 548.91,-587 548.91,-594"/>
</g>
<!-- Node11 -->
<g id="node11" class="node">
<title>Node11</title>
<g id="a_node11"><a xlink:href="class_drone.html#add09c27034d4ff229cc22b58c443c0f4" target="_top" xlink:title="Metoda ustawiajaca nazwy plikow do zapisu dla drona.">
<polygon fill="none" stroke="black" points="568,-543 568,-562 700,-562 700,-543 568,-543"/>
<text text-anchor="middle" x="634" y="-550" font-family="Helvetica,sans-Serif" font-size="10.00">Drone::setup_filenames</text>
</a>
</g>
</g>
<!-- Node3&#45;&gt;Node11 -->
<g id="edge16" class="edge">
<title>Node3&#45;&gt;Node11</title>
<path fill="none" stroke="midnightblue" d="M484.33,-580.96C511.23,-575.81 544.64,-569.42 572.96,-563.99"/>
<polygon fill="midnightblue" stroke="midnightblue" points="573.98,-567.36 583.15,-562.04 572.67,-560.49 573.98,-567.36"/>
</g>
<!-- Node5 -->
<g id="node5" class="node">
<title>Node5</title>
<g id="a_node5"><a xlink:href="class_block.html#aeef4dd3716afaea42688a4f96456ce27" target="_top" xlink:title="Metoda zwracajaca nazwe pliku z finalna (robocza) bryla">
<polygon fill="none" stroke="black" points="768,-638 768,-657 893,-657 893,-638 768,-638"/>
<text text-anchor="middle" x="830.5" y="-645" font-family="Helvetica,sans-Serif" font-size="10.00">Block::get_final_name</text>
</a>
</g>
</g>
<!-- Node4&#45;&gt;Node5 -->
<g id="edge4" class="edge">
<title>Node4&#45;&gt;Node5</title>
<path fill="none" stroke="midnightblue" d="M694.15,-664.9C714.22,-662.32 736.87,-659.41 757.81,-656.71"/>
<polygon fill="midnightblue" stroke="midnightblue" points="758.47,-660.16 767.94,-655.41 757.57,-653.22 758.47,-660.16"/>
</g>
<!-- Node6 -->
<g id="node6" class="node">
<title>Node6</title>
<g id="a_node6"><a xlink:href="class_block.html#aed17e0cb13b8eea50fe735ba05204da9" target="_top" xlink:title="Metoda zwracajaca nazwe pliku z wzorcowa bryla">
<polygon fill="none" stroke="black" points="760.5,-676 760.5,-695 900.5,-695 900.5,-676 760.5,-676"/>
<text text-anchor="middle" x="830.5" y="-683" font-family="Helvetica,sans-Serif" font-size="10.00">Block::get_sample_name</text>
</a>
</g>
</g>
<!-- Node4&#45;&gt;Node6 -->
<g id="edge5" class="edge">
<title>Node4&#45;&gt;Node6</title>
<path fill="none" stroke="midnightblue" d="M694.15,-676.45C711.86,-677.64 731.58,-678.96 750.37,-680.21"/>
<polygon fill="midnightblue" stroke="midnightblue" points="750.18,-683.71 760.39,-680.88 750.64,-676.72 750.18,-683.71"/>
</g>
<!-- Node7 -->
<g id="node7" class="node">
<title>Node7</title>
<g id="a_node7"><a xlink:href="class_block.html#a640a910076d8b10533a9a80d740f8f03" target="_top" xlink:title="Metoda zapisujaca do klasy nazwe pliku z finalna (robocza) bryla">
<polygon fill="none" stroke="black" points="768.5,-600 768.5,-619 892.5,-619 892.5,-600 768.5,-600"/>
<text text-anchor="middle" x="830.5" y="-607" font-family="Helvetica,sans-Serif" font-size="10.00">Block::set_final_name</text>
</a>
</g>
</g>
<!-- Node4&#45;&gt;Node7 -->
<g id="edge6" class="edge">
<title>Node4&#45;&gt;Node7</title>
<path fill="none" stroke="midnightblue" d="M674.32,-657.48C698.33,-648.55 729.74,-637.29 758,-628.5 765.5,-626.17 773.5,-623.86 781.33,-621.71"/>
<polygon fill="midnightblue" stroke="midnightblue" points="782.37,-625.05 791.11,-619.07 780.54,-618.3 782.37,-625.05"/>
</g>
<!-- Node8 -->
<g id="node8" class="node">
<title>Node8</title>
<g id="a_node8"><a xlink:href="class_block.html#acf20b290f1543e580ff1f2c6d98ff4c4" target="_top" xlink:title="Metoda zapisujaca do klasy nazwe pliku z wzorcowa bryla">
<polygon fill="none" stroke="black" points="761,-562 761,-581 900,-581 900,-562 761,-562"/>
<text text-anchor="middle" x="830.5" y="-569" font-family="Helvetica,sans-Serif" font-size="10.00">Block::set_sample_name</text>
</a>
</g>
</g>
<!-- Node4&#45;&gt;Node8 -->
<g id="edge7" class="edge">
<title>Node4&#45;&gt;Node8</title>
<path fill="none" stroke="midnightblue" d="M653.45,-657.35C676.56,-639.07 718,-608.55 758,-590.5 763.33,-588.1 769.01,-585.95 774.77,-584.04"/>
<polygon fill="midnightblue" stroke="midnightblue" points="775.95,-587.34 784.47,-581.05 773.88,-580.65 775.95,-587.34"/>
</g>
<!-- Node9&#45;&gt;Node5 -->
<g id="edge9" class="edge">
<title>Node9&#45;&gt;Node5</title>
<path fill="none" stroke="midnightblue" d="M694.85,-707.55C704.21,-705 713.56,-701.71 722,-697.5 740.89,-688.07 739.32,-676.35 758,-666.5 762.32,-664.22 766.93,-662.2 771.65,-660.42"/>
<polygon fill="midnightblue" stroke="midnightblue" points="773.12,-663.61 781.44,-657.06 770.85,-656.99 773.12,-663.61"/>
</g>
<!-- Node9&#45;&gt;Node6 -->
<g id="edge10" class="edge">
<title>Node9&#45;&gt;Node6</title>
<path fill="none" stroke="midnightblue" d="M694.68,-706.99C715.21,-703.72 738.39,-700.02 759.66,-696.63"/>
<polygon fill="midnightblue" stroke="midnightblue" points="760.28,-700.08 769.6,-695.05 759.17,-693.16 760.28,-700.08"/>
</g>
<!-- Node10&#45;&gt;Node5 -->
<g id="edge12" class="edge">
<title>Node10&#45;&gt;Node5</title>
<path fill="none" stroke="midnightblue" d="M672.94,-600.07C688.28,-604.17 706.09,-609.23 722,-614.5 738.3,-619.9 741.68,-623.18 758,-628.5 765.22,-630.85 772.91,-633.13 780.48,-635.25"/>
<polygon fill="midnightblue" stroke="midnightblue" points="779.74,-638.67 790.31,-637.92 781.58,-631.92 779.74,-638.67"/>
</g>
<!-- Node10&#45;&gt;Node6 -->
<g id="edge13" class="edge">
<title>Node10&#45;&gt;Node6</title>
<path fill="none" stroke="midnightblue" d="M649.21,-600.02C676.53,-618.19 735.64,-656.87 758,-666.5 763.52,-668.88 769.4,-671.02 775.34,-672.93"/>
<polygon fill="midnightblue" stroke="midnightblue" points="774.74,-676.41 785.33,-675.94 776.76,-669.7 774.74,-676.41"/>
</g>
<!-- Node10&#45;&gt;Node7 -->
<g id="edge14" class="edge">
<title>Node10&#45;&gt;Node7</title>
<path fill="none" stroke="midnightblue" d="M709.09,-597.74C725.11,-599.3 742.03,-600.96 757.96,-602.51"/>
<polygon fill="midnightblue" stroke="midnightblue" points="757.97,-606.03 768.27,-603.52 758.65,-599.06 757.97,-606.03"/>
</g>
<!-- Node10&#45;&gt;Node8 -->
<g id="edge15" class="edge">
<title>Node10&#45;&gt;Node8</title>
<path fill="none" stroke="midnightblue" d="M709.09,-583.26C722.6,-581.94 736.75,-580.56 750.41,-579.23"/>
<polygon fill="midnightblue" stroke="midnightblue" points="751.12,-582.67 760.74,-578.22 750.44,-575.71 751.12,-582.67"/>
</g>
<!-- Node11&#45;&gt;Node7 -->
<g id="edge17" class="edge">
<title>Node11&#45;&gt;Node7</title>
<path fill="none" stroke="midnightblue" d="M689.48,-562.02C700.41,-564.59 711.69,-567.73 722,-571.5 738.99,-577.71 741.15,-583.91 758,-590.5 764.19,-592.92 770.8,-595.14 777.4,-597.14"/>
<polygon fill="midnightblue" stroke="midnightblue" points="776.45,-600.5 787.02,-599.9 778.38,-593.78 776.45,-600.5"/>
</g>
<!-- Node11&#45;&gt;Node8 -->
<g id="edge18" class="edge">
<title>Node11&#45;&gt;Node8</title>
<path fill="none" stroke="midnightblue" d="M700.04,-558.85C716.22,-560.43 733.75,-562.15 750.53,-563.79"/>
<polygon fill="midnightblue" stroke="midnightblue" points="750.57,-567.31 760.86,-564.79 751.25,-560.34 750.57,-567.31"/>
</g>
<!-- Node13 -->
<g id="node13" class="node">
<title>Node13</title>
<g id="a_node13"><a xlink:href="class_prism.html#a22c5467db5d960bddbaf9a52f55c55cb" target="_top" xlink:title="Metoda obracajaca graniastoslup o zadany kat w 3D wokol srodka figury">
<polygon fill="none" stroke="black" points="559,-410 559,-429 709,-429 709,-410 559,-410"/>
<text text-anchor="middle" x="634" y="-417" font-family="Helvetica,sans-Serif" font-size="10.00">Prism::rotation_around_cen</text>
</a>
</g>
</g>
<!-- Node12&#45;&gt;Node13 -->
<g id="edge20" class="edge">
<title>Node12&#45;&gt;Node13</title>
<path fill="none" stroke="midnightblue" d="M465.95,-369.01C499.97,-379.29 554.35,-395.73 591.77,-407.04"/>
<polygon fill="midnightblue" stroke="midnightblue" points="590.78,-410.39 601.37,-409.94 592.81,-403.69 590.78,-410.39"/>
</g>
<!-- Node16 -->
<g id="node16" class="node">
<title>Node16</title>
<g id="a_node16"><a xlink:href="class_cuboid.html#a6c697c2d9b36a14c43c7328876d5a1f0" target="_top" xlink:title="Metoda obracajaca prostopadloscian o zadany kat w 3D wokol srodka figury">
<polygon fill="none" stroke="black" points="556,-251 556,-270 712,-270 712,-251 556,-251"/>
<text text-anchor="middle" x="634" y="-258" font-family="Helvetica,sans-Serif" font-size="10.00">Cuboid::rotation_around_cen</text>
</a>
</g>
</g>
<!-- Node12&#45;&gt;Node16 -->
<g id="edge24" class="edge">
<title>Node12&#45;&gt;Node16</title>
<path fill="none" stroke="midnightblue" d="M455.74,-349.86C471.48,-342.22 493.06,-330.65 510,-317.5 528.38,-303.24 525.74,-290.93 546,-279.5 549.97,-277.26 554.18,-275.28 558.52,-273.54"/>
<polygon fill="midnightblue" stroke="midnightblue" points="559.95,-276.75 568.19,-270.08 557.6,-270.15 559.95,-276.75"/>
</g>
<!-- Node19 -->
<g id="node19" class="node">
<title>Node19</title>
<g id="a_node19"><a xlink:href="class_drone.html#aea963b77f42c204504542a3d9190d762" target="_top" xlink:title="Metoda uzywana przy konstruowania drona Ustawia rotory w ten sposob, ze srodek ich dolnej podstawy je...">
<polygon fill="none" stroke="black" points="576.5,-344.5 576.5,-374.5 691.5,-374.5 691.5,-344.5 576.5,-344.5"/>
<text text-anchor="start" x="584.5" y="-362.5" font-family="Helvetica,sans-Serif" font-size="10.00">Drone::set_rotors_in</text>
<text text-anchor="middle" x="634" y="-351.5" font-family="Helvetica,sans-Serif" font-size="10.00">_place</text>
</a>
</g>
</g>
<!-- Node12&#45;&gt;Node19 -->
<g id="edge27" class="edge">
<title>Node12&#45;&gt;Node19</title>
<path fill="none" stroke="midnightblue" d="M509.54,-359.5C528.17,-359.5 548.01,-359.5 566.21,-359.5"/>
<polygon fill="midnightblue" stroke="midnightblue" points="566.42,-363 576.42,-359.5 566.42,-356 566.42,-363"/>
</g>
<!-- Node14 -->
<g id="node14" class="node">
<title>Node14</title>
<g id="a_node14"><a xlink:href="class_prism.html#ade146d341c0468030f8c1258b7fe1041" target="_top" xlink:title="Metoda przesuwajaca graniastoslup o zadany wektor w 3D">
<polygon fill="none" stroke="black" points="956,-388 956,-407 1059,-407 1059,-388 956,-388"/>
<text text-anchor="middle" x="1007.5" y="-395" font-family="Helvetica,sans-Serif" font-size="10.00">Prism::translation</text>
</a>
</g>
</g>
<!-- Node13&#45;&gt;Node14 -->
<g id="edge21" class="edge">
<title>Node13&#45;&gt;Node14</title>
<path fill="none" stroke="midnightblue" d="M676.71,-429.06C729.76,-439.71 823.96,-453.58 903,-438.5 930.04,-433.34 959.03,-421.23 979.43,-411.5"/>
<polygon fill="midnightblue" stroke="midnightblue" points="980.99,-414.63 988.44,-407.09 977.92,-408.34 980.99,-414.63"/>
</g>
<!-- Node15 -->
<g id="node15" class="node">
<title>Node15</title>
<g id="a_node15"><a xlink:href="class_prism.html#afed2c26932d5cb152fd620d2acbfbc3e" target="_top" xlink:title="Metoda przesuwajaca graniastoslup do srodka ukladu wspolrzednych (tak, ze srodek graniastoslupa pokry...">
<polygon fill="none" stroke="black" points="765,-410 765,-429 896,-429 896,-410 765,-410"/>
<text text-anchor="middle" x="830.5" y="-417" font-family="Helvetica,sans-Serif" font-size="10.00">Prism::translation_to_O</text>
</a>
</g>
</g>
<!-- Node13&#45;&gt;Node15 -->
<g id="edge22" class="edge">
<title>Node13&#45;&gt;Node15</title>
<path fill="none" stroke="midnightblue" d="M709.09,-419.5C724,-419.5 739.69,-419.5 754.63,-419.5"/>
<polygon fill="midnightblue" stroke="midnightblue" points="754.84,-423 764.84,-419.5 754.84,-416 754.84,-423"/>
</g>
<!-- Node15&#45;&gt;Node14 -->
<g id="edge23" class="edge">
<title>Node15&#45;&gt;Node14</title>
<path fill="none" stroke="midnightblue" d="M896.17,-411.37C912.3,-409.34 929.55,-407.17 945.5,-405.17"/>
<polygon fill="midnightblue" stroke="midnightblue" points="946.28,-408.6 955.77,-403.88 945.41,-401.65 946.28,-408.6"/>
</g>
<!-- Node17 -->
<g id="node17" class="node">
<title>Node17</title>
<g id="a_node17"><a xlink:href="class_cuboid.html#a3f6b1b9ea7de433af5b0d462d29f4272" target="_top" xlink:title="Metoda przesuwajaca prostopadloscian o zadany kat w 3D">
<polygon fill="none" stroke="black" points="776,-246 776,-265 885,-265 885,-246 776,-246"/>
<text text-anchor="middle" x="830.5" y="-253" font-family="Helvetica,sans-Serif" font-size="10.00">Cuboid::translation</text>
</a>
</g>
</g>
<!-- Node16&#45;&gt;Node17 -->
<g id="edge25" class="edge">
<title>Node16&#45;&gt;Node17</title>
<path fill="none" stroke="midnightblue" d="M712.15,-258.52C729.81,-258.06 748.38,-257.59 765.42,-257.15"/>
<polygon fill="midnightblue" stroke="midnightblue" points="765.9,-260.64 775.8,-256.88 765.72,-253.64 765.9,-260.64"/>
</g>
<!-- Node18 -->
<g id="node18" class="node">
<title>Node18</title>
<g id="a_node18"><a xlink:href="class_cuboid.html#a42bdce7c214e759cb6ea94d4f547a5b9" target="_top" xlink:title="Metoda przesuwajaca prostopadloscian do (0,0,0)">
<polygon fill="none" stroke="black" points="762,-208 762,-227 899,-227 899,-208 762,-208"/>
<text text-anchor="middle" x="830.5" y="-215" font-family="Helvetica,sans-Serif" font-size="10.00">Cuboid::translation_to_O</text>
</a>
</g>
</g>
<!-- Node16&#45;&gt;Node18 -->
<g id="edge26" class="edge">
<title>Node16&#45;&gt;Node18</title>
<path fill="none" stroke="midnightblue" d="M678.82,-250.97C692.64,-247.96 707.96,-244.6 722,-241.5 739.95,-237.54 759.58,-233.16 777.09,-229.25"/>
<polygon fill="midnightblue" stroke="midnightblue" points="778.14,-232.6 787.13,-227.01 776.61,-225.77 778.14,-232.6"/>
</g>
<!-- Node20 -->
<g id="node20" class="node">
<title>Node20</title>
<g id="a_node20"><a xlink:href="class_cuboid.html#a99d30564d6129e6905c5333e04df9606" target="_top" xlink:title="Metoda zwracajaca wierzcholki prostopadloscianu do Vector3D">
<polygon fill="none" stroke="black" points="783,-322 783,-341 878,-341 878,-322 783,-322"/>
<text text-anchor="middle" x="830.5" y="-329" font-family="Helvetica,sans-Serif" font-size="10.00">Cuboid::get_cub</text>
</a>
</g>
</g>
<!-- Node19&#45;&gt;Node20 -->
<g id="edge28" class="edge">
<title>Node19&#45;&gt;Node20</title>
<path fill="none" stroke="midnightblue" d="M691.52,-351.36C717.07,-347.69 747.19,-343.35 772.76,-339.67"/>
<polygon fill="midnightblue" stroke="midnightblue" points="773.28,-343.13 782.68,-338.24 772.29,-336.2 773.28,-343.13"/>
</g>
<!-- Node21 -->
<g id="node21" class="node">
<title>Node21</title>
<g id="a_node21"><a xlink:href="class_prism.html#a4e2b0b9c37d6a53af869522a4bf364ac" target="_top" xlink:title="Metoda przesuwajaca graniastoslup o zadany wektor w 3D w taki sposob, ze srodek jego dolnej podstawy ...">
<polygon fill="none" stroke="black" points="779,-360.5 779,-390.5 882,-390.5 882,-360.5 779,-360.5"/>
<text text-anchor="start" x="787" y="-378.5" font-family="Helvetica,sans-Serif" font-size="10.00">Prism::translation</text>
<text text-anchor="middle" x="830.5" y="-367.5" font-family="Helvetica,sans-Serif" font-size="10.00">_of_lower_cen</text>
</a>
</g>
</g>
<!-- Node19&#45;&gt;Node21 -->
<g id="edge29" class="edge">
<title>Node19&#45;&gt;Node21</title>
<path fill="none" stroke="midnightblue" d="M691.52,-364.15C715.77,-366.14 744.14,-368.48 768.84,-370.51"/>
<polygon fill="midnightblue" stroke="midnightblue" points="768.56,-374 778.81,-371.33 769.13,-367.02 768.56,-374"/>
</g>
<!-- Node21&#45;&gt;Node14 -->
<g id="edge30" class="edge">
<title>Node21&#45;&gt;Node14</title>
<path fill="none" stroke="midnightblue" d="M882.12,-381.86C902.07,-384.37 925.15,-387.27 945.98,-389.89"/>
<polygon fill="midnightblue" stroke="midnightblue" points="945.64,-393.38 956,-391.15 946.51,-386.43 945.64,-393.38"/>
</g>
<!-- Node23 -->
<g id="node23" class="node">
<title>Node23</title>
<g id="a_node23"><a xlink:href="class_cuboid.html#a08fae08a1c8c70ada48ce3af46c82eee" target="_top" xlink:title="Metoda zwracajaca wysokosc prostopadloscianu">
<polygon fill="none" stroke="black" points="580,-175 580,-194 688,-194 688,-175 580,-175"/>
<text text-anchor="middle" x="634" y="-182" font-family="Helvetica,sans-Serif" font-size="10.00">Cuboid::get_height</text>
</a>
</g>
</g>
<!-- Node22&#45;&gt;Node23 -->
<g id="edge32" class="edge">
<title>Node22&#45;&gt;Node23</title>
<path fill="none" stroke="midnightblue" d="M484.33,-212.96C511.23,-207.81 544.64,-201.42 572.96,-195.99"/>
<polygon fill="midnightblue" stroke="midnightblue" points="573.98,-199.36 583.15,-194.04 572.67,-192.49 573.98,-199.36"/>
</g>
<!-- Node25 -->
<g id="node25" class="node">
<title>Node25</title>
<g id="a_node25"><a xlink:href="class_cuboid.html#aafa18740d9c98ca928395b9873a9c63d" target="_top" xlink:title="Metoda zwracajaca punkt centralny (czyli taki, ktorego odleglosci do kazdego wierzcholka sa rowne) pr...">
<polygon fill="none" stroke="black" points="575.5,-213 575.5,-232 692.5,-232 692.5,-213 575.5,-213"/>
<text text-anchor="middle" x="634" y="-220" font-family="Helvetica,sans-Serif" font-size="10.00">Cuboid::centre_point</text>
</a>
</g>
</g>
<!-- Node24&#45;&gt;Node25 -->
<g id="edge34" class="edge">
<title>Node24&#45;&gt;Node25</title>
<path fill="none" stroke="midnightblue" d="M463.15,-277.33C485.28,-266.12 516.92,-251.2 546,-241.5 553.91,-238.86 562.34,-236.49 570.73,-234.4"/>
<polygon fill="midnightblue" stroke="midnightblue" points="571.61,-237.79 580.52,-232.06 569.98,-230.98 571.61,-237.79"/>
</g>
<!-- Node26 -->
<g id="node26" class="node">
<title>Node26</title>
<g id="a_node26"><a xlink:href="class_drone.html#a9684cd7ce04b7e6191f3d6b3a745370b" target="_top" xlink:title="Przesuwa drona o zadany wektor w 3D">
<polygon fill="none" stroke="black" points="582,-289 582,-308 686,-308 686,-289 582,-289"/>
<text text-anchor="middle" x="634" y="-296" font-family="Helvetica,sans-Serif" font-size="10.00">Drone::translation</text>
</a>
</g>
</g>
<!-- Node24&#45;&gt;Node26 -->
<g id="edge35" class="edge">
<title>Node24&#45;&gt;Node26</title>
<path fill="none" stroke="midnightblue" d="M485.62,-294.05C511.8,-294.84 543.87,-295.81 571.4,-296.64"/>
<polygon fill="midnightblue" stroke="midnightblue" points="571.61,-300.15 581.71,-296.95 571.82,-293.15 571.61,-300.15"/>
</g>
<!-- Node26&#45;&gt;Node14 -->
<g id="edge36" class="edge">
<title>Node26&#45;&gt;Node14</title>
<path fill="none" stroke="midnightblue" d="M686.1,-291.95C741.53,-286.91 831.65,-284.84 903,-312.5 939.96,-326.83 973.6,-359.78 991.95,-380.19"/>
<polygon fill="midnightblue" stroke="midnightblue" points="989.41,-382.6 998.63,-387.83 994.68,-378 989.41,-382.6"/>
</g>
<!-- Node26&#45;&gt;Node17 -->
<g id="edge37" class="edge">
<title>Node26&#45;&gt;Node17</title>
<path fill="none" stroke="midnightblue" d="M678.82,-288.97C692.64,-285.96 707.96,-282.6 722,-279.5 739.95,-275.54 759.58,-271.16 777.09,-267.25"/>
<polygon fill="midnightblue" stroke="midnightblue" points="778.14,-270.6 787.13,-265.01 776.61,-263.77 778.14,-270.6"/>
</g>
<!-- Node30 -->
<g id="node30" class="node">
<title>Node30</title>
<g id="a_node30"><a xlink:href="class_pz_g_1_1_lacze_do_g_n_u_plota.html#aa815ce8ec16e12fc246cf422e562869e" target="_top" xlink:title="Dodaje nazwę pliku.">
<polygon fill="none" stroke="black" points="368.5,-142.5 368.5,-172.5 498.5,-172.5 498.5,-142.5 368.5,-142.5"/>
<text text-anchor="start" x="376.5" y="-160.5" font-family="Helvetica,sans-Serif" font-size="10.00">PzG::LaczeDoGNUPlota</text>
<text text-anchor="middle" x="433.5" y="-149.5" font-family="Helvetica,sans-Serif" font-size="10.00">::DodajNazwePliku</text>
</a>
</g>
</g>
<!-- Node29&#45;&gt;Node30 -->
<g id="edge41" class="edge">
<title>Node29&#45;&gt;Node30</title>
<path fill="none" stroke="midnightblue" d="M321.13,-157.5C333.3,-157.5 345.99,-157.5 358.26,-157.5"/>
<polygon fill="midnightblue" stroke="midnightblue" points="358.45,-161 368.45,-157.5 358.45,-154 358.45,-161"/>
</g>
<!-- Node29&#45;&gt;Node32 -->
<g id="edge43" class="edge">
<title>Node29&#45;&gt;Node32</title>
<path fill="none" stroke="midnightblue" d="M286.02,-147.94C308.96,-141.76 339.51,-133.54 366.77,-126.2"/>
<polygon fill="midnightblue" stroke="midnightblue" points="367.9,-129.52 376.65,-123.54 366.08,-122.76 367.9,-129.52"/>
</g>
<!-- Node31 -->
<g id="node31" class="node">
<title>Node31</title>
<g id="a_node31"><a xlink:href="namespace_pz_g.html#ae1aad0c681853d7e47da4cdfccefc102" target="_top" xlink:title="Funkcja pomocnicza, sprawdza czy plik o podanej nazwie jest na dysku.">
<polygon fill="none" stroke="black" points="586.5,-137 586.5,-156 681.5,-156 681.5,-137 586.5,-137"/>
<text text-anchor="middle" x="634" y="-144" font-family="Helvetica,sans-Serif" font-size="10.00">PzG::CzyJestPlik</text>
</a>
</g>
</g>
<!-- Node30&#45;&gt;Node31 -->
<g id="edge42" class="edge">
<title>Node30&#45;&gt;Node31</title>
<path fill="none" stroke="midnightblue" d="M498.67,-153.94C523.65,-152.56 552.03,-150.99 576.24,-149.65"/>
<polygon fill="midnightblue" stroke="midnightblue" points="576.55,-153.13 586.34,-149.09 576.17,-146.14 576.55,-153.13"/>
</g>
<!-- Node33 -->
<g id="node33" class="node">
<title>Node33</title>
<g id="a_node33"><a xlink:href="namespace_pz_g.html#aa010184f31b26bb561b42f22438b821e" target="_top" xlink:title="Funkcja pomocnicza, dopisuje do polecenia wpisy związane z rysowaniem z pliku.">
<polygon fill="none" stroke="black" points="551,-99 551,-118 717,-118 717,-99 551,-99"/>
<text text-anchor="middle" x="634" y="-106" font-family="Helvetica,sans-Serif" font-size="10.00">PzG::DopiszRysowanieZPlikow</text>
</a>
</g>
</g>
<!-- Node32&#45;&gt;Node33 -->
<g id="edge44" class="edge">
<title>Node32&#45;&gt;Node33</title>
<path fill="none" stroke="midnightblue" d="M498.67,-108.5C512.07,-108.5 526.45,-108.5 540.64,-108.5"/>
<polygon fill="midnightblue" stroke="midnightblue" points="540.92,-112 550.92,-108.5 540.92,-105 540.92,-112"/>
</g>
<!-- Node34 -->
<g id="node34" class="node">
<title>Node34</title>
<g id="a_node34"><a xlink:href="namespace_pz_g.html#a7227cb39c785b1c746b6bb5515c0b781" target="_top" xlink:title="Dodaje do listy rysowanych punktów, punkty o różnych rozmiarach.">
<polygon fill="none" stroke="black" points="546,-49.5 546,-79.5 722,-79.5 722,-49.5 546,-49.5"/>
<text text-anchor="start" x="554" y="-67.5" font-family="Helvetica,sans-Serif" font-size="10.00">PzG::DopiszRysowanieZRoznych</text>
<text text-anchor="middle" x="634" y="-56.5" font-family="Helvetica,sans-Serif" font-size="10.00">Punktow</text>
</a>
</g>
</g>
<!-- Node32&#45;&gt;Node34 -->
<g id="edge45" class="edge">
<title>Node32&#45;&gt;Node34</title>
<path fill="none" stroke="midnightblue" d="M498.67,-94.28C516.72,-90.27 536.55,-85.88 555.3,-81.72"/>
<polygon fill="midnightblue" stroke="midnightblue" points="556.28,-85.09 565.29,-79.51 554.77,-78.26 556.28,-85.09"/>
</g>
<!-- Node35 -->
<g id="node35" class="node">
<title>Node35</title>
<g id="a_node35"><a xlink:href="namespace_pz_g.html#a169c311f0e0b6ffadcd44e91e749f72d" target="_top" xlink:title="Wczytuje z pliku listę punktów.">
<polygon fill="none" stroke="black" points="758,-49.5 758,-79.5 903,-79.5 903,-49.5 758,-49.5"/>
<text text-anchor="start" x="766" y="-67.5" font-family="Helvetica,sans-Serif" font-size="10.00">PzG::WczytajListeRoznych</text>
<text text-anchor="middle" x="830.5" y="-56.5" font-family="Helvetica,sans-Serif" font-size="10.00">Punktow</text>
</a>
</g>
</g>
<!-- Node34&#45;&gt;Node35 -->
<g id="edge46" class="edge">
<title>Node34&#45;&gt;Node35</title>
<path fill="none" stroke="midnightblue" d="M722.01,-64.5C730.5,-64.5 739.09,-64.5 747.52,-64.5"/>
<polygon fill="midnightblue" stroke="midnightblue" points="747.71,-68 757.71,-64.5 747.71,-61 747.71,-68"/>
</g>
<!-- Node36 -->
<g id="node36" class="node">
<title>Node36</title>
<g id="a_node36"><a xlink:href="class_pz_g_1_1_atrybuty_rysowania.html#ab068535b4d2f755c394557d1da72a4eb" target="_top" xlink:title="Zmienia kolor rysowania.">
<polygon fill="none" stroke="black" points="939,-98.5 939,-128.5 1076,-128.5 1076,-98.5 939,-98.5"/>
<text text-anchor="start" x="947" y="-116.5" font-family="Helvetica,sans-Serif" font-size="10.00">PzG::AtrybutyRysowania</text>
<text text-anchor="middle" x="1007.5" y="-105.5" font-family="Helvetica,sans-Serif" font-size="10.00">::ZmienKolor</text>
</a>
</g>
</g>
<!-- Node35&#45;&gt;Node36 -->
<g id="edge47" class="edge">
<title>Node35&#45;&gt;Node36</title>
<path fill="none" stroke="midnightblue" d="M885.43,-79.6C903.65,-84.7 924.15,-90.44 943.04,-95.73"/>
<polygon fill="midnightblue" stroke="midnightblue" points="942.17,-99.12 952.74,-98.45 944.06,-92.38 942.17,-99.12"/>
</g>
<!-- Node37 -->
<g id="node37" class="node">
<title>Node37</title>
<g id="a_node37"><a xlink:href="class_pz_g_1_1_atrybuty_rysowania.html#af4b140eb03bc10b6fd816fad63f8372e" target="_top" xlink:title="Zmienia rozmiar rysowania.">
<polygon fill="none" stroke="black" points="939,-49.5 939,-79.5 1076,-79.5 1076,-49.5 939,-49.5"/>
<text text-anchor="start" x="947" y="-67.5" font-family="Helvetica,sans-Serif" font-size="10.00">PzG::AtrybutyRysowania</text>
<text text-anchor="middle" x="1007.5" y="-56.5" font-family="Helvetica,sans-Serif" font-size="10.00">::ZmienRozmiar</text>
</a>
</g>
</g>
<!-- Node35&#45;&gt;Node37 -->
<g id="edge48" class="edge">
<title>Node35&#45;&gt;Node37</title>
<path fill="none" stroke="midnightblue" d="M903.18,-64.5C911.57,-64.5 920.16,-64.5 928.63,-64.5"/>
<polygon fill="midnightblue" stroke="midnightblue" points="928.87,-68 938.87,-64.5 928.87,-61 928.87,-68"/>
</g>
<!-- Node38 -->
<g id="node38" class="node">
<title>Node38</title>
<g id="a_node38"><a xlink:href="class_pz_g_1_1_atrybuty_rysowania.html#a2ac97706124b14072715ecf3f07e82b4" target="_top" xlink:title="Zmienia styl rysowania.">
<polygon fill="none" stroke="black" points="939,-0.5 939,-30.5 1076,-30.5 1076,-0.5 939,-0.5"/>
<text text-anchor="start" x="947" y="-18.5" font-family="Helvetica,sans-Serif" font-size="10.00">PzG::AtrybutyRysowania</text>
<text text-anchor="middle" x="1007.5" y="-7.5" font-family="Helvetica,sans-Serif" font-size="10.00">::ZmienStyl</text>
</a>
</g>
</g>
<!-- Node35&#45;&gt;Node38 -->
<g id="edge49" class="edge">
<title>Node35&#45;&gt;Node38</title>
<path fill="none" stroke="midnightblue" d="M885.43,-49.4C903.65,-44.3 924.15,-38.56 943.04,-33.27"/>
<polygon fill="midnightblue" stroke="midnightblue" points="944.06,-36.62 952.74,-30.55 942.17,-29.88 944.06,-36.62"/>
</g>
<!-- Node39&#45;&gt;Node5 -->
<g id="edge53" class="edge">
<title>Node39&#45;&gt;Node5</title>
<path fill="none" stroke="midnightblue" d="M446.28,-491.77C472.17,-525.14 532.8,-602.24 546,-609.5 581.3,-628.93 685.75,-638.99 757.51,-643.76"/>
<polygon fill="midnightblue" stroke="midnightblue" points="757.64,-647.28 767.85,-644.43 758.09,-640.29 757.64,-647.28"/>
</g>
<!-- Node40 -->
<g id="node40" class="node">
<title>Node40</title>
<g id="a_node40"><a xlink:href="class_cuboid.html#abc62d20a2f1418af1c35e369da77f0fc" target="_top" xlink:title=" ">
<polygon fill="none" stroke="black" points="570,-505 570,-524 698,-524 698,-505 570,-505"/>
<text text-anchor="middle" x="634" y="-512" font-family="Helvetica,sans-Serif" font-size="10.00">Cuboid::Cuboid_To_File</text>
</a>
</g>
</g>
<!-- Node39&#45;&gt;Node40 -->
<g id="edge51" class="edge">
<title>Node39&#45;&gt;Node40</title>
<path fill="none" stroke="midnightblue" d="M491.12,-487.34C516.71,-492.24 546.98,-498.03 572.96,-503.01"/>
<polygon fill="midnightblue" stroke="midnightblue" points="572.59,-506.5 583.07,-504.94 573.9,-499.62 572.59,-506.5"/>
</g>
<!-- Node42 -->
<g id="node42" class="node">
<title>Node42</title>
<g id="a_node42"><a xlink:href="class_prism.html#a2de0dab6d117fc3c8dcbc3c384d0fccd" target="_top" xlink:title=" ">
<polygon fill="none" stroke="black" points="576,-467 576,-486 692,-486 692,-467 576,-467"/>
<text text-anchor="middle" x="634" y="-474" font-family="Helvetica,sans-Serif" font-size="10.00">Prism::Prism_To_File</text>
</a>
</g>
</g>
<!-- Node39&#45;&gt;Node42 -->
<g id="edge54" class="edge">
<title>Node39&#45;&gt;Node42</title>
<path fill="none" stroke="midnightblue" d="M491.12,-476.5C514.38,-476.5 541.5,-476.5 565.76,-476.5"/>
<polygon fill="midnightblue" stroke="midnightblue" points="565.96,-480 575.96,-476.5 565.96,-473 565.96,-480"/>
</g>
<!-- Node41 -->
<g id="node41" class="node">
<title>Node41</title>
<g id="a_node41"><a xlink:href="class_cuboid.html#a12a97376443b1a15ae8342c1c75b3e1e" target="_top" xlink:title="Metoda wypisania odpowiednich wierzcholkow do pliku zgodnie z zaproponowanym sposobem zadaniu dron">
<polygon fill="none" stroke="black" points="763,-524 763,-543 898,-543 898,-524 763,-524"/>
<text text-anchor="middle" x="830.5" y="-531" font-family="Helvetica,sans-Serif" font-size="10.00">Cuboid::print_cuboid_3D</text>
</a>
</g>
</g>
<!-- Node40&#45;&gt;Node41 -->
<g id="edge52" class="edge">
<title>Node40&#45;&gt;Node41</title>
<path fill="none" stroke="midnightblue" d="M698.15,-520.67C715.65,-522.38 734.84,-524.25 753.01,-526.03"/>
<polygon fill="midnightblue" stroke="midnightblue" points="752.7,-529.51 762.99,-527 753.38,-522.55 752.7,-529.51"/>
</g>
<!-- Node43 -->
<g id="node43" class="node">
<title>Node43</title>
<g id="a_node43"><a xlink:href="class_prism.html#a764c6940e4fb65303981e8b877b28561" target="_top" xlink:title="Metoda wypisania odpowiednich wierzcholkow do pliku zgodnie z zaproponowanym sposobem zadaniu dron">
<polygon fill="none" stroke="black" points="768,-486 768,-505 893,-505 893,-486 768,-486"/>
<text text-anchor="middle" x="830.5" y="-493" font-family="Helvetica,sans-Serif" font-size="10.00">Prism::print_prism_3D</text>
</a>
</g>
</g>
<!-- Node42&#45;&gt;Node43 -->
<g id="edge55" class="edge">
<title>Node42&#45;&gt;Node43</title>
<path fill="none" stroke="midnightblue" d="M692.04,-482.07C712.56,-484.08 735.97,-486.36 757.59,-488.47"/>
<polygon fill="midnightblue" stroke="midnightblue" points="757.41,-491.97 767.7,-489.46 758.09,-485.01 757.41,-491.97"/>
</g>
<!-- Node44&#45;&gt;Node13 -->
<g id="edge59" class="edge">
<title>Node44&#45;&gt;Node13</title>
<path fill="none" stroke="midnightblue" d="M313.23,-419.5C377.37,-419.5 477.4,-419.5 548.48,-419.5"/>
<polygon fill="midnightblue" stroke="midnightblue" points="548.76,-423 558.76,-419.5 548.76,-416 548.76,-423"/>
</g>
<!-- Node44&#45;&gt;Node39 -->
<g id="edge58" class="edge">
<title>Node44&#45;&gt;Node39</title>
<path fill="none" stroke="midnightblue" d="M298.79,-434.63C322.03,-441.9 350.06,-450.68 374.45,-458.32"/>
<polygon fill="midnightblue" stroke="midnightblue" points="373.71,-461.75 384.3,-461.4 375.8,-455.07 373.71,-461.75"/>
</g>
</g>
</svg>
        <g id="navigator" transform="translate(0 0)" fill="#404254">
                <rect fill="#f2f5e9" fill-opacity="0.5" stroke="#606060" stroke-width=".5" x="0" y="0" width="60" height="60"/>
                <use id="zoomplus" xlink:href="#zoomPlus" x="17" y="9" onmousedown="handleZoom(evt,'in')"/>
                <use id="zoomminus" xlink:href="#zoomMin" x="42" y="9" onmousedown="handleZoom(evt,'out')"/>
                <use id="reset" xlink:href="#resetDef" x="30" y="36" onmousedown="handleReset()"/>
                <g id="arrowUp" xlink:href="#dirArrow" transform="translate(30 24)" onmousedown="handlePan(0,-1)">
                  <use xlink:href="#rim" fill="#404040">
                        <set attributeName="fill" to="#808080" begin="arrowUp.mouseover" end="arrowUp.mouseout"/>
                  </use>
                  <path fill="none" stroke="white" stroke-width="1.5" d="M0,-3.0v7 M-2.5,-0.5L0,-3.0L2.5,-0.5"/>
                </g>
                <g id="arrowRight" xlink:href="#dirArrow" transform="rotate(90) translate(36 -43)" onmousedown="handlePan(1,0)">
                  <use xlink:href="#rim" fill="#404040">
                        <set attributeName="fill" to="#808080" begin="arrowRight.mouseover" end="arrowRight.mouseout"/>
                  </use>
                  <path fill="none" stroke="white" stroke-width="1.5" d="M0,-3.0v7 M-2.5,-0.5L0,-3.0L2.5,-0.5"/>
                </g>
                <g id="arrowDown" xlink:href="#dirArrow" transform="rotate(180) translate(-30 -48)" onmousedown="handlePan(0,1)">
                  <use xlink:href="#rim" fill="#404040">
                        <set attributeName="fill" to="#808080" begin="arrowDown.mouseover" end="arrowDown.mouseout"/>
                  </use>
                  <path fill="none" stroke="white" stroke-width="1.5" d="M0,-3.0v7 M-2.5,-0.5L0,-3.0L2.5,-0.5"/>
                </g>
                <g id="arrowLeft" xlink:href="#dirArrow" transform="rotate(270) translate(-36 17)" onmousedown="handlePan(-1,0)">
                  <use xlink:href="#rim" fill="#404040">
                        <set attributeName="fill" to="#808080" begin="arrowLeft.mouseover" end="arrowLeft.mouseout"/>
                  </use>
                  <path fill="none" stroke="white" stroke-width="1.5" d="M0,-3.0v7 M-2.5,-0.5L0,-3.0L2.5,-0.5"/>
                </g>
        </g>
        <svg viewBox="0 0 15 15" width="100%" height="30px" preserveAspectRatio="xMaxYMin meet">
         <g id="arrow_out" transform="scale(0.3 0.3)">
          <a xlink:href="class_drone_ab7808296cec81143dbddd7516340a371_cgraph_org.svg" target="_base">
           <rect id="button" ry="5" rx="5" y="6" x="6" height="38" width="38"
                fill="#f2f5e9" fill-opacity="0.5" stroke="#606060" stroke-width="1.0"/>
           <path id="arrow"
             d="M 11.500037,31.436501 C 11.940474,20.09759 22.043105,11.32322 32.158766,21.979434 L 37.068811,17.246167 C 37.068811,17.246167 37.088388,32 37.088388,32 L 22.160133,31.978069 C 22.160133,31.978069 26.997745,27.140456 26.997745,27.140456 C 18.528582,18.264221 13.291696,25.230495 11.500037,31.436501 z"
             style="fill:#404040;"/>
          </a>
         </g>
        </svg>
</svg>
