<?xml version="1.0" encoding="UTF-8" standalone="no"?>
<!DOCTYPE svg PUBLIC "-//W3C//DTD SVG 1.1//EN"
 "http://www.w3.org/Graphics/SVG/1.1/DTD/svg11.dtd">
<!-- Generated by graphviz version 2.43.0 (0)
 -->
<!-- Title: Drone::check_dro Pages: 1 -->
<!--zoomable 104 -->
<svg id="main" version="1.1" xmlns="http://www.w3.org/2000/svg" xmlns:xlink="http://www.w3.org/1999/xlink" xml:space="preserve" onload="init(evt)">
<style type="text/css"><![CDATA[
.edge:hover path { stroke: red; }
.edge:hover polygon { stroke: red; fill: red; }
]]></style>
<script type="text/javascript"><![CDATA[
var edges = document.getElementsByTagName('g');
if (edges && edges.length) {
  for (var i=0;i<edges.length;i++) {
    if (edges[i].id.substr(0,4)=='edge') {
      edges[i].setAttribute('class','edge');
    }
  }
}
]]></script>
        <defs>
                <circle id="rim" cx="0" cy="0" r="7"/>
                <circle id="rim2" cx="0" cy="0" r="3.5"/>
                <g id="zoomPlus">
                        <use xlink:href="#rim" fill="#404040">
                                <set attributeName="fill" to="#808080" begin="zoomplus.mouseover" end="zoomplus.mouseout"/>
                        </use>
                        <path d="M-4,0h8M0,-4v8" fill="none" stroke="white" stroke-width="1.5" pointer-events="none"/>
                </g>
                <g id="zoomMin">
                        <use xlink:href="#rim" fill="#404040">
                                <set attributeName="fill" to="#808080" begin="zoomminus.mouseover" end="zoomminus.mouseout"/>
                        </use>
                        <path d="M-4,0h8" fill="none" stroke="white" stroke-width="1.5" pointer-events="none"/>
                </g>
                <g id="dirArrow">
                        <path fill="none" stroke="white" stroke-width="1.5" d="M0,-3.0v7 M-2.5,-0.5L0,-3.0L2.5,-0.5"/>
                </g>
               <g id="resetDef">
                       <use xlink:href="#rim2" fill="#404040">
                               <set attributeName="fill" to="#808080" begin="reset.mouseover" end="reset.mouseout"/>
                       </use>
               </g>
        </defs>

<script type="text/javascript">
var viewWidth = 583;
var viewHeight = 104;
var sectionId = 'dynsection-4';
</script>
<script xlink:href="svgpan.js"/>
<svg id="graph" class="graph">
<g id="viewport">
<title>Drone::check_dro</title>
<!-- Node1 -->
<g id="node1" class="node">
<title>Node1</title>
<g id="a_node1"><a xlink:title="Metoda sprawdzajaca budowe drona">
<polygon fill="#bfbfbf" stroke="black" points="0,-19.5 0,-38.5 101,-38.5 101,-19.5 0,-19.5"/>
<text text-anchor="middle" x="50.5" y="-26.5" font-family="Helvetica,sans-Serif" font-size="10.00">Drone::check_dro</text>
</a>
</g>
</g>
<!-- Node2 -->
<g id="node2" class="node">
<title>Node2</title>
<g id="a_node2"><a xlink:href="class_cuboid.html#a058d488f3125238bd8b8dcbb671ede9e" target="_top" xlink:title="Sprawdza czy prostopadloscian jest poprawnie zbudowany">
<polygon fill="none" stroke="black" points="138.5,-38.5 138.5,-57.5 245.5,-57.5 245.5,-38.5 138.5,-38.5"/>
<text text-anchor="middle" x="192" y="-45.5" font-family="Helvetica,sans-Serif" font-size="10.00">Cuboid::check_cub</text>
</a>
</g>
</g>
<!-- Node1&#45;&gt;Node2 -->
<g id="edge1" class="edge">
<title>Node1&#45;&gt;Node2</title>
<path fill="none" stroke="midnightblue" d="M101.08,-35.75C109.84,-36.95 119.07,-38.2 128.14,-39.44"/>
<polygon fill="midnightblue" stroke="midnightblue" points="127.9,-42.94 138.28,-40.82 128.84,-36 127.9,-42.94"/>
</g>
<!-- Node8 -->
<g id="node8" class="node">
<title>Node8</title>
<g id="a_node8"><a xlink:href="class_drone.html#af5242f58fd5a72f0031f3767983ecaba" target="_top" xlink:title="Metoda sprawdzajaca orientacje drona &#160;&#160;Vector3D dron_orien musi byc jednostkowy, oraz miec skladowa z...">
<polygon fill="none" stroke="black" points="137,-0.5 137,-19.5 247,-19.5 247,-0.5 137,-0.5"/>
<text text-anchor="middle" x="192" y="-7.5" font-family="Helvetica,sans-Serif" font-size="10.00">Drone::check_orien</text>
</a>
</g>
</g>
<!-- Node1&#45;&gt;Node8 -->
<g id="edge8" class="edge">
<title>Node1&#45;&gt;Node8</title>
<path fill="none" stroke="midnightblue" d="M101.08,-22.25C109.41,-21.11 118.16,-19.92 126.79,-18.75"/>
<polygon fill="midnightblue" stroke="midnightblue" points="127.41,-22.19 136.85,-17.38 126.47,-15.26 127.41,-22.19"/>
</g>
<!-- Node3 -->
<g id="node3" class="node">
<title>Node3</title>
<g id="a_node3"><a xlink:href="class_cuboid.html#a41233dfb606942e160e3080a23547674" target="_top" xlink:title="Sprawdza czy dlugosci wektory tworzace przeciwne boki prostopadloscianu maja poprawne wartosci (nie s...">
<polygon fill="none" stroke="black" points="286,-76.5 286,-95.5 414,-95.5 414,-76.5 286,-76.5"/>
<text text-anchor="middle" x="350" y="-83.5" font-family="Helvetica,sans-Serif" font-size="10.00">Cuboid::check_vec_len</text>
</a>
</g>
</g>
<!-- Node2&#45;&gt;Node3 -->
<g id="edge2" class="edge">
<title>Node2&#45;&gt;Node3</title>
<path fill="none" stroke="midnightblue" d="M232.37,-57.59C252.95,-62.6 278.34,-68.79 300.17,-74.11"/>
<polygon fill="midnightblue" stroke="midnightblue" points="299.37,-77.51 309.92,-76.48 301.03,-70.71 299.37,-77.51"/>
</g>
<!-- Node5 -->
<g id="node5" class="node">
<title>Node5</title>
<g id="a_node5"><a xlink:href="class_cuboid.html#a5840b78caaeac16fd1a262026819501d" target="_top" xlink:title="Sprawdza czy wektory tworzace przeciwne boki prostopadloscianu sa rowne">
<polygon fill="none" stroke="black" points="284.5,-38.5 284.5,-57.5 415.5,-57.5 415.5,-38.5 284.5,-38.5"/>
<text text-anchor="middle" x="350" y="-45.5" font-family="Helvetica,sans-Serif" font-size="10.00">Cuboid::check_vec_opp</text>
</a>
</g>
</g>
<!-- Node2&#45;&gt;Node5 -->
<g id="edge4" class="edge">
<title>Node2&#45;&gt;Node5</title>
<path fill="none" stroke="midnightblue" d="M245.81,-48C254.9,-48 264.5,-48 274.04,-48"/>
<polygon fill="midnightblue" stroke="midnightblue" points="274.34,-51.5 284.34,-48 274.34,-44.5 274.34,-51.5"/>
</g>
<!-- Node6 -->
<g id="node6" class="node">
<title>Node6</title>
<g id="a_node6"><a xlink:href="class_cuboid.html#a5941a7b9eb991137a908b38dc24dc9b3" target="_top" xlink:title="Sprawdza czy wektory tworzace niektore konkretne boki prostokata (glownie te przy wierzcholkach) sa p...">
<polygon fill="none" stroke="black" points="283,-0.5 283,-19.5 417,-19.5 417,-0.5 283,-0.5"/>
<text text-anchor="middle" x="350" y="-7.5" font-family="Helvetica,sans-Serif" font-size="10.00">Cuboid::check_vec_perp</text>
</a>
</g>
</g>
<!-- Node2&#45;&gt;Node6 -->
<g id="edge6" class="edge">
<title>Node2&#45;&gt;Node6</title>
<path fill="none" stroke="midnightblue" d="M232.37,-38.41C252.95,-33.4 278.34,-27.21 300.17,-21.89"/>
<polygon fill="midnightblue" stroke="midnightblue" points="301.03,-25.29 309.92,-19.52 299.37,-18.49 301.03,-25.29"/>
</g>
<!-- Node4 -->
<g id="node4" class="node">
<title>Node4</title>
<g id="a_node4"><a xlink:href="class_cuboid.html#a21fa2d6458f5b6c593e3e83b3455c246" target="_top" xlink:title="Zwraca do tablicy 3x2 wektory reprezentujace przeciwne boki prostopadloscianu">
<polygon fill="none" stroke="black" points="455,-57.5 455,-76.5 573,-76.5 573,-57.5 455,-57.5"/>
<text text-anchor="middle" x="514" y="-64.5" font-family="Helvetica,sans-Serif" font-size="10.00">Cuboid::get_vec_opp</text>
</a>
</g>
</g>
<!-- Node3&#45;&gt;Node4 -->
<g id="edge3" class="edge">
<title>Node3&#45;&gt;Node4</title>
<path fill="none" stroke="midnightblue" d="M414.1,-78.6C424.16,-77.42 434.61,-76.19 444.78,-75"/>
<polygon fill="midnightblue" stroke="midnightblue" points="445.31,-78.46 454.84,-73.82 444.5,-71.51 445.31,-78.46"/>
</g>
<!-- Node5&#45;&gt;Node4 -->
<g id="edge5" class="edge">
<title>Node5&#45;&gt;Node4</title>
<path fill="none" stroke="midnightblue" d="M415.96,-55.62C425.4,-56.73 435.14,-57.87 444.64,-58.98"/>
<polygon fill="midnightblue" stroke="midnightblue" points="444.49,-62.49 454.83,-60.18 445.31,-55.54 444.49,-62.49"/>
</g>
<!-- Node7 -->
<g id="node7" class="node">
<title>Node7</title>
<g id="a_node7"><a xlink:href="class_cuboid.html#a3bdc11fd360d0c7d8491f4b42b53bf10" target="_top" xlink:title="Zwraca do tablicy 2x3 wektory reprezentujace boki przy wierzcholkach [0][1] (do vecs[0]) i [1][3] (do...">
<polygon fill="none" stroke="black" points="453,-0.5 453,-19.5 575,-19.5 575,-0.5 453,-0.5"/>
<text text-anchor="middle" x="514" y="-7.5" font-family="Helvetica,sans-Serif" font-size="10.00">Cuboid::get_vec_perp</text>
</a>
</g>
</g>
<!-- Node6&#45;&gt;Node7 -->
<g id="edge7" class="edge">
<title>Node6&#45;&gt;Node7</title>
<path fill="none" stroke="midnightblue" d="M417.36,-10C425.75,-10 434.35,-10 442.79,-10"/>
<polygon fill="midnightblue" stroke="midnightblue" points="442.99,-13.5 452.99,-10 442.99,-6.5 442.99,-13.5"/>
</g>
</g>
</svg>
        <g id="navigator" transform="translate(0 0)" fill="#404254">
                <rect fill="#f2f5e9" fill-opacity="0.5" stroke="#606060" stroke-width=".5" x="0" y="0" width="60" height="60"/>
                <use id="zoomplus" xlink:href="#zoomPlus" x="17" y="9" onmousedown="handleZoom(evt,'in')"/>
                <use id="zoomminus" xlink:href="#zoomMin" x="42" y="9" onmousedown="handleZoom(evt,'out')"/>
                <use id="reset" xlink:href="#resetDef" x="30" y="36" onmousedown="handleReset()"/>
                <g id="arrowUp" xlink:href="#dirArrow" transform="translate(30 24)" onmousedown="handlePan(0,-1)">
                  <use xlink:href="#rim" fill="#404040">
                        <set attributeName="fill" to="#808080" begin="arrowUp.mouseover" end="arrowUp.mouseout"/>
                  </use>
                  <path fill="none" stroke="white" stroke-width="1.5" d="M0,-3.0v7 M-2.5,-0.5L0,-3.0L2.5,-0.5"/>
                </g>
                <g id="arrowRight" xlink:href="#dirArrow" transform="rotate(90) translate(36 -43)" onmousedown="handlePan(1,0)">
                  <use xlink:href="#rim" fill="#404040">
                        <set attributeName="fill" to="#808080" begin="arrowRight.mouseover" end="arrowRight.mouseout"/>
                  </use>
                  <path fill="none" stroke="white" stroke-width="1.5" d="M0,-3.0v7 M-2.5,-0.5L0,-3.0L2.5,-0.5"/>
                </g>
                <g id="arrowDown" xlink:href="#dirArrow" transform="rotate(180) translate(-30 -48)" onmousedown="handlePan(0,1)">
                  <use xlink:href="#rim" fill="#404040">
                        <set attributeName="fill" to="#808080" begin="arrowDown.mouseover" end="arrowDown.mouseout"/>
                  </use>
                  <path fill="none" stroke="white" stroke-width="1.5" d="M0,-3.0v7 M-2.5,-0.5L0,-3.0L2.5,-0.5"/>
                </g>
                <g id="arrowLeft" xlink:href="#dirArrow" transform="rotate(270) translate(-36 17)" onmousedown="handlePan(-1,0)">
                  <use xlink:href="#rim" fill="#404040">
                        <set attributeName="fill" to="#808080" begin="arrowLeft.mouseover" end="arrowLeft.mouseout"/>
                  </use>
                  <path fill="none" stroke="white" stroke-width="1.5" d="M0,-3.0v7 M-2.5,-0.5L0,-3.0L2.5,-0.5"/>
                </g>
        </g>
        <svg viewBox="0 0 15 15" width="100%" height="30px" preserveAspectRatio="xMaxYMin meet">
         <g id="arrow_out" transform="scale(0.3 0.3)">
          <a xlink:href="class_drone_a40e3c3f032ef691392293efd12a5014b_cgraph_org.svg" target="_base">
           <rect id="button" ry="5" rx="5" y="6" x="6" height="38" width="38"
                fill="#f2f5e9" fill-opacity="0.5" stroke="#606060" stroke-width="1.0"/>
           <path id="arrow"
             d="M 11.500037,31.436501 C 11.940474,20.09759 22.043105,11.32322 32.158766,21.979434 L 37.068811,17.246167 C 37.068811,17.246167 37.088388,32 37.088388,32 L 22.160133,31.978069 C 22.160133,31.978069 26.997745,27.140456 26.997745,27.140456 C 18.528582,18.264221 13.291696,25.230495 11.500037,31.436501 z"
             style="fill:#404040;"/>
          </a>
         </g>
        </svg>
</svg>
