<?xml version="1.0" encoding="UTF-8" standalone="no"?>
<!DOCTYPE svg PUBLIC "-//W3C//DTD SVG 1.1//EN"
 "http://www.w3.org/Graphics/SVG/1.1/DTD/svg11.dtd">
<!-- Generated by graphviz version 2.43.0 (0)
 -->
<!-- Title: Block Pages: 1 -->
<svg width="455pt" height="1317pt"
 viewBox="0.00 0.00 455.00 1317.00" xmlns="http://www.w3.org/2000/svg" xmlns:xlink="http://www.w3.org/1999/xlink">
<g id="graph0" class="graph" transform="scale(1 1) rotate(0) translate(4 1313)">
<title>Block</title>
<!-- Node1 -->
<g id="node1" class="node">
<title>Node1</title>
<g id="a_node1"><a xlink:title="Opisuje figure geometryczna w przestrzeni trojwymiarowej.">
<polygon fill="#bfbfbf" stroke="black" points="216.5,-0.5 216.5,-211.5 341.5,-211.5 341.5,-0.5 216.5,-0.5"/>
<text text-anchor="middle" x="279" y="-199.5" font-family="Helvetica,sans-Serif" font-size="10.00">Block</text>
<polyline fill="none" stroke="black" points="216.5,-192.5 341.5,-192.5 "/>
<text text-anchor="middle" x="279" y="-180.5" font-family="Helvetica,sans-Serif" font-size="10.00"> </text>
<polyline fill="none" stroke="black" points="216.5,-173.5 341.5,-173.5 "/>
<text text-anchor="start" x="224.5" y="-161.5" font-family="Helvetica,sans-Serif" font-size="10.00">+ Block()</text>
<text text-anchor="start" x="224.5" y="-150.5" font-family="Helvetica,sans-Serif" font-size="10.00">+ Block()</text>
<text text-anchor="start" x="224.5" y="-139.5" font-family="Helvetica,sans-Serif" font-size="10.00">+ Block()</text>
<text text-anchor="start" x="224.5" y="-128.5" font-family="Helvetica,sans-Serif" font-size="10.00">+ set_sample_name()</text>
<text text-anchor="start" x="224.5" y="-117.5" font-family="Helvetica,sans-Serif" font-size="10.00">+ set_final_name()</text>
<text text-anchor="start" x="224.5" y="-106.5" font-family="Helvetica,sans-Serif" font-size="10.00">+ set_scale()</text>
<text text-anchor="start" x="224.5" y="-95.5" font-family="Helvetica,sans-Serif" font-size="10.00">+ set_scale()</text>
<text text-anchor="start" x="224.5" y="-84.5" font-family="Helvetica,sans-Serif" font-size="10.00">+ check_block()</text>
<text text-anchor="start" x="224.5" y="-73.5" font-family="Helvetica,sans-Serif" font-size="10.00">+ get_sample_name()</text>
<text text-anchor="start" x="224.5" y="-62.5" font-family="Helvetica,sans-Serif" font-size="10.00">+ get_final_name()</text>
<text text-anchor="start" x="224.5" y="-51.5" font-family="Helvetica,sans-Serif" font-size="10.00">+ get_scale()</text>
<text text-anchor="start" x="224.5" y="-40.5" font-family="Helvetica,sans-Serif" font-size="10.00">+ print_name()</text>
<text text-anchor="start" x="224.5" y="-29.5" font-family="Helvetica,sans-Serif" font-size="10.00">+ print_pos()</text>
<text text-anchor="start" x="224.5" y="-18.5" font-family="Helvetica,sans-Serif" font-size="10.00">+ get_pos()</text>
<text text-anchor="start" x="224.5" y="-7.5" font-family="Helvetica,sans-Serif" font-size="10.00">+ switch_pos()</text>
</a>
</g>
</g>
<!-- Node2 -->
<g id="node2" class="node">
<title>Node2</title>
<g id="a_node2"><a xlink:href="class_vector.html" target="_top" xlink:title=" ">
<polygon fill="none" stroke="black" points="172.5,-270.5 172.5,-536.5 287.5,-536.5 287.5,-270.5 172.5,-270.5"/>
<text text-anchor="middle" x="230" y="-524.5" font-family="Helvetica,sans-Serif" font-size="10.00">Vector&lt; double, 3 &gt;</text>
<polyline fill="none" stroke="black" points="172.5,-517.5 287.5,-517.5 "/>
<text text-anchor="middle" x="230" y="-505.5" font-family="Helvetica,sans-Serif" font-size="10.00"> </text>
<polyline fill="none" stroke="black" points="172.5,-498.5 287.5,-498.5 "/>
<text text-anchor="start" x="180.5" y="-486.5" font-family="Helvetica,sans-Serif" font-size="10.00">+ Vector()</text>
<text text-anchor="start" x="180.5" y="-475.5" font-family="Helvetica,sans-Serif" font-size="10.00">+ Vector()</text>
<text text-anchor="start" x="180.5" y="-464.5" font-family="Helvetica,sans-Serif" font-size="10.00">+ operator+()</text>
<text text-anchor="start" x="180.5" y="-453.5" font-family="Helvetica,sans-Serif" font-size="10.00">+ operator&#45;()</text>
<text text-anchor="start" x="180.5" y="-442.5" font-family="Helvetica,sans-Serif" font-size="10.00">+ operator*()</text>
<text text-anchor="start" x="180.5" y="-431.5" font-family="Helvetica,sans-Serif" font-size="10.00">+ operator/()</text>
<text text-anchor="start" x="180.5" y="-420.5" font-family="Helvetica,sans-Serif" font-size="10.00">+ operator==()</text>
<text text-anchor="start" x="180.5" y="-409.5" font-family="Helvetica,sans-Serif" font-size="10.00">+ scale_vec()</text>
<text text-anchor="start" x="180.5" y="-398.5" font-family="Helvetica,sans-Serif" font-size="10.00">+ rotate()</text>
<text text-anchor="start" x="180.5" y="-387.5" font-family="Helvetica,sans-Serif" font-size="10.00">+ rotate()</text>
<text text-anchor="start" x="180.5" y="-376.5" font-family="Helvetica,sans-Serif" font-size="10.00">+ rotate()</text>
<text text-anchor="start" x="180.5" y="-365.5" font-family="Helvetica,sans-Serif" font-size="10.00">+ modulus2()</text>
<text text-anchor="start" x="180.5" y="-354.5" font-family="Helvetica,sans-Serif" font-size="10.00">+ get_vec()</text>
<text text-anchor="start" x="180.5" y="-343.5" font-family="Helvetica,sans-Serif" font-size="10.00">+ get_len()</text>
<text text-anchor="start" x="180.5" y="-332.5" font-family="Helvetica,sans-Serif" font-size="10.00">+ get_slope_angle()</text>
<text text-anchor="start" x="180.5" y="-321.5" font-family="Helvetica,sans-Serif" font-size="10.00">+ get_slope_angle()</text>
<text text-anchor="start" x="180.5" y="-310.5" font-family="Helvetica,sans-Serif" font-size="10.00">+ get_slope_angle()</text>
<text text-anchor="start" x="180.5" y="-299.5" font-family="Helvetica,sans-Serif" font-size="10.00">+ operator[]()</text>
<text text-anchor="start" x="180.5" y="-288.5" font-family="Helvetica,sans-Serif" font-size="10.00">+ operator[]()</text>
<text text-anchor="start" x="180.5" y="-277.5" font-family="Helvetica,sans-Serif" font-size="10.00">+ scalar_prod()</text>
</a>
</g>
</g>
<!-- Node2&#45;&gt;Node1 -->
<g id="edge1" class="edge">
<title>Node2&#45;&gt;Node1</title>
<path fill="none" stroke="#404040" d="M251.92,-270.31C254.49,-254.79 257.11,-239.03 259.64,-223.75"/>
<polygon fill="none" stroke="#404040" points="259.69,-223.44 256.73,-216.86 261.66,-211.6 264.62,-218.17 259.69,-223.44"/>
<text text-anchor="middle" x="276.5" y="-238.5" font-family="Helvetica,sans-Serif" font-size="10.00"> #scale</text>
</g>
<!-- Node3 -->
<g id="node3" class="node">
<title>Node3</title>
<g id="a_node3"><a xlink:href="class_count.html" target="_top" xlink:title=" ">
<polygon fill="none" stroke="black" points="0,-898.5 0,-1021.5 134,-1021.5 134,-898.5 0,-898.5"/>
<text text-anchor="start" x="8" y="-1009.5" font-family="Helvetica,sans-Serif" font-size="10.00">Count&lt; Vector&lt; double,</text>
<text text-anchor="middle" x="67" y="-998.5" font-family="Helvetica,sans-Serif" font-size="10.00"> SIZE &gt; &gt;</text>
<polyline fill="none" stroke="black" points="0,-991.5 134,-991.5 "/>
<text text-anchor="middle" x="67" y="-979.5" font-family="Helvetica,sans-Serif" font-size="10.00"> </text>
<polyline fill="none" stroke="black" points="0,-972.5 134,-972.5 "/>
<text text-anchor="start" x="8" y="-960.5" font-family="Helvetica,sans-Serif" font-size="10.00">+ Count()</text>
<text text-anchor="start" x="8" y="-949.5" font-family="Helvetica,sans-Serif" font-size="10.00">+ Count()</text>
<text text-anchor="start" x="8" y="-938.5" font-family="Helvetica,sans-Serif" font-size="10.00">+ ~Count()</text>
<text text-anchor="start" x="8" y="-927.5" font-family="Helvetica,sans-Serif" font-size="10.00">+ get_count()</text>
<text text-anchor="start" x="8" y="-916.5" font-family="Helvetica,sans-Serif" font-size="10.00">+ print_count()</text>
<text text-anchor="start" x="8" y="-905.5" font-family="Helvetica,sans-Serif" font-size="10.00">+ zero_count()</text>
</a>
</g>
</g>
<!-- Node3&#45;&gt;Node2 -->
<g id="edge2" class="edge">
<title>Node3&#45;&gt;Node2</title>
<path fill="none" stroke="midnightblue" d="M82.02,-888.36C98.78,-812.44 127.93,-688.58 161,-584 165.88,-568.56 171.39,-552.53 177.11,-536.68"/>
<polygon fill="none" stroke="midnightblue" points="78.56,-887.77 79.83,-898.29 85.4,-889.28 78.56,-887.77"/>
</g>
<!-- Node4 -->
<g id="node4" class="node">
<title>Node4</title>
<g id="a_node4"><a xlink:title=" ">
<polygon fill="none" stroke="#bfbfbf" points="35.5,-1251.5 35.5,-1308.5 64.5,-1308.5 64.5,-1251.5 35.5,-1251.5"/>
<text text-anchor="middle" x="50" y="-1296.5" font-family="Helvetica,sans-Serif" font-size="10.00">int</text>
<polyline fill="none" stroke="#bfbfbf" points="35.5,-1289.5 64.5,-1289.5 "/>
<text text-anchor="middle" x="50" y="-1277.5" font-family="Helvetica,sans-Serif" font-size="10.00"> </text>
<polyline fill="none" stroke="#bfbfbf" points="35.5,-1270.5 64.5,-1270.5 "/>
<text text-anchor="middle" x="50" y="-1258.5" font-family="Helvetica,sans-Serif" font-size="10.00"> </text>
</a>
</g>
</g>
<!-- Node4&#45;&gt;Node3 -->
<g id="edge3" class="edge">
<title>Node4&#45;&gt;Node3</title>
<path fill="none" stroke="#404040" d="M47.16,-1251.15C45.58,-1234.33 43.79,-1212.46 43,-1193 40.96,-1142.82 38.05,-1129.98 43,-1080 44.79,-1061.96 47.42,-1057.77 51,-1040 51.41,-1037.97 51.82,-1035.92 52.24,-1033.84"/>
<polygon fill="none" stroke="#404040" points="52.29,-1033.57 49.56,-1026.9 54.67,-1021.81 57.4,-1028.48 52.29,-1033.57"/>
<text text-anchor="middle" x="86" y="-1139.5" font-family="Helvetica,sans-Serif" font-size="10.00"> #objects_alive</text>
<text text-anchor="middle" x="86" y="-1128.5" font-family="Helvetica,sans-Serif" font-size="10.00">#objects_created</text>
</g>
<!-- Node5 -->
<g id="node5" class="node">
<title>Node5</title>
<g id="a_node5"><a xlink:href="class_count.html" target="_top" xlink:title="Pozwala na liczenie instancji stworzonych obiektow.">
<polygon fill="none" stroke="black" points="138,-1080.5 138,-1192.5 228,-1192.5 228,-1080.5 138,-1080.5"/>
<text text-anchor="middle" x="183" y="-1180.5" font-family="Helvetica,sans-Serif" font-size="10.00">Count&lt; T &gt;</text>
<polyline fill="none" stroke="black" points="138,-1173.5 228,-1173.5 "/>
<text text-anchor="middle" x="183" y="-1161.5" font-family="Helvetica,sans-Serif" font-size="10.00"> </text>
<polyline fill="none" stroke="black" points="138,-1154.5 228,-1154.5 "/>
<text text-anchor="start" x="146" y="-1142.5" font-family="Helvetica,sans-Serif" font-size="10.00">+ Count()</text>
<text text-anchor="start" x="146" y="-1131.5" font-family="Helvetica,sans-Serif" font-size="10.00">+ Count()</text>
<text text-anchor="start" x="146" y="-1120.5" font-family="Helvetica,sans-Serif" font-size="10.00">+ ~Count()</text>
<text text-anchor="start" x="146" y="-1109.5" font-family="Helvetica,sans-Serif" font-size="10.00">+ get_count()</text>
<text text-anchor="start" x="146" y="-1098.5" font-family="Helvetica,sans-Serif" font-size="10.00">+ print_count()</text>
<text text-anchor="start" x="146" y="-1087.5" font-family="Helvetica,sans-Serif" font-size="10.00">+ zero_count()</text>
</a>
</g>
</g>
<!-- Node4&#45;&gt;Node5 -->
<g id="edge5" class="edge">
<title>Node4&#45;&gt;Node5</title>
<path fill="none" stroke="#404040" d="M64.74,-1263.32C80.34,-1246.72 105.89,-1219.54 129.25,-1194.68"/>
<polygon fill="none" stroke="#404040" points="129.52,-1194.39 130.72,-1187.28 137.74,-1185.65 136.55,-1192.76 129.52,-1194.39"/>
<text text-anchor="middle" x="156" y="-1225" font-family="Helvetica,sans-Serif" font-size="10.00"> #objects_alive</text>
<text text-anchor="middle" x="156" y="-1214" font-family="Helvetica,sans-Serif" font-size="10.00">#objects_created</text>
</g>
<!-- Node5&#45;&gt;Node3 -->
<g id="edge4" class="edge">
<title>Node5&#45;&gt;Node3</title>
<path fill="none" stroke="orange" d="M129.75,-1083.55C127.85,-1082.3 125.93,-1081.11 124,-1080 99.88,-1066.09 80.62,-1084.34 64,-1062 55.41,-1050.46 52.64,-1035.95 52.83,-1021.56"/>
<polygon fill="orange" stroke="orange" points="127.76,-1086.43 137.93,-1089.38 131.82,-1080.73 127.76,-1086.43"/>
<text text-anchor="middle" x="134" y="-1048.5" font-family="Helvetica,sans-Serif" font-size="10.00"> &lt; Vector&lt; double, SIZE &gt; &gt;</text>
</g>
<!-- Node8 -->
<g id="node8" class="node">
<title>Node8</title>
<g id="a_node8"><a xlink:href="class_count.html" target="_top" xlink:title=" ">
<polygon fill="none" stroke="black" points="168.5,-898.5 168.5,-1021.5 291.5,-1021.5 291.5,-898.5 168.5,-898.5"/>
<text text-anchor="start" x="176.5" y="-1009.5" font-family="Helvetica,sans-Serif" font-size="10.00">Count&lt; Vector&lt; type,</text>
<text text-anchor="middle" x="230" y="-998.5" font-family="Helvetica,sans-Serif" font-size="10.00"> SIZE &gt; &gt;</text>
<polyline fill="none" stroke="black" points="168.5,-991.5 291.5,-991.5 "/>
<text text-anchor="middle" x="230" y="-979.5" font-family="Helvetica,sans-Serif" font-size="10.00"> </text>
<polyline fill="none" stroke="black" points="168.5,-972.5 291.5,-972.5 "/>
<text text-anchor="start" x="176.5" y="-960.5" font-family="Helvetica,sans-Serif" font-size="10.00">+ Count()</text>
<text text-anchor="start" x="176.5" y="-949.5" font-family="Helvetica,sans-Serif" font-size="10.00">+ Count()</text>
<text text-anchor="start" x="176.5" y="-938.5" font-family="Helvetica,sans-Serif" font-size="10.00">+ ~Count()</text>
<text text-anchor="start" x="176.5" y="-927.5" font-family="Helvetica,sans-Serif" font-size="10.00">+ get_count()</text>
<text text-anchor="start" x="176.5" y="-916.5" font-family="Helvetica,sans-Serif" font-size="10.00">+ print_count()</text>
<text text-anchor="start" x="176.5" y="-905.5" font-family="Helvetica,sans-Serif" font-size="10.00">+ zero_count()</text>
</a>
</g>
</g>
<!-- Node5&#45;&gt;Node8 -->
<g id="edge10" class="edge">
<title>Node5&#45;&gt;Node8</title>
<path fill="none" stroke="orange" d="M205.54,-1070.52C206.4,-1067.65 207.22,-1064.8 208,-1062 211.61,-1049.03 214.99,-1034.99 217.97,-1021.63"/>
<polygon fill="orange" stroke="orange" points="202.12,-1069.74 202.52,-1080.33 208.81,-1071.8 202.12,-1069.74"/>
<text text-anchor="middle" x="278.5" y="-1048.5" font-family="Helvetica,sans-Serif" font-size="10.00"> &lt; Vector&lt; type, SIZE &gt; &gt;</text>
</g>
<!-- Node6 -->
<g id="node6" class="node">
<title>Node6</title>
<g id="a_node6"><a xlink:title=" ">
<polygon fill="none" stroke="#bfbfbf" points="308,-689 308,-746 358,-746 358,-689 308,-689"/>
<text text-anchor="middle" x="333" y="-734" font-family="Helvetica,sans-Serif" font-size="10.00">double</text>
<polyline fill="none" stroke="#bfbfbf" points="308,-727 358,-727 "/>
<text text-anchor="middle" x="333" y="-715" font-family="Helvetica,sans-Serif" font-size="10.00"> </text>
<polyline fill="none" stroke="#bfbfbf" points="308,-708 358,-708 "/>
<text text-anchor="middle" x="333" y="-696" font-family="Helvetica,sans-Serif" font-size="10.00"> </text>
</a>
</g>
</g>
<!-- Node6&#45;&gt;Node2 -->
<g id="edge6" class="edge">
<title>Node6&#45;&gt;Node2</title>
<path fill="none" stroke="#404040" d="M330.66,-688.76C327.35,-656.11 319.95,-600.56 305,-555 304.31,-552.89 299.69,-543.25 293.06,-529.78"/>
<polygon fill="none" stroke="#404040" points="292.95,-529.56 286.7,-525.95 287.63,-518.8 293.87,-522.41 292.95,-529.56"/>
<text text-anchor="middle" x="320.5" y="-558" font-family="Helvetica,sans-Serif" font-size="10.00"> &#45;size</text>
</g>
<!-- Node7 -->
<g id="node7" class="node">
<title>Node7</title>
<g id="a_node7"><a xlink:href="class_vector.html" target="_top" xlink:title="Opisuje wektor o SIZE&#45;wierszach.">
<polygon fill="none" stroke="black" points="170.5,-584.5 170.5,-850.5 289.5,-850.5 289.5,-584.5 170.5,-584.5"/>
<text text-anchor="middle" x="230" y="-838.5" font-family="Helvetica,sans-Serif" font-size="10.00">Vector&lt; type, SIZE &gt;</text>
<polyline fill="none" stroke="black" points="170.5,-831.5 289.5,-831.5 "/>
<text text-anchor="middle" x="230" y="-819.5" font-family="Helvetica,sans-Serif" font-size="10.00"> </text>
<polyline fill="none" stroke="black" points="170.5,-812.5 289.5,-812.5 "/>
<text text-anchor="start" x="178.5" y="-800.5" font-family="Helvetica,sans-Serif" font-size="10.00">+ Vector()</text>
<text text-anchor="start" x="178.5" y="-789.5" font-family="Helvetica,sans-Serif" font-size="10.00">+ Vector()</text>
<text text-anchor="start" x="178.5" y="-778.5" font-family="Helvetica,sans-Serif" font-size="10.00">+ operator+()</text>
<text text-anchor="start" x="178.5" y="-767.5" font-family="Helvetica,sans-Serif" font-size="10.00">+ operator&#45;()</text>
<text text-anchor="start" x="178.5" y="-756.5" font-family="Helvetica,sans-Serif" font-size="10.00">+ operator*()</text>
<text text-anchor="start" x="178.5" y="-745.5" font-family="Helvetica,sans-Serif" font-size="10.00">+ operator/()</text>
<text text-anchor="start" x="178.5" y="-734.5" font-family="Helvetica,sans-Serif" font-size="10.00">+ operator==()</text>
<text text-anchor="start" x="178.5" y="-723.5" font-family="Helvetica,sans-Serif" font-size="10.00">+ scale_vec()</text>
<text text-anchor="start" x="178.5" y="-712.5" font-family="Helvetica,sans-Serif" font-size="10.00">+ rotate()</text>
<text text-anchor="start" x="178.5" y="-701.5" font-family="Helvetica,sans-Serif" font-size="10.00">+ modulus2()</text>
<text text-anchor="start" x="178.5" y="-690.5" font-family="Helvetica,sans-Serif" font-size="10.00">+ get_vec()</text>
<text text-anchor="start" x="178.5" y="-679.5" font-family="Helvetica,sans-Serif" font-size="10.00">+ get_len()</text>
<text text-anchor="start" x="178.5" y="-668.5" font-family="Helvetica,sans-Serif" font-size="10.00">+ get_slope_angle()</text>
<text text-anchor="start" x="178.5" y="-657.5" font-family="Helvetica,sans-Serif" font-size="10.00">+ operator[]()</text>
<text text-anchor="start" x="178.5" y="-646.5" font-family="Helvetica,sans-Serif" font-size="10.00">+ operator[]()</text>
<text text-anchor="start" x="178.5" y="-635.5" font-family="Helvetica,sans-Serif" font-size="10.00">+ scalar_prod()</text>
<text text-anchor="start" x="178.5" y="-624.5" font-family="Helvetica,sans-Serif" font-size="10.00">+ rotate()</text>
<text text-anchor="start" x="178.5" y="-613.5" font-family="Helvetica,sans-Serif" font-size="10.00">+ get_slope_angle()</text>
<text text-anchor="start" x="178.5" y="-602.5" font-family="Helvetica,sans-Serif" font-size="10.00">+ rotate()</text>
<text text-anchor="start" x="178.5" y="-591.5" font-family="Helvetica,sans-Serif" font-size="10.00">+ get_slope_angle()</text>
</a>
</g>
</g>
<!-- Node7&#45;&gt;Node2 -->
<g id="edge7" class="edge">
<title>Node7&#45;&gt;Node2</title>
<path fill="none" stroke="orange" d="M230,-574.16C230,-561.62 230,-548.97 230,-536.52"/>
<polygon fill="orange" stroke="orange" points="226.5,-574.18 230,-584.18 233.5,-574.18 226.5,-574.18"/>
<text text-anchor="middle" x="265.5" y="-558" font-family="Helvetica,sans-Serif" font-size="10.00"> &lt; double, 3 &gt;</text>
</g>
<!-- Node8&#45;&gt;Node7 -->
<g id="edge8" class="edge">
<title>Node8&#45;&gt;Node7</title>
<path fill="none" stroke="midnightblue" d="M230,-888.05C230,-876.14 230,-863.44 230,-850.56"/>
<polygon fill="none" stroke="midnightblue" points="226.5,-888.31 230,-898.31 233.5,-888.31 226.5,-888.31"/>
</g>
<!-- Node9 -->
<g id="node9" class="node">
<title>Node9</title>
<g id="a_node9"><a xlink:href="classstatic_01int.html" target="_top" xlink:title=" ">
<polygon fill="none" stroke="black" points="352.5,-1108 352.5,-1165 411.5,-1165 411.5,-1108 352.5,-1108"/>
<text text-anchor="middle" x="382" y="-1153" font-family="Helvetica,sans-Serif" font-size="10.00">static int</text>
<polyline fill="none" stroke="black" points="352.5,-1146 411.5,-1146 "/>
<text text-anchor="middle" x="382" y="-1134" font-family="Helvetica,sans-Serif" font-size="10.00"> </text>
<polyline fill="none" stroke="black" points="352.5,-1127 411.5,-1127 "/>
<text text-anchor="middle" x="382" y="-1115" font-family="Helvetica,sans-Serif" font-size="10.00"> </text>
</a>
</g>
</g>
<!-- Node9&#45;&gt;Node8 -->
<g id="edge9" class="edge">
<title>Node9&#45;&gt;Node8</title>
<path fill="none" stroke="#404040" d="M378.15,-1107.96C373.88,-1086.9 365.03,-1058.43 347,-1040 333.74,-1026.45 323.12,-1031.31 302.46,-1021.83"/>
<polygon fill="none" stroke="#404040" points="302.4,-1021.8 295.22,-1022.47 291.84,-1016.11 299.02,-1015.43 302.4,-1021.8"/>
<text text-anchor="middle" x="404" y="-1054" font-family="Helvetica,sans-Serif" font-size="10.00"> #objects_alive</text>
<text text-anchor="middle" x="404" y="-1043" font-family="Helvetica,sans-Serif" font-size="10.00">#objects_created</text>
</g>
<!-- Node10 -->
<g id="node10" class="node">
<title>Node10</title>
<g id="a_node10"><a xlink:title=" ">
<polygon fill="none" stroke="#bfbfbf" points="310,-931.5 310,-988.5 348,-988.5 348,-931.5 310,-931.5"/>
<text text-anchor="middle" x="329" y="-976.5" font-family="Helvetica,sans-Serif" font-size="10.00">type</text>
<polyline fill="none" stroke="#bfbfbf" points="310,-969.5 348,-969.5 "/>
<text text-anchor="middle" x="329" y="-957.5" font-family="Helvetica,sans-Serif" font-size="10.00"> </text>
<polyline fill="none" stroke="#bfbfbf" points="310,-950.5 348,-950.5 "/>
<text text-anchor="middle" x="329" y="-938.5" font-family="Helvetica,sans-Serif" font-size="10.00"> </text>
</a>
</g>
</g>
<!-- Node10&#45;&gt;Node7 -->
<g id="edge11" class="edge">
<title>Node10&#45;&gt;Node7</title>
<path fill="none" stroke="#404040" d="M317.64,-931.41C310.27,-913.49 300.02,-888.6 289.13,-862.14"/>
<polygon fill="none" stroke="#404040" points="289,-861.82 283.01,-857.79 284.43,-850.72 290.41,-854.75 289,-861.82"/>
<text text-anchor="middle" x="307.5" y="-872" font-family="Helvetica,sans-Serif" font-size="10.00"> &#45;size</text>
</g>
<!-- Node11 -->
<g id="node11" class="node">
<title>Node11</title>
<g id="a_node11"><a xlink:title=" ">
<polygon fill="none" stroke="#bfbfbf" points="306,-375 306,-432 350,-432 350,-375 306,-375"/>
<text text-anchor="middle" x="328" y="-420" font-family="Helvetica,sans-Serif" font-size="10.00">string</text>
<polyline fill="none" stroke="#bfbfbf" points="306,-413 350,-413 "/>
<text text-anchor="middle" x="328" y="-401" font-family="Helvetica,sans-Serif" font-size="10.00"> </text>
<polyline fill="none" stroke="#bfbfbf" points="306,-394 350,-394 "/>
<text text-anchor="middle" x="328" y="-382" font-family="Helvetica,sans-Serif" font-size="10.00"> </text>
</a>
</g>
</g>
<!-- Node11&#45;&gt;Node1 -->
<g id="edge12" class="edge">
<title>Node11&#45;&gt;Node1</title>
<path fill="none" stroke="#404040" d="M323.43,-374.97C317.71,-340.46 307.54,-279.13 298.37,-223.84"/>
<polygon fill="none" stroke="#404040" points="298.34,-223.62 293.41,-218.36 296.38,-211.78 301.3,-217.05 298.34,-223.62"/>
<text text-anchor="middle" x="342.5" y="-244" font-family="Helvetica,sans-Serif" font-size="10.00"> #sample_name</text>
<text text-anchor="middle" x="342.5" y="-233" font-family="Helvetica,sans-Serif" font-size="10.00">#final_name</text>
</g>
</g>
</svg>
