<?xml version="1.0" encoding="UTF-8" standalone="no"?>
<!DOCTYPE svg PUBLIC "-//W3C//DTD SVG 1.1//EN"
 "http://www.w3.org/Graphics/SVG/1.1/DTD/svg11.dtd">
<!-- Generated by graphviz version 2.43.0 (0)
 -->
<!-- Title: Triangular Pages: 1 -->
<!--zoomable 2046 -->
<svg id="main" version="1.1" xmlns="http://www.w3.org/2000/svg" xmlns:xlink="http://www.w3.org/1999/xlink" xml:space="preserve" onload="init(evt)">
<style type="text/css"><![CDATA[
.edge:hover path { stroke: red; }
.edge:hover polygon { stroke: red; fill: red; }
]]></style>
<script type="text/javascript"><![CDATA[
var edges = document.getElementsByTagName('g');
if (edges && edges.length) {
  for (var i=0;i<edges.length;i++) {
    if (edges[i].id.substr(0,4)=='edge') {
      edges[i].setAttribute('class','edge');
    }
  }
}
]]></script>
        <defs>
                <circle id="rim" cx="0" cy="0" r="7"/>
                <circle id="rim2" cx="0" cy="0" r="3.5"/>
                <g id="zoomPlus">
                        <use xlink:href="#rim" fill="#404040">
                                <set attributeName="fill" to="#808080" begin="zoomplus.mouseover" end="zoomplus.mouseout"/>
                        </use>
                        <path d="M-4,0h8M0,-4v8" fill="none" stroke="white" stroke-width="1.5" pointer-events="none"/>
                </g>
                <g id="zoomMin">
                        <use xlink:href="#rim" fill="#404040">
                                <set attributeName="fill" to="#808080" begin="zoomminus.mouseover" end="zoomminus.mouseout"/>
                        </use>
                        <path d="M-4,0h8" fill="none" stroke="white" stroke-width="1.5" pointer-events="none"/>
                </g>
                <g id="dirArrow">
                        <path fill="none" stroke="white" stroke-width="1.5" d="M0,-3.0v7 M-2.5,-0.5L0,-3.0L2.5,-0.5"/>
                </g>
               <g id="resetDef">
                       <use xlink:href="#rim2" fill="#404040">
                               <set attributeName="fill" to="#808080" begin="reset.mouseover" end="reset.mouseout"/>
                       </use>
               </g>
        </defs>

<script type="text/javascript">
var viewWidth = 455;
var viewHeight = 2046;
var sectionId = 'dynsection-1';
</script>
<script xlink:href="svgpan.js"/>
<svg id="graph" class="graph">
<g id="viewport">
<title>Triangular</title>
<!-- Node1 -->
<g id="node1" class="node">
<title>Node1</title>
<g id="a_node1"><a xlink:title="Opisuje graniastoslup o podstawie trojkatnej w przestrzeni trojwymiarowej Jest klasa dziedziczaca z k...">
<polygon fill="#bfbfbf" stroke="black" points="177.5,-0.5 177.5,-112.5 282.5,-112.5 282.5,-0.5 177.5,-0.5"/>
<text text-anchor="middle" x="230" y="-100.5" font-family="Helvetica,sans-Serif" font-size="10.00">Triangular</text>
<polyline fill="none" stroke="black" points="177.5,-93.5 282.5,-93.5 "/>
<text text-anchor="middle" x="230" y="-81.5" font-family="Helvetica,sans-Serif" font-size="10.00"> </text>
<polyline fill="none" stroke="black" points="177.5,-74.5 282.5,-74.5 "/>
<text text-anchor="start" x="185.5" y="-62.5" font-family="Helvetica,sans-Serif" font-size="10.00">+ Triangular()</text>
<text text-anchor="start" x="185.5" y="-51.5" font-family="Helvetica,sans-Serif" font-size="10.00">+ Triangular()</text>
<text text-anchor="start" x="185.5" y="-40.5" font-family="Helvetica,sans-Serif" font-size="10.00">+ special_points()</text>
<text text-anchor="start" x="185.5" y="-29.5" font-family="Helvetica,sans-Serif" font-size="10.00">+ operator=()</text>
<text text-anchor="start" x="185.5" y="-18.5" font-family="Helvetica,sans-Serif" font-size="10.00">+ print_name()</text>
<text text-anchor="start" x="185.5" y="-7.5" font-family="Helvetica,sans-Serif" font-size="10.00">+ get_type()</text>
</a>
</g>
</g>
<!-- Node2 -->
<g id="node2" class="node">
<title>Node2</title>
<g id="a_node2"><a xlink:href="class_cuboid.html" target="_top" xlink:title="Opisuje prostopadloscian w przestrzeni trojwymiarowej.">
<polygon fill="none" stroke="black" points="155.5,-150.5 155.5,-614.5 304.5,-614.5 304.5,-150.5 155.5,-150.5"/>
<text text-anchor="middle" x="230" y="-602.5" font-family="Helvetica,sans-Serif" font-size="10.00">Cuboid</text>
<polyline fill="none" stroke="black" points="155.5,-595.5 304.5,-595.5 "/>
<text text-anchor="middle" x="230" y="-583.5" font-family="Helvetica,sans-Serif" font-size="10.00"> </text>
<polyline fill="none" stroke="black" points="155.5,-576.5 304.5,-576.5 "/>
<text text-anchor="start" x="163.5" y="-564.5" font-family="Helvetica,sans-Serif" font-size="10.00">+ Cuboid()</text>
<text text-anchor="start" x="163.5" y="-553.5" font-family="Helvetica,sans-Serif" font-size="10.00">+ Cuboid()</text>
<text text-anchor="start" x="163.5" y="-542.5" font-family="Helvetica,sans-Serif" font-size="10.00">+ Cuboid()</text>
<text text-anchor="start" x="163.5" y="-531.5" font-family="Helvetica,sans-Serif" font-size="10.00">+ Cuboid()</text>
<text text-anchor="start" x="163.5" y="-520.5" font-family="Helvetica,sans-Serif" font-size="10.00">+ Cuboid()</text>
<text text-anchor="start" x="163.5" y="-509.5" font-family="Helvetica,sans-Serif" font-size="10.00">+ Cuboid()</text>
<text text-anchor="start" x="163.5" y="-498.5" font-family="Helvetica,sans-Serif" font-size="10.00">+ check_cub()</text>
<text text-anchor="start" x="163.5" y="-487.5" font-family="Helvetica,sans-Serif" font-size="10.00">+ get_vec_opp()</text>
<text text-anchor="start" x="163.5" y="-476.5" font-family="Helvetica,sans-Serif" font-size="10.00">+ check_vec_opp()</text>
<text text-anchor="start" x="163.5" y="-465.5" font-family="Helvetica,sans-Serif" font-size="10.00">+ check_vec_len()</text>
<text text-anchor="start" x="163.5" y="-454.5" font-family="Helvetica,sans-Serif" font-size="10.00">+ get_vec_len()</text>
<text text-anchor="start" x="163.5" y="-443.5" font-family="Helvetica,sans-Serif" font-size="10.00">+ get_vec_perp()</text>
<text text-anchor="start" x="163.5" y="-432.5" font-family="Helvetica,sans-Serif" font-size="10.00">+ check_vec_perp()</text>
<text text-anchor="start" x="163.5" y="-421.5" font-family="Helvetica,sans-Serif" font-size="10.00">+ get_cub()</text>
<text text-anchor="start" x="163.5" y="-410.5" font-family="Helvetica,sans-Serif" font-size="10.00">+ get_cub()</text>
<text text-anchor="start" x="163.5" y="-399.5" font-family="Helvetica,sans-Serif" font-size="10.00">+ get_basis_pro()</text>
<text text-anchor="start" x="163.5" y="-388.5" font-family="Helvetica,sans-Serif" font-size="10.00">+ get_basis_diagonal_len()</text>
<text text-anchor="start" x="163.5" y="-377.5" font-family="Helvetica,sans-Serif" font-size="10.00">+ get_height()</text>
<text text-anchor="start" x="163.5" y="-366.5" font-family="Helvetica,sans-Serif" font-size="10.00">+ operator==()</text>
<text text-anchor="start" x="163.5" y="-355.5" font-family="Helvetica,sans-Serif" font-size="10.00">+ translation()</text>
<text text-anchor="start" x="163.5" y="-344.5" font-family="Helvetica,sans-Serif" font-size="10.00">+ translation_to_O()</text>
<text text-anchor="start" x="163.5" y="-333.5" font-family="Helvetica,sans-Serif" font-size="10.00">+ rotation()</text>
<text text-anchor="start" x="163.5" y="-322.5" font-family="Helvetica,sans-Serif" font-size="10.00">+ rotation_around_cen()</text>
<text text-anchor="start" x="163.5" y="-311.5" font-family="Helvetica,sans-Serif" font-size="10.00">+ centre_point()</text>
<text text-anchor="start" x="163.5" y="-300.5" font-family="Helvetica,sans-Serif" font-size="10.00">+ get_basis_centre()</text>
<text text-anchor="start" x="163.5" y="-289.5" font-family="Helvetica,sans-Serif" font-size="10.00">+ special_points()</text>
<text text-anchor="start" x="163.5" y="-278.5" font-family="Helvetica,sans-Serif" font-size="10.00">+ print_cuboid()</text>
<text text-anchor="start" x="163.5" y="-267.5" font-family="Helvetica,sans-Serif" font-size="10.00">+ print_cuboid_weird()</text>
<text text-anchor="start" x="163.5" y="-256.5" font-family="Helvetica,sans-Serif" font-size="10.00">+ print_cuboid_3D()</text>
<text text-anchor="start" x="163.5" y="-245.5" font-family="Helvetica,sans-Serif" font-size="10.00">+ Cuboid_From_Sample()</text>
<text text-anchor="start" x="163.5" y="-234.5" font-family="Helvetica,sans-Serif" font-size="10.00">+ Cuboid_To_File()</text>
<text text-anchor="start" x="163.5" y="-223.5" font-family="Helvetica,sans-Serif" font-size="10.00">+ scale_cub()</text>
<text text-anchor="start" x="163.5" y="-212.5" font-family="Helvetica,sans-Serif" font-size="10.00">+ scale_cub()</text>
<text text-anchor="start" x="163.5" y="-201.5" font-family="Helvetica,sans-Serif" font-size="10.00">+ print_name()</text>
<text text-anchor="start" x="163.5" y="-190.5" font-family="Helvetica,sans-Serif" font-size="10.00">+ print_pos()</text>
<text text-anchor="start" x="163.5" y="-179.5" font-family="Helvetica,sans-Serif" font-size="10.00">+ get_pos()</text>
<text text-anchor="start" x="163.5" y="-168.5" font-family="Helvetica,sans-Serif" font-size="10.00">+ switch_pos()</text>
<text text-anchor="start" x="163.5" y="-157.5" font-family="Helvetica,sans-Serif" font-size="10.00">+ get_type()</text>
</a>
</g>
</g>
<!-- Node2&#45;&gt;Node1 -->
<g id="edge1" class="edge">
<title>Node2&#45;&gt;Node1</title>
<path fill="none" stroke="midnightblue" d="M230,-140.07C230,-130.38 230,-121.19 230,-112.71"/>
<polygon fill="none" stroke="midnightblue" points="226.5,-140.35 230,-150.35 233.5,-140.35 226.5,-140.35"/>
</g>
<!-- Node3 -->
<g id="node3" class="node">
<title>Node3</title>
<g id="a_node3"><a xlink:href="class_block.html" target="_top" xlink:title="Opisuje figure geometryczna w przestrzeni trojwymiarowej.">
<polygon fill="none" stroke="black" points="276.5,-652.5 276.5,-896.5 401.5,-896.5 401.5,-652.5 276.5,-652.5"/>
<text text-anchor="middle" x="339" y="-884.5" font-family="Helvetica,sans-Serif" font-size="10.00">Block</text>
<polyline fill="none" stroke="black" points="276.5,-877.5 401.5,-877.5 "/>
<text text-anchor="middle" x="339" y="-865.5" font-family="Helvetica,sans-Serif" font-size="10.00"> </text>
<polyline fill="none" stroke="black" points="276.5,-858.5 401.5,-858.5 "/>
<text text-anchor="start" x="284.5" y="-846.5" font-family="Helvetica,sans-Serif" font-size="10.00">+ Block()</text>
<text text-anchor="start" x="284.5" y="-835.5" font-family="Helvetica,sans-Serif" font-size="10.00">+ Block()</text>
<text text-anchor="start" x="284.5" y="-824.5" font-family="Helvetica,sans-Serif" font-size="10.00">+ Block()</text>
<text text-anchor="start" x="284.5" y="-813.5" font-family="Helvetica,sans-Serif" font-size="10.00">+ ~Block()</text>
<text text-anchor="start" x="284.5" y="-802.5" font-family="Helvetica,sans-Serif" font-size="10.00">+ set_sample_name()</text>
<text text-anchor="start" x="284.5" y="-791.5" font-family="Helvetica,sans-Serif" font-size="10.00">+ set_final_name()</text>
<text text-anchor="start" x="284.5" y="-780.5" font-family="Helvetica,sans-Serif" font-size="10.00">+ set_scale()</text>
<text text-anchor="start" x="284.5" y="-769.5" font-family="Helvetica,sans-Serif" font-size="10.00">+ set_scale()</text>
<text text-anchor="start" x="284.5" y="-758.5" font-family="Helvetica,sans-Serif" font-size="10.00">+ check_block()</text>
<text text-anchor="start" x="284.5" y="-747.5" font-family="Helvetica,sans-Serif" font-size="10.00">+ get_sample_name()</text>
<text text-anchor="start" x="284.5" y="-736.5" font-family="Helvetica,sans-Serif" font-size="10.00">+ get_final_name()</text>
<text text-anchor="start" x="284.5" y="-725.5" font-family="Helvetica,sans-Serif" font-size="10.00">+ get_scale()</text>
<text text-anchor="start" x="284.5" y="-714.5" font-family="Helvetica,sans-Serif" font-size="10.00">+ print_name()</text>
<text text-anchor="start" x="284.5" y="-703.5" font-family="Helvetica,sans-Serif" font-size="10.00">+ print_pos()</text>
<text text-anchor="start" x="284.5" y="-692.5" font-family="Helvetica,sans-Serif" font-size="10.00">+ get_pos()</text>
<text text-anchor="start" x="284.5" y="-681.5" font-family="Helvetica,sans-Serif" font-size="10.00">+ switch_pos()</text>
<text text-anchor="start" x="284.5" y="-670.5" font-family="Helvetica,sans-Serif" font-size="10.00">+ get_type()</text>
<text text-anchor="start" x="284.5" y="-659.5" font-family="Helvetica,sans-Serif" font-size="10.00">+ get_basis_pro()</text>
</a>
</g>
</g>
<!-- Node3&#45;&gt;Node2 -->
<g id="edge2" class="edge">
<title>Node3&#45;&gt;Node2</title>
<path fill="none" stroke="midnightblue" d="M302.37,-642.44C299.82,-633.32 297.22,-624 294.58,-614.56"/>
<polygon fill="none" stroke="midnightblue" points="299.05,-643.55 305.11,-652.24 305.79,-641.67 299.05,-643.55"/>
</g>
<!-- Node4 -->
<g id="node4" class="node">
<title>Node4</title>
<g id="a_node4"><a xlink:href="class_vector.html" target="_top" xlink:title=" ">
<polygon fill="none" stroke="black" points="172.5,-955.5 172.5,-1243.5 287.5,-1243.5 287.5,-955.5 172.5,-955.5"/>
<text text-anchor="middle" x="230" y="-1231.5" font-family="Helvetica,sans-Serif" font-size="10.00">Vector&lt; double, 3 &gt;</text>
<polyline fill="none" stroke="black" points="172.5,-1224.5 287.5,-1224.5 "/>
<text text-anchor="middle" x="230" y="-1212.5" font-family="Helvetica,sans-Serif" font-size="10.00"> </text>
<polyline fill="none" stroke="black" points="172.5,-1205.5 287.5,-1205.5 "/>
<text text-anchor="start" x="180.5" y="-1193.5" font-family="Helvetica,sans-Serif" font-size="10.00">+ Vector()</text>
<text text-anchor="start" x="180.5" y="-1182.5" font-family="Helvetica,sans-Serif" font-size="10.00">+ Vector()</text>
<text text-anchor="start" x="180.5" y="-1171.5" font-family="Helvetica,sans-Serif" font-size="10.00">+ operator+()</text>
<text text-anchor="start" x="180.5" y="-1160.5" font-family="Helvetica,sans-Serif" font-size="10.00">+ operator&#45;()</text>
<text text-anchor="start" x="180.5" y="-1149.5" font-family="Helvetica,sans-Serif" font-size="10.00">+ operator*()</text>
<text text-anchor="start" x="180.5" y="-1138.5" font-family="Helvetica,sans-Serif" font-size="10.00">+ operator/()</text>
<text text-anchor="start" x="180.5" y="-1127.5" font-family="Helvetica,sans-Serif" font-size="10.00">+ operator==()</text>
<text text-anchor="start" x="180.5" y="-1116.5" font-family="Helvetica,sans-Serif" font-size="10.00">+ scale_vec()</text>
<text text-anchor="start" x="180.5" y="-1105.5" font-family="Helvetica,sans-Serif" font-size="10.00">+ rotate()</text>
<text text-anchor="start" x="180.5" y="-1094.5" font-family="Helvetica,sans-Serif" font-size="10.00">+ rotate()</text>
<text text-anchor="start" x="180.5" y="-1083.5" font-family="Helvetica,sans-Serif" font-size="10.00">+ rotate()</text>
<text text-anchor="start" x="180.5" y="-1072.5" font-family="Helvetica,sans-Serif" font-size="10.00">+ modulus2()</text>
<text text-anchor="start" x="180.5" y="-1061.5" font-family="Helvetica,sans-Serif" font-size="10.00">+ get_vec()</text>
<text text-anchor="start" x="180.5" y="-1050.5" font-family="Helvetica,sans-Serif" font-size="10.00">+ translation()</text>
<text text-anchor="start" x="180.5" y="-1039.5" font-family="Helvetica,sans-Serif" font-size="10.00">+ get_len()</text>
<text text-anchor="start" x="180.5" y="-1028.5" font-family="Helvetica,sans-Serif" font-size="10.00">+ get_slope_angle()</text>
<text text-anchor="start" x="180.5" y="-1017.5" font-family="Helvetica,sans-Serif" font-size="10.00">+ get_slope_angle()</text>
<text text-anchor="start" x="180.5" y="-1006.5" font-family="Helvetica,sans-Serif" font-size="10.00">+ get_slope_angle()</text>
<text text-anchor="start" x="180.5" y="-995.5" font-family="Helvetica,sans-Serif" font-size="10.00">+ get_quarter()</text>
<text text-anchor="start" x="180.5" y="-984.5" font-family="Helvetica,sans-Serif" font-size="10.00">+ operator[]()</text>
<text text-anchor="start" x="180.5" y="-973.5" font-family="Helvetica,sans-Serif" font-size="10.00">+ operator[]()</text>
<text text-anchor="start" x="180.5" y="-962.5" font-family="Helvetica,sans-Serif" font-size="10.00">+ scalar_prod()</text>
</a>
</g>
</g>
<!-- Node4&#45;&gt;Node2 -->
<g id="edge15" class="edge">
<title>Node4&#45;&gt;Node2</title>
<path fill="none" stroke="#404040" d="M227.61,-955.4C227.36,-935.78 227.14,-915.89 227,-897 226.19,-788.11 226.39,-760.89 227,-652 227.05,-643.68 227.1,-635.22 227.16,-626.67"/>
<polygon fill="none" stroke="#404040" points="227.16,-626.54 223.21,-620.51 227.25,-614.54 231.21,-620.57 227.16,-626.54"/>
<text text-anchor="middle" x="247" y="-783" font-family="Helvetica,sans-Serif" font-size="10.00"> #cuts</text>
<text text-anchor="middle" x="247" y="-772" font-family="Helvetica,sans-Serif" font-size="10.00">#centre</text>
<text text-anchor="middle" x="247" y="-761" font-family="Helvetica,sans-Serif" font-size="10.00">#tops</text>
</g>
<!-- Node4&#45;&gt;Node3 -->
<g id="edge3" class="edge">
<title>Node4&#45;&gt;Node3</title>
<path fill="none" stroke="#404040" d="M278.28,-955.42C283.55,-939.82 288.89,-923.99 294.11,-908.52"/>
<polygon fill="none" stroke="#404040" points="294.24,-908.14 292.37,-901.17 298.08,-896.77 299.95,-903.73 294.24,-908.14"/>
<text text-anchor="middle" x="310.5" y="-923.5" font-family="Helvetica,sans-Serif" font-size="10.00"> #scale</text>
</g>
<!-- Node5 -->
<g id="node5" class="node">
<title>Node5</title>
<g id="a_node5"><a xlink:href="class_count.html" target="_top" xlink:title=" ">
<polygon fill="none" stroke="black" points="0,-1627.5 0,-1750.5 134,-1750.5 134,-1627.5 0,-1627.5"/>
<text text-anchor="start" x="8" y="-1738.5" font-family="Helvetica,sans-Serif" font-size="10.00">Count&lt; Vector&lt; double,</text>
<text text-anchor="middle" x="67" y="-1727.5" font-family="Helvetica,sans-Serif" font-size="10.00"> SIZE &gt; &gt;</text>
<polyline fill="none" stroke="black" points="0,-1720.5 134,-1720.5 "/>
<text text-anchor="middle" x="67" y="-1708.5" font-family="Helvetica,sans-Serif" font-size="10.00"> </text>
<polyline fill="none" stroke="black" points="0,-1701.5 134,-1701.5 "/>
<text text-anchor="start" x="8" y="-1689.5" font-family="Helvetica,sans-Serif" font-size="10.00">+ Count()</text>
<text text-anchor="start" x="8" y="-1678.5" font-family="Helvetica,sans-Serif" font-size="10.00">+ Count()</text>
<text text-anchor="start" x="8" y="-1667.5" font-family="Helvetica,sans-Serif" font-size="10.00">+ ~Count()</text>
<text text-anchor="start" x="8" y="-1656.5" font-family="Helvetica,sans-Serif" font-size="10.00">+ get_count()</text>
<text text-anchor="start" x="8" y="-1645.5" font-family="Helvetica,sans-Serif" font-size="10.00">+ print_count()</text>
<text text-anchor="start" x="8" y="-1634.5" font-family="Helvetica,sans-Serif" font-size="10.00">+ zero_count()</text>
</a>
</g>
</g>
<!-- Node5&#45;&gt;Node4 -->
<g id="edge4" class="edge">
<title>Node5&#45;&gt;Node4</title>
<path fill="none" stroke="midnightblue" d="M81.18,-1617.28C97.78,-1537.38 127.35,-1403.76 161,-1291 165.6,-1275.58 170.76,-1259.59 176.14,-1243.72"/>
<polygon fill="none" stroke="midnightblue" points="77.72,-1616.73 79.12,-1627.23 84.57,-1618.15 77.72,-1616.73"/>
</g>
<!-- Node6 -->
<g id="node6" class="node">
<title>Node6</title>
<g id="a_node6"><a xlink:title=" ">
<polygon fill="none" stroke="#bfbfbf" points="35.5,-1980.5 35.5,-2037.5 64.5,-2037.5 64.5,-1980.5 35.5,-1980.5"/>
<text text-anchor="middle" x="50" y="-2025.5" font-family="Helvetica,sans-Serif" font-size="10.00">int</text>
<polyline fill="none" stroke="#bfbfbf" points="35.5,-2018.5 64.5,-2018.5 "/>
<text text-anchor="middle" x="50" y="-2006.5" font-family="Helvetica,sans-Serif" font-size="10.00"> </text>
<polyline fill="none" stroke="#bfbfbf" points="35.5,-1999.5 64.5,-1999.5 "/>
<text text-anchor="middle" x="50" y="-1987.5" font-family="Helvetica,sans-Serif" font-size="10.00"> </text>
</a>
</g>
</g>
<!-- Node6&#45;&gt;Node5 -->
<g id="edge5" class="edge">
<title>Node6&#45;&gt;Node5</title>
<path fill="none" stroke="#404040" d="M47.16,-1980.15C45.58,-1963.33 43.79,-1941.46 43,-1922 40.96,-1871.82 38.05,-1858.98 43,-1809 44.79,-1790.96 47.42,-1786.77 51,-1769 51.41,-1766.97 51.82,-1764.92 52.24,-1762.84"/>
<polygon fill="none" stroke="#404040" points="52.29,-1762.57 49.56,-1755.9 54.67,-1750.81 57.4,-1757.48 52.29,-1762.57"/>
<text text-anchor="middle" x="86" y="-1868.5" font-family="Helvetica,sans-Serif" font-size="10.00"> #objects_alive</text>
<text text-anchor="middle" x="86" y="-1857.5" font-family="Helvetica,sans-Serif" font-size="10.00">#objects_created</text>
</g>
<!-- Node7 -->
<g id="node7" class="node">
<title>Node7</title>
<g id="a_node7"><a xlink:href="class_count.html" target="_top" xlink:title="Pozwala na liczenie instancji stworzonych obiektow.">
<polygon fill="none" stroke="black" points="138,-1809.5 138,-1921.5 228,-1921.5 228,-1809.5 138,-1809.5"/>
<text text-anchor="middle" x="183" y="-1909.5" font-family="Helvetica,sans-Serif" font-size="10.00">Count&lt; T &gt;</text>
<polyline fill="none" stroke="black" points="138,-1902.5 228,-1902.5 "/>
<text text-anchor="middle" x="183" y="-1890.5" font-family="Helvetica,sans-Serif" font-size="10.00"> </text>
<polyline fill="none" stroke="black" points="138,-1883.5 228,-1883.5 "/>
<text text-anchor="start" x="146" y="-1871.5" font-family="Helvetica,sans-Serif" font-size="10.00">+ Count()</text>
<text text-anchor="start" x="146" y="-1860.5" font-family="Helvetica,sans-Serif" font-size="10.00">+ Count()</text>
<text text-anchor="start" x="146" y="-1849.5" font-family="Helvetica,sans-Serif" font-size="10.00">+ ~Count()</text>
<text text-anchor="start" x="146" y="-1838.5" font-family="Helvetica,sans-Serif" font-size="10.00">+ get_count()</text>
<text text-anchor="start" x="146" y="-1827.5" font-family="Helvetica,sans-Serif" font-size="10.00">+ print_count()</text>
<text text-anchor="start" x="146" y="-1816.5" font-family="Helvetica,sans-Serif" font-size="10.00">+ zero_count()</text>
</a>
</g>
</g>
<!-- Node6&#45;&gt;Node7 -->
<g id="edge7" class="edge">
<title>Node6&#45;&gt;Node7</title>
<path fill="none" stroke="#404040" d="M64.74,-1992.32C80.34,-1975.72 105.89,-1948.54 129.25,-1923.68"/>
<polygon fill="none" stroke="#404040" points="129.52,-1923.39 130.72,-1916.28 137.74,-1914.65 136.55,-1921.76 129.52,-1923.39"/>
<text text-anchor="middle" x="156" y="-1954" font-family="Helvetica,sans-Serif" font-size="10.00"> #objects_alive</text>
<text text-anchor="middle" x="156" y="-1943" font-family="Helvetica,sans-Serif" font-size="10.00">#objects_created</text>
</g>
<!-- Node7&#45;&gt;Node5 -->
<g id="edge6" class="edge">
<title>Node7&#45;&gt;Node5</title>
<path fill="none" stroke="orange" d="M129.75,-1812.55C127.85,-1811.3 125.93,-1810.11 124,-1809 99.88,-1795.09 80.62,-1813.34 64,-1791 55.41,-1779.46 52.64,-1764.95 52.83,-1750.56"/>
<polygon fill="orange" stroke="orange" points="127.76,-1815.43 137.93,-1818.38 131.82,-1809.73 127.76,-1815.43"/>
<text text-anchor="middle" x="134" y="-1777.5" font-family="Helvetica,sans-Serif" font-size="10.00"> &lt; Vector&lt; double, SIZE &gt; &gt;</text>
</g>
<!-- Node10 -->
<g id="node10" class="node">
<title>Node10</title>
<g id="a_node10"><a xlink:href="class_count.html" target="_top" xlink:title=" ">
<polygon fill="none" stroke="black" points="168.5,-1627.5 168.5,-1750.5 291.5,-1750.5 291.5,-1627.5 168.5,-1627.5"/>
<text text-anchor="start" x="176.5" y="-1738.5" font-family="Helvetica,sans-Serif" font-size="10.00">Count&lt; Vector&lt; type,</text>
<text text-anchor="middle" x="230" y="-1727.5" font-family="Helvetica,sans-Serif" font-size="10.00"> SIZE &gt; &gt;</text>
<polyline fill="none" stroke="black" points="168.5,-1720.5 291.5,-1720.5 "/>
<text text-anchor="middle" x="230" y="-1708.5" font-family="Helvetica,sans-Serif" font-size="10.00"> </text>
<polyline fill="none" stroke="black" points="168.5,-1701.5 291.5,-1701.5 "/>
<text text-anchor="start" x="176.5" y="-1689.5" font-family="Helvetica,sans-Serif" font-size="10.00">+ Count()</text>
<text text-anchor="start" x="176.5" y="-1678.5" font-family="Helvetica,sans-Serif" font-size="10.00">+ Count()</text>
<text text-anchor="start" x="176.5" y="-1667.5" font-family="Helvetica,sans-Serif" font-size="10.00">+ ~Count()</text>
<text text-anchor="start" x="176.5" y="-1656.5" font-family="Helvetica,sans-Serif" font-size="10.00">+ get_count()</text>
<text text-anchor="start" x="176.5" y="-1645.5" font-family="Helvetica,sans-Serif" font-size="10.00">+ print_count()</text>
<text text-anchor="start" x="176.5" y="-1634.5" font-family="Helvetica,sans-Serif" font-size="10.00">+ zero_count()</text>
</a>
</g>
</g>
<!-- Node7&#45;&gt;Node10 -->
<g id="edge12" class="edge">
<title>Node7&#45;&gt;Node10</title>
<path fill="none" stroke="orange" d="M205.54,-1799.52C206.4,-1796.65 207.22,-1793.8 208,-1791 211.61,-1778.03 214.99,-1763.99 217.97,-1750.63"/>
<polygon fill="orange" stroke="orange" points="202.12,-1798.74 202.52,-1809.33 208.81,-1800.8 202.12,-1798.74"/>
<text text-anchor="middle" x="278.5" y="-1777.5" font-family="Helvetica,sans-Serif" font-size="10.00"> &lt; Vector&lt; type, SIZE &gt; &gt;</text>
</g>
<!-- Node8 -->
<g id="node8" class="node">
<title>Node8</title>
<g id="a_node8"><a xlink:title=" ">
<polygon fill="none" stroke="#bfbfbf" points="308,-1407 308,-1464 358,-1464 358,-1407 308,-1407"/>
<text text-anchor="middle" x="333" y="-1452" font-family="Helvetica,sans-Serif" font-size="10.00">double</text>
<polyline fill="none" stroke="#bfbfbf" points="308,-1445 358,-1445 "/>
<text text-anchor="middle" x="333" y="-1433" font-family="Helvetica,sans-Serif" font-size="10.00"> </text>
<polyline fill="none" stroke="#bfbfbf" points="308,-1426 358,-1426 "/>
<text text-anchor="middle" x="333" y="-1414" font-family="Helvetica,sans-Serif" font-size="10.00"> </text>
</a>
</g>
</g>
<!-- Node8&#45;&gt;Node4 -->
<g id="edge8" class="edge">
<title>Node8&#45;&gt;Node4</title>
<path fill="none" stroke="#404040" d="M330.85,-1406.78C327.65,-1372.25 320.27,-1311.74 305,-1262 301.36,-1250.13 297.01,-1238.01 292.27,-1226.01"/>
<polygon fill="none" stroke="#404040" points="292.13,-1225.67 286.17,-1221.62 287.62,-1214.55 293.58,-1218.61 292.13,-1225.67"/>
<text text-anchor="middle" x="321.5" y="-1265" font-family="Helvetica,sans-Serif" font-size="10.00"> &#45;size</text>
</g>
<!-- Node9 -->
<g id="node9" class="node">
<title>Node9</title>
<g id="a_node9"><a xlink:href="class_vector.html" target="_top" xlink:title="Opisuje wektor o SIZE&#45;wierszach.">
<polygon fill="none" stroke="black" points="170.5,-1291.5 170.5,-1579.5 289.5,-1579.5 289.5,-1291.5 170.5,-1291.5"/>
<text text-anchor="middle" x="230" y="-1567.5" font-family="Helvetica,sans-Serif" font-size="10.00">Vector&lt; type, SIZE &gt;</text>
<polyline fill="none" stroke="black" points="170.5,-1560.5 289.5,-1560.5 "/>
<text text-anchor="middle" x="230" y="-1548.5" font-family="Helvetica,sans-Serif" font-size="10.00"> </text>
<polyline fill="none" stroke="black" points="170.5,-1541.5 289.5,-1541.5 "/>
<text text-anchor="start" x="178.5" y="-1529.5" font-family="Helvetica,sans-Serif" font-size="10.00">+ Vector()</text>
<text text-anchor="start" x="178.5" y="-1518.5" font-family="Helvetica,sans-Serif" font-size="10.00">+ Vector()</text>
<text text-anchor="start" x="178.5" y="-1507.5" font-family="Helvetica,sans-Serif" font-size="10.00">+ operator+()</text>
<text text-anchor="start" x="178.5" y="-1496.5" font-family="Helvetica,sans-Serif" font-size="10.00">+ operator&#45;()</text>
<text text-anchor="start" x="178.5" y="-1485.5" font-family="Helvetica,sans-Serif" font-size="10.00">+ operator*()</text>
<text text-anchor="start" x="178.5" y="-1474.5" font-family="Helvetica,sans-Serif" font-size="10.00">+ operator/()</text>
<text text-anchor="start" x="178.5" y="-1463.5" font-family="Helvetica,sans-Serif" font-size="10.00">+ operator==()</text>
<text text-anchor="start" x="178.5" y="-1452.5" font-family="Helvetica,sans-Serif" font-size="10.00">+ scale_vec()</text>
<text text-anchor="start" x="178.5" y="-1441.5" font-family="Helvetica,sans-Serif" font-size="10.00">+ rotate()</text>
<text text-anchor="start" x="178.5" y="-1430.5" font-family="Helvetica,sans-Serif" font-size="10.00">+ modulus2()</text>
<text text-anchor="start" x="178.5" y="-1419.5" font-family="Helvetica,sans-Serif" font-size="10.00">+ get_vec()</text>
<text text-anchor="start" x="178.5" y="-1408.5" font-family="Helvetica,sans-Serif" font-size="10.00">+ translation()</text>
<text text-anchor="start" x="178.5" y="-1397.5" font-family="Helvetica,sans-Serif" font-size="10.00">+ get_len()</text>
<text text-anchor="start" x="178.5" y="-1386.5" font-family="Helvetica,sans-Serif" font-size="10.00">+ get_slope_angle()</text>
<text text-anchor="start" x="178.5" y="-1375.5" font-family="Helvetica,sans-Serif" font-size="10.00">+ get_quarter()</text>
<text text-anchor="start" x="178.5" y="-1364.5" font-family="Helvetica,sans-Serif" font-size="10.00">+ operator[]()</text>
<text text-anchor="start" x="178.5" y="-1353.5" font-family="Helvetica,sans-Serif" font-size="10.00">+ operator[]()</text>
<text text-anchor="start" x="178.5" y="-1342.5" font-family="Helvetica,sans-Serif" font-size="10.00">+ scalar_prod()</text>
<text text-anchor="start" x="178.5" y="-1331.5" font-family="Helvetica,sans-Serif" font-size="10.00">+ rotate()</text>
<text text-anchor="start" x="178.5" y="-1320.5" font-family="Helvetica,sans-Serif" font-size="10.00">+ get_slope_angle()</text>
<text text-anchor="start" x="178.5" y="-1309.5" font-family="Helvetica,sans-Serif" font-size="10.00">+ rotate()</text>
<text text-anchor="start" x="178.5" y="-1298.5" font-family="Helvetica,sans-Serif" font-size="10.00">+ get_slope_angle()</text>
</a>
</g>
</g>
<!-- Node9&#45;&gt;Node4 -->
<g id="edge9" class="edge">
<title>Node9&#45;&gt;Node4</title>
<path fill="none" stroke="orange" d="M230,-1281.34C230,-1268.76 230,-1256.07 230,-1243.57"/>
<polygon fill="orange" stroke="orange" points="226.5,-1281.4 230,-1291.4 233.5,-1281.4 226.5,-1281.4"/>
<text text-anchor="middle" x="265.5" y="-1265" font-family="Helvetica,sans-Serif" font-size="10.00"> &lt; double, 3 &gt;</text>
</g>
<!-- Node10&#45;&gt;Node9 -->
<g id="edge10" class="edge">
<title>Node10&#45;&gt;Node9</title>
<path fill="none" stroke="midnightblue" d="M230,-1617.22C230,-1605.34 230,-1592.65 230,-1579.7"/>
<polygon fill="none" stroke="midnightblue" points="226.5,-1617.44 230,-1627.44 233.5,-1617.44 226.5,-1617.44"/>
</g>
<!-- Node11 -->
<g id="node11" class="node">
<title>Node11</title>
<g id="a_node11"><a xlink:href="classstatic_01int.html" target="_top" xlink:title=" ">
<polygon fill="none" stroke="black" points="352.5,-1837 352.5,-1894 411.5,-1894 411.5,-1837 352.5,-1837"/>
<text text-anchor="middle" x="382" y="-1882" font-family="Helvetica,sans-Serif" font-size="10.00">static int</text>
<polyline fill="none" stroke="black" points="352.5,-1875 411.5,-1875 "/>
<text text-anchor="middle" x="382" y="-1863" font-family="Helvetica,sans-Serif" font-size="10.00"> </text>
<polyline fill="none" stroke="black" points="352.5,-1856 411.5,-1856 "/>
<text text-anchor="middle" x="382" y="-1844" font-family="Helvetica,sans-Serif" font-size="10.00"> </text>
</a>
</g>
</g>
<!-- Node11&#45;&gt;Node10 -->
<g id="edge11" class="edge">
<title>Node11&#45;&gt;Node10</title>
<path fill="none" stroke="#404040" d="M378.15,-1836.96C373.88,-1815.9 365.03,-1787.43 347,-1769 333.74,-1755.45 323.12,-1760.31 302.46,-1750.83"/>
<polygon fill="none" stroke="#404040" points="302.4,-1750.8 295.22,-1751.47 291.84,-1745.11 299.02,-1744.43 302.4,-1750.8"/>
<text text-anchor="middle" x="404" y="-1783" font-family="Helvetica,sans-Serif" font-size="10.00"> #objects_alive</text>
<text text-anchor="middle" x="404" y="-1772" font-family="Helvetica,sans-Serif" font-size="10.00">#objects_created</text>
</g>
<!-- Node12 -->
<g id="node12" class="node">
<title>Node12</title>
<g id="a_node12"><a xlink:title=" ">
<polygon fill="none" stroke="#bfbfbf" points="310,-1660.5 310,-1717.5 348,-1717.5 348,-1660.5 310,-1660.5"/>
<text text-anchor="middle" x="329" y="-1705.5" font-family="Helvetica,sans-Serif" font-size="10.00">type</text>
<polyline fill="none" stroke="#bfbfbf" points="310,-1698.5 348,-1698.5 "/>
<text text-anchor="middle" x="329" y="-1686.5" font-family="Helvetica,sans-Serif" font-size="10.00"> </text>
<polyline fill="none" stroke="#bfbfbf" points="310,-1679.5 348,-1679.5 "/>
<text text-anchor="middle" x="329" y="-1667.5" font-family="Helvetica,sans-Serif" font-size="10.00"> </text>
</a>
</g>
</g>
<!-- Node12&#45;&gt;Node9 -->
<g id="edge13" class="edge">
<title>Node12&#45;&gt;Node9</title>
<path fill="none" stroke="#404040" d="M318.03,-1660.12C311,-1642.28 301.26,-1617.54 290.82,-1591"/>
<polygon fill="none" stroke="#404040" points="290.7,-1590.7 284.78,-1586.58 286.3,-1579.53 292.22,-1583.65 290.7,-1590.7"/>
<text text-anchor="middle" x="310.5" y="-1601" font-family="Helvetica,sans-Serif" font-size="10.00"> &#45;size</text>
</g>
<!-- Node13 -->
<g id="node13" class="node">
<title>Node13</title>
<g id="a_node13"><a xlink:title=" ">
<polygon fill="none" stroke="#bfbfbf" points="317,-1071 317,-1128 361,-1128 361,-1071 317,-1071"/>
<text text-anchor="middle" x="339" y="-1116" font-family="Helvetica,sans-Serif" font-size="10.00">string</text>
<polyline fill="none" stroke="#bfbfbf" points="317,-1109 361,-1109 "/>
<text text-anchor="middle" x="339" y="-1097" font-family="Helvetica,sans-Serif" font-size="10.00"> </text>
<polyline fill="none" stroke="#bfbfbf" points="317,-1090 361,-1090 "/>
<text text-anchor="middle" x="339" y="-1078" font-family="Helvetica,sans-Serif" font-size="10.00"> </text>
</a>
</g>
</g>
<!-- Node13&#45;&gt;Node3 -->
<g id="edge14" class="edge">
<title>Node13&#45;&gt;Node3</title>
<path fill="none" stroke="#404040" d="M339,-1070.96C339,-1034.92 339,-969.24 339,-908.95"/>
<polygon fill="none" stroke="#404040" points="339,-908.57 335,-902.57 339,-896.57 343,-902.57 339,-908.57"/>
<text text-anchor="middle" x="379.5" y="-929" font-family="Helvetica,sans-Serif" font-size="10.00"> #sample_name</text>
<text text-anchor="middle" x="379.5" y="-918" font-family="Helvetica,sans-Serif" font-size="10.00">#final_name</text>
</g>
</g>
</svg>
        <g id="navigator" transform="translate(0 0)" fill="#404254">
                <rect fill="#f2f5e9" fill-opacity="0.5" stroke="#606060" stroke-width=".5" x="0" y="0" width="60" height="60"/>
                <use id="zoomplus" xlink:href="#zoomPlus" x="17" y="9" onmousedown="handleZoom(evt,'in')"/>
                <use id="zoomminus" xlink:href="#zoomMin" x="42" y="9" onmousedown="handleZoom(evt,'out')"/>
                <use id="reset" xlink:href="#resetDef" x="30" y="36" onmousedown="handleReset()"/>
                <g id="arrowUp" xlink:href="#dirArrow" transform="translate(30 24)" onmousedown="handlePan(0,-1)">
                  <use xlink:href="#rim" fill="#404040">
                        <set attributeName="fill" to="#808080" begin="arrowUp.mouseover" end="arrowUp.mouseout"/>
                  </use>
                  <path fill="none" stroke="white" stroke-width="1.5" d="M0,-3.0v7 M-2.5,-0.5L0,-3.0L2.5,-0.5"/>
                </g>
                <g id="arrowRight" xlink:href="#dirArrow" transform="rotate(90) translate(36 -43)" onmousedown="handlePan(1,0)">
                  <use xlink:href="#rim" fill="#404040">
                        <set attributeName="fill" to="#808080" begin="arrowRight.mouseover" end="arrowRight.mouseout"/>
                  </use>
                  <path fill="none" stroke="white" stroke-width="1.5" d="M0,-3.0v7 M-2.5,-0.5L0,-3.0L2.5,-0.5"/>
                </g>
                <g id="arrowDown" xlink:href="#dirArrow" transform="rotate(180) translate(-30 -48)" onmousedown="handlePan(0,1)">
                  <use xlink:href="#rim" fill="#404040">
                        <set attributeName="fill" to="#808080" begin="arrowDown.mouseover" end="arrowDown.mouseout"/>
                  </use>
                  <path fill="none" stroke="white" stroke-width="1.5" d="M0,-3.0v7 M-2.5,-0.5L0,-3.0L2.5,-0.5"/>
                </g>
                <g id="arrowLeft" xlink:href="#dirArrow" transform="rotate(270) translate(-36 17)" onmousedown="handlePan(-1,0)">
                  <use xlink:href="#rim" fill="#404040">
                        <set attributeName="fill" to="#808080" begin="arrowLeft.mouseover" end="arrowLeft.mouseout"/>
                  </use>
                  <path fill="none" stroke="white" stroke-width="1.5" d="M0,-3.0v7 M-2.5,-0.5L0,-3.0L2.5,-0.5"/>
                </g>
        </g>
        <svg viewBox="0 0 15 15" width="100%" height="30px" preserveAspectRatio="xMaxYMin meet">
         <g id="arrow_out" transform="scale(0.3 0.3)">
          <a xlink:href="class_triangular__coll__graph_org.svg" target="_base">
           <rect id="button" ry="5" rx="5" y="6" x="6" height="38" width="38"
                fill="#f2f5e9" fill-opacity="0.5" stroke="#606060" stroke-width="1.0"/>
           <path id="arrow"
             d="M 11.500037,31.436501 C 11.940474,20.09759 22.043105,11.32322 32.158766,21.979434 L 37.068811,17.246167 C 37.068811,17.246167 37.088388,32 37.088388,32 L 22.160133,31.978069 C 22.160133,31.978069 26.997745,27.140456 26.997745,27.140456 C 18.528582,18.264221 13.291696,25.230495 11.500037,31.436501 z"
             style="fill:#404040;"/>
          </a>
         </g>
        </svg>
</svg>
