<?xml version="1.0" encoding="UTF-8" standalone="no"?>
<!DOCTYPE svg PUBLIC "-//W3C//DTD SVG 1.1//EN"
 "http://www.w3.org/Graphics/SVG/1.1/DTD/svg11.dtd">
<!-- Generated by graphviz version 2.43.0 (0)
 -->
<!-- Title: Drone::Drone_change_to_sample Pages: 1 -->
<svg width="456pt" height="149pt"
 viewBox="0.00 0.00 456.00 149.00" xmlns="http://www.w3.org/2000/svg" xmlns:xlink="http://www.w3.org/1999/xlink">
<g id="graph0" class="graph" transform="scale(1 1) rotate(0) translate(4 145)">
<title>Drone::Drone_change_to_sample</title>
<!-- Node1 -->
<g id="node1" class="node">
<title>Node1</title>
<g id="a_node1"><a xlink:title="Metoda zamieniajaca drona na tego z pliku sample.">
<polygon fill="#bfbfbf" stroke="black" points="326,-66.5 326,-96.5 448,-96.5 448,-66.5 326,-66.5"/>
<text text-anchor="start" x="334" y="-84.5" font-family="Helvetica,sans-Serif" font-size="10.00">Drone::Drone_change</text>
<text text-anchor="middle" x="387" y="-73.5" font-family="Helvetica,sans-Serif" font-size="10.00">_to_sample</text>
</a>
</g>
</g>
<!-- Node2 -->
<g id="node2" class="node">
<title>Node2</title>
<g id="a_node2"><a xlink:href="class_drone.html#ac4d24c27fb2c107d2e8bda0c2bf5cfa1" target="_top" xlink:title="Metoda obliczajaca i przeprowadzajaca caly ruch drona (obrot o kat i przelot z zadania 5....">
<polygon fill="none" stroke="black" points="0,-110.5 0,-140.5 112,-140.5 112,-110.5 0,-110.5"/>
<text text-anchor="start" x="8" y="-128.5" font-family="Helvetica,sans-Serif" font-size="10.00">Drone::Drone_basic</text>
<text text-anchor="middle" x="56" y="-117.5" font-family="Helvetica,sans-Serif" font-size="10.00">_motion</text>
</a>
</g>
</g>
<!-- Node1&#45;&gt;Node2 -->
<g id="edge1" class="edge">
<title>Node1&#45;&gt;Node2</title>
<path fill="none" stroke="midnightblue" d="M353.77,-101.88C335.76,-112.06 312.48,-123.29 290,-128.5 230.49,-142.29 160.12,-138.77 112.4,-133.56"/>
<polygon fill="midnightblue" stroke="midnightblue" points="355.8,-104.75 362.68,-96.69 352.28,-98.7 355.8,-104.75"/>
</g>
<!-- Node3 -->
<g id="node3" class="node">
<title>Node3</title>
<g id="a_node3"><a xlink:href="class_drone.html#af052f6bb793d1229b99b16b800b95b82" target="_top" xlink:title="Metoda animujaca obrot drona i wyrysowujaca calosc w gnuplocie.">
<polygon fill="none" stroke="black" points="156.5,-88.5 156.5,-118.5 281.5,-118.5 281.5,-88.5 156.5,-88.5"/>
<text text-anchor="start" x="164.5" y="-106.5" font-family="Helvetica,sans-Serif" font-size="10.00">Drone::Drone_rotation</text>
<text text-anchor="middle" x="219" y="-95.5" font-family="Helvetica,sans-Serif" font-size="10.00">_animation</text>
</a>
</g>
</g>
<!-- Node1&#45;&gt;Node3 -->
<g id="edge2" class="edge">
<title>Node1&#45;&gt;Node3</title>
<path fill="none" stroke="midnightblue" d="M315.43,-90.85C304.23,-92.34 292.72,-93.86 281.75,-95.32"/>
<polygon fill="midnightblue" stroke="midnightblue" points="316.15,-94.29 325.6,-89.5 315.23,-87.35 316.15,-94.29"/>
</g>
<!-- Node4 -->
<g id="node4" class="node">
<title>Node4</title>
<g id="a_node4"><a xlink:href="class_drone.html#ab7808296cec81143dbddd7516340a371" target="_top" xlink:title="Metoda robiaca &quot;oblot&quot; drona wokol punktu (z modyfikacji)">
<polygon fill="none" stroke="black" points="148,-50 148,-69 290,-69 290,-50 148,-50"/>
<text text-anchor="middle" x="219" y="-57" font-family="Helvetica,sans-Serif" font-size="10.00">Drone::Drone_roundabout</text>
</a>
</g>
</g>
<!-- Node1&#45;&gt;Node4 -->
<g id="edge4" class="edge">
<title>Node1&#45;&gt;Node4</title>
<path fill="none" stroke="midnightblue" d="M315.5,-72.16C307.13,-71.05 298.58,-69.91 290.21,-68.81"/>
<polygon fill="midnightblue" stroke="midnightblue" points="315.23,-75.65 325.6,-73.5 316.15,-68.71 315.23,-75.65"/>
</g>
<!-- Node5 -->
<g id="node5" class="node">
<title>Node5</title>
<g id="a_node5"><a xlink:href="class_drone.html#a5fc9dd645ad3856b5d3c501c63c464e3" target="_top" xlink:title="Metoda animujaca translacje drona i wyrysowujaca calosc w gnuplocie.">
<polygon fill="none" stroke="black" points="149.5,-0.5 149.5,-30.5 288.5,-30.5 288.5,-0.5 149.5,-0.5"/>
<text text-anchor="start" x="157.5" y="-18.5" font-family="Helvetica,sans-Serif" font-size="10.00">Drone::Drone_translation</text>
<text text-anchor="middle" x="219" y="-7.5" font-family="Helvetica,sans-Serif" font-size="10.00">_animation</text>
</a>
</g>
</g>
<!-- Node1&#45;&gt;Node5 -->
<g id="edge5" class="edge">
<title>Node1&#45;&gt;Node5</title>
<path fill="none" stroke="midnightblue" d="M342.66,-62.33C326.25,-55.25 307.35,-47.3 290,-40.5 281.47,-37.16 272.29,-33.75 263.47,-30.56"/>
<polygon fill="midnightblue" stroke="midnightblue" points="341.43,-65.61 352,-66.38 344.22,-59.19 341.43,-65.61"/>
</g>
<!-- Node3&#45;&gt;Node2 -->
<g id="edge3" class="edge">
<title>Node3&#45;&gt;Node2</title>
<path fill="none" stroke="midnightblue" d="M146.22,-113.31C134.75,-114.88 123.04,-116.48 112.04,-117.98"/>
<polygon fill="midnightblue" stroke="midnightblue" points="146.78,-116.76 156.21,-111.94 145.83,-109.83 146.78,-116.76"/>
</g>
</g>
</svg>
