<?xml version="1.0" encoding="UTF-8" standalone="no"?>
<!DOCTYPE svg PUBLIC "-//W3C//DTD SVG 1.1//EN"
 "http://www.w3.org/Graphics/SVG/1.1/DTD/svg11.dtd">
<!-- Generated by graphviz version 2.43.0 (0)
 -->
<!-- Title: PzG::LaczeDoGNUPlota::DodajNazwePliku Pages: 1 -->
<svg width="779pt" height="365pt"
 viewBox="0.00 0.00 779.00 364.50" xmlns="http://www.w3.org/2000/svg" xmlns:xlink="http://www.w3.org/1999/xlink">
<g id="graph0" class="graph" transform="scale(1 1) rotate(0) translate(4 360.5)">
<title>PzG::LaczeDoGNUPlota::DodajNazwePliku</title>
<!-- Node1 -->
<g id="node1" class="node">
<title>Node1</title>
<g id="a_node1"><a xlink:title="Dodaje nazwę pliku.">
<polygon fill="#bfbfbf" stroke="black" points="641,-142.5 641,-172.5 771,-172.5 771,-142.5 641,-142.5"/>
<text text-anchor="start" x="649" y="-160.5" font-family="Helvetica,sans-Serif" font-size="10.00">PzG::LaczeDoGNUPlota</text>
<text text-anchor="middle" x="706" y="-149.5" font-family="Helvetica,sans-Serif" font-size="10.00">::DodajNazwePliku</text>
</a>
</g>
</g>
<!-- Node2 -->
<g id="node2" class="node">
<title>Node2</title>
<g id="a_node2"><a xlink:href="class_scene.html#a8b87eec51d554a3ac01767a613871661" target="_top" xlink:title="Metoda dodajaca object zadany przez uzytkownika.">
<polygon fill="none" stroke="black" points="481,-186 481,-205 586,-205 586,-186 481,-186"/>
<text text-anchor="middle" x="533.5" y="-193" font-family="Helvetica,sans-Serif" font-size="10.00">Scene::add_object</text>
</a>
</g>
</g>
<!-- Node1&#45;&gt;Node2 -->
<g id="edge1" class="edge">
<title>Node1&#45;&gt;Node2</title>
<path fill="none" stroke="midnightblue" d="M630.78,-174.04C612.52,-178.11 593.57,-182.34 577.36,-185.95"/>
<polygon fill="midnightblue" stroke="midnightblue" points="631.54,-177.46 640.54,-171.87 630.02,-170.63 631.54,-177.46"/>
</g>
<!-- Node5 -->
<g id="node5" class="node">
<title>Node5</title>
<g id="a_node5"><a xlink:href="class_drone.html#ae1e0bb7bf7063795bce4bbf5ef99cb74" target="_top" xlink:title="Metoda zapisujaca sciezke do pliku oraz do lacza.">
<polygon fill="none" stroke="black" points="462,-224 462,-243 605,-243 605,-224 462,-224"/>
<text text-anchor="middle" x="533.5" y="-231" font-family="Helvetica,sans-Serif" font-size="10.00">Drone::Drone_path_to_file</text>
</a>
</g>
</g>
<!-- Node1&#45;&gt;Node5 -->
<g id="edge4" class="edge">
<title>Node1&#45;&gt;Node5</title>
<path fill="none" stroke="midnightblue" d="M673.79,-178.05C654.57,-189.98 629.09,-204.58 605,-214.5 596.09,-218.17 586.26,-221.33 576.84,-223.97"/>
<polygon fill="midnightblue" stroke="midnightblue" points="675.82,-180.9 682.41,-172.6 672.09,-174.98 675.82,-180.9"/>
</g>
<!-- Node10 -->
<g id="node10" class="node">
<title>Node10</title>
<g id="a_node10"><a xlink:href="class_scene.html#ab57c9a7293ccbaf3dd7e9ac469a7a787" target="_top" xlink:title="Metoda inicjalizujaca lacze do gnuplota.">
<polygon fill="none" stroke="black" points="300,-74 300,-93 410,-93 410,-74 300,-74"/>
<text text-anchor="middle" x="355" y="-81" font-family="Helvetica,sans-Serif" font-size="10.00">Scene::init_gnuplot</text>
</a>
</g>
</g>
<!-- Node1&#45;&gt;Node10 -->
<g id="edge9" class="edge">
<title>Node1&#45;&gt;Node10</title>
<path fill="none" stroke="midnightblue" d="M630.67,-161.25C581.45,-161.38 516.21,-156.96 462,-137.5 443.67,-130.92 443.1,-121.84 426,-112.5 412.26,-105 396.17,-98.2 382.88,-93.08"/>
<polygon fill="midnightblue" stroke="midnightblue" points="630.95,-164.75 640.92,-161.16 630.89,-157.75 630.95,-164.75"/>
</g>
<!-- Node11 -->
<g id="node11" class="node">
<title>Node11</title>
<g id="a_node11"><a xlink:href="class_scene.html#a904ed1e89f26c05070e221bc832e9a2f" target="_top" xlink:title="Metoda iterujaca po kolejnych polach listy objects, zczytujaca nazwy plikow i podajaca je do gnuplota...">
<polygon fill="none" stroke="black" points="478,-49.5 478,-79.5 589,-79.5 589,-49.5 478,-49.5"/>
<text text-anchor="start" x="486" y="-67.5" font-family="Helvetica,sans-Serif" font-size="10.00">Scene::iterate_over</text>
<text text-anchor="middle" x="533.5" y="-56.5" font-family="Helvetica,sans-Serif" font-size="10.00">_objects</text>
</a>
</g>
</g>
<!-- Node1&#45;&gt;Node11 -->
<g id="edge11" class="edge">
<title>Node1&#45;&gt;Node11</title>
<path fill="none" stroke="midnightblue" d="M678.36,-136.09C658.91,-121.23 631.43,-101.79 605,-88.5 598.53,-85.25 591.52,-82.27 584.51,-79.6"/>
<polygon fill="midnightblue" stroke="midnightblue" points="676.39,-138.99 686.44,-142.35 680.68,-133.46 676.39,-138.99"/>
</g>
<!-- Node12 -->
<g id="node12" class="node">
<title>Node12</title>
<g id="a_node12"><a xlink:href="class_drone.html#a577871807280aab8d9c0d4e45b435ec4" target="_top" xlink:title="Metoda rysujaca drona w gnuplocie. Przeznaczona do testow">
<polygon fill="none" stroke="black" points="468,-98.5 468,-128.5 599,-128.5 599,-98.5 468,-98.5"/>
<text text-anchor="start" x="476" y="-116.5" font-family="Helvetica,sans-Serif" font-size="10.00">Drone::Print_to_gnuplot</text>
<text text-anchor="middle" x="533.5" y="-105.5" font-family="Helvetica,sans-Serif" font-size="10.00">_drone</text>
</a>
</g>
</g>
<!-- Node1&#45;&gt;Node12 -->
<g id="edge13" class="edge">
<title>Node1&#45;&gt;Node12</title>
<path fill="none" stroke="midnightblue" d="M636.82,-139.91C622.22,-136.14 606.92,-132.19 592.73,-128.53"/>
<polygon fill="midnightblue" stroke="midnightblue" points="636.24,-143.37 646.8,-142.48 637.99,-136.59 636.24,-143.37"/>
</g>
<!-- Node13 -->
<g id="node13" class="node">
<title>Node13</title>
<g id="a_node13"><a xlink:href="class_scene.html#aa5fc0e5a94bfa0766f6e5ff10993630d" target="_top" xlink:title="Skanowanie powierzchni pod dronem, gdy dron nie moze wyladowac w danym miejscu &#160;&#160;Rysowany jest rownie...">
<polygon fill="none" stroke="black" points="480,-299 480,-318 587,-318 587,-299 480,-299"/>
<text text-anchor="middle" x="533.5" y="-306" font-family="Helvetica,sans-Serif" font-size="10.00">Scene::scan_plane</text>
</a>
</g>
</g>
<!-- Node1&#45;&gt;Node13 -->
<g id="edge14" class="edge">
<title>Node1&#45;&gt;Node13</title>
<path fill="none" stroke="midnightblue" d="M682.44,-180.04C662.51,-199.67 632.44,-228.65 605,-252.5 585.42,-269.52 561.59,-288.01 547.25,-298.91"/>
<polygon fill="midnightblue" stroke="midnightblue" points="685.16,-182.27 689.81,-172.75 680.24,-177.29 685.16,-182.27"/>
</g>
<!-- Node15 -->
<g id="node15" class="node">
<title>Node15</title>
<g id="a_node15"><a xlink:href="class_drone.html#a63898ba4cc161710cf08f7b578f3d90f" target="_top" xlink:title="Metoda ustawiajaca nazwy plikow w laczy do gnuplota (nazwy final!)">
<polygon fill="none" stroke="black" points="473.5,-0.5 473.5,-30.5 593.5,-30.5 593.5,-0.5 473.5,-0.5"/>
<text text-anchor="start" x="481.5" y="-18.5" font-family="Helvetica,sans-Serif" font-size="10.00">Drone::set_filenames</text>
<text text-anchor="middle" x="533.5" y="-7.5" font-family="Helvetica,sans-Serif" font-size="10.00">_gnuplot</text>
</a>
</g>
</g>
<!-- Node1&#45;&gt;Node15 -->
<g id="edge17" class="edge">
<title>Node1&#45;&gt;Node15</title>
<path fill="none" stroke="midnightblue" d="M690.39,-133.49C673.09,-106.95 641.93,-64.65 605,-39.5 599.98,-36.08 594.42,-33.11 588.7,-30.53"/>
<polygon fill="midnightblue" stroke="midnightblue" points="687.59,-135.61 695.92,-142.16 693.5,-131.85 687.59,-135.61"/>
</g>
<!-- Node3 -->
<g id="node3" class="node">
<title>Node3</title>
<g id="a_node3"><a xlink:href="class_menu.html#acd338552222b744cd030e17776cb5d9b" target="_top" xlink:title="Obsluguje wybor menu.">
<polygon fill="none" stroke="black" points="134,-112 134,-131 248,-131 248,-112 134,-112"/>
<text text-anchor="middle" x="191" y="-119" font-family="Helvetica,sans-Serif" font-size="10.00">Menu::switch_menu</text>
</a>
</g>
</g>
<!-- Node2&#45;&gt;Node3 -->
<g id="edge2" class="edge">
<title>Node2&#45;&gt;Node3</title>
<path fill="none" stroke="midnightblue" d="M486.2,-182.58C477.89,-179.48 469.5,-175.79 462,-171.5 443.67,-161.02 445.48,-148.64 426,-140.5 368.84,-116.6 297.06,-114.39 248.18,-116.53"/>
<polygon fill="midnightblue" stroke="midnightblue" points="485.25,-185.96 495.85,-185.96 487.57,-179.35 485.25,-185.96"/>
</g>
<!-- Node4 -->
<g id="node4" class="node">
<title>Node4</title>
<g id="a_node4"><a xlink:href="class_menu.html#af7e6a49bd56499facef9cc98561ea169" target="_top" xlink:title="Inicjuje i obsluguje menu.">
<polygon fill="none" stroke="black" points="0,-93 0,-112 98,-112 98,-93 0,-93"/>
<text text-anchor="middle" x="49" y="-100" font-family="Helvetica,sans-Serif" font-size="10.00">Menu::init_menu</text>
</a>
</g>
</g>
<!-- Node3&#45;&gt;Node4 -->
<g id="edge3" class="edge">
<title>Node3&#45;&gt;Node4</title>
<path fill="none" stroke="midnightblue" d="M123.75,-112.51C115.08,-111.33 106.33,-110.14 98.04,-109.02"/>
<polygon fill="midnightblue" stroke="midnightblue" points="123.48,-116 133.86,-113.88 124.42,-109.07 123.48,-116"/>
</g>
<!-- Node6 -->
<g id="node6" class="node">
<title>Node6</title>
<g id="a_node6"><a xlink:href="class_drone.html#a7eecbd031df9009e113d355a9dcdf4e1" target="_top" xlink:title="Metoda obliczajaca i przeprowadzajaca caly ruch drona (obrot o kat i przelot z zadania 5....">
<polygon fill="none" stroke="black" points="299,-150.5 299,-180.5 411,-180.5 411,-150.5 299,-150.5"/>
<text text-anchor="start" x="307" y="-168.5" font-family="Helvetica,sans-Serif" font-size="10.00">Drone::Drone_basic</text>
<text text-anchor="middle" x="355" y="-157.5" font-family="Helvetica,sans-Serif" font-size="10.00">_motion_flight</text>
</a>
</g>
</g>
<!-- Node5&#45;&gt;Node6 -->
<g id="edge5" class="edge">
<title>Node5&#45;&gt;Node6</title>
<path fill="none" stroke="midnightblue" d="M477.84,-220.8C472.4,-218.93 467.03,-216.84 462,-214.5 444.34,-206.29 443.38,-198.3 426,-189.5 419.58,-186.25 412.62,-183.27 405.66,-180.61"/>
<polygon fill="midnightblue" stroke="midnightblue" points="477.08,-224.23 487.67,-223.91 479.2,-217.55 477.08,-224.23"/>
</g>
<!-- Node7 -->
<g id="node7" class="node">
<title>Node7</title>
<g id="a_node7"><a xlink:href="class_drone.html#aec9abadf85777ab20e361d1389aab466" target="_top" xlink:title="Metoda obliczajaca i przeprowadzajaca koncowy ruch drona (obrot o kat i koncowy przelot z zadania 5....">
<polygon fill="none" stroke="black" points="294.5,-287.5 294.5,-317.5 415.5,-317.5 415.5,-287.5 294.5,-287.5"/>
<text text-anchor="start" x="302.5" y="-305.5" font-family="Helvetica,sans-Serif" font-size="10.00">Drone::Drone_motion</text>
<text text-anchor="middle" x="355" y="-294.5" font-family="Helvetica,sans-Serif" font-size="10.00">_after_update</text>
</a>
</g>
</g>
<!-- Node5&#45;&gt;Node7 -->
<g id="edge6" class="edge">
<title>Node5&#45;&gt;Node7</title>
<path fill="none" stroke="midnightblue" d="M500.76,-247.09C479.67,-256 451.3,-267.76 426,-277.5 417.33,-280.84 408,-284.28 399.06,-287.49"/>
<polygon fill="midnightblue" stroke="midnightblue" points="502.35,-250.22 510.19,-243.09 499.62,-243.77 502.35,-250.22"/>
</g>
<!-- Node8 -->
<g id="node8" class="node">
<title>Node8</title>
<g id="a_node8"><a xlink:href="class_drone.html#ab7808296cec81143dbddd7516340a371" target="_top" xlink:title="Metoda robiaca &quot;oblot&quot; drona wokol punktu (z modyfikacji)">
<polygon fill="none" stroke="black" points="284,-249 284,-268 426,-268 426,-249 284,-249"/>
<text text-anchor="middle" x="355" y="-256" font-family="Helvetica,sans-Serif" font-size="10.00">Drone::Drone_roundabout</text>
</a>
</g>
</g>
<!-- Node5&#45;&gt;Node8 -->
<g id="edge7" class="edge">
<title>Node5&#45;&gt;Node8</title>
<path fill="none" stroke="midnightblue" d="M455.18,-244.45C444.57,-245.95 433.75,-247.49 423.34,-248.96"/>
<polygon fill="midnightblue" stroke="midnightblue" points="455.86,-247.89 465.27,-243.02 454.88,-240.96 455.86,-247.89"/>
</g>
<!-- Node9 -->
<g id="node9" class="node">
<title>Node9</title>
<g id="a_node9"><a xlink:href="class_drone.html#a5fc9dd645ad3856b5d3c501c63c464e3" target="_top" xlink:title="Metoda animujaca translacje drona i wyrysowujaca calosc w gnuplocie.">
<polygon fill="none" stroke="black" points="285.5,-199.5 285.5,-229.5 424.5,-229.5 424.5,-199.5 285.5,-199.5"/>
<text text-anchor="start" x="293.5" y="-217.5" font-family="Helvetica,sans-Serif" font-size="10.00">Drone::Drone_translation</text>
<text text-anchor="middle" x="355" y="-206.5" font-family="Helvetica,sans-Serif" font-size="10.00">_animation</text>
</a>
</g>
</g>
<!-- Node5&#45;&gt;Node9 -->
<g id="edge8" class="edge">
<title>Node5&#45;&gt;Node9</title>
<path fill="none" stroke="midnightblue" d="M451.81,-224.81C442.75,-223.84 433.58,-222.85 424.68,-221.89"/>
<polygon fill="midnightblue" stroke="midnightblue" points="451.66,-228.32 461.98,-225.91 452.41,-221.36 451.66,-228.32"/>
</g>
<!-- Node10&#45;&gt;Node4 -->
<g id="edge10" class="edge">
<title>Node10&#45;&gt;Node4</title>
<path fill="none" stroke="midnightblue" d="M289.63,-87.52C232.44,-91.1 150.11,-96.24 98.37,-99.48"/>
<polygon fill="midnightblue" stroke="midnightblue" points="289.89,-91.01 299.65,-86.9 289.45,-84.03 289.89,-91.01"/>
</g>
<!-- Node11&#45;&gt;Node10 -->
<g id="edge12" class="edge">
<title>Node11&#45;&gt;Node10</title>
<path fill="none" stroke="midnightblue" d="M467.62,-71.48C448.76,-73.51 428.37,-75.71 410.24,-77.66"/>
<polygon fill="midnightblue" stroke="midnightblue" points="468.05,-74.96 477.62,-70.41 467.3,-68 468.05,-74.96"/>
</g>
<!-- Node14 -->
<g id="node14" class="node">
<title>Node14</title>
<g id="a_node14"><a xlink:href="class_scene.html#a5fb0b9741a75dec929b5ea5d6ac917a1" target="_top" xlink:title="Przelot aktywnego drona.">
<polygon fill="none" stroke="black" points="323,-337 323,-356 387,-356 387,-337 323,-337"/>
<text text-anchor="middle" x="355" y="-344" font-family="Helvetica,sans-Serif" font-size="10.00">Scene::fly</text>
</a>
</g>
</g>
<!-- Node13&#45;&gt;Node14 -->
<g id="edge15" class="edge">
<title>Node13&#45;&gt;Node14</title>
<path fill="none" stroke="midnightblue" d="M478.1,-320.21C448.24,-326.64 412.3,-334.38 387.17,-339.79"/>
<polygon fill="midnightblue" stroke="midnightblue" points="478.92,-323.62 487.96,-318.09 477.45,-316.77 478.92,-323.62"/>
</g>
<!-- Node14&#45;&gt;Node3 -->
<g id="edge16" class="edge">
<title>Node14&#45;&gt;Node3</title>
<path fill="none" stroke="midnightblue" d="M313.14,-341.77C302.74,-338.96 292.19,-334.51 284,-327.5 220.02,-272.74 198.62,-164.66 193.4,-131.45"/>
<polygon fill="midnightblue" stroke="midnightblue" points="312.47,-345.21 323,-344 314.01,-338.38 312.47,-345.21"/>
</g>
</g>
</svg>
