<?xml version="1.0" encoding="UTF-8" standalone="no"?>
<!DOCTYPE svg PUBLIC "-//W3C//DTD SVG 1.1//EN"
 "http://www.w3.org/Graphics/SVG/1.1/DTD/svg11.dtd">
<!-- Generated by graphviz version 2.43.0 (0)
 -->
<!-- Title: Drone::Drone_translation_animation Pages: 1 -->
<svg width="1081pt" height="686pt"
 viewBox="0.00 0.00 1081.00 685.50" xmlns="http://www.w3.org/2000/svg" xmlns:xlink="http://www.w3.org/1999/xlink">
<g id="graph0" class="graph" transform="scale(1 1) rotate(0) translate(4 681.5)">
<title>Drone::Drone_translation_animation</title>
<!-- Node1 -->
<g id="node1" class="node">
<title>Node1</title>
<g id="a_node1"><a xlink:title="Metoda animujaca translacje drona i wyrysowujaca calosc w gnuplocie.">
<polygon fill="#bfbfbf" stroke="black" points="0,-213.5 0,-243.5 139,-243.5 139,-213.5 0,-213.5"/>
<text text-anchor="start" x="8" y="-231.5" font-family="Helvetica,sans-Serif" font-size="10.00">Drone::Drone_translation</text>
<text text-anchor="middle" x="69.5" y="-220.5" font-family="Helvetica,sans-Serif" font-size="10.00">_animation</text>
</a>
</g>
</g>
<!-- Node2 -->
<g id="node2" class="node">
<title>Node2</title>
<g id="a_node2"><a xlink:href="class_drone.html#af03af60a9b92e4191a7e66b5c20b52bb" target="_top" xlink:title="Metoda zamieniajaca drona na tego z pliku sample.">
<polygon fill="none" stroke="black" points="185.5,-257.5 185.5,-287.5 307.5,-287.5 307.5,-257.5 185.5,-257.5"/>
<text text-anchor="start" x="193.5" y="-275.5" font-family="Helvetica,sans-Serif" font-size="10.00">Drone::Drone_change</text>
<text text-anchor="middle" x="246.5" y="-264.5" font-family="Helvetica,sans-Serif" font-size="10.00">_to_sample</text>
</a>
</g>
</g>
<!-- Node1&#45;&gt;Node2 -->
<g id="edge1" class="edge">
<title>Node1&#45;&gt;Node2</title>
<path fill="none" stroke="midnightblue" d="M130.24,-243.52C144.94,-247.22 160.81,-251.21 175.93,-255.01"/>
<polygon fill="midnightblue" stroke="midnightblue" points="175.19,-258.43 185.74,-257.47 176.89,-251.64 175.19,-258.43"/>
</g>
<!-- Node24 -->
<g id="node24" class="node">
<title>Node24</title>
<g id="a_node24"><a xlink:href="class_drone.html#a6662bd8203e8c9a0721c457b3612a7c1" target="_top" xlink:title="Metoda uzywana przy konstruowania drona przesuwa drona w ten sposob, ze Vector3D centre prostopadlosc...">
<polygon fill="none" stroke="black" points="378.5,-211.5 378.5,-241.5 482.5,-241.5 482.5,-211.5 378.5,-211.5"/>
<text text-anchor="start" x="386.5" y="-229.5" font-family="Helvetica,sans-Serif" font-size="10.00">Drone::translation</text>
<text text-anchor="middle" x="430.5" y="-218.5" font-family="Helvetica,sans-Serif" font-size="10.00">_to_pos</text>
</a>
</g>
</g>
<!-- Node1&#45;&gt;Node24 -->
<g id="edge59" class="edge">
<title>Node1&#45;&gt;Node24</title>
<path fill="none" stroke="midnightblue" d="M139.29,-228.12C205.45,-227.75 304.51,-227.2 368.07,-226.84"/>
<polygon fill="midnightblue" stroke="midnightblue" points="368.36,-230.34 378.34,-226.78 368.32,-223.34 368.36,-230.34"/>
</g>
<!-- Node27 -->
<g id="node27" class="node">
<title>Node27</title>
<g id="a_node27"><a xlink:href="class_drone.html#ac120bf483eb7684725fa5b8d23856834" target="_top" xlink:title="Metoda przygotowujaca sciezke drona z uzyciem std::vector&lt;&gt;">
<polygon fill="none" stroke="black" points="176.5,-181 176.5,-200 316.5,-200 316.5,-181 176.5,-181"/>
<text text-anchor="middle" x="246.5" y="-188" font-family="Helvetica,sans-Serif" font-size="10.00">Drone::Drone_make_path</text>
</a>
</g>
</g>
<!-- Node1&#45;&gt;Node27 -->
<g id="edge38" class="edge">
<title>Node1&#45;&gt;Node27</title>
<path fill="none" stroke="midnightblue" d="M139.16,-213.59C156.61,-209.8 175.1,-205.79 191.69,-202.18"/>
<polygon fill="midnightblue" stroke="midnightblue" points="192.72,-205.54 201.75,-200 191.23,-198.7 192.72,-205.54"/>
</g>
<!-- Node28 -->
<g id="node28" class="node">
<title>Node28</title>
<g id="a_node28"><a xlink:href="class_drone.html#a9d09f6cd9ed8d60dfd1979b31101f400" target="_top" xlink:title="Metoda zapisujaca sciezke do pliku oraz do lacza.">
<polygon fill="none" stroke="black" points="175,-143 175,-162 318,-162 318,-143 175,-143"/>
<text text-anchor="middle" x="246.5" y="-150" font-family="Helvetica,sans-Serif" font-size="10.00">Drone::Drone_path_to_file</text>
</a>
</g>
</g>
<!-- Node1&#45;&gt;Node28 -->
<g id="edge39" class="edge">
<title>Node1&#45;&gt;Node28</title>
<path fill="none" stroke="midnightblue" d="M94.2,-213.46C114.88,-200.86 146.04,-183.11 175,-171.5 180.95,-169.12 187.29,-166.93 193.65,-164.96"/>
<polygon fill="midnightblue" stroke="midnightblue" points="194.97,-168.22 203.59,-162.05 193,-161.51 194.97,-168.22"/>
</g>
<!-- Node31 -->
<g id="node31" class="node">
<title>Node31</title>
<g id="a_node31"><a xlink:href="class_pz_g_1_1_lacze_do_g_n_u_plota.html#a065f5b8402737cc62b0ad4f66d028335" target="_top" xlink:title="Generuje polecenie rysowania i przesyła je do gnuplota.">
<polygon fill="none" stroke="black" points="365.5,-93.5 365.5,-123.5 495.5,-123.5 495.5,-93.5 365.5,-93.5"/>
<text text-anchor="start" x="373.5" y="-111.5" font-family="Helvetica,sans-Serif" font-size="10.00">PzG::LaczeDoGNUPlota</text>
<text text-anchor="middle" x="430.5" y="-100.5" font-family="Helvetica,sans-Serif" font-size="10.00">::Rysuj</text>
</a>
</g>
</g>
<!-- Node1&#45;&gt;Node31 -->
<g id="edge58" class="edge">
<title>Node1&#45;&gt;Node31</title>
<path fill="none" stroke="midnightblue" d="M81.71,-213.45C99,-191.54 134.44,-151.51 175,-133.5 231.78,-108.29 302.52,-103.17 355,-103.71"/>
<polygon fill="midnightblue" stroke="midnightblue" points="355.18,-107.21 365.24,-103.89 355.3,-100.21 355.18,-107.21"/>
</g>
<!-- Node38 -->
<g id="node38" class="node">
<title>Node38</title>
<g id="a_node38"><a xlink:href="class_drone.html#aae0029f50083a01fe75c7d504c2fe5b9" target="_top" xlink:title="Metoda zapisujaca parametry drona do plikow (do plikow final kazdego z elementow)">
<polygon fill="none" stroke="black" points="373,-538.5 373,-568.5 488,-568.5 488,-538.5 373,-538.5"/>
<text text-anchor="start" x="381" y="-556.5" font-family="Helvetica,sans-Serif" font-size="10.00">Drone::Print_to_files</text>
<text text-anchor="middle" x="430.5" y="-545.5" font-family="Helvetica,sans-Serif" font-size="10.00">_drone</text>
</a>
</g>
</g>
<!-- Node1&#45;&gt;Node38 -->
<g id="edge49" class="edge">
<title>Node1&#45;&gt;Node38</title>
<path fill="none" stroke="midnightblue" d="M75.66,-243.58C87.99,-277.77 122.17,-362.3 175,-414.5 233.45,-472.25 320.8,-512.86 376.46,-534.71"/>
<polygon fill="midnightblue" stroke="midnightblue" points="375.54,-538.11 386.13,-538.45 378.06,-531.58 375.54,-538.11"/>
</g>
<!-- Node43 -->
<g id="node43" class="node">
<title>Node43</title>
<g id="a_node43"><a xlink:href="class_drone.html#aedb04b80609b22ff4eb4a957bc149a48" target="_top" xlink:title="Metoda animujaca obrot rotorow i zapisujaca to w plikach. Metoda sluzy jako metoda pomocnicza,...">
<polygon fill="none" stroke="black" points="183,-374.5 183,-404.5 310,-404.5 310,-374.5 183,-374.5"/>
<text text-anchor="start" x="191" y="-392.5" font-family="Helvetica,sans-Serif" font-size="10.00">Drone::Rotors_rotation</text>
<text text-anchor="middle" x="246.5" y="-381.5" font-family="Helvetica,sans-Serif" font-size="10.00">_animation</text>
</a>
</g>
</g>
<!-- Node1&#45;&gt;Node43 -->
<g id="edge55" class="edge">
<title>Node1&#45;&gt;Node43</title>
<path fill="none" stroke="midnightblue" d="M86.96,-243.65C117.97,-272.17 185.16,-333.99 221.31,-367.25"/>
<polygon fill="midnightblue" stroke="midnightblue" points="219.22,-370.08 228.95,-374.28 223.96,-364.93 219.22,-370.08"/>
</g>
<!-- Node3 -->
<g id="node3" class="node">
<title>Node3</title>
<g id="a_node3"><a xlink:href="class_drone.html#ada6f4e93f4a63cbe1d6fbebf329efe62" target="_top" xlink:title="Metoda wczytywania odpowiednich wierzcholkow z pliku wzorcowego zgodnie z zaproponowanym sposobem w z...">
<polygon fill="none" stroke="black" points="354,-462 354,-481 507,-481 507,-462 354,-462"/>
<text text-anchor="middle" x="430.5" y="-469" font-family="Helvetica,sans-Serif" font-size="10.00">Drone::Drone_From_Sample</text>
</a>
</g>
</g>
<!-- Node2&#45;&gt;Node3 -->
<g id="edge2" class="edge">
<title>Node2&#45;&gt;Node3</title>
<path fill="none" stroke="midnightblue" d="M261.48,-287.78C294.75,-324.17 378.5,-415.74 413.62,-454.13"/>
<polygon fill="midnightblue" stroke="midnightblue" points="411.37,-456.87 420.71,-461.88 416.54,-452.14 411.37,-456.87"/>
</g>
<!-- Node12 -->
<g id="node12" class="node">
<title>Node12</title>
<g id="a_node12"><a xlink:href="class_drone.html#ad42bc54902df967b94717617aca1a974" target="_top" xlink:title="Metoda obracajaca dron o zadany kat w 3D wokol srodka figury">
<polygon fill="none" stroke="black" points="354.5,-318 354.5,-337 506.5,-337 506.5,-318 354.5,-318"/>
<text text-anchor="middle" x="430.5" y="-325" font-family="Helvetica,sans-Serif" font-size="10.00">Drone::rotation_around_cen</text>
</a>
</g>
</g>
<!-- Node2&#45;&gt;Node12 -->
<g id="edge19" class="edge">
<title>Node2&#45;&gt;Node12</title>
<path fill="none" stroke="midnightblue" d="M297.23,-287.53C325.7,-296.13 360.99,-306.8 387.97,-314.95"/>
<polygon fill="midnightblue" stroke="midnightblue" points="387.28,-318.4 397.86,-317.94 389.3,-311.7 387.28,-318.4"/>
</g>
<!-- Node22 -->
<g id="node22" class="node">
<title>Node22</title>
<g id="a_node22"><a xlink:href="class_drone.html#a55c483c4e4cf0ec91d5bda5448417f08" target="_top" xlink:title="Metoda ustawiajaca drone_pos">
<polygon fill="none" stroke="black" points="369.5,-262 369.5,-281 491.5,-281 491.5,-262 369.5,-262"/>
<text text-anchor="middle" x="430.5" y="-269" font-family="Helvetica,sans-Serif" font-size="10.00">Drone::set_drone_pos</text>
</a>
</g>
</g>
<!-- Node2&#45;&gt;Node22 -->
<g id="edge31" class="edge">
<title>Node2&#45;&gt;Node22</title>
<path fill="none" stroke="midnightblue" d="M307.6,-272.17C324.06,-272.08 342.05,-271.98 359.04,-271.89"/>
<polygon fill="midnightblue" stroke="midnightblue" points="359.48,-275.38 369.47,-271.83 359.45,-268.38 359.48,-275.38"/>
</g>
<!-- Node2&#45;&gt;Node24 -->
<g id="edge33" class="edge">
<title>Node2&#45;&gt;Node24</title>
<path fill="none" stroke="midnightblue" d="M307.09,-257.44C326.78,-252.46 348.71,-246.92 368.5,-241.92"/>
<polygon fill="midnightblue" stroke="midnightblue" points="369.49,-245.28 378.33,-239.43 367.77,-238.49 369.49,-245.28"/>
</g>
<!-- Node4 -->
<g id="node4" class="node">
<title>Node4</title>
<g id="a_node4"><a xlink:href="class_cuboid.html#a773f92fecdf9686b951cf5736c83f318" target="_top" xlink:title="Metoda wczytywania odpowiednich wierzcholkow z pliku wzorcowego zgodnie z zaproponowanym sposobem zad...">
<polygon fill="none" stroke="black" points="571,-456.5 571,-486.5 691,-486.5 691,-456.5 571,-456.5"/>
<text text-anchor="start" x="579" y="-474.5" font-family="Helvetica,sans-Serif" font-size="10.00">Cuboid::Cuboid_From</text>
<text text-anchor="middle" x="631" y="-463.5" font-family="Helvetica,sans-Serif" font-size="10.00">_Sample</text>
</a>
</g>
</g>
<!-- Node3&#45;&gt;Node4 -->
<g id="edge3" class="edge">
<title>Node3&#45;&gt;Node4</title>
<path fill="none" stroke="midnightblue" d="M507.11,-471.5C524.79,-471.5 543.53,-471.5 560.9,-471.5"/>
<polygon fill="midnightblue" stroke="midnightblue" points="560.96,-475 570.96,-471.5 560.96,-468 560.96,-475"/>
</g>
<!-- Node9 -->
<g id="node9" class="node">
<title>Node9</title>
<g id="a_node9"><a xlink:href="class_drone.html#addf8532ee98ca800a64a78f3808fce98" target="_top" xlink:title="Metoda zwracajaca nazwy plikow do zapisu dla drona.">
<polygon fill="none" stroke="black" points="570.5,-418 570.5,-437 691.5,-437 691.5,-418 570.5,-418"/>
<text text-anchor="middle" x="631" y="-425" font-family="Helvetica,sans-Serif" font-size="10.00">Drone::get_filenames</text>
</a>
</g>
</g>
<!-- Node3&#45;&gt;Node9 -->
<g id="edge8" class="edge">
<title>Node3&#45;&gt;Node9</title>
<path fill="none" stroke="midnightblue" d="M474.57,-461.95C504.62,-455.29 544.9,-446.36 576.93,-439.26"/>
<polygon fill="midnightblue" stroke="midnightblue" points="578.01,-442.61 587.01,-437.03 576.49,-435.78 578.01,-442.61"/>
</g>
<!-- Node10 -->
<g id="node10" class="node">
<title>Node10</title>
<g id="a_node10"><a xlink:href="class_prism.html#a5e0a2234e9ebe3b51146c0ddc42e8b48" target="_top" xlink:title="Metoda wczytywania odpowiednich wierzcholkow z pliku wzorcowego zgodnie z zaproponowanym sposobem zad...">
<polygon fill="none" stroke="black" points="556,-506 556,-525 706,-525 706,-506 556,-506"/>
<text text-anchor="middle" x="631" y="-513" font-family="Helvetica,sans-Serif" font-size="10.00">Prism::Prism_From_Sample</text>
</a>
</g>
</g>
<!-- Node3&#45;&gt;Node10 -->
<g id="edge11" class="edge">
<title>Node3&#45;&gt;Node10</title>
<path fill="none" stroke="midnightblue" d="M473.84,-481.05C494.67,-485.74 520.14,-491.44 543,-496.5 553.75,-498.88 565.25,-501.4 576.25,-503.81"/>
<polygon fill="midnightblue" stroke="midnightblue" points="575.66,-507.26 586.18,-505.98 577.15,-500.43 575.66,-507.26"/>
</g>
<!-- Node11 -->
<g id="node11" class="node">
<title>Node11</title>
<g id="a_node11"><a xlink:href="class_drone.html#add09c27034d4ff229cc22b58c443c0f4" target="_top" xlink:title="Metoda ustawiajaca nazwy plikow do zapisu dla drona.">
<polygon fill="none" stroke="black" points="565,-582 565,-601 697,-601 697,-582 565,-582"/>
<text text-anchor="middle" x="631" y="-589" font-family="Helvetica,sans-Serif" font-size="10.00">Drone::setup_filenames</text>
</a>
</g>
</g>
<!-- Node3&#45;&gt;Node11 -->
<g id="edge16" class="edge">
<title>Node3&#45;&gt;Node11</title>
<path fill="none" stroke="midnightblue" d="M447.41,-481.12C481.96,-502.01 564.08,-551.65 605.38,-576.62"/>
<polygon fill="midnightblue" stroke="midnightblue" points="603.65,-579.66 614.02,-581.84 607.27,-573.67 603.65,-579.66"/>
</g>
<!-- Node5 -->
<g id="node5" class="node">
<title>Node5</title>
<g id="a_node5"><a xlink:href="class_block.html#aeef4dd3716afaea42688a4f96456ce27" target="_top" xlink:title="Metoda zwracajaca nazwe pliku z finalna (robocza) bryla">
<polygon fill="none" stroke="black" points="765,-494 765,-513 890,-513 890,-494 765,-494"/>
<text text-anchor="middle" x="827.5" y="-501" font-family="Helvetica,sans-Serif" font-size="10.00">Block::get_final_name</text>
</a>
</g>
</g>
<!-- Node4&#45;&gt;Node5 -->
<g id="edge4" class="edge">
<title>Node4&#45;&gt;Node5</title>
<path fill="none" stroke="midnightblue" d="M691.15,-481.23C712.47,-484.74 736.7,-488.73 758.7,-492.35"/>
<polygon fill="midnightblue" stroke="midnightblue" points="758.2,-495.81 768.64,-493.98 759.34,-488.9 758.2,-495.81"/>
</g>
<!-- Node6 -->
<g id="node6" class="node">
<title>Node6</title>
<g id="a_node6"><a xlink:href="class_block.html#aed17e0cb13b8eea50fe735ba05204da9" target="_top" xlink:title="Metoda zwracajaca nazwe pliku z wzorcowa bryla">
<polygon fill="none" stroke="black" points="757.5,-456 757.5,-475 897.5,-475 897.5,-456 757.5,-456"/>
<text text-anchor="middle" x="827.5" y="-463" font-family="Helvetica,sans-Serif" font-size="10.00">Block::get_sample_name</text>
</a>
</g>
</g>
<!-- Node4&#45;&gt;Node6 -->
<g id="edge5" class="edge">
<title>Node4&#45;&gt;Node6</title>
<path fill="none" stroke="midnightblue" d="M691.15,-469.68C708.86,-469.13 728.58,-468.52 747.37,-467.94"/>
<polygon fill="midnightblue" stroke="midnightblue" points="747.5,-471.44 757.39,-467.63 747.29,-464.44 747.5,-471.44"/>
</g>
<!-- Node7 -->
<g id="node7" class="node">
<title>Node7</title>
<g id="a_node7"><a xlink:href="class_block.html#a640a910076d8b10533a9a80d740f8f03" target="_top" xlink:title="Metoda zapisujaca do klasy nazwe pliku z finalna (robocza) bryla">
<polygon fill="none" stroke="black" points="765.5,-532 765.5,-551 889.5,-551 889.5,-532 765.5,-532"/>
<text text-anchor="middle" x="827.5" y="-539" font-family="Helvetica,sans-Serif" font-size="10.00">Block::set_final_name</text>
</a>
</g>
</g>
<!-- Node4&#45;&gt;Node7 -->
<g id="edge6" class="edge">
<title>Node4&#45;&gt;Node7</title>
<path fill="none" stroke="midnightblue" d="M691.07,-485.47C700.62,-488.58 710.24,-492.24 719,-496.5 736.75,-505.13 737.17,-514.05 755,-522.5 760.01,-524.87 765.35,-526.98 770.79,-528.86"/>
<polygon fill="midnightblue" stroke="midnightblue" points="770.01,-532.28 780.6,-531.97 772.13,-525.61 770.01,-532.28"/>
</g>
<!-- Node8 -->
<g id="node8" class="node">
<title>Node8</title>
<g id="a_node8"><a xlink:href="class_block.html#acf20b290f1543e580ff1f2c6d98ff4c4" target="_top" xlink:title="Metoda zapisujaca do klasy nazwe pliku z wzorcowa bryla">
<polygon fill="none" stroke="black" points="758,-570 758,-589 897,-589 897,-570 758,-570"/>
<text text-anchor="middle" x="827.5" y="-577" font-family="Helvetica,sans-Serif" font-size="10.00">Block::set_sample_name</text>
</a>
</g>
</g>
<!-- Node4&#45;&gt;Node8 -->
<g id="edge7" class="edge">
<title>Node4&#45;&gt;Node8</title>
<path fill="none" stroke="midnightblue" d="M691.19,-481.74C701.14,-485.29 710.86,-490.07 719,-496.5 744.6,-516.74 729.2,-540.51 755,-560.5 757.33,-562.31 759.82,-563.94 762.42,-565.42"/>
<polygon fill="midnightblue" stroke="midnightblue" points="761.09,-568.67 771.61,-569.88 764.14,-562.37 761.09,-568.67"/>
</g>
<!-- Node9&#45;&gt;Node5 -->
<g id="edge9" class="edge">
<title>Node9&#45;&gt;Node5</title>
<path fill="none" stroke="midnightblue" d="M691.74,-436.43C701.2,-439.19 710.63,-442.79 719,-447.5 739,-458.75 735.2,-472.91 755,-484.5 758.85,-486.75 762.96,-488.74 767.2,-490.5"/>
<polygon fill="midnightblue" stroke="midnightblue" points="766.05,-493.8 776.64,-493.99 768.47,-487.23 766.05,-493.8"/>
</g>
<!-- Node9&#45;&gt;Node6 -->
<g id="edge10" class="edge">
<title>Node9&#45;&gt;Node6</title>
<path fill="none" stroke="midnightblue" d="M680.83,-437.04C707.19,-442.19 739.92,-448.58 767.67,-454.01"/>
<polygon fill="midnightblue" stroke="midnightblue" points="767.16,-457.47 777.65,-455.96 768.51,-450.6 767.16,-457.47"/>
</g>
<!-- Node10&#45;&gt;Node5 -->
<g id="edge12" class="edge">
<title>Node10&#45;&gt;Node5</title>
<path fill="none" stroke="midnightblue" d="M706.09,-510.93C722.03,-509.95 738.85,-508.91 754.7,-507.93"/>
<polygon fill="midnightblue" stroke="midnightblue" points="755.19,-511.41 764.96,-507.3 754.76,-504.42 755.19,-511.41"/>
</g>
<!-- Node10&#45;&gt;Node6 -->
<g id="edge13" class="edge">
<title>Node10&#45;&gt;Node6</title>
<path fill="none" stroke="midnightblue" d="M680.09,-505.96C692.81,-503.17 706.48,-499.94 719,-496.5 735.26,-492.03 738.84,-489.33 755,-484.5 762.79,-482.17 771.09,-479.83 779.18,-477.63"/>
<polygon fill="midnightblue" stroke="midnightblue" points="780.15,-481 788.9,-475.02 778.33,-474.23 780.15,-481"/>
</g>
<!-- Node10&#45;&gt;Node7 -->
<g id="edge14" class="edge">
<title>Node10&#45;&gt;Node7</title>
<path fill="none" stroke="midnightblue" d="M703.32,-525.03C720.2,-527.29 738.2,-529.7 755.09,-531.95"/>
<polygon fill="midnightblue" stroke="midnightblue" points="755.06,-535.48 765.43,-533.34 755.99,-528.54 755.06,-535.48"/>
</g>
<!-- Node10&#45;&gt;Node8 -->
<g id="edge15" class="edge">
<title>Node10&#45;&gt;Node8</title>
<path fill="none" stroke="midnightblue" d="M656.28,-525.13C680.93,-534.72 720.3,-549.57 755,-560.5 762.49,-562.86 770.49,-565.18 778.32,-567.34"/>
<polygon fill="midnightblue" stroke="midnightblue" points="777.53,-570.75 788.09,-569.98 779.35,-563.99 777.53,-570.75"/>
</g>
<!-- Node11&#45;&gt;Node7 -->
<g id="edge17" class="edge">
<title>Node11&#45;&gt;Node7</title>
<path fill="none" stroke="midnightblue" d="M669.04,-581.98C700.44,-573.91 745.65,-562.29 779.57,-553.56"/>
<polygon fill="midnightblue" stroke="midnightblue" points="780.45,-556.95 789.27,-551.07 778.71,-550.17 780.45,-556.95"/>
</g>
<!-- Node11&#45;&gt;Node8 -->
<g id="edge18" class="edge">
<title>Node11&#45;&gt;Node8</title>
<path fill="none" stroke="midnightblue" d="M697.04,-587.49C713.22,-586.49 730.75,-585.41 747.53,-584.37"/>
<polygon fill="midnightblue" stroke="midnightblue" points="748.09,-587.84 757.86,-583.73 747.66,-580.86 748.09,-587.84"/>
</g>
<!-- Node13 -->
<g id="node13" class="node">
<title>Node13</title>
<g id="a_node13"><a xlink:href="class_prism.html#a22c5467db5d960bddbaf9a52f55c55cb" target="_top" xlink:title="Metoda obracajaca graniastoslup o zadany kat w 3D wokol srodka figury">
<polygon fill="none" stroke="black" points="556,-380 556,-399 706,-399 706,-380 556,-380"/>
<text text-anchor="middle" x="631" y="-387" font-family="Helvetica,sans-Serif" font-size="10.00">Prism::rotation_around_cen</text>
</a>
</g>
</g>
<!-- Node12&#45;&gt;Node13 -->
<g id="edge20" class="edge">
<title>Node12&#45;&gt;Node13</title>
<path fill="none" stroke="midnightblue" d="M453.37,-337.08C475.6,-346.55 511.21,-360.96 543,-370.5 551.7,-373.11 560.99,-375.52 570.14,-377.69"/>
<polygon fill="midnightblue" stroke="midnightblue" points="569.45,-381.12 579.98,-379.95 571.01,-374.3 569.45,-381.12"/>
</g>
<!-- Node16 -->
<g id="node16" class="node">
<title>Node16</title>
<g id="a_node16"><a xlink:href="class_cuboid.html#a6c697c2d9b36a14c43c7328876d5a1f0" target="_top" xlink:title="Metoda obracajaca prostopadloscian o zadany kat w 3D wokol srodka figury">
<polygon fill="none" stroke="black" points="553,-292 553,-311 709,-311 709,-292 553,-292"/>
<text text-anchor="middle" x="631" y="-299" font-family="Helvetica,sans-Serif" font-size="10.00">Cuboid::rotation_around_cen</text>
</a>
</g>
</g>
<!-- Node12&#45;&gt;Node16 -->
<g id="edge24" class="edge">
<title>Node12&#45;&gt;Node16</title>
<path fill="none" stroke="midnightblue" d="M504.29,-317.97C518.18,-316.15 532.81,-314.23 546.99,-312.37"/>
<polygon fill="midnightblue" stroke="midnightblue" points="547.76,-315.8 557.22,-311.03 546.85,-308.86 547.76,-315.8"/>
</g>
<!-- Node19 -->
<g id="node19" class="node">
<title>Node19</title>
<g id="a_node19"><a xlink:href="class_drone.html#aea963b77f42c204504542a3d9190d762" target="_top" xlink:title="Metoda uzywana przy konstruowania drona Ustawia rotory w ten sposob, ze srodek ich dolnej podstawy je...">
<polygon fill="none" stroke="black" points="573.5,-330.5 573.5,-360.5 688.5,-360.5 688.5,-330.5 573.5,-330.5"/>
<text text-anchor="start" x="581.5" y="-348.5" font-family="Helvetica,sans-Serif" font-size="10.00">Drone::set_rotors_in</text>
<text text-anchor="middle" x="631" y="-337.5" font-family="Helvetica,sans-Serif" font-size="10.00">_place</text>
</a>
</g>
</g>
<!-- Node12&#45;&gt;Node19 -->
<g id="edge27" class="edge">
<title>Node12&#45;&gt;Node19</title>
<path fill="none" stroke="midnightblue" d="M506.54,-334.31C525.26,-336 545.19,-337.81 563.46,-339.47"/>
<polygon fill="midnightblue" stroke="midnightblue" points="563.15,-342.95 573.42,-340.37 563.78,-335.98 563.15,-342.95"/>
</g>
<!-- Node14 -->
<g id="node14" class="node">
<title>Node14</title>
<g id="a_node14"><a xlink:href="class_prism.html#ade146d341c0468030f8c1258b7fe1041" target="_top" xlink:title="Metoda przesuwajaca graniastoslup o zadany wektor w 3D">
<polygon fill="none" stroke="black" points="953,-358 953,-377 1056,-377 1056,-358 953,-358"/>
<text text-anchor="middle" x="1004.5" y="-365" font-family="Helvetica,sans-Serif" font-size="10.00">Prism::translation</text>
</a>
</g>
</g>
<!-- Node13&#45;&gt;Node14 -->
<g id="edge21" class="edge">
<title>Node13&#45;&gt;Node14</title>
<path fill="none" stroke="midnightblue" d="M673.71,-399.06C726.76,-409.71 820.96,-423.58 900,-408.5 927.04,-403.34 956.03,-391.23 976.43,-381.5"/>
<polygon fill="midnightblue" stroke="midnightblue" points="977.99,-384.63 985.44,-377.09 974.92,-378.34 977.99,-384.63"/>
</g>
<!-- Node15 -->
<g id="node15" class="node">
<title>Node15</title>
<g id="a_node15"><a xlink:href="class_prism.html#afed2c26932d5cb152fd620d2acbfbc3e" target="_top" xlink:title="Metoda przesuwajaca graniastoslup do srodka ukladu wspolrzednych (tak, ze srodek graniastoslupa pokry...">
<polygon fill="none" stroke="black" points="762,-380 762,-399 893,-399 893,-380 762,-380"/>
<text text-anchor="middle" x="827.5" y="-387" font-family="Helvetica,sans-Serif" font-size="10.00">Prism::translation_to_O</text>
</a>
</g>
</g>
<!-- Node13&#45;&gt;Node15 -->
<g id="edge22" class="edge">
<title>Node13&#45;&gt;Node15</title>
<path fill="none" stroke="midnightblue" d="M706.09,-389.5C721,-389.5 736.69,-389.5 751.63,-389.5"/>
<polygon fill="midnightblue" stroke="midnightblue" points="751.84,-393 761.84,-389.5 751.84,-386 751.84,-393"/>
</g>
<!-- Node15&#45;&gt;Node14 -->
<g id="edge23" class="edge">
<title>Node15&#45;&gt;Node14</title>
<path fill="none" stroke="midnightblue" d="M893.17,-381.37C909.3,-379.34 926.55,-377.17 942.5,-375.17"/>
<polygon fill="midnightblue" stroke="midnightblue" points="943.28,-378.6 952.77,-373.88 942.41,-371.65 943.28,-378.6"/>
</g>
<!-- Node17 -->
<g id="node17" class="node">
<title>Node17</title>
<g id="a_node17"><a xlink:href="class_cuboid.html#a3f6b1b9ea7de433af5b0d462d29f4272" target="_top" xlink:title="Metoda przesuwajaca prostopadloscian o zadany kat w 3D">
<polygon fill="none" stroke="black" points="773,-216 773,-235 882,-235 882,-216 773,-216"/>
<text text-anchor="middle" x="827.5" y="-223" font-family="Helvetica,sans-Serif" font-size="10.00">Cuboid::translation</text>
</a>
</g>
</g>
<!-- Node16&#45;&gt;Node17 -->
<g id="edge25" class="edge">
<title>Node16&#45;&gt;Node17</title>
<path fill="none" stroke="midnightblue" d="M696.81,-291.92C704.55,-289.46 712.13,-286.37 719,-282.5 739.26,-271.07 735,-256.38 755,-244.5 758.66,-242.32 762.58,-240.39 766.62,-238.68"/>
<polygon fill="midnightblue" stroke="midnightblue" points="768.09,-241.86 776.22,-235.06 765.62,-235.31 768.09,-241.86"/>
</g>
<!-- Node18 -->
<g id="node18" class="node">
<title>Node18</title>
<g id="a_node18"><a xlink:href="class_cuboid.html#a42bdce7c214e759cb6ea94d4f547a5b9" target="_top" xlink:title="Metoda przesuwajaca prostopadloscian do (0,0,0)">
<polygon fill="none" stroke="black" points="759,-254 759,-273 896,-273 896,-254 759,-254"/>
<text text-anchor="middle" x="827.5" y="-261" font-family="Helvetica,sans-Serif" font-size="10.00">Cuboid::translation_to_O</text>
</a>
</g>
</g>
<!-- Node16&#45;&gt;Node18 -->
<g id="edge26" class="edge">
<title>Node16&#45;&gt;Node18</title>
<path fill="none" stroke="midnightblue" d="M680.83,-291.96C707.19,-286.81 739.92,-280.42 767.67,-274.99"/>
<polygon fill="midnightblue" stroke="midnightblue" points="768.51,-278.4 777.65,-273.04 767.16,-271.53 768.51,-278.4"/>
</g>
<!-- Node20 -->
<g id="node20" class="node">
<title>Node20</title>
<g id="a_node20"><a xlink:href="class_cuboid.html#a99d30564d6129e6905c5333e04df9606" target="_top" xlink:title="Metoda zwracajaca wierzcholki prostopadloscianu do Vector3D">
<polygon fill="none" stroke="black" points="780,-292 780,-311 875,-311 875,-292 780,-292"/>
<text text-anchor="middle" x="827.5" y="-299" font-family="Helvetica,sans-Serif" font-size="10.00">Cuboid::get_cub</text>
</a>
</g>
</g>
<!-- Node19&#45;&gt;Node20 -->
<g id="edge28" class="edge">
<title>Node19&#45;&gt;Node20</title>
<path fill="none" stroke="midnightblue" d="M688.52,-332.71C715.67,-326.57 747.99,-319.26 774.52,-313.26"/>
<polygon fill="midnightblue" stroke="midnightblue" points="775.41,-316.65 784.39,-311.03 773.86,-309.82 775.41,-316.65"/>
</g>
<!-- Node21 -->
<g id="node21" class="node">
<title>Node21</title>
<g id="a_node21"><a xlink:href="class_prism.html#a4e2b0b9c37d6a53af869522a4bf364ac" target="_top" xlink:title="Metoda przesuwajaca graniastoslup o zadany wektor w 3D w taki sposob, ze srodek jego dolnej podstawy ...">
<polygon fill="none" stroke="black" points="776,-330.5 776,-360.5 879,-360.5 879,-330.5 776,-330.5"/>
<text text-anchor="start" x="784" y="-348.5" font-family="Helvetica,sans-Serif" font-size="10.00">Prism::translation</text>
<text text-anchor="middle" x="827.5" y="-337.5" font-family="Helvetica,sans-Serif" font-size="10.00">_of_lower_cen</text>
</a>
</g>
</g>
<!-- Node19&#45;&gt;Node21 -->
<g id="edge29" class="edge">
<title>Node19&#45;&gt;Node21</title>
<path fill="none" stroke="midnightblue" d="M688.52,-345.5C712.66,-345.5 740.89,-345.5 765.51,-345.5"/>
<polygon fill="midnightblue" stroke="midnightblue" points="765.81,-349 775.81,-345.5 765.81,-342 765.81,-349"/>
</g>
<!-- Node21&#45;&gt;Node14 -->
<g id="edge30" class="edge">
<title>Node21&#45;&gt;Node14</title>
<path fill="none" stroke="midnightblue" d="M879.12,-351.86C899.07,-354.37 922.15,-357.27 942.98,-359.89"/>
<polygon fill="midnightblue" stroke="midnightblue" points="942.64,-363.38 953,-361.15 943.51,-356.43 942.64,-363.38"/>
</g>
<!-- Node23 -->
<g id="node23" class="node">
<title>Node23</title>
<g id="a_node23"><a xlink:href="class_cuboid.html#a08fae08a1c8c70ada48ce3af46c82eee" target="_top" xlink:title="Metoda zwracajaca wysokosc prostopadloscianu">
<polygon fill="none" stroke="black" points="577,-254 577,-273 685,-273 685,-254 577,-254"/>
<text text-anchor="middle" x="631" y="-261" font-family="Helvetica,sans-Serif" font-size="10.00">Cuboid::get_height</text>
</a>
</g>
</g>
<!-- Node22&#45;&gt;Node23 -->
<g id="edge32" class="edge">
<title>Node22&#45;&gt;Node23</title>
<path fill="none" stroke="midnightblue" d="M491.6,-269.08C515.36,-268.12 542.69,-267.02 566.75,-266.05"/>
<polygon fill="midnightblue" stroke="midnightblue" points="566.99,-269.54 576.84,-265.64 566.71,-262.55 566.99,-269.54"/>
</g>
<!-- Node25 -->
<g id="node25" class="node">
<title>Node25</title>
<g id="a_node25"><a xlink:href="class_cuboid.html#aafa18740d9c98ca928395b9873a9c63d" target="_top" xlink:title="Metoda zwracajaca punkt centralny (czyli taki, ktorego odleglosci do kazdego wierzcholka sa rowne) pr...">
<polygon fill="none" stroke="black" points="572.5,-178 572.5,-197 689.5,-197 689.5,-178 572.5,-178"/>
<text text-anchor="middle" x="631" y="-185" font-family="Helvetica,sans-Serif" font-size="10.00">Cuboid::centre_point</text>
</a>
</g>
</g>
<!-- Node24&#45;&gt;Node25 -->
<g id="edge34" class="edge">
<title>Node24&#45;&gt;Node25</title>
<path fill="none" stroke="midnightblue" d="M482.62,-216.46C509.73,-211.13 543.16,-204.56 571.33,-199.03"/>
<polygon fill="midnightblue" stroke="midnightblue" points="572.31,-202.4 581.45,-197.04 570.96,-195.53 572.31,-202.4"/>
</g>
<!-- Node26 -->
<g id="node26" class="node">
<title>Node26</title>
<g id="a_node26"><a xlink:href="class_drone.html#a9684cd7ce04b7e6191f3d6b3a745370b" target="_top" xlink:title="Przesuwa drona o zadany wektor w 3D">
<polygon fill="none" stroke="black" points="579,-216 579,-235 683,-235 683,-216 579,-216"/>
<text text-anchor="middle" x="631" y="-223" font-family="Helvetica,sans-Serif" font-size="10.00">Drone::translation</text>
</a>
</g>
</g>
<!-- Node24&#45;&gt;Node26 -->
<g id="edge35" class="edge">
<title>Node24&#45;&gt;Node26</title>
<path fill="none" stroke="midnightblue" d="M482.62,-226.24C508.8,-226.11 540.87,-225.95 568.4,-225.81"/>
<polygon fill="midnightblue" stroke="midnightblue" points="568.73,-229.31 578.71,-225.76 568.69,-222.31 568.73,-229.31"/>
</g>
<!-- Node26&#45;&gt;Node14 -->
<g id="edge36" class="edge">
<title>Node26&#45;&gt;Node14</title>
<path fill="none" stroke="midnightblue" d="M679.93,-216C746.61,-203.8 863.31,-186.47 900,-206.5 956.03,-237.09 986.26,-312.45 997.85,-348.15"/>
<polygon fill="midnightblue" stroke="midnightblue" points="994.56,-349.34 1000.86,-357.86 1001.24,-347.27 994.56,-349.34"/>
</g>
<!-- Node26&#45;&gt;Node17 -->
<g id="edge37" class="edge">
<title>Node26&#45;&gt;Node17</title>
<path fill="none" stroke="midnightblue" d="M683.1,-225.5C707.45,-225.5 736.81,-225.5 762.61,-225.5"/>
<polygon fill="midnightblue" stroke="midnightblue" points="762.68,-229 772.68,-225.5 762.68,-222 762.68,-229"/>
</g>
<!-- Node29 -->
<g id="node29" class="node">
<title>Node29</title>
<g id="a_node29"><a xlink:href="class_pz_g_1_1_lacze_do_g_n_u_plota.html#aa815ce8ec16e12fc246cf422e562869e" target="_top" xlink:title="Dodaje nazwę pliku.">
<polygon fill="none" stroke="black" points="365.5,-142.5 365.5,-172.5 495.5,-172.5 495.5,-142.5 365.5,-142.5"/>
<text text-anchor="start" x="373.5" y="-160.5" font-family="Helvetica,sans-Serif" font-size="10.00">PzG::LaczeDoGNUPlota</text>
<text text-anchor="middle" x="430.5" y="-149.5" font-family="Helvetica,sans-Serif" font-size="10.00">::DodajNazwePliku</text>
</a>
</g>
</g>
<!-- Node28&#45;&gt;Node29 -->
<g id="edge40" class="edge">
<title>Node28&#45;&gt;Node29</title>
<path fill="none" stroke="midnightblue" d="M318.13,-154.44C330.3,-154.77 342.99,-155.12 355.26,-155.46"/>
<polygon fill="midnightblue" stroke="midnightblue" points="355.36,-158.96 365.45,-155.74 355.55,-151.97 355.36,-158.96"/>
</g>
<!-- Node28&#45;&gt;Node31 -->
<g id="edge42" class="edge">
<title>Node28&#45;&gt;Node31</title>
<path fill="none" stroke="midnightblue" d="M286.99,-142.95C307.57,-137.98 333.4,-131.73 357.39,-125.93"/>
<polygon fill="midnightblue" stroke="midnightblue" points="358.29,-129.32 367.18,-123.57 356.64,-122.51 358.29,-129.32"/>
</g>
<!-- Node30 -->
<g id="node30" class="node">
<title>Node30</title>
<g id="a_node30"><a xlink:href="namespace_pz_g.html#ae1aad0c681853d7e47da4cdfccefc102" target="_top" xlink:title="Funkcja pomocnicza, sprawdza czy plik o podanej nazwie jest na dysku.">
<polygon fill="none" stroke="black" points="583.5,-140 583.5,-159 678.5,-159 678.5,-140 583.5,-140"/>
<text text-anchor="middle" x="631" y="-147" font-family="Helvetica,sans-Serif" font-size="10.00">PzG::CzyJestPlik</text>
</a>
</g>
</g>
<!-- Node29&#45;&gt;Node30 -->
<g id="edge41" class="edge">
<title>Node29&#45;&gt;Node30</title>
<path fill="none" stroke="midnightblue" d="M495.67,-154.91C520.65,-153.91 549.03,-152.76 573.24,-151.79"/>
<polygon fill="midnightblue" stroke="midnightblue" points="573.49,-155.28 583.34,-151.38 573.21,-148.29 573.49,-155.28"/>
</g>
<!-- Node32 -->
<g id="node32" class="node">
<title>Node32</title>
<g id="a_node32"><a xlink:href="namespace_pz_g.html#aa010184f31b26bb561b42f22438b821e" target="_top" xlink:title="Funkcja pomocnicza, dopisuje do polecenia wpisy związane z rysowaniem z pliku.">
<polygon fill="none" stroke="black" points="548,-99 548,-118 714,-118 714,-99 548,-99"/>
<text text-anchor="middle" x="631" y="-106" font-family="Helvetica,sans-Serif" font-size="10.00">PzG::DopiszRysowanieZPlikow</text>
</a>
</g>
</g>
<!-- Node31&#45;&gt;Node32 -->
<g id="edge43" class="edge">
<title>Node31&#45;&gt;Node32</title>
<path fill="none" stroke="midnightblue" d="M495.67,-108.5C509.07,-108.5 523.45,-108.5 537.64,-108.5"/>
<polygon fill="midnightblue" stroke="midnightblue" points="537.92,-112 547.92,-108.5 537.92,-105 537.92,-112"/>
</g>
<!-- Node33 -->
<g id="node33" class="node">
<title>Node33</title>
<g id="a_node33"><a xlink:href="namespace_pz_g.html#a7227cb39c785b1c746b6bb5515c0b781" target="_top" xlink:title="Dodaje do listy rysowanych punktów, punkty o różnych rozmiarach.">
<polygon fill="none" stroke="black" points="543,-49.5 543,-79.5 719,-79.5 719,-49.5 543,-49.5"/>
<text text-anchor="start" x="551" y="-67.5" font-family="Helvetica,sans-Serif" font-size="10.00">PzG::DopiszRysowanieZRoznych</text>
<text text-anchor="middle" x="631" y="-56.5" font-family="Helvetica,sans-Serif" font-size="10.00">Punktow</text>
</a>
</g>
</g>
<!-- Node31&#45;&gt;Node33 -->
<g id="edge44" class="edge">
<title>Node31&#45;&gt;Node33</title>
<path fill="none" stroke="midnightblue" d="M495.67,-94.28C513.72,-90.27 533.55,-85.88 552.3,-81.72"/>
<polygon fill="midnightblue" stroke="midnightblue" points="553.28,-85.09 562.29,-79.51 551.77,-78.26 553.28,-85.09"/>
</g>
<!-- Node34 -->
<g id="node34" class="node">
<title>Node34</title>
<g id="a_node34"><a xlink:href="namespace_pz_g.html#a169c311f0e0b6ffadcd44e91e749f72d" target="_top" xlink:title="Wczytuje z pliku listę punktów.">
<polygon fill="none" stroke="black" points="755,-49.5 755,-79.5 900,-79.5 900,-49.5 755,-49.5"/>
<text text-anchor="start" x="763" y="-67.5" font-family="Helvetica,sans-Serif" font-size="10.00">PzG::WczytajListeRoznych</text>
<text text-anchor="middle" x="827.5" y="-56.5" font-family="Helvetica,sans-Serif" font-size="10.00">Punktow</text>
</a>
</g>
</g>
<!-- Node33&#45;&gt;Node34 -->
<g id="edge45" class="edge">
<title>Node33&#45;&gt;Node34</title>
<path fill="none" stroke="midnightblue" d="M719.01,-64.5C727.5,-64.5 736.09,-64.5 744.52,-64.5"/>
<polygon fill="midnightblue" stroke="midnightblue" points="744.71,-68 754.71,-64.5 744.71,-61 744.71,-68"/>
</g>
<!-- Node35 -->
<g id="node35" class="node">
<title>Node35</title>
<g id="a_node35"><a xlink:href="class_pz_g_1_1_atrybuty_rysowania.html#ab068535b4d2f755c394557d1da72a4eb" target="_top" xlink:title="Zmienia kolor rysowania.">
<polygon fill="none" stroke="black" points="936,-49.5 936,-79.5 1073,-79.5 1073,-49.5 936,-49.5"/>
<text text-anchor="start" x="944" y="-67.5" font-family="Helvetica,sans-Serif" font-size="10.00">PzG::AtrybutyRysowania</text>
<text text-anchor="middle" x="1004.5" y="-56.5" font-family="Helvetica,sans-Serif" font-size="10.00">::ZmienKolor</text>
</a>
</g>
</g>
<!-- Node34&#45;&gt;Node35 -->
<g id="edge46" class="edge">
<title>Node34&#45;&gt;Node35</title>
<path fill="none" stroke="midnightblue" d="M900.18,-64.5C908.57,-64.5 917.16,-64.5 925.63,-64.5"/>
<polygon fill="midnightblue" stroke="midnightblue" points="925.87,-68 935.87,-64.5 925.87,-61 925.87,-68"/>
</g>
<!-- Node36 -->
<g id="node36" class="node">
<title>Node36</title>
<g id="a_node36"><a xlink:href="class_pz_g_1_1_atrybuty_rysowania.html#af4b140eb03bc10b6fd816fad63f8372e" target="_top" xlink:title="Zmienia rozmiar rysowania.">
<polygon fill="none" stroke="black" points="936,-0.5 936,-30.5 1073,-30.5 1073,-0.5 936,-0.5"/>
<text text-anchor="start" x="944" y="-18.5" font-family="Helvetica,sans-Serif" font-size="10.00">PzG::AtrybutyRysowania</text>
<text text-anchor="middle" x="1004.5" y="-7.5" font-family="Helvetica,sans-Serif" font-size="10.00">::ZmienRozmiar</text>
</a>
</g>
</g>
<!-- Node34&#45;&gt;Node36 -->
<g id="edge47" class="edge">
<title>Node34&#45;&gt;Node36</title>
<path fill="none" stroke="midnightblue" d="M882.43,-49.4C900.65,-44.3 921.15,-38.56 940.04,-33.27"/>
<polygon fill="midnightblue" stroke="midnightblue" points="941.06,-36.62 949.74,-30.55 939.17,-29.88 941.06,-36.62"/>
</g>
<!-- Node37 -->
<g id="node37" class="node">
<title>Node37</title>
<g id="a_node37"><a xlink:href="class_pz_g_1_1_atrybuty_rysowania.html#a2ac97706124b14072715ecf3f07e82b4" target="_top" xlink:title="Zmienia styl rysowania.">
<polygon fill="none" stroke="black" points="936,-98.5 936,-128.5 1073,-128.5 1073,-98.5 936,-98.5"/>
<text text-anchor="start" x="944" y="-116.5" font-family="Helvetica,sans-Serif" font-size="10.00">PzG::AtrybutyRysowania</text>
<text text-anchor="middle" x="1004.5" y="-105.5" font-family="Helvetica,sans-Serif" font-size="10.00">::ZmienStyl</text>
</a>
</g>
</g>
<!-- Node34&#45;&gt;Node37 -->
<g id="edge48" class="edge">
<title>Node34&#45;&gt;Node37</title>
<path fill="none" stroke="midnightblue" d="M882.43,-79.6C900.65,-84.7 921.15,-90.44 940.04,-95.73"/>
<polygon fill="midnightblue" stroke="midnightblue" points="939.17,-99.12 949.74,-98.45 941.06,-92.38 939.17,-99.12"/>
</g>
<!-- Node38&#45;&gt;Node5 -->
<g id="edge52" class="edge">
<title>Node38&#45;&gt;Node5</title>
<path fill="none" stroke="midnightblue" d="M488.24,-554C546.63,-553.53 639.97,-550.02 719,-534.5 735.55,-531.25 738.84,-527.33 755,-522.5 762.79,-520.17 771.09,-517.83 779.18,-515.63"/>
<polygon fill="midnightblue" stroke="midnightblue" points="780.15,-519 788.9,-513.02 778.33,-512.23 780.15,-519"/>
</g>
<!-- Node39 -->
<g id="node39" class="node">
<title>Node39</title>
<g id="a_node39"><a xlink:href="class_cuboid.html#abc62d20a2f1418af1c35e369da77f0fc" target="_top" xlink:title=" ">
<polygon fill="none" stroke="black" points="567,-620 567,-639 695,-639 695,-620 567,-620"/>
<text text-anchor="middle" x="631" y="-627" font-family="Helvetica,sans-Serif" font-size="10.00">Cuboid::Cuboid_To_File</text>
</a>
</g>
</g>
<!-- Node38&#45;&gt;Node39 -->
<g id="edge50" class="edge">
<title>Node38&#45;&gt;Node39</title>
<path fill="none" stroke="midnightblue" d="M456.35,-568.56C478.41,-581.36 511.89,-599.36 543,-610.5 550.37,-613.14 558.23,-615.48 566.09,-617.53"/>
<polygon fill="midnightblue" stroke="midnightblue" points="565.47,-620.98 576.02,-619.98 567.15,-614.18 565.47,-620.98"/>
</g>
<!-- Node41 -->
<g id="node41" class="node">
<title>Node41</title>
<g id="a_node41"><a xlink:href="class_prism.html#a2de0dab6d117fc3c8dcbc3c384d0fccd" target="_top" xlink:title=" ">
<polygon fill="none" stroke="black" points="573,-658 573,-677 689,-677 689,-658 573,-658"/>
<text text-anchor="middle" x="631" y="-665" font-family="Helvetica,sans-Serif" font-size="10.00">Prism::Prism_To_File</text>
</a>
</g>
</g>
<!-- Node38&#45;&gt;Node41 -->
<g id="edge53" class="edge">
<title>Node38&#45;&gt;Node41</title>
<path fill="none" stroke="midnightblue" d="M444.63,-568.62C463.95,-589.89 502.22,-628.28 543,-648.5 549.38,-651.66 556.28,-654.3 563.31,-656.51"/>
<polygon fill="midnightblue" stroke="midnightblue" points="562.36,-659.87 572.93,-659.25 564.27,-653.14 562.36,-659.87"/>
</g>
<!-- Node40 -->
<g id="node40" class="node">
<title>Node40</title>
<g id="a_node40"><a xlink:href="class_cuboid.html#a12a97376443b1a15ae8342c1c75b3e1e" target="_top" xlink:title="Metoda wypisania odpowiednich wierzcholkow do pliku zgodnie z zaproponowanym sposobem zadaniu dron">
<polygon fill="none" stroke="black" points="760,-620 760,-639 895,-639 895,-620 760,-620"/>
<text text-anchor="middle" x="827.5" y="-627" font-family="Helvetica,sans-Serif" font-size="10.00">Cuboid::print_cuboid_3D</text>
</a>
</g>
</g>
<!-- Node39&#45;&gt;Node40 -->
<g id="edge51" class="edge">
<title>Node39&#45;&gt;Node40</title>
<path fill="none" stroke="midnightblue" d="M695.15,-629.5C712.57,-629.5 731.66,-629.5 749.76,-629.5"/>
<polygon fill="midnightblue" stroke="midnightblue" points="749.99,-633 759.99,-629.5 749.99,-626 749.99,-633"/>
</g>
<!-- Node42 -->
<g id="node42" class="node">
<title>Node42</title>
<g id="a_node42"><a xlink:href="class_prism.html#a764c6940e4fb65303981e8b877b28561" target="_top" xlink:title="Metoda wypisania odpowiednich wierzcholkow do pliku zgodnie z zaproponowanym sposobem zadaniu dron">
<polygon fill="none" stroke="black" points="765,-658 765,-677 890,-677 890,-658 765,-658"/>
<text text-anchor="middle" x="827.5" y="-665" font-family="Helvetica,sans-Serif" font-size="10.00">Prism::print_prism_3D</text>
</a>
</g>
</g>
<!-- Node41&#45;&gt;Node42 -->
<g id="edge54" class="edge">
<title>Node41&#45;&gt;Node42</title>
<path fill="none" stroke="midnightblue" d="M689.04,-667.5C709.56,-667.5 732.97,-667.5 754.59,-667.5"/>
<polygon fill="midnightblue" stroke="midnightblue" points="754.7,-671 764.7,-667.5 754.7,-664 754.7,-671"/>
</g>
<!-- Node43&#45;&gt;Node13 -->
<g id="edge57" class="edge">
<title>Node43&#45;&gt;Node13</title>
<path fill="none" stroke="midnightblue" d="M310.23,-389.5C374.37,-389.5 474.4,-389.5 545.48,-389.5"/>
<polygon fill="midnightblue" stroke="midnightblue" points="545.76,-393 555.76,-389.5 545.76,-386 545.76,-393"/>
</g>
<!-- Node43&#45;&gt;Node38 -->
<g id="edge56" class="edge">
<title>Node43&#45;&gt;Node38</title>
<path fill="none" stroke="midnightblue" d="M262.73,-404.53C283.15,-424.54 320.69,-460.86 354,-490.5 369.78,-504.54 387.94,-519.72 402.5,-531.67"/>
<polygon fill="midnightblue" stroke="midnightblue" points="400.65,-534.67 410.6,-538.29 405.07,-529.25 400.65,-534.67"/>
</g>
</g>
</svg>
