<?xml version="1.0" encoding="UTF-8" standalone="no"?>
<!DOCTYPE svg PUBLIC "-//W3C//DTD SVG 1.1//EN"
 "http://www.w3.org/Graphics/SVG/1.1/DTD/svg11.dtd">
<!-- Generated by graphviz version 2.43.0 (0)
 -->
<!-- Title: Drone::Drone_motion_after_update Pages: 1 -->
<svg width="1197pt" height="704pt"
 viewBox="0.00 0.00 1197.00 704.00" xmlns="http://www.w3.org/2000/svg" xmlns:xlink="http://www.w3.org/1999/xlink">
<g id="graph0" class="graph" transform="scale(1 1) rotate(0) translate(4 700)">
<title>Drone::Drone_motion_after_update</title>
<!-- Node1 -->
<g id="node1" class="node">
<title>Node1</title>
<g id="a_node1"><a xlink:title="Metoda obliczajaca i przeprowadzajaca koncowy ruch drona (obrot o kat i koncowy przelot z zadania 5....">
<polygon fill="#bfbfbf" stroke="black" points="0,-166 0,-196 121,-196 121,-166 0,-166"/>
<text text-anchor="start" x="8" y="-184" font-family="Helvetica,sans-Serif" font-size="10.00">Drone::Drone_motion</text>
<text text-anchor="middle" x="60.5" y="-173" font-family="Helvetica,sans-Serif" font-size="10.00">_after_update</text>
</a>
</g>
</g>
<!-- Node2 -->
<g id="node2" class="node">
<title>Node2</title>
<g id="a_node2"><a xlink:href="class_drone.html#af03af60a9b92e4191a7e66b5c20b52bb" target="_top" xlink:title="Metoda zamieniajaca drona na tego z pliku sample.">
<polygon fill="none" stroke="black" points="344,-393 344,-423 466,-423 466,-393 344,-393"/>
<text text-anchor="start" x="352" y="-411" font-family="Helvetica,sans-Serif" font-size="10.00">Drone::Drone_change</text>
<text text-anchor="middle" x="405" y="-400" font-family="Helvetica,sans-Serif" font-size="10.00">_to_sample</text>
</a>
</g>
</g>
<!-- Node1&#45;&gt;Node2 -->
<g id="edge1" class="edge">
<title>Node1&#45;&gt;Node2</title>
<path fill="none" stroke="midnightblue" d="M66.33,-196.33C77.16,-228.16 106.47,-301.65 157,-340 208.34,-378.97 280.7,-395.61 333.83,-402.71"/>
<polygon fill="midnightblue" stroke="midnightblue" points="333.5,-406.2 343.86,-403.97 334.37,-399.25 333.5,-406.2"/>
</g>
<!-- Node24 -->
<g id="node24" class="node">
<title>Node24</title>
<g id="a_node24"><a xlink:href="class_drone.html#a6662bd8203e8c9a0721c457b3612a7c1" target="_top" xlink:title="Metoda uzywana przy konstruowania drona przesuwa drona w ten sposob, ze Vector3D centre prostopadlosc...">
<polygon fill="none" stroke="black" points="542,-324 542,-354 646,-354 646,-324 542,-324"/>
<text text-anchor="start" x="550" y="-342" font-family="Helvetica,sans-Serif" font-size="10.00">Drone::translation</text>
<text text-anchor="middle" x="594" y="-331" font-family="Helvetica,sans-Serif" font-size="10.00">_to_pos</text>
</a>
</g>
</g>
<!-- Node1&#45;&gt;Node24 -->
<g id="edge67" class="edge">
<title>Node1&#45;&gt;Node24</title>
<path fill="none" stroke="midnightblue" d="M69.32,-196.31C83.15,-221.61 114.53,-271.56 157,-294 220.49,-327.54 427.31,-336.08 531.63,-338.26"/>
<polygon fill="midnightblue" stroke="midnightblue" points="531.64,-341.76 541.71,-338.46 531.78,-334.76 531.64,-341.76"/>
</g>
<!-- Node27 -->
<g id="node27" class="node">
<title>Node27</title>
<g id="a_node27"><a xlink:href="class_drone.html#ab06e550555b07d95a4e40b55f539e2bd" target="_top" xlink:title="Oczyszcza plik ze sciezka.">
<polygon fill="none" stroke="black" points="162,-76.5 162,-95.5 299,-95.5 299,-76.5 162,-76.5"/>
<text text-anchor="middle" x="230.5" y="-83.5" font-family="Helvetica,sans-Serif" font-size="10.00">Drone::Drone_path_clear</text>
</a>
</g>
</g>
<!-- Node1&#45;&gt;Node27 -->
<g id="edge38" class="edge">
<title>Node1&#45;&gt;Node27</title>
<path fill="none" stroke="midnightblue" d="M76.31,-165.88C93.99,-148.69 125.17,-120.94 157,-105 161.68,-102.66 166.68,-100.58 171.78,-98.75"/>
<polygon fill="midnightblue" stroke="midnightblue" points="173.25,-101.95 181.66,-95.51 171.07,-95.3 173.25,-101.95"/>
</g>
<!-- Node28 -->
<g id="node28" class="node">
<title>Node28</title>
<g id="a_node28"><a xlink:href="class_drone.html#ae1e0bb7bf7063795bce4bbf5ef99cb74" target="_top" xlink:title="Metoda zapisujaca sciezke do pliku oraz do lacza.">
<polygon fill="none" stroke="black" points="159,-114.5 159,-133.5 302,-133.5 302,-114.5 159,-114.5"/>
<text text-anchor="middle" x="230.5" y="-121.5" font-family="Helvetica,sans-Serif" font-size="10.00">Drone::Drone_path_to_file</text>
</a>
</g>
</g>
<!-- Node1&#45;&gt;Node28 -->
<g id="edge39" class="edge">
<title>Node1&#45;&gt;Node28</title>
<path fill="none" stroke="midnightblue" d="M104.72,-165.93C121.08,-160.26 139.88,-153.79 157,-148 167.87,-144.32 179.67,-140.39 190.53,-136.8"/>
<polygon fill="midnightblue" stroke="midnightblue" points="191.79,-140.07 200.19,-133.61 189.6,-133.42 191.79,-140.07"/>
</g>
<!-- Node31 -->
<g id="node31" class="node">
<title>Node31</title>
<g id="a_node31"><a xlink:href="class_pz_g_1_1_lacze_do_g_n_u_plota.html#a065f5b8402737cc62b0ad4f66d028335" target="_top" xlink:title="Generuje polecenie rysowania i przesyła je do gnuplota.">
<polygon fill="none" stroke="black" points="340,-141 340,-171 470,-171 470,-141 340,-141"/>
<text text-anchor="start" x="348" y="-159" font-family="Helvetica,sans-Serif" font-size="10.00">PzG::LaczeDoGNUPlota</text>
<text text-anchor="middle" x="405" y="-148" font-family="Helvetica,sans-Serif" font-size="10.00">::Rysuj</text>
</a>
</g>
</g>
<!-- Node1&#45;&gt;Node31 -->
<g id="edge66" class="edge">
<title>Node1&#45;&gt;Node31</title>
<path fill="none" stroke="midnightblue" d="M121.16,-176.65C179.07,-172.42 267.15,-165.99 329.61,-161.43"/>
<polygon fill="midnightblue" stroke="midnightblue" points="330.07,-164.91 339.79,-160.69 329.56,-157.92 330.07,-164.91"/>
</g>
<!-- Node38 -->
<g id="node38" class="node">
<title>Node38</title>
<g id="a_node38"><a xlink:href="class_drone.html#af052f6bb793d1229b99b16b800b95b82" target="_top" xlink:title="Metoda animujaca obrot drona i wyrysowujaca calosc w gnuplocie.">
<polygon fill="none" stroke="black" points="168,-229 168,-259 293,-259 293,-229 168,-229"/>
<text text-anchor="start" x="176" y="-247" font-family="Helvetica,sans-Serif" font-size="10.00">Drone::Drone_rotation</text>
<text text-anchor="middle" x="230.5" y="-236" font-family="Helvetica,sans-Serif" font-size="10.00">_animation</text>
</a>
</g>
</g>
<!-- Node1&#45;&gt;Node38 -->
<g id="edge49" class="edge">
<title>Node1&#45;&gt;Node38</title>
<path fill="none" stroke="midnightblue" d="M101.74,-196.09C125.14,-204.86 154.81,-215.99 179.68,-225.32"/>
<polygon fill="midnightblue" stroke="midnightblue" points="178.71,-228.69 189.3,-228.92 181.16,-222.14 178.71,-228.69"/>
</g>
<!-- Node39 -->
<g id="node39" class="node">
<title>Node39</title>
<g id="a_node39"><a xlink:href="class_drone.html#aae0029f50083a01fe75c7d504c2fe5b9" target="_top" xlink:title="Metoda zapisujaca parametry drona do plikow (do plikow final kazdego z elementow)">
<polygon fill="none" stroke="black" points="536.5,-216 536.5,-246 651.5,-246 651.5,-216 536.5,-216"/>
<text text-anchor="start" x="544.5" y="-234" font-family="Helvetica,sans-Serif" font-size="10.00">Drone::Print_to_files</text>
<text text-anchor="middle" x="594" y="-223" font-family="Helvetica,sans-Serif" font-size="10.00">_drone</text>
</a>
</g>
</g>
<!-- Node1&#45;&gt;Node39 -->
<g id="edge64" class="edge">
<title>Node1&#45;&gt;Node39</title>
<path fill="none" stroke="midnightblue" d="M121.18,-186.61C221.17,-196.02 421.84,-214.9 526.33,-224.73"/>
<polygon fill="midnightblue" stroke="midnightblue" points="526.15,-228.23 536.44,-225.68 526.81,-221.26 526.15,-228.23"/>
</g>
<!-- Node44 -->
<g id="node44" class="node">
<title>Node44</title>
<g id="a_node44"><a xlink:href="class_drone.html#aedb04b80609b22ff4eb4a957bc149a48" target="_top" xlink:title="Metoda animujaca obrot rotorow i zapisujaca to w plikach. Metoda sluzy jako metoda pomocnicza,...">
<polygon fill="none" stroke="black" points="341.5,-267 341.5,-297 468.5,-297 468.5,-267 341.5,-267"/>
<text text-anchor="start" x="349.5" y="-285" font-family="Helvetica,sans-Serif" font-size="10.00">Drone::Rotors_rotation</text>
<text text-anchor="middle" x="405" y="-274" font-family="Helvetica,sans-Serif" font-size="10.00">_animation</text>
</a>
</g>
</g>
<!-- Node1&#45;&gt;Node44 -->
<g id="edge65" class="edge">
<title>Node1&#45;&gt;Node44</title>
<path fill="none" stroke="midnightblue" d="M72.44,-196C88.4,-216.52 120.19,-252.54 157,-268 212.11,-291.15 280.29,-293.27 331.05,-290.38"/>
<polygon fill="midnightblue" stroke="midnightblue" points="331.53,-293.86 341.28,-289.72 331.08,-286.87 331.53,-293.86"/>
</g>
<!-- Node45 -->
<g id="node45" class="node">
<title>Node45</title>
<g id="a_node45"><a xlink:href="class_drone.html#aec9020953e309490950f961a2ce97402" target="_top" xlink:title="Metoda aktualizujaca sciezke drona w przypadku braku mozliwosci ladowania w okreslonym miejscu.">
<polygon fill="none" stroke="black" points="157,-38.5 157,-57.5 304,-57.5 304,-38.5 157,-38.5"/>
<text text-anchor="middle" x="230.5" y="-45.5" font-family="Helvetica,sans-Serif" font-size="10.00">Drone::Drone_update_path</text>
</a>
</g>
</g>
<!-- Node1&#45;&gt;Node45 -->
<g id="edge62" class="edge">
<title>Node1&#45;&gt;Node45</title>
<path fill="none" stroke="midnightblue" d="M69.92,-165.86C84.4,-141.24 116.44,-92.71 157,-67 160.37,-64.87 163.96,-62.97 167.69,-61.29"/>
<polygon fill="midnightblue" stroke="midnightblue" points="169.16,-64.47 177.16,-57.53 166.57,-57.97 169.16,-64.47"/>
</g>
<!-- Node46 -->
<g id="node46" class="node">
<title>Node46</title>
<g id="a_node46"><a xlink:href="class_drone.html#ac8dedb6cf49bdb580df253e3a90d3637" target="_top" xlink:title="Metoda zwracajaca orientacje drona">
<polygon fill="none" stroke="black" points="181.5,-0.5 181.5,-19.5 279.5,-19.5 279.5,-0.5 181.5,-0.5"/>
<text text-anchor="middle" x="230.5" y="-7.5" font-family="Helvetica,sans-Serif" font-size="10.00">Drone::get_orien</text>
</a>
</g>
</g>
<!-- Node1&#45;&gt;Node46 -->
<g id="edge63" class="edge">
<title>Node1&#45;&gt;Node46</title>
<path fill="none" stroke="midnightblue" d="M66.66,-165.82C77.94,-135.04 107.75,-65.14 157,-29 161.46,-25.73 166.43,-23.02 171.63,-20.78"/>
<polygon fill="midnightblue" stroke="midnightblue" points="173.02,-23.99 181.17,-17.22 170.58,-17.43 173.02,-23.99"/>
</g>
<!-- Node3 -->
<g id="node3" class="node">
<title>Node3</title>
<g id="a_node3"><a xlink:href="class_drone.html#ada6f4e93f4a63cbe1d6fbebf329efe62" target="_top" xlink:title="Metoda wczytywania odpowiednich wierzcholkow z pliku wzorcowego zgodnie z zaproponowanym sposobem w z...">
<polygon fill="none" stroke="black" points="517.5,-550.5 517.5,-569.5 670.5,-569.5 670.5,-550.5 517.5,-550.5"/>
<text text-anchor="middle" x="594" y="-557.5" font-family="Helvetica,sans-Serif" font-size="10.00">Drone::Drone_From_Sample</text>
</a>
</g>
</g>
<!-- Node2&#45;&gt;Node3 -->
<g id="edge2" class="edge">
<title>Node2&#45;&gt;Node3</title>
<path fill="none" stroke="midnightblue" d="M424.61,-423.13C460.02,-451.91 536.78,-514.3 573.13,-543.85"/>
<polygon fill="midnightblue" stroke="midnightblue" points="571.09,-546.7 581.06,-550.29 575.51,-541.27 571.09,-546.7"/>
</g>
<!-- Node12 -->
<g id="node12" class="node">
<title>Node12</title>
<g id="a_node12"><a xlink:href="class_drone.html#ad42bc54902df967b94717617aca1a974" target="_top" xlink:title="Metoda obracajaca dron o zadany kat w 3D wokol srodka figury">
<polygon fill="none" stroke="black" points="518,-386.5 518,-405.5 670,-405.5 670,-386.5 518,-386.5"/>
<text text-anchor="middle" x="594" y="-393.5" font-family="Helvetica,sans-Serif" font-size="10.00">Drone::rotation_around_cen</text>
</a>
</g>
</g>
<!-- Node2&#45;&gt;Node12 -->
<g id="edge19" class="edge">
<title>Node2&#45;&gt;Node12</title>
<path fill="none" stroke="midnightblue" d="M466.2,-404.14C479.43,-403.29 493.68,-402.37 507.69,-401.47"/>
<polygon fill="midnightblue" stroke="midnightblue" points="508.07,-404.96 517.83,-400.82 507.62,-397.97 508.07,-404.96"/>
</g>
<!-- Node22 -->
<g id="node22" class="node">
<title>Node22</title>
<g id="a_node22"><a xlink:href="class_drone.html#a55c483c4e4cf0ec91d5bda5448417f08" target="_top" xlink:title="Metoda ustawiajaca drone_pos">
<polygon fill="none" stroke="black" points="533,-632.5 533,-651.5 655,-651.5 655,-632.5 533,-632.5"/>
<text text-anchor="middle" x="594" y="-639.5" font-family="Helvetica,sans-Serif" font-size="10.00">Drone::set_drone_pos</text>
</a>
</g>
</g>
<!-- Node2&#45;&gt;Node22 -->
<g id="edge31" class="edge">
<title>Node2&#45;&gt;Node22</title>
<path fill="none" stroke="midnightblue" d="M412.23,-423.06C425.8,-454.6 460.49,-528.81 506,-579 523.68,-598.5 548.32,-615.65 566.86,-627.11"/>
<polygon fill="midnightblue" stroke="midnightblue" points="565.3,-630.26 575.67,-632.42 568.91,-624.26 565.3,-630.26"/>
</g>
<!-- Node2&#45;&gt;Node24 -->
<g id="edge33" class="edge">
<title>Node2&#45;&gt;Node24</title>
<path fill="none" stroke="midnightblue" d="M447.04,-392.86C475.17,-382.48 512.68,-368.64 542.62,-357.59"/>
<polygon fill="midnightblue" stroke="midnightblue" points="543.89,-360.85 552.06,-354.11 541.46,-354.29 543.89,-360.85"/>
</g>
<!-- Node4 -->
<g id="node4" class="node">
<title>Node4</title>
<g id="a_node4"><a xlink:href="class_cuboid.html#a773f92fecdf9686b951cf5736c83f318" target="_top" xlink:title="Metoda wczytywania odpowiednich wierzcholkow z pliku wzorcowego zgodnie z zaproponowanym sposobem zad...">
<polygon fill="none" stroke="black" points="736,-589 736,-619 856,-619 856,-589 736,-589"/>
<text text-anchor="start" x="744" y="-607" font-family="Helvetica,sans-Serif" font-size="10.00">Cuboid::Cuboid_From</text>
<text text-anchor="middle" x="796" y="-596" font-family="Helvetica,sans-Serif" font-size="10.00">_Sample</text>
</a>
</g>
</g>
<!-- Node3&#45;&gt;Node4 -->
<g id="edge3" class="edge">
<title>Node3&#45;&gt;Node4</title>
<path fill="none" stroke="midnightblue" d="M638.4,-569.55C663.88,-575.15 696.68,-582.37 725.68,-588.75"/>
<polygon fill="midnightblue" stroke="midnightblue" points="725.24,-592.24 735.75,-590.97 726.74,-585.4 725.24,-592.24"/>
</g>
<!-- Node9 -->
<g id="node9" class="node">
<title>Node9</title>
<g id="a_node9"><a xlink:href="class_drone.html#addf8532ee98ca800a64a78f3808fce98" target="_top" xlink:title="Metoda zwracajaca nazwy plikow do zapisu dla drona.">
<polygon fill="none" stroke="black" points="735.5,-512.5 735.5,-531.5 856.5,-531.5 856.5,-512.5 735.5,-512.5"/>
<text text-anchor="middle" x="796" y="-519.5" font-family="Helvetica,sans-Serif" font-size="10.00">Drone::get_filenames</text>
</a>
</g>
</g>
<!-- Node3&#45;&gt;Node9 -->
<g id="edge8" class="edge">
<title>Node3&#45;&gt;Node9</title>
<path fill="none" stroke="midnightblue" d="M645.21,-550.46C672.43,-545.29 706.26,-538.86 734.88,-533.42"/>
<polygon fill="midnightblue" stroke="midnightblue" points="735.6,-536.85 744.77,-531.54 734.29,-529.97 735.6,-536.85"/>
</g>
<!-- Node10 -->
<g id="node10" class="node">
<title>Node10</title>
<g id="a_node10"><a xlink:href="class_prism.html#a5e0a2234e9ebe3b51146c0ddc42e8b48" target="_top" xlink:title="Metoda wczytywania odpowiednich wierzcholkow z pliku wzorcowego zgodnie z zaproponowanym sposobem zad...">
<polygon fill="none" stroke="black" points="721,-550.5 721,-569.5 871,-569.5 871,-550.5 721,-550.5"/>
<text text-anchor="middle" x="796" y="-557.5" font-family="Helvetica,sans-Serif" font-size="10.00">Prism::Prism_From_Sample</text>
</a>
</g>
</g>
<!-- Node3&#45;&gt;Node10 -->
<g id="edge11" class="edge">
<title>Node3&#45;&gt;Node10</title>
<path fill="none" stroke="midnightblue" d="M670.61,-560C683.75,-560 697.48,-560 710.82,-560"/>
<polygon fill="midnightblue" stroke="midnightblue" points="710.94,-563.5 720.94,-560 710.94,-556.5 710.94,-563.5"/>
</g>
<!-- Node11 -->
<g id="node11" class="node">
<title>Node11</title>
<g id="a_node11"><a xlink:href="class_drone.html#add09c27034d4ff229cc22b58c443c0f4" target="_top" xlink:title="Metoda ustawiajaca nazwy plikow do zapisu dla drona.">
<polygon fill="none" stroke="black" points="730,-638.5 730,-657.5 862,-657.5 862,-638.5 730,-638.5"/>
<text text-anchor="middle" x="796" y="-645.5" font-family="Helvetica,sans-Serif" font-size="10.00">Drone::setup_filenames</text>
</a>
</g>
</g>
<!-- Node3&#45;&gt;Node11 -->
<g id="edge16" class="edge">
<title>Node3&#45;&gt;Node11</title>
<path fill="none" stroke="midnightblue" d="M609.14,-569.61C631.38,-584.34 676.33,-612.52 718,-629 724.28,-631.48 730.98,-633.71 737.71,-635.69"/>
<polygon fill="midnightblue" stroke="midnightblue" points="736.97,-639.12 747.54,-638.42 738.84,-632.38 736.97,-639.12"/>
</g>
<!-- Node5 -->
<g id="node5" class="node">
<title>Node5</title>
<g id="a_node5"><a xlink:href="class_block.html#aeef4dd3716afaea42688a4f96456ce27" target="_top" xlink:title="Metoda zwracajaca nazwe pliku z finalna (robocza) bryla">
<polygon fill="none" stroke="black" points="917.5,-514.5 917.5,-533.5 1042.5,-533.5 1042.5,-514.5 917.5,-514.5"/>
<text text-anchor="middle" x="980" y="-521.5" font-family="Helvetica,sans-Serif" font-size="10.00">Block::get_final_name</text>
</a>
</g>
</g>
<!-- Node4&#45;&gt;Node5 -->
<g id="edge4" class="edge">
<title>Node4&#45;&gt;Node5</title>
<path fill="none" stroke="midnightblue" d="M853.89,-588.95C860.89,-586.12 867.77,-582.82 874,-579 893.29,-567.18 890.44,-554.38 910,-543 913.85,-540.76 917.97,-538.77 922.22,-537.02"/>
<polygon fill="midnightblue" stroke="midnightblue" points="923.49,-540.28 931.65,-533.52 921.06,-533.71 923.49,-540.28"/>
</g>
<!-- Node6 -->
<g id="node6" class="node">
<title>Node6</title>
<g id="a_node6"><a xlink:href="class_block.html#aed17e0cb13b8eea50fe735ba05204da9" target="_top" xlink:title="Metoda zwracajaca nazwe pliku z wzorcowa bryla">
<polygon fill="none" stroke="black" points="910,-552.5 910,-571.5 1050,-571.5 1050,-552.5 910,-552.5"/>
<text text-anchor="middle" x="980" y="-559.5" font-family="Helvetica,sans-Serif" font-size="10.00">Block::get_sample_name</text>
</a>
</g>
</g>
<!-- Node4&#45;&gt;Node6 -->
<g id="edge5" class="edge">
<title>Node4&#45;&gt;Node6</title>
<path fill="none" stroke="midnightblue" d="M856.09,-590.36C879.22,-585.03 905.5,-578.96 927.81,-573.81"/>
<polygon fill="midnightblue" stroke="midnightblue" points="928.8,-577.18 937.76,-571.52 927.22,-570.36 928.8,-577.18"/>
</g>
<!-- Node7 -->
<g id="node7" class="node">
<title>Node7</title>
<g id="a_node7"><a xlink:href="class_block.html#a640a910076d8b10533a9a80d740f8f03" target="_top" xlink:title="Metoda zapisujaca do klasy nazwe pliku z finalna (robocza) bryla">
<polygon fill="none" stroke="black" points="918,-593.5 918,-612.5 1042,-612.5 1042,-593.5 918,-593.5"/>
<text text-anchor="middle" x="980" y="-600.5" font-family="Helvetica,sans-Serif" font-size="10.00">Block::set_final_name</text>
</a>
</g>
</g>
<!-- Node4&#45;&gt;Node7 -->
<g id="edge6" class="edge">
<title>Node4&#45;&gt;Node7</title>
<path fill="none" stroke="midnightblue" d="M856.09,-603.68C872.42,-603.59 890.32,-603.49 907.29,-603.39"/>
<polygon fill="midnightblue" stroke="midnightblue" points="907.73,-606.89 917.71,-603.34 907.69,-599.89 907.73,-606.89"/>
</g>
<!-- Node8 -->
<g id="node8" class="node">
<title>Node8</title>
<g id="a_node8"><a xlink:href="class_block.html#acf20b290f1543e580ff1f2c6d98ff4c4" target="_top" xlink:title="Metoda zapisujaca do klasy nazwe pliku z wzorcowa bryla">
<polygon fill="none" stroke="black" points="910.5,-631.5 910.5,-650.5 1049.5,-650.5 1049.5,-631.5 910.5,-631.5"/>
<text text-anchor="middle" x="980" y="-638.5" font-family="Helvetica,sans-Serif" font-size="10.00">Block::set_sample_name</text>
</a>
</g>
</g>
<!-- Node4&#45;&gt;Node8 -->
<g id="edge7" class="edge">
<title>Node4&#45;&gt;Node8</title>
<path fill="none" stroke="midnightblue" d="M856.09,-616.01C877.23,-620.31 901,-625.14 921.96,-629.4"/>
<polygon fill="midnightblue" stroke="midnightblue" points="921.51,-632.88 932.01,-631.45 922.9,-626.02 921.51,-632.88"/>
</g>
<!-- Node9&#45;&gt;Node5 -->
<g id="edge9" class="edge">
<title>Node9&#45;&gt;Node5</title>
<path fill="none" stroke="midnightblue" d="M856.59,-522.65C872.73,-522.83 890.38,-523.03 907.11,-523.21"/>
<polygon fill="midnightblue" stroke="midnightblue" points="907.36,-526.71 917.4,-523.32 907.44,-519.71 907.36,-526.71"/>
</g>
<!-- Node9&#45;&gt;Node6 -->
<g id="edge10" class="edge">
<title>Node9&#45;&gt;Node6</title>
<path fill="none" stroke="midnightblue" d="M840.59,-531.58C866.14,-537.2 898.61,-544.33 925.68,-550.28"/>
<polygon fill="midnightblue" stroke="midnightblue" points="925.24,-553.77 935.76,-552.5 926.75,-546.93 925.24,-553.77"/>
</g>
<!-- Node10&#45;&gt;Node5 -->
<g id="edge12" class="edge">
<title>Node10&#45;&gt;Node5</title>
<path fill="none" stroke="midnightblue" d="M845.29,-550.45C868.53,-545.85 896.56,-540.31 920.95,-535.48"/>
<polygon fill="midnightblue" stroke="midnightblue" points="921.66,-538.91 930.8,-533.53 920.31,-532.04 921.66,-538.91"/>
</g>
<!-- Node10&#45;&gt;Node6 -->
<g id="edge13" class="edge">
<title>Node10&#45;&gt;Node6</title>
<path fill="none" stroke="midnightblue" d="M871.03,-560.81C880.42,-560.92 890.07,-561.02 899.54,-561.13"/>
<polygon fill="midnightblue" stroke="midnightblue" points="899.7,-564.63 909.74,-561.24 899.78,-557.63 899.7,-564.63"/>
</g>
<!-- Node10&#45;&gt;Node7 -->
<g id="edge14" class="edge">
<title>Node10&#45;&gt;Node7</title>
<path fill="none" stroke="midnightblue" d="M837.39,-569.54C864.37,-575.92 900.05,-584.35 928.85,-591.15"/>
<polygon fill="midnightblue" stroke="midnightblue" points="928.18,-594.59 938.72,-593.48 929.79,-587.78 928.18,-594.59"/>
</g>
<!-- Node10&#45;&gt;Node8 -->
<g id="edge15" class="edge">
<title>Node10&#45;&gt;Node8</title>
<path fill="none" stroke="midnightblue" d="M850.93,-569.5C859.01,-572.18 866.97,-575.61 874,-580 894.85,-593.02 889.24,-608.83 910,-622 913.33,-624.11 916.89,-625.99 920.58,-627.66"/>
<polygon fill="midnightblue" stroke="midnightblue" points="919.36,-630.95 929.94,-631.41 921.96,-624.45 919.36,-630.95"/>
</g>
<!-- Node11&#45;&gt;Node7 -->
<g id="edge17" class="edge">
<title>Node11&#45;&gt;Node7</title>
<path fill="none" stroke="midnightblue" d="M835.78,-638.44C848.01,-635.42 861.57,-632.07 874,-629 892.44,-624.44 912.7,-619.43 930.46,-615.03"/>
<polygon fill="midnightblue" stroke="midnightblue" points="931.74,-618.32 940.6,-612.52 930.05,-611.52 931.74,-618.32"/>
</g>
<!-- Node11&#45;&gt;Node8 -->
<g id="edge18" class="edge">
<title>Node11&#45;&gt;Node8</title>
<path fill="none" stroke="midnightblue" d="M862.19,-645.49C874.51,-645.02 887.51,-644.52 900.19,-644.03"/>
<polygon fill="midnightblue" stroke="midnightblue" points="900.41,-647.53 910.27,-643.64 900.14,-640.53 900.41,-647.53"/>
</g>
<!-- Node13 -->
<g id="node13" class="node">
<title>Node13</title>
<g id="a_node13"><a xlink:href="class_prism.html#a22c5467db5d960bddbaf9a52f55c55cb" target="_top" xlink:title="Metoda obracajaca graniastoslup o zadany kat w 3D wokol srodka figury">
<polygon fill="none" stroke="black" points="721,-272.5 721,-291.5 871,-291.5 871,-272.5 721,-272.5"/>
<text text-anchor="middle" x="796" y="-279.5" font-family="Helvetica,sans-Serif" font-size="10.00">Prism::rotation_around_cen</text>
</a>
</g>
</g>
<!-- Node12&#45;&gt;Node13 -->
<g id="edge20" class="edge">
<title>Node12&#45;&gt;Node13</title>
<path fill="none" stroke="midnightblue" d="M638.86,-386.41C653.75,-381.55 669.71,-374.39 682,-364 706.62,-343.17 692.26,-320.43 718,-301 720.5,-299.11 723.17,-297.41 725.95,-295.87"/>
<polygon fill="midnightblue" stroke="midnightblue" points="727.62,-298.95 735.16,-291.52 724.62,-292.63 727.62,-298.95"/>
</g>
<!-- Node16 -->
<g id="node16" class="node">
<title>Node16</title>
<g id="a_node16"><a xlink:href="class_cuboid.html#a6c697c2d9b36a14c43c7328876d5a1f0" target="_top" xlink:title="Metoda obracajaca prostopadloscian o zadany kat w 3D wokol srodka figury">
<polygon fill="none" stroke="black" points="718,-386.5 718,-405.5 874,-405.5 874,-386.5 718,-386.5"/>
<text text-anchor="middle" x="796" y="-393.5" font-family="Helvetica,sans-Serif" font-size="10.00">Cuboid::rotation_around_cen</text>
</a>
</g>
</g>
<!-- Node12&#45;&gt;Node16 -->
<g id="edge24" class="edge">
<title>Node12&#45;&gt;Node16</title>
<path fill="none" stroke="midnightblue" d="M670.04,-396C682.37,-396 695.25,-396 707.84,-396"/>
<polygon fill="midnightblue" stroke="midnightblue" points="707.87,-399.5 717.87,-396 707.87,-392.5 707.87,-399.5"/>
</g>
<!-- Node19 -->
<g id="node19" class="node">
<title>Node19</title>
<g id="a_node19"><a xlink:href="class_drone.html#aea963b77f42c204504542a3d9190d762" target="_top" xlink:title="Metoda uzywana przy konstruowania drona Ustawia rotory w ten sposob, ze srodek ich dolnej podstawy je...">
<polygon fill="none" stroke="black" points="738.5,-425 738.5,-455 853.5,-455 853.5,-425 738.5,-425"/>
<text text-anchor="start" x="746.5" y="-443" font-family="Helvetica,sans-Serif" font-size="10.00">Drone::set_rotors_in</text>
<text text-anchor="middle" x="796" y="-432" font-family="Helvetica,sans-Serif" font-size="10.00">_place</text>
</a>
</g>
</g>
<!-- Node12&#45;&gt;Node19 -->
<g id="edge27" class="edge">
<title>Node12&#45;&gt;Node19</title>
<path fill="none" stroke="midnightblue" d="M638.4,-405.55C664.72,-411.34 698.84,-418.84 728.51,-425.37"/>
<polygon fill="midnightblue" stroke="midnightblue" points="727.87,-428.81 738.38,-427.54 729.37,-421.98 727.87,-428.81"/>
</g>
<!-- Node14 -->
<g id="node14" class="node">
<title>Node14</title>
<g id="a_node14"><a xlink:href="class_prism.html#ade146d341c0468030f8c1258b7fe1041" target="_top" xlink:title="Metoda przesuwajaca graniastoslup o zadany wektor w 3D">
<polygon fill="none" stroke="black" points="1086,-293.5 1086,-312.5 1189,-312.5 1189,-293.5 1086,-293.5"/>
<text text-anchor="middle" x="1137.5" y="-300.5" font-family="Helvetica,sans-Serif" font-size="10.00">Prism::translation</text>
</a>
</g>
</g>
<!-- Node13&#45;&gt;Node14 -->
<g id="edge21" class="edge">
<title>Node13&#45;&gt;Node14</title>
<path fill="none" stroke="midnightblue" d="M838.23,-272.42C888.71,-262.24 976.54,-249.58 1050,-265 1071.6,-269.54 1094.4,-279.81 1111.16,-288.53"/>
<polygon fill="midnightblue" stroke="midnightblue" points="1109.82,-291.78 1120.28,-293.43 1113.13,-285.61 1109.82,-291.78"/>
</g>
<!-- Node15 -->
<g id="node15" class="node">
<title>Node15</title>
<g id="a_node15"><a xlink:href="class_prism.html#afed2c26932d5cb152fd620d2acbfbc3e" target="_top" xlink:title="Metoda przesuwajaca graniastoslup do srodka ukladu wspolrzednych (tak, ze srodek graniastoslupa pokry...">
<polygon fill="none" stroke="black" points="914.5,-274.5 914.5,-293.5 1045.5,-293.5 1045.5,-274.5 914.5,-274.5"/>
<text text-anchor="middle" x="980" y="-281.5" font-family="Helvetica,sans-Serif" font-size="10.00">Prism::translation_to_O</text>
</a>
</g>
</g>
<!-- Node13&#45;&gt;Node15 -->
<g id="edge22" class="edge">
<title>Node13&#45;&gt;Node15</title>
<path fill="none" stroke="midnightblue" d="M871.03,-282.81C882.03,-282.93 893.37,-283.06 904.38,-283.18"/>
<polygon fill="midnightblue" stroke="midnightblue" points="904.35,-286.68 914.39,-283.29 904.42,-279.68 904.35,-286.68"/>
</g>
<!-- Node15&#45;&gt;Node14 -->
<g id="edge23" class="edge">
<title>Node15&#45;&gt;Node14</title>
<path fill="none" stroke="midnightblue" d="M1045.6,-291.89C1055.5,-293.1 1065.71,-294.35 1075.53,-295.55"/>
<polygon fill="midnightblue" stroke="midnightblue" points="1075.26,-299.04 1085.61,-296.78 1076.11,-292.09 1075.26,-299.04"/>
</g>
<!-- Node17 -->
<g id="node17" class="node">
<title>Node17</title>
<g id="a_node17"><a xlink:href="class_cuboid.html#a3f6b1b9ea7de433af5b0d462d29f4272" target="_top" xlink:title="Metoda przesuwajaca prostopadloscian o zadany kat w 3D">
<polygon fill="none" stroke="black" points="925.5,-350.5 925.5,-369.5 1034.5,-369.5 1034.5,-350.5 925.5,-350.5"/>
<text text-anchor="middle" x="980" y="-357.5" font-family="Helvetica,sans-Serif" font-size="10.00">Cuboid::translation</text>
</a>
</g>
</g>
<!-- Node16&#45;&gt;Node17 -->
<g id="edge25" class="edge">
<title>Node16&#45;&gt;Node17</title>
<path fill="none" stroke="midnightblue" d="M845.29,-386.45C868.53,-381.85 896.56,-376.31 920.95,-371.48"/>
<polygon fill="midnightblue" stroke="midnightblue" points="921.66,-374.91 930.8,-369.53 920.31,-368.04 921.66,-374.91"/>
</g>
<!-- Node18 -->
<g id="node18" class="node">
<title>Node18</title>
<g id="a_node18"><a xlink:href="class_cuboid.html#a42bdce7c214e759cb6ea94d4f547a5b9" target="_top" xlink:title="Metoda przesuwajaca prostopadloscian do (0,0,0)">
<polygon fill="none" stroke="black" points="911.5,-388.5 911.5,-407.5 1048.5,-407.5 1048.5,-388.5 911.5,-388.5"/>
<text text-anchor="middle" x="980" y="-395.5" font-family="Helvetica,sans-Serif" font-size="10.00">Cuboid::translation_to_O</text>
</a>
</g>
</g>
<!-- Node16&#45;&gt;Node18 -->
<g id="edge26" class="edge">
<title>Node16&#45;&gt;Node18</title>
<path fill="none" stroke="midnightblue" d="M874.18,-396.85C883.19,-396.95 892.39,-397.05 901.41,-397.15"/>
<polygon fill="midnightblue" stroke="midnightblue" points="901.45,-400.65 911.49,-397.26 901.53,-393.65 901.45,-400.65"/>
</g>
<!-- Node20 -->
<g id="node20" class="node">
<title>Node20</title>
<g id="a_node20"><a xlink:href="class_cuboid.html#a99d30564d6129e6905c5333e04df9606" target="_top" xlink:title="Metoda zwracajaca wierzcholki prostopadloscianu do Vector3D">
<polygon fill="none" stroke="black" points="932.5,-426.5 932.5,-445.5 1027.5,-445.5 1027.5,-426.5 932.5,-426.5"/>
<text text-anchor="middle" x="980" y="-433.5" font-family="Helvetica,sans-Serif" font-size="10.00">Cuboid::get_cub</text>
</a>
</g>
</g>
<!-- Node19&#45;&gt;Node20 -->
<g id="edge28" class="edge">
<title>Node19&#45;&gt;Node20</title>
<path fill="none" stroke="midnightblue" d="M853.59,-438.76C875.39,-438.28 900.28,-437.73 922.11,-437.25"/>
<polygon fill="midnightblue" stroke="midnightblue" points="922.3,-440.75 932.22,-437.03 922.15,-433.75 922.3,-440.75"/>
</g>
<!-- Node21 -->
<g id="node21" class="node">
<title>Node21</title>
<g id="a_node21"><a xlink:href="class_prism.html#a4e2b0b9c37d6a53af869522a4bf364ac" target="_top" xlink:title="Metoda przesuwajaca graniastoslup o zadany wektor w 3D w taki sposob, ze srodek jego dolnej podstawy ...">
<polygon fill="none" stroke="black" points="928.5,-465 928.5,-495 1031.5,-495 1031.5,-465 928.5,-465"/>
<text text-anchor="start" x="936.5" y="-483" font-family="Helvetica,sans-Serif" font-size="10.00">Prism::translation</text>
<text text-anchor="middle" x="980" y="-472" font-family="Helvetica,sans-Serif" font-size="10.00">_of_lower_cen</text>
</a>
</g>
</g>
<!-- Node19&#45;&gt;Node21 -->
<g id="edge29" class="edge">
<title>Node19&#45;&gt;Node21</title>
<path fill="none" stroke="midnightblue" d="M853.59,-452.44C874.12,-456.95 897.4,-462.07 918.28,-466.65"/>
<polygon fill="midnightblue" stroke="midnightblue" points="917.79,-470.13 928.31,-468.86 919.3,-463.29 917.79,-470.13"/>
</g>
<!-- Node21&#45;&gt;Node14 -->
<g id="edge30" class="edge">
<title>Node21&#45;&gt;Node14</title>
<path fill="none" stroke="midnightblue" d="M1031.55,-466.49C1038.18,-463.38 1044.55,-459.6 1050,-455 1093.38,-418.42 1119.52,-354.25 1130.47,-322.26"/>
<polygon fill="midnightblue" stroke="midnightblue" points="1133.81,-323.33 1133.61,-312.73 1127.16,-321.14 1133.81,-323.33"/>
</g>
<!-- Node23 -->
<g id="node23" class="node">
<title>Node23</title>
<g id="a_node23"><a xlink:href="class_cuboid.html#a08fae08a1c8c70ada48ce3af46c82eee" target="_top" xlink:title="Metoda zwracajaca wysokosc prostopadloscianu">
<polygon fill="none" stroke="black" points="742,-676.5 742,-695.5 850,-695.5 850,-676.5 742,-676.5"/>
<text text-anchor="middle" x="796" y="-683.5" font-family="Helvetica,sans-Serif" font-size="10.00">Cuboid::get_height</text>
</a>
</g>
</g>
<!-- Node22&#45;&gt;Node23 -->
<g id="edge32" class="edge">
<title>Node22&#45;&gt;Node23</title>
<path fill="none" stroke="midnightblue" d="M638.4,-651.55C668.67,-658.21 709.26,-667.14 741.53,-674.24"/>
<polygon fill="midnightblue" stroke="midnightblue" points="741.17,-677.74 751.69,-676.47 742.67,-670.9 741.17,-677.74"/>
</g>
<!-- Node25 -->
<g id="node25" class="node">
<title>Node25</title>
<g id="a_node25"><a xlink:href="class_cuboid.html#aafa18740d9c98ca928395b9873a9c63d" target="_top" xlink:title="Metoda zwracajaca punkt centralny (czyli taki, ktorego odleglosci do kazdego wierzcholka sa rowne) pr...">
<polygon fill="none" stroke="black" points="737.5,-348.5 737.5,-367.5 854.5,-367.5 854.5,-348.5 737.5,-348.5"/>
<text text-anchor="middle" x="796" y="-355.5" font-family="Helvetica,sans-Serif" font-size="10.00">Cuboid::centre_point</text>
</a>
</g>
</g>
<!-- Node24&#45;&gt;Node25 -->
<g id="edge34" class="edge">
<title>Node24&#45;&gt;Node25</title>
<path fill="none" stroke="midnightblue" d="M646.25,-343.87C670.88,-346.21 700.73,-349.04 727.21,-351.56"/>
<polygon fill="midnightblue" stroke="midnightblue" points="726.89,-355.05 737.18,-352.51 727.55,-348.08 726.89,-355.05"/>
</g>
<!-- Node26 -->
<g id="node26" class="node">
<title>Node26</title>
<g id="a_node26"><a xlink:href="class_drone.html#a9684cd7ce04b7e6191f3d6b3a745370b" target="_top" xlink:title="Przesuwa drona o zadany wektor w 3D">
<polygon fill="none" stroke="black" points="744,-310.5 744,-329.5 848,-329.5 848,-310.5 744,-310.5"/>
<text text-anchor="middle" x="796" y="-317.5" font-family="Helvetica,sans-Serif" font-size="10.00">Drone::translation</text>
</a>
</g>
</g>
<!-- Node24&#45;&gt;Node26 -->
<g id="edge35" class="edge">
<title>Node24&#45;&gt;Node26</title>
<path fill="none" stroke="midnightblue" d="M646.25,-334.13C672.94,-331.6 705.78,-328.48 733.8,-325.81"/>
<polygon fill="midnightblue" stroke="midnightblue" points="734.26,-329.29 743.89,-324.86 733.6,-322.32 734.26,-329.29"/>
</g>
<!-- Node26&#45;&gt;Node14 -->
<g id="edge36" class="edge">
<title>Node26&#45;&gt;Node14</title>
<path fill="none" stroke="midnightblue" d="M848.19,-317.44C909.21,-314.38 1011.04,-309.28 1075.92,-306.03"/>
<polygon fill="midnightblue" stroke="midnightblue" points="1076.19,-309.52 1086,-305.53 1075.84,-302.53 1076.19,-309.52"/>
</g>
<!-- Node26&#45;&gt;Node17 -->
<g id="edge37" class="edge">
<title>Node26&#45;&gt;Node17</title>
<path fill="none" stroke="midnightblue" d="M840.59,-329.58C866.14,-335.2 898.61,-342.33 925.68,-348.28"/>
<polygon fill="midnightblue" stroke="midnightblue" points="925.24,-351.77 935.76,-350.5 926.75,-344.93 925.24,-351.77"/>
</g>
<!-- Node29 -->
<g id="node29" class="node">
<title>Node29</title>
<g id="a_node29"><a xlink:href="class_pz_g_1_1_lacze_do_g_n_u_plota.html#aa815ce8ec16e12fc246cf422e562869e" target="_top" xlink:title="Dodaje nazwę pliku.">
<polygon fill="none" stroke="black" points="340,-92 340,-122 470,-122 470,-92 340,-92"/>
<text text-anchor="start" x="348" y="-110" font-family="Helvetica,sans-Serif" font-size="10.00">PzG::LaczeDoGNUPlota</text>
<text text-anchor="middle" x="405" y="-99" font-family="Helvetica,sans-Serif" font-size="10.00">::DodajNazwePliku</text>
</a>
</g>
</g>
<!-- Node28&#45;&gt;Node29 -->
<g id="edge40" class="edge">
<title>Node28&#45;&gt;Node29</title>
<path fill="none" stroke="midnightblue" d="M302.16,-117.04C311.22,-116.14 320.51,-115.23 329.63,-114.33"/>
<polygon fill="midnightblue" stroke="midnightblue" points="330.21,-117.79 339.82,-113.32 329.53,-110.82 330.21,-117.79"/>
</g>
<!-- Node28&#45;&gt;Node31 -->
<g id="edge42" class="edge">
<title>Node28&#45;&gt;Node31</title>
<path fill="none" stroke="midnightblue" d="M282.79,-133.51C297.45,-136.23 313.74,-139.26 329.49,-142.18"/>
<polygon fill="midnightblue" stroke="midnightblue" points="329.28,-145.7 339.75,-144.08 330.55,-138.82 329.28,-145.7"/>
</g>
<!-- Node30 -->
<g id="node30" class="node">
<title>Node30</title>
<g id="a_node30"><a xlink:href="namespace_pz_g.html#ae1aad0c681853d7e47da4cdfccefc102" target="_top" xlink:title="Funkcja pomocnicza, sprawdza czy plik o podanej nazwie jest na dysku.">
<polygon fill="none" stroke="black" points="546.5,-79.5 546.5,-98.5 641.5,-98.5 641.5,-79.5 546.5,-79.5"/>
<text text-anchor="middle" x="594" y="-86.5" font-family="Helvetica,sans-Serif" font-size="10.00">PzG::CzyJestPlik</text>
</a>
</g>
</g>
<!-- Node29&#45;&gt;Node30 -->
<g id="edge41" class="edge">
<title>Node29&#45;&gt;Node30</title>
<path fill="none" stroke="midnightblue" d="M470.09,-100.83C491.63,-98.76 515.48,-96.46 536.39,-94.45"/>
<polygon fill="midnightblue" stroke="midnightblue" points="536.79,-97.93 546.4,-93.49 536.11,-90.96 536.79,-97.93"/>
</g>
<!-- Node32 -->
<g id="node32" class="node">
<title>Node32</title>
<g id="a_node32"><a xlink:href="namespace_pz_g.html#aa010184f31b26bb561b42f22438b821e" target="_top" xlink:title="Funkcja pomocnicza, dopisuje do polecenia wpisy związane z rysowaniem z pliku.">
<polygon fill="none" stroke="black" points="511,-167.5 511,-186.5 677,-186.5 677,-167.5 511,-167.5"/>
<text text-anchor="middle" x="594" y="-174.5" font-family="Helvetica,sans-Serif" font-size="10.00">PzG::DopiszRysowanieZPlikow</text>
</a>
</g>
</g>
<!-- Node31&#45;&gt;Node32 -->
<g id="edge43" class="edge">
<title>Node31&#45;&gt;Node32</title>
<path fill="none" stroke="midnightblue" d="M470.09,-163.2C480.03,-164.31 490.46,-165.48 500.86,-166.65"/>
<polygon fill="midnightblue" stroke="midnightblue" points="500.49,-170.13 510.82,-167.77 501.27,-163.18 500.49,-170.13"/>
</g>
<!-- Node33 -->
<g id="node33" class="node">
<title>Node33</title>
<g id="a_node33"><a xlink:href="namespace_pz_g.html#a7227cb39c785b1c746b6bb5515c0b781" target="_top" xlink:title="Dodaje do listy rysowanych punktów, punkty o różnych rozmiarach.">
<polygon fill="none" stroke="black" points="506,-118 506,-148 682,-148 682,-118 506,-118"/>
<text text-anchor="start" x="514" y="-136" font-family="Helvetica,sans-Serif" font-size="10.00">PzG::DopiszRysowanieZRoznych</text>
<text text-anchor="middle" x="594" y="-125" font-family="Helvetica,sans-Serif" font-size="10.00">Punktow</text>
</a>
</g>
</g>
<!-- Node31&#45;&gt;Node33 -->
<g id="edge44" class="edge">
<title>Node31&#45;&gt;Node33</title>
<path fill="none" stroke="midnightblue" d="M470.09,-148.12C478.38,-147.1 487,-146.04 495.67,-144.97"/>
<polygon fill="midnightblue" stroke="midnightblue" points="496.35,-148.41 505.85,-143.72 495.5,-141.47 496.35,-148.41"/>
</g>
<!-- Node34 -->
<g id="node34" class="node">
<title>Node34</title>
<g id="a_node34"><a xlink:href="namespace_pz_g.html#a169c311f0e0b6ffadcd44e91e749f72d" target="_top" xlink:title="Wczytuje z pliku listę punktów.">
<polygon fill="none" stroke="black" points="723.5,-87 723.5,-117 868.5,-117 868.5,-87 723.5,-87"/>
<text text-anchor="start" x="731.5" y="-105" font-family="Helvetica,sans-Serif" font-size="10.00">PzG::WczytajListeRoznych</text>
<text text-anchor="middle" x="796" y="-94" font-family="Helvetica,sans-Serif" font-size="10.00">Punktow</text>
</a>
</g>
</g>
<!-- Node33&#45;&gt;Node34 -->
<g id="edge45" class="edge">
<title>Node33&#45;&gt;Node34</title>
<path fill="none" stroke="midnightblue" d="M682.14,-119.49C692.48,-117.89 703.01,-116.26 713.28,-114.67"/>
<polygon fill="midnightblue" stroke="midnightblue" points="714.09,-118.08 723.43,-113.09 713.01,-111.17 714.09,-118.08"/>
</g>
<!-- Node35 -->
<g id="node35" class="node">
<title>Node35</title>
<g id="a_node35"><a xlink:href="class_pz_g_1_1_atrybuty_rysowania.html#ab068535b4d2f755c394557d1da72a4eb" target="_top" xlink:title="Zmienia kolor rysowania.">
<polygon fill="none" stroke="black" points="911.5,-62 911.5,-92 1048.5,-92 1048.5,-62 911.5,-62"/>
<text text-anchor="start" x="919.5" y="-80" font-family="Helvetica,sans-Serif" font-size="10.00">PzG::AtrybutyRysowania</text>
<text text-anchor="middle" x="980" y="-69" font-family="Helvetica,sans-Serif" font-size="10.00">::ZmienKolor</text>
</a>
</g>
</g>
<!-- Node34&#45;&gt;Node35 -->
<g id="edge46" class="edge">
<title>Node34&#45;&gt;Node35</title>
<path fill="none" stroke="midnightblue" d="M868.67,-92.16C879.3,-90.7 890.3,-89.18 901.05,-87.71"/>
<polygon fill="midnightblue" stroke="midnightblue" points="901.83,-91.13 911.26,-86.31 900.87,-84.2 901.83,-91.13"/>
</g>
<!-- Node36 -->
<g id="node36" class="node">
<title>Node36</title>
<g id="a_node36"><a xlink:href="class_pz_g_1_1_atrybuty_rysowania.html#af4b140eb03bc10b6fd816fad63f8372e" target="_top" xlink:title="Zmienia rozmiar rysowania.">
<polygon fill="none" stroke="black" points="911.5,-13 911.5,-43 1048.5,-43 1048.5,-13 911.5,-13"/>
<text text-anchor="start" x="919.5" y="-31" font-family="Helvetica,sans-Serif" font-size="10.00">PzG::AtrybutyRysowania</text>
<text text-anchor="middle" x="980" y="-20" font-family="Helvetica,sans-Serif" font-size="10.00">::ZmienRozmiar</text>
</a>
</g>
</g>
<!-- Node34&#45;&gt;Node36 -->
<g id="edge47" class="edge">
<title>Node34&#45;&gt;Node36</title>
<path fill="none" stroke="midnightblue" d="M829.34,-86.85C851.77,-76.54 882.46,-62.86 910,-52 914.67,-50.16 919.55,-48.31 924.46,-46.5"/>
<polygon fill="midnightblue" stroke="midnightblue" points="925.68,-49.78 933.89,-43.09 923.3,-43.2 925.68,-49.78"/>
</g>
<!-- Node37 -->
<g id="node37" class="node">
<title>Node37</title>
<g id="a_node37"><a xlink:href="class_pz_g_1_1_atrybuty_rysowania.html#a2ac97706124b14072715ecf3f07e82b4" target="_top" xlink:title="Zmienia styl rysowania.">
<polygon fill="none" stroke="black" points="911.5,-111 911.5,-141 1048.5,-141 1048.5,-111 911.5,-111"/>
<text text-anchor="start" x="919.5" y="-129" font-family="Helvetica,sans-Serif" font-size="10.00">PzG::AtrybutyRysowania</text>
<text text-anchor="middle" x="980" y="-118" font-family="Helvetica,sans-Serif" font-size="10.00">::ZmienStyl</text>
</a>
</g>
</g>
<!-- Node34&#45;&gt;Node37 -->
<g id="edge48" class="edge">
<title>Node34&#45;&gt;Node37</title>
<path fill="none" stroke="midnightblue" d="M868.67,-111.45C879.3,-112.85 890.3,-114.3 901.05,-115.72"/>
<polygon fill="midnightblue" stroke="midnightblue" points="900.88,-119.23 911.26,-117.07 901.8,-112.29 900.88,-119.23"/>
</g>
<!-- Node38&#45;&gt;Node2 -->
<g id="edge50" class="edge">
<title>Node38&#45;&gt;Node2</title>
<path fill="none" stroke="midnightblue" d="M240.49,-259.14C257.14,-286.11 295.22,-342.94 340,-378 344.7,-381.68 349.93,-385.05 355.32,-388.09"/>
<polygon fill="midnightblue" stroke="midnightblue" points="353.98,-391.34 364.46,-392.89 357.24,-385.14 353.98,-391.34"/>
</g>
<!-- Node38&#45;&gt;Node12 -->
<g id="edge57" class="edge">
<title>Node38&#45;&gt;Node12</title>
<path fill="none" stroke="midnightblue" d="M254.99,-259.04C276.54,-272.45 309.64,-292.06 340,-306 411.89,-339.01 499.64,-367.8 550.63,-383.46"/>
<polygon fill="midnightblue" stroke="midnightblue" points="549.74,-386.85 560.32,-386.42 551.78,-380.15 549.74,-386.85"/>
</g>
<!-- Node38&#45;&gt;Node31 -->
<g id="edge61" class="edge">
<title>Node38&#45;&gt;Node31</title>
<path fill="none" stroke="midnightblue" d="M261.15,-228.87C290,-214.16 333.96,-191.73 365.5,-175.64"/>
<polygon fill="midnightblue" stroke="midnightblue" points="367.13,-178.74 374.45,-171.08 363.95,-172.5 367.13,-178.74"/>
</g>
<!-- Node38&#45;&gt;Node39 -->
<g id="edge51" class="edge">
<title>Node38&#45;&gt;Node39</title>
<path fill="none" stroke="midnightblue" d="M293.23,-241.78C357.93,-239.45 459.26,-235.81 525.9,-233.41"/>
<polygon fill="midnightblue" stroke="midnightblue" points="526.42,-236.9 536.28,-233.04 526.16,-229.9 526.42,-236.9"/>
</g>
<!-- Node38&#45;&gt;Node44 -->
<g id="edge58" class="edge">
<title>Node38&#45;&gt;Node44</title>
<path fill="none" stroke="midnightblue" d="M293.29,-257.61C305.65,-260.33 318.73,-263.22 331.42,-266.01"/>
<polygon fill="midnightblue" stroke="midnightblue" points="330.96,-269.49 341.48,-268.23 332.47,-262.66 330.96,-269.49"/>
</g>
<!-- Node39&#45;&gt;Node5 -->
<g id="edge54" class="edge">
<title>Node39&#45;&gt;Node5</title>
<path fill="none" stroke="midnightblue" d="M616.63,-246.13C636.63,-261.27 665.64,-286.38 682,-315 716.02,-374.52 669.2,-416.84 718,-465 725.27,-472.18 845.87,-497.37 920.56,-512.41"/>
<polygon fill="midnightblue" stroke="midnightblue" points="920.29,-515.93 930.78,-514.47 921.67,-509.06 920.29,-515.93"/>
</g>
<!-- Node40 -->
<g id="node40" class="node">
<title>Node40</title>
<g id="a_node40"><a xlink:href="class_cuboid.html#abc62d20a2f1418af1c35e369da77f0fc" target="_top" xlink:title=" ">
<polygon fill="none" stroke="black" points="732,-213.5 732,-232.5 860,-232.5 860,-213.5 732,-213.5"/>
<text text-anchor="middle" x="796" y="-220.5" font-family="Helvetica,sans-Serif" font-size="10.00">Cuboid::Cuboid_To_File</text>
</a>
</g>
</g>
<!-- Node39&#45;&gt;Node40 -->
<g id="edge52" class="edge">
<title>Node39&#45;&gt;Node40</title>
<path fill="none" stroke="midnightblue" d="M651.51,-228.74C673.34,-227.87 698.62,-226.86 721.81,-225.93"/>
<polygon fill="midnightblue" stroke="midnightblue" points="722.1,-229.42 731.95,-225.52 721.82,-222.42 722.1,-229.42"/>
</g>
<!-- Node42 -->
<g id="node42" class="node">
<title>Node42</title>
<g id="a_node42"><a xlink:href="class_prism.html#a2de0dab6d117fc3c8dcbc3c384d0fccd" target="_top" xlink:title=" ">
<polygon fill="none" stroke="black" points="738,-167.5 738,-186.5 854,-186.5 854,-167.5 738,-167.5"/>
<text text-anchor="middle" x="796" y="-174.5" font-family="Helvetica,sans-Serif" font-size="10.00">Prism::Prism_To_File</text>
</a>
</g>
</g>
<!-- Node39&#45;&gt;Node42 -->
<g id="edge55" class="edge">
<title>Node39&#45;&gt;Node42</title>
<path fill="none" stroke="midnightblue" d="M650.71,-215.96C681.94,-207.53 720.38,-197.15 749.73,-189.22"/>
<polygon fill="midnightblue" stroke="midnightblue" points="750.97,-192.51 759.71,-186.53 749.14,-185.76 750.97,-192.51"/>
</g>
<!-- Node41 -->
<g id="node41" class="node">
<title>Node41</title>
<g id="a_node41"><a xlink:href="class_cuboid.html#a12a97376443b1a15ae8342c1c75b3e1e" target="_top" xlink:title="Metoda wypisania odpowiednich wierzcholkow do pliku zgodnie z zaproponowanym sposobem zadaniu dron">
<polygon fill="none" stroke="black" points="912.5,-198.5 912.5,-217.5 1047.5,-217.5 1047.5,-198.5 912.5,-198.5"/>
<text text-anchor="middle" x="980" y="-205.5" font-family="Helvetica,sans-Serif" font-size="10.00">Cuboid::print_cuboid_3D</text>
</a>
</g>
</g>
<!-- Node40&#45;&gt;Node41 -->
<g id="edge53" class="edge">
<title>Node40&#45;&gt;Node41</title>
<path fill="none" stroke="midnightblue" d="M860.14,-217.8C873.69,-216.68 888.15,-215.49 902.16,-214.33"/>
<polygon fill="midnightblue" stroke="midnightblue" points="902.57,-217.81 912.25,-213.5 902,-210.83 902.57,-217.81"/>
</g>
<!-- Node43 -->
<g id="node43" class="node">
<title>Node43</title>
<g id="a_node43"><a xlink:href="class_prism.html#a764c6940e4fb65303981e8b877b28561" target="_top" xlink:title="Metoda wypisania odpowiednich wierzcholkow do pliku zgodnie z zaproponowanym sposobem zadaniu dron">
<polygon fill="none" stroke="black" points="917.5,-160.5 917.5,-179.5 1042.5,-179.5 1042.5,-160.5 917.5,-160.5"/>
<text text-anchor="middle" x="980" y="-167.5" font-family="Helvetica,sans-Serif" font-size="10.00">Prism::print_prism_3D</text>
</a>
</g>
</g>
<!-- Node42&#45;&gt;Node43 -->
<g id="edge56" class="edge">
<title>Node42&#45;&gt;Node43</title>
<path fill="none" stroke="midnightblue" d="M854.09,-174.8C870.91,-174.16 889.53,-173.44 907.15,-172.76"/>
<polygon fill="midnightblue" stroke="midnightblue" points="907.53,-176.25 917.38,-172.37 907.26,-169.26 907.53,-176.25"/>
</g>
<!-- Node44&#45;&gt;Node13 -->
<g id="edge60" class="edge">
<title>Node44&#45;&gt;Node13</title>
<path fill="none" stroke="midnightblue" d="M468.93,-282C534.65,-282 638.1,-282 710.81,-282"/>
<polygon fill="midnightblue" stroke="midnightblue" points="710.86,-285.5 720.86,-282 710.86,-278.5 710.86,-285.5"/>
</g>
<!-- Node44&#45;&gt;Node39 -->
<g id="edge59" class="edge">
<title>Node44&#45;&gt;Node39</title>
<path fill="none" stroke="midnightblue" d="M461.09,-266.97C482.12,-261.24 506.27,-254.65 528.12,-248.69"/>
<polygon fill="midnightblue" stroke="midnightblue" points="529.25,-252.01 537.98,-246.01 527.41,-245.26 529.25,-252.01"/>
</g>
</g>
</svg>
