<?xml version="1.0" encoding="UTF-8" standalone="no"?>
<!DOCTYPE svg PUBLIC "-//W3C//DTD SVG 1.1//EN"
 "http://www.w3.org/Graphics/SVG/1.1/DTD/svg11.dtd">
<!-- Generated by graphviz version 2.43.0 (0)
 -->
<!-- Title: Scene Pages: 1 -->
<!--zoomable 468 -->
<svg id="main" version="1.1" xmlns="http://www.w3.org/2000/svg" xmlns:xlink="http://www.w3.org/1999/xlink" xml:space="preserve" onload="init(evt)">
<style type="text/css"><![CDATA[
.edge:hover path { stroke: red; }
.edge:hover polygon { stroke: red; fill: red; }
]]></style>
<script type="text/javascript"><![CDATA[
var edges = document.getElementsByTagName('g');
if (edges && edges.length) {
  for (var i=0;i<edges.length;i++) {
    if (edges[i].id.substr(0,4)=='edge') {
      edges[i].setAttribute('class','edge');
    }
  }
}
]]></script>
        <defs>
                <circle id="rim" cx="0" cy="0" r="7"/>
                <circle id="rim2" cx="0" cy="0" r="3.5"/>
                <g id="zoomPlus">
                        <use xlink:href="#rim" fill="#404040">
                                <set attributeName="fill" to="#808080" begin="zoomplus.mouseover" end="zoomplus.mouseout"/>
                        </use>
                        <path d="M-4,0h8M0,-4v8" fill="none" stroke="white" stroke-width="1.5" pointer-events="none"/>
                </g>
                <g id="zoomMin">
                        <use xlink:href="#rim" fill="#404040">
                                <set attributeName="fill" to="#808080" begin="zoomminus.mouseover" end="zoomminus.mouseout"/>
                        </use>
                        <path d="M-4,0h8" fill="none" stroke="white" stroke-width="1.5" pointer-events="none"/>
                </g>
                <g id="dirArrow">
                        <path fill="none" stroke="white" stroke-width="1.5" d="M0,-3.0v7 M-2.5,-0.5L0,-3.0L2.5,-0.5"/>
                </g>
               <g id="resetDef">
                       <use xlink:href="#rim2" fill="#404040">
                               <set attributeName="fill" to="#808080" begin="reset.mouseover" end="reset.mouseout"/>
                       </use>
               </g>
        </defs>

<script type="text/javascript">
var viewWidth = 311;
var viewHeight = 468;
var sectionId = 'dynsection-0';
</script>
<script xlink:href="svgpan.js"/>
<svg id="graph" class="graph">
<g id="viewport">
<title>Scene</title>
<!-- Node1 -->
<g id="node1" class="node">
<title>Node1</title>
<g id="a_node1"><a xlink:title="Opisuje scene w 3D w ktorej poruszaja sie drony.">
<polygon fill="#bfbfbf" stroke="black" points="33.5,-0.5 33.5,-332.5 189.5,-332.5 189.5,-0.5 33.5,-0.5"/>
<text text-anchor="middle" x="111.5" y="-320.5" font-family="Helvetica,sans-Serif" font-size="10.00">Scene</text>
<polyline fill="none" stroke="black" points="33.5,-313.5 189.5,-313.5 "/>
<text text-anchor="middle" x="111.5" y="-301.5" font-family="Helvetica,sans-Serif" font-size="10.00"> </text>
<polyline fill="none" stroke="black" points="33.5,-294.5 189.5,-294.5 "/>
<text text-anchor="start" x="41.5" y="-282.5" font-family="Helvetica,sans-Serif" font-size="10.00">+ Scene()</text>
<text text-anchor="start" x="41.5" y="-271.5" font-family="Helvetica,sans-Serif" font-size="10.00">+ delete_scene_files()</text>
<text text-anchor="start" x="41.5" y="-260.5" font-family="Helvetica,sans-Serif" font-size="10.00">+ init_objects()</text>
<text text-anchor="start" x="41.5" y="-249.5" font-family="Helvetica,sans-Serif" font-size="10.00">+ add_basic_objects()</text>
<text text-anchor="start" x="41.5" y="-238.5" font-family="Helvetica,sans-Serif" font-size="10.00">+ add_object()</text>
<text text-anchor="start" x="41.5" y="-227.5" font-family="Helvetica,sans-Serif" font-size="10.00">+ delete_object()</text>
<text text-anchor="start" x="41.5" y="-216.5" font-family="Helvetica,sans-Serif" font-size="10.00">+ switch_object_position()</text>
<text text-anchor="start" x="41.5" y="-205.5" font-family="Helvetica,sans-Serif" font-size="10.00">+ add_object_type_cuboid()</text>
<text text-anchor="start" x="41.5" y="-194.5" font-family="Helvetica,sans-Serif" font-size="10.00">+ add_object_type_prism()</text>
<text text-anchor="start" x="41.5" y="-183.5" font-family="Helvetica,sans-Serif" font-size="10.00">+ create_filenames()</text>
<text text-anchor="start" x="41.5" y="-172.5" font-family="Helvetica,sans-Serif" font-size="10.00">+ switch_create_filenames()</text>
<text text-anchor="start" x="41.5" y="-161.5" font-family="Helvetica,sans-Serif" font-size="10.00">+ get_objects_size()</text>
<text text-anchor="start" x="41.5" y="-150.5" font-family="Helvetica,sans-Serif" font-size="10.00">+ check_scene()</text>
<text text-anchor="start" x="41.5" y="-139.5" font-family="Helvetica,sans-Serif" font-size="10.00">+ operator==()</text>
<text text-anchor="start" x="41.5" y="-128.5" font-family="Helvetica,sans-Serif" font-size="10.00">+ choose_drone()</text>
<text text-anchor="start" x="41.5" y="-117.5" font-family="Helvetica,sans-Serif" font-size="10.00">+ init_gnuplot()</text>
<text text-anchor="start" x="41.5" y="-106.5" font-family="Helvetica,sans-Serif" font-size="10.00">+ iterate_over_objects()</text>
<text text-anchor="start" x="41.5" y="-95.5" font-family="Helvetica,sans-Serif" font-size="10.00">+ get_active()</text>
<text text-anchor="start" x="41.5" y="-84.5" font-family="Helvetica,sans-Serif" font-size="10.00">+ get_filename_num()</text>
<text text-anchor="start" x="41.5" y="-73.5" font-family="Helvetica,sans-Serif" font-size="10.00">+ print_active()</text>
<text text-anchor="start" x="41.5" y="-62.5" font-family="Helvetica,sans-Serif" font-size="10.00">+ print_positions()</text>
<text text-anchor="start" x="41.5" y="-51.5" font-family="Helvetica,sans-Serif" font-size="10.00">+ fly()</text>
<text text-anchor="start" x="41.5" y="-40.5" font-family="Helvetica,sans-Serif" font-size="10.00">+ check_objects_intersect()</text>
<text text-anchor="start" x="41.5" y="-29.5" font-family="Helvetica,sans-Serif" font-size="10.00">+ scan_plane()</text>
<text text-anchor="start" x="41.5" y="-18.5" font-family="Helvetica,sans-Serif" font-size="10.00">+ fly_roundabout()</text>
<text text-anchor="start" x="41.5" y="-7.5" font-family="Helvetica,sans-Serif" font-size="10.00">+ show_elements()</text>
</a>
</g>
</g>
<!-- Node2 -->
<g id="node2" class="node">
<title>Node2</title>
<g id="a_node2"><a xlink:title=" ">
<polygon fill="none" stroke="#bfbfbf" points="0,-397 0,-454 29,-454 29,-397 0,-397"/>
<text text-anchor="middle" x="14.5" y="-442" font-family="Helvetica,sans-Serif" font-size="10.00">int</text>
<polyline fill="none" stroke="#bfbfbf" points="0,-435 29,-435 "/>
<text text-anchor="middle" x="14.5" y="-423" font-family="Helvetica,sans-Serif" font-size="10.00"> </text>
<polyline fill="none" stroke="#bfbfbf" points="0,-416 29,-416 "/>
<text text-anchor="middle" x="14.5" y="-404" font-family="Helvetica,sans-Serif" font-size="10.00"> </text>
</a>
</g>
</g>
<!-- Node2&#45;&gt;Node1 -->
<g id="edge1" class="edge">
<title>Node2&#45;&gt;Node1</title>
<path fill="none" stroke="#404040" d="M20.58,-396.99C23.92,-383.06 28.41,-365.98 33.5,-351 34.27,-348.73 35.06,-346.44 35.86,-344.15"/>
<polygon fill="none" stroke="#404040" points="35.95,-343.91 34.2,-336.91 39.98,-332.61 41.73,-339.6 35.95,-343.91"/>
<text text-anchor="middle" x="70.5" y="-365" font-family="Helvetica,sans-Serif" font-size="10.00"> &#45;active</text>
<text text-anchor="middle" x="70.5" y="-354" font-family="Helvetica,sans-Serif" font-size="10.00">&#45;filename_num</text>
</g>
<!-- Node3 -->
<g id="node3" class="node">
<title>Node3</title>
<g id="a_node3"><a xlink:title=" ">
<polygon fill="none" stroke="#bfbfbf" points="55,-391.5 55,-459.5 168,-459.5 168,-391.5 55,-391.5"/>
<text text-anchor="start" x="63" y="-447.5" font-family="Helvetica,sans-Serif" font-size="10.00">vector&lt; std::shared</text>
<text text-anchor="middle" x="111.5" y="-436.5" font-family="Helvetica,sans-Serif" font-size="10.00">_ptr&lt; Drone &gt; &gt;</text>
<polyline fill="none" stroke="#bfbfbf" points="55,-429.5 168,-429.5 "/>
<text text-anchor="middle" x="111.5" y="-417.5" font-family="Helvetica,sans-Serif" font-size="10.00"> </text>
<polyline fill="none" stroke="#bfbfbf" points="55,-410.5 168,-410.5 "/>
<text text-anchor="middle" x="111.5" y="-398.5" font-family="Helvetica,sans-Serif" font-size="10.00"> </text>
</a>
</g>
</g>
<!-- Node3&#45;&gt;Node1 -->
<g id="edge2" class="edge">
<title>Node3&#45;&gt;Node1</title>
<path fill="none" stroke="#404040" d="M111.5,-391.43C111.5,-378.31 111.5,-362.16 111.5,-344.58"/>
<polygon fill="none" stroke="#404040" points="111.5,-344.53 107.5,-338.53 111.5,-332.53 115.5,-338.53 111.5,-344.53"/>
<text text-anchor="middle" x="125.5" y="-359.5" font-family="Helvetica,sans-Serif" font-size="10.00"> &#45;flies</text>
</g>
<!-- Node4 -->
<g id="node4" class="node">
<title>Node4</title>
<g id="a_node4"><a xlink:title=" ">
<polygon fill="none" stroke="#bfbfbf" points="186.5,-391.5 186.5,-459.5 302.5,-459.5 302.5,-391.5 186.5,-391.5"/>
<text text-anchor="start" x="194.5" y="-447.5" font-family="Helvetica,sans-Serif" font-size="10.00">list&lt; std::shared_ptr</text>
<text text-anchor="middle" x="244.5" y="-436.5" font-family="Helvetica,sans-Serif" font-size="10.00">&lt; Block &gt; &gt;</text>
<polyline fill="none" stroke="#bfbfbf" points="186.5,-429.5 302.5,-429.5 "/>
<text text-anchor="middle" x="244.5" y="-417.5" font-family="Helvetica,sans-Serif" font-size="10.00"> </text>
<polyline fill="none" stroke="#bfbfbf" points="186.5,-410.5 302.5,-410.5 "/>
<text text-anchor="middle" x="244.5" y="-398.5" font-family="Helvetica,sans-Serif" font-size="10.00"> </text>
</a>
</g>
</g>
<!-- Node4&#45;&gt;Node1 -->
<g id="edge3" class="edge">
<title>Node4&#45;&gt;Node1</title>
<path fill="none" stroke="#404040" d="M227.38,-391.43C218.65,-374.56 207.32,-352.66 195.17,-329.17"/>
<polygon fill="none" stroke="#404040" points="195.05,-328.94 188.74,-325.45 189.53,-318.29 195.84,-321.78 195.05,-328.94"/>
<text text-anchor="middle" x="237" y="-359.5" font-family="Helvetica,sans-Serif" font-size="10.00"> &#45;objects</text>
</g>
</g>
</svg>
        <g id="navigator" transform="translate(0 0)" fill="#404254">
                <rect fill="#f2f5e9" fill-opacity="0.5" stroke="#606060" stroke-width=".5" x="0" y="0" width="60" height="60"/>
                <use id="zoomplus" xlink:href="#zoomPlus" x="17" y="9" onmousedown="handleZoom(evt,'in')"/>
                <use id="zoomminus" xlink:href="#zoomMin" x="42" y="9" onmousedown="handleZoom(evt,'out')"/>
                <use id="reset" xlink:href="#resetDef" x="30" y="36" onmousedown="handleReset()"/>
                <g id="arrowUp" xlink:href="#dirArrow" transform="translate(30 24)" onmousedown="handlePan(0,-1)">
                  <use xlink:href="#rim" fill="#404040">
                        <set attributeName="fill" to="#808080" begin="arrowUp.mouseover" end="arrowUp.mouseout"/>
                  </use>
                  <path fill="none" stroke="white" stroke-width="1.5" d="M0,-3.0v7 M-2.5,-0.5L0,-3.0L2.5,-0.5"/>
                </g>
                <g id="arrowRight" xlink:href="#dirArrow" transform="rotate(90) translate(36 -43)" onmousedown="handlePan(1,0)">
                  <use xlink:href="#rim" fill="#404040">
                        <set attributeName="fill" to="#808080" begin="arrowRight.mouseover" end="arrowRight.mouseout"/>
                  </use>
                  <path fill="none" stroke="white" stroke-width="1.5" d="M0,-3.0v7 M-2.5,-0.5L0,-3.0L2.5,-0.5"/>
                </g>
                <g id="arrowDown" xlink:href="#dirArrow" transform="rotate(180) translate(-30 -48)" onmousedown="handlePan(0,1)">
                  <use xlink:href="#rim" fill="#404040">
                        <set attributeName="fill" to="#808080" begin="arrowDown.mouseover" end="arrowDown.mouseout"/>
                  </use>
                  <path fill="none" stroke="white" stroke-width="1.5" d="M0,-3.0v7 M-2.5,-0.5L0,-3.0L2.5,-0.5"/>
                </g>
                <g id="arrowLeft" xlink:href="#dirArrow" transform="rotate(270) translate(-36 17)" onmousedown="handlePan(-1,0)">
                  <use xlink:href="#rim" fill="#404040">
                        <set attributeName="fill" to="#808080" begin="arrowLeft.mouseover" end="arrowLeft.mouseout"/>
                  </use>
                  <path fill="none" stroke="white" stroke-width="1.5" d="M0,-3.0v7 M-2.5,-0.5L0,-3.0L2.5,-0.5"/>
                </g>
        </g>
        <svg viewBox="0 0 15 15" width="100%" height="30px" preserveAspectRatio="xMaxYMin meet">
         <g id="arrow_out" transform="scale(0.3 0.3)">
          <a xlink:href="class_scene__coll__graph_org.svg" target="_base">
           <rect id="button" ry="5" rx="5" y="6" x="6" height="38" width="38"
                fill="#f2f5e9" fill-opacity="0.5" stroke="#606060" stroke-width="1.0"/>
           <path id="arrow"
             d="M 11.500037,31.436501 C 11.940474,20.09759 22.043105,11.32322 32.158766,21.979434 L 37.068811,17.246167 C 37.068811,17.246167 37.088388,32 37.088388,32 L 22.160133,31.978069 C 22.160133,31.978069 26.997745,27.140456 26.997745,27.140456 C 18.528582,18.264221 13.291696,25.230495 11.500037,31.436501 z"
             style="fill:#404040;"/>
          </a>
         </g>
        </svg>
</svg>
