<?xml version="1.0" encoding="UTF-8" standalone="no"?>
<!DOCTYPE svg PUBLIC "-//W3C//DTD SVG 1.1//EN"
 "http://www.w3.org/Graphics/SVG/1.1/DTD/svg11.dtd">
<!-- Generated by graphviz version 2.43.0 (0)
 -->
<!-- Title: Drone::Drone_basic_motion_flight Pages: 1 -->
<svg width="1184pt" height="692pt"
 viewBox="0.00 0.00 1184.00 691.50" xmlns="http://www.w3.org/2000/svg" xmlns:xlink="http://www.w3.org/1999/xlink">
<g id="graph0" class="graph" transform="scale(1 1) rotate(0) translate(4 687.5)">
<title>Drone::Drone_basic_motion_flight</title>
<!-- Node1 -->
<g id="node1" class="node">
<title>Node1</title>
<g id="a_node1"><a xlink:title="Metoda obliczajaca i przeprowadzajaca caly ruch drona (obrot o kat i przelot z zadania 5....">
<polygon fill="#bfbfbf" stroke="black" points="0,-194.5 0,-224.5 112,-224.5 112,-194.5 0,-194.5"/>
<text text-anchor="start" x="8" y="-212.5" font-family="Helvetica,sans-Serif" font-size="10.00">Drone::Drone_basic</text>
<text text-anchor="middle" x="56" y="-201.5" font-family="Helvetica,sans-Serif" font-size="10.00">_motion_flight</text>
</a>
</g>
</g>
<!-- Node2 -->
<g id="node2" class="node">
<title>Node2</title>
<g id="a_node2"><a xlink:href="class_drone.html#af03af60a9b92e4191a7e66b5c20b52bb" target="_top" xlink:title="Metoda zamieniajaca drona na tego z pliku sample.">
<polygon fill="none" stroke="black" points="331,-380.5 331,-410.5 453,-410.5 453,-380.5 331,-380.5"/>
<text text-anchor="start" x="339" y="-398.5" font-family="Helvetica,sans-Serif" font-size="10.00">Drone::Drone_change</text>
<text text-anchor="middle" x="392" y="-387.5" font-family="Helvetica,sans-Serif" font-size="10.00">_to_sample</text>
</a>
</g>
</g>
<!-- Node1&#45;&gt;Node2 -->
<g id="edge1" class="edge">
<title>Node1&#45;&gt;Node2</title>
<path fill="none" stroke="midnightblue" d="M64.53,-224.7C77.82,-249.96 107.89,-300.45 148,-327.5 199.84,-362.46 269.41,-379.58 320.83,-387.88"/>
<polygon fill="midnightblue" stroke="midnightblue" points="320.45,-391.36 330.86,-389.42 321.51,-384.44 320.45,-391.36"/>
</g>
<!-- Node24 -->
<g id="node24" class="node">
<title>Node24</title>
<g id="a_node24"><a xlink:href="class_drone.html#a6662bd8203e8c9a0721c457b3612a7c1" target="_top" xlink:title="Metoda uzywana przy konstruowania drona przesuwa drona w ten sposob, ze Vector3D centre prostopadlosc...">
<polygon fill="none" stroke="black" points="529,-311.5 529,-341.5 633,-341.5 633,-311.5 529,-311.5"/>
<text text-anchor="start" x="537" y="-329.5" font-family="Helvetica,sans-Serif" font-size="10.00">Drone::translation</text>
<text text-anchor="middle" x="581" y="-318.5" font-family="Helvetica,sans-Serif" font-size="10.00">_to_pos</text>
</a>
</g>
</g>
<!-- Node1&#45;&gt;Node24 -->
<g id="edge65" class="edge">
<title>Node1&#45;&gt;Node24</title>
<path fill="none" stroke="midnightblue" d="M71.5,-224.56C88.24,-240.91 117.43,-266.3 148,-278.5 272.6,-328.22 432.47,-332.03 518.54,-329.72"/>
<polygon fill="midnightblue" stroke="midnightblue" points="518.78,-333.22 528.66,-329.41 518.56,-326.22 518.78,-333.22"/>
</g>
<!-- Node27 -->
<g id="node27" class="node">
<title>Node27</title>
<g id="a_node27"><a xlink:href="class_drone.html#a7d439c14df86ae4cec39f81629b71135" target="_top" xlink:title="Metoda przygotowujaca sciezke drona z uzyciem std::vector&lt;&gt;">
<polygon fill="none" stroke="black" points="149.5,-64 149.5,-83 289.5,-83 289.5,-64 149.5,-64"/>
<text text-anchor="middle" x="219.5" y="-71" font-family="Helvetica,sans-Serif" font-size="10.00">Drone::Drone_make_path</text>
</a>
</g>
</g>
<!-- Node1&#45;&gt;Node27 -->
<g id="edge38" class="edge">
<title>Node1&#45;&gt;Node27</title>
<path fill="none" stroke="midnightblue" d="M64.53,-194.39C77.84,-169.29 107.92,-119.13 148,-92.5 151.08,-90.45 154.38,-88.62 157.81,-86.99"/>
<polygon fill="midnightblue" stroke="midnightblue" points="159.22,-90.19 167.1,-83.11 156.53,-83.73 159.22,-90.19"/>
</g>
<!-- Node28 -->
<g id="node28" class="node">
<title>Node28</title>
<g id="a_node28"><a xlink:href="class_drone.html#ae1e0bb7bf7063795bce4bbf5ef99cb74" target="_top" xlink:title="Metoda zapisujaca sciezke do pliku oraz do lacza.">
<polygon fill="none" stroke="black" points="148,-102 148,-121 291,-121 291,-102 148,-102"/>
<text text-anchor="middle" x="219.5" y="-109" font-family="Helvetica,sans-Serif" font-size="10.00">Drone::Drone_path_to_file</text>
</a>
</g>
</g>
<!-- Node1&#45;&gt;Node28 -->
<g id="edge39" class="edge">
<title>Node1&#45;&gt;Node28</title>
<path fill="none" stroke="midnightblue" d="M72.18,-194.26C89.3,-177.81 118.6,-151.77 148,-135.5 155.73,-131.22 164.35,-127.52 172.84,-124.39"/>
<polygon fill="midnightblue" stroke="midnightblue" points="174.01,-127.69 182.31,-121.1 171.72,-121.08 174.01,-127.69"/>
</g>
<!-- Node31 -->
<g id="node31" class="node">
<title>Node31</title>
<g id="a_node31"><a xlink:href="class_pz_g_1_1_lacze_do_g_n_u_plota.html#a065f5b8402737cc62b0ad4f66d028335" target="_top" xlink:title="Generuje polecenie rysowania i przesyła je do gnuplota.">
<polygon fill="none" stroke="black" points="327,-128.5 327,-158.5 457,-158.5 457,-128.5 327,-128.5"/>
<text text-anchor="start" x="335" y="-146.5" font-family="Helvetica,sans-Serif" font-size="10.00">PzG::LaczeDoGNUPlota</text>
<text text-anchor="middle" x="392" y="-135.5" font-family="Helvetica,sans-Serif" font-size="10.00">::Rysuj</text>
</a>
</g>
</g>
<!-- Node1&#45;&gt;Node31 -->
<g id="edge64" class="edge">
<title>Node1&#45;&gt;Node31</title>
<path fill="none" stroke="midnightblue" d="M89.19,-194.45C106.31,-187.04 127.92,-178.62 148,-173.5 203.66,-159.3 268.27,-151.73 316.87,-147.75"/>
<polygon fill="midnightblue" stroke="midnightblue" points="317.3,-151.23 326.99,-146.96 316.75,-144.25 317.3,-151.23"/>
</g>
<!-- Node38 -->
<g id="node38" class="node">
<title>Node38</title>
<g id="a_node38"><a xlink:href="class_drone.html#af052f6bb793d1229b99b16b800b95b82" target="_top" xlink:title="Metoda animujaca obrot drona i wyrysowujaca calosc w gnuplocie.">
<polygon fill="none" stroke="black" points="157,-216.5 157,-246.5 282,-246.5 282,-216.5 157,-216.5"/>
<text text-anchor="start" x="165" y="-234.5" font-family="Helvetica,sans-Serif" font-size="10.00">Drone::Drone_rotation</text>
<text text-anchor="middle" x="219.5" y="-223.5" font-family="Helvetica,sans-Serif" font-size="10.00">_animation</text>
</a>
</g>
</g>
<!-- Node1&#45;&gt;Node38 -->
<g id="edge49" class="edge">
<title>Node1&#45;&gt;Node38</title>
<path fill="none" stroke="midnightblue" d="M112.13,-217.01C123.29,-218.53 135.19,-220.15 146.83,-221.74"/>
<polygon fill="midnightblue" stroke="midnightblue" points="146.59,-225.24 156.97,-223.12 147.53,-218.3 146.59,-225.24"/>
</g>
<!-- Node39 -->
<g id="node39" class="node">
<title>Node39</title>
<g id="a_node39"><a xlink:href="class_drone.html#aae0029f50083a01fe75c7d504c2fe5b9" target="_top" xlink:title="Metoda zapisujaca parametry drona do plikow (do plikow final kazdego z elementow)">
<polygon fill="none" stroke="black" points="523.5,-203.5 523.5,-233.5 638.5,-233.5 638.5,-203.5 523.5,-203.5"/>
<text text-anchor="start" x="531.5" y="-221.5" font-family="Helvetica,sans-Serif" font-size="10.00">Drone::Print_to_files</text>
<text text-anchor="middle" x="581" y="-210.5" font-family="Helvetica,sans-Serif" font-size="10.00">_drone</text>
</a>
</g>
</g>
<!-- Node1&#45;&gt;Node39 -->
<g id="edge62" class="edge">
<title>Node1&#45;&gt;Node39</title>
<path fill="none" stroke="midnightblue" d="M112.33,-207.38C124.11,-207.02 136.46,-206.69 148,-206.5 211.55,-205.45 227.46,-205.18 291,-206.5 367.13,-208.08 454.48,-212 513.04,-214.93"/>
<polygon fill="midnightblue" stroke="midnightblue" points="513.1,-218.44 523.27,-215.45 513.45,-211.45 513.1,-218.44"/>
</g>
<!-- Node44 -->
<g id="node44" class="node">
<title>Node44</title>
<g id="a_node44"><a xlink:href="class_drone.html#aedb04b80609b22ff4eb4a957bc149a48" target="_top" xlink:title="Metoda animujaca obrot rotorow i zapisujaca to w plikach. Metoda sluzy jako metoda pomocnicza,...">
<polygon fill="none" stroke="black" points="328.5,-254.5 328.5,-284.5 455.5,-284.5 455.5,-254.5 328.5,-254.5"/>
<text text-anchor="start" x="336.5" y="-272.5" font-family="Helvetica,sans-Serif" font-size="10.00">Drone::Rotors_rotation</text>
<text text-anchor="middle" x="392" y="-261.5" font-family="Helvetica,sans-Serif" font-size="10.00">_animation</text>
</a>
</g>
</g>
<!-- Node1&#45;&gt;Node44 -->
<g id="edge63" class="edge">
<title>Node1&#45;&gt;Node44</title>
<path fill="none" stroke="midnightblue" d="M80.25,-224.63C98.02,-235.34 123.55,-248.92 148,-255.5 203.81,-270.51 269.35,-273.48 318.29,-272.99"/>
<polygon fill="midnightblue" stroke="midnightblue" points="318.52,-276.49 328.47,-272.83 318.42,-269.49 318.52,-276.49"/>
</g>
<!-- Node3 -->
<g id="node3" class="node">
<title>Node3</title>
<g id="a_node3"><a xlink:href="class_drone.html#ada6f4e93f4a63cbe1d6fbebf329efe62" target="_top" xlink:title="Metoda wczytywania odpowiednich wierzcholkow z pliku wzorcowego zgodnie z zaproponowanym sposobem w z...">
<polygon fill="none" stroke="black" points="504.5,-538 504.5,-557 657.5,-557 657.5,-538 504.5,-538"/>
<text text-anchor="middle" x="581" y="-545" font-family="Helvetica,sans-Serif" font-size="10.00">Drone::Drone_From_Sample</text>
</a>
</g>
</g>
<!-- Node2&#45;&gt;Node3 -->
<g id="edge2" class="edge">
<title>Node2&#45;&gt;Node3</title>
<path fill="none" stroke="midnightblue" d="M411.61,-410.63C447.02,-439.41 523.78,-501.8 560.13,-531.35"/>
<polygon fill="midnightblue" stroke="midnightblue" points="558.09,-534.2 568.06,-537.79 562.51,-528.77 558.09,-534.2"/>
</g>
<!-- Node12 -->
<g id="node12" class="node">
<title>Node12</title>
<g id="a_node12"><a xlink:href="class_drone.html#ad42bc54902df967b94717617aca1a974" target="_top" xlink:title="Metoda obracajaca dron o zadany kat w 3D wokol srodka figury">
<polygon fill="none" stroke="black" points="505,-374 505,-393 657,-393 657,-374 505,-374"/>
<text text-anchor="middle" x="581" y="-381" font-family="Helvetica,sans-Serif" font-size="10.00">Drone::rotation_around_cen</text>
</a>
</g>
</g>
<!-- Node2&#45;&gt;Node12 -->
<g id="edge19" class="edge">
<title>Node2&#45;&gt;Node12</title>
<path fill="none" stroke="midnightblue" d="M453.2,-391.64C466.43,-390.79 480.68,-389.87 494.69,-388.97"/>
<polygon fill="midnightblue" stroke="midnightblue" points="495.07,-392.46 504.83,-388.32 494.62,-385.47 495.07,-392.46"/>
</g>
<!-- Node22 -->
<g id="node22" class="node">
<title>Node22</title>
<g id="a_node22"><a xlink:href="class_drone.html#a55c483c4e4cf0ec91d5bda5448417f08" target="_top" xlink:title="Metoda ustawiajaca drone_pos">
<polygon fill="none" stroke="black" points="520,-620 520,-639 642,-639 642,-620 520,-620"/>
<text text-anchor="middle" x="581" y="-627" font-family="Helvetica,sans-Serif" font-size="10.00">Drone::set_drone_pos</text>
</a>
</g>
</g>
<!-- Node2&#45;&gt;Node22 -->
<g id="edge31" class="edge">
<title>Node2&#45;&gt;Node22</title>
<path fill="none" stroke="midnightblue" d="M399.23,-410.56C412.8,-442.1 447.49,-516.31 493,-566.5 510.68,-586 535.32,-603.15 553.86,-614.61"/>
<polygon fill="midnightblue" stroke="midnightblue" points="552.3,-617.76 562.67,-619.92 555.91,-611.76 552.3,-617.76"/>
</g>
<!-- Node2&#45;&gt;Node24 -->
<g id="edge33" class="edge">
<title>Node2&#45;&gt;Node24</title>
<path fill="none" stroke="midnightblue" d="M434.04,-380.36C462.17,-369.98 499.68,-356.14 529.62,-345.09"/>
<polygon fill="midnightblue" stroke="midnightblue" points="530.89,-348.35 539.06,-341.61 528.46,-341.79 530.89,-348.35"/>
</g>
<!-- Node4 -->
<g id="node4" class="node">
<title>Node4</title>
<g id="a_node4"><a xlink:href="class_cuboid.html#a773f92fecdf9686b951cf5736c83f318" target="_top" xlink:title="Metoda wczytywania odpowiednich wierzcholkow z pliku wzorcowego zgodnie z zaproponowanym sposobem zad...">
<polygon fill="none" stroke="black" points="723,-576.5 723,-606.5 843,-606.5 843,-576.5 723,-576.5"/>
<text text-anchor="start" x="731" y="-594.5" font-family="Helvetica,sans-Serif" font-size="10.00">Cuboid::Cuboid_From</text>
<text text-anchor="middle" x="783" y="-583.5" font-family="Helvetica,sans-Serif" font-size="10.00">_Sample</text>
</a>
</g>
</g>
<!-- Node3&#45;&gt;Node4 -->
<g id="edge3" class="edge">
<title>Node3&#45;&gt;Node4</title>
<path fill="none" stroke="midnightblue" d="M625.4,-557.05C650.88,-562.65 683.68,-569.87 712.68,-576.25"/>
<polygon fill="midnightblue" stroke="midnightblue" points="712.24,-579.74 722.75,-578.47 713.74,-572.9 712.24,-579.74"/>
</g>
<!-- Node9 -->
<g id="node9" class="node">
<title>Node9</title>
<g id="a_node9"><a xlink:href="class_drone.html#addf8532ee98ca800a64a78f3808fce98" target="_top" xlink:title="Metoda zwracajaca nazwy plikow do zapisu dla drona.">
<polygon fill="none" stroke="black" points="722.5,-500 722.5,-519 843.5,-519 843.5,-500 722.5,-500"/>
<text text-anchor="middle" x="783" y="-507" font-family="Helvetica,sans-Serif" font-size="10.00">Drone::get_filenames</text>
</a>
</g>
</g>
<!-- Node3&#45;&gt;Node9 -->
<g id="edge8" class="edge">
<title>Node3&#45;&gt;Node9</title>
<path fill="none" stroke="midnightblue" d="M632.21,-537.96C659.43,-532.79 693.26,-526.36 721.88,-520.92"/>
<polygon fill="midnightblue" stroke="midnightblue" points="722.6,-524.35 731.77,-519.04 721.29,-517.47 722.6,-524.35"/>
</g>
<!-- Node10 -->
<g id="node10" class="node">
<title>Node10</title>
<g id="a_node10"><a xlink:href="class_prism.html#a5e0a2234e9ebe3b51146c0ddc42e8b48" target="_top" xlink:title="Metoda wczytywania odpowiednich wierzcholkow z pliku wzorcowego zgodnie z zaproponowanym sposobem zad...">
<polygon fill="none" stroke="black" points="708,-538 708,-557 858,-557 858,-538 708,-538"/>
<text text-anchor="middle" x="783" y="-545" font-family="Helvetica,sans-Serif" font-size="10.00">Prism::Prism_From_Sample</text>
</a>
</g>
</g>
<!-- Node3&#45;&gt;Node10 -->
<g id="edge11" class="edge">
<title>Node3&#45;&gt;Node10</title>
<path fill="none" stroke="midnightblue" d="M657.61,-547.5C670.75,-547.5 684.48,-547.5 697.82,-547.5"/>
<polygon fill="midnightblue" stroke="midnightblue" points="697.94,-551 707.94,-547.5 697.94,-544 697.94,-551"/>
</g>
<!-- Node11 -->
<g id="node11" class="node">
<title>Node11</title>
<g id="a_node11"><a xlink:href="class_drone.html#add09c27034d4ff229cc22b58c443c0f4" target="_top" xlink:title="Metoda ustawiajaca nazwy plikow do zapisu dla drona.">
<polygon fill="none" stroke="black" points="717,-626 717,-645 849,-645 849,-626 717,-626"/>
<text text-anchor="middle" x="783" y="-633" font-family="Helvetica,sans-Serif" font-size="10.00">Drone::setup_filenames</text>
</a>
</g>
</g>
<!-- Node3&#45;&gt;Node11 -->
<g id="edge16" class="edge">
<title>Node3&#45;&gt;Node11</title>
<path fill="none" stroke="midnightblue" d="M596.14,-557.11C618.38,-571.84 663.33,-600.02 705,-616.5 711.28,-618.98 717.98,-621.21 724.71,-623.19"/>
<polygon fill="midnightblue" stroke="midnightblue" points="723.97,-626.62 734.54,-625.92 725.84,-619.88 723.97,-626.62"/>
</g>
<!-- Node5 -->
<g id="node5" class="node">
<title>Node5</title>
<g id="a_node5"><a xlink:href="class_block.html#aeef4dd3716afaea42688a4f96456ce27" target="_top" xlink:title="Metoda zwracajaca nazwe pliku z finalna (robocza) bryla">
<polygon fill="none" stroke="black" points="904.5,-502 904.5,-521 1029.5,-521 1029.5,-502 904.5,-502"/>
<text text-anchor="middle" x="967" y="-509" font-family="Helvetica,sans-Serif" font-size="10.00">Block::get_final_name</text>
</a>
</g>
</g>
<!-- Node4&#45;&gt;Node5 -->
<g id="edge4" class="edge">
<title>Node4&#45;&gt;Node5</title>
<path fill="none" stroke="midnightblue" d="M840.89,-576.45C847.89,-573.62 854.77,-570.32 861,-566.5 880.29,-554.68 877.44,-541.88 897,-530.5 900.85,-528.26 904.97,-526.27 909.22,-524.52"/>
<polygon fill="midnightblue" stroke="midnightblue" points="910.49,-527.78 918.65,-521.02 908.06,-521.21 910.49,-527.78"/>
</g>
<!-- Node6 -->
<g id="node6" class="node">
<title>Node6</title>
<g id="a_node6"><a xlink:href="class_block.html#aed17e0cb13b8eea50fe735ba05204da9" target="_top" xlink:title="Metoda zwracajaca nazwe pliku z wzorcowa bryla">
<polygon fill="none" stroke="black" points="897,-540 897,-559 1037,-559 1037,-540 897,-540"/>
<text text-anchor="middle" x="967" y="-547" font-family="Helvetica,sans-Serif" font-size="10.00">Block::get_sample_name</text>
</a>
</g>
</g>
<!-- Node4&#45;&gt;Node6 -->
<g id="edge5" class="edge">
<title>Node4&#45;&gt;Node6</title>
<path fill="none" stroke="midnightblue" d="M843.09,-577.86C866.22,-572.53 892.5,-566.46 914.81,-561.31"/>
<polygon fill="midnightblue" stroke="midnightblue" points="915.8,-564.68 924.76,-559.02 914.22,-557.86 915.8,-564.68"/>
</g>
<!-- Node7 -->
<g id="node7" class="node">
<title>Node7</title>
<g id="a_node7"><a xlink:href="class_block.html#a640a910076d8b10533a9a80d740f8f03" target="_top" xlink:title="Metoda zapisujaca do klasy nazwe pliku z finalna (robocza) bryla">
<polygon fill="none" stroke="black" points="905,-581 905,-600 1029,-600 1029,-581 905,-581"/>
<text text-anchor="middle" x="967" y="-588" font-family="Helvetica,sans-Serif" font-size="10.00">Block::set_final_name</text>
</a>
</g>
</g>
<!-- Node4&#45;&gt;Node7 -->
<g id="edge6" class="edge">
<title>Node4&#45;&gt;Node7</title>
<path fill="none" stroke="midnightblue" d="M843.09,-591.18C859.42,-591.09 877.32,-590.99 894.29,-590.89"/>
<polygon fill="midnightblue" stroke="midnightblue" points="894.73,-594.39 904.71,-590.84 894.69,-587.39 894.73,-594.39"/>
</g>
<!-- Node8 -->
<g id="node8" class="node">
<title>Node8</title>
<g id="a_node8"><a xlink:href="class_block.html#acf20b290f1543e580ff1f2c6d98ff4c4" target="_top" xlink:title="Metoda zapisujaca do klasy nazwe pliku z wzorcowa bryla">
<polygon fill="none" stroke="black" points="897.5,-619 897.5,-638 1036.5,-638 1036.5,-619 897.5,-619"/>
<text text-anchor="middle" x="967" y="-626" font-family="Helvetica,sans-Serif" font-size="10.00">Block::set_sample_name</text>
</a>
</g>
</g>
<!-- Node4&#45;&gt;Node8 -->
<g id="edge7" class="edge">
<title>Node4&#45;&gt;Node8</title>
<path fill="none" stroke="midnightblue" d="M843.09,-603.51C864.23,-607.81 888,-612.64 908.96,-616.9"/>
<polygon fill="midnightblue" stroke="midnightblue" points="908.51,-620.38 919.01,-618.95 909.9,-613.52 908.51,-620.38"/>
</g>
<!-- Node9&#45;&gt;Node5 -->
<g id="edge9" class="edge">
<title>Node9&#45;&gt;Node5</title>
<path fill="none" stroke="midnightblue" d="M843.59,-510.15C859.73,-510.33 877.38,-510.53 894.11,-510.71"/>
<polygon fill="midnightblue" stroke="midnightblue" points="894.36,-514.21 904.4,-510.82 894.44,-507.21 894.36,-514.21"/>
</g>
<!-- Node9&#45;&gt;Node6 -->
<g id="edge10" class="edge">
<title>Node9&#45;&gt;Node6</title>
<path fill="none" stroke="midnightblue" d="M827.59,-519.08C853.14,-524.7 885.61,-531.83 912.68,-537.78"/>
<polygon fill="midnightblue" stroke="midnightblue" points="912.24,-541.27 922.76,-540 913.75,-534.43 912.24,-541.27"/>
</g>
<!-- Node10&#45;&gt;Node5 -->
<g id="edge12" class="edge">
<title>Node10&#45;&gt;Node5</title>
<path fill="none" stroke="midnightblue" d="M832.29,-537.95C855.53,-533.35 883.56,-527.81 907.95,-522.98"/>
<polygon fill="midnightblue" stroke="midnightblue" points="908.66,-526.41 917.8,-521.03 907.31,-519.54 908.66,-526.41"/>
</g>
<!-- Node10&#45;&gt;Node6 -->
<g id="edge13" class="edge">
<title>Node10&#45;&gt;Node6</title>
<path fill="none" stroke="midnightblue" d="M858.03,-548.31C867.42,-548.42 877.07,-548.52 886.54,-548.63"/>
<polygon fill="midnightblue" stroke="midnightblue" points="886.7,-552.13 896.74,-548.74 886.78,-545.13 886.7,-552.13"/>
</g>
<!-- Node10&#45;&gt;Node7 -->
<g id="edge14" class="edge">
<title>Node10&#45;&gt;Node7</title>
<path fill="none" stroke="midnightblue" d="M824.39,-557.04C851.37,-563.42 887.05,-571.85 915.85,-578.65"/>
<polygon fill="midnightblue" stroke="midnightblue" points="915.18,-582.09 925.72,-580.98 916.79,-575.28 915.18,-582.09"/>
</g>
<!-- Node10&#45;&gt;Node8 -->
<g id="edge15" class="edge">
<title>Node10&#45;&gt;Node8</title>
<path fill="none" stroke="midnightblue" d="M837.93,-557C846.01,-559.68 853.97,-563.11 861,-567.5 881.85,-580.52 876.24,-596.33 897,-609.5 900.33,-611.61 903.89,-613.49 907.58,-615.16"/>
<polygon fill="midnightblue" stroke="midnightblue" points="906.36,-618.45 916.94,-618.91 908.96,-611.95 906.36,-618.45"/>
</g>
<!-- Node11&#45;&gt;Node7 -->
<g id="edge17" class="edge">
<title>Node11&#45;&gt;Node7</title>
<path fill="none" stroke="midnightblue" d="M822.78,-625.94C835.01,-622.92 848.57,-619.57 861,-616.5 879.44,-611.94 899.7,-606.93 917.46,-602.53"/>
<polygon fill="midnightblue" stroke="midnightblue" points="918.74,-605.82 927.6,-600.02 917.05,-599.02 918.74,-605.82"/>
</g>
<!-- Node11&#45;&gt;Node8 -->
<g id="edge18" class="edge">
<title>Node11&#45;&gt;Node8</title>
<path fill="none" stroke="midnightblue" d="M849.19,-632.99C861.51,-632.52 874.51,-632.02 887.19,-631.53"/>
<polygon fill="midnightblue" stroke="midnightblue" points="887.41,-635.03 897.27,-631.14 887.14,-628.03 887.41,-635.03"/>
</g>
<!-- Node13 -->
<g id="node13" class="node">
<title>Node13</title>
<g id="a_node13"><a xlink:href="class_prism.html#a22c5467db5d960bddbaf9a52f55c55cb" target="_top" xlink:title="Metoda obracajaca graniastoslup o zadany kat w 3D wokol srodka figury">
<polygon fill="none" stroke="black" points="708,-260 708,-279 858,-279 858,-260 708,-260"/>
<text text-anchor="middle" x="783" y="-267" font-family="Helvetica,sans-Serif" font-size="10.00">Prism::rotation_around_cen</text>
</a>
</g>
</g>
<!-- Node12&#45;&gt;Node13 -->
<g id="edge20" class="edge">
<title>Node12&#45;&gt;Node13</title>
<path fill="none" stroke="midnightblue" d="M625.86,-373.91C640.75,-369.05 656.71,-361.89 669,-351.5 693.62,-330.67 679.26,-307.93 705,-288.5 707.5,-286.61 710.17,-284.91 712.95,-283.37"/>
<polygon fill="midnightblue" stroke="midnightblue" points="714.62,-286.45 722.16,-279.02 711.62,-280.13 714.62,-286.45"/>
</g>
<!-- Node16 -->
<g id="node16" class="node">
<title>Node16</title>
<g id="a_node16"><a xlink:href="class_cuboid.html#a6c697c2d9b36a14c43c7328876d5a1f0" target="_top" xlink:title="Metoda obracajaca prostopadloscian o zadany kat w 3D wokol srodka figury">
<polygon fill="none" stroke="black" points="705,-374 705,-393 861,-393 861,-374 705,-374"/>
<text text-anchor="middle" x="783" y="-381" font-family="Helvetica,sans-Serif" font-size="10.00">Cuboid::rotation_around_cen</text>
</a>
</g>
</g>
<!-- Node12&#45;&gt;Node16 -->
<g id="edge24" class="edge">
<title>Node12&#45;&gt;Node16</title>
<path fill="none" stroke="midnightblue" d="M657.04,-383.5C669.37,-383.5 682.25,-383.5 694.84,-383.5"/>
<polygon fill="midnightblue" stroke="midnightblue" points="694.87,-387 704.87,-383.5 694.87,-380 694.87,-387"/>
</g>
<!-- Node19 -->
<g id="node19" class="node">
<title>Node19</title>
<g id="a_node19"><a xlink:href="class_drone.html#aea963b77f42c204504542a3d9190d762" target="_top" xlink:title="Metoda uzywana przy konstruowania drona Ustawia rotory w ten sposob, ze srodek ich dolnej podstawy je...">
<polygon fill="none" stroke="black" points="725.5,-412.5 725.5,-442.5 840.5,-442.5 840.5,-412.5 725.5,-412.5"/>
<text text-anchor="start" x="733.5" y="-430.5" font-family="Helvetica,sans-Serif" font-size="10.00">Drone::set_rotors_in</text>
<text text-anchor="middle" x="783" y="-419.5" font-family="Helvetica,sans-Serif" font-size="10.00">_place</text>
</a>
</g>
</g>
<!-- Node12&#45;&gt;Node19 -->
<g id="edge27" class="edge">
<title>Node12&#45;&gt;Node19</title>
<path fill="none" stroke="midnightblue" d="M625.4,-393.05C651.72,-398.84 685.84,-406.34 715.51,-412.87"/>
<polygon fill="midnightblue" stroke="midnightblue" points="714.87,-416.31 725.38,-415.04 716.37,-409.48 714.87,-416.31"/>
</g>
<!-- Node14 -->
<g id="node14" class="node">
<title>Node14</title>
<g id="a_node14"><a xlink:href="class_prism.html#ade146d341c0468030f8c1258b7fe1041" target="_top" xlink:title="Metoda przesuwajaca graniastoslup o zadany wektor w 3D">
<polygon fill="none" stroke="black" points="1073,-281 1073,-300 1176,-300 1176,-281 1073,-281"/>
<text text-anchor="middle" x="1124.5" y="-288" font-family="Helvetica,sans-Serif" font-size="10.00">Prism::translation</text>
</a>
</g>
</g>
<!-- Node13&#45;&gt;Node14 -->
<g id="edge21" class="edge">
<title>Node13&#45;&gt;Node14</title>
<path fill="none" stroke="midnightblue" d="M825.23,-259.92C875.71,-249.74 963.54,-237.08 1037,-252.5 1058.6,-257.04 1081.4,-267.31 1098.16,-276.03"/>
<polygon fill="midnightblue" stroke="midnightblue" points="1096.82,-279.28 1107.28,-280.93 1100.13,-273.11 1096.82,-279.28"/>
</g>
<!-- Node15 -->
<g id="node15" class="node">
<title>Node15</title>
<g id="a_node15"><a xlink:href="class_prism.html#afed2c26932d5cb152fd620d2acbfbc3e" target="_top" xlink:title="Metoda przesuwajaca graniastoslup do srodka ukladu wspolrzednych (tak, ze srodek graniastoslupa pokry...">
<polygon fill="none" stroke="black" points="901.5,-262 901.5,-281 1032.5,-281 1032.5,-262 901.5,-262"/>
<text text-anchor="middle" x="967" y="-269" font-family="Helvetica,sans-Serif" font-size="10.00">Prism::translation_to_O</text>
</a>
</g>
</g>
<!-- Node13&#45;&gt;Node15 -->
<g id="edge22" class="edge">
<title>Node13&#45;&gt;Node15</title>
<path fill="none" stroke="midnightblue" d="M858.03,-270.31C869.03,-270.43 880.37,-270.56 891.38,-270.68"/>
<polygon fill="midnightblue" stroke="midnightblue" points="891.35,-274.18 901.39,-270.79 891.42,-267.18 891.35,-274.18"/>
</g>
<!-- Node15&#45;&gt;Node14 -->
<g id="edge23" class="edge">
<title>Node15&#45;&gt;Node14</title>
<path fill="none" stroke="midnightblue" d="M1032.6,-279.39C1042.5,-280.6 1052.71,-281.85 1062.53,-283.05"/>
<polygon fill="midnightblue" stroke="midnightblue" points="1062.26,-286.54 1072.61,-284.28 1063.11,-279.59 1062.26,-286.54"/>
</g>
<!-- Node17 -->
<g id="node17" class="node">
<title>Node17</title>
<g id="a_node17"><a xlink:href="class_cuboid.html#a3f6b1b9ea7de433af5b0d462d29f4272" target="_top" xlink:title="Metoda przesuwajaca prostopadloscian o zadany kat w 3D">
<polygon fill="none" stroke="black" points="912.5,-338 912.5,-357 1021.5,-357 1021.5,-338 912.5,-338"/>
<text text-anchor="middle" x="967" y="-345" font-family="Helvetica,sans-Serif" font-size="10.00">Cuboid::translation</text>
</a>
</g>
</g>
<!-- Node16&#45;&gt;Node17 -->
<g id="edge25" class="edge">
<title>Node16&#45;&gt;Node17</title>
<path fill="none" stroke="midnightblue" d="M832.29,-373.95C855.53,-369.35 883.56,-363.81 907.95,-358.98"/>
<polygon fill="midnightblue" stroke="midnightblue" points="908.66,-362.41 917.8,-357.03 907.31,-355.54 908.66,-362.41"/>
</g>
<!-- Node18 -->
<g id="node18" class="node">
<title>Node18</title>
<g id="a_node18"><a xlink:href="class_cuboid.html#a42bdce7c214e759cb6ea94d4f547a5b9" target="_top" xlink:title="Metoda przesuwajaca prostopadloscian do (0,0,0)">
<polygon fill="none" stroke="black" points="898.5,-376 898.5,-395 1035.5,-395 1035.5,-376 898.5,-376"/>
<text text-anchor="middle" x="967" y="-383" font-family="Helvetica,sans-Serif" font-size="10.00">Cuboid::translation_to_O</text>
</a>
</g>
</g>
<!-- Node16&#45;&gt;Node18 -->
<g id="edge26" class="edge">
<title>Node16&#45;&gt;Node18</title>
<path fill="none" stroke="midnightblue" d="M861.18,-384.35C870.19,-384.45 879.39,-384.55 888.41,-384.65"/>
<polygon fill="midnightblue" stroke="midnightblue" points="888.45,-388.15 898.49,-384.76 888.53,-381.15 888.45,-388.15"/>
</g>
<!-- Node20 -->
<g id="node20" class="node">
<title>Node20</title>
<g id="a_node20"><a xlink:href="class_cuboid.html#a99d30564d6129e6905c5333e04df9606" target="_top" xlink:title="Metoda zwracajaca wierzcholki prostopadloscianu do Vector3D">
<polygon fill="none" stroke="black" points="919.5,-414 919.5,-433 1014.5,-433 1014.5,-414 919.5,-414"/>
<text text-anchor="middle" x="967" y="-421" font-family="Helvetica,sans-Serif" font-size="10.00">Cuboid::get_cub</text>
</a>
</g>
</g>
<!-- Node19&#45;&gt;Node20 -->
<g id="edge28" class="edge">
<title>Node19&#45;&gt;Node20</title>
<path fill="none" stroke="midnightblue" d="M840.59,-426.26C862.39,-425.78 887.28,-425.23 909.11,-424.75"/>
<polygon fill="midnightblue" stroke="midnightblue" points="909.3,-428.25 919.22,-424.53 909.15,-421.25 909.3,-428.25"/>
</g>
<!-- Node21 -->
<g id="node21" class="node">
<title>Node21</title>
<g id="a_node21"><a xlink:href="class_prism.html#a4e2b0b9c37d6a53af869522a4bf364ac" target="_top" xlink:title="Metoda przesuwajaca graniastoslup o zadany wektor w 3D w taki sposob, ze srodek jego dolnej podstawy ...">
<polygon fill="none" stroke="black" points="915.5,-452.5 915.5,-482.5 1018.5,-482.5 1018.5,-452.5 915.5,-452.5"/>
<text text-anchor="start" x="923.5" y="-470.5" font-family="Helvetica,sans-Serif" font-size="10.00">Prism::translation</text>
<text text-anchor="middle" x="967" y="-459.5" font-family="Helvetica,sans-Serif" font-size="10.00">_of_lower_cen</text>
</a>
</g>
</g>
<!-- Node19&#45;&gt;Node21 -->
<g id="edge29" class="edge">
<title>Node19&#45;&gt;Node21</title>
<path fill="none" stroke="midnightblue" d="M840.59,-439.94C861.12,-444.45 884.4,-449.57 905.28,-454.15"/>
<polygon fill="midnightblue" stroke="midnightblue" points="904.79,-457.63 915.31,-456.36 906.3,-450.79 904.79,-457.63"/>
</g>
<!-- Node21&#45;&gt;Node14 -->
<g id="edge30" class="edge">
<title>Node21&#45;&gt;Node14</title>
<path fill="none" stroke="midnightblue" d="M1018.55,-453.99C1025.18,-450.88 1031.55,-447.1 1037,-442.5 1080.38,-405.92 1106.52,-341.75 1117.47,-309.76"/>
<polygon fill="midnightblue" stroke="midnightblue" points="1120.81,-310.83 1120.61,-300.23 1114.16,-308.64 1120.81,-310.83"/>
</g>
<!-- Node23 -->
<g id="node23" class="node">
<title>Node23</title>
<g id="a_node23"><a xlink:href="class_cuboid.html#a08fae08a1c8c70ada48ce3af46c82eee" target="_top" xlink:title="Metoda zwracajaca wysokosc prostopadloscianu">
<polygon fill="none" stroke="black" points="729,-664 729,-683 837,-683 837,-664 729,-664"/>
<text text-anchor="middle" x="783" y="-671" font-family="Helvetica,sans-Serif" font-size="10.00">Cuboid::get_height</text>
</a>
</g>
</g>
<!-- Node22&#45;&gt;Node23 -->
<g id="edge32" class="edge">
<title>Node22&#45;&gt;Node23</title>
<path fill="none" stroke="midnightblue" d="M625.4,-639.05C655.67,-645.71 696.26,-654.64 728.53,-661.74"/>
<polygon fill="midnightblue" stroke="midnightblue" points="728.17,-665.24 738.69,-663.97 729.67,-658.4 728.17,-665.24"/>
</g>
<!-- Node25 -->
<g id="node25" class="node">
<title>Node25</title>
<g id="a_node25"><a xlink:href="class_cuboid.html#aafa18740d9c98ca928395b9873a9c63d" target="_top" xlink:title="Metoda zwracajaca punkt centralny (czyli taki, ktorego odleglosci do kazdego wierzcholka sa rowne) pr...">
<polygon fill="none" stroke="black" points="724.5,-336 724.5,-355 841.5,-355 841.5,-336 724.5,-336"/>
<text text-anchor="middle" x="783" y="-343" font-family="Helvetica,sans-Serif" font-size="10.00">Cuboid::centre_point</text>
</a>
</g>
</g>
<!-- Node24&#45;&gt;Node25 -->
<g id="edge34" class="edge">
<title>Node24&#45;&gt;Node25</title>
<path fill="none" stroke="midnightblue" d="M633.25,-331.37C657.88,-333.71 687.73,-336.54 714.21,-339.06"/>
<polygon fill="midnightblue" stroke="midnightblue" points="713.89,-342.55 724.18,-340.01 714.55,-335.58 713.89,-342.55"/>
</g>
<!-- Node26 -->
<g id="node26" class="node">
<title>Node26</title>
<g id="a_node26"><a xlink:href="class_drone.html#a9684cd7ce04b7e6191f3d6b3a745370b" target="_top" xlink:title="Przesuwa drona o zadany wektor w 3D">
<polygon fill="none" stroke="black" points="731,-298 731,-317 835,-317 835,-298 731,-298"/>
<text text-anchor="middle" x="783" y="-305" font-family="Helvetica,sans-Serif" font-size="10.00">Drone::translation</text>
</a>
</g>
</g>
<!-- Node24&#45;&gt;Node26 -->
<g id="edge35" class="edge">
<title>Node24&#45;&gt;Node26</title>
<path fill="none" stroke="midnightblue" d="M633.25,-321.63C659.94,-319.1 692.78,-315.98 720.8,-313.31"/>
<polygon fill="midnightblue" stroke="midnightblue" points="721.26,-316.79 730.89,-312.36 720.6,-309.82 721.26,-316.79"/>
</g>
<!-- Node26&#45;&gt;Node14 -->
<g id="edge36" class="edge">
<title>Node26&#45;&gt;Node14</title>
<path fill="none" stroke="midnightblue" d="M835.19,-304.94C896.21,-301.88 998.04,-296.78 1062.92,-293.53"/>
<polygon fill="midnightblue" stroke="midnightblue" points="1063.19,-297.02 1073,-293.03 1062.84,-290.03 1063.19,-297.02"/>
</g>
<!-- Node26&#45;&gt;Node17 -->
<g id="edge37" class="edge">
<title>Node26&#45;&gt;Node17</title>
<path fill="none" stroke="midnightblue" d="M827.59,-317.08C853.14,-322.7 885.61,-329.83 912.68,-335.78"/>
<polygon fill="midnightblue" stroke="midnightblue" points="912.24,-339.27 922.76,-338 913.75,-332.43 912.24,-339.27"/>
</g>
<!-- Node29 -->
<g id="node29" class="node">
<title>Node29</title>
<g id="a_node29"><a xlink:href="class_pz_g_1_1_lacze_do_g_n_u_plota.html#aa815ce8ec16e12fc246cf422e562869e" target="_top" xlink:title="Dodaje nazwę pliku.">
<polygon fill="none" stroke="black" points="327,-79.5 327,-109.5 457,-109.5 457,-79.5 327,-79.5"/>
<text text-anchor="start" x="335" y="-97.5" font-family="Helvetica,sans-Serif" font-size="10.00">PzG::LaczeDoGNUPlota</text>
<text text-anchor="middle" x="392" y="-86.5" font-family="Helvetica,sans-Serif" font-size="10.00">::DodajNazwePliku</text>
</a>
</g>
</g>
<!-- Node28&#45;&gt;Node29 -->
<g id="edge40" class="edge">
<title>Node28&#45;&gt;Node29</title>
<path fill="none" stroke="midnightblue" d="M291.33,-104.44C299.72,-103.6 308.3,-102.75 316.74,-101.9"/>
<polygon fill="midnightblue" stroke="midnightblue" points="317.33,-105.36 326.93,-100.89 316.64,-98.4 317.33,-105.36"/>
</g>
<!-- Node28&#45;&gt;Node31 -->
<g id="edge42" class="edge">
<title>Node28&#45;&gt;Node31</title>
<path fill="none" stroke="midnightblue" d="M271.19,-121.01C285.53,-123.7 301.43,-126.69 316.84,-129.58"/>
<polygon fill="midnightblue" stroke="midnightblue" points="316.4,-133.06 326.87,-131.46 317.69,-126.18 316.4,-133.06"/>
</g>
<!-- Node30 -->
<g id="node30" class="node">
<title>Node30</title>
<g id="a_node30"><a xlink:href="namespace_pz_g.html#ae1aad0c681853d7e47da4cdfccefc102" target="_top" xlink:title="Funkcja pomocnicza, sprawdza czy plik o podanej nazwie jest na dysku.">
<polygon fill="none" stroke="black" points="533.5,-67 533.5,-86 628.5,-86 628.5,-67 533.5,-67"/>
<text text-anchor="middle" x="581" y="-74" font-family="Helvetica,sans-Serif" font-size="10.00">PzG::CzyJestPlik</text>
</a>
</g>
</g>
<!-- Node29&#45;&gt;Node30 -->
<g id="edge41" class="edge">
<title>Node29&#45;&gt;Node30</title>
<path fill="none" stroke="midnightblue" d="M457.09,-88.33C478.63,-86.26 502.48,-83.96 523.39,-81.95"/>
<polygon fill="midnightblue" stroke="midnightblue" points="523.79,-85.43 533.4,-80.99 523.11,-78.46 523.79,-85.43"/>
</g>
<!-- Node32 -->
<g id="node32" class="node">
<title>Node32</title>
<g id="a_node32"><a xlink:href="namespace_pz_g.html#aa010184f31b26bb561b42f22438b821e" target="_top" xlink:title="Funkcja pomocnicza, dopisuje do polecenia wpisy związane z rysowaniem z pliku.">
<polygon fill="none" stroke="black" points="498,-155 498,-174 664,-174 664,-155 498,-155"/>
<text text-anchor="middle" x="581" y="-162" font-family="Helvetica,sans-Serif" font-size="10.00">PzG::DopiszRysowanieZPlikow</text>
</a>
</g>
</g>
<!-- Node31&#45;&gt;Node32 -->
<g id="edge43" class="edge">
<title>Node31&#45;&gt;Node32</title>
<path fill="none" stroke="midnightblue" d="M457.09,-150.7C467.03,-151.81 477.46,-152.98 487.86,-154.15"/>
<polygon fill="midnightblue" stroke="midnightblue" points="487.49,-157.63 497.82,-155.27 488.27,-150.68 487.49,-157.63"/>
</g>
<!-- Node33 -->
<g id="node33" class="node">
<title>Node33</title>
<g id="a_node33"><a xlink:href="namespace_pz_g.html#a7227cb39c785b1c746b6bb5515c0b781" target="_top" xlink:title="Dodaje do listy rysowanych punktów, punkty o różnych rozmiarach.">
<polygon fill="none" stroke="black" points="493,-105.5 493,-135.5 669,-135.5 669,-105.5 493,-105.5"/>
<text text-anchor="start" x="501" y="-123.5" font-family="Helvetica,sans-Serif" font-size="10.00">PzG::DopiszRysowanieZRoznych</text>
<text text-anchor="middle" x="581" y="-112.5" font-family="Helvetica,sans-Serif" font-size="10.00">Punktow</text>
</a>
</g>
</g>
<!-- Node31&#45;&gt;Node33 -->
<g id="edge44" class="edge">
<title>Node31&#45;&gt;Node33</title>
<path fill="none" stroke="midnightblue" d="M457.09,-135.62C465.38,-134.6 474,-133.54 482.67,-132.47"/>
<polygon fill="midnightblue" stroke="midnightblue" points="483.35,-135.91 492.85,-131.22 482.5,-128.97 483.35,-135.91"/>
</g>
<!-- Node34 -->
<g id="node34" class="node">
<title>Node34</title>
<g id="a_node34"><a xlink:href="namespace_pz_g.html#a169c311f0e0b6ffadcd44e91e749f72d" target="_top" xlink:title="Wczytuje z pliku listę punktów.">
<polygon fill="none" stroke="black" points="710.5,-74.5 710.5,-104.5 855.5,-104.5 855.5,-74.5 710.5,-74.5"/>
<text text-anchor="start" x="718.5" y="-92.5" font-family="Helvetica,sans-Serif" font-size="10.00">PzG::WczytajListeRoznych</text>
<text text-anchor="middle" x="783" y="-81.5" font-family="Helvetica,sans-Serif" font-size="10.00">Punktow</text>
</a>
</g>
</g>
<!-- Node33&#45;&gt;Node34 -->
<g id="edge45" class="edge">
<title>Node33&#45;&gt;Node34</title>
<path fill="none" stroke="midnightblue" d="M669.14,-106.99C679.48,-105.39 690.01,-103.76 700.28,-102.17"/>
<polygon fill="midnightblue" stroke="midnightblue" points="701.09,-105.58 710.43,-100.59 700.01,-98.67 701.09,-105.58"/>
</g>
<!-- Node35 -->
<g id="node35" class="node">
<title>Node35</title>
<g id="a_node35"><a xlink:href="class_pz_g_1_1_atrybuty_rysowania.html#ab068535b4d2f755c394557d1da72a4eb" target="_top" xlink:title="Zmienia kolor rysowania.">
<polygon fill="none" stroke="black" points="898.5,-49.5 898.5,-79.5 1035.5,-79.5 1035.5,-49.5 898.5,-49.5"/>
<text text-anchor="start" x="906.5" y="-67.5" font-family="Helvetica,sans-Serif" font-size="10.00">PzG::AtrybutyRysowania</text>
<text text-anchor="middle" x="967" y="-56.5" font-family="Helvetica,sans-Serif" font-size="10.00">::ZmienKolor</text>
</a>
</g>
</g>
<!-- Node34&#45;&gt;Node35 -->
<g id="edge46" class="edge">
<title>Node34&#45;&gt;Node35</title>
<path fill="none" stroke="midnightblue" d="M855.67,-79.66C866.3,-78.2 877.3,-76.68 888.05,-75.21"/>
<polygon fill="midnightblue" stroke="midnightblue" points="888.83,-78.63 898.26,-73.81 887.87,-71.7 888.83,-78.63"/>
</g>
<!-- Node36 -->
<g id="node36" class="node">
<title>Node36</title>
<g id="a_node36"><a xlink:href="class_pz_g_1_1_atrybuty_rysowania.html#af4b140eb03bc10b6fd816fad63f8372e" target="_top" xlink:title="Zmienia rozmiar rysowania.">
<polygon fill="none" stroke="black" points="898.5,-0.5 898.5,-30.5 1035.5,-30.5 1035.5,-0.5 898.5,-0.5"/>
<text text-anchor="start" x="906.5" y="-18.5" font-family="Helvetica,sans-Serif" font-size="10.00">PzG::AtrybutyRysowania</text>
<text text-anchor="middle" x="967" y="-7.5" font-family="Helvetica,sans-Serif" font-size="10.00">::ZmienRozmiar</text>
</a>
</g>
</g>
<!-- Node34&#45;&gt;Node36 -->
<g id="edge47" class="edge">
<title>Node34&#45;&gt;Node36</title>
<path fill="none" stroke="midnightblue" d="M816.34,-74.35C838.77,-64.04 869.46,-50.36 897,-39.5 901.67,-37.66 906.55,-35.81 911.46,-34"/>
<polygon fill="midnightblue" stroke="midnightblue" points="912.68,-37.28 920.89,-30.59 910.3,-30.7 912.68,-37.28"/>
</g>
<!-- Node37 -->
<g id="node37" class="node">
<title>Node37</title>
<g id="a_node37"><a xlink:href="class_pz_g_1_1_atrybuty_rysowania.html#a2ac97706124b14072715ecf3f07e82b4" target="_top" xlink:title="Zmienia styl rysowania.">
<polygon fill="none" stroke="black" points="898.5,-98.5 898.5,-128.5 1035.5,-128.5 1035.5,-98.5 898.5,-98.5"/>
<text text-anchor="start" x="906.5" y="-116.5" font-family="Helvetica,sans-Serif" font-size="10.00">PzG::AtrybutyRysowania</text>
<text text-anchor="middle" x="967" y="-105.5" font-family="Helvetica,sans-Serif" font-size="10.00">::ZmienStyl</text>
</a>
</g>
</g>
<!-- Node34&#45;&gt;Node37 -->
<g id="edge48" class="edge">
<title>Node34&#45;&gt;Node37</title>
<path fill="none" stroke="midnightblue" d="M855.67,-98.95C866.3,-100.35 877.3,-101.8 888.05,-103.22"/>
<polygon fill="midnightblue" stroke="midnightblue" points="887.88,-106.73 898.26,-104.57 888.8,-99.79 887.88,-106.73"/>
</g>
<!-- Node38&#45;&gt;Node2 -->
<g id="edge50" class="edge">
<title>Node38&#45;&gt;Node2</title>
<path fill="none" stroke="midnightblue" d="M229.25,-246.65C245.49,-273.64 282.7,-330.49 327,-365.5 331.69,-369.2 336.91,-372.58 342.29,-375.63"/>
<polygon fill="midnightblue" stroke="midnightblue" points="340.95,-378.88 351.43,-380.44 344.2,-372.69 340.95,-378.88"/>
</g>
<!-- Node38&#45;&gt;Node12 -->
<g id="edge57" class="edge">
<title>Node38&#45;&gt;Node12</title>
<path fill="none" stroke="midnightblue" d="M243.51,-246.58C264.64,-260.01 297.11,-279.63 327,-293.5 398.76,-326.8 486.55,-355.5 537.58,-371.06"/>
<polygon fill="midnightblue" stroke="midnightblue" points="536.7,-374.45 547.29,-374 538.73,-367.75 536.7,-374.45"/>
</g>
<!-- Node38&#45;&gt;Node31 -->
<g id="edge61" class="edge">
<title>Node38&#45;&gt;Node31</title>
<path fill="none" stroke="midnightblue" d="M249.81,-216.37C278.2,-201.72 321.4,-179.42 352.54,-163.35"/>
<polygon fill="midnightblue" stroke="midnightblue" points="354.51,-166.27 361.79,-158.58 351.3,-160.05 354.51,-166.27"/>
</g>
<!-- Node38&#45;&gt;Node39 -->
<g id="edge51" class="edge">
<title>Node38&#45;&gt;Node39</title>
<path fill="none" stroke="midnightblue" d="M282.3,-229.27C346.61,-226.94 447,-223.31 513.13,-220.92"/>
<polygon fill="midnightblue" stroke="midnightblue" points="513.57,-224.4 523.44,-220.55 513.32,-217.41 513.57,-224.4"/>
</g>
<!-- Node38&#45;&gt;Node44 -->
<g id="edge58" class="edge">
<title>Node38&#45;&gt;Node44</title>
<path fill="none" stroke="midnightblue" d="M282.05,-245.22C293.83,-247.84 306.26,-250.61 318.34,-253.31"/>
<polygon fill="midnightblue" stroke="midnightblue" points="317.87,-256.79 328.39,-255.55 319.39,-249.95 317.87,-256.79"/>
</g>
<!-- Node39&#45;&gt;Node5 -->
<g id="edge54" class="edge">
<title>Node39&#45;&gt;Node5</title>
<path fill="none" stroke="midnightblue" d="M603.63,-233.63C623.63,-248.77 652.64,-273.88 669,-302.5 703.02,-362.02 656.2,-404.34 705,-452.5 712.27,-459.68 832.87,-484.87 907.56,-499.91"/>
<polygon fill="midnightblue" stroke="midnightblue" points="907.29,-503.43 917.78,-501.97 908.67,-496.56 907.29,-503.43"/>
</g>
<!-- Node40 -->
<g id="node40" class="node">
<title>Node40</title>
<g id="a_node40"><a xlink:href="class_cuboid.html#abc62d20a2f1418af1c35e369da77f0fc" target="_top" xlink:title=" ">
<polygon fill="none" stroke="black" points="719,-201 719,-220 847,-220 847,-201 719,-201"/>
<text text-anchor="middle" x="783" y="-208" font-family="Helvetica,sans-Serif" font-size="10.00">Cuboid::Cuboid_To_File</text>
</a>
</g>
</g>
<!-- Node39&#45;&gt;Node40 -->
<g id="edge52" class="edge">
<title>Node39&#45;&gt;Node40</title>
<path fill="none" stroke="midnightblue" d="M638.51,-216.24C660.34,-215.37 685.62,-214.36 708.81,-213.43"/>
<polygon fill="midnightblue" stroke="midnightblue" points="709.1,-216.92 718.95,-213.02 708.82,-209.92 709.1,-216.92"/>
</g>
<!-- Node42 -->
<g id="node42" class="node">
<title>Node42</title>
<g id="a_node42"><a xlink:href="class_prism.html#a2de0dab6d117fc3c8dcbc3c384d0fccd" target="_top" xlink:title=" ">
<polygon fill="none" stroke="black" points="725,-155 725,-174 841,-174 841,-155 725,-155"/>
<text text-anchor="middle" x="783" y="-162" font-family="Helvetica,sans-Serif" font-size="10.00">Prism::Prism_To_File</text>
</a>
</g>
</g>
<!-- Node39&#45;&gt;Node42 -->
<g id="edge55" class="edge">
<title>Node39&#45;&gt;Node42</title>
<path fill="none" stroke="midnightblue" d="M637.71,-203.46C668.94,-195.03 707.38,-184.65 736.73,-176.72"/>
<polygon fill="midnightblue" stroke="midnightblue" points="737.97,-180.01 746.71,-174.03 736.14,-173.26 737.97,-180.01"/>
</g>
<!-- Node41 -->
<g id="node41" class="node">
<title>Node41</title>
<g id="a_node41"><a xlink:href="class_cuboid.html#a12a97376443b1a15ae8342c1c75b3e1e" target="_top" xlink:title="Metoda wypisania odpowiednich wierzcholkow do pliku zgodnie z zaproponowanym sposobem zadaniu dron">
<polygon fill="none" stroke="black" points="899.5,-186 899.5,-205 1034.5,-205 1034.5,-186 899.5,-186"/>
<text text-anchor="middle" x="967" y="-193" font-family="Helvetica,sans-Serif" font-size="10.00">Cuboid::print_cuboid_3D</text>
</a>
</g>
</g>
<!-- Node40&#45;&gt;Node41 -->
<g id="edge53" class="edge">
<title>Node40&#45;&gt;Node41</title>
<path fill="none" stroke="midnightblue" d="M847.14,-205.3C860.69,-204.18 875.15,-202.99 889.16,-201.83"/>
<polygon fill="midnightblue" stroke="midnightblue" points="889.57,-205.31 899.25,-201 889,-198.33 889.57,-205.31"/>
</g>
<!-- Node43 -->
<g id="node43" class="node">
<title>Node43</title>
<g id="a_node43"><a xlink:href="class_prism.html#a764c6940e4fb65303981e8b877b28561" target="_top" xlink:title="Metoda wypisania odpowiednich wierzcholkow do pliku zgodnie z zaproponowanym sposobem zadaniu dron">
<polygon fill="none" stroke="black" points="904.5,-148 904.5,-167 1029.5,-167 1029.5,-148 904.5,-148"/>
<text text-anchor="middle" x="967" y="-155" font-family="Helvetica,sans-Serif" font-size="10.00">Prism::print_prism_3D</text>
</a>
</g>
</g>
<!-- Node42&#45;&gt;Node43 -->
<g id="edge56" class="edge">
<title>Node42&#45;&gt;Node43</title>
<path fill="none" stroke="midnightblue" d="M841.09,-162.3C857.91,-161.66 876.53,-160.94 894.15,-160.26"/>
<polygon fill="midnightblue" stroke="midnightblue" points="894.53,-163.75 904.38,-159.87 894.26,-156.76 894.53,-163.75"/>
</g>
<!-- Node44&#45;&gt;Node13 -->
<g id="edge60" class="edge">
<title>Node44&#45;&gt;Node13</title>
<path fill="none" stroke="midnightblue" d="M455.93,-269.5C521.65,-269.5 625.1,-269.5 697.81,-269.5"/>
<polygon fill="midnightblue" stroke="midnightblue" points="697.86,-273 707.86,-269.5 697.86,-266 697.86,-273"/>
</g>
<!-- Node44&#45;&gt;Node39 -->
<g id="edge59" class="edge">
<title>Node44&#45;&gt;Node39</title>
<path fill="none" stroke="midnightblue" d="M448.09,-254.47C469.12,-248.74 493.27,-242.15 515.12,-236.19"/>
<polygon fill="midnightblue" stroke="midnightblue" points="516.25,-239.51 524.98,-233.51 514.41,-232.76 516.25,-239.51"/>
</g>
</g>
</svg>
