<?xml version="1.0" encoding="UTF-8" standalone="no"?>
<!DOCTYPE svg PUBLIC "-//W3C//DTD SVG 1.1//EN"
 "http://www.w3.org/Graphics/SVG/1.1/DTD/svg11.dtd">
<!-- Generated by graphviz version 2.43.0 (0)
 -->
<!-- Title: Scene::init_gnuplot Pages: 1 -->
<!--zoomable 485 -->
<svg id="main" version="1.1" xmlns="http://www.w3.org/2000/svg" xmlns:xlink="http://www.w3.org/1999/xlink" xml:space="preserve" onload="init(evt)">
<style type="text/css"><![CDATA[
.edge:hover path { stroke: red; }
.edge:hover polygon { stroke: red; fill: red; }
]]></style>
<script type="text/javascript"><![CDATA[
var edges = document.getElementsByTagName('g');
if (edges && edges.length) {
  for (var i=0;i<edges.length;i++) {
    if (edges[i].id.substr(0,4)=='edge') {
      edges[i].setAttribute('class','edge');
    }
  }
}
]]></script>
        <defs>
                <circle id="rim" cx="0" cy="0" r="7"/>
                <circle id="rim2" cx="0" cy="0" r="3.5"/>
                <g id="zoomPlus">
                        <use xlink:href="#rim" fill="#404040">
                                <set attributeName="fill" to="#808080" begin="zoomplus.mouseover" end="zoomplus.mouseout"/>
                        </use>
                        <path d="M-4,0h8M0,-4v8" fill="none" stroke="white" stroke-width="1.5" pointer-events="none"/>
                </g>
                <g id="zoomMin">
                        <use xlink:href="#rim" fill="#404040">
                                <set attributeName="fill" to="#808080" begin="zoomminus.mouseover" end="zoomminus.mouseout"/>
                        </use>
                        <path d="M-4,0h8" fill="none" stroke="white" stroke-width="1.5" pointer-events="none"/>
                </g>
                <g id="dirArrow">
                        <path fill="none" stroke="white" stroke-width="1.5" d="M0,-3.0v7 M-2.5,-0.5L0,-3.0L2.5,-0.5"/>
                </g>
               <g id="resetDef">
                       <use xlink:href="#rim2" fill="#404040">
                               <set attributeName="fill" to="#808080" begin="reset.mouseover" end="reset.mouseout"/>
                       </use>
               </g>
        </defs>

<script type="text/javascript">
var viewWidth = 861;
var viewHeight = 485;
var sectionId = 'dynsection-18';
</script>
<script xlink:href="svgpan.js"/>
<svg id="graph" class="graph">
<g id="viewport">
<title>Scene::init_gnuplot</title>
<!-- Node1 -->
<g id="node1" class="node">
<title>Node1</title>
<g id="a_node1"><a xlink:title="Metoda inicjalizujaca lacze do gnuplota.">
<polygon fill="#bfbfbf" stroke="black" points="0,-224 0,-243 110,-243 110,-224 0,-224"/>
<text text-anchor="middle" x="55" y="-231" font-family="Helvetica,sans-Serif" font-size="10.00">Scene::init_gnuplot</text>
</a>
</g>
</g>
<!-- Node2 -->
<g id="node2" class="node">
<title>Node2</title>
<g id="a_node2"><a xlink:href="class_scene.html#a15f741d7de1a9662c49f72d663d90b23" target="_top" xlink:title="Metoda dodajaca podstawowe elementy do listy objects.">
<polygon fill="none" stroke="black" points="146,-410 146,-429 287,-429 287,-410 146,-410"/>
<text text-anchor="middle" x="216.5" y="-417" font-family="Helvetica,sans-Serif" font-size="10.00">Scene::add_basic_objects</text>
</a>
</g>
</g>
<!-- Node1&#45;&gt;Node2 -->
<g id="edge1" class="edge">
<title>Node1&#45;&gt;Node2</title>
<path fill="none" stroke="midnightblue" d="M58.66,-243.11C66.84,-270.88 94.24,-352.07 146,-395.5 150.94,-399.65 156.64,-403.09 162.6,-405.95"/>
<polygon fill="midnightblue" stroke="midnightblue" points="161.55,-409.3 172.12,-409.97 164.28,-402.86 161.55,-409.3"/>
</g>
<!-- Node5 -->
<g id="node5" class="node">
<title>Node5</title>
<g id="a_node5"><a xlink:href="class_pz_g_1_1_lacze_do_g_n_u_plota.html#aa815ce8ec16e12fc246cf422e562869e" target="_top" xlink:title="Dodaje nazwę pliku.">
<polygon fill="none" stroke="black" points="346,-341.5 346,-371.5 476,-371.5 476,-341.5 346,-341.5"/>
<text text-anchor="start" x="354" y="-359.5" font-family="Helvetica,sans-Serif" font-size="10.00">PzG::LaczeDoGNUPlota</text>
<text text-anchor="middle" x="411" y="-348.5" font-family="Helvetica,sans-Serif" font-size="10.00">::DodajNazwePliku</text>
</a>
</g>
</g>
<!-- Node1&#45;&gt;Node5 -->
<g id="edge4" class="edge">
<title>Node1&#45;&gt;Node5</title>
<path fill="none" stroke="midnightblue" d="M59.25,-243.36C68.24,-268.81 96.12,-336.48 146,-362.5 209.17,-395.45 292.94,-386.18 349.02,-373.81"/>
<polygon fill="midnightblue" stroke="midnightblue" points="349.85,-377.21 358.81,-371.56 348.28,-370.39 349.85,-377.21"/>
</g>
<!-- Node7 -->
<g id="node7" class="node">
<title>Node7</title>
<g id="a_node7"><a xlink:href="class_scene.html#a3df6df98446d73c08274275ae036d4ad" target="_top" xlink:title="Metoda inicjujaca liste objects, dodajaca drony do listy.">
<polygon fill="none" stroke="black" points="162.5,-334 162.5,-353 270.5,-353 270.5,-334 162.5,-334"/>
<text text-anchor="middle" x="216.5" y="-341" font-family="Helvetica,sans-Serif" font-size="10.00">Scene::init_objects</text>
</a>
</g>
</g>
<!-- Node1&#45;&gt;Node7 -->
<g id="edge6" class="edge">
<title>Node1&#45;&gt;Node7</title>
<path fill="none" stroke="midnightblue" d="M62.73,-243.1C76.29,-261.7 108.78,-302.75 146,-324.5 149.71,-326.67 153.67,-328.59 157.75,-330.3"/>
<polygon fill="midnightblue" stroke="midnightblue" points="156.83,-333.7 167.42,-333.92 159.28,-327.14 156.83,-333.7"/>
</g>
<!-- Node8 -->
<g id="node8" class="node">
<title>Node8</title>
<g id="a_node8"><a xlink:href="class_scene.html#a904ed1e89f26c05070e221bc832e9a2f" target="_top" xlink:title="Metoda iterujaca po kolejnych polach listy objects, zczytujaca nazwy plikow i podajaca je do gnuplota...">
<polygon fill="none" stroke="black" points="161,-284.5 161,-314.5 272,-314.5 272,-284.5 161,-284.5"/>
<text text-anchor="start" x="169" y="-302.5" font-family="Helvetica,sans-Serif" font-size="10.00">Scene::iterate_over</text>
<text text-anchor="middle" x="216.5" y="-291.5" font-family="Helvetica,sans-Serif" font-size="10.00">_objects</text>
</a>
</g>
</g>
<!-- Node1&#45;&gt;Node8 -->
<g id="edge7" class="edge">
<title>Node1&#45;&gt;Node8</title>
<path fill="none" stroke="midnightblue" d="M75.81,-243.09C93.91,-251.72 121.51,-264.54 146,-274.5 151.33,-276.67 156.92,-278.84 162.52,-280.96"/>
<polygon fill="midnightblue" stroke="midnightblue" points="161.32,-284.24 171.91,-284.44 163.76,-277.68 161.32,-284.24"/>
</g>
<!-- Node10 -->
<g id="node10" class="node">
<title>Node10</title>
<g id="a_node10"><a xlink:href="class_plane.html#a81d5efe26f20d8939f6e32f5f288bed9" target="_top" xlink:title="Metoda tworzy plaszczyzne z podanych zakresow.">
<polygon fill="none" stroke="black" points="162,-246 162,-265 271,-265 271,-246 162,-246"/>
<text text-anchor="middle" x="216.5" y="-253" font-family="Helvetica,sans-Serif" font-size="10.00">Plane::make_plane</text>
</a>
</g>
</g>
<!-- Node1&#45;&gt;Node10 -->
<g id="edge10" class="edge">
<title>Node1&#45;&gt;Node10</title>
<path fill="none" stroke="midnightblue" d="M110.44,-241.01C123.68,-242.83 137.95,-244.8 151.57,-246.68"/>
<polygon fill="midnightblue" stroke="midnightblue" points="151.46,-250.2 161.84,-248.1 152.41,-243.27 151.46,-250.2"/>
</g>
<!-- Node11 -->
<g id="node11" class="node">
<title>Node11</title>
<g id="a_node11"><a xlink:href="class_pz_g_1_1_lacze_do_g_n_u_plota.html#a065f5b8402737cc62b0ad4f66d028335" target="_top" xlink:title="Generuje polecenie rysowania i przesyła je do gnuplota.">
<polygon fill="none" stroke="black" points="151.5,-196.5 151.5,-226.5 281.5,-226.5 281.5,-196.5 151.5,-196.5"/>
<text text-anchor="start" x="159.5" y="-214.5" font-family="Helvetica,sans-Serif" font-size="10.00">PzG::LaczeDoGNUPlota</text>
<text text-anchor="middle" x="216.5" y="-203.5" font-family="Helvetica,sans-Serif" font-size="10.00">::Rysuj</text>
</a>
</g>
</g>
<!-- Node1&#45;&gt;Node11 -->
<g id="edge11" class="edge">
<title>Node1&#45;&gt;Node11</title>
<path fill="none" stroke="midnightblue" d="M110.44,-225.99C120.43,-224.61 131,-223.15 141.45,-221.71"/>
<polygon fill="midnightblue" stroke="midnightblue" points="141.97,-225.18 151.4,-220.34 141.01,-218.24 141.97,-225.18"/>
</g>
<!-- Node18 -->
<g id="node18" class="node">
<title>Node18</title>
<g id="a_node18"><a xlink:href="class_pz_g_1_1_lacze_do_g_n_u_plota.html#a9c91987dfc869d6fcea96205c581daef" target="_top" xlink:title="Ustawia zakres osi OX.">
<polygon fill="none" stroke="black" points="151.5,-147.5 151.5,-177.5 281.5,-177.5 281.5,-147.5 151.5,-147.5"/>
<text text-anchor="start" x="159.5" y="-165.5" font-family="Helvetica,sans-Serif" font-size="10.00">PzG::LaczeDoGNUPlota</text>
<text text-anchor="middle" x="216.5" y="-154.5" font-family="Helvetica,sans-Serif" font-size="10.00">::UstawZakresX</text>
</a>
</g>
</g>
<!-- Node1&#45;&gt;Node18 -->
<g id="edge18" class="edge">
<title>Node1&#45;&gt;Node18</title>
<path fill="none" stroke="midnightblue" d="M73.27,-223.84C91.16,-214.03 120.08,-198.73 146,-187.5 151,-185.33 156.26,-183.2 161.54,-181.14"/>
<polygon fill="midnightblue" stroke="midnightblue" points="162.94,-184.35 171.05,-177.54 160.46,-177.81 162.94,-184.35"/>
</g>
<!-- Node19 -->
<g id="node19" class="node">
<title>Node19</title>
<g id="a_node19"><a xlink:href="class_pz_g_1_1_lacze_do_g_n_u_plota.html#a54c6e9cf9ab2eae479451fd953c2717c" target="_top" xlink:title="Ustawia zakres osi OY.">
<polygon fill="none" stroke="black" points="151.5,-98.5 151.5,-128.5 281.5,-128.5 281.5,-98.5 151.5,-98.5"/>
<text text-anchor="start" x="159.5" y="-116.5" font-family="Helvetica,sans-Serif" font-size="10.00">PzG::LaczeDoGNUPlota</text>
<text text-anchor="middle" x="216.5" y="-105.5" font-family="Helvetica,sans-Serif" font-size="10.00">::UstawZakresY</text>
</a>
</g>
</g>
<!-- Node1&#45;&gt;Node19 -->
<g id="edge19" class="edge">
<title>Node1&#45;&gt;Node19</title>
<path fill="none" stroke="midnightblue" d="M62.53,-223.87C75.97,-204.75 108.62,-161.73 146,-137.5 148.46,-135.91 151.04,-134.4 153.69,-132.99"/>
<polygon fill="midnightblue" stroke="midnightblue" points="155.47,-136.02 162.96,-128.53 152.43,-129.71 155.47,-136.02"/>
</g>
<!-- Node20 -->
<g id="node20" class="node">
<title>Node20</title>
<g id="a_node20"><a xlink:href="class_pz_g_1_1_lacze_do_g_n_u_plota.html#a1dbbb2b86fb13b8632e6bad9df2a82e3" target="_top" xlink:title="Ustawia zakres osi OZ.">
<polygon fill="none" stroke="black" points="151.5,-49.5 151.5,-79.5 281.5,-79.5 281.5,-49.5 151.5,-49.5"/>
<text text-anchor="start" x="159.5" y="-67.5" font-family="Helvetica,sans-Serif" font-size="10.00">PzG::LaczeDoGNUPlota</text>
<text text-anchor="middle" x="216.5" y="-56.5" font-family="Helvetica,sans-Serif" font-size="10.00">::UstawZakresZ</text>
</a>
</g>
</g>
<!-- Node1&#45;&gt;Node20 -->
<g id="edge20" class="edge">
<title>Node1&#45;&gt;Node20</title>
<path fill="none" stroke="midnightblue" d="M59.36,-223.8C68.81,-197.96 98.08,-126.77 146,-88.5 147.61,-87.22 149.29,-86 151.03,-84.84"/>
<polygon fill="midnightblue" stroke="midnightblue" points="153.22,-87.62 160.13,-79.58 149.72,-81.56 153.22,-87.62"/>
</g>
<!-- Node21 -->
<g id="node21" class="node">
<title>Node21</title>
<g id="a_node21"><a xlink:href="class_pz_g_1_1_lacze_do_g_n_u_plota.html#ae92c65357bf682478cc68f77885b61d8" target="_top" xlink:title="Zmienia tryb rysowania.">
<polygon fill="none" stroke="black" points="151.5,-0.5 151.5,-30.5 281.5,-30.5 281.5,-0.5 151.5,-0.5"/>
<text text-anchor="start" x="159.5" y="-18.5" font-family="Helvetica,sans-Serif" font-size="10.00">PzG::LaczeDoGNUPlota</text>
<text text-anchor="middle" x="216.5" y="-7.5" font-family="Helvetica,sans-Serif" font-size="10.00">::ZmienTrybRys</text>
</a>
</g>
</g>
<!-- Node1&#45;&gt;Node21 -->
<g id="edge21" class="edge">
<title>Node1&#45;&gt;Node21</title>
<path fill="none" stroke="midnightblue" d="M57.71,-223.85C63.76,-192.54 87.03,-92.75 146,-39.5 147.3,-38.32 148.67,-37.2 150.08,-36.14"/>
<polygon fill="midnightblue" stroke="midnightblue" points="152.14,-38.97 158.65,-30.62 148.35,-33.09 152.14,-38.97"/>
</g>
<!-- Node3 -->
<g id="node3" class="node">
<title>Node3</title>
<g id="a_node3"><a xlink:href="class_scene.html#a16da566304f4ed4228fa89af25e330e5" target="_top" xlink:title="Metoda dodajaca prostopadloscian, ostroslup lub Triangular do listy objects.">
<polygon fill="none" stroke="black" points="345,-446.5 345,-476.5 477,-476.5 477,-446.5 345,-446.5"/>
<text text-anchor="start" x="353" y="-464.5" font-family="Helvetica,sans-Serif" font-size="10.00">Scene::add_object_type</text>
<text text-anchor="middle" x="411" y="-453.5" font-family="Helvetica,sans-Serif" font-size="10.00">_cuboid</text>
</a>
</g>
</g>
<!-- Node2&#45;&gt;Node3 -->
<g id="edge2" class="edge">
<title>Node2&#45;&gt;Node3</title>
<path fill="none" stroke="midnightblue" d="M261.18,-429.03C283.02,-433.8 310.07,-439.7 335.09,-445.16"/>
<polygon fill="midnightblue" stroke="midnightblue" points="334.41,-448.59 344.93,-447.3 335.9,-441.75 334.41,-448.59"/>
</g>
<!-- Node4 -->
<g id="node4" class="node">
<title>Node4</title>
<g id="a_node4"><a xlink:href="class_scene.html#a684bec8db49b527c34a567e91259102e" target="_top" xlink:title="Metoda dodajaca obiekt pochodny z Prism do listy objects.">
<polygon fill="none" stroke="black" points="345,-397.5 345,-427.5 477,-427.5 477,-397.5 345,-397.5"/>
<text text-anchor="start" x="353" y="-415.5" font-family="Helvetica,sans-Serif" font-size="10.00">Scene::add_object_type</text>
<text text-anchor="middle" x="411" y="-404.5" font-family="Helvetica,sans-Serif" font-size="10.00">_prism</text>
</a>
</g>
</g>
<!-- Node2&#45;&gt;Node4 -->
<g id="edge3" class="edge">
<title>Node2&#45;&gt;Node4</title>
<path fill="none" stroke="midnightblue" d="M287.27,-416.96C302.72,-416.4 319.15,-415.8 334.8,-415.23"/>
<polygon fill="midnightblue" stroke="midnightblue" points="335.09,-418.73 344.95,-414.87 334.83,-411.73 335.09,-418.73"/>
</g>
<!-- Node6 -->
<g id="node6" class="node">
<title>Node6</title>
<g id="a_node6"><a xlink:href="namespace_pz_g.html#ae1aad0c681853d7e47da4cdfccefc102" target="_top" xlink:title="Funkcja pomocnicza, sprawdza czy plik o podanej nazwie jest na dysku.">
<polygon fill="none" stroke="black" points="560,-347 560,-366 655,-366 655,-347 560,-347"/>
<text text-anchor="middle" x="607.5" y="-354" font-family="Helvetica,sans-Serif" font-size="10.00">PzG::CzyJestPlik</text>
</a>
</g>
</g>
<!-- Node5&#45;&gt;Node6 -->
<g id="edge5" class="edge">
<title>Node5&#45;&gt;Node6</title>
<path fill="none" stroke="midnightblue" d="M476.23,-356.5C499.93,-356.5 526.6,-356.5 549.6,-356.5"/>
<polygon fill="midnightblue" stroke="midnightblue" points="549.89,-360 559.89,-356.5 549.89,-353 549.89,-360"/>
</g>
<!-- Node8&#45;&gt;Node5 -->
<g id="edge8" class="edge">
<title>Node8&#45;&gt;Node5</title>
<path fill="none" stroke="midnightblue" d="M268.33,-314.55C293.22,-321.92 323.37,-330.85 349.45,-338.57"/>
<polygon fill="midnightblue" stroke="midnightblue" points="348.64,-341.98 359.22,-341.46 350.63,-335.27 348.64,-341.98"/>
</g>
<!-- Node9 -->
<g id="node9" class="node">
<title>Node9</title>
<g id="a_node9"><a xlink:href="class_scene.html#afdc407539e8e1c50d5ccd93b9b60ed52" target="_top" xlink:title="Metoda sprawdzajaca i zwracajaca rozmiar listy objects.">
<polygon fill="none" stroke="black" points="344.5,-290 344.5,-309 477.5,-309 477.5,-290 344.5,-290"/>
<text text-anchor="middle" x="411" y="-297" font-family="Helvetica,sans-Serif" font-size="10.00">Scene::get_objects_size</text>
</a>
</g>
</g>
<!-- Node8&#45;&gt;Node9 -->
<g id="edge9" class="edge">
<title>Node8&#45;&gt;Node9</title>
<path fill="none" stroke="midnightblue" d="M272.15,-299.5C291.44,-299.5 313.5,-299.5 334.23,-299.5"/>
<polygon fill="midnightblue" stroke="midnightblue" points="334.28,-303 344.28,-299.5 334.28,-296 334.28,-303"/>
</g>
<!-- Node12 -->
<g id="node12" class="node">
<title>Node12</title>
<g id="a_node12"><a xlink:href="namespace_pz_g.html#aa010184f31b26bb561b42f22438b821e" target="_top" xlink:title="Funkcja pomocnicza, dopisuje do polecenia wpisy związane z rysowaniem z pliku.">
<polygon fill="none" stroke="black" points="328,-224 328,-243 494,-243 494,-224 328,-224"/>
<text text-anchor="middle" x="411" y="-231" font-family="Helvetica,sans-Serif" font-size="10.00">PzG::DopiszRysowanieZPlikow</text>
</a>
</g>
</g>
<!-- Node11&#45;&gt;Node12 -->
<g id="edge12" class="edge">
<title>Node11&#45;&gt;Node12</title>
<path fill="none" stroke="midnightblue" d="M281.6,-218.83C293.14,-220.14 305.37,-221.54 317.52,-222.93"/>
<polygon fill="midnightblue" stroke="midnightblue" points="317.36,-226.43 327.69,-224.09 318.15,-219.48 317.36,-226.43"/>
</g>
<!-- Node13 -->
<g id="node13" class="node">
<title>Node13</title>
<g id="a_node13"><a xlink:href="namespace_pz_g.html#a7227cb39c785b1c746b6bb5515c0b781" target="_top" xlink:title="Dodaje do listy rysowanych punktów, punkty o różnych rozmiarach.">
<polygon fill="none" stroke="black" points="323,-174.5 323,-204.5 499,-204.5 499,-174.5 323,-174.5"/>
<text text-anchor="start" x="331" y="-192.5" font-family="Helvetica,sans-Serif" font-size="10.00">PzG::DopiszRysowanieZRoznych</text>
<text text-anchor="middle" x="411" y="-181.5" font-family="Helvetica,sans-Serif" font-size="10.00">Punktow</text>
</a>
</g>
</g>
<!-- Node11&#45;&gt;Node13 -->
<g id="edge13" class="edge">
<title>Node11&#45;&gt;Node13</title>
<path fill="none" stroke="midnightblue" d="M281.6,-204.17C291.63,-203.03 302.18,-201.82 312.75,-200.61"/>
<polygon fill="midnightblue" stroke="midnightblue" points="313.34,-204.07 322.88,-199.46 312.55,-197.11 313.34,-204.07"/>
</g>
<!-- Node14 -->
<g id="node14" class="node">
<title>Node14</title>
<g id="a_node14"><a xlink:href="namespace_pz_g.html#a169c311f0e0b6ffadcd44e91e749f72d" target="_top" xlink:title="Wczytuje z pliku listę punktów.">
<polygon fill="none" stroke="black" points="535,-174.5 535,-204.5 680,-204.5 680,-174.5 535,-174.5"/>
<text text-anchor="start" x="543" y="-192.5" font-family="Helvetica,sans-Serif" font-size="10.00">PzG::WczytajListeRoznych</text>
<text text-anchor="middle" x="607.5" y="-181.5" font-family="Helvetica,sans-Serif" font-size="10.00">Punktow</text>
</a>
</g>
</g>
<!-- Node13&#45;&gt;Node14 -->
<g id="edge14" class="edge">
<title>Node13&#45;&gt;Node14</title>
<path fill="none" stroke="midnightblue" d="M499.01,-189.5C507.5,-189.5 516.09,-189.5 524.52,-189.5"/>
<polygon fill="midnightblue" stroke="midnightblue" points="524.71,-193 534.71,-189.5 524.71,-186 524.71,-193"/>
</g>
<!-- Node15 -->
<g id="node15" class="node">
<title>Node15</title>
<g id="a_node15"><a xlink:href="class_pz_g_1_1_atrybuty_rysowania.html#ab068535b4d2f755c394557d1da72a4eb" target="_top" xlink:title="Zmienia kolor rysowania.">
<polygon fill="none" stroke="black" points="716,-223.5 716,-253.5 853,-253.5 853,-223.5 716,-223.5"/>
<text text-anchor="start" x="724" y="-241.5" font-family="Helvetica,sans-Serif" font-size="10.00">PzG::AtrybutyRysowania</text>
<text text-anchor="middle" x="784.5" y="-230.5" font-family="Helvetica,sans-Serif" font-size="10.00">::ZmienKolor</text>
</a>
</g>
</g>
<!-- Node14&#45;&gt;Node15 -->
<g id="edge15" class="edge">
<title>Node14&#45;&gt;Node15</title>
<path fill="none" stroke="midnightblue" d="M662.43,-204.6C680.65,-209.7 701.15,-215.44 720.04,-220.73"/>
<polygon fill="midnightblue" stroke="midnightblue" points="719.17,-224.12 729.74,-223.45 721.06,-217.38 719.17,-224.12"/>
</g>
<!-- Node16 -->
<g id="node16" class="node">
<title>Node16</title>
<g id="a_node16"><a xlink:href="class_pz_g_1_1_atrybuty_rysowania.html#af4b140eb03bc10b6fd816fad63f8372e" target="_top" xlink:title="Zmienia rozmiar rysowania.">
<polygon fill="none" stroke="black" points="716,-174.5 716,-204.5 853,-204.5 853,-174.5 716,-174.5"/>
<text text-anchor="start" x="724" y="-192.5" font-family="Helvetica,sans-Serif" font-size="10.00">PzG::AtrybutyRysowania</text>
<text text-anchor="middle" x="784.5" y="-181.5" font-family="Helvetica,sans-Serif" font-size="10.00">::ZmienRozmiar</text>
</a>
</g>
</g>
<!-- Node14&#45;&gt;Node16 -->
<g id="edge16" class="edge">
<title>Node14&#45;&gt;Node16</title>
<path fill="none" stroke="midnightblue" d="M680.18,-189.5C688.57,-189.5 697.16,-189.5 705.63,-189.5"/>
<polygon fill="midnightblue" stroke="midnightblue" points="705.87,-193 715.87,-189.5 705.87,-186 705.87,-193"/>
</g>
<!-- Node17 -->
<g id="node17" class="node">
<title>Node17</title>
<g id="a_node17"><a xlink:href="class_pz_g_1_1_atrybuty_rysowania.html#a2ac97706124b14072715ecf3f07e82b4" target="_top" xlink:title="Zmienia styl rysowania.">
<polygon fill="none" stroke="black" points="716,-125.5 716,-155.5 853,-155.5 853,-125.5 716,-125.5"/>
<text text-anchor="start" x="724" y="-143.5" font-family="Helvetica,sans-Serif" font-size="10.00">PzG::AtrybutyRysowania</text>
<text text-anchor="middle" x="784.5" y="-132.5" font-family="Helvetica,sans-Serif" font-size="10.00">::ZmienStyl</text>
</a>
</g>
</g>
<!-- Node14&#45;&gt;Node17 -->
<g id="edge17" class="edge">
<title>Node14&#45;&gt;Node17</title>
<path fill="none" stroke="midnightblue" d="M662.43,-174.4C680.65,-169.3 701.15,-163.56 720.04,-158.27"/>
<polygon fill="midnightblue" stroke="midnightblue" points="721.06,-161.62 729.74,-155.55 719.17,-154.88 721.06,-161.62"/>
</g>
</g>
</svg>
        <g id="navigator" transform="translate(0 0)" fill="#404254">
                <rect fill="#f2f5e9" fill-opacity="0.5" stroke="#606060" stroke-width=".5" x="0" y="0" width="60" height="60"/>
                <use id="zoomplus" xlink:href="#zoomPlus" x="17" y="9" onmousedown="handleZoom(evt,'in')"/>
                <use id="zoomminus" xlink:href="#zoomMin" x="42" y="9" onmousedown="handleZoom(evt,'out')"/>
                <use id="reset" xlink:href="#resetDef" x="30" y="36" onmousedown="handleReset()"/>
                <g id="arrowUp" xlink:href="#dirArrow" transform="translate(30 24)" onmousedown="handlePan(0,-1)">
                  <use xlink:href="#rim" fill="#404040">
                        <set attributeName="fill" to="#808080" begin="arrowUp.mouseover" end="arrowUp.mouseout"/>
                  </use>
                  <path fill="none" stroke="white" stroke-width="1.5" d="M0,-3.0v7 M-2.5,-0.5L0,-3.0L2.5,-0.5"/>
                </g>
                <g id="arrowRight" xlink:href="#dirArrow" transform="rotate(90) translate(36 -43)" onmousedown="handlePan(1,0)">
                  <use xlink:href="#rim" fill="#404040">
                        <set attributeName="fill" to="#808080" begin="arrowRight.mouseover" end="arrowRight.mouseout"/>
                  </use>
                  <path fill="none" stroke="white" stroke-width="1.5" d="M0,-3.0v7 M-2.5,-0.5L0,-3.0L2.5,-0.5"/>
                </g>
                <g id="arrowDown" xlink:href="#dirArrow" transform="rotate(180) translate(-30 -48)" onmousedown="handlePan(0,1)">
                  <use xlink:href="#rim" fill="#404040">
                        <set attributeName="fill" to="#808080" begin="arrowDown.mouseover" end="arrowDown.mouseout"/>
                  </use>
                  <path fill="none" stroke="white" stroke-width="1.5" d="M0,-3.0v7 M-2.5,-0.5L0,-3.0L2.5,-0.5"/>
                </g>
                <g id="arrowLeft" xlink:href="#dirArrow" transform="rotate(270) translate(-36 17)" onmousedown="handlePan(-1,0)">
                  <use xlink:href="#rim" fill="#404040">
                        <set attributeName="fill" to="#808080" begin="arrowLeft.mouseover" end="arrowLeft.mouseout"/>
                  </use>
                  <path fill="none" stroke="white" stroke-width="1.5" d="M0,-3.0v7 M-2.5,-0.5L0,-3.0L2.5,-0.5"/>
                </g>
        </g>
        <svg viewBox="0 0 15 15" width="100%" height="30px" preserveAspectRatio="xMaxYMin meet">
         <g id="arrow_out" transform="scale(0.3 0.3)">
          <a xlink:href="class_scene_ab57c9a7293ccbaf3dd7e9ac469a7a787_cgraph_org.svg" target="_base">
           <rect id="button" ry="5" rx="5" y="6" x="6" height="38" width="38"
                fill="#f2f5e9" fill-opacity="0.5" stroke="#606060" stroke-width="1.0"/>
           <path id="arrow"
             d="M 11.500037,31.436501 C 11.940474,20.09759 22.043105,11.32322 32.158766,21.979434 L 37.068811,17.246167 C 37.068811,17.246167 37.088388,32 37.088388,32 L 22.160133,31.978069 C 22.160133,31.978069 26.997745,27.140456 26.997745,27.140456 C 18.528582,18.264221 13.291696,25.230495 11.500037,31.436501 z"
             style="fill:#404040;"/>
          </a>
         </g>
        </svg>
</svg>
