<?xml version="1.0" encoding="UTF-8" standalone="no"?>
<!DOCTYPE svg PUBLIC "-//W3C//DTD SVG 1.1//EN"
 "http://www.w3.org/Graphics/SVG/1.1/DTD/svg11.dtd">
<!-- Generated by graphviz version 2.43.0 (0)
 -->
<!-- Title: Prism::print_prism_3D Pages: 1 -->
<svg width="950pt" height="416pt"
 viewBox="0.00 0.00 950.00 416.48" xmlns="http://www.w3.org/2000/svg" xmlns:xlink="http://www.w3.org/1999/xlink">
<g id="graph0" class="graph" transform="scale(1 1) rotate(0) translate(4 412.48)">
<title>Prism::print_prism_3D</title>
<!-- Node1 -->
<g id="node1" class="node">
<title>Node1</title>
<g id="a_node1"><a xlink:title="Metoda wypisania odpowiednich wierzcholkow do pliku zgodnie z zaproponowanym sposobem zadaniu dron">
<polygon fill="#bfbfbf" stroke="black" points="817,-88.5 817,-107.5 942,-107.5 942,-88.5 817,-88.5"/>
<text text-anchor="middle" x="879.5" y="-95.5" font-family="Helvetica,sans-Serif" font-size="10.00">Prism::print_prism_3D</text>
</a>
</g>
</g>
<!-- Node2 -->
<g id="node2" class="node">
<title>Node2</title>
<g id="a_node2"><a xlink:href="class_prism.html#a2de0dab6d117fc3c8dcbc3c384d0fccd" target="_top" xlink:title=" ">
<polygon fill="none" stroke="black" points="665,-88.5 665,-107.5 781,-107.5 781,-88.5 665,-88.5"/>
<text text-anchor="middle" x="723" y="-95.5" font-family="Helvetica,sans-Serif" font-size="10.00">Prism::Prism_To_File</text>
</a>
</g>
</g>
<!-- Node1&#45;&gt;Node2 -->
<g id="edge1" class="edge">
<title>Node1&#45;&gt;Node2</title>
<path fill="none" stroke="midnightblue" d="M806.96,-98C798.35,-98 789.65,-98 781.28,-98"/>
<polygon fill="midnightblue" stroke="midnightblue" points="806.99,-101.5 816.99,-98 806.99,-94.5 806.99,-101.5"/>
</g>
<!-- Node3 -->
<g id="node3" class="node">
<title>Node3</title>
<g id="a_node3"><a xlink:href="class_drone.html#aae0029f50083a01fe75c7d504c2fe5b9" target="_top" xlink:title="Metoda zapisujaca parametry drona do plikow (do plikow final kazdego z elementow)">
<polygon fill="none" stroke="black" points="506,-212 506,-242 621,-242 621,-212 506,-212"/>
<text text-anchor="start" x="514" y="-230" font-family="Helvetica,sans-Serif" font-size="10.00">Drone::Print_to_files</text>
<text text-anchor="middle" x="563.5" y="-219" font-family="Helvetica,sans-Serif" font-size="10.00">_drone</text>
</a>
</g>
</g>
<!-- Node2&#45;&gt;Node3 -->
<g id="edge2" class="edge">
<title>Node2&#45;&gt;Node3</title>
<path fill="none" stroke="midnightblue" d="M702.29,-114.14C671.59,-139.29 612.75,-187.48 582.87,-211.95"/>
<polygon fill="midnightblue" stroke="midnightblue" points="704.64,-116.74 710.16,-107.7 700.21,-111.32 704.64,-116.74"/>
</g>
<!-- Node11 -->
<g id="node11" class="node">
<title>Node11</title>
<g id="a_node11"><a xlink:href="class_drone.html#a577871807280aab8d9c0d4e45b435ec4" target="_top" xlink:title="Metoda rysujaca drona w gnuplocie. Przeznaczona do testow">
<polygon fill="none" stroke="black" points="498,-127 498,-157 629,-157 629,-127 498,-127"/>
<text text-anchor="start" x="506" y="-145" font-family="Helvetica,sans-Serif" font-size="10.00">Drone::Print_to_gnuplot</text>
<text text-anchor="middle" x="563.5" y="-134" font-family="Helvetica,sans-Serif" font-size="10.00">_drone</text>
</a>
</g>
</g>
<!-- Node2&#45;&gt;Node11 -->
<g id="edge18" class="edge">
<title>Node2&#45;&gt;Node11</title>
<path fill="none" stroke="midnightblue" d="M678.19,-110.24C659.67,-115.41 637.92,-121.49 618.43,-126.93"/>
<polygon fill="midnightblue" stroke="midnightblue" points="679.14,-113.61 687.82,-107.55 677.25,-106.87 679.14,-113.61"/>
</g>
<!-- Node12 -->
<g id="node12" class="node">
<title>Node12</title>
<g id="a_node12"><a xlink:href="class_scene.html#aa5fc0e5a94bfa0766f6e5ff10993630d" target="_top" xlink:title="Skanowanie powierzchni pod dronem, gdy dron nie moze wyladowac w danym miejscu &#160;&#160;Rysowany jest rownie...">
<polygon fill="none" stroke="black" points="510,-88.5 510,-107.5 617,-107.5 617,-88.5 510,-88.5"/>
<text text-anchor="middle" x="563.5" y="-95.5" font-family="Helvetica,sans-Serif" font-size="10.00">Scene::scan_plane</text>
</a>
</g>
</g>
<!-- Node2&#45;&gt;Node12 -->
<g id="edge19" class="edge">
<title>Node2&#45;&gt;Node12</title>
<path fill="none" stroke="midnightblue" d="M654.33,-98C641.86,-98 629,-98 617.06,-98"/>
<polygon fill="midnightblue" stroke="midnightblue" points="654.69,-101.5 664.69,-98 654.69,-94.5 654.69,-101.5"/>
</g>
<!-- Node16 -->
<g id="node16" class="node">
<title>Node16</title>
<g id="a_node16"><a xlink:href="class_drone.html#a63898ba4cc161710cf08f7b578f3d90f" target="_top" xlink:title="Metoda ustawiajaca nazwy plikow w laczy do gnuplota (nazwy final!)">
<polygon fill="none" stroke="black" points="503.5,-39 503.5,-69 623.5,-69 623.5,-39 503.5,-39"/>
<text text-anchor="start" x="511.5" y="-57" font-family="Helvetica,sans-Serif" font-size="10.00">Drone::set_filenames</text>
<text text-anchor="middle" x="563.5" y="-46" font-family="Helvetica,sans-Serif" font-size="10.00">_gnuplot</text>
</a>
</g>
</g>
<!-- Node2&#45;&gt;Node16 -->
<g id="edge23" class="edge">
<title>Node2&#45;&gt;Node16</title>
<path fill="none" stroke="midnightblue" d="M678.19,-85.76C659.67,-80.59 637.92,-74.51 618.43,-69.07"/>
<polygon fill="midnightblue" stroke="midnightblue" points="677.25,-89.13 687.82,-88.45 679.14,-82.39 677.25,-89.13"/>
</g>
<!-- Node17 -->
<g id="node17" class="node">
<title>Node17</title>
<g id="a_node17"><a xlink:href="class_prism.html#a8a80c4334810ad934e6e43bb5ee14f07" target="_top" xlink:title="Zmiana pozycji obiektu na plaszczyznie XY na nowe wspolrzedne.">
<polygon fill="none" stroke="black" points="511.5,-0.5 511.5,-19.5 615.5,-19.5 615.5,-0.5 511.5,-0.5"/>
<text text-anchor="middle" x="563.5" y="-7.5" font-family="Helvetica,sans-Serif" font-size="10.00">Prism::switch_pos</text>
</a>
</g>
</g>
<!-- Node2&#45;&gt;Node17 -->
<g id="edge24" class="edge">
<title>Node2&#45;&gt;Node17</title>
<path fill="none" stroke="midnightblue" d="M703.8,-81.42C685.92,-65.92 657.3,-43.1 629,-29 621.48,-25.25 613.08,-22.11 604.91,-19.53"/>
<polygon fill="midnightblue" stroke="midnightblue" points="701.85,-84.37 711.66,-88.37 706.49,-79.13 701.85,-84.37"/>
</g>
<!-- Node4 -->
<g id="node4" class="node">
<title>Node4</title>
<g id="a_node4"><a xlink:href="class_drone.html#a7eecbd031df9009e113d355a9dcdf4e1" target="_top" xlink:title="Metoda obliczajaca i przeprowadzajaca caly ruch drona (obrot o kat i przelot z zadania 5....">
<polygon fill="none" stroke="black" points="4.5,-190 4.5,-220 116.5,-220 116.5,-190 4.5,-190"/>
<text text-anchor="start" x="12.5" y="-208" font-family="Helvetica,sans-Serif" font-size="10.00">Drone::Drone_basic</text>
<text text-anchor="middle" x="60.5" y="-197" font-family="Helvetica,sans-Serif" font-size="10.00">_motion_flight</text>
</a>
</g>
</g>
<!-- Node3&#45;&gt;Node4 -->
<g id="edge3" class="edge">
<title>Node3&#45;&gt;Node4</title>
<path fill="none" stroke="midnightblue" d="M525.96,-207.29C454.27,-171.24 290.51,-101.93 157,-142 125.99,-151.31 95.75,-174.3 77.88,-189.78"/>
<polygon fill="midnightblue" stroke="midnightblue" points="524.55,-210.5 535.05,-211.93 527.74,-204.26 524.55,-210.5"/>
</g>
<!-- Node5 -->
<g id="node5" class="node">
<title>Node5</title>
<g id="a_node5"><a xlink:href="class_drone.html#a4abbed4a4cc52e5630f07f9129b46c5c" target="_top" xlink:title="Metoda realizujaca ladowanie drona.">
<polygon fill="none" stroke="black" points="165.5,-315.5 165.5,-334.5 290.5,-334.5 290.5,-315.5 165.5,-315.5"/>
<text text-anchor="middle" x="228" y="-322.5" font-family="Helvetica,sans-Serif" font-size="10.00">Drone::Drone_descent</text>
</a>
</g>
</g>
<!-- Node3&#45;&gt;Node5 -->
<g id="edge4" class="edge">
<title>Node3&#45;&gt;Node5</title>
<path fill="none" stroke="midnightblue" d="M525.57,-246.68C506.92,-255.99 483.69,-266.65 462,-274 404.93,-293.32 337.47,-307.15 289.86,-315.5"/>
<polygon fill="midnightblue" stroke="midnightblue" points="527.27,-249.74 534.6,-242.1 524.1,-243.5 527.27,-249.74"/>
</g>
<!-- Node6 -->
<g id="node6" class="node">
<title>Node6</title>
<g id="a_node6"><a xlink:href="class_drone.html#aec9abadf85777ab20e361d1389aab466" target="_top" xlink:title="Metoda obliczajaca i przeprowadzajaca koncowy ruch drona (obrot o kat i koncowy przelot z zadania 5....">
<polygon fill="none" stroke="black" points="0,-272 0,-302 121,-302 121,-272 0,-272"/>
<text text-anchor="start" x="8" y="-290" font-family="Helvetica,sans-Serif" font-size="10.00">Drone::Drone_motion</text>
<text text-anchor="middle" x="60.5" y="-279" font-family="Helvetica,sans-Serif" font-size="10.00">_after_update</text>
</a>
</g>
</g>
<!-- Node3&#45;&gt;Node6 -->
<g id="edge5" class="edge">
<title>Node3&#45;&gt;Node6</title>
<path fill="none" stroke="midnightblue" d="M546.95,-250.59C529.19,-275.81 497.91,-315.35 462,-339 398.15,-381.06 374.45,-381.61 299,-394 236.72,-404.22 214.6,-419.8 157,-394 114.73,-375.07 83.47,-327.16 69.54,-302.38"/>
<polygon fill="midnightblue" stroke="midnightblue" points="549.86,-252.54 552.65,-242.32 544.09,-248.57 549.86,-252.54"/>
</g>
<!-- Node7 -->
<g id="node7" class="node">
<title>Node7</title>
<g id="a_node7"><a xlink:href="class_drone.html#af052f6bb793d1229b99b16b800b95b82" target="_top" xlink:title="Metoda animujaca obrot drona i wyrysowujaca calosc w gnuplocie.">
<polygon fill="none" stroke="black" points="165.5,-190 165.5,-220 290.5,-220 290.5,-190 165.5,-190"/>
<text text-anchor="start" x="173.5" y="-208" font-family="Helvetica,sans-Serif" font-size="10.00">Drone::Drone_rotation</text>
<text text-anchor="middle" x="228" y="-197" font-family="Helvetica,sans-Serif" font-size="10.00">_animation</text>
</a>
</g>
</g>
<!-- Node3&#45;&gt;Node7 -->
<g id="edge6" class="edge">
<title>Node3&#45;&gt;Node7</title>
<path fill="none" stroke="midnightblue" d="M495.83,-222.6C436.01,-218.66 348.91,-212.91 290.67,-209.07"/>
<polygon fill="midnightblue" stroke="midnightblue" points="495.72,-226.1 505.93,-223.27 496.18,-219.12 495.72,-226.1"/>
</g>
<!-- Node8 -->
<g id="node8" class="node">
<title>Node8</title>
<g id="a_node8"><a xlink:href="class_drone.html#ab7808296cec81143dbddd7516340a371" target="_top" xlink:title="Metoda robiaca &quot;oblot&quot; drona wokol punktu (z modyfikacji)">
<polygon fill="none" stroke="black" points="157,-151.5 157,-170.5 299,-170.5 299,-151.5 157,-151.5"/>
<text text-anchor="middle" x="228" y="-158.5" font-family="Helvetica,sans-Serif" font-size="10.00">Drone::Drone_roundabout</text>
</a>
</g>
</g>
<!-- Node3&#45;&gt;Node8 -->
<g id="edge9" class="edge">
<title>Node3&#45;&gt;Node8</title>
<path fill="none" stroke="midnightblue" d="M495.84,-213.81C431.19,-201.01 334.69,-181.92 277.18,-170.53"/>
<polygon fill="midnightblue" stroke="midnightblue" points="495.44,-217.3 505.93,-215.8 496.8,-210.43 495.44,-217.3"/>
</g>
<!-- Node9 -->
<g id="node9" class="node">
<title>Node9</title>
<g id="a_node9"><a xlink:href="class_drone.html#a5fc9dd645ad3856b5d3c501c63c464e3" target="_top" xlink:title="Metoda animujaca translacje drona i wyrysowujaca calosc w gnuplocie.">
<polygon fill="none" stroke="black" points="158.5,-354 158.5,-384 297.5,-384 297.5,-354 158.5,-354"/>
<text text-anchor="start" x="166.5" y="-372" font-family="Helvetica,sans-Serif" font-size="10.00">Drone::Drone_translation</text>
<text text-anchor="middle" x="228" y="-361" font-family="Helvetica,sans-Serif" font-size="10.00">_animation</text>
</a>
</g>
</g>
<!-- Node3&#45;&gt;Node9 -->
<g id="edge10" class="edge">
<title>Node3&#45;&gt;Node9</title>
<path fill="none" stroke="midnightblue" d="M539.34,-248.91C520.01,-266.12 491.04,-289.51 462,-304 409.68,-330.11 345.33,-347.05 297.53,-357.07"/>
<polygon fill="midnightblue" stroke="midnightblue" points="541.69,-251.5 546.75,-242.2 536.99,-246.32 541.69,-251.5"/>
</g>
<!-- Node10 -->
<g id="node10" class="node">
<title>Node10</title>
<g id="a_node10"><a xlink:href="class_drone.html#aedb04b80609b22ff4eb4a957bc149a48" target="_top" xlink:title="Metoda animujaca obrot rotorow i zapisujaca to w plikach. Metoda sluzy jako metoda pomocnicza,...">
<polygon fill="none" stroke="black" points="335,-234 335,-264 462,-264 462,-234 335,-234"/>
<text text-anchor="start" x="343" y="-252" font-family="Helvetica,sans-Serif" font-size="10.00">Drone::Rotors_rotation</text>
<text text-anchor="middle" x="398.5" y="-241" font-family="Helvetica,sans-Serif" font-size="10.00">_animation</text>
</a>
</g>
</g>
<!-- Node3&#45;&gt;Node10 -->
<g id="edge11" class="edge">
<title>Node3&#45;&gt;Node10</title>
<path fill="none" stroke="midnightblue" d="M495.83,-236C484.67,-237.5 473.13,-239.06 462.08,-240.55"/>
<polygon fill="midnightblue" stroke="midnightblue" points="496.51,-239.44 505.95,-234.63 495.57,-232.5 496.51,-239.44"/>
</g>
<!-- Node7&#45;&gt;Node4 -->
<g id="edge7" class="edge">
<title>Node7&#45;&gt;Node4</title>
<path fill="none" stroke="midnightblue" d="M155.13,-205C142.23,-205 128.97,-205 116.63,-205"/>
<polygon fill="midnightblue" stroke="midnightblue" points="155.37,-208.5 165.37,-205 155.37,-201.5 155.37,-208.5"/>
</g>
<!-- Node7&#45;&gt;Node6 -->
<g id="edge8" class="edge">
<title>Node7&#45;&gt;Node6</title>
<path fill="none" stroke="midnightblue" d="M187.51,-224.56C158.21,-239.08 118.83,-258.59 91.94,-271.92"/>
<polygon fill="midnightblue" stroke="midnightblue" points="189.24,-227.62 196.64,-220.04 186.13,-221.34 189.24,-227.62"/>
</g>
<!-- Node10&#45;&gt;Node4 -->
<g id="edge12" class="edge">
<title>Node10&#45;&gt;Node4</title>
<path fill="none" stroke="midnightblue" d="M324.56,-246.6C276.67,-244.2 212.79,-239.43 157,-230 142.3,-227.52 126.56,-223.83 112.19,-220.05"/>
<polygon fill="midnightblue" stroke="midnightblue" points="324.68,-250.11 334.84,-247.09 325.02,-243.12 324.68,-250.11"/>
</g>
<!-- Node10&#45;&gt;Node5 -->
<g id="edge13" class="edge">
<title>Node10&#45;&gt;Node5</title>
<path fill="none" stroke="midnightblue" d="M362.74,-269.05C344.17,-279.32 320.71,-291.61 299,-301 286.62,-306.35 272.62,-311.35 260.41,-315.39"/>
<polygon fill="midnightblue" stroke="midnightblue" points="364.68,-271.97 371.7,-264.04 361.27,-265.86 364.68,-271.97"/>
</g>
<!-- Node10&#45;&gt;Node6 -->
<g id="edge14" class="edge">
<title>Node10&#45;&gt;Node6</title>
<path fill="none" stroke="midnightblue" d="M324.67,-259.69C316.02,-260.86 307.32,-261.99 299,-263 238.52,-270.35 169.19,-277.17 121.11,-281.65"/>
<polygon fill="midnightblue" stroke="midnightblue" points="325.33,-263.13 334.76,-258.31 324.38,-256.2 325.33,-263.13"/>
</g>
<!-- Node10&#45;&gt;Node7 -->
<g id="edge15" class="edge">
<title>Node10&#45;&gt;Node7</title>
<path fill="none" stroke="midnightblue" d="M330.12,-231.41C315.69,-227.64 300.57,-223.69 286.54,-220.03"/>
<polygon fill="midnightblue" stroke="midnightblue" points="329.42,-234.84 339.98,-233.98 331.19,-228.07 329.42,-234.84"/>
</g>
<!-- Node10&#45;&gt;Node8 -->
<g id="edge16" class="edge">
<title>Node10&#45;&gt;Node8</title>
<path fill="none" stroke="midnightblue" d="M371.91,-227.34C352.88,-212.18 325.68,-192.5 299,-180 291.02,-176.26 282.17,-173.15 273.52,-170.59"/>
<polygon fill="midnightblue" stroke="midnightblue" points="369.83,-230.15 379.8,-233.73 374.23,-224.71 369.83,-230.15"/>
</g>
<!-- Node10&#45;&gt;Node9 -->
<g id="edge17" class="edge">
<title>Node10&#45;&gt;Node9</title>
<path fill="none" stroke="midnightblue" d="M378.66,-272.11C360.28,-293.36 330.55,-324.43 299,-344 292.97,-347.74 286.3,-351.03 279.54,-353.88"/>
<polygon fill="midnightblue" stroke="midnightblue" points="381.56,-274.11 385.36,-264.22 376.22,-269.58 381.56,-274.11"/>
</g>
<!-- Node13 -->
<g id="node13" class="node">
<title>Node13</title>
<g id="a_node13"><a xlink:href="class_scene.html#a5fb0b9741a75dec929b5ea5d6ac917a1" target="_top" xlink:title="Przelot aktywnego drona.">
<polygon fill="none" stroke="black" points="366.5,-75.5 366.5,-94.5 430.5,-94.5 430.5,-75.5 366.5,-75.5"/>
<text text-anchor="middle" x="398.5" y="-82.5" font-family="Helvetica,sans-Serif" font-size="10.00">Scene::fly</text>
</a>
</g>
</g>
<!-- Node12&#45;&gt;Node13 -->
<g id="edge20" class="edge">
<title>Node12&#45;&gt;Node13</title>
<path fill="none" stroke="midnightblue" d="M499.32,-92.96C475.83,-91.09 450.2,-89.04 430.79,-87.5"/>
<polygon fill="midnightblue" stroke="midnightblue" points="499.33,-96.47 509.58,-93.78 499.89,-89.5 499.33,-96.47"/>
</g>
<!-- Node14 -->
<g id="node14" class="node">
<title>Node14</title>
<g id="a_node14"><a xlink:href="class_menu.html#acd338552222b744cd030e17776cb5d9b" target="_top" xlink:title="Obsluguje wybor menu.">
<polygon fill="none" stroke="black" points="171,-75.5 171,-94.5 285,-94.5 285,-75.5 171,-75.5"/>
<text text-anchor="middle" x="228" y="-82.5" font-family="Helvetica,sans-Serif" font-size="10.00">Menu::switch_menu</text>
</a>
</g>
</g>
<!-- Node13&#45;&gt;Node14 -->
<g id="edge21" class="edge">
<title>Node13&#45;&gt;Node14</title>
<path fill="none" stroke="midnightblue" d="M356.13,-85C334.71,-85 308.25,-85 285.02,-85"/>
<polygon fill="midnightblue" stroke="midnightblue" points="356.2,-88.5 366.2,-85 356.2,-81.5 356.2,-88.5"/>
</g>
<!-- Node15 -->
<g id="node15" class="node">
<title>Node15</title>
<g id="a_node15"><a xlink:href="class_menu.html#af7e6a49bd56499facef9cc98561ea169" target="_top" xlink:title="Inicjuje i obsluguje menu.">
<polygon fill="none" stroke="black" points="11.5,-75.5 11.5,-94.5 109.5,-94.5 109.5,-75.5 11.5,-75.5"/>
<text text-anchor="middle" x="60.5" y="-82.5" font-family="Helvetica,sans-Serif" font-size="10.00">Menu::init_menu</text>
</a>
</g>
</g>
<!-- Node14&#45;&gt;Node15 -->
<g id="edge22" class="edge">
<title>Node14&#45;&gt;Node15</title>
<path fill="none" stroke="midnightblue" d="M160.54,-85C143.55,-85 125.61,-85 109.73,-85"/>
<polygon fill="midnightblue" stroke="midnightblue" points="160.97,-88.5 170.97,-85 160.97,-81.5 160.97,-88.5"/>
</g>
</g>
</svg>
