<?xml version="1.0" encoding="UTF-8" standalone="no"?>
<!DOCTYPE svg PUBLIC "-//W3C//DTD SVG 1.1//EN"
 "http://www.w3.org/Graphics/SVG/1.1/DTD/svg11.dtd">
<!-- Generated by graphviz version 2.43.0 (0)
 -->
<!-- Title: Volcano::special_points Pages: 1 -->
<svg width="420pt" height="66pt"
 viewBox="0.00 0.00 420.00 66.00" xmlns="http://www.w3.org/2000/svg" xmlns:xlink="http://www.w3.org/1999/xlink">
<g id="graph0" class="graph" transform="scale(1 1) rotate(0) translate(4 62)">
<title>Volcano::special_points</title>
<!-- Node1 -->
<g id="node1" class="node">
<title>Node1</title>
<g id="a_node1"><a xlink:title="Metoda zwracajaca punkty specjalne Volcano :">
<polygon fill="#bfbfbf" stroke="black" points="281,-19.5 281,-38.5 412,-38.5 412,-19.5 281,-19.5"/>
<text text-anchor="middle" x="346.5" y="-26.5" font-family="Helvetica,sans-Serif" font-size="10.00">Volcano::special_points</text>
</a>
</g>
</g>
<!-- Node2 -->
<g id="node2" class="node">
<title>Node2</title>
<g id="a_node2"><a xlink:href="class_volcano.html#acafe7ddddd734c05a719143b6903997b" target="_top" xlink:title="Przeciazenie operatora przypisania, umozliwia stosowanie metod typu Prism na obiekcie typu Volcano">
<polygon fill="none" stroke="black" points="135,-38.5 135,-57.5 245,-57.5 245,-38.5 135,-38.5"/>
<text text-anchor="middle" x="190" y="-45.5" font-family="Helvetica,sans-Serif" font-size="10.00">Volcano::operator=</text>
</a>
</g>
</g>
<!-- Node1&#45;&gt;Node2 -->
<g id="edge1" class="edge">
<title>Node1&#45;&gt;Node2</title>
<path fill="none" stroke="midnightblue" d="M270.76,-38.19C262.1,-39.26 253.4,-40.33 245.09,-41.35"/>
<polygon fill="midnightblue" stroke="midnightblue" points="271.38,-41.64 280.87,-36.95 270.52,-34.69 271.38,-41.64"/>
</g>
<!-- Node3 -->
<g id="node3" class="node">
<title>Node3</title>
<g id="a_node3"><a xlink:href="class_volcano.html#a10c03cb4a3c883fa3d67d82f395042cc" target="_top" xlink:title="Konstruktor bezparametryczny klasy Volcano. Dolna podstawa jest identyczna jak w bezparametrycznym Pr...">
<polygon fill="none" stroke="black" points="140.5,-0.5 140.5,-19.5 239.5,-19.5 239.5,-0.5 140.5,-0.5"/>
<text text-anchor="middle" x="190" y="-7.5" font-family="Helvetica,sans-Serif" font-size="10.00">Volcano::Volcano</text>
</a>
</g>
</g>
<!-- Node1&#45;&gt;Node3 -->
<g id="edge2" class="edge">
<title>Node1&#45;&gt;Node3</title>
<path fill="none" stroke="midnightblue" d="M270.83,-19.82C260.31,-18.52 249.72,-17.22 239.85,-16.01"/>
<polygon fill="midnightblue" stroke="midnightblue" points="270.52,-23.31 280.87,-21.05 271.38,-16.36 270.52,-23.31"/>
</g>
<!-- Node4 -->
<g id="node4" class="node">
<title>Node4</title>
<g id="a_node4"><a xlink:href="class_volcano.html#a1324b87f13755c4b12b54485352c5b8d" target="_top" xlink:title="Konstruktor parametryczny klasy Volcano. Powstaje ostroslup jak z konstruktora parametrycznego,...">
<polygon fill="none" stroke="black" points="0,-0.5 0,-19.5 99,-19.5 99,-0.5 0,-0.5"/>
<text text-anchor="middle" x="49.5" y="-7.5" font-family="Helvetica,sans-Serif" font-size="10.00">Volcano::Volcano</text>
</a>
</g>
</g>
<!-- Node3&#45;&gt;Node4 -->
<g id="edge3" class="edge">
<title>Node3&#45;&gt;Node4</title>
<path fill="none" stroke="midnightblue" d="M130.07,-10C119.83,-10 109.29,-10 99.36,-10"/>
<polygon fill="midnightblue" stroke="midnightblue" points="130.17,-13.5 140.17,-10 130.17,-6.5 130.17,-13.5"/>
</g>
</g>
</svg>
