<?xml version="1.0" encoding="UTF-8" standalone="no"?>
<!DOCTYPE svg PUBLIC "-//W3C//DTD SVG 1.1//EN"
 "http://www.w3.org/Graphics/SVG/1.1/DTD/svg11.dtd">
<!-- Generated by graphviz version 2.43.0 (0)
 -->
<!-- Title: Prism::scale_pri Pages: 1 -->
<svg width="354pt" height="218pt"
 viewBox="0.00 0.00 354.00 218.00" xmlns="http://www.w3.org/2000/svg" xmlns:xlink="http://www.w3.org/1999/xlink">
<g id="graph0" class="graph" transform="scale(1 1) rotate(0) translate(4 214)">
<title>Prism::scale_pri</title>
<!-- Node1 -->
<g id="node1" class="node">
<title>Node1</title>
<g id="a_node1"><a xlink:title="Metoda skalujaca o wektor scale bedacy czlonkiem klasy block">
<polygon fill="#bfbfbf" stroke="black" points="252,-95.5 252,-114.5 346,-114.5 346,-95.5 252,-95.5"/>
<text text-anchor="middle" x="299" y="-102.5" font-family="Helvetica,sans-Serif" font-size="10.00">Prism::scale_pri</text>
</a>
</g>
</g>
<!-- Node2 -->
<g id="node2" class="node">
<title>Node2</title>
<g id="a_node2"><a xlink:href="class_circus.html#a5aab1830e67f62f80525d04de23db7da" target="_top" xlink:title="Konstruktor parametryczny klasy Circus. Powstaje ostroslup jak z konstruktora parametrycznego,...">
<polygon fill="none" stroke="black" points="125,-190.5 125,-209.5 208,-209.5 208,-190.5 125,-190.5"/>
<text text-anchor="middle" x="166.5" y="-197.5" font-family="Helvetica,sans-Serif" font-size="10.00">Circus::Circus</text>
</a>
</g>
</g>
<!-- Node1&#45;&gt;Node2 -->
<g id="edge1" class="edge">
<title>Node1&#45;&gt;Node2</title>
<path fill="none" stroke="midnightblue" d="M283.11,-122.13C267.71,-138.98 242.28,-164.51 216,-181 210.18,-184.65 203.54,-187.81 197.08,-190.45"/>
<polygon fill="midnightblue" stroke="midnightblue" points="285.76,-124.42 289.82,-114.64 280.54,-119.75 285.76,-124.42"/>
</g>
<!-- Node3 -->
<g id="node3" class="node">
<title>Node3</title>
<g id="a_node3"><a xlink:href="class_drone.html#ab692baa4be5c43b72990ce1b01bdc805" target="_top" xlink:title="Konstruktor bezparametryczny klasy Drone. Powstaly dron jest skonstruowany z bezparametrycznych prost...">
<polygon fill="none" stroke="black" points="126,-152.5 126,-171.5 207,-171.5 207,-152.5 126,-152.5"/>
<text text-anchor="middle" x="166.5" y="-159.5" font-family="Helvetica,sans-Serif" font-size="10.00">Drone::Drone</text>
</a>
</g>
</g>
<!-- Node1&#45;&gt;Node3 -->
<g id="edge2" class="edge">
<title>Node1&#45;&gt;Node3</title>
<path fill="none" stroke="midnightblue" d="M269.12,-118.9C253.5,-126.29 233.8,-135.4 216,-143 208.52,-146.2 200.3,-149.49 192.79,-152.43"/>
<polygon fill="midnightblue" stroke="midnightblue" points="270.74,-122.01 278.27,-114.55 267.73,-115.69 270.74,-122.01"/>
</g>
<!-- Node4 -->
<g id="node4" class="node">
<title>Node4</title>
<g id="a_node4"><a xlink:href="class_prism.html#aa84930a585c7817f74a14d95ea74cb5a" target="_top" xlink:title="Konstruktor bezparametryczny klasy Prism. Powstaly granistoslup ma podstawy &quot;tworzace&quot;:">
<polygon fill="none" stroke="black" points="127.5,-114.5 127.5,-133.5 205.5,-133.5 205.5,-114.5 127.5,-114.5"/>
<text text-anchor="middle" x="166.5" y="-121.5" font-family="Helvetica,sans-Serif" font-size="10.00">Prism::Prism</text>
</a>
</g>
</g>
<!-- Node1&#45;&gt;Node4 -->
<g id="edge3" class="edge">
<title>Node1&#45;&gt;Node4</title>
<path fill="none" stroke="midnightblue" d="M241.89,-113.17C229.7,-114.94 217.08,-116.78 205.77,-118.43"/>
<polygon fill="midnightblue" stroke="midnightblue" points="242.6,-116.6 251.99,-111.7 241.59,-109.68 242.6,-116.6"/>
</g>
<!-- Node5 -->
<g id="node5" class="node">
<title>Node5</title>
<g id="a_node5"><a xlink:href="class_drone.html#a77142062fb8a8af87df42b5c2e7e44e0" target="_top" xlink:title="Metoda skalujaca wszystkie elementy drona przez skale kazdego elementu">
<polygon fill="none" stroke="black" points="117.5,-76.5 117.5,-95.5 215.5,-95.5 215.5,-76.5 117.5,-76.5"/>
<text text-anchor="middle" x="166.5" y="-83.5" font-family="Helvetica,sans-Serif" font-size="10.00">Drone::scale_dro</text>
</a>
</g>
</g>
<!-- Node1&#45;&gt;Node5 -->
<g id="edge4" class="edge">
<title>Node1&#45;&gt;Node5</title>
<path fill="none" stroke="midnightblue" d="M241.91,-96.83C233.2,-95.56 224.26,-94.26 215.75,-93.02"/>
<polygon fill="midnightblue" stroke="midnightblue" points="241.59,-100.32 251.99,-98.3 242.6,-93.4 241.59,-100.32"/>
</g>
<!-- Node7 -->
<g id="node7" class="node">
<title>Node7</title>
<g id="a_node7"><a xlink:href="class_tent.html#a6831febfd74474f567f4419091883512" target="_top" xlink:title="Konstruktor parametryczny klasy Tent. Powstaje ostroslup jak z konstruktora parametrycznego,...">
<polygon fill="none" stroke="black" points="135,-38.5 135,-57.5 198,-57.5 198,-38.5 135,-38.5"/>
<text text-anchor="middle" x="166.5" y="-45.5" font-family="Helvetica,sans-Serif" font-size="10.00">Tent::Tent</text>
</a>
</g>
</g>
<!-- Node1&#45;&gt;Node7 -->
<g id="edge6" class="edge">
<title>Node1&#45;&gt;Node7</title>
<path fill="none" stroke="midnightblue" d="M269.12,-91.1C253.5,-83.71 233.8,-74.6 216,-67 208.52,-63.8 200.3,-60.51 192.79,-57.57"/>
<polygon fill="midnightblue" stroke="midnightblue" points="267.73,-94.31 278.27,-95.45 270.74,-87.99 267.73,-94.31"/>
</g>
<!-- Node8 -->
<g id="node8" class="node">
<title>Node8</title>
<g id="a_node8"><a xlink:href="class_volcano.html#a1324b87f13755c4b12b54485352c5b8d" target="_top" xlink:title="Konstruktor parametryczny klasy Volcano. Powstaje ostroslup jak z konstruktora parametrycznego,...">
<polygon fill="none" stroke="black" points="117,-0.5 117,-19.5 216,-19.5 216,-0.5 117,-0.5"/>
<text text-anchor="middle" x="166.5" y="-7.5" font-family="Helvetica,sans-Serif" font-size="10.00">Volcano::Volcano</text>
</a>
</g>
</g>
<!-- Node1&#45;&gt;Node8 -->
<g id="edge7" class="edge">
<title>Node1&#45;&gt;Node8</title>
<path fill="none" stroke="midnightblue" d="M283.11,-87.87C267.71,-71.02 242.28,-45.49 216,-29 210.18,-25.35 203.54,-22.19 197.08,-19.55"/>
<polygon fill="midnightblue" stroke="midnightblue" points="280.54,-90.25 289.82,-95.36 285.76,-85.58 280.54,-90.25"/>
</g>
<!-- Node6 -->
<g id="node6" class="node">
<title>Node6</title>
<g id="a_node6"><a xlink:href="class_scene.html#adca9214dccab3d77eed9d8af7db67f94" target="_top" xlink:title="Konstruktor paramereyczny klasy Scene.">
<polygon fill="none" stroke="black" points="0,-76.5 0,-95.5 81,-95.5 81,-76.5 0,-76.5"/>
<text text-anchor="middle" x="40.5" y="-83.5" font-family="Helvetica,sans-Serif" font-size="10.00">Scene::Scene</text>
</a>
</g>
</g>
<!-- Node5&#45;&gt;Node6 -->
<g id="edge5" class="edge">
<title>Node5&#45;&gt;Node6</title>
<path fill="none" stroke="midnightblue" d="M106.98,-86C98.19,-86 89.32,-86 81.05,-86"/>
<polygon fill="midnightblue" stroke="midnightblue" points="107.2,-89.5 117.2,-86 107.2,-82.5 107.2,-89.5"/>
</g>
</g>
</svg>
