<?xml version="1.0" encoding="UTF-8" standalone="no"?>
<!DOCTYPE svg PUBLIC "-//W3C//DTD SVG 1.1//EN"
 "http://www.w3.org/Graphics/SVG/1.1/DTD/svg11.dtd">
<!-- Generated by graphviz version 2.43.0 (0)
 -->
<!-- Title: Menu::init_menu Pages: 1 -->
<svg width="1006pt" height="988pt"
 viewBox="0.00 0.00 1006.00 988.00" xmlns="http://www.w3.org/2000/svg" xmlns:xlink="http://www.w3.org/1999/xlink">
<g id="graph0" class="graph" transform="scale(1 1) rotate(0) translate(4 984)">
<title>Menu::init_menu</title>
<!-- Node1 -->
<g id="node1" class="node">
<title>Node1</title>
<g id="a_node1"><a xlink:title="Inicjuje i obsluguje menu.">
<polygon fill="#bfbfbf" stroke="black" points="0,-443.5 0,-462.5 98,-462.5 98,-443.5 0,-443.5"/>
<text text-anchor="middle" x="49" y="-450.5" font-family="Helvetica,sans-Serif" font-size="10.00">Menu::init_menu</text>
</a>
</g>
</g>
<!-- Node2 -->
<g id="node2" class="node">
<title>Node2</title>
<g id="a_node2"><a xlink:href="class_scene.html#ac4faf255028ebaf91cad96e22029940a" target="_top" xlink:title="Metoda sprawdzajaca poprawnosc inicjacji sceny.">
<polygon fill="none" stroke="black" points="134,-649.5 134,-668.5 248,-668.5 248,-649.5 134,-649.5"/>
<text text-anchor="middle" x="191" y="-656.5" font-family="Helvetica,sans-Serif" font-size="10.00">Scene::check_scene</text>
</a>
</g>
</g>
<!-- Node1&#45;&gt;Node2 -->
<g id="edge1" class="edge">
<title>Node1&#45;&gt;Node2</title>
<path fill="none" stroke="midnightblue" d="M51.57,-462.74C57.01,-493.41 77.91,-589 134,-640 135.73,-641.57 137.59,-643.01 139.55,-644.34"/>
<polygon fill="midnightblue" stroke="midnightblue" points="138.22,-647.6 148.66,-649.41 141.63,-641.49 138.22,-647.6"/>
</g>
<!-- Node3 -->
<g id="node3" class="node">
<title>Node3</title>
<g id="a_node3"><a xlink:href="class_scene.html#ab57c9a7293ccbaf3dd7e9ac469a7a787" target="_top" xlink:title="Metoda inicjalizujaca lacze do gnuplota.">
<polygon fill="none" stroke="black" points="136,-611.5 136,-630.5 246,-630.5 246,-611.5 136,-611.5"/>
<text text-anchor="middle" x="191" y="-618.5" font-family="Helvetica,sans-Serif" font-size="10.00">Scene::init_gnuplot</text>
</a>
</g>
</g>
<!-- Node1&#45;&gt;Node3 -->
<g id="edge2" class="edge">
<title>Node1&#45;&gt;Node3</title>
<path fill="none" stroke="midnightblue" d="M57.93,-462.51C80.54,-489.65 145.6,-567.72 175.12,-603.14"/>
<polygon fill="midnightblue" stroke="midnightblue" points="172.72,-605.73 181.81,-611.17 178.1,-601.25 172.72,-605.73"/>
</g>
<!-- Node13 -->
<g id="node13" class="node">
<title>Node13</title>
<g id="a_node13"><a xlink:href="class_pz_g_1_1_lacze_do_g_n_u_plota.html#a065f5b8402737cc62b0ad4f66d028335" target="_top" xlink:title="Generuje polecenie rysowania i przesyła je do gnuplota.">
<polygon fill="none" stroke="black" points="290.5,-469 290.5,-499 420.5,-499 420.5,-469 290.5,-469"/>
<text text-anchor="start" x="298.5" y="-487" font-family="Helvetica,sans-Serif" font-size="10.00">PzG::LaczeDoGNUPlota</text>
<text text-anchor="middle" x="355.5" y="-476" font-family="Helvetica,sans-Serif" font-size="10.00">::Rysuj</text>
</a>
</g>
</g>
<!-- Node1&#45;&gt;Node13 -->
<g id="edge34" class="edge">
<title>Node1&#45;&gt;Node13</title>
<path fill="none" stroke="midnightblue" d="M98.25,-457.91C147.21,-462.9 223.66,-470.68 280.33,-476.45"/>
<polygon fill="midnightblue" stroke="midnightblue" points="280.01,-479.93 290.31,-477.47 280.72,-472.97 280.01,-479.93"/>
</g>
<!-- Node31 -->
<g id="node31" class="node">
<title>Node31</title>
<g id="a_node31"><a xlink:href="class_scene.html#a22b1902bbd3a21c3fc62251c123a8407" target="_top" xlink:title="Wypisuje polozenie aktywnego drona.">
<polygon fill="none" stroke="black" points="300.5,-0.5 300.5,-19.5 410.5,-19.5 410.5,-0.5 300.5,-0.5"/>
<text text-anchor="middle" x="355.5" y="-7.5" font-family="Helvetica,sans-Serif" font-size="10.00">Scene::print_active</text>
</a>
</g>
</g>
<!-- Node1&#45;&gt;Node31 -->
<g id="edge32" class="edge">
<title>Node1&#45;&gt;Node31</title>
<path fill="none" stroke="midnightblue" d="M52.63,-443.28C61.42,-411.52 91.7,-308.38 134,-231 187.63,-132.88 191.56,-91.92 284,-29 286.92,-27.01 290.03,-25.24 293.27,-23.64"/>
<polygon fill="midnightblue" stroke="midnightblue" points="294.84,-26.78 302.66,-19.63 292.09,-20.34 294.84,-26.78"/>
</g>
<!-- Node33 -->
<g id="node33" class="node">
<title>Node33</title>
<g id="a_node33"><a xlink:href="class_menu.html#ad19260a43743fc13dbb67e71c97f3ccd" target="_top" xlink:title="Wyswietla menu.">
<polygon fill="none" stroke="black" points="301.5,-392.5 301.5,-411.5 409.5,-411.5 409.5,-392.5 301.5,-392.5"/>
<text text-anchor="middle" x="355.5" y="-399.5" font-family="Helvetica,sans-Serif" font-size="10.00">Menu::show_menu</text>
</a>
</g>
</g>
<!-- Node1&#45;&gt;Node33 -->
<g id="edge35" class="edge">
<title>Node1&#45;&gt;Node33</title>
<path fill="none" stroke="midnightblue" d="M98.25,-444.92C150.45,-436.18 233.91,-422.2 291.31,-412.58"/>
<polygon fill="midnightblue" stroke="midnightblue" points="292.08,-416 301.36,-410.9 290.92,-409.1 292.08,-416"/>
</g>
<!-- Node34 -->
<g id="node34" class="node">
<title>Node34</title>
<g id="a_node34"><a xlink:href="class_menu.html#acd338552222b744cd030e17776cb5d9b" target="_top" xlink:title="Obsluguje wybor menu.">
<polygon fill="none" stroke="black" points="134,-240.5 134,-259.5 248,-259.5 248,-240.5 134,-240.5"/>
<text text-anchor="middle" x="191" y="-247.5" font-family="Helvetica,sans-Serif" font-size="10.00">Menu::switch_menu</text>
</a>
</g>
</g>
<!-- Node1&#45;&gt;Node34 -->
<g id="edge36" class="edge">
<title>Node1&#45;&gt;Node34</title>
<path fill="none" stroke="midnightblue" d="M56.56,-443.48C78.38,-411.85 148.68,-309.92 177.5,-268.13"/>
<polygon fill="midnightblue" stroke="midnightblue" points="180.49,-269.95 183.29,-259.73 174.73,-265.98 180.49,-269.95"/>
</g>
<!-- Node4 -->
<g id="node4" class="node">
<title>Node4</title>
<g id="a_node4"><a xlink:href="class_scene.html#a15f741d7de1a9662c49f72d663d90b23" target="_top" xlink:title="Metoda dodajaca podstawowe elementy do listy objects.">
<polygon fill="none" stroke="black" points="285,-430.5 285,-449.5 426,-449.5 426,-430.5 285,-430.5"/>
<text text-anchor="middle" x="355.5" y="-437.5" font-family="Helvetica,sans-Serif" font-size="10.00">Scene::add_basic_objects</text>
</a>
</g>
</g>
<!-- Node3&#45;&gt;Node4 -->
<g id="edge3" class="edge">
<title>Node3&#45;&gt;Node4</title>
<path fill="none" stroke="midnightblue" d="M194.69,-611.31C202.96,-583.31 230.76,-501.67 284,-460 286.98,-457.67 290.22,-455.61 293.62,-453.79"/>
<polygon fill="midnightblue" stroke="midnightblue" points="295.3,-456.87 302.92,-449.51 292.37,-450.51 295.3,-456.87"/>
</g>
<!-- Node7 -->
<g id="node7" class="node">
<title>Node7</title>
<g id="a_node7"><a xlink:href="class_pz_g_1_1_lacze_do_g_n_u_plota.html#aa815ce8ec16e12fc246cf422e562869e" target="_top" xlink:title="Dodaje nazwę pliku.">
<polygon fill="none" stroke="black" points="486,-753 486,-783 616,-783 616,-753 486,-753"/>
<text text-anchor="start" x="494" y="-771" font-family="Helvetica,sans-Serif" font-size="10.00">PzG::LaczeDoGNUPlota</text>
<text text-anchor="middle" x="551" y="-760" font-family="Helvetica,sans-Serif" font-size="10.00">::DodajNazwePliku</text>
</a>
</g>
</g>
<!-- Node3&#45;&gt;Node7 -->
<g id="edge6" class="edge">
<title>Node3&#45;&gt;Node7</title>
<path fill="none" stroke="midnightblue" d="M234.23,-630.52C239.3,-632.99 244.07,-636.09 248,-640 282.69,-674.48 245.47,-713.87 284,-744 312.83,-766.55 407.29,-770.42 475.45,-770.06"/>
<polygon fill="midnightblue" stroke="midnightblue" points="475.76,-773.56 485.73,-769.98 475.7,-766.56 475.76,-773.56"/>
</g>
<!-- Node9 -->
<g id="node9" class="node">
<title>Node9</title>
<g id="a_node9"><a xlink:href="class_scene.html#a3df6df98446d73c08274275ae036d4ad" target="_top" xlink:title="Metoda inicjujaca liste objects, dodajaca drony do listy.">
<polygon fill="none" stroke="black" points="301.5,-518.5 301.5,-537.5 409.5,-537.5 409.5,-518.5 301.5,-518.5"/>
<text text-anchor="middle" x="355.5" y="-525.5" font-family="Helvetica,sans-Serif" font-size="10.00">Scene::init_objects</text>
</a>
</g>
</g>
<!-- Node3&#45;&gt;Node9 -->
<g id="edge8" class="edge">
<title>Node3&#45;&gt;Node9</title>
<path fill="none" stroke="midnightblue" d="M201.3,-611.49C216.98,-596 250.25,-565.3 284,-548 289.29,-545.29 295.01,-542.9 300.81,-540.8"/>
<polygon fill="midnightblue" stroke="midnightblue" points="302.21,-544.03 310.6,-537.56 300.01,-537.38 302.21,-544.03"/>
</g>
<!-- Node10 -->
<g id="node10" class="node">
<title>Node10</title>
<g id="a_node10"><a xlink:href="class_scene.html#ae8b7b8c6dc0f947c4da9ba6379519410" target="_top" xlink:title="Metoda iterujaca po kolejnych polach listy objects, zcyztujaca nazwy plikow i podajaca je do gnuplota...">
<polygon fill="none" stroke="black" points="300,-830 300,-860 411,-860 411,-830 300,-830"/>
<text text-anchor="start" x="308" y="-848" font-family="Helvetica,sans-Serif" font-size="10.00">Scene::iterate_over</text>
<text text-anchor="middle" x="355.5" y="-837" font-family="Helvetica,sans-Serif" font-size="10.00">_objects</text>
</a>
</g>
</g>
<!-- Node3&#45;&gt;Node10 -->
<g id="edge9" class="edge">
<title>Node3&#45;&gt;Node10</title>
<path fill="none" stroke="midnightblue" d="M235.85,-630.62C240.41,-633.07 244.61,-636.14 248,-640 301.83,-701.31 230.59,-758.33 284,-820 286.21,-822.55 288.7,-824.84 291.39,-826.9"/>
<polygon fill="midnightblue" stroke="midnightblue" points="289.66,-829.95 299.97,-832.4 293.44,-824.06 289.66,-829.95"/>
</g>
<!-- Node12 -->
<g id="node12" class="node">
<title>Node12</title>
<g id="a_node12"><a xlink:href="class_plane.html#a81d5efe26f20d8939f6e32f5f288bed9" target="_top" xlink:title="Metoda tworzy plaszczyzne z podanych zakresow.">
<polygon fill="none" stroke="black" points="301,-791.5 301,-810.5 410,-810.5 410,-791.5 301,-791.5"/>
<text text-anchor="middle" x="355.5" y="-798.5" font-family="Helvetica,sans-Serif" font-size="10.00">Plane::make_plane</text>
</a>
</g>
</g>
<!-- Node3&#45;&gt;Node12 -->
<g id="edge12" class="edge">
<title>Node3&#45;&gt;Node12</title>
<path fill="none" stroke="midnightblue" d="M235.07,-630.53C239.89,-632.99 244.36,-636.1 248,-640 290.93,-686.05 241.1,-730.93 284,-777 287.6,-780.86 291.84,-784.1 296.43,-786.82"/>
<polygon fill="midnightblue" stroke="midnightblue" points="295.11,-790.07 305.61,-791.44 298.25,-783.82 295.11,-790.07"/>
</g>
<!-- Node3&#45;&gt;Node13 -->
<g id="edge13" class="edge">
<title>Node3&#45;&gt;Node13</title>
<path fill="none" stroke="midnightblue" d="M197.37,-611.42C209.83,-590.01 242.81,-537.91 284,-509 286.71,-507.1 289.58,-505.33 292.55,-503.68"/>
<polygon fill="midnightblue" stroke="midnightblue" points="294.33,-506.7 301.71,-499.1 291.2,-500.44 294.33,-506.7"/>
</g>
<!-- Node20 -->
<g id="node20" class="node">
<title>Node20</title>
<g id="a_node20"><a xlink:href="class_drone.html#a63898ba4cc161710cf08f7b578f3d90f" target="_top" xlink:title="Metoda ustawiajaca nazwy plikow w laczy do gnuplota (nazwy final!)">
<polygon fill="none" stroke="black" points="295.5,-879 295.5,-909 415.5,-909 415.5,-879 295.5,-879"/>
<text text-anchor="start" x="303.5" y="-897" font-family="Helvetica,sans-Serif" font-size="10.00">Drone::set_filenames</text>
<text text-anchor="middle" x="355.5" y="-886" font-family="Helvetica,sans-Serif" font-size="10.00">_gnuplot</text>
</a>
</g>
</g>
<!-- Node3&#45;&gt;Node20 -->
<g id="edge20" class="edge">
<title>Node3&#45;&gt;Node20</title>
<path fill="none" stroke="midnightblue" d="M236.28,-630.63C240.71,-633.08 244.76,-636.15 248,-640 314.61,-719.17 217.43,-790.8 284,-870 285.01,-871.21 286.09,-872.35 287.22,-873.44"/>
<polygon fill="midnightblue" stroke="midnightblue" points="285.37,-876.43 295.4,-879.82 289.67,-870.91 285.37,-876.43"/>
</g>
<!-- Node27 -->
<g id="node27" class="node">
<title>Node27</title>
<g id="a_node27"><a xlink:href="class_pz_g_1_1_lacze_do_g_n_u_plota.html#a9c91987dfc869d6fcea96205c581daef" target="_top" xlink:title="Ustawia zakres osi OX.">
<polygon fill="none" stroke="black" points="290.5,-704 290.5,-734 420.5,-734 420.5,-704 290.5,-704"/>
<text text-anchor="start" x="298.5" y="-722" font-family="Helvetica,sans-Serif" font-size="10.00">PzG::LaczeDoGNUPlota</text>
<text text-anchor="middle" x="355.5" y="-711" font-family="Helvetica,sans-Serif" font-size="10.00">::UstawZakresX</text>
</a>
</g>
</g>
<!-- Node3&#45;&gt;Node27 -->
<g id="edge28" class="edge">
<title>Node3&#45;&gt;Node27</title>
<path fill="none" stroke="midnightblue" d="M231.36,-630.6C237.28,-633.08 243.05,-636.16 248,-640 271.09,-657.89 260.91,-677.1 284,-695 285.78,-696.38 287.65,-697.69 289.59,-698.93"/>
<polygon fill="midnightblue" stroke="midnightblue" points="287.99,-702.04 298.42,-703.88 291.41,-695.94 287.99,-702.04"/>
</g>
<!-- Node28 -->
<g id="node28" class="node">
<title>Node28</title>
<g id="a_node28"><a xlink:href="class_pz_g_1_1_lacze_do_g_n_u_plota.html#a54c6e9cf9ab2eae479451fd953c2717c" target="_top" xlink:title="Ustawia zakres osi OY.">
<polygon fill="none" stroke="black" points="290.5,-655 290.5,-685 420.5,-685 420.5,-655 290.5,-655"/>
<text text-anchor="start" x="298.5" y="-673" font-family="Helvetica,sans-Serif" font-size="10.00">PzG::LaczeDoGNUPlota</text>
<text text-anchor="middle" x="355.5" y="-662" font-family="Helvetica,sans-Serif" font-size="10.00">::UstawZakresY</text>
</a>
</g>
</g>
<!-- Node3&#45;&gt;Node28 -->
<g id="edge29" class="edge">
<title>Node3&#45;&gt;Node28</title>
<path fill="none" stroke="midnightblue" d="M223.72,-630.56C243.93,-636.66 270.76,-644.75 294.85,-652.01"/>
<polygon fill="midnightblue" stroke="midnightblue" points="294.05,-655.43 304.63,-654.96 296.07,-648.73 294.05,-655.43"/>
</g>
<!-- Node29 -->
<g id="node29" class="node">
<title>Node29</title>
<g id="a_node29"><a xlink:href="class_pz_g_1_1_lacze_do_g_n_u_plota.html#a1dbbb2b86fb13b8632e6bad9df2a82e3" target="_top" xlink:title="Ustawia zakres osi OZ.">
<polygon fill="none" stroke="black" points="290.5,-606 290.5,-636 420.5,-636 420.5,-606 290.5,-606"/>
<text text-anchor="start" x="298.5" y="-624" font-family="Helvetica,sans-Serif" font-size="10.00">PzG::LaczeDoGNUPlota</text>
<text text-anchor="middle" x="355.5" y="-613" font-family="Helvetica,sans-Serif" font-size="10.00">::UstawZakresZ</text>
</a>
</g>
</g>
<!-- Node3&#45;&gt;Node29 -->
<g id="edge30" class="edge">
<title>Node3&#45;&gt;Node29</title>
<path fill="none" stroke="midnightblue" d="M246.11,-621C257.11,-621 268.85,-621 280.41,-621"/>
<polygon fill="midnightblue" stroke="midnightblue" points="280.48,-624.5 290.48,-621 280.48,-617.5 280.48,-624.5"/>
</g>
<!-- Node30 -->
<g id="node30" class="node">
<title>Node30</title>
<g id="a_node30"><a xlink:href="class_pz_g_1_1_lacze_do_g_n_u_plota.html#ae92c65357bf682478cc68f77885b61d8" target="_top" xlink:title="Zmienia tryb rysowania.">
<polygon fill="none" stroke="black" points="290.5,-557 290.5,-587 420.5,-587 420.5,-557 290.5,-557"/>
<text text-anchor="start" x="298.5" y="-575" font-family="Helvetica,sans-Serif" font-size="10.00">PzG::LaczeDoGNUPlota</text>
<text text-anchor="middle" x="355.5" y="-564" font-family="Helvetica,sans-Serif" font-size="10.00">::ZmienTrybRys</text>
</a>
</g>
</g>
<!-- Node3&#45;&gt;Node30 -->
<g id="edge31" class="edge">
<title>Node3&#45;&gt;Node30</title>
<path fill="none" stroke="midnightblue" d="M223.72,-611.44C243.93,-605.34 270.76,-597.25 294.85,-589.99"/>
<polygon fill="midnightblue" stroke="midnightblue" points="296.07,-593.27 304.63,-587.04 294.05,-586.57 296.07,-593.27"/>
</g>
<!-- Node5 -->
<g id="node5" class="node">
<title>Node5</title>
<g id="a_node5"><a xlink:href="class_scene.html#a16da566304f4ed4228fa89af25e330e5" target="_top" xlink:title="Metoda dodajaca prostopadloscian, ostroslup lub Triangular do listy objects.">
<polygon fill="none" stroke="black" points="485,-371 485,-401 617,-401 617,-371 485,-371"/>
<text text-anchor="start" x="493" y="-389" font-family="Helvetica,sans-Serif" font-size="10.00">Scene::add_object_type</text>
<text text-anchor="middle" x="551" y="-378" font-family="Helvetica,sans-Serif" font-size="10.00">_cuboid</text>
</a>
</g>
</g>
<!-- Node4&#45;&gt;Node5 -->
<g id="edge4" class="edge">
<title>Node4&#45;&gt;Node5</title>
<path fill="none" stroke="midnightblue" d="M392.39,-430.43C403.5,-427.44 415.76,-424.11 427,-421 446.86,-415.5 468.49,-409.39 487.99,-403.83"/>
<polygon fill="midnightblue" stroke="midnightblue" points="489.02,-407.17 497.68,-401.06 487.1,-400.44 489.02,-407.17"/>
</g>
<!-- Node6 -->
<g id="node6" class="node">
<title>Node6</title>
<g id="a_node6"><a xlink:href="class_scene.html#a684bec8db49b527c34a567e91259102e" target="_top" xlink:title="Metoda dodajaca obiekt pochodny z Prism do listy objects.">
<polygon fill="none" stroke="black" points="485,-420 485,-450 617,-450 617,-420 485,-420"/>
<text text-anchor="start" x="493" y="-438" font-family="Helvetica,sans-Serif" font-size="10.00">Scene::add_object_type</text>
<text text-anchor="middle" x="551" y="-427" font-family="Helvetica,sans-Serif" font-size="10.00">_prism</text>
</a>
</g>
</g>
<!-- Node4&#45;&gt;Node6 -->
<g id="edge5" class="edge">
<title>Node4&#45;&gt;Node6</title>
<path fill="none" stroke="midnightblue" d="M426.08,-438.2C441.82,-437.8 458.59,-437.36 474.55,-436.95"/>
<polygon fill="midnightblue" stroke="midnightblue" points="475,-440.44 484.9,-436.68 474.82,-433.44 475,-440.44"/>
</g>
<!-- Node8 -->
<g id="node8" class="node">
<title>Node8</title>
<g id="a_node8"><a xlink:href="namespace_pz_g.html#ae1aad0c681853d7e47da4cdfccefc102" target="_top" xlink:title="Funkcja pomocnicza, sprawdza czy plik o podanej nazwie jest na dysku.">
<polygon fill="none" stroke="black" points="702.5,-758.5 702.5,-777.5 797.5,-777.5 797.5,-758.5 702.5,-758.5"/>
<text text-anchor="middle" x="750" y="-765.5" font-family="Helvetica,sans-Serif" font-size="10.00">PzG::CzyJestPlik</text>
</a>
</g>
</g>
<!-- Node7&#45;&gt;Node8 -->
<g id="edge7" class="edge">
<title>Node7&#45;&gt;Node8</title>
<path fill="none" stroke="midnightblue" d="M616.23,-768C640.68,-768 668.36,-768 692.08,-768"/>
<polygon fill="midnightblue" stroke="midnightblue" points="692.33,-771.5 702.33,-768 692.33,-764.5 692.33,-771.5"/>
</g>
<!-- Node10&#45;&gt;Node7 -->
<g id="edge10" class="edge">
<title>Node10&#45;&gt;Node7</title>
<path fill="none" stroke="midnightblue" d="M402.89,-829.95C411.03,-826.91 419.34,-823.55 427,-820 443.8,-812.2 446.2,-806.81 463,-799 472.59,-794.54 483,-790.33 493.19,-786.52"/>
<polygon fill="midnightblue" stroke="midnightblue" points="494.65,-789.71 502.85,-783 492.26,-783.14 494.65,-789.71"/>
</g>
<!-- Node11 -->
<g id="node11" class="node">
<title>Node11</title>
<g id="a_node11"><a xlink:href="class_scene.html#afdc407539e8e1c50d5ccd93b9b60ed52" target="_top" xlink:title="Metoda sprawdzajaca i zwracajaca rozmiar listy objects.">
<polygon fill="none" stroke="black" points="484.5,-808.5 484.5,-827.5 617.5,-827.5 617.5,-808.5 484.5,-808.5"/>
<text text-anchor="middle" x="551" y="-815.5" font-family="Helvetica,sans-Serif" font-size="10.00">Scene::get_objects_size</text>
</a>
</g>
</g>
<!-- Node10&#45;&gt;Node11 -->
<g id="edge11" class="edge">
<title>Node10&#45;&gt;Node11</title>
<path fill="none" stroke="midnightblue" d="M411.17,-837.37C430.86,-834.62 453.42,-831.48 474.56,-828.53"/>
<polygon fill="midnightblue" stroke="midnightblue" points="475.06,-831.99 484.48,-827.14 474.09,-825.06 475.06,-831.99"/>
</g>
<!-- Node14 -->
<g id="node14" class="node">
<title>Node14</title>
<g id="a_node14"><a xlink:href="namespace_pz_g.html#aa010184f31b26bb561b42f22438b821e" target="_top" xlink:title="Funkcja pomocnicza, dopisuje do polecenia wpisy związane z rysowaniem z pliku.">
<polygon fill="none" stroke="black" points="468,-518.5 468,-537.5 634,-537.5 634,-518.5 468,-518.5"/>
<text text-anchor="middle" x="551" y="-525.5" font-family="Helvetica,sans-Serif" font-size="10.00">PzG::DopiszRysowanieZPlikow</text>
</a>
</g>
</g>
<!-- Node13&#45;&gt;Node14 -->
<g id="edge14" class="edge">
<title>Node13&#45;&gt;Node14</title>
<path fill="none" stroke="midnightblue" d="M419.82,-499.03C434.02,-502.36 449.02,-505.83 463,-509 473.62,-511.41 484.98,-513.93 495.88,-516.32"/>
<polygon fill="midnightblue" stroke="midnightblue" points="495.19,-519.75 505.71,-518.47 496.69,-512.91 495.19,-519.75"/>
</g>
<!-- Node15 -->
<g id="node15" class="node">
<title>Node15</title>
<g id="a_node15"><a xlink:href="namespace_pz_g.html#a7227cb39c785b1c746b6bb5515c0b781" target="_top" xlink:title="Dodaje do listy rysowanych punktów, punkty o różnych rozmiarach.">
<polygon fill="none" stroke="black" points="463,-469 463,-499 639,-499 639,-469 463,-469"/>
<text text-anchor="start" x="471" y="-487" font-family="Helvetica,sans-Serif" font-size="10.00">PzG::DopiszRysowanieZRoznych</text>
<text text-anchor="middle" x="551" y="-476" font-family="Helvetica,sans-Serif" font-size="10.00">Punktow</text>
</a>
</g>
</g>
<!-- Node13&#45;&gt;Node15 -->
<g id="edge15" class="edge">
<title>Node13&#45;&gt;Node15</title>
<path fill="none" stroke="midnightblue" d="M420.66,-484C431.02,-484 441.95,-484 452.88,-484"/>
<polygon fill="midnightblue" stroke="midnightblue" points="452.9,-487.5 462.9,-484 452.9,-480.5 452.9,-487.5"/>
</g>
<!-- Node16 -->
<g id="node16" class="node">
<title>Node16</title>
<g id="a_node16"><a xlink:href="namespace_pz_g.html#a169c311f0e0b6ffadcd44e91e749f72d" target="_top" xlink:title="Wczytuje z pliku listę punktów.">
<polygon fill="none" stroke="black" points="677.5,-469 677.5,-499 822.5,-499 822.5,-469 677.5,-469"/>
<text text-anchor="start" x="685.5" y="-487" font-family="Helvetica,sans-Serif" font-size="10.00">PzG::WczytajListeRoznych</text>
<text text-anchor="middle" x="750" y="-476" font-family="Helvetica,sans-Serif" font-size="10.00">Punktow</text>
</a>
</g>
</g>
<!-- Node15&#45;&gt;Node16 -->
<g id="edge16" class="edge">
<title>Node15&#45;&gt;Node16</title>
<path fill="none" stroke="midnightblue" d="M639.27,-484C648.54,-484 657.95,-484 667.15,-484"/>
<polygon fill="midnightblue" stroke="midnightblue" points="667.45,-487.5 677.45,-484 667.45,-480.5 667.45,-487.5"/>
</g>
<!-- Node17 -->
<g id="node17" class="node">
<title>Node17</title>
<g id="a_node17"><a xlink:href="class_pz_g_1_1_atrybuty_rysowania.html#ab068535b4d2f755c394557d1da72a4eb" target="_top" xlink:title="Zmienia kolor rysowania.">
<polygon fill="none" stroke="black" points="861,-518 861,-548 998,-548 998,-518 861,-518"/>
<text text-anchor="start" x="869" y="-536" font-family="Helvetica,sans-Serif" font-size="10.00">PzG::AtrybutyRysowania</text>
<text text-anchor="middle" x="929.5" y="-525" font-family="Helvetica,sans-Serif" font-size="10.00">::ZmienKolor</text>
</a>
</g>
</g>
<!-- Node16&#45;&gt;Node17 -->
<g id="edge17" class="edge">
<title>Node16&#45;&gt;Node17</title>
<path fill="none" stroke="midnightblue" d="M805.7,-499.1C824.18,-504.2 844.98,-509.94 864.13,-515.23"/>
<polygon fill="midnightblue" stroke="midnightblue" points="863.41,-518.66 873.98,-517.95 865.27,-511.91 863.41,-518.66"/>
</g>
<!-- Node18 -->
<g id="node18" class="node">
<title>Node18</title>
<g id="a_node18"><a xlink:href="class_pz_g_1_1_atrybuty_rysowania.html#af4b140eb03bc10b6fd816fad63f8372e" target="_top" xlink:title="Zmienia rozmiar rysowania.">
<polygon fill="none" stroke="black" points="861,-469 861,-499 998,-499 998,-469 861,-469"/>
<text text-anchor="start" x="869" y="-487" font-family="Helvetica,sans-Serif" font-size="10.00">PzG::AtrybutyRysowania</text>
<text text-anchor="middle" x="929.5" y="-476" font-family="Helvetica,sans-Serif" font-size="10.00">::ZmienRozmiar</text>
</a>
</g>
</g>
<!-- Node16&#45;&gt;Node18 -->
<g id="edge18" class="edge">
<title>Node16&#45;&gt;Node18</title>
<path fill="none" stroke="midnightblue" d="M822.68,-484C831.94,-484 841.45,-484 850.8,-484"/>
<polygon fill="midnightblue" stroke="midnightblue" points="850.86,-487.5 860.86,-484 850.86,-480.5 850.86,-487.5"/>
</g>
<!-- Node19 -->
<g id="node19" class="node">
<title>Node19</title>
<g id="a_node19"><a xlink:href="class_pz_g_1_1_atrybuty_rysowania.html#a2ac97706124b14072715ecf3f07e82b4" target="_top" xlink:title="Zmienia styl rysowania.">
<polygon fill="none" stroke="black" points="861,-420 861,-450 998,-450 998,-420 861,-420"/>
<text text-anchor="start" x="869" y="-438" font-family="Helvetica,sans-Serif" font-size="10.00">PzG::AtrybutyRysowania</text>
<text text-anchor="middle" x="929.5" y="-427" font-family="Helvetica,sans-Serif" font-size="10.00">::ZmienStyl</text>
</a>
</g>
</g>
<!-- Node16&#45;&gt;Node19 -->
<g id="edge19" class="edge">
<title>Node16&#45;&gt;Node19</title>
<path fill="none" stroke="midnightblue" d="M805.7,-468.9C824.18,-463.8 844.98,-458.06 864.13,-452.77"/>
<polygon fill="midnightblue" stroke="midnightblue" points="865.27,-456.09 873.98,-450.05 863.41,-449.34 865.27,-456.09"/>
</g>
<!-- Node20&#45;&gt;Node7 -->
<g id="edge23" class="edge">
<title>Node20&#45;&gt;Node7</title>
<path fill="none" stroke="midnightblue" d="M414.03,-878.81C418.69,-876.31 423.09,-873.39 427,-870 453.72,-846.81 436.45,-822.38 463,-799 468.01,-794.59 473.7,-790.79 479.7,-787.52"/>
<polygon fill="midnightblue" stroke="midnightblue" points="481.26,-790.66 488.69,-783.11 478.17,-784.37 481.26,-790.66"/>
</g>
<!-- Node21 -->
<g id="node21" class="node">
<title>Node21</title>
<g id="a_node21"><a xlink:href="class_cuboid.html#abc62d20a2f1418af1c35e369da77f0fc" target="_top" xlink:title=" ">
<polygon fill="none" stroke="black" points="487,-846.5 487,-865.5 615,-865.5 615,-846.5 487,-846.5"/>
<text text-anchor="middle" x="551" y="-853.5" font-family="Helvetica,sans-Serif" font-size="10.00">Cuboid::Cuboid_To_File</text>
</a>
</g>
</g>
<!-- Node20&#45;&gt;Node21 -->
<g id="edge21" class="edge">
<title>Node20&#45;&gt;Node21</title>
<path fill="none" stroke="midnightblue" d="M415.61,-882.39C439.63,-877.68 467.32,-872.24 491.3,-867.53"/>
<polygon fill="midnightblue" stroke="midnightblue" points="492.19,-870.92 501.32,-865.56 490.84,-864.05 492.19,-870.92"/>
</g>
<!-- Node23 -->
<g id="node23" class="node">
<title>Node23</title>
<g id="a_node23"><a xlink:href="class_block.html#aeef4dd3716afaea42688a4f96456ce27" target="_top" xlink:title="Metoda zwracajaca nazwe pliku z finalna (robocza) bryla">
<polygon fill="none" stroke="black" points="488.5,-960.5 488.5,-979.5 613.5,-979.5 613.5,-960.5 488.5,-960.5"/>
<text text-anchor="middle" x="551" y="-967.5" font-family="Helvetica,sans-Serif" font-size="10.00">Block::get_final_name</text>
</a>
</g>
</g>
<!-- Node20&#45;&gt;Node23 -->
<g id="edge24" class="edge">
<title>Node20&#45;&gt;Node23</title>
<path fill="none" stroke="midnightblue" d="M380.14,-909.12C401.15,-921.95 433.09,-939.97 463,-951 470.06,-953.6 477.58,-955.9 485.13,-957.92"/>
<polygon fill="midnightblue" stroke="midnightblue" points="484.49,-961.37 495.04,-960.41 486.19,-954.58 484.49,-961.37"/>
</g>
<!-- Node24 -->
<g id="node24" class="node">
<title>Node24</title>
<g id="a_node24"><a xlink:href="class_block.html#aed17e0cb13b8eea50fe735ba05204da9" target="_top" xlink:title="Metoda zwracajaca nazwe pliku z wzorcowa bryla">
<polygon fill="none" stroke="black" points="481,-922.5 481,-941.5 621,-941.5 621,-922.5 481,-922.5"/>
<text text-anchor="middle" x="551" y="-929.5" font-family="Helvetica,sans-Serif" font-size="10.00">Block::get_sample_name</text>
</a>
</g>
</g>
<!-- Node20&#45;&gt;Node24 -->
<g id="edge25" class="edge">
<title>Node20&#45;&gt;Node24</title>
<path fill="none" stroke="midnightblue" d="M415.61,-905.61C439.63,-910.32 467.32,-915.76 491.3,-920.47"/>
<polygon fill="midnightblue" stroke="midnightblue" points="490.84,-923.95 501.32,-922.44 492.19,-917.08 490.84,-923.95"/>
</g>
<!-- Node25 -->
<g id="node25" class="node">
<title>Node25</title>
<g id="a_node25"><a xlink:href="class_prism.html#a2de0dab6d117fc3c8dcbc3c384d0fccd" target="_top" xlink:title=" ">
<polygon fill="none" stroke="black" points="493,-884.5 493,-903.5 609,-903.5 609,-884.5 493,-884.5"/>
<text text-anchor="middle" x="551" y="-891.5" font-family="Helvetica,sans-Serif" font-size="10.00">Prism::Prism_To_File</text>
</a>
</g>
</g>
<!-- Node20&#45;&gt;Node25 -->
<g id="edge26" class="edge">
<title>Node20&#45;&gt;Node25</title>
<path fill="none" stroke="midnightblue" d="M415.61,-894C436.81,-894 460.87,-894 482.72,-894"/>
<polygon fill="midnightblue" stroke="midnightblue" points="482.91,-897.5 492.91,-894 482.91,-890.5 482.91,-897.5"/>
</g>
<!-- Node22 -->
<g id="node22" class="node">
<title>Node22</title>
<g id="a_node22"><a xlink:href="class_cuboid.html#a12a97376443b1a15ae8342c1c75b3e1e" target="_top" xlink:title="Metoda wypisania odpowiednich wierzcholkow do pliku zgodnie z zaproponowanym sposobem zadaniu dron">
<polygon fill="none" stroke="black" points="682.5,-846.5 682.5,-865.5 817.5,-865.5 817.5,-846.5 682.5,-846.5"/>
<text text-anchor="middle" x="750" y="-853.5" font-family="Helvetica,sans-Serif" font-size="10.00">Cuboid::print_cuboid_3D</text>
</a>
</g>
</g>
<!-- Node21&#45;&gt;Node22 -->
<g id="edge22" class="edge">
<title>Node21&#45;&gt;Node22</title>
<path fill="none" stroke="midnightblue" d="M615.14,-856C633.37,-856 653.45,-856 672.39,-856"/>
<polygon fill="midnightblue" stroke="midnightblue" points="672.48,-859.5 682.48,-856 672.48,-852.5 672.48,-859.5"/>
</g>
<!-- Node26 -->
<g id="node26" class="node">
<title>Node26</title>
<g id="a_node26"><a xlink:href="class_prism.html#a764c6940e4fb65303981e8b877b28561" target="_top" xlink:title="Metoda wypisania odpowiednich wierzcholkow do pliku zgodnie z zaproponowanym sposobem zadaniu dron">
<polygon fill="none" stroke="black" points="687.5,-884.5 687.5,-903.5 812.5,-903.5 812.5,-884.5 687.5,-884.5"/>
<text text-anchor="middle" x="750" y="-891.5" font-family="Helvetica,sans-Serif" font-size="10.00">Prism::print_prism_3D</text>
</a>
</g>
</g>
<!-- Node25&#45;&gt;Node26 -->
<g id="edge27" class="edge">
<title>Node25&#45;&gt;Node26</title>
<path fill="none" stroke="midnightblue" d="M609.25,-894C630.52,-894 654.94,-894 677.35,-894"/>
<polygon fill="midnightblue" stroke="midnightblue" points="677.48,-897.5 687.48,-894 677.48,-890.5 677.48,-897.5"/>
</g>
<!-- Node32 -->
<g id="node32" class="node">
<title>Node32</title>
<g id="a_node32"><a xlink:href="class_drone.html#a79011bebcf8fad3734f9710fa7c16df4" target="_top" xlink:title="Metoda wypisuje na standardowym wyjsciu pozycje drona (bez wysokosci)">
<polygon fill="none" stroke="black" points="486,-98.5 486,-117.5 616,-117.5 616,-98.5 486,-98.5"/>
<text text-anchor="middle" x="551" y="-105.5" font-family="Helvetica,sans-Serif" font-size="10.00">Drone::print_drone_pos</text>
</a>
</g>
</g>
<!-- Node31&#45;&gt;Node32 -->
<g id="edge33" class="edge">
<title>Node31&#45;&gt;Node32</title>
<path fill="none" stroke="midnightblue" d="M400.47,-19.61C409.43,-22.18 418.66,-25.3 427,-29 465.68,-46.14 506.14,-74.46 529.66,-92.13"/>
<polygon fill="midnightblue" stroke="midnightblue" points="527.73,-95.06 537.81,-98.33 531.97,-89.49 527.73,-95.06"/>
</g>
<!-- Node34&#45;&gt;Node13 -->
<g id="edge52" class="edge">
<title>Node34&#45;&gt;Node13</title>
<path fill="none" stroke="midnightblue" d="M193.52,-259.9C199.1,-293.01 221.54,-401 284,-459 285.7,-460.58 287.51,-462.06 289.4,-463.45"/>
<polygon fill="midnightblue" stroke="midnightblue" points="287.82,-466.59 298.15,-468.96 291.55,-460.67 287.82,-466.59"/>
</g>
<!-- Node34&#45;&gt;Node31 -->
<g id="edge49" class="edge">
<title>Node34&#45;&gt;Node31</title>
<path fill="none" stroke="midnightblue" d="M196.56,-240.36C206.39,-219.51 230.1,-168.55 248,-125 265.32,-82.85 250.28,-59.65 284,-29 286.32,-26.89 288.84,-25.02 291.52,-23.35"/>
<polygon fill="midnightblue" stroke="midnightblue" points="293.23,-26.4 300.48,-18.67 290,-20.19 293.23,-26.4"/>
</g>
<!-- Node34&#45;&gt;Node33 -->
<g id="edge54" class="edge">
<title>Node34&#45;&gt;Node33</title>
<path fill="none" stroke="midnightblue" d="M195.9,-259.78C206.27,-284.49 236.97,-349.82 284,-383 286.83,-385 289.86,-386.78 293.01,-388.38"/>
<polygon fill="midnightblue" stroke="midnightblue" points="291.61,-391.59 302.17,-392.41 294.43,-385.18 291.61,-391.59"/>
</g>
<!-- Node35 -->
<g id="node35" class="node">
<title>Node35</title>
<g id="a_node35"><a xlink:href="class_scene.html#a8b87eec51d554a3ac01767a613871661" target="_top" xlink:title="Metoda dodajaca object zadany przez uzytkownika.">
<polygon fill="none" stroke="black" points="303,-354.5 303,-373.5 408,-373.5 408,-354.5 303,-354.5"/>
<text text-anchor="middle" x="355.5" y="-361.5" font-family="Helvetica,sans-Serif" font-size="10.00">Scene::add_object</text>
</a>
</g>
</g>
<!-- Node34&#45;&gt;Node35 -->
<g id="edge37" class="edge">
<title>Node34&#45;&gt;Node35</title>
<path fill="none" stroke="midnightblue" d="M198.61,-259.74C212.24,-279.05 245.42,-322.28 284,-345 287.69,-347.17 291.63,-349.1 295.69,-350.81"/>
<polygon fill="midnightblue" stroke="midnightblue" points="294.73,-354.19 305.33,-354.43 297.19,-347.64 294.73,-354.19"/>
</g>
<!-- Node38 -->
<g id="node38" class="node">
<title>Node38</title>
<g id="a_node38"><a xlink:href="class_scene.html#a87ef7448b3e6e883460ba41ef590f24f" target="_top" xlink:title="Metoda pozwalajaca na wybor aktywnego drona.">
<polygon fill="none" stroke="black" points="296,-38.5 296,-57.5 415,-57.5 415,-38.5 296,-38.5"/>
<text text-anchor="middle" x="355.5" y="-45.5" font-family="Helvetica,sans-Serif" font-size="10.00">Scene::choose_drone</text>
</a>
</g>
</g>
<!-- Node34&#45;&gt;Node38 -->
<g id="edge43" class="edge">
<title>Node34&#45;&gt;Node38</title>
<path fill="none" stroke="midnightblue" d="M196.26,-240.41C212.31,-204.48 268.91,-79.3 284,-67 286.06,-65.32 288.26,-63.78 290.56,-62.38"/>
<polygon fill="midnightblue" stroke="midnightblue" points="292.54,-65.3 299.84,-57.63 289.35,-59.07 292.54,-65.3"/>
</g>
<!-- Node39 -->
<g id="node39" class="node">
<title>Node39</title>
<g id="a_node39"><a xlink:href="class_scene.html#aa86f467ff8da149dac89813f90b1ee18" target="_top" xlink:title="Metoda usuwajaca object zadany przez uzytkownika.">
<polygon fill="none" stroke="black" points="296.5,-240.5 296.5,-259.5 414.5,-259.5 414.5,-240.5 296.5,-240.5"/>
<text text-anchor="middle" x="355.5" y="-247.5" font-family="Helvetica,sans-Serif" font-size="10.00">Scene::delete_object</text>
</a>
</g>
</g>
<!-- Node34&#45;&gt;Node39 -->
<g id="edge44" class="edge">
<title>Node34&#45;&gt;Node39</title>
<path fill="none" stroke="midnightblue" d="M248.38,-250C260.6,-250 273.66,-250 286.28,-250"/>
<polygon fill="midnightblue" stroke="midnightblue" points="286.29,-253.5 296.29,-250 286.29,-246.5 286.29,-253.5"/>
</g>
<!-- Node42 -->
<g id="node42" class="node">
<title>Node42</title>
<g id="a_node42"><a xlink:href="class_scene.html#a5fb0b9741a75dec929b5ea5d6ac917a1" target="_top" xlink:title="Przelot aktywnego drona.">
<polygon fill="none" stroke="black" points="323.5,-316.5 323.5,-335.5 387.5,-335.5 387.5,-316.5 323.5,-316.5"/>
<text text-anchor="middle" x="355.5" y="-323.5" font-family="Helvetica,sans-Serif" font-size="10.00">Scene::fly</text>
</a>
</g>
</g>
<!-- Node34&#45;&gt;Node42 -->
<g id="edge47" class="edge">
<title>Node34&#45;&gt;Node42</title>
<path fill="none" stroke="midnightblue" d="M204.74,-259.58C221.92,-272.09 253.83,-293.92 284,-307 293.24,-311 303.53,-314.35 313.33,-317.06"/>
<polygon fill="midnightblue" stroke="midnightblue" points="312.74,-320.53 323.3,-319.66 314.51,-313.76 312.74,-320.53"/>
</g>
<!-- Node43 -->
<g id="node43" class="node">
<title>Node43</title>
<g id="a_node43"><a xlink:href="class_scene.html#a2a51a641e755111d4a0574ba721dddc3" target="_top" xlink:title="Przelot aktywnego drona.">
<polygon fill="none" stroke="black" points="293,-278.5 293,-297.5 418,-297.5 418,-278.5 293,-278.5"/>
<text text-anchor="middle" x="355.5" y="-285.5" font-family="Helvetica,sans-Serif" font-size="10.00">Scene::fly_roundabout</text>
</a>
</g>
</g>
<!-- Node34&#45;&gt;Node43 -->
<g id="edge48" class="edge">
<title>Node34&#45;&gt;Node43</title>
<path fill="none" stroke="midnightblue" d="M233.01,-259.59C254.55,-264.63 281.13,-270.84 303.94,-276.18"/>
<polygon fill="midnightblue" stroke="midnightblue" points="303.25,-279.61 313.79,-278.48 304.85,-272.79 303.25,-279.61"/>
</g>
<!-- Node44 -->
<g id="node44" class="node">
<title>Node44</title>
<g id="a_node44"><a xlink:href="class_scene.html#a9bb896991e516390c4464cdc92352d00" target="_top" xlink:title="Wypisuje polozenia dronow.">
<polygon fill="none" stroke="black" points="293.5,-202.5 293.5,-221.5 417.5,-221.5 417.5,-202.5 293.5,-202.5"/>
<text text-anchor="middle" x="355.5" y="-209.5" font-family="Helvetica,sans-Serif" font-size="10.00">Scene::print_positions</text>
</a>
</g>
</g>
<!-- Node34&#45;&gt;Node44 -->
<g id="edge50" class="edge">
<title>Node34&#45;&gt;Node44</title>
<path fill="none" stroke="midnightblue" d="M233.01,-240.41C254.55,-235.37 281.13,-229.16 303.94,-223.82"/>
<polygon fill="midnightblue" stroke="midnightblue" points="304.85,-227.21 313.79,-221.52 303.25,-220.39 304.85,-227.21"/>
</g>
<!-- Node45 -->
<g id="node45" class="node">
<title>Node45</title>
<g id="a_node45"><a xlink:href="class_scene.html#a841b39b0c07de89cf6b2a6fe059e5b2d" target="_top" xlink:title="Wyswietla aktywne elementy sceny wyboru obiektu.">
<polygon fill="none" stroke="black" points="291.5,-164.5 291.5,-183.5 419.5,-183.5 419.5,-164.5 291.5,-164.5"/>
<text text-anchor="middle" x="355.5" y="-171.5" font-family="Helvetica,sans-Serif" font-size="10.00">Scene::show_elements</text>
</a>
</g>
</g>
<!-- Node34&#45;&gt;Node45 -->
<g id="edge53" class="edge">
<title>Node34&#45;&gt;Node45</title>
<path fill="none" stroke="midnightblue" d="M204.74,-240.42C221.92,-227.91 253.83,-206.08 284,-193 289.44,-190.64 295.24,-188.51 301.1,-186.61"/>
<polygon fill="midnightblue" stroke="midnightblue" points="302.4,-189.87 310.94,-183.61 300.36,-183.17 302.4,-189.87"/>
</g>
<!-- Node46 -->
<g id="node46" class="node">
<title>Node46</title>
<g id="a_node46"><a xlink:href="class_menu.html#a022cc02d478e530e552a31198e96f4c6" target="_top" xlink:title="Wyswietla menu wyboru obiektu.">
<polygon fill="none" stroke="black" points="284,-126.5 284,-145.5 427,-145.5 427,-126.5 284,-126.5"/>
<text text-anchor="middle" x="355.5" y="-133.5" font-family="Helvetica,sans-Serif" font-size="10.00">Menu::show_object_menu</text>
</a>
</g>
</g>
<!-- Node34&#45;&gt;Node46 -->
<g id="edge55" class="edge">
<title>Node34&#45;&gt;Node46</title>
<path fill="none" stroke="midnightblue" d="M198.61,-240.26C212.24,-220.95 245.42,-177.72 284,-155 287.69,-152.83 291.63,-150.9 295.69,-149.19"/>
<polygon fill="midnightblue" stroke="midnightblue" points="297.19,-152.36 305.33,-145.57 294.73,-145.81 297.19,-152.36"/>
</g>
<!-- Node47 -->
<g id="node47" class="node">
<title>Node47</title>
<g id="a_node47"><a xlink:href="class_scene.html#a9bb026530396c432320078ed6c513eab" target="_top" xlink:title="Metoda zmieniajaca pozycje wybranego przez uzytkownika elementu sceny.">
<polygon fill="none" stroke="black" points="296,-77 296,-107 415,-107 415,-77 296,-77"/>
<text text-anchor="start" x="304" y="-95" font-family="Helvetica,sans-Serif" font-size="10.00">Scene::switch_object</text>
<text text-anchor="middle" x="355.5" y="-84" font-family="Helvetica,sans-Serif" font-size="10.00">_position</text>
</a>
</g>
</g>
<!-- Node34&#45;&gt;Node47 -->
<g id="edge56" class="edge">
<title>Node34&#45;&gt;Node47</title>
<path fill="none" stroke="midnightblue" d="M196.06,-240.43C206.79,-216.22 238.29,-151.98 284,-117 286.45,-115.13 289.05,-113.39 291.75,-111.77"/>
<polygon fill="midnightblue" stroke="midnightblue" points="293.49,-114.81 300.67,-107.02 290.2,-108.63 293.49,-114.81"/>
</g>
<!-- Node35&#45;&gt;Node5 -->
<g id="edge38" class="edge">
<title>Node35&#45;&gt;Node5</title>
<path fill="none" stroke="midnightblue" d="M408.1,-369.87C428.49,-372.18 452.33,-374.89 474.58,-377.42"/>
<polygon fill="midnightblue" stroke="midnightblue" points="474.34,-380.92 484.67,-378.57 475.13,-373.97 474.34,-380.92"/>
</g>
<!-- Node35&#45;&gt;Node6 -->
<g id="edge39" class="edge">
<title>Node35&#45;&gt;Node6</title>
<path fill="none" stroke="midnightblue" d="M402.61,-373.58C410.95,-376.11 419.4,-379.21 427,-383 445.14,-392.04 444.88,-401.91 463,-411 466.97,-412.99 471.12,-414.83 475.37,-416.54"/>
<polygon fill="midnightblue" stroke="midnightblue" points="474.21,-419.84 484.8,-420.06 476.65,-413.28 474.21,-419.84"/>
</g>
<!-- Node35&#45;&gt;Node7 -->
<g id="edge42" class="edge">
<title>Node35&#45;&gt;Node7</title>
<path fill="none" stroke="midnightblue" d="M408.32,-370.82C415.31,-373.66 421.84,-377.59 427,-383 478.51,-437 441.26,-475.61 463,-547 485.25,-620.09 520.87,-703.16 538.85,-743.47"/>
<polygon fill="midnightblue" stroke="midnightblue" points="535.73,-745.07 543.02,-752.76 542.12,-742.2 535.73,-745.07"/>
</g>
<!-- Node36 -->
<g id="node36" class="node">
<title>Node36</title>
<g id="a_node36"><a xlink:href="class_scene.html#a0e6e9771175c23c6ed78a493ed6d8e63" target="_top" xlink:title="Metoda tworzaca nazwy programow, uzywana przy dodawaniu obiektow sceny.">
<polygon fill="none" stroke="black" points="483,-332.5 483,-351.5 619,-351.5 619,-332.5 483,-332.5"/>
<text text-anchor="middle" x="551" y="-339.5" font-family="Helvetica,sans-Serif" font-size="10.00">Scene::create_filenames</text>
</a>
</g>
</g>
<!-- Node35&#45;&gt;Node36 -->
<g id="edge40" class="edge">
<title>Node35&#45;&gt;Node36</title>
<path fill="none" stroke="midnightblue" d="M408.1,-358.13C427.91,-355.88 450.98,-353.26 472.69,-350.79"/>
<polygon fill="midnightblue" stroke="midnightblue" points="473.34,-354.24 482.88,-349.63 472.55,-347.28 473.34,-354.24"/>
</g>
<!-- Node37 -->
<g id="node37" class="node">
<title>Node37</title>
<g id="a_node37"><a xlink:href="class_scene.html#a2724c6aee793b0deb0d58a990ab16832" target="_top" xlink:title="Metoda uzywana w switchu metody create_filenames. Sluzy do tworzenia pliku o odpowiedniej nazwie.">
<polygon fill="none" stroke="black" points="690.5,-327 690.5,-357 809.5,-357 809.5,-327 690.5,-327"/>
<text text-anchor="start" x="698.5" y="-345" font-family="Helvetica,sans-Serif" font-size="10.00">Scene::switch_create</text>
<text text-anchor="middle" x="750" y="-334" font-family="Helvetica,sans-Serif" font-size="10.00">_filenames</text>
</a>
</g>
</g>
<!-- Node36&#45;&gt;Node37 -->
<g id="edge41" class="edge">
<title>Node36&#45;&gt;Node37</title>
<path fill="none" stroke="midnightblue" d="M619.25,-342C638.89,-342 660.39,-342 680.14,-342"/>
<polygon fill="midnightblue" stroke="midnightblue" points="680.29,-345.5 690.29,-342 680.29,-338.5 680.29,-345.5"/>
</g>
<!-- Node40 -->
<g id="node40" class="node">
<title>Node40</title>
<g id="a_node40"><a xlink:href="class_pz_g_1_1_lacze_do_g_n_u_plota.html#a7fa4e775e1aee74869fae174c567c2a6" target="_top" xlink:title="Usuwa z listy nazw plików z danymi do rysowania usuwa wybraną nazwę.">
<polygon fill="none" stroke="black" points="486,-235 486,-265 616,-265 616,-235 486,-235"/>
<text text-anchor="start" x="494" y="-253" font-family="Helvetica,sans-Serif" font-size="10.00">PzG::LaczeDoGNUPlota</text>
<text text-anchor="middle" x="551" y="-242" font-family="Helvetica,sans-Serif" font-size="10.00">::UsunNazwePliku</text>
</a>
</g>
</g>
<!-- Node39&#45;&gt;Node40 -->
<g id="edge45" class="edge">
<title>Node39&#45;&gt;Node40</title>
<path fill="none" stroke="midnightblue" d="M414.56,-250C433.79,-250 455.47,-250 475.76,-250"/>
<polygon fill="midnightblue" stroke="midnightblue" points="475.9,-253.5 485.9,-250 475.9,-246.5 475.9,-253.5"/>
</g>
<!-- Node41 -->
<g id="node41" class="node">
<title>Node41</title>
<g id="a_node41"><a xlink:href="class_pz_g_1_1_info_pliku_do_rysowania.html#a714aaa4c8e7bbd167ccbb1e797ca158c" target="_top" xlink:title="Udostępia nazwę pliku do rysowania.">
<polygon fill="none" stroke="black" points="675,-235 675,-265 825,-265 825,-235 675,-235"/>
<text text-anchor="start" x="683" y="-253" font-family="Helvetica,sans-Serif" font-size="10.00">PzG::InfoPlikuDoRysowania</text>
<text text-anchor="middle" x="750" y="-242" font-family="Helvetica,sans-Serif" font-size="10.00">::WezNazwePliku</text>
</a>
</g>
</g>
<!-- Node40&#45;&gt;Node41 -->
<g id="edge46" class="edge">
<title>Node40&#45;&gt;Node41</title>
<path fill="none" stroke="midnightblue" d="M616.23,-250C631.76,-250 648.59,-250 664.88,-250"/>
<polygon fill="midnightblue" stroke="midnightblue" points="664.93,-253.5 674.93,-250 664.93,-246.5 664.93,-253.5"/>
</g>
<!-- Node44&#45;&gt;Node32 -->
<g id="edge51" class="edge">
<title>Node44&#45;&gt;Node32</title>
<path fill="none" stroke="midnightblue" d="M401.32,-202.39C410.03,-199.84 418.95,-196.73 427,-193 466.89,-174.52 507.83,-143.29 530.98,-124.26"/>
<polygon fill="midnightblue" stroke="midnightblue" points="533.5,-126.72 538.94,-117.62 529.02,-121.34 533.5,-126.72"/>
</g>
</g>
</svg>
