<?xml version="1.0" encoding="UTF-8" standalone="no"?>
<!DOCTYPE svg PUBLIC "-//W3C//DTD SVG 1.1//EN"
 "http://www.w3.org/Graphics/SVG/1.1/DTD/svg11.dtd">
<!-- Generated by graphviz version 2.43.0 (0)
 -->
<!-- Title: Tent::Tent Pages: 1 -->
<svg width="360pt" height="28pt"
 viewBox="0.00 0.00 360.00 28.00" xmlns="http://www.w3.org/2000/svg" xmlns:xlink="http://www.w3.org/1999/xlink">
<g id="graph0" class="graph" transform="scale(1 1) rotate(0) translate(4 24)">
<title>Tent::Tent</title>
<!-- Node1 -->
<g id="node1" class="node">
<title>Node1</title>
<g id="a_node1"><a xlink:title="Konstruktor bezparametryczny klasy Tent. Dolna podstawa jest identyczna jak w bezparametrycznym Prism...">
<polygon fill="#bfbfbf" stroke="black" points="0,-0.5 0,-19.5 63,-19.5 63,-0.5 0,-0.5"/>
<text text-anchor="middle" x="31.5" y="-7.5" font-family="Helvetica,sans-Serif" font-size="10.00">Tent::Tent</text>
</a>
</g>
</g>
<!-- Node2 -->
<g id="node2" class="node">
<title>Node2</title>
<g id="a_node2"><a xlink:href="class_tent.html#a048e58c462e4d7f069b2705308be29c1" target="_top" xlink:title="Metoda zwracajaca punkty specjalne Tent : cuts (jedna jest punktem przeciecia przekatnych dolnej pods...">
<polygon fill="none" stroke="black" points="99,-0.5 99,-19.5 212,-19.5 212,-0.5 99,-0.5"/>
<text text-anchor="middle" x="155.5" y="-7.5" font-family="Helvetica,sans-Serif" font-size="10.00">Tent::special_points</text>
</a>
</g>
</g>
<!-- Node1&#45;&gt;Node2 -->
<g id="edge1" class="edge">
<title>Node1&#45;&gt;Node2</title>
<path fill="none" stroke="midnightblue" d="M63.29,-10C71,-10 79.57,-10 88.29,-10"/>
<polygon fill="midnightblue" stroke="midnightblue" points="88.54,-13.5 98.54,-10 88.54,-6.5 88.54,-13.5"/>
</g>
<!-- Node3 -->
<g id="node3" class="node">
<title>Node3</title>
<g id="a_node3"><a xlink:href="class_tent.html#aad3cec7038a0f405b226417ccd2cf5f3" target="_top" xlink:title="Metoda zwracajaca punkt centralny Tent">
<polygon fill="none" stroke="black" points="248,-0.5 248,-19.5 352,-19.5 352,-0.5 248,-0.5"/>
<text text-anchor="middle" x="300" y="-7.5" font-family="Helvetica,sans-Serif" font-size="10.00">Tent::centre_point</text>
</a>
</g>
</g>
<!-- Node2&#45;&gt;Node3 -->
<g id="edge2" class="edge">
<title>Node2&#45;&gt;Node3</title>
<path fill="none" stroke="midnightblue" d="M212,-10C220.34,-10 228.97,-10 237.42,-10"/>
<polygon fill="midnightblue" stroke="midnightblue" points="237.61,-13.5 247.61,-10 237.61,-6.5 237.61,-13.5"/>
</g>
</g>
</svg>
