<?xml version="1.0" encoding="UTF-8" standalone="no"?>
<!DOCTYPE svg PUBLIC "-//W3C//DTD SVG 1.1//EN"
 "http://www.w3.org/Graphics/SVG/1.1/DTD/svg11.dtd">
<!-- Generated by graphviz version 2.43.0 (0)
 -->
<!-- Title: Volcano::Volcano Pages: 1 -->
<svg width="432pt" height="28pt"
 viewBox="0.00 0.00 432.00 28.00" xmlns="http://www.w3.org/2000/svg" xmlns:xlink="http://www.w3.org/1999/xlink">
<g id="graph0" class="graph" transform="scale(1 1) rotate(0) translate(4 24)">
<title>Volcano::Volcano</title>
<!-- Node1 -->
<g id="node1" class="node">
<title>Node1</title>
<g id="a_node1"><a xlink:title="Konstruktor bezparametryczny klasy Volcano. Dolna podstawa jest identyczna jak w bezparametrycznym Pr...">
<polygon fill="#bfbfbf" stroke="black" points="0,-0.5 0,-19.5 99,-19.5 99,-0.5 0,-0.5"/>
<text text-anchor="middle" x="49.5" y="-7.5" font-family="Helvetica,sans-Serif" font-size="10.00">Volcano::Volcano</text>
</a>
</g>
</g>
<!-- Node2 -->
<g id="node2" class="node">
<title>Node2</title>
<g id="a_node2"><a xlink:href="class_volcano.html#a6da2e3f5ecf61268b3bcf467d9f1267e" target="_top" xlink:title="Metoda zwracajaca punkty specjalne Volcano :">
<polygon fill="none" stroke="black" points="135,-0.5 135,-19.5 266,-19.5 266,-0.5 135,-0.5"/>
<text text-anchor="middle" x="200.5" y="-7.5" font-family="Helvetica,sans-Serif" font-size="10.00">Volcano::special_points</text>
</a>
</g>
</g>
<!-- Node1&#45;&gt;Node2 -->
<g id="edge1" class="edge">
<title>Node1&#45;&gt;Node2</title>
<path fill="none" stroke="midnightblue" d="M99.29,-10C107.46,-10 116.11,-10 124.76,-10"/>
<polygon fill="midnightblue" stroke="midnightblue" points="124.88,-13.5 134.88,-10 124.88,-6.5 124.88,-13.5"/>
</g>
<!-- Node3 -->
<g id="node3" class="node">
<title>Node3</title>
<g id="a_node3"><a xlink:href="class_volcano.html#ad4d02f553b43cb787cf2370750e0c525" target="_top" xlink:title="Metoda zwracajaca punkt centralny Volcano">
<polygon fill="none" stroke="black" points="302,-0.5 302,-19.5 424,-19.5 424,-0.5 302,-0.5"/>
<text text-anchor="middle" x="363" y="-7.5" font-family="Helvetica,sans-Serif" font-size="10.00">Volcano::centre_point</text>
</a>
</g>
</g>
<!-- Node2&#45;&gt;Node3 -->
<g id="edge2" class="edge">
<title>Node2&#45;&gt;Node3</title>
<path fill="none" stroke="midnightblue" d="M266.32,-10C274.67,-10 283.25,-10 291.68,-10"/>
<polygon fill="midnightblue" stroke="midnightblue" points="291.87,-13.5 301.87,-10 291.87,-6.5 291.87,-13.5"/>
</g>
</g>
</svg>
