<?xml version="1.0" encoding="UTF-8" standalone="no"?>
<!DOCTYPE svg PUBLIC "-//W3C//DTD SVG 1.1//EN"
 "http://www.w3.org/Graphics/SVG/1.1/DTD/svg11.dtd">
<!-- Generated by graphviz version 2.43.0 (0)
 -->
<!-- Title: Drone::translation_to_pos Pages: 1 -->
<svg width="605pt" height="339pt"
 viewBox="0.00 0.00 605.00 338.62" xmlns="http://www.w3.org/2000/svg" xmlns:xlink="http://www.w3.org/1999/xlink">
<g id="graph0" class="graph" transform="scale(1 1) rotate(0) translate(4 334.62)">
<title>Drone::translation_to_pos</title>
<!-- Node1 -->
<g id="node1" class="node">
<title>Node1</title>
<g id="a_node1"><a xlink:title="Metoda uzywana przy konstruowania drona przesuwa drona w ten sposob, ze Vector3D centre prostopadlosc...">
<polygon fill="#bfbfbf" stroke="black" points="493,-118 493,-148 597,-148 597,-118 493,-118"/>
<text text-anchor="start" x="501" y="-136" font-family="Helvetica,sans-Serif" font-size="10.00">Drone::translation</text>
<text text-anchor="middle" x="545" y="-125" font-family="Helvetica,sans-Serif" font-size="10.00">_to_pos</text>
</a>
</g>
</g>
<!-- Node2 -->
<g id="node2" class="node">
<title>Node2</title>
<g id="a_node2"><a xlink:href="class_drone.html#a7eecbd031df9009e113d355a9dcdf4e1" target="_top" xlink:title="Metoda obliczajaca i przeprowadzajaca caly ruch drona (obrot o kat i przelot z zadania 5....">
<polygon fill="none" stroke="black" points="4.5,-247 4.5,-277 116.5,-277 116.5,-247 4.5,-247"/>
<text text-anchor="start" x="12.5" y="-265" font-family="Helvetica,sans-Serif" font-size="10.00">Drone::Drone_basic</text>
<text text-anchor="middle" x="60.5" y="-254" font-family="Helvetica,sans-Serif" font-size="10.00">_motion_flight</text>
</a>
</g>
</g>
<!-- Node1&#45;&gt;Node2 -->
<g id="edge1" class="edge">
<title>Node1&#45;&gt;Node2</title>
<path fill="none" stroke="midnightblue" d="M530.1,-157.02C514.81,-181.74 488.21,-220.06 457,-245 396.42,-293.41 374.69,-302.15 299,-319 237.4,-332.71 217.84,-335.78 157,-319 127.59,-310.89 98.11,-291.08 79.84,-277.1"/>
<polygon fill="midnightblue" stroke="midnightblue" points="533.22,-158.63 535.4,-148.27 527.23,-155.01 533.22,-158.63"/>
</g>
<!-- Node3 -->
<g id="node3" class="node">
<title>Node3</title>
<g id="a_node3"><a xlink:href="class_drone.html#af03af60a9b92e4191a7e66b5c20b52bb" target="_top" xlink:title="Metoda zamieniajaca drona na tego z pliku sample.">
<polygon fill="none" stroke="black" points="335,-162 335,-192 457,-192 457,-162 335,-162"/>
<text text-anchor="start" x="343" y="-180" font-family="Helvetica,sans-Serif" font-size="10.00">Drone::Drone_change</text>
<text text-anchor="middle" x="396" y="-169" font-family="Helvetica,sans-Serif" font-size="10.00">_to_sample</text>
</a>
</g>
</g>
<!-- Node1&#45;&gt;Node3 -->
<g id="edge2" class="edge">
<title>Node1&#45;&gt;Node3</title>
<path fill="none" stroke="midnightblue" d="M484.18,-150.9C471.99,-154.55 459.28,-158.36 447.45,-161.9"/>
<polygon fill="midnightblue" stroke="midnightblue" points="485.25,-154.24 493.82,-148.02 483.24,-147.53 485.25,-154.24"/>
</g>
<!-- Node4 -->
<g id="node4" class="node">
<title>Node4</title>
<g id="a_node4"><a xlink:href="class_drone.html#a4abbed4a4cc52e5630f07f9129b46c5c" target="_top" xlink:title="Metoda realizujaca ladowanie drona.">
<polygon fill="none" stroke="black" points="165.5,-290.5 165.5,-309.5 290.5,-309.5 290.5,-290.5 165.5,-290.5"/>
<text text-anchor="middle" x="228" y="-297.5" font-family="Helvetica,sans-Serif" font-size="10.00">Drone::Drone_descent</text>
</a>
</g>
</g>
<!-- Node1&#45;&gt;Node4 -->
<g id="edge11" class="edge">
<title>Node1&#45;&gt;Node4</title>
<path fill="none" stroke="midnightblue" d="M519.96,-154.93C503.17,-169.51 479.76,-188.41 457,-202 389.3,-242.42 301.88,-275.13 257.53,-290.5"/>
<polygon fill="midnightblue" stroke="midnightblue" points="522.46,-157.4 527.65,-148.16 517.83,-152.15 522.46,-157.4"/>
</g>
<!-- Node5 -->
<g id="node5" class="node">
<title>Node5</title>
<g id="a_node5"><a xlink:href="class_drone.html#aec9abadf85777ab20e361d1389aab466" target="_top" xlink:title="Metoda obliczajaca i przeprowadzajaca koncowy ruch drona (obrot o kat i koncowy przelot z zadania 5....">
<polygon fill="none" stroke="black" points="0,-159 0,-189 121,-189 121,-159 0,-159"/>
<text text-anchor="start" x="8" y="-177" font-family="Helvetica,sans-Serif" font-size="10.00">Drone::Drone_motion</text>
<text text-anchor="middle" x="60.5" y="-166" font-family="Helvetica,sans-Serif" font-size="10.00">_after_update</text>
</a>
</g>
</g>
<!-- Node1&#45;&gt;Node5 -->
<g id="edge12" class="edge">
<title>Node1&#45;&gt;Node5</title>
<path fill="none" stroke="midnightblue" d="M507.39,-113.38C436.58,-78.27 277.25,-13.14 157,-67 114.73,-85.93 83.47,-133.84 69.54,-158.62"/>
<polygon fill="midnightblue" stroke="midnightblue" points="505.87,-116.54 516.38,-117.92 509.03,-110.29 505.87,-116.54"/>
</g>
<!-- Node7 -->
<g id="node7" class="node">
<title>Node7</title>
<g id="a_node7"><a xlink:href="class_drone.html#ab7808296cec81143dbddd7516340a371" target="_top" xlink:title="Metoda robiaca &quot;oblot&quot; drona wokol punktu (z modyfikacji)">
<polygon fill="none" stroke="black" points="157,-126.5 157,-145.5 299,-145.5 299,-126.5 157,-126.5"/>
<text text-anchor="middle" x="228" y="-133.5" font-family="Helvetica,sans-Serif" font-size="10.00">Drone::Drone_roundabout</text>
</a>
</g>
</g>
<!-- Node1&#45;&gt;Node7 -->
<g id="edge13" class="edge">
<title>Node1&#45;&gt;Node7</title>
<path fill="none" stroke="midnightblue" d="M482.48,-133.59C429.85,-134.09 354.09,-134.81 299.12,-135.33"/>
<polygon fill="midnightblue" stroke="midnightblue" points="482.72,-137.08 492.69,-133.49 482.66,-130.08 482.72,-137.08"/>
</g>
<!-- Node8 -->
<g id="node8" class="node">
<title>Node8</title>
<g id="a_node8"><a xlink:href="class_drone.html#a5fc9dd645ad3856b5d3c501c63c464e3" target="_top" xlink:title="Metoda animujaca translacje drona i wyrysowujaca calosc w gnuplocie.">
<polygon fill="none" stroke="black" points="158.5,-77 158.5,-107 297.5,-107 297.5,-77 158.5,-77"/>
<text text-anchor="start" x="166.5" y="-95" font-family="Helvetica,sans-Serif" font-size="10.00">Drone::Drone_translation</text>
<text text-anchor="middle" x="228" y="-84" font-family="Helvetica,sans-Serif" font-size="10.00">_animation</text>
</a>
</g>
</g>
<!-- Node1&#45;&gt;Node8 -->
<g id="edge14" class="edge">
<title>Node1&#45;&gt;Node8</title>
<path fill="none" stroke="midnightblue" d="M482.73,-125.02C429.62,-118.11 352.84,-108.12 297.67,-100.94"/>
<polygon fill="midnightblue" stroke="midnightblue" points="482.32,-128.5 492.69,-126.32 483.22,-121.56 482.32,-128.5"/>
</g>
<!-- Node9 -->
<g id="node9" class="node">
<title>Node9</title>
<g id="a_node9"><a xlink:href="class_scene.html#adca9214dccab3d77eed9d8af7db67f94" target="_top" xlink:title="Konstruktor paramereyczny klasy Scene.">
<polygon fill="none" stroke="black" points="355.5,-0.5 355.5,-19.5 436.5,-19.5 436.5,-0.5 355.5,-0.5"/>
<text text-anchor="middle" x="396" y="-7.5" font-family="Helvetica,sans-Serif" font-size="10.00">Scene::Scene</text>
</a>
</g>
</g>
<!-- Node1&#45;&gt;Node9 -->
<g id="edge15" class="edge">
<title>Node1&#45;&gt;Node9</title>
<path fill="none" stroke="midnightblue" d="M528.29,-109.47C512.52,-87.4 486.4,-54.77 457,-34 448.57,-28.04 438.45,-23.27 428.94,-19.6"/>
<polygon fill="midnightblue" stroke="midnightblue" points="525.6,-111.74 534.2,-117.93 531.34,-107.73 525.6,-111.74"/>
</g>
<!-- Node3&#45;&gt;Node2 -->
<g id="edge3" class="edge">
<title>Node3&#45;&gt;Node2</title>
<path fill="none" stroke="midnightblue" d="M371.03,-198.82C352.72,-214.08 326.11,-233.38 299,-243 239.36,-264.17 166.17,-266.82 116.94,-265.53"/>
<polygon fill="midnightblue" stroke="midnightblue" points="373.51,-201.31 378.83,-192.15 368.95,-195.99 373.51,-201.31"/>
</g>
<!-- Node3&#45;&gt;Node4 -->
<g id="edge4" class="edge">
<title>Node3&#45;&gt;Node4</title>
<path fill="none" stroke="midnightblue" d="M375.09,-199.89C352.33,-225.61 316.05,-265.18 299,-276 289.45,-282.06 278.2,-286.79 267.54,-290.39"/>
<polygon fill="midnightblue" stroke="midnightblue" points="377.98,-201.9 381.96,-192.08 372.72,-197.28 377.98,-201.9"/>
</g>
<!-- Node3&#45;&gt;Node5 -->
<g id="edge5" class="edge">
<title>Node3&#45;&gt;Node5</title>
<path fill="none" stroke="midnightblue" d="M324.77,-176.37C264.35,-175.82 178.12,-175.05 121.03,-174.54"/>
<polygon fill="midnightblue" stroke="midnightblue" points="324.96,-179.87 334.99,-176.46 325.02,-172.87 324.96,-179.87"/>
</g>
<!-- Node6 -->
<g id="node6" class="node">
<title>Node6</title>
<g id="a_node6"><a xlink:href="class_drone.html#af052f6bb793d1229b99b16b800b95b82" target="_top" xlink:title="Metoda animujaca obrot drona i wyrysowujaca calosc w gnuplocie.">
<polygon fill="none" stroke="black" points="165.5,-203 165.5,-233 290.5,-233 290.5,-203 165.5,-203"/>
<text text-anchor="start" x="173.5" y="-221" font-family="Helvetica,sans-Serif" font-size="10.00">Drone::Drone_rotation</text>
<text text-anchor="middle" x="228" y="-210" font-family="Helvetica,sans-Serif" font-size="10.00">_animation</text>
</a>
</g>
</g>
<!-- Node3&#45;&gt;Node6 -->
<g id="edge6" class="edge">
<title>Node3&#45;&gt;Node6</title>
<path fill="none" stroke="midnightblue" d="M324.58,-194.39C313.05,-197.24 301.19,-200.17 289.91,-202.96"/>
<polygon fill="midnightblue" stroke="midnightblue" points="325.73,-197.71 334.6,-191.92 324.05,-190.92 325.73,-197.71"/>
</g>
<!-- Node3&#45;&gt;Node7 -->
<g id="edge9" class="edge">
<title>Node3&#45;&gt;Node7</title>
<path fill="none" stroke="midnightblue" d="M324.83,-159.67C305.34,-154.86 284.89,-149.8 267.91,-145.61"/>
<polygon fill="midnightblue" stroke="midnightblue" points="324.05,-163.08 334.6,-162.08 325.73,-156.29 324.05,-163.08"/>
</g>
<!-- Node3&#45;&gt;Node8 -->
<g id="edge10" class="edge">
<title>Node3&#45;&gt;Node8</title>
<path fill="none" stroke="midnightblue" d="M365.36,-156.14C346.85,-143.72 322.21,-128.24 299,-117 291.57,-113.4 283.47,-110.04 275.52,-107.02"/>
<polygon fill="midnightblue" stroke="midnightblue" points="363.42,-159.06 373.66,-161.78 367.35,-153.27 363.42,-159.06"/>
</g>
<!-- Node6&#45;&gt;Node2 -->
<g id="edge7" class="edge">
<title>Node6&#45;&gt;Node2</title>
<path fill="none" stroke="midnightblue" d="M160.55,-235.67C145.97,-239.54 130.69,-243.6 116.62,-247.35"/>
<polygon fill="midnightblue" stroke="midnightblue" points="161.74,-238.97 170.51,-233.02 159.94,-232.21 161.74,-238.97"/>
</g>
<!-- Node6&#45;&gt;Node5 -->
<g id="edge8" class="edge">
<title>Node6&#45;&gt;Node5</title>
<path fill="none" stroke="midnightblue" d="M160.82,-200.41C146.65,-196.64 131.79,-192.69 118.02,-189.03"/>
<polygon fill="midnightblue" stroke="midnightblue" points="159.94,-203.79 170.51,-202.98 161.74,-197.03 159.94,-203.79"/>
</g>
</g>
</svg>
