<?xml version="1.0" encoding="UTF-8" standalone="no"?>
<!DOCTYPE svg PUBLIC "-//W3C//DTD SVG 1.1//EN"
 "http://www.w3.org/Graphics/SVG/1.1/DTD/svg11.dtd">
<!-- Generated by graphviz version 2.43.0 (0)
 -->
<!-- Title: Drone::Drone_descent Pages: 1 -->
<svg width="1025pt" height="669pt"
 viewBox="0.00 0.00 1025.00 668.50" xmlns="http://www.w3.org/2000/svg" xmlns:xlink="http://www.w3.org/1999/xlink">
<g id="graph0" class="graph" transform="scale(1 1) rotate(0) translate(4 664.5)">
<title>Drone::Drone_descent</title>
<!-- Node1 -->
<g id="node1" class="node">
<title>Node1</title>
<g id="a_node1"><a xlink:title="Metoda realizujaca ladowanie drona.">
<polygon fill="#bfbfbf" stroke="black" points="0,-272 0,-291 125,-291 125,-272 0,-272"/>
<text text-anchor="middle" x="62.5" y="-279" font-family="Helvetica,sans-Serif" font-size="10.00">Drone::Drone_descent</text>
</a>
</g>
</g>
<!-- Node2 -->
<g id="node2" class="node">
<title>Node2</title>
<g id="a_node2"><a xlink:href="class_drone.html#af03af60a9b92e4191a7e66b5c20b52bb" target="_top" xlink:title="Metoda zamieniajaca drona na tego z pliku sample.">
<polygon fill="none" stroke="black" points="168.5,-288.5 168.5,-318.5 290.5,-318.5 290.5,-288.5 168.5,-288.5"/>
<text text-anchor="start" x="176.5" y="-306.5" font-family="Helvetica,sans-Serif" font-size="10.00">Drone::Drone_change</text>
<text text-anchor="middle" x="229.5" y="-295.5" font-family="Helvetica,sans-Serif" font-size="10.00">_to_sample</text>
</a>
</g>
</g>
<!-- Node1&#45;&gt;Node2 -->
<g id="edge1" class="edge">
<title>Node1&#45;&gt;Node2</title>
<path fill="none" stroke="midnightblue" d="M125.41,-289.75C136.19,-291.19 147.47,-292.7 158.46,-294.16"/>
<polygon fill="midnightblue" stroke="midnightblue" points="158.06,-297.64 168.43,-295.49 158.98,-290.7 158.06,-297.64"/>
</g>
<!-- Node24 -->
<g id="node24" class="node">
<title>Node24</title>
<g id="a_node24"><a xlink:href="class_drone.html#a6662bd8203e8c9a0721c457b3612a7c1" target="_top" xlink:title="Metoda uzywana przy konstruowania drona przesuwa drona w ten sposob, ze Vector3D centre prostopadlosc...">
<polygon fill="none" stroke="black" points="370,-198.5 370,-228.5 474,-228.5 474,-198.5 370,-198.5"/>
<text text-anchor="start" x="378" y="-216.5" font-family="Helvetica,sans-Serif" font-size="10.00">Drone::translation</text>
<text text-anchor="middle" x="422" y="-205.5" font-family="Helvetica,sans-Serif" font-size="10.00">_to_pos</text>
</a>
</g>
</g>
<!-- Node1&#45;&gt;Node24 -->
<g id="edge55" class="edge">
<title>Node1&#45;&gt;Node24</title>
<path fill="none" stroke="midnightblue" d="M122.42,-271.92C169.92,-264.02 238.39,-252.25 298,-240.5 318.28,-236.5 340.35,-231.78 360.13,-227.41"/>
<polygon fill="midnightblue" stroke="midnightblue" points="360.93,-230.81 369.94,-225.22 359.41,-223.98 360.93,-230.81"/>
</g>
<!-- Node27 -->
<g id="node27" class="node">
<title>Node27</title>
<g id="a_node27"><a xlink:href="class_drone.html#ab06e550555b07d95a4e40b55f539e2bd" target="_top" xlink:title="Oczyszcza plik ze sciezka.">
<polygon fill="none" stroke="black" points="161,-212 161,-231 298,-231 298,-212 161,-212"/>
<text text-anchor="middle" x="229.5" y="-219" font-family="Helvetica,sans-Serif" font-size="10.00">Drone::Drone_path_clear</text>
</a>
</g>
</g>
<!-- Node1&#45;&gt;Node27 -->
<g id="edge38" class="edge">
<title>Node1&#45;&gt;Node27</title>
<path fill="none" stroke="midnightblue" d="M89.13,-271.94C108.78,-264.64 136.57,-254.35 161,-245.5 171,-241.88 181.85,-238 191.86,-234.44"/>
<polygon fill="midnightblue" stroke="midnightblue" points="193.29,-237.64 201.54,-231 190.94,-231.05 193.29,-237.64"/>
</g>
<!-- Node28 -->
<g id="node28" class="node">
<title>Node28</title>
<g id="a_node28"><a xlink:href="class_drone.html#aae0029f50083a01fe75c7d504c2fe5b9" target="_top" xlink:title="Metoda zapisujaca parametry drona do plikow (do plikow final kazdego z elementow)">
<polygon fill="none" stroke="black" points="364.5,-559.5 364.5,-589.5 479.5,-589.5 479.5,-559.5 364.5,-559.5"/>
<text text-anchor="start" x="372.5" y="-577.5" font-family="Helvetica,sans-Serif" font-size="10.00">Drone::Print_to_files</text>
<text text-anchor="middle" x="422" y="-566.5" font-family="Helvetica,sans-Serif" font-size="10.00">_drone</text>
</a>
</g>
</g>
<!-- Node1&#45;&gt;Node28 -->
<g id="edge39" class="edge">
<title>Node1&#45;&gt;Node28</title>
<path fill="none" stroke="midnightblue" d="M71.58,-291.14C87.64,-310.06 125.15,-352.93 161,-384.5 237.99,-452.29 338.18,-520.51 388.76,-553.72"/>
<polygon fill="midnightblue" stroke="midnightblue" points="387.04,-556.77 397.32,-559.31 390.87,-550.91 387.04,-556.77"/>
</g>
<!-- Node33 -->
<g id="node33" class="node">
<title>Node33</title>
<g id="a_node33"><a xlink:href="class_drone.html#aedb04b80609b22ff4eb4a957bc149a48" target="_top" xlink:title="Metoda animujaca obrot rotorow i zapisujaca to w plikach. Metoda sluzy jako metoda pomocnicza,...">
<polygon fill="none" stroke="black" points="166,-344.5 166,-374.5 293,-374.5 293,-344.5 166,-344.5"/>
<text text-anchor="start" x="174" y="-362.5" font-family="Helvetica,sans-Serif" font-size="10.00">Drone::Rotors_rotation</text>
<text text-anchor="middle" x="229.5" y="-351.5" font-family="Helvetica,sans-Serif" font-size="10.00">_animation</text>
</a>
</g>
</g>
<!-- Node1&#45;&gt;Node33 -->
<g id="edge45" class="edge">
<title>Node1&#45;&gt;Node33</title>
<path fill="none" stroke="midnightblue" d="M83.24,-291.15C102.9,-300.73 133.97,-315.78 161,-328.5 169.14,-332.33 177.85,-336.37 186.23,-340.23"/>
<polygon fill="midnightblue" stroke="midnightblue" points="184.94,-343.49 195.48,-344.49 187.86,-337.13 184.94,-343.49"/>
</g>
<!-- Node34 -->
<g id="node34" class="node">
<title>Node34</title>
<g id="a_node34"><a xlink:href="class_pz_g_1_1_lacze_do_g_n_u_plota.html#a065f5b8402737cc62b0ad4f66d028335" target="_top" xlink:title="Generuje polecenie rysowania i przesyła je do gnuplota.">
<polygon fill="none" stroke="black" points="164.5,-149.5 164.5,-179.5 294.5,-179.5 294.5,-149.5 164.5,-149.5"/>
<text text-anchor="start" x="172.5" y="-167.5" font-family="Helvetica,sans-Serif" font-size="10.00">PzG::LaczeDoGNUPlota</text>
<text text-anchor="middle" x="229.5" y="-156.5" font-family="Helvetica,sans-Serif" font-size="10.00">::Rysuj</text>
</a>
</g>
</g>
<!-- Node1&#45;&gt;Node34 -->
<g id="edge48" class="edge">
<title>Node1&#45;&gt;Node34</title>
<path fill="none" stroke="midnightblue" d="M74.15,-271.87C91.59,-256.32 127.66,-225.15 161,-202.5 170.28,-196.19 180.69,-189.96 190.49,-184.42"/>
<polygon fill="midnightblue" stroke="midnightblue" points="192.23,-187.46 199.28,-179.55 188.84,-181.34 192.23,-187.46"/>
</g>
<!-- Node3 -->
<g id="node3" class="node">
<title>Node3</title>
<g id="a_node3"><a xlink:href="class_drone.html#ada6f4e93f4a63cbe1d6fbebf329efe62" target="_top" xlink:title="Metoda wczytywania odpowiednich wierzcholkow z pliku wzorcowego zgodnie z zaproponowanym sposobem w z...">
<polygon fill="none" stroke="black" points="345.5,-445 345.5,-464 498.5,-464 498.5,-445 345.5,-445"/>
<text text-anchor="middle" x="422" y="-452" font-family="Helvetica,sans-Serif" font-size="10.00">Drone::Drone_From_Sample</text>
</a>
</g>
</g>
<!-- Node2&#45;&gt;Node3 -->
<g id="edge2" class="edge">
<title>Node2&#45;&gt;Node3</title>
<path fill="none" stroke="midnightblue" d="M267.78,-318.52C277.96,-323.32 288.72,-329.08 298,-335.5 341.7,-365.77 384.39,-411.85 406.14,-436.86"/>
<polygon fill="midnightblue" stroke="midnightblue" points="403.76,-439.46 412.93,-444.77 409.07,-434.9 403.76,-439.46"/>
</g>
<!-- Node12 -->
<g id="node12" class="node">
<title>Node12</title>
<g id="a_node12"><a xlink:href="class_drone.html#ad42bc54902df967b94717617aca1a974" target="_top" xlink:title="Metoda obracajaca dron o zadany kat w 3D wokol srodka figury">
<polygon fill="none" stroke="black" points="346,-300 346,-319 498,-319 498,-300 346,-300"/>
<text text-anchor="middle" x="422" y="-307" font-family="Helvetica,sans-Serif" font-size="10.00">Drone::rotation_around_cen</text>
</a>
</g>
</g>
<!-- Node2&#45;&gt;Node12 -->
<g id="edge19" class="edge">
<title>Node2&#45;&gt;Node12</title>
<path fill="none" stroke="midnightblue" d="M290.51,-305.39C304.78,-305.84 320.27,-306.33 335.44,-306.81"/>
<polygon fill="midnightblue" stroke="midnightblue" points="335.76,-310.32 345.86,-307.13 335.98,-303.32 335.76,-310.32"/>
</g>
<!-- Node22 -->
<g id="node22" class="node">
<title>Node22</title>
<g id="a_node22"><a xlink:href="class_drone.html#a55c483c4e4cf0ec91d5bda5448417f08" target="_top" xlink:title="Metoda ustawiajaca drone_pos">
<polygon fill="none" stroke="black" points="361,-253 361,-272 483,-272 483,-253 361,-253"/>
<text text-anchor="middle" x="422" y="-260" font-family="Helvetica,sans-Serif" font-size="10.00">Drone::set_drone_pos</text>
</a>
</g>
</g>
<!-- Node2&#45;&gt;Node22 -->
<g id="edge31" class="edge">
<title>Node2&#45;&gt;Node22</title>
<path fill="none" stroke="midnightblue" d="M290.51,-290.58C314.94,-285.33 342.97,-279.29 366.78,-274.17"/>
<polygon fill="midnightblue" stroke="midnightblue" points="367.66,-277.56 376.7,-272.04 366.18,-270.72 367.66,-277.56"/>
</g>
<!-- Node2&#45;&gt;Node24 -->
<g id="edge33" class="edge">
<title>Node2&#45;&gt;Node24</title>
<path fill="none" stroke="midnightblue" d="M269.29,-288.46C278.94,-284.13 289.07,-279.05 298,-273.5 315.68,-262.5 315.86,-253.73 334,-243.5 342.26,-238.84 351.37,-234.73 360.49,-231.16"/>
<polygon fill="midnightblue" stroke="midnightblue" points="361.81,-234.41 369.97,-227.64 359.37,-227.84 361.81,-234.41"/>
</g>
<!-- Node4 -->
<g id="node4" class="node">
<title>Node4</title>
<g id="a_node4"><a xlink:href="class_cuboid.html#a773f92fecdf9686b951cf5736c83f318" target="_top" xlink:title="Metoda wczytywania odpowiednich wierzcholkow z pliku wzorcowego zgodnie z zaproponowanym sposobem zad...">
<polygon fill="none" stroke="black" points="564,-439.5 564,-469.5 684,-469.5 684,-439.5 564,-439.5"/>
<text text-anchor="start" x="572" y="-457.5" font-family="Helvetica,sans-Serif" font-size="10.00">Cuboid::Cuboid_From</text>
<text text-anchor="middle" x="624" y="-446.5" font-family="Helvetica,sans-Serif" font-size="10.00">_Sample</text>
</a>
</g>
</g>
<!-- Node3&#45;&gt;Node4 -->
<g id="edge3" class="edge">
<title>Node3&#45;&gt;Node4</title>
<path fill="none" stroke="midnightblue" d="M498.61,-454.5C516.64,-454.5 535.8,-454.5 553.54,-454.5"/>
<polygon fill="midnightblue" stroke="midnightblue" points="553.8,-458 563.8,-454.5 553.8,-451 553.8,-458"/>
</g>
<!-- Node9 -->
<g id="node9" class="node">
<title>Node9</title>
<g id="a_node9"><a xlink:href="class_drone.html#addf8532ee98ca800a64a78f3808fce98" target="_top" xlink:title="Metoda zwracajaca nazwy plikow do zapisu dla drona.">
<polygon fill="none" stroke="black" points="563.5,-527 563.5,-546 684.5,-546 684.5,-527 563.5,-527"/>
<text text-anchor="middle" x="624" y="-534" font-family="Helvetica,sans-Serif" font-size="10.00">Drone::get_filenames</text>
</a>
</g>
</g>
<!-- Node3&#45;&gt;Node9 -->
<g id="edge8" class="edge">
<title>Node3&#45;&gt;Node9</title>
<path fill="none" stroke="midnightblue" d="M438.77,-464.09C461.66,-477.66 505.77,-502.47 546,-517.5 552.74,-520.02 559.93,-522.3 567.12,-524.34"/>
<polygon fill="midnightblue" stroke="midnightblue" points="566.3,-527.74 576.87,-526.96 568.12,-520.98 566.3,-527.74"/>
</g>
<!-- Node10 -->
<g id="node10" class="node">
<title>Node10</title>
<g id="a_node10"><a xlink:href="class_prism.html#a5e0a2234e9ebe3b51146c0ddc42e8b48" target="_top" xlink:title="Metoda wczytywania odpowiednich wierzcholkow z pliku wzorcowego zgodnie z zaproponowanym sposobem zad...">
<polygon fill="none" stroke="black" points="549,-489 549,-508 699,-508 699,-489 549,-489"/>
<text text-anchor="middle" x="624" y="-496" font-family="Helvetica,sans-Serif" font-size="10.00">Prism::Prism_From_Sample</text>
</a>
</g>
</g>
<!-- Node3&#45;&gt;Node10 -->
<g id="edge11" class="edge">
<title>Node3&#45;&gt;Node10</title>
<path fill="none" stroke="midnightblue" d="M466.4,-464.05C496.67,-470.71 537.26,-479.64 569.53,-486.74"/>
<polygon fill="midnightblue" stroke="midnightblue" points="569.17,-490.24 579.69,-488.97 570.67,-483.4 569.17,-490.24"/>
</g>
<!-- Node11 -->
<g id="node11" class="node">
<title>Node11</title>
<g id="a_node11"><a xlink:href="class_drone.html#add09c27034d4ff229cc22b58c443c0f4" target="_top" xlink:title="Metoda ustawiajaca nazwy plikow do zapisu dla drona.">
<polygon fill="none" stroke="black" points="558,-401 558,-420 690,-420 690,-401 558,-401"/>
<text text-anchor="middle" x="624" y="-408" font-family="Helvetica,sans-Serif" font-size="10.00">Drone::setup_filenames</text>
</a>
</g>
</g>
<!-- Node3&#45;&gt;Node11 -->
<g id="edge16" class="edge">
<title>Node3&#45;&gt;Node11</title>
<path fill="none" stroke="midnightblue" d="M466.4,-444.95C496.67,-438.29 537.26,-429.36 569.53,-422.26"/>
<polygon fill="midnightblue" stroke="midnightblue" points="570.67,-425.6 579.69,-420.03 569.17,-418.76 570.67,-425.6"/>
</g>
<!-- Node5 -->
<g id="node5" class="node">
<title>Node5</title>
<g id="a_node5"><a xlink:href="class_block.html#aeef4dd3716afaea42688a4f96456ce27" target="_top" xlink:title="Metoda zwracajaca nazwe pliku z finalna (robocza) bryla">
<polygon fill="none" stroke="black" points="745.5,-540 745.5,-559 870.5,-559 870.5,-540 745.5,-540"/>
<text text-anchor="middle" x="808" y="-547" font-family="Helvetica,sans-Serif" font-size="10.00">Block::get_final_name</text>
</a>
</g>
</g>
<!-- Node4&#45;&gt;Node5 -->
<g id="edge4" class="edge">
<title>Node4&#45;&gt;Node5</title>
<path fill="none" stroke="midnightblue" d="M684.14,-469.27C690.47,-472.12 696.57,-475.5 702,-479.5 724.34,-495.96 715.3,-514.55 738,-530.5 740.75,-532.43 743.68,-534.16 746.73,-535.72"/>
<polygon fill="midnightblue" stroke="midnightblue" points="745.61,-539.05 756.17,-539.88 748.43,-532.64 745.61,-539.05"/>
</g>
<!-- Node6 -->
<g id="node6" class="node">
<title>Node6</title>
<g id="a_node6"><a xlink:href="class_block.html#aed17e0cb13b8eea50fe735ba05204da9" target="_top" xlink:title="Metoda zwracajaca nazwe pliku z wzorcowa bryla">
<polygon fill="none" stroke="black" points="738,-502 738,-521 878,-521 878,-502 738,-502"/>
<text text-anchor="middle" x="808" y="-509" font-family="Helvetica,sans-Serif" font-size="10.00">Block::get_sample_name</text>
</a>
</g>
</g>
<!-- Node4&#45;&gt;Node6 -->
<g id="edge5" class="edge">
<title>Node4&#45;&gt;Node6</title>
<path fill="none" stroke="midnightblue" d="M672.32,-469.59C682.15,-472.81 692.43,-476.22 702,-479.5 718.09,-485.02 721.79,-487.35 738,-492.5 745.25,-494.8 752.97,-497.09 760.53,-499.24"/>
<polygon fill="midnightblue" stroke="midnightblue" points="759.75,-502.65 770.32,-501.97 761.63,-495.91 759.75,-502.65"/>
</g>
<!-- Node7 -->
<g id="node7" class="node">
<title>Node7</title>
<g id="a_node7"><a xlink:href="class_block.html#a640a910076d8b10533a9a80d740f8f03" target="_top" xlink:title="Metoda zapisujaca do klasy nazwe pliku z finalna (robocza) bryla">
<polygon fill="none" stroke="black" points="746,-426 746,-445 870,-445 870,-426 746,-426"/>
<text text-anchor="middle" x="808" y="-433" font-family="Helvetica,sans-Serif" font-size="10.00">Block::set_final_name</text>
</a>
</g>
</g>
<!-- Node4&#45;&gt;Node7 -->
<g id="edge6" class="edge">
<title>Node4&#45;&gt;Node7</title>
<path fill="none" stroke="midnightblue" d="M684.09,-448.33C700.42,-446.63 718.32,-444.76 735.29,-442.99"/>
<polygon fill="midnightblue" stroke="midnightblue" points="736.12,-446.42 745.71,-441.9 735.4,-439.46 736.12,-446.42"/>
</g>
<!-- Node8 -->
<g id="node8" class="node">
<title>Node8</title>
<g id="a_node8"><a xlink:href="class_block.html#acf20b290f1543e580ff1f2c6d98ff4c4" target="_top" xlink:title="Metoda zapisujaca do klasy nazwe pliku z wzorcowa bryla">
<polygon fill="none" stroke="black" points="738.5,-464 738.5,-483 877.5,-483 877.5,-464 738.5,-464"/>
<text text-anchor="middle" x="808" y="-471" font-family="Helvetica,sans-Serif" font-size="10.00">Block::set_sample_name</text>
</a>
</g>
</g>
<!-- Node4&#45;&gt;Node8 -->
<g id="edge7" class="edge">
<title>Node4&#45;&gt;Node8</title>
<path fill="none" stroke="midnightblue" d="M684.09,-460.67C698.17,-462.14 713.42,-463.73 728.24,-465.28"/>
<polygon fill="midnightblue" stroke="midnightblue" points="728.09,-468.78 738.4,-466.34 728.82,-461.82 728.09,-468.78"/>
</g>
<!-- Node9&#45;&gt;Node5 -->
<g id="edge9" class="edge">
<title>Node9&#45;&gt;Node5</title>
<path fill="none" stroke="midnightblue" d="M684.59,-540.76C700.73,-541.91 718.38,-543.17 735.11,-544.37"/>
<polygon fill="midnightblue" stroke="midnightblue" points="735.17,-547.88 745.4,-545.1 735.67,-540.9 735.17,-547.88"/>
</g>
<!-- Node9&#45;&gt;Node6 -->
<g id="edge10" class="edge">
<title>Node9&#45;&gt;Node6</title>
<path fill="none" stroke="midnightblue" d="M684.59,-528.31C698.41,-526.42 713.32,-524.37 727.83,-522.38"/>
<polygon fill="midnightblue" stroke="midnightblue" points="728.36,-525.84 737.79,-521.01 727.4,-518.9 728.36,-525.84"/>
</g>
<!-- Node10&#45;&gt;Node5 -->
<g id="edge12" class="edge">
<title>Node10&#45;&gt;Node5</title>
<path fill="none" stroke="midnightblue" d="M667.18,-508.06C678.55,-510.87 690.8,-514.11 702,-517.5 718.28,-522.43 721.79,-525.35 738,-530.5 745.25,-532.8 752.97,-535.09 760.53,-537.24"/>
<polygon fill="midnightblue" stroke="midnightblue" points="759.75,-540.65 770.32,-539.97 761.63,-533.91 759.75,-540.65"/>
</g>
<!-- Node10&#45;&gt;Node6 -->
<g id="edge13" class="edge">
<title>Node10&#45;&gt;Node6</title>
<path fill="none" stroke="midnightblue" d="M699.03,-503.79C708.42,-504.46 718.07,-505.15 727.54,-505.82"/>
<polygon fill="midnightblue" stroke="midnightblue" points="727.52,-509.33 737.74,-506.55 728.01,-502.35 727.52,-509.33"/>
</g>
<!-- Node10&#45;&gt;Node7 -->
<g id="edge14" class="edge">
<title>Node10&#45;&gt;Node7</title>
<path fill="none" stroke="midnightblue" d="M675.19,-488.94C684.31,-486.41 693.59,-483.3 702,-479.5 719.75,-471.48 720.36,-462.76 738,-454.5 742.99,-452.16 748.33,-450.06 753.74,-448.19"/>
<polygon fill="midnightblue" stroke="midnightblue" points="755.04,-451.45 763.5,-445.07 752.9,-444.78 755.04,-451.45"/>
</g>
<!-- Node10&#45;&gt;Node8 -->
<g id="edge15" class="edge">
<title>Node10&#45;&gt;Node8</title>
<path fill="none" stroke="midnightblue" d="M694.33,-488.98C705.51,-487.44 717.17,-485.84 728.55,-484.28"/>
<polygon fill="midnightblue" stroke="midnightblue" points="729.04,-487.74 738.47,-482.91 728.09,-480.81 729.04,-487.74"/>
</g>
<!-- Node11&#45;&gt;Node7 -->
<g id="edge17" class="edge">
<title>Node11&#45;&gt;Node7</title>
<path fill="none" stroke="midnightblue" d="M690.19,-419.45C704.94,-421.48 720.68,-423.64 735.67,-425.7"/>
<polygon fill="midnightblue" stroke="midnightblue" points="735.52,-429.21 745.91,-427.11 736.48,-422.28 735.52,-429.21"/>
</g>
<!-- Node11&#45;&gt;Node8 -->
<g id="edge18" class="edge">
<title>Node11&#45;&gt;Node8</title>
<path fill="none" stroke="midnightblue" d="M671.87,-420.01C682.02,-422.8 692.55,-426.27 702,-430.5 719.55,-438.36 720.51,-446.51 738,-454.5 743.09,-456.82 748.52,-458.92 754.01,-460.79"/>
<polygon fill="midnightblue" stroke="midnightblue" points="753.33,-464.24 763.92,-463.92 755.44,-457.57 753.33,-464.24"/>
</g>
<!-- Node13 -->
<g id="node13" class="node">
<title>Node13</title>
<g id="a_node13"><a xlink:href="class_prism.html#a22c5467db5d960bddbaf9a52f55c55cb" target="_top" xlink:title="Metoda obracajaca graniastoslup o zadany kat w 3D wokol srodka figury">
<polygon fill="none" stroke="black" points="549,-350 549,-369 699,-369 699,-350 549,-350"/>
<text text-anchor="middle" x="624" y="-357" font-family="Helvetica,sans-Serif" font-size="10.00">Prism::rotation_around_cen</text>
</a>
</g>
</g>
<!-- Node12&#45;&gt;Node13 -->
<g id="edge20" class="edge">
<title>Node12&#45;&gt;Node13</title>
<path fill="none" stroke="midnightblue" d="M460.67,-319.05C485.01,-325.2 517.37,-333.36 546,-340.5 555.12,-342.78 564.86,-345.19 574.23,-347.51"/>
<polygon fill="midnightblue" stroke="midnightblue" points="573.67,-350.97 584.21,-349.97 575.34,-344.17 573.67,-350.97"/>
</g>
<!-- Node16 -->
<g id="node16" class="node">
<title>Node16</title>
<g id="a_node16"><a xlink:href="class_cuboid.html#a6c697c2d9b36a14c43c7328876d5a1f0" target="_top" xlink:title="Metoda obracajaca prostopadloscian o zadany kat w 3D wokol srodka figury">
<polygon fill="none" stroke="black" points="546,-262 546,-281 702,-281 702,-262 546,-262"/>
<text text-anchor="middle" x="624" y="-269" font-family="Helvetica,sans-Serif" font-size="10.00">Cuboid::rotation_around_cen</text>
</a>
</g>
</g>
<!-- Node12&#45;&gt;Node16 -->
<g id="edge24" class="edge">
<title>Node12&#45;&gt;Node16</title>
<path fill="none" stroke="midnightblue" d="M473.21,-299.96C500.43,-294.79 534.26,-288.36 562.88,-282.92"/>
<polygon fill="midnightblue" stroke="midnightblue" points="563.6,-286.35 572.77,-281.04 562.29,-279.47 563.6,-286.35"/>
</g>
<!-- Node19 -->
<g id="node19" class="node">
<title>Node19</title>
<g id="a_node19"><a xlink:href="class_drone.html#aea963b77f42c204504542a3d9190d762" target="_top" xlink:title="Metoda uzywana przy konstruowania drona Ustawia rotory w ten sposob, ze srodek ich dolnej podstawy je...">
<polygon fill="none" stroke="black" points="566.5,-300.5 566.5,-330.5 681.5,-330.5 681.5,-300.5 566.5,-300.5"/>
<text text-anchor="start" x="574.5" y="-318.5" font-family="Helvetica,sans-Serif" font-size="10.00">Drone::set_rotors_in</text>
<text text-anchor="middle" x="624" y="-307.5" font-family="Helvetica,sans-Serif" font-size="10.00">_place</text>
</a>
</g>
</g>
<!-- Node12&#45;&gt;Node19 -->
<g id="edge27" class="edge">
<title>Node12&#45;&gt;Node19</title>
<path fill="none" stroke="midnightblue" d="M498.04,-311.75C517.12,-312.32 537.49,-312.93 556.14,-313.49"/>
<polygon fill="midnightblue" stroke="midnightblue" points="556.19,-317 566.29,-313.8 556.4,-310 556.19,-317"/>
</g>
<!-- Node14 -->
<g id="node14" class="node">
<title>Node14</title>
<g id="a_node14"><a xlink:href="class_prism.html#ade146d341c0468030f8c1258b7fe1041" target="_top" xlink:title="Metoda przesuwajaca graniastoslup o zadany wektor w 3D">
<polygon fill="none" stroke="black" points="914,-328 914,-347 1017,-347 1017,-328 914,-328"/>
<text text-anchor="middle" x="965.5" y="-335" font-family="Helvetica,sans-Serif" font-size="10.00">Prism::translation</text>
</a>
</g>
</g>
<!-- Node13&#45;&gt;Node14 -->
<g id="edge21" class="edge">
<title>Node13&#45;&gt;Node14</title>
<path fill="none" stroke="midnightblue" d="M662.37,-369.08C712.18,-380.33 802.8,-395.42 878,-378.5 900.36,-373.47 923.74,-361.96 940.54,-352.41"/>
<polygon fill="midnightblue" stroke="midnightblue" points="942.77,-355.16 949.62,-347.08 939.23,-349.12 942.77,-355.16"/>
</g>
<!-- Node15 -->
<g id="node15" class="node">
<title>Node15</title>
<g id="a_node15"><a xlink:href="class_prism.html#afed2c26932d5cb152fd620d2acbfbc3e" target="_top" xlink:title="Metoda przesuwajaca graniastoslup do srodka ukladu wspolrzednych (tak, ze srodek graniastoslupa pokry...">
<polygon fill="none" stroke="black" points="742.5,-350 742.5,-369 873.5,-369 873.5,-350 742.5,-350"/>
<text text-anchor="middle" x="808" y="-357" font-family="Helvetica,sans-Serif" font-size="10.00">Prism::translation_to_O</text>
</a>
</g>
</g>
<!-- Node13&#45;&gt;Node15 -->
<g id="edge22" class="edge">
<title>Node13&#45;&gt;Node15</title>
<path fill="none" stroke="midnightblue" d="M699.03,-359.5C710.03,-359.5 721.37,-359.5 732.38,-359.5"/>
<polygon fill="midnightblue" stroke="midnightblue" points="732.39,-363 742.39,-359.5 732.39,-356 732.39,-363"/>
</g>
<!-- Node15&#45;&gt;Node14 -->
<g id="edge23" class="edge">
<title>Node15&#45;&gt;Node14</title>
<path fill="none" stroke="midnightblue" d="M873.6,-350.36C883.5,-348.96 893.71,-347.52 903.53,-346.13"/>
<polygon fill="midnightblue" stroke="midnightblue" points="904.2,-349.57 913.61,-344.7 903.22,-342.64 904.2,-349.57"/>
</g>
<!-- Node17 -->
<g id="node17" class="node">
<title>Node17</title>
<g id="a_node17"><a xlink:href="class_cuboid.html#a3f6b1b9ea7de433af5b0d462d29f4272" target="_top" xlink:title="Metoda przesuwajaca prostopadloscian o zadany kat w 3D">
<polygon fill="none" stroke="black" points="753.5,-186 753.5,-205 862.5,-205 862.5,-186 753.5,-186"/>
<text text-anchor="middle" x="808" y="-193" font-family="Helvetica,sans-Serif" font-size="10.00">Cuboid::translation</text>
</a>
</g>
</g>
<!-- Node16&#45;&gt;Node17 -->
<g id="edge25" class="edge">
<title>Node16&#45;&gt;Node17</title>
<path fill="none" stroke="midnightblue" d="M680.36,-261.93C687.9,-259.47 695.34,-256.38 702,-252.5 722.11,-240.8 718.05,-226.47 738,-214.5 741.6,-212.34 745.44,-210.42 749.41,-208.72"/>
<polygon fill="midnightblue" stroke="midnightblue" points="750.75,-211.95 758.83,-205.11 748.24,-205.42 750.75,-211.95"/>
</g>
<!-- Node18 -->
<g id="node18" class="node">
<title>Node18</title>
<g id="a_node18"><a xlink:href="class_cuboid.html#a42bdce7c214e759cb6ea94d4f547a5b9" target="_top" xlink:title="Metoda przesuwajaca prostopadloscian do (0,0,0)">
<polygon fill="none" stroke="black" points="739.5,-224 739.5,-243 876.5,-243 876.5,-224 739.5,-224"/>
<text text-anchor="middle" x="808" y="-231" font-family="Helvetica,sans-Serif" font-size="10.00">Cuboid::translation_to_O</text>
</a>
</g>
</g>
<!-- Node16&#45;&gt;Node18 -->
<g id="edge26" class="edge">
<title>Node16&#45;&gt;Node18</title>
<path fill="none" stroke="midnightblue" d="M670.93,-261.91C695.38,-256.81 725.63,-250.49 751.4,-245.11"/>
<polygon fill="midnightblue" stroke="midnightblue" points="752.33,-248.49 761.4,-243.02 750.9,-241.64 752.33,-248.49"/>
</g>
<!-- Node20 -->
<g id="node20" class="node">
<title>Node20</title>
<g id="a_node20"><a xlink:href="class_cuboid.html#a99d30564d6129e6905c5333e04df9606" target="_top" xlink:title="Metoda zwracajaca wierzcholki prostopadloscianu do Vector3D">
<polygon fill="none" stroke="black" points="760.5,-262 760.5,-281 855.5,-281 855.5,-262 760.5,-262"/>
<text text-anchor="middle" x="808" y="-269" font-family="Helvetica,sans-Serif" font-size="10.00">Cuboid::get_cub</text>
</a>
</g>
</g>
<!-- Node19&#45;&gt;Node20 -->
<g id="edge28" class="edge">
<title>Node19&#45;&gt;Node20</title>
<path fill="none" stroke="midnightblue" d="M681.59,-301.82C705.97,-295.93 734.21,-289.1 757.71,-283.42"/>
<polygon fill="midnightblue" stroke="midnightblue" points="758.57,-286.81 767.47,-281.06 756.93,-280 758.57,-286.81"/>
</g>
<!-- Node21 -->
<g id="node21" class="node">
<title>Node21</title>
<g id="a_node21"><a xlink:href="class_prism.html#a4e2b0b9c37d6a53af869522a4bf364ac" target="_top" xlink:title="Metoda przesuwajaca graniastoslup o zadany wektor w 3D w taki sposob, ze srodek jego dolnej podstawy ...">
<polygon fill="none" stroke="black" points="756.5,-300.5 756.5,-330.5 859.5,-330.5 859.5,-300.5 756.5,-300.5"/>
<text text-anchor="start" x="764.5" y="-318.5" font-family="Helvetica,sans-Serif" font-size="10.00">Prism::translation</text>
<text text-anchor="middle" x="808" y="-307.5" font-family="Helvetica,sans-Serif" font-size="10.00">_of_lower_cen</text>
</a>
</g>
</g>
<!-- Node19&#45;&gt;Node21 -->
<g id="edge29" class="edge">
<title>Node19&#45;&gt;Node21</title>
<path fill="none" stroke="midnightblue" d="M681.59,-315.5C702.12,-315.5 725.4,-315.5 746.28,-315.5"/>
<polygon fill="midnightblue" stroke="midnightblue" points="746.31,-319 756.31,-315.5 746.31,-312 746.31,-319"/>
</g>
<!-- Node21&#45;&gt;Node14 -->
<g id="edge30" class="edge">
<title>Node21&#45;&gt;Node14</title>
<path fill="none" stroke="midnightblue" d="M859.92,-322.7C873.82,-324.67 889.02,-326.82 903.42,-328.86"/>
<polygon fill="midnightblue" stroke="midnightblue" points="903.34,-332.38 913.73,-330.32 904.32,-325.45 903.34,-332.38"/>
</g>
<!-- Node23 -->
<g id="node23" class="node">
<title>Node23</title>
<g id="a_node23"><a xlink:href="class_cuboid.html#a08fae08a1c8c70ada48ce3af46c82eee" target="_top" xlink:title="Metoda zwracajaca wysokosc prostopadloscianu">
<polygon fill="none" stroke="black" points="570,-224 570,-243 678,-243 678,-224 570,-224"/>
<text text-anchor="middle" x="624" y="-231" font-family="Helvetica,sans-Serif" font-size="10.00">Cuboid::get_height</text>
</a>
</g>
</g>
<!-- Node22&#45;&gt;Node23 -->
<g id="edge32" class="edge">
<title>Node22&#45;&gt;Node23</title>
<path fill="none" stroke="midnightblue" d="M483.01,-253.8C507.28,-250.28 535.31,-246.21 559.89,-242.65"/>
<polygon fill="midnightblue" stroke="midnightblue" points="560.44,-246.11 569.83,-241.21 559.43,-239.18 560.44,-246.11"/>
</g>
<!-- Node25 -->
<g id="node25" class="node">
<title>Node25</title>
<g id="a_node25"><a xlink:href="class_cuboid.html#aafa18740d9c98ca928395b9873a9c63d" target="_top" xlink:title="Metoda zwracajaca punkt centralny (czyli taki, ktorego odleglosci do kazdego wierzcholka sa rowne) pr...">
<polygon fill="none" stroke="black" points="565.5,-148 565.5,-167 682.5,-167 682.5,-148 565.5,-148"/>
<text text-anchor="middle" x="624" y="-155" font-family="Helvetica,sans-Serif" font-size="10.00">Cuboid::centre_point</text>
</a>
</g>
</g>
<!-- Node24&#45;&gt;Node25 -->
<g id="edge34" class="edge">
<title>Node24&#45;&gt;Node25</title>
<path fill="none" stroke="midnightblue" d="M471.03,-198.44C493.69,-191.49 521.16,-183.3 546,-176.5 554.59,-174.15 563.75,-171.78 572.65,-169.54"/>
<polygon fill="midnightblue" stroke="midnightblue" points="573.68,-172.89 582.54,-167.08 571.99,-166.1 573.68,-172.89"/>
</g>
<!-- Node26 -->
<g id="node26" class="node">
<title>Node26</title>
<g id="a_node26"><a xlink:href="class_drone.html#a9684cd7ce04b7e6191f3d6b3a745370b" target="_top" xlink:title="Przesuwa drona o zadany wektor w 3D">
<polygon fill="none" stroke="black" points="572,-186 572,-205 676,-205 676,-186 572,-186"/>
<text text-anchor="middle" x="624" y="-193" font-family="Helvetica,sans-Serif" font-size="10.00">Drone::translation</text>
</a>
</g>
</g>
<!-- Node24&#45;&gt;Node26 -->
<g id="edge35" class="edge">
<title>Node24&#45;&gt;Node26</title>
<path fill="none" stroke="midnightblue" d="M474.25,-208.89C500.94,-206.49 533.78,-203.53 561.8,-201.01"/>
<polygon fill="midnightblue" stroke="midnightblue" points="562.24,-204.48 571.89,-200.1 561.61,-197.51 562.24,-204.48"/>
</g>
<!-- Node26&#45;&gt;Node14 -->
<g id="edge36" class="edge">
<title>Node26&#45;&gt;Node14</title>
<path fill="none" stroke="midnightblue" d="M670.19,-185.99C733.34,-173.72 844.07,-156.21 878,-176.5 930.1,-207.65 952.63,-282.15 960.7,-317.81"/>
<polygon fill="midnightblue" stroke="midnightblue" points="957.34,-318.86 962.83,-327.93 964.19,-317.42 957.34,-318.86"/>
</g>
<!-- Node26&#45;&gt;Node17 -->
<g id="edge37" class="edge">
<title>Node26&#45;&gt;Node17</title>
<path fill="none" stroke="midnightblue" d="M676.18,-195.5C696.97,-195.5 721.2,-195.5 743.13,-195.5"/>
<polygon fill="midnightblue" stroke="midnightblue" points="743.35,-199 753.35,-195.5 743.35,-192 743.35,-199"/>
</g>
<!-- Node28&#45;&gt;Node5 -->
<g id="edge42" class="edge">
<title>Node28&#45;&gt;Node5</title>
<path fill="none" stroke="midnightblue" d="M479.66,-570.81C547.51,-566.39 661.23,-558.99 735.17,-554.18"/>
<polygon fill="midnightblue" stroke="midnightblue" points="735.58,-557.66 745.33,-553.51 735.13,-550.67 735.58,-557.66"/>
</g>
<!-- Node29 -->
<g id="node29" class="node">
<title>Node29</title>
<g id="a_node29"><a xlink:href="class_cuboid.html#abc62d20a2f1418af1c35e369da77f0fc" target="_top" xlink:title=" ">
<polygon fill="none" stroke="black" points="560,-641 560,-660 688,-660 688,-641 560,-641"/>
<text text-anchor="middle" x="624" y="-648" font-family="Helvetica,sans-Serif" font-size="10.00">Cuboid::Cuboid_To_File</text>
</a>
</g>
</g>
<!-- Node28&#45;&gt;Node29 -->
<g id="edge40" class="edge">
<title>Node28&#45;&gt;Node29</title>
<path fill="none" stroke="midnightblue" d="M451.67,-589.7C476.19,-602.24 512.69,-619.8 546,-631.5 553.14,-634.01 560.75,-636.31 568.32,-638.39"/>
<polygon fill="midnightblue" stroke="midnightblue" points="567.63,-641.83 578.19,-640.98 569.41,-635.06 567.63,-641.83"/>
</g>
<!-- Node31 -->
<g id="node31" class="node">
<title>Node31</title>
<g id="a_node31"><a xlink:href="class_prism.html#a2de0dab6d117fc3c8dcbc3c384d0fccd" target="_top" xlink:title=" ">
<polygon fill="none" stroke="black" points="566,-603 566,-622 682,-622 682,-603 566,-603"/>
<text text-anchor="middle" x="624" y="-610" font-family="Helvetica,sans-Serif" font-size="10.00">Prism::Prism_To_File</text>
</a>
</g>
</g>
<!-- Node28&#45;&gt;Node31 -->
<g id="edge43" class="edge">
<title>Node28&#45;&gt;Node31</title>
<path fill="none" stroke="midnightblue" d="M479.51,-585.24C505.53,-590.18 536.42,-596.05 562.87,-601.07"/>
<polygon fill="midnightblue" stroke="midnightblue" points="562.29,-604.53 572.76,-602.96 563.59,-597.65 562.29,-604.53"/>
</g>
<!-- Node30 -->
<g id="node30" class="node">
<title>Node30</title>
<g id="a_node30"><a xlink:href="class_cuboid.html#a12a97376443b1a15ae8342c1c75b3e1e" target="_top" xlink:title="Metoda wypisania odpowiednich wierzcholkow do pliku zgodnie z zaproponowanym sposobem zadaniu dron">
<polygon fill="none" stroke="black" points="740.5,-641 740.5,-660 875.5,-660 875.5,-641 740.5,-641"/>
<text text-anchor="middle" x="808" y="-648" font-family="Helvetica,sans-Serif" font-size="10.00">Cuboid::print_cuboid_3D</text>
</a>
</g>
</g>
<!-- Node29&#45;&gt;Node30 -->
<g id="edge41" class="edge">
<title>Node29&#45;&gt;Node30</title>
<path fill="none" stroke="midnightblue" d="M688.14,-650.5C701.69,-650.5 716.15,-650.5 730.16,-650.5"/>
<polygon fill="midnightblue" stroke="midnightblue" points="730.25,-654 740.25,-650.5 730.25,-647 730.25,-654"/>
</g>
<!-- Node32 -->
<g id="node32" class="node">
<title>Node32</title>
<g id="a_node32"><a xlink:href="class_prism.html#a764c6940e4fb65303981e8b877b28561" target="_top" xlink:title="Metoda wypisania odpowiednich wierzcholkow do pliku zgodnie z zaproponowanym sposobem zadaniu dron">
<polygon fill="none" stroke="black" points="745.5,-603 745.5,-622 870.5,-622 870.5,-603 745.5,-603"/>
<text text-anchor="middle" x="808" y="-610" font-family="Helvetica,sans-Serif" font-size="10.00">Prism::print_prism_3D</text>
</a>
</g>
</g>
<!-- Node31&#45;&gt;Node32 -->
<g id="edge44" class="edge">
<title>Node31&#45;&gt;Node32</title>
<path fill="none" stroke="midnightblue" d="M682.09,-612.5C698.91,-612.5 717.53,-612.5 735.15,-612.5"/>
<polygon fill="midnightblue" stroke="midnightblue" points="735.38,-616 745.38,-612.5 735.38,-609 735.38,-616"/>
</g>
<!-- Node33&#45;&gt;Node13 -->
<g id="edge47" class="edge">
<title>Node33&#45;&gt;Node13</title>
<path fill="none" stroke="midnightblue" d="M293.13,-359.5C359.58,-359.5 464.97,-359.5 538.7,-359.5"/>
<polygon fill="midnightblue" stroke="midnightblue" points="538.88,-363 548.88,-359.5 538.88,-356 538.88,-363"/>
</g>
<!-- Node33&#45;&gt;Node28 -->
<g id="edge46" class="edge">
<title>Node33&#45;&gt;Node28</title>
<path fill="none" stroke="midnightblue" d="M243.9,-374.62C276.82,-411.78 361.87,-507.77 400.89,-551.81"/>
<polygon fill="midnightblue" stroke="midnightblue" points="398.37,-554.23 407.62,-559.4 403.61,-549.59 398.37,-554.23"/>
</g>
<!-- Node35 -->
<g id="node35" class="node">
<title>Node35</title>
<g id="a_node35"><a xlink:href="namespace_pz_g.html#aa010184f31b26bb561b42f22438b821e" target="_top" xlink:title="Funkcja pomocnicza, dopisuje do polecenia wpisy związane z rysowaniem z pliku.">
<polygon fill="none" stroke="black" points="339,-155 339,-174 505,-174 505,-155 339,-155"/>
<text text-anchor="middle" x="422" y="-162" font-family="Helvetica,sans-Serif" font-size="10.00">PzG::DopiszRysowanieZPlikow</text>
</a>
</g>
</g>
<!-- Node34&#45;&gt;Node35 -->
<g id="edge49" class="edge">
<title>Node34&#45;&gt;Node35</title>
<path fill="none" stroke="midnightblue" d="M294.73,-164.5C305.67,-164.5 317.23,-164.5 328.73,-164.5"/>
<polygon fill="midnightblue" stroke="midnightblue" points="328.8,-168 338.8,-164.5 328.8,-161 328.8,-168"/>
</g>
<!-- Node36 -->
<g id="node36" class="node">
<title>Node36</title>
<g id="a_node36"><a xlink:href="namespace_pz_g.html#a7227cb39c785b1c746b6bb5515c0b781" target="_top" xlink:title="Dodaje do listy rysowanych punktów, punkty o różnych rozmiarach.">
<polygon fill="none" stroke="black" points="334,-102.5 334,-132.5 510,-132.5 510,-102.5 334,-102.5"/>
<text text-anchor="start" x="342" y="-120.5" font-family="Helvetica,sans-Serif" font-size="10.00">PzG::DopiszRysowanieZRoznych</text>
<text text-anchor="middle" x="422" y="-109.5" font-family="Helvetica,sans-Serif" font-size="10.00">Punktow</text>
</a>
</g>
</g>
<!-- Node34&#45;&gt;Node36 -->
<g id="edge50" class="edge">
<title>Node34&#45;&gt;Node36</title>
<path fill="none" stroke="midnightblue" d="M291.3,-149.5C310.03,-144.88 330.81,-139.75 350.16,-134.98"/>
<polygon fill="midnightblue" stroke="midnightblue" points="351.25,-138.31 360.13,-132.52 349.58,-131.52 351.25,-138.31"/>
</g>
<!-- Node37 -->
<g id="node37" class="node">
<title>Node37</title>
<g id="a_node37"><a xlink:href="namespace_pz_g.html#a169c311f0e0b6ffadcd44e91e749f72d" target="_top" xlink:title="Wczytuje z pliku listę punktów.">
<polygon fill="none" stroke="black" points="551.5,-74.5 551.5,-104.5 696.5,-104.5 696.5,-74.5 551.5,-74.5"/>
<text text-anchor="start" x="559.5" y="-92.5" font-family="Helvetica,sans-Serif" font-size="10.00">PzG::WczytajListeRoznych</text>
<text text-anchor="middle" x="624" y="-81.5" font-family="Helvetica,sans-Serif" font-size="10.00">Punktow</text>
</a>
</g>
</g>
<!-- Node36&#45;&gt;Node37 -->
<g id="edge51" class="edge">
<title>Node36&#45;&gt;Node37</title>
<path fill="none" stroke="midnightblue" d="M510.14,-105.3C520.48,-103.85 531.01,-102.38 541.28,-100.94"/>
<polygon fill="midnightblue" stroke="midnightblue" points="542.01,-104.37 551.43,-99.52 541.04,-97.44 542.01,-104.37"/>
</g>
<!-- Node38 -->
<g id="node38" class="node">
<title>Node38</title>
<g id="a_node38"><a xlink:href="class_pz_g_1_1_atrybuty_rysowania.html#ab068535b4d2f755c394557d1da72a4eb" target="_top" xlink:title="Zmienia kolor rysowania.">
<polygon fill="none" stroke="black" points="739.5,-49.5 739.5,-79.5 876.5,-79.5 876.5,-49.5 739.5,-49.5"/>
<text text-anchor="start" x="747.5" y="-67.5" font-family="Helvetica,sans-Serif" font-size="10.00">PzG::AtrybutyRysowania</text>
<text text-anchor="middle" x="808" y="-56.5" font-family="Helvetica,sans-Serif" font-size="10.00">::ZmienKolor</text>
</a>
</g>
</g>
<!-- Node37&#45;&gt;Node38 -->
<g id="edge52" class="edge">
<title>Node37&#45;&gt;Node38</title>
<path fill="none" stroke="midnightblue" d="M696.67,-79.66C707.3,-78.2 718.3,-76.68 729.05,-75.21"/>
<polygon fill="midnightblue" stroke="midnightblue" points="729.83,-78.63 739.26,-73.81 728.87,-71.7 729.83,-78.63"/>
</g>
<!-- Node39 -->
<g id="node39" class="node">
<title>Node39</title>
<g id="a_node39"><a xlink:href="class_pz_g_1_1_atrybuty_rysowania.html#af4b140eb03bc10b6fd816fad63f8372e" target="_top" xlink:title="Zmienia rozmiar rysowania.">
<polygon fill="none" stroke="black" points="739.5,-0.5 739.5,-30.5 876.5,-30.5 876.5,-0.5 739.5,-0.5"/>
<text text-anchor="start" x="747.5" y="-18.5" font-family="Helvetica,sans-Serif" font-size="10.00">PzG::AtrybutyRysowania</text>
<text text-anchor="middle" x="808" y="-7.5" font-family="Helvetica,sans-Serif" font-size="10.00">::ZmienRozmiar</text>
</a>
</g>
</g>
<!-- Node37&#45;&gt;Node39 -->
<g id="edge53" class="edge">
<title>Node37&#45;&gt;Node39</title>
<path fill="none" stroke="midnightblue" d="M657.34,-74.35C679.77,-64.04 710.46,-50.36 738,-39.5 742.67,-37.66 747.55,-35.81 752.46,-34"/>
<polygon fill="midnightblue" stroke="midnightblue" points="753.68,-37.28 761.89,-30.59 751.3,-30.7 753.68,-37.28"/>
</g>
<!-- Node40 -->
<g id="node40" class="node">
<title>Node40</title>
<g id="a_node40"><a xlink:href="class_pz_g_1_1_atrybuty_rysowania.html#a2ac97706124b14072715ecf3f07e82b4" target="_top" xlink:title="Zmienia styl rysowania.">
<polygon fill="none" stroke="black" points="739.5,-98.5 739.5,-128.5 876.5,-128.5 876.5,-98.5 739.5,-98.5"/>
<text text-anchor="start" x="747.5" y="-116.5" font-family="Helvetica,sans-Serif" font-size="10.00">PzG::AtrybutyRysowania</text>
<text text-anchor="middle" x="808" y="-105.5" font-family="Helvetica,sans-Serif" font-size="10.00">::ZmienStyl</text>
</a>
</g>
</g>
<!-- Node37&#45;&gt;Node40 -->
<g id="edge54" class="edge">
<title>Node37&#45;&gt;Node40</title>
<path fill="none" stroke="midnightblue" d="M696.67,-98.95C707.3,-100.35 718.3,-101.8 729.05,-103.22"/>
<polygon fill="midnightblue" stroke="midnightblue" points="728.88,-106.73 739.26,-104.57 729.8,-99.79 728.88,-106.73"/>
</g>
</g>
</svg>
