<?xml version="1.0" encoding="UTF-8" standalone="no"?>
<!DOCTYPE svg PUBLIC "-//W3C//DTD SVG 1.1//EN"
 "http://www.w3.org/Graphics/SVG/1.1/DTD/svg11.dtd">
<!-- Generated by graphviz version 2.43.0 (0)
 -->
<!-- Title: Cuboid::get_cub Pages: 1 -->
<svg width="931pt" height="307pt"
 viewBox="0.00 0.00 931.00 307.00" xmlns="http://www.w3.org/2000/svg" xmlns:xlink="http://www.w3.org/1999/xlink">
<g id="graph0" class="graph" transform="scale(1 1) rotate(0) translate(4 303)">
<title>Cuboid::get_cub</title>
<!-- Node1 -->
<g id="node1" class="node">
<title>Node1</title>
<g id="a_node1"><a xlink:title="Metoda zwracajaca wierzcholki prostopadloscianu do Vector3D">
<polygon fill="#bfbfbf" stroke="black" points="828,-203.5 828,-222.5 923,-222.5 923,-203.5 828,-203.5"/>
<text text-anchor="middle" x="875.5" y="-210.5" font-family="Helvetica,sans-Serif" font-size="10.00">Cuboid::get_cub</text>
</a>
</g>
</g>
<!-- Node2 -->
<g id="node2" class="node">
<title>Node2</title>
<g id="a_node2"><a xlink:href="cuboid_8cpp.html#a9d12861e3e0d77a46a85a7afd5864243" target="_top" xlink:title="Przeciazenie operatora &lt;&lt; na wyjscie standardowe">
<polygon fill="none" stroke="black" points="695,-279.5 695,-298.5 769,-298.5 769,-279.5 695,-279.5"/>
<text text-anchor="middle" x="732" y="-286.5" font-family="Helvetica,sans-Serif" font-size="10.00">operator&lt;&lt;</text>
</a>
</g>
</g>
<!-- Node1&#45;&gt;Node2 -->
<g id="edge1" class="edge">
<title>Node1&#45;&gt;Node2</title>
<path fill="none" stroke="midnightblue" d="M854.79,-229.09C838.69,-241.61 814.92,-258.7 792,-270 784.57,-273.66 776.27,-276.84 768.3,-279.5"/>
<polygon fill="midnightblue" stroke="midnightblue" points="857.23,-231.63 862.89,-222.67 852.88,-226.14 857.23,-231.63"/>
</g>
<!-- Node3 -->
<g id="node3" class="node">
<title>Node3</title>
<g id="a_node3"><a xlink:href="class_triangular.html#aa23c433e870c03fbb5caf31ab474a3ec" target="_top" xlink:title="Przeciazenie operatora przypisania, umozliwia stosowanie metod typu Cuboid na obiekcie typu Triangula...">
<polygon fill="none" stroke="black" points="672,-241.5 672,-260.5 792,-260.5 792,-241.5 672,-241.5"/>
<text text-anchor="middle" x="732" y="-248.5" font-family="Helvetica,sans-Serif" font-size="10.00">Triangular::operator=</text>
</a>
</g>
</g>
<!-- Node1&#45;&gt;Node3 -->
<g id="edge2" class="edge">
<title>Node1&#45;&gt;Node3</title>
<path fill="none" stroke="midnightblue" d="M828.9,-225.25C809.39,-230.48 786.96,-236.51 768.7,-241.41"/>
<polygon fill="midnightblue" stroke="midnightblue" points="830.04,-228.56 838.79,-222.59 828.23,-221.8 830.04,-228.56"/>
</g>
<!-- Node4 -->
<g id="node4" class="node">
<title>Node4</title>
<g id="a_node4"><a xlink:href="class_pyramid.html#af85549dc381715a489de5a0c0e8ef620" target="_top" xlink:title="Przeciazenie operatora przypisania, umozliwia stosowanie metod typu Cuboid na obiekcie typu Pyramid">
<polygon fill="none" stroke="black" points="675.5,-203.5 675.5,-222.5 788.5,-222.5 788.5,-203.5 675.5,-203.5"/>
<text text-anchor="middle" x="732" y="-210.5" font-family="Helvetica,sans-Serif" font-size="10.00">Pyramid::operator=</text>
</a>
</g>
</g>
<!-- Node1&#45;&gt;Node4 -->
<g id="edge3" class="edge">
<title>Node1&#45;&gt;Node4</title>
<path fill="none" stroke="midnightblue" d="M817.56,-213C807.99,-213 798.06,-213 788.53,-213"/>
<polygon fill="midnightblue" stroke="midnightblue" points="817.78,-216.5 827.78,-213 817.78,-209.5 817.78,-216.5"/>
</g>
<!-- Node5 -->
<g id="node5" class="node">
<title>Node5</title>
<g id="a_node5"><a xlink:href="class_cuboid.html#a8dea57d0704fb1611ab19460b033d344" target="_top" xlink:title="Metoda wypisania odpowiednich wierzcholkow do pliku">
<polygon fill="none" stroke="black" points="674,-165.5 674,-184.5 790,-184.5 790,-165.5 674,-165.5"/>
<text text-anchor="middle" x="732" y="-172.5" font-family="Helvetica,sans-Serif" font-size="10.00">Cuboid::print_cuboid</text>
</a>
</g>
</g>
<!-- Node1&#45;&gt;Node5 -->
<g id="edge4" class="edge">
<title>Node1&#45;&gt;Node5</title>
<path fill="none" stroke="midnightblue" d="M828.9,-200.75C809.39,-195.52 786.96,-189.49 768.7,-184.59"/>
<polygon fill="midnightblue" stroke="midnightblue" points="828.23,-204.2 838.79,-203.41 830.04,-197.44 828.23,-204.2"/>
</g>
<!-- Node6 -->
<g id="node6" class="node">
<title>Node6</title>
<g id="a_node6"><a xlink:href="class_drone.html#aea963b77f42c204504542a3d9190d762" target="_top" xlink:title="Metoda uzywana przy konstruowania drona Ustawia rotory w ten sposob, ze srodek ich dolnej podstawy je...">
<polygon fill="none" stroke="black" points="674.5,-116 674.5,-146 789.5,-146 789.5,-116 674.5,-116"/>
<text text-anchor="start" x="682.5" y="-134" font-family="Helvetica,sans-Serif" font-size="10.00">Drone::set_rotors_in</text>
<text text-anchor="middle" x="732" y="-123" font-family="Helvetica,sans-Serif" font-size="10.00">_place</text>
</a>
</g>
</g>
<!-- Node1&#45;&gt;Node6 -->
<g id="edge5" class="edge">
<title>Node1&#45;&gt;Node6</title>
<path fill="none" stroke="midnightblue" d="M854.22,-197.25C837.96,-185.06 814.27,-168.24 792,-156 785.57,-152.46 778.53,-149.09 771.63,-146.03"/>
<polygon fill="midnightblue" stroke="midnightblue" points="852.35,-200.22 862.43,-203.49 856.59,-194.65 852.35,-200.22"/>
</g>
<!-- Node7 -->
<g id="node7" class="node">
<title>Node7</title>
<g id="a_node7"><a xlink:href="class_drone.html#ab692baa4be5c43b72990ce1b01bdc805" target="_top" xlink:title="Konstruktor bezparametryczny klasy Drone. Powstaly dron jest skonstruowany z bezparametrycznych prost...">
<polygon fill="none" stroke="black" points="346.5,-159.5 346.5,-178.5 427.5,-178.5 427.5,-159.5 346.5,-159.5"/>
<text text-anchor="middle" x="387" y="-166.5" font-family="Helvetica,sans-Serif" font-size="10.00">Drone::Drone</text>
</a>
</g>
</g>
<!-- Node6&#45;&gt;Node7 -->
<g id="edge6" class="edge">
<title>Node6&#45;&gt;Node7</title>
<path fill="none" stroke="midnightblue" d="M664.56,-145.35C655.01,-147.1 645.27,-148.72 636,-150 562.85,-160.08 476.77,-165.17 427.67,-167.44"/>
<polygon fill="midnightblue" stroke="midnightblue" points="665.25,-148.78 674.43,-143.48 663.95,-141.9 665.25,-148.78"/>
</g>
<!-- Node8 -->
<g id="node8" class="node">
<title>Node8</title>
<g id="a_node8"><a xlink:href="class_drone.html#ad42bc54902df967b94717617aca1a974" target="_top" xlink:title="Metoda obracajaca dron o zadany kat w 3D wokol srodka figury">
<polygon fill="none" stroke="black" points="484,-121.5 484,-140.5 636,-140.5 636,-121.5 484,-121.5"/>
<text text-anchor="middle" x="560" y="-128.5" font-family="Helvetica,sans-Serif" font-size="10.00">Drone::rotation_around_cen</text>
</a>
</g>
</g>
<!-- Node6&#45;&gt;Node8 -->
<g id="edge7" class="edge">
<title>Node6&#45;&gt;Node8</title>
<path fill="none" stroke="midnightblue" d="M664.15,-131C654.95,-131 645.45,-131 636.12,-131"/>
<polygon fill="midnightblue" stroke="midnightblue" points="664.39,-134.5 674.39,-131 664.39,-127.5 664.39,-134.5"/>
</g>
<!-- Node14 -->
<g id="node14" class="node">
<title>Node14</title>
<g id="a_node14"><a xlink:href="class_scene.html#adca9214dccab3d77eed9d8af7db67f94" target="_top" xlink:title="Konstruktor paramereyczny klasy Scene.">
<polygon fill="none" stroke="black" points="519.5,-83.5 519.5,-102.5 600.5,-102.5 600.5,-83.5 519.5,-83.5"/>
<text text-anchor="middle" x="560" y="-90.5" font-family="Helvetica,sans-Serif" font-size="10.00">Scene::Scene</text>
</a>
</g>
</g>
<!-- Node6&#45;&gt;Node14 -->
<g id="edge17" class="edge">
<title>Node6&#45;&gt;Node14</title>
<path fill="none" stroke="midnightblue" d="M664.61,-116.16C643.01,-111.33 619.73,-106.13 600.72,-101.88"/>
<polygon fill="midnightblue" stroke="midnightblue" points="663.87,-119.58 674.39,-118.35 665.4,-112.75 663.87,-119.58"/>
</g>
<!-- Node8&#45;&gt;Node7 -->
<g id="edge8" class="edge">
<title>Node8&#45;&gt;Node7</title>
<path fill="none" stroke="midnightblue" d="M506.03,-142.77C480.72,-148.4 450.94,-155.01 427.62,-160.2"/>
<polygon fill="midnightblue" stroke="midnightblue" points="506.85,-146.18 515.85,-140.59 505.33,-139.34 506.85,-146.18"/>
</g>
<!-- Node9 -->
<g id="node9" class="node">
<title>Node9</title>
<g id="a_node9"><a xlink:href="class_drone.html#af03af60a9b92e4191a7e66b5c20b52bb" target="_top" xlink:title="Metoda zamieniajaca drona na tego z pliku sample.">
<polygon fill="none" stroke="black" points="326,-72 326,-102 448,-102 448,-72 326,-72"/>
<text text-anchor="start" x="334" y="-90" font-family="Helvetica,sans-Serif" font-size="10.00">Drone::Drone_change</text>
<text text-anchor="middle" x="387" y="-79" font-family="Helvetica,sans-Serif" font-size="10.00">_to_sample</text>
</a>
</g>
</g>
<!-- Node8&#45;&gt;Node9 -->
<g id="edge9" class="edge">
<title>Node8&#45;&gt;Node9</title>
<path fill="none" stroke="midnightblue" d="M511.5,-119.02C502.37,-116.7 492.89,-114.28 484,-112 471.49,-108.79 458.07,-105.31 445.35,-102"/>
<polygon fill="midnightblue" stroke="midnightblue" points="510.66,-122.42 521.22,-121.48 512.38,-115.63 510.66,-122.42"/>
</g>
<!-- Node11 -->
<g id="node11" class="node">
<title>Node11</title>
<g id="a_node11"><a xlink:href="class_drone.html#af052f6bb793d1229b99b16b800b95b82" target="_top" xlink:title="Metoda animujaca obrot drona i wyrysowujaca calosc w gnuplocie.">
<polygon fill="none" stroke="black" points="156.5,-127 156.5,-157 281.5,-157 281.5,-127 156.5,-127"/>
<text text-anchor="start" x="164.5" y="-145" font-family="Helvetica,sans-Serif" font-size="10.00">Drone::Drone_rotation</text>
<text text-anchor="middle" x="219" y="-134" font-family="Helvetica,sans-Serif" font-size="10.00">_animation</text>
</a>
</g>
</g>
<!-- Node8&#45;&gt;Node11 -->
<g id="edge15" class="edge">
<title>Node8&#45;&gt;Node11</title>
<path fill="none" stroke="midnightblue" d="M473.59,-133.77C413.85,-135.71 335.44,-138.25 281.71,-140"/>
<polygon fill="midnightblue" stroke="midnightblue" points="473.88,-137.26 483.76,-133.44 473.66,-130.27 473.88,-137.26"/>
</g>
<!-- Node12 -->
<g id="node12" class="node">
<title>Node12</title>
<g id="a_node12"><a xlink:href="class_drone.html#ab7808296cec81143dbddd7516340a371" target="_top" xlink:title="Metoda robiaca &quot;oblot&quot; drona wokol punktu (z modyfikacji)">
<polygon fill="none" stroke="black" points="148,-0.5 148,-19.5 290,-19.5 290,-0.5 148,-0.5"/>
<text text-anchor="middle" x="219" y="-7.5" font-family="Helvetica,sans-Serif" font-size="10.00">Drone::Drone_roundabout</text>
</a>
</g>
</g>
<!-- Node8&#45;&gt;Node12 -->
<g id="edge16" class="edge">
<title>Node8&#45;&gt;Node12</title>
<path fill="none" stroke="midnightblue" d="M493.27,-117.36C490.03,-115.77 486.92,-113.99 484,-112 461.36,-96.6 470.82,-77.13 448,-62 401.05,-30.87 338.02,-18.21 290.13,-13.14"/>
<polygon fill="midnightblue" stroke="midnightblue" points="492.07,-120.65 502.64,-121.38 494.83,-114.22 492.07,-120.65"/>
</g>
<!-- Node10 -->
<g id="node10" class="node">
<title>Node10</title>
<g id="a_node10"><a xlink:href="class_drone.html#ac4d24c27fb2c107d2e8bda0c2bf5cfa1" target="_top" xlink:title="Metoda obliczajaca i przeprowadzajaca caly ruch drona (obrot o kat i przelot z zadania 5....">
<polygon fill="none" stroke="black" points="0,-105 0,-135 112,-135 112,-105 0,-105"/>
<text text-anchor="start" x="8" y="-123" font-family="Helvetica,sans-Serif" font-size="10.00">Drone::Drone_basic</text>
<text text-anchor="middle" x="56" y="-112" font-family="Helvetica,sans-Serif" font-size="10.00">_motion</text>
</a>
</g>
</g>
<!-- Node9&#45;&gt;Node10 -->
<g id="edge10" class="edge">
<title>Node9&#45;&gt;Node10</title>
<path fill="none" stroke="midnightblue" d="M315.36,-94.09C254.5,-100.19 167.87,-108.88 112.04,-114.48"/>
<polygon fill="midnightblue" stroke="midnightblue" points="316.06,-97.53 325.66,-93.05 315.36,-90.57 316.06,-97.53"/>
</g>
<!-- Node9&#45;&gt;Node11 -->
<g id="edge11" class="edge">
<title>Node9&#45;&gt;Node11</title>
<path fill="none" stroke="midnightblue" d="M331.06,-105.2C309.74,-112.27 285.61,-120.26 265.31,-126.99"/>
<polygon fill="midnightblue" stroke="midnightblue" points="332.25,-108.5 340.64,-102.03 330.05,-101.85 332.25,-108.5"/>
</g>
<!-- Node9&#45;&gt;Node12 -->
<g id="edge13" class="edge">
<title>Node9&#45;&gt;Node12</title>
<path fill="none" stroke="midnightblue" d="M356.3,-66.09C337.9,-53.9 313.39,-39 290,-29 281.43,-25.33 271.97,-22.2 262.84,-19.6"/>
<polygon fill="midnightblue" stroke="midnightblue" points="354.57,-69.14 364.82,-71.82 358.48,-63.33 354.57,-69.14"/>
</g>
<!-- Node13 -->
<g id="node13" class="node">
<title>Node13</title>
<g id="a_node13"><a xlink:href="class_drone.html#a5fc9dd645ad3856b5d3c501c63c464e3" target="_top" xlink:title="Metoda animujaca translacje drona i wyrysowujaca calosc w gnuplocie.">
<polygon fill="none" stroke="black" points="149.5,-39 149.5,-69 288.5,-69 288.5,-39 149.5,-39"/>
<text text-anchor="start" x="157.5" y="-57" font-family="Helvetica,sans-Serif" font-size="10.00">Drone::Drone_translation</text>
<text text-anchor="middle" x="219" y="-46" font-family="Helvetica,sans-Serif" font-size="10.00">_animation</text>
</a>
</g>
</g>
<!-- Node9&#45;&gt;Node13 -->
<g id="edge14" class="edge">
<title>Node9&#45;&gt;Node13</title>
<path fill="none" stroke="midnightblue" d="M315.58,-73C306.62,-71.22 297.45,-69.4 288.51,-67.62"/>
<polygon fill="midnightblue" stroke="midnightblue" points="315.11,-76.48 325.6,-74.99 316.47,-69.61 315.11,-76.48"/>
</g>
<!-- Node11&#45;&gt;Node10 -->
<g id="edge12" class="edge">
<title>Node11&#45;&gt;Node10</title>
<path fill="none" stroke="midnightblue" d="M146.22,-132.19C134.75,-130.62 123.04,-129.02 112.04,-127.52"/>
<polygon fill="midnightblue" stroke="midnightblue" points="145.83,-135.67 156.21,-133.56 146.78,-128.74 145.83,-135.67"/>
</g>
</g>
</svg>
