<?xml version="1.0" encoding="UTF-8" standalone="no"?>
<!DOCTYPE svg PUBLIC "-//W3C//DTD SVG 1.1//EN"
 "http://www.w3.org/Graphics/SVG/1.1/DTD/svg11.dtd">
<!-- Generated by graphviz version 2.43.0 (0)
 -->
<!-- Title: Drone::translation Pages: 1 -->
<svg width="736pt" height="213pt"
 viewBox="0.00 0.00 736.00 213.38" xmlns="http://www.w3.org/2000/svg" xmlns:xlink="http://www.w3.org/1999/xlink">
<g id="graph0" class="graph" transform="scale(1 1) rotate(0) translate(4 209.38)">
<title>Drone::translation</title>
<!-- Node1 -->
<g id="node1" class="node">
<title>Node1</title>
<g id="a_node1"><a xlink:title="Przesuwa drona o zadany wektor w 3D">
<polygon fill="#bfbfbf" stroke="black" points="624,-76.5 624,-95.5 728,-95.5 728,-76.5 624,-76.5"/>
<text text-anchor="middle" x="676" y="-83.5" font-family="Helvetica,sans-Serif" font-size="10.00">Drone::translation</text>
</a>
</g>
</g>
<!-- Node2 -->
<g id="node2" class="node">
<title>Node2</title>
<g id="a_node2"><a xlink:href="class_drone.html#a6662bd8203e8c9a0721c457b3612a7c1" target="_top" xlink:title="Metoda uzywana przy konstruowania drona przesuwa drona w ten sposob, ze Vector3D centre prostopadlosc...">
<polygon fill="none" stroke="black" points="484,-71 484,-101 588,-101 588,-71 484,-71"/>
<text text-anchor="start" x="492" y="-89" font-family="Helvetica,sans-Serif" font-size="10.00">Drone::translation</text>
<text text-anchor="middle" x="536" y="-78" font-family="Helvetica,sans-Serif" font-size="10.00">_to_pos</text>
</a>
</g>
</g>
<!-- Node1&#45;&gt;Node2 -->
<g id="edge1" class="edge">
<title>Node1&#45;&gt;Node2</title>
<path fill="none" stroke="midnightblue" d="M613.5,-86C605.13,-86 596.6,-86 588.43,-86"/>
<polygon fill="midnightblue" stroke="midnightblue" points="613.61,-89.5 623.61,-86 613.61,-82.5 613.61,-89.5"/>
</g>
<!-- Node3 -->
<g id="node3" class="node">
<title>Node3</title>
<g id="a_node3"><a xlink:href="class_drone.html#ac4d24c27fb2c107d2e8bda0c2bf5cfa1" target="_top" xlink:title="Metoda obliczajaca i przeprowadzajaca caly ruch drona (obrot o kat i przelot z zadania 5....">
<polygon fill="none" stroke="black" points="0,-159 0,-189 112,-189 112,-159 0,-159"/>
<text text-anchor="start" x="8" y="-177" font-family="Helvetica,sans-Serif" font-size="10.00">Drone::Drone_basic</text>
<text text-anchor="middle" x="56" y="-166" font-family="Helvetica,sans-Serif" font-size="10.00">_motion</text>
</a>
</g>
</g>
<!-- Node2&#45;&gt;Node3 -->
<g id="edge2" class="edge">
<title>Node2&#45;&gt;Node3</title>
<path fill="none" stroke="midnightblue" d="M512.44,-108.09C495.84,-123.24 472.06,-142.74 448,-155 383.04,-188.08 362.22,-189.13 290,-199 227.47,-207.54 210.54,-207.44 148,-199 132.9,-196.96 116.76,-193.11 102.33,-189.02"/>
<polygon fill="midnightblue" stroke="midnightblue" points="515.06,-110.44 519.98,-101.06 510.28,-105.32 515.06,-110.44"/>
</g>
<!-- Node4 -->
<g id="node4" class="node">
<title>Node4</title>
<g id="a_node4"><a xlink:href="class_drone.html#af03af60a9b92e4191a7e66b5c20b52bb" target="_top" xlink:title="Metoda zamieniajaca drona na tego z pliku sample.">
<polygon fill="none" stroke="black" points="326,-115 326,-145 448,-145 448,-115 326,-115"/>
<text text-anchor="start" x="334" y="-133" font-family="Helvetica,sans-Serif" font-size="10.00">Drone::Drone_change</text>
<text text-anchor="middle" x="387" y="-122" font-family="Helvetica,sans-Serif" font-size="10.00">_to_sample</text>
</a>
</g>
</g>
<!-- Node2&#45;&gt;Node4 -->
<g id="edge3" class="edge">
<title>Node2&#45;&gt;Node4</title>
<path fill="none" stroke="midnightblue" d="M475.18,-103.9C462.99,-107.55 450.28,-111.36 438.45,-114.9"/>
<polygon fill="midnightblue" stroke="midnightblue" points="476.25,-107.24 484.82,-101.02 474.24,-100.53 476.25,-107.24"/>
</g>
<!-- Node6 -->
<g id="node6" class="node">
<title>Node6</title>
<g id="a_node6"><a xlink:href="class_drone.html#ab7808296cec81143dbddd7516340a371" target="_top" xlink:title="Metoda robiaca &quot;oblot&quot; drona wokol punktu (z modyfikacji)">
<polygon fill="none" stroke="black" points="148,-82.5 148,-101.5 290,-101.5 290,-82.5 148,-82.5"/>
<text text-anchor="middle" x="219" y="-89.5" font-family="Helvetica,sans-Serif" font-size="10.00">Drone::Drone_roundabout</text>
</a>
</g>
</g>
<!-- Node2&#45;&gt;Node6 -->
<g id="edge9" class="edge">
<title>Node2&#45;&gt;Node6</title>
<path fill="none" stroke="midnightblue" d="M473.48,-87.17C420.85,-88.17 345.09,-89.62 290.12,-90.66"/>
<polygon fill="midnightblue" stroke="midnightblue" points="473.76,-90.67 483.69,-86.98 473.62,-83.67 473.76,-90.67"/>
</g>
<!-- Node7 -->
<g id="node7" class="node">
<title>Node7</title>
<g id="a_node7"><a xlink:href="class_drone.html#a5fc9dd645ad3856b5d3c501c63c464e3" target="_top" xlink:title="Metoda animujaca translacje drona i wyrysowujaca calosc w gnuplocie.">
<polygon fill="none" stroke="black" points="149.5,-33 149.5,-63 288.5,-63 288.5,-33 149.5,-33"/>
<text text-anchor="start" x="157.5" y="-51" font-family="Helvetica,sans-Serif" font-size="10.00">Drone::Drone_translation</text>
<text text-anchor="middle" x="219" y="-40" font-family="Helvetica,sans-Serif" font-size="10.00">_animation</text>
</a>
</g>
</g>
<!-- Node2&#45;&gt;Node7 -->
<g id="edge10" class="edge">
<title>Node2&#45;&gt;Node7</title>
<path fill="none" stroke="midnightblue" d="M473.73,-78.61C420.62,-72.2 343.84,-62.94 288.67,-56.28"/>
<polygon fill="midnightblue" stroke="midnightblue" points="473.34,-82.09 483.69,-79.81 474.18,-75.14 473.34,-82.09"/>
</g>
<!-- Node8 -->
<g id="node8" class="node">
<title>Node8</title>
<g id="a_node8"><a xlink:href="class_scene.html#adca9214dccab3d77eed9d8af7db67f94" target="_top" xlink:title="Konstruktor paramereyczny klasy Scene.">
<polygon fill="none" stroke="black" points="346.5,-0.5 346.5,-19.5 427.5,-19.5 427.5,-0.5 346.5,-0.5"/>
<text text-anchor="middle" x="387" y="-7.5" font-family="Helvetica,sans-Serif" font-size="10.00">Scene::Scene</text>
</a>
</g>
</g>
<!-- Node2&#45;&gt;Node8 -->
<g id="edge11" class="edge">
<title>Node2&#45;&gt;Node8</title>
<path fill="none" stroke="midnightblue" d="M503.37,-65.45C487.16,-55.34 466.89,-43.35 448,-34 437.24,-28.67 424.99,-23.61 414.38,-19.51"/>
<polygon fill="midnightblue" stroke="midnightblue" points="501.6,-68.47 511.93,-70.84 505.34,-62.55 501.6,-68.47"/>
</g>
<!-- Node4&#45;&gt;Node3 -->
<g id="edge4" class="edge">
<title>Node4&#45;&gt;Node3</title>
<path fill="none" stroke="midnightblue" d="M315.77,-132.69C268.16,-135.3 203.96,-140.35 148,-150 134.8,-152.28 120.72,-155.56 107.67,-158.97"/>
<polygon fill="midnightblue" stroke="midnightblue" points="316.17,-136.17 325.97,-132.15 315.8,-129.18 316.17,-136.17"/>
</g>
<!-- Node5 -->
<g id="node5" class="node">
<title>Node5</title>
<g id="a_node5"><a xlink:href="class_drone.html#af052f6bb793d1229b99b16b800b95b82" target="_top" xlink:title="Metoda animujaca obrot drona i wyrysowujaca calosc w gnuplocie.">
<polygon fill="none" stroke="black" points="156.5,-159 156.5,-189 281.5,-189 281.5,-159 156.5,-159"/>
<text text-anchor="start" x="164.5" y="-177" font-family="Helvetica,sans-Serif" font-size="10.00">Drone::Drone_rotation</text>
<text text-anchor="middle" x="219" y="-166" font-family="Helvetica,sans-Serif" font-size="10.00">_animation</text>
</a>
</g>
</g>
<!-- Node4&#45;&gt;Node5 -->
<g id="edge5" class="edge">
<title>Node4&#45;&gt;Node5</title>
<path fill="none" stroke="midnightblue" d="M319.62,-147.59C305.4,-151.36 290.5,-155.31 276.69,-158.97"/>
<polygon fill="midnightblue" stroke="midnightblue" points="320.57,-150.96 329.34,-145.02 318.77,-144.2 320.57,-150.96"/>
</g>
<!-- Node4&#45;&gt;Node6 -->
<g id="edge7" class="edge">
<title>Node4&#45;&gt;Node6</title>
<path fill="none" stroke="midnightblue" d="M315.77,-113.92C297.35,-109.71 278.06,-105.29 261.67,-101.54"/>
<polygon fill="midnightblue" stroke="midnightblue" points="315.07,-117.35 325.6,-116.17 316.63,-110.53 315.07,-117.35"/>
</g>
<!-- Node4&#45;&gt;Node7 -->
<g id="edge8" class="edge">
<title>Node4&#45;&gt;Node7</title>
<path fill="none" stroke="midnightblue" d="M354.86,-109.43C336.47,-97.82 312.46,-83.56 290,-73 282.41,-69.43 274.16,-66.06 266.08,-63.02"/>
<polygon fill="midnightblue" stroke="midnightblue" points="353.09,-112.45 363.4,-114.89 356.86,-106.56 353.09,-112.45"/>
</g>
<!-- Node5&#45;&gt;Node3 -->
<g id="edge6" class="edge">
<title>Node5&#45;&gt;Node3</title>
<path fill="none" stroke="midnightblue" d="M145.87,-174C134.51,-174 122.93,-174 112.04,-174"/>
<polygon fill="midnightblue" stroke="midnightblue" points="146.21,-177.5 156.21,-174 146.21,-170.5 146.21,-177.5"/>
</g>
</g>
</svg>
