<?xml version="1.0" encoding="UTF-8" standalone="no"?>
<!DOCTYPE svg PUBLIC "-//W3C//DTD SVG 1.1//EN"
 "http://www.w3.org/Graphics/SVG/1.1/DTD/svg11.dtd">
<!-- Generated by graphviz version 2.43.0 (0)
 -->
<!-- Title: Drone::Drone_change_to_sample Pages: 1 -->
<svg width="826pt" height="458pt"
 viewBox="0.00 0.00 826.00 458.00" xmlns="http://www.w3.org/2000/svg" xmlns:xlink="http://www.w3.org/1999/xlink">
<g id="graph0" class="graph" transform="scale(1 1) rotate(0) translate(4 454)">
<title>Drone::Drone_change_to_sample</title>
<!-- Node1 -->
<g id="node1" class="node">
<title>Node1</title>
<g id="a_node1"><a xlink:title="Metoda zamieniajaca drona na tego z pliku sample.">
<polygon fill="#bfbfbf" stroke="black" points="0,-112 0,-142 122,-142 122,-112 0,-112"/>
<text text-anchor="start" x="8" y="-130" font-family="Helvetica,sans-Serif" font-size="10.00">Drone::Drone_change</text>
<text text-anchor="middle" x="61" y="-119" font-family="Helvetica,sans-Serif" font-size="10.00">_to_sample</text>
</a>
</g>
</g>
<!-- Node2 -->
<g id="node2" class="node">
<title>Node2</title>
<g id="a_node2"><a xlink:href="class_drone.html#ada6f4e93f4a63cbe1d6fbebf329efe62" target="_top" xlink:title="Metoda wczytywania odpowiednich wierzcholkow z pliku wzorcowego zgodnie z zaproponowanym sposobem w z...">
<polygon fill="none" stroke="black" points="158,-348.5 158,-367.5 311,-367.5 311,-348.5 158,-348.5"/>
<text text-anchor="middle" x="234.5" y="-355.5" font-family="Helvetica,sans-Serif" font-size="10.00">Drone::Drone_From_Sample</text>
</a>
</g>
</g>
<!-- Node1&#45;&gt;Node2 -->
<g id="edge1" class="edge">
<title>Node1&#45;&gt;Node2</title>
<path fill="none" stroke="midnightblue" d="M73.25,-142.16C103.65,-183.1 187.32,-295.8 220.09,-339.94"/>
<polygon fill="midnightblue" stroke="midnightblue" points="217.33,-342.09 226.1,-348.04 222.95,-337.92 217.33,-342.09"/>
</g>
<!-- Node11 -->
<g id="node11" class="node">
<title>Node11</title>
<g id="a_node11"><a xlink:href="class_drone.html#ad42bc54902df967b94717617aca1a974" target="_top" xlink:title="Metoda obracajaca dron o zadany kat w 3D wokol srodka figury">
<polygon fill="none" stroke="black" points="158.5,-139.5 158.5,-158.5 310.5,-158.5 310.5,-139.5 158.5,-139.5"/>
<text text-anchor="middle" x="234.5" y="-146.5" font-family="Helvetica,sans-Serif" font-size="10.00">Drone::rotation_around_cen</text>
</a>
</g>
</g>
<!-- Node1&#45;&gt;Node11 -->
<g id="edge18" class="edge">
<title>Node1&#45;&gt;Node11</title>
<path fill="none" stroke="midnightblue" d="M122.46,-134.76C131.08,-135.86 140.08,-137.02 149.05,-138.17"/>
<polygon fill="midnightblue" stroke="midnightblue" points="148.79,-141.66 159.15,-139.46 149.68,-134.72 148.79,-141.66"/>
</g>
<!-- Node21 -->
<g id="node21" class="node">
<title>Node21</title>
<g id="a_node21"><a xlink:href="class_drone.html#a55c483c4e4cf0ec91d5bda5448417f08" target="_top" xlink:title="Metoda ustawiajaca drone_pos">
<polygon fill="none" stroke="black" points="173.5,-16.5 173.5,-35.5 295.5,-35.5 295.5,-16.5 173.5,-16.5"/>
<text text-anchor="middle" x="234.5" y="-23.5" font-family="Helvetica,sans-Serif" font-size="10.00">Drone::set_drone_pos</text>
</a>
</g>
</g>
<!-- Node1&#45;&gt;Node21 -->
<g id="edge30" class="edge">
<title>Node1&#45;&gt;Node21</title>
<path fill="none" stroke="midnightblue" d="M82.4,-111.87C101.44,-98.06 130.93,-77.5 158,-62 171.99,-53.99 188.05,-46.15 201.75,-39.85"/>
<polygon fill="midnightblue" stroke="midnightblue" points="203.58,-42.86 211.25,-35.55 200.7,-36.48 203.58,-42.86"/>
</g>
<!-- Node23 -->
<g id="node23" class="node">
<title>Node23</title>
<g id="a_node23"><a xlink:href="class_drone.html#a6662bd8203e8c9a0721c457b3612a7c1" target="_top" xlink:title="Metoda uzywana przy konstruowania drona przesuwa drona w ten sposob, ze Vector3D centre prostopadlosc...">
<polygon fill="none" stroke="black" points="182.5,-71 182.5,-101 286.5,-101 286.5,-71 182.5,-71"/>
<text text-anchor="start" x="190.5" y="-89" font-family="Helvetica,sans-Serif" font-size="10.00">Drone::translation</text>
<text text-anchor="middle" x="234.5" y="-78" font-family="Helvetica,sans-Serif" font-size="10.00">_to_pos</text>
</a>
</g>
</g>
<!-- Node1&#45;&gt;Node23 -->
<g id="edge32" class="edge">
<title>Node1&#45;&gt;Node23</title>
<path fill="none" stroke="midnightblue" d="M122.46,-112.54C138.68,-108.67 156.21,-104.48 172.46,-100.59"/>
<polygon fill="midnightblue" stroke="midnightblue" points="173.47,-103.95 182.38,-98.22 171.84,-97.14 173.47,-103.95"/>
</g>
<!-- Node3 -->
<g id="node3" class="node">
<title>Node3</title>
<g id="a_node3"><a xlink:href="class_cuboid.html#a773f92fecdf9686b951cf5736c83f318" target="_top" xlink:title="Metoda wczytywania odpowiednich wierzcholkow z pliku wzorcowego zgodnie z zaproponowanym sposobem zad...">
<polygon fill="none" stroke="black" points="365,-343 365,-373 485,-373 485,-343 365,-343"/>
<text text-anchor="start" x="373" y="-361" font-family="Helvetica,sans-Serif" font-size="10.00">Cuboid::Cuboid_From</text>
<text text-anchor="middle" x="425" y="-350" font-family="Helvetica,sans-Serif" font-size="10.00">_Sample</text>
</a>
</g>
</g>
<!-- Node2&#45;&gt;Node3 -->
<g id="edge2" class="edge">
<title>Node2&#45;&gt;Node3</title>
<path fill="none" stroke="midnightblue" d="M311.08,-358C325.51,-358 340.54,-358 354.75,-358"/>
<polygon fill="midnightblue" stroke="midnightblue" points="354.94,-361.5 364.94,-358 354.94,-354.5 354.94,-361.5"/>
</g>
<!-- Node8 -->
<g id="node8" class="node">
<title>Node8</title>
<g id="a_node8"><a xlink:href="class_drone.html#addf8532ee98ca800a64a78f3808fce98" target="_top" xlink:title="Metoda zwracajaca nazwy plikow do zapisu dla drona.">
<polygon fill="none" stroke="black" points="364.5,-304.5 364.5,-323.5 485.5,-323.5 485.5,-304.5 364.5,-304.5"/>
<text text-anchor="middle" x="425" y="-311.5" font-family="Helvetica,sans-Serif" font-size="10.00">Drone::get_filenames</text>
</a>
</g>
</g>
<!-- Node2&#45;&gt;Node8 -->
<g id="edge7" class="edge">
<title>Node2&#45;&gt;Node8</title>
<path fill="none" stroke="midnightblue" d="M276.4,-348.45C304.81,-341.82 342.86,-332.94 373.21,-325.86"/>
<polygon fill="midnightblue" stroke="midnightblue" points="374.24,-329.21 383.18,-323.53 372.64,-322.39 374.24,-329.21"/>
</g>
<!-- Node9 -->
<g id="node9" class="node">
<title>Node9</title>
<g id="a_node9"><a xlink:href="class_prism.html#a5e0a2234e9ebe3b51146c0ddc42e8b48" target="_top" xlink:title="Metoda wczytywania odpowiednich wierzcholkow z pliku wzorcowego zgodnie z zaproponowanym sposobem zad...">
<polygon fill="none" stroke="black" points="350,-392.5 350,-411.5 500,-411.5 500,-392.5 350,-392.5"/>
<text text-anchor="middle" x="425" y="-399.5" font-family="Helvetica,sans-Serif" font-size="10.00">Prism::Prism_From_Sample</text>
</a>
</g>
</g>
<!-- Node2&#45;&gt;Node9 -->
<g id="edge10" class="edge">
<title>Node2&#45;&gt;Node9</title>
<path fill="none" stroke="midnightblue" d="M276.4,-367.55C304.81,-374.18 342.86,-383.06 373.21,-390.14"/>
<polygon fill="midnightblue" stroke="midnightblue" points="372.64,-393.61 383.18,-392.47 374.24,-386.79 372.64,-393.61"/>
</g>
<!-- Node10 -->
<g id="node10" class="node">
<title>Node10</title>
<g id="a_node10"><a xlink:href="class_drone.html#add09c27034d4ff229cc22b58c443c0f4" target="_top" xlink:title="Metoda ustawiajaca nazwy plikow do zapisu dla drona.">
<polygon fill="none" stroke="black" points="359,-430.5 359,-449.5 491,-449.5 491,-430.5 359,-430.5"/>
<text text-anchor="middle" x="425" y="-437.5" font-family="Helvetica,sans-Serif" font-size="10.00">Drone::setup_filenames</text>
</a>
</g>
</g>
<!-- Node2&#45;&gt;Node10 -->
<g id="edge15" class="edge">
<title>Node2&#45;&gt;Node10</title>
<path fill="none" stroke="midnightblue" d="M249.66,-367.68C270.24,-381.36 310.01,-406.31 347,-421 353.28,-423.49 359.97,-425.73 366.7,-427.71"/>
<polygon fill="midnightblue" stroke="midnightblue" points="365.96,-431.14 376.53,-430.44 367.83,-424.39 365.96,-431.14"/>
</g>
<!-- Node4 -->
<g id="node4" class="node">
<title>Node4</title>
<g id="a_node4"><a xlink:href="class_block.html#aeef4dd3716afaea42688a4f96456ce27" target="_top" xlink:title="Metoda zwracajaca nazwe pliku z finalna (robocza) bryla">
<polygon fill="none" stroke="black" points="546.5,-316.5 546.5,-335.5 671.5,-335.5 671.5,-316.5 546.5,-316.5"/>
<text text-anchor="middle" x="609" y="-323.5" font-family="Helvetica,sans-Serif" font-size="10.00">Block::get_final_name</text>
</a>
</g>
</g>
<!-- Node3&#45;&gt;Node4 -->
<g id="edge3" class="edge">
<title>Node3&#45;&gt;Node4</title>
<path fill="none" stroke="midnightblue" d="M485.09,-347.61C503.83,-344.32 524.64,-340.66 543.72,-337.3"/>
<polygon fill="midnightblue" stroke="midnightblue" points="544.58,-340.7 553.83,-335.53 543.37,-333.81 544.58,-340.7"/>
</g>
<!-- Node5 -->
<g id="node5" class="node">
<title>Node5</title>
<g id="a_node5"><a xlink:href="class_block.html#aed17e0cb13b8eea50fe735ba05204da9" target="_top" xlink:title="Metoda zwracajaca nazwe pliku z wzorcowa bryla">
<polygon fill="none" stroke="black" points="539,-354.5 539,-373.5 679,-373.5 679,-354.5 539,-354.5"/>
<text text-anchor="middle" x="609" y="-361.5" font-family="Helvetica,sans-Serif" font-size="10.00">Block::get_sample_name</text>
</a>
</g>
</g>
<!-- Node3&#45;&gt;Node5 -->
<g id="edge4" class="edge">
<title>Node3&#45;&gt;Node5</title>
<path fill="none" stroke="midnightblue" d="M485.09,-359.95C499.01,-360.41 514.06,-360.9 528.7,-361.39"/>
<polygon fill="midnightblue" stroke="midnightblue" points="528.65,-364.89 538.76,-361.72 528.88,-357.89 528.65,-364.89"/>
</g>
<!-- Node6 -->
<g id="node6" class="node">
<title>Node6</title>
<g id="a_node6"><a xlink:href="class_block.html#a640a910076d8b10533a9a80d740f8f03" target="_top" xlink:title="Metoda zapisujaca do klasy nazwe pliku z finalna (robocza) bryla">
<polygon fill="none" stroke="black" points="547,-392.5 547,-411.5 671,-411.5 671,-392.5 547,-392.5"/>
<text text-anchor="middle" x="609" y="-399.5" font-family="Helvetica,sans-Serif" font-size="10.00">Block::set_final_name</text>
</a>
</g>
</g>
<!-- Node3&#45;&gt;Node6 -->
<g id="edge5" class="edge">
<title>Node3&#45;&gt;Node6</title>
<path fill="none" stroke="midnightblue" d="M485.09,-372.29C508.87,-378.03 535.98,-384.59 558.67,-390.07"/>
<polygon fill="midnightblue" stroke="midnightblue" points="557.89,-393.49 568.43,-392.43 559.54,-386.68 557.89,-393.49"/>
</g>
<!-- Node7 -->
<g id="node7" class="node">
<title>Node7</title>
<g id="a_node7"><a xlink:href="class_block.html#acf20b290f1543e580ff1f2c6d98ff4c4" target="_top" xlink:title="Metoda zapisujaca do klasy nazwe pliku z wzorcowa bryla">
<polygon fill="none" stroke="black" points="539.5,-430.5 539.5,-449.5 678.5,-449.5 678.5,-430.5 539.5,-430.5"/>
<text text-anchor="middle" x="609" y="-437.5" font-family="Helvetica,sans-Serif" font-size="10.00">Block::set_sample_name</text>
</a>
</g>
</g>
<!-- Node3&#45;&gt;Node7 -->
<g id="edge6" class="edge">
<title>Node3&#45;&gt;Node7</title>
<path fill="none" stroke="midnightblue" d="M483.39,-373.06C490.24,-375.88 496.94,-379.17 503,-383 522.67,-395.42 519.05,-409.03 539,-421 542.6,-423.16 546.44,-425.08 550.41,-426.78"/>
<polygon fill="midnightblue" stroke="midnightblue" points="549.24,-430.08 559.83,-430.39 551.75,-423.55 549.24,-430.08"/>
</g>
<!-- Node8&#45;&gt;Node4 -->
<g id="edge8" class="edge">
<title>Node8&#45;&gt;Node4</title>
<path fill="none" stroke="midnightblue" d="M485.59,-317.93C501.73,-318.99 519.38,-320.16 536.11,-321.26"/>
<polygon fill="midnightblue" stroke="midnightblue" points="536.19,-324.77 546.4,-321.94 536.65,-317.79 536.19,-324.77"/>
</g>
<!-- Node8&#45;&gt;Node5 -->
<g id="edge9" class="edge">
<title>Node8&#45;&gt;Node5</title>
<path fill="none" stroke="midnightblue" d="M464.08,-323.55C476.51,-326.76 490.37,-330.43 503,-334 519.1,-338.55 522.93,-340.33 539,-345 546.63,-347.22 554.76,-349.51 562.66,-351.71"/>
<polygon fill="midnightblue" stroke="midnightblue" points="561.92,-355.14 572.49,-354.43 563.78,-348.39 561.92,-355.14"/>
</g>
<!-- Node9&#45;&gt;Node4 -->
<g id="edge11" class="edge">
<title>Node9&#45;&gt;Node4</title>
<path fill="none" stroke="midnightblue" d="M481.36,-392.43C488.9,-389.97 496.34,-386.88 503,-383 523.11,-371.3 519.05,-356.97 539,-345 542.6,-342.84 546.44,-340.92 550.41,-339.22"/>
<polygon fill="midnightblue" stroke="midnightblue" points="551.75,-342.45 559.83,-335.61 549.24,-335.92 551.75,-342.45"/>
</g>
<!-- Node9&#45;&gt;Node5 -->
<g id="edge12" class="edge">
<title>Node9&#45;&gt;Node5</title>
<path fill="none" stroke="midnightblue" d="M471.93,-392.41C496.38,-387.31 526.63,-380.99 552.4,-375.61"/>
<polygon fill="midnightblue" stroke="midnightblue" points="553.33,-378.99 562.4,-373.52 551.9,-372.14 553.33,-378.99"/>
</g>
<!-- Node9&#45;&gt;Node6 -->
<g id="edge13" class="edge">
<title>Node9&#45;&gt;Node6</title>
<path fill="none" stroke="midnightblue" d="M500.03,-402C512.17,-402 524.74,-402 536.82,-402"/>
<polygon fill="midnightblue" stroke="midnightblue" points="536.83,-405.5 546.83,-402 536.83,-398.5 536.83,-405.5"/>
</g>
<!-- Node9&#45;&gt;Node7 -->
<g id="edge14" class="edge">
<title>Node9&#45;&gt;Node7</title>
<path fill="none" stroke="midnightblue" d="M471.93,-411.59C496.38,-416.69 526.63,-423.01 552.4,-428.39"/>
<polygon fill="midnightblue" stroke="midnightblue" points="551.9,-431.86 562.4,-430.48 553.33,-425.01 551.9,-431.86"/>
</g>
<!-- Node10&#45;&gt;Node6 -->
<g id="edge16" class="edge">
<title>Node10&#45;&gt;Node6</title>
<path fill="none" stroke="midnightblue" d="M471.93,-430.41C496.38,-425.31 526.63,-418.99 552.4,-413.61"/>
<polygon fill="midnightblue" stroke="midnightblue" points="553.33,-416.99 562.4,-411.52 551.9,-410.14 553.33,-416.99"/>
</g>
<!-- Node10&#45;&gt;Node7 -->
<g id="edge17" class="edge">
<title>Node10&#45;&gt;Node7</title>
<path fill="none" stroke="midnightblue" d="M491.19,-440C503.51,-440 516.51,-440 529.19,-440"/>
<polygon fill="midnightblue" stroke="midnightblue" points="529.27,-443.5 539.27,-440 529.27,-436.5 529.27,-443.5"/>
</g>
<!-- Node12 -->
<g id="node12" class="node">
<title>Node12</title>
<g id="a_node12"><a xlink:href="class_prism.html#a22c5467db5d960bddbaf9a52f55c55cb" target="_top" xlink:title="Metoda obracajaca graniastoslup o zadany kat w 3D wokol srodka figury">
<polygon fill="none" stroke="black" points="350,-240.5 350,-259.5 500,-259.5 500,-240.5 350,-240.5"/>
<text text-anchor="middle" x="425" y="-247.5" font-family="Helvetica,sans-Serif" font-size="10.00">Prism::rotation_around_cen</text>
</a>
</g>
</g>
<!-- Node11&#45;&gt;Node12 -->
<g id="edge19" class="edge">
<title>Node11&#45;&gt;Node12</title>
<path fill="none" stroke="midnightblue" d="M253.23,-158.5C286.35,-176.25 357.79,-214.52 396.96,-235.51"/>
<polygon fill="midnightblue" stroke="midnightblue" points="395.71,-238.81 406.18,-240.45 399.01,-232.64 395.71,-238.81"/>
</g>
<!-- Node15 -->
<g id="node15" class="node">
<title>Node15</title>
<g id="a_node15"><a xlink:href="class_cuboid.html#a6c697c2d9b36a14c43c7328876d5a1f0" target="_top" xlink:title="Metoda obracajaca prostopadloscian o zadany kat w 3D wokol srodka figury">
<polygon fill="none" stroke="black" points="347,-114.5 347,-133.5 503,-133.5 503,-114.5 347,-114.5"/>
<text text-anchor="middle" x="425" y="-121.5" font-family="Helvetica,sans-Serif" font-size="10.00">Cuboid::rotation_around_cen</text>
</a>
</g>
</g>
<!-- Node11&#45;&gt;Node15 -->
<g id="edge23" class="edge">
<title>Node11&#45;&gt;Node15</title>
<path fill="none" stroke="midnightblue" d="M307.3,-139.48C318.65,-137.97 330.46,-136.41 342.01,-134.87"/>
<polygon fill="midnightblue" stroke="midnightblue" points="342.63,-138.32 352.09,-133.54 341.71,-131.38 342.63,-138.32"/>
</g>
<!-- Node18 -->
<g id="node18" class="node">
<title>Node18</title>
<g id="a_node18"><a xlink:href="class_drone.html#aea963b77f42c204504542a3d9190d762" target="_top" xlink:title="Metoda uzywana przy konstruowania drona Ustawia rotory w ten sposob, ze srodek ich dolnej podstawy je...">
<polygon fill="none" stroke="black" points="367.5,-153 367.5,-183 482.5,-183 482.5,-153 367.5,-153"/>
<text text-anchor="start" x="375.5" y="-171" font-family="Helvetica,sans-Serif" font-size="10.00">Drone::set_rotors_in</text>
<text text-anchor="middle" x="425" y="-160" font-family="Helvetica,sans-Serif" font-size="10.00">_place</text>
</a>
</g>
</g>
<!-- Node11&#45;&gt;Node18 -->
<g id="edge26" class="edge">
<title>Node11&#45;&gt;Node18</title>
<path fill="none" stroke="midnightblue" d="M310.54,-156.56C325.89,-158.11 341.95,-159.73 357,-161.25"/>
<polygon fill="midnightblue" stroke="midnightblue" points="356.93,-164.76 367.23,-162.28 357.63,-157.79 356.93,-164.76"/>
</g>
<!-- Node13 -->
<g id="node13" class="node">
<title>Node13</title>
<g id="a_node13"><a xlink:href="class_prism.html#ade146d341c0468030f8c1258b7fe1041" target="_top" xlink:title="Metoda przesuwajaca graniastoslup o zadany wektor w 3D">
<polygon fill="none" stroke="black" points="715,-199.5 715,-218.5 818,-218.5 818,-199.5 715,-199.5"/>
<text text-anchor="middle" x="766.5" y="-206.5" font-family="Helvetica,sans-Serif" font-size="10.00">Prism::translation</text>
</a>
</g>
</g>
<!-- Node12&#45;&gt;Node13 -->
<g id="edge20" class="edge">
<title>Node12&#45;&gt;Node13</title>
<path fill="none" stroke="midnightblue" d="M500.02,-247.84C550.68,-245.53 619.23,-240.77 679,-231 693.64,-228.61 709.44,-224.93 723.47,-221.26"/>
<polygon fill="midnightblue" stroke="midnightblue" points="724.58,-224.58 733.33,-218.6 722.77,-217.82 724.58,-224.58"/>
</g>
<!-- Node14 -->
<g id="node14" class="node">
<title>Node14</title>
<g id="a_node14"><a xlink:href="class_prism.html#afed2c26932d5cb152fd620d2acbfbc3e" target="_top" xlink:title="Metoda przesuwajaca graniastoslup do srodka ukladu wspolrzednych (tak, ze srodek graniastoslupa pokry...">
<polygon fill="none" stroke="black" points="543.5,-278.5 543.5,-297.5 674.5,-297.5 674.5,-278.5 543.5,-278.5"/>
<text text-anchor="middle" x="609" y="-285.5" font-family="Helvetica,sans-Serif" font-size="10.00">Prism::translation_to_O</text>
</a>
</g>
</g>
<!-- Node12&#45;&gt;Node14 -->
<g id="edge21" class="edge">
<title>Node12&#45;&gt;Node14</title>
<path fill="none" stroke="midnightblue" d="M471.93,-259.59C496.38,-264.69 526.63,-271.01 552.4,-276.39"/>
<polygon fill="midnightblue" stroke="midnightblue" points="551.9,-279.86 562.4,-278.48 553.33,-273.01 551.9,-279.86"/>
</g>
<!-- Node14&#45;&gt;Node13 -->
<g id="edge22" class="edge">
<title>Node14&#45;&gt;Node13</title>
<path fill="none" stroke="midnightblue" d="M642.57,-278.39C654.3,-274.49 667.47,-269.58 679,-264 702.25,-252.75 726.94,-236.58 743.96,-224.69"/>
<polygon fill="midnightblue" stroke="midnightblue" points="746.44,-227.22 752.57,-218.57 742.39,-221.51 746.44,-227.22"/>
</g>
<!-- Node16 -->
<g id="node16" class="node">
<title>Node16</title>
<g id="a_node16"><a xlink:href="class_cuboid.html#a3f6b1b9ea7de433af5b0d462d29f4272" target="_top" xlink:title="Metoda przesuwajaca prostopadloscian o zadany kat w 3D">
<polygon fill="none" stroke="black" points="554.5,-76.5 554.5,-95.5 663.5,-95.5 663.5,-76.5 554.5,-76.5"/>
<text text-anchor="middle" x="609" y="-83.5" font-family="Helvetica,sans-Serif" font-size="10.00">Cuboid::translation</text>
</a>
</g>
</g>
<!-- Node15&#45;&gt;Node16 -->
<g id="edge24" class="edge">
<title>Node15&#45;&gt;Node16</title>
<path fill="none" stroke="midnightblue" d="M471.93,-114.41C496.38,-109.31 526.63,-102.99 552.4,-97.61"/>
<polygon fill="midnightblue" stroke="midnightblue" points="553.33,-100.99 562.4,-95.52 551.9,-94.14 553.33,-100.99"/>
</g>
<!-- Node17 -->
<g id="node17" class="node">
<title>Node17</title>
<g id="a_node17"><a xlink:href="class_cuboid.html#a42bdce7c214e759cb6ea94d4f547a5b9" target="_top" xlink:title="Metoda przesuwajaca prostopadloscian do (0,0,0)">
<polygon fill="none" stroke="black" points="540.5,-114.5 540.5,-133.5 677.5,-133.5 677.5,-114.5 540.5,-114.5"/>
<text text-anchor="middle" x="609" y="-121.5" font-family="Helvetica,sans-Serif" font-size="10.00">Cuboid::translation_to_O</text>
</a>
</g>
</g>
<!-- Node15&#45;&gt;Node17 -->
<g id="edge25" class="edge">
<title>Node15&#45;&gt;Node17</title>
<path fill="none" stroke="midnightblue" d="M503.18,-124C512.19,-124 521.39,-124 530.41,-124"/>
<polygon fill="midnightblue" stroke="midnightblue" points="530.49,-127.5 540.49,-124 530.49,-120.5 530.49,-127.5"/>
</g>
<!-- Node19 -->
<g id="node19" class="node">
<title>Node19</title>
<g id="a_node19"><a xlink:href="class_cuboid.html#a99d30564d6129e6905c5333e04df9606" target="_top" xlink:title="Metoda zwracajaca wierzcholki prostopadloscianu do Vector3D">
<polygon fill="none" stroke="black" points="561.5,-202.5 561.5,-221.5 656.5,-221.5 656.5,-202.5 561.5,-202.5"/>
<text text-anchor="middle" x="609" y="-209.5" font-family="Helvetica,sans-Serif" font-size="10.00">Cuboid::get_cub</text>
</a>
</g>
</g>
<!-- Node18&#45;&gt;Node19 -->
<g id="edge27" class="edge">
<title>Node18&#45;&gt;Node19</title>
<path fill="none" stroke="midnightblue" d="M482.59,-181.68C506.97,-187.57 535.21,-194.4 558.71,-200.08"/>
<polygon fill="midnightblue" stroke="midnightblue" points="557.93,-203.5 568.47,-202.44 559.57,-196.69 557.93,-203.5"/>
</g>
<!-- Node20 -->
<g id="node20" class="node">
<title>Node20</title>
<g id="a_node20"><a xlink:href="class_prism.html#a4e2b0b9c37d6a53af869522a4bf364ac" target="_top" xlink:title="Metoda przesuwajaca graniastoslup o zadany wektor w 3D w taki sposob, ze srodek jego dolnej podstawy ...">
<polygon fill="none" stroke="black" points="557.5,-153 557.5,-183 660.5,-183 660.5,-153 557.5,-153"/>
<text text-anchor="start" x="565.5" y="-171" font-family="Helvetica,sans-Serif" font-size="10.00">Prism::translation</text>
<text text-anchor="middle" x="609" y="-160" font-family="Helvetica,sans-Serif" font-size="10.00">_of_lower_cen</text>
</a>
</g>
</g>
<!-- Node18&#45;&gt;Node20 -->
<g id="edge28" class="edge">
<title>Node18&#45;&gt;Node20</title>
<path fill="none" stroke="midnightblue" d="M482.59,-168C503.12,-168 526.4,-168 547.28,-168"/>
<polygon fill="midnightblue" stroke="midnightblue" points="547.31,-171.5 557.31,-168 547.31,-164.5 547.31,-171.5"/>
</g>
<!-- Node20&#45;&gt;Node13 -->
<g id="edge29" class="edge">
<title>Node20&#45;&gt;Node13</title>
<path fill="none" stroke="midnightblue" d="M660.92,-181.42C679.75,-186.39 700.98,-191.99 719.36,-196.84"/>
<polygon fill="midnightblue" stroke="midnightblue" points="718.69,-200.28 729.25,-199.44 720.47,-193.51 718.69,-200.28"/>
</g>
<!-- Node22 -->
<g id="node22" class="node">
<title>Node22</title>
<g id="a_node22"><a xlink:href="class_cuboid.html#a08fae08a1c8c70ada48ce3af46c82eee" target="_top" xlink:title="Metoda zwracajaca wysokosc prostopadloscianu">
<polygon fill="none" stroke="black" points="371,-0.5 371,-19.5 479,-19.5 479,-0.5 371,-0.5"/>
<text text-anchor="middle" x="425" y="-7.5" font-family="Helvetica,sans-Serif" font-size="10.00">Cuboid::get_height</text>
</a>
</g>
</g>
<!-- Node21&#45;&gt;Node22 -->
<g id="edge31" class="edge">
<title>Node21&#45;&gt;Node22</title>
<path fill="none" stroke="midnightblue" d="M295.66,-20.89C316.4,-19.13 339.69,-17.16 360.67,-15.38"/>
<polygon fill="midnightblue" stroke="midnightblue" points="361.1,-18.85 370.77,-14.52 360.51,-11.88 361.1,-18.85"/>
</g>
<!-- Node24 -->
<g id="node24" class="node">
<title>Node24</title>
<g id="a_node24"><a xlink:href="class_cuboid.html#aafa18740d9c98ca928395b9873a9c63d" target="_top" xlink:title="Metoda zwracajaca punkt centralny (czyli taki, ktorego odleglosci do kazdego wierzcholka sa rowne) pr...">
<polygon fill="none" stroke="black" points="366.5,-38.5 366.5,-57.5 483.5,-57.5 483.5,-38.5 366.5,-38.5"/>
<text text-anchor="middle" x="425" y="-45.5" font-family="Helvetica,sans-Serif" font-size="10.00">Cuboid::centre_point</text>
</a>
</g>
</g>
<!-- Node23&#45;&gt;Node24 -->
<g id="edge33" class="edge">
<title>Node23&#45;&gt;Node24</title>
<path fill="none" stroke="midnightblue" d="M286.51,-75.72C311.34,-70.71 341.29,-64.67 366.89,-59.51"/>
<polygon fill="midnightblue" stroke="midnightblue" points="367.72,-62.92 376.83,-57.51 366.34,-56.05 367.72,-62.92"/>
</g>
<!-- Node25 -->
<g id="node25" class="node">
<title>Node25</title>
<g id="a_node25"><a xlink:href="class_drone.html#a9684cd7ce04b7e6191f3d6b3a745370b" target="_top" xlink:title="Przesuwa drona o zadany wektor w 3D">
<polygon fill="none" stroke="black" points="373,-76.5 373,-95.5 477,-95.5 477,-76.5 373,-76.5"/>
<text text-anchor="middle" x="425" y="-83.5" font-family="Helvetica,sans-Serif" font-size="10.00">Drone::translation</text>
</a>
</g>
</g>
<!-- Node23&#45;&gt;Node25 -->
<g id="edge34" class="edge">
<title>Node23&#45;&gt;Node25</title>
<path fill="none" stroke="midnightblue" d="M286.51,-86C309.98,-86 338.02,-86 362.63,-86"/>
<polygon fill="midnightblue" stroke="midnightblue" points="362.95,-89.5 372.95,-86 362.95,-82.5 362.95,-89.5"/>
</g>
<!-- Node25&#45;&gt;Node13 -->
<g id="edge35" class="edge">
<title>Node25&#45;&gt;Node13</title>
<path fill="none" stroke="midnightblue" d="M472.36,-76.49C535.55,-64.53 644.77,-47.77 679,-67 726.05,-93.43 750.51,-156.99 760.29,-189.35"/>
<polygon fill="midnightblue" stroke="midnightblue" points="757.04,-190.73 763.14,-199.39 763.77,-188.81 757.04,-190.73"/>
</g>
<!-- Node25&#45;&gt;Node16 -->
<g id="edge36" class="edge">
<title>Node25&#45;&gt;Node16</title>
<path fill="none" stroke="midnightblue" d="M477.18,-86C497.97,-86 522.2,-86 544.13,-86"/>
<polygon fill="midnightblue" stroke="midnightblue" points="544.35,-89.5 554.35,-86 544.35,-82.5 544.35,-89.5"/>
</g>
</g>
</svg>
