<?xml version="1.0" encoding="UTF-8" standalone="no"?>
<!DOCTYPE svg PUBLIC "-//W3C//DTD SVG 1.1//EN"
 "http://www.w3.org/Graphics/SVG/1.1/DTD/svg11.dtd">
<!-- Generated by graphviz version 2.43.0 (0)
 -->
<!-- Title: Cuboid::scale_cub Pages: 1 -->
<svg width="384pt" height="180pt"
 viewBox="0.00 0.00 384.00 180.00" xmlns="http://www.w3.org/2000/svg" xmlns:xlink="http://www.w3.org/1999/xlink">
<g id="graph0" class="graph" transform="scale(1 1) rotate(0) translate(4 176)">
<title>Cuboid::scale_cub</title>
<!-- Node1 -->
<g id="node1" class="node">
<title>Node1</title>
<g id="a_node1"><a xlink:title="Metoda skalujaca o wektor scale bedacy czlonkiem klasy block">
<polygon fill="#bfbfbf" stroke="black" points="272,-76.5 272,-95.5 376,-95.5 376,-76.5 272,-76.5"/>
<text text-anchor="middle" x="324" y="-83.5" font-family="Helvetica,sans-Serif" font-size="10.00">Cuboid::scale_cub</text>
</a>
</g>
</g>
<!-- Node2 -->
<g id="node2" class="node">
<title>Node2</title>
<g id="a_node2"><a xlink:href="class_cuboid.html#acb4ad8abd1f7f810d2512ff9ce1f9717" target="_top" xlink:title="Konstruktor bezparametryczny klasy Cuboid. Powstaly prostopadloscian ma dwa prostokaty &quot;tworzace&quot;: p1...">
<polygon fill="none" stroke="black" points="131.5,-152.5 131.5,-171.5 221.5,-171.5 221.5,-152.5 131.5,-152.5"/>
<text text-anchor="middle" x="176.5" y="-159.5" font-family="Helvetica,sans-Serif" font-size="10.00">Cuboid::Cuboid</text>
</a>
</g>
</g>
<!-- Node1&#45;&gt;Node2 -->
<g id="edge1" class="edge">
<title>Node1&#45;&gt;Node2</title>
<path fill="none" stroke="midnightblue" d="M302.54,-101.66C285.47,-114.16 260.13,-131.43 236,-143 228.49,-146.6 220.12,-149.77 212.12,-152.44"/>
<polygon fill="midnightblue" stroke="midnightblue" points="304.73,-104.4 310.66,-95.62 300.55,-98.78 304.73,-104.4"/>
</g>
<!-- Node3 -->
<g id="node3" class="node">
<title>Node3</title>
<g id="a_node3"><a xlink:href="class_drone.html#ab692baa4be5c43b72990ce1b01bdc805" target="_top" xlink:title="Konstruktor bezparametryczny klasy Drone. Powstaly dron jest skonstruowany z bezparametrycznych prost...">
<polygon fill="none" stroke="black" points="136,-114.5 136,-133.5 217,-133.5 217,-114.5 136,-114.5"/>
<text text-anchor="middle" x="176.5" y="-121.5" font-family="Helvetica,sans-Serif" font-size="10.00">Drone::Drone</text>
</a>
</g>
</g>
<!-- Node1&#45;&gt;Node3 -->
<g id="edge2" class="edge">
<title>Node1&#45;&gt;Node3</title>
<path fill="none" stroke="midnightblue" d="M276.35,-98.18C256.15,-103.46 232.85,-109.54 213.95,-114.48"/>
<polygon fill="midnightblue" stroke="midnightblue" points="277.49,-101.5 286.28,-95.59 275.72,-94.73 277.49,-101.5"/>
</g>
<!-- Node4 -->
<g id="node4" class="node">
<title>Node4</title>
<g id="a_node4"><a xlink:href="class_pyramid.html#a188d1f3cca17418b95ae771dedc99f4a" target="_top" xlink:title="Konstruktor parametryczny klasy Pyramid. Powstaly ostroslupa ma jeden prostokat &quot;tworzacy&quot;: p1 = [0][...">
<polygon fill="none" stroke="black" points="124.5,-76.5 124.5,-95.5 228.5,-95.5 228.5,-76.5 124.5,-76.5"/>
<text text-anchor="middle" x="176.5" y="-83.5" font-family="Helvetica,sans-Serif" font-size="10.00">Pyramid::Pyramid</text>
</a>
</g>
</g>
<!-- Node1&#45;&gt;Node4 -->
<g id="edge3" class="edge">
<title>Node1&#45;&gt;Node4</title>
<path fill="none" stroke="midnightblue" d="M261.43,-86C250.57,-86 239.37,-86 228.83,-86"/>
<polygon fill="midnightblue" stroke="midnightblue" points="261.7,-89.5 271.7,-86 261.7,-82.5 261.7,-89.5"/>
</g>
<!-- Node5 -->
<g id="node5" class="node">
<title>Node5</title>
<g id="a_node5"><a xlink:href="class_drone.html#a77142062fb8a8af87df42b5c2e7e44e0" target="_top" xlink:title="Metoda skalujaca wszystkie elementy drona przez skale kazdego elementu">
<polygon fill="none" stroke="black" points="127.5,-38.5 127.5,-57.5 225.5,-57.5 225.5,-38.5 127.5,-38.5"/>
<text text-anchor="middle" x="176.5" y="-45.5" font-family="Helvetica,sans-Serif" font-size="10.00">Drone::scale_dro</text>
</a>
</g>
</g>
<!-- Node1&#45;&gt;Node5 -->
<g id="edge4" class="edge">
<title>Node1&#45;&gt;Node5</title>
<path fill="none" stroke="midnightblue" d="M276.35,-73.82C256.15,-68.54 232.85,-62.46 213.95,-57.52"/>
<polygon fill="midnightblue" stroke="midnightblue" points="275.72,-77.27 286.28,-76.41 277.49,-70.5 275.72,-77.27"/>
</g>
<!-- Node7 -->
<g id="node7" class="node">
<title>Node7</title>
<g id="a_node7"><a xlink:href="class_triangular.html#ad377db3bde29ea96fdc04fd3b645c07a" target="_top" xlink:title="Konstruktor parametryczny klasy Triangular. Powstaje ostroslup jak z konstruktora parametrycznego,...">
<polygon fill="none" stroke="black" points="117,-0.5 117,-19.5 236,-19.5 236,-0.5 117,-0.5"/>
<text text-anchor="middle" x="176.5" y="-7.5" font-family="Helvetica,sans-Serif" font-size="10.00">Triangular::Triangular</text>
</a>
</g>
</g>
<!-- Node1&#45;&gt;Node7 -->
<g id="edge6" class="edge">
<title>Node1&#45;&gt;Node7</title>
<path fill="none" stroke="midnightblue" d="M302.54,-70.34C285.47,-57.84 260.13,-40.57 236,-29 228.49,-25.4 220.12,-22.23 212.12,-19.56"/>
<polygon fill="midnightblue" stroke="midnightblue" points="300.55,-73.22 310.66,-76.38 304.73,-67.6 300.55,-73.22"/>
</g>
<!-- Node6 -->
<g id="node6" class="node">
<title>Node6</title>
<g id="a_node6"><a xlink:href="class_scene.html#adca9214dccab3d77eed9d8af7db67f94" target="_top" xlink:title="Konstruktor paramereyczny klasy Scene.">
<polygon fill="none" stroke="black" points="0,-38.5 0,-57.5 81,-57.5 81,-38.5 0,-38.5"/>
<text text-anchor="middle" x="40.5" y="-45.5" font-family="Helvetica,sans-Serif" font-size="10.00">Scene::Scene</text>
</a>
</g>
</g>
<!-- Node5&#45;&gt;Node6 -->
<g id="edge5" class="edge">
<title>Node5&#45;&gt;Node6</title>
<path fill="none" stroke="midnightblue" d="M117.02,-48C104.85,-48 92.3,-48 81,-48"/>
<polygon fill="midnightblue" stroke="midnightblue" points="117.12,-51.5 127.12,-48 117.12,-44.5 117.12,-51.5"/>
</g>
</g>
</svg>
