<?xml version="1.0" encoding="UTF-8" standalone="no"?>
<!DOCTYPE svg PUBLIC "-//W3C//DTD SVG 1.1//EN"
 "http://www.w3.org/Graphics/SVG/1.1/DTD/svg11.dtd">
<!-- Generated by graphviz version 2.43.0 (0)
 -->
<!-- Title: Scene::check_objects_intersect Pages: 1 -->
<svg width="656pt" height="53pt"
 viewBox="0.00 0.00 656.00 52.50" xmlns="http://www.w3.org/2000/svg" xmlns:xlink="http://www.w3.org/1999/xlink">
<g id="graph0" class="graph" transform="scale(1 1) rotate(0) translate(4 48.5)">
<title>Scene::check_objects_intersect</title>
<!-- Node1 -->
<g id="node1" class="node">
<title>Node1</title>
<g id="a_node1"><a xlink:title="Sprawdza czy jakis objekt koliduje z dronem jesli ten mialby wyladowac w danym miejscu">
<polygon fill="#bfbfbf" stroke="black" points="527,-14 527,-44 648,-44 648,-14 527,-14"/>
<text text-anchor="start" x="535" y="-32" font-family="Helvetica,sans-Serif" font-size="10.00">Scene::check_objects</text>
<text text-anchor="middle" x="587.5" y="-21" font-family="Helvetica,sans-Serif" font-size="10.00">_intersect</text>
</a>
</g>
</g>
<!-- Node2 -->
<g id="node2" class="node">
<title>Node2</title>
<g id="a_node2"><a xlink:href="class_scene.html#a5fb0b9741a75dec929b5ea5d6ac917a1" target="_top" xlink:title="Przelot aktywnego drona.">
<polygon fill="none" stroke="black" points="284,-19.5 284,-38.5 348,-38.5 348,-19.5 284,-19.5"/>
<text text-anchor="middle" x="316" y="-26.5" font-family="Helvetica,sans-Serif" font-size="10.00">Scene::fly</text>
</a>
</g>
</g>
<!-- Node1&#45;&gt;Node2 -->
<g id="edge1" class="edge">
<title>Node1&#45;&gt;Node2</title>
<path fill="none" stroke="midnightblue" d="M516.4,-29C461.95,-29 389.04,-29 348.16,-29"/>
<polygon fill="midnightblue" stroke="midnightblue" points="516.69,-32.5 526.69,-29 516.69,-25.5 516.69,-32.5"/>
</g>
<!-- Node5 -->
<g id="node5" class="node">
<title>Node5</title>
<g id="a_node5"><a xlink:href="class_scene.html#aa5fc0e5a94bfa0766f6e5ff10993630d" target="_top" xlink:title="Skanowanie powierzchni pod dronem, gdy dron nie moze wyladowac w danym miejscu &#160;&#160;Rysowany jest rownie...">
<polygon fill="none" stroke="black" points="384,-0.5 384,-19.5 491,-19.5 491,-0.5 384,-0.5"/>
<text text-anchor="middle" x="437.5" y="-7.5" font-family="Helvetica,sans-Serif" font-size="10.00">Scene::scan_plane</text>
</a>
</g>
</g>
<!-- Node1&#45;&gt;Node5 -->
<g id="edge4" class="edge">
<title>Node1&#45;&gt;Node5</title>
<path fill="none" stroke="midnightblue" d="M516.76,-20.05C508.21,-18.95 499.58,-17.84 491.34,-16.78"/>
<polygon fill="midnightblue" stroke="midnightblue" points="516.37,-23.52 526.73,-21.33 517.26,-16.58 516.37,-23.52"/>
</g>
<!-- Node3 -->
<g id="node3" class="node">
<title>Node3</title>
<g id="a_node3"><a xlink:href="class_menu.html#acd338552222b744cd030e17776cb5d9b" target="_top" xlink:title="Obsluguje wybor menu.">
<polygon fill="none" stroke="black" points="134,-19.5 134,-38.5 248,-38.5 248,-19.5 134,-19.5"/>
<text text-anchor="middle" x="191" y="-26.5" font-family="Helvetica,sans-Serif" font-size="10.00">Menu::switch_menu</text>
</a>
</g>
</g>
<!-- Node2&#45;&gt;Node3 -->
<g id="edge2" class="edge">
<title>Node2&#45;&gt;Node3</title>
<path fill="none" stroke="midnightblue" d="M273.93,-29C265.75,-29 257.01,-29 248.42,-29"/>
<polygon fill="midnightblue" stroke="midnightblue" points="273.96,-32.5 283.96,-29 273.96,-25.5 273.96,-32.5"/>
</g>
<!-- Node4 -->
<g id="node4" class="node">
<title>Node4</title>
<g id="a_node4"><a xlink:href="class_menu.html#af7e6a49bd56499facef9cc98561ea169" target="_top" xlink:title="Inicjuje i obsluguje menu.">
<polygon fill="none" stroke="black" points="0,-19.5 0,-38.5 98,-38.5 98,-19.5 0,-19.5"/>
<text text-anchor="middle" x="49" y="-26.5" font-family="Helvetica,sans-Serif" font-size="10.00">Menu::init_menu</text>
</a>
</g>
</g>
<!-- Node3&#45;&gt;Node4 -->
<g id="edge3" class="edge">
<title>Node3&#45;&gt;Node4</title>
<path fill="none" stroke="midnightblue" d="M123.75,-29C115.08,-29 106.33,-29 98.04,-29"/>
<polygon fill="midnightblue" stroke="midnightblue" points="123.86,-32.5 133.86,-29 123.86,-25.5 123.86,-32.5"/>
</g>
<!-- Node5&#45;&gt;Node2 -->
<g id="edge5" class="edge">
<title>Node5&#45;&gt;Node2</title>
<path fill="none" stroke="midnightblue" d="M373.74,-19.98C364.88,-21.39 356.12,-22.78 348.22,-24.04"/>
<polygon fill="midnightblue" stroke="midnightblue" points="374.41,-23.42 383.74,-18.39 373.31,-16.5 374.41,-23.42"/>
</g>
</g>
</svg>
