<?xml version="1.0" encoding="UTF-8" standalone="no"?>
<!DOCTYPE svg PUBLIC "-//W3C//DTD SVG 1.1//EN"
 "http://www.w3.org/Graphics/SVG/1.1/DTD/svg11.dtd">
<!-- Generated by graphviz version 2.43.0 (0)
 -->
<!-- Title: Prism::get_basis_centre Pages: 1 -->
<svg width="460pt" height="104pt"
 viewBox="0.00 0.00 460.00 104.00" xmlns="http://www.w3.org/2000/svg" xmlns:xlink="http://www.w3.org/1999/xlink">
<g id="graph0" class="graph" transform="scale(1 1) rotate(0) translate(4 100)">
<title>Prism::get_basis_centre</title>
<!-- Node1 -->
<g id="node1" class="node">
<title>Node1</title>
<g id="a_node1"><a xlink:title="Metoda zwracajaca srodek podstawy ostroslupa">
<polygon fill="#bfbfbf" stroke="black" points="319,-38.5 319,-57.5 452,-57.5 452,-38.5 319,-38.5"/>
<text text-anchor="middle" x="385.5" y="-45.5" font-family="Helvetica,sans-Serif" font-size="10.00">Prism::get_basis_centre</text>
</a>
</g>
</g>
<!-- Node2 -->
<g id="node2" class="node">
<title>Node2</title>
<g id="a_node2"><a xlink:href="class_drone.html#ac594f008df2186167f0a6293288ccbea" target="_top" xlink:title="Methoda sprawdzajaca czy rzutowanie drona na plaszczyzne XY &#160;&#160;przecina sie z rzutowaniem granistoslup...">
<polygon fill="none" stroke="black" points="140,-76.5 140,-95.5 283,-95.5 283,-76.5 140,-76.5"/>
<text text-anchor="middle" x="211.5" y="-83.5" font-family="Helvetica,sans-Serif" font-size="10.00">Drone::check_intersection</text>
</a>
</g>
</g>
<!-- Node1&#45;&gt;Node2 -->
<g id="edge1" class="edge">
<title>Node1&#45;&gt;Node2</title>
<path fill="none" stroke="midnightblue" d="M331.3,-59.75C306.98,-65.13 278.55,-71.41 255.59,-76.48"/>
<polygon fill="midnightblue" stroke="midnightblue" points="332.09,-63.16 341.1,-57.59 330.58,-56.33 332.09,-63.16"/>
</g>
<!-- Node3 -->
<g id="node3" class="node">
<title>Node3</title>
<g id="a_node3"><a xlink:href="class_prism.html#acdbef3f647d4cb196aff468f43382ac5" target="_top" xlink:title="Zwraca pozycje obiektu do Vector3D">
<polygon fill="none" stroke="black" points="167,-38.5 167,-57.5 256,-57.5 256,-38.5 167,-38.5"/>
<text text-anchor="middle" x="211.5" y="-45.5" font-family="Helvetica,sans-Serif" font-size="10.00">Prism::get_pos</text>
</a>
</g>
</g>
<!-- Node1&#45;&gt;Node3 -->
<g id="edge2" class="edge">
<title>Node1&#45;&gt;Node3</title>
<path fill="none" stroke="midnightblue" d="M308.75,-48C290.69,-48 272.03,-48 256,-48"/>
<polygon fill="midnightblue" stroke="midnightblue" points="308.98,-51.5 318.98,-48 308.98,-44.5 308.98,-51.5"/>
</g>
<!-- Node5 -->
<g id="node5" class="node">
<title>Node5</title>
<g id="a_node5"><a xlink:href="class_prism.html#a3e4405a0c5bbbfa00effdca79c81106a" target="_top" xlink:title="Wypisuje pozycje (x,y) obiektu">
<polygon fill="none" stroke="black" points="164,-0.5 164,-19.5 259,-19.5 259,-0.5 164,-0.5"/>
<text text-anchor="middle" x="211.5" y="-7.5" font-family="Helvetica,sans-Serif" font-size="10.00">Prism::print_pos</text>
</a>
</g>
</g>
<!-- Node1&#45;&gt;Node5 -->
<g id="edge4" class="edge">
<title>Node1&#45;&gt;Node5</title>
<path fill="none" stroke="midnightblue" d="M331.3,-36.25C306.98,-30.87 278.55,-24.59 255.59,-19.52"/>
<polygon fill="midnightblue" stroke="midnightblue" points="330.58,-39.67 341.1,-38.41 332.09,-32.84 330.58,-39.67"/>
</g>
<!-- Node4 -->
<g id="node4" class="node">
<title>Node4</title>
<g id="a_node4"><a xlink:href="class_prism.html#a8a80c4334810ad934e6e43bb5ee14f07" target="_top" xlink:title="Zmiana pozycji obiektu na plaszczyznie XY na nowe wspolrzedne.">
<polygon fill="none" stroke="black" points="0,-38.5 0,-57.5 104,-57.5 104,-38.5 0,-38.5"/>
<text text-anchor="middle" x="52" y="-45.5" font-family="Helvetica,sans-Serif" font-size="10.00">Prism::switch_pos</text>
</a>
</g>
</g>
<!-- Node3&#45;&gt;Node4 -->
<g id="edge3" class="edge">
<title>Node3&#45;&gt;Node4</title>
<path fill="none" stroke="midnightblue" d="M156.35,-48C139.44,-48 120.85,-48 104.16,-48"/>
<polygon fill="midnightblue" stroke="midnightblue" points="156.63,-51.5 166.63,-48 156.63,-44.5 156.63,-51.5"/>
</g>
</g>
</svg>
