<?xml version="1.0" encoding="UTF-8" standalone="no"?>
<!DOCTYPE svg PUBLIC "-//W3C//DTD SVG 1.1//EN"
 "http://www.w3.org/Graphics/SVG/1.1/DTD/svg11.dtd">
<!-- Generated by graphviz version 2.43.0 (0)
 -->
<!-- Title: Vector::get_vec Pages: 1 -->
<!--zoomable 263 -->
<svg id="main" version="1.1" xmlns="http://www.w3.org/2000/svg" xmlns:xlink="http://www.w3.org/1999/xlink" xml:space="preserve" onload="init(evt)">
<style type="text/css"><![CDATA[
.edge:hover path { stroke: red; }
.edge:hover polygon { stroke: red; fill: red; }
]]></style>
<script type="text/javascript"><![CDATA[
var edges = document.getElementsByTagName('g');
if (edges && edges.length) {
  for (var i=0;i<edges.length;i++) {
    if (edges[i].id.substr(0,4)=='edge') {
      edges[i].setAttribute('class','edge');
    }
  }
}
]]></script>
        <defs>
                <circle id="rim" cx="0" cy="0" r="7"/>
                <circle id="rim2" cx="0" cy="0" r="3.5"/>
                <g id="zoomPlus">
                        <use xlink:href="#rim" fill="#404040">
                                <set attributeName="fill" to="#808080" begin="zoomplus.mouseover" end="zoomplus.mouseout"/>
                        </use>
                        <path d="M-4,0h8M0,-4v8" fill="none" stroke="white" stroke-width="1.5" pointer-events="none"/>
                </g>
                <g id="zoomMin">
                        <use xlink:href="#rim" fill="#404040">
                                <set attributeName="fill" to="#808080" begin="zoomminus.mouseover" end="zoomminus.mouseout"/>
                        </use>
                        <path d="M-4,0h8" fill="none" stroke="white" stroke-width="1.5" pointer-events="none"/>
                </g>
                <g id="dirArrow">
                        <path fill="none" stroke="white" stroke-width="1.5" d="M0,-3.0v7 M-2.5,-0.5L0,-3.0L2.5,-0.5"/>
                </g>
               <g id="resetDef">
                       <use xlink:href="#rim2" fill="#404040">
                               <set attributeName="fill" to="#808080" begin="reset.mouseover" end="reset.mouseout"/>
                       </use>
               </g>
        </defs>

<script type="text/javascript">
var viewWidth = 1103;
var viewHeight = 263;
var sectionId = 'dynsection-3';
</script>
<script xlink:href="svgpan.js"/>
<svg id="graph" class="graph">
<g id="viewport">
<title>Vector::get_vec</title>
<!-- Node1 -->
<g id="node1" class="node">
<title>Node1</title>
<g id="a_node1"><a xlink:title="Zwraca wektor do tablicy o rozmiarze SIZE &#160;&#160;Argumenty:">
<polygon fill="#bfbfbf" stroke="black" points="1003,-74.5 1003,-93.5 1095,-93.5 1095,-74.5 1003,-74.5"/>
<text text-anchor="middle" x="1049" y="-81.5" font-family="Helvetica,sans-Serif" font-size="10.00">Vector::get_vec</text>
</a>
</g>
</g>
<!-- Node2 -->
<g id="node2" class="node">
<title>Node2</title>
<g id="a_node2"><a xlink:href="class_drone.html#ab2a22e3257125dccc19ed2c288e5f52f" target="_top" xlink:title="Metoda przygotowujaca sciezke drona z uzyciem std::vector&lt;&gt; do roundabout.">
<polygon fill="none" stroke="black" points="656,-39 656,-69 796,-69 796,-39 656,-39"/>
<text text-anchor="start" x="664" y="-57" font-family="Helvetica,sans-Serif" font-size="10.00">Drone::Drone_make_path</text>
<text text-anchor="middle" x="726" y="-46" font-family="Helvetica,sans-Serif" font-size="10.00">_roundabout</text>
</a>
</g>
</g>
<!-- Node1&#45;&gt;Node2 -->
<g id="edge1" class="edge">
<title>Node1&#45;&gt;Node2</title>
<path fill="none" stroke="midnightblue" d="M992.54,-78.82C938.12,-73.73 854.99,-65.96 796.26,-60.47"/>
<polygon fill="midnightblue" stroke="midnightblue" points="992.41,-82.32 1002.69,-79.77 993.06,-75.35 992.41,-82.32"/>
</g>
<!-- Node4 -->
<g id="node4" class="node">
<title>Node4</title>
<g id="a_node4"><a xlink:href="class_cuboid.html#a12a97376443b1a15ae8342c1c75b3e1e" target="_top" xlink:title="Metoda wypisania odpowiednich wierzcholkow do pliku zgodnie z zaproponowanym sposobem zadaniu dron">
<polygon fill="none" stroke="black" points="832,-131.5 832,-150.5 967,-150.5 967,-131.5 832,-131.5"/>
<text text-anchor="middle" x="899.5" y="-138.5" font-family="Helvetica,sans-Serif" font-size="10.00">Cuboid::print_cuboid_3D</text>
</a>
</g>
</g>
<!-- Node1&#45;&gt;Node4 -->
<g id="edge3" class="edge">
<title>Node1&#45;&gt;Node4</title>
<path fill="none" stroke="midnightblue" d="M1020.68,-98.16C1005.2,-105.84 985.31,-115.14 967,-122 957.67,-125.5 947.4,-128.72 937.78,-131.49"/>
<polygon fill="midnightblue" stroke="midnightblue" points="1022.34,-101.24 1029.7,-93.62 1019.2,-94.99 1022.34,-101.24"/>
</g>
<!-- Node15 -->
<g id="node15" class="node">
<title>Node15</title>
<g id="a_node15"><a xlink:href="class_cuboid.html#aef44df3b2af7f29c7faa620ff88cda7a" target="_top" xlink:title="Metoda wypisania odpowiednich wierzcholkow do pliku zgodnie z (dziwnym) sposobem jaki zaproponowano w...">
<polygon fill="none" stroke="black" points="841.5,-6 841.5,-36 957.5,-36 957.5,-6 841.5,-6"/>
<text text-anchor="start" x="849.5" y="-24" font-family="Helvetica,sans-Serif" font-size="10.00">Cuboid::print_cuboid</text>
<text text-anchor="middle" x="899.5" y="-13" font-family="Helvetica,sans-Serif" font-size="10.00">_weird</text>
</a>
</g>
</g>
<!-- Node1&#45;&gt;Node15 -->
<g id="edge20" class="edge">
<title>Node1&#45;&gt;Node15</title>
<path fill="none" stroke="midnightblue" d="M1016.35,-70.48C992.67,-60.37 960.28,-46.53 935.77,-36.07"/>
<polygon fill="midnightblue" stroke="midnightblue" points="1015.03,-73.72 1025.6,-74.43 1017.78,-67.28 1015.03,-73.72"/>
</g>
<!-- Node16 -->
<g id="node16" class="node">
<title>Node16</title>
<g id="a_node16"><a xlink:href="class_prism.html#a764c6940e4fb65303981e8b877b28561" target="_top" xlink:title="Metoda wypisania odpowiednich wierzcholkow do pliku zgodnie z zaproponowanym sposobem zadaniu dron">
<polygon fill="none" stroke="black" points="837,-93.5 837,-112.5 962,-112.5 962,-93.5 837,-93.5"/>
<text text-anchor="middle" x="899.5" y="-100.5" font-family="Helvetica,sans-Serif" font-size="10.00">Prism::print_prism_3D</text>
</a>
</g>
</g>
<!-- Node1&#45;&gt;Node16 -->
<g id="edge21" class="edge">
<title>Node1&#45;&gt;Node16</title>
<path fill="none" stroke="midnightblue" d="M992.74,-91.12C982.75,-92.4 972.28,-93.75 962.12,-95.06"/>
<polygon fill="midnightblue" stroke="midnightblue" points="993.47,-94.55 1002.94,-89.8 992.58,-87.61 993.47,-94.55"/>
</g>
<!-- Node3 -->
<g id="node3" class="node">
<title>Node3</title>
<g id="a_node3"><a xlink:href="class_drone.html#ab7808296cec81143dbddd7516340a371" target="_top" xlink:title="Metoda robiaca &quot;oblot&quot; drona wokol punktu (z modyfikacji)">
<polygon fill="none" stroke="black" points="148,-81.5 148,-100.5 290,-100.5 290,-81.5 148,-81.5"/>
<text text-anchor="middle" x="219" y="-88.5" font-family="Helvetica,sans-Serif" font-size="10.00">Drone::Drone_roundabout</text>
</a>
</g>
</g>
<!-- Node2&#45;&gt;Node3 -->
<g id="edge2" class="edge">
<title>Node2&#45;&gt;Node3</title>
<path fill="none" stroke="midnightblue" d="M645.61,-57.77C599.81,-60.09 541.13,-63.33 489,-67 416.47,-72.11 398.42,-74.47 326,-81 314.4,-82.05 302.09,-83.18 290.12,-84.3"/>
<polygon fill="midnightblue" stroke="midnightblue" points="645.97,-61.25 655.78,-57.25 645.61,-54.26 645.97,-61.25"/>
</g>
<!-- Node5 -->
<g id="node5" class="node">
<title>Node5</title>
<g id="a_node5"><a xlink:href="class_cuboid.html#abc62d20a2f1418af1c35e369da77f0fc" target="_top" xlink:title=" ">
<polygon fill="none" stroke="black" points="662,-131.5 662,-150.5 790,-150.5 790,-131.5 662,-131.5"/>
<text text-anchor="middle" x="726" y="-138.5" font-family="Helvetica,sans-Serif" font-size="10.00">Cuboid::Cuboid_To_File</text>
</a>
</g>
</g>
<!-- Node4&#45;&gt;Node5 -->
<g id="edge4" class="edge">
<title>Node4&#45;&gt;Node5</title>
<path fill="none" stroke="midnightblue" d="M821.7,-141C811.18,-141 800.48,-141 790.25,-141"/>
<polygon fill="midnightblue" stroke="midnightblue" points="821.7,-144.5 831.7,-141 821.7,-137.5 821.7,-144.5"/>
</g>
<!-- Node6 -->
<g id="node6" class="node">
<title>Node6</title>
<g id="a_node6"><a xlink:href="class_drone.html#aae0029f50083a01fe75c7d504c2fe5b9" target="_top" xlink:title="Metoda zapisujaca parametry drona do plikow (do plikow final kazdego z elementow)">
<polygon fill="none" stroke="black" points="497,-175 497,-205 612,-205 612,-175 497,-175"/>
<text text-anchor="start" x="505" y="-193" font-family="Helvetica,sans-Serif" font-size="10.00">Drone::Print_to_files</text>
<text text-anchor="middle" x="554.5" y="-182" font-family="Helvetica,sans-Serif" font-size="10.00">_drone</text>
</a>
</g>
</g>
<!-- Node5&#45;&gt;Node6 -->
<g id="edge5" class="edge">
<title>Node5&#45;&gt;Node6</title>
<path fill="none" stroke="midnightblue" d="M682.22,-153.37C659.53,-159.93 631.46,-168.04 607.52,-174.96"/>
<polygon fill="midnightblue" stroke="midnightblue" points="683.28,-156.7 691.92,-150.56 681.34,-149.98 683.28,-156.7"/>
</g>
<!-- Node11 -->
<g id="node11" class="node">
<title>Node11</title>
<g id="a_node11"><a xlink:href="class_drone.html#a577871807280aab8d9c0d4e45b435ec4" target="_top" xlink:title="Metoda rysujaca drona w gnuplocie. Przeznaczona do testow">
<polygon fill="none" stroke="black" points="489,-77 489,-107 620,-107 620,-77 489,-77"/>
<text text-anchor="start" x="497" y="-95" font-family="Helvetica,sans-Serif" font-size="10.00">Drone::Print_to_gnuplot</text>
<text text-anchor="middle" x="554.5" y="-84" font-family="Helvetica,sans-Serif" font-size="10.00">_drone</text>
</a>
</g>
</g>
<!-- Node5&#45;&gt;Node11 -->
<g id="edge16" class="edge">
<title>Node5&#45;&gt;Node11</title>
<path fill="none" stroke="midnightblue" d="M680.2,-128.81C672.14,-126.58 663.81,-124.24 656,-122 639.37,-117.23 621.25,-111.87 605.02,-107.01"/>
<polygon fill="midnightblue" stroke="midnightblue" points="679.29,-132.19 689.86,-131.48 681.15,-125.44 679.29,-132.19"/>
</g>
<!-- Node12 -->
<g id="node12" class="node">
<title>Node12</title>
<g id="a_node12"><a xlink:href="class_drone.html#a63898ba4cc161710cf08f7b578f3d90f" target="_top" xlink:title="Metoda ustawiajaca nazwy plikow w laczy do gnuplota (nazwy final!)">
<polygon fill="none" stroke="black" points="494.5,-126 494.5,-156 614.5,-156 614.5,-126 494.5,-126"/>
<text text-anchor="start" x="502.5" y="-144" font-family="Helvetica,sans-Serif" font-size="10.00">Drone::set_filenames</text>
<text text-anchor="middle" x="554.5" y="-133" font-family="Helvetica,sans-Serif" font-size="10.00">_gnuplot</text>
</a>
</g>
</g>
<!-- Node5&#45;&gt;Node12 -->
<g id="edge17" class="edge">
<title>Node5&#45;&gt;Node12</title>
<path fill="none" stroke="midnightblue" d="M651.63,-141C639.3,-141 626.65,-141 614.74,-141"/>
<polygon fill="midnightblue" stroke="midnightblue" points="651.88,-144.5 661.88,-141 651.88,-137.5 651.88,-144.5"/>
</g>
<!-- Node6&#45;&gt;Node3 -->
<g id="edge9" class="edge">
<title>Node6&#45;&gt;Node3</title>
<path fill="none" stroke="midnightblue" d="M494.68,-169.93C492.72,-168.69 490.81,-167.38 489,-166 467.23,-149.4 476.67,-129.77 453,-116 403.85,-87.41 338.93,-82.59 290.1,-84.1"/>
<polygon fill="midnightblue" stroke="midnightblue" points="493.21,-173.12 503.65,-174.94 496.63,-167.01 493.21,-173.12"/>
</g>
<!-- Node7 -->
<g id="node7" class="node">
<title>Node7</title>
<g id="a_node7"><a xlink:href="class_drone.html#ac4d24c27fb2c107d2e8bda0c2bf5cfa1" target="_top" xlink:title="Metoda obliczajaca i przeprowadzajaca caly ruch drona (obrot o kat i przelot z zadania 5....">
<polygon fill="none" stroke="black" points="0,-207 0,-237 112,-237 112,-207 0,-207"/>
<text text-anchor="start" x="8" y="-225" font-family="Helvetica,sans-Serif" font-size="10.00">Drone::Drone_basic</text>
<text text-anchor="middle" x="56" y="-214" font-family="Helvetica,sans-Serif" font-size="10.00">_motion</text>
</a>
</g>
</g>
<!-- Node6&#45;&gt;Node7 -->
<g id="edge6" class="edge">
<title>Node6&#45;&gt;Node7</title>
<path fill="none" stroke="midnightblue" d="M497.74,-208C483.26,-212.3 467.63,-216.62 453,-220 320.41,-250.64 282.86,-265.19 148,-247 132.9,-244.96 116.76,-241.11 102.33,-237.02"/>
<polygon fill="midnightblue" stroke="midnightblue" points="498.98,-211.29 507.54,-205.04 496.96,-204.58 498.98,-211.29"/>
</g>
<!-- Node8 -->
<g id="node8" class="node">
<title>Node8</title>
<g id="a_node8"><a xlink:href="class_drone.html#af052f6bb793d1229b99b16b800b95b82" target="_top" xlink:title="Metoda animujaca obrot drona i wyrysowujaca calosc w gnuplocie.">
<polygon fill="none" stroke="black" points="156.5,-207 156.5,-237 281.5,-237 281.5,-207 156.5,-207"/>
<text text-anchor="start" x="164.5" y="-225" font-family="Helvetica,sans-Serif" font-size="10.00">Drone::Drone_rotation</text>
<text text-anchor="middle" x="219" y="-214" font-family="Helvetica,sans-Serif" font-size="10.00">_animation</text>
</a>
</g>
</g>
<!-- Node6&#45;&gt;Node8 -->
<g id="edge7" class="edge">
<title>Node6&#45;&gt;Node8</title>
<path fill="none" stroke="midnightblue" d="M486.83,-196.4C427.01,-202.14 339.91,-210.49 281.67,-216.08"/>
<polygon fill="midnightblue" stroke="midnightblue" points="487.31,-199.87 496.93,-195.43 486.64,-192.9 487.31,-199.87"/>
</g>
<!-- Node9 -->
<g id="node9" class="node">
<title>Node9</title>
<g id="a_node9"><a xlink:href="class_drone.html#a5fc9dd645ad3856b5d3c501c63c464e3" target="_top" xlink:title="Metoda animujaca translacje drona i wyrysowujaca calosc w gnuplocie.">
<polygon fill="none" stroke="black" points="149.5,-158 149.5,-188 288.5,-188 288.5,-158 149.5,-158"/>
<text text-anchor="start" x="157.5" y="-176" font-family="Helvetica,sans-Serif" font-size="10.00">Drone::Drone_translation</text>
<text text-anchor="middle" x="219" y="-165" font-family="Helvetica,sans-Serif" font-size="10.00">_animation</text>
</a>
</g>
</g>
<!-- Node6&#45;&gt;Node9 -->
<g id="edge10" class="edge">
<title>Node6&#45;&gt;Node9</title>
<path fill="none" stroke="midnightblue" d="M486.86,-186.6C429.4,-183.67 346.75,-179.46 288.7,-176.5"/>
<polygon fill="midnightblue" stroke="midnightblue" points="486.76,-190.1 496.93,-187.12 487.12,-183.11 486.76,-190.1"/>
</g>
<!-- Node10 -->
<g id="node10" class="node">
<title>Node10</title>
<g id="a_node10"><a xlink:href="class_drone.html#aedb04b80609b22ff4eb4a957bc149a48" target="_top" xlink:title="Metoda animujaca obrot rotorow i zapisujaca to w plikach. Metoda sluzy jako metoda pomocnicza,...">
<polygon fill="none" stroke="black" points="326,-125 326,-155 453,-155 453,-125 326,-125"/>
<text text-anchor="start" x="334" y="-143" font-family="Helvetica,sans-Serif" font-size="10.00">Drone::Rotors_rotation</text>
<text text-anchor="middle" x="389.5" y="-132" font-family="Helvetica,sans-Serif" font-size="10.00">_animation</text>
</a>
</g>
</g>
<!-- Node6&#45;&gt;Node10 -->
<g id="edge11" class="edge">
<title>Node6&#45;&gt;Node10</title>
<path fill="none" stroke="midnightblue" d="M495,-172.06C476.87,-166.49 457.08,-160.42 439.65,-155.08"/>
<polygon fill="midnightblue" stroke="midnightblue" points="494.01,-175.41 504.59,-175 496.06,-168.72 494.01,-175.41"/>
</g>
<!-- Node8&#45;&gt;Node7 -->
<g id="edge8" class="edge">
<title>Node8&#45;&gt;Node7</title>
<path fill="none" stroke="midnightblue" d="M145.87,-222C134.51,-222 122.93,-222 112.04,-222"/>
<polygon fill="midnightblue" stroke="midnightblue" points="146.21,-225.5 156.21,-222 146.21,-218.5 146.21,-225.5"/>
</g>
<!-- Node10&#45;&gt;Node3 -->
<g id="edge14" class="edge">
<title>Node10&#45;&gt;Node3</title>
<path fill="none" stroke="midnightblue" d="M326.75,-122.04C301.66,-114.75 273.69,-106.61 252.68,-100.5"/>
<polygon fill="midnightblue" stroke="midnightblue" points="325.99,-125.47 336.57,-124.9 327.94,-118.75 325.99,-125.47"/>
</g>
<!-- Node10&#45;&gt;Node7 -->
<g id="edge12" class="edge">
<title>Node10&#45;&gt;Node7</title>
<path fill="none" stroke="midnightblue" d="M315.69,-131.07C266.75,-127.84 201.64,-129.01 148,-149 115.74,-161.02 86.19,-189.27 69.99,-206.89"/>
<polygon fill="midnightblue" stroke="midnightblue" points="315.64,-134.57 325.87,-131.82 316.16,-127.59 315.64,-134.57"/>
</g>
<!-- Node10&#45;&gt;Node8 -->
<g id="edge13" class="edge">
<title>Node10&#45;&gt;Node8</title>
<path fill="none" stroke="midnightblue" d="M357.21,-160.62C338.28,-172.54 313.35,-187.26 290,-198 283.11,-201.17 275.68,-204.15 268.33,-206.87"/>
<polygon fill="midnightblue" stroke="midnightblue" points="359.18,-163.52 365.73,-155.2 355.42,-157.62 359.18,-163.52"/>
</g>
<!-- Node10&#45;&gt;Node9 -->
<g id="edge15" class="edge">
<title>Node10&#45;&gt;Node9</title>
<path fill="none" stroke="midnightblue" d="M315.74,-154.25C306.77,-156.01 297.64,-157.8 288.74,-159.54"/>
<polygon fill="midnightblue" stroke="midnightblue" points="316.62,-157.64 325.76,-152.29 315.27,-150.78 316.62,-157.64"/>
</g>
<!-- Node13 -->
<g id="node13" class="node">
<title>Node13</title>
<g id="a_node13"><a xlink:href="class_scene.html#ab57c9a7293ccbaf3dd7e9ac469a7a787" target="_top" xlink:title="Metoda inicjalizujaca lacze do gnuplota.">
<polygon fill="none" stroke="black" points="334.5,-0.5 334.5,-19.5 444.5,-19.5 444.5,-0.5 334.5,-0.5"/>
<text text-anchor="middle" x="389.5" y="-7.5" font-family="Helvetica,sans-Serif" font-size="10.00">Scene::init_gnuplot</text>
</a>
</g>
</g>
<!-- Node12&#45;&gt;Node13 -->
<g id="edge18" class="edge">
<title>Node12&#45;&gt;Node13</title>
<path fill="none" stroke="midnightblue" d="M498.05,-121.48C494.91,-119.77 491.87,-117.95 489,-116 478.29,-108.74 421.04,-44.53 399.08,-19.72"/>
<polygon fill="midnightblue" stroke="midnightblue" points="496.59,-124.66 507.1,-125.98 499.71,-118.39 496.59,-124.66"/>
</g>
<!-- Node14 -->
<g id="node14" class="node">
<title>Node14</title>
<g id="a_node14"><a xlink:href="class_menu.html#af7e6a49bd56499facef9cc98561ea169" target="_top" xlink:title="Inicjuje i obsluguje menu.">
<polygon fill="none" stroke="black" points="170,-0.5 170,-19.5 268,-19.5 268,-0.5 170,-0.5"/>
<text text-anchor="middle" x="219" y="-7.5" font-family="Helvetica,sans-Serif" font-size="10.00">Menu::init_menu</text>
</a>
</g>
</g>
<!-- Node13&#45;&gt;Node14 -->
<g id="edge19" class="edge">
<title>Node13&#45;&gt;Node14</title>
<path fill="none" stroke="midnightblue" d="M324.1,-10C305.52,-10 285.58,-10 268.17,-10"/>
<polygon fill="midnightblue" stroke="midnightblue" points="324.26,-13.5 334.26,-10 324.26,-6.5 324.26,-13.5"/>
</g>
<!-- Node17 -->
<g id="node17" class="node">
<title>Node17</title>
<g id="a_node17"><a xlink:href="class_prism.html#a2de0dab6d117fc3c8dcbc3c384d0fccd" target="_top" xlink:title=" ">
<polygon fill="none" stroke="black" points="668,-93.5 668,-112.5 784,-112.5 784,-93.5 668,-93.5"/>
<text text-anchor="middle" x="726" y="-100.5" font-family="Helvetica,sans-Serif" font-size="10.00">Prism::Prism_To_File</text>
</a>
</g>
</g>
<!-- Node16&#45;&gt;Node17 -->
<g id="edge22" class="edge">
<title>Node16&#45;&gt;Node17</title>
<path fill="none" stroke="midnightblue" d="M826.44,-103C812.36,-103 797.78,-103 784.26,-103"/>
<polygon fill="midnightblue" stroke="midnightblue" points="826.58,-106.5 836.58,-103 826.58,-99.5 826.58,-106.5"/>
</g>
<!-- Node17&#45;&gt;Node6 -->
<g id="edge23" class="edge">
<title>Node17&#45;&gt;Node6</title>
<path fill="none" stroke="midnightblue" d="M666.02,-116.48C662.53,-118.12 659.15,-119.95 656,-122 634.82,-135.78 640.55,-151.31 620,-166 615.24,-169.4 609.93,-172.39 604.47,-174.98"/>
<polygon fill="midnightblue" stroke="midnightblue" points="667.58,-119.63 675.5,-112.59 664.92,-113.15 667.58,-119.63"/>
</g>
<!-- Node17&#45;&gt;Node11 -->
<g id="edge24" class="edge">
<title>Node17&#45;&gt;Node11</title>
<path fill="none" stroke="midnightblue" d="M657.43,-98.61C645.13,-97.82 632.33,-96.99 620.12,-96.19"/>
<polygon fill="midnightblue" stroke="midnightblue" points="657.41,-102.12 667.62,-99.28 657.86,-95.14 657.41,-102.12"/>
</g>
<!-- Node17&#45;&gt;Node12 -->
<g id="edge25" class="edge">
<title>Node17&#45;&gt;Node12</title>
<path fill="none" stroke="midnightblue" d="M672.33,-114.81C654.02,-118.91 633.37,-123.54 614.58,-127.75"/>
<polygon fill="midnightblue" stroke="midnightblue" points="673.24,-118.19 682.23,-112.59 671.7,-111.36 673.24,-118.19"/>
</g>
</g>
</svg>
        <g id="navigator" transform="translate(0 0)" fill="#404254">
                <rect fill="#f2f5e9" fill-opacity="0.5" stroke="#606060" stroke-width=".5" x="0" y="0" width="60" height="60"/>
                <use id="zoomplus" xlink:href="#zoomPlus" x="17" y="9" onmousedown="handleZoom(evt,'in')"/>
                <use id="zoomminus" xlink:href="#zoomMin" x="42" y="9" onmousedown="handleZoom(evt,'out')"/>
                <use id="reset" xlink:href="#resetDef" x="30" y="36" onmousedown="handleReset()"/>
                <g id="arrowUp" xlink:href="#dirArrow" transform="translate(30 24)" onmousedown="handlePan(0,-1)">
                  <use xlink:href="#rim" fill="#404040">
                        <set attributeName="fill" to="#808080" begin="arrowUp.mouseover" end="arrowUp.mouseout"/>
                  </use>
                  <path fill="none" stroke="white" stroke-width="1.5" d="M0,-3.0v7 M-2.5,-0.5L0,-3.0L2.5,-0.5"/>
                </g>
                <g id="arrowRight" xlink:href="#dirArrow" transform="rotate(90) translate(36 -43)" onmousedown="handlePan(1,0)">
                  <use xlink:href="#rim" fill="#404040">
                        <set attributeName="fill" to="#808080" begin="arrowRight.mouseover" end="arrowRight.mouseout"/>
                  </use>
                  <path fill="none" stroke="white" stroke-width="1.5" d="M0,-3.0v7 M-2.5,-0.5L0,-3.0L2.5,-0.5"/>
                </g>
                <g id="arrowDown" xlink:href="#dirArrow" transform="rotate(180) translate(-30 -48)" onmousedown="handlePan(0,1)">
                  <use xlink:href="#rim" fill="#404040">
                        <set attributeName="fill" to="#808080" begin="arrowDown.mouseover" end="arrowDown.mouseout"/>
                  </use>
                  <path fill="none" stroke="white" stroke-width="1.5" d="M0,-3.0v7 M-2.5,-0.5L0,-3.0L2.5,-0.5"/>
                </g>
                <g id="arrowLeft" xlink:href="#dirArrow" transform="rotate(270) translate(-36 17)" onmousedown="handlePan(-1,0)">
                  <use xlink:href="#rim" fill="#404040">
                        <set attributeName="fill" to="#808080" begin="arrowLeft.mouseover" end="arrowLeft.mouseout"/>
                  </use>
                  <path fill="none" stroke="white" stroke-width="1.5" d="M0,-3.0v7 M-2.5,-0.5L0,-3.0L2.5,-0.5"/>
                </g>
        </g>
        <svg viewBox="0 0 15 15" width="100%" height="30px" preserveAspectRatio="xMaxYMin meet">
         <g id="arrow_out" transform="scale(0.3 0.3)">
          <a xlink:href="class_vector_ab2bb1182cee2389eda163fb7b767f36d_icgraph_org.svg" target="_base">
           <rect id="button" ry="5" rx="5" y="6" x="6" height="38" width="38"
                fill="#f2f5e9" fill-opacity="0.5" stroke="#606060" stroke-width="1.0"/>
           <path id="arrow"
             d="M 11.500037,31.436501 C 11.940474,20.09759 22.043105,11.32322 32.158766,21.979434 L 37.068811,17.246167 C 37.068811,17.246167 37.088388,32 37.088388,32 L 22.160133,31.978069 C 22.160133,31.978069 26.997745,27.140456 26.997745,27.140456 C 18.528582,18.264221 13.291696,25.230495 11.500037,31.436501 z"
             style="fill:#404040;"/>
          </a>
         </g>
        </svg>
</svg>
