<?xml version="1.0" encoding="UTF-8" standalone="no"?>
<!DOCTYPE svg PUBLIC "-//W3C//DTD SVG 1.1//EN"
 "http://www.w3.org/Graphics/SVG/1.1/DTD/svg11.dtd">
<!-- Generated by graphviz version 2.43.0 (0)
 -->
<!-- Title: Scene::delete_object Pages: 1 -->
<svg width="478pt" height="39pt"
 viewBox="0.00 0.00 478.00 39.00" xmlns="http://www.w3.org/2000/svg" xmlns:xlink="http://www.w3.org/1999/xlink">
<g id="graph0" class="graph" transform="scale(1 1) rotate(0) translate(4 35)">
<title>Scene::delete_object</title>
<!-- Node1 -->
<g id="node1" class="node">
<title>Node1</title>
<g id="a_node1"><a xlink:title="Metoda usuwajaca object zadany przez uzytkownika.">
<polygon fill="#bfbfbf" stroke="black" points="0,-6 0,-25 118,-25 118,-6 0,-6"/>
<text text-anchor="middle" x="59" y="-13" font-family="Helvetica,sans-Serif" font-size="10.00">Scene::delete_object</text>
</a>
</g>
</g>
<!-- Node2 -->
<g id="node2" class="node">
<title>Node2</title>
<g id="a_node2"><a xlink:href="class_pz_g_1_1_lacze_do_g_n_u_plota.html#a7fa4e775e1aee74869fae174c567c2a6" target="_top" xlink:title="Usuwa z listy nazw plików z danymi do rysowania usuwa wybraną nazwę.">
<polygon fill="none" stroke="black" points="154,-0.5 154,-30.5 284,-30.5 284,-0.5 154,-0.5"/>
<text text-anchor="start" x="162" y="-18.5" font-family="Helvetica,sans-Serif" font-size="10.00">PzG::LaczeDoGNUPlota</text>
<text text-anchor="middle" x="219" y="-7.5" font-family="Helvetica,sans-Serif" font-size="10.00">::UsunNazwePliku</text>
</a>
</g>
</g>
<!-- Node1&#45;&gt;Node2 -->
<g id="edge1" class="edge">
<title>Node1&#45;&gt;Node2</title>
<path fill="none" stroke="midnightblue" d="M118.38,-15.5C126.57,-15.5 135.08,-15.5 143.51,-15.5"/>
<polygon fill="midnightblue" stroke="midnightblue" points="143.74,-19 153.74,-15.5 143.74,-12 143.74,-19"/>
</g>
<!-- Node3 -->
<g id="node3" class="node">
<title>Node3</title>
<g id="a_node3"><a xlink:href="class_pz_g_1_1_info_pliku_do_rysowania.html#a714aaa4c8e7bbd167ccbb1e797ca158c" target="_top" xlink:title="Udostępia nazwę pliku do rysowania.">
<polygon fill="none" stroke="black" points="320,-0.5 320,-30.5 470,-30.5 470,-0.5 320,-0.5"/>
<text text-anchor="start" x="328" y="-18.5" font-family="Helvetica,sans-Serif" font-size="10.00">PzG::InfoPlikuDoRysowania</text>
<text text-anchor="middle" x="395" y="-7.5" font-family="Helvetica,sans-Serif" font-size="10.00">::WezNazwePliku</text>
</a>
</g>
</g>
<!-- Node2&#45;&gt;Node3 -->
<g id="edge2" class="edge">
<title>Node2&#45;&gt;Node3</title>
<path fill="none" stroke="midnightblue" d="M284.3,-15.5C292.65,-15.5 301.3,-15.5 309.91,-15.5"/>
<polygon fill="midnightblue" stroke="midnightblue" points="309.98,-19 319.98,-15.5 309.98,-12 309.98,-19"/>
</g>
</g>
</svg>
