<?xml version="1.0" encoding="UTF-8" standalone="no"?>
<!DOCTYPE svg PUBLIC "-//W3C//DTD SVG 1.1//EN"
 "http://www.w3.org/Graphics/SVG/1.1/DTD/svg11.dtd">
<!-- Generated by graphviz version 2.43.0 (0)
 -->
<!-- Title: Prism::get_pri Pages: 1 -->
<svg width="238pt" height="142pt"
 viewBox="0.00 0.00 238.00 142.00" xmlns="http://www.w3.org/2000/svg" xmlns:xlink="http://www.w3.org/1999/xlink">
<g id="graph0" class="graph" transform="scale(1 1) rotate(0) translate(4 138)">
<title>Prism::get_pri</title>
<!-- Node1 -->
<g id="node1" class="node">
<title>Node1</title>
<g id="a_node1"><a xlink:title="Metoda zwracajaca wierzcholki graniastoslupa do tablicy 2x6 Vector3D">
<polygon fill="#bfbfbf" stroke="black" points="146,-57.5 146,-76.5 230,-76.5 230,-57.5 146,-57.5"/>
<text text-anchor="middle" x="188" y="-64.5" font-family="Helvetica,sans-Serif" font-size="10.00">Prism::get_pri</text>
</a>
</g>
</g>
<!-- Node2 -->
<g id="node2" class="node">
<title>Node2</title>
<g id="a_node2"><a xlink:href="prism_8cpp.html#a22735a2bb1f5182029d270b4b1de65f8" target="_top" xlink:title="Przeciazenie operatora &lt;&lt;">
<polygon fill="none" stroke="black" points="18,-114.5 18,-133.5 92,-133.5 92,-114.5 18,-114.5"/>
<text text-anchor="middle" x="55" y="-121.5" font-family="Helvetica,sans-Serif" font-size="10.00">operator&lt;&lt;</text>
</a>
</g>
</g>
<!-- Node1&#45;&gt;Node2 -->
<g id="edge1" class="edge">
<title>Node1&#45;&gt;Node2</title>
<path fill="none" stroke="midnightblue" d="M160.24,-81.19C145.6,-88.71 127.02,-97.84 110,-105 102.03,-108.35 93.24,-111.62 85.11,-114.48"/>
<polygon fill="midnightblue" stroke="midnightblue" points="161.97,-84.24 169.24,-76.53 158.75,-78.03 161.97,-84.24"/>
</g>
<!-- Node3 -->
<g id="node3" class="node">
<title>Node3</title>
<g id="a_node3"><a xlink:href="class_circus.html#abc3ed1cf2a93593c32eac91b29eea59f" target="_top" xlink:title="Przeciazenie operatora przypisania, umozliwia stosowanie metod typu Prism na obiekcie typu Circus">
<polygon fill="none" stroke="black" points="4,-76.5 4,-95.5 106,-95.5 106,-76.5 4,-76.5"/>
<text text-anchor="middle" x="55" y="-83.5" font-family="Helvetica,sans-Serif" font-size="10.00">Circus::operator=</text>
</a>
</g>
</g>
<!-- Node1&#45;&gt;Node3 -->
<g id="edge2" class="edge">
<title>Node1&#45;&gt;Node3</title>
<path fill="none" stroke="midnightblue" d="M135.92,-74.41C126.14,-75.83 115.9,-77.31 106.15,-78.73"/>
<polygon fill="midnightblue" stroke="midnightblue" points="136.52,-77.86 145.91,-72.96 135.51,-70.93 136.52,-77.86"/>
</g>
<!-- Node4 -->
<g id="node4" class="node">
<title>Node4</title>
<g id="a_node4"><a xlink:href="class_tent.html#ab55be44d1debae187bfb2c66ca4839b3" target="_top" xlink:title="Przeciazenie operatora przypisania, umozliwia stosowanie metod typu Prism na obiekcie typu Tent">
<polygon fill="none" stroke="black" points="9,-38.5 9,-57.5 101,-57.5 101,-38.5 9,-38.5"/>
<text text-anchor="middle" x="55" y="-45.5" font-family="Helvetica,sans-Serif" font-size="10.00">Tent::operator=</text>
</a>
</g>
</g>
<!-- Node1&#45;&gt;Node4 -->
<g id="edge3" class="edge">
<title>Node1&#45;&gt;Node4</title>
<path fill="none" stroke="midnightblue" d="M135.98,-59.6C124.45,-57.93 112.3,-56.17 101.04,-54.53"/>
<polygon fill="midnightblue" stroke="midnightblue" points="135.51,-63.07 145.91,-61.04 136.52,-56.14 135.51,-63.07"/>
</g>
<!-- Node5 -->
<g id="node5" class="node">
<title>Node5</title>
<g id="a_node5"><a xlink:href="class_volcano.html#acafe7ddddd734c05a719143b6903997b" target="_top" xlink:title="Przeciazenie operatora przypisania, umozliwia stosowanie metod typu Prism na obiekcie typu Volcano">
<polygon fill="none" stroke="black" points="0,-0.5 0,-19.5 110,-19.5 110,-0.5 0,-0.5"/>
<text text-anchor="middle" x="55" y="-7.5" font-family="Helvetica,sans-Serif" font-size="10.00">Volcano::operator=</text>
</a>
</g>
</g>
<!-- Node1&#45;&gt;Node5 -->
<g id="edge4" class="edge">
<title>Node1&#45;&gt;Node5</title>
<path fill="none" stroke="midnightblue" d="M160.24,-52.81C145.6,-45.29 127.02,-36.16 110,-29 102.03,-25.65 93.24,-22.38 85.11,-19.52"/>
<polygon fill="midnightblue" stroke="midnightblue" points="158.75,-55.97 169.24,-57.47 161.97,-49.76 158.75,-55.97"/>
</g>
</g>
</svg>
