<?xml version="1.0" encoding="UTF-8" standalone="no"?>
<!DOCTYPE svg PUBLIC "-//W3C//DTD SVG 1.1//EN"
 "http://www.w3.org/Graphics/SVG/1.1/DTD/svg11.dtd">
<!-- Generated by graphviz version 2.43.0 (0)
 -->
<!-- Title: Block Pages: 1 -->
<svg width="455pt" height="1394pt"
 viewBox="0.00 0.00 455.00 1394.00" xmlns="http://www.w3.org/2000/svg" xmlns:xlink="http://www.w3.org/1999/xlink">
<g id="graph0" class="graph" transform="scale(1 1) rotate(0) translate(4 1390)">
<title>Block</title>
<!-- Node1 -->
<g id="node1" class="node">
<title>Node1</title>
<g id="a_node1"><a xlink:title="Opisuje figure geometryczna w przestrzeni trojwymiarowej.">
<polygon fill="#bfbfbf" stroke="black" points="216.5,-0.5 216.5,-244.5 341.5,-244.5 341.5,-0.5 216.5,-0.5"/>
<text text-anchor="middle" x="279" y="-232.5" font-family="Helvetica,sans-Serif" font-size="10.00">Block</text>
<polyline fill="none" stroke="black" points="216.5,-225.5 341.5,-225.5 "/>
<text text-anchor="middle" x="279" y="-213.5" font-family="Helvetica,sans-Serif" font-size="10.00"> </text>
<polyline fill="none" stroke="black" points="216.5,-206.5 341.5,-206.5 "/>
<text text-anchor="start" x="224.5" y="-194.5" font-family="Helvetica,sans-Serif" font-size="10.00">+ Block()</text>
<text text-anchor="start" x="224.5" y="-183.5" font-family="Helvetica,sans-Serif" font-size="10.00">+ Block()</text>
<text text-anchor="start" x="224.5" y="-172.5" font-family="Helvetica,sans-Serif" font-size="10.00">+ Block()</text>
<text text-anchor="start" x="224.5" y="-161.5" font-family="Helvetica,sans-Serif" font-size="10.00">+ ~Block()</text>
<text text-anchor="start" x="224.5" y="-150.5" font-family="Helvetica,sans-Serif" font-size="10.00">+ set_sample_name()</text>
<text text-anchor="start" x="224.5" y="-139.5" font-family="Helvetica,sans-Serif" font-size="10.00">+ set_final_name()</text>
<text text-anchor="start" x="224.5" y="-128.5" font-family="Helvetica,sans-Serif" font-size="10.00">+ set_scale()</text>
<text text-anchor="start" x="224.5" y="-117.5" font-family="Helvetica,sans-Serif" font-size="10.00">+ set_scale()</text>
<text text-anchor="start" x="224.5" y="-106.5" font-family="Helvetica,sans-Serif" font-size="10.00">+ check_block()</text>
<text text-anchor="start" x="224.5" y="-95.5" font-family="Helvetica,sans-Serif" font-size="10.00">+ get_sample_name()</text>
<text text-anchor="start" x="224.5" y="-84.5" font-family="Helvetica,sans-Serif" font-size="10.00">+ get_final_name()</text>
<text text-anchor="start" x="224.5" y="-73.5" font-family="Helvetica,sans-Serif" font-size="10.00">+ get_scale()</text>
<text text-anchor="start" x="224.5" y="-62.5" font-family="Helvetica,sans-Serif" font-size="10.00">+ print_name()</text>
<text text-anchor="start" x="224.5" y="-51.5" font-family="Helvetica,sans-Serif" font-size="10.00">+ print_pos()</text>
<text text-anchor="start" x="224.5" y="-40.5" font-family="Helvetica,sans-Serif" font-size="10.00">+ get_pos()</text>
<text text-anchor="start" x="224.5" y="-29.5" font-family="Helvetica,sans-Serif" font-size="10.00">+ switch_pos()</text>
<text text-anchor="start" x="224.5" y="-18.5" font-family="Helvetica,sans-Serif" font-size="10.00">+ get_type()</text>
<text text-anchor="start" x="224.5" y="-7.5" font-family="Helvetica,sans-Serif" font-size="10.00">+ get_basis_pro()</text>
</a>
</g>
</g>
<!-- Node2 -->
<g id="node2" class="node">
<title>Node2</title>
<g id="a_node2"><a xlink:href="class_vector.html" target="_top" xlink:title=" ">
<polygon fill="none" stroke="black" points="172.5,-303.5 172.5,-591.5 287.5,-591.5 287.5,-303.5 172.5,-303.5"/>
<text text-anchor="middle" x="230" y="-579.5" font-family="Helvetica,sans-Serif" font-size="10.00">Vector&lt; double, 3 &gt;</text>
<polyline fill="none" stroke="black" points="172.5,-572.5 287.5,-572.5 "/>
<text text-anchor="middle" x="230" y="-560.5" font-family="Helvetica,sans-Serif" font-size="10.00"> </text>
<polyline fill="none" stroke="black" points="172.5,-553.5 287.5,-553.5 "/>
<text text-anchor="start" x="180.5" y="-541.5" font-family="Helvetica,sans-Serif" font-size="10.00">+ Vector()</text>
<text text-anchor="start" x="180.5" y="-530.5" font-family="Helvetica,sans-Serif" font-size="10.00">+ Vector()</text>
<text text-anchor="start" x="180.5" y="-519.5" font-family="Helvetica,sans-Serif" font-size="10.00">+ operator+()</text>
<text text-anchor="start" x="180.5" y="-508.5" font-family="Helvetica,sans-Serif" font-size="10.00">+ operator&#45;()</text>
<text text-anchor="start" x="180.5" y="-497.5" font-family="Helvetica,sans-Serif" font-size="10.00">+ operator*()</text>
<text text-anchor="start" x="180.5" y="-486.5" font-family="Helvetica,sans-Serif" font-size="10.00">+ operator/()</text>
<text text-anchor="start" x="180.5" y="-475.5" font-family="Helvetica,sans-Serif" font-size="10.00">+ operator==()</text>
<text text-anchor="start" x="180.5" y="-464.5" font-family="Helvetica,sans-Serif" font-size="10.00">+ scale_vec()</text>
<text text-anchor="start" x="180.5" y="-453.5" font-family="Helvetica,sans-Serif" font-size="10.00">+ rotate()</text>
<text text-anchor="start" x="180.5" y="-442.5" font-family="Helvetica,sans-Serif" font-size="10.00">+ rotate()</text>
<text text-anchor="start" x="180.5" y="-431.5" font-family="Helvetica,sans-Serif" font-size="10.00">+ rotate()</text>
<text text-anchor="start" x="180.5" y="-420.5" font-family="Helvetica,sans-Serif" font-size="10.00">+ modulus2()</text>
<text text-anchor="start" x="180.5" y="-409.5" font-family="Helvetica,sans-Serif" font-size="10.00">+ get_vec()</text>
<text text-anchor="start" x="180.5" y="-398.5" font-family="Helvetica,sans-Serif" font-size="10.00">+ translation()</text>
<text text-anchor="start" x="180.5" y="-387.5" font-family="Helvetica,sans-Serif" font-size="10.00">+ get_len()</text>
<text text-anchor="start" x="180.5" y="-376.5" font-family="Helvetica,sans-Serif" font-size="10.00">+ get_slope_angle()</text>
<text text-anchor="start" x="180.5" y="-365.5" font-family="Helvetica,sans-Serif" font-size="10.00">+ get_slope_angle()</text>
<text text-anchor="start" x="180.5" y="-354.5" font-family="Helvetica,sans-Serif" font-size="10.00">+ get_slope_angle()</text>
<text text-anchor="start" x="180.5" y="-343.5" font-family="Helvetica,sans-Serif" font-size="10.00">+ get_quarter()</text>
<text text-anchor="start" x="180.5" y="-332.5" font-family="Helvetica,sans-Serif" font-size="10.00">+ operator[]()</text>
<text text-anchor="start" x="180.5" y="-321.5" font-family="Helvetica,sans-Serif" font-size="10.00">+ operator[]()</text>
<text text-anchor="start" x="180.5" y="-310.5" font-family="Helvetica,sans-Serif" font-size="10.00">+ scalar_prod()</text>
</a>
</g>
</g>
<!-- Node2&#45;&gt;Node1 -->
<g id="edge1" class="edge">
<title>Node2&#45;&gt;Node1</title>
<path fill="none" stroke="#404040" d="M251.71,-303.42C254.05,-287.97 256.43,-272.3 258.75,-256.97"/>
<polygon fill="none" stroke="#404040" points="258.8,-256.63 255.75,-250.1 260.6,-244.77 263.66,-251.3 258.8,-256.63"/>
<text text-anchor="middle" x="276.5" y="-271.5" font-family="Helvetica,sans-Serif" font-size="10.00"> #scale</text>
</g>
<!-- Node3 -->
<g id="node3" class="node">
<title>Node3</title>
<g id="a_node3"><a xlink:href="class_count.html" target="_top" xlink:title=" ">
<polygon fill="none" stroke="black" points="0,-975.5 0,-1098.5 134,-1098.5 134,-975.5 0,-975.5"/>
<text text-anchor="start" x="8" y="-1086.5" font-family="Helvetica,sans-Serif" font-size="10.00">Count&lt; Vector&lt; double,</text>
<text text-anchor="middle" x="67" y="-1075.5" font-family="Helvetica,sans-Serif" font-size="10.00"> SIZE &gt; &gt;</text>
<polyline fill="none" stroke="black" points="0,-1068.5 134,-1068.5 "/>
<text text-anchor="middle" x="67" y="-1056.5" font-family="Helvetica,sans-Serif" font-size="10.00"> </text>
<polyline fill="none" stroke="black" points="0,-1049.5 134,-1049.5 "/>
<text text-anchor="start" x="8" y="-1037.5" font-family="Helvetica,sans-Serif" font-size="10.00">+ Count()</text>
<text text-anchor="start" x="8" y="-1026.5" font-family="Helvetica,sans-Serif" font-size="10.00">+ Count()</text>
<text text-anchor="start" x="8" y="-1015.5" font-family="Helvetica,sans-Serif" font-size="10.00">+ ~Count()</text>
<text text-anchor="start" x="8" y="-1004.5" font-family="Helvetica,sans-Serif" font-size="10.00">+ get_count()</text>
<text text-anchor="start" x="8" y="-993.5" font-family="Helvetica,sans-Serif" font-size="10.00">+ print_count()</text>
<text text-anchor="start" x="8" y="-982.5" font-family="Helvetica,sans-Serif" font-size="10.00">+ zero_count()</text>
</a>
</g>
</g>
<!-- Node3&#45;&gt;Node2 -->
<g id="edge2" class="edge">
<title>Node3&#45;&gt;Node2</title>
<path fill="none" stroke="midnightblue" d="M81.18,-965.28C97.78,-885.38 127.35,-751.76 161,-639 165.6,-623.58 170.76,-607.59 176.14,-591.72"/>
<polygon fill="none" stroke="midnightblue" points="77.72,-964.73 79.12,-975.23 84.57,-966.15 77.72,-964.73"/>
</g>
<!-- Node4 -->
<g id="node4" class="node">
<title>Node4</title>
<g id="a_node4"><a xlink:title=" ">
<polygon fill="none" stroke="#bfbfbf" points="35.5,-1328.5 35.5,-1385.5 64.5,-1385.5 64.5,-1328.5 35.5,-1328.5"/>
<text text-anchor="middle" x="50" y="-1373.5" font-family="Helvetica,sans-Serif" font-size="10.00">int</text>
<polyline fill="none" stroke="#bfbfbf" points="35.5,-1366.5 64.5,-1366.5 "/>
<text text-anchor="middle" x="50" y="-1354.5" font-family="Helvetica,sans-Serif" font-size="10.00"> </text>
<polyline fill="none" stroke="#bfbfbf" points="35.5,-1347.5 64.5,-1347.5 "/>
<text text-anchor="middle" x="50" y="-1335.5" font-family="Helvetica,sans-Serif" font-size="10.00"> </text>
</a>
</g>
</g>
<!-- Node4&#45;&gt;Node3 -->
<g id="edge3" class="edge">
<title>Node4&#45;&gt;Node3</title>
<path fill="none" stroke="#404040" d="M47.16,-1328.15C45.58,-1311.33 43.79,-1289.46 43,-1270 40.96,-1219.82 38.05,-1206.98 43,-1157 44.79,-1138.96 47.42,-1134.77 51,-1117 51.41,-1114.97 51.82,-1112.92 52.24,-1110.84"/>
<polygon fill="none" stroke="#404040" points="52.29,-1110.57 49.56,-1103.9 54.67,-1098.81 57.4,-1105.48 52.29,-1110.57"/>
<text text-anchor="middle" x="86" y="-1216.5" font-family="Helvetica,sans-Serif" font-size="10.00"> #objects_alive</text>
<text text-anchor="middle" x="86" y="-1205.5" font-family="Helvetica,sans-Serif" font-size="10.00">#objects_created</text>
</g>
<!-- Node5 -->
<g id="node5" class="node">
<title>Node5</title>
<g id="a_node5"><a xlink:href="class_count.html" target="_top" xlink:title="Pozwala na liczenie instancji stworzonych obiektow.">
<polygon fill="none" stroke="black" points="138,-1157.5 138,-1269.5 228,-1269.5 228,-1157.5 138,-1157.5"/>
<text text-anchor="middle" x="183" y="-1257.5" font-family="Helvetica,sans-Serif" font-size="10.00">Count&lt; T &gt;</text>
<polyline fill="none" stroke="black" points="138,-1250.5 228,-1250.5 "/>
<text text-anchor="middle" x="183" y="-1238.5" font-family="Helvetica,sans-Serif" font-size="10.00"> </text>
<polyline fill="none" stroke="black" points="138,-1231.5 228,-1231.5 "/>
<text text-anchor="start" x="146" y="-1219.5" font-family="Helvetica,sans-Serif" font-size="10.00">+ Count()</text>
<text text-anchor="start" x="146" y="-1208.5" font-family="Helvetica,sans-Serif" font-size="10.00">+ Count()</text>
<text text-anchor="start" x="146" y="-1197.5" font-family="Helvetica,sans-Serif" font-size="10.00">+ ~Count()</text>
<text text-anchor="start" x="146" y="-1186.5" font-family="Helvetica,sans-Serif" font-size="10.00">+ get_count()</text>
<text text-anchor="start" x="146" y="-1175.5" font-family="Helvetica,sans-Serif" font-size="10.00">+ print_count()</text>
<text text-anchor="start" x="146" y="-1164.5" font-family="Helvetica,sans-Serif" font-size="10.00">+ zero_count()</text>
</a>
</g>
</g>
<!-- Node4&#45;&gt;Node5 -->
<g id="edge5" class="edge">
<title>Node4&#45;&gt;Node5</title>
<path fill="none" stroke="#404040" d="M64.74,-1340.32C80.34,-1323.72 105.89,-1296.54 129.25,-1271.68"/>
<polygon fill="none" stroke="#404040" points="129.52,-1271.39 130.72,-1264.28 137.74,-1262.65 136.55,-1269.76 129.52,-1271.39"/>
<text text-anchor="middle" x="156" y="-1302" font-family="Helvetica,sans-Serif" font-size="10.00"> #objects_alive</text>
<text text-anchor="middle" x="156" y="-1291" font-family="Helvetica,sans-Serif" font-size="10.00">#objects_created</text>
</g>
<!-- Node5&#45;&gt;Node3 -->
<g id="edge4" class="edge">
<title>Node5&#45;&gt;Node3</title>
<path fill="none" stroke="orange" d="M129.75,-1160.55C127.85,-1159.3 125.93,-1158.11 124,-1157 99.88,-1143.09 80.62,-1161.34 64,-1139 55.41,-1127.46 52.64,-1112.95 52.83,-1098.56"/>
<polygon fill="orange" stroke="orange" points="127.76,-1163.43 137.93,-1166.38 131.82,-1157.73 127.76,-1163.43"/>
<text text-anchor="middle" x="134" y="-1125.5" font-family="Helvetica,sans-Serif" font-size="10.00"> &lt; Vector&lt; double, SIZE &gt; &gt;</text>
</g>
<!-- Node8 -->
<g id="node8" class="node">
<title>Node8</title>
<g id="a_node8"><a xlink:href="class_count.html" target="_top" xlink:title=" ">
<polygon fill="none" stroke="black" points="168.5,-975.5 168.5,-1098.5 291.5,-1098.5 291.5,-975.5 168.5,-975.5"/>
<text text-anchor="start" x="176.5" y="-1086.5" font-family="Helvetica,sans-Serif" font-size="10.00">Count&lt; Vector&lt; type,</text>
<text text-anchor="middle" x="230" y="-1075.5" font-family="Helvetica,sans-Serif" font-size="10.00"> SIZE &gt; &gt;</text>
<polyline fill="none" stroke="black" points="168.5,-1068.5 291.5,-1068.5 "/>
<text text-anchor="middle" x="230" y="-1056.5" font-family="Helvetica,sans-Serif" font-size="10.00"> </text>
<polyline fill="none" stroke="black" points="168.5,-1049.5 291.5,-1049.5 "/>
<text text-anchor="start" x="176.5" y="-1037.5" font-family="Helvetica,sans-Serif" font-size="10.00">+ Count()</text>
<text text-anchor="start" x="176.5" y="-1026.5" font-family="Helvetica,sans-Serif" font-size="10.00">+ Count()</text>
<text text-anchor="start" x="176.5" y="-1015.5" font-family="Helvetica,sans-Serif" font-size="10.00">+ ~Count()</text>
<text text-anchor="start" x="176.5" y="-1004.5" font-family="Helvetica,sans-Serif" font-size="10.00">+ get_count()</text>
<text text-anchor="start" x="176.5" y="-993.5" font-family="Helvetica,sans-Serif" font-size="10.00">+ print_count()</text>
<text text-anchor="start" x="176.5" y="-982.5" font-family="Helvetica,sans-Serif" font-size="10.00">+ zero_count()</text>
</a>
</g>
</g>
<!-- Node5&#45;&gt;Node8 -->
<g id="edge10" class="edge">
<title>Node5&#45;&gt;Node8</title>
<path fill="none" stroke="orange" d="M205.54,-1147.52C206.4,-1144.65 207.22,-1141.8 208,-1139 211.61,-1126.03 214.99,-1111.99 217.97,-1098.63"/>
<polygon fill="orange" stroke="orange" points="202.12,-1146.74 202.52,-1157.33 208.81,-1148.8 202.12,-1146.74"/>
<text text-anchor="middle" x="278.5" y="-1125.5" font-family="Helvetica,sans-Serif" font-size="10.00"> &lt; Vector&lt; type, SIZE &gt; &gt;</text>
</g>
<!-- Node6 -->
<g id="node6" class="node">
<title>Node6</title>
<g id="a_node6"><a xlink:title=" ">
<polygon fill="none" stroke="#bfbfbf" points="308,-755 308,-812 358,-812 358,-755 308,-755"/>
<text text-anchor="middle" x="333" y="-800" font-family="Helvetica,sans-Serif" font-size="10.00">double</text>
<polyline fill="none" stroke="#bfbfbf" points="308,-793 358,-793 "/>
<text text-anchor="middle" x="333" y="-781" font-family="Helvetica,sans-Serif" font-size="10.00"> </text>
<polyline fill="none" stroke="#bfbfbf" points="308,-774 358,-774 "/>
<text text-anchor="middle" x="333" y="-762" font-family="Helvetica,sans-Serif" font-size="10.00"> </text>
</a>
</g>
</g>
<!-- Node6&#45;&gt;Node2 -->
<g id="edge6" class="edge">
<title>Node6&#45;&gt;Node2</title>
<path fill="none" stroke="#404040" d="M330.85,-754.78C327.65,-720.25 320.27,-659.74 305,-610 304.64,-608.82 299.8,-598.21 292.74,-582.93"/>
<polygon fill="none" stroke="#404040" points="292.57,-582.55 286.42,-578.79 287.53,-571.67 293.68,-575.43 292.57,-582.55"/>
<text text-anchor="middle" x="320.5" y="-613" font-family="Helvetica,sans-Serif" font-size="10.00"> &#45;size</text>
</g>
<!-- Node7 -->
<g id="node7" class="node">
<title>Node7</title>
<g id="a_node7"><a xlink:href="class_vector.html" target="_top" xlink:title="Opisuje wektor o SIZE&#45;wierszach.">
<polygon fill="none" stroke="black" points="170.5,-639.5 170.5,-927.5 289.5,-927.5 289.5,-639.5 170.5,-639.5"/>
<text text-anchor="middle" x="230" y="-915.5" font-family="Helvetica,sans-Serif" font-size="10.00">Vector&lt; type, SIZE &gt;</text>
<polyline fill="none" stroke="black" points="170.5,-908.5 289.5,-908.5 "/>
<text text-anchor="middle" x="230" y="-896.5" font-family="Helvetica,sans-Serif" font-size="10.00"> </text>
<polyline fill="none" stroke="black" points="170.5,-889.5 289.5,-889.5 "/>
<text text-anchor="start" x="178.5" y="-877.5" font-family="Helvetica,sans-Serif" font-size="10.00">+ Vector()</text>
<text text-anchor="start" x="178.5" y="-866.5" font-family="Helvetica,sans-Serif" font-size="10.00">+ Vector()</text>
<text text-anchor="start" x="178.5" y="-855.5" font-family="Helvetica,sans-Serif" font-size="10.00">+ operator+()</text>
<text text-anchor="start" x="178.5" y="-844.5" font-family="Helvetica,sans-Serif" font-size="10.00">+ operator&#45;()</text>
<text text-anchor="start" x="178.5" y="-833.5" font-family="Helvetica,sans-Serif" font-size="10.00">+ operator*()</text>
<text text-anchor="start" x="178.5" y="-822.5" font-family="Helvetica,sans-Serif" font-size="10.00">+ operator/()</text>
<text text-anchor="start" x="178.5" y="-811.5" font-family="Helvetica,sans-Serif" font-size="10.00">+ operator==()</text>
<text text-anchor="start" x="178.5" y="-800.5" font-family="Helvetica,sans-Serif" font-size="10.00">+ scale_vec()</text>
<text text-anchor="start" x="178.5" y="-789.5" font-family="Helvetica,sans-Serif" font-size="10.00">+ rotate()</text>
<text text-anchor="start" x="178.5" y="-778.5" font-family="Helvetica,sans-Serif" font-size="10.00">+ modulus2()</text>
<text text-anchor="start" x="178.5" y="-767.5" font-family="Helvetica,sans-Serif" font-size="10.00">+ get_vec()</text>
<text text-anchor="start" x="178.5" y="-756.5" font-family="Helvetica,sans-Serif" font-size="10.00">+ translation()</text>
<text text-anchor="start" x="178.5" y="-745.5" font-family="Helvetica,sans-Serif" font-size="10.00">+ get_len()</text>
<text text-anchor="start" x="178.5" y="-734.5" font-family="Helvetica,sans-Serif" font-size="10.00">+ get_slope_angle()</text>
<text text-anchor="start" x="178.5" y="-723.5" font-family="Helvetica,sans-Serif" font-size="10.00">+ get_quarter()</text>
<text text-anchor="start" x="178.5" y="-712.5" font-family="Helvetica,sans-Serif" font-size="10.00">+ operator[]()</text>
<text text-anchor="start" x="178.5" y="-701.5" font-family="Helvetica,sans-Serif" font-size="10.00">+ operator[]()</text>
<text text-anchor="start" x="178.5" y="-690.5" font-family="Helvetica,sans-Serif" font-size="10.00">+ scalar_prod()</text>
<text text-anchor="start" x="178.5" y="-679.5" font-family="Helvetica,sans-Serif" font-size="10.00">+ rotate()</text>
<text text-anchor="start" x="178.5" y="-668.5" font-family="Helvetica,sans-Serif" font-size="10.00">+ get_slope_angle()</text>
<text text-anchor="start" x="178.5" y="-657.5" font-family="Helvetica,sans-Serif" font-size="10.00">+ rotate()</text>
<text text-anchor="start" x="178.5" y="-646.5" font-family="Helvetica,sans-Serif" font-size="10.00">+ get_slope_angle()</text>
</a>
</g>
</g>
<!-- Node7&#45;&gt;Node2 -->
<g id="edge7" class="edge">
<title>Node7&#45;&gt;Node2</title>
<path fill="none" stroke="orange" d="M230,-629.34C230,-616.76 230,-604.07 230,-591.57"/>
<polygon fill="orange" stroke="orange" points="226.5,-629.4 230,-639.4 233.5,-629.4 226.5,-629.4"/>
<text text-anchor="middle" x="265.5" y="-613" font-family="Helvetica,sans-Serif" font-size="10.00"> &lt; double, 3 &gt;</text>
</g>
<!-- Node8&#45;&gt;Node7 -->
<g id="edge8" class="edge">
<title>Node8&#45;&gt;Node7</title>
<path fill="none" stroke="midnightblue" d="M230,-965.22C230,-953.34 230,-940.65 230,-927.7"/>
<polygon fill="none" stroke="midnightblue" points="226.5,-965.44 230,-975.44 233.5,-965.44 226.5,-965.44"/>
</g>
<!-- Node9 -->
<g id="node9" class="node">
<title>Node9</title>
<g id="a_node9"><a xlink:href="classstatic_01int.html" target="_top" xlink:title=" ">
<polygon fill="none" stroke="black" points="352.5,-1185 352.5,-1242 411.5,-1242 411.5,-1185 352.5,-1185"/>
<text text-anchor="middle" x="382" y="-1230" font-family="Helvetica,sans-Serif" font-size="10.00">static int</text>
<polyline fill="none" stroke="black" points="352.5,-1223 411.5,-1223 "/>
<text text-anchor="middle" x="382" y="-1211" font-family="Helvetica,sans-Serif" font-size="10.00"> </text>
<polyline fill="none" stroke="black" points="352.5,-1204 411.5,-1204 "/>
<text text-anchor="middle" x="382" y="-1192" font-family="Helvetica,sans-Serif" font-size="10.00"> </text>
</a>
</g>
</g>
<!-- Node9&#45;&gt;Node8 -->
<g id="edge9" class="edge">
<title>Node9&#45;&gt;Node8</title>
<path fill="none" stroke="#404040" d="M378.15,-1184.96C373.88,-1163.9 365.03,-1135.43 347,-1117 333.74,-1103.45 323.12,-1108.31 302.46,-1098.83"/>
<polygon fill="none" stroke="#404040" points="302.4,-1098.8 295.22,-1099.47 291.84,-1093.11 299.02,-1092.43 302.4,-1098.8"/>
<text text-anchor="middle" x="404" y="-1131" font-family="Helvetica,sans-Serif" font-size="10.00"> #objects_alive</text>
<text text-anchor="middle" x="404" y="-1120" font-family="Helvetica,sans-Serif" font-size="10.00">#objects_created</text>
</g>
<!-- Node10 -->
<g id="node10" class="node">
<title>Node10</title>
<g id="a_node10"><a xlink:title=" ">
<polygon fill="none" stroke="#bfbfbf" points="310,-1008.5 310,-1065.5 348,-1065.5 348,-1008.5 310,-1008.5"/>
<text text-anchor="middle" x="329" y="-1053.5" font-family="Helvetica,sans-Serif" font-size="10.00">type</text>
<polyline fill="none" stroke="#bfbfbf" points="310,-1046.5 348,-1046.5 "/>
<text text-anchor="middle" x="329" y="-1034.5" font-family="Helvetica,sans-Serif" font-size="10.00"> </text>
<polyline fill="none" stroke="#bfbfbf" points="310,-1027.5 348,-1027.5 "/>
<text text-anchor="middle" x="329" y="-1015.5" font-family="Helvetica,sans-Serif" font-size="10.00"> </text>
</a>
</g>
</g>
<!-- Node10&#45;&gt;Node7 -->
<g id="edge11" class="edge">
<title>Node10&#45;&gt;Node7</title>
<path fill="none" stroke="#404040" d="M318.03,-1008.12C311,-990.28 301.26,-965.54 290.82,-939"/>
<polygon fill="none" stroke="#404040" points="290.7,-938.7 284.78,-934.58 286.3,-927.53 292.22,-931.65 290.7,-938.7"/>
<text text-anchor="middle" x="309.5" y="-949" font-family="Helvetica,sans-Serif" font-size="10.00"> &#45;size</text>
</g>
<!-- Node11 -->
<g id="node11" class="node">
<title>Node11</title>
<g id="a_node11"><a xlink:title=" ">
<polygon fill="none" stroke="#bfbfbf" points="306,-419 306,-476 350,-476 350,-419 306,-419"/>
<text text-anchor="middle" x="328" y="-464" font-family="Helvetica,sans-Serif" font-size="10.00">string</text>
<polyline fill="none" stroke="#bfbfbf" points="306,-457 350,-457 "/>
<text text-anchor="middle" x="328" y="-445" font-family="Helvetica,sans-Serif" font-size="10.00"> </text>
<polyline fill="none" stroke="#bfbfbf" points="306,-438 350,-438 "/>
<text text-anchor="middle" x="328" y="-426" font-family="Helvetica,sans-Serif" font-size="10.00"> </text>
</a>
</g>
</g>
<!-- Node11&#45;&gt;Node1 -->
<g id="edge12" class="edge">
<title>Node11&#45;&gt;Node1</title>
<path fill="none" stroke="#404040" d="M323.82,-418.96C318.34,-382.85 308.35,-316.97 299.19,-256.57"/>
<polygon fill="none" stroke="#404040" points="299.17,-256.44 294.31,-251.11 297.37,-244.57 302.22,-249.91 299.17,-256.44"/>
<text text-anchor="middle" x="343.5" y="-277" font-family="Helvetica,sans-Serif" font-size="10.00"> #sample_name</text>
<text text-anchor="middle" x="343.5" y="-266" font-family="Helvetica,sans-Serif" font-size="10.00">#final_name</text>
</g>
</g>
</svg>
