<?xml version="1.0" encoding="UTF-8" standalone="no"?>
<!DOCTYPE svg PUBLIC "-//W3C//DTD SVG 1.1//EN"
 "http://www.w3.org/Graphics/SVG/1.1/DTD/svg11.dtd">
<!-- Generated by graphviz version 2.43.0 (0)
 -->
<!-- Title: Drone::scale_dro Pages: 1 -->
<svg width="558pt" height="66pt"
 viewBox="0.00 0.00 558.00 66.00" xmlns="http://www.w3.org/2000/svg" xmlns:xlink="http://www.w3.org/1999/xlink">
<g id="graph0" class="graph" transform="scale(1 1) rotate(0) translate(4 62)">
<title>Drone::scale_dro</title>
<!-- Node1 -->
<g id="node1" class="node">
<title>Node1</title>
<g id="a_node1"><a xlink:title="Metoda skalujaca wszystkie elementy drona przez skale kazdego elementu">
<polygon fill="#bfbfbf" stroke="black" points="0,-19.5 0,-38.5 98,-38.5 98,-19.5 0,-19.5"/>
<text text-anchor="middle" x="49" y="-26.5" font-family="Helvetica,sans-Serif" font-size="10.00">Drone::scale_dro</text>
</a>
</g>
</g>
<!-- Node2 -->
<g id="node2" class="node">
<title>Node2</title>
<g id="a_node2"><a xlink:href="class_cuboid.html#a7ea89af123502b41ef349f4aedb93b5e" target="_top" xlink:title="Metoda skalujaca o wektor scale bedacy czlonkiem klasy block">
<polygon fill="none" stroke="black" points="134,-38.5 134,-57.5 238,-57.5 238,-38.5 134,-38.5"/>
<text text-anchor="middle" x="186" y="-45.5" font-family="Helvetica,sans-Serif" font-size="10.00">Cuboid::scale_cub</text>
</a>
</g>
</g>
<!-- Node1&#45;&gt;Node2 -->
<g id="edge1" class="edge">
<title>Node1&#45;&gt;Node2</title>
<path fill="none" stroke="midnightblue" d="M98.36,-35.81C106.62,-36.97 115.31,-38.19 123.85,-39.39"/>
<polygon fill="midnightblue" stroke="midnightblue" points="123.4,-42.86 133.79,-40.79 124.37,-35.93 123.4,-42.86"/>
</g>
<!-- Node4 -->
<g id="node4" class="node">
<title>Node4</title>
<g id="a_node4"><a xlink:href="class_prism.html#a07f15c416c9f9c54390bb8737b441a35" target="_top" xlink:title="Metoda skalujaca o wektor scale bedacy czlonkiem klasy block">
<polygon fill="none" stroke="black" points="139,-0.5 139,-19.5 233,-19.5 233,-0.5 139,-0.5"/>
<text text-anchor="middle" x="186" y="-7.5" font-family="Helvetica,sans-Serif" font-size="10.00">Prism::scale_pri</text>
</a>
</g>
</g>
<!-- Node1&#45;&gt;Node4 -->
<g id="edge3" class="edge">
<title>Node1&#45;&gt;Node4</title>
<path fill="none" stroke="midnightblue" d="M98.36,-22.19C108.23,-20.8 118.7,-19.33 128.82,-17.91"/>
<polygon fill="midnightblue" stroke="midnightblue" points="129.37,-21.36 138.79,-16.5 128.4,-14.43 129.37,-21.36"/>
</g>
<!-- Node3 -->
<g id="node3" class="node">
<title>Node3</title>
<g id="a_node3"><a xlink:href="class_cuboid.html#a42bdce7c214e759cb6ea94d4f547a5b9" target="_top" xlink:title="Metoda przesuwajaca prostopadloscian do (0,0,0)">
<polygon fill="none" stroke="black" points="274,-38.5 274,-57.5 411,-57.5 411,-38.5 274,-38.5"/>
<text text-anchor="middle" x="342.5" y="-45.5" font-family="Helvetica,sans-Serif" font-size="10.00">Cuboid::translation_to_O</text>
</a>
</g>
</g>
<!-- Node2&#45;&gt;Node3 -->
<g id="edge2" class="edge">
<title>Node2&#45;&gt;Node3</title>
<path fill="none" stroke="midnightblue" d="M238.02,-48C246.23,-48 254.89,-48 263.56,-48"/>
<polygon fill="midnightblue" stroke="midnightblue" points="263.73,-51.5 273.73,-48 263.73,-44.5 263.73,-51.5"/>
</g>
<!-- Node5 -->
<g id="node5" class="node">
<title>Node5</title>
<g id="a_node5"><a xlink:href="class_prism.html#afed2c26932d5cb152fd620d2acbfbc3e" target="_top" xlink:title="Metoda przesuwajaca graniastoslup do srodka ukladu wspolrzednych (tak, ze srodek graniastoslupa pokry...">
<polygon fill="none" stroke="black" points="277,-0.5 277,-19.5 408,-19.5 408,-0.5 277,-0.5"/>
<text text-anchor="middle" x="342.5" y="-7.5" font-family="Helvetica,sans-Serif" font-size="10.00">Prism::translation_to_O</text>
</a>
</g>
</g>
<!-- Node4&#45;&gt;Node5 -->
<g id="edge4" class="edge">
<title>Node4&#45;&gt;Node5</title>
<path fill="none" stroke="midnightblue" d="M233.36,-10C243.94,-10 255.46,-10 266.89,-10"/>
<polygon fill="midnightblue" stroke="midnightblue" points="266.9,-13.5 276.9,-10 266.9,-6.5 266.9,-13.5"/>
</g>
<!-- Node6 -->
<g id="node6" class="node">
<title>Node6</title>
<g id="a_node6"><a xlink:href="class_prism.html#ade146d341c0468030f8c1258b7fe1041" target="_top" xlink:title="Metoda przesuwajaca graniastoslup o zadany wektor w 3D">
<polygon fill="none" stroke="black" points="447,-0.5 447,-19.5 550,-19.5 550,-0.5 447,-0.5"/>
<text text-anchor="middle" x="498.5" y="-7.5" font-family="Helvetica,sans-Serif" font-size="10.00">Prism::translation</text>
</a>
</g>
</g>
<!-- Node5&#45;&gt;Node6 -->
<g id="edge5" class="edge">
<title>Node5&#45;&gt;Node6</title>
<path fill="none" stroke="midnightblue" d="M408.36,-10C417.68,-10 427.24,-10 436.48,-10"/>
<polygon fill="midnightblue" stroke="midnightblue" points="436.74,-13.5 446.74,-10 436.74,-6.5 436.74,-13.5"/>
</g>
</g>
</svg>
