<?xml version="1.0" encoding="UTF-8" standalone="no"?>
<!DOCTYPE svg PUBLIC "-//W3C//DTD SVG 1.1//EN"
 "http://www.w3.org/Graphics/SVG/1.1/DTD/svg11.dtd">
<!-- Generated by graphviz version 2.43.0 (0)
 -->
<!-- Title: PzG::LaczeDoGNUPlota Pages: 1 -->
<svg width="911pt" height="930pt"
 viewBox="0.00 0.00 911.00 930.00" xmlns="http://www.w3.org/2000/svg" xmlns:xlink="http://www.w3.org/1999/xlink">
<g id="graph0" class="graph" transform="scale(1 1) rotate(0) translate(4 926)">
<title>PzG::LaczeDoGNUPlota</title>
<!-- Node1 -->
<g id="node1" class="node">
<title>Node1</title>
<g id="a_node1"><a xlink:title="Klasa realizuje interfejs do programu GNUPlot.">
<polygon fill="#bfbfbf" stroke="black" points="250,-0.5 250,-706.5 466,-706.5 466,-0.5 250,-0.5"/>
<text text-anchor="middle" x="358" y="-694.5" font-family="Helvetica,sans-Serif" font-size="10.00">PzG::LaczeDoGNUPlota</text>
<polyline fill="none" stroke="black" points="250,-687.5 466,-687.5 "/>
<text text-anchor="middle" x="358" y="-675.5" font-family="Helvetica,sans-Serif" font-size="10.00"> </text>
<polyline fill="none" stroke="black" points="250,-668.5 466,-668.5 "/>
<text text-anchor="start" x="258" y="-656.5" font-family="Helvetica,sans-Serif" font-size="10.00">+ PokazOs_OX()</text>
<text text-anchor="start" x="258" y="-645.5" font-family="Helvetica,sans-Serif" font-size="10.00">+ PokazOs_OX()</text>
<text text-anchor="start" x="258" y="-634.5" font-family="Helvetica,sans-Serif" font-size="10.00">+ PokazOs_OY()</text>
<text text-anchor="start" x="258" y="-623.5" font-family="Helvetica,sans-Serif" font-size="10.00">+ PokazOs_OY()</text>
<text text-anchor="start" x="258" y="-612.5" font-family="Helvetica,sans-Serif" font-size="10.00">+ Xmin()</text>
<text text-anchor="start" x="258" y="-601.5" font-family="Helvetica,sans-Serif" font-size="10.00">+ Xmax()</text>
<text text-anchor="start" x="258" y="-590.5" font-family="Helvetica,sans-Serif" font-size="10.00">+ Ymin()</text>
<text text-anchor="start" x="258" y="-579.5" font-family="Helvetica,sans-Serif" font-size="10.00">+ Ymax()</text>
<text text-anchor="start" x="258" y="-568.5" font-family="Helvetica,sans-Serif" font-size="10.00">+ Zmin()</text>
<text text-anchor="start" x="258" y="-557.5" font-family="Helvetica,sans-Serif" font-size="10.00">+ Zmax()</text>
<text text-anchor="start" x="258" y="-546.5" font-family="Helvetica,sans-Serif" font-size="10.00">+ ZmienTrybRys()</text>
<text text-anchor="start" x="258" y="-535.5" font-family="Helvetica,sans-Serif" font-size="10.00">+ WezTrybRys()</text>
<text text-anchor="start" x="258" y="-524.5" font-family="Helvetica,sans-Serif" font-size="10.00">+ UstawZakresX()</text>
<text text-anchor="start" x="258" y="-513.5" font-family="Helvetica,sans-Serif" font-size="10.00">+ UstawZakresY()</text>
<text text-anchor="start" x="258" y="-502.5" font-family="Helvetica,sans-Serif" font-size="10.00">+ UstawZakresZ()</text>
<text text-anchor="start" x="258" y="-491.5" font-family="Helvetica,sans-Serif" font-size="10.00">+ SkalaX()</text>
<text text-anchor="start" x="258" y="-480.5" font-family="Helvetica,sans-Serif" font-size="10.00">+ SkalaZ()</text>
<text text-anchor="start" x="258" y="-469.5" font-family="Helvetica,sans-Serif" font-size="10.00">+ UstawSkaleX()</text>
<text text-anchor="start" x="258" y="-458.5" font-family="Helvetica,sans-Serif" font-size="10.00">+ UstawSkaleZ()</text>
<text text-anchor="start" x="258" y="-447.5" font-family="Helvetica,sans-Serif" font-size="10.00">+ UstawSkaleXZ()</text>
<text text-anchor="start" x="258" y="-436.5" font-family="Helvetica,sans-Serif" font-size="10.00">+ RotacjaX()</text>
<text text-anchor="start" x="258" y="-425.5" font-family="Helvetica,sans-Serif" font-size="10.00">+ RotacjaZ()</text>
<text text-anchor="start" x="258" y="-414.5" font-family="Helvetica,sans-Serif" font-size="10.00">+ UstawRotacjeX()</text>
<text text-anchor="start" x="258" y="-403.5" font-family="Helvetica,sans-Serif" font-size="10.00">+ UstawRotacjeZ()</text>
<text text-anchor="start" x="258" y="-392.5" font-family="Helvetica,sans-Serif" font-size="10.00">+ UstawRotacjeXZ()</text>
<text text-anchor="start" x="258" y="-381.5" font-family="Helvetica,sans-Serif" font-size="10.00">+ WyswietlajKomunikatyBledow()</text>
<text text-anchor="start" x="258" y="-370.5" font-family="Helvetica,sans-Serif" font-size="10.00">+ DodajNazwePliku()</text>
<text text-anchor="start" x="258" y="-359.5" font-family="Helvetica,sans-Serif" font-size="10.00">+ DodajNazwePliku_Lamana()</text>
<text text-anchor="start" x="258" y="-348.5" font-family="Helvetica,sans-Serif" font-size="10.00">+ DodajNazwePliku_Jednakowe</text>
<text text-anchor="start" x="258" y="-337.5" font-family="Helvetica,sans-Serif" font-size="10.00">Punkty()</text>
<text text-anchor="start" x="258" y="-326.5" font-family="Helvetica,sans-Serif" font-size="10.00">+ DodajNazwePliku_PunktyRoznej</text>
<text text-anchor="start" x="258" y="-315.5" font-family="Helvetica,sans-Serif" font-size="10.00">Wielkosci()</text>
<text text-anchor="start" x="258" y="-304.5" font-family="Helvetica,sans-Serif" font-size="10.00">+ ZnajdzNazwePliku()</text>
<text text-anchor="start" x="258" y="-293.5" font-family="Helvetica,sans-Serif" font-size="10.00">+ ZnajdzNazwePliku()</text>
<text text-anchor="start" x="258" y="-282.5" font-family="Helvetica,sans-Serif" font-size="10.00">+ ZnajdzNazwePliku()</text>
<text text-anchor="start" x="258" y="-271.5" font-family="Helvetica,sans-Serif" font-size="10.00">+ ZnajdzNazwePliku()</text>
<text text-anchor="start" x="258" y="-260.5" font-family="Helvetica,sans-Serif" font-size="10.00">+ UsunNazwePliku()</text>
<text text-anchor="start" x="258" y="-249.5" font-family="Helvetica,sans-Serif" font-size="10.00">+ UsunNazwePliku()</text>
<text text-anchor="start" x="258" y="-238.5" font-family="Helvetica,sans-Serif" font-size="10.00">+ UsunNazwePliku()</text>
<text text-anchor="start" x="258" y="-227.5" font-family="Helvetica,sans-Serif" font-size="10.00">+ DopiszRysowanieZPlikow()</text>
<text text-anchor="start" x="258" y="-216.5" font-family="Helvetica,sans-Serif" font-size="10.00">+ DopiszRysowanieZRoznychPunktow()</text>
<text text-anchor="start" x="258" y="-205.5" font-family="Helvetica,sans-Serif" font-size="10.00">+ CzyPolaczenieJestZainicjowane()</text>
<text text-anchor="start" x="258" y="-194.5" font-family="Helvetica,sans-Serif" font-size="10.00">+ Rysuj()</text>
<text text-anchor="start" x="258" y="-183.5" font-family="Helvetica,sans-Serif" font-size="10.00">+ RysujDoPliku()</text>
<text text-anchor="start" x="258" y="-172.5" font-family="Helvetica,sans-Serif" font-size="10.00">+ Inicjalizuj()</text>
<text text-anchor="start" x="258" y="-161.5" font-family="Helvetica,sans-Serif" font-size="10.00">+ UsunOstatniaNazwe_ListaLokalna()</text>
<text text-anchor="start" x="258" y="-150.5" font-family="Helvetica,sans-Serif" font-size="10.00">+ UsunOstatniaNazwe_ListaGlobalna()</text>
<text text-anchor="start" x="258" y="-139.5" font-family="Helvetica,sans-Serif" font-size="10.00">+ UsunWszystkieNazwyPlikow()</text>
<text text-anchor="start" x="258" y="-128.5" font-family="Helvetica,sans-Serif" font-size="10.00">+ LaczeDoGNUPlota()</text>
<text text-anchor="start" x="258" y="-117.5" font-family="Helvetica,sans-Serif" font-size="10.00">+ ~LaczeDoGNUPlota()</text>
<text text-anchor="start" x="258" y="-106.5" font-family="Helvetica,sans-Serif" font-size="10.00"># DopiszPlikiDoPoleceniaRysowania()</text>
<text text-anchor="start" x="258" y="-95.5" font-family="Helvetica,sans-Serif" font-size="10.00"># ZapiszUstawienieZakresu()</text>
<text text-anchor="start" x="258" y="-84.5" font-family="Helvetica,sans-Serif" font-size="10.00"># ZapiszUstawienieRotacjiISkali()</text>
<text text-anchor="start" x="258" y="-73.5" font-family="Helvetica,sans-Serif" font-size="10.00"># PrzeslijDoGNUPlota()</text>
<text text-anchor="start" x="258" y="-62.5" font-family="Helvetica,sans-Serif" font-size="10.00"># CzyWyswietlacKomunikaty()</text>
<text text-anchor="start" x="258" y="-51.5" font-family="Helvetica,sans-Serif" font-size="10.00"># UtworzProcesPotomny()</text>
<text text-anchor="start" x="258" y="-40.5" font-family="Helvetica,sans-Serif" font-size="10.00"># KomunikatBledu()</text>
<text text-anchor="start" x="258" y="-29.5" font-family="Helvetica,sans-Serif" font-size="10.00"># BudujPreambulePoleceniaRysowania()</text>
<text text-anchor="start" x="258" y="-18.5" font-family="Helvetica,sans-Serif" font-size="10.00"># BudujPreambule_2D()</text>
<text text-anchor="start" x="258" y="-7.5" font-family="Helvetica,sans-Serif" font-size="10.00"># BudujPreambule_3D()</text>
</a>
</g>
</g>
<!-- Node2 -->
<g id="node2" class="node">
<title>Node2</title>
<g id="a_node2"><a xlink:title=" ">
<polygon fill="none" stroke="#bfbfbf" points="0,-864.5 0,-921.5 188,-921.5 188,-864.5 0,-864.5"/>
<text text-anchor="middle" x="94" y="-909.5" font-family="Helvetica,sans-Serif" font-size="10.00">list&lt; PzG::InfoPlikuDoRysowania &gt;</text>
<polyline fill="none" stroke="#bfbfbf" points="0,-902.5 188,-902.5 "/>
<text text-anchor="middle" x="94" y="-890.5" font-family="Helvetica,sans-Serif" font-size="10.00"> </text>
<polyline fill="none" stroke="#bfbfbf" points="0,-883.5 188,-883.5 "/>
<text text-anchor="middle" x="94" y="-871.5" font-family="Helvetica,sans-Serif" font-size="10.00"> </text>
</a>
</g>
</g>
<!-- Node2&#45;&gt;Node1 -->
<g id="edge1" class="edge">
<title>Node2&#45;&gt;Node1</title>
<path fill="none" stroke="#404040" d="M66.29,-864.48C62.07,-858.79 58.35,-852.53 56,-846 37.8,-795.4 37.97,-775.66 56,-725 92.96,-621.16 172.86,-525.34 241.19,-457.17"/>
<polygon fill="none" stroke="#404040" points="241.36,-457.01 242.82,-449.94 249.9,-448.57 248.44,-455.64 241.36,-457.01"/>
<text text-anchor="middle" x="101" y="-783" font-family="Helvetica,sans-Serif" font-size="10.00"> #_InfoPlikow_Lok</text>
</g>
<!-- Node2&#45;&gt;Node1 -->
<g id="edge4" class="edge">
<title>Node2&#45;&gt;Node1</title>
<path fill="none" stroke="#404040" d="M130.65,-864.45C136.4,-858.85 141.81,-852.62 146,-846 175.93,-798.69 161.09,-777.32 181,-725 199.62,-676.07 222.13,-624.72 244.75,-576.36"/>
<polygon fill="none" stroke="#404040" points="244.78,-576.3 243.72,-569.17 249.89,-565.44 250.96,-572.58 244.78,-576.3"/>
<text text-anchor="middle" x="225.5" y="-783" font-family="Helvetica,sans-Serif" font-size="10.00"> #_InfoPlikow_Glb</text>
</g>
<!-- Node3 -->
<g id="node3" class="node">
<title>Node3</title>
<g id="a_node3"><a xlink:title=" ">
<polygon fill="none" stroke="#bfbfbf" points="245,-864.5 245,-921.5 283,-921.5 283,-864.5 245,-864.5"/>
<text text-anchor="middle" x="264" y="-909.5" font-family="Helvetica,sans-Serif" font-size="10.00">float</text>
<polyline fill="none" stroke="#bfbfbf" points="245,-902.5 283,-902.5 "/>
<text text-anchor="middle" x="264" y="-890.5" font-family="Helvetica,sans-Serif" font-size="10.00"> </text>
<polyline fill="none" stroke="#bfbfbf" points="245,-883.5 283,-883.5 "/>
<text text-anchor="middle" x="264" y="-871.5" font-family="Helvetica,sans-Serif" font-size="10.00"> </text>
</a>
</g>
</g>
<!-- Node3&#45;&gt;Node1 -->
<g id="edge2" class="edge">
<title>Node3&#45;&gt;Node1</title>
<path fill="none" stroke="#404040" d="M268.86,-864.23C274.25,-833.38 283.62,-779.79 294.32,-718.61"/>
<polygon fill="none" stroke="#404040" points="294.34,-718.52 291.43,-711.92 296.41,-706.7 299.31,-713.3 294.34,-718.52"/>
<text text-anchor="middle" x="319.5" y="-838" font-family="Helvetica,sans-Serif" font-size="10.00"> #_Zmax</text>
<text text-anchor="middle" x="319.5" y="-827" font-family="Helvetica,sans-Serif" font-size="10.00">#_Ymin</text>
<text text-anchor="middle" x="319.5" y="-816" font-family="Helvetica,sans-Serif" font-size="10.00">#_Ymax</text>
<text text-anchor="middle" x="319.5" y="-805" font-family="Helvetica,sans-Serif" font-size="10.00">#_Xmin</text>
<text text-anchor="middle" x="319.5" y="-794" font-family="Helvetica,sans-Serif" font-size="10.00">#_Xmax</text>
<text text-anchor="middle" x="319.5" y="-783" font-family="Helvetica,sans-Serif" font-size="10.00">#_Zskala</text>
<text text-anchor="middle" x="319.5" y="-772" font-family="Helvetica,sans-Serif" font-size="10.00">#_Zrotacja</text>
<text text-anchor="middle" x="319.5" y="-761" font-family="Helvetica,sans-Serif" font-size="10.00">#_Xskala</text>
<text text-anchor="middle" x="319.5" y="-750" font-family="Helvetica,sans-Serif" font-size="10.00">#_Xrotacja</text>
<text text-anchor="middle" x="319.5" y="-739" font-family="Helvetica,sans-Serif" font-size="10.00">#_Zmin</text>
<text text-anchor="middle" x="319.5" y="-728" font-family="Helvetica,sans-Serif" font-size="10.00">...</text>
</g>
<!-- Node4 -->
<g id="node4" class="node">
<title>Node4</title>
<g id="a_node4"><a xlink:title=" ">
<polygon fill="none" stroke="#bfbfbf" points="301.5,-864.5 301.5,-921.5 414.5,-921.5 414.5,-864.5 301.5,-864.5"/>
<text text-anchor="middle" x="358" y="-909.5" font-family="Helvetica,sans-Serif" font-size="10.00">TypTrybuRysowania</text>
<polyline fill="none" stroke="#bfbfbf" points="301.5,-902.5 414.5,-902.5 "/>
<text text-anchor="middle" x="358" y="-890.5" font-family="Helvetica,sans-Serif" font-size="10.00"> </text>
<polyline fill="none" stroke="#bfbfbf" points="301.5,-883.5 414.5,-883.5 "/>
<text text-anchor="middle" x="358" y="-871.5" font-family="Helvetica,sans-Serif" font-size="10.00"> </text>
</a>
</g>
</g>
<!-- Node4&#45;&gt;Node1 -->
<g id="edge3" class="edge">
<title>Node4&#45;&gt;Node1</title>
<path fill="none" stroke="#404040" d="M358,-864.23C358,-833.45 358,-780.01 358,-719"/>
<polygon fill="none" stroke="#404040" points="358,-718.7 354,-712.7 358,-706.7 362,-712.7 358,-718.7"/>
<text text-anchor="middle" x="385.5" y="-783" font-family="Helvetica,sans-Serif" font-size="10.00"> #_TrybRys</text>
</g>
<!-- Node5 -->
<g id="node5" class="node">
<title>Node5</title>
<g id="a_node5"><a xlink:title=" ">
<polygon fill="none" stroke="#bfbfbf" points="432.5,-864.5 432.5,-921.5 461.5,-921.5 461.5,-864.5 432.5,-864.5"/>
<text text-anchor="middle" x="447" y="-909.5" font-family="Helvetica,sans-Serif" font-size="10.00">int</text>
<polyline fill="none" stroke="#bfbfbf" points="432.5,-902.5 461.5,-902.5 "/>
<text text-anchor="middle" x="447" y="-890.5" font-family="Helvetica,sans-Serif" font-size="10.00"> </text>
<polyline fill="none" stroke="#bfbfbf" points="432.5,-883.5 461.5,-883.5 "/>
<text text-anchor="middle" x="447" y="-871.5" font-family="Helvetica,sans-Serif" font-size="10.00"> </text>
</a>
</g>
</g>
<!-- Node5&#45;&gt;Node1 -->
<g id="edge5" class="edge">
<title>Node5&#45;&gt;Node1</title>
<path fill="none" stroke="#404040" d="M440.73,-864.32C439.43,-858.29 438.12,-851.94 437,-846 429.21,-804.77 421.54,-761.5 414.21,-718.45"/>
<polygon fill="none" stroke="#404040" points="414.21,-718.45 409.26,-713.2 412.2,-706.62 417.15,-711.86 414.21,-718.45"/>
<text text-anchor="middle" x="490.5" y="-788.5" font-family="Helvetica,sans-Serif" font-size="10.00"> #_Wejscie_GNUPlota</text>
<text text-anchor="middle" x="490.5" y="-777.5" font-family="Helvetica,sans-Serif" font-size="10.00">#_Wyjscie_GNUPlota</text>
</g>
<!-- Node6 -->
<g id="node6" class="node">
<title>Node6</title>
<g id="a_node6"><a xlink:title=" ">
<polygon fill="none" stroke="#bfbfbf" points="544,-864.5 544,-921.5 588,-921.5 588,-864.5 544,-864.5"/>
<text text-anchor="middle" x="566" y="-909.5" font-family="Helvetica,sans-Serif" font-size="10.00">string</text>
<polyline fill="none" stroke="#bfbfbf" points="544,-902.5 588,-902.5 "/>
<text text-anchor="middle" x="566" y="-890.5" font-family="Helvetica,sans-Serif" font-size="10.00"> </text>
<polyline fill="none" stroke="#bfbfbf" points="544,-883.5 588,-883.5 "/>
<text text-anchor="middle" x="566" y="-871.5" font-family="Helvetica,sans-Serif" font-size="10.00"> </text>
</a>
</g>
</g>
<!-- Node6&#45;&gt;Node1 -->
<g id="edge6" class="edge">
<title>Node6&#45;&gt;Node1</title>
<path fill="none" stroke="#404040" d="M565.16,-864.21C563.51,-830.57 558.6,-772.52 544,-725 525.96,-666.31 499.29,-605.59 471.74,-550.71"/>
<polygon fill="none" stroke="#404040" points="471.65,-550.52 465.37,-546.97 466.23,-539.81 472.51,-543.36 471.65,-550.52"/>
<text text-anchor="middle" x="632" y="-783" font-family="Helvetica,sans-Serif" font-size="10.00"> #_Preambula_RotacjaSkala</text>
</g>
<!-- Node7 -->
<g id="node7" class="node">
<title>Node7</title>
<g id="a_node7"><a xlink:title=" ">
<polygon fill="none" stroke="#bfbfbf" points="708,-864.5 708,-921.5 746,-921.5 746,-864.5 708,-864.5"/>
<text text-anchor="middle" x="727" y="-909.5" font-family="Helvetica,sans-Serif" font-size="10.00">bool</text>
<polyline fill="none" stroke="#bfbfbf" points="708,-902.5 746,-902.5 "/>
<text text-anchor="middle" x="727" y="-890.5" font-family="Helvetica,sans-Serif" font-size="10.00"> </text>
<polyline fill="none" stroke="#bfbfbf" points="708,-883.5 746,-883.5 "/>
<text text-anchor="middle" x="727" y="-871.5" font-family="Helvetica,sans-Serif" font-size="10.00"> </text>
</a>
</g>
</g>
<!-- Node7&#45;&gt;Node1 -->
<g id="edge7" class="edge">
<title>Node7&#45;&gt;Node1</title>
<path fill="none" stroke="#404040" d="M728.4,-864.25C729.03,-829.88 726.44,-770.34 705,-725 652.49,-614 554.35,-514.07 475.8,-446.05"/>
<polygon fill="none" stroke="#404040" points="475.43,-445.73 468.27,-444.85 466.32,-437.91 473.48,-438.78 475.43,-445.73"/>
<text text-anchor="middle" x="815.5" y="-794" font-family="Helvetica,sans-Serif" font-size="10.00"> #_WyswietlajKomunikatyOBledach</text>
<text text-anchor="middle" x="815.5" y="-783" font-family="Helvetica,sans-Serif" font-size="10.00">#_PokazOs_OX</text>
<text text-anchor="middle" x="815.5" y="-772" font-family="Helvetica,sans-Serif" font-size="10.00">#_PokazOs_OY</text>
</g>
</g>
</svg>
