<?xml version="1.0" encoding="UTF-8" standalone="no"?>
<!DOCTYPE svg PUBLIC "-//W3C//DTD SVG 1.1//EN"
 "http://www.w3.org/Graphics/SVG/1.1/DTD/svg11.dtd">
<!-- Generated by graphviz version 2.43.0 (0)
 -->
<!-- Title: Scene::fly Pages: 1 -->
<svg width="1177pt" height="795pt"
 viewBox="0.00 0.00 1177.00 794.50" xmlns="http://www.w3.org/2000/svg" xmlns:xlink="http://www.w3.org/1999/xlink">
<g id="graph0" class="graph" transform="scale(1 1) rotate(0) translate(4 790.5)">
<title>Scene::fly</title>
<!-- Node1 -->
<g id="node1" class="node">
<title>Node1</title>
<g id="a_node1"><a xlink:title="Przelot aktywnego drona.">
<polygon fill="#bfbfbf" stroke="black" points="0,-453 0,-472 64,-472 64,-453 0,-453"/>
<text text-anchor="middle" x="32" y="-460" font-family="Helvetica,sans-Serif" font-size="10.00">Scene::fly</text>
</a>
</g>
</g>
<!-- Node2 -->
<g id="node2" class="node">
<title>Node2</title>
<g id="a_node2"><a xlink:href="class_scene.html#a1e55ef9fe4c36aea7cbc9304b18271cc" target="_top" xlink:title="Sprawdza czy jakis objekt koliduje z dronem jesli ten mialby wyladowac w danym miejscu">
<polygon fill="none" stroke="black" points="258.5,-666.5 258.5,-696.5 379.5,-696.5 379.5,-666.5 258.5,-666.5"/>
<text text-anchor="start" x="266.5" y="-684.5" font-family="Helvetica,sans-Serif" font-size="10.00">Scene::check_objects</text>
<text text-anchor="middle" x="319" y="-673.5" font-family="Helvetica,sans-Serif" font-size="10.00">_intersect</text>
</a>
</g>
</g>
<!-- Node1&#45;&gt;Node2 -->
<g id="edge1" class="edge">
<title>Node1&#45;&gt;Node2</title>
<path fill="none" stroke="midnightblue" d="M40.72,-472.09C66.25,-503.2 151.56,-602.46 243,-656.5 246.59,-658.62 250.38,-660.59 254.28,-662.42"/>
<polygon fill="midnightblue" stroke="midnightblue" points="252.95,-665.65 263.52,-666.41 255.73,-659.23 252.95,-665.65"/>
</g>
<!-- Node14 -->
<g id="node14" class="node">
<title>Node14</title>
<g id="a_node14"><a xlink:href="class_scene.html#aa5fc0e5a94bfa0766f6e5ff10993630d" target="_top" xlink:title="Skanowanie powierzchni pod dronem, gdy dron nie moze wyladowac w danym miejscu &#160;&#160;Rysowany jest rownie...">
<polygon fill="none" stroke="black" points="100,-434 100,-453 207,-453 207,-434 100,-434"/>
<text text-anchor="middle" x="153.5" y="-441" font-family="Helvetica,sans-Serif" font-size="10.00">Scene::scan_plane</text>
</a>
</g>
</g>
<!-- Node1&#45;&gt;Node14 -->
<g id="edge14" class="edge">
<title>Node1&#45;&gt;Node14</title>
<path fill="none" stroke="midnightblue" d="M64.09,-457.56C72.02,-456.3 80.85,-454.89 89.76,-453.48"/>
<polygon fill="midnightblue" stroke="midnightblue" points="90.49,-456.9 99.82,-451.88 89.39,-449.99 90.49,-456.9"/>
</g>
<!-- Node3 -->
<g id="node3" class="node">
<title>Node3</title>
<g id="a_node3"><a xlink:href="class_drone.html#a5369b8139325f0f8d7eb0a7db7c684cd" target="_top" xlink:title="Methoda sprawdzajaca czy rzutowanie drona na plaszczyzne XY &#160;&#160;przecina sie z rzutowaniem prostopadlos...">
<polygon fill="none" stroke="black" points="447.5,-672 447.5,-691 590.5,-691 590.5,-672 447.5,-672"/>
<text text-anchor="middle" x="519" y="-679" font-family="Helvetica,sans-Serif" font-size="10.00">Drone::check_intersection</text>
</a>
</g>
</g>
<!-- Node2&#45;&gt;Node3 -->
<g id="edge2" class="edge">
<title>Node2&#45;&gt;Node3</title>
<path fill="none" stroke="midnightblue" d="M379.68,-681.5C397.72,-681.5 417.86,-681.5 437.05,-681.5"/>
<polygon fill="midnightblue" stroke="midnightblue" points="437.29,-685 447.29,-681.5 437.29,-678 437.29,-685"/>
</g>
<!-- Node4 -->
<g id="node4" class="node">
<title>Node4</title>
<g id="a_node4"><a xlink:href="class_drone.html#a0a57fc27f1cfacca5172426c15749b75" target="_top" xlink:title="Methoda powieksza rzutowana figure o radius w odpowiedni sposob.">
<polygon fill="none" stroke="black" points="649,-767 649,-786 782,-786 782,-767 649,-767"/>
<text text-anchor="middle" x="715.5" y="-774" font-family="Helvetica,sans-Serif" font-size="10.00">Drone::enlargen_by_rad</text>
</a>
</g>
</g>
<!-- Node3&#45;&gt;Node4 -->
<g id="edge3" class="edge">
<title>Node3&#45;&gt;Node4</title>
<path fill="none" stroke="midnightblue" d="M532.59,-691.04C554.13,-706.94 599.89,-738.94 643,-757.5 648.52,-759.88 654.4,-762.02 660.34,-763.93"/>
<polygon fill="midnightblue" stroke="midnightblue" points="659.74,-767.41 670.33,-766.94 661.76,-760.7 659.74,-767.41"/>
</g>
<!-- Node5 -->
<g id="node5" class="node">
<title>Node5</title>
<g id="a_node5"><a xlink:href="class_cuboid.html#a215319dead51277df1c35673c1eb29b3" target="_top" xlink:title="Metoda zwracajaca wierzcholki podstawy prostopadloscianu zrzutowane na plaszczyzne XY do tablicy">
<polygon fill="none" stroke="black" points="653.5,-729 653.5,-748 777.5,-748 777.5,-729 653.5,-729"/>
<text text-anchor="middle" x="715.5" y="-736" font-family="Helvetica,sans-Serif" font-size="10.00">Cuboid::get_basis_pro</text>
</a>
</g>
</g>
<!-- Node3&#45;&gt;Node5 -->
<g id="edge4" class="edge">
<title>Node3&#45;&gt;Node5</title>
<path fill="none" stroke="midnightblue" d="M549.73,-691.05C574.58,-698.94 610.99,-710.31 643,-719.5 650.9,-721.77 659.32,-724.09 667.5,-726.3"/>
<polygon fill="midnightblue" stroke="midnightblue" points="666.75,-729.72 677.31,-728.92 668.56,-722.96 666.75,-729.72"/>
</g>
<!-- Node6 -->
<g id="node6" class="node">
<title>Node6</title>
<g id="a_node6"><a xlink:href="class_drone.html#ab0684fb71c2da878193af0f27a44d276" target="_top" xlink:title="Zwraca promien okregu rzutowany przez dron na plaszczyzne XY">
<polygon fill="none" stroke="black" points="647.5,-691 647.5,-710 783.5,-710 783.5,-691 647.5,-691"/>
<text text-anchor="middle" x="715.5" y="-698" font-family="Helvetica,sans-Serif" font-size="10.00">Drone::get_drone_radius</text>
</a>
</g>
</g>
<!-- Node3&#45;&gt;Node6 -->
<g id="edge5" class="edge">
<title>Node3&#45;&gt;Node6</title>
<path fill="none" stroke="midnightblue" d="M590.77,-688.41C605.92,-689.89 621.99,-691.46 637.36,-692.96"/>
<polygon fill="midnightblue" stroke="midnightblue" points="637.06,-696.45 647.35,-693.94 637.74,-689.48 637.06,-696.45"/>
</g>
<!-- Node10 -->
<g id="node10" class="node">
<title>Node10</title>
<g id="a_node10"><a xlink:href="class_drone.html#ab717196d8d03bde942a75d1f693fe362" target="_top" xlink:title="Zwraca rzutowanie pozycje srodka podstawy body na XY">
<polygon fill="none" stroke="black" points="660,-653 660,-672 771,-672 771,-653 660,-653"/>
<text text-anchor="middle" x="715.5" y="-660" font-family="Helvetica,sans-Serif" font-size="10.00">Drone::get_pos_pro</text>
</a>
</g>
</g>
<!-- Node3&#45;&gt;Node10 -->
<g id="edge9" class="edge">
<title>Node3&#45;&gt;Node10</title>
<path fill="none" stroke="midnightblue" d="M590.77,-674.59C610.1,-672.7 630.95,-670.66 649.92,-668.81"/>
<polygon fill="midnightblue" stroke="midnightblue" points="650.33,-672.28 659.95,-667.83 649.65,-665.32 650.33,-672.28"/>
</g>
<!-- Node12 -->
<g id="node12" class="node">
<title>Node12</title>
<g id="a_node12"><a xlink:href="class_drone.html#a0920ad155e2877898f21a038d68e96f9" target="_top" xlink:title="Methoda sprawdza czy punkt 0,0,0 miesci sie w powiekszonym przez metode &#160;&#160;enlargen_by_rad obszarze w ...">
<polygon fill="none" stroke="black" points="660.5,-615 660.5,-634 770.5,-634 770.5,-615 660.5,-615"/>
<text text-anchor="middle" x="715.5" y="-622" font-family="Helvetica,sans-Serif" font-size="10.00">Drone::main_check</text>
</a>
</g>
</g>
<!-- Node3&#45;&gt;Node12 -->
<g id="edge12" class="edge">
<title>Node3&#45;&gt;Node12</title>
<path fill="none" stroke="midnightblue" d="M549.73,-671.95C574.58,-664.06 610.99,-652.69 643,-643.5 650.9,-641.23 659.32,-638.91 667.5,-636.7"/>
<polygon fill="midnightblue" stroke="midnightblue" points="668.56,-640.04 677.31,-634.08 666.75,-633.28 668.56,-640.04"/>
</g>
<!-- Node13 -->
<g id="node13" class="node">
<title>Node13</title>
<g id="a_node13"><a xlink:href="class_drone.html#a8e86dfee9cdbdc1d2791ad51d1212517" target="_top" xlink:title="Methoda uzywana przy check_intersection() przesuwajaca i rotujaca caly uklad.">
<polygon fill="none" stroke="black" points="651,-565.5 651,-595.5 780,-595.5 780,-565.5 651,-565.5"/>
<text text-anchor="start" x="659" y="-583.5" font-family="Helvetica,sans-Serif" font-size="10.00">Drone::new_coordinate</text>
<text text-anchor="middle" x="715.5" y="-572.5" font-family="Helvetica,sans-Serif" font-size="10.00">_system_intersection</text>
</a>
</g>
</g>
<!-- Node3&#45;&gt;Node13 -->
<g id="edge13" class="edge">
<title>Node3&#45;&gt;Node13</title>
<path fill="none" stroke="midnightblue" d="M533.46,-671.82C555.51,-656.28 601.08,-625.49 643,-605.5 647.56,-603.33 652.36,-601.24 657.22,-599.27"/>
<polygon fill="midnightblue" stroke="midnightblue" points="658.56,-602.51 666.61,-595.62 656.02,-595.98 658.56,-602.51"/>
</g>
<!-- Node7 -->
<g id="node7" class="node">
<title>Node7</title>
<g id="a_node7"><a xlink:href="class_prism.html#ab08ae36567a12753d78ae4b5fb2fbfa2" target="_top" xlink:title="Metoda zwracajaca dlugosc przekatnej podstawy prostopadloscianu">
<polygon fill="none" stroke="black" points="827,-691 827,-710 991,-710 991,-691 827,-691"/>
<text text-anchor="middle" x="909" y="-698" font-family="Helvetica,sans-Serif" font-size="10.00">Prism::get_basis_diagonal_len</text>
</a>
</g>
</g>
<!-- Node6&#45;&gt;Node7 -->
<g id="edge6" class="edge">
<title>Node6&#45;&gt;Node7</title>
<path fill="none" stroke="midnightblue" d="M783.75,-700.5C794.39,-700.5 805.55,-700.5 816.63,-700.5"/>
<polygon fill="midnightblue" stroke="midnightblue" points="816.77,-704 826.77,-700.5 816.77,-697 816.77,-704"/>
</g>
<!-- Node8 -->
<g id="node8" class="node">
<title>Node8</title>
<g id="a_node8"><a xlink:href="class_cuboid.html#a79e4e3337e02d8f8a757561cedbdb71f" target="_top" xlink:title="Metoda zwracajaca dlugosc przekatnej podstawy prostopadloscianu">
<polygon fill="none" stroke="black" points="824,-729 824,-748 994,-748 994,-729 824,-729"/>
<text text-anchor="middle" x="909" y="-736" font-family="Helvetica,sans-Serif" font-size="10.00">Cuboid::get_basis_diagonal_len</text>
</a>
</g>
</g>
<!-- Node6&#45;&gt;Node8 -->
<g id="edge7" class="edge">
<title>Node6&#45;&gt;Node8</title>
<path fill="none" stroke="midnightblue" d="M764.82,-710.09C790.66,-715.22 822.67,-721.57 849.86,-726.96"/>
<polygon fill="midnightblue" stroke="midnightblue" points="849.53,-730.47 860.02,-728.98 850.9,-723.6 849.53,-730.47"/>
</g>
<!-- Node9 -->
<g id="node9" class="node">
<title>Node9</title>
<g id="a_node9"><a xlink:href="class_cuboid.html#a0e7f901199262984ab6ba0da01d96c40" target="_top" xlink:title="Metoda zwracajaca srodek podstawy ostroslupa">
<polygon fill="none" stroke="black" points="1030,-691 1030,-710 1169,-710 1169,-691 1030,-691"/>
<text text-anchor="middle" x="1099.5" y="-698" font-family="Helvetica,sans-Serif" font-size="10.00">Cuboid::get_basis_centre</text>
</a>
</g>
</g>
<!-- Node8&#45;&gt;Node9 -->
<g id="edge8" class="edge">
<title>Node8&#45;&gt;Node9</title>
<path fill="none" stroke="midnightblue" d="M957.57,-728.91C983,-723.78 1014.5,-717.43 1041.27,-712.04"/>
<polygon fill="midnightblue" stroke="midnightblue" points="1042.16,-715.43 1051.28,-710.02 1040.78,-708.57 1042.16,-715.43"/>
</g>
<!-- Node11 -->
<g id="node11" class="node">
<title>Node11</title>
<g id="a_node11"><a xlink:href="class_drone.html#abf6bc328fea7ec556e5a23ca37cf6d8e" target="_top" xlink:title="Zwraca pozycje srodka podstawy body">
<polygon fill="none" stroke="black" points="864,-653 864,-672 954,-672 954,-653 864,-653"/>
<text text-anchor="middle" x="909" y="-660" font-family="Helvetica,sans-Serif" font-size="10.00">Drone::get_pos</text>
</a>
</g>
</g>
<!-- Node10&#45;&gt;Node11 -->
<g id="edge10" class="edge">
<title>Node10&#45;&gt;Node11</title>
<path fill="none" stroke="midnightblue" d="M771.12,-662.5C797.08,-662.5 828.02,-662.5 853.91,-662.5"/>
<polygon fill="midnightblue" stroke="midnightblue" points="853.93,-666 863.93,-662.5 853.93,-659 853.93,-666"/>
</g>
<!-- Node11&#45;&gt;Node9 -->
<g id="edge11" class="edge">
<title>Node11&#45;&gt;Node9</title>
<path fill="none" stroke="midnightblue" d="M954.19,-671.41C980.17,-676.65 1013.29,-683.32 1041.24,-688.96"/>
<polygon fill="midnightblue" stroke="midnightblue" points="1040.79,-692.44 1051.29,-690.98 1042.18,-685.58 1040.79,-692.44"/>
</g>
<!-- Node14&#45;&gt;Node2 -->
<g id="edge15" class="edge">
<title>Node14&#45;&gt;Node2</title>
<path fill="none" stroke="midnightblue" d="M158.64,-453.12C167.57,-473.94 189.3,-524.73 207,-567.5 223.32,-606.93 211.9,-627.29 243,-656.5 244.97,-658.35 247.08,-660.06 249.3,-661.65"/>
<polygon fill="midnightblue" stroke="midnightblue" points="247.96,-664.93 258.31,-667.16 251.61,-658.96 247.96,-664.93"/>
</g>
<!-- Node15 -->
<g id="node15" class="node">
<title>Node15</title>
<g id="a_node15"><a xlink:href="class_pz_g_1_1_lacze_do_g_n_u_plota.html#aa815ce8ec16e12fc246cf422e562869e" target="_top" xlink:title="Dodaje nazwę pliku.">
<polygon fill="none" stroke="black" points="254,-529.5 254,-559.5 384,-559.5 384,-529.5 254,-529.5"/>
<text text-anchor="start" x="262" y="-547.5" font-family="Helvetica,sans-Serif" font-size="10.00">PzG::LaczeDoGNUPlota</text>
<text text-anchor="middle" x="319" y="-536.5" font-family="Helvetica,sans-Serif" font-size="10.00">::DodajNazwePliku</text>
</a>
</g>
</g>
<!-- Node14&#45;&gt;Node15 -->
<g id="edge16" class="edge">
<title>Node14&#45;&gt;Node15</title>
<path fill="none" stroke="midnightblue" d="M163.14,-453.02C178.02,-468.88 210.05,-500.83 243,-519.5 246.69,-521.59 250.59,-523.55 254.59,-525.36"/>
<polygon fill="midnightblue" stroke="midnightblue" points="253.47,-528.69 264.04,-529.35 256.19,-522.24 253.47,-528.69"/>
</g>
<!-- Node17 -->
<g id="node17" class="node">
<title>Node17</title>
<g id="a_node17"><a xlink:href="class_block.html#aeef4dd3716afaea42688a4f96456ce27" target="_top" xlink:title="Metoda zwracajaca nazwe pliku z finalna (robocza) bryla">
<polygon fill="none" stroke="black" points="256.5,-491 256.5,-510 381.5,-510 381.5,-491 256.5,-491"/>
<text text-anchor="middle" x="319" y="-498" font-family="Helvetica,sans-Serif" font-size="10.00">Block::get_final_name</text>
</a>
</g>
</g>
<!-- Node14&#45;&gt;Node17 -->
<g id="edge18" class="edge">
<title>Node14&#45;&gt;Node17</title>
<path fill="none" stroke="midnightblue" d="M174.18,-453.02C191.89,-461.32 218.77,-473.29 243,-481.5 250.16,-483.93 257.81,-486.21 265.37,-488.29"/>
<polygon fill="midnightblue" stroke="midnightblue" points="264.66,-491.72 275.22,-490.9 266.45,-484.95 264.66,-491.72"/>
</g>
<!-- Node18 -->
<g id="node18" class="node">
<title>Node18</title>
<g id="a_node18"><a xlink:href="class_drone.html#ac8dedb6cf49bdb580df253e3a90d3637" target="_top" xlink:title="Metoda zwracajaca orientacje drona">
<polygon fill="none" stroke="black" points="270,-453 270,-472 368,-472 368,-453 270,-453"/>
<text text-anchor="middle" x="319" y="-460" font-family="Helvetica,sans-Serif" font-size="10.00">Drone::get_orien</text>
</a>
</g>
</g>
<!-- Node14&#45;&gt;Node18 -->
<g id="edge19" class="edge">
<title>Node14&#45;&gt;Node18</title>
<path fill="none" stroke="midnightblue" d="M207.13,-449.62C223.99,-451.58 242.74,-453.75 259.96,-455.76"/>
<polygon fill="midnightblue" stroke="midnightblue" points="259.56,-459.23 269.9,-456.91 260.37,-452.28 259.56,-459.23"/>
</g>
<!-- Node19 -->
<g id="node19" class="node">
<title>Node19</title>
<g id="a_node19"><a xlink:href="class_prism.html#a2de0dab6d117fc3c8dcbc3c384d0fccd" target="_top" xlink:title=" ">
<polygon fill="none" stroke="black" points="261,-415 261,-434 377,-434 377,-415 261,-415"/>
<text text-anchor="middle" x="319" y="-422" font-family="Helvetica,sans-Serif" font-size="10.00">Prism::Prism_To_File</text>
</a>
</g>
</g>
<!-- Node14&#45;&gt;Node19 -->
<g id="edge20" class="edge">
<title>Node14&#45;&gt;Node19</title>
<path fill="none" stroke="midnightblue" d="M207.13,-437.38C221.09,-435.76 236.35,-433.99 250.96,-432.29"/>
<polygon fill="midnightblue" stroke="midnightblue" points="251.42,-435.76 260.94,-431.13 250.61,-428.81 251.42,-435.76"/>
</g>
<!-- Node21 -->
<g id="node21" class="node">
<title>Node21</title>
<g id="a_node21"><a xlink:href="class_drone.html#ad42bc54902df967b94717617aca1a974" target="_top" xlink:title="Metoda obracajaca dron o zadany kat w 3D wokol srodka figury">
<polygon fill="none" stroke="black" points="243,-241 243,-260 395,-260 395,-241 243,-241"/>
<text text-anchor="middle" x="319" y="-248" font-family="Helvetica,sans-Serif" font-size="10.00">Drone::rotation_around_cen</text>
</a>
</g>
</g>
<!-- Node14&#45;&gt;Node21 -->
<g id="edge22" class="edge">
<title>Node14&#45;&gt;Node21</title>
<path fill="none" stroke="midnightblue" d="M158.01,-433.77C167.8,-407.76 197.71,-335.59 243,-291.5 254.58,-280.23 269.87,-271.13 283.63,-264.39"/>
<polygon fill="midnightblue" stroke="midnightblue" points="285.25,-267.5 292.84,-260.11 282.3,-261.15 285.25,-267.5"/>
</g>
<!-- Node23 -->
<g id="node23" class="node">
<title>Node23</title>
<g id="a_node23"><a xlink:href="class_prism.html#ade146d341c0468030f8c1258b7fe1041" target="_top" xlink:title="Metoda przesuwajaca graniastoslup o zadany wektor w 3D">
<polygon fill="none" stroke="black" points="857.5,-301 857.5,-320 960.5,-320 960.5,-301 857.5,-301"/>
<text text-anchor="middle" x="909" y="-308" font-family="Helvetica,sans-Serif" font-size="10.00">Prism::translation</text>
</a>
</g>
</g>
<!-- Node14&#45;&gt;Node23 -->
<g id="edge47" class="edge">
<title>Node14&#45;&gt;Node23</title>
<path fill="none" stroke="midnightblue" d="M171.86,-433.96C189.28,-424.9 217.16,-411.76 243,-405.5 478.99,-348.35 553.14,-429.11 788,-367.5 823.1,-358.29 860.38,-338.88 883.9,-325.27"/>
<polygon fill="midnightblue" stroke="midnightblue" points="885.97,-328.12 892.8,-320.03 882.41,-322.09 885.97,-328.12"/>
</g>
<!-- Node24 -->
<g id="node24" class="node">
<title>Node24</title>
<g id="a_node24"><a xlink:href="class_prism.html#afed2c26932d5cb152fd620d2acbfbc3e" target="_top" xlink:title="Metoda przesuwajaca graniastoslup do srodka ukladu wspolrzednych (tak, ze srodek graniastoslupa pokry...">
<polygon fill="none" stroke="black" points="650,-339 650,-358 781,-358 781,-339 650,-339"/>
<text text-anchor="middle" x="715.5" y="-346" font-family="Helvetica,sans-Serif" font-size="10.00">Prism::translation_to_O</text>
</a>
</g>
</g>
<!-- Node14&#45;&gt;Node24 -->
<g id="edge48" class="edge">
<title>Node14&#45;&gt;Node24</title>
<path fill="none" stroke="midnightblue" d="M162.59,-433.92C176.88,-417.79 208.39,-385.67 243,-372.5 313.37,-345.73 525.54,-345.02 639.77,-346.76"/>
<polygon fill="midnightblue" stroke="midnightblue" points="639.78,-350.26 649.83,-346.92 639.89,-343.26 639.78,-350.26"/>
</g>
<!-- Node31 -->
<g id="node31" class="node">
<title>Node31</title>
<g id="a_node31"><a xlink:href="class_pz_g_1_1_lacze_do_g_n_u_plota.html#a065f5b8402737cc62b0ad4f66d028335" target="_top" xlink:title="Generuje polecenie rysowania i przesyła je do gnuplota.">
<polygon fill="none" stroke="black" points="254,-68.5 254,-98.5 384,-98.5 384,-68.5 254,-68.5"/>
<text text-anchor="start" x="262" y="-86.5" font-family="Helvetica,sans-Serif" font-size="10.00">PzG::LaczeDoGNUPlota</text>
<text text-anchor="middle" x="319" y="-75.5" font-family="Helvetica,sans-Serif" font-size="10.00">::Rysuj</text>
</a>
</g>
</g>
<!-- Node14&#45;&gt;Node31 -->
<g id="edge34" class="edge">
<title>Node14&#45;&gt;Node31</title>
<path fill="none" stroke="midnightblue" d="M156.4,-433.78C163.69,-397.86 192.02,-269.96 243,-176.5 257.3,-150.29 279.23,-124.15 295.69,-106.29"/>
<polygon fill="midnightblue" stroke="midnightblue" points="298.53,-108.38 302.82,-98.69 293.43,-103.59 298.53,-108.38"/>
</g>
<!-- Node38 -->
<g id="node38" class="node">
<title>Node38</title>
<g id="a_node38"><a xlink:href="class_prism.html#a07f15c416c9f9c54390bb8737b441a35" target="_top" xlink:title="Metoda skalujaca o wektor scale bedacy czlonkiem klasy block">
<polygon fill="none" stroke="black" points="272,-301 272,-320 366,-320 366,-301 272,-301"/>
<text text-anchor="middle" x="319" y="-308" font-family="Helvetica,sans-Serif" font-size="10.00">Prism::scale_pri</text>
</a>
</g>
</g>
<!-- Node14&#45;&gt;Node38 -->
<g id="edge41" class="edge">
<title>Node14&#45;&gt;Node38</title>
<path fill="none" stroke="midnightblue" d="M159.75,-433.76C171.69,-412.55 202.94,-361.86 243,-334.5 249.43,-330.11 256.71,-326.48 264.15,-323.5"/>
<polygon fill="midnightblue" stroke="midnightblue" points="265.4,-326.77 273.59,-320.06 263,-320.19 265.4,-326.77"/>
</g>
<!-- Node39 -->
<g id="node39" class="node">
<title>Node39</title>
<g id="a_node39"><a xlink:href="class_block.html#adb6acd13e2ab79cf7e4733ca2d6ae166" target="_top" xlink:title="Metoda zapisujaca do klasy wektor reprezentujacy skale">
<polygon fill="none" stroke="black" points="271.5,-628 271.5,-647 366.5,-647 366.5,-628 271.5,-628"/>
<text text-anchor="middle" x="319" y="-635" font-family="Helvetica,sans-Serif" font-size="10.00">Block::set_scale</text>
</a>
</g>
</g>
<!-- Node14&#45;&gt;Node39 -->
<g id="edge43" class="edge">
<title>Node14&#45;&gt;Node39</title>
<path fill="none" stroke="midnightblue" d="M158.2,-453.3C171.03,-486.73 214.3,-595.51 243,-618.5 248.42,-622.84 254.72,-626.21 261.31,-628.81"/>
<polygon fill="midnightblue" stroke="midnightblue" points="260.52,-632.24 271.11,-632.11 262.75,-625.6 260.52,-632.24"/>
</g>
<!-- Node40 -->
<g id="node40" class="node">
<title>Node40</title>
<g id="a_node40"><a xlink:href="class_drone.html#a9684cd7ce04b7e6191f3d6b3a745370b" target="_top" xlink:title="Przesuwa drona o zadany wektor w 3D">
<polygon fill="none" stroke="black" points="467,-137 467,-156 571,-156 571,-137 467,-137"/>
<text text-anchor="middle" x="519" y="-144" font-family="Helvetica,sans-Serif" font-size="10.00">Drone::translation</text>
</a>
</g>
</g>
<!-- Node14&#45;&gt;Node40 -->
<g id="edge44" class="edge">
<title>Node14&#45;&gt;Node40</title>
<path fill="none" stroke="midnightblue" d="M155.72,-433.92C160.42,-400.9 180.35,-290.63 243,-231.5 301.61,-176.19 395.51,-156.83 456.98,-150.08"/>
<polygon fill="midnightblue" stroke="midnightblue" points="457.34,-153.56 466.93,-149.07 456.63,-146.6 457.34,-153.56"/>
</g>
<!-- Node41 -->
<g id="node41" class="node">
<title>Node41</title>
<g id="a_node41"><a xlink:href="class_pz_g_1_1_lacze_do_g_n_u_plota.html#a7fa4e775e1aee74869fae174c567c2a6" target="_top" xlink:title="Usuwa z listy nazw plików z danymi do rysowania usuwa wybraną nazwę.">
<polygon fill="none" stroke="black" points="254,-578.5 254,-608.5 384,-608.5 384,-578.5 254,-578.5"/>
<text text-anchor="start" x="262" y="-596.5" font-family="Helvetica,sans-Serif" font-size="10.00">PzG::LaczeDoGNUPlota</text>
<text text-anchor="middle" x="319" y="-585.5" font-family="Helvetica,sans-Serif" font-size="10.00">::UsunNazwePliku</text>
</a>
</g>
</g>
<!-- Node14&#45;&gt;Node41 -->
<g id="edge49" class="edge">
<title>Node14&#45;&gt;Node41</title>
<path fill="none" stroke="midnightblue" d="M158.69,-453.33C169.25,-476.96 199.28,-537.35 243,-569.5 244.88,-570.88 246.84,-572.19 248.87,-573.42"/>
<polygon fill="midnightblue" stroke="midnightblue" points="247.62,-576.72 258.09,-578.36 250.93,-570.55 247.62,-576.72"/>
</g>
<!-- Node16 -->
<g id="node16" class="node">
<title>Node16</title>
<g id="a_node16"><a xlink:href="namespace_pz_g.html#ae1aad0c681853d7e47da4cdfccefc102" target="_top" xlink:title="Funkcja pomocnicza, sprawdza czy plik o podanej nazwie jest na dysku.">
<polygon fill="none" stroke="black" points="471.5,-535 471.5,-554 566.5,-554 566.5,-535 471.5,-535"/>
<text text-anchor="middle" x="519" y="-542" font-family="Helvetica,sans-Serif" font-size="10.00">PzG::CzyJestPlik</text>
</a>
</g>
</g>
<!-- Node15&#45;&gt;Node16 -->
<g id="edge17" class="edge">
<title>Node15&#45;&gt;Node16</title>
<path fill="none" stroke="midnightblue" d="M384.01,-544.5C408.92,-544.5 437.23,-544.5 461.39,-544.5"/>
<polygon fill="midnightblue" stroke="midnightblue" points="461.46,-548 471.46,-544.5 461.46,-541 461.46,-548"/>
</g>
<!-- Node20 -->
<g id="node20" class="node">
<title>Node20</title>
<g id="a_node20"><a xlink:href="class_prism.html#a764c6940e4fb65303981e8b877b28561" target="_top" xlink:title="Metoda wypisania odpowiednich wierzcholkow do pliku zgodnie z zaproponowanym sposobem zadaniu dron">
<polygon fill="none" stroke="black" points="456.5,-415 456.5,-434 581.5,-434 581.5,-415 456.5,-415"/>
<text text-anchor="middle" x="519" y="-422" font-family="Helvetica,sans-Serif" font-size="10.00">Prism::print_prism_3D</text>
</a>
</g>
</g>
<!-- Node19&#45;&gt;Node20 -->
<g id="edge21" class="edge">
<title>Node19&#45;&gt;Node20</title>
<path fill="none" stroke="midnightblue" d="M377,-424.5C398.5,-424.5 423.24,-424.5 445.94,-424.5"/>
<polygon fill="midnightblue" stroke="midnightblue" points="446.21,-428 456.21,-424.5 446.21,-421 446.21,-428"/>
</g>
<!-- Node22 -->
<g id="node22" class="node">
<title>Node22</title>
<g id="a_node22"><a xlink:href="class_prism.html#a22c5467db5d960bddbaf9a52f55c55cb" target="_top" xlink:title="Metoda obracajaca graniastoslup o zadany kat w 3D wokol srodka figury">
<polygon fill="none" stroke="black" points="444,-263 444,-282 594,-282 594,-263 444,-263"/>
<text text-anchor="middle" x="519" y="-270" font-family="Helvetica,sans-Serif" font-size="10.00">Prism::rotation_around_cen</text>
</a>
</g>
</g>
<!-- Node21&#45;&gt;Node22 -->
<g id="edge23" class="edge">
<title>Node21&#45;&gt;Node22</title>
<path fill="none" stroke="midnightblue" d="M395.14,-258.85C407.74,-260.25 420.89,-261.71 433.71,-263.13"/>
<polygon fill="midnightblue" stroke="midnightblue" points="433.57,-266.64 443.9,-264.27 434.34,-259.68 433.57,-266.64"/>
</g>
<!-- Node25 -->
<g id="node25" class="node">
<title>Node25</title>
<g id="a_node25"><a xlink:href="class_cuboid.html#a6c697c2d9b36a14c43c7328876d5a1f0" target="_top" xlink:title="Metoda obracajaca prostopadloscian o zadany kat w 3D wokol srodka figury">
<polygon fill="none" stroke="black" points="441,-175 441,-194 597,-194 597,-175 441,-175"/>
<text text-anchor="middle" x="519" y="-182" font-family="Helvetica,sans-Serif" font-size="10.00">Cuboid::rotation_around_cen</text>
</a>
</g>
</g>
<!-- Node21&#45;&gt;Node25 -->
<g id="edge27" class="edge">
<title>Node21&#45;&gt;Node25</title>
<path fill="none" stroke="midnightblue" d="M340.08,-240.98C362.02,-230.87 398.41,-214.92 431,-204.5 440.2,-201.56 450.08,-198.86 459.77,-196.47"/>
<polygon fill="midnightblue" stroke="midnightblue" points="460.83,-199.81 469.75,-194.08 459.21,-193 460.83,-199.81"/>
</g>
<!-- Node28 -->
<g id="node28" class="node">
<title>Node28</title>
<g id="a_node28"><a xlink:href="class_drone.html#aea963b77f42c204504542a3d9190d762" target="_top" xlink:title="Metoda uzywana przy konstruowania drona Ustawia rotory w ten sposob, ze srodek ich dolnej podstawy je...">
<polygon fill="none" stroke="black" points="461.5,-213.5 461.5,-243.5 576.5,-243.5 576.5,-213.5 461.5,-213.5"/>
<text text-anchor="start" x="469.5" y="-231.5" font-family="Helvetica,sans-Serif" font-size="10.00">Drone::set_rotors_in</text>
<text text-anchor="middle" x="519" y="-220.5" font-family="Helvetica,sans-Serif" font-size="10.00">_place</text>
</a>
</g>
</g>
<!-- Node21&#45;&gt;Node28 -->
<g id="edge30" class="edge">
<title>Node21&#45;&gt;Node28</title>
<path fill="none" stroke="midnightblue" d="M395.14,-242.15C413.61,-240.1 433.25,-237.92 451.29,-235.91"/>
<polygon fill="midnightblue" stroke="midnightblue" points="451.86,-239.37 461.42,-234.79 451.09,-232.41 451.86,-239.37"/>
</g>
<!-- Node22&#45;&gt;Node23 -->
<g id="edge24" class="edge">
<title>Node22&#45;&gt;Node23</title>
<path fill="none" stroke="midnightblue" d="M575.28,-282.02C596.42,-285.41 620.78,-288.99 643,-291.5 712.76,-299.37 793.23,-304.6 847.03,-307.55"/>
<polygon fill="midnightblue" stroke="midnightblue" points="846.91,-311.04 857.08,-308.09 847.29,-304.05 846.91,-311.04"/>
</g>
<!-- Node22&#45;&gt;Node24 -->
<g id="edge25" class="edge">
<title>Node22&#45;&gt;Node24</title>
<path fill="none" stroke="midnightblue" d="M567.76,-282.07C580.87,-285.66 594.82,-290.39 607,-296.5 625.12,-305.59 625.14,-314.92 643,-324.5 650.96,-328.77 659.83,-332.49 668.54,-335.63"/>
<polygon fill="midnightblue" stroke="midnightblue" points="667.64,-339.02 678.24,-338.94 669.9,-332.4 667.64,-339.02"/>
</g>
<!-- Node24&#45;&gt;Node23 -->
<g id="edge26" class="edge">
<title>Node24&#45;&gt;Node23</title>
<path fill="none" stroke="midnightblue" d="M764.82,-338.91C790.66,-333.78 822.67,-327.43 849.86,-322.04"/>
<polygon fill="midnightblue" stroke="midnightblue" points="850.9,-325.4 860.02,-320.02 849.53,-318.53 850.9,-325.4"/>
</g>
<!-- Node26 -->
<g id="node26" class="node">
<title>Node26</title>
<g id="a_node26"><a xlink:href="class_cuboid.html#a3f6b1b9ea7de433af5b0d462d29f4272" target="_top" xlink:title="Metoda przesuwajaca prostopadloscian o zadany kat w 3D">
<polygon fill="none" stroke="black" points="661,-137 661,-156 770,-156 770,-137 661,-137"/>
<text text-anchor="middle" x="715.5" y="-144" font-family="Helvetica,sans-Serif" font-size="10.00">Cuboid::translation</text>
</a>
</g>
</g>
<!-- Node25&#45;&gt;Node26 -->
<g id="edge28" class="edge">
<title>Node25&#45;&gt;Node26</title>
<path fill="none" stroke="midnightblue" d="M568.83,-174.96C595.19,-169.81 627.92,-163.42 655.67,-157.99"/>
<polygon fill="midnightblue" stroke="midnightblue" points="656.51,-161.4 665.65,-156.04 655.16,-154.53 656.51,-161.4"/>
</g>
<!-- Node27 -->
<g id="node27" class="node">
<title>Node27</title>
<g id="a_node27"><a xlink:href="class_cuboid.html#a42bdce7c214e759cb6ea94d4f547a5b9" target="_top" xlink:title="Metoda przesuwajaca prostopadloscian do (0,0,0)">
<polygon fill="none" stroke="black" points="647,-175 647,-194 784,-194 784,-175 647,-175"/>
<text text-anchor="middle" x="715.5" y="-182" font-family="Helvetica,sans-Serif" font-size="10.00">Cuboid::translation_to_O</text>
</a>
</g>
</g>
<!-- Node25&#45;&gt;Node27 -->
<g id="edge29" class="edge">
<title>Node25&#45;&gt;Node27</title>
<path fill="none" stroke="midnightblue" d="M597.15,-184.5C610.12,-184.5 623.59,-184.5 636.58,-184.5"/>
<polygon fill="midnightblue" stroke="midnightblue" points="636.88,-188 646.88,-184.5 636.88,-181 636.88,-188"/>
</g>
<!-- Node29 -->
<g id="node29" class="node">
<title>Node29</title>
<g id="a_node29"><a xlink:href="class_cuboid.html#a99d30564d6129e6905c5333e04df9606" target="_top" xlink:title="Metoda zwracajaca wierzcholki prostopadloscianu do Vector3D">
<polygon fill="none" stroke="black" points="668,-213 668,-232 763,-232 763,-213 668,-213"/>
<text text-anchor="middle" x="715.5" y="-220" font-family="Helvetica,sans-Serif" font-size="10.00">Cuboid::get_cub</text>
</a>
</g>
</g>
<!-- Node28&#45;&gt;Node29 -->
<g id="edge31" class="edge">
<title>Node28&#45;&gt;Node29</title>
<path fill="none" stroke="midnightblue" d="M576.52,-226.76C601.95,-225.97 631.92,-225.05 657.42,-224.26"/>
<polygon fill="midnightblue" stroke="midnightblue" points="657.8,-227.75 667.68,-223.94 657.58,-220.75 657.8,-227.75"/>
</g>
<!-- Node30 -->
<g id="node30" class="node">
<title>Node30</title>
<g id="a_node30"><a xlink:href="class_prism.html#a4e2b0b9c37d6a53af869522a4bf364ac" target="_top" xlink:title="Metoda przesuwajaca graniastoslup o zadany wektor w 3D w taki sposob, ze srodek jego dolnej podstawy ...">
<polygon fill="none" stroke="black" points="664,-251.5 664,-281.5 767,-281.5 767,-251.5 664,-251.5"/>
<text text-anchor="start" x="672" y="-269.5" font-family="Helvetica,sans-Serif" font-size="10.00">Prism::translation</text>
<text text-anchor="middle" x="715.5" y="-258.5" font-family="Helvetica,sans-Serif" font-size="10.00">_of_lower_cen</text>
</a>
</g>
</g>
<!-- Node28&#45;&gt;Node30 -->
<g id="edge32" class="edge">
<title>Node28&#45;&gt;Node30</title>
<path fill="none" stroke="midnightblue" d="M576.52,-239.54C600.77,-244.28 629.14,-249.82 653.84,-254.65"/>
<polygon fill="midnightblue" stroke="midnightblue" points="653.33,-258.11 663.81,-256.6 654.67,-251.24 653.33,-258.11"/>
</g>
<!-- Node30&#45;&gt;Node23 -->
<g id="edge33" class="edge">
<title>Node30&#45;&gt;Node23</title>
<path fill="none" stroke="midnightblue" d="M767.06,-278.12C794.7,-284.47 828.85,-292.31 856.61,-298.69"/>
<polygon fill="midnightblue" stroke="midnightblue" points="855.99,-302.14 866.52,-300.97 857.56,-295.32 855.99,-302.14"/>
</g>
<!-- Node32 -->
<g id="node32" class="node">
<title>Node32</title>
<g id="a_node32"><a xlink:href="namespace_pz_g.html#aa010184f31b26bb561b42f22438b821e" target="_top" xlink:title="Funkcja pomocnicza, dopisuje do polecenia wpisy związane z rysowaniem z pliku.">
<polygon fill="none" stroke="black" points="436,-30 436,-49 602,-49 602,-30 436,-30"/>
<text text-anchor="middle" x="519" y="-37" font-family="Helvetica,sans-Serif" font-size="10.00">PzG::DopiszRysowanieZPlikow</text>
</a>
</g>
</g>
<!-- Node31&#45;&gt;Node32 -->
<g id="edge35" class="edge">
<title>Node31&#45;&gt;Node32</title>
<path fill="none" stroke="midnightblue" d="M384.26,-68.95C399.57,-65.51 415.86,-61.86 431,-58.5 441.75,-56.12 453.25,-53.59 464.25,-51.18"/>
<polygon fill="midnightblue" stroke="midnightblue" points="465.15,-54.57 474.17,-49.01 463.66,-47.73 465.15,-54.57"/>
</g>
<!-- Node33 -->
<g id="node33" class="node">
<title>Node33</title>
<g id="a_node33"><a xlink:href="namespace_pz_g.html#a7227cb39c785b1c746b6bb5515c0b781" target="_top" xlink:title="Dodaje do listy rysowanych punktów, punkty o różnych rozmiarach.">
<polygon fill="none" stroke="black" points="431,-68.5 431,-98.5 607,-98.5 607,-68.5 431,-68.5"/>
<text text-anchor="start" x="439" y="-86.5" font-family="Helvetica,sans-Serif" font-size="10.00">PzG::DopiszRysowanieZRoznych</text>
<text text-anchor="middle" x="519" y="-75.5" font-family="Helvetica,sans-Serif" font-size="10.00">Punktow</text>
</a>
</g>
</g>
<!-- Node31&#45;&gt;Node33 -->
<g id="edge36" class="edge">
<title>Node31&#45;&gt;Node33</title>
<path fill="none" stroke="midnightblue" d="M384.01,-83.5C395.66,-83.5 408.06,-83.5 420.42,-83.5"/>
<polygon fill="midnightblue" stroke="midnightblue" points="420.78,-87 430.78,-83.5 420.78,-80 420.78,-87"/>
</g>
<!-- Node34 -->
<g id="node34" class="node">
<title>Node34</title>
<g id="a_node34"><a xlink:href="namespace_pz_g.html#a169c311f0e0b6ffadcd44e91e749f72d" target="_top" xlink:title="Wczytuje z pliku listę punktów.">
<polygon fill="none" stroke="black" points="643,-49.5 643,-79.5 788,-79.5 788,-49.5 643,-49.5"/>
<text text-anchor="start" x="651" y="-67.5" font-family="Helvetica,sans-Serif" font-size="10.00">PzG::WczytajListeRoznych</text>
<text text-anchor="middle" x="715.5" y="-56.5" font-family="Helvetica,sans-Serif" font-size="10.00">Punktow</text>
</a>
</g>
</g>
<!-- Node33&#45;&gt;Node34 -->
<g id="edge37" class="edge">
<title>Node33&#45;&gt;Node34</title>
<path fill="none" stroke="midnightblue" d="M607.01,-75C615.5,-74.17 624.09,-73.33 632.52,-72.51"/>
<polygon fill="midnightblue" stroke="midnightblue" points="633.1,-75.97 642.71,-71.51 632.42,-69 633.1,-75.97"/>
</g>
<!-- Node35 -->
<g id="node35" class="node">
<title>Node35</title>
<g id="a_node35"><a xlink:href="class_pz_g_1_1_atrybuty_rysowania.html#ab068535b4d2f755c394557d1da72a4eb" target="_top" xlink:title="Zmienia kolor rysowania.">
<polygon fill="none" stroke="black" points="840.5,-0.5 840.5,-30.5 977.5,-30.5 977.5,-0.5 840.5,-0.5"/>
<text text-anchor="start" x="848.5" y="-18.5" font-family="Helvetica,sans-Serif" font-size="10.00">PzG::AtrybutyRysowania</text>
<text text-anchor="middle" x="909" y="-7.5" font-family="Helvetica,sans-Serif" font-size="10.00">::ZmienKolor</text>
</a>
</g>
</g>
<!-- Node34&#45;&gt;Node35 -->
<g id="edge38" class="edge">
<title>Node34&#45;&gt;Node35</title>
<path fill="none" stroke="midnightblue" d="M775.26,-49.47C795.57,-44.27 818.51,-38.4 839.53,-33.02"/>
<polygon fill="midnightblue" stroke="midnightblue" points="840.53,-36.38 849.35,-30.51 838.8,-29.59 840.53,-36.38"/>
</g>
<!-- Node36 -->
<g id="node36" class="node">
<title>Node36</title>
<g id="a_node36"><a xlink:href="class_pz_g_1_1_atrybuty_rysowania.html#af4b140eb03bc10b6fd816fad63f8372e" target="_top" xlink:title="Zmienia rozmiar rysowania.">
<polygon fill="none" stroke="black" points="840.5,-98.5 840.5,-128.5 977.5,-128.5 977.5,-98.5 840.5,-98.5"/>
<text text-anchor="start" x="848.5" y="-116.5" font-family="Helvetica,sans-Serif" font-size="10.00">PzG::AtrybutyRysowania</text>
<text text-anchor="middle" x="909" y="-105.5" font-family="Helvetica,sans-Serif" font-size="10.00">::ZmienRozmiar</text>
</a>
</g>
</g>
<!-- Node34&#45;&gt;Node36 -->
<g id="edge39" class="edge">
<title>Node34&#45;&gt;Node36</title>
<path fill="none" stroke="midnightblue" d="M775.26,-79.53C795.57,-84.73 818.51,-90.6 839.53,-95.98"/>
<polygon fill="midnightblue" stroke="midnightblue" points="838.8,-99.41 849.35,-98.49 840.53,-92.62 838.8,-99.41"/>
</g>
<!-- Node37 -->
<g id="node37" class="node">
<title>Node37</title>
<g id="a_node37"><a xlink:href="class_pz_g_1_1_atrybuty_rysowania.html#a2ac97706124b14072715ecf3f07e82b4" target="_top" xlink:title="Zmienia styl rysowania.">
<polygon fill="none" stroke="black" points="840.5,-49.5 840.5,-79.5 977.5,-79.5 977.5,-49.5 840.5,-49.5"/>
<text text-anchor="start" x="848.5" y="-67.5" font-family="Helvetica,sans-Serif" font-size="10.00">PzG::AtrybutyRysowania</text>
<text text-anchor="middle" x="909" y="-56.5" font-family="Helvetica,sans-Serif" font-size="10.00">::ZmienStyl</text>
</a>
</g>
</g>
<!-- Node34&#45;&gt;Node37 -->
<g id="edge40" class="edge">
<title>Node34&#45;&gt;Node37</title>
<path fill="none" stroke="midnightblue" d="M788.08,-64.5C801.84,-64.5 816.32,-64.5 830.27,-64.5"/>
<polygon fill="midnightblue" stroke="midnightblue" points="830.31,-68 840.31,-64.5 830.31,-61 830.31,-68"/>
</g>
<!-- Node38&#45;&gt;Node24 -->
<g id="edge42" class="edge">
<title>Node38&#45;&gt;Node24</title>
<path fill="none" stroke="midnightblue" d="M366.29,-313.71C423.07,-317.8 522.23,-325.44 607,-334.5 617.6,-335.63 628.78,-336.95 639.75,-338.31"/>
<polygon fill="midnightblue" stroke="midnightblue" points="639.39,-341.8 649.75,-339.58 640.27,-334.85 639.39,-341.8"/>
</g>
<!-- Node40&#45;&gt;Node23 -->
<g id="edge45" class="edge">
<title>Node40&#45;&gt;Node23</title>
<path fill="none" stroke="midnightblue" d="M543.26,-136.98C592.03,-118.62 707.15,-83.83 788,-127.5 853.69,-162.98 889.24,-251.83 902.22,-291.2"/>
<polygon fill="midnightblue" stroke="midnightblue" points="898.93,-292.43 905.28,-300.91 905.61,-290.32 898.93,-292.43"/>
</g>
<!-- Node40&#45;&gt;Node26 -->
<g id="edge46" class="edge">
<title>Node40&#45;&gt;Node26</title>
<path fill="none" stroke="midnightblue" d="M571.1,-146.5C595.45,-146.5 624.81,-146.5 650.61,-146.5"/>
<polygon fill="midnightblue" stroke="midnightblue" points="650.68,-150 660.68,-146.5 650.68,-143 650.68,-150"/>
</g>
<!-- Node42 -->
<g id="node42" class="node">
<title>Node42</title>
<g id="a_node42"><a xlink:href="class_pz_g_1_1_info_pliku_do_rysowania.html#a714aaa4c8e7bbd167ccbb1e797ca158c" target="_top" xlink:title="Udostępia nazwę pliku do rysowania.">
<polygon fill="none" stroke="black" points="444,-578.5 444,-608.5 594,-608.5 594,-578.5 444,-578.5"/>
<text text-anchor="start" x="452" y="-596.5" font-family="Helvetica,sans-Serif" font-size="10.00">PzG::InfoPlikuDoRysowania</text>
<text text-anchor="middle" x="519" y="-585.5" font-family="Helvetica,sans-Serif" font-size="10.00">::WezNazwePliku</text>
</a>
</g>
</g>
<!-- Node41&#45;&gt;Node42 -->
<g id="edge50" class="edge">
<title>Node41&#45;&gt;Node42</title>
<path fill="none" stroke="midnightblue" d="M384.01,-593.5C399.82,-593.5 417,-593.5 433.62,-593.5"/>
<polygon fill="midnightblue" stroke="midnightblue" points="433.88,-597 443.88,-593.5 433.88,-590 433.88,-597"/>
</g>
</g>
</svg>
