<?xml version="1.0" encoding="UTF-8" standalone="no"?>
<!DOCTYPE svg PUBLIC "-//W3C//DTD SVG 1.1//EN"
 "http://www.w3.org/Graphics/SVG/1.1/DTD/svg11.dtd">
<!-- Generated by graphviz version 2.43.0 (0)
 -->
<!-- Title: Prism::centre_point Pages: 1 -->
<svg width="534pt" height="104pt"
 viewBox="0.00 0.00 534.00 104.00" xmlns="http://www.w3.org/2000/svg" xmlns:xlink="http://www.w3.org/1999/xlink">
<g id="graph0" class="graph" transform="scale(1 1) rotate(0) translate(4 100)">
<title>Prism::centre_point</title>
<!-- Node1 -->
<g id="node1" class="node">
<title>Node1</title>
<g id="a_node1"><a xlink:title="Metoda zwracajaca punkt centralny (czyli taki, ktorego odleglosci do kazdego wierzcholka sa rowne) gr...">
<polygon fill="#bfbfbf" stroke="black" points="415,-19.5 415,-38.5 526,-38.5 526,-19.5 415,-19.5"/>
<text text-anchor="middle" x="470.5" y="-26.5" font-family="Helvetica,sans-Serif" font-size="10.00">Prism::centre_point</text>
</a>
</g>
</g>
<!-- Node2 -->
<g id="node2" class="node">
<title>Node2</title>
<g id="a_node2"><a xlink:href="class_circus.html#aba4a0a8726ff0878279959df92f23f07" target="_top" xlink:title="Metoda zwracajaca punkty specjalne graniastoslupa :">
<polygon fill="none" stroke="black" points="257,-38.5 257,-57.5 379,-57.5 379,-38.5 257,-38.5"/>
<text text-anchor="middle" x="318" y="-45.5" font-family="Helvetica,sans-Serif" font-size="10.00">Circus::special_points</text>
</a>
</g>
</g>
<!-- Node1&#45;&gt;Node2 -->
<g id="edge1" class="edge">
<title>Node1&#45;&gt;Node2</title>
<path fill="none" stroke="midnightblue" d="M404.81,-37.17C396.26,-38.25 387.53,-39.35 379.06,-40.42"/>
<polygon fill="midnightblue" stroke="midnightblue" points="405.26,-40.64 414.74,-35.91 404.38,-33.69 405.26,-40.64"/>
</g>
<!-- Node6 -->
<g id="node6" class="node">
<title>Node6</title>
<g id="a_node6"><a xlink:href="class_prism.html#aa50fa1168351c867532aef9c19d2b921" target="_top" xlink:title="Metoda zwracajaca punkty specjalne graniastoslupa : cuts (czyli te ktore sa przecieciami przekatnych ...">
<polygon fill="none" stroke="black" points="258,-0.5 258,-19.5 378,-19.5 378,-0.5 258,-0.5"/>
<text text-anchor="middle" x="318" y="-7.5" font-family="Helvetica,sans-Serif" font-size="10.00">Prism::special_points</text>
</a>
</g>
</g>
<!-- Node1&#45;&gt;Node6 -->
<g id="edge5" class="edge">
<title>Node1&#45;&gt;Node6</title>
<path fill="none" stroke="midnightblue" d="M404.81,-20.83C395.92,-19.71 386.82,-18.56 378.03,-17.45"/>
<polygon fill="midnightblue" stroke="midnightblue" points="404.38,-24.31 414.74,-22.09 405.26,-17.36 404.38,-24.31"/>
</g>
<!-- Node3 -->
<g id="node3" class="node">
<title>Node3</title>
<g id="a_node3"><a xlink:href="class_circus.html#aaa613f7735bb421bf375246dd96e7116" target="_top" xlink:title="Konstruktor bezparametryczny klasy Circus. Dolna podstawa jest identyczna jak w bezparametrycznym Pri...">
<polygon fill="none" stroke="black" points="128.5,-76.5 128.5,-95.5 211.5,-95.5 211.5,-76.5 128.5,-76.5"/>
<text text-anchor="middle" x="170" y="-83.5" font-family="Helvetica,sans-Serif" font-size="10.00">Circus::Circus</text>
</a>
</g>
</g>
<!-- Node2&#45;&gt;Node3 -->
<g id="edge2" class="edge">
<title>Node2&#45;&gt;Node3</title>
<path fill="none" stroke="midnightblue" d="M270.46,-60.11C250.13,-65.4 226.63,-71.52 207.58,-76.48"/>
<polygon fill="midnightblue" stroke="midnightblue" points="271.36,-63.5 280.16,-57.59 269.6,-56.72 271.36,-63.5"/>
</g>
<!-- Node5 -->
<g id="node5" class="node">
<title>Node5</title>
<g id="a_node5"><a xlink:href="class_circus.html#abc3ed1cf2a93593c32eac91b29eea59f" target="_top" xlink:title="Przeciazenie operatora przypisania, umozliwia stosowanie metod typu Prism na obiekcie typu Circus">
<polygon fill="none" stroke="black" points="119,-38.5 119,-57.5 221,-57.5 221,-38.5 119,-38.5"/>
<text text-anchor="middle" x="170" y="-45.5" font-family="Helvetica,sans-Serif" font-size="10.00">Circus::operator=</text>
</a>
</g>
</g>
<!-- Node2&#45;&gt;Node5 -->
<g id="edge4" class="edge">
<title>Node2&#45;&gt;Node5</title>
<path fill="none" stroke="midnightblue" d="M246.75,-48C238.17,-48 229.54,-48 221.33,-48"/>
<polygon fill="midnightblue" stroke="midnightblue" points="246.77,-51.5 256.77,-48 246.77,-44.5 246.77,-51.5"/>
</g>
<!-- Node4 -->
<g id="node4" class="node">
<title>Node4</title>
<g id="a_node4"><a xlink:href="class_circus.html#a5aab1830e67f62f80525d04de23db7da" target="_top" xlink:title="Konstruktor parametryczny klasy Circus. Powstaje ostroslup jak z konstruktora parametrycznego,...">
<polygon fill="none" stroke="black" points="0,-76.5 0,-95.5 83,-95.5 83,-76.5 0,-76.5"/>
<text text-anchor="middle" x="41.5" y="-83.5" font-family="Helvetica,sans-Serif" font-size="10.00">Circus::Circus</text>
</a>
</g>
</g>
<!-- Node3&#45;&gt;Node4 -->
<g id="edge3" class="edge">
<title>Node3&#45;&gt;Node4</title>
<path fill="none" stroke="midnightblue" d="M118.22,-86C106.56,-86 94.31,-86 83.15,-86"/>
<polygon fill="midnightblue" stroke="midnightblue" points="118.28,-89.5 128.28,-86 118.28,-82.5 118.28,-89.5"/>
</g>
<!-- Node7 -->
<g id="node7" class="node">
<title>Node7</title>
<g id="a_node7"><a xlink:href="class_prism.html#aa84930a585c7817f74a14d95ea74cb5a" target="_top" xlink:title="Konstruktor bezparametryczny klasy Prism. Powstaly granistoslup ma podstawy &quot;tworzace&quot;:">
<polygon fill="none" stroke="black" points="131,-0.5 131,-19.5 209,-19.5 209,-0.5 131,-0.5"/>
<text text-anchor="middle" x="170" y="-7.5" font-family="Helvetica,sans-Serif" font-size="10.00">Prism::Prism</text>
</a>
</g>
</g>
<!-- Node6&#45;&gt;Node7 -->
<g id="edge6" class="edge">
<title>Node6&#45;&gt;Node7</title>
<path fill="none" stroke="midnightblue" d="M247.23,-10C234.21,-10 221.04,-10 209.41,-10"/>
<polygon fill="midnightblue" stroke="midnightblue" points="247.62,-13.5 257.62,-10 247.62,-6.5 247.62,-13.5"/>
</g>
</g>
</svg>
