<?xml version="1.0" encoding="UTF-8" standalone="no"?>
<!DOCTYPE svg PUBLIC "-//W3C//DTD SVG 1.1//EN"
 "http://www.w3.org/Graphics/SVG/1.1/DTD/svg11.dtd">
<!-- Generated by graphviz version 2.43.0 (0)
 -->
<!-- Title: Plane Pages: 1 -->
<svg width="554pt" height="1445pt"
 viewBox="0.00 0.00 553.50 1445.00" xmlns="http://www.w3.org/2000/svg" xmlns:xlink="http://www.w3.org/1999/xlink">
<g id="graph0" class="graph" transform="scale(1 1) rotate(0) translate(4 1441)">
<title>Plane</title>
<!-- Node1 -->
<g id="node1" class="node">
<title>Node1</title>
<g id="a_node1"><a xlink:title="Opisuje plaska powierzchnie w 3D reprezentujaca powierzchnie marsa, plasczyzna docelowo rysuje sie w ...">
<polygon fill="#bfbfbf" stroke="black" points="294.5,-0.5 294.5,-90.5 390.5,-90.5 390.5,-0.5 294.5,-0.5"/>
<text text-anchor="middle" x="342.5" y="-78.5" font-family="Helvetica,sans-Serif" font-size="10.00">Plane</text>
<polyline fill="none" stroke="black" points="294.5,-71.5 390.5,-71.5 "/>
<text text-anchor="middle" x="342.5" y="-59.5" font-family="Helvetica,sans-Serif" font-size="10.00"> </text>
<polyline fill="none" stroke="black" points="294.5,-52.5 390.5,-52.5 "/>
<text text-anchor="start" x="302.5" y="-40.5" font-family="Helvetica,sans-Serif" font-size="10.00">+ Plane()</text>
<text text-anchor="start" x="302.5" y="-29.5" font-family="Helvetica,sans-Serif" font-size="10.00">+ get_plane()</text>
<text text-anchor="start" x="302.5" y="-18.5" font-family="Helvetica,sans-Serif" font-size="10.00">+ check_plane()</text>
<text text-anchor="start" x="302.5" y="-7.5" font-family="Helvetica,sans-Serif" font-size="10.00">+ make_plane()</text>
</a>
</g>
</g>
<!-- Node2 -->
<g id="node2" class="node">
<title>Node2</title>
<g id="a_node2"><a xlink:href="class_block.html" target="_top" xlink:title="Opisuje figure geometryczna w przestrzeni trojwymiarowej.">
<polygon fill="none" stroke="black" points="228,-128.5 228,-339.5 353,-339.5 353,-128.5 228,-128.5"/>
<text text-anchor="middle" x="290.5" y="-327.5" font-family="Helvetica,sans-Serif" font-size="10.00">Block</text>
<polyline fill="none" stroke="black" points="228,-320.5 353,-320.5 "/>
<text text-anchor="middle" x="290.5" y="-308.5" font-family="Helvetica,sans-Serif" font-size="10.00"> </text>
<polyline fill="none" stroke="black" points="228,-301.5 353,-301.5 "/>
<text text-anchor="start" x="236" y="-289.5" font-family="Helvetica,sans-Serif" font-size="10.00">+ Block()</text>
<text text-anchor="start" x="236" y="-278.5" font-family="Helvetica,sans-Serif" font-size="10.00">+ Block()</text>
<text text-anchor="start" x="236" y="-267.5" font-family="Helvetica,sans-Serif" font-size="10.00">+ Block()</text>
<text text-anchor="start" x="236" y="-256.5" font-family="Helvetica,sans-Serif" font-size="10.00">+ set_sample_name()</text>
<text text-anchor="start" x="236" y="-245.5" font-family="Helvetica,sans-Serif" font-size="10.00">+ set_final_name()</text>
<text text-anchor="start" x="236" y="-234.5" font-family="Helvetica,sans-Serif" font-size="10.00">+ set_scale()</text>
<text text-anchor="start" x="236" y="-223.5" font-family="Helvetica,sans-Serif" font-size="10.00">+ set_scale()</text>
<text text-anchor="start" x="236" y="-212.5" font-family="Helvetica,sans-Serif" font-size="10.00">+ check_block()</text>
<text text-anchor="start" x="236" y="-201.5" font-family="Helvetica,sans-Serif" font-size="10.00">+ get_sample_name()</text>
<text text-anchor="start" x="236" y="-190.5" font-family="Helvetica,sans-Serif" font-size="10.00">+ get_final_name()</text>
<text text-anchor="start" x="236" y="-179.5" font-family="Helvetica,sans-Serif" font-size="10.00">+ get_scale()</text>
<text text-anchor="start" x="236" y="-168.5" font-family="Helvetica,sans-Serif" font-size="10.00">+ print_name()</text>
<text text-anchor="start" x="236" y="-157.5" font-family="Helvetica,sans-Serif" font-size="10.00">+ print_pos()</text>
<text text-anchor="start" x="236" y="-146.5" font-family="Helvetica,sans-Serif" font-size="10.00">+ get_pos()</text>
<text text-anchor="start" x="236" y="-135.5" font-family="Helvetica,sans-Serif" font-size="10.00">+ switch_pos()</text>
</a>
</g>
</g>
<!-- Node2&#45;&gt;Node1 -->
<g id="edge1" class="edge">
<title>Node2&#45;&gt;Node1</title>
<path fill="none" stroke="midnightblue" d="M322.41,-118.54C325.11,-108.86 327.72,-99.51 330.11,-90.93"/>
<polygon fill="none" stroke="midnightblue" points="319.01,-117.73 319.69,-128.3 325.75,-119.61 319.01,-117.73"/>
</g>
<!-- Node3 -->
<g id="node3" class="node">
<title>Node3</title>
<g id="a_node3"><a xlink:href="class_vector.html" target="_top" xlink:title=" ">
<polygon fill="none" stroke="black" points="160,-398.5 160,-664.5 275,-664.5 275,-398.5 160,-398.5"/>
<text text-anchor="middle" x="217.5" y="-652.5" font-family="Helvetica,sans-Serif" font-size="10.00">Vector&lt; double, 3 &gt;</text>
<polyline fill="none" stroke="black" points="160,-645.5 275,-645.5 "/>
<text text-anchor="middle" x="217.5" y="-633.5" font-family="Helvetica,sans-Serif" font-size="10.00"> </text>
<polyline fill="none" stroke="black" points="160,-626.5 275,-626.5 "/>
<text text-anchor="start" x="168" y="-614.5" font-family="Helvetica,sans-Serif" font-size="10.00">+ Vector()</text>
<text text-anchor="start" x="168" y="-603.5" font-family="Helvetica,sans-Serif" font-size="10.00">+ Vector()</text>
<text text-anchor="start" x="168" y="-592.5" font-family="Helvetica,sans-Serif" font-size="10.00">+ operator+()</text>
<text text-anchor="start" x="168" y="-581.5" font-family="Helvetica,sans-Serif" font-size="10.00">+ operator&#45;()</text>
<text text-anchor="start" x="168" y="-570.5" font-family="Helvetica,sans-Serif" font-size="10.00">+ operator*()</text>
<text text-anchor="start" x="168" y="-559.5" font-family="Helvetica,sans-Serif" font-size="10.00">+ operator/()</text>
<text text-anchor="start" x="168" y="-548.5" font-family="Helvetica,sans-Serif" font-size="10.00">+ operator==()</text>
<text text-anchor="start" x="168" y="-537.5" font-family="Helvetica,sans-Serif" font-size="10.00">+ scale_vec()</text>
<text text-anchor="start" x="168" y="-526.5" font-family="Helvetica,sans-Serif" font-size="10.00">+ rotate()</text>
<text text-anchor="start" x="168" y="-515.5" font-family="Helvetica,sans-Serif" font-size="10.00">+ rotate()</text>
<text text-anchor="start" x="168" y="-504.5" font-family="Helvetica,sans-Serif" font-size="10.00">+ rotate()</text>
<text text-anchor="start" x="168" y="-493.5" font-family="Helvetica,sans-Serif" font-size="10.00">+ modulus2()</text>
<text text-anchor="start" x="168" y="-482.5" font-family="Helvetica,sans-Serif" font-size="10.00">+ get_vec()</text>
<text text-anchor="start" x="168" y="-471.5" font-family="Helvetica,sans-Serif" font-size="10.00">+ get_len()</text>
<text text-anchor="start" x="168" y="-460.5" font-family="Helvetica,sans-Serif" font-size="10.00">+ get_slope_angle()</text>
<text text-anchor="start" x="168" y="-449.5" font-family="Helvetica,sans-Serif" font-size="10.00">+ get_slope_angle()</text>
<text text-anchor="start" x="168" y="-438.5" font-family="Helvetica,sans-Serif" font-size="10.00">+ get_slope_angle()</text>
<text text-anchor="start" x="168" y="-427.5" font-family="Helvetica,sans-Serif" font-size="10.00">+ operator[]()</text>
<text text-anchor="start" x="168" y="-416.5" font-family="Helvetica,sans-Serif" font-size="10.00">+ operator[]()</text>
<text text-anchor="start" x="168" y="-405.5" font-family="Helvetica,sans-Serif" font-size="10.00">+ scalar_prod()</text>
</a>
</g>
</g>
<!-- Node3&#45;&gt;Node2 -->
<g id="edge2" class="edge">
<title>Node3&#45;&gt;Node2</title>
<path fill="none" stroke="#404040" d="M239.16,-398.2C242.02,-384.56 245.14,-370.96 248.5,-358 249.06,-355.84 249.64,-353.67 250.23,-351.48"/>
<polygon fill="none" stroke="#404040" points="250.3,-351.24 248.09,-344.37 253.57,-339.69 255.78,-346.55 250.3,-351.24"/>
<text text-anchor="middle" x="267" y="-366.5" font-family="Helvetica,sans-Serif" font-size="10.00"> #scale</text>
</g>
<!-- Node4 -->
<g id="node4" class="node">
<title>Node4</title>
<g id="a_node4"><a xlink:href="class_count.html" target="_top" xlink:title=" ">
<polygon fill="none" stroke="black" points="248.5,-1026.5 248.5,-1149.5 382.5,-1149.5 382.5,-1026.5 248.5,-1026.5"/>
<text text-anchor="start" x="256.5" y="-1137.5" font-family="Helvetica,sans-Serif" font-size="10.00">Count&lt; Vector&lt; double,</text>
<text text-anchor="middle" x="315.5" y="-1126.5" font-family="Helvetica,sans-Serif" font-size="10.00"> SIZE &gt; &gt;</text>
<polyline fill="none" stroke="black" points="248.5,-1119.5 382.5,-1119.5 "/>
<text text-anchor="middle" x="315.5" y="-1107.5" font-family="Helvetica,sans-Serif" font-size="10.00"> </text>
<polyline fill="none" stroke="black" points="248.5,-1100.5 382.5,-1100.5 "/>
<text text-anchor="start" x="256.5" y="-1088.5" font-family="Helvetica,sans-Serif" font-size="10.00">+ Count()</text>
<text text-anchor="start" x="256.5" y="-1077.5" font-family="Helvetica,sans-Serif" font-size="10.00">+ Count()</text>
<text text-anchor="start" x="256.5" y="-1066.5" font-family="Helvetica,sans-Serif" font-size="10.00">+ ~Count()</text>
<text text-anchor="start" x="256.5" y="-1055.5" font-family="Helvetica,sans-Serif" font-size="10.00">+ get_count()</text>
<text text-anchor="start" x="256.5" y="-1044.5" font-family="Helvetica,sans-Serif" font-size="10.00">+ print_count()</text>
<text text-anchor="start" x="256.5" y="-1033.5" font-family="Helvetica,sans-Serif" font-size="10.00">+ zero_count()</text>
</a>
</g>
</g>
<!-- Node4&#45;&gt;Node3 -->
<g id="edge3" class="edge">
<title>Node4&#45;&gt;Node3</title>
<path fill="none" stroke="midnightblue" d="M318.99,-1016.15C321.18,-934.45 319.2,-796.8 289.5,-683 285.81,-668.85 280.77,-654.42 275.06,-640.38"/>
<polygon fill="none" stroke="midnightblue" points="315.49,-1016.22 318.69,-1026.32 322.48,-1016.42 315.49,-1016.22"/>
</g>
<!-- Node5 -->
<g id="node5" class="node">
<title>Node5</title>
<g id="a_node5"><a xlink:title=" ">
<polygon fill="none" stroke="#bfbfbf" points="353,-1379.5 353,-1436.5 382,-1436.5 382,-1379.5 353,-1379.5"/>
<text text-anchor="middle" x="367.5" y="-1424.5" font-family="Helvetica,sans-Serif" font-size="10.00">int</text>
<polyline fill="none" stroke="#bfbfbf" points="353,-1417.5 382,-1417.5 "/>
<text text-anchor="middle" x="367.5" y="-1405.5" font-family="Helvetica,sans-Serif" font-size="10.00"> </text>
<polyline fill="none" stroke="#bfbfbf" points="353,-1398.5 382,-1398.5 "/>
<text text-anchor="middle" x="367.5" y="-1386.5" font-family="Helvetica,sans-Serif" font-size="10.00"> </text>
</a>
</g>
</g>
<!-- Node5&#45;&gt;Node4 -->
<g id="edge4" class="edge">
<title>Node5&#45;&gt;Node4</title>
<path fill="none" stroke="#404040" d="M382.17,-1400.9C397.15,-1393.79 419.57,-1380.46 429.5,-1361 468.51,-1284.6 471.6,-1243.83 431.5,-1168 422.62,-1151.21 408.4,-1137.33 392.91,-1126.13"/>
<polygon fill="none" stroke="#404040" points="392.54,-1125.88 385.32,-1125.83 382.59,-1119.16 389.8,-1119.2 392.54,-1125.88"/>
<text text-anchor="middle" x="502.5" y="-1267.5" font-family="Helvetica,sans-Serif" font-size="10.00"> #objects_alive</text>
<text text-anchor="middle" x="502.5" y="-1256.5" font-family="Helvetica,sans-Serif" font-size="10.00">#objects_created</text>
</g>
<!-- Node6 -->
<g id="node6" class="node">
<title>Node6</title>
<g id="a_node6"><a xlink:href="class_count.html" target="_top" xlink:title="Pozwala na liczenie instancji stworzonych obiektow.">
<polygon fill="none" stroke="black" points="245.5,-1208.5 245.5,-1320.5 335.5,-1320.5 335.5,-1208.5 245.5,-1208.5"/>
<text text-anchor="middle" x="290.5" y="-1308.5" font-family="Helvetica,sans-Serif" font-size="10.00">Count&lt; T &gt;</text>
<polyline fill="none" stroke="black" points="245.5,-1301.5 335.5,-1301.5 "/>
<text text-anchor="middle" x="290.5" y="-1289.5" font-family="Helvetica,sans-Serif" font-size="10.00"> </text>
<polyline fill="none" stroke="black" points="245.5,-1282.5 335.5,-1282.5 "/>
<text text-anchor="start" x="253.5" y="-1270.5" font-family="Helvetica,sans-Serif" font-size="10.00">+ Count()</text>
<text text-anchor="start" x="253.5" y="-1259.5" font-family="Helvetica,sans-Serif" font-size="10.00">+ Count()</text>
<text text-anchor="start" x="253.5" y="-1248.5" font-family="Helvetica,sans-Serif" font-size="10.00">+ ~Count()</text>
<text text-anchor="start" x="253.5" y="-1237.5" font-family="Helvetica,sans-Serif" font-size="10.00">+ get_count()</text>
<text text-anchor="start" x="253.5" y="-1226.5" font-family="Helvetica,sans-Serif" font-size="10.00">+ print_count()</text>
<text text-anchor="start" x="253.5" y="-1215.5" font-family="Helvetica,sans-Serif" font-size="10.00">+ zero_count()</text>
</a>
</g>
</g>
<!-- Node5&#45;&gt;Node6 -->
<g id="edge6" class="edge">
<title>Node5&#45;&gt;Node6</title>
<path fill="none" stroke="#404040" d="M352.84,-1380.05C345.28,-1366.17 335.71,-1348.59 326.35,-1331.39"/>
<polygon fill="none" stroke="#404040" points="326.31,-1331.3 319.93,-1327.95 320.57,-1320.76 326.95,-1324.12 326.31,-1331.3"/>
<text text-anchor="middle" x="382.5" y="-1353" font-family="Helvetica,sans-Serif" font-size="10.00"> #objects_alive</text>
<text text-anchor="middle" x="382.5" y="-1342" font-family="Helvetica,sans-Serif" font-size="10.00">#objects_created</text>
</g>
<!-- Node6&#45;&gt;Node4 -->
<g id="edge5" class="edge">
<title>Node6&#45;&gt;Node4</title>
<path fill="none" stroke="orange" d="M288.71,-1198.38C289.14,-1188.17 290,-1177.77 291.5,-1168 292.42,-1162.05 293.68,-1155.93 295.15,-1149.84"/>
<polygon fill="orange" stroke="orange" points="285.21,-1198.39 288.41,-1208.49 292.2,-1198.6 285.21,-1198.39"/>
<text text-anchor="middle" x="361.5" y="-1176.5" font-family="Helvetica,sans-Serif" font-size="10.00"> &lt; Vector&lt; double, SIZE &gt; &gt;</text>
</g>
<!-- Node9 -->
<g id="node9" class="node">
<title>Node9</title>
<g id="a_node9"><a xlink:href="class_count.html" target="_top" xlink:title=" ">
<polygon fill="none" stroke="black" points="51,-1026.5 51,-1149.5 174,-1149.5 174,-1026.5 51,-1026.5"/>
<text text-anchor="start" x="59" y="-1137.5" font-family="Helvetica,sans-Serif" font-size="10.00">Count&lt; Vector&lt; type,</text>
<text text-anchor="middle" x="112.5" y="-1126.5" font-family="Helvetica,sans-Serif" font-size="10.00"> SIZE &gt; &gt;</text>
<polyline fill="none" stroke="black" points="51,-1119.5 174,-1119.5 "/>
<text text-anchor="middle" x="112.5" y="-1107.5" font-family="Helvetica,sans-Serif" font-size="10.00"> </text>
<polyline fill="none" stroke="black" points="51,-1100.5 174,-1100.5 "/>
<text text-anchor="start" x="59" y="-1088.5" font-family="Helvetica,sans-Serif" font-size="10.00">+ Count()</text>
<text text-anchor="start" x="59" y="-1077.5" font-family="Helvetica,sans-Serif" font-size="10.00">+ Count()</text>
<text text-anchor="start" x="59" y="-1066.5" font-family="Helvetica,sans-Serif" font-size="10.00">+ ~Count()</text>
<text text-anchor="start" x="59" y="-1055.5" font-family="Helvetica,sans-Serif" font-size="10.00">+ get_count()</text>
<text text-anchor="start" x="59" y="-1044.5" font-family="Helvetica,sans-Serif" font-size="10.00">+ print_count()</text>
<text text-anchor="start" x="59" y="-1033.5" font-family="Helvetica,sans-Serif" font-size="10.00">+ zero_count()</text>
</a>
</g>
</g>
<!-- Node6&#45;&gt;Node9 -->
<g id="edge11" class="edge">
<title>Node6&#45;&gt;Node9</title>
<path fill="none" stroke="orange" d="M236.02,-1243.88C208.9,-1231.82 177.33,-1214.03 155.5,-1190 144.99,-1178.43 136.81,-1163.91 130.53,-1149.52"/>
<polygon fill="orange" stroke="orange" points="234.83,-1247.18 245.4,-1247.9 237.59,-1240.74 234.83,-1247.18"/>
<text text-anchor="middle" x="220" y="-1176.5" font-family="Helvetica,sans-Serif" font-size="10.00"> &lt; Vector&lt; type, SIZE &gt; &gt;</text>
</g>
<!-- Node7 -->
<g id="node7" class="node">
<title>Node7</title>
<g id="a_node7"><a xlink:title=" ">
<polygon fill="none" stroke="#bfbfbf" points="348.5,-817 348.5,-874 398.5,-874 398.5,-817 348.5,-817"/>
<text text-anchor="middle" x="373.5" y="-862" font-family="Helvetica,sans-Serif" font-size="10.00">double</text>
<polyline fill="none" stroke="#bfbfbf" points="348.5,-855 398.5,-855 "/>
<text text-anchor="middle" x="373.5" y="-843" font-family="Helvetica,sans-Serif" font-size="10.00"> </text>
<polyline fill="none" stroke="#bfbfbf" points="348.5,-836 398.5,-836 "/>
<text text-anchor="middle" x="373.5" y="-824" font-family="Helvetica,sans-Serif" font-size="10.00"> </text>
</a>
</g>
</g>
<!-- Node7&#45;&gt;Node1 -->
<g id="edge14" class="edge">
<title>Node7&#45;&gt;Node1</title>
<path fill="none" stroke="#404040" d="M375.56,-816.97C382.22,-721.22 400.54,-394.01 362.5,-128 361.31,-119.67 359.64,-110.95 357.76,-102.43"/>
<polygon fill="none" stroke="#404040" points="357.73,-102.29 352.47,-97.35 355,-90.6 360.26,-95.54 357.73,-102.29"/>
<text text-anchor="middle" x="405.5" y="-372" font-family="Helvetica,sans-Serif" font-size="10.00"> &#45;range_x</text>
<text text-anchor="middle" x="405.5" y="-361" font-family="Helvetica,sans-Serif" font-size="10.00">&#45;range_y</text>
</g>
<!-- Node7&#45;&gt;Node3 -->
<g id="edge7" class="edge">
<title>Node7&#45;&gt;Node3</title>
<path fill="none" stroke="#404040" d="M371.72,-816.93C368.09,-781.87 357.05,-721.31 323.5,-683 310.92,-668.64 298.24,-678.26 284.5,-665 284.2,-664.71 283.89,-664.41 283.59,-664.11"/>
<polygon fill="none" stroke="#404040" points="283.34,-663.84 276.32,-662.19 275.15,-655.07 282.17,-656.73 283.34,-663.84"/>
<text text-anchor="middle" x="345" y="-686" font-family="Helvetica,sans-Serif" font-size="10.00"> &#45;size</text>
</g>
<!-- Node8 -->
<g id="node8" class="node">
<title>Node8</title>
<g id="a_node8"><a xlink:href="class_vector.html" target="_top" xlink:title="Opisuje wektor o SIZE&#45;wierszach.">
<polygon fill="none" stroke="black" points="152,-712.5 152,-978.5 271,-978.5 271,-712.5 152,-712.5"/>
<text text-anchor="middle" x="211.5" y="-966.5" font-family="Helvetica,sans-Serif" font-size="10.00">Vector&lt; type, SIZE &gt;</text>
<polyline fill="none" stroke="black" points="152,-959.5 271,-959.5 "/>
<text text-anchor="middle" x="211.5" y="-947.5" font-family="Helvetica,sans-Serif" font-size="10.00"> </text>
<polyline fill="none" stroke="black" points="152,-940.5 271,-940.5 "/>
<text text-anchor="start" x="160" y="-928.5" font-family="Helvetica,sans-Serif" font-size="10.00">+ Vector()</text>
<text text-anchor="start" x="160" y="-917.5" font-family="Helvetica,sans-Serif" font-size="10.00">+ Vector()</text>
<text text-anchor="start" x="160" y="-906.5" font-family="Helvetica,sans-Serif" font-size="10.00">+ operator+()</text>
<text text-anchor="start" x="160" y="-895.5" font-family="Helvetica,sans-Serif" font-size="10.00">+ operator&#45;()</text>
<text text-anchor="start" x="160" y="-884.5" font-family="Helvetica,sans-Serif" font-size="10.00">+ operator*()</text>
<text text-anchor="start" x="160" y="-873.5" font-family="Helvetica,sans-Serif" font-size="10.00">+ operator/()</text>
<text text-anchor="start" x="160" y="-862.5" font-family="Helvetica,sans-Serif" font-size="10.00">+ operator==()</text>
<text text-anchor="start" x="160" y="-851.5" font-family="Helvetica,sans-Serif" font-size="10.00">+ scale_vec()</text>
<text text-anchor="start" x="160" y="-840.5" font-family="Helvetica,sans-Serif" font-size="10.00">+ rotate()</text>
<text text-anchor="start" x="160" y="-829.5" font-family="Helvetica,sans-Serif" font-size="10.00">+ modulus2()</text>
<text text-anchor="start" x="160" y="-818.5" font-family="Helvetica,sans-Serif" font-size="10.00">+ get_vec()</text>
<text text-anchor="start" x="160" y="-807.5" font-family="Helvetica,sans-Serif" font-size="10.00">+ get_len()</text>
<text text-anchor="start" x="160" y="-796.5" font-family="Helvetica,sans-Serif" font-size="10.00">+ get_slope_angle()</text>
<text text-anchor="start" x="160" y="-785.5" font-family="Helvetica,sans-Serif" font-size="10.00">+ operator[]()</text>
<text text-anchor="start" x="160" y="-774.5" font-family="Helvetica,sans-Serif" font-size="10.00">+ operator[]()</text>
<text text-anchor="start" x="160" y="-763.5" font-family="Helvetica,sans-Serif" font-size="10.00">+ scalar_prod()</text>
<text text-anchor="start" x="160" y="-752.5" font-family="Helvetica,sans-Serif" font-size="10.00">+ rotate()</text>
<text text-anchor="start" x="160" y="-741.5" font-family="Helvetica,sans-Serif" font-size="10.00">+ get_slope_angle()</text>
<text text-anchor="start" x="160" y="-730.5" font-family="Helvetica,sans-Serif" font-size="10.00">+ rotate()</text>
<text text-anchor="start" x="160" y="-719.5" font-family="Helvetica,sans-Serif" font-size="10.00">+ get_slope_angle()</text>
</a>
</g>
</g>
<!-- Node8&#45;&gt;Node3 -->
<g id="edge8" class="edge">
<title>Node8&#45;&gt;Node3</title>
<path fill="none" stroke="orange" d="M214.24,-702.16C214.48,-689.62 214.72,-676.97 214.96,-664.52"/>
<polygon fill="orange" stroke="orange" points="210.74,-702.12 214.04,-712.18 217.74,-702.25 210.74,-702.12"/>
<text text-anchor="middle" x="250" y="-686" font-family="Helvetica,sans-Serif" font-size="10.00"> &lt; double, 3 &gt;</text>
</g>
<!-- Node9&#45;&gt;Node8 -->
<g id="edge9" class="edge">
<title>Node9&#45;&gt;Node8</title>
<path fill="none" stroke="midnightblue" d="M141.41,-1016.78C146.4,-1004.65 151.73,-991.7 157.14,-978.56"/>
<polygon fill="none" stroke="midnightblue" points="138.05,-1015.73 137.48,-1026.31 144.52,-1018.4 138.05,-1015.73"/>
</g>
<!-- Node10 -->
<g id="node10" class="node">
<title>Node10</title>
<g id="a_node10"><a xlink:href="classstatic_01int.html" target="_top" xlink:title=" ">
<polygon fill="none" stroke="black" points="0,-1236 0,-1293 59,-1293 59,-1236 0,-1236"/>
<text text-anchor="middle" x="29.5" y="-1281" font-family="Helvetica,sans-Serif" font-size="10.00">static int</text>
<polyline fill="none" stroke="black" points="0,-1274 59,-1274 "/>
<text text-anchor="middle" x="29.5" y="-1262" font-family="Helvetica,sans-Serif" font-size="10.00"> </text>
<polyline fill="none" stroke="black" points="0,-1255 59,-1255 "/>
<text text-anchor="middle" x="29.5" y="-1243" font-family="Helvetica,sans-Serif" font-size="10.00"> </text>
</a>
</g>
</g>
<!-- Node10&#45;&gt;Node9 -->
<g id="edge10" class="edge">
<title>Node10&#45;&gt;Node9</title>
<path fill="none" stroke="#404040" d="M24.32,-1236C21.88,-1216.26 21.24,-1189.47 30.5,-1168 33.76,-1160.44 38.13,-1153.25 43.17,-1146.5"/>
<polygon fill="none" stroke="#404040" points="43.37,-1146.25 44.07,-1139.07 50.96,-1136.95 50.27,-1144.13 43.37,-1146.25"/>
<text text-anchor="middle" x="73.5" y="-1182" font-family="Helvetica,sans-Serif" font-size="10.00"> #objects_alive</text>
<text text-anchor="middle" x="73.5" y="-1171" font-family="Helvetica,sans-Serif" font-size="10.00">#objects_created</text>
</g>
<!-- Node11 -->
<g id="node11" class="node">
<title>Node11</title>
<g id="a_node11"><a xlink:title=" ">
<polygon fill="none" stroke="#bfbfbf" points="192.5,-1059.5 192.5,-1116.5 230.5,-1116.5 230.5,-1059.5 192.5,-1059.5"/>
<text text-anchor="middle" x="211.5" y="-1104.5" font-family="Helvetica,sans-Serif" font-size="10.00">type</text>
<polyline fill="none" stroke="#bfbfbf" points="192.5,-1097.5 230.5,-1097.5 "/>
<text text-anchor="middle" x="211.5" y="-1085.5" font-family="Helvetica,sans-Serif" font-size="10.00"> </text>
<polyline fill="none" stroke="#bfbfbf" points="192.5,-1078.5 230.5,-1078.5 "/>
<text text-anchor="middle" x="211.5" y="-1066.5" font-family="Helvetica,sans-Serif" font-size="10.00"> </text>
</a>
</g>
</g>
<!-- Node11&#45;&gt;Node8 -->
<g id="edge12" class="edge">
<title>Node11&#45;&gt;Node8</title>
<path fill="none" stroke="#404040" d="M211.5,-1059.41C211.5,-1041.65 211.5,-1017.05 211.5,-990.85"/>
<polygon fill="none" stroke="#404040" points="211.5,-990.72 207.5,-984.72 211.5,-978.72 215.5,-984.72 211.5,-990.72"/>
<text text-anchor="middle" x="225" y="-1000" font-family="Helvetica,sans-Serif" font-size="10.00"> &#45;size</text>
</g>
<!-- Node12 -->
<g id="node12" class="node">
<title>Node12</title>
<g id="a_node12"><a xlink:title=" ">
<polygon fill="none" stroke="#bfbfbf" points="293.5,-503 293.5,-560 337.5,-560 337.5,-503 293.5,-503"/>
<text text-anchor="middle" x="315.5" y="-548" font-family="Helvetica,sans-Serif" font-size="10.00">string</text>
<polyline fill="none" stroke="#bfbfbf" points="293.5,-541 337.5,-541 "/>
<text text-anchor="middle" x="315.5" y="-529" font-family="Helvetica,sans-Serif" font-size="10.00"> </text>
<polyline fill="none" stroke="#bfbfbf" points="293.5,-522 337.5,-522 "/>
<text text-anchor="middle" x="315.5" y="-510" font-family="Helvetica,sans-Serif" font-size="10.00"> </text>
</a>
</g>
</g>
<!-- Node12&#45;&gt;Node2 -->
<g id="edge13" class="edge">
<title>Node12&#45;&gt;Node2</title>
<path fill="none" stroke="#404040" d="M309.81,-502.91C303.92,-472.85 295.08,-423.24 291.5,-380 290.74,-370.83 290.18,-361.32 289.77,-351.75"/>
<polygon fill="none" stroke="#404040" points="289.77,-351.62 285.56,-345.77 289.34,-339.63 293.55,-345.48 289.77,-351.62"/>
<text text-anchor="middle" x="332" y="-372" font-family="Helvetica,sans-Serif" font-size="10.00"> #sample_name</text>
<text text-anchor="middle" x="332" y="-361" font-family="Helvetica,sans-Serif" font-size="10.00">#final_name</text>
</g>
</g>
</svg>
