<?xml version="1.0" encoding="UTF-8" standalone="no"?>
<!DOCTYPE svg PUBLIC "-//W3C//DTD SVG 1.1//EN"
 "http://www.w3.org/Graphics/SVG/1.1/DTD/svg11.dtd">
<!-- Generated by graphviz version 2.43.0 (0)
 -->
<!-- Title: Prism::translation_of_lower_cen Pages: 1 -->
<svg width="934pt" height="187pt"
 viewBox="0.00 0.00 934.00 187.00" xmlns="http://www.w3.org/2000/svg" xmlns:xlink="http://www.w3.org/1999/xlink">
<g id="graph0" class="graph" transform="scale(1 1) rotate(0) translate(4 183)">
<title>Prism::translation_of_lower_cen</title>
<!-- Node1 -->
<g id="node1" class="node">
<title>Node1</title>
<g id="a_node1"><a xlink:title="Metoda przesuwajaca graniastoslup o zadany wektor w 3D w taki sposob, ze srodek jego dolnej podstawy ...">
<polygon fill="#bfbfbf" stroke="black" points="823,-116 823,-146 926,-146 926,-116 823,-116"/>
<text text-anchor="start" x="831" y="-134" font-family="Helvetica,sans-Serif" font-size="10.00">Prism::translation</text>
<text text-anchor="middle" x="874.5" y="-123" font-family="Helvetica,sans-Serif" font-size="10.00">_of_lower_cen</text>
</a>
</g>
</g>
<!-- Node2 -->
<g id="node2" class="node">
<title>Node2</title>
<g id="a_node2"><a xlink:href="class_drone.html#aea963b77f42c204504542a3d9190d762" target="_top" xlink:title="Metoda uzywana przy konstruowania drona Ustawia rotory w ten sposob, ze srodek ich dolnej podstawy je...">
<polygon fill="none" stroke="black" points="672,-116 672,-146 787,-146 787,-116 672,-116"/>
<text text-anchor="start" x="680" y="-134" font-family="Helvetica,sans-Serif" font-size="10.00">Drone::set_rotors_in</text>
<text text-anchor="middle" x="729.5" y="-123" font-family="Helvetica,sans-Serif" font-size="10.00">_place</text>
</a>
</g>
</g>
<!-- Node1&#45;&gt;Node2 -->
<g id="edge1" class="edge">
<title>Node1&#45;&gt;Node2</title>
<path fill="none" stroke="midnightblue" d="M812.63,-131C804.29,-131 795.75,-131 787.48,-131"/>
<polygon fill="midnightblue" stroke="midnightblue" points="812.68,-134.5 822.68,-131 812.68,-127.5 812.68,-134.5"/>
</g>
<!-- Node3 -->
<g id="node3" class="node">
<title>Node3</title>
<g id="a_node3"><a xlink:href="class_drone.html#ab692baa4be5c43b72990ce1b01bdc805" target="_top" xlink:title="Konstruktor bezparametryczny klasy Drone. Powstaly dron jest skonstruowany z bezparametrycznych prost...">
<polygon fill="none" stroke="black" points="346.5,-159.5 346.5,-178.5 427.5,-178.5 427.5,-159.5 346.5,-159.5"/>
<text text-anchor="middle" x="387" y="-166.5" font-family="Helvetica,sans-Serif" font-size="10.00">Drone::Drone</text>
</a>
</g>
</g>
<!-- Node2&#45;&gt;Node3 -->
<g id="edge2" class="edge">
<title>Node2&#45;&gt;Node3</title>
<path fill="none" stroke="midnightblue" d="M661.86,-145.73C653.19,-147.34 644.4,-148.82 636,-150 562.88,-160.27 476.79,-165.3 427.68,-167.5"/>
<polygon fill="midnightblue" stroke="midnightblue" points="662.79,-149.12 671.95,-143.79 661.47,-142.24 662.79,-149.12"/>
</g>
<!-- Node4 -->
<g id="node4" class="node">
<title>Node4</title>
<g id="a_node4"><a xlink:href="class_drone.html#ad42bc54902df967b94717617aca1a974" target="_top" xlink:title="Metoda obracajaca dron o zadany kat w 3D wokol srodka figury">
<polygon fill="none" stroke="black" points="484,-121.5 484,-140.5 636,-140.5 636,-121.5 484,-121.5"/>
<text text-anchor="middle" x="560" y="-128.5" font-family="Helvetica,sans-Serif" font-size="10.00">Drone::rotation_around_cen</text>
</a>
</g>
</g>
<!-- Node2&#45;&gt;Node4 -->
<g id="edge3" class="edge">
<title>Node2&#45;&gt;Node4</title>
<path fill="none" stroke="midnightblue" d="M661.67,-131C653.25,-131 644.59,-131 636.06,-131"/>
<polygon fill="midnightblue" stroke="midnightblue" points="661.79,-134.5 671.79,-131 661.79,-127.5 661.79,-134.5"/>
</g>
<!-- Node10 -->
<g id="node10" class="node">
<title>Node10</title>
<g id="a_node10"><a xlink:href="class_scene.html#adca9214dccab3d77eed9d8af7db67f94" target="_top" xlink:title="Konstruktor paramereyczny klasy Scene.">
<polygon fill="none" stroke="black" points="519.5,-83.5 519.5,-102.5 600.5,-102.5 600.5,-83.5 519.5,-83.5"/>
<text text-anchor="middle" x="560" y="-90.5" font-family="Helvetica,sans-Serif" font-size="10.00">Scene::Scene</text>
</a>
</g>
</g>
<!-- Node2&#45;&gt;Node10 -->
<g id="edge13" class="edge">
<title>Node2&#45;&gt;Node10</title>
<path fill="none" stroke="midnightblue" d="M661.78,-115.86C641.1,-111.17 618.97,-106.15 600.73,-102.01"/>
<polygon fill="midnightblue" stroke="midnightblue" points="661.27,-119.34 671.79,-118.13 662.81,-112.51 661.27,-119.34"/>
</g>
<!-- Node4&#45;&gt;Node3 -->
<g id="edge4" class="edge">
<title>Node4&#45;&gt;Node3</title>
<path fill="none" stroke="midnightblue" d="M506.03,-142.77C480.72,-148.4 450.94,-155.01 427.62,-160.2"/>
<polygon fill="midnightblue" stroke="midnightblue" points="506.85,-146.18 515.85,-140.59 505.33,-139.34 506.85,-146.18"/>
</g>
<!-- Node5 -->
<g id="node5" class="node">
<title>Node5</title>
<g id="a_node5"><a xlink:href="class_drone.html#af03af60a9b92e4191a7e66b5c20b52bb" target="_top" xlink:title="Metoda zamieniajaca drona na tego z pliku sample.">
<polygon fill="none" stroke="black" points="326,-72 326,-102 448,-102 448,-72 326,-72"/>
<text text-anchor="start" x="334" y="-90" font-family="Helvetica,sans-Serif" font-size="10.00">Drone::Drone_change</text>
<text text-anchor="middle" x="387" y="-79" font-family="Helvetica,sans-Serif" font-size="10.00">_to_sample</text>
</a>
</g>
</g>
<!-- Node4&#45;&gt;Node5 -->
<g id="edge5" class="edge">
<title>Node4&#45;&gt;Node5</title>
<path fill="none" stroke="midnightblue" d="M511.5,-119.02C502.37,-116.7 492.89,-114.28 484,-112 471.49,-108.79 458.07,-105.31 445.35,-102"/>
<polygon fill="midnightblue" stroke="midnightblue" points="510.66,-122.42 521.22,-121.48 512.38,-115.63 510.66,-122.42"/>
</g>
<!-- Node7 -->
<g id="node7" class="node">
<title>Node7</title>
<g id="a_node7"><a xlink:href="class_drone.html#af052f6bb793d1229b99b16b800b95b82" target="_top" xlink:title="Metoda animujaca obrot drona i wyrysowujaca calosc w gnuplocie.">
<polygon fill="none" stroke="black" points="156.5,-127 156.5,-157 281.5,-157 281.5,-127 156.5,-127"/>
<text text-anchor="start" x="164.5" y="-145" font-family="Helvetica,sans-Serif" font-size="10.00">Drone::Drone_rotation</text>
<text text-anchor="middle" x="219" y="-134" font-family="Helvetica,sans-Serif" font-size="10.00">_animation</text>
</a>
</g>
</g>
<!-- Node4&#45;&gt;Node7 -->
<g id="edge11" class="edge">
<title>Node4&#45;&gt;Node7</title>
<path fill="none" stroke="midnightblue" d="M473.59,-133.77C413.85,-135.71 335.44,-138.25 281.71,-140"/>
<polygon fill="midnightblue" stroke="midnightblue" points="473.88,-137.26 483.76,-133.44 473.66,-130.27 473.88,-137.26"/>
</g>
<!-- Node8 -->
<g id="node8" class="node">
<title>Node8</title>
<g id="a_node8"><a xlink:href="class_drone.html#ab7808296cec81143dbddd7516340a371" target="_top" xlink:title="Metoda robiaca &quot;oblot&quot; drona wokol punktu (z modyfikacji)">
<polygon fill="none" stroke="black" points="148,-0.5 148,-19.5 290,-19.5 290,-0.5 148,-0.5"/>
<text text-anchor="middle" x="219" y="-7.5" font-family="Helvetica,sans-Serif" font-size="10.00">Drone::Drone_roundabout</text>
</a>
</g>
</g>
<!-- Node4&#45;&gt;Node8 -->
<g id="edge12" class="edge">
<title>Node4&#45;&gt;Node8</title>
<path fill="none" stroke="midnightblue" d="M493.27,-117.36C490.03,-115.77 486.92,-113.99 484,-112 461.36,-96.6 470.82,-77.13 448,-62 401.05,-30.87 338.02,-18.21 290.13,-13.14"/>
<polygon fill="midnightblue" stroke="midnightblue" points="492.07,-120.65 502.64,-121.38 494.83,-114.22 492.07,-120.65"/>
</g>
<!-- Node6 -->
<g id="node6" class="node">
<title>Node6</title>
<g id="a_node6"><a xlink:href="class_drone.html#ac4d24c27fb2c107d2e8bda0c2bf5cfa1" target="_top" xlink:title="Metoda obliczajaca i przeprowadzajaca caly ruch drona (obrot o kat i przelot z zadania 5....">
<polygon fill="none" stroke="black" points="0,-105 0,-135 112,-135 112,-105 0,-105"/>
<text text-anchor="start" x="8" y="-123" font-family="Helvetica,sans-Serif" font-size="10.00">Drone::Drone_basic</text>
<text text-anchor="middle" x="56" y="-112" font-family="Helvetica,sans-Serif" font-size="10.00">_motion</text>
</a>
</g>
</g>
<!-- Node5&#45;&gt;Node6 -->
<g id="edge6" class="edge">
<title>Node5&#45;&gt;Node6</title>
<path fill="none" stroke="midnightblue" d="M315.36,-94.09C254.5,-100.19 167.87,-108.88 112.04,-114.48"/>
<polygon fill="midnightblue" stroke="midnightblue" points="316.06,-97.53 325.66,-93.05 315.36,-90.57 316.06,-97.53"/>
</g>
<!-- Node5&#45;&gt;Node7 -->
<g id="edge7" class="edge">
<title>Node5&#45;&gt;Node7</title>
<path fill="none" stroke="midnightblue" d="M331.06,-105.2C309.74,-112.27 285.61,-120.26 265.31,-126.99"/>
<polygon fill="midnightblue" stroke="midnightblue" points="332.25,-108.5 340.64,-102.03 330.05,-101.85 332.25,-108.5"/>
</g>
<!-- Node5&#45;&gt;Node8 -->
<g id="edge9" class="edge">
<title>Node5&#45;&gt;Node8</title>
<path fill="none" stroke="midnightblue" d="M356.3,-66.09C337.9,-53.9 313.39,-39 290,-29 281.43,-25.33 271.97,-22.2 262.84,-19.6"/>
<polygon fill="midnightblue" stroke="midnightblue" points="354.57,-69.14 364.82,-71.82 358.48,-63.33 354.57,-69.14"/>
</g>
<!-- Node9 -->
<g id="node9" class="node">
<title>Node9</title>
<g id="a_node9"><a xlink:href="class_drone.html#a5fc9dd645ad3856b5d3c501c63c464e3" target="_top" xlink:title="Metoda animujaca translacje drona i wyrysowujaca calosc w gnuplocie.">
<polygon fill="none" stroke="black" points="149.5,-39 149.5,-69 288.5,-69 288.5,-39 149.5,-39"/>
<text text-anchor="start" x="157.5" y="-57" font-family="Helvetica,sans-Serif" font-size="10.00">Drone::Drone_translation</text>
<text text-anchor="middle" x="219" y="-46" font-family="Helvetica,sans-Serif" font-size="10.00">_animation</text>
</a>
</g>
</g>
<!-- Node5&#45;&gt;Node9 -->
<g id="edge10" class="edge">
<title>Node5&#45;&gt;Node9</title>
<path fill="none" stroke="midnightblue" d="M315.58,-73C306.62,-71.22 297.45,-69.4 288.51,-67.62"/>
<polygon fill="midnightblue" stroke="midnightblue" points="315.11,-76.48 325.6,-74.99 316.47,-69.61 315.11,-76.48"/>
</g>
<!-- Node7&#45;&gt;Node6 -->
<g id="edge8" class="edge">
<title>Node7&#45;&gt;Node6</title>
<path fill="none" stroke="midnightblue" d="M146.22,-132.19C134.75,-130.62 123.04,-129.02 112.04,-127.52"/>
<polygon fill="midnightblue" stroke="midnightblue" points="145.83,-135.67 156.21,-133.56 146.78,-128.74 145.83,-135.67"/>
</g>
</g>
</svg>
