<?xml version="1.0" encoding="UTF-8" standalone="no"?>
<!DOCTYPE svg PUBLIC "-//W3C//DTD SVG 1.1//EN"
 "http://www.w3.org/Graphics/SVG/1.1/DTD/svg11.dtd">
<!-- Generated by graphviz version 2.43.0 (0)
 -->
<!-- Title: Cuboid::get_vec_opp Pages: 1 -->
<svg width="573pt" height="104pt"
 viewBox="0.00 0.00 573.00 104.00" xmlns="http://www.w3.org/2000/svg" xmlns:xlink="http://www.w3.org/1999/xlink">
<g id="graph0" class="graph" transform="scale(1 1) rotate(0) translate(4 100)">
<title>Cuboid::get_vec_opp</title>
<!-- Node1 -->
<g id="node1" class="node">
<title>Node1</title>
<g id="a_node1"><a xlink:title="Zwraca do tablicy 3x2 wektory reprezentujace przeciwne boki prostopadloscianu">
<polygon fill="#bfbfbf" stroke="black" points="447,-38.5 447,-57.5 565,-57.5 565,-38.5 447,-38.5"/>
<text text-anchor="middle" x="506" y="-45.5" font-family="Helvetica,sans-Serif" font-size="10.00">Cuboid::get_vec_opp</text>
</a>
</g>
</g>
<!-- Node2 -->
<g id="node2" class="node">
<title>Node2</title>
<g id="a_node2"><a xlink:href="class_cuboid.html#a41233dfb606942e160e3080a23547674" target="_top" xlink:title="Sprawdza czy dlugosci wektory tworzace przeciwne boki prostopadloscianu maja poprawne wartosci (nie s...">
<polygon fill="none" stroke="black" points="281.5,-76.5 281.5,-95.5 409.5,-95.5 409.5,-76.5 281.5,-76.5"/>
<text text-anchor="middle" x="345.5" y="-83.5" font-family="Helvetica,sans-Serif" font-size="10.00">Cuboid::check_vec_len</text>
</a>
</g>
</g>
<!-- Node1&#45;&gt;Node2 -->
<g id="edge1" class="edge">
<title>Node1&#45;&gt;Node2</title>
<path fill="none" stroke="midnightblue" d="M455.08,-59.97C432.87,-65.29 407.08,-71.48 386.21,-76.48"/>
<polygon fill="midnightblue" stroke="midnightblue" points="456.1,-63.32 465,-57.59 454.46,-56.52 456.1,-63.32"/>
</g>
<!-- Node5 -->
<g id="node5" class="node">
<title>Node5</title>
<g id="a_node5"><a xlink:href="class_cuboid.html#a5840b78caaeac16fd1a262026819501d" target="_top" xlink:title="Sprawdza czy wektory tworzace przeciwne boki prostopadloscianu sa rowne">
<polygon fill="none" stroke="black" points="280,-38.5 280,-57.5 411,-57.5 411,-38.5 280,-38.5"/>
<text text-anchor="middle" x="345.5" y="-45.5" font-family="Helvetica,sans-Serif" font-size="10.00">Cuboid::check_vec_opp</text>
</a>
</g>
</g>
<!-- Node1&#45;&gt;Node5 -->
<g id="edge4" class="edge">
<title>Node1&#45;&gt;Node5</title>
<path fill="none" stroke="midnightblue" d="M436.63,-48C428.13,-48 419.47,-48 411.03,-48"/>
<polygon fill="midnightblue" stroke="midnightblue" points="436.88,-51.5 446.88,-48 436.88,-44.5 436.88,-51.5"/>
</g>
<!-- Node6 -->
<g id="node6" class="node">
<title>Node6</title>
<g id="a_node6"><a xlink:href="class_cuboid.html#a63fdccd9593f1a7191395a103b7c6366" target="_top" xlink:title="Zapisuje do tablicy tab w kolejnosci: 1.dluzsze przeciwlegle boki 2.krotsze przeciwlegle boki 3....">
<polygon fill="none" stroke="black" points="288,-0.5 288,-19.5 403,-19.5 403,-0.5 288,-0.5"/>
<text text-anchor="middle" x="345.5" y="-7.5" font-family="Helvetica,sans-Serif" font-size="10.00">Cuboid::get_vec_len</text>
</a>
</g>
</g>
<!-- Node1&#45;&gt;Node6 -->
<g id="edge6" class="edge">
<title>Node1&#45;&gt;Node6</title>
<path fill="none" stroke="midnightblue" d="M455.08,-36.03C432.87,-30.71 407.08,-24.52 386.21,-19.52"/>
<polygon fill="midnightblue" stroke="midnightblue" points="454.46,-39.48 465,-38.41 456.1,-32.68 454.46,-39.48"/>
</g>
<!-- Node3 -->
<g id="node3" class="node">
<title>Node3</title>
<g id="a_node3"><a xlink:href="class_cuboid.html#a058d488f3125238bd8b8dcbb671ede9e" target="_top" xlink:title="Sprawdza czy prostopadloscian jest poprawnie zbudowany">
<polygon fill="none" stroke="black" points="137,-57.5 137,-76.5 244,-76.5 244,-57.5 137,-57.5"/>
<text text-anchor="middle" x="190.5" y="-64.5" font-family="Helvetica,sans-Serif" font-size="10.00">Cuboid::check_cub</text>
</a>
</g>
</g>
<!-- Node2&#45;&gt;Node3 -->
<g id="edge2" class="edge">
<title>Node2&#45;&gt;Node3</title>
<path fill="none" stroke="midnightblue" d="M271.18,-76.89C262.09,-75.77 252.94,-74.63 244.24,-73.55"/>
<polygon fill="midnightblue" stroke="midnightblue" points="271.03,-80.4 281.39,-78.16 271.89,-73.46 271.03,-80.4"/>
</g>
<!-- Node4 -->
<g id="node4" class="node">
<title>Node4</title>
<g id="a_node4"><a xlink:href="class_drone.html#a40e3c3f032ef691392293efd12a5014b" target="_top" xlink:title="Metoda sprawdzajaca budowe drona">
<polygon fill="none" stroke="black" points="0,-57.5 0,-76.5 101,-76.5 101,-57.5 0,-57.5"/>
<text text-anchor="middle" x="50.5" y="-64.5" font-family="Helvetica,sans-Serif" font-size="10.00">Drone::check_dro</text>
</a>
</g>
</g>
<!-- Node3&#45;&gt;Node4 -->
<g id="edge3" class="edge">
<title>Node3&#45;&gt;Node4</title>
<path fill="none" stroke="midnightblue" d="M126.91,-67C118.29,-67 109.54,-67 101.19,-67"/>
<polygon fill="midnightblue" stroke="midnightblue" points="126.93,-70.5 136.93,-67 126.93,-63.5 126.93,-70.5"/>
</g>
<!-- Node5&#45;&gt;Node3 -->
<g id="edge5" class="edge">
<title>Node5&#45;&gt;Node3</title>
<path fill="none" stroke="midnightblue" d="M269.66,-57.29C261.14,-58.35 252.6,-59.41 244.45,-60.42"/>
<polygon fill="midnightblue" stroke="midnightblue" points="270.12,-60.76 279.61,-56.06 269.26,-53.82 270.12,-60.76"/>
</g>
</g>
</svg>
