<?xml version="1.0" encoding="UTF-8" standalone="no"?>
<!DOCTYPE svg PUBLIC "-//W3C//DTD SVG 1.1//EN"
 "http://www.w3.org/Graphics/SVG/1.1/DTD/svg11.dtd">
<!-- Generated by graphviz version 2.43.0 (0)
 -->
<!-- Title: Prism::translation_to_O Pages: 1 -->
<svg width="1145pt" height="532pt"
 viewBox="0.00 0.00 1145.00 532.10" xmlns="http://www.w3.org/2000/svg" xmlns:xlink="http://www.w3.org/1999/xlink">
<g id="graph0" class="graph" transform="scale(1 1) rotate(0) translate(4 528.1)">
<title>Prism::translation_to_O</title>
<!-- Node1 -->
<g id="node1" class="node">
<title>Node1</title>
<g id="a_node1"><a xlink:title="Metoda przesuwajaca graniastoslup do srodka ukladu wspolrzednych (tak, ze srodek graniastoslupa pokry...">
<polygon fill="#bfbfbf" stroke="black" points="1006,-276.6 1006,-295.6 1137,-295.6 1137,-276.6 1006,-276.6"/>
<text text-anchor="middle" x="1071.5" y="-283.6" font-family="Helvetica,sans-Serif" font-size="10.00">Prism::translation_to_O</text>
</a>
</g>
</g>
<!-- Node2 -->
<g id="node2" class="node">
<title>Node2</title>
<g id="a_node2"><a xlink:href="class_prism.html#a22c5467db5d960bddbaf9a52f55c55cb" target="_top" xlink:title="Metoda obracajaca graniastoslup o zadany kat w 3D wokol srodka figury">
<polygon fill="none" stroke="black" points="820,-238.6 820,-257.6 970,-257.6 970,-238.6 820,-238.6"/>
<text text-anchor="middle" x="895" y="-245.6" font-family="Helvetica,sans-Serif" font-size="10.00">Prism::rotation_around_cen</text>
</a>
</g>
</g>
<!-- Node1&#45;&gt;Node2 -->
<g id="edge1" class="edge">
<title>Node1&#45;&gt;Node2</title>
<path fill="none" stroke="midnightblue" d="M1016.53,-274.35C991.86,-268.98 963.01,-262.69 939.72,-257.62"/>
<polygon fill="midnightblue" stroke="midnightblue" points="1015.95,-277.8 1026.47,-276.51 1017.44,-270.96 1015.95,-277.8"/>
</g>
<!-- Node12 -->
<g id="node12" class="node">
<title>Node12</title>
<g id="a_node12"><a xlink:href="class_scene.html#aa5fc0e5a94bfa0766f6e5ff10993630d" target="_top" xlink:title="Skanowanie powierzchni pod dronem, gdy dron nie moze wyladowac w danym miejscu &#160;&#160;Rysowany jest rownie...">
<polygon fill="none" stroke="black" points="479,-276.6 479,-295.6 586,-295.6 586,-276.6 479,-276.6"/>
<text text-anchor="middle" x="532.5" y="-283.6" font-family="Helvetica,sans-Serif" font-size="10.00">Scene::scan_plane</text>
</a>
</g>
</g>
<!-- Node1&#45;&gt;Node12 -->
<g id="edge35" class="edge">
<title>Node1&#45;&gt;Node12</title>
<path fill="none" stroke="midnightblue" d="M995.95,-286.1C885.74,-286.1 682.05,-286.1 586.1,-286.1"/>
<polygon fill="midnightblue" stroke="midnightblue" points="995.99,-289.6 1005.99,-286.1 995.99,-282.6 995.99,-289.6"/>
</g>
<!-- Node17 -->
<g id="node17" class="node">
<title>Node17</title>
<g id="a_node17"><a xlink:href="class_prism.html#a07f15c416c9f9c54390bb8737b441a35" target="_top" xlink:title="Metoda skalujaca o wektor scale bedacy czlonkiem klasy block">
<polygon fill="none" stroke="black" points="661,-371.6 661,-390.6 755,-390.6 755,-371.6 661,-371.6"/>
<text text-anchor="middle" x="708" y="-378.6" font-family="Helvetica,sans-Serif" font-size="10.00">Prism::scale_pri</text>
</a>
</g>
</g>
<!-- Node1&#45;&gt;Node17 -->
<g id="edge26" class="edge">
<title>Node1&#45;&gt;Node17</title>
<path fill="none" stroke="midnightblue" d="M1024.37,-298.22C951.55,-317.36 811.45,-354.18 745.29,-371.56"/>
<polygon fill="midnightblue" stroke="midnightblue" points="1025.4,-301.57 1034.18,-295.65 1023.62,-294.8 1025.4,-301.57"/>
</g>
<!-- Node3 -->
<g id="node3" class="node">
<title>Node3</title>
<g id="a_node3"><a xlink:href="class_drone.html#ad42bc54902df967b94717617aca1a974" target="_top" xlink:title="Metoda obracajaca dron o zadany kat w 3D wokol srodka figury">
<polygon fill="none" stroke="black" points="632,-238.6 632,-257.6 784,-257.6 784,-238.6 632,-238.6"/>
<text text-anchor="middle" x="708" y="-245.6" font-family="Helvetica,sans-Serif" font-size="10.00">Drone::rotation_around_cen</text>
</a>
</g>
</g>
<!-- Node2&#45;&gt;Node3 -->
<g id="edge2" class="edge">
<title>Node2&#45;&gt;Node3</title>
<path fill="none" stroke="midnightblue" d="M809.82,-248.1C801.24,-248.1 792.57,-248.1 784.1,-248.1"/>
<polygon fill="midnightblue" stroke="midnightblue" points="809.82,-251.6 819.82,-248.1 809.82,-244.6 809.82,-251.6"/>
</g>
<!-- Node16 -->
<g id="node16" class="node">
<title>Node16</title>
<g id="a_node16"><a xlink:href="class_drone.html#aedb04b80609b22ff4eb4a957bc149a48" target="_top" xlink:title="Metoda animujaca obrot rotorow i zapisujaca to w plikach. Metoda sluzy jako metoda pomocnicza,...">
<polygon fill="none" stroke="black" points="469,-107.1 469,-137.1 596,-137.1 596,-107.1 469,-107.1"/>
<text text-anchor="start" x="477" y="-125.1" font-family="Helvetica,sans-Serif" font-size="10.00">Drone::Rotors_rotation</text>
<text text-anchor="middle" x="532.5" y="-114.1" font-family="Helvetica,sans-Serif" font-size="10.00">_animation</text>
</a>
</g>
</g>
<!-- Node2&#45;&gt;Node16 -->
<g id="edge19" class="edge">
<title>Node2&#45;&gt;Node16</title>
<path fill="none" stroke="midnightblue" d="M856.86,-235.12C789.62,-211.62 648.06,-162.14 576.65,-137.18"/>
<polygon fill="midnightblue" stroke="midnightblue" points="856.01,-238.53 866.61,-238.53 858.32,-231.92 856.01,-238.53"/>
</g>
<!-- Node4 -->
<g id="node4" class="node">
<title>Node4</title>
<g id="a_node4"><a xlink:href="class_drone.html#ab692baa4be5c43b72990ce1b01bdc805" target="_top" xlink:title="Konstruktor bezparametryczny klasy Drone. Powstaly dron jest skonstruowany z bezparametrycznych prost...">
<polygon fill="none" stroke="black" points="492,-314.6 492,-333.6 573,-333.6 573,-314.6 492,-314.6"/>
<text text-anchor="middle" x="532.5" y="-321.6" font-family="Helvetica,sans-Serif" font-size="10.00">Drone::Drone</text>
</a>
</g>
</g>
<!-- Node3&#45;&gt;Node4 -->
<g id="edge3" class="edge">
<title>Node3&#45;&gt;Node4</title>
<path fill="none" stroke="midnightblue" d="M681.76,-262.71C659.66,-275.11 626.4,-292.79 596,-305.1 587.38,-308.59 577.87,-311.8 568.92,-314.54"/>
<polygon fill="midnightblue" stroke="midnightblue" points="683.54,-265.73 690.52,-257.76 680.09,-259.64 683.54,-265.73"/>
</g>
<!-- Node5 -->
<g id="node5" class="node">
<title>Node5</title>
<g id="a_node5"><a xlink:href="class_drone.html#af03af60a9b92e4191a7e66b5c20b52bb" target="_top" xlink:title="Metoda zamieniajaca drona na tego z pliku sample.">
<polygon fill="none" stroke="black" points="471.5,-189.1 471.5,-219.1 593.5,-219.1 593.5,-189.1 471.5,-189.1"/>
<text text-anchor="start" x="479.5" y="-207.1" font-family="Helvetica,sans-Serif" font-size="10.00">Drone::Drone_change</text>
<text text-anchor="middle" x="532.5" y="-196.1" font-family="Helvetica,sans-Serif" font-size="10.00">_to_sample</text>
</a>
</g>
</g>
<!-- Node3&#45;&gt;Node5 -->
<g id="edge4" class="edge">
<title>Node3&#45;&gt;Node5</title>
<path fill="none" stroke="midnightblue" d="M659.58,-236.08C639,-230.86 614.67,-224.69 592.91,-219.17"/>
<polygon fill="midnightblue" stroke="midnightblue" points="658.8,-239.49 669.35,-238.55 660.52,-232.7 658.8,-239.49"/>
</g>
<!-- Node9 -->
<g id="node9" class="node">
<title>Node9</title>
<g id="a_node9"><a xlink:href="class_drone.html#af052f6bb793d1229b99b16b800b95b82" target="_top" xlink:title="Metoda animujaca obrot drona i wyrysowujaca calosc w gnuplocie.">
<polygon fill="none" stroke="black" points="299.5,-25.1 299.5,-55.1 424.5,-55.1 424.5,-25.1 299.5,-25.1"/>
<text text-anchor="start" x="307.5" y="-43.1" font-family="Helvetica,sans-Serif" font-size="10.00">Drone::Drone_rotation</text>
<text text-anchor="middle" x="362" y="-32.1" font-family="Helvetica,sans-Serif" font-size="10.00">_animation</text>
</a>
</g>
</g>
<!-- Node3&#45;&gt;Node9 -->
<g id="edge13" class="edge">
<title>Node3&#45;&gt;Node9</title>
<path fill="none" stroke="midnightblue" d="M698.53,-229.44C683,-197.38 646.81,-132.03 596,-98.1 544.52,-63.72 474.36,-49.71 424.52,-44.01"/>
<polygon fill="midnightblue" stroke="midnightblue" points="695.42,-231.04 702.84,-238.59 701.75,-228.05 695.42,-231.04"/>
</g>
<!-- Node10 -->
<g id="node10" class="node">
<title>Node10</title>
<g id="a_node10"><a xlink:href="class_drone.html#ab7808296cec81143dbddd7516340a371" target="_top" xlink:title="Metoda robiaca &quot;oblot&quot; drona wokol punktu (z modyfikacji)">
<polygon fill="none" stroke="black" points="291,-238.6 291,-257.6 433,-257.6 433,-238.6 291,-238.6"/>
<text text-anchor="middle" x="362" y="-245.6" font-family="Helvetica,sans-Serif" font-size="10.00">Drone::Drone_roundabout</text>
</a>
</g>
</g>
<!-- Node3&#45;&gt;Node10 -->
<g id="edge14" class="edge">
<title>Node3&#45;&gt;Node10</title>
<path fill="none" stroke="midnightblue" d="M621.68,-248.1C563.63,-248.1 487.76,-248.1 433.22,-248.1"/>
<polygon fill="midnightblue" stroke="midnightblue" points="621.93,-251.6 631.93,-248.1 621.93,-244.6 621.93,-251.6"/>
</g>
<!-- Node3&#45;&gt;Node12 -->
<g id="edge15" class="edge">
<title>Node3&#45;&gt;Node12</title>
<path fill="none" stroke="midnightblue" d="M653.34,-259.85C628.81,-265.23 600.12,-271.51 576.97,-276.58"/>
<polygon fill="midnightblue" stroke="midnightblue" points="654.2,-263.25 663.22,-257.69 652.7,-256.41 654.2,-263.25"/>
</g>
<!-- Node6 -->
<g id="node6" class="node">
<title>Node6</title>
<g id="a_node6"><a xlink:href="class_drone.html#a7eecbd031df9009e113d355a9dcdf4e1" target="_top" xlink:title="Metoda obliczajaca i przeprowadzajaca caly ruch drona (obrot o kat i przelot z zadania 5....">
<polygon fill="none" stroke="black" points="138.5,-22.1 138.5,-52.1 250.5,-52.1 250.5,-22.1 138.5,-22.1"/>
<text text-anchor="start" x="146.5" y="-40.1" font-family="Helvetica,sans-Serif" font-size="10.00">Drone::Drone_basic</text>
<text text-anchor="middle" x="194.5" y="-29.1" font-family="Helvetica,sans-Serif" font-size="10.00">_motion_flight</text>
</a>
</g>
</g>
<!-- Node5&#45;&gt;Node6 -->
<g id="edge5" class="edge">
<title>Node5&#45;&gt;Node6</title>
<path fill="none" stroke="midnightblue" d="M461.36,-220.37C408.81,-228.23 338.14,-229.01 291,-191.1 244.28,-153.53 294.93,-105.83 255,-61.1 251.96,-57.69 248.37,-54.76 244.47,-52.24"/>
<polygon fill="midnightblue" stroke="midnightblue" points="461.97,-223.82 471.28,-218.77 460.85,-216.91 461.97,-223.82"/>
</g>
<!-- Node7 -->
<g id="node7" class="node">
<title>Node7</title>
<g id="a_node7"><a xlink:href="class_drone.html#a4abbed4a4cc52e5630f07f9129b46c5c" target="_top" xlink:title="Metoda realizujaca ladowanie drona.">
<polygon fill="none" stroke="black" points="299.5,-112.6 299.5,-131.6 424.5,-131.6 424.5,-112.6 299.5,-112.6"/>
<text text-anchor="middle" x="362" y="-119.6" font-family="Helvetica,sans-Serif" font-size="10.00">Drone::Drone_descent</text>
</a>
</g>
</g>
<!-- Node5&#45;&gt;Node7 -->
<g id="edge6" class="edge">
<title>Node5&#45;&gt;Node7</title>
<path fill="none" stroke="midnightblue" d="M503.1,-183.18C484.05,-169.93 457.96,-153.25 433,-142.1 423.77,-137.98 413.47,-134.48 403.67,-131.62"/>
<polygon fill="midnightblue" stroke="midnightblue" points="501.14,-186.08 511.33,-189 505.18,-180.37 501.14,-186.08"/>
</g>
<!-- Node8 -->
<g id="node8" class="node">
<title>Node8</title>
<g id="a_node8"><a xlink:href="class_drone.html#aec9abadf85777ab20e361d1389aab466" target="_top" xlink:title="Metoda obliczajaca i przeprowadzajaca koncowy ruch drona (obrot o kat i koncowy przelot z zadania 5....">
<polygon fill="none" stroke="black" points="134,-71.1 134,-101.1 255,-101.1 255,-71.1 134,-71.1"/>
<text text-anchor="start" x="142" y="-89.1" font-family="Helvetica,sans-Serif" font-size="10.00">Drone::Drone_motion</text>
<text text-anchor="middle" x="194.5" y="-78.1" font-family="Helvetica,sans-Serif" font-size="10.00">_after_update</text>
</a>
</g>
</g>
<!-- Node5&#45;&gt;Node8 -->
<g id="edge7" class="edge">
<title>Node5&#45;&gt;Node8</title>
<path fill="none" stroke="midnightblue" d="M506.75,-225.64C487.94,-240.51 460.66,-259.01 433,-267.1 372.43,-284.82 345.04,-299.69 291,-267.1 229.08,-229.76 205.26,-137.41 198.09,-101.11"/>
<polygon fill="midnightblue" stroke="midnightblue" points="508.97,-228.35 514.52,-219.33 504.55,-222.92 508.97,-228.35"/>
</g>
<!-- Node5&#45;&gt;Node9 -->
<g id="edge8" class="edge">
<title>Node5&#45;&gt;Node9</title>
<path fill="none" stroke="midnightblue" d="M505.94,-182.31C494.3,-172.01 480.57,-159.31 469,-147.1 451.62,-128.76 450.44,-121.38 433,-103.1 416.41,-85.71 395.79,-67.52 381.24,-55.18"/>
<polygon fill="midnightblue" stroke="midnightblue" points="503.79,-185.07 513.62,-189.03 508.4,-179.81 503.79,-185.07"/>
</g>
<!-- Node5&#45;&gt;Node10 -->
<g id="edge11" class="edge">
<title>Node5&#45;&gt;Node10</title>
<path fill="none" stroke="midnightblue" d="M464.28,-221.65C442.15,-227.43 418.38,-233.64 399.43,-238.59"/>
<polygon fill="midnightblue" stroke="midnightblue" points="465.19,-225.03 473.98,-219.12 463.42,-218.26 465.19,-225.03"/>
</g>
<!-- Node11 -->
<g id="node11" class="node">
<title>Node11</title>
<g id="a_node11"><a xlink:href="class_drone.html#a5fc9dd645ad3856b5d3c501c63c464e3" target="_top" xlink:title="Metoda animujaca translacje drona i wyrysowujaca calosc w gnuplocie.">
<polygon fill="none" stroke="black" points="292.5,-151.1 292.5,-181.1 431.5,-181.1 431.5,-151.1 292.5,-151.1"/>
<text text-anchor="start" x="300.5" y="-169.1" font-family="Helvetica,sans-Serif" font-size="10.00">Drone::Drone_translation</text>
<text text-anchor="middle" x="362" y="-158.1" font-family="Helvetica,sans-Serif" font-size="10.00">_animation</text>
</a>
</g>
</g>
<!-- Node5&#45;&gt;Node11 -->
<g id="edge12" class="edge">
<title>Node5&#45;&gt;Node11</title>
<path fill="none" stroke="midnightblue" d="M461.27,-188.26C450.85,-185.91 440.14,-183.5 429.79,-181.16"/>
<polygon fill="midnightblue" stroke="midnightblue" points="460.62,-191.7 471.14,-190.49 462.16,-184.88 460.62,-191.7"/>
</g>
<!-- Node9&#45;&gt;Node6 -->
<g id="edge9" class="edge">
<title>Node9&#45;&gt;Node6</title>
<path fill="none" stroke="midnightblue" d="M289.13,-38.8C276.23,-38.56 262.97,-38.32 250.63,-38.1"/>
<polygon fill="midnightblue" stroke="midnightblue" points="289.31,-42.3 299.37,-38.98 289.44,-35.3 289.31,-42.3"/>
</g>
<!-- Node9&#45;&gt;Node8 -->
<g id="edge10" class="edge">
<title>Node9&#45;&gt;Node8</title>
<path fill="none" stroke="midnightblue" d="M297.16,-57.84C281.43,-62.22 264.74,-66.86 249.53,-71.08"/>
<polygon fill="midnightblue" stroke="midnightblue" points="298.11,-61.21 306.81,-55.16 296.24,-54.47 298.11,-61.21"/>
</g>
<!-- Node13 -->
<g id="node13" class="node">
<title>Node13</title>
<g id="a_node13"><a xlink:href="class_scene.html#a5fb0b9741a75dec929b5ea5d6ac917a1" target="_top" xlink:title="Przelot aktywnego drona.">
<polygon fill="none" stroke="black" points="330,-314.6 330,-333.6 394,-333.6 394,-314.6 330,-314.6"/>
<text text-anchor="middle" x="362" y="-321.6" font-family="Helvetica,sans-Serif" font-size="10.00">Scene::fly</text>
</a>
</g>
</g>
<!-- Node12&#45;&gt;Node13 -->
<g id="edge16" class="edge">
<title>Node12&#45;&gt;Node13</title>
<path fill="none" stroke="midnightblue" d="M478.99,-297.94C451.12,-304.23 417.82,-311.74 394.07,-317.09"/>
<polygon fill="midnightblue" stroke="midnightblue" points="480,-301.3 488.98,-295.69 478.46,-294.48 480,-301.3"/>
</g>
<!-- Node14 -->
<g id="node14" class="node">
<title>Node14</title>
<g id="a_node14"><a xlink:href="class_menu.html#acd338552222b744cd030e17776cb5d9b" target="_top" xlink:title="Obsluguje wybor menu.">
<polygon fill="none" stroke="black" points="137.5,-314.6 137.5,-333.6 251.5,-333.6 251.5,-314.6 137.5,-314.6"/>
<text text-anchor="middle" x="194.5" y="-321.6" font-family="Helvetica,sans-Serif" font-size="10.00">Menu::switch_menu</text>
</a>
</g>
</g>
<!-- Node13&#45;&gt;Node14 -->
<g id="edge17" class="edge">
<title>Node13&#45;&gt;Node14</title>
<path fill="none" stroke="midnightblue" d="M319.86,-324.1C299.24,-324.1 273.98,-324.1 251.61,-324.1"/>
<polygon fill="midnightblue" stroke="midnightblue" points="319.87,-327.6 329.87,-324.1 319.87,-320.6 319.87,-327.6"/>
</g>
<!-- Node15 -->
<g id="node15" class="node">
<title>Node15</title>
<g id="a_node15"><a xlink:href="class_menu.html#af7e6a49bd56499facef9cc98561ea169" target="_top" xlink:title="Inicjuje i obsluguje menu.">
<polygon fill="none" stroke="black" points="0,-314.6 0,-333.6 98,-333.6 98,-314.6 0,-314.6"/>
<text text-anchor="middle" x="49" y="-321.6" font-family="Helvetica,sans-Serif" font-size="10.00">Menu::init_menu</text>
</a>
</g>
</g>
<!-- Node14&#45;&gt;Node15 -->
<g id="edge18" class="edge">
<title>Node14&#45;&gt;Node15</title>
<path fill="none" stroke="midnightblue" d="M127.13,-324.1C117.39,-324.1 107.52,-324.1 98.24,-324.1"/>
<polygon fill="midnightblue" stroke="midnightblue" points="127.2,-327.6 137.2,-324.1 127.2,-320.6 127.2,-327.6"/>
</g>
<!-- Node16&#45;&gt;Node6 -->
<g id="edge20" class="edge">
<title>Node16&#45;&gt;Node6</title>
<path fill="none" stroke="midnightblue" d="M517.88,-98.15C501.54,-72.11 471.47,-31.98 433,-15.1 368.15,13.34 283.97,-6.03 235.22,-22.03"/>
<polygon fill="midnightblue" stroke="midnightblue" points="514.9,-99.98 523.08,-106.71 520.88,-96.34 514.9,-99.98"/>
</g>
<!-- Node16&#45;&gt;Node7 -->
<g id="edge21" class="edge">
<title>Node16&#45;&gt;Node7</title>
<path fill="none" stroke="midnightblue" d="M458.5,-122.1C447.22,-122.1 435.67,-122.1 424.67,-122.1"/>
<polygon fill="midnightblue" stroke="midnightblue" points="458.76,-125.6 468.76,-122.1 458.76,-118.6 458.76,-125.6"/>
</g>
<!-- Node16&#45;&gt;Node8 -->
<g id="edge22" class="edge">
<title>Node16&#45;&gt;Node8</title>
<path fill="none" stroke="midnightblue" d="M458.78,-107.06C450.12,-105.57 441.38,-104.21 433,-103.1 372.75,-95.16 303.39,-90.74 255.24,-88.41"/>
<polygon fill="midnightblue" stroke="midnightblue" points="458.43,-110.56 468.89,-108.87 459.66,-103.67 458.43,-110.56"/>
</g>
<!-- Node16&#45;&gt;Node9 -->
<g id="edge23" class="edge">
<title>Node16&#45;&gt;Node9</title>
<path fill="none" stroke="midnightblue" d="M495.26,-102.07C476.8,-92.1 453.9,-80.08 433,-70.1 422.26,-64.98 410.42,-59.75 399.58,-55.12"/>
<polygon fill="midnightblue" stroke="midnightblue" points="493.75,-105.23 504.2,-106.93 497.09,-99.08 493.75,-105.23"/>
</g>
<!-- Node16&#45;&gt;Node10 -->
<g id="edge24" class="edge">
<title>Node16&#45;&gt;Node10</title>
<path fill="none" stroke="midnightblue" d="M502.78,-143.58C465.64,-171.35 402.56,-218.52 375.71,-238.6"/>
<polygon fill="midnightblue" stroke="midnightblue" points="505.26,-146.09 511.17,-137.3 501.07,-140.49 505.26,-146.09"/>
</g>
<!-- Node16&#45;&gt;Node11 -->
<g id="edge25" class="edge">
<title>Node16&#45;&gt;Node11</title>
<path fill="none" stroke="midnightblue" d="M464.12,-139.7C449.69,-143.46 434.57,-147.41 420.54,-151.08"/>
<polygon fill="midnightblue" stroke="midnightblue" points="465.19,-143.03 473.98,-137.12 463.42,-136.26 465.19,-143.03"/>
</g>
<!-- Node17&#45;&gt;Node4 -->
<g id="edge28" class="edge">
<title>Node17&#45;&gt;Node4</title>
<path fill="none" stroke="midnightblue" d="M669.99,-368.07C648.46,-360.58 620.76,-351.1 596,-343.1 586.18,-339.93 575.44,-336.61 565.68,-333.65"/>
<polygon fill="midnightblue" stroke="midnightblue" points="669.12,-371.48 679.72,-371.47 671.43,-364.87 669.12,-371.48"/>
</g>
<!-- Node17&#45;&gt;Node12 -->
<g id="edge32" class="edge">
<title>Node17&#45;&gt;Node12</title>
<path fill="none" stroke="midnightblue" d="M687.47,-364.97C666.14,-348.04 630.42,-321.63 596,-305.1 588.33,-301.42 579.79,-298.26 571.55,-295.64"/>
<polygon fill="midnightblue" stroke="midnightblue" points="685.44,-367.83 695.42,-371.38 689.83,-362.38 685.44,-367.83"/>
</g>
<!-- Node18 -->
<g id="node18" class="node">
<title>Node18</title>
<g id="a_node18"><a xlink:href="class_circus.html#a5aab1830e67f62f80525d04de23db7da" target="_top" xlink:title="Konstruktor parametryczny klasy Circus. Powstaje ostroslup jak z konstruktora parametrycznego,...">
<polygon fill="none" stroke="black" points="491,-428.6 491,-447.6 574,-447.6 574,-428.6 491,-428.6"/>
<text text-anchor="middle" x="532.5" y="-435.6" font-family="Helvetica,sans-Serif" font-size="10.00">Circus::Circus</text>
</a>
</g>
</g>
<!-- Node17&#45;&gt;Node18 -->
<g id="edge27" class="edge">
<title>Node17&#45;&gt;Node18</title>
<path fill="none" stroke="midnightblue" d="M669.99,-394.13C648.46,-401.62 620.76,-411.1 596,-419.1 586.18,-422.27 575.44,-425.59 565.68,-428.55"/>
<polygon fill="midnightblue" stroke="midnightblue" points="671.43,-397.34 679.72,-390.74 669.12,-390.73 671.43,-397.34"/>
</g>
<!-- Node19 -->
<g id="node19" class="node">
<title>Node19</title>
<g id="a_node19"><a xlink:href="class_prism.html#aa84930a585c7817f74a14d95ea74cb5a" target="_top" xlink:title="Konstruktor bezparametryczny klasy Prism. Powstaly granistoslup ma podstawy &quot;tworzace&quot;:">
<polygon fill="none" stroke="black" points="493.5,-390.6 493.5,-409.6 571.5,-409.6 571.5,-390.6 493.5,-390.6"/>
<text text-anchor="middle" x="532.5" y="-397.6" font-family="Helvetica,sans-Serif" font-size="10.00">Prism::Prism</text>
</a>
</g>
</g>
<!-- Node17&#45;&gt;Node19 -->
<g id="edge29" class="edge">
<title>Node17&#45;&gt;Node19</title>
<path fill="none" stroke="midnightblue" d="M650.88,-387.25C624.93,-390.09 594.79,-393.39 571.55,-395.93"/>
<polygon fill="midnightblue" stroke="midnightblue" points="651.4,-390.71 660.96,-386.14 650.64,-383.75 651.4,-390.71"/>
</g>
<!-- Node20 -->
<g id="node20" class="node">
<title>Node20</title>
<g id="a_node20"><a xlink:href="class_drone.html#a77142062fb8a8af87df42b5c2e7e44e0" target="_top" xlink:title="Metoda skalujaca wszystkie elementy drona przez skale kazdego elementu">
<polygon fill="none" stroke="black" points="483.5,-352.6 483.5,-371.6 581.5,-371.6 581.5,-352.6 483.5,-352.6"/>
<text text-anchor="middle" x="532.5" y="-359.6" font-family="Helvetica,sans-Serif" font-size="10.00">Drone::scale_dro</text>
</a>
</g>
</g>
<!-- Node17&#45;&gt;Node20 -->
<g id="edge30" class="edge">
<title>Node17&#45;&gt;Node20</title>
<path fill="none" stroke="midnightblue" d="M650.93,-374.96C628.56,-372.51 603.08,-369.72 581.57,-367.37"/>
<polygon fill="midnightblue" stroke="midnightblue" points="650.64,-378.45 660.96,-376.06 651.4,-371.49 650.64,-378.45"/>
</g>
<!-- Node22 -->
<g id="node22" class="node">
<title>Node22</title>
<g id="a_node22"><a xlink:href="class_tent.html#a6831febfd74474f567f4419091883512" target="_top" xlink:title="Konstruktor parametryczny klasy Tent. Powstaje ostroslup jak z konstruktora parametrycznego,...">
<polygon fill="none" stroke="black" points="501,-504.6 501,-523.6 564,-523.6 564,-504.6 501,-504.6"/>
<text text-anchor="middle" x="532.5" y="-511.6" font-family="Helvetica,sans-Serif" font-size="10.00">Tent::Tent</text>
</a>
</g>
</g>
<!-- Node17&#45;&gt;Node22 -->
<g id="edge33" class="edge">
<title>Node17&#45;&gt;Node22</title>
<path fill="none" stroke="midnightblue" d="M694.38,-398.85C675.68,-423.89 638.24,-469.38 596,-495.1 586.31,-501 574.66,-505.19 564.05,-508.1"/>
<polygon fill="midnightblue" stroke="midnightblue" points="697.32,-400.77 700.4,-390.63 691.67,-396.63 697.32,-400.77"/>
</g>
<!-- Node23 -->
<g id="node23" class="node">
<title>Node23</title>
<g id="a_node23"><a xlink:href="class_volcano.html#a1324b87f13755c4b12b54485352c5b8d" target="_top" xlink:title="Konstruktor parametryczny klasy Volcano. Powstaje ostroslup jak z konstruktora parametrycznego,...">
<polygon fill="none" stroke="black" points="483,-466.6 483,-485.6 582,-485.6 582,-466.6 483,-466.6"/>
<text text-anchor="middle" x="532.5" y="-473.6" font-family="Helvetica,sans-Serif" font-size="10.00">Volcano::Volcano</text>
</a>
</g>
</g>
<!-- Node17&#45;&gt;Node23 -->
<g id="edge34" class="edge">
<title>Node17&#45;&gt;Node23</title>
<path fill="none" stroke="midnightblue" d="M687.47,-397.23C666.14,-414.16 630.42,-440.57 596,-457.1 588.33,-460.78 579.79,-463.94 571.55,-466.56"/>
<polygon fill="midnightblue" stroke="midnightblue" points="689.83,-399.82 695.42,-390.82 685.44,-394.37 689.83,-399.82"/>
</g>
<!-- Node21 -->
<g id="node21" class="node">
<title>Node21</title>
<g id="a_node21"><a xlink:href="class_scene.html#adca9214dccab3d77eed9d8af7db67f94" target="_top" xlink:title="Konstruktor paramereyczny klasy Scene.">
<polygon fill="none" stroke="black" points="321.5,-352.6 321.5,-371.6 402.5,-371.6 402.5,-352.6 321.5,-352.6"/>
<text text-anchor="middle" x="362" y="-359.6" font-family="Helvetica,sans-Serif" font-size="10.00">Scene::Scene</text>
</a>
</g>
</g>
<!-- Node20&#45;&gt;Node21 -->
<g id="edge31" class="edge">
<title>Node20&#45;&gt;Node21</title>
<path fill="none" stroke="midnightblue" d="M473.12,-362.1C449.89,-362.1 423.75,-362.1 402.77,-362.1"/>
<polygon fill="midnightblue" stroke="midnightblue" points="473.21,-365.6 483.21,-362.1 473.21,-358.6 473.21,-365.6"/>
</g>
</g>
</svg>
