<?xml version="1.0" encoding="UTF-8" standalone="no"?>
<!DOCTYPE svg PUBLIC "-//W3C//DTD SVG 1.1//EN"
 "http://www.w3.org/Graphics/SVG/1.1/DTD/svg11.dtd">
<!-- Generated by graphviz version 2.43.0 (0)
 -->
<!-- Title: Menu::switch_menu Pages: 1 -->
<svg width="872pt" height="576pt"
 viewBox="0.00 0.00 872.00 576.00" xmlns="http://www.w3.org/2000/svg" xmlns:xlink="http://www.w3.org/1999/xlink">
<g id="graph0" class="graph" transform="scale(1 1) rotate(0) translate(4 572)">
<title>Menu::switch_menu</title>
<!-- Node1 -->
<g id="node1" class="node">
<title>Node1</title>
<g id="a_node1"><a xlink:title="Obsluguje wybor menu.">
<polygon fill="#bfbfbf" stroke="black" points="0,-233 0,-252 114,-252 114,-233 0,-233"/>
<text text-anchor="middle" x="57" y="-240" font-family="Helvetica,sans-Serif" font-size="10.00">Menu::switch_menu</text>
</a>
</g>
</g>
<!-- Node2 -->
<g id="node2" class="node">
<title>Node2</title>
<g id="a_node2"><a xlink:href="class_scene.html#a8b87eec51d554a3ac01767a613871661" target="_top" xlink:title="Metoda dodajaca object zadany przez uzytkownika.">
<polygon fill="none" stroke="black" points="169,-450 169,-469 274,-469 274,-450 169,-450"/>
<text text-anchor="middle" x="221.5" y="-457" font-family="Helvetica,sans-Serif" font-size="10.00">Scene::add_object</text>
</a>
</g>
</g>
<!-- Node1&#45;&gt;Node2 -->
<g id="edge1" class="edge">
<title>Node1&#45;&gt;Node2</title>
<path fill="none" stroke="midnightblue" d="M60.05,-252.31C66.99,-283.23 92.5,-379.7 150,-432.5 155.97,-437.99 163.18,-442.4 170.67,-445.93"/>
<polygon fill="midnightblue" stroke="midnightblue" points="169.67,-449.31 180.24,-449.96 172.38,-442.85 169.67,-449.31"/>
</g>
<!-- Node9 -->
<g id="node9" class="node">
<title>Node9</title>
<g id="a_node9"><a xlink:href="class_scene.html#a87ef7448b3e6e883460ba41ef590f24f" target="_top" xlink:title="Metoda pozwalajaca na wybor aktywnego drona.">
<polygon fill="none" stroke="black" points="162,-404 162,-423 281,-423 281,-404 162,-404"/>
<text text-anchor="middle" x="221.5" y="-411" font-family="Helvetica,sans-Serif" font-size="10.00">Scene::choose_drone</text>
</a>
</g>
</g>
<!-- Node1&#45;&gt;Node9 -->
<g id="edge8" class="edge">
<title>Node1&#45;&gt;Node9</title>
<path fill="none" stroke="midnightblue" d="M60.95,-252.07C69.76,-278.96 98.48,-355.75 150,-394.5 152.5,-396.38 155.18,-398.08 157.97,-399.61"/>
<polygon fill="midnightblue" stroke="midnightblue" points="156.68,-402.87 167.22,-403.94 159.65,-396.53 156.68,-402.87"/>
</g>
<!-- Node10 -->
<g id="node10" class="node">
<title>Node10</title>
<g id="a_node10"><a xlink:href="class_scene.html#aa86f467ff8da149dac89813f90b1ee18" target="_top" xlink:title="Metoda usuwajaca object zadany przez uzytkownika.">
<polygon fill="none" stroke="black" points="162.5,-366 162.5,-385 280.5,-385 280.5,-366 162.5,-366"/>
<text text-anchor="middle" x="221.5" y="-373" font-family="Helvetica,sans-Serif" font-size="10.00">Scene::delete_object</text>
</a>
</g>
</g>
<!-- Node1&#45;&gt;Node10 -->
<g id="edge9" class="edge">
<title>Node1&#45;&gt;Node10</title>
<path fill="none" stroke="midnightblue" d="M62.98,-252.16C74.88,-274.23 107.17,-328.59 150,-356.5 153.16,-358.56 156.54,-360.4 160.04,-362.03"/>
<polygon fill="midnightblue" stroke="midnightblue" points="158.95,-365.37 169.53,-365.93 161.61,-358.9 158.95,-365.37"/>
</g>
<!-- Node13 -->
<g id="node13" class="node">
<title>Node13</title>
<g id="a_node13"><a xlink:href="class_scene.html#a5fb0b9741a75dec929b5ea5d6ac917a1" target="_top" xlink:title="Przelot aktywnego drona.">
<polygon fill="none" stroke="black" points="189.5,-328 189.5,-347 253.5,-347 253.5,-328 189.5,-328"/>
<text text-anchor="middle" x="221.5" y="-335" font-family="Helvetica,sans-Serif" font-size="10.00">Scene::fly</text>
</a>
</g>
</g>
<!-- Node1&#45;&gt;Node13 -->
<g id="edge12" class="edge">
<title>Node1&#45;&gt;Node13</title>
<path fill="none" stroke="midnightblue" d="M66.95,-252.21C82.36,-268.36 115.58,-300.72 150,-318.5 159.12,-323.21 169.53,-326.85 179.5,-329.61"/>
<polygon fill="midnightblue" stroke="midnightblue" points="178.7,-333.02 189.25,-332.09 180.42,-326.23 178.7,-333.02"/>
</g>
<!-- Node14 -->
<g id="node14" class="node">
<title>Node14</title>
<g id="a_node14"><a xlink:href="class_scene.html#a2a51a641e755111d4a0574ba721dddc3" target="_top" xlink:title="Przelot aktywnego drona.">
<polygon fill="none" stroke="black" points="159,-290 159,-309 284,-309 284,-290 159,-290"/>
<text text-anchor="middle" x="221.5" y="-297" font-family="Helvetica,sans-Serif" font-size="10.00">Scene::fly_roundabout</text>
</a>
</g>
</g>
<!-- Node1&#45;&gt;Node14 -->
<g id="edge13" class="edge">
<title>Node1&#45;&gt;Node14</title>
<path fill="none" stroke="midnightblue" d="M78.9,-252.04C97.36,-260.24 125.13,-272.05 150,-280.5 156.93,-282.85 164.32,-285.11 171.62,-287.2"/>
<polygon fill="midnightblue" stroke="midnightblue" points="170.87,-290.63 181.44,-289.93 172.75,-283.88 170.87,-290.63"/>
</g>
<!-- Node15 -->
<g id="node15" class="node">
<title>Node15</title>
<g id="a_node15"><a xlink:href="class_scene.html#a22b1902bbd3a21c3fc62251c123a8407" target="_top" xlink:title="Wypisuje polozenie aktywnego drona.">
<polygon fill="none" stroke="black" points="166.5,-252 166.5,-271 276.5,-271 276.5,-252 166.5,-252"/>
<text text-anchor="middle" x="221.5" y="-259" font-family="Helvetica,sans-Serif" font-size="10.00">Scene::print_active</text>
</a>
</g>
</g>
<!-- Node1&#45;&gt;Node15 -->
<g id="edge14" class="edge">
<title>Node1&#45;&gt;Node15</title>
<path fill="none" stroke="midnightblue" d="M114.38,-249.09C127.95,-250.68 142.55,-252.39 156.44,-254.01"/>
<polygon fill="midnightblue" stroke="midnightblue" points="156.07,-257.49 166.41,-255.18 156.89,-250.54 156.07,-257.49"/>
</g>
<!-- Node17 -->
<g id="node17" class="node">
<title>Node17</title>
<g id="a_node17"><a xlink:href="class_scene.html#a9bb896991e516390c4464cdc92352d00" target="_top" xlink:title="Wypisuje polozenia dronow.">
<polygon fill="none" stroke="black" points="159.5,-214 159.5,-233 283.5,-233 283.5,-214 159.5,-214"/>
<text text-anchor="middle" x="221.5" y="-221" font-family="Helvetica,sans-Serif" font-size="10.00">Scene::print_positions</text>
</a>
</g>
</g>
<!-- Node1&#45;&gt;Node17 -->
<g id="edge16" class="edge">
<title>Node1&#45;&gt;Node17</title>
<path fill="none" stroke="midnightblue" d="M114.38,-235.91C125.58,-234.6 137.48,-233.21 149.11,-231.85"/>
<polygon fill="midnightblue" stroke="midnightblue" points="149.7,-235.3 159.23,-230.66 148.89,-228.35 149.7,-235.3"/>
</g>
<!-- Node18 -->
<g id="node18" class="node">
<title>Node18</title>
<g id="a_node18"><a xlink:href="class_pz_g_1_1_lacze_do_g_n_u_plota.html#a065f5b8402737cc62b0ad4f66d028335" target="_top" xlink:title="Generuje polecenie rysowania i przesyła je do gnuplota.">
<polygon fill="none" stroke="black" points="156.5,-164.5 156.5,-194.5 286.5,-194.5 286.5,-164.5 156.5,-164.5"/>
<text text-anchor="start" x="164.5" y="-182.5" font-family="Helvetica,sans-Serif" font-size="10.00">PzG::LaczeDoGNUPlota</text>
<text text-anchor="middle" x="221.5" y="-171.5" font-family="Helvetica,sans-Serif" font-size="10.00">::Rysuj</text>
</a>
</g>
</g>
<!-- Node1&#45;&gt;Node18 -->
<g id="edge18" class="edge">
<title>Node1&#45;&gt;Node18</title>
<path fill="none" stroke="midnightblue" d="M80.18,-232.97C98.74,-225.08 125.96,-213.72 150,-204.5 155.52,-202.38 161.3,-200.23 167.07,-198.12"/>
<polygon fill="midnightblue" stroke="midnightblue" points="168.53,-201.32 176.75,-194.62 166.15,-194.73 168.53,-201.32"/>
</g>
<!-- Node25 -->
<g id="node25" class="node">
<title>Node25</title>
<g id="a_node25"><a xlink:href="class_scene.html#a841b39b0c07de89cf6b2a6fe059e5b2d" target="_top" xlink:title="Wyswietla aktywne elementy sceny wyboru obiektu.">
<polygon fill="none" stroke="black" points="157.5,-126 157.5,-145 285.5,-145 285.5,-126 157.5,-126"/>
<text text-anchor="middle" x="221.5" y="-133" font-family="Helvetica,sans-Serif" font-size="10.00">Scene::show_elements</text>
</a>
</g>
</g>
<!-- Node1&#45;&gt;Node25 -->
<g id="edge25" class="edge">
<title>Node1&#45;&gt;Node25</title>
<path fill="none" stroke="midnightblue" d="M65.5,-232.82C79.9,-214.87 113.31,-176.36 150,-155.5 154.7,-152.83 159.78,-150.49 164.99,-148.45"/>
<polygon fill="midnightblue" stroke="midnightblue" points="166.19,-151.74 174.45,-145.1 163.85,-145.14 166.19,-151.74"/>
</g>
<!-- Node26 -->
<g id="node26" class="node">
<title>Node26</title>
<g id="a_node26"><a xlink:href="class_menu.html#ad19260a43743fc13dbb67e71c97f3ccd" target="_top" xlink:title="Wyswietla menu.">
<polygon fill="none" stroke="black" points="167.5,-88 167.5,-107 275.5,-107 275.5,-88 167.5,-88"/>
<text text-anchor="middle" x="221.5" y="-95" font-family="Helvetica,sans-Serif" font-size="10.00">Menu::show_menu</text>
</a>
</g>
</g>
<!-- Node1&#45;&gt;Node26 -->
<g id="edge26" class="edge">
<title>Node1&#45;&gt;Node26</title>
<path fill="none" stroke="midnightblue" d="M62.21,-232.89C73.07,-209.22 104.45,-147.78 150,-116.5 152.91,-114.5 156.02,-112.71 159.25,-111.11"/>
<polygon fill="midnightblue" stroke="midnightblue" points="160.82,-114.25 168.63,-107.08 158.06,-107.82 160.82,-114.25"/>
</g>
<!-- Node27 -->
<g id="node27" class="node">
<title>Node27</title>
<g id="a_node27"><a xlink:href="class_menu.html#a022cc02d478e530e552a31198e96f4c6" target="_top" xlink:title="Wyswietla menu wyboru obiektu.">
<polygon fill="none" stroke="black" points="150,-50 150,-69 293,-69 293,-50 150,-50"/>
<text text-anchor="middle" x="221.5" y="-57" font-family="Helvetica,sans-Serif" font-size="10.00">Menu::show_object_menu</text>
</a>
</g>
</g>
<!-- Node1&#45;&gt;Node27 -->
<g id="edge27" class="edge">
<title>Node1&#45;&gt;Node27</title>
<path fill="none" stroke="midnightblue" d="M60.6,-232.6C68.65,-203.99 95.9,-120.61 150,-78.5 152.34,-76.68 154.85,-75.03 157.47,-73.53"/>
<polygon fill="midnightblue" stroke="midnightblue" points="159.26,-76.56 166.73,-69.05 156.21,-70.26 159.26,-76.56"/>
</g>
<!-- Node28 -->
<g id="node28" class="node">
<title>Node28</title>
<g id="a_node28"><a xlink:href="class_scene.html#a9bb026530396c432320078ed6c513eab" target="_top" xlink:title="Metoda zmieniajaca pozycje wybranego przez uzytkownika elementu sceny.">
<polygon fill="none" stroke="black" points="162,-0.5 162,-30.5 281,-30.5 281,-0.5 162,-0.5"/>
<text text-anchor="start" x="170" y="-18.5" font-family="Helvetica,sans-Serif" font-size="10.00">Scene::switch_object</text>
<text text-anchor="middle" x="221.5" y="-7.5" font-family="Helvetica,sans-Serif" font-size="10.00">_position</text>
</a>
</g>
</g>
<!-- Node1&#45;&gt;Node28 -->
<g id="edge28" class="edge">
<title>Node1&#45;&gt;Node28</title>
<path fill="none" stroke="midnightblue" d="M59.62,-232.92C65.55,-200.91 88.93,-96.49 150,-40.5 151.71,-38.93 153.53,-37.46 155.42,-36.08"/>
<polygon fill="midnightblue" stroke="midnightblue" points="157.57,-38.86 164.2,-30.59 153.86,-32.93 157.57,-38.86"/>
</g>
<!-- Node3 -->
<g id="node3" class="node">
<title>Node3</title>
<g id="a_node3"><a xlink:href="class_scene.html#a16da566304f4ed4228fa89af25e330e5" target="_top" xlink:title="Metoda dodajaca prostopadloscian, ostroslup lub Triangular do listy objects.">
<polygon fill="none" stroke="black" points="351,-537.5 351,-567.5 483,-567.5 483,-537.5 351,-537.5"/>
<text text-anchor="start" x="359" y="-555.5" font-family="Helvetica,sans-Serif" font-size="10.00">Scene::add_object_type</text>
<text text-anchor="middle" x="417" y="-544.5" font-family="Helvetica,sans-Serif" font-size="10.00">_cuboid</text>
</a>
</g>
</g>
<!-- Node2&#45;&gt;Node3 -->
<g id="edge2" class="edge">
<title>Node2&#45;&gt;Node3</title>
<path fill="none" stroke="midnightblue" d="M234.57,-469.1C253.6,-483.82 292.22,-511.99 329,-528.5 333.41,-530.48 338.03,-532.33 342.73,-534.06"/>
<polygon fill="midnightblue" stroke="midnightblue" points="341.88,-537.47 352.47,-537.43 344.16,-530.85 341.88,-537.47"/>
</g>
<!-- Node4 -->
<g id="node4" class="node">
<title>Node4</title>
<g id="a_node4"><a xlink:href="class_scene.html#a684bec8db49b527c34a567e91259102e" target="_top" xlink:title="Metoda dodajaca obiekt pochodny z Prism do listy objects.">
<polygon fill="none" stroke="black" points="351,-488.5 351,-518.5 483,-518.5 483,-488.5 351,-488.5"/>
<text text-anchor="start" x="359" y="-506.5" font-family="Helvetica,sans-Serif" font-size="10.00">Scene::add_object_type</text>
<text text-anchor="middle" x="417" y="-495.5" font-family="Helvetica,sans-Serif" font-size="10.00">_prism</text>
</a>
</g>
</g>
<!-- Node2&#45;&gt;Node4 -->
<g id="edge3" class="edge">
<title>Node2&#45;&gt;Node4</title>
<path fill="none" stroke="midnightblue" d="M264.49,-469.05C286.86,-474.13 315.06,-480.55 341.05,-486.46"/>
<polygon fill="midnightblue" stroke="midnightblue" points="340.35,-489.89 350.88,-488.69 341.9,-483.06 340.35,-489.89"/>
</g>
<!-- Node5 -->
<g id="node5" class="node">
<title>Node5</title>
<g id="a_node5"><a xlink:href="class_scene.html#a0e6e9771175c23c6ed78a493ed6d8e63" target="_top" xlink:title="Metoda tworzaca nazwy programow, uzywana przy dodawaniu obiektow sceny.">
<polygon fill="none" stroke="black" points="349,-450 349,-469 485,-469 485,-450 349,-450"/>
<text text-anchor="middle" x="417" y="-457" font-family="Helvetica,sans-Serif" font-size="10.00">Scene::create_filenames</text>
</a>
</g>
</g>
<!-- Node2&#45;&gt;Node5 -->
<g id="edge4" class="edge">
<title>Node2&#45;&gt;Node5</title>
<path fill="none" stroke="midnightblue" d="M274.1,-459.5C293.91,-459.5 316.98,-459.5 338.69,-459.5"/>
<polygon fill="midnightblue" stroke="midnightblue" points="338.88,-463 348.88,-459.5 338.88,-456 338.88,-463"/>
</g>
<!-- Node7 -->
<g id="node7" class="node">
<title>Node7</title>
<g id="a_node7"><a xlink:href="class_pz_g_1_1_lacze_do_g_n_u_plota.html#aa815ce8ec16e12fc246cf422e562869e" target="_top" xlink:title="Dodaje nazwę pliku.">
<polygon fill="none" stroke="black" points="352,-400.5 352,-430.5 482,-430.5 482,-400.5 352,-400.5"/>
<text text-anchor="start" x="360" y="-418.5" font-family="Helvetica,sans-Serif" font-size="10.00">PzG::LaczeDoGNUPlota</text>
<text text-anchor="middle" x="417" y="-407.5" font-family="Helvetica,sans-Serif" font-size="10.00">::DodajNazwePliku</text>
</a>
</g>
</g>
<!-- Node2&#45;&gt;Node7 -->
<g id="edge6" class="edge">
<title>Node2&#45;&gt;Node7</title>
<path fill="none" stroke="midnightblue" d="M264.49,-449.95C287.06,-444.82 315.56,-438.34 341.73,-432.39"/>
<polygon fill="midnightblue" stroke="midnightblue" points="342.66,-435.77 351.63,-430.14 341.11,-428.94 342.66,-435.77"/>
</g>
<!-- Node6 -->
<g id="node6" class="node">
<title>Node6</title>
<g id="a_node6"><a xlink:href="class_scene.html#a2724c6aee793b0deb0d58a990ab16832" target="_top" xlink:title="Metoda uzywana w switchu metody create_filenames. Sluzy do tworzenia pliku o odpowiedniej nazwie.">
<polygon fill="none" stroke="black" points="556.5,-444.5 556.5,-474.5 675.5,-474.5 675.5,-444.5 556.5,-444.5"/>
<text text-anchor="start" x="564.5" y="-462.5" font-family="Helvetica,sans-Serif" font-size="10.00">Scene::switch_create</text>
<text text-anchor="middle" x="616" y="-451.5" font-family="Helvetica,sans-Serif" font-size="10.00">_filenames</text>
</a>
</g>
</g>
<!-- Node5&#45;&gt;Node6 -->
<g id="edge5" class="edge">
<title>Node5&#45;&gt;Node6</title>
<path fill="none" stroke="midnightblue" d="M485.25,-459.5C504.89,-459.5 526.39,-459.5 546.14,-459.5"/>
<polygon fill="midnightblue" stroke="midnightblue" points="546.29,-463 556.29,-459.5 546.29,-456 546.29,-463"/>
</g>
<!-- Node8 -->
<g id="node8" class="node">
<title>Node8</title>
<g id="a_node8"><a xlink:href="namespace_pz_g.html#ae1aad0c681853d7e47da4cdfccefc102" target="_top" xlink:title="Funkcja pomocnicza, sprawdza czy plik o podanej nazwie jest na dysku.">
<polygon fill="none" stroke="black" points="568.5,-406 568.5,-425 663.5,-425 663.5,-406 568.5,-406"/>
<text text-anchor="middle" x="616" y="-413" font-family="Helvetica,sans-Serif" font-size="10.00">PzG::CzyJestPlik</text>
</a>
</g>
</g>
<!-- Node7&#45;&gt;Node8 -->
<g id="edge7" class="edge">
<title>Node7&#45;&gt;Node8</title>
<path fill="none" stroke="midnightblue" d="M482.23,-415.5C506.68,-415.5 534.36,-415.5 558.08,-415.5"/>
<polygon fill="midnightblue" stroke="midnightblue" points="558.33,-419 568.33,-415.5 558.33,-412 558.33,-419"/>
</g>
<!-- Node11 -->
<g id="node11" class="node">
<title>Node11</title>
<g id="a_node11"><a xlink:href="class_pz_g_1_1_lacze_do_g_n_u_plota.html#a7fa4e775e1aee74869fae174c567c2a6" target="_top" xlink:title="Usuwa z listy nazw plików z danymi do rysowania usuwa wybraną nazwę.">
<polygon fill="none" stroke="black" points="352,-351.5 352,-381.5 482,-381.5 482,-351.5 352,-351.5"/>
<text text-anchor="start" x="360" y="-369.5" font-family="Helvetica,sans-Serif" font-size="10.00">PzG::LaczeDoGNUPlota</text>
<text text-anchor="middle" x="417" y="-358.5" font-family="Helvetica,sans-Serif" font-size="10.00">::UsunNazwePliku</text>
</a>
</g>
</g>
<!-- Node10&#45;&gt;Node11 -->
<g id="edge10" class="edge">
<title>Node10&#45;&gt;Node11</title>
<path fill="none" stroke="midnightblue" d="M280.56,-372.8C299.79,-371.9 321.47,-370.9 341.76,-369.95"/>
<polygon fill="midnightblue" stroke="midnightblue" points="342.07,-373.44 351.9,-369.48 341.75,-366.45 342.07,-373.44"/>
</g>
<!-- Node12 -->
<g id="node12" class="node">
<title>Node12</title>
<g id="a_node12"><a xlink:href="class_pz_g_1_1_info_pliku_do_rysowania.html#a714aaa4c8e7bbd167ccbb1e797ca158c" target="_top" xlink:title="Udostępia nazwę pliku do rysowania.">
<polygon fill="none" stroke="black" points="541,-351.5 541,-381.5 691,-381.5 691,-351.5 541,-351.5"/>
<text text-anchor="start" x="549" y="-369.5" font-family="Helvetica,sans-Serif" font-size="10.00">PzG::InfoPlikuDoRysowania</text>
<text text-anchor="middle" x="616" y="-358.5" font-family="Helvetica,sans-Serif" font-size="10.00">::WezNazwePliku</text>
</a>
</g>
</g>
<!-- Node11&#45;&gt;Node12 -->
<g id="edge11" class="edge">
<title>Node11&#45;&gt;Node12</title>
<path fill="none" stroke="midnightblue" d="M482.23,-366.5C497.76,-366.5 514.59,-366.5 530.88,-366.5"/>
<polygon fill="midnightblue" stroke="midnightblue" points="530.93,-370 540.93,-366.5 530.93,-363 530.93,-370"/>
</g>
<!-- Node16 -->
<g id="node16" class="node">
<title>Node16</title>
<g id="a_node16"><a xlink:href="class_drone.html#a79011bebcf8fad3734f9710fa7c16df4" target="_top" xlink:title="Metoda wypisuje na standardowym wyjsciu pozycje drona (bez wysokosci)">
<polygon fill="none" stroke="black" points="352,-233 352,-252 482,-252 482,-233 352,-233"/>
<text text-anchor="middle" x="417" y="-240" font-family="Helvetica,sans-Serif" font-size="10.00">Drone::print_drone_pos</text>
</a>
</g>
</g>
<!-- Node15&#45;&gt;Node16 -->
<g id="edge15" class="edge">
<title>Node15&#45;&gt;Node16</title>
<path fill="none" stroke="midnightblue" d="M276.66,-256.18C296.83,-254.2 320.09,-251.92 341.75,-249.79"/>
<polygon fill="midnightblue" stroke="midnightblue" points="342.3,-253.25 351.91,-248.79 341.61,-246.29 342.3,-253.25"/>
</g>
<!-- Node17&#45;&gt;Node16 -->
<g id="edge17" class="edge">
<title>Node17&#45;&gt;Node16</title>
<path fill="none" stroke="midnightblue" d="M283.72,-229.51C302.12,-231.32 322.51,-233.32 341.65,-235.2"/>
<polygon fill="midnightblue" stroke="midnightblue" points="341.54,-238.71 351.84,-236.2 342.23,-231.74 341.54,-238.71"/>
</g>
<!-- Node19 -->
<g id="node19" class="node">
<title>Node19</title>
<g id="a_node19"><a xlink:href="namespace_pz_g.html#aa010184f31b26bb561b42f22438b821e" target="_top" xlink:title="Funkcja pomocnicza, dopisuje do polecenia wpisy związane z rysowaniem z pliku.">
<polygon fill="none" stroke="black" points="334,-192 334,-211 500,-211 500,-192 334,-192"/>
<text text-anchor="middle" x="417" y="-199" font-family="Helvetica,sans-Serif" font-size="10.00">PzG::DopiszRysowanieZPlikow</text>
</a>
</g>
</g>
<!-- Node18&#45;&gt;Node19 -->
<g id="edge19" class="edge">
<title>Node18&#45;&gt;Node19</title>
<path fill="none" stroke="midnightblue" d="M286.66,-186.8C298.56,-188.15 311.19,-189.58 323.73,-191.01"/>
<polygon fill="midnightblue" stroke="midnightblue" points="323.41,-194.5 333.74,-192.15 324.2,-187.54 323.41,-194.5"/>
</g>
<!-- Node20 -->
<g id="node20" class="node">
<title>Node20</title>
<g id="a_node20"><a xlink:href="namespace_pz_g.html#a7227cb39c785b1c746b6bb5515c0b781" target="_top" xlink:title="Dodaje do listy rysowanych punktów, punkty o różnych rozmiarach.">
<polygon fill="none" stroke="black" points="329,-142.5 329,-172.5 505,-172.5 505,-142.5 329,-142.5"/>
<text text-anchor="start" x="337" y="-160.5" font-family="Helvetica,sans-Serif" font-size="10.00">PzG::DopiszRysowanieZRoznych</text>
<text text-anchor="middle" x="417" y="-149.5" font-family="Helvetica,sans-Serif" font-size="10.00">Punktow</text>
</a>
</g>
</g>
<!-- Node18&#45;&gt;Node20 -->
<g id="edge20" class="edge">
<title>Node18&#45;&gt;Node20</title>
<path fill="none" stroke="midnightblue" d="M286.66,-172.2C297.02,-171.03 307.95,-169.78 318.88,-168.54"/>
<polygon fill="midnightblue" stroke="midnightblue" points="319.36,-172.01 328.9,-167.4 318.57,-165.05 319.36,-172.01"/>
</g>
<!-- Node21 -->
<g id="node21" class="node">
<title>Node21</title>
<g id="a_node21"><a xlink:href="namespace_pz_g.html#a169c311f0e0b6ffadcd44e91e749f72d" target="_top" xlink:title="Wczytuje z pliku listę punktów.">
<polygon fill="none" stroke="black" points="543.5,-142.5 543.5,-172.5 688.5,-172.5 688.5,-142.5 543.5,-142.5"/>
<text text-anchor="start" x="551.5" y="-160.5" font-family="Helvetica,sans-Serif" font-size="10.00">PzG::WczytajListeRoznych</text>
<text text-anchor="middle" x="616" y="-149.5" font-family="Helvetica,sans-Serif" font-size="10.00">Punktow</text>
</a>
</g>
</g>
<!-- Node20&#45;&gt;Node21 -->
<g id="edge21" class="edge">
<title>Node20&#45;&gt;Node21</title>
<path fill="none" stroke="midnightblue" d="M505.27,-157.5C514.54,-157.5 523.95,-157.5 533.15,-157.5"/>
<polygon fill="midnightblue" stroke="midnightblue" points="533.45,-161 543.45,-157.5 533.45,-154 533.45,-161"/>
</g>
<!-- Node22 -->
<g id="node22" class="node">
<title>Node22</title>
<g id="a_node22"><a xlink:href="class_pz_g_1_1_atrybuty_rysowania.html#ab068535b4d2f755c394557d1da72a4eb" target="_top" xlink:title="Zmienia kolor rysowania.">
<polygon fill="none" stroke="black" points="727,-191.5 727,-221.5 864,-221.5 864,-191.5 727,-191.5"/>
<text text-anchor="start" x="735" y="-209.5" font-family="Helvetica,sans-Serif" font-size="10.00">PzG::AtrybutyRysowania</text>
<text text-anchor="middle" x="795.5" y="-198.5" font-family="Helvetica,sans-Serif" font-size="10.00">::ZmienKolor</text>
</a>
</g>
</g>
<!-- Node21&#45;&gt;Node22 -->
<g id="edge22" class="edge">
<title>Node21&#45;&gt;Node22</title>
<path fill="none" stroke="midnightblue" d="M671.7,-172.6C690.18,-177.7 710.98,-183.44 730.13,-188.73"/>
<polygon fill="midnightblue" stroke="midnightblue" points="729.41,-192.16 739.98,-191.45 731.27,-185.41 729.41,-192.16"/>
</g>
<!-- Node23 -->
<g id="node23" class="node">
<title>Node23</title>
<g id="a_node23"><a xlink:href="class_pz_g_1_1_atrybuty_rysowania.html#af4b140eb03bc10b6fd816fad63f8372e" target="_top" xlink:title="Zmienia rozmiar rysowania.">
<polygon fill="none" stroke="black" points="727,-142.5 727,-172.5 864,-172.5 864,-142.5 727,-142.5"/>
<text text-anchor="start" x="735" y="-160.5" font-family="Helvetica,sans-Serif" font-size="10.00">PzG::AtrybutyRysowania</text>
<text text-anchor="middle" x="795.5" y="-149.5" font-family="Helvetica,sans-Serif" font-size="10.00">::ZmienRozmiar</text>
</a>
</g>
</g>
<!-- Node21&#45;&gt;Node23 -->
<g id="edge23" class="edge">
<title>Node21&#45;&gt;Node23</title>
<path fill="none" stroke="midnightblue" d="M688.68,-157.5C697.94,-157.5 707.45,-157.5 716.8,-157.5"/>
<polygon fill="midnightblue" stroke="midnightblue" points="716.86,-161 726.86,-157.5 716.86,-154 716.86,-161"/>
</g>
<!-- Node24 -->
<g id="node24" class="node">
<title>Node24</title>
<g id="a_node24"><a xlink:href="class_pz_g_1_1_atrybuty_rysowania.html#a2ac97706124b14072715ecf3f07e82b4" target="_top" xlink:title="Zmienia styl rysowania.">
<polygon fill="none" stroke="black" points="727,-93.5 727,-123.5 864,-123.5 864,-93.5 727,-93.5"/>
<text text-anchor="start" x="735" y="-111.5" font-family="Helvetica,sans-Serif" font-size="10.00">PzG::AtrybutyRysowania</text>
<text text-anchor="middle" x="795.5" y="-100.5" font-family="Helvetica,sans-Serif" font-size="10.00">::ZmienStyl</text>
</a>
</g>
</g>
<!-- Node21&#45;&gt;Node24 -->
<g id="edge24" class="edge">
<title>Node21&#45;&gt;Node24</title>
<path fill="none" stroke="midnightblue" d="M671.7,-142.4C690.18,-137.3 710.98,-131.56 730.13,-126.27"/>
<polygon fill="midnightblue" stroke="midnightblue" points="731.27,-129.59 739.98,-123.55 729.41,-122.84 731.27,-129.59"/>
</g>
</g>
</svg>
