<?xml version="1.0" encoding="UTF-8" standalone="no"?>
<!DOCTYPE svg PUBLIC "-//W3C//DTD SVG 1.1//EN"
 "http://www.w3.org/Graphics/SVG/1.1/DTD/svg11.dtd">
<!-- Generated by graphviz version 2.43.0 (0)
 -->
<!-- Title: Cuboid::rotation_around_cen Pages: 1 -->
<svg width="979pt" height="280pt"
 viewBox="0.00 0.00 979.00 279.50" xmlns="http://www.w3.org/2000/svg" xmlns:xlink="http://www.w3.org/1999/xlink">
<g id="graph0" class="graph" transform="scale(1 1) rotate(0) translate(4 275.5)">
<title>Cuboid::rotation_around_cen</title>
<!-- Node1 -->
<g id="node1" class="node">
<title>Node1</title>
<g id="a_node1"><a xlink:title="Metoda obracajaca prostopadloscian o zadany kat w 3D wokol srodka figury">
<polygon fill="#bfbfbf" stroke="black" points="815,-114.5 815,-133.5 971,-133.5 971,-114.5 815,-114.5"/>
<text text-anchor="middle" x="893" y="-121.5" font-family="Helvetica,sans-Serif" font-size="10.00">Cuboid::rotation_around_cen</text>
</a>
</g>
</g>
<!-- Node2 -->
<g id="node2" class="node">
<title>Node2</title>
<g id="a_node2"><a xlink:href="class_drone.html#ad42bc54902df967b94717617aca1a974" target="_top" xlink:title="Metoda obracajaca dron o zadany kat w 3D wokol srodka figury">
<polygon fill="none" stroke="black" points="627,-114.5 627,-133.5 779,-133.5 779,-114.5 627,-114.5"/>
<text text-anchor="middle" x="703" y="-121.5" font-family="Helvetica,sans-Serif" font-size="10.00">Drone::rotation_around_cen</text>
</a>
</g>
</g>
<!-- Node1&#45;&gt;Node2 -->
<g id="edge1" class="edge">
<title>Node1&#45;&gt;Node2</title>
<path fill="none" stroke="midnightblue" d="M804.91,-124C796.28,-124 787.56,-124 779.07,-124"/>
<polygon fill="midnightblue" stroke="midnightblue" points="804.99,-127.5 814.99,-124 804.99,-120.5 804.99,-127.5"/>
</g>
<!-- Node3 -->
<g id="node3" class="node">
<title>Node3</title>
<g id="a_node3"><a xlink:href="class_drone.html#ab692baa4be5c43b72990ce1b01bdc805" target="_top" xlink:title="Konstruktor bezparametryczny klasy Drone. Powstaly dron jest skonstruowany z bezparametrycznych prost...">
<polygon fill="none" stroke="black" points="489.5,-196.5 489.5,-215.5 570.5,-215.5 570.5,-196.5 489.5,-196.5"/>
<text text-anchor="middle" x="530" y="-203.5" font-family="Helvetica,sans-Serif" font-size="10.00">Drone::Drone</text>
</a>
</g>
</g>
<!-- Node2&#45;&gt;Node3 -->
<g id="edge2" class="edge">
<title>Node2&#45;&gt;Node3</title>
<path fill="none" stroke="midnightblue" d="M676.13,-138.47C653.87,-150.69 620.73,-168.33 591,-182 579.89,-187.11 567.36,-192.22 556.64,-196.4"/>
<polygon fill="midnightblue" stroke="midnightblue" points="677.9,-141.49 684.96,-133.59 674.52,-135.36 677.9,-141.49"/>
</g>
<!-- Node4 -->
<g id="node4" class="node">
<title>Node4</title>
<g id="a_node4"><a xlink:href="class_drone.html#af03af60a9b92e4191a7e66b5c20b52bb" target="_top" xlink:title="Metoda zamieniajaca drona na tego z pliku sample.">
<polygon fill="none" stroke="black" points="469,-109 469,-139 591,-139 591,-109 469,-109"/>
<text text-anchor="start" x="477" y="-127" font-family="Helvetica,sans-Serif" font-size="10.00">Drone::Drone_change</text>
<text text-anchor="middle" x="530" y="-116" font-family="Helvetica,sans-Serif" font-size="10.00">_to_sample</text>
</a>
</g>
</g>
<!-- Node2&#45;&gt;Node4 -->
<g id="edge3" class="edge">
<title>Node2&#45;&gt;Node4</title>
<path fill="none" stroke="midnightblue" d="M616.81,-124C608.1,-124 599.4,-124 591.05,-124"/>
<polygon fill="midnightblue" stroke="midnightblue" points="617,-127.5 627,-124 617,-120.5 617,-127.5"/>
</g>
<!-- Node8 -->
<g id="node8" class="node">
<title>Node8</title>
<g id="a_node8"><a xlink:href="class_drone.html#af052f6bb793d1229b99b16b800b95b82" target="_top" xlink:title="Metoda animujaca obrot drona i wyrysowujaca calosc w gnuplocie.">
<polygon fill="none" stroke="black" points="299.5,-241 299.5,-271 424.5,-271 424.5,-241 299.5,-241"/>
<text text-anchor="start" x="307.5" y="-259" font-family="Helvetica,sans-Serif" font-size="10.00">Drone::Drone_rotation</text>
<text text-anchor="middle" x="362" y="-248" font-family="Helvetica,sans-Serif" font-size="10.00">_animation</text>
</a>
</g>
</g>
<!-- Node2&#45;&gt;Node8 -->
<g id="edge12" class="edge">
<title>Node2&#45;&gt;Node8</title>
<path fill="none" stroke="midnightblue" d="M651.55,-135.9C587.77,-151.22 484.4,-177.03 469,-187 447.79,-200.73 453.65,-216.44 433,-231 427.62,-234.79 421.61,-238.07 415.42,-240.88"/>
<polygon fill="midnightblue" stroke="midnightblue" points="652.51,-139.27 661.42,-133.54 650.88,-132.46 652.51,-139.27"/>
</g>
<!-- Node9 -->
<g id="node9" class="node">
<title>Node9</title>
<g id="a_node9"><a xlink:href="class_drone.html#ab7808296cec81143dbddd7516340a371" target="_top" xlink:title="Metoda robiaca &quot;oblot&quot; drona wokol punktu (z modyfikacji)">
<polygon fill="none" stroke="black" points="291,-38.5 291,-57.5 433,-57.5 433,-38.5 291,-38.5"/>
<text text-anchor="middle" x="362" y="-45.5" font-family="Helvetica,sans-Serif" font-size="10.00">Drone::Drone_roundabout</text>
</a>
</g>
</g>
<!-- Node2&#45;&gt;Node9 -->
<g id="edge13" class="edge">
<title>Node2&#45;&gt;Node9</title>
<path fill="none" stroke="midnightblue" d="M649.46,-112.22C582.29,-97.16 467.31,-71.39 405.42,-57.51"/>
<polygon fill="midnightblue" stroke="midnightblue" points="648.89,-115.68 659.41,-114.45 650.42,-108.85 648.89,-115.68"/>
</g>
<!-- Node11 -->
<g id="node11" class="node">
<title>Node11</title>
<g id="a_node11"><a xlink:href="class_scene.html#aa5fc0e5a94bfa0766f6e5ff10993630d" target="_top" xlink:title="Skanowanie powierzchni pod dronem, gdy dron nie moze wyladowac w danym miejscu &#160;&#160;Rysowany jest rownie...">
<polygon fill="none" stroke="black" points="476.5,-16.5 476.5,-35.5 583.5,-35.5 583.5,-16.5 476.5,-16.5"/>
<text text-anchor="middle" x="530" y="-23.5" font-family="Helvetica,sans-Serif" font-size="10.00">Scene::scan_plane</text>
</a>
</g>
</g>
<!-- Node2&#45;&gt;Node11 -->
<g id="edge14" class="edge">
<title>Node2&#45;&gt;Node11</title>
<path fill="none" stroke="midnightblue" d="M681.41,-108.38C659.71,-92.37 624.15,-67.44 591,-50 580.67,-44.57 568.84,-39.59 558.42,-35.59"/>
<polygon fill="midnightblue" stroke="midnightblue" points="679.44,-111.27 689.55,-114.44 683.62,-105.66 679.44,-111.27"/>
</g>
<!-- Node5 -->
<g id="node5" class="node">
<title>Node5</title>
<g id="a_node5"><a xlink:href="class_drone.html#a7eecbd031df9009e113d355a9dcdf4e1" target="_top" xlink:title="Metoda obliczajaca i przeprowadzajaca caly ruch drona (obrot o kat i przelot z zadania 5....">
<polygon fill="none" stroke="black" points="138.5,-101 138.5,-131 250.5,-131 250.5,-101 138.5,-101"/>
<text text-anchor="start" x="146.5" y="-119" font-family="Helvetica,sans-Serif" font-size="10.00">Drone::Drone_basic</text>
<text text-anchor="middle" x="194.5" y="-108" font-family="Helvetica,sans-Serif" font-size="10.00">_motion_flight</text>
</a>
</g>
</g>
<!-- Node4&#45;&gt;Node5 -->
<g id="edge4" class="edge">
<title>Node4&#45;&gt;Node5</title>
<path fill="none" stroke="midnightblue" d="M458.85,-112.57C450.16,-111.51 441.39,-110.61 433,-110 370.68,-105.48 298.94,-108.41 250.76,-111.56"/>
<polygon fill="midnightblue" stroke="midnightblue" points="458.61,-116.07 468.97,-113.88 459.51,-109.13 458.61,-116.07"/>
</g>
<!-- Node6 -->
<g id="node6" class="node">
<title>Node6</title>
<g id="a_node6"><a xlink:href="class_drone.html#a4abbed4a4cc52e5630f07f9129b46c5c" target="_top" xlink:title="Metoda realizujaca ladowanie drona.">
<polygon fill="none" stroke="black" points="299.5,-202.5 299.5,-221.5 424.5,-221.5 424.5,-202.5 299.5,-202.5"/>
<text text-anchor="middle" x="362" y="-209.5" font-family="Helvetica,sans-Serif" font-size="10.00">Drone::Drone_descent</text>
</a>
</g>
</g>
<!-- Node4&#45;&gt;Node6 -->
<g id="edge5" class="edge">
<title>Node4&#45;&gt;Node6</title>
<path fill="none" stroke="midnightblue" d="M484.41,-143.99C479.04,-147.06 473.77,-150.41 469,-154 450.14,-168.17 453.17,-180.77 433,-193 426.65,-196.85 419.51,-199.94 412.27,-202.41"/>
<polygon fill="midnightblue" stroke="midnightblue" points="486.33,-146.93 493.48,-139.1 483.01,-140.77 486.33,-146.93"/>
</g>
<!-- Node7 -->
<g id="node7" class="node">
<title>Node7</title>
<g id="a_node7"><a xlink:href="class_drone.html#aec9abadf85777ab20e361d1389aab466" target="_top" xlink:title="Metoda obliczajaca i przeprowadzajaca koncowy ruch drona (obrot o kat i koncowy przelot z zadania 5....">
<polygon fill="none" stroke="black" points="134,-210 134,-240 255,-240 255,-210 134,-210"/>
<text text-anchor="start" x="142" y="-228" font-family="Helvetica,sans-Serif" font-size="10.00">Drone::Drone_motion</text>
<text text-anchor="middle" x="194.5" y="-217" font-family="Helvetica,sans-Serif" font-size="10.00">_after_update</text>
</a>
</g>
</g>
<!-- Node4&#45;&gt;Node7 -->
<g id="edge6" class="edge">
<title>Node4&#45;&gt;Node7</title>
<path fill="none" stroke="midnightblue" d="M458.77,-118.86C409.92,-117.89 344.27,-121.88 291,-144 256.06,-158.51 224.5,-190.71 207.86,-209.86"/>
<polygon fill="midnightblue" stroke="midnightblue" points="458.83,-122.37 468.93,-119.14 459.03,-115.37 458.83,-122.37"/>
</g>
<!-- Node4&#45;&gt;Node8 -->
<g id="edge7" class="edge">
<title>Node4&#45;&gt;Node8</title>
<path fill="none" stroke="midnightblue" d="M480.52,-144.47C476.35,-147.31 472.43,-150.48 469,-154 442.64,-181.06 460.94,-205.58 433,-231 428.8,-234.82 423.98,-238.07 418.87,-240.82"/>
<polygon fill="midnightblue" stroke="midnightblue" points="482.62,-147.28 489.32,-139.08 478.97,-141.31 482.62,-147.28"/>
</g>
<!-- Node4&#45;&gt;Node9 -->
<g id="edge10" class="edge">
<title>Node4&#45;&gt;Node9</title>
<path fill="none" stroke="midnightblue" d="M494.93,-103.75C476.89,-93.49 454.14,-81.27 433,-72 420.65,-66.58 406.65,-61.57 394.44,-57.54"/>
<polygon fill="midnightblue" stroke="midnightblue" points="493.49,-106.96 503.91,-108.91 496.98,-100.89 493.49,-106.96"/>
</g>
<!-- Node10 -->
<g id="node10" class="node">
<title>Node10</title>
<g id="a_node10"><a xlink:href="class_drone.html#a5fc9dd645ad3856b5d3c501c63c464e3" target="_top" xlink:title="Metoda animujaca translacje drona i wyrysowujaca calosc w gnuplocie.">
<polygon fill="none" stroke="black" points="292.5,-153 292.5,-183 431.5,-183 431.5,-153 292.5,-153"/>
<text text-anchor="start" x="300.5" y="-171" font-family="Helvetica,sans-Serif" font-size="10.00">Drone::Drone_translation</text>
<text text-anchor="middle" x="362" y="-160" font-family="Helvetica,sans-Serif" font-size="10.00">_animation</text>
</a>
</g>
</g>
<!-- Node4&#45;&gt;Node10 -->
<g id="edge11" class="edge">
<title>Node4&#45;&gt;Node10</title>
<path fill="none" stroke="midnightblue" d="M462.62,-141.59C448.4,-145.36 433.5,-149.31 419.69,-152.97"/>
<polygon fill="midnightblue" stroke="midnightblue" points="463.57,-144.96 472.34,-139.02 461.77,-138.2 463.57,-144.96"/>
</g>
<!-- Node8&#45;&gt;Node5 -->
<g id="edge8" class="edge">
<title>Node8&#45;&gt;Node5</title>
<path fill="none" stroke="midnightblue" d="M299.5,-236.28C296.55,-234.64 293.7,-232.89 291,-231 251.66,-203.48 219.3,-155.68 204.38,-131.28"/>
<polygon fill="midnightblue" stroke="midnightblue" points="298.09,-239.49 308.6,-240.84 301.23,-233.23 298.09,-239.49"/>
</g>
<!-- Node8&#45;&gt;Node7 -->
<g id="edge9" class="edge">
<title>Node8&#45;&gt;Node7</title>
<path fill="none" stroke="midnightblue" d="M289.45,-242.6C278.04,-240.46 266.35,-238.27 255.25,-236.19"/>
<polygon fill="midnightblue" stroke="midnightblue" points="288.9,-246.06 299.37,-244.46 290.19,-239.18 288.9,-246.06"/>
</g>
<!-- Node12 -->
<g id="node12" class="node">
<title>Node12</title>
<g id="a_node12"><a xlink:href="class_scene.html#a5fb0b9741a75dec929b5ea5d6ac917a1" target="_top" xlink:title="Przelot aktywnego drona.">
<polygon fill="none" stroke="black" points="330,-0.5 330,-19.5 394,-19.5 394,-0.5 330,-0.5"/>
<text text-anchor="middle" x="362" y="-7.5" font-family="Helvetica,sans-Serif" font-size="10.00">Scene::fly</text>
</a>
</g>
</g>
<!-- Node11&#45;&gt;Node12 -->
<g id="edge15" class="edge">
<title>Node11&#45;&gt;Node12</title>
<path fill="none" stroke="midnightblue" d="M466.48,-19.97C441.89,-17.6 414.74,-14.99 394.42,-13.03"/>
<polygon fill="midnightblue" stroke="midnightblue" points="466.19,-23.46 476.48,-20.94 466.86,-16.49 466.19,-23.46"/>
</g>
<!-- Node13 -->
<g id="node13" class="node">
<title>Node13</title>
<g id="a_node13"><a xlink:href="class_menu.html#acd338552222b744cd030e17776cb5d9b" target="_top" xlink:title="Obsluguje wybor menu.">
<polygon fill="none" stroke="black" points="137.5,-0.5 137.5,-19.5 251.5,-19.5 251.5,-0.5 137.5,-0.5"/>
<text text-anchor="middle" x="194.5" y="-7.5" font-family="Helvetica,sans-Serif" font-size="10.00">Menu::switch_menu</text>
</a>
</g>
</g>
<!-- Node12&#45;&gt;Node13 -->
<g id="edge16" class="edge">
<title>Node12&#45;&gt;Node13</title>
<path fill="none" stroke="midnightblue" d="M319.86,-10C299.24,-10 273.98,-10 251.61,-10"/>
<polygon fill="midnightblue" stroke="midnightblue" points="319.87,-13.5 329.87,-10 319.87,-6.5 319.87,-13.5"/>
</g>
<!-- Node14 -->
<g id="node14" class="node">
<title>Node14</title>
<g id="a_node14"><a xlink:href="class_menu.html#af7e6a49bd56499facef9cc98561ea169" target="_top" xlink:title="Inicjuje i obsluguje menu.">
<polygon fill="none" stroke="black" points="0,-0.5 0,-19.5 98,-19.5 98,-0.5 0,-0.5"/>
<text text-anchor="middle" x="49" y="-7.5" font-family="Helvetica,sans-Serif" font-size="10.00">Menu::init_menu</text>
</a>
</g>
</g>
<!-- Node13&#45;&gt;Node14 -->
<g id="edge17" class="edge">
<title>Node13&#45;&gt;Node14</title>
<path fill="none" stroke="midnightblue" d="M127.13,-10C117.39,-10 107.52,-10 98.24,-10"/>
<polygon fill="midnightblue" stroke="midnightblue" points="127.2,-13.5 137.2,-10 127.2,-6.5 127.2,-13.5"/>
</g>
</g>
</svg>
