<?xml version="1.0" encoding="UTF-8" standalone="no"?>
<!DOCTYPE svg PUBLIC "-//W3C//DTD SVG 1.1//EN"
 "http://www.w3.org/Graphics/SVG/1.1/DTD/svg11.dtd">
<!-- Generated by graphviz version 2.43.0 (0)
 -->
<!-- Title: Triangular::Triangular Pages: 1 -->
<svg width="421pt" height="39pt"
 viewBox="0.00 0.00 421.00 39.00" xmlns="http://www.w3.org/2000/svg" xmlns:xlink="http://www.w3.org/1999/xlink">
<g id="graph0" class="graph" transform="scale(1 1) rotate(0) translate(4 35)">
<title>Triangular::Triangular</title>
<!-- Node1 -->
<g id="node1" class="node">
<title>Node1</title>
<g id="a_node1"><a xlink:title="Konstruktor bezparametryczny klasy Triangular. Powstaly graniastoslup ma jeden prostokat &quot;tworzacy&quot;: ...">
<polygon fill="#bfbfbf" stroke="black" points="0,-6 0,-25 119,-25 119,-6 0,-6"/>
<text text-anchor="middle" x="59.5" y="-13" font-family="Helvetica,sans-Serif" font-size="10.00">Triangular::Triangular</text>
</a>
</g>
</g>
<!-- Node2 -->
<g id="node2" class="node">
<title>Node2</title>
<g id="a_node2"><a xlink:href="class_triangular.html#a372567a0c98eda392d4860dfab3c56c4" target="_top" xlink:title="Metoda zwracajaca punkty specjalne Triangular : cuts (czyli te ktore sa przecieciami przekatnych dwoc...">
<polygon fill="none" stroke="black" points="155,-0.5 155,-30.5 260,-30.5 260,-0.5 155,-0.5"/>
<text text-anchor="start" x="163" y="-18.5" font-family="Helvetica,sans-Serif" font-size="10.00">Triangular::special</text>
<text text-anchor="middle" x="207.5" y="-7.5" font-family="Helvetica,sans-Serif" font-size="10.00">_points</text>
</a>
</g>
</g>
<!-- Node1&#45;&gt;Node2 -->
<g id="edge1" class="edge">
<title>Node1&#45;&gt;Node2</title>
<path fill="none" stroke="midnightblue" d="M119.04,-15.5C127.39,-15.5 136,-15.5 144.41,-15.5"/>
<polygon fill="midnightblue" stroke="midnightblue" points="144.54,-19 154.54,-15.5 144.54,-12 144.54,-19"/>
</g>
<!-- Node3 -->
<g id="node3" class="node">
<title>Node3</title>
<g id="a_node3"><a xlink:href="class_cuboid.html#aafa18740d9c98ca928395b9873a9c63d" target="_top" xlink:title="Metoda zwracajaca punkt centralny (czyli taki, ktorego odleglosci do kazdego wierzcholka sa rowne) pr...">
<polygon fill="none" stroke="black" points="296,-6 296,-25 413,-25 413,-6 296,-6"/>
<text text-anchor="middle" x="354.5" y="-13" font-family="Helvetica,sans-Serif" font-size="10.00">Cuboid::centre_point</text>
</a>
</g>
</g>
<!-- Node2&#45;&gt;Node3 -->
<g id="edge2" class="edge">
<title>Node2&#45;&gt;Node3</title>
<path fill="none" stroke="midnightblue" d="M260.03,-15.5C268.34,-15.5 277.05,-15.5 285.67,-15.5"/>
<polygon fill="midnightblue" stroke="midnightblue" points="285.72,-19 295.72,-15.5 285.72,-12 285.72,-19"/>
</g>
</g>
</svg>
