<?xml version="1.0" encoding="UTF-8" standalone="no"?>
<!DOCTYPE svg PUBLIC "-//W3C//DTD SVG 1.1//EN"
 "http://www.w3.org/Graphics/SVG/1.1/DTD/svg11.dtd">
<!-- Generated by graphviz version 2.43.0 (0)
 -->
<!-- Title: Circus::Circus Pages: 1 -->
<svg width="580pt" height="218pt"
 viewBox="0.00 0.00 580.00 218.00" xmlns="http://www.w3.org/2000/svg" xmlns:xlink="http://www.w3.org/1999/xlink">
<g id="graph0" class="graph" transform="scale(1 1) rotate(0) translate(4 214)">
<title>Circus::Circus</title>
<!-- Node1 -->
<g id="node1" class="node">
<title>Node1</title>
<g id="a_node1"><a xlink:title="Konstruktor parametryczny klasy Circus. Powstaje ostroslup jak z konstruktora parametrycznego,...">
<polygon fill="#bfbfbf" stroke="black" points="0,-95.5 0,-114.5 83,-114.5 83,-95.5 0,-95.5"/>
<text text-anchor="middle" x="41.5" y="-102.5" font-family="Helvetica,sans-Serif" font-size="10.00">Circus::Circus</text>
</a>
</g>
</g>
<!-- Node2 -->
<g id="node2" class="node">
<title>Node2</title>
<g id="a_node2"><a xlink:href="class_circus.html#aaa613f7735bb421bf375246dd96e7116" target="_top" xlink:title="Konstruktor bezparametryczny klasy Circus. Dolna podstawa jest identyczna jak w bezparametrycznym Pri...">
<polygon fill="none" stroke="black" points="147,-190.5 147,-209.5 230,-209.5 230,-190.5 147,-190.5"/>
<text text-anchor="middle" x="188.5" y="-197.5" font-family="Helvetica,sans-Serif" font-size="10.00">Circus::Circus</text>
</a>
</g>
</g>
<!-- Node1&#45;&gt;Node2 -->
<g id="edge1" class="edge">
<title>Node1&#45;&gt;Node2</title>
<path fill="none" stroke="midnightblue" d="M50.47,-114.6C63.42,-129.64 90.45,-158.79 119,-176 126.06,-180.26 133.98,-183.9 141.87,-186.98"/>
<polygon fill="midnightblue" stroke="midnightblue" points="140.81,-190.32 151.41,-190.44 143.2,-183.74 140.81,-190.32"/>
</g>
<!-- Node3 -->
<g id="node3" class="node">
<title>Node3</title>
<g id="a_node3"><a xlink:href="class_circus.html#aba4a0a8726ff0878279959df92f23f07" target="_top" xlink:title="Metoda zwracajaca punkty specjalne graniastoslupa :">
<polygon fill="none" stroke="black" points="298.5,-171.5 298.5,-190.5 420.5,-190.5 420.5,-171.5 298.5,-171.5"/>
<text text-anchor="middle" x="359.5" y="-178.5" font-family="Helvetica,sans-Serif" font-size="10.00">Circus::special_points</text>
</a>
</g>
</g>
<!-- Node1&#45;&gt;Node3 -->
<g id="edge10" class="edge">
<title>Node1&#45;&gt;Node3</title>
<path fill="none" stroke="midnightblue" d="M58.31,-114.64C73.38,-123.39 96.96,-135.96 119,-143 174.41,-160.7 239.78,-170.36 288.21,-175.51"/>
<polygon fill="midnightblue" stroke="midnightblue" points="287.97,-179 298.28,-176.54 288.69,-172.04 287.97,-179"/>
</g>
<!-- Node5 -->
<g id="node5" class="node">
<title>Node5</title>
<g id="a_node5"><a xlink:href="class_prism.html#a07f15c416c9f9c54390bb8737b441a35" target="_top" xlink:title="Metoda skalujaca o wektor scale bedacy czlonkiem klasy block">
<polygon fill="none" stroke="black" points="141.5,-114.5 141.5,-133.5 235.5,-133.5 235.5,-114.5 141.5,-114.5"/>
<text text-anchor="middle" x="188.5" y="-121.5" font-family="Helvetica,sans-Serif" font-size="10.00">Prism::scale_pri</text>
</a>
</g>
</g>
<!-- Node1&#45;&gt;Node5 -->
<g id="edge4" class="edge">
<title>Node1&#45;&gt;Node5</title>
<path fill="none" stroke="midnightblue" d="M83.28,-110.34C98.12,-112.29 115.17,-114.52 131.12,-116.61"/>
<polygon fill="midnightblue" stroke="midnightblue" points="131.05,-120.13 141.42,-117.96 131.96,-113.19 131.05,-120.13"/>
</g>
<!-- Node8 -->
<g id="node8" class="node">
<title>Node8</title>
<g id="a_node8"><a xlink:href="class_block.html#a640a910076d8b10533a9a80d740f8f03" target="_top" xlink:title="Metoda zapisujaca do klasy nazwe pliku z finalna (robocza) bryla">
<polygon fill="none" stroke="black" points="126.5,-76.5 126.5,-95.5 250.5,-95.5 250.5,-76.5 126.5,-76.5"/>
<text text-anchor="middle" x="188.5" y="-83.5" font-family="Helvetica,sans-Serif" font-size="10.00">Block::set_final_name</text>
</a>
</g>
</g>
<!-- Node1&#45;&gt;Node8 -->
<g id="edge7" class="edge">
<title>Node1&#45;&gt;Node8</title>
<path fill="none" stroke="midnightblue" d="M83.28,-99.66C93.64,-98.3 105.09,-96.8 116.48,-95.31"/>
<polygon fill="midnightblue" stroke="midnightblue" points="116.99,-98.77 126.45,-94 116.08,-91.83 116.99,-98.77"/>
</g>
<!-- Node9 -->
<g id="node9" class="node">
<title>Node9</title>
<g id="a_node9"><a xlink:href="class_block.html#acf20b290f1543e580ff1f2c6d98ff4c4" target="_top" xlink:title="Metoda zapisujaca do klasy nazwe pliku z wzorcowa bryla">
<polygon fill="none" stroke="black" points="119,-38.5 119,-57.5 258,-57.5 258,-38.5 119,-38.5"/>
<text text-anchor="middle" x="188.5" y="-45.5" font-family="Helvetica,sans-Serif" font-size="10.00">Block::set_sample_name</text>
</a>
</g>
</g>
<!-- Node1&#45;&gt;Node9 -->
<g id="edge8" class="edge">
<title>Node1&#45;&gt;Node9</title>
<path fill="none" stroke="midnightblue" d="M59.4,-95.44C74.63,-87.1 97.81,-75.12 119,-67 125.05,-64.68 131.5,-62.52 137.93,-60.54"/>
<polygon fill="midnightblue" stroke="midnightblue" points="139.36,-63.77 147.96,-57.59 137.38,-57.05 139.36,-63.77"/>
</g>
<!-- Node10 -->
<g id="node10" class="node">
<title>Node10</title>
<g id="a_node10"><a xlink:href="class_block.html#adb6acd13e2ab79cf7e4733ca2d6ae166" target="_top" xlink:title="Metoda zapisujaca do klasy wektor reprezentujacy skale">
<polygon fill="none" stroke="black" points="141,-0.5 141,-19.5 236,-19.5 236,-0.5 141,-0.5"/>
<text text-anchor="middle" x="188.5" y="-7.5" font-family="Helvetica,sans-Serif" font-size="10.00">Block::set_scale</text>
</a>
</g>
</g>
<!-- Node1&#45;&gt;Node10 -->
<g id="edge9" class="edge">
<title>Node1&#45;&gt;Node10</title>
<path fill="none" stroke="midnightblue" d="M49.58,-95.25C61.86,-79.03 88.73,-46.59 119,-29 122.89,-26.74 127.05,-24.74 131.34,-22.97"/>
<polygon fill="midnightblue" stroke="midnightblue" points="132.7,-26.2 140.87,-19.45 130.27,-19.64 132.7,-26.2"/>
</g>
<!-- Node2&#45;&gt;Node3 -->
<g id="edge2" class="edge">
<title>Node2&#45;&gt;Node3</title>
<path fill="none" stroke="midnightblue" d="M230.41,-195.4C247.8,-193.45 268.57,-191.11 288.28,-188.89"/>
<polygon fill="midnightblue" stroke="midnightblue" points="288.92,-192.34 298.47,-187.75 288.14,-185.39 288.92,-192.34"/>
</g>
<!-- Node4 -->
<g id="node4" class="node">
<title>Node4</title>
<g id="a_node4"><a xlink:href="class_prism.html#a9c72237ab7f5b0741d936ccd14803021" target="_top" xlink:title="Metoda zwracajaca punkt centralny (czyli taki, ktorego odleglosci do kazdego wierzcholka sa rowne) gr...">
<polygon fill="none" stroke="black" points="461,-171.5 461,-190.5 572,-190.5 572,-171.5 461,-171.5"/>
<text text-anchor="middle" x="516.5" y="-178.5" font-family="Helvetica,sans-Serif" font-size="10.00">Prism::centre_point</text>
</a>
</g>
</g>
<!-- Node3&#45;&gt;Node4 -->
<g id="edge3" class="edge">
<title>Node3&#45;&gt;Node4</title>
<path fill="none" stroke="midnightblue" d="M420.87,-181C430.65,-181 440.81,-181 450.69,-181"/>
<polygon fill="midnightblue" stroke="midnightblue" points="450.85,-184.5 460.85,-181 450.85,-177.5 450.85,-184.5"/>
</g>
<!-- Node6 -->
<g id="node6" class="node">
<title>Node6</title>
<g id="a_node6"><a xlink:href="class_prism.html#afed2c26932d5cb152fd620d2acbfbc3e" target="_top" xlink:title="Metoda przesuwajaca graniastoslup do srodka ukladu wspolrzednych (tak, ze srodek graniastoslupa pokry...">
<polygon fill="none" stroke="black" points="294,-114.5 294,-133.5 425,-133.5 425,-114.5 294,-114.5"/>
<text text-anchor="middle" x="359.5" y="-121.5" font-family="Helvetica,sans-Serif" font-size="10.00">Prism::translation_to_O</text>
</a>
</g>
</g>
<!-- Node5&#45;&gt;Node6 -->
<g id="edge5" class="edge">
<title>Node5&#45;&gt;Node6</title>
<path fill="none" stroke="midnightblue" d="M235.68,-124C250.49,-124 267.29,-124 283.61,-124"/>
<polygon fill="midnightblue" stroke="midnightblue" points="283.69,-127.5 293.69,-124 283.69,-120.5 283.69,-127.5"/>
</g>
<!-- Node7 -->
<g id="node7" class="node">
<title>Node7</title>
<g id="a_node7"><a xlink:href="class_prism.html#ade146d341c0468030f8c1258b7fe1041" target="_top" xlink:title="Metoda przesuwajaca graniastoslup o zadany wektor w 3D">
<polygon fill="none" stroke="black" points="465,-114.5 465,-133.5 568,-133.5 568,-114.5 465,-114.5"/>
<text text-anchor="middle" x="516.5" y="-121.5" font-family="Helvetica,sans-Serif" font-size="10.00">Prism::translation</text>
</a>
</g>
</g>
<!-- Node6&#45;&gt;Node7 -->
<g id="edge6" class="edge">
<title>Node6&#45;&gt;Node7</title>
<path fill="none" stroke="midnightblue" d="M425.34,-124C434.96,-124 444.85,-124 454.4,-124"/>
<polygon fill="midnightblue" stroke="midnightblue" points="454.59,-127.5 464.59,-124 454.59,-120.5 454.59,-127.5"/>
</g>
</g>
</svg>
