<?xml version="1.0" encoding="UTF-8" standalone="no"?>
<!DOCTYPE svg PUBLIC "-//W3C//DTD SVG 1.1//EN"
 "http://www.w3.org/Graphics/SVG/1.1/DTD/svg11.dtd">
<!-- Generated by graphviz version 2.43.0 (0)
 -->
<!-- Title: Scene::add_basic_objects Pages: 1 -->
<svg width="429pt" height="28pt"
 viewBox="0.00 0.00 429.00 28.00" xmlns="http://www.w3.org/2000/svg" xmlns:xlink="http://www.w3.org/1999/xlink">
<g id="graph0" class="graph" transform="scale(1 1) rotate(0) translate(4 24)">
<title>Scene::add_basic_objects</title>
<!-- Node1 -->
<g id="node1" class="node">
<title>Node1</title>
<g id="a_node1"><a xlink:title="Metoda dodajaca podstawowe elementy do listy objects.">
<polygon fill="#bfbfbf" stroke="black" points="280,-0.5 280,-19.5 421,-19.5 421,-0.5 280,-0.5"/>
<text text-anchor="middle" x="350.5" y="-7.5" font-family="Helvetica,sans-Serif" font-size="10.00">Scene::add_basic_objects</text>
</a>
</g>
</g>
<!-- Node2 -->
<g id="node2" class="node">
<title>Node2</title>
<g id="a_node2"><a xlink:href="class_scene.html#ab57c9a7293ccbaf3dd7e9ac469a7a787" target="_top" xlink:title="Metoda inicjalizujaca lacze do gnuplota.">
<polygon fill="none" stroke="black" points="134,-0.5 134,-19.5 244,-19.5 244,-0.5 134,-0.5"/>
<text text-anchor="middle" x="189" y="-7.5" font-family="Helvetica,sans-Serif" font-size="10.00">Scene::init_gnuplot</text>
</a>
</g>
</g>
<!-- Node1&#45;&gt;Node2 -->
<g id="edge1" class="edge">
<title>Node1&#45;&gt;Node2</title>
<path fill="none" stroke="midnightblue" d="M269.47,-10C260.87,-10 252.27,-10 244.08,-10"/>
<polygon fill="midnightblue" stroke="midnightblue" points="269.54,-13.5 279.54,-10 269.54,-6.5 269.54,-13.5"/>
</g>
<!-- Node3 -->
<g id="node3" class="node">
<title>Node3</title>
<g id="a_node3"><a xlink:href="class_menu.html#af7e6a49bd56499facef9cc98561ea169" target="_top" xlink:title="Inicjuje i obsluguje menu.">
<polygon fill="none" stroke="black" points="0,-0.5 0,-19.5 98,-19.5 98,-0.5 0,-0.5"/>
<text text-anchor="middle" x="49" y="-7.5" font-family="Helvetica,sans-Serif" font-size="10.00">Menu::init_menu</text>
</a>
</g>
</g>
<!-- Node2&#45;&gt;Node3 -->
<g id="edge2" class="edge">
<title>Node2&#45;&gt;Node3</title>
<path fill="none" stroke="midnightblue" d="M123.8,-10C115.18,-10 106.45,-10 98.16,-10"/>
<polygon fill="midnightblue" stroke="midnightblue" points="123.85,-13.5 133.85,-10 123.85,-6.5 123.85,-13.5"/>
</g>
</g>
</svg>
