<?xml version="1.0" encoding="UTF-8" standalone="no"?>
<!DOCTYPE svg PUBLIC "-//W3C//DTD SVG 1.1//EN"
 "http://www.w3.org/Graphics/SVG/1.1/DTD/svg11.dtd">
<!-- Generated by graphviz version 2.43.0 (0)
 -->
<!-- Title: Prism::translation Pages: 1 -->
<svg width="1284pt" height="708pt"
 viewBox="0.00 0.00 1284.00 708.00" xmlns="http://www.w3.org/2000/svg" xmlns:xlink="http://www.w3.org/1999/xlink">
<g id="graph0" class="graph" transform="scale(1 1) rotate(0) translate(4 704)">
<title>Prism::translation</title>
<!-- Node1 -->
<g id="node1" class="node">
<title>Node1</title>
<g id="a_node1"><a xlink:title="Metoda przesuwajaca graniastoslup o zadany wektor w 3D">
<polygon fill="#bfbfbf" stroke="black" points="1173,-291.5 1173,-310.5 1276,-310.5 1276,-291.5 1173,-291.5"/>
<text text-anchor="middle" x="1224.5" y="-298.5" font-family="Helvetica,sans-Serif" font-size="10.00">Prism::translation</text>
</a>
</g>
</g>
<!-- Node2 -->
<g id="node2" class="node">
<title>Node2</title>
<g id="a_node2"><a xlink:href="class_prism.html#a22c5467db5d960bddbaf9a52f55c55cb" target="_top" xlink:title="Metoda obracajaca graniastoslup o zadany kat w 3D wokol srodka figury">
<polygon fill="none" stroke="black" points="820,-380.5 820,-399.5 970,-399.5 970,-380.5 820,-380.5"/>
<text text-anchor="middle" x="895" y="-387.5" font-family="Helvetica,sans-Serif" font-size="10.00">Prism::rotation_around_cen</text>
</a>
</g>
</g>
<!-- Node1&#45;&gt;Node2 -->
<g id="edge1" class="edge">
<title>Node1&#45;&gt;Node2</title>
<path fill="none" stroke="midnightblue" d="M1195.53,-315.04C1178.86,-322.96 1157.1,-332.53 1137,-339 1077.46,-358.15 1007.29,-372.07 958.07,-380.48"/>
<polygon fill="midnightblue" stroke="midnightblue" points="1197.22,-318.11 1204.7,-310.61 1194.17,-311.81 1197.22,-318.11"/>
</g>
<!-- Node12 -->
<g id="node12" class="node">
<title>Node12</title>
<g id="a_node12"><a xlink:href="class_scene.html#aa5fc0e5a94bfa0766f6e5ff10993630d" target="_top" xlink:title="Skanowanie powierzchni pod dronem, gdy dron nie moze wyladowac w danym miejscu &#160;&#160;Rysowany jest rownie...">
<polygon fill="none" stroke="black" points="479,-190.5 479,-209.5 586,-209.5 586,-190.5 479,-190.5"/>
<text text-anchor="middle" x="532.5" y="-197.5" font-family="Helvetica,sans-Serif" font-size="10.00">Scene::scan_plane</text>
</a>
</g>
</g>
<!-- Node1&#45;&gt;Node12 -->
<g id="edge26" class="edge">
<title>Node1&#45;&gt;Node12</title>
<path fill="none" stroke="midnightblue" d="M1207.5,-284.02C1170.17,-245.64 1072.64,-152.51 970,-113 829.36,-58.86 769.04,-23.3 632,-86 583.72,-108.09 550.07,-166.83 538.21,-190.21"/>
<polygon fill="midnightblue" stroke="midnightblue" points="1205.08,-286.55 1214.54,-291.33 1210.13,-281.7 1205.08,-286.55"/>
</g>
<!-- Node17 -->
<g id="node17" class="node">
<title>Node17</title>
<g id="a_node17"><a xlink:href="class_prism.html#a8a80c4334810ad934e6e43bb5ee14f07" target="_top" xlink:title="Zmiana pozycji obiektu na plaszczyznie XY na nowe wspolrzedne.">
<polygon fill="none" stroke="black" points="1019.5,-0.5 1019.5,-19.5 1123.5,-19.5 1123.5,-0.5 1019.5,-0.5"/>
<text text-anchor="middle" x="1071.5" y="-7.5" font-family="Helvetica,sans-Serif" font-size="10.00">Prism::switch_pos</text>
</a>
</g>
</g>
<!-- Node1&#45;&gt;Node17 -->
<g id="edge27" class="edge">
<title>Node1&#45;&gt;Node17</title>
<path fill="none" stroke="midnightblue" d="M1222.76,-281.41C1219.88,-232.88 1205.81,-105.83 1137,-34 1130.97,-27.7 1123.13,-23.04 1115.01,-19.6"/>
<polygon fill="midnightblue" stroke="midnightblue" points="1219.27,-281.68 1223.26,-291.5 1226.26,-281.34 1219.27,-281.68"/>
</g>
<!-- Node18 -->
<g id="node18" class="node">
<title>Node18</title>
<g id="a_node18"><a xlink:href="class_drone.html#a9684cd7ce04b7e6191f3d6b3a745370b" target="_top" xlink:title="Przesuwa drona o zadany wektor w 3D">
<polygon fill="none" stroke="black" points="843,-342.5 843,-361.5 947,-361.5 947,-342.5 843,-342.5"/>
<text text-anchor="middle" x="895" y="-349.5" font-family="Helvetica,sans-Serif" font-size="10.00">Drone::translation</text>
</a>
</g>
</g>
<!-- Node1&#45;&gt;Node18 -->
<g id="edge28" class="edge">
<title>Node1&#45;&gt;Node18</title>
<path fill="none" stroke="midnightblue" d="M1162.65,-310.48C1100.62,-320.13 1005.49,-334.95 947.2,-344.03"/>
<polygon fill="midnightblue" stroke="midnightblue" points="1163.35,-313.91 1172.69,-308.91 1162.27,-306.99 1163.35,-313.91"/>
</g>
<!-- Node21 -->
<g id="node21" class="node">
<title>Node21</title>
<g id="a_node21"><a xlink:href="class_prism.html#a4e2b0b9c37d6a53af869522a4bf364ac" target="_top" xlink:title="Metoda przesuwajaca graniastoslup o zadany wektor w 3D w taki sposob, ze srodek jego dolnej podstawy ...">
<polygon fill="none" stroke="black" points="1020,-412 1020,-442 1123,-442 1123,-412 1020,-412"/>
<text text-anchor="start" x="1028" y="-430" font-family="Helvetica,sans-Serif" font-size="10.00">Prism::translation</text>
<text text-anchor="middle" x="1071.5" y="-419" font-family="Helvetica,sans-Serif" font-size="10.00">_of_lower_cen</text>
</a>
</g>
</g>
<!-- Node1&#45;&gt;Node21 -->
<g id="edge38" class="edge">
<title>Node1&#45;&gt;Node21</title>
<path fill="none" stroke="midnightblue" d="M1206.95,-318.23C1190.06,-335.43 1162.75,-362.24 1137,-383 1124.13,-393.38 1108.88,-403.86 1096.43,-411.99"/>
<polygon fill="midnightblue" stroke="midnightblue" points="1209.89,-320.23 1214.35,-310.62 1204.87,-315.35 1209.89,-320.23"/>
</g>
<!-- Node23 -->
<g id="node23" class="node">
<title>Node23</title>
<g id="a_node23"><a xlink:href="class_prism.html#afed2c26932d5cb152fd620d2acbfbc3e" target="_top" xlink:title="Metoda przesuwajaca graniastoslup do srodka ukladu wspolrzednych (tak, ze srodek graniastoslupa pokry...">
<polygon fill="none" stroke="black" points="1006,-234.5 1006,-253.5 1137,-253.5 1137,-234.5 1006,-234.5"/>
<text text-anchor="middle" x="1071.5" y="-241.5" font-family="Helvetica,sans-Serif" font-size="10.00">Prism::translation_to_O</text>
</a>
</g>
</g>
<!-- Node1&#45;&gt;Node23 -->
<g id="edge43" class="edge">
<title>Node1&#45;&gt;Node23</title>
<path fill="none" stroke="midnightblue" d="M1188.52,-287.8C1160.8,-277.33 1122.71,-262.95 1097.86,-253.57"/>
<polygon fill="midnightblue" stroke="midnightblue" points="1187.63,-291.2 1198.23,-291.46 1190.11,-284.65 1187.63,-291.2"/>
</g>
<!-- Node3 -->
<g id="node3" class="node">
<title>Node3</title>
<g id="a_node3"><a xlink:href="class_drone.html#ad42bc54902df967b94717617aca1a974" target="_top" xlink:title="Metoda obracajaca dron o zadany kat w 3D wokol srodka figury">
<polygon fill="none" stroke="black" points="632,-506.5 632,-525.5 784,-525.5 784,-506.5 632,-506.5"/>
<text text-anchor="middle" x="708" y="-513.5" font-family="Helvetica,sans-Serif" font-size="10.00">Drone::rotation_around_cen</text>
</a>
</g>
</g>
<!-- Node2&#45;&gt;Node3 -->
<g id="edge2" class="edge">
<title>Node2&#45;&gt;Node3</title>
<path fill="none" stroke="midnightblue" d="M827.65,-404.37C824.94,-406.04 822.37,-407.91 820,-410 788.57,-437.63 815.64,-469.62 784,-497 779.53,-500.87 774.38,-503.97 768.92,-506.45"/>
<polygon fill="midnightblue" stroke="midnightblue" points="829.46,-407.37 836.7,-399.64 826.22,-401.16 829.46,-407.37"/>
</g>
<!-- Node16 -->
<g id="node16" class="node">
<title>Node16</title>
<g id="a_node16"><a xlink:href="class_drone.html#aedb04b80609b22ff4eb4a957bc149a48" target="_top" xlink:title="Metoda animujaca obrot rotorow i zapisujaca to w plikach. Metoda sluzy jako metoda pomocnicza,...">
<polygon fill="none" stroke="black" points="469,-353 469,-383 596,-383 596,-353 469,-353"/>
<text text-anchor="start" x="477" y="-371" font-family="Helvetica,sans-Serif" font-size="10.00">Drone::Rotors_rotation</text>
<text text-anchor="middle" x="532.5" y="-360" font-family="Helvetica,sans-Serif" font-size="10.00">_animation</text>
</a>
</g>
</g>
<!-- Node2&#45;&gt;Node16 -->
<g id="edge19" class="edge">
<title>Node2&#45;&gt;Node16</title>
<path fill="none" stroke="midnightblue" d="M809.47,-384.84C744.19,-380.86 655.3,-375.43 596.24,-371.83"/>
<polygon fill="midnightblue" stroke="midnightblue" points="809.55,-388.35 819.74,-385.47 809.97,-381.37 809.55,-388.35"/>
</g>
<!-- Node4 -->
<g id="node4" class="node">
<title>Node4</title>
<g id="a_node4"><a xlink:href="class_drone.html#ab692baa4be5c43b72990ce1b01bdc805" target="_top" xlink:title="Konstruktor bezparametryczny klasy Drone. Powstaly dron jest skonstruowany z bezparametrycznych prost...">
<polygon fill="none" stroke="black" points="492,-680.5 492,-699.5 573,-699.5 573,-680.5 492,-680.5"/>
<text text-anchor="middle" x="532.5" y="-687.5" font-family="Helvetica,sans-Serif" font-size="10.00">Drone::Drone</text>
</a>
</g>
</g>
<!-- Node3&#45;&gt;Node4 -->
<g id="edge3" class="edge">
<title>Node3&#45;&gt;Node4</title>
<path fill="none" stroke="midnightblue" d="M683.81,-531.69C667.56,-543.65 646.28,-561.36 632,-581 607.87,-614.18 625.5,-637.49 596,-666 589.48,-672.3 581.13,-676.99 572.67,-680.46"/>
<polygon fill="midnightblue" stroke="midnightblue" points="686.14,-534.33 692.24,-525.67 682.07,-528.63 686.14,-534.33"/>
</g>
<!-- Node5 -->
<g id="node5" class="node">
<title>Node5</title>
<g id="a_node5"><a xlink:href="class_drone.html#af03af60a9b92e4191a7e66b5c20b52bb" target="_top" xlink:title="Metoda zamieniajaca drona na tego z pliku sample.">
<polygon fill="none" stroke="black" points="471.5,-479 471.5,-509 593.5,-509 593.5,-479 471.5,-479"/>
<text text-anchor="start" x="479.5" y="-497" font-family="Helvetica,sans-Serif" font-size="10.00">Drone::Drone_change</text>
<text text-anchor="middle" x="532.5" y="-486" font-family="Helvetica,sans-Serif" font-size="10.00">_to_sample</text>
</a>
</g>
</g>
<!-- Node3&#45;&gt;Node5 -->
<g id="edge4" class="edge">
<title>Node3&#45;&gt;Node5</title>
<path fill="none" stroke="midnightblue" d="M621.94,-505.21C612.35,-504 602.73,-502.78 593.55,-501.61"/>
<polygon fill="midnightblue" stroke="midnightblue" points="621.55,-508.69 631.91,-506.48 622.43,-501.75 621.55,-508.69"/>
</g>
<!-- Node9 -->
<g id="node9" class="node">
<title>Node9</title>
<g id="a_node9"><a xlink:href="class_drone.html#af052f6bb793d1229b99b16b800b95b82" target="_top" xlink:title="Metoda animujaca obrot drona i wyrysowujaca calosc w gnuplocie.">
<polygon fill="none" stroke="black" points="299.5,-523 299.5,-553 424.5,-553 424.5,-523 299.5,-523"/>
<text text-anchor="start" x="307.5" y="-541" font-family="Helvetica,sans-Serif" font-size="10.00">Drone::Drone_rotation</text>
<text text-anchor="middle" x="362" y="-530" font-family="Helvetica,sans-Serif" font-size="10.00">_animation</text>
</a>
</g>
</g>
<!-- Node3&#45;&gt;Node9 -->
<g id="edge13" class="edge">
<title>Node3&#45;&gt;Node9</title>
<path fill="none" stroke="midnightblue" d="M621.91,-521.44C560.75,-525.35 479.71,-530.54 424.7,-534.05"/>
<polygon fill="midnightblue" stroke="midnightblue" points="622.18,-524.93 631.93,-520.8 621.73,-517.95 622.18,-524.93"/>
</g>
<!-- Node10 -->
<g id="node10" class="node">
<title>Node10</title>
<g id="a_node10"><a xlink:href="class_drone.html#ab7808296cec81143dbddd7516340a371" target="_top" xlink:title="Metoda robiaca &quot;oblot&quot; drona wokol punktu (z modyfikacji)">
<polygon fill="none" stroke="black" points="291,-610.5 291,-629.5 433,-629.5 433,-610.5 291,-610.5"/>
<text text-anchor="middle" x="362" y="-617.5" font-family="Helvetica,sans-Serif" font-size="10.00">Drone::Drone_roundabout</text>
</a>
</g>
</g>
<!-- Node3&#45;&gt;Node10 -->
<g id="edge14" class="edge">
<title>Node3&#45;&gt;Node10</title>
<path fill="none" stroke="midnightblue" d="M665.83,-528.45C596.35,-549.45 457.27,-591.5 394.74,-610.4"/>
<polygon fill="midnightblue" stroke="midnightblue" points="667,-531.75 675.56,-525.51 664.98,-525.05 667,-531.75"/>
</g>
<!-- Node3&#45;&gt;Node12 -->
<g id="edge15" class="edge">
<title>Node3&#45;&gt;Node12</title>
<path fill="none" stroke="midnightblue" d="M635.39,-500.35C634.2,-499.3 633.07,-498.18 632,-497 558.8,-416 648.6,-349.67 596,-254 585.36,-234.65 564.9,-219.04 550.29,-209.67"/>
<polygon fill="midnightblue" stroke="midnightblue" points="633.73,-503.46 643.91,-506.37 637.76,-497.74 633.73,-503.46"/>
</g>
<!-- Node6 -->
<g id="node6" class="node">
<title>Node6</title>
<g id="a_node6"><a xlink:href="class_drone.html#a7eecbd031df9009e113d355a9dcdf4e1" target="_top" xlink:title="Metoda obliczajaca i przeprowadzajaca caly ruch drona (obrot o kat i przelot z zadania 5....">
<polygon fill="none" stroke="black" points="138.5,-397 138.5,-427 250.5,-427 250.5,-397 138.5,-397"/>
<text text-anchor="start" x="146.5" y="-415" font-family="Helvetica,sans-Serif" font-size="10.00">Drone::Drone_basic</text>
<text text-anchor="middle" x="194.5" y="-404" font-family="Helvetica,sans-Serif" font-size="10.00">_motion_flight</text>
</a>
</g>
</g>
<!-- Node5&#45;&gt;Node6 -->
<g id="edge5" class="edge">
<title>Node5&#45;&gt;Node6</title>
<path fill="none" stroke="midnightblue" d="M461.08,-497.58C412.11,-497.89 346.01,-493.9 291,-475 260.57,-464.54 230.41,-442.09 212.36,-427.01"/>
<polygon fill="midnightblue" stroke="midnightblue" points="461.3,-501.08 471.26,-497.45 461.22,-494.08 461.3,-501.08"/>
</g>
<!-- Node7 -->
<g id="node7" class="node">
<title>Node7</title>
<g id="a_node7"><a xlink:href="class_drone.html#a4abbed4a4cc52e5630f07f9129b46c5c" target="_top" xlink:title="Metoda realizujaca ladowanie drona.">
<polygon fill="none" stroke="black" points="299.5,-396.5 299.5,-415.5 424.5,-415.5 424.5,-396.5 299.5,-396.5"/>
<text text-anchor="middle" x="362" y="-403.5" font-family="Helvetica,sans-Serif" font-size="10.00">Drone::Drone_descent</text>
</a>
</g>
</g>
<!-- Node5&#45;&gt;Node7 -->
<g id="edge6" class="edge">
<title>Node5&#45;&gt;Node7</title>
<path fill="none" stroke="midnightblue" d="M505.46,-472.5C486.39,-457.66 459.35,-438.45 433,-426 424.2,-421.84 414.36,-418.38 404.9,-415.56"/>
<polygon fill="midnightblue" stroke="midnightblue" points="503.36,-475.3 513.37,-478.76 507.7,-469.81 503.36,-475.3"/>
</g>
<!-- Node8 -->
<g id="node8" class="node">
<title>Node8</title>
<g id="a_node8"><a xlink:href="class_drone.html#aec9abadf85777ab20e361d1389aab466" target="_top" xlink:title="Metoda obliczajaca i przeprowadzajaca koncowy ruch drona (obrot o kat i koncowy przelot z zadania 5....">
<polygon fill="none" stroke="black" points="134,-545 134,-575 255,-575 255,-545 134,-545"/>
<text text-anchor="start" x="142" y="-563" font-family="Helvetica,sans-Serif" font-size="10.00">Drone::Drone_motion</text>
<text text-anchor="middle" x="194.5" y="-552" font-family="Helvetica,sans-Serif" font-size="10.00">_after_update</text>
</a>
</g>
</g>
<!-- Node5&#45;&gt;Node8 -->
<g id="edge7" class="edge">
<title>Node5&#45;&gt;Node8</title>
<path fill="none" stroke="midnightblue" d="M485.23,-513.73C479.57,-516.85 474.02,-520.29 469,-524 450.03,-538.02 454.61,-553.54 433,-563 376.53,-587.73 305.02,-582.55 255.29,-573.96"/>
<polygon fill="midnightblue" stroke="midnightblue" points="486.89,-516.81 494.15,-509.09 483.66,-510.6 486.89,-516.81"/>
</g>
<!-- Node5&#45;&gt;Node9 -->
<g id="edge8" class="edge">
<title>Node5&#45;&gt;Node9</title>
<path fill="none" stroke="midnightblue" d="M464.12,-511.59C449.69,-515.36 434.57,-519.31 420.54,-522.97"/>
<polygon fill="midnightblue" stroke="midnightblue" points="465.19,-514.93 473.98,-509.02 463.42,-508.16 465.19,-514.93"/>
</g>
<!-- Node5&#45;&gt;Node10 -->
<g id="edge11" class="edge">
<title>Node5&#45;&gt;Node10</title>
<path fill="none" stroke="midnightblue" d="M481.25,-514.28C476.83,-517.17 472.66,-520.4 469,-524 443.5,-549.09 459.93,-572.44 433,-596 425.75,-602.34 416.74,-607.03 407.62,-610.49"/>
<polygon fill="midnightblue" stroke="midnightblue" points="483.13,-517.23 489.97,-509.14 479.58,-511.2 483.13,-517.23"/>
</g>
<!-- Node11 -->
<g id="node11" class="node">
<title>Node11</title>
<g id="a_node11"><a xlink:href="class_drone.html#a5fc9dd645ad3856b5d3c501c63c464e3" target="_top" xlink:title="Metoda animujaca translacje drona i wyrysowujaca calosc w gnuplocie.">
<polygon fill="none" stroke="black" points="292.5,-435 292.5,-465 431.5,-465 431.5,-435 292.5,-435"/>
<text text-anchor="start" x="300.5" y="-453" font-family="Helvetica,sans-Serif" font-size="10.00">Drone::Drone_translation</text>
<text text-anchor="middle" x="362" y="-442" font-family="Helvetica,sans-Serif" font-size="10.00">_animation</text>
</a>
</g>
</g>
<!-- Node5&#45;&gt;Node11 -->
<g id="edge12" class="edge">
<title>Node5&#45;&gt;Node11</title>
<path fill="none" stroke="midnightblue" d="M464.12,-476.41C449.69,-472.64 434.57,-468.69 420.54,-465.03"/>
<polygon fill="midnightblue" stroke="midnightblue" points="463.42,-479.84 473.98,-478.98 465.19,-473.07 463.42,-479.84"/>
</g>
<!-- Node9&#45;&gt;Node6 -->
<g id="edge9" class="edge">
<title>Node9&#45;&gt;Node6</title>
<path fill="none" stroke="midnightblue" d="M309.23,-518.52C302.89,-515.36 296.66,-511.84 291,-508 256.57,-484.63 224.1,-447.68 207.34,-427.11"/>
<polygon fill="midnightblue" stroke="midnightblue" points="308,-521.81 318.54,-522.9 310.98,-515.48 308,-521.81"/>
</g>
<!-- Node9&#45;&gt;Node8 -->
<g id="edge10" class="edge">
<title>Node9&#45;&gt;Node8</title>
<path fill="none" stroke="midnightblue" d="M289.45,-547.51C278.04,-549.03 266.35,-550.58 255.25,-552.06"/>
<polygon fill="midnightblue" stroke="midnightblue" points="289.92,-550.98 299.37,-546.19 289,-544.04 289.92,-550.98"/>
</g>
<!-- Node13 -->
<g id="node13" class="node">
<title>Node13</title>
<g id="a_node13"><a xlink:href="class_scene.html#a5fb0b9741a75dec929b5ea5d6ac917a1" target="_top" xlink:title="Przelot aktywnego drona.">
<polygon fill="none" stroke="black" points="330,-190.5 330,-209.5 394,-209.5 394,-190.5 330,-190.5"/>
<text text-anchor="middle" x="362" y="-197.5" font-family="Helvetica,sans-Serif" font-size="10.00">Scene::fly</text>
</a>
</g>
</g>
<!-- Node12&#45;&gt;Node13 -->
<g id="edge16" class="edge">
<title>Node12&#45;&gt;Node13</title>
<path fill="none" stroke="midnightblue" d="M468.34,-200C442.97,-200 414.87,-200 394.08,-200"/>
<polygon fill="midnightblue" stroke="midnightblue" points="468.65,-203.5 478.65,-200 468.65,-196.5 468.65,-203.5"/>
</g>
<!-- Node14 -->
<g id="node14" class="node">
<title>Node14</title>
<g id="a_node14"><a xlink:href="class_menu.html#acd338552222b744cd030e17776cb5d9b" target="_top" xlink:title="Obsluguje wybor menu.">
<polygon fill="none" stroke="black" points="137.5,-190.5 137.5,-209.5 251.5,-209.5 251.5,-190.5 137.5,-190.5"/>
<text text-anchor="middle" x="194.5" y="-197.5" font-family="Helvetica,sans-Serif" font-size="10.00">Menu::switch_menu</text>
</a>
</g>
</g>
<!-- Node13&#45;&gt;Node14 -->
<g id="edge17" class="edge">
<title>Node13&#45;&gt;Node14</title>
<path fill="none" stroke="midnightblue" d="M319.86,-200C299.24,-200 273.98,-200 251.61,-200"/>
<polygon fill="midnightblue" stroke="midnightblue" points="319.87,-203.5 329.87,-200 319.87,-196.5 319.87,-203.5"/>
</g>
<!-- Node15 -->
<g id="node15" class="node">
<title>Node15</title>
<g id="a_node15"><a xlink:href="class_menu.html#af7e6a49bd56499facef9cc98561ea169" target="_top" xlink:title="Inicjuje i obsluguje menu.">
<polygon fill="none" stroke="black" points="0,-190.5 0,-209.5 98,-209.5 98,-190.5 0,-190.5"/>
<text text-anchor="middle" x="49" y="-197.5" font-family="Helvetica,sans-Serif" font-size="10.00">Menu::init_menu</text>
</a>
</g>
</g>
<!-- Node14&#45;&gt;Node15 -->
<g id="edge18" class="edge">
<title>Node14&#45;&gt;Node15</title>
<path fill="none" stroke="midnightblue" d="M127.13,-200C117.39,-200 107.52,-200 98.24,-200"/>
<polygon fill="midnightblue" stroke="midnightblue" points="127.2,-203.5 137.2,-200 127.2,-196.5 127.2,-203.5"/>
</g>
<!-- Node16&#45;&gt;Node6 -->
<g id="edge20" class="edge">
<title>Node16&#45;&gt;Node6</title>
<path fill="none" stroke="midnightblue" d="M458.69,-351.56C410.3,-343.58 345.8,-338.66 291,-354 261.3,-362.31 231.65,-382.67 213.45,-396.91"/>
<polygon fill="midnightblue" stroke="midnightblue" points="458.32,-355.05 468.77,-353.31 459.51,-348.15 458.32,-355.05"/>
</g>
<!-- Node16&#45;&gt;Node7 -->
<g id="edge21" class="edge">
<title>Node16&#45;&gt;Node7</title>
<path fill="none" stroke="midnightblue" d="M458.98,-384.36C440.67,-388.48 421.6,-392.78 405.34,-396.45"/>
<polygon fill="midnightblue" stroke="midnightblue" points="459.77,-387.76 468.76,-382.15 458.23,-380.94 459.77,-387.76"/>
</g>
<!-- Node16&#45;&gt;Node8 -->
<g id="edge22" class="edge">
<title>Node16&#45;&gt;Node8</title>
<path fill="none" stroke="midnightblue" d="M458.57,-356.61C407.68,-352.52 340.32,-355.21 291,-387 276.04,-396.64 222.59,-504.31 202.87,-544.76"/>
<polygon fill="midnightblue" stroke="midnightblue" points="458.57,-360.12 468.85,-357.54 459.2,-353.15 458.57,-360.12"/>
</g>
<!-- Node16&#45;&gt;Node9 -->
<g id="edge23" class="edge">
<title>Node16&#45;&gt;Node9</title>
<path fill="none" stroke="midnightblue" d="M511.59,-390.85C492.1,-412.92 461.3,-447.01 433,-475 415.79,-492.01 395.09,-510.41 380.68,-522.91"/>
<polygon fill="midnightblue" stroke="midnightblue" points="514.25,-393.12 518.23,-383.3 509,-388.5 514.25,-393.12"/>
</g>
<!-- Node16&#45;&gt;Node10 -->
<g id="edge24" class="edge">
<title>Node16&#45;&gt;Node10</title>
<path fill="none" stroke="midnightblue" d="M515.34,-391.61C501.91,-411.85 482.82,-442.07 469,-470 449.34,-509.72 459.05,-527.14 433,-563 418.35,-583.16 394.9,-600.26 379.22,-610.33"/>
<polygon fill="midnightblue" stroke="midnightblue" points="518.41,-393.31 521.08,-383.06 512.6,-389.41 518.41,-393.31"/>
</g>
<!-- Node16&#45;&gt;Node11 -->
<g id="edge25" class="edge">
<title>Node16&#45;&gt;Node11</title>
<path fill="none" stroke="midnightblue" d="M499.74,-388.36C480.81,-399.98 456.06,-414.32 433,-425 425.39,-428.53 417.13,-431.87 409.04,-434.9"/>
<polygon fill="midnightblue" stroke="midnightblue" points="501.61,-391.31 508.26,-383.06 497.92,-385.37 501.61,-391.31"/>
</g>
<!-- Node18&#45;&gt;Node12 -->
<g id="edge29" class="edge">
<title>Node18&#45;&gt;Node12</title>
<path fill="none" stroke="midnightblue" d="M839.76,-363.08C782.78,-371.54 693.1,-375.5 632,-333 600.33,-310.97 619.13,-284.88 596,-254 582.33,-235.75 561.53,-219.34 547.73,-209.52"/>
<polygon fill="midnightblue" stroke="midnightblue" points="840.33,-366.53 849.66,-361.51 839.24,-359.62 840.33,-366.53"/>
</g>
<!-- Node19 -->
<g id="node19" class="node">
<title>Node19</title>
<g id="a_node19"><a xlink:href="class_drone.html#a6662bd8203e8c9a0721c457b3612a7c1" target="_top" xlink:title="Metoda uzywana przy konstruowania drona przesuwa drona w ten sposob, ze Vector3D centre prostopadlosc...">
<polygon fill="none" stroke="black" points="656,-457 656,-487 760,-487 760,-457 656,-457"/>
<text text-anchor="start" x="664" y="-475" font-family="Helvetica,sans-Serif" font-size="10.00">Drone::translation</text>
<text text-anchor="middle" x="708" y="-464" font-family="Helvetica,sans-Serif" font-size="10.00">_to_pos</text>
</a>
</g>
</g>
<!-- Node18&#45;&gt;Node19 -->
<g id="edge30" class="edge">
<title>Node18&#45;&gt;Node19</title>
<path fill="none" stroke="midnightblue" d="M833.37,-364.92C828.74,-366.7 824.23,-368.72 820,-371 778.5,-393.39 740.19,-434.61 721.31,-456.84"/>
<polygon fill="midnightblue" stroke="midnightblue" points="834.69,-368.17 843,-361.59 832.4,-361.55 834.69,-368.17"/>
</g>
<!-- Node19&#45;&gt;Node5 -->
<g id="edge32" class="edge">
<title>Node19&#45;&gt;Node5</title>
<path fill="none" stroke="midnightblue" d="M645.6,-479.79C628.76,-481.92 610.51,-484.23 593.73,-486.36"/>
<polygon fill="midnightblue" stroke="midnightblue" points="646.4,-483.21 655.88,-478.48 645.52,-476.27 646.4,-483.21"/>
</g>
<!-- Node19&#45;&gt;Node6 -->
<g id="edge31" class="edge">
<title>Node19&#45;&gt;Node6</title>
<path fill="none" stroke="midnightblue" d="M677.96,-450.66C663.11,-438.85 645.38,-423.29 632,-407 611.52,-382.09 623.69,-360.53 596,-344 479.59,-274.52 419.56,-296.97 291,-340 257.53,-351.2 226.4,-379.28 209.26,-396.88"/>
<polygon fill="midnightblue" stroke="midnightblue" points="675.83,-453.44 685.87,-456.82 680.13,-447.92 675.83,-453.44"/>
</g>
<!-- Node19&#45;&gt;Node7 -->
<g id="edge33" class="edge">
<title>Node19&#45;&gt;Node7</title>
<path fill="none" stroke="midnightblue" d="M645.95,-460.29C579.46,-447.53 474.39,-427.37 412.73,-415.54"/>
<polygon fill="midnightblue" stroke="midnightblue" points="645.39,-463.74 655.87,-462.19 646.71,-456.87 645.39,-463.74"/>
</g>
<!-- Node19&#45;&gt;Node8 -->
<g id="edge34" class="edge">
<title>Node19&#45;&gt;Node8</title>
<path fill="none" stroke="midnightblue" d="M646.39,-488.01C641.27,-490.58 636.39,-493.56 632,-497 608.41,-515.48 618.04,-533.71 596,-554 535.89,-609.34 512.35,-619.55 433,-639 371.7,-654.02 350.38,-660.38 291,-639 255.77,-626.32 224.31,-594.38 207.77,-575.22"/>
<polygon fill="midnightblue" stroke="midnightblue" points="648.09,-491.08 655.78,-483.79 645.22,-484.7 648.09,-491.08"/>
</g>
<!-- Node19&#45;&gt;Node10 -->
<g id="edge35" class="edge">
<title>Node19&#45;&gt;Node10</title>
<path fill="none" stroke="midnightblue" d="M646.67,-490.76C641.65,-492.73 636.7,-494.81 632,-497 615,-504.9 612.98,-511.06 596,-519 542.02,-544.25 522.47,-535.69 469,-562 451.75,-570.49 449.69,-576.44 433,-586 417.17,-595.06 398.57,-604.02 384.52,-610.47"/>
<polygon fill="midnightblue" stroke="midnightblue" points="648.22,-493.92 656.36,-487.13 645.77,-487.36 648.22,-493.92"/>
</g>
<!-- Node19&#45;&gt;Node11 -->
<g id="edge36" class="edge">
<title>Node19&#45;&gt;Node11</title>
<path fill="none" stroke="midnightblue" d="M645.77,-468.08C585.67,-464.24 494.17,-458.39 431.64,-454.39"/>
<polygon fill="midnightblue" stroke="midnightblue" points="645.67,-471.58 655.87,-468.73 646.11,-464.6 645.67,-471.58"/>
</g>
<!-- Node20 -->
<g id="node20" class="node">
<title>Node20</title>
<g id="a_node20"><a xlink:href="class_scene.html#adca9214dccab3d77eed9d8af7db67f94" target="_top" xlink:title="Konstruktor paramereyczny klasy Scene.">
<polygon fill="none" stroke="black" points="492,-263.5 492,-282.5 573,-282.5 573,-263.5 492,-263.5"/>
<text text-anchor="middle" x="532.5" y="-270.5" font-family="Helvetica,sans-Serif" font-size="10.00">Scene::Scene</text>
</a>
</g>
</g>
<!-- Node19&#45;&gt;Node20 -->
<g id="edge37" class="edge">
<title>Node19&#45;&gt;Node20</title>
<path fill="none" stroke="midnightblue" d="M676.64,-450.46C661.42,-438.32 643.77,-421.99 632,-404 604.53,-362.01 630.72,-333.22 596,-297 589.73,-290.46 581.47,-285.67 573.03,-282.18"/>
<polygon fill="midnightblue" stroke="midnightblue" points="674.74,-453.42 684.8,-456.76 679.02,-447.88 674.74,-453.42"/>
</g>
<!-- Node22 -->
<g id="node22" class="node">
<title>Node22</title>
<g id="a_node22"><a xlink:href="class_drone.html#aea963b77f42c204504542a3d9190d762" target="_top" xlink:title="Metoda uzywana przy konstruowania drona Ustawia rotory w ten sposob, ze srodek ich dolnej podstawy je...">
<polygon fill="none" stroke="black" points="837.5,-419 837.5,-449 952.5,-449 952.5,-419 837.5,-419"/>
<text text-anchor="start" x="845.5" y="-437" font-family="Helvetica,sans-Serif" font-size="10.00">Drone::set_rotors_in</text>
<text text-anchor="middle" x="895" y="-426" font-family="Helvetica,sans-Serif" font-size="10.00">_place</text>
</a>
</g>
</g>
<!-- Node21&#45;&gt;Node22 -->
<g id="edge39" class="edge">
<title>Node21&#45;&gt;Node22</title>
<path fill="none" stroke="midnightblue" d="M1009.48,-429.45C990.96,-430.19 970.71,-431 952.51,-431.73"/>
<polygon fill="midnightblue" stroke="midnightblue" points="1009.71,-432.94 1019.56,-429.04 1009.43,-425.95 1009.71,-432.94"/>
</g>
<!-- Node22&#45;&gt;Node3 -->
<g id="edge41" class="edge">
<title>Node22&#45;&gt;Node3</title>
<path fill="none" stroke="midnightblue" d="M863.09,-454.75C841.65,-468.36 812.03,-485.67 784,-497 774.78,-500.72 764.63,-503.88 754.85,-506.49"/>
<polygon fill="midnightblue" stroke="midnightblue" points="865.23,-457.53 871.74,-449.17 861.44,-451.64 865.23,-457.53"/>
</g>
<!-- Node22&#45;&gt;Node4 -->
<g id="edge40" class="edge">
<title>Node22&#45;&gt;Node4</title>
<path fill="none" stroke="midnightblue" d="M884.86,-458.85C869.7,-496.72 835.78,-568.72 784,-609 720.69,-658.26 626.45,-678.05 573.45,-685.62"/>
<polygon fill="midnightblue" stroke="midnightblue" points="888.28,-459.72 888.64,-449.13 881.76,-457.18 888.28,-459.72"/>
</g>
<!-- Node22&#45;&gt;Node20 -->
<g id="edge42" class="edge">
<title>Node22&#45;&gt;Node20</title>
<path fill="none" stroke="midnightblue" d="M827.33,-430.73C770.09,-424.78 688.16,-408.44 632,-364 605.49,-343.02 621.37,-319.35 596,-297 588.94,-290.78 580.08,-286.09 571.28,-282.59"/>
<polygon fill="midnightblue" stroke="midnightblue" points="827.07,-434.22 837.36,-431.69 827.74,-427.25 827.07,-434.22"/>
</g>
<!-- Node23&#45;&gt;Node2 -->
<g id="edge44" class="edge">
<title>Node23&#45;&gt;Node2</title>
<path fill="none" stroke="midnightblue" d="M1060.84,-262.85C1045.49,-290.87 1012.83,-343.16 970,-371 963.99,-374.9 957.23,-378.01 950.29,-380.47"/>
<polygon fill="midnightblue" stroke="midnightblue" points="1064.09,-264.19 1065.7,-253.72 1057.91,-260.91 1064.09,-264.19"/>
</g>
<!-- Node23&#45;&gt;Node12 -->
<g id="edge54" class="edge">
<title>Node23&#45;&gt;Node12</title>
<path fill="none" stroke="midnightblue" d="M1048.36,-228.86C1001.91,-198.14 889.82,-129.32 784,-105 718.16,-89.87 694.64,-79.71 632,-105 588.38,-122.61 553.31,-169.81 539.66,-190.29"/>
<polygon fill="midnightblue" stroke="midnightblue" points="1046.49,-231.83 1056.75,-234.48 1050.38,-226.01 1046.49,-231.83"/>
</g>
<!-- Node24 -->
<g id="node24" class="node">
<title>Node24</title>
<g id="a_node24"><a xlink:href="class_prism.html#a07f15c416c9f9c54390bb8737b441a35" target="_top" xlink:title="Metoda skalujaca o wektor scale bedacy czlonkiem klasy block">
<polygon fill="none" stroke="black" points="848,-230.5 848,-249.5 942,-249.5 942,-230.5 848,-230.5"/>
<text text-anchor="middle" x="895" y="-237.5" font-family="Helvetica,sans-Serif" font-size="10.00">Prism::scale_pri</text>
</a>
</g>
</g>
<!-- Node23&#45;&gt;Node24 -->
<g id="edge45" class="edge">
<title>Node23&#45;&gt;Node24</title>
<path fill="none" stroke="midnightblue" d="M995.3,-242.28C977.26,-241.86 958.51,-241.43 942.24,-241.06"/>
<polygon fill="midnightblue" stroke="midnightblue" points="995.45,-245.78 1005.52,-242.51 995.61,-238.78 995.45,-245.78"/>
</g>
<!-- Node24&#45;&gt;Node4 -->
<g id="edge47" class="edge">
<title>Node24&#45;&gt;Node4</title>
<path fill="none" stroke="midnightblue" d="M876.18,-256.88C858.96,-274.26 833.55,-303 820,-333 782.46,-416.11 838.97,-462.24 784,-535 738.71,-594.95 695.23,-568.41 632,-609 597.16,-631.36 560.66,-664.28 543.52,-680.39"/>
<polygon fill="midnightblue" stroke="midnightblue" points="878.77,-259.23 883.44,-249.72 873.86,-254.25 878.77,-259.23"/>
</g>
<!-- Node24&#45;&gt;Node12 -->
<g id="edge51" class="edge">
<title>Node24&#45;&gt;Node12</title>
<path fill="none" stroke="midnightblue" d="M840.09,-228.45C822.3,-224.98 802.37,-221.44 784,-219 716.12,-209.98 637.28,-204.87 586.46,-202.28"/>
<polygon fill="midnightblue" stroke="midnightblue" points="839.8,-231.96 850.29,-230.48 841.17,-225.1 839.8,-231.96"/>
</g>
<!-- Node25 -->
<g id="node25" class="node">
<title>Node25</title>
<g id="a_node25"><a xlink:href="class_circus.html#a5aab1830e67f62f80525d04de23db7da" target="_top" xlink:title="Konstruktor parametryczny klasy Circus. Powstaje ostroslup jak z konstruktora parametrycznego,...">
<polygon fill="none" stroke="black" points="666.5,-152.5 666.5,-171.5 749.5,-171.5 749.5,-152.5 666.5,-152.5"/>
<text text-anchor="middle" x="708" y="-159.5" font-family="Helvetica,sans-Serif" font-size="10.00">Circus::Circus</text>
</a>
</g>
</g>
<!-- Node24&#45;&gt;Node25 -->
<g id="edge46" class="edge">
<title>Node24&#45;&gt;Node25</title>
<path fill="none" stroke="midnightblue" d="M867.42,-225.58C845.44,-214 813.22,-197.77 784,-186 770.69,-180.64 755.68,-175.63 742.6,-171.6"/>
<polygon fill="midnightblue" stroke="midnightblue" points="865.98,-228.78 876.46,-230.39 869.27,-222.6 865.98,-228.78"/>
</g>
<!-- Node26 -->
<g id="node26" class="node">
<title>Node26</title>
<g id="a_node26"><a xlink:href="class_prism.html#aa84930a585c7817f74a14d95ea74cb5a" target="_top" xlink:title="Konstruktor bezparametryczny klasy Prism. Powstaly granistoslup ma podstawy &quot;tworzace&quot;:">
<polygon fill="none" stroke="black" points="669,-114.5 669,-133.5 747,-133.5 747,-114.5 669,-114.5"/>
<text text-anchor="middle" x="708" y="-121.5" font-family="Helvetica,sans-Serif" font-size="10.00">Prism::Prism</text>
</a>
</g>
</g>
<!-- Node24&#45;&gt;Node26 -->
<g id="edge48" class="edge">
<title>Node24&#45;&gt;Node26</title>
<path fill="none" stroke="midnightblue" d="M879.37,-222.8C859.83,-200.97 823.14,-163.65 784,-143 772.71,-137.05 759.48,-132.9 747.29,-130.03"/>
<polygon fill="midnightblue" stroke="midnightblue" points="876.76,-225.14 885.98,-230.35 882.02,-220.52 876.76,-225.14"/>
</g>
<!-- Node27 -->
<g id="node27" class="node">
<title>Node27</title>
<g id="a_node27"><a xlink:href="class_drone.html#a77142062fb8a8af87df42b5c2e7e44e0" target="_top" xlink:title="Metoda skalujaca wszystkie elementy drona przez skale kazdego elementu">
<polygon fill="none" stroke="black" points="659,-304.5 659,-323.5 757,-323.5 757,-304.5 659,-304.5"/>
<text text-anchor="middle" x="708" y="-311.5" font-family="Helvetica,sans-Serif" font-size="10.00">Drone::scale_dro</text>
</a>
</g>
</g>
<!-- Node24&#45;&gt;Node27 -->
<g id="edge49" class="edge">
<title>Node24&#45;&gt;Node27</title>
<path fill="none" stroke="midnightblue" d="M868.79,-254.57C846.93,-266.72 814.16,-283.79 784,-295 774.31,-298.6 763.66,-301.76 753.51,-304.41"/>
<polygon fill="midnightblue" stroke="midnightblue" points="870.73,-257.49 877.73,-249.54 867.3,-251.39 870.73,-257.49"/>
</g>
<!-- Node28 -->
<g id="node28" class="node">
<title>Node28</title>
<g id="a_node28"><a xlink:href="class_tent.html#a6831febfd74474f567f4419091883512" target="_top" xlink:title="Konstruktor parametryczny klasy Tent. Powstaje ostroslup jak z konstruktora parametrycznego,...">
<polygon fill="none" stroke="black" points="676.5,-266.5 676.5,-285.5 739.5,-285.5 739.5,-266.5 676.5,-266.5"/>
<text text-anchor="middle" x="708" y="-273.5" font-family="Helvetica,sans-Serif" font-size="10.00">Tent::Tent</text>
</a>
</g>
</g>
<!-- Node24&#45;&gt;Node28 -->
<g id="edge52" class="edge">
<title>Node24&#45;&gt;Node28</title>
<path fill="none" stroke="midnightblue" d="M837.59,-250.98C805.34,-257.25 766.16,-264.88 739.58,-270.05"/>
<polygon fill="midnightblue" stroke="midnightblue" points="838.65,-254.34 847.79,-248.99 837.31,-247.47 838.65,-254.34"/>
</g>
<!-- Node29 -->
<g id="node29" class="node">
<title>Node29</title>
<g id="a_node29"><a xlink:href="class_volcano.html#a1324b87f13755c4b12b54485352c5b8d" target="_top" xlink:title="Konstruktor parametryczny klasy Volcano. Powstaje ostroslup jak z konstruktora parametrycznego,...">
<polygon fill="none" stroke="black" points="658.5,-228.5 658.5,-247.5 757.5,-247.5 757.5,-228.5 658.5,-228.5"/>
<text text-anchor="middle" x="708" y="-235.5" font-family="Helvetica,sans-Serif" font-size="10.00">Volcano::Volcano</text>
</a>
</g>
</g>
<!-- Node24&#45;&gt;Node29 -->
<g id="edge53" class="edge">
<title>Node24&#45;&gt;Node29</title>
<path fill="none" stroke="midnightblue" d="M837.5,-239.39C811.95,-239.11 782.05,-238.79 757.52,-238.52"/>
<polygon fill="midnightblue" stroke="midnightblue" points="837.76,-242.89 847.79,-239.5 837.83,-235.89 837.76,-242.89"/>
</g>
<!-- Node27&#45;&gt;Node20 -->
<g id="edge50" class="edge">
<title>Node27&#45;&gt;Node20</title>
<path fill="none" stroke="midnightblue" d="M656.87,-302.15C630.28,-295.87 598.06,-288.26 573.22,-282.39"/>
<polygon fill="midnightblue" stroke="midnightblue" points="656.22,-305.6 666.76,-304.49 657.83,-298.78 656.22,-305.6"/>
</g>
</g>
</svg>
