<?xml version="1.0" encoding="UTF-8" standalone="no"?>
<!DOCTYPE svg PUBLIC "-//W3C//DTD SVG 1.1//EN"
 "http://www.w3.org/Graphics/SVG/1.1/DTD/svg11.dtd">
<!-- Generated by graphviz version 2.43.0 (0)
 -->
<!-- Title: Prism::translation Pages: 1 -->
<!--zoomable 396 -->
<svg id="main" version="1.1" xmlns="http://www.w3.org/2000/svg" xmlns:xlink="http://www.w3.org/1999/xlink" xml:space="preserve" onload="init(evt)">
<style type="text/css"><![CDATA[
.edge:hover path { stroke: red; }
.edge:hover polygon { stroke: red; fill: red; }
]]></style>
<script type="text/javascript"><![CDATA[
var edges = document.getElementsByTagName('g');
if (edges && edges.length) {
  for (var i=0;i<edges.length;i++) {
    if (edges[i].id.substr(0,4)=='edge') {
      edges[i].setAttribute('class','edge');
    }
  }
}
]]></script>
        <defs>
                <circle id="rim" cx="0" cy="0" r="7"/>
                <circle id="rim2" cx="0" cy="0" r="3.5"/>
                <g id="zoomPlus">
                        <use xlink:href="#rim" fill="#404040">
                                <set attributeName="fill" to="#808080" begin="zoomplus.mouseover" end="zoomplus.mouseout"/>
                        </use>
                        <path d="M-4,0h8M0,-4v8" fill="none" stroke="white" stroke-width="1.5" pointer-events="none"/>
                </g>
                <g id="zoomMin">
                        <use xlink:href="#rim" fill="#404040">
                                <set attributeName="fill" to="#808080" begin="zoomminus.mouseover" end="zoomminus.mouseout"/>
                        </use>
                        <path d="M-4,0h8" fill="none" stroke="white" stroke-width="1.5" pointer-events="none"/>
                </g>
                <g id="dirArrow">
                        <path fill="none" stroke="white" stroke-width="1.5" d="M0,-3.0v7 M-2.5,-0.5L0,-3.0L2.5,-0.5"/>
                </g>
               <g id="resetDef">
                       <use xlink:href="#rim2" fill="#404040">
                               <set attributeName="fill" to="#808080" begin="reset.mouseover" end="reset.mouseout"/>
                       </use>
               </g>
        </defs>

<script type="text/javascript">
var viewWidth = 1141;
var viewHeight = 396;
var sectionId = 'dynsection-40';
</script>
<script xlink:href="svgpan.js"/>
<svg id="graph" class="graph">
<g id="viewport">
<title>Prism::translation</title>
<!-- Node1 -->
<g id="node1" class="node">
<title>Node1</title>
<g id="a_node1"><a xlink:title="Metoda przesuwajaca graniastoslup o zadany wektor w 3D">
<polygon fill="#bfbfbf" stroke="black" points="1030,-240 1030,-259 1133,-259 1133,-240 1030,-240"/>
<text text-anchor="middle" x="1081.5" y="-247" font-family="Helvetica,sans-Serif" font-size="10.00">Prism::translation</text>
</a>
</g>
</g>
<!-- Node2 -->
<g id="node2" class="node">
<title>Node2</title>
<g id="a_node2"><a xlink:href="class_prism.html#a22c5467db5d960bddbaf9a52f55c55cb" target="_top" xlink:title="Metoda obracajaca graniastoslup o zadany kat w 3D wokol srodka figury">
<polygon fill="none" stroke="black" points="677,-278 677,-297 827,-297 827,-278 677,-278"/>
<text text-anchor="middle" x="752" y="-285" font-family="Helvetica,sans-Serif" font-size="10.00">Prism::rotation_around_cen</text>
</a>
</g>
</g>
<!-- Node1&#45;&gt;Node2 -->
<g id="edge1" class="edge">
<title>Node1&#45;&gt;Node2</title>
<path fill="none" stroke="midnightblue" d="M1032.61,-261.25C1020.11,-263.98 1006.6,-266.63 994,-268.5 938.37,-276.76 874.95,-281.58 827.13,-284.3"/>
<polygon fill="midnightblue" stroke="midnightblue" points="1033.39,-264.66 1042.39,-259.06 1031.86,-257.83 1033.39,-264.66"/>
</g>
<!-- Node11 -->
<g id="node11" class="node">
<title>Node11</title>
<g id="a_node11"><a xlink:href="class_prism.html#a8a80c4334810ad934e6e43bb5ee14f07" target="_top" xlink:title="Zmiana pozycji obiektu na plaszczyznie XY na nowe wspolrzedne.">
<polygon fill="none" stroke="black" points="876.5,-164 876.5,-183 980.5,-183 980.5,-164 876.5,-164"/>
<text text-anchor="middle" x="928.5" y="-171" font-family="Helvetica,sans-Serif" font-size="10.00">Prism::switch_pos</text>
</a>
</g>
</g>
<!-- Node1&#45;&gt;Node11 -->
<g id="edge17" class="edge">
<title>Node1&#45;&gt;Node11</title>
<path fill="none" stroke="midnightblue" d="M1060.54,-233.87C1043.63,-221.25 1018.31,-203.78 994,-192.5 986.06,-188.81 977.23,-185.66 968.73,-183.04"/>
<polygon fill="midnightblue" stroke="midnightblue" points="1058.5,-236.71 1068.57,-239.97 1062.73,-231.13 1058.5,-236.71"/>
</g>
<!-- Node12 -->
<g id="node12" class="node">
<title>Node12</title>
<g id="a_node12"><a xlink:href="class_drone.html#a9684cd7ce04b7e6191f3d6b3a745370b" target="_top" xlink:title="Przesuwa drona o zadany wektor w 3D">
<polygon fill="none" stroke="black" points="876.5,-202 876.5,-221 980.5,-221 980.5,-202 876.5,-202"/>
<text text-anchor="middle" x="928.5" y="-209" font-family="Helvetica,sans-Serif" font-size="10.00">Drone::translation</text>
</a>
</g>
</g>
<!-- Node1&#45;&gt;Node12 -->
<g id="edge18" class="edge">
<title>Node1&#45;&gt;Node12</title>
<path fill="none" stroke="midnightblue" d="M1032.66,-237.46C1011.56,-232.15 987.12,-226 967.33,-221.02"/>
<polygon fill="midnightblue" stroke="midnightblue" points="1031.84,-240.86 1042.4,-239.91 1033.55,-234.08 1031.84,-240.86"/>
</g>
<!-- Node15 -->
<g id="node15" class="node">
<title>Node15</title>
<g id="a_node15"><a xlink:href="class_prism.html#a4e2b0b9c37d6a53af869522a4bf364ac" target="_top" xlink:title="Metoda przesuwajaca graniastoslup o zadany wektor w 3D w taki sposob, ze srodek jego dolnej podstawy ...">
<polygon fill="none" stroke="black" points="877,-332.5 877,-362.5 980,-362.5 980,-332.5 877,-332.5"/>
<text text-anchor="start" x="885" y="-350.5" font-family="Helvetica,sans-Serif" font-size="10.00">Prism::translation</text>
<text text-anchor="middle" x="928.5" y="-339.5" font-family="Helvetica,sans-Serif" font-size="10.00">_of_lower_cen</text>
</a>
</g>
</g>
<!-- Node1&#45;&gt;Node15 -->
<g id="edge25" class="edge">
<title>Node1&#45;&gt;Node15</title>
<path fill="none" stroke="midnightblue" d="M1057.25,-264.59C1028.83,-283.04 981.02,-314.06 952.64,-332.48"/>
<polygon fill="midnightblue" stroke="midnightblue" points="1059.26,-267.46 1065.75,-259.08 1055.45,-261.58 1059.26,-267.46"/>
</g>
<!-- Node17 -->
<g id="node17" class="node">
<title>Node17</title>
<g id="a_node17"><a xlink:href="class_prism.html#afed2c26932d5cb152fd620d2acbfbc3e" target="_top" xlink:title="Metoda przesuwajaca graniastoslup do srodka ukladu wspolrzednych (tak, ze srodek graniastoslupa pokry...">
<polygon fill="none" stroke="black" points="863,-240 863,-259 994,-259 994,-240 863,-240"/>
<text text-anchor="middle" x="928.5" y="-247" font-family="Helvetica,sans-Serif" font-size="10.00">Prism::translation_to_O</text>
</a>
</g>
</g>
<!-- Node1&#45;&gt;Node17 -->
<g id="edge30" class="edge">
<title>Node1&#45;&gt;Node17</title>
<path fill="none" stroke="midnightblue" d="M1019.66,-249.5C1011.21,-249.5 1002.52,-249.5 994.01,-249.5"/>
<polygon fill="midnightblue" stroke="midnightblue" points="1019.8,-253 1029.8,-249.5 1019.8,-246 1019.8,-253"/>
</g>
<!-- Node3 -->
<g id="node3" class="node">
<title>Node3</title>
<g id="a_node3"><a xlink:href="class_drone.html#ad42bc54902df967b94717617aca1a974" target="_top" xlink:title="Metoda obracajaca dron o zadany kat w 3D wokol srodka figury">
<polygon fill="none" stroke="black" points="489,-354 489,-373 641,-373 641,-354 489,-354"/>
<text text-anchor="middle" x="565" y="-361" font-family="Helvetica,sans-Serif" font-size="10.00">Drone::rotation_around_cen</text>
</a>
</g>
</g>
<!-- Node2&#45;&gt;Node3 -->
<g id="edge2" class="edge">
<title>Node2&#45;&gt;Node3</title>
<path fill="none" stroke="midnightblue" d="M718.21,-300.97C681.16,-316.19 621.8,-340.58 589.24,-353.95"/>
<polygon fill="midnightblue" stroke="midnightblue" points="719.65,-304.16 727.57,-297.13 716.99,-297.69 719.65,-304.16"/>
</g>
<!-- Node10 -->
<g id="node10" class="node">
<title>Node10</title>
<g id="a_node10"><a xlink:href="class_drone.html#aedb04b80609b22ff4eb4a957bc149a48" target="_top" xlink:title="Metoda animujaca obrot rotorow i zapisujaca to w plikach. Metoda sluzy jako metoda pomocnicza,...">
<polygon fill="none" stroke="black" points="326,-219.5 326,-249.5 453,-249.5 453,-219.5 326,-219.5"/>
<text text-anchor="start" x="334" y="-237.5" font-family="Helvetica,sans-Serif" font-size="10.00">Drone::Rotors_rotation</text>
<text text-anchor="middle" x="389.5" y="-226.5" font-family="Helvetica,sans-Serif" font-size="10.00">_animation</text>
</a>
</g>
</g>
<!-- Node2&#45;&gt;Node10 -->
<g id="edge12" class="edge">
<title>Node2&#45;&gt;Node10</title>
<path fill="none" stroke="midnightblue" d="M666.76,-286.93C615.02,-285.22 547.64,-280.53 489,-268.5 467.91,-264.17 445.14,-256.52 426.82,-249.57"/>
<polygon fill="midnightblue" stroke="midnightblue" points="666.79,-290.44 676.89,-287.24 667,-283.44 666.79,-290.44"/>
</g>
<!-- Node4 -->
<g id="node4" class="node">
<title>Node4</title>
<g id="a_node4"><a xlink:href="class_drone.html#ab692baa4be5c43b72990ce1b01bdc805" target="_top" xlink:title="Konstruktor bezparametryczny klasy Drone. Powstaly dron jest skonstruowany z bezparametrycznych prost...">
<polygon fill="none" stroke="black" points="349,-354 349,-373 430,-373 430,-354 349,-354"/>
<text text-anchor="middle" x="389.5" y="-361" font-family="Helvetica,sans-Serif" font-size="10.00">Drone::Drone</text>
</a>
</g>
</g>
<!-- Node3&#45;&gt;Node4 -->
<g id="edge3" class="edge">
<title>Node3&#45;&gt;Node4</title>
<path fill="none" stroke="midnightblue" d="M478.47,-363.5C461.65,-363.5 444.77,-363.5 430.36,-363.5"/>
<polygon fill="midnightblue" stroke="midnightblue" points="478.91,-367 488.91,-363.5 478.91,-360 478.91,-367"/>
</g>
<!-- Node5 -->
<g id="node5" class="node">
<title>Node5</title>
<g id="a_node5"><a xlink:href="class_drone.html#af03af60a9b92e4191a7e66b5c20b52bb" target="_top" xlink:title="Metoda zamieniajaca drona na tego z pliku sample.">
<polygon fill="none" stroke="black" points="328.5,-160.5 328.5,-190.5 450.5,-190.5 450.5,-160.5 328.5,-160.5"/>
<text text-anchor="start" x="336.5" y="-178.5" font-family="Helvetica,sans-Serif" font-size="10.00">Drone::Drone_change</text>
<text text-anchor="middle" x="389.5" y="-167.5" font-family="Helvetica,sans-Serif" font-size="10.00">_to_sample</text>
</a>
</g>
</g>
<!-- Node3&#45;&gt;Node5 -->
<g id="edge4" class="edge">
<title>Node3&#45;&gt;Node5</title>
<path fill="none" stroke="midnightblue" d="M501.66,-349.29C497,-346.57 492.69,-343.34 489,-339.5 447.45,-296.28 490.29,-256.44 453,-209.5 446.85,-201.76 438.44,-195.54 429.79,-190.64"/>
<polygon fill="midnightblue" stroke="midnightblue" points="500.44,-352.59 510.95,-353.89 503.55,-346.32 500.44,-352.59"/>
</g>
<!-- Node7 -->
<g id="node7" class="node">
<title>Node7</title>
<g id="a_node7"><a xlink:href="class_drone.html#af052f6bb793d1229b99b16b800b95b82" target="_top" xlink:title="Metoda animujaca obrot drona i wyrysowujaca calosc w gnuplocie.">
<polygon fill="none" stroke="black" points="156.5,-263.5 156.5,-293.5 281.5,-293.5 281.5,-263.5 156.5,-263.5"/>
<text text-anchor="start" x="164.5" y="-281.5" font-family="Helvetica,sans-Serif" font-size="10.00">Drone::Drone_rotation</text>
<text text-anchor="middle" x="219" y="-270.5" font-family="Helvetica,sans-Serif" font-size="10.00">_animation</text>
</a>
</g>
</g>
<!-- Node3&#45;&gt;Node7 -->
<g id="edge10" class="edge">
<title>Node3&#45;&gt;Node7</title>
<path fill="none" stroke="midnightblue" d="M515.69,-351.56C454.13,-336.35 347.7,-310.05 280.72,-293.5"/>
<polygon fill="midnightblue" stroke="midnightblue" points="514.99,-355 525.54,-354 516.67,-348.2 514.99,-355"/>
</g>
<!-- Node8 -->
<g id="node8" class="node">
<title>Node8</title>
<g id="a_node8"><a xlink:href="class_drone.html#ab7808296cec81143dbddd7516340a371" target="_top" xlink:title="Metoda robiaca &quot;oblot&quot; drona wokol punktu (z modyfikacji)">
<polygon fill="none" stroke="black" points="148,-187 148,-206 290,-206 290,-187 148,-187"/>
<text text-anchor="middle" x="219" y="-194" font-family="Helvetica,sans-Serif" font-size="10.00">Drone::Drone_roundabout</text>
</a>
</g>
</g>
<!-- Node3&#45;&gt;Node8 -->
<g id="edge11" class="edge">
<title>Node3&#45;&gt;Node8</title>
<path fill="none" stroke="midnightblue" d="M511.81,-350.58C503.87,-347.55 495.99,-343.9 489,-339.5 469.3,-327.12 472.59,-314.04 453,-301.5 402.81,-269.37 380.22,-283.23 326,-258.5 291.67,-242.84 254.14,-219.2 234.24,-206.1"/>
<polygon fill="midnightblue" stroke="midnightblue" points="510.89,-353.96 521.48,-353.96 513.2,-347.35 510.89,-353.96"/>
</g>
<!-- Node6 -->
<g id="node6" class="node">
<title>Node6</title>
<g id="a_node6"><a xlink:href="class_drone.html#ac4d24c27fb2c107d2e8bda0c2bf5cfa1" target="_top" xlink:title="Metoda obliczajaca i przeprowadzajaca caly ruch drona (obrot o kat i przelot z zadania 5....">
<polygon fill="none" stroke="black" points="0,-156.5 0,-186.5 112,-186.5 112,-156.5 0,-156.5"/>
<text text-anchor="start" x="8" y="-174.5" font-family="Helvetica,sans-Serif" font-size="10.00">Drone::Drone_basic</text>
<text text-anchor="middle" x="56" y="-163.5" font-family="Helvetica,sans-Serif" font-size="10.00">_motion</text>
</a>
</g>
</g>
<!-- Node5&#45;&gt;Node6 -->
<g id="edge5" class="edge">
<title>Node5&#45;&gt;Node6</title>
<path fill="none" stroke="midnightblue" d="M342.24,-156.26C336.72,-153.75 331.2,-151.13 326,-148.5 309.47,-140.15 307.88,-132.33 290,-127.5 229.08,-111.03 209.52,-113.41 148,-127.5 123.71,-133.06 98.37,-145.99 80.61,-156.41"/>
<polygon fill="midnightblue" stroke="midnightblue" points="340.92,-159.5 351.48,-160.38 343.77,-153.11 340.92,-159.5"/>
</g>
<!-- Node5&#45;&gt;Node7 -->
<g id="edge6" class="edge">
<title>Node5&#45;&gt;Node7</title>
<path fill="none" stroke="midnightblue" d="M350.59,-195.5C342.41,-199.99 333.86,-204.81 326,-209.5 296.39,-227.15 263.23,-249.11 242.01,-263.44"/>
<polygon fill="midnightblue" stroke="midnightblue" points="352.49,-198.45 359.61,-190.6 349.15,-192.3 352.49,-198.45"/>
</g>
<!-- Node5&#45;&gt;Node8 -->
<g id="edge8" class="edge">
<title>Node5&#45;&gt;Node8</title>
<path fill="none" stroke="midnightblue" d="M317.93,-184.29C308.78,-185.44 299.41,-186.6 290.27,-187.74"/>
<polygon fill="midnightblue" stroke="midnightblue" points="318.65,-187.73 328.14,-183.02 317.79,-180.79 318.65,-187.73"/>
</g>
<!-- Node9 -->
<g id="node9" class="node">
<title>Node9</title>
<g id="a_node9"><a xlink:href="class_drone.html#a5fc9dd645ad3856b5d3c501c63c464e3" target="_top" xlink:title="Metoda animujaca translacje drona i wyrysowujaca calosc w gnuplocie.">
<polygon fill="none" stroke="black" points="149.5,-137.5 149.5,-167.5 288.5,-167.5 288.5,-137.5 149.5,-137.5"/>
<text text-anchor="start" x="157.5" y="-155.5" font-family="Helvetica,sans-Serif" font-size="10.00">Drone::Drone_translation</text>
<text text-anchor="middle" x="219" y="-144.5" font-family="Helvetica,sans-Serif" font-size="10.00">_animation</text>
</a>
</g>
</g>
<!-- Node5&#45;&gt;Node9 -->
<g id="edge9" class="edge">
<title>Node5&#45;&gt;Node9</title>
<path fill="none" stroke="midnightblue" d="M318.07,-165.89C308.3,-164.55 298.27,-163.18 288.53,-161.85"/>
<polygon fill="midnightblue" stroke="midnightblue" points="317.76,-169.38 328.14,-167.26 318.71,-162.44 317.76,-169.38"/>
</g>
<!-- Node7&#45;&gt;Node6 -->
<g id="edge7" class="edge">
<title>Node7&#45;&gt;Node6</title>
<path fill="none" stroke="midnightblue" d="M167.75,-259.13C160.94,-255.89 154.19,-252.32 148,-248.5 118.78,-230.44 89.19,-203.42 72,-186.66"/>
<polygon fill="midnightblue" stroke="midnightblue" points="166.44,-262.38 176.99,-263.34 169.34,-256.01 166.44,-262.38"/>
</g>
<!-- Node10&#45;&gt;Node6 -->
<g id="edge13" class="edge">
<title>Node10&#45;&gt;Node6</title>
<path fill="none" stroke="midnightblue" d="M315.83,-235.71C267.49,-234.83 203.01,-230.4 148,-215.5 124.46,-209.12 99.65,-196.7 81.9,-186.67"/>
<polygon fill="midnightblue" stroke="midnightblue" points="315.84,-239.21 325.89,-235.85 315.94,-232.21 315.84,-239.21"/>
</g>
<!-- Node10&#45;&gt;Node7 -->
<g id="edge14" class="edge">
<title>Node10&#45;&gt;Node7</title>
<path fill="none" stroke="midnightblue" d="M321.12,-252.09C306.69,-255.86 291.57,-259.81 277.54,-263.47"/>
<polygon fill="midnightblue" stroke="midnightblue" points="322.19,-255.43 330.98,-249.52 320.42,-248.66 322.19,-255.43"/>
</g>
<!-- Node10&#45;&gt;Node8 -->
<g id="edge15" class="edge">
<title>Node10&#45;&gt;Node8</title>
<path fill="none" stroke="midnightblue" d="M315.98,-218.14C297.67,-214.02 278.6,-209.72 262.34,-206.05"/>
<polygon fill="midnightblue" stroke="midnightblue" points="315.23,-221.56 325.76,-220.35 316.77,-214.74 315.23,-221.56"/>
</g>
<!-- Node10&#45;&gt;Node9 -->
<g id="edge16" class="edge">
<title>Node10&#45;&gt;Node9</title>
<path fill="none" stroke="midnightblue" d="M352.23,-214.5C343.6,-209.65 334.44,-204.44 326,-199.5 309.82,-190.03 306.92,-185.58 290,-177.5 282.55,-173.94 274.45,-170.6 266.49,-167.58"/>
<polygon fill="midnightblue" stroke="midnightblue" points="350.55,-217.57 360.99,-219.39 353.97,-211.46 350.55,-217.57"/>
</g>
<!-- Node13 -->
<g id="node13" class="node">
<title>Node13</title>
<g id="a_node13"><a xlink:href="class_drone.html#a6662bd8203e8c9a0721c457b3612a7c1" target="_top" xlink:title="Metoda uzywana przy konstruowania drona przesuwa drona w ten sposob, ze Vector3D centre prostopadlosc...">
<polygon fill="none" stroke="black" points="513,-0.5 513,-30.5 617,-30.5 617,-0.5 513,-0.5"/>
<text text-anchor="start" x="521" y="-18.5" font-family="Helvetica,sans-Serif" font-size="10.00">Drone::translation</text>
<text text-anchor="middle" x="565" y="-7.5" font-family="Helvetica,sans-Serif" font-size="10.00">_to_pos</text>
</a>
</g>
</g>
<!-- Node12&#45;&gt;Node13 -->
<g id="edge19" class="edge">
<title>Node12&#45;&gt;Node13</title>
<path fill="none" stroke="midnightblue" d="M873.9,-198.16C870.1,-196.48 866.43,-194.6 863,-192.5 843.16,-180.35 845.07,-169.15 827,-154.5 751.68,-93.45 728.9,-81.43 641,-40.5 633.29,-36.91 624.91,-33.59 616.64,-30.62"/>
<polygon fill="midnightblue" stroke="midnightblue" points="872.9,-201.53 883.49,-201.93 875.47,-195.02 872.9,-201.53"/>
</g>
<!-- Node13&#45;&gt;Node5 -->
<g id="edge21" class="edge">
<title>Node13&#45;&gt;Node5</title>
<path fill="none" stroke="midnightblue" d="M503.51,-29.84C498.19,-32.76 493.23,-36.27 489,-40.5 453.22,-76.28 487.21,-111.22 453,-148.5 448.68,-153.2 443.41,-157.12 437.77,-160.38"/>
<polygon fill="midnightblue" stroke="midnightblue" points="505.2,-32.91 512.74,-25.47 502.21,-26.59 505.2,-32.91"/>
</g>
<!-- Node13&#45;&gt;Node6 -->
<g id="edge20" class="edge">
<title>Node13&#45;&gt;Node6</title>
<path fill="none" stroke="midnightblue" d="M502.53,-14.03C453.91,-14.27 384.69,-17.71 326,-32.5 241.9,-53.69 224.17,-71.01 148,-112.5 123.2,-126.01 96.22,-143.94 78.13,-156.48"/>
<polygon fill="midnightblue" stroke="midnightblue" points="502.58,-17.53 512.58,-14.03 502.58,-10.53 502.58,-17.53"/>
</g>
<!-- Node13&#45;&gt;Node8 -->
<g id="edge22" class="edge">
<title>Node13&#45;&gt;Node8</title>
<path fill="none" stroke="midnightblue" d="M503.25,-33.45C498.32,-35.59 493.51,-37.94 489,-40.5 470.64,-50.92 471.48,-61.3 453,-71.5 401.31,-100.04 371.74,-73.16 326,-110.5 300.12,-131.63 316.09,-155.62 290,-176.5 284.57,-180.84 278.25,-184.24 271.66,-186.91"/>
<polygon fill="midnightblue" stroke="midnightblue" points="504.86,-36.57 512.82,-29.57 502.23,-30.08 504.86,-36.57"/>
</g>
<!-- Node13&#45;&gt;Node9 -->
<g id="edge23" class="edge">
<title>Node13&#45;&gt;Node9</title>
<path fill="none" stroke="midnightblue" d="M503.07,-25.1C453.72,-34.33 383.23,-50.88 326,-77.5 291.86,-93.38 257.16,-120.45 237.15,-137.36"/>
<polygon fill="midnightblue" stroke="midnightblue" points="503.75,-28.53 512.96,-23.29 502.5,-21.65 503.75,-28.53"/>
</g>
<!-- Node14 -->
<g id="node14" class="node">
<title>Node14</title>
<g id="a_node14"><a xlink:href="class_scene.html#adca9214dccab3d77eed9d8af7db67f94" target="_top" xlink:title="Konstruktor paramereyczny klasy Scene.">
<polygon fill="none" stroke="black" points="349,-120 349,-139 430,-139 430,-120 349,-120"/>
<text text-anchor="middle" x="389.5" y="-127" font-family="Helvetica,sans-Serif" font-size="10.00">Scene::Scene</text>
</a>
</g>
</g>
<!-- Node13&#45;&gt;Node14 -->
<g id="edge24" class="edge">
<title>Node13&#45;&gt;Node14</title>
<path fill="none" stroke="midnightblue" d="M503.41,-31.12C498.25,-33.78 493.35,-36.88 489,-40.5 463.6,-61.61 477.92,-83.83 453,-105.5 445.81,-111.75 436.81,-116.46 427.9,-119.98"/>
<polygon fill="midnightblue" stroke="midnightblue" points="505.25,-34.13 512.9,-26.8 502.35,-27.76 505.25,-34.13"/>
</g>
<!-- Node16 -->
<g id="node16" class="node">
<title>Node16</title>
<g id="a_node16"><a xlink:href="class_drone.html#aea963b77f42c204504542a3d9190d762" target="_top" xlink:title="Metoda uzywana przy konstruowania drona Ustawia rotory w ten sposob, ze srodek ich dolnej podstawy je...">
<polygon fill="none" stroke="black" points="694.5,-340.5 694.5,-370.5 809.5,-370.5 809.5,-340.5 694.5,-340.5"/>
<text text-anchor="start" x="702.5" y="-358.5" font-family="Helvetica,sans-Serif" font-size="10.00">Drone::set_rotors_in</text>
<text text-anchor="middle" x="752" y="-347.5" font-family="Helvetica,sans-Serif" font-size="10.00">_place</text>
</a>
</g>
</g>
<!-- Node15&#45;&gt;Node16 -->
<g id="edge26" class="edge">
<title>Node15&#45;&gt;Node16</title>
<path fill="none" stroke="midnightblue" d="M866.48,-350.3C847.96,-351.15 827.71,-352.07 809.51,-352.91"/>
<polygon fill="midnightblue" stroke="midnightblue" points="866.73,-353.79 876.56,-349.84 866.41,-346.8 866.73,-353.79"/>
</g>
<!-- Node16&#45;&gt;Node3 -->
<g id="edge28" class="edge">
<title>Node16&#45;&gt;Node3</title>
<path fill="none" stroke="midnightblue" d="M684.46,-358.38C670.44,-358.98 655.56,-359.63 641.25,-360.25"/>
<polygon fill="midnightblue" stroke="midnightblue" points="684.65,-361.87 694.49,-357.94 684.35,-354.88 684.65,-361.87"/>
</g>
<!-- Node16&#45;&gt;Node4 -->
<g id="edge27" class="edge">
<title>Node16&#45;&gt;Node4</title>
<path fill="none" stroke="midnightblue" d="M691,-372.99C674.9,-376.92 657.41,-380.52 641,-382.5 573.93,-390.61 556.25,-388.93 489,-382.5 469.41,-380.63 447.92,-376.71 430.03,-372.91"/>
<polygon fill="midnightblue" stroke="midnightblue" points="691.98,-376.36 700.82,-370.51 690.26,-369.57 691.98,-376.36"/>
</g>
<!-- Node16&#45;&gt;Node14 -->
<g id="edge29" class="edge">
<title>Node16&#45;&gt;Node14</title>
<path fill="none" stroke="midnightblue" d="M684.29,-350.28C625.24,-342.17 540.66,-321.44 489,-268.5 450.71,-229.26 491.22,-189.81 453,-150.5 446.78,-144.1 438.54,-139.65 430.1,-136.56"/>
<polygon fill="midnightblue" stroke="midnightblue" points="683.9,-353.76 694.26,-351.57 684.79,-346.82 683.9,-353.76"/>
</g>
<!-- Node17&#45;&gt;Node2 -->
<g id="edge31" class="edge">
<title>Node17&#45;&gt;Node2</title>
<path fill="none" stroke="midnightblue" d="M873.53,-261.25C848.86,-266.63 820.01,-272.91 796.72,-277.98"/>
<polygon fill="midnightblue" stroke="midnightblue" points="874.44,-264.64 883.47,-259.09 872.95,-257.8 874.44,-264.64"/>
</g>
<!-- Node18 -->
<g id="node18" class="node">
<title>Node18</title>
<g id="a_node18"><a xlink:href="class_prism.html#a07f15c416c9f9c54390bb8737b441a35" target="_top" xlink:title="Metoda skalujaca o wektor scale bedacy czlonkiem klasy block">
<polygon fill="none" stroke="black" points="705,-164 705,-183 799,-183 799,-164 705,-164"/>
<text text-anchor="middle" x="752" y="-171" font-family="Helvetica,sans-Serif" font-size="10.00">Prism::scale_pri</text>
</a>
</g>
</g>
<!-- Node17&#45;&gt;Node18 -->
<g id="edge32" class="edge">
<title>Node17&#45;&gt;Node18</title>
<path fill="none" stroke="midnightblue" d="M881.03,-236.98C874.9,-234.99 868.76,-232.81 863,-230.5 828.28,-216.54 789.94,-195.22 768.94,-183"/>
<polygon fill="midnightblue" stroke="midnightblue" points="880,-240.32 890.58,-239.95 882.07,-233.64 880,-240.32"/>
</g>
<!-- Node18&#45;&gt;Node4 -->
<g id="edge34" class="edge">
<title>Node18&#45;&gt;Node4</title>
<path fill="none" stroke="midnightblue" d="M694.51,-183.6C622.75,-196.77 506.14,-219.42 489,-230.5 439.29,-262.63 405.8,-329.17 394.62,-353.94"/>
<polygon fill="midnightblue" stroke="midnightblue" points="695.54,-186.97 704.75,-181.73 694.29,-180.09 695.54,-186.97"/>
</g>
<!-- Node19 -->
<g id="node19" class="node">
<title>Node19</title>
<g id="a_node19"><a xlink:href="class_circus.html#a5aab1830e67f62f80525d04de23db7da" target="_top" xlink:title="Konstruktor parametryczny klasy Circus. Powstaje ostroslup jak z konstruktora parametrycznego,...">
<polygon fill="none" stroke="black" points="523.5,-240 523.5,-259 606.5,-259 606.5,-240 523.5,-240"/>
<text text-anchor="middle" x="565" y="-247" font-family="Helvetica,sans-Serif" font-size="10.00">Circus::Circus</text>
</a>
</g>
</g>
<!-- Node18&#45;&gt;Node19 -->
<g id="edge33" class="edge">
<title>Node18&#45;&gt;Node19</title>
<path fill="none" stroke="midnightblue" d="M723.57,-187.71C701.58,-198.79 669.76,-214.16 641,-225.5 627.52,-230.82 612.34,-235.85 599.19,-239.91"/>
<polygon fill="midnightblue" stroke="midnightblue" points="725.32,-190.75 732.64,-183.09 722.14,-184.51 725.32,-190.75"/>
</g>
<!-- Node20 -->
<g id="node20" class="node">
<title>Node20</title>
<g id="a_node20"><a xlink:href="class_prism.html#aa84930a585c7817f74a14d95ea74cb5a" target="_top" xlink:title="Konstruktor bezparametryczny klasy Prism. Powstaly granistoslup ma podstawy &quot;tworzace&quot;:">
<polygon fill="none" stroke="black" points="526,-164 526,-183 604,-183 604,-164 526,-164"/>
<text text-anchor="middle" x="565" y="-171" font-family="Helvetica,sans-Serif" font-size="10.00">Prism::Prism</text>
</a>
</g>
</g>
<!-- Node18&#45;&gt;Node20 -->
<g id="edge35" class="edge">
<title>Node18&#45;&gt;Node20</title>
<path fill="none" stroke="midnightblue" d="M694.69,-173.5C665.36,-173.5 630.27,-173.5 604.15,-173.5"/>
<polygon fill="midnightblue" stroke="midnightblue" points="694.79,-177 704.79,-173.5 694.79,-170 694.79,-177"/>
</g>
<!-- Node21 -->
<g id="node21" class="node">
<title>Node21</title>
<g id="a_node21"><a xlink:href="class_drone.html#a77142062fb8a8af87df42b5c2e7e44e0" target="_top" xlink:title="Metoda skalujaca wszystkie elementy drona przez skale kazdego elementu">
<polygon fill="none" stroke="black" points="516,-88 516,-107 614,-107 614,-88 516,-88"/>
<text text-anchor="middle" x="565" y="-95" font-family="Helvetica,sans-Serif" font-size="10.00">Drone::scale_dro</text>
</a>
</g>
</g>
<!-- Node18&#45;&gt;Node21 -->
<g id="edge36" class="edge">
<title>Node18&#45;&gt;Node21</title>
<path fill="none" stroke="midnightblue" d="M726.23,-158.56C704.42,-145.93 671.48,-128.08 641,-116.5 631.46,-112.87 620.97,-109.73 610.94,-107.09"/>
<polygon fill="midnightblue" stroke="midnightblue" points="724.74,-161.75 735.14,-163.79 728.29,-155.71 724.74,-161.75"/>
</g>
<!-- Node22 -->
<g id="node22" class="node">
<title>Node22</title>
<g id="a_node22"><a xlink:href="class_tent.html#a6831febfd74474f567f4419091883512" target="_top" xlink:title="Konstruktor parametryczny klasy Tent. Powstaje ostroslup jak z konstruktora parametrycznego,...">
<polygon fill="none" stroke="black" points="533.5,-126 533.5,-145 596.5,-145 596.5,-126 533.5,-126"/>
<text text-anchor="middle" x="565" y="-133" font-family="Helvetica,sans-Serif" font-size="10.00">Tent::Tent</text>
</a>
</g>
</g>
<!-- Node18&#45;&gt;Node22 -->
<g id="edge38" class="edge">
<title>Node18&#45;&gt;Node22</title>
<path fill="none" stroke="midnightblue" d="M694.59,-161.91C662.34,-155.29 623.16,-147.24 596.58,-141.78"/>
<polygon fill="midnightblue" stroke="midnightblue" points="694.29,-165.43 704.79,-164.01 695.7,-158.57 694.29,-165.43"/>
</g>
<!-- Node23 -->
<g id="node23" class="node">
<title>Node23</title>
<g id="a_node23"><a xlink:href="class_volcano.html#a1324b87f13755c4b12b54485352c5b8d" target="_top" xlink:title="Konstruktor parametryczny klasy Volcano. Powstaje ostroslup jak z konstruktora parametrycznego,...">
<polygon fill="none" stroke="black" points="515.5,-50 515.5,-69 614.5,-69 614.5,-50 515.5,-50"/>
<text text-anchor="middle" x="565" y="-57" font-family="Helvetica,sans-Serif" font-size="10.00">Volcano::Volcano</text>
</a>
</g>
</g>
<!-- Node18&#45;&gt;Node23 -->
<g id="edge39" class="edge">
<title>Node18&#45;&gt;Node23</title>
<path fill="none" stroke="midnightblue" d="M735.73,-156.06C715.98,-134.61 679.53,-98.57 641,-78.5 632.9,-74.28 623.81,-70.96 614.83,-68.36"/>
<polygon fill="midnightblue" stroke="midnightblue" points="733.38,-158.68 742.67,-163.76 738.57,-153.99 733.38,-158.68"/>
</g>
<!-- Node21&#45;&gt;Node14 -->
<g id="edge37" class="edge">
<title>Node21&#45;&gt;Node14</title>
<path fill="none" stroke="midnightblue" d="M505.62,-108.27C480.78,-112.85 452.44,-118.08 430.1,-122.2"/>
<polygon fill="midnightblue" stroke="midnightblue" points="506.47,-111.67 515.67,-106.41 505.2,-104.79 506.47,-111.67"/>
</g>
</g>
</svg>
        <g id="navigator" transform="translate(0 0)" fill="#404254">
                <rect fill="#f2f5e9" fill-opacity="0.5" stroke="#606060" stroke-width=".5" x="0" y="0" width="60" height="60"/>
                <use id="zoomplus" xlink:href="#zoomPlus" x="17" y="9" onmousedown="handleZoom(evt,'in')"/>
                <use id="zoomminus" xlink:href="#zoomMin" x="42" y="9" onmousedown="handleZoom(evt,'out')"/>
                <use id="reset" xlink:href="#resetDef" x="30" y="36" onmousedown="handleReset()"/>
                <g id="arrowUp" xlink:href="#dirArrow" transform="translate(30 24)" onmousedown="handlePan(0,-1)">
                  <use xlink:href="#rim" fill="#404040">
                        <set attributeName="fill" to="#808080" begin="arrowUp.mouseover" end="arrowUp.mouseout"/>
                  </use>
                  <path fill="none" stroke="white" stroke-width="1.5" d="M0,-3.0v7 M-2.5,-0.5L0,-3.0L2.5,-0.5"/>
                </g>
                <g id="arrowRight" xlink:href="#dirArrow" transform="rotate(90) translate(36 -43)" onmousedown="handlePan(1,0)">
                  <use xlink:href="#rim" fill="#404040">
                        <set attributeName="fill" to="#808080" begin="arrowRight.mouseover" end="arrowRight.mouseout"/>
                  </use>
                  <path fill="none" stroke="white" stroke-width="1.5" d="M0,-3.0v7 M-2.5,-0.5L0,-3.0L2.5,-0.5"/>
                </g>
                <g id="arrowDown" xlink:href="#dirArrow" transform="rotate(180) translate(-30 -48)" onmousedown="handlePan(0,1)">
                  <use xlink:href="#rim" fill="#404040">
                        <set attributeName="fill" to="#808080" begin="arrowDown.mouseover" end="arrowDown.mouseout"/>
                  </use>
                  <path fill="none" stroke="white" stroke-width="1.5" d="M0,-3.0v7 M-2.5,-0.5L0,-3.0L2.5,-0.5"/>
                </g>
                <g id="arrowLeft" xlink:href="#dirArrow" transform="rotate(270) translate(-36 17)" onmousedown="handlePan(-1,0)">
                  <use xlink:href="#rim" fill="#404040">
                        <set attributeName="fill" to="#808080" begin="arrowLeft.mouseover" end="arrowLeft.mouseout"/>
                  </use>
                  <path fill="none" stroke="white" stroke-width="1.5" d="M0,-3.0v7 M-2.5,-0.5L0,-3.0L2.5,-0.5"/>
                </g>
        </g>
        <svg viewBox="0 0 15 15" width="100%" height="30px" preserveAspectRatio="xMaxYMin meet">
         <g id="arrow_out" transform="scale(0.3 0.3)">
          <a xlink:href="class_prism_ade146d341c0468030f8c1258b7fe1041_icgraph_org.svg" target="_base">
           <rect id="button" ry="5" rx="5" y="6" x="6" height="38" width="38"
                fill="#f2f5e9" fill-opacity="0.5" stroke="#606060" stroke-width="1.0"/>
           <path id="arrow"
             d="M 11.500037,31.436501 C 11.940474,20.09759 22.043105,11.32322 32.158766,21.979434 L 37.068811,17.246167 C 37.068811,17.246167 37.088388,32 37.088388,32 L 22.160133,31.978069 C 22.160133,31.978069 26.997745,27.140456 26.997745,27.140456 C 18.528582,18.264221 13.291696,25.230495 11.500037,31.436501 z"
             style="fill:#404040;"/>
          </a>
         </g>
        </svg>
</svg>
