<?xml version="1.0" encoding="UTF-8" standalone="no"?>
<!DOCTYPE svg PUBLIC "-//W3C//DTD SVG 1.1//EN"
 "http://www.w3.org/Graphics/SVG/1.1/DTD/svg11.dtd">
<!-- Generated by graphviz version 2.43.0 (0)
 -->
<!-- Title: /home/krzysztof/PO/zad5_2&#45;kgliwinski/include/cuboid.hpp Pages: 1 -->
<!--zoomable 362 -->
<svg id="main" version="1.1" xmlns="http://www.w3.org/2000/svg" xmlns:xlink="http://www.w3.org/1999/xlink" xml:space="preserve" onload="init(evt)">
<style type="text/css"><![CDATA[
.edge:hover path { stroke: red; }
.edge:hover polygon { stroke: red; fill: red; }
]]></style>
<script type="text/javascript"><![CDATA[
var edges = document.getElementsByTagName('g');
if (edges && edges.length) {
  for (var i=0;i<edges.length;i++) {
    if (edges[i].id.substr(0,4)=='edge') {
      edges[i].setAttribute('class','edge');
    }
  }
}
]]></script>
        <defs>
                <circle id="rim" cx="0" cy="0" r="7"/>
                <circle id="rim2" cx="0" cy="0" r="3.5"/>
                <g id="zoomPlus">
                        <use xlink:href="#rim" fill="#404040">
                                <set attributeName="fill" to="#808080" begin="zoomplus.mouseover" end="zoomplus.mouseout"/>
                        </use>
                        <path d="M-4,0h8M0,-4v8" fill="none" stroke="white" stroke-width="1.5" pointer-events="none"/>
                </g>
                <g id="zoomMin">
                        <use xlink:href="#rim" fill="#404040">
                                <set attributeName="fill" to="#808080" begin="zoomminus.mouseover" end="zoomminus.mouseout"/>
                        </use>
                        <path d="M-4,0h8" fill="none" stroke="white" stroke-width="1.5" pointer-events="none"/>
                </g>
                <g id="dirArrow">
                        <path fill="none" stroke="white" stroke-width="1.5" d="M0,-3.0v7 M-2.5,-0.5L0,-3.0L2.5,-0.5"/>
                </g>
               <g id="resetDef">
                       <use xlink:href="#rim2" fill="#404040">
                               <set attributeName="fill" to="#808080" begin="reset.mouseover" end="reset.mouseout"/>
                       </use>
               </g>
        </defs>

<script type="text/javascript">
var viewWidth = 676;
var viewHeight = 362;
var sectionId = 'dynsection-1';
</script>
<script xlink:href="svgpan.js"/>
<svg id="graph" class="graph">
<g id="viewport">
<title>/home/krzysztof/PO/zad5_2&#45;kgliwinski/include/cuboid.hpp</title>
<!-- Node1 -->
<g id="node1" class="node">
<title>Node1</title>
<g id="a_node1"><a xlink:title="Plik zawiera definicję klasy reprezentujacej prostopadloscian w przestrzeni trojwymiarowej.">
<polygon fill="#bfbfbf" stroke="black" points="296.5,-312.5 296.5,-353.5 442.5,-353.5 442.5,-312.5 296.5,-312.5"/>
<text text-anchor="start" x="304.5" y="-341.5" font-family="Helvetica,sans-Serif" font-size="10.00">/home/krzysztof/PO</text>
<text text-anchor="start" x="304.5" y="-330.5" font-family="Helvetica,sans-Serif" font-size="10.00">/zad5_2&#45;kgliwinski/include</text>
<text text-anchor="middle" x="369.5" y="-319.5" font-family="Helvetica,sans-Serif" font-size="10.00">/cuboid.hpp</text>
</a>
</g>
</g>
<!-- Node2 -->
<g id="node2" class="node">
<title>Node2</title>
<g id="a_node2"><a xlink:href="drone_8hpp.html" target="_top" xlink:title="Plik zawiera definicję klasy reprezentujacej drona, budowanie i przemieszczanie go.">
<polygon fill="none" stroke="black" points="378.5,-234.5 378.5,-275.5 524.5,-275.5 524.5,-234.5 378.5,-234.5"/>
<text text-anchor="start" x="386.5" y="-263.5" font-family="Helvetica,sans-Serif" font-size="10.00">/home/krzysztof/PO</text>
<text text-anchor="start" x="386.5" y="-252.5" font-family="Helvetica,sans-Serif" font-size="10.00">/zad5_2&#45;kgliwinski/include</text>
<text text-anchor="middle" x="451.5" y="-241.5" font-family="Helvetica,sans-Serif" font-size="10.00">/drone.hpp</text>
</a>
</g>
</g>
<!-- Node1&#45;&gt;Node2 -->
<g id="edge1" class="edge">
<title>Node1&#45;&gt;Node2</title>
<path fill="none" stroke="midnightblue" d="M398.1,-305.49C408.74,-295.63 420.61,-284.63 430.45,-275.51"/>
<polygon fill="midnightblue" stroke="midnightblue" points="395.57,-303.06 390.62,-312.43 400.33,-308.2 395.57,-303.06"/>
</g>
<!-- Node8 -->
<g id="node8" class="node">
<title>Node8</title>
<g id="a_node8"><a xlink:href="pyramid_8hpp.html" target="_top" xlink:title="Plik zawiera definicję klasy reprezentujacej ostroslup o prostokatnej podstawie w przestrzeni trojwym...">
<polygon fill="none" stroke="black" points="50.5,-234.5 50.5,-275.5 196.5,-275.5 196.5,-234.5 50.5,-234.5"/>
<text text-anchor="start" x="58.5" y="-263.5" font-family="Helvetica,sans-Serif" font-size="10.00">/home/krzysztof/PO</text>
<text text-anchor="start" x="58.5" y="-252.5" font-family="Helvetica,sans-Serif" font-size="10.00">/zad5_2&#45;kgliwinski/include</text>
<text text-anchor="middle" x="123.5" y="-241.5" font-family="Helvetica,sans-Serif" font-size="10.00">/pyramid.hpp</text>
</a>
</g>
</g>
<!-- Node1&#45;&gt;Node8 -->
<g id="edge7" class="edge">
<title>Node1&#45;&gt;Node8</title>
<path fill="none" stroke="midnightblue" d="M296.48,-309.44C261.57,-298.66 220.18,-285.87 186.64,-275.51"/>
<polygon fill="midnightblue" stroke="midnightblue" points="295.56,-312.82 306.15,-312.43 297.63,-306.13 295.56,-312.82"/>
</g>
<!-- Node10 -->
<g id="node10" class="node">
<title>Node10</title>
<g id="a_node10"><a xlink:href="triangular_8hpp.html" target="_top" xlink:title=" ">
<polygon fill="none" stroke="black" points="214.5,-234.5 214.5,-275.5 360.5,-275.5 360.5,-234.5 214.5,-234.5"/>
<text text-anchor="start" x="222.5" y="-263.5" font-family="Helvetica,sans-Serif" font-size="10.00">/home/krzysztof/PO</text>
<text text-anchor="start" x="222.5" y="-252.5" font-family="Helvetica,sans-Serif" font-size="10.00">/zad5_2&#45;kgliwinski/include</text>
<text text-anchor="middle" x="287.5" y="-241.5" font-family="Helvetica,sans-Serif" font-size="10.00">/triangular.hpp</text>
</a>
</g>
</g>
<!-- Node1&#45;&gt;Node10 -->
<g id="edge10" class="edge">
<title>Node1&#45;&gt;Node10</title>
<path fill="none" stroke="midnightblue" d="M340.9,-305.49C330.26,-295.63 318.39,-284.63 308.55,-275.51"/>
<polygon fill="midnightblue" stroke="midnightblue" points="338.67,-308.2 348.38,-312.43 343.43,-303.06 338.67,-308.2"/>
</g>
<!-- Node12 -->
<g id="node12" class="node">
<title>Node12</title>
<g id="a_node12"><a xlink:href="cuboid_8cpp.html" target="_top" xlink:title=" ">
<polygon fill="none" stroke="black" points="543,-234.5 543,-275.5 668,-275.5 668,-234.5 543,-234.5"/>
<text text-anchor="start" x="551" y="-263.5" font-family="Helvetica,sans-Serif" font-size="10.00">/home/krzysztof/PO</text>
<text text-anchor="start" x="551" y="-252.5" font-family="Helvetica,sans-Serif" font-size="10.00">/zad5_2&#45;kgliwinski/src</text>
<text text-anchor="middle" x="605.5" y="-241.5" font-family="Helvetica,sans-Serif" font-size="10.00">/cuboid.cpp</text>
</a>
</g>
</g>
<!-- Node1&#45;&gt;Node12 -->
<g id="edge13" class="edge">
<title>Node1&#45;&gt;Node12</title>
<path fill="none" stroke="midnightblue" d="M439.98,-309.3C473.38,-298.55 512.89,-285.82 544.93,-275.51"/>
<polygon fill="midnightblue" stroke="midnightblue" points="438.72,-306.03 430.28,-312.43 440.87,-312.69 438.72,-306.03"/>
</g>
<!-- Node3 -->
<g id="node3" class="node">
<title>Node3</title>
<g id="a_node3"><a xlink:href="scene_8hpp.html" target="_top" xlink:title="Plik zawiera definicję klasy reprezentujacej scene, obslugujacej zapis do plikow i wytswietlanie w gn...">
<polygon fill="none" stroke="black" points="143.5,-156.5 143.5,-197.5 289.5,-197.5 289.5,-156.5 143.5,-156.5"/>
<text text-anchor="start" x="151.5" y="-185.5" font-family="Helvetica,sans-Serif" font-size="10.00">/home/krzysztof/PO</text>
<text text-anchor="start" x="151.5" y="-174.5" font-family="Helvetica,sans-Serif" font-size="10.00">/zad5_2&#45;kgliwinski/include</text>
<text text-anchor="middle" x="216.5" y="-163.5" font-family="Helvetica,sans-Serif" font-size="10.00">/scene.hpp</text>
</a>
</g>
</g>
<!-- Node2&#45;&gt;Node3 -->
<g id="edge2" class="edge">
<title>Node2&#45;&gt;Node3</title>
<path fill="none" stroke="midnightblue" d="M381.32,-231.3C348.06,-220.55 308.72,-207.82 276.81,-197.51"/>
<polygon fill="midnightblue" stroke="midnightblue" points="380.39,-234.68 390.98,-234.43 382.54,-228.02 380.39,-234.68"/>
</g>
<!-- Node7 -->
<g id="node7" class="node">
<title>Node7</title>
<g id="a_node7"><a xlink:href="drone_8cpp.html" target="_top" xlink:title=" ">
<polygon fill="none" stroke="black" points="451,-156.5 451,-197.5 576,-197.5 576,-156.5 451,-156.5"/>
<text text-anchor="start" x="459" y="-185.5" font-family="Helvetica,sans-Serif" font-size="10.00">/home/krzysztof/PO</text>
<text text-anchor="start" x="459" y="-174.5" font-family="Helvetica,sans-Serif" font-size="10.00">/zad5_2&#45;kgliwinski/src</text>
<text text-anchor="middle" x="513.5" y="-163.5" font-family="Helvetica,sans-Serif" font-size="10.00">/drone.cpp</text>
</a>
</g>
</g>
<!-- Node2&#45;&gt;Node7 -->
<g id="edge6" class="edge">
<title>Node2&#45;&gt;Node7</title>
<path fill="none" stroke="midnightblue" d="M473.83,-226.63C481.69,-216.99 490.36,-206.36 497.59,-197.51"/>
<polygon fill="midnightblue" stroke="midnightblue" points="471.08,-224.47 467.47,-234.43 476.5,-228.89 471.08,-224.47"/>
</g>
<!-- Node4 -->
<g id="node4" class="node">
<title>Node4</title>
<g id="a_node4"><a xlink:href="menu_8hpp.html" target="_top" xlink:title="Plik zawiera definicję klasy reprezentujacej menu, obslugujace menu programu.">
<polygon fill="none" stroke="black" points="66.5,-78.5 66.5,-119.5 212.5,-119.5 212.5,-78.5 66.5,-78.5"/>
<text text-anchor="start" x="74.5" y="-107.5" font-family="Helvetica,sans-Serif" font-size="10.00">/home/krzysztof/PO</text>
<text text-anchor="start" x="74.5" y="-96.5" font-family="Helvetica,sans-Serif" font-size="10.00">/zad5_2&#45;kgliwinski/include</text>
<text text-anchor="middle" x="139.5" y="-85.5" font-family="Helvetica,sans-Serif" font-size="10.00">/menu.hpp</text>
</a>
</g>
</g>
<!-- Node3&#45;&gt;Node4 -->
<g id="edge3" class="edge">
<title>Node3&#45;&gt;Node4</title>
<path fill="none" stroke="midnightblue" d="M189.35,-149.2C179.43,-139.42 168.41,-128.54 159.26,-119.51"/>
<polygon fill="midnightblue" stroke="midnightblue" points="187.09,-151.89 196.67,-156.43 192.01,-146.91 187.09,-151.89"/>
</g>
<!-- Node6 -->
<g id="node6" class="node">
<title>Node6</title>
<g id="a_node6"><a xlink:href="scene_8cpp.html" target="_top" xlink:title=" ">
<polygon fill="none" stroke="black" points="231,-78.5 231,-119.5 356,-119.5 356,-78.5 231,-78.5"/>
<text text-anchor="start" x="239" y="-107.5" font-family="Helvetica,sans-Serif" font-size="10.00">/home/krzysztof/PO</text>
<text text-anchor="start" x="239" y="-96.5" font-family="Helvetica,sans-Serif" font-size="10.00">/zad5_2&#45;kgliwinski/src</text>
<text text-anchor="middle" x="293.5" y="-85.5" font-family="Helvetica,sans-Serif" font-size="10.00">/scene.cpp</text>
</a>
</g>
</g>
<!-- Node3&#45;&gt;Node6 -->
<g id="edge5" class="edge">
<title>Node3&#45;&gt;Node6</title>
<path fill="none" stroke="midnightblue" d="M243.65,-149.2C253.57,-139.42 264.59,-128.54 273.74,-119.51"/>
<polygon fill="midnightblue" stroke="midnightblue" points="240.99,-146.91 236.33,-156.43 245.91,-151.89 240.99,-146.91"/>
</g>
<!-- Node5 -->
<g id="node5" class="node">
<title>Node5</title>
<g id="a_node5"><a xlink:href="menu_8cpp.html" target="_top" xlink:title=" ">
<polygon fill="none" stroke="black" points="77,-0.5 77,-41.5 202,-41.5 202,-0.5 77,-0.5"/>
<text text-anchor="start" x="85" y="-29.5" font-family="Helvetica,sans-Serif" font-size="10.00">/home/krzysztof/PO</text>
<text text-anchor="start" x="85" y="-18.5" font-family="Helvetica,sans-Serif" font-size="10.00">/zad5_2&#45;kgliwinski/src</text>
<text text-anchor="middle" x="139.5" y="-7.5" font-family="Helvetica,sans-Serif" font-size="10.00">/menu.cpp</text>
</a>
</g>
</g>
<!-- Node4&#45;&gt;Node5 -->
<g id="edge4" class="edge">
<title>Node4&#45;&gt;Node5</title>
<path fill="none" stroke="midnightblue" d="M139.5,-68.3C139.5,-59.3 139.5,-49.65 139.5,-41.51"/>
<polygon fill="midnightblue" stroke="midnightblue" points="136,-68.43 139.5,-78.43 143,-68.43 136,-68.43"/>
</g>
<!-- Node8&#45;&gt;Node3 -->
<g id="edge8" class="edge">
<title>Node8&#45;&gt;Node3</title>
<path fill="none" stroke="midnightblue" d="M155.24,-228.06C167.48,-218.06 181.25,-206.8 192.63,-197.51"/>
<polygon fill="midnightblue" stroke="midnightblue" points="152.98,-225.39 147.45,-234.43 157.41,-230.81 152.98,-225.39"/>
</g>
<!-- Node9 -->
<g id="node9" class="node">
<title>Node9</title>
<g id="a_node9"><a xlink:href="pyramid_8cpp.html" target="_top" xlink:title=" ">
<polygon fill="none" stroke="black" points="0,-156.5 0,-197.5 125,-197.5 125,-156.5 0,-156.5"/>
<text text-anchor="start" x="8" y="-185.5" font-family="Helvetica,sans-Serif" font-size="10.00">/home/krzysztof/PO</text>
<text text-anchor="start" x="8" y="-174.5" font-family="Helvetica,sans-Serif" font-size="10.00">/zad5_2&#45;kgliwinski/src</text>
<text text-anchor="middle" x="62.5" y="-163.5" font-family="Helvetica,sans-Serif" font-size="10.00">/pyramid.cpp</text>
</a>
</g>
</g>
<!-- Node8&#45;&gt;Node9 -->
<g id="edge9" class="edge">
<title>Node8&#45;&gt;Node9</title>
<path fill="none" stroke="midnightblue" d="M101.53,-226.63C93.79,-216.99 85.26,-206.36 78.16,-197.51"/>
<polygon fill="midnightblue" stroke="midnightblue" points="98.8,-228.82 107.79,-234.43 104.26,-224.44 98.8,-228.82"/>
</g>
<!-- Node10&#45;&gt;Node3 -->
<g id="edge11" class="edge">
<title>Node10&#45;&gt;Node3</title>
<path fill="none" stroke="midnightblue" d="M262.2,-226.92C253.12,-217.2 243.08,-206.45 234.72,-197.51"/>
<polygon fill="midnightblue" stroke="midnightblue" points="259.83,-229.51 269.22,-234.43 264.95,-224.73 259.83,-229.51"/>
</g>
<!-- Node11 -->
<g id="node11" class="node">
<title>Node11</title>
<g id="a_node11"><a xlink:href="triangular_8cpp.html" target="_top" xlink:title=" ">
<polygon fill="none" stroke="black" points="308,-156.5 308,-197.5 433,-197.5 433,-156.5 308,-156.5"/>
<text text-anchor="start" x="316" y="-185.5" font-family="Helvetica,sans-Serif" font-size="10.00">/home/krzysztof/PO</text>
<text text-anchor="start" x="316" y="-174.5" font-family="Helvetica,sans-Serif" font-size="10.00">/zad5_2&#45;kgliwinski/src</text>
<text text-anchor="middle" x="370.5" y="-163.5" font-family="Helvetica,sans-Serif" font-size="10.00">/triangular.cpp</text>
</a>
</g>
</g>
<!-- Node10&#45;&gt;Node11 -->
<g id="edge12" class="edge">
<title>Node10&#45;&gt;Node11</title>
<path fill="none" stroke="midnightblue" d="M316.45,-227.49C327.22,-217.63 339.24,-206.63 349.2,-197.51"/>
<polygon fill="midnightblue" stroke="midnightblue" points="313.89,-225.09 308.87,-234.43 318.61,-230.26 313.89,-225.09"/>
</g>
</g>
</svg>
        <g id="navigator" transform="translate(0 0)" fill="#404254">
                <rect fill="#f2f5e9" fill-opacity="0.5" stroke="#606060" stroke-width=".5" x="0" y="0" width="60" height="60"/>
                <use id="zoomplus" xlink:href="#zoomPlus" x="17" y="9" onmousedown="handleZoom(evt,'in')"/>
                <use id="zoomminus" xlink:href="#zoomMin" x="42" y="9" onmousedown="handleZoom(evt,'out')"/>
                <use id="reset" xlink:href="#resetDef" x="30" y="36" onmousedown="handleReset()"/>
                <g id="arrowUp" xlink:href="#dirArrow" transform="translate(30 24)" onmousedown="handlePan(0,-1)">
                  <use xlink:href="#rim" fill="#404040">
                        <set attributeName="fill" to="#808080" begin="arrowUp.mouseover" end="arrowUp.mouseout"/>
                  </use>
                  <path fill="none" stroke="white" stroke-width="1.5" d="M0,-3.0v7 M-2.5,-0.5L0,-3.0L2.5,-0.5"/>
                </g>
                <g id="arrowRight" xlink:href="#dirArrow" transform="rotate(90) translate(36 -43)" onmousedown="handlePan(1,0)">
                  <use xlink:href="#rim" fill="#404040">
                        <set attributeName="fill" to="#808080" begin="arrowRight.mouseover" end="arrowRight.mouseout"/>
                  </use>
                  <path fill="none" stroke="white" stroke-width="1.5" d="M0,-3.0v7 M-2.5,-0.5L0,-3.0L2.5,-0.5"/>
                </g>
                <g id="arrowDown" xlink:href="#dirArrow" transform="rotate(180) translate(-30 -48)" onmousedown="handlePan(0,1)">
                  <use xlink:href="#rim" fill="#404040">
                        <set attributeName="fill" to="#808080" begin="arrowDown.mouseover" end="arrowDown.mouseout"/>
                  </use>
                  <path fill="none" stroke="white" stroke-width="1.5" d="M0,-3.0v7 M-2.5,-0.5L0,-3.0L2.5,-0.5"/>
                </g>
                <g id="arrowLeft" xlink:href="#dirArrow" transform="rotate(270) translate(-36 17)" onmousedown="handlePan(-1,0)">
                  <use xlink:href="#rim" fill="#404040">
                        <set attributeName="fill" to="#808080" begin="arrowLeft.mouseover" end="arrowLeft.mouseout"/>
                  </use>
                  <path fill="none" stroke="white" stroke-width="1.5" d="M0,-3.0v7 M-2.5,-0.5L0,-3.0L2.5,-0.5"/>
                </g>
        </g>
        <svg viewBox="0 0 15 15" width="100%" height="30px" preserveAspectRatio="xMaxYMin meet">
         <g id="arrow_out" transform="scale(0.3 0.3)">
          <a xlink:href="cuboid_8hpp__dep__incl_org.svg" target="_base">
           <rect id="button" ry="5" rx="5" y="6" x="6" height="38" width="38"
                fill="#f2f5e9" fill-opacity="0.5" stroke="#606060" stroke-width="1.0"/>
           <path id="arrow"
             d="M 11.500037,31.436501 C 11.940474,20.09759 22.043105,11.32322 32.158766,21.979434 L 37.068811,17.246167 C 37.068811,17.246167 37.088388,32 37.088388,32 L 22.160133,31.978069 C 22.160133,31.978069 26.997745,27.140456 26.997745,27.140456 C 18.528582,18.264221 13.291696,25.230495 11.500037,31.436501 z"
             style="fill:#404040;"/>
          </a>
         </g>
        </svg>
</svg>
