<?xml version="1.0" encoding="UTF-8" standalone="no"?>
<!DOCTYPE svg PUBLIC "-//W3C//DTD SVG 1.1//EN"
 "http://www.w3.org/Graphics/SVG/1.1/DTD/svg11.dtd">
<!-- Generated by graphviz version 2.43.0 (0)
 -->
<!-- Title: /home/krzysztof/PO/zad5_2&#45;kgliwinski/include/drone.hpp Pages: 1 -->
<svg width="683pt" height="498pt"
 viewBox="0.00 0.00 682.50 498.00" xmlns="http://www.w3.org/2000/svg" xmlns:xlink="http://www.w3.org/1999/xlink">
<g id="graph0" class="graph" transform="scale(1 1) rotate(0) translate(4 494)">
<title>/home/krzysztof/PO/zad5_2&#45;kgliwinski/include/drone.hpp</title>
<!-- Node1 -->
<g id="node1" class="node">
<title>Node1</title>
<g id="a_node1"><a xlink:title="Plik zawiera definicję klasy reprezentujacej drona, budowanie i przemieszczanie go.">
<polygon fill="#bfbfbf" stroke="black" points="425.5,-448.5 425.5,-489.5 571.5,-489.5 571.5,-448.5 425.5,-448.5"/>
<text text-anchor="start" x="433.5" y="-477.5" font-family="Helvetica,sans-Serif" font-size="10.00">/home/krzysztof/PO</text>
<text text-anchor="start" x="433.5" y="-466.5" font-family="Helvetica,sans-Serif" font-size="10.00">/zad5_2&#45;kgliwinski/include</text>
<text text-anchor="middle" x="498.5" y="-455.5" font-family="Helvetica,sans-Serif" font-size="10.00">/drone.hpp</text>
</a>
</g>
</g>
<!-- Node2 -->
<g id="node2" class="node">
<title>Node2</title>
<g id="a_node2"><a xlink:href="prism_8hpp.html" target="_top" xlink:title="Plik zawiera definicję klasy reprezentujacej graniastoslup o podstawie o 6 wierzcholkach w przestrzen...">
<polygon fill="none" stroke="black" points="351,-392.5 351,-411.5 416,-411.5 416,-392.5 351,-392.5"/>
<text text-anchor="middle" x="383.5" y="-399.5" font-family="Helvetica,sans-Serif" font-size="10.00">prism.hpp</text>
</a>
</g>
</g>
<!-- Node1&#45;&gt;Node2 -->
<g id="edge1" class="edge">
<title>Node1&#45;&gt;Node2</title>
<path fill="none" stroke="midnightblue" d="M464,-448.5C445.86,-438.24 424.06,-425.93 407.73,-416.69"/>
<polygon fill="midnightblue" stroke="midnightblue" points="409.24,-413.53 398.81,-411.65 405.79,-419.62 409.24,-413.53"/>
</g>
<!-- Node20 -->
<g id="node20" class="node">
<title>Node20</title>
<g id="a_node20"><a xlink:href="cuboid_8hpp.html" target="_top" xlink:title="Plik zawiera definicję klasy reprezentujacej prostopadloscian w przestrzeni trojwymiarowej.">
<polygon fill="none" stroke="black" points="262.5,-392.5 262.5,-411.5 332.5,-411.5 332.5,-392.5 262.5,-392.5"/>
<text text-anchor="middle" x="297.5" y="-399.5" font-family="Helvetica,sans-Serif" font-size="10.00">cuboid.hpp</text>
</a>
</g>
</g>
<!-- Node1&#45;&gt;Node20 -->
<g id="edge29" class="edge">
<title>Node1&#45;&gt;Node20</title>
<path fill="none" stroke="midnightblue" d="M438.19,-448.5C404.16,-437.49 362.77,-424.11 333.72,-414.71"/>
<polygon fill="midnightblue" stroke="midnightblue" points="334.58,-411.31 323.99,-411.57 332.43,-417.97 334.58,-411.31"/>
</g>
<!-- Node21 -->
<g id="node21" class="node">
<title>Node21</title>
<g id="a_node21"><a xlink:href="lacze__do__gnuplota_8hpp.html" target="_top" xlink:title=" ">
<polygon fill="none" stroke="black" points="434.5,-392.5 434.5,-411.5 562.5,-411.5 562.5,-392.5 434.5,-392.5"/>
<text text-anchor="middle" x="498.5" y="-399.5" font-family="Helvetica,sans-Serif" font-size="10.00">lacze_do_gnuplota.hpp</text>
</a>
</g>
</g>
<!-- Node1&#45;&gt;Node21 -->
<g id="edge31" class="edge">
<title>Node1&#45;&gt;Node21</title>
<path fill="none" stroke="midnightblue" d="M498.5,-448.5C498.5,-440.07 498.5,-430.24 498.5,-421.87"/>
<polygon fill="midnightblue" stroke="midnightblue" points="502,-421.65 498.5,-411.65 495,-421.65 502,-421.65"/>
</g>
<!-- Node23 -->
<g id="node23" class="node">
<title>Node23</title>
<g id="a_node23"><a xlink:title=" ">
<polygon fill="none" stroke="#bfbfbf" points="563,-336.5 563,-355.5 610,-355.5 610,-336.5 563,-336.5"/>
<text text-anchor="middle" x="586.5" y="-343.5" font-family="Helvetica,sans-Serif" font-size="10.00">vector</text>
</a>
</g>
</g>
<!-- Node1&#45;&gt;Node23 -->
<g id="edge36" class="edge">
<title>Node1&#45;&gt;Node23</title>
<path fill="none" stroke="midnightblue" d="M533.75,-448.3C547.45,-438.97 562.08,-426.64 571.5,-412 580.41,-398.15 584.05,-379.63 585.52,-365.91"/>
<polygon fill="midnightblue" stroke="midnightblue" points="589.03,-365.95 586.32,-355.71 582.05,-365.41 589.03,-365.95"/>
</g>
<!-- Node24 -->
<g id="node24" class="node">
<title>Node24</title>
<g id="a_node24"><a xlink:title=" ">
<polygon fill="none" stroke="#bfbfbf" points="618.5,-392.5 618.5,-411.5 674.5,-411.5 674.5,-392.5 618.5,-392.5"/>
<text text-anchor="middle" x="646.5" y="-399.5" font-family="Helvetica,sans-Serif" font-size="10.00">unistd.h</text>
</a>
</g>
</g>
<!-- Node1&#45;&gt;Node24 -->
<g id="edge35" class="edge">
<title>Node1&#45;&gt;Node24</title>
<path fill="none" stroke="midnightblue" d="M542.9,-448.5C567.01,-437.91 596.14,-425.12 617.36,-415.8"/>
<polygon fill="midnightblue" stroke="midnightblue" points="619.05,-418.88 626.8,-411.65 616.24,-412.47 619.05,-418.88"/>
</g>
<!-- Node3 -->
<g id="node3" class="node">
<title>Node3</title>
<g id="a_node3"><a xlink:href="block_8hpp.html" target="_top" xlink:title="Plik zawiera definicję klasy reprezentujacej bryle w przestrzeni trojwymiarowej.">
<polygon fill="none" stroke="black" points="279.5,-336.5 279.5,-355.5 343.5,-355.5 343.5,-336.5 279.5,-336.5"/>
<text text-anchor="middle" x="311.5" y="-343.5" font-family="Helvetica,sans-Serif" font-size="10.00">block.hpp</text>
</a>
</g>
</g>
<!-- Node2&#45;&gt;Node3 -->
<g id="edge2" class="edge">
<title>Node2&#45;&gt;Node3</title>
<path fill="none" stroke="midnightblue" d="M371.93,-392.32C361.08,-384.18 344.62,-371.84 331.62,-362.09"/>
<polygon fill="midnightblue" stroke="midnightblue" points="333.38,-359.03 323.28,-355.83 329.18,-364.63 333.38,-359.03"/>
</g>
<!-- Node4 -->
<g id="node4" class="node">
<title>Node4</title>
<g id="a_node4"><a xlink:title=" ">
<polygon fill="none" stroke="#bfbfbf" points="458.5,-280.5 458.5,-299.5 502.5,-299.5 502.5,-280.5 458.5,-280.5"/>
<text text-anchor="middle" x="480.5" y="-287.5" font-family="Helvetica,sans-Serif" font-size="10.00">string</text>
</a>
</g>
</g>
<!-- Node3&#45;&gt;Node4 -->
<g id="edge3" class="edge">
<title>Node3&#45;&gt;Node4</title>
<path fill="none" stroke="midnightblue" d="M338.28,-336.44C368.26,-326.86 416.81,-311.35 448.7,-301.16"/>
<polygon fill="midnightblue" stroke="midnightblue" points="449.96,-304.43 458.42,-298.05 447.83,-297.76 449.96,-304.43"/>
</g>
<!-- Node5 -->
<g id="node5" class="node">
<title>Node5</title>
<g id="a_node5"><a xlink:title=" ">
<polygon fill="none" stroke="#bfbfbf" points="340,-280.5 340,-299.5 395,-299.5 395,-280.5 340,-280.5"/>
<text text-anchor="middle" x="367.5" y="-287.5" font-family="Helvetica,sans-Serif" font-size="10.00">fstream</text>
</a>
</g>
</g>
<!-- Node3&#45;&gt;Node5 -->
<g id="edge4" class="edge">
<title>Node3&#45;&gt;Node5</title>
<path fill="none" stroke="midnightblue" d="M320.5,-336.32C328.69,-328.42 341.01,-316.55 350.97,-306.94"/>
<polygon fill="midnightblue" stroke="midnightblue" points="353.57,-309.29 358.34,-299.83 348.71,-304.26 353.57,-309.29"/>
</g>
<!-- Node6 -->
<g id="node6" class="node">
<title>Node6</title>
<g id="a_node6"><a xlink:href="vector3_d_8hpp.html" target="_top" xlink:title="Zawiera deklaracje klasy Vector3D.">
<polygon fill="none" stroke="black" points="64.5,-168.5 64.5,-187.5 146.5,-187.5 146.5,-168.5 64.5,-168.5"/>
<text text-anchor="middle" x="105.5" y="-175.5" font-family="Helvetica,sans-Serif" font-size="10.00">vector3D.hpp</text>
</a>
</g>
</g>
<!-- Node3&#45;&gt;Node6 -->
<g id="edge5" class="edge">
<title>Node3&#45;&gt;Node6</title>
<path fill="none" stroke="midnightblue" d="M279.27,-341.57C247.9,-336.81 200.3,-325.67 167.5,-300 133.99,-273.78 116.93,-224.5 109.77,-197.63"/>
<polygon fill="midnightblue" stroke="midnightblue" points="113.09,-196.48 107.29,-187.61 106.3,-198.16 113.09,-196.48"/>
</g>
<!-- Node7 -->
<g id="node7" class="node">
<title>Node7</title>
<g id="a_node7"><a xlink:href="vector_8hpp.html" target="_top" xlink:title=" ">
<polygon fill="none" stroke="black" points="218.5,-112.5 218.5,-131.5 286.5,-131.5 286.5,-112.5 218.5,-112.5"/>
<text text-anchor="middle" x="252.5" y="-119.5" font-family="Helvetica,sans-Serif" font-size="10.00">vector.hpp</text>
</a>
</g>
</g>
<!-- Node3&#45;&gt;Node7 -->
<g id="edge17" class="edge">
<title>Node3&#45;&gt;Node7</title>
<path fill="none" stroke="midnightblue" d="M343.84,-338.4C364.79,-332.27 390.51,-320.82 403.5,-300 408.21,-292.46 405.42,-288.68 403.5,-280 391.67,-226.41 390.46,-206.65 351.5,-168 336.09,-152.71 314.56,-142.08 295.51,-135.01"/>
<polygon fill="midnightblue" stroke="midnightblue" points="296.41,-131.62 285.82,-131.63 294.1,-138.23 296.41,-131.62"/>
</g>
<!-- Node11 -->
<g id="node11" class="node">
<title>Node11</title>
<g id="a_node11"><a xlink:href="count_8hpp.html" target="_top" xlink:title="Plik zawiera definicję klasy reprezentujacej counter, pozwalajacy na liczenie instancji stworzonych k...">
<polygon fill="none" stroke="black" points="12,-56.5 12,-75.5 77,-75.5 77,-56.5 12,-56.5"/>
<text text-anchor="middle" x="44.5" y="-63.5" font-family="Helvetica,sans-Serif" font-size="10.00">count.hpp</text>
</a>
</g>
</g>
<!-- Node3&#45;&gt;Node11 -->
<g id="edge16" class="edge">
<title>Node3&#45;&gt;Node11</title>
<path fill="none" stroke="midnightblue" d="M279.27,-339.44C205.46,-325.81 30.5,-287.91 30.5,-235 30.5,-235 30.5,-235 30.5,-177 30.5,-144.54 36.57,-107.12 40.72,-85.36"/>
<polygon fill="midnightblue" stroke="midnightblue" points="44.16,-86 42.67,-75.51 37.29,-84.64 44.16,-86"/>
</g>
<!-- Node15 -->
<g id="node15" class="node">
<title>Node15</title>
<g id="a_node15"><a xlink:href="matrix3_d_8hpp.html" target="_top" xlink:title="Zawiera deklaracje klasy Matrix3D.">
<polygon fill="none" stroke="black" points="177,-280.5 177,-299.5 260,-299.5 260,-280.5 177,-280.5"/>
<text text-anchor="middle" x="218.5" y="-287.5" font-family="Helvetica,sans-Serif" font-size="10.00">matrix3D.hpp</text>
</a>
</g>
</g>
<!-- Node3&#45;&gt;Node15 -->
<g id="edge18" class="edge">
<title>Node3&#45;&gt;Node15</title>
<path fill="none" stroke="midnightblue" d="M296.56,-336.32C281.91,-327.82 259.37,-314.73 242.26,-304.8"/>
<polygon fill="midnightblue" stroke="midnightblue" points="243.81,-301.65 233.4,-299.65 240.3,-307.7 243.81,-301.65"/>
</g>
<!-- Node16 -->
<g id="node16" class="node">
<title>Node16</title>
<g id="a_node16"><a xlink:href="matrix_8hpp.html" target="_top" xlink:title=" ">
<polygon fill="none" stroke="black" points="291.5,-224.5 291.5,-243.5 361.5,-243.5 361.5,-224.5 291.5,-224.5"/>
<text text-anchor="middle" x="326.5" y="-231.5" font-family="Helvetica,sans-Serif" font-size="10.00">matrix.hpp</text>
</a>
</g>
</g>
<!-- Node3&#45;&gt;Node16 -->
<g id="edge28" class="edge">
<title>Node3&#45;&gt;Node16</title>
<path fill="none" stroke="midnightblue" d="M312.68,-336.37C315.1,-318.62 320.68,-277.67 323.96,-253.6"/>
<polygon fill="midnightblue" stroke="midnightblue" points="327.45,-253.97 325.33,-243.59 320.51,-253.03 327.45,-253.97"/>
</g>
<!-- Node6&#45;&gt;Node7 -->
<g id="edge6" class="edge">
<title>Node6&#45;&gt;Node7</title>
<path fill="none" stroke="midnightblue" d="M128.79,-168.44C153.31,-159.44 192.1,-145.19 219.7,-135.05"/>
<polygon fill="midnightblue" stroke="midnightblue" points="221.14,-138.25 229.32,-131.52 218.72,-131.68 221.14,-138.25"/>
</g>
<!-- Node14 -->
<g id="node14" class="node">
<title>Node14</title>
<g id="a_node14"><a xlink:href="vector3_d_8cpp.html" target="_top" xlink:title=" ">
<polygon fill="none" stroke="black" points="59,-112.5 59,-131.5 166,-131.5 166,-112.5 59,-112.5"/>
<text text-anchor="middle" x="112.5" y="-119.5" font-family="Helvetica,sans-Serif" font-size="10.00">../src/vector3D.cpp</text>
</a>
</g>
</g>
<!-- Node6&#45;&gt;Node14 -->
<g id="edge14" class="edge">
<title>Node6&#45;&gt;Node14</title>
<path fill="none" stroke="midnightblue" d="M101.49,-168.08C100.91,-160.93 101.81,-150.64 103.62,-141.69"/>
<polygon fill="midnightblue" stroke="midnightblue" points="107.08,-142.31 106.23,-131.75 100.31,-140.53 107.08,-142.31"/>
</g>
<!-- Node8 -->
<g id="node8" class="node">
<title>Node8</title>
<g id="a_node8"><a xlink:title=" ">
<polygon fill="none" stroke="#bfbfbf" points="324.5,-0.5 324.5,-19.5 384.5,-19.5 384.5,-0.5 324.5,-0.5"/>
<text text-anchor="middle" x="354.5" y="-7.5" font-family="Helvetica,sans-Serif" font-size="10.00">iostream</text>
</a>
</g>
</g>
<!-- Node7&#45;&gt;Node8 -->
<g id="edge7" class="edge">
<title>Node7&#45;&gt;Node8</title>
<path fill="none" stroke="midnightblue" d="M280.09,-112.35C298.28,-105.3 321.29,-93.6 335.5,-76 346.22,-62.72 350.89,-43.59 352.93,-29.53"/>
<polygon fill="midnightblue" stroke="midnightblue" points="356.41,-29.87 354.06,-19.54 349.46,-29.08 356.41,-29.87"/>
</g>
<!-- Node9 -->
<g id="node9" class="node">
<title>Node9</title>
<g id="a_node9"><a xlink:title=" ">
<polygon fill="none" stroke="#bfbfbf" points="95,-56.5 95,-75.5 142,-75.5 142,-56.5 95,-56.5"/>
<text text-anchor="middle" x="118.5" y="-63.5" font-family="Helvetica,sans-Serif" font-size="10.00">cmath</text>
</a>
</g>
</g>
<!-- Node7&#45;&gt;Node9 -->
<g id="edge8" class="edge">
<title>Node7&#45;&gt;Node9</title>
<path fill="none" stroke="midnightblue" d="M231.27,-112.44C209.12,-103.52 174.18,-89.44 149.06,-79.32"/>
<polygon fill="midnightblue" stroke="midnightblue" points="150.22,-76.01 139.63,-75.52 147.6,-82.5 150.22,-76.01"/>
</g>
<!-- Node10 -->
<g id="node10" class="node">
<title>Node10</title>
<g id="a_node10"><a xlink:title=" ">
<polygon fill="none" stroke="#bfbfbf" points="160.5,-56.5 160.5,-75.5 216.5,-75.5 216.5,-56.5 160.5,-56.5"/>
<text text-anchor="middle" x="188.5" y="-63.5" font-family="Helvetica,sans-Serif" font-size="10.00">iomanip</text>
</a>
</g>
</g>
<!-- Node7&#45;&gt;Node10 -->
<g id="edge9" class="edge">
<title>Node7&#45;&gt;Node10</title>
<path fill="none" stroke="midnightblue" d="M242.22,-112.32C232.66,-104.26 218.22,-92.08 206.72,-82.37"/>
<polygon fill="midnightblue" stroke="midnightblue" points="208.87,-79.61 198.97,-75.83 204.36,-84.96 208.87,-79.61"/>
</g>
<!-- Node7&#45;&gt;Node11 -->
<g id="edge10" class="edge">
<title>Node7&#45;&gt;Node11</title>
<path fill="none" stroke="midnightblue" d="M219.54,-112.44C183.71,-103.14 126.34,-88.25 87.11,-78.06"/>
<polygon fill="midnightblue" stroke="midnightblue" points="87.86,-74.64 77.3,-75.52 86.1,-81.42 87.86,-74.64"/>
</g>
<!-- Node13 -->
<g id="node13" class="node">
<title>Node13</title>
<g id="a_node13"><a xlink:title=" ">
<polygon fill="none" stroke="#bfbfbf" points="234.5,-56.5 234.5,-75.5 326.5,-75.5 326.5,-56.5 234.5,-56.5"/>
<text text-anchor="middle" x="280.5" y="-63.5" font-family="Helvetica,sans-Serif" font-size="10.00">../src/vector.tpp</text>
</a>
</g>
</g>
<!-- Node7&#45;&gt;Node13 -->
<g id="edge13" class="edge">
<title>Node7&#45;&gt;Node13</title>
<path fill="none" stroke="midnightblue" d="M257.12,-112.08C260.96,-104.69 266.52,-93.95 271.26,-84.81"/>
<polygon fill="midnightblue" stroke="midnightblue" points="274.47,-86.24 275.96,-75.75 268.25,-83.02 274.47,-86.24"/>
</g>
<!-- Node11&#45;&gt;Node8 -->
<g id="edge11" class="edge">
<title>Node11&#45;&gt;Node8</title>
<path fill="none" stroke="midnightblue" d="M77.14,-57.68C79.97,-57.09 82.78,-56.53 85.5,-56 166.35,-40.37 261.49,-25.21 314.2,-17.09"/>
<polygon fill="midnightblue" stroke="midnightblue" points="314.8,-20.54 324.15,-15.57 313.74,-13.62 314.8,-20.54"/>
</g>
<!-- Node12 -->
<g id="node12" class="node">
<title>Node12</title>
<g id="a_node12"><a xlink:title=" ">
<polygon fill="none" stroke="#bfbfbf" points="0,-0.5 0,-19.5 89,-19.5 89,-0.5 0,-0.5"/>
<text text-anchor="middle" x="44.5" y="-7.5" font-family="Helvetica,sans-Serif" font-size="10.00">../src/count.tpp</text>
</a>
</g>
</g>
<!-- Node11&#45;&gt;Node12 -->
<g id="edge12" class="edge">
<title>Node11&#45;&gt;Node12</title>
<path fill="none" stroke="midnightblue" d="M44.5,-56.08C44.5,-49.01 44.5,-38.86 44.5,-29.99"/>
<polygon fill="midnightblue" stroke="midnightblue" points="48,-29.75 44.5,-19.75 41,-29.75 48,-29.75"/>
</g>
<!-- Node14&#45;&gt;Node6 -->
<g id="edge15" class="edge">
<title>Node14&#45;&gt;Node6</title>
<path fill="none" stroke="midnightblue" d="M116.5,-131.75C117.11,-138.94 116.2,-149.36 114.36,-158.4"/>
<polygon fill="midnightblue" stroke="midnightblue" points="110.97,-157.52 111.82,-168.08 117.74,-159.3 110.97,-157.52"/>
</g>
<!-- Node15&#45;&gt;Node6 -->
<g id="edge25" class="edge">
<title>Node15&#45;&gt;Node6</title>
<path fill="none" stroke="midnightblue" d="M203.54,-280.35C189.9,-272.05 169.63,-258.64 154.5,-244 139.48,-229.47 125.46,-210.04 116.3,-196.22"/>
<polygon fill="midnightblue" stroke="midnightblue" points="119.15,-194.17 110.78,-187.67 113.27,-197.97 119.15,-194.17"/>
</g>
<!-- Node15&#45;&gt;Node16 -->
<g id="edge19" class="edge">
<title>Node15&#45;&gt;Node16</title>
<path fill="none" stroke="midnightblue" d="M235.85,-280.32C253.17,-271.66 280.02,-258.24 300,-248.25"/>
<polygon fill="midnightblue" stroke="midnightblue" points="301.81,-251.26 309.19,-243.65 298.68,-245 301.81,-251.26"/>
</g>
<!-- Node19 -->
<g id="node19" class="node">
<title>Node19</title>
<g id="a_node19"><a xlink:href="matrix3_d_8cpp.html" target="_top" xlink:title=" ">
<polygon fill="none" stroke="black" points="164,-224.5 164,-243.5 273,-243.5 273,-224.5 164,-224.5"/>
<text text-anchor="middle" x="218.5" y="-231.5" font-family="Helvetica,sans-Serif" font-size="10.00">../src/matrix3D.cpp</text>
</a>
</g>
</g>
<!-- Node15&#45;&gt;Node19 -->
<g id="edge26" class="edge">
<title>Node15&#45;&gt;Node19</title>
<path fill="none" stroke="midnightblue" d="M213.33,-280.08C211.82,-272.93 211.39,-262.64 212.04,-253.69"/>
<polygon fill="midnightblue" stroke="midnightblue" points="215.52,-254.13 213.37,-243.75 208.58,-253.2 215.52,-254.13"/>
</g>
<!-- Node16&#45;&gt;Node6 -->
<g id="edge21" class="edge">
<title>Node16&#45;&gt;Node6</title>
<path fill="none" stroke="midnightblue" d="M291.48,-224.44C253.25,-215.1 191.93,-200.12 150.24,-189.93"/>
<polygon fill="midnightblue" stroke="midnightblue" points="150.9,-186.49 140.35,-187.52 149.24,-193.29 150.9,-186.49"/>
</g>
<!-- Node16&#45;&gt;Node7 -->
<g id="edge20" class="edge">
<title>Node16&#45;&gt;Node7</title>
<path fill="none" stroke="midnightblue" d="M330.76,-224.31C336.55,-211.15 345.04,-185.81 334.5,-168 325.53,-152.84 309.43,-142.45 293.87,-135.5"/>
<polygon fill="midnightblue" stroke="midnightblue" points="294.89,-132.14 284.31,-131.62 292.25,-138.63 294.89,-132.14"/>
</g>
<!-- Node16&#45;&gt;Node8 -->
<g id="edge22" class="edge">
<title>Node16&#45;&gt;Node8</title>
<path fill="none" stroke="midnightblue" d="M333.02,-224.25C339.08,-215.56 347.71,-201.6 351.5,-188 367.05,-132.11 361.3,-62.42 357.21,-29.66"/>
<polygon fill="midnightblue" stroke="midnightblue" points="360.67,-29.14 355.87,-19.69 353.73,-30.07 360.67,-29.14"/>
</g>
<!-- Node17 -->
<g id="node17" class="node">
<title>Node17</title>
<g id="a_node17"><a xlink:title=" ">
<polygon fill="none" stroke="#bfbfbf" points="277,-168.5 277,-187.5 326,-187.5 326,-168.5 277,-168.5"/>
<text text-anchor="middle" x="301.5" y="-175.5" font-family="Helvetica,sans-Serif" font-size="10.00">cstdlib</text>
</a>
</g>
</g>
<!-- Node16&#45;&gt;Node17 -->
<g id="edge23" class="edge">
<title>Node16&#45;&gt;Node17</title>
<path fill="none" stroke="midnightblue" d="M322.37,-224.08C318.99,-216.77 314.08,-206.18 309.88,-197.1"/>
<polygon fill="midnightblue" stroke="midnightblue" points="312.93,-195.36 305.55,-187.75 306.58,-198.3 312.93,-195.36"/>
</g>
<!-- Node18 -->
<g id="node18" class="node">
<title>Node18</title>
<g id="a_node18"><a xlink:title=" ">
<polygon fill="none" stroke="#bfbfbf" points="164.5,-168.5 164.5,-187.5 258.5,-187.5 258.5,-168.5 164.5,-168.5"/>
<text text-anchor="middle" x="211.5" y="-175.5" font-family="Helvetica,sans-Serif" font-size="10.00">../src/matrix.tpp</text>
</a>
</g>
</g>
<!-- Node16&#45;&gt;Node18 -->
<g id="edge24" class="edge">
<title>Node16&#45;&gt;Node18</title>
<path fill="none" stroke="midnightblue" d="M308.28,-224.44C289.6,-215.68 260.34,-201.94 238.88,-191.86"/>
<polygon fill="midnightblue" stroke="midnightblue" points="240.18,-188.6 229.64,-187.52 237.2,-194.93 240.18,-188.6"/>
</g>
<!-- Node19&#45;&gt;Node15 -->
<g id="edge27" class="edge">
<title>Node19&#45;&gt;Node15</title>
<path fill="none" stroke="midnightblue" d="M223.63,-243.75C225.16,-250.86 225.6,-261.14 224.97,-270.1"/>
<polygon fill="midnightblue" stroke="midnightblue" points="221.49,-269.71 223.67,-280.08 228.43,-270.62 221.49,-269.71"/>
</g>
<!-- Node20&#45;&gt;Node3 -->
<g id="edge30" class="edge">
<title>Node20&#45;&gt;Node3</title>
<path fill="none" stroke="midnightblue" d="M299.81,-392.08C301.67,-384.93 304.34,-374.64 306.65,-365.69"/>
<polygon fill="midnightblue" stroke="midnightblue" points="310.11,-366.31 309.23,-355.75 303.33,-364.55 310.11,-366.31"/>
</g>
<!-- Node21&#45;&gt;Node4 -->
<g id="edge32" class="edge">
<title>Node21&#45;&gt;Node4</title>
<path fill="none" stroke="midnightblue" d="M497.09,-392.37C494.18,-374.62 487.48,-333.67 483.54,-309.6"/>
<polygon fill="midnightblue" stroke="midnightblue" points="486.97,-308.89 481.91,-299.59 480.07,-310.03 486.97,-308.89"/>
</g>
<!-- Node22 -->
<g id="node22" class="node">
<title>Node22</title>
<g id="a_node22"><a xlink:title=" ">
<polygon fill="none" stroke="#bfbfbf" points="508.5,-336.5 508.5,-355.5 540.5,-355.5 540.5,-336.5 508.5,-336.5"/>
<text text-anchor="middle" x="524.5" y="-343.5" font-family="Helvetica,sans-Serif" font-size="10.00">list</text>
</a>
</g>
</g>
<!-- Node21&#45;&gt;Node22 -->
<g id="edge33" class="edge">
<title>Node21&#45;&gt;Node22</title>
<path fill="none" stroke="midnightblue" d="M502.79,-392.08C506.35,-384.69 511.52,-373.95 515.92,-364.81"/>
<polygon fill="midnightblue" stroke="midnightblue" points="519.1,-366.28 520.29,-355.75 512.79,-363.24 519.1,-366.28"/>
</g>
<!-- Node21&#45;&gt;Node23 -->
<g id="edge34" class="edge">
<title>Node21&#45;&gt;Node23</title>
<path fill="none" stroke="midnightblue" d="M512.64,-392.32C526.37,-383.9 547.44,-370.97 563.56,-361.07"/>
<polygon fill="midnightblue" stroke="midnightblue" points="565.7,-363.87 572.4,-355.65 562.04,-357.9 565.7,-363.87"/>
</g>
</g>
</svg>
