<?xml version="1.0" encoding="UTF-8" standalone="no"?>
<!DOCTYPE svg PUBLIC "-//W3C//DTD SVG 1.1//EN"
 "http://www.w3.org/Graphics/SVG/1.1/DTD/svg11.dtd">
<!-- Generated by graphviz version 2.43.0 (0)
 -->
<!-- Title: /home/krzysztof/PO/zad5_3&#45;kgliwinski/src/drone.cpp Pages: 1 -->
<svg width="633pt" height="554pt"
 viewBox="0.00 0.00 632.50 554.00" xmlns="http://www.w3.org/2000/svg" xmlns:xlink="http://www.w3.org/1999/xlink">
<g id="graph0" class="graph" transform="scale(1 1) rotate(0) translate(4 550)">
<title>/home/krzysztof/PO/zad5_3&#45;kgliwinski/src/drone.cpp</title>
<!-- Node1 -->
<g id="node1" class="node">
<title>Node1</title>
<g id="a_node1"><a xlink:title=" ">
<polygon fill="#bfbfbf" stroke="black" points="177.5,-504.5 177.5,-545.5 302.5,-545.5 302.5,-504.5 177.5,-504.5"/>
<text text-anchor="start" x="185.5" y="-533.5" font-family="Helvetica,sans-Serif" font-size="10.00">/home/krzysztof/PO</text>
<text text-anchor="start" x="185.5" y="-522.5" font-family="Helvetica,sans-Serif" font-size="10.00">/zad5_3&#45;kgliwinski/src</text>
<text text-anchor="middle" x="240" y="-511.5" font-family="Helvetica,sans-Serif" font-size="10.00">/drone.cpp</text>
</a>
</g>
</g>
<!-- Node2 -->
<g id="node2" class="node">
<title>Node2</title>
<g id="a_node2"><a xlink:href="drone_8hpp.html" target="_top" xlink:title="Plik zawiera definicję klasy reprezentujacej drona, budowanie i przemieszczanie go.">
<polygon fill="none" stroke="black" points="183.5,-448.5 183.5,-467.5 296.5,-467.5 296.5,-448.5 183.5,-448.5"/>
<text text-anchor="middle" x="240" y="-455.5" font-family="Helvetica,sans-Serif" font-size="10.00">../include/drone.hpp</text>
</a>
</g>
</g>
<!-- Node1&#45;&gt;Node2 -->
<g id="edge1" class="edge">
<title>Node1&#45;&gt;Node2</title>
<path fill="none" stroke="midnightblue" d="M240,-504.5C240,-496.07 240,-486.24 240,-477.87"/>
<polygon fill="midnightblue" stroke="midnightblue" points="243.5,-477.65 240,-467.65 236.5,-477.65 243.5,-477.65"/>
</g>
<!-- Node3 -->
<g id="node3" class="node">
<title>Node3</title>
<g id="a_node3"><a xlink:href="prism_8hpp.html" target="_top" xlink:title="Plik zawiera definicję klasy reprezentujacej graniastoslup o podstawie o 6 wierzcholkach w przestrzen...">
<polygon fill="none" stroke="black" points="164.5,-392.5 164.5,-411.5 229.5,-411.5 229.5,-392.5 164.5,-392.5"/>
<text text-anchor="middle" x="197" y="-399.5" font-family="Helvetica,sans-Serif" font-size="10.00">prism.hpp</text>
</a>
</g>
</g>
<!-- Node2&#45;&gt;Node3 -->
<g id="edge2" class="edge">
<title>Node2&#45;&gt;Node3</title>
<path fill="none" stroke="midnightblue" d="M232.9,-448.08C226.76,-440.38 217.73,-429.03 210.26,-419.65"/>
<polygon fill="midnightblue" stroke="midnightblue" points="212.94,-417.39 203.97,-411.75 207.46,-421.75 212.94,-417.39"/>
</g>
<!-- Node22 -->
<g id="node22" class="node">
<title>Node22</title>
<g id="a_node22"><a xlink:href="cuboid_8hpp.html" target="_top" xlink:title="Plik zawiera definicję klasy reprezentujacej prostopadloscian w przestrzeni trojwymiarowej.">
<polygon fill="none" stroke="black" points="248,-392.5 248,-411.5 318,-411.5 318,-392.5 248,-392.5"/>
<text text-anchor="middle" x="283" y="-399.5" font-family="Helvetica,sans-Serif" font-size="10.00">cuboid.hpp</text>
</a>
</g>
</g>
<!-- Node2&#45;&gt;Node22 -->
<g id="edge31" class="edge">
<title>Node2&#45;&gt;Node22</title>
<path fill="none" stroke="midnightblue" d="M247.1,-448.08C253.24,-440.38 262.27,-429.03 269.74,-419.65"/>
<polygon fill="midnightblue" stroke="midnightblue" points="272.54,-421.75 276.03,-411.75 267.06,-417.39 272.54,-421.75"/>
</g>
<!-- Node23 -->
<g id="node23" class="node">
<title>Node23</title>
<g id="a_node23"><a xlink:href="lacze__do__gnuplota_8hpp.html" target="_top" xlink:title=" ">
<polygon fill="none" stroke="black" points="18,-336.5 18,-355.5 146,-355.5 146,-336.5 18,-336.5"/>
<text text-anchor="middle" x="82" y="-343.5" font-family="Helvetica,sans-Serif" font-size="10.00">lacze_do_gnuplota.hpp</text>
</a>
</g>
</g>
<!-- Node2&#45;&gt;Node23 -->
<g id="edge33" class="edge">
<title>Node2&#45;&gt;Node23</title>
<path fill="none" stroke="midnightblue" d="M220.67,-448.41C202.93,-440.15 176.25,-426.77 155,-412 133.8,-397.27 112.01,-377.09 97.83,-363.14"/>
<polygon fill="midnightblue" stroke="midnightblue" points="99.96,-360.33 90.41,-355.74 95.02,-365.28 99.96,-360.33"/>
</g>
<!-- Node25 -->
<g id="node25" class="node">
<title>Node25</title>
<g id="a_node25"><a xlink:title=" ">
<polygon fill="none" stroke="#bfbfbf" points="336,-392.5 336,-411.5 392,-411.5 392,-392.5 336,-392.5"/>
<text text-anchor="middle" x="364" y="-399.5" font-family="Helvetica,sans-Serif" font-size="10.00">unistd.h</text>
</a>
</g>
</g>
<!-- Node2&#45;&gt;Node25 -->
<g id="edge37" class="edge">
<title>Node2&#45;&gt;Node25</title>
<path fill="none" stroke="midnightblue" d="M259.65,-448.44C279.96,-439.6 311.9,-425.69 335.1,-415.59"/>
<polygon fill="midnightblue" stroke="midnightblue" points="336.67,-418.72 344.44,-411.52 333.88,-412.3 336.67,-418.72"/>
</g>
<!-- Node4 -->
<g id="node4" class="node">
<title>Node4</title>
<g id="a_node4"><a xlink:href="block_8hpp.html" target="_top" xlink:title="Plik zawiera definicję klasy reprezentujacej bryle w przestrzeni trojwymiarowej.">
<polygon fill="none" stroke="black" points="251,-336.5 251,-355.5 315,-355.5 315,-336.5 251,-336.5"/>
<text text-anchor="middle" x="283" y="-343.5" font-family="Helvetica,sans-Serif" font-size="10.00">block.hpp</text>
</a>
</g>
</g>
<!-- Node3&#45;&gt;Node4 -->
<g id="edge3" class="edge">
<title>Node3&#45;&gt;Node4</title>
<path fill="none" stroke="midnightblue" d="M210.82,-392.32C224.23,-383.9 244.82,-370.97 260.59,-361.07"/>
<polygon fill="midnightblue" stroke="midnightblue" points="262.61,-363.94 269.22,-355.65 258.89,-358.01 262.61,-363.94"/>
</g>
<!-- Node5 -->
<g id="node5" class="node">
<title>Node5</title>
<g id="a_node5"><a xlink:title=" ">
<polygon fill="none" stroke="#bfbfbf" points="50,-280.5 50,-299.5 94,-299.5 94,-280.5 50,-280.5"/>
<text text-anchor="middle" x="72" y="-287.5" font-family="Helvetica,sans-Serif" font-size="10.00">string</text>
</a>
</g>
</g>
<!-- Node4&#45;&gt;Node5 -->
<g id="edge4" class="edge">
<title>Node4&#45;&gt;Node5</title>
<path fill="none" stroke="midnightblue" d="M250.72,-337.32C216.59,-329.11 160.97,-315.49 104.19,-300.25"/>
<polygon fill="midnightblue" stroke="midnightblue" points="104.89,-296.81 94.32,-297.59 103.07,-303.57 104.89,-296.81"/>
</g>
<!-- Node6 -->
<g id="node6" class="node">
<title>Node6</title>
<g id="a_node6"><a xlink:title=" ">
<polygon fill="none" stroke="#bfbfbf" points="112.5,-280.5 112.5,-299.5 159.5,-299.5 159.5,-280.5 112.5,-280.5"/>
<text text-anchor="middle" x="136" y="-287.5" font-family="Helvetica,sans-Serif" font-size="10.00">vector</text>
</a>
</g>
</g>
<!-- Node4&#45;&gt;Node6 -->
<g id="edge5" class="edge">
<title>Node4&#45;&gt;Node6</title>
<path fill="none" stroke="midnightblue" d="M259.71,-336.44C235.19,-327.44 196.4,-313.19 168.8,-303.05"/>
<polygon fill="midnightblue" stroke="midnightblue" points="169.78,-299.68 159.18,-299.52 167.36,-306.25 169.78,-299.68"/>
</g>
<!-- Node7 -->
<g id="node7" class="node">
<title>Node7</title>
<g id="a_node7"><a xlink:title=" ">
<polygon fill="none" stroke="#bfbfbf" points="381.5,-280.5 381.5,-299.5 436.5,-299.5 436.5,-280.5 381.5,-280.5"/>
<text text-anchor="middle" x="409" y="-287.5" font-family="Helvetica,sans-Serif" font-size="10.00">fstream</text>
</a>
</g>
</g>
<!-- Node4&#45;&gt;Node7 -->
<g id="edge6" class="edge">
<title>Node4&#45;&gt;Node7</title>
<path fill="none" stroke="midnightblue" d="M302.97,-336.44C323.61,-327.6 356.06,-313.69 379.63,-303.59"/>
<polygon fill="midnightblue" stroke="midnightblue" points="381.32,-306.67 389.13,-299.52 378.56,-300.24 381.32,-306.67"/>
</g>
<!-- Node8 -->
<g id="node8" class="node">
<title>Node8</title>
<g id="a_node8"><a xlink:href="vector3_d_8hpp.html" target="_top" xlink:title="Zawiera deklaracje klasy Vector3D.">
<polygon fill="none" stroke="black" points="121,-168.5 121,-187.5 203,-187.5 203,-168.5 121,-168.5"/>
<text text-anchor="middle" x="162" y="-175.5" font-family="Helvetica,sans-Serif" font-size="10.00">vector3D.hpp</text>
</a>
</g>
</g>
<!-- Node4&#45;&gt;Node8 -->
<g id="edge7" class="edge">
<title>Node4&#45;&gt;Node8</title>
<path fill="none" stroke="midnightblue" d="M271.19,-336.2C260.24,-327.69 243.91,-314.05 232,-300 204.12,-267.12 181.23,-221.61 169.83,-196.83"/>
<polygon fill="midnightblue" stroke="midnightblue" points="172.96,-195.26 165.66,-187.58 166.57,-198.13 172.96,-195.26"/>
</g>
<!-- Node9 -->
<g id="node9" class="node">
<title>Node9</title>
<g id="a_node9"><a xlink:href="vector_8hpp.html" target="_top" xlink:title=" ">
<polygon fill="none" stroke="black" points="386,-112.5 386,-131.5 454,-131.5 454,-112.5 386,-112.5"/>
<text text-anchor="middle" x="420" y="-119.5" font-family="Helvetica,sans-Serif" font-size="10.00">vector.hpp</text>
</a>
</g>
</g>
<!-- Node4&#45;&gt;Node9 -->
<g id="edge19" class="edge">
<title>Node4&#45;&gt;Node9</title>
<path fill="none" stroke="midnightblue" d="M315.29,-340.66C357.91,-334.21 429.37,-320.57 445,-300 480.5,-253.29 459.72,-224.79 445,-168 442.45,-158.18 437.25,-148.21 432.24,-140.17"/>
<polygon fill="midnightblue" stroke="midnightblue" points="435.08,-138.11 426.63,-131.73 429.25,-141.99 435.08,-138.11"/>
</g>
<!-- Node13 -->
<g id="node13" class="node">
<title>Node13</title>
<g id="a_node13"><a xlink:href="count_8hpp.html" target="_top" xlink:title="Plik zawiera definicję klasy reprezentujacej counter, pozwalajacy na liczenie instancji stworzonych k...">
<polygon fill="none" stroke="black" points="547.5,-56.5 547.5,-75.5 612.5,-75.5 612.5,-56.5 547.5,-56.5"/>
<text text-anchor="middle" x="580" y="-63.5" font-family="Helvetica,sans-Serif" font-size="10.00">count.hpp</text>
</a>
</g>
</g>
<!-- Node4&#45;&gt;Node13 -->
<g id="edge18" class="edge">
<title>Node4&#45;&gt;Node13</title>
<path fill="none" stroke="midnightblue" d="M315.08,-341.12C352.69,-335.69 416.22,-323.69 466,-300 509.26,-279.41 552,-282.91 552,-235 552,-235 552,-235 552,-177 552,-143.79 564.13,-106.63 572.43,-85.12"/>
<polygon fill="midnightblue" stroke="midnightblue" points="575.75,-86.23 576.22,-75.65 569.25,-83.63 575.75,-86.23"/>
</g>
<!-- Node17 -->
<g id="node17" class="node">
<title>Node17</title>
<g id="a_node17"><a xlink:href="matrix3_d_8hpp.html" target="_top" xlink:title="Zawiera deklaracje klasy Matrix3D.">
<polygon fill="none" stroke="black" points="241.5,-280.5 241.5,-299.5 324.5,-299.5 324.5,-280.5 241.5,-280.5"/>
<text text-anchor="middle" x="283" y="-287.5" font-family="Helvetica,sans-Serif" font-size="10.00">matrix3D.hpp</text>
</a>
</g>
</g>
<!-- Node4&#45;&gt;Node17 -->
<g id="edge20" class="edge">
<title>Node4&#45;&gt;Node17</title>
<path fill="none" stroke="midnightblue" d="M283,-336.08C283,-329.01 283,-318.86 283,-309.99"/>
<polygon fill="midnightblue" stroke="midnightblue" points="286.5,-309.75 283,-299.75 279.5,-309.75 286.5,-309.75"/>
</g>
<!-- Node18 -->
<g id="node18" class="node">
<title>Node18</title>
<g id="a_node18"><a xlink:href="matrix_8hpp.html" target="_top" xlink:title=" ">
<polygon fill="none" stroke="black" points="356,-224.5 356,-243.5 426,-243.5 426,-224.5 356,-224.5"/>
<text text-anchor="middle" x="391" y="-231.5" font-family="Helvetica,sans-Serif" font-size="10.00">matrix.hpp</text>
</a>
</g>
</g>
<!-- Node4&#45;&gt;Node18 -->
<g id="edge30" class="edge">
<title>Node4&#45;&gt;Node18</title>
<path fill="none" stroke="midnightblue" d="M293.26,-336.35C303.58,-327.51 319.82,-313.24 333,-300 348.76,-284.18 365.63,-264.98 377.09,-251.57"/>
<polygon fill="midnightblue" stroke="midnightblue" points="379.98,-253.58 383.78,-243.68 374.64,-249.05 379.98,-253.58"/>
</g>
<!-- Node8&#45;&gt;Node9 -->
<g id="edge8" class="edge">
<title>Node8&#45;&gt;Node9</title>
<path fill="none" stroke="midnightblue" d="M202.88,-168.44C250.11,-158.56 327.51,-142.36 376.01,-132.21"/>
<polygon fill="midnightblue" stroke="midnightblue" points="376.83,-135.61 385.9,-130.14 375.4,-128.76 376.83,-135.61"/>
</g>
<!-- Node16 -->
<g id="node16" class="node">
<title>Node16</title>
<g id="a_node16"><a xlink:href="vector3_d_8cpp.html" target="_top" xlink:title=" ">
<polygon fill="none" stroke="black" points="77.5,-112.5 77.5,-131.5 184.5,-131.5 184.5,-112.5 77.5,-112.5"/>
<text text-anchor="middle" x="131" y="-119.5" font-family="Helvetica,sans-Serif" font-size="10.00">../src/vector3D.cpp</text>
</a>
</g>
</g>
<!-- Node8&#45;&gt;Node16 -->
<g id="edge16" class="edge">
<title>Node8&#45;&gt;Node16</title>
<path fill="none" stroke="midnightblue" d="M156.88,-168.08C152.59,-160.61 146.34,-149.72 141.06,-140.52"/>
<polygon fill="midnightblue" stroke="midnightblue" points="144.04,-138.68 136.02,-131.75 137.97,-142.17 144.04,-138.68"/>
</g>
<!-- Node10 -->
<g id="node10" class="node">
<title>Node10</title>
<g id="a_node10"><a xlink:title=" ">
<polygon fill="none" stroke="#bfbfbf" points="239,-0.5 239,-19.5 299,-19.5 299,-0.5 239,-0.5"/>
<text text-anchor="middle" x="269" y="-7.5" font-family="Helvetica,sans-Serif" font-size="10.00">iostream</text>
</a>
</g>
</g>
<!-- Node9&#45;&gt;Node10 -->
<g id="edge9" class="edge">
<title>Node9&#45;&gt;Node10</title>
<path fill="none" stroke="midnightblue" d="M385.82,-118.05C356.03,-113.68 313.69,-102.85 288,-76 276.2,-63.67 271.67,-44.42 269.96,-30.06"/>
<polygon fill="midnightblue" stroke="midnightblue" points="273.43,-29.5 269.11,-19.82 266.45,-30.08 273.43,-29.5"/>
</g>
<!-- Node11 -->
<g id="node11" class="node">
<title>Node11</title>
<g id="a_node11"><a xlink:title=" ">
<polygon fill="none" stroke="#bfbfbf" points="297.5,-56.5 297.5,-75.5 344.5,-75.5 344.5,-56.5 297.5,-56.5"/>
<text text-anchor="middle" x="321" y="-63.5" font-family="Helvetica,sans-Serif" font-size="10.00">cmath</text>
</a>
</g>
</g>
<!-- Node9&#45;&gt;Node11 -->
<g id="edge10" class="edge">
<title>Node9&#45;&gt;Node11</title>
<path fill="none" stroke="midnightblue" d="M404.09,-112.32C388.36,-103.74 364.06,-90.49 345.79,-80.52"/>
<polygon fill="midnightblue" stroke="midnightblue" points="347.32,-77.37 336.87,-75.65 343.97,-83.52 347.32,-77.37"/>
</g>
<!-- Node12 -->
<g id="node12" class="node">
<title>Node12</title>
<g id="a_node12"><a xlink:title=" ">
<polygon fill="none" stroke="#bfbfbf" points="363,-56.5 363,-75.5 419,-75.5 419,-56.5 363,-56.5"/>
<text text-anchor="middle" x="391" y="-63.5" font-family="Helvetica,sans-Serif" font-size="10.00">iomanip</text>
</a>
</g>
</g>
<!-- Node9&#45;&gt;Node12 -->
<g id="edge11" class="edge">
<title>Node9&#45;&gt;Node12</title>
<path fill="none" stroke="midnightblue" d="M415.21,-112.08C411.24,-104.69 405.47,-93.95 400.57,-84.81"/>
<polygon fill="midnightblue" stroke="midnightblue" points="403.51,-82.91 395.7,-75.75 397.35,-86.22 403.51,-82.91"/>
</g>
<!-- Node9&#45;&gt;Node13 -->
<g id="edge12" class="edge">
<title>Node9&#45;&gt;Node13</title>
<path fill="none" stroke="midnightblue" d="M445.35,-112.44C472.27,-103.36 515,-88.94 545.09,-78.78"/>
<polygon fill="midnightblue" stroke="midnightblue" points="546.41,-82.03 554.77,-75.52 544.17,-75.4 546.41,-82.03"/>
</g>
<!-- Node15 -->
<g id="node15" class="node">
<title>Node15</title>
<g id="a_node15"><a xlink:title=" ">
<polygon fill="none" stroke="#bfbfbf" points="437,-56.5 437,-75.5 529,-75.5 529,-56.5 437,-56.5"/>
<text text-anchor="middle" x="483" y="-63.5" font-family="Helvetica,sans-Serif" font-size="10.00">../src/vector.tpp</text>
</a>
</g>
</g>
<!-- Node9&#45;&gt;Node15 -->
<g id="edge15" class="edge">
<title>Node9&#45;&gt;Node15</title>
<path fill="none" stroke="midnightblue" d="M430.12,-112.32C439.53,-104.26 453.74,-92.08 465.07,-82.37"/>
<polygon fill="midnightblue" stroke="midnightblue" points="467.38,-85 472.69,-75.83 462.82,-79.68 467.38,-85"/>
</g>
<!-- Node13&#45;&gt;Node10 -->
<g id="edge13" class="edge">
<title>Node13&#45;&gt;Node10</title>
<path fill="none" stroke="midnightblue" d="M547.47,-57.88C544.27,-57.22 541.08,-56.59 538,-56 457.11,-40.58 361.98,-25.34 309.29,-17.16"/>
<polygon fill="midnightblue" stroke="midnightblue" points="309.75,-13.69 299.34,-15.62 308.68,-20.6 309.75,-13.69"/>
</g>
<!-- Node14 -->
<g id="node14" class="node">
<title>Node14</title>
<g id="a_node14"><a xlink:title=" ">
<polygon fill="none" stroke="#bfbfbf" points="535.5,-0.5 535.5,-19.5 624.5,-19.5 624.5,-0.5 535.5,-0.5"/>
<text text-anchor="middle" x="580" y="-7.5" font-family="Helvetica,sans-Serif" font-size="10.00">../src/count.tpp</text>
</a>
</g>
</g>
<!-- Node13&#45;&gt;Node14 -->
<g id="edge14" class="edge">
<title>Node13&#45;&gt;Node14</title>
<path fill="none" stroke="midnightblue" d="M580,-56.08C580,-49.01 580,-38.86 580,-29.99"/>
<polygon fill="midnightblue" stroke="midnightblue" points="583.5,-29.75 580,-19.75 576.5,-29.75 583.5,-29.75"/>
</g>
<!-- Node16&#45;&gt;Node16 -->
<g id="edge17" class="edge">
<title>Node16&#45;&gt;Node16</title>
<path fill="none" stroke="midnightblue" d="M161.49,-131.53C182.22,-134.31 202.5,-131.13 202.5,-122 202.5,-114.37 188.33,-110.89 171.57,-111.59"/>
<polygon fill="midnightblue" stroke="midnightblue" points="171.15,-108.11 161.49,-112.47 171.76,-115.08 171.15,-108.11"/>
</g>
<!-- Node17&#45;&gt;Node8 -->
<g id="edge27" class="edge">
<title>Node17&#45;&gt;Node8</title>
<path fill="none" stroke="midnightblue" d="M268.81,-280.41C255.34,-271.95 234.86,-258.25 219,-244 202.33,-229.03 185.72,-209.41 174.76,-195.66"/>
<polygon fill="midnightblue" stroke="midnightblue" points="177.36,-193.3 168.44,-187.58 171.85,-197.61 177.36,-193.3"/>
</g>
<!-- Node17&#45;&gt;Node18 -->
<g id="edge21" class="edge">
<title>Node17&#45;&gt;Node18</title>
<path fill="none" stroke="midnightblue" d="M300.35,-280.32C317.67,-271.66 344.52,-258.24 364.5,-248.25"/>
<polygon fill="midnightblue" stroke="midnightblue" points="366.31,-251.26 373.69,-243.65 363.18,-245 366.31,-251.26"/>
</g>
<!-- Node21 -->
<g id="node21" class="node">
<title>Node21</title>
<g id="a_node21"><a xlink:href="matrix3_d_8cpp.html" target="_top" xlink:title=" ">
<polygon fill="none" stroke="black" points="228.5,-224.5 228.5,-243.5 337.5,-243.5 337.5,-224.5 228.5,-224.5"/>
<text text-anchor="middle" x="283" y="-231.5" font-family="Helvetica,sans-Serif" font-size="10.00">../src/matrix3D.cpp</text>
</a>
</g>
</g>
<!-- Node17&#45;&gt;Node21 -->
<g id="edge28" class="edge">
<title>Node17&#45;&gt;Node21</title>
<path fill="none" stroke="midnightblue" d="M277.83,-280.08C276.32,-272.93 275.89,-262.64 276.54,-253.69"/>
<polygon fill="midnightblue" stroke="midnightblue" points="280.02,-254.13 277.87,-243.75 273.08,-253.2 280.02,-254.13"/>
</g>
<!-- Node18&#45;&gt;Node8 -->
<g id="edge23" class="edge">
<title>Node18&#45;&gt;Node8</title>
<path fill="none" stroke="midnightblue" d="M355.72,-224.68C316.03,-215.32 251.43,-200.09 207.85,-189.81"/>
<polygon fill="midnightblue" stroke="midnightblue" points="208.61,-186.4 198.08,-187.51 207.01,-193.21 208.61,-186.4"/>
</g>
<!-- Node18&#45;&gt;Node9 -->
<g id="edge22" class="edge">
<title>Node18&#45;&gt;Node9</title>
<path fill="none" stroke="midnightblue" d="M401.71,-224.3C410.94,-216.07 423.59,-202.79 429,-188 434.56,-172.8 431.18,-154.46 427.07,-141.14"/>
<polygon fill="midnightblue" stroke="midnightblue" points="430.37,-139.98 423.77,-131.69 423.76,-142.29 430.37,-139.98"/>
</g>
<!-- Node18&#45;&gt;Node10 -->
<g id="edge24" class="edge">
<title>Node18&#45;&gt;Node10</title>
<path fill="none" stroke="midnightblue" d="M357.18,-224.44C317.57,-214.07 256.5,-196.9 250,-188 214.81,-139.83 243.49,-63.67 259.73,-29.11"/>
<polygon fill="midnightblue" stroke="midnightblue" points="263.03,-30.33 264.29,-19.8 256.75,-27.25 263.03,-30.33"/>
</g>
<!-- Node19 -->
<g id="node19" class="node">
<title>Node19</title>
<g id="a_node19"><a xlink:title=" ">
<polygon fill="none" stroke="#bfbfbf" points="371.5,-168.5 371.5,-187.5 420.5,-187.5 420.5,-168.5 371.5,-168.5"/>
<text text-anchor="middle" x="396" y="-175.5" font-family="Helvetica,sans-Serif" font-size="10.00">cstdlib</text>
</a>
</g>
</g>
<!-- Node18&#45;&gt;Node19 -->
<g id="edge25" class="edge">
<title>Node18&#45;&gt;Node19</title>
<path fill="none" stroke="midnightblue" d="M391.83,-224.08C392.48,-217.01 393.42,-206.86 394.24,-197.99"/>
<polygon fill="midnightblue" stroke="midnightblue" points="397.75,-198.03 395.19,-187.75 390.78,-197.39 397.75,-198.03"/>
</g>
<!-- Node20 -->
<g id="node20" class="node">
<title>Node20</title>
<g id="a_node20"><a xlink:title=" ">
<polygon fill="none" stroke="#bfbfbf" points="259,-168.5 259,-187.5 353,-187.5 353,-168.5 259,-168.5"/>
<text text-anchor="middle" x="306" y="-175.5" font-family="Helvetica,sans-Serif" font-size="10.00">../src/matrix.tpp</text>
</a>
</g>
</g>
<!-- Node18&#45;&gt;Node20 -->
<g id="edge26" class="edge">
<title>Node18&#45;&gt;Node20</title>
<path fill="none" stroke="midnightblue" d="M377.34,-224.32C364.08,-215.9 343.73,-202.97 328.15,-193.07"/>
<polygon fill="midnightblue" stroke="midnightblue" points="329.94,-190.06 319.62,-187.65 326.19,-195.97 329.94,-190.06"/>
</g>
<!-- Node21&#45;&gt;Node17 -->
<g id="edge29" class="edge">
<title>Node21&#45;&gt;Node17</title>
<path fill="none" stroke="midnightblue" d="M288.13,-243.75C289.66,-250.86 290.1,-261.14 289.47,-270.1"/>
<polygon fill="midnightblue" stroke="midnightblue" points="285.99,-269.71 288.17,-280.08 292.93,-270.62 285.99,-269.71"/>
</g>
<!-- Node22&#45;&gt;Node4 -->
<g id="edge32" class="edge">
<title>Node22&#45;&gt;Node4</title>
<path fill="none" stroke="midnightblue" d="M283,-392.08C283,-385.01 283,-374.86 283,-365.99"/>
<polygon fill="midnightblue" stroke="midnightblue" points="286.5,-365.75 283,-355.75 279.5,-365.75 286.5,-365.75"/>
</g>
<!-- Node23&#45;&gt;Node5 -->
<g id="edge34" class="edge">
<title>Node23&#45;&gt;Node5</title>
<path fill="none" stroke="midnightblue" d="M80.35,-336.08C79.02,-328.93 77.12,-318.64 75.46,-309.69"/>
<polygon fill="midnightblue" stroke="midnightblue" points="78.88,-308.95 73.62,-299.75 72,-310.22 78.88,-308.95"/>
</g>
<!-- Node23&#45;&gt;Node6 -->
<g id="edge36" class="edge">
<title>Node23&#45;&gt;Node6</title>
<path fill="none" stroke="midnightblue" d="M90.92,-336.08C98.78,-328.22 110.43,-316.57 119.92,-307.08"/>
<polygon fill="midnightblue" stroke="midnightblue" points="122.65,-309.3 127.25,-299.75 117.7,-304.35 122.65,-309.3"/>
</g>
<!-- Node24 -->
<g id="node24" class="node">
<title>Node24</title>
<g id="a_node24"><a xlink:title=" ">
<polygon fill="none" stroke="#bfbfbf" points="0,-280.5 0,-299.5 32,-299.5 32,-280.5 0,-280.5"/>
<text text-anchor="middle" x="16" y="-287.5" font-family="Helvetica,sans-Serif" font-size="10.00">list</text>
</a>
</g>
</g>
<!-- Node23&#45;&gt;Node24 -->
<g id="edge35" class="edge">
<title>Node23&#45;&gt;Node24</title>
<path fill="none" stroke="midnightblue" d="M71.4,-336.32C61.54,-328.26 46.65,-316.08 34.78,-306.37"/>
<polygon fill="midnightblue" stroke="midnightblue" points="36.75,-303.46 26.8,-299.83 32.32,-308.88 36.75,-303.46"/>
</g>
</g>
</svg>
