<?xml version="1.0" encoding="UTF-8" standalone="no"?>
<!DOCTYPE svg PUBLIC "-//W3C//DTD SVG 1.1//EN"
 "http://www.w3.org/Graphics/SVG/1.1/DTD/svg11.dtd">
<!-- Generated by graphviz version 2.43.0 (0)
 -->
<!-- Title: Graphical Class Hierarchy Pages: 1 -->
<svg width="239pt" height="199pt"
 viewBox="0.00 0.00 239.00 199.00" xmlns="http://www.w3.org/2000/svg" xmlns:xlink="http://www.w3.org/1999/xlink">
<g id="graph0" class="graph" transform="scale(1 1) rotate(0) translate(4 195)">
<title>Graphical Class Hierarchy</title>
<!-- Node0 -->
<g id="node1" class="node">
<title>Node0</title>
<g id="a_node1"><a xlink:href="class_block.html" target="_top" xlink:title="Opisuje figure geometryczna w przestrzeni trojwymiarowej.">
<polygon fill="none" stroke="black" points="0,-95.5 0,-114.5 44,-114.5 44,-95.5 0,-95.5"/>
<text text-anchor="middle" x="22" y="-102.5" font-family="Helvetica,sans-Serif" font-size="10.00">Block</text>
</a>
</g>
</g>
<!-- Node1 -->
<g id="node2" class="node">
<title>Node1</title>
<g id="a_node2"><a xlink:href="class_cuboid.html" target="_top" xlink:title="Opisuje prostopadloscian w przestrzeni trojwymiarowej.">
<polygon fill="none" stroke="black" points="80,-152.5 80,-171.5 130,-171.5 130,-152.5 80,-152.5"/>
<text text-anchor="middle" x="105" y="-159.5" font-family="Helvetica,sans-Serif" font-size="10.00">Cuboid</text>
</a>
</g>
</g>
<!-- Node0&#45;&gt;Node1 -->
<g id="edge1" class="edge">
<title>Node0&#45;&gt;Node1</title>
<path fill="none" stroke="midnightblue" d="M45.16,-120.59C59.65,-130.79 78.12,-143.79 90.46,-152.47"/>
<polygon fill="midnightblue" stroke="midnightblue" points="46.93,-117.56 36.74,-114.67 42.9,-123.29 46.93,-117.56"/>
</g>
<!-- Node4 -->
<g id="node5" class="node">
<title>Node4</title>
<g id="a_node5"><a xlink:href="class_drone.html" target="_top" xlink:title="Opisuje drona o prostopadlosciennym korpusie i 4 rotorach.">
<polygon fill="none" stroke="black" points="82,-114.5 82,-133.5 128,-133.5 128,-114.5 82,-114.5"/>
<text text-anchor="middle" x="105" y="-121.5" font-family="Helvetica,sans-Serif" font-size="10.00">Drone</text>
</a>
</g>
</g>
<!-- Node0&#45;&gt;Node4 -->
<g id="edge4" class="edge">
<title>Node0&#45;&gt;Node4</title>
<path fill="none" stroke="midnightblue" d="M54.24,-112.33C63.41,-114.48 73.24,-116.79 81.73,-118.78"/>
<polygon fill="midnightblue" stroke="midnightblue" points="54.82,-108.87 44.28,-109.99 53.22,-115.68 54.82,-108.87"/>
</g>
<!-- Node5 -->
<g id="node6" class="node">
<title>Node5</title>
<g id="a_node6"><a xlink:href="class_plane.html" target="_top" xlink:title="Opisuje plaska powierzchnie w 3D reprezentujaca powierzchnie marsa, plasczyzna docelowo rysuje sie w ...">
<polygon fill="none" stroke="black" points="83,-76.5 83,-95.5 127,-95.5 127,-76.5 83,-76.5"/>
<text text-anchor="middle" x="105" y="-83.5" font-family="Helvetica,sans-Serif" font-size="10.00">Plane</text>
</a>
</g>
</g>
<!-- Node0&#45;&gt;Node5 -->
<g id="edge5" class="edge">
<title>Node0&#45;&gt;Node5</title>
<path fill="none" stroke="midnightblue" d="M54.27,-97.66C63.84,-95.42 74.13,-93.01 82.86,-90.96"/>
<polygon fill="midnightblue" stroke="midnightblue" points="53.22,-94.32 44.28,-100.01 54.82,-101.13 53.22,-94.32"/>
</g>
<!-- Node6 -->
<g id="node7" class="node">
<title>Node6</title>
<g id="a_node7"><a xlink:href="class_prism.html" target="_top" xlink:title="Opisuje graniastoslup o dwunastu wierzcholkach w przestrzeni trojwymiarowej.">
<polygon fill="none" stroke="black" points="83,-38.5 83,-57.5 127,-57.5 127,-38.5 83,-38.5"/>
<text text-anchor="middle" x="105" y="-45.5" font-family="Helvetica,sans-Serif" font-size="10.00">Prism</text>
</a>
</g>
</g>
<!-- Node0&#45;&gt;Node6 -->
<g id="edge6" class="edge">
<title>Node0&#45;&gt;Node6</title>
<path fill="none" stroke="midnightblue" d="M45.16,-89.41C59.65,-79.21 78.12,-66.21 90.46,-57.53"/>
<polygon fill="midnightblue" stroke="midnightblue" points="42.9,-86.71 36.74,-95.33 46.93,-92.44 42.9,-86.71"/>
</g>
<!-- Node2 -->
<g id="node3" class="node">
<title>Node2</title>
<g id="a_node3"><a xlink:href="class_pyramid.html" target="_top" xlink:title="Opisuje ostroslup o podstawie prostokatnej w przestrzeni trojmwymiarowej Jest klasa dziedziczaca z kl...">
<polygon fill="none" stroke="black" points="170,-171.5 170,-190.5 227,-190.5 227,-171.5 170,-171.5"/>
<text text-anchor="middle" x="198.5" y="-178.5" font-family="Helvetica,sans-Serif" font-size="10.00">Pyramid</text>
</a>
</g>
</g>
<!-- Node1&#45;&gt;Node2 -->
<g id="edge2" class="edge">
<title>Node1&#45;&gt;Node2</title>
<path fill="none" stroke="midnightblue" d="M139.91,-169.04C149.73,-171.08 160.33,-173.28 169.73,-175.23"/>
<polygon fill="midnightblue" stroke="midnightblue" points="140.54,-165.6 130.04,-166.99 139.12,-172.45 140.54,-165.6"/>
</g>
<!-- Node3 -->
<g id="node4" class="node">
<title>Node3</title>
<g id="a_node4"><a xlink:href="class_triangular.html" target="_top" xlink:title="Opisuje graniastoslup o podstawie trojkatnej w przestrzeni trojwymiarowej Jest klasa dziedziczaca z k...">
<polygon fill="none" stroke="black" points="166,-133.5 166,-152.5 231,-152.5 231,-133.5 166,-133.5"/>
<text text-anchor="middle" x="198.5" y="-140.5" font-family="Helvetica,sans-Serif" font-size="10.00">Triangular</text>
</a>
</g>
</g>
<!-- Node1&#45;&gt;Node3 -->
<g id="edge3" class="edge">
<title>Node1&#45;&gt;Node3</title>
<path fill="none" stroke="midnightblue" d="M139.95,-154.95C148.38,-153.2 157.38,-151.33 165.7,-149.6"/>
<polygon fill="midnightblue" stroke="midnightblue" points="139.12,-151.55 130.04,-157.01 140.54,-158.4 139.12,-151.55"/>
</g>
<!-- Node7 -->
<g id="node8" class="node">
<title>Node7</title>
<g id="a_node8"><a xlink:href="class_circus.html" target="_top" xlink:title="Opisuje graniastoslup szesciokatny o podwyzszonym srodku gornej podstawy. Jest klasa dziedziczaca z k...">
<polygon fill="none" stroke="black" points="175,-76.5 175,-95.5 222,-95.5 222,-76.5 175,-76.5"/>
<text text-anchor="middle" x="198.5" y="-83.5" font-family="Helvetica,sans-Serif" font-size="10.00">Circus</text>
</a>
</g>
</g>
<!-- Node6&#45;&gt;Node7 -->
<g id="edge7" class="edge">
<title>Node6&#45;&gt;Node7</title>
<path fill="none" stroke="midnightblue" d="M136.76,-60.78C149.2,-65.94 163.31,-71.8 174.79,-76.57"/>
<polygon fill="midnightblue" stroke="midnightblue" points="137.8,-57.42 127.22,-56.81 135.11,-63.88 137.8,-57.42"/>
</g>
<!-- Node8 -->
<g id="node9" class="node">
<title>Node8</title>
<g id="a_node9"><a xlink:href="class_tent.html" target="_top" xlink:title="Opisuje ostroslup szesciokatny prawidlowy (moze miec nieregularna podstawe) Jest klasa dziedziczaca z...">
<polygon fill="none" stroke="black" points="180,-38.5 180,-57.5 217,-57.5 217,-38.5 180,-38.5"/>
<text text-anchor="middle" x="198.5" y="-45.5" font-family="Helvetica,sans-Serif" font-size="10.00">Tent</text>
</a>
</g>
</g>
<!-- Node6&#45;&gt;Node8 -->
<g id="edge8" class="edge">
<title>Node6&#45;&gt;Node8</title>
<path fill="none" stroke="midnightblue" d="M137.53,-48C151.66,-48 167.8,-48 179.78,-48"/>
<polygon fill="midnightblue" stroke="midnightblue" points="137.22,-44.5 127.22,-48 137.22,-51.5 137.22,-44.5"/>
</g>
<!-- Node9 -->
<g id="node10" class="node">
<title>Node9</title>
<g id="a_node10"><a xlink:href="class_volcano.html" target="_top" xlink:title="Opisuje graniastoslup szesciokatny o podwyzszonym srodku gornej podstawy. Jest klasa dziedziczaca z k...">
<polygon fill="none" stroke="black" points="171,-0.5 171,-19.5 226,-19.5 226,-0.5 171,-0.5"/>
<text text-anchor="middle" x="198.5" y="-7.5" font-family="Helvetica,sans-Serif" font-size="10.00">Volcano</text>
</a>
</g>
</g>
<!-- Node6&#45;&gt;Node9 -->
<g id="edge9" class="edge">
<title>Node6&#45;&gt;Node9</title>
<path fill="none" stroke="midnightblue" d="M136.69,-35.26C149.03,-30.13 163.02,-24.32 174.47,-19.56"/>
<polygon fill="midnightblue" stroke="midnightblue" points="135.11,-32.12 127.22,-39.19 137.8,-38.58 135.11,-32.12"/>
</g>
</g>
</svg>
