<?xml version="1.0" encoding="UTF-8" standalone="no"?>
<!DOCTYPE svg PUBLIC "-//W3C//DTD SVG 1.1//EN"
 "http://www.w3.org/Graphics/SVG/1.1/DTD/svg11.dtd">
<!-- Generated by graphviz version 2.43.0 (0)
 -->
<!-- Title: /home/krzysztof/PO/zad5_2&#45;kgliwinski/src/lacze_do_gnuplota.cpp Pages: 1 -->
<svg width="929pt" height="162pt"
 viewBox="0.00 0.00 928.50 162.00" xmlns="http://www.w3.org/2000/svg" xmlns:xlink="http://www.w3.org/1999/xlink">
<g id="graph0" class="graph" transform="scale(1 1) rotate(0) translate(4 158)">
<title>/home/krzysztof/PO/zad5_2&#45;kgliwinski/src/lacze_do_gnuplota.cpp</title>
<!-- Node1 -->
<g id="node1" class="node">
<title>Node1</title>
<g id="a_node1"><a xlink:title=" ">
<polygon fill="#bfbfbf" stroke="black" points="348.5,-112.5 348.5,-153.5 479.5,-153.5 479.5,-112.5 348.5,-112.5"/>
<text text-anchor="start" x="356.5" y="-141.5" font-family="Helvetica,sans-Serif" font-size="10.00">/home/krzysztof/PO</text>
<text text-anchor="start" x="356.5" y="-130.5" font-family="Helvetica,sans-Serif" font-size="10.00">/zad5_2&#45;kgliwinski/src</text>
<text text-anchor="middle" x="414" y="-119.5" font-family="Helvetica,sans-Serif" font-size="10.00">/lacze_do_gnuplota.cpp</text>
</a>
</g>
</g>
<!-- Node2 -->
<g id="node2" class="node">
<title>Node2</title>
<g id="a_node2"><a xlink:title=" ">
<polygon fill="none" stroke="#bfbfbf" points="0,-56.5 0,-75.5 46,-75.5 46,-56.5 0,-56.5"/>
<text text-anchor="middle" x="23" y="-63.5" font-family="Helvetica,sans-Serif" font-size="10.00">cstdio</text>
</a>
</g>
</g>
<!-- Node1&#45;&gt;Node2 -->
<g id="edge1" class="edge">
<title>Node1&#45;&gt;Node2</title>
<path fill="none" stroke="midnightblue" d="M348.38,-124.16C278.26,-115.24 163.74,-99.13 56.37,-76.09"/>
<polygon fill="midnightblue" stroke="midnightblue" points="56.85,-72.61 46.34,-73.91 55.37,-79.45 56.85,-72.61"/>
</g>
<!-- Node3 -->
<g id="node3" class="node">
<title>Node3</title>
<g id="a_node3"><a xlink:title=" ">
<polygon fill="none" stroke="#bfbfbf" points="64,-56.5 64,-75.5 114,-75.5 114,-56.5 64,-56.5"/>
<text text-anchor="middle" x="89" y="-63.5" font-family="Helvetica,sans-Serif" font-size="10.00">cstring</text>
</a>
</g>
</g>
<!-- Node1&#45;&gt;Node3 -->
<g id="edge2" class="edge">
<title>Node1&#45;&gt;Node3</title>
<path fill="none" stroke="midnightblue" d="M348.43,-120.71C291.53,-110.61 206.75,-94.83 124.02,-76.11"/>
<polygon fill="midnightblue" stroke="midnightblue" points="124.73,-72.69 114.2,-73.88 123.18,-79.51 124.73,-72.69"/>
</g>
<!-- Node4 -->
<g id="node4" class="node">
<title>Node4</title>
<g id="a_node4"><a xlink:title=" ">
<polygon fill="none" stroke="#bfbfbf" points="132.5,-56.5 132.5,-75.5 179.5,-75.5 179.5,-56.5 132.5,-56.5"/>
<text text-anchor="middle" x="156" y="-63.5" font-family="Helvetica,sans-Serif" font-size="10.00">cmath</text>
</a>
</g>
</g>
<!-- Node1&#45;&gt;Node4 -->
<g id="edge3" class="edge">
<title>Node1&#45;&gt;Node4</title>
<path fill="none" stroke="midnightblue" d="M348.1,-116.25C305.33,-105.89 248.15,-91.79 189.54,-76.36"/>
<polygon fill="midnightblue" stroke="midnightblue" points="190.31,-72.94 179.74,-73.77 188.52,-79.71 190.31,-72.94"/>
</g>
<!-- Node5 -->
<g id="node5" class="node">
<title>Node5</title>
<g id="a_node5"><a xlink:title=" ">
<polygon fill="none" stroke="#bfbfbf" points="197.5,-56.5 197.5,-75.5 246.5,-75.5 246.5,-56.5 197.5,-56.5"/>
<text text-anchor="middle" x="222" y="-63.5" font-family="Helvetica,sans-Serif" font-size="10.00">cstdlib</text>
</a>
</g>
</g>
<!-- Node1&#45;&gt;Node5 -->
<g id="edge4" class="edge">
<title>Node1&#45;&gt;Node5</title>
<path fill="none" stroke="midnightblue" d="M356.39,-112.5C323.73,-101.44 283.97,-87.98 256.21,-78.58"/>
<polygon fill="midnightblue" stroke="midnightblue" points="257.15,-75.2 246.55,-75.31 254.9,-81.83 257.15,-75.2"/>
</g>
<!-- Node6 -->
<g id="node6" class="node">
<title>Node6</title>
<g id="a_node6"><a xlink:title=" ">
<polygon fill="none" stroke="#bfbfbf" points="265,-56.5 265,-75.5 325,-75.5 325,-56.5 265,-56.5"/>
<text text-anchor="middle" x="295" y="-63.5" font-family="Helvetica,sans-Serif" font-size="10.00">iostream</text>
</a>
</g>
</g>
<!-- Node1&#45;&gt;Node6 -->
<g id="edge5" class="edge">
<title>Node1&#45;&gt;Node6</title>
<path fill="none" stroke="midnightblue" d="M378.3,-112.5C359.52,-102.24 336.97,-89.93 320.07,-80.69"/>
<polygon fill="midnightblue" stroke="midnightblue" points="321.29,-77.37 310.84,-75.65 317.94,-83.52 321.29,-77.37"/>
</g>
<!-- Node7 -->
<g id="node7" class="node">
<title>Node7</title>
<g id="a_node7"><a xlink:title=" ">
<polygon fill="none" stroke="#bfbfbf" points="343,-56.5 343,-75.5 407,-75.5 407,-56.5 343,-56.5"/>
<text text-anchor="middle" x="375" y="-63.5" font-family="Helvetica,sans-Serif" font-size="10.00">sys/stat.h</text>
</a>
</g>
</g>
<!-- Node1&#45;&gt;Node7 -->
<g id="edge6" class="edge">
<title>Node1&#45;&gt;Node7</title>
<path fill="none" stroke="midnightblue" d="M402.3,-112.5C396.95,-103.59 390.67,-93.11 385.48,-84.46"/>
<polygon fill="midnightblue" stroke="midnightblue" points="388.34,-82.43 380.19,-75.65 382.34,-86.03 388.34,-82.43"/>
</g>
<!-- Node8 -->
<g id="node8" class="node">
<title>Node8</title>
<g id="a_node8"><a xlink:title=" ">
<polygon fill="none" stroke="#bfbfbf" points="425,-56.5 425,-75.5 481,-75.5 481,-56.5 425,-56.5"/>
<text text-anchor="middle" x="453" y="-63.5" font-family="Helvetica,sans-Serif" font-size="10.00">unistd.h</text>
</a>
</g>
</g>
<!-- Node1&#45;&gt;Node8 -->
<g id="edge7" class="edge">
<title>Node1&#45;&gt;Node8</title>
<path fill="none" stroke="midnightblue" d="M425.7,-112.5C431.05,-103.59 437.33,-93.11 442.52,-84.46"/>
<polygon fill="midnightblue" stroke="midnightblue" points="445.66,-86.03 447.81,-75.65 439.66,-82.43 445.66,-86.03"/>
</g>
<!-- Node9 -->
<g id="node9" class="node">
<title>Node9</title>
<g id="a_node9"><a xlink:title=" ">
<polygon fill="none" stroke="#bfbfbf" points="499.5,-56.5 499.5,-75.5 546.5,-75.5 546.5,-56.5 499.5,-56.5"/>
<text text-anchor="middle" x="523" y="-63.5" font-family="Helvetica,sans-Serif" font-size="10.00">fcntl.h</text>
</a>
</g>
</g>
<!-- Node1&#45;&gt;Node9 -->
<g id="edge8" class="edge">
<title>Node1&#45;&gt;Node9</title>
<path fill="none" stroke="midnightblue" d="M446.7,-112.5C463.74,-102.34 484.17,-90.16 499.6,-80.95"/>
<polygon fill="midnightblue" stroke="midnightblue" points="501.69,-83.78 508.49,-75.65 498.11,-77.77 501.69,-83.78"/>
</g>
<!-- Node10 -->
<g id="node10" class="node">
<title>Node10</title>
<g id="a_node10"><a xlink:title=" ">
<polygon fill="none" stroke="#bfbfbf" points="565,-56.5 565,-75.5 621,-75.5 621,-56.5 565,-56.5"/>
<text text-anchor="middle" x="593" y="-63.5" font-family="Helvetica,sans-Serif" font-size="10.00">sstream</text>
</a>
</g>
</g>
<!-- Node1&#45;&gt;Node10 -->
<g id="edge9" class="edge">
<title>Node1&#45;&gt;Node10</title>
<path fill="none" stroke="midnightblue" d="M467.71,-112.5C497.52,-101.67 533.69,-88.54 559.49,-79.17"/>
<polygon fill="midnightblue" stroke="midnightblue" points="560.97,-82.36 569.17,-75.65 558.58,-75.78 560.97,-82.36"/>
</g>
<!-- Node11 -->
<g id="node11" class="node">
<title>Node11</title>
<g id="a_node11"><a xlink:title=" ">
<polygon fill="none" stroke="#bfbfbf" points="639.5,-56.5 639.5,-75.5 694.5,-75.5 694.5,-56.5 639.5,-56.5"/>
<text text-anchor="middle" x="667" y="-63.5" font-family="Helvetica,sans-Serif" font-size="10.00">fstream</text>
</a>
</g>
</g>
<!-- Node1&#45;&gt;Node11 -->
<g id="edge10" class="edge">
<title>Node1&#45;&gt;Node11</title>
<path fill="none" stroke="midnightblue" d="M479.81,-115.09C527.49,-102.84 590.25,-86.72 629.61,-76.61"/>
<polygon fill="midnightblue" stroke="midnightblue" points="630.52,-79.99 639.33,-74.11 628.78,-73.21 630.52,-79.99"/>
</g>
<!-- Node12 -->
<g id="node12" class="node">
<title>Node12</title>
<g id="a_node12"><a xlink:title=" ">
<polygon fill="none" stroke="#bfbfbf" points="713,-56.5 713,-75.5 757,-75.5 757,-56.5 713,-56.5"/>
<text text-anchor="middle" x="735" y="-63.5" font-family="Helvetica,sans-Serif" font-size="10.00">limits</text>
</a>
</g>
</g>
<!-- Node1&#45;&gt;Node12 -->
<g id="edge11" class="edge">
<title>Node1&#45;&gt;Node12</title>
<path fill="none" stroke="midnightblue" d="M479.75,-120.86C536.31,-110.91 620.23,-95.28 702.87,-75.86"/>
<polygon fill="midnightblue" stroke="midnightblue" points="703.76,-79.24 712.68,-73.53 702.14,-72.43 703.76,-79.24"/>
</g>
<!-- Node13 -->
<g id="node13" class="node">
<title>Node13</title>
<g id="a_node13"><a xlink:href="lacze__do__gnuplota_8hpp.html" target="_top" xlink:title=" ">
<polygon fill="none" stroke="black" points="775,-56.5 775,-75.5 903,-75.5 903,-56.5 775,-56.5"/>
<text text-anchor="middle" x="839" y="-63.5" font-family="Helvetica,sans-Serif" font-size="10.00">lacze_do_gnuplota.hpp</text>
</a>
</g>
</g>
<!-- Node1&#45;&gt;Node13 -->
<g id="edge12" class="edge">
<title>Node1&#45;&gt;Node13</title>
<path fill="none" stroke="midnightblue" d="M479.94,-121.92C559.87,-109.69 693.75,-89.21 773.49,-77.02"/>
<polygon fill="midnightblue" stroke="midnightblue" points="774.06,-80.47 783.42,-75.5 773,-73.55 774.06,-80.47"/>
</g>
<!-- Node14 -->
<g id="node14" class="node">
<title>Node14</title>
<g id="a_node14"><a xlink:title=" ">
<polygon fill="none" stroke="#bfbfbf" points="761,-0.5 761,-19.5 805,-19.5 805,-0.5 761,-0.5"/>
<text text-anchor="middle" x="783" y="-7.5" font-family="Helvetica,sans-Serif" font-size="10.00">string</text>
</a>
</g>
</g>
<!-- Node13&#45;&gt;Node14 -->
<g id="edge13" class="edge">
<title>Node13&#45;&gt;Node14</title>
<path fill="none" stroke="midnightblue" d="M830,-56.32C821.81,-48.42 809.49,-36.55 799.53,-26.94"/>
<polygon fill="midnightblue" stroke="midnightblue" points="801.79,-24.26 792.16,-19.83 796.93,-29.29 801.79,-24.26"/>
</g>
<!-- Node15 -->
<g id="node15" class="node">
<title>Node15</title>
<g id="a_node15"><a xlink:title=" ">
<polygon fill="none" stroke="#bfbfbf" points="823,-0.5 823,-19.5 855,-19.5 855,-0.5 823,-0.5"/>
<text text-anchor="middle" x="839" y="-7.5" font-family="Helvetica,sans-Serif" font-size="10.00">list</text>
</a>
</g>
</g>
<!-- Node13&#45;&gt;Node15 -->
<g id="edge14" class="edge">
<title>Node13&#45;&gt;Node15</title>
<path fill="none" stroke="midnightblue" d="M839,-56.08C839,-49.01 839,-38.86 839,-29.99"/>
<polygon fill="midnightblue" stroke="midnightblue" points="842.5,-29.75 839,-19.75 835.5,-29.75 842.5,-29.75"/>
</g>
<!-- Node16 -->
<g id="node16" class="node">
<title>Node16</title>
<g id="a_node16"><a xlink:title=" ">
<polygon fill="none" stroke="#bfbfbf" points="873.5,-0.5 873.5,-19.5 920.5,-19.5 920.5,-0.5 873.5,-0.5"/>
<text text-anchor="middle" x="897" y="-7.5" font-family="Helvetica,sans-Serif" font-size="10.00">vector</text>
</a>
</g>
</g>
<!-- Node13&#45;&gt;Node16 -->
<g id="edge15" class="edge">
<title>Node13&#45;&gt;Node16</title>
<path fill="none" stroke="midnightblue" d="M848.32,-56.32C856.89,-48.34 869.81,-36.31 880.19,-26.65"/>
<polygon fill="midnightblue" stroke="midnightblue" points="882.58,-29.21 887.51,-19.83 877.81,-24.09 882.58,-29.21"/>
</g>
</g>
</svg>
