<?xml version="1.0" encoding="UTF-8" standalone="no"?>
<!DOCTYPE svg PUBLIC "-//W3C//DTD SVG 1.1//EN"
 "http://www.w3.org/Graphics/SVG/1.1/DTD/svg11.dtd">
<!-- Generated by graphviz version 2.43.0 (0)
 -->
<!-- Title: /home/krzysztof/PO/zad5_2&#45;kgliwinski/src/matrix2D.cpp Pages: 1 -->
<svg width="442pt" height="386pt"
 viewBox="0.00 0.00 442.00 386.00" xmlns="http://www.w3.org/2000/svg" xmlns:xlink="http://www.w3.org/1999/xlink">
<g id="graph0" class="graph" transform="scale(1 1) rotate(0) translate(4 382)">
<title>/home/krzysztof/PO/zad5_2&#45;kgliwinski/src/matrix2D.cpp</title>
<!-- Node1 -->
<g id="node1" class="node">
<title>Node1</title>
<g id="a_node1"><a xlink:title=" ">
<polygon fill="#bfbfbf" stroke="black" points="150.5,-336.5 150.5,-377.5 275.5,-377.5 275.5,-336.5 150.5,-336.5"/>
<text text-anchor="start" x="158.5" y="-365.5" font-family="Helvetica,sans-Serif" font-size="10.00">/home/krzysztof/PO</text>
<text text-anchor="start" x="158.5" y="-354.5" font-family="Helvetica,sans-Serif" font-size="10.00">/zad5_2&#45;kgliwinski/src</text>
<text text-anchor="middle" x="213" y="-343.5" font-family="Helvetica,sans-Serif" font-size="10.00">/matrix2D.cpp</text>
</a>
</g>
</g>
<!-- Node2 -->
<g id="node2" class="node">
<title>Node2</title>
<g id="a_node2"><a xlink:href="matrix2_d_8hpp.html" target="_top" xlink:title="Zawiera deklaracje klasy Matrix2D.">
<polygon fill="none" stroke="black" points="147.5,-280.5 147.5,-299.5 278.5,-299.5 278.5,-280.5 147.5,-280.5"/>
<text text-anchor="middle" x="213" y="-287.5" font-family="Helvetica,sans-Serif" font-size="10.00">../include/matrix2D.hpp</text>
</a>
</g>
</g>
<!-- Node1&#45;&gt;Node2 -->
<g id="edge1" class="edge">
<title>Node1&#45;&gt;Node2</title>
<path fill="none" stroke="midnightblue" d="M206.75,-336.5C206.06,-327.97 206.08,-318.01 206.83,-309.59"/>
<polygon fill="midnightblue" stroke="midnightblue" points="210.3,-310.04 208.24,-299.65 203.37,-309.06 210.3,-310.04"/>
</g>
<!-- Node2&#45;&gt;Node1 -->
<g id="edge18" class="edge">
<title>Node2&#45;&gt;Node1</title>
<path fill="none" stroke="midnightblue" d="M217.76,-299.65C219.23,-306.52 219.88,-316.56 219.73,-326.26"/>
<polygon fill="midnightblue" stroke="midnightblue" points="216.22,-326.34 219.25,-336.5 223.21,-326.67 216.22,-326.34"/>
</g>
<!-- Node3 -->
<g id="node3" class="node">
<title>Node3</title>
<g id="a_node3"><a xlink:href="matrix_8hpp.html" target="_top" xlink:title=" ">
<polygon fill="none" stroke="black" points="178,-224.5 178,-243.5 248,-243.5 248,-224.5 178,-224.5"/>
<text text-anchor="middle" x="213" y="-231.5" font-family="Helvetica,sans-Serif" font-size="10.00">matrix.hpp</text>
</a>
</g>
</g>
<!-- Node2&#45;&gt;Node3 -->
<g id="edge2" class="edge">
<title>Node2&#45;&gt;Node3</title>
<path fill="none" stroke="midnightblue" d="M213,-280.08C213,-273.01 213,-262.86 213,-253.99"/>
<polygon fill="midnightblue" stroke="midnightblue" points="216.5,-253.75 213,-243.75 209.5,-253.75 216.5,-253.75"/>
</g>
<!-- Node4 -->
<g id="node4" class="node">
<title>Node4</title>
<g id="a_node4"><a xlink:href="vector_8hpp.html" target="_top" xlink:title=" ">
<polygon fill="none" stroke="black" points="110,-112.5 110,-131.5 178,-131.5 178,-112.5 110,-112.5"/>
<text text-anchor="middle" x="144" y="-119.5" font-family="Helvetica,sans-Serif" font-size="10.00">vector.hpp</text>
</a>
</g>
</g>
<!-- Node3&#45;&gt;Node4 -->
<g id="edge3" class="edge">
<title>Node3&#45;&gt;Node4</title>
<path fill="none" stroke="midnightblue" d="M199.63,-224.19C188.3,-216.08 172.45,-203.03 163,-188 154.1,-173.85 149.23,-155.36 146.65,-141.73"/>
<polygon fill="midnightblue" stroke="midnightblue" points="150.07,-140.91 144.99,-131.61 143.16,-142.05 150.07,-140.91"/>
</g>
<!-- Node5 -->
<g id="node5" class="node">
<title>Node5</title>
<g id="a_node5"><a xlink:title=" ">
<polygon fill="none" stroke="#bfbfbf" points="0,-0.5 0,-19.5 60,-19.5 60,-0.5 0,-0.5"/>
<text text-anchor="middle" x="30" y="-7.5" font-family="Helvetica,sans-Serif" font-size="10.00">iostream</text>
</a>
</g>
</g>
<!-- Node3&#45;&gt;Node5 -->
<g id="edge15" class="edge">
<title>Node3&#45;&gt;Node5</title>
<path fill="none" stroke="midnightblue" d="M199.11,-224.37C166.62,-203.38 85.56,-146.24 47,-76 39.11,-61.62 34.75,-43.43 32.44,-29.95"/>
<polygon fill="midnightblue" stroke="midnightblue" points="35.88,-29.29 30.93,-19.92 28.95,-30.33 35.88,-29.29"/>
</g>
<!-- Node11 -->
<g id="node11" class="node">
<title>Node11</title>
<g id="a_node11"><a xlink:href="vector3_d_8hpp.html" target="_top" xlink:title="Zawiera deklaracje klasy Vector3D.">
<polygon fill="none" stroke="black" points="172,-168.5 172,-187.5 254,-187.5 254,-168.5 172,-168.5"/>
<text text-anchor="middle" x="213" y="-175.5" font-family="Helvetica,sans-Serif" font-size="10.00">vector3D.hpp</text>
</a>
</g>
</g>
<!-- Node3&#45;&gt;Node11 -->
<g id="edge11" class="edge">
<title>Node3&#45;&gt;Node11</title>
<path fill="none" stroke="midnightblue" d="M213,-224.08C213,-217.01 213,-206.86 213,-197.99"/>
<polygon fill="midnightblue" stroke="midnightblue" points="216.5,-197.75 213,-187.75 209.5,-197.75 216.5,-197.75"/>
</g>
<!-- Node13 -->
<g id="node13" class="node">
<title>Node13</title>
<g id="a_node13"><a xlink:title=" ">
<polygon fill="none" stroke="#bfbfbf" points="272.5,-168.5 272.5,-187.5 321.5,-187.5 321.5,-168.5 272.5,-168.5"/>
<text text-anchor="middle" x="297" y="-175.5" font-family="Helvetica,sans-Serif" font-size="10.00">cstdlib</text>
</a>
</g>
</g>
<!-- Node3&#45;&gt;Node13 -->
<g id="edge16" class="edge">
<title>Node3&#45;&gt;Node13</title>
<path fill="none" stroke="midnightblue" d="M226.5,-224.32C239.6,-215.9 259.71,-202.97 275.11,-193.07"/>
<polygon fill="midnightblue" stroke="midnightblue" points="277.02,-196.01 283.54,-187.65 273.23,-190.12 277.02,-196.01"/>
</g>
<!-- Node14 -->
<g id="node14" class="node">
<title>Node14</title>
<g id="a_node14"><a xlink:title=" ">
<polygon fill="none" stroke="#bfbfbf" points="340,-168.5 340,-187.5 434,-187.5 434,-168.5 340,-168.5"/>
<text text-anchor="middle" x="387" y="-175.5" font-family="Helvetica,sans-Serif" font-size="10.00">../src/matrix.tpp</text>
</a>
</g>
</g>
<!-- Node3&#45;&gt;Node14 -->
<g id="edge17" class="edge">
<title>Node3&#45;&gt;Node14</title>
<path fill="none" stroke="midnightblue" d="M240.57,-224.44C270.1,-215.28 317.12,-200.69 349.88,-190.52"/>
<polygon fill="midnightblue" stroke="midnightblue" points="351.04,-193.82 359.56,-187.52 348.97,-187.14 351.04,-193.82"/>
</g>
<!-- Node4&#45;&gt;Node5 -->
<g id="edge4" class="edge">
<title>Node4&#45;&gt;Node5</title>
<path fill="none" stroke="midnightblue" d="M121.69,-112.35C104.53,-104.81 81.1,-92.49 65,-76 51.87,-62.55 42.3,-43.19 36.52,-29.09"/>
<polygon fill="midnightblue" stroke="midnightblue" points="39.7,-27.61 32.84,-19.53 33.16,-30.12 39.7,-27.61"/>
</g>
<!-- Node6 -->
<g id="node6" class="node">
<title>Node6</title>
<g id="a_node6"><a xlink:title=" ">
<polygon fill="none" stroke="#bfbfbf" points="157.5,-56.5 157.5,-75.5 204.5,-75.5 204.5,-56.5 157.5,-56.5"/>
<text text-anchor="middle" x="181" y="-63.5" font-family="Helvetica,sans-Serif" font-size="10.00">cmath</text>
</a>
</g>
</g>
<!-- Node4&#45;&gt;Node6 -->
<g id="edge5" class="edge">
<title>Node4&#45;&gt;Node6</title>
<path fill="none" stroke="midnightblue" d="M150.11,-112.08C155.28,-104.53 162.85,-93.49 169.19,-84.23"/>
<polygon fill="midnightblue" stroke="midnightblue" points="172.24,-85.98 175,-75.75 166.46,-82.02 172.24,-85.98"/>
</g>
<!-- Node7 -->
<g id="node7" class="node">
<title>Node7</title>
<g id="a_node7"><a xlink:title=" ">
<polygon fill="none" stroke="#bfbfbf" points="223,-56.5 223,-75.5 279,-75.5 279,-56.5 223,-56.5"/>
<text text-anchor="middle" x="251" y="-63.5" font-family="Helvetica,sans-Serif" font-size="10.00">iomanip</text>
</a>
</g>
</g>
<!-- Node4&#45;&gt;Node7 -->
<g id="edge6" class="edge">
<title>Node4&#45;&gt;Node7</title>
<path fill="none" stroke="midnightblue" d="M161.19,-112.32C178.35,-103.66 204.95,-90.24 224.75,-80.25"/>
<polygon fill="midnightblue" stroke="midnightblue" points="226.5,-83.28 233.85,-75.65 223.35,-77.04 226.5,-83.28"/>
</g>
<!-- Node8 -->
<g id="node8" class="node">
<title>Node8</title>
<g id="a_node8"><a xlink:href="count_8hpp.html" target="_top" xlink:title="Plik zawiera definicję klasy reprezentujacej counter, pozwalajacy na liczenie instancji stworzonych k...">
<polygon fill="none" stroke="black" points="74.5,-56.5 74.5,-75.5 139.5,-75.5 139.5,-56.5 74.5,-56.5"/>
<text text-anchor="middle" x="107" y="-63.5" font-family="Helvetica,sans-Serif" font-size="10.00">count.hpp</text>
</a>
</g>
</g>
<!-- Node4&#45;&gt;Node8 -->
<g id="edge7" class="edge">
<title>Node4&#45;&gt;Node8</title>
<path fill="none" stroke="midnightblue" d="M137.89,-112.08C132.72,-104.53 125.15,-93.49 118.81,-84.23"/>
<polygon fill="midnightblue" stroke="midnightblue" points="121.54,-82.02 113,-75.75 115.76,-85.98 121.54,-82.02"/>
</g>
<!-- Node10 -->
<g id="node10" class="node">
<title>Node10</title>
<g id="a_node10"><a xlink:title=" ">
<polygon fill="none" stroke="#bfbfbf" points="297,-56.5 297,-75.5 389,-75.5 389,-56.5 297,-56.5"/>
<text text-anchor="middle" x="343" y="-63.5" font-family="Helvetica,sans-Serif" font-size="10.00">../src/vector.tpp</text>
</a>
</g>
</g>
<!-- Node4&#45;&gt;Node10 -->
<g id="edge10" class="edge">
<title>Node4&#45;&gt;Node10</title>
<path fill="none" stroke="midnightblue" d="M175.53,-112.44C209.59,-103.2 264.01,-88.44 301.52,-78.26"/>
<polygon fill="midnightblue" stroke="midnightblue" points="302.88,-81.51 311.62,-75.52 301.05,-74.76 302.88,-81.51"/>
</g>
<!-- Node8&#45;&gt;Node5 -->
<g id="edge8" class="edge">
<title>Node8&#45;&gt;Node5</title>
<path fill="none" stroke="midnightblue" d="M94.63,-56.32C82.84,-48.06 64.87,-35.45 50.86,-25.63"/>
<polygon fill="midnightblue" stroke="midnightblue" points="52.54,-22.53 42.34,-19.65 48.52,-28.26 52.54,-22.53"/>
</g>
<!-- Node9 -->
<g id="node9" class="node">
<title>Node9</title>
<g id="a_node9"><a xlink:title=" ">
<polygon fill="none" stroke="#bfbfbf" points="78.5,-0.5 78.5,-19.5 167.5,-19.5 167.5,-0.5 78.5,-0.5"/>
<text text-anchor="middle" x="123" y="-7.5" font-family="Helvetica,sans-Serif" font-size="10.00">../src/count.tpp</text>
</a>
</g>
</g>
<!-- Node8&#45;&gt;Node9 -->
<g id="edge9" class="edge">
<title>Node8&#45;&gt;Node9</title>
<path fill="none" stroke="midnightblue" d="M109.64,-56.08C111.79,-48.85 114.88,-38.41 117.55,-29.4"/>
<polygon fill="midnightblue" stroke="midnightblue" points="120.92,-30.33 120.41,-19.75 114.21,-28.34 120.92,-30.33"/>
</g>
<!-- Node11&#45;&gt;Node4 -->
<g id="edge12" class="edge">
<title>Node11&#45;&gt;Node4</title>
<path fill="none" stroke="midnightblue" d="M201.91,-168.32C191.51,-160.18 175.74,-147.84 163.28,-138.09"/>
<polygon fill="midnightblue" stroke="midnightblue" points="165.32,-135.24 155.29,-131.83 161.01,-140.75 165.32,-135.24"/>
</g>
<!-- Node12 -->
<g id="node12" class="node">
<title>Node12</title>
<g id="a_node12"><a xlink:href="vector3_d_8cpp.html" target="_top" xlink:title=" ">
<polygon fill="none" stroke="black" points="196.5,-112.5 196.5,-131.5 303.5,-131.5 303.5,-112.5 196.5,-112.5"/>
<text text-anchor="middle" x="250" y="-119.5" font-family="Helvetica,sans-Serif" font-size="10.00">../src/vector3D.cpp</text>
</a>
</g>
</g>
<!-- Node11&#45;&gt;Node12 -->
<g id="edge13" class="edge">
<title>Node11&#45;&gt;Node12</title>
<path fill="none" stroke="midnightblue" d="M213.94,-168.08C217.6,-160.38 225,-149.03 232.3,-139.65"/>
<polygon fill="midnightblue" stroke="midnightblue" points="235.17,-141.68 238.87,-131.75 229.79,-137.2 235.17,-141.68"/>
</g>
<!-- Node12&#45;&gt;Node11 -->
<g id="edge14" class="edge">
<title>Node12&#45;&gt;Node11</title>
<path fill="none" stroke="midnightblue" d="M249.13,-131.75C245.53,-139.4 238.16,-150.74 230.86,-160.14"/>
<polygon fill="midnightblue" stroke="midnightblue" points="227.96,-158.15 224.28,-168.08 233.35,-162.62 227.96,-158.15"/>
</g>
</g>
</svg>
