<?xml version="1.0" encoding="UTF-8" standalone="no"?>
<!DOCTYPE svg PUBLIC "-//W3C//DTD SVG 1.1//EN"
 "http://www.w3.org/Graphics/SVG/1.1/DTD/svg11.dtd">
<!-- Generated by graphviz version 2.43.0 (0)
 -->
<!-- Title: /home/krzysztof/PO/zad5_2&#45;kgliwinski/include/matrix3D.hpp Pages: 1 -->
<!--zoomable 518 -->
<svg id="main" version="1.1" xmlns="http://www.w3.org/2000/svg" xmlns:xlink="http://www.w3.org/1999/xlink" xml:space="preserve" onload="init(evt)">
<style type="text/css"><![CDATA[
.edge:hover path { stroke: red; }
.edge:hover polygon { stroke: red; fill: red; }
]]></style>
<script type="text/javascript"><![CDATA[
var edges = document.getElementsByTagName('g');
if (edges && edges.length) {
  for (var i=0;i<edges.length;i++) {
    if (edges[i].id.substr(0,4)=='edge') {
      edges[i].setAttribute('class','edge');
    }
  }
}
]]></script>
        <defs>
                <circle id="rim" cx="0" cy="0" r="7"/>
                <circle id="rim2" cx="0" cy="0" r="3.5"/>
                <g id="zoomPlus">
                        <use xlink:href="#rim" fill="#404040">
                                <set attributeName="fill" to="#808080" begin="zoomplus.mouseover" end="zoomplus.mouseout"/>
                        </use>
                        <path d="M-4,0h8M0,-4v8" fill="none" stroke="white" stroke-width="1.5" pointer-events="none"/>
                </g>
                <g id="zoomMin">
                        <use xlink:href="#rim" fill="#404040">
                                <set attributeName="fill" to="#808080" begin="zoomminus.mouseover" end="zoomminus.mouseout"/>
                        </use>
                        <path d="M-4,0h8" fill="none" stroke="white" stroke-width="1.5" pointer-events="none"/>
                </g>
                <g id="dirArrow">
                        <path fill="none" stroke="white" stroke-width="1.5" d="M0,-3.0v7 M-2.5,-0.5L0,-3.0L2.5,-0.5"/>
                </g>
               <g id="resetDef">
                       <use xlink:href="#rim2" fill="#404040">
                               <set attributeName="fill" to="#808080" begin="reset.mouseover" end="reset.mouseout"/>
                       </use>
               </g>
        </defs>

<script type="text/javascript">
var viewWidth = 1444;
var viewHeight = 518;
var sectionId = 'dynsection-1';
</script>
<script xlink:href="svgpan.js"/>
<svg id="graph" class="graph">
<g id="viewport">
<title>/home/krzysztof/PO/zad5_2&#45;kgliwinski/include/matrix3D.hpp</title>
<!-- Node1 -->
<g id="node1" class="node">
<title>Node1</title>
<g id="a_node1"><a xlink:title="Zawiera deklaracje klasy Matrix3D.">
<polygon fill="#bfbfbf" stroke="black" points="952.5,-468.5 952.5,-509.5 1098.5,-509.5 1098.5,-468.5 952.5,-468.5"/>
<text text-anchor="start" x="960.5" y="-497.5" font-family="Helvetica,sans-Serif" font-size="10.00">/home/krzysztof/PO</text>
<text text-anchor="start" x="960.5" y="-486.5" font-family="Helvetica,sans-Serif" font-size="10.00">/zad5_2&#45;kgliwinski/include</text>
<text text-anchor="middle" x="1025.5" y="-475.5" font-family="Helvetica,sans-Serif" font-size="10.00">/matrix3D.hpp</text>
</a>
</g>
</g>
<!-- Node2 -->
<g id="node2" class="node">
<title>Node2</title>
<g id="a_node2"><a xlink:href="block_8hpp.html" target="_top" xlink:title="Plik zawiera definicję klasy reprezentujacej bryle w przestrzeni trojwymiarowej.">
<polygon fill="none" stroke="black" points="798.5,-390.5 798.5,-431.5 944.5,-431.5 944.5,-390.5 798.5,-390.5"/>
<text text-anchor="start" x="806.5" y="-419.5" font-family="Helvetica,sans-Serif" font-size="10.00">/home/krzysztof/PO</text>
<text text-anchor="start" x="806.5" y="-408.5" font-family="Helvetica,sans-Serif" font-size="10.00">/zad5_2&#45;kgliwinski/include</text>
<text text-anchor="middle" x="871.5" y="-397.5" font-family="Helvetica,sans-Serif" font-size="10.00">/block.hpp</text>
</a>
</g>
</g>
<!-- Node1&#45;&gt;Node2 -->
<g id="edge1" class="edge">
<title>Node1&#45;&gt;Node2</title>
<path fill="none" stroke="midnightblue" d="M976.68,-463.91C955.51,-453.46 931.03,-441.38 911.02,-431.51"/>
<polygon fill="midnightblue" stroke="midnightblue" points="975.32,-467.14 985.84,-468.43 978.42,-460.86 975.32,-467.14"/>
</g>
<!-- Node26 -->
<g id="node26" class="node">
<title>Node26</title>
<g id="a_node26"><a xlink:href="matrix3_d_8cpp.html" target="_top" xlink:title=" ">
<polygon fill="none" stroke="black" points="963,-390.5 963,-431.5 1088,-431.5 1088,-390.5 963,-390.5"/>
<text text-anchor="start" x="971" y="-419.5" font-family="Helvetica,sans-Serif" font-size="10.00">/home/krzysztof/PO</text>
<text text-anchor="start" x="971" y="-408.5" font-family="Helvetica,sans-Serif" font-size="10.00">/zad5_2&#45;kgliwinski/src</text>
<text text-anchor="middle" x="1025.5" y="-397.5" font-family="Helvetica,sans-Serif" font-size="10.00">/matrix3D.cpp</text>
</a>
</g>
</g>
<!-- Node1&#45;&gt;Node26 -->
<g id="edge32" class="edge">
<title>Node1&#45;&gt;Node26</title>
<path fill="none" stroke="midnightblue" d="M1018.9,-458.3C1018.58,-449.3 1018.78,-439.65 1019.52,-431.51"/>
<polygon fill="midnightblue" stroke="midnightblue" points="1015.41,-458.66 1019.51,-468.43 1022.4,-458.23 1015.41,-458.66"/>
</g>
<!-- Node3 -->
<g id="node3" class="node">
<title>Node3</title>
<g id="a_node3"><a xlink:href="prism_8hpp.html" target="_top" xlink:title="Plik zawiera definicję klasy reprezentujacej graniastoslup o podstawie o 6 wierzcholkach w przestrzen...">
<polygon fill="none" stroke="black" points="389.5,-312.5 389.5,-353.5 535.5,-353.5 535.5,-312.5 389.5,-312.5"/>
<text text-anchor="start" x="397.5" y="-341.5" font-family="Helvetica,sans-Serif" font-size="10.00">/home/krzysztof/PO</text>
<text text-anchor="start" x="397.5" y="-330.5" font-family="Helvetica,sans-Serif" font-size="10.00">/zad5_2&#45;kgliwinski/include</text>
<text text-anchor="middle" x="462.5" y="-319.5" font-family="Helvetica,sans-Serif" font-size="10.00">/prism.hpp</text>
</a>
</g>
</g>
<!-- Node2&#45;&gt;Node3 -->
<g id="edge2" class="edge">
<title>Node2&#45;&gt;Node3</title>
<path fill="none" stroke="midnightblue" d="M788.14,-394.51C713.98,-380.73 606.58,-360.77 535.68,-347.6"/>
<polygon fill="midnightblue" stroke="midnightblue" points="787.91,-398.03 798.38,-396.41 789.19,-391.14 787.91,-398.03"/>
</g>
<!-- Node17 -->
<g id="node17" class="node">
<title>Node17</title>
<g id="a_node17"><a xlink:href="cuboid_8hpp.html" target="_top" xlink:title="Plik zawiera definicję klasy reprezentujacej prostopadloscian w przestrzeni trojwymiarowej.">
<polygon fill="none" stroke="black" points="930.5,-312.5 930.5,-353.5 1076.5,-353.5 1076.5,-312.5 930.5,-312.5"/>
<text text-anchor="start" x="938.5" y="-341.5" font-family="Helvetica,sans-Serif" font-size="10.00">/home/krzysztof/PO</text>
<text text-anchor="start" x="938.5" y="-330.5" font-family="Helvetica,sans-Serif" font-size="10.00">/zad5_2&#45;kgliwinski/include</text>
<text text-anchor="middle" x="1003.5" y="-319.5" font-family="Helvetica,sans-Serif" font-size="10.00">/cuboid.hpp</text>
</a>
</g>
</g>
<!-- Node2&#45;&gt;Node17 -->
<g id="edge19" class="edge">
<title>Node2&#45;&gt;Node17</title>
<path fill="none" stroke="midnightblue" d="M914.57,-385.2C932.43,-374.92 952.86,-363.16 969.62,-353.51"/>
<polygon fill="midnightblue" stroke="midnightblue" points="912.41,-382.41 905.49,-390.43 915.91,-388.47 912.41,-382.41"/>
</g>
<!-- Node23 -->
<g id="node23" class="node">
<title>Node23</title>
<g id="a_node23"><a xlink:href="plane_8hpp.html" target="_top" xlink:title="Plik zawiera definicję klasy reprezentujacej plaska powierzchnie, obslugujacej zapis do plikow.">
<polygon fill="none" stroke="black" points="716.5,-312.5 716.5,-353.5 862.5,-353.5 862.5,-312.5 716.5,-312.5"/>
<text text-anchor="start" x="724.5" y="-341.5" font-family="Helvetica,sans-Serif" font-size="10.00">/home/krzysztof/PO</text>
<text text-anchor="start" x="724.5" y="-330.5" font-family="Helvetica,sans-Serif" font-size="10.00">/zad5_2&#45;kgliwinski/include</text>
<text text-anchor="middle" x="789.5" y="-319.5" font-family="Helvetica,sans-Serif" font-size="10.00">/plane.hpp</text>
</a>
</g>
</g>
<!-- Node2&#45;&gt;Node23 -->
<g id="edge28" class="edge">
<title>Node2&#45;&gt;Node23</title>
<path fill="none" stroke="midnightblue" d="M842.9,-383.49C832.26,-373.63 820.39,-362.63 810.55,-353.51"/>
<polygon fill="midnightblue" stroke="midnightblue" points="840.67,-386.2 850.38,-390.43 845.43,-381.06 840.67,-386.2"/>
</g>
<!-- Node25 -->
<g id="node25" class="node">
<title>Node25</title>
<g id="a_node25"><a xlink:href="block_8cpp.html" target="_top" xlink:title=" ">
<polygon fill="none" stroke="black" points="1095,-312.5 1095,-353.5 1220,-353.5 1220,-312.5 1095,-312.5"/>
<text text-anchor="start" x="1103" y="-341.5" font-family="Helvetica,sans-Serif" font-size="10.00">/home/krzysztof/PO</text>
<text text-anchor="start" x="1103" y="-330.5" font-family="Helvetica,sans-Serif" font-size="10.00">/zad5_2&#45;kgliwinski/src</text>
<text text-anchor="middle" x="1157.5" y="-319.5" font-family="Helvetica,sans-Serif" font-size="10.00">/block.cpp</text>
</a>
</g>
</g>
<!-- Node2&#45;&gt;Node25 -->
<g id="edge31" class="edge">
<title>Node2&#45;&gt;Node25</title>
<path fill="none" stroke="midnightblue" d="M954.75,-388.52C994.39,-378.22 1042.43,-365.62 1085.5,-354 1088.51,-353.19 1091.58,-352.35 1094.69,-351.51"/>
<polygon fill="midnightblue" stroke="midnightblue" points="953.66,-385.19 944.86,-391.09 955.42,-391.97 953.66,-385.19"/>
</g>
<!-- Node4 -->
<g id="node4" class="node">
<title>Node4</title>
<g id="a_node4"><a xlink:href="circus_8hpp.html" target="_top" xlink:title="Plik zawiera definicję klasy reprezentujacej Prism z podwyzszonym centrum, na ksztalt przypomina cyrk...">
<polygon fill="none" stroke="black" points="471.5,-234.5 471.5,-275.5 617.5,-275.5 617.5,-234.5 471.5,-234.5"/>
<text text-anchor="start" x="479.5" y="-263.5" font-family="Helvetica,sans-Serif" font-size="10.00">/home/krzysztof/PO</text>
<text text-anchor="start" x="479.5" y="-252.5" font-family="Helvetica,sans-Serif" font-size="10.00">/zad5_2&#45;kgliwinski/include</text>
<text text-anchor="middle" x="544.5" y="-241.5" font-family="Helvetica,sans-Serif" font-size="10.00">/circus.hpp</text>
</a>
</g>
</g>
<!-- Node3&#45;&gt;Node4 -->
<g id="edge3" class="edge">
<title>Node3&#45;&gt;Node4</title>
<path fill="none" stroke="midnightblue" d="M491.1,-305.49C501.74,-295.63 513.61,-284.63 523.45,-275.51"/>
<polygon fill="midnightblue" stroke="midnightblue" points="488.57,-303.06 483.62,-312.43 493.33,-308.2 488.57,-303.06"/>
</g>
<!-- Node10 -->
<g id="node10" class="node">
<title>Node10</title>
<g id="a_node10"><a xlink:href="drone_8hpp.html" target="_top" xlink:title="Plik zawiera definicję klasy reprezentujacej drona, budowanie i przemieszczanie go.">
<polygon fill="none" stroke="black" points="817.5,-234.5 817.5,-275.5 963.5,-275.5 963.5,-234.5 817.5,-234.5"/>
<text text-anchor="start" x="825.5" y="-263.5" font-family="Helvetica,sans-Serif" font-size="10.00">/home/krzysztof/PO</text>
<text text-anchor="start" x="825.5" y="-252.5" font-family="Helvetica,sans-Serif" font-size="10.00">/zad5_2&#45;kgliwinski/include</text>
<text text-anchor="middle" x="890.5" y="-241.5" font-family="Helvetica,sans-Serif" font-size="10.00">/drone.hpp</text>
</a>
</g>
</g>
<!-- Node3&#45;&gt;Node10 -->
<g id="edge9" class="edge">
<title>Node3&#45;&gt;Node10</title>
<path fill="none" stroke="midnightblue" d="M545.49,-317.26C624.39,-303.25 741.89,-282.39 817.35,-268.99"/>
<polygon fill="midnightblue" stroke="midnightblue" points="544.82,-313.83 535.59,-319.02 546.05,-320.72 544.82,-313.83"/>
</g>
<!-- Node12 -->
<g id="node12" class="node">
<title>Node12</title>
<g id="a_node12"><a xlink:href="tent_8hpp.html" target="_top" xlink:title="Plik zawiera definicję klasy reprezentujacej Prism bez gornej podstawy, =Ksztaltem przypomina namiot.">
<polygon fill="none" stroke="black" points="143.5,-234.5 143.5,-275.5 289.5,-275.5 289.5,-234.5 143.5,-234.5"/>
<text text-anchor="start" x="151.5" y="-263.5" font-family="Helvetica,sans-Serif" font-size="10.00">/home/krzysztof/PO</text>
<text text-anchor="start" x="151.5" y="-252.5" font-family="Helvetica,sans-Serif" font-size="10.00">/zad5_2&#45;kgliwinski/include</text>
<text text-anchor="middle" x="216.5" y="-241.5" font-family="Helvetica,sans-Serif" font-size="10.00">/tent.hpp</text>
</a>
</g>
</g>
<!-- Node3&#45;&gt;Node12 -->
<g id="edge12" class="edge">
<title>Node3&#45;&gt;Node12</title>
<path fill="none" stroke="midnightblue" d="M389.48,-309.44C354.57,-298.66 313.18,-285.87 279.64,-275.51"/>
<polygon fill="midnightblue" stroke="midnightblue" points="388.56,-312.82 399.15,-312.43 390.63,-306.13 388.56,-312.82"/>
</g>
<!-- Node14 -->
<g id="node14" class="node">
<title>Node14</title>
<g id="a_node14"><a xlink:href="volcano_8hpp.html" target="_top" xlink:title="Plik zawiera definicję klasy reprezentujacej wulkan, jest deformacja obiektu Prism.">
<polygon fill="none" stroke="black" points="307.5,-234.5 307.5,-275.5 453.5,-275.5 453.5,-234.5 307.5,-234.5"/>
<text text-anchor="start" x="315.5" y="-263.5" font-family="Helvetica,sans-Serif" font-size="10.00">/home/krzysztof/PO</text>
<text text-anchor="start" x="315.5" y="-252.5" font-family="Helvetica,sans-Serif" font-size="10.00">/zad5_2&#45;kgliwinski/include</text>
<text text-anchor="middle" x="380.5" y="-241.5" font-family="Helvetica,sans-Serif" font-size="10.00">/volcano.hpp</text>
</a>
</g>
</g>
<!-- Node3&#45;&gt;Node14 -->
<g id="edge15" class="edge">
<title>Node3&#45;&gt;Node14</title>
<path fill="none" stroke="midnightblue" d="M433.9,-305.49C423.26,-295.63 411.39,-284.63 401.55,-275.51"/>
<polygon fill="midnightblue" stroke="midnightblue" points="431.67,-308.2 441.38,-312.43 436.43,-303.06 431.67,-308.2"/>
</g>
<!-- Node16 -->
<g id="node16" class="node">
<title>Node16</title>
<g id="a_node16"><a xlink:href="prism_8cpp.html" target="_top" xlink:title=" ">
<polygon fill="none" stroke="black" points="0,-234.5 0,-275.5 125,-275.5 125,-234.5 0,-234.5"/>
<text text-anchor="start" x="8" y="-263.5" font-family="Helvetica,sans-Serif" font-size="10.00">/home/krzysztof/PO</text>
<text text-anchor="start" x="8" y="-252.5" font-family="Helvetica,sans-Serif" font-size="10.00">/zad5_2&#45;kgliwinski/src</text>
<text text-anchor="middle" x="62.5" y="-241.5" font-family="Helvetica,sans-Serif" font-size="10.00">/prism.cpp</text>
</a>
</g>
</g>
<!-- Node3&#45;&gt;Node16 -->
<g id="edge18" class="edge">
<title>Node3&#45;&gt;Node16</title>
<path fill="none" stroke="midnightblue" d="M379.44,-320.21C312.85,-310.19 217.21,-294.5 134.5,-276 131.46,-275.32 128.36,-274.59 125.23,-273.83"/>
<polygon fill="midnightblue" stroke="midnightblue" points="379.05,-323.69 389.45,-321.71 380.08,-316.77 379.05,-323.69"/>
</g>
<!-- Node5 -->
<g id="node5" class="node">
<title>Node5</title>
<g id="a_node5"><a xlink:href="scene_8hpp.html" target="_top" xlink:title="Plik zawiera definicję klasy reprezentujacej scene, obslugujacej zapis do plikow i wytswietlanie w gn...">
<polygon fill="none" stroke="black" points="673.5,-156.5 673.5,-197.5 819.5,-197.5 819.5,-156.5 673.5,-156.5"/>
<text text-anchor="start" x="681.5" y="-185.5" font-family="Helvetica,sans-Serif" font-size="10.00">/home/krzysztof/PO</text>
<text text-anchor="start" x="681.5" y="-174.5" font-family="Helvetica,sans-Serif" font-size="10.00">/zad5_2&#45;kgliwinski/include</text>
<text text-anchor="middle" x="746.5" y="-163.5" font-family="Helvetica,sans-Serif" font-size="10.00">/scene.hpp</text>
</a>
</g>
</g>
<!-- Node4&#45;&gt;Node5 -->
<g id="edge4" class="edge">
<title>Node4&#45;&gt;Node5</title>
<path fill="none" stroke="midnightblue" d="M605.93,-230.89C634.29,-220.22 667.59,-207.69 694.66,-197.51"/>
<polygon fill="midnightblue" stroke="midnightblue" points="604.65,-227.63 596.52,-234.43 607.11,-234.18 604.65,-227.63"/>
</g>
<!-- Node9 -->
<g id="node9" class="node">
<title>Node9</title>
<g id="a_node9"><a xlink:href="circus_8cpp.html" target="_top" xlink:title=" ">
<polygon fill="none" stroke="black" points="482,-156.5 482,-197.5 607,-197.5 607,-156.5 482,-156.5"/>
<text text-anchor="start" x="490" y="-185.5" font-family="Helvetica,sans-Serif" font-size="10.00">/home/krzysztof/PO</text>
<text text-anchor="start" x="490" y="-174.5" font-family="Helvetica,sans-Serif" font-size="10.00">/zad5_2&#45;kgliwinski/src</text>
<text text-anchor="middle" x="544.5" y="-163.5" font-family="Helvetica,sans-Serif" font-size="10.00">/circus.cpp</text>
</a>
</g>
</g>
<!-- Node4&#45;&gt;Node9 -->
<g id="edge8" class="edge">
<title>Node4&#45;&gt;Node9</title>
<path fill="none" stroke="midnightblue" d="M544.5,-224.3C544.5,-215.3 544.5,-205.65 544.5,-197.51"/>
<polygon fill="midnightblue" stroke="midnightblue" points="541,-224.43 544.5,-234.43 548,-224.43 541,-224.43"/>
</g>
<!-- Node6 -->
<g id="node6" class="node">
<title>Node6</title>
<g id="a_node6"><a xlink:href="menu_8hpp.html" target="_top" xlink:title="Plik zawiera definicję klasy reprezentujacej menu, obslugujace menu programu.">
<polygon fill="none" stroke="black" points="596.5,-78.5 596.5,-119.5 742.5,-119.5 742.5,-78.5 596.5,-78.5"/>
<text text-anchor="start" x="604.5" y="-107.5" font-family="Helvetica,sans-Serif" font-size="10.00">/home/krzysztof/PO</text>
<text text-anchor="start" x="604.5" y="-96.5" font-family="Helvetica,sans-Serif" font-size="10.00">/zad5_2&#45;kgliwinski/include</text>
<text text-anchor="middle" x="669.5" y="-85.5" font-family="Helvetica,sans-Serif" font-size="10.00">/menu.hpp</text>
</a>
</g>
</g>
<!-- Node5&#45;&gt;Node6 -->
<g id="edge5" class="edge">
<title>Node5&#45;&gt;Node6</title>
<path fill="none" stroke="midnightblue" d="M719.35,-149.2C709.43,-139.42 698.41,-128.54 689.26,-119.51"/>
<polygon fill="midnightblue" stroke="midnightblue" points="717.09,-151.89 726.67,-156.43 722.01,-146.91 717.09,-151.89"/>
</g>
<!-- Node8 -->
<g id="node8" class="node">
<title>Node8</title>
<g id="a_node8"><a xlink:href="scene_8cpp.html" target="_top" xlink:title=" ">
<polygon fill="none" stroke="black" points="761,-78.5 761,-119.5 886,-119.5 886,-78.5 761,-78.5"/>
<text text-anchor="start" x="769" y="-107.5" font-family="Helvetica,sans-Serif" font-size="10.00">/home/krzysztof/PO</text>
<text text-anchor="start" x="769" y="-96.5" font-family="Helvetica,sans-Serif" font-size="10.00">/zad5_2&#45;kgliwinski/src</text>
<text text-anchor="middle" x="823.5" y="-85.5" font-family="Helvetica,sans-Serif" font-size="10.00">/scene.cpp</text>
</a>
</g>
</g>
<!-- Node5&#45;&gt;Node8 -->
<g id="edge7" class="edge">
<title>Node5&#45;&gt;Node8</title>
<path fill="none" stroke="midnightblue" d="M773.65,-149.2C783.57,-139.42 794.59,-128.54 803.74,-119.51"/>
<polygon fill="midnightblue" stroke="midnightblue" points="770.99,-146.91 766.33,-156.43 775.91,-151.89 770.99,-146.91"/>
</g>
<!-- Node7 -->
<g id="node7" class="node">
<title>Node7</title>
<g id="a_node7"><a xlink:href="menu_8cpp.html" target="_top" xlink:title=" ">
<polygon fill="none" stroke="black" points="607,-0.5 607,-41.5 732,-41.5 732,-0.5 607,-0.5"/>
<text text-anchor="start" x="615" y="-29.5" font-family="Helvetica,sans-Serif" font-size="10.00">/home/krzysztof/PO</text>
<text text-anchor="start" x="615" y="-18.5" font-family="Helvetica,sans-Serif" font-size="10.00">/zad5_2&#45;kgliwinski/src</text>
<text text-anchor="middle" x="669.5" y="-7.5" font-family="Helvetica,sans-Serif" font-size="10.00">/menu.cpp</text>
</a>
</g>
</g>
<!-- Node6&#45;&gt;Node7 -->
<g id="edge6" class="edge">
<title>Node6&#45;&gt;Node7</title>
<path fill="none" stroke="midnightblue" d="M669.5,-68.3C669.5,-59.3 669.5,-49.65 669.5,-41.51"/>
<polygon fill="midnightblue" stroke="midnightblue" points="666,-68.43 669.5,-78.43 673,-68.43 666,-68.43"/>
</g>
<!-- Node10&#45;&gt;Node5 -->
<g id="edge10" class="edge">
<title>Node10&#45;&gt;Node5</title>
<path fill="none" stroke="midnightblue" d="M844.32,-229.63C824.64,-219.24 802,-207.29 783.46,-197.51"/>
<polygon fill="midnightblue" stroke="midnightblue" points="842.94,-232.86 853.42,-234.43 846.21,-226.67 842.94,-232.86"/>
</g>
<!-- Node11 -->
<g id="node11" class="node">
<title>Node11</title>
<g id="a_node11"><a xlink:href="drone_8cpp.html" target="_top" xlink:title=" ">
<polygon fill="none" stroke="black" points="838,-156.5 838,-197.5 963,-197.5 963,-156.5 838,-156.5"/>
<text text-anchor="start" x="846" y="-185.5" font-family="Helvetica,sans-Serif" font-size="10.00">/home/krzysztof/PO</text>
<text text-anchor="start" x="846" y="-174.5" font-family="Helvetica,sans-Serif" font-size="10.00">/zad5_2&#45;kgliwinski/src</text>
<text text-anchor="middle" x="900.5" y="-163.5" font-family="Helvetica,sans-Serif" font-size="10.00">/drone.cpp</text>
</a>
</g>
</g>
<!-- Node10&#45;&gt;Node11 -->
<g id="edge11" class="edge">
<title>Node10&#45;&gt;Node11</title>
<path fill="none" stroke="midnightblue" d="M894.41,-224.3C895.59,-215.3 896.86,-205.65 897.93,-197.51"/>
<polygon fill="midnightblue" stroke="midnightblue" points="890.91,-224.06 893.08,-234.43 897.85,-224.97 890.91,-224.06"/>
</g>
<!-- Node12&#45;&gt;Node5 -->
<g id="edge13" class="edge">
<title>Node12&#45;&gt;Node5</title>
<path fill="none" stroke="midnightblue" d="M299.97,-233.85C439.88,-209.49 478.24,-216.27 615.5,-198 634.31,-195.5 654.61,-192.53 673.47,-189.66"/>
<polygon fill="midnightblue" stroke="midnightblue" points="298.96,-230.47 289.72,-235.66 300.18,-237.37 298.96,-230.47"/>
</g>
<!-- Node13 -->
<g id="node13" class="node">
<title>Node13</title>
<g id="a_node13"><a xlink:href="tent_8cpp.html" target="_top" xlink:title=" ">
<polygon fill="none" stroke="black" points="154,-156.5 154,-197.5 279,-197.5 279,-156.5 154,-156.5"/>
<text text-anchor="start" x="162" y="-185.5" font-family="Helvetica,sans-Serif" font-size="10.00">/home/krzysztof/PO</text>
<text text-anchor="start" x="162" y="-174.5" font-family="Helvetica,sans-Serif" font-size="10.00">/zad5_2&#45;kgliwinski/src</text>
<text text-anchor="middle" x="216.5" y="-163.5" font-family="Helvetica,sans-Serif" font-size="10.00">/tent.cpp</text>
</a>
</g>
</g>
<!-- Node12&#45;&gt;Node13 -->
<g id="edge14" class="edge">
<title>Node12&#45;&gt;Node13</title>
<path fill="none" stroke="midnightblue" d="M216.5,-224.3C216.5,-215.3 216.5,-205.65 216.5,-197.51"/>
<polygon fill="midnightblue" stroke="midnightblue" points="213,-224.43 216.5,-234.43 220,-224.43 213,-224.43"/>
</g>
<!-- Node14&#45;&gt;Node5 -->
<g id="edge16" class="edge">
<title>Node14&#45;&gt;Node5</title>
<path fill="none" stroke="midnightblue" d="M463.65,-233.79C540.59,-216.96 618.24,-201.88 673.35,-191.5"/>
<polygon fill="midnightblue" stroke="midnightblue" points="462.8,-230.39 453.78,-235.96 464.3,-237.23 462.8,-230.39"/>
</g>
<!-- Node15 -->
<g id="node15" class="node">
<title>Node15</title>
<g id="a_node15"><a xlink:href="volcano_8cpp.html" target="_top" xlink:title=" ">
<polygon fill="none" stroke="black" points="318,-156.5 318,-197.5 443,-197.5 443,-156.5 318,-156.5"/>
<text text-anchor="start" x="326" y="-185.5" font-family="Helvetica,sans-Serif" font-size="10.00">/home/krzysztof/PO</text>
<text text-anchor="start" x="326" y="-174.5" font-family="Helvetica,sans-Serif" font-size="10.00">/zad5_2&#45;kgliwinski/src</text>
<text text-anchor="middle" x="380.5" y="-163.5" font-family="Helvetica,sans-Serif" font-size="10.00">/volcano.cpp</text>
</a>
</g>
</g>
<!-- Node14&#45;&gt;Node15 -->
<g id="edge17" class="edge">
<title>Node14&#45;&gt;Node15</title>
<path fill="none" stroke="midnightblue" d="M380.5,-224.3C380.5,-215.3 380.5,-205.65 380.5,-197.51"/>
<polygon fill="midnightblue" stroke="midnightblue" points="377,-224.43 380.5,-234.43 384,-224.43 377,-224.43"/>
</g>
<!-- Node17&#45;&gt;Node10 -->
<g id="edge20" class="edge">
<title>Node17&#45;&gt;Node10</title>
<path fill="none" stroke="midnightblue" d="M965.79,-306.64C950.7,-296.49 933.59,-284.98 919.5,-275.51"/>
<polygon fill="midnightblue" stroke="midnightblue" points="964.15,-309.75 974.4,-312.43 968.06,-303.94 964.15,-309.75"/>
</g>
<!-- Node18 -->
<g id="node18" class="node">
<title>Node18</title>
<g id="a_node18"><a xlink:href="pyramid_8hpp.html" target="_top" xlink:title="Plik zawiera definicję klasy reprezentujacej ostroslup o prostokatnej podstawie w przestrzeni trojwym...">
<polygon fill="none" stroke="black" points="981.5,-234.5 981.5,-275.5 1127.5,-275.5 1127.5,-234.5 981.5,-234.5"/>
<text text-anchor="start" x="989.5" y="-263.5" font-family="Helvetica,sans-Serif" font-size="10.00">/home/krzysztof/PO</text>
<text text-anchor="start" x="989.5" y="-252.5" font-family="Helvetica,sans-Serif" font-size="10.00">/zad5_2&#45;kgliwinski/include</text>
<text text-anchor="middle" x="1054.5" y="-241.5" font-family="Helvetica,sans-Serif" font-size="10.00">/pyramid.hpp</text>
</a>
</g>
</g>
<!-- Node17&#45;&gt;Node18 -->
<g id="edge21" class="edge">
<title>Node17&#45;&gt;Node18</title>
<path fill="none" stroke="midnightblue" d="M1022.26,-304.05C1028.62,-294.57 1035.59,-284.18 1041.41,-275.51"/>
<polygon fill="midnightblue" stroke="midnightblue" points="1019.3,-302.17 1016.63,-312.43 1025.11,-306.07 1019.3,-302.17"/>
</g>
<!-- Node20 -->
<g id="node20" class="node">
<title>Node20</title>
<g id="a_node20"><a xlink:href="triangular_8hpp.html" target="_top" xlink:title=" ">
<polygon fill="none" stroke="black" points="1289.5,-234.5 1289.5,-275.5 1435.5,-275.5 1435.5,-234.5 1289.5,-234.5"/>
<text text-anchor="start" x="1297.5" y="-263.5" font-family="Helvetica,sans-Serif" font-size="10.00">/home/krzysztof/PO</text>
<text text-anchor="start" x="1297.5" y="-252.5" font-family="Helvetica,sans-Serif" font-size="10.00">/zad5_2&#45;kgliwinski/include</text>
<text text-anchor="middle" x="1362.5" y="-241.5" font-family="Helvetica,sans-Serif" font-size="10.00">/triangular.hpp</text>
</a>
</g>
</g>
<!-- Node17&#45;&gt;Node20 -->
<g id="edge24" class="edge">
<title>Node17&#45;&gt;Node20</title>
<path fill="none" stroke="midnightblue" d="M1086.58,-312.05C1173.93,-293.75 1197.77,-293.75 1280.5,-276 1283.37,-275.39 1286.28,-274.74 1289.23,-274.09"/>
<polygon fill="midnightblue" stroke="midnightblue" points="1085.83,-308.63 1076.77,-314.12 1087.28,-315.48 1085.83,-308.63"/>
</g>
<!-- Node22 -->
<g id="node22" class="node">
<title>Node22</title>
<g id="a_node22"><a xlink:href="cuboid_8cpp.html" target="_top" xlink:title=" ">
<polygon fill="none" stroke="black" points="1146,-234.5 1146,-275.5 1271,-275.5 1271,-234.5 1146,-234.5"/>
<text text-anchor="start" x="1154" y="-263.5" font-family="Helvetica,sans-Serif" font-size="10.00">/home/krzysztof/PO</text>
<text text-anchor="start" x="1154" y="-252.5" font-family="Helvetica,sans-Serif" font-size="10.00">/zad5_2&#45;kgliwinski/src</text>
<text text-anchor="middle" x="1208.5" y="-241.5" font-family="Helvetica,sans-Serif" font-size="10.00">/cuboid.cpp</text>
</a>
</g>
</g>
<!-- Node17&#45;&gt;Node22 -->
<g id="edge27" class="edge">
<title>Node17&#45;&gt;Node22</title>
<path fill="none" stroke="midnightblue" d="M1065.84,-308.89C1094.62,-298.22 1128.41,-285.69 1155.89,-275.51"/>
<polygon fill="midnightblue" stroke="midnightblue" points="1064.45,-305.67 1056.29,-312.43 1066.89,-312.23 1064.45,-305.67"/>
</g>
<!-- Node18&#45;&gt;Node5 -->
<g id="edge22" class="edge">
<title>Node18&#45;&gt;Node5</title>
<path fill="none" stroke="midnightblue" d="M971.2,-233.44C923.85,-221.76 865.13,-207.27 819.59,-196.03"/>
<polygon fill="midnightblue" stroke="midnightblue" points="970.57,-236.89 981.12,-235.89 972.25,-230.1 970.57,-236.89"/>
</g>
<!-- Node19 -->
<g id="node19" class="node">
<title>Node19</title>
<g id="a_node19"><a xlink:href="pyramid_8cpp.html" target="_top" xlink:title=" ">
<polygon fill="none" stroke="black" points="992,-156.5 992,-197.5 1117,-197.5 1117,-156.5 992,-156.5"/>
<text text-anchor="start" x="1000" y="-185.5" font-family="Helvetica,sans-Serif" font-size="10.00">/home/krzysztof/PO</text>
<text text-anchor="start" x="1000" y="-174.5" font-family="Helvetica,sans-Serif" font-size="10.00">/zad5_2&#45;kgliwinski/src</text>
<text text-anchor="middle" x="1054.5" y="-163.5" font-family="Helvetica,sans-Serif" font-size="10.00">/pyramid.cpp</text>
</a>
</g>
</g>
<!-- Node18&#45;&gt;Node19 -->
<g id="edge23" class="edge">
<title>Node18&#45;&gt;Node19</title>
<path fill="none" stroke="midnightblue" d="M1054.5,-224.3C1054.5,-215.3 1054.5,-205.65 1054.5,-197.51"/>
<polygon fill="midnightblue" stroke="midnightblue" points="1051,-224.43 1054.5,-234.43 1058,-224.43 1051,-224.43"/>
</g>
<!-- Node20&#45;&gt;Node5 -->
<g id="edge25" class="edge">
<title>Node20&#45;&gt;Node5</title>
<path fill="none" stroke="midnightblue" d="M1279.4,-233.96C1080.19,-202.95 1024.88,-229.14 829.5,-198 826.28,-197.49 823,-196.91 819.69,-196.3"/>
<polygon fill="midnightblue" stroke="midnightblue" points="1278.88,-237.42 1289.3,-235.53 1279.97,-230.51 1278.88,-237.42"/>
</g>
<!-- Node21 -->
<g id="node21" class="node">
<title>Node21</title>
<g id="a_node21"><a xlink:href="triangular_8cpp.html" target="_top" xlink:title=" ">
<polygon fill="none" stroke="black" points="1300,-156.5 1300,-197.5 1425,-197.5 1425,-156.5 1300,-156.5"/>
<text text-anchor="start" x="1308" y="-185.5" font-family="Helvetica,sans-Serif" font-size="10.00">/home/krzysztof/PO</text>
<text text-anchor="start" x="1308" y="-174.5" font-family="Helvetica,sans-Serif" font-size="10.00">/zad5_2&#45;kgliwinski/src</text>
<text text-anchor="middle" x="1362.5" y="-163.5" font-family="Helvetica,sans-Serif" font-size="10.00">/triangular.cpp</text>
</a>
</g>
</g>
<!-- Node20&#45;&gt;Node21 -->
<g id="edge26" class="edge">
<title>Node20&#45;&gt;Node21</title>
<path fill="none" stroke="midnightblue" d="M1362.5,-224.3C1362.5,-215.3 1362.5,-205.65 1362.5,-197.51"/>
<polygon fill="midnightblue" stroke="midnightblue" points="1359,-224.43 1362.5,-234.43 1366,-224.43 1359,-224.43"/>
</g>
<!-- Node23&#45;&gt;Node5 -->
<g id="edge29" class="edge">
<title>Node23&#45;&gt;Node5</title>
<path fill="none" stroke="midnightblue" d="M785.43,-302.28C782.33,-282.63 777.41,-256.47 770.5,-234 766.68,-221.56 760.99,-208.15 756.11,-197.57"/>
<polygon fill="midnightblue" stroke="midnightblue" points="781.97,-302.81 786.93,-312.17 788.89,-301.76 781.97,-302.81"/>
</g>
<!-- Node24 -->
<g id="node24" class="node">
<title>Node24</title>
<g id="a_node24"><a xlink:href="plane_8cpp.html" target="_top" xlink:title=" ">
<polygon fill="none" stroke="black" points="636,-234.5 636,-275.5 761,-275.5 761,-234.5 636,-234.5"/>
<text text-anchor="start" x="644" y="-263.5" font-family="Helvetica,sans-Serif" font-size="10.00">/home/krzysztof/PO</text>
<text text-anchor="start" x="644" y="-252.5" font-family="Helvetica,sans-Serif" font-size="10.00">/zad5_2&#45;kgliwinski/src</text>
<text text-anchor="middle" x="698.5" y="-241.5" font-family="Helvetica,sans-Serif" font-size="10.00">/plane.cpp</text>
</a>
</g>
</g>
<!-- Node23&#45;&gt;Node24 -->
<g id="edge30" class="edge">
<title>Node23&#45;&gt;Node24</title>
<path fill="none" stroke="midnightblue" d="M758.1,-305.78C746.21,-295.84 732.88,-284.72 721.86,-275.51"/>
<polygon fill="midnightblue" stroke="midnightblue" points="756.15,-308.7 766.07,-312.43 760.63,-303.33 756.15,-308.7"/>
</g>
<!-- Node26&#45;&gt;Node1 -->
<g id="edge33" class="edge">
<title>Node26&#45;&gt;Node1</title>
<path fill="none" stroke="midnightblue" d="M1032.1,-441.63C1032.42,-450.62 1032.22,-460.27 1031.49,-468.43"/>
<polygon fill="midnightblue" stroke="midnightblue" points="1035.59,-441.27 1031.48,-431.51 1028.6,-441.7 1035.59,-441.27"/>
</g>
</g>
</svg>
        <g id="navigator" transform="translate(0 0)" fill="#404254">
                <rect fill="#f2f5e9" fill-opacity="0.5" stroke="#606060" stroke-width=".5" x="0" y="0" width="60" height="60"/>
                <use id="zoomplus" xlink:href="#zoomPlus" x="17" y="9" onmousedown="handleZoom(evt,'in')"/>
                <use id="zoomminus" xlink:href="#zoomMin" x="42" y="9" onmousedown="handleZoom(evt,'out')"/>
                <use id="reset" xlink:href="#resetDef" x="30" y="36" onmousedown="handleReset()"/>
                <g id="arrowUp" xlink:href="#dirArrow" transform="translate(30 24)" onmousedown="handlePan(0,-1)">
                  <use xlink:href="#rim" fill="#404040">
                        <set attributeName="fill" to="#808080" begin="arrowUp.mouseover" end="arrowUp.mouseout"/>
                  </use>
                  <path fill="none" stroke="white" stroke-width="1.5" d="M0,-3.0v7 M-2.5,-0.5L0,-3.0L2.5,-0.5"/>
                </g>
                <g id="arrowRight" xlink:href="#dirArrow" transform="rotate(90) translate(36 -43)" onmousedown="handlePan(1,0)">
                  <use xlink:href="#rim" fill="#404040">
                        <set attributeName="fill" to="#808080" begin="arrowRight.mouseover" end="arrowRight.mouseout"/>
                  </use>
                  <path fill="none" stroke="white" stroke-width="1.5" d="M0,-3.0v7 M-2.5,-0.5L0,-3.0L2.5,-0.5"/>
                </g>
                <g id="arrowDown" xlink:href="#dirArrow" transform="rotate(180) translate(-30 -48)" onmousedown="handlePan(0,1)">
                  <use xlink:href="#rim" fill="#404040">
                        <set attributeName="fill" to="#808080" begin="arrowDown.mouseover" end="arrowDown.mouseout"/>
                  </use>
                  <path fill="none" stroke="white" stroke-width="1.5" d="M0,-3.0v7 M-2.5,-0.5L0,-3.0L2.5,-0.5"/>
                </g>
                <g id="arrowLeft" xlink:href="#dirArrow" transform="rotate(270) translate(-36 17)" onmousedown="handlePan(-1,0)">
                  <use xlink:href="#rim" fill="#404040">
                        <set attributeName="fill" to="#808080" begin="arrowLeft.mouseover" end="arrowLeft.mouseout"/>
                  </use>
                  <path fill="none" stroke="white" stroke-width="1.5" d="M0,-3.0v7 M-2.5,-0.5L0,-3.0L2.5,-0.5"/>
                </g>
        </g>
        <svg viewBox="0 0 15 15" width="100%" height="30px" preserveAspectRatio="xMaxYMin meet">
         <g id="arrow_out" transform="scale(0.3 0.3)">
          <a xlink:href="matrix3_d_8hpp__dep__incl_org.svg" target="_base">
           <rect id="button" ry="5" rx="5" y="6" x="6" height="38" width="38"
                fill="#f2f5e9" fill-opacity="0.5" stroke="#606060" stroke-width="1.0"/>
           <path id="arrow"
             d="M 11.500037,31.436501 C 11.940474,20.09759 22.043105,11.32322 32.158766,21.979434 L 37.068811,17.246167 C 37.068811,17.246167 37.088388,32 37.088388,32 L 22.160133,31.978069 C 22.160133,31.978069 26.997745,27.140456 26.997745,27.140456 C 18.528582,18.264221 13.291696,25.230495 11.500037,31.436501 z"
             style="fill:#404040;"/>
          </a>
         </g>
        </svg>
</svg>
