<?xml version="1.0" encoding="UTF-8" standalone="no"?>
<!DOCTYPE svg PUBLIC "-//W3C//DTD SVG 1.1//EN"
 "http://www.w3.org/Graphics/SVG/1.1/DTD/svg11.dtd">
<!-- Generated by graphviz version 2.43.0 (0)
 -->
<!-- Title: /home/krzysztof/PO/zad5_3&#45;kgliwinski/include/matrix2D.hpp Pages: 1 -->
<svg width="397pt" height="330pt"
 viewBox="0.00 0.00 397.00 330.00" xmlns="http://www.w3.org/2000/svg" xmlns:xlink="http://www.w3.org/1999/xlink">
<g id="graph0" class="graph" transform="scale(1 1) rotate(0) translate(4 326)">
<title>/home/krzysztof/PO/zad5_3&#45;kgliwinski/include/matrix2D.hpp</title>
<!-- Node1 -->
<g id="node1" class="node">
<title>Node1</title>
<g id="a_node1"><a xlink:title="Zawiera deklaracje klasy Matrix2D.">
<polygon fill="#bfbfbf" stroke="black" points="180,-280.5 180,-321.5 326,-321.5 326,-280.5 180,-280.5"/>
<text text-anchor="start" x="188" y="-309.5" font-family="Helvetica,sans-Serif" font-size="10.00">/home/krzysztof/PO</text>
<text text-anchor="start" x="188" y="-298.5" font-family="Helvetica,sans-Serif" font-size="10.00">/zad5_3&#45;kgliwinski/include</text>
<text text-anchor="middle" x="253" y="-287.5" font-family="Helvetica,sans-Serif" font-size="10.00">/matrix2D.hpp</text>
</a>
</g>
</g>
<!-- Node2 -->
<g id="node2" class="node">
<title>Node2</title>
<g id="a_node2"><a xlink:href="matrix_8hpp.html" target="_top" xlink:title=" ">
<polygon fill="none" stroke="black" points="110,-224.5 110,-243.5 180,-243.5 180,-224.5 110,-224.5"/>
<text text-anchor="middle" x="145" y="-231.5" font-family="Helvetica,sans-Serif" font-size="10.00">matrix.hpp</text>
</a>
</g>
</g>
<!-- Node1&#45;&gt;Node2 -->
<g id="edge1" class="edge">
<title>Node1&#45;&gt;Node2</title>
<path fill="none" stroke="midnightblue" d="M220.6,-280.5C203.72,-270.34 183.47,-258.16 168.18,-248.95"/>
<polygon fill="midnightblue" stroke="midnightblue" points="169.75,-245.81 159.38,-243.65 166.14,-251.81 169.75,-245.81"/>
</g>
<!-- Node14 -->
<g id="node14" class="node">
<title>Node14</title>
<g id="a_node14"><a xlink:href="matrix2_d_8cpp.html" target="_top" xlink:title=" ">
<polygon fill="none" stroke="black" points="198.5,-224.5 198.5,-243.5 307.5,-243.5 307.5,-224.5 198.5,-224.5"/>
<text text-anchor="middle" x="253" y="-231.5" font-family="Helvetica,sans-Serif" font-size="10.00">../src/matrix2D.cpp</text>
</a>
</g>
</g>
<!-- Node1&#45;&gt;Node14 -->
<g id="edge17" class="edge">
<title>Node1&#45;&gt;Node14</title>
<path fill="none" stroke="midnightblue" d="M246.75,-280.5C246.06,-271.97 246.08,-262.01 246.83,-253.59"/>
<polygon fill="midnightblue" stroke="midnightblue" points="250.3,-254.04 248.24,-243.65 243.37,-253.06 250.3,-254.04"/>
</g>
<!-- Node3 -->
<g id="node3" class="node">
<title>Node3</title>
<g id="a_node3"><a xlink:href="vector_8hpp.html" target="_top" xlink:title=" ">
<polygon fill="none" stroke="black" points="92,-112.5 92,-131.5 160,-131.5 160,-112.5 92,-112.5"/>
<text text-anchor="middle" x="126" y="-119.5" font-family="Helvetica,sans-Serif" font-size="10.00">vector.hpp</text>
</a>
</g>
</g>
<!-- Node2&#45;&gt;Node3 -->
<g id="edge2" class="edge">
<title>Node2&#45;&gt;Node3</title>
<path fill="none" stroke="midnightblue" d="M130.05,-224.47C118.07,-216.7 102.13,-204 95,-188 87.57,-171.32 98.7,-152.52 109.64,-139.45"/>
<polygon fill="midnightblue" stroke="midnightblue" points="112.48,-141.53 116.6,-131.76 107.29,-136.83 112.48,-141.53"/>
</g>
<!-- Node4 -->
<g id="node4" class="node">
<title>Node4</title>
<g id="a_node4"><a xlink:title=" ">
<polygon fill="none" stroke="#bfbfbf" points="0,-0.5 0,-19.5 60,-19.5 60,-0.5 0,-0.5"/>
<text text-anchor="middle" x="30" y="-7.5" font-family="Helvetica,sans-Serif" font-size="10.00">iostream</text>
</a>
</g>
</g>
<!-- Node2&#45;&gt;Node4 -->
<g id="edge14" class="edge">
<title>Node2&#45;&gt;Node4</title>
<path fill="none" stroke="midnightblue" d="M130.28,-224.36C117.77,-216.34 100.11,-203.36 89,-188 52.67,-137.78 37.68,-63.73 32.44,-29.55"/>
<polygon fill="midnightblue" stroke="midnightblue" points="35.89,-28.98 31.01,-19.57 28.96,-29.97 35.89,-28.98"/>
</g>
<!-- Node10 -->
<g id="node10" class="node">
<title>Node10</title>
<g id="a_node10"><a xlink:href="vector3_d_8hpp.html" target="_top" xlink:title="Zawiera deklaracje klasy Vector3D.">
<polygon fill="none" stroke="black" points="104,-168.5 104,-187.5 186,-187.5 186,-168.5 104,-168.5"/>
<text text-anchor="middle" x="145" y="-175.5" font-family="Helvetica,sans-Serif" font-size="10.00">vector3D.hpp</text>
</a>
</g>
</g>
<!-- Node2&#45;&gt;Node10 -->
<g id="edge10" class="edge">
<title>Node2&#45;&gt;Node10</title>
<path fill="none" stroke="midnightblue" d="M145,-224.08C145,-217.01 145,-206.86 145,-197.99"/>
<polygon fill="midnightblue" stroke="midnightblue" points="148.5,-197.75 145,-187.75 141.5,-197.75 148.5,-197.75"/>
</g>
<!-- Node12 -->
<g id="node12" class="node">
<title>Node12</title>
<g id="a_node12"><a xlink:title=" ">
<polygon fill="none" stroke="#bfbfbf" points="204.5,-168.5 204.5,-187.5 253.5,-187.5 253.5,-168.5 204.5,-168.5"/>
<text text-anchor="middle" x="229" y="-175.5" font-family="Helvetica,sans-Serif" font-size="10.00">cstdlib</text>
</a>
</g>
</g>
<!-- Node2&#45;&gt;Node12 -->
<g id="edge15" class="edge">
<title>Node2&#45;&gt;Node12</title>
<path fill="none" stroke="midnightblue" d="M158.5,-224.32C171.6,-215.9 191.71,-202.97 207.11,-193.07"/>
<polygon fill="midnightblue" stroke="midnightblue" points="209.02,-196.01 215.54,-187.65 205.23,-190.12 209.02,-196.01"/>
</g>
<!-- Node13 -->
<g id="node13" class="node">
<title>Node13</title>
<g id="a_node13"><a xlink:title=" ">
<polygon fill="none" stroke="#bfbfbf" points="272,-168.5 272,-187.5 366,-187.5 366,-168.5 272,-168.5"/>
<text text-anchor="middle" x="319" y="-175.5" font-family="Helvetica,sans-Serif" font-size="10.00">../src/matrix.tpp</text>
</a>
</g>
</g>
<!-- Node2&#45;&gt;Node13 -->
<g id="edge16" class="edge">
<title>Node2&#45;&gt;Node13</title>
<path fill="none" stroke="midnightblue" d="M172.57,-224.44C202.1,-215.28 249.12,-200.69 281.88,-190.52"/>
<polygon fill="midnightblue" stroke="midnightblue" points="283.04,-193.82 291.56,-187.52 280.97,-187.14 283.04,-193.82"/>
</g>
<!-- Node3&#45;&gt;Node4 -->
<g id="edge3" class="edge">
<title>Node3&#45;&gt;Node4</title>
<path fill="none" stroke="midnightblue" d="M110.73,-112.39C97.41,-104.31 78.19,-91.21 65,-76 52.82,-61.96 43.21,-42.97 37.16,-29.14"/>
<polygon fill="midnightblue" stroke="midnightblue" points="40.32,-27.63 33.25,-19.74 33.86,-30.31 40.32,-27.63"/>
</g>
<!-- Node5 -->
<g id="node5" class="node">
<title>Node5</title>
<g id="a_node5"><a xlink:title=" ">
<polygon fill="none" stroke="#bfbfbf" points="157.5,-56.5 157.5,-75.5 204.5,-75.5 204.5,-56.5 157.5,-56.5"/>
<text text-anchor="middle" x="181" y="-63.5" font-family="Helvetica,sans-Serif" font-size="10.00">cmath</text>
</a>
</g>
</g>
<!-- Node3&#45;&gt;Node5 -->
<g id="edge4" class="edge">
<title>Node3&#45;&gt;Node5</title>
<path fill="none" stroke="midnightblue" d="M135.08,-112.08C143.17,-104.14 155.2,-92.34 164.91,-82.8"/>
<polygon fill="midnightblue" stroke="midnightblue" points="167.4,-85.25 172.09,-75.75 162.5,-80.26 167.4,-85.25"/>
</g>
<!-- Node6 -->
<g id="node6" class="node">
<title>Node6</title>
<g id="a_node6"><a xlink:title=" ">
<polygon fill="none" stroke="#bfbfbf" points="223,-56.5 223,-75.5 279,-75.5 279,-56.5 223,-56.5"/>
<text text-anchor="middle" x="251" y="-63.5" font-family="Helvetica,sans-Serif" font-size="10.00">iomanip</text>
</a>
</g>
</g>
<!-- Node3&#45;&gt;Node6 -->
<g id="edge5" class="edge">
<title>Node3&#45;&gt;Node6</title>
<path fill="none" stroke="midnightblue" d="M145.81,-112.44C166.29,-103.6 198.48,-89.69 221.86,-79.59"/>
<polygon fill="midnightblue" stroke="midnightblue" points="223.49,-82.7 231.29,-75.52 220.72,-76.27 223.49,-82.7"/>
</g>
<!-- Node7 -->
<g id="node7" class="node">
<title>Node7</title>
<g id="a_node7"><a xlink:href="count_8hpp.html" target="_top" xlink:title="Plik zawiera definicję klasy reprezentujacej counter, pozwalajacy na liczenie instancji stworzonych k...">
<polygon fill="none" stroke="black" points="74.5,-56.5 74.5,-75.5 139.5,-75.5 139.5,-56.5 74.5,-56.5"/>
<text text-anchor="middle" x="107" y="-63.5" font-family="Helvetica,sans-Serif" font-size="10.00">count.hpp</text>
</a>
</g>
</g>
<!-- Node3&#45;&gt;Node7 -->
<g id="edge6" class="edge">
<title>Node3&#45;&gt;Node7</title>
<path fill="none" stroke="midnightblue" d="M122.86,-112.08C120.32,-104.85 116.64,-94.41 113.47,-85.4"/>
<polygon fill="midnightblue" stroke="midnightblue" points="116.7,-84.02 110.08,-75.75 110.1,-86.35 116.7,-84.02"/>
</g>
<!-- Node9 -->
<g id="node9" class="node">
<title>Node9</title>
<g id="a_node9"><a xlink:title=" ">
<polygon fill="none" stroke="#bfbfbf" points="297,-56.5 297,-75.5 389,-75.5 389,-56.5 297,-56.5"/>
<text text-anchor="middle" x="343" y="-63.5" font-family="Helvetica,sans-Serif" font-size="10.00">../src/vector.tpp</text>
</a>
</g>
</g>
<!-- Node3&#45;&gt;Node9 -->
<g id="edge9" class="edge">
<title>Node3&#45;&gt;Node9</title>
<path fill="none" stroke="midnightblue" d="M160.38,-112.44C197.92,-103.1 258.13,-88.12 299.07,-77.93"/>
<polygon fill="midnightblue" stroke="midnightblue" points="299.92,-81.33 308.78,-75.52 298.23,-74.53 299.92,-81.33"/>
</g>
<!-- Node7&#45;&gt;Node4 -->
<g id="edge7" class="edge">
<title>Node7&#45;&gt;Node4</title>
<path fill="none" stroke="midnightblue" d="M94.63,-56.32C82.84,-48.06 64.87,-35.45 50.86,-25.63"/>
<polygon fill="midnightblue" stroke="midnightblue" points="52.54,-22.53 42.34,-19.65 48.52,-28.26 52.54,-22.53"/>
</g>
<!-- Node8 -->
<g id="node8" class="node">
<title>Node8</title>
<g id="a_node8"><a xlink:title=" ">
<polygon fill="none" stroke="#bfbfbf" points="78.5,-0.5 78.5,-19.5 167.5,-19.5 167.5,-0.5 78.5,-0.5"/>
<text text-anchor="middle" x="123" y="-7.5" font-family="Helvetica,sans-Serif" font-size="10.00">../src/count.tpp</text>
</a>
</g>
</g>
<!-- Node7&#45;&gt;Node8 -->
<g id="edge8" class="edge">
<title>Node7&#45;&gt;Node8</title>
<path fill="none" stroke="midnightblue" d="M109.64,-56.08C111.79,-48.85 114.88,-38.41 117.55,-29.4"/>
<polygon fill="midnightblue" stroke="midnightblue" points="120.92,-30.33 120.41,-19.75 114.21,-28.34 120.92,-30.33"/>
</g>
<!-- Node10&#45;&gt;Node3 -->
<g id="edge11" class="edge">
<title>Node10&#45;&gt;Node3</title>
<path fill="none" stroke="midnightblue" d="M141.86,-168.08C139.32,-160.85 135.64,-150.41 132.47,-141.4"/>
<polygon fill="midnightblue" stroke="midnightblue" points="135.7,-140.02 129.08,-131.75 129.1,-142.35 135.7,-140.02"/>
</g>
<!-- Node11 -->
<g id="node11" class="node">
<title>Node11</title>
<g id="a_node11"><a xlink:href="vector3_d_8cpp.html" target="_top" xlink:title=" ">
<polygon fill="none" stroke="black" points="178.5,-112.5 178.5,-131.5 285.5,-131.5 285.5,-112.5 178.5,-112.5"/>
<text text-anchor="middle" x="232" y="-119.5" font-family="Helvetica,sans-Serif" font-size="10.00">../src/vector3D.cpp</text>
</a>
</g>
</g>
<!-- Node10&#45;&gt;Node11 -->
<g id="edge12" class="edge">
<title>Node10&#45;&gt;Node11</title>
<path fill="none" stroke="midnightblue" d="M158.98,-168.32C172.55,-159.9 193.38,-146.97 209.32,-137.07"/>
<polygon fill="midnightblue" stroke="midnightblue" points="211.41,-139.9 218.06,-131.65 207.71,-133.95 211.41,-139.9"/>
</g>
<!-- Node11&#45;&gt;Node11 -->
<g id="edge13" class="edge">
<title>Node11&#45;&gt;Node11</title>
<path fill="none" stroke="midnightblue" d="M262.49,-131.53C283.22,-134.31 303.5,-131.13 303.5,-122 303.5,-114.37 289.33,-110.89 272.57,-111.59"/>
<polygon fill="midnightblue" stroke="midnightblue" points="272.15,-108.11 262.49,-112.47 272.76,-115.08 272.15,-108.11"/>
</g>
<!-- Node14&#45;&gt;Node1 -->
<g id="edge18" class="edge">
<title>Node14&#45;&gt;Node1</title>
<path fill="none" stroke="midnightblue" d="M257.76,-243.65C259.23,-250.52 259.88,-260.56 259.73,-270.26"/>
<polygon fill="midnightblue" stroke="midnightblue" points="256.22,-270.34 259.25,-280.5 263.21,-270.67 256.22,-270.34"/>
</g>
</g>
</svg>
