<?xml version="1.0" encoding="UTF-8" standalone="no"?>
<!DOCTYPE svg PUBLIC "-//W3C//DTD SVG 1.1//EN"
 "http://www.w3.org/Graphics/SVG/1.1/DTD/svg11.dtd">
<!-- Generated by graphviz version 2.43.0 (0)
 -->
<!-- Title: /home/krzysztof/PO/zad5_2&#45;kgliwinski/include/matrix3D.hpp Pages: 1 -->
<svg width="397pt" height="330pt"
 viewBox="0.00 0.00 397.00 330.00" xmlns="http://www.w3.org/2000/svg" xmlns:xlink="http://www.w3.org/1999/xlink">
<g id="graph0" class="graph" transform="scale(1 1) rotate(0) translate(4 326)">
<title>/home/krzysztof/PO/zad5_2&#45;kgliwinski/include/matrix3D.hpp</title>
<!-- Node1 -->
<g id="node1" class="node">
<title>Node1</title>
<g id="a_node1"><a xlink:title="Zawiera deklaracje klasy Matrix3D.">
<polygon fill="#bfbfbf" stroke="black" points="219,-280.5 219,-321.5 365,-321.5 365,-280.5 219,-280.5"/>
<text text-anchor="start" x="227" y="-309.5" font-family="Helvetica,sans-Serif" font-size="10.00">/home/krzysztof/PO</text>
<text text-anchor="start" x="227" y="-298.5" font-family="Helvetica,sans-Serif" font-size="10.00">/zad5_2&#45;kgliwinski/include</text>
<text text-anchor="middle" x="292" y="-287.5" font-family="Helvetica,sans-Serif" font-size="10.00">/matrix3D.hpp</text>
</a>
</g>
</g>
<!-- Node2 -->
<g id="node2" class="node">
<title>Node2</title>
<g id="a_node2"><a xlink:href="matrix_8hpp.html" target="_top" xlink:title=" ">
<polygon fill="none" stroke="black" points="109,-224.5 109,-243.5 179,-243.5 179,-224.5 109,-224.5"/>
<text text-anchor="middle" x="144" y="-231.5" font-family="Helvetica,sans-Serif" font-size="10.00">matrix.hpp</text>
</a>
</g>
</g>
<!-- Node1&#45;&gt;Node2 -->
<g id="edge1" class="edge">
<title>Node1&#45;&gt;Node2</title>
<path fill="none" stroke="midnightblue" d="M247.6,-280.5C223.49,-269.91 194.36,-257.12 173.14,-247.8"/>
<polygon fill="midnightblue" stroke="midnightblue" points="174.26,-244.47 163.7,-243.65 171.45,-250.88 174.26,-244.47"/>
</g>
<!-- Node10 -->
<g id="node10" class="node">
<title>Node10</title>
<g id="a_node10"><a xlink:href="vector3_d_8hpp.html" target="_top" xlink:title="Zawiera deklaracje klasy Vector3D.">
<polygon fill="none" stroke="black" points="254,-168.5 254,-187.5 336,-187.5 336,-168.5 254,-168.5"/>
<text text-anchor="middle" x="295" y="-175.5" font-family="Helvetica,sans-Serif" font-size="10.00">vector3D.hpp</text>
</a>
</g>
</g>
<!-- Node1&#45;&gt;Node10 -->
<g id="edge17" class="edge">
<title>Node1&#45;&gt;Node10</title>
<path fill="none" stroke="midnightblue" d="M280.36,-280.4C272.73,-265.1 265,-243.28 270,-224 272.55,-214.18 277.75,-204.21 282.76,-196.17"/>
<polygon fill="midnightblue" stroke="midnightblue" points="285.75,-197.99 288.37,-187.73 279.92,-194.11 285.75,-197.99"/>
</g>
<!-- Node14 -->
<g id="node14" class="node">
<title>Node14</title>
<g id="a_node14"><a xlink:href="matrix3_d_8cpp.html" target="_top" xlink:title=" ">
<polygon fill="none" stroke="black" points="279.5,-224.5 279.5,-243.5 388.5,-243.5 388.5,-224.5 279.5,-224.5"/>
<text text-anchor="middle" x="334" y="-231.5" font-family="Helvetica,sans-Serif" font-size="10.00">../src/matrix3D.cpp</text>
</a>
</g>
</g>
<!-- Node1&#45;&gt;Node14 -->
<g id="edge18" class="edge">
<title>Node1&#45;&gt;Node14</title>
<path fill="none" stroke="midnightblue" d="M298.36,-280.5C303.55,-271.3 310.66,-260.44 317.28,-251.63"/>
<polygon fill="midnightblue" stroke="midnightblue" points="320.14,-253.65 323.64,-243.65 314.67,-249.29 320.14,-253.65"/>
</g>
<!-- Node3 -->
<g id="node3" class="node">
<title>Node3</title>
<g id="a_node3"><a xlink:href="vector_8hpp.html" target="_top" xlink:title=" ">
<polygon fill="none" stroke="black" points="147,-112.5 147,-131.5 215,-131.5 215,-112.5 147,-112.5"/>
<text text-anchor="middle" x="181" y="-119.5" font-family="Helvetica,sans-Serif" font-size="10.00">vector.hpp</text>
</a>
</g>
</g>
<!-- Node2&#45;&gt;Node3 -->
<g id="edge2" class="edge">
<title>Node2&#45;&gt;Node3</title>
<path fill="none" stroke="midnightblue" d="M117.72,-224.45C88.61,-213.52 47.89,-192.99 65,-168 81.11,-144.48 111.44,-133.25 137.04,-127.89"/>
<polygon fill="midnightblue" stroke="midnightblue" points="137.76,-131.32 146.95,-126.05 136.48,-124.43 137.76,-131.32"/>
</g>
<!-- Node4 -->
<g id="node4" class="node">
<title>Node4</title>
<g id="a_node4"><a xlink:title=" ">
<polygon fill="none" stroke="#bfbfbf" points="0,-0.5 0,-19.5 60,-19.5 60,-0.5 0,-0.5"/>
<text text-anchor="middle" x="30" y="-7.5" font-family="Helvetica,sans-Serif" font-size="10.00">iostream</text>
</a>
</g>
</g>
<!-- Node2&#45;&gt;Node4 -->
<g id="edge14" class="edge">
<title>Node2&#45;&gt;Node4</title>
<path fill="none" stroke="midnightblue" d="M111.75,-224.39C92.81,-217.63 70.09,-206.24 57,-188 22.32,-139.67 24.4,-64.69 27.66,-29.91"/>
<polygon fill="midnightblue" stroke="midnightblue" points="31.17,-30.07 28.76,-19.75 24.21,-29.32 31.17,-30.07"/>
</g>
<!-- Node2&#45;&gt;Node10 -->
<g id="edge10" class="edge">
<title>Node2&#45;&gt;Node10</title>
<path fill="none" stroke="midnightblue" d="M167.93,-224.44C193.22,-215.4 233.3,-201.06 261.68,-190.92"/>
<polygon fill="midnightblue" stroke="midnightblue" points="262.95,-194.18 271.19,-187.52 260.59,-187.59 262.95,-194.18"/>
</g>
<!-- Node12 -->
<g id="node12" class="node">
<title>Node12</title>
<g id="a_node12"><a xlink:title=" ">
<polygon fill="none" stroke="#bfbfbf" points="74.5,-168.5 74.5,-187.5 123.5,-187.5 123.5,-168.5 74.5,-168.5"/>
<text text-anchor="middle" x="99" y="-175.5" font-family="Helvetica,sans-Serif" font-size="10.00">cstdlib</text>
</a>
</g>
</g>
<!-- Node2&#45;&gt;Node12 -->
<g id="edge15" class="edge">
<title>Node2&#45;&gt;Node12</title>
<path fill="none" stroke="midnightblue" d="M136.57,-224.08C130.15,-216.38 120.69,-205.03 112.88,-195.65"/>
<polygon fill="midnightblue" stroke="midnightblue" points="115.38,-193.19 106.29,-187.75 110.01,-197.67 115.38,-193.19"/>
</g>
<!-- Node13 -->
<g id="node13" class="node">
<title>Node13</title>
<g id="a_node13"><a xlink:title=" ">
<polygon fill="none" stroke="#bfbfbf" points="142,-168.5 142,-187.5 236,-187.5 236,-168.5 142,-168.5"/>
<text text-anchor="middle" x="189" y="-175.5" font-family="Helvetica,sans-Serif" font-size="10.00">../src/matrix.tpp</text>
</a>
</g>
</g>
<!-- Node2&#45;&gt;Node13 -->
<g id="edge16" class="edge">
<title>Node2&#45;&gt;Node13</title>
<path fill="none" stroke="midnightblue" d="M151.43,-224.08C157.85,-216.38 167.31,-205.03 175.12,-195.65"/>
<polygon fill="midnightblue" stroke="midnightblue" points="177.99,-197.67 181.71,-187.75 172.62,-193.19 177.99,-197.67"/>
</g>
<!-- Node3&#45;&gt;Node4 -->
<g id="edge3" class="edge">
<title>Node3&#45;&gt;Node4</title>
<path fill="none" stroke="midnightblue" d="M146.94,-114.46C121.87,-108.17 88.23,-96.52 65,-76 50.91,-63.56 41.48,-44.05 35.99,-29.64"/>
<polygon fill="midnightblue" stroke="midnightblue" points="39.16,-28.11 32.55,-19.83 32.56,-30.42 39.16,-28.11"/>
</g>
<!-- Node5 -->
<g id="node5" class="node">
<title>Node5</title>
<g id="a_node5"><a xlink:title=" ">
<polygon fill="none" stroke="#bfbfbf" points="157.5,-56.5 157.5,-75.5 204.5,-75.5 204.5,-56.5 157.5,-56.5"/>
<text text-anchor="middle" x="181" y="-63.5" font-family="Helvetica,sans-Serif" font-size="10.00">cmath</text>
</a>
</g>
</g>
<!-- Node3&#45;&gt;Node5 -->
<g id="edge4" class="edge">
<title>Node3&#45;&gt;Node5</title>
<path fill="none" stroke="midnightblue" d="M181,-112.08C181,-105.01 181,-94.86 181,-85.99"/>
<polygon fill="midnightblue" stroke="midnightblue" points="184.5,-85.75 181,-75.75 177.5,-85.75 184.5,-85.75"/>
</g>
<!-- Node6 -->
<g id="node6" class="node">
<title>Node6</title>
<g id="a_node6"><a xlink:title=" ">
<polygon fill="none" stroke="#bfbfbf" points="223,-56.5 223,-75.5 279,-75.5 279,-56.5 223,-56.5"/>
<text text-anchor="middle" x="251" y="-63.5" font-family="Helvetica,sans-Serif" font-size="10.00">iomanip</text>
</a>
</g>
</g>
<!-- Node3&#45;&gt;Node6 -->
<g id="edge5" class="edge">
<title>Node3&#45;&gt;Node6</title>
<path fill="none" stroke="midnightblue" d="M192.25,-112.32C202.8,-104.18 218.8,-91.84 231.44,-82.09"/>
<polygon fill="midnightblue" stroke="midnightblue" points="233.77,-84.71 239.55,-75.83 229.49,-79.17 233.77,-84.71"/>
</g>
<!-- Node7 -->
<g id="node7" class="node">
<title>Node7</title>
<g id="a_node7"><a xlink:href="count_8hpp.html" target="_top" xlink:title="Plik zawiera definicję klasy reprezentujacej counter, pozwalajacy na liczenie instancji stworzonych k...">
<polygon fill="none" stroke="black" points="74.5,-56.5 74.5,-75.5 139.5,-75.5 139.5,-56.5 74.5,-56.5"/>
<text text-anchor="middle" x="107" y="-63.5" font-family="Helvetica,sans-Serif" font-size="10.00">count.hpp</text>
</a>
</g>
</g>
<!-- Node3&#45;&gt;Node7 -->
<g id="edge6" class="edge">
<title>Node3&#45;&gt;Node7</title>
<path fill="none" stroke="midnightblue" d="M169.11,-112.32C157.85,-104.11 140.71,-91.6 127.29,-81.81"/>
<polygon fill="midnightblue" stroke="midnightblue" points="129.25,-78.9 119.11,-75.83 125.12,-84.56 129.25,-78.9"/>
</g>
<!-- Node9 -->
<g id="node9" class="node">
<title>Node9</title>
<g id="a_node9"><a xlink:title=" ">
<polygon fill="none" stroke="#bfbfbf" points="297,-56.5 297,-75.5 389,-75.5 389,-56.5 297,-56.5"/>
<text text-anchor="middle" x="343" y="-63.5" font-family="Helvetica,sans-Serif" font-size="10.00">../src/vector.tpp</text>
</a>
</g>
</g>
<!-- Node3&#45;&gt;Node9 -->
<g id="edge9" class="edge">
<title>Node3&#45;&gt;Node9</title>
<path fill="none" stroke="midnightblue" d="M206.67,-112.44C233.92,-103.36 277.18,-88.94 307.65,-78.78"/>
<polygon fill="midnightblue" stroke="midnightblue" points="309.07,-82 317.45,-75.52 306.86,-75.36 309.07,-82"/>
</g>
<!-- Node7&#45;&gt;Node4 -->
<g id="edge7" class="edge">
<title>Node7&#45;&gt;Node4</title>
<path fill="none" stroke="midnightblue" d="M94.63,-56.32C82.84,-48.06 64.87,-35.45 50.86,-25.63"/>
<polygon fill="midnightblue" stroke="midnightblue" points="52.54,-22.53 42.34,-19.65 48.52,-28.26 52.54,-22.53"/>
</g>
<!-- Node8 -->
<g id="node8" class="node">
<title>Node8</title>
<g id="a_node8"><a xlink:title=" ">
<polygon fill="none" stroke="#bfbfbf" points="78.5,-0.5 78.5,-19.5 167.5,-19.5 167.5,-0.5 78.5,-0.5"/>
<text text-anchor="middle" x="123" y="-7.5" font-family="Helvetica,sans-Serif" font-size="10.00">../src/count.tpp</text>
</a>
</g>
</g>
<!-- Node7&#45;&gt;Node8 -->
<g id="edge8" class="edge">
<title>Node7&#45;&gt;Node8</title>
<path fill="none" stroke="midnightblue" d="M109.64,-56.08C111.79,-48.85 114.88,-38.41 117.55,-29.4"/>
<polygon fill="midnightblue" stroke="midnightblue" points="120.92,-30.33 120.41,-19.75 114.21,-28.34 120.92,-30.33"/>
</g>
<!-- Node10&#45;&gt;Node3 -->
<g id="edge11" class="edge">
<title>Node10&#45;&gt;Node3</title>
<path fill="none" stroke="midnightblue" d="M276.94,-168.44C258.43,-159.68 229.42,-145.94 208.14,-135.86"/>
<polygon fill="midnightblue" stroke="midnightblue" points="209.51,-132.63 198.98,-131.52 206.52,-138.96 209.51,-132.63"/>
</g>
<!-- Node11 -->
<g id="node11" class="node">
<title>Node11</title>
<g id="a_node11"><a xlink:href="vector3_d_8cpp.html" target="_top" xlink:title=" ">
<polygon fill="none" stroke="black" points="241.5,-112.5 241.5,-131.5 348.5,-131.5 348.5,-112.5 241.5,-112.5"/>
<text text-anchor="middle" x="295" y="-119.5" font-family="Helvetica,sans-Serif" font-size="10.00">../src/vector3D.cpp</text>
</a>
</g>
</g>
<!-- Node10&#45;&gt;Node11 -->
<g id="edge12" class="edge">
<title>Node10&#45;&gt;Node11</title>
<path fill="none" stroke="midnightblue" d="M289.83,-168.08C288.32,-160.93 287.89,-150.64 288.54,-141.69"/>
<polygon fill="midnightblue" stroke="midnightblue" points="292.02,-142.13 289.87,-131.75 285.08,-141.2 292.02,-142.13"/>
</g>
<!-- Node11&#45;&gt;Node10 -->
<g id="edge13" class="edge">
<title>Node11&#45;&gt;Node10</title>
<path fill="none" stroke="midnightblue" d="M300.13,-131.75C301.66,-138.86 302.1,-149.14 301.47,-158.1"/>
<polygon fill="midnightblue" stroke="midnightblue" points="297.99,-157.71 300.17,-168.08 304.93,-158.62 297.99,-157.71"/>
</g>
<!-- Node14&#45;&gt;Node1 -->
<g id="edge19" class="edge">
<title>Node14&#45;&gt;Node1</title>
<path fill="none" stroke="midnightblue" d="M333.17,-243.65C330.01,-250.96 323.61,-261.85 316.71,-272.12"/>
<polygon fill="midnightblue" stroke="midnightblue" points="313.71,-270.3 310.85,-280.5 319.44,-274.31 313.71,-270.3"/>
</g>
</g>
</svg>
