<?xml version="1.0" encoding="UTF-8" standalone="no"?>
<!DOCTYPE svg PUBLIC "-//W3C//DTD SVG 1.1//EN"
 "http://www.w3.org/Graphics/SVG/1.1/DTD/svg11.dtd">
<!-- Generated by graphviz version 2.43.0 (0)
 -->
<!-- Title: /home/krzysztof/PO/zad5_2&#45;kgliwinski/include/matrix.hpp Pages: 1 -->
<svg width="1568pt" height="596pt"
 viewBox="0.00 0.00 1567.50 596.00" xmlns="http://www.w3.org/2000/svg" xmlns:xlink="http://www.w3.org/1999/xlink">
<g id="graph0" class="graph" transform="scale(1 1) rotate(0) translate(4 592)">
<title>/home/krzysztof/PO/zad5_2&#45;kgliwinski/include/matrix.hpp</title>
<!-- Node1 -->
<g id="node1" class="node">
<title>Node1</title>
<g id="a_node1"><a xlink:title=" ">
<polygon fill="#bfbfbf" stroke="black" points="1116.5,-546.5 1116.5,-587.5 1262.5,-587.5 1262.5,-546.5 1116.5,-546.5"/>
<text text-anchor="start" x="1124.5" y="-575.5" font-family="Helvetica,sans-Serif" font-size="10.00">/home/krzysztof/PO</text>
<text text-anchor="start" x="1124.5" y="-564.5" font-family="Helvetica,sans-Serif" font-size="10.00">/zad5_2&#45;kgliwinski/include</text>
<text text-anchor="middle" x="1189.5" y="-553.5" font-family="Helvetica,sans-Serif" font-size="10.00">/matrix.hpp</text>
</a>
</g>
</g>
<!-- Node2 -->
<g id="node2" class="node">
<title>Node2</title>
<g id="a_node2"><a xlink:href="matrix3_d_8hpp.html" target="_top" xlink:title="Zawiera deklaracje klasy Matrix3D.">
<polygon fill="none" stroke="black" points="952.5,-468.5 952.5,-509.5 1098.5,-509.5 1098.5,-468.5 952.5,-468.5"/>
<text text-anchor="start" x="960.5" y="-497.5" font-family="Helvetica,sans-Serif" font-size="10.00">/home/krzysztof/PO</text>
<text text-anchor="start" x="960.5" y="-486.5" font-family="Helvetica,sans-Serif" font-size="10.00">/zad5_2&#45;kgliwinski/include</text>
<text text-anchor="middle" x="1025.5" y="-475.5" font-family="Helvetica,sans-Serif" font-size="10.00">/matrix3D.hpp</text>
</a>
</g>
</g>
<!-- Node1&#45;&gt;Node2 -->
<g id="edge1" class="edge">
<title>Node1&#45;&gt;Node2</title>
<path fill="none" stroke="midnightblue" d="M1138.12,-542.19C1115.43,-531.67 1089.09,-519.47 1067.59,-509.51"/>
<polygon fill="midnightblue" stroke="midnightblue" points="1136.72,-545.4 1147.27,-546.43 1139.66,-539.05 1136.72,-545.4"/>
</g>
<!-- Node28 -->
<g id="node28" class="node">
<title>Node28</title>
<g id="a_node28"><a xlink:href="matrix2_d_8hpp.html" target="_top" xlink:title="Zawiera deklaracje klasy Matrix2D.">
<polygon fill="none" stroke="black" points="1116.5,-468.5 1116.5,-509.5 1262.5,-509.5 1262.5,-468.5 1116.5,-468.5"/>
<text text-anchor="start" x="1124.5" y="-497.5" font-family="Helvetica,sans-Serif" font-size="10.00">/home/krzysztof/PO</text>
<text text-anchor="start" x="1124.5" y="-486.5" font-family="Helvetica,sans-Serif" font-size="10.00">/zad5_2&#45;kgliwinski/include</text>
<text text-anchor="middle" x="1189.5" y="-475.5" font-family="Helvetica,sans-Serif" font-size="10.00">/matrix2D.hpp</text>
</a>
</g>
</g>
<!-- Node1&#45;&gt;Node28 -->
<g id="edge35" class="edge">
<title>Node1&#45;&gt;Node28</title>
<path fill="none" stroke="midnightblue" d="M1189.5,-536.3C1189.5,-527.3 1189.5,-517.65 1189.5,-509.51"/>
<polygon fill="midnightblue" stroke="midnightblue" points="1186,-536.43 1189.5,-546.43 1193,-536.43 1186,-536.43"/>
</g>
<!-- Node31 -->
<g id="node31" class="node">
<title>Node31</title>
<g id="a_node31"><a xlink:href="matrix4_d_8hpp.html" target="_top" xlink:title="Zawiera deklaracje klasy Matrix4D.">
<polygon fill="none" stroke="black" points="1413.5,-468.5 1413.5,-509.5 1559.5,-509.5 1559.5,-468.5 1413.5,-468.5"/>
<text text-anchor="start" x="1421.5" y="-497.5" font-family="Helvetica,sans-Serif" font-size="10.00">/home/krzysztof/PO</text>
<text text-anchor="start" x="1421.5" y="-486.5" font-family="Helvetica,sans-Serif" font-size="10.00">/zad5_2&#45;kgliwinski/include</text>
<text text-anchor="middle" x="1486.5" y="-475.5" font-family="Helvetica,sans-Serif" font-size="10.00">/matrix4D.hpp</text>
</a>
</g>
</g>
<!-- Node1&#45;&gt;Node31 -->
<g id="edge39" class="edge">
<title>Node1&#45;&gt;Node31</title>
<path fill="none" stroke="midnightblue" d="M1272.41,-544.78C1316.72,-533.45 1370.78,-519.61 1413.49,-508.68"/>
<polygon fill="midnightblue" stroke="midnightblue" points="1271.35,-541.44 1262.53,-547.31 1273.09,-548.22 1271.35,-541.44"/>
</g>
<!-- Node3 -->
<g id="node3" class="node">
<title>Node3</title>
<g id="a_node3"><a xlink:href="block_8hpp.html" target="_top" xlink:title="Plik zawiera definicję klasy reprezentujacej bryle w przestrzeni trojwymiarowej.">
<polygon fill="none" stroke="black" points="798.5,-390.5 798.5,-431.5 944.5,-431.5 944.5,-390.5 798.5,-390.5"/>
<text text-anchor="start" x="806.5" y="-419.5" font-family="Helvetica,sans-Serif" font-size="10.00">/home/krzysztof/PO</text>
<text text-anchor="start" x="806.5" y="-408.5" font-family="Helvetica,sans-Serif" font-size="10.00">/zad5_2&#45;kgliwinski/include</text>
<text text-anchor="middle" x="871.5" y="-397.5" font-family="Helvetica,sans-Serif" font-size="10.00">/block.hpp</text>
</a>
</g>
</g>
<!-- Node2&#45;&gt;Node3 -->
<g id="edge2" class="edge">
<title>Node2&#45;&gt;Node3</title>
<path fill="none" stroke="midnightblue" d="M976.68,-463.91C955.51,-453.46 931.03,-441.38 911.02,-431.51"/>
<polygon fill="midnightblue" stroke="midnightblue" points="975.32,-467.14 985.84,-468.43 978.42,-460.86 975.32,-467.14"/>
</g>
<!-- Node27 -->
<g id="node27" class="node">
<title>Node27</title>
<g id="a_node27"><a xlink:href="matrix3_d_8cpp.html" target="_top" xlink:title=" ">
<polygon fill="none" stroke="black" points="963,-390.5 963,-431.5 1088,-431.5 1088,-390.5 963,-390.5"/>
<text text-anchor="start" x="971" y="-419.5" font-family="Helvetica,sans-Serif" font-size="10.00">/home/krzysztof/PO</text>
<text text-anchor="start" x="971" y="-408.5" font-family="Helvetica,sans-Serif" font-size="10.00">/zad5_2&#45;kgliwinski/src</text>
<text text-anchor="middle" x="1025.5" y="-397.5" font-family="Helvetica,sans-Serif" font-size="10.00">/matrix3D.cpp</text>
</a>
</g>
</g>
<!-- Node2&#45;&gt;Node27 -->
<g id="edge33" class="edge">
<title>Node2&#45;&gt;Node27</title>
<path fill="none" stroke="midnightblue" d="M1018.9,-458.3C1018.58,-449.3 1018.78,-439.65 1019.52,-431.51"/>
<polygon fill="midnightblue" stroke="midnightblue" points="1015.41,-458.66 1019.51,-468.43 1022.4,-458.23 1015.41,-458.66"/>
</g>
<!-- Node4 -->
<g id="node4" class="node">
<title>Node4</title>
<g id="a_node4"><a xlink:href="prism_8hpp.html" target="_top" xlink:title="Plik zawiera definicję klasy reprezentujacej graniastoslup o podstawie o 6 wierzcholkach w przestrzen...">
<polygon fill="none" stroke="black" points="389.5,-312.5 389.5,-353.5 535.5,-353.5 535.5,-312.5 389.5,-312.5"/>
<text text-anchor="start" x="397.5" y="-341.5" font-family="Helvetica,sans-Serif" font-size="10.00">/home/krzysztof/PO</text>
<text text-anchor="start" x="397.5" y="-330.5" font-family="Helvetica,sans-Serif" font-size="10.00">/zad5_2&#45;kgliwinski/include</text>
<text text-anchor="middle" x="462.5" y="-319.5" font-family="Helvetica,sans-Serif" font-size="10.00">/prism.hpp</text>
</a>
</g>
</g>
<!-- Node3&#45;&gt;Node4 -->
<g id="edge3" class="edge">
<title>Node3&#45;&gt;Node4</title>
<path fill="none" stroke="midnightblue" d="M788.14,-394.51C713.98,-380.73 606.58,-360.77 535.68,-347.6"/>
<polygon fill="midnightblue" stroke="midnightblue" points="787.91,-398.03 798.38,-396.41 789.19,-391.14 787.91,-398.03"/>
</g>
<!-- Node18 -->
<g id="node18" class="node">
<title>Node18</title>
<g id="a_node18"><a xlink:href="cuboid_8hpp.html" target="_top" xlink:title="Plik zawiera definicję klasy reprezentujacej prostopadloscian w przestrzeni trojwymiarowej.">
<polygon fill="none" stroke="black" points="930.5,-312.5 930.5,-353.5 1076.5,-353.5 1076.5,-312.5 930.5,-312.5"/>
<text text-anchor="start" x="938.5" y="-341.5" font-family="Helvetica,sans-Serif" font-size="10.00">/home/krzysztof/PO</text>
<text text-anchor="start" x="938.5" y="-330.5" font-family="Helvetica,sans-Serif" font-size="10.00">/zad5_2&#45;kgliwinski/include</text>
<text text-anchor="middle" x="1003.5" y="-319.5" font-family="Helvetica,sans-Serif" font-size="10.00">/cuboid.hpp</text>
</a>
</g>
</g>
<!-- Node3&#45;&gt;Node18 -->
<g id="edge20" class="edge">
<title>Node3&#45;&gt;Node18</title>
<path fill="none" stroke="midnightblue" d="M914.57,-385.2C932.43,-374.92 952.86,-363.16 969.62,-353.51"/>
<polygon fill="midnightblue" stroke="midnightblue" points="912.41,-382.41 905.49,-390.43 915.91,-388.47 912.41,-382.41"/>
</g>
<!-- Node24 -->
<g id="node24" class="node">
<title>Node24</title>
<g id="a_node24"><a xlink:href="plane_8hpp.html" target="_top" xlink:title="Plik zawiera definicję klasy reprezentujacej plaska powierzchnie, obslugujacej zapis do plikow.">
<polygon fill="none" stroke="black" points="716.5,-312.5 716.5,-353.5 862.5,-353.5 862.5,-312.5 716.5,-312.5"/>
<text text-anchor="start" x="724.5" y="-341.5" font-family="Helvetica,sans-Serif" font-size="10.00">/home/krzysztof/PO</text>
<text text-anchor="start" x="724.5" y="-330.5" font-family="Helvetica,sans-Serif" font-size="10.00">/zad5_2&#45;kgliwinski/include</text>
<text text-anchor="middle" x="789.5" y="-319.5" font-family="Helvetica,sans-Serif" font-size="10.00">/plane.hpp</text>
</a>
</g>
</g>
<!-- Node3&#45;&gt;Node24 -->
<g id="edge29" class="edge">
<title>Node3&#45;&gt;Node24</title>
<path fill="none" stroke="midnightblue" d="M842.9,-383.49C832.26,-373.63 820.39,-362.63 810.55,-353.51"/>
<polygon fill="midnightblue" stroke="midnightblue" points="840.67,-386.2 850.38,-390.43 845.43,-381.06 840.67,-386.2"/>
</g>
<!-- Node26 -->
<g id="node26" class="node">
<title>Node26</title>
<g id="a_node26"><a xlink:href="block_8cpp.html" target="_top" xlink:title=" ">
<polygon fill="none" stroke="black" points="1095,-312.5 1095,-353.5 1220,-353.5 1220,-312.5 1095,-312.5"/>
<text text-anchor="start" x="1103" y="-341.5" font-family="Helvetica,sans-Serif" font-size="10.00">/home/krzysztof/PO</text>
<text text-anchor="start" x="1103" y="-330.5" font-family="Helvetica,sans-Serif" font-size="10.00">/zad5_2&#45;kgliwinski/src</text>
<text text-anchor="middle" x="1157.5" y="-319.5" font-family="Helvetica,sans-Serif" font-size="10.00">/block.cpp</text>
</a>
</g>
</g>
<!-- Node3&#45;&gt;Node26 -->
<g id="edge32" class="edge">
<title>Node3&#45;&gt;Node26</title>
<path fill="none" stroke="midnightblue" d="M954.75,-388.52C994.39,-378.22 1042.43,-365.62 1085.5,-354 1088.51,-353.19 1091.58,-352.35 1094.69,-351.51"/>
<polygon fill="midnightblue" stroke="midnightblue" points="953.66,-385.19 944.86,-391.09 955.42,-391.97 953.66,-385.19"/>
</g>
<!-- Node5 -->
<g id="node5" class="node">
<title>Node5</title>
<g id="a_node5"><a xlink:href="circus_8hpp.html" target="_top" xlink:title="Plik zawiera definicję klasy reprezentujacej Prism z podwyzszonym centrum, na ksztalt przypomina cyrk...">
<polygon fill="none" stroke="black" points="471.5,-234.5 471.5,-275.5 617.5,-275.5 617.5,-234.5 471.5,-234.5"/>
<text text-anchor="start" x="479.5" y="-263.5" font-family="Helvetica,sans-Serif" font-size="10.00">/home/krzysztof/PO</text>
<text text-anchor="start" x="479.5" y="-252.5" font-family="Helvetica,sans-Serif" font-size="10.00">/zad5_2&#45;kgliwinski/include</text>
<text text-anchor="middle" x="544.5" y="-241.5" font-family="Helvetica,sans-Serif" font-size="10.00">/circus.hpp</text>
</a>
</g>
</g>
<!-- Node4&#45;&gt;Node5 -->
<g id="edge4" class="edge">
<title>Node4&#45;&gt;Node5</title>
<path fill="none" stroke="midnightblue" d="M491.1,-305.49C501.74,-295.63 513.61,-284.63 523.45,-275.51"/>
<polygon fill="midnightblue" stroke="midnightblue" points="488.57,-303.06 483.62,-312.43 493.33,-308.2 488.57,-303.06"/>
</g>
<!-- Node11 -->
<g id="node11" class="node">
<title>Node11</title>
<g id="a_node11"><a xlink:href="drone_8hpp.html" target="_top" xlink:title="Plik zawiera definicję klasy reprezentujacej drona, budowanie i przemieszczanie go.">
<polygon fill="none" stroke="black" points="817.5,-234.5 817.5,-275.5 963.5,-275.5 963.5,-234.5 817.5,-234.5"/>
<text text-anchor="start" x="825.5" y="-263.5" font-family="Helvetica,sans-Serif" font-size="10.00">/home/krzysztof/PO</text>
<text text-anchor="start" x="825.5" y="-252.5" font-family="Helvetica,sans-Serif" font-size="10.00">/zad5_2&#45;kgliwinski/include</text>
<text text-anchor="middle" x="890.5" y="-241.5" font-family="Helvetica,sans-Serif" font-size="10.00">/drone.hpp</text>
</a>
</g>
</g>
<!-- Node4&#45;&gt;Node11 -->
<g id="edge10" class="edge">
<title>Node4&#45;&gt;Node11</title>
<path fill="none" stroke="midnightblue" d="M545.49,-317.26C624.39,-303.25 741.89,-282.39 817.35,-268.99"/>
<polygon fill="midnightblue" stroke="midnightblue" points="544.82,-313.83 535.59,-319.02 546.05,-320.72 544.82,-313.83"/>
</g>
<!-- Node13 -->
<g id="node13" class="node">
<title>Node13</title>
<g id="a_node13"><a xlink:href="tent_8hpp.html" target="_top" xlink:title="Plik zawiera definicję klasy reprezentujacej Prism bez gornej podstawy, =Ksztaltem przypomina namiot.">
<polygon fill="none" stroke="black" points="143.5,-234.5 143.5,-275.5 289.5,-275.5 289.5,-234.5 143.5,-234.5"/>
<text text-anchor="start" x="151.5" y="-263.5" font-family="Helvetica,sans-Serif" font-size="10.00">/home/krzysztof/PO</text>
<text text-anchor="start" x="151.5" y="-252.5" font-family="Helvetica,sans-Serif" font-size="10.00">/zad5_2&#45;kgliwinski/include</text>
<text text-anchor="middle" x="216.5" y="-241.5" font-family="Helvetica,sans-Serif" font-size="10.00">/tent.hpp</text>
</a>
</g>
</g>
<!-- Node4&#45;&gt;Node13 -->
<g id="edge13" class="edge">
<title>Node4&#45;&gt;Node13</title>
<path fill="none" stroke="midnightblue" d="M389.48,-309.44C354.57,-298.66 313.18,-285.87 279.64,-275.51"/>
<polygon fill="midnightblue" stroke="midnightblue" points="388.56,-312.82 399.15,-312.43 390.63,-306.13 388.56,-312.82"/>
</g>
<!-- Node15 -->
<g id="node15" class="node">
<title>Node15</title>
<g id="a_node15"><a xlink:href="volcano_8hpp.html" target="_top" xlink:title="Plik zawiera definicję klasy reprezentujacej wulkan, jest deformacja obiektu Prism.">
<polygon fill="none" stroke="black" points="307.5,-234.5 307.5,-275.5 453.5,-275.5 453.5,-234.5 307.5,-234.5"/>
<text text-anchor="start" x="315.5" y="-263.5" font-family="Helvetica,sans-Serif" font-size="10.00">/home/krzysztof/PO</text>
<text text-anchor="start" x="315.5" y="-252.5" font-family="Helvetica,sans-Serif" font-size="10.00">/zad5_2&#45;kgliwinski/include</text>
<text text-anchor="middle" x="380.5" y="-241.5" font-family="Helvetica,sans-Serif" font-size="10.00">/volcano.hpp</text>
</a>
</g>
</g>
<!-- Node4&#45;&gt;Node15 -->
<g id="edge16" class="edge">
<title>Node4&#45;&gt;Node15</title>
<path fill="none" stroke="midnightblue" d="M433.9,-305.49C423.26,-295.63 411.39,-284.63 401.55,-275.51"/>
<polygon fill="midnightblue" stroke="midnightblue" points="431.67,-308.2 441.38,-312.43 436.43,-303.06 431.67,-308.2"/>
</g>
<!-- Node17 -->
<g id="node17" class="node">
<title>Node17</title>
<g id="a_node17"><a xlink:href="prism_8cpp.html" target="_top" xlink:title=" ">
<polygon fill="none" stroke="black" points="0,-234.5 0,-275.5 125,-275.5 125,-234.5 0,-234.5"/>
<text text-anchor="start" x="8" y="-263.5" font-family="Helvetica,sans-Serif" font-size="10.00">/home/krzysztof/PO</text>
<text text-anchor="start" x="8" y="-252.5" font-family="Helvetica,sans-Serif" font-size="10.00">/zad5_2&#45;kgliwinski/src</text>
<text text-anchor="middle" x="62.5" y="-241.5" font-family="Helvetica,sans-Serif" font-size="10.00">/prism.cpp</text>
</a>
</g>
</g>
<!-- Node4&#45;&gt;Node17 -->
<g id="edge19" class="edge">
<title>Node4&#45;&gt;Node17</title>
<path fill="none" stroke="midnightblue" d="M379.44,-320.21C312.85,-310.19 217.21,-294.5 134.5,-276 131.46,-275.32 128.36,-274.59 125.23,-273.83"/>
<polygon fill="midnightblue" stroke="midnightblue" points="379.05,-323.69 389.45,-321.71 380.08,-316.77 379.05,-323.69"/>
</g>
<!-- Node6 -->
<g id="node6" class="node">
<title>Node6</title>
<g id="a_node6"><a xlink:href="scene_8hpp.html" target="_top" xlink:title="Plik zawiera definicję klasy reprezentujacej scene, obslugujacej zapis do plikow i wytswietlanie w gn...">
<polygon fill="none" stroke="black" points="673.5,-156.5 673.5,-197.5 819.5,-197.5 819.5,-156.5 673.5,-156.5"/>
<text text-anchor="start" x="681.5" y="-185.5" font-family="Helvetica,sans-Serif" font-size="10.00">/home/krzysztof/PO</text>
<text text-anchor="start" x="681.5" y="-174.5" font-family="Helvetica,sans-Serif" font-size="10.00">/zad5_2&#45;kgliwinski/include</text>
<text text-anchor="middle" x="746.5" y="-163.5" font-family="Helvetica,sans-Serif" font-size="10.00">/scene.hpp</text>
</a>
</g>
</g>
<!-- Node5&#45;&gt;Node6 -->
<g id="edge5" class="edge">
<title>Node5&#45;&gt;Node6</title>
<path fill="none" stroke="midnightblue" d="M605.93,-230.89C634.29,-220.22 667.59,-207.69 694.66,-197.51"/>
<polygon fill="midnightblue" stroke="midnightblue" points="604.65,-227.63 596.52,-234.43 607.11,-234.18 604.65,-227.63"/>
</g>
<!-- Node10 -->
<g id="node10" class="node">
<title>Node10</title>
<g id="a_node10"><a xlink:href="circus_8cpp.html" target="_top" xlink:title=" ">
<polygon fill="none" stroke="black" points="482,-156.5 482,-197.5 607,-197.5 607,-156.5 482,-156.5"/>
<text text-anchor="start" x="490" y="-185.5" font-family="Helvetica,sans-Serif" font-size="10.00">/home/krzysztof/PO</text>
<text text-anchor="start" x="490" y="-174.5" font-family="Helvetica,sans-Serif" font-size="10.00">/zad5_2&#45;kgliwinski/src</text>
<text text-anchor="middle" x="544.5" y="-163.5" font-family="Helvetica,sans-Serif" font-size="10.00">/circus.cpp</text>
</a>
</g>
</g>
<!-- Node5&#45;&gt;Node10 -->
<g id="edge9" class="edge">
<title>Node5&#45;&gt;Node10</title>
<path fill="none" stroke="midnightblue" d="M544.5,-224.3C544.5,-215.3 544.5,-205.65 544.5,-197.51"/>
<polygon fill="midnightblue" stroke="midnightblue" points="541,-224.43 544.5,-234.43 548,-224.43 541,-224.43"/>
</g>
<!-- Node7 -->
<g id="node7" class="node">
<title>Node7</title>
<g id="a_node7"><a xlink:href="menu_8hpp.html" target="_top" xlink:title="Plik zawiera definicję klasy reprezentujacej menu, obslugujace menu programu.">
<polygon fill="none" stroke="black" points="596.5,-78.5 596.5,-119.5 742.5,-119.5 742.5,-78.5 596.5,-78.5"/>
<text text-anchor="start" x="604.5" y="-107.5" font-family="Helvetica,sans-Serif" font-size="10.00">/home/krzysztof/PO</text>
<text text-anchor="start" x="604.5" y="-96.5" font-family="Helvetica,sans-Serif" font-size="10.00">/zad5_2&#45;kgliwinski/include</text>
<text text-anchor="middle" x="669.5" y="-85.5" font-family="Helvetica,sans-Serif" font-size="10.00">/menu.hpp</text>
</a>
</g>
</g>
<!-- Node6&#45;&gt;Node7 -->
<g id="edge6" class="edge">
<title>Node6&#45;&gt;Node7</title>
<path fill="none" stroke="midnightblue" d="M719.35,-149.2C709.43,-139.42 698.41,-128.54 689.26,-119.51"/>
<polygon fill="midnightblue" stroke="midnightblue" points="717.09,-151.89 726.67,-156.43 722.01,-146.91 717.09,-151.89"/>
</g>
<!-- Node9 -->
<g id="node9" class="node">
<title>Node9</title>
<g id="a_node9"><a xlink:href="scene_8cpp.html" target="_top" xlink:title=" ">
<polygon fill="none" stroke="black" points="761,-78.5 761,-119.5 886,-119.5 886,-78.5 761,-78.5"/>
<text text-anchor="start" x="769" y="-107.5" font-family="Helvetica,sans-Serif" font-size="10.00">/home/krzysztof/PO</text>
<text text-anchor="start" x="769" y="-96.5" font-family="Helvetica,sans-Serif" font-size="10.00">/zad5_2&#45;kgliwinski/src</text>
<text text-anchor="middle" x="823.5" y="-85.5" font-family="Helvetica,sans-Serif" font-size="10.00">/scene.cpp</text>
</a>
</g>
</g>
<!-- Node6&#45;&gt;Node9 -->
<g id="edge8" class="edge">
<title>Node6&#45;&gt;Node9</title>
<path fill="none" stroke="midnightblue" d="M773.65,-149.2C783.57,-139.42 794.59,-128.54 803.74,-119.51"/>
<polygon fill="midnightblue" stroke="midnightblue" points="770.99,-146.91 766.33,-156.43 775.91,-151.89 770.99,-146.91"/>
</g>
<!-- Node8 -->
<g id="node8" class="node">
<title>Node8</title>
<g id="a_node8"><a xlink:href="menu_8cpp.html" target="_top" xlink:title=" ">
<polygon fill="none" stroke="black" points="607,-0.5 607,-41.5 732,-41.5 732,-0.5 607,-0.5"/>
<text text-anchor="start" x="615" y="-29.5" font-family="Helvetica,sans-Serif" font-size="10.00">/home/krzysztof/PO</text>
<text text-anchor="start" x="615" y="-18.5" font-family="Helvetica,sans-Serif" font-size="10.00">/zad5_2&#45;kgliwinski/src</text>
<text text-anchor="middle" x="669.5" y="-7.5" font-family="Helvetica,sans-Serif" font-size="10.00">/menu.cpp</text>
</a>
</g>
</g>
<!-- Node7&#45;&gt;Node8 -->
<g id="edge7" class="edge">
<title>Node7&#45;&gt;Node8</title>
<path fill="none" stroke="midnightblue" d="M669.5,-68.3C669.5,-59.3 669.5,-49.65 669.5,-41.51"/>
<polygon fill="midnightblue" stroke="midnightblue" points="666,-68.43 669.5,-78.43 673,-68.43 666,-68.43"/>
</g>
<!-- Node11&#45;&gt;Node6 -->
<g id="edge11" class="edge">
<title>Node11&#45;&gt;Node6</title>
<path fill="none" stroke="midnightblue" d="M844.32,-229.63C824.64,-219.24 802,-207.29 783.46,-197.51"/>
<polygon fill="midnightblue" stroke="midnightblue" points="842.94,-232.86 853.42,-234.43 846.21,-226.67 842.94,-232.86"/>
</g>
<!-- Node12 -->
<g id="node12" class="node">
<title>Node12</title>
<g id="a_node12"><a xlink:href="drone_8cpp.html" target="_top" xlink:title=" ">
<polygon fill="none" stroke="black" points="838,-156.5 838,-197.5 963,-197.5 963,-156.5 838,-156.5"/>
<text text-anchor="start" x="846" y="-185.5" font-family="Helvetica,sans-Serif" font-size="10.00">/home/krzysztof/PO</text>
<text text-anchor="start" x="846" y="-174.5" font-family="Helvetica,sans-Serif" font-size="10.00">/zad5_2&#45;kgliwinski/src</text>
<text text-anchor="middle" x="900.5" y="-163.5" font-family="Helvetica,sans-Serif" font-size="10.00">/drone.cpp</text>
</a>
</g>
</g>
<!-- Node11&#45;&gt;Node12 -->
<g id="edge12" class="edge">
<title>Node11&#45;&gt;Node12</title>
<path fill="none" stroke="midnightblue" d="M894.41,-224.3C895.59,-215.3 896.86,-205.65 897.93,-197.51"/>
<polygon fill="midnightblue" stroke="midnightblue" points="890.91,-224.06 893.08,-234.43 897.85,-224.97 890.91,-224.06"/>
</g>
<!-- Node13&#45;&gt;Node6 -->
<g id="edge14" class="edge">
<title>Node13&#45;&gt;Node6</title>
<path fill="none" stroke="midnightblue" d="M299.97,-233.85C439.88,-209.49 478.24,-216.27 615.5,-198 634.31,-195.5 654.61,-192.53 673.47,-189.66"/>
<polygon fill="midnightblue" stroke="midnightblue" points="298.96,-230.47 289.72,-235.66 300.18,-237.37 298.96,-230.47"/>
</g>
<!-- Node14 -->
<g id="node14" class="node">
<title>Node14</title>
<g id="a_node14"><a xlink:href="tent_8cpp.html" target="_top" xlink:title=" ">
<polygon fill="none" stroke="black" points="154,-156.5 154,-197.5 279,-197.5 279,-156.5 154,-156.5"/>
<text text-anchor="start" x="162" y="-185.5" font-family="Helvetica,sans-Serif" font-size="10.00">/home/krzysztof/PO</text>
<text text-anchor="start" x="162" y="-174.5" font-family="Helvetica,sans-Serif" font-size="10.00">/zad5_2&#45;kgliwinski/src</text>
<text text-anchor="middle" x="216.5" y="-163.5" font-family="Helvetica,sans-Serif" font-size="10.00">/tent.cpp</text>
</a>
</g>
</g>
<!-- Node13&#45;&gt;Node14 -->
<g id="edge15" class="edge">
<title>Node13&#45;&gt;Node14</title>
<path fill="none" stroke="midnightblue" d="M216.5,-224.3C216.5,-215.3 216.5,-205.65 216.5,-197.51"/>
<polygon fill="midnightblue" stroke="midnightblue" points="213,-224.43 216.5,-234.43 220,-224.43 213,-224.43"/>
</g>
<!-- Node15&#45;&gt;Node6 -->
<g id="edge17" class="edge">
<title>Node15&#45;&gt;Node6</title>
<path fill="none" stroke="midnightblue" d="M463.65,-233.79C540.59,-216.96 618.24,-201.88 673.35,-191.5"/>
<polygon fill="midnightblue" stroke="midnightblue" points="462.8,-230.39 453.78,-235.96 464.3,-237.23 462.8,-230.39"/>
</g>
<!-- Node16 -->
<g id="node16" class="node">
<title>Node16</title>
<g id="a_node16"><a xlink:href="volcano_8cpp.html" target="_top" xlink:title=" ">
<polygon fill="none" stroke="black" points="318,-156.5 318,-197.5 443,-197.5 443,-156.5 318,-156.5"/>
<text text-anchor="start" x="326" y="-185.5" font-family="Helvetica,sans-Serif" font-size="10.00">/home/krzysztof/PO</text>
<text text-anchor="start" x="326" y="-174.5" font-family="Helvetica,sans-Serif" font-size="10.00">/zad5_2&#45;kgliwinski/src</text>
<text text-anchor="middle" x="380.5" y="-163.5" font-family="Helvetica,sans-Serif" font-size="10.00">/volcano.cpp</text>
</a>
</g>
</g>
<!-- Node15&#45;&gt;Node16 -->
<g id="edge18" class="edge">
<title>Node15&#45;&gt;Node16</title>
<path fill="none" stroke="midnightblue" d="M380.5,-224.3C380.5,-215.3 380.5,-205.65 380.5,-197.51"/>
<polygon fill="midnightblue" stroke="midnightblue" points="377,-224.43 380.5,-234.43 384,-224.43 377,-224.43"/>
</g>
<!-- Node18&#45;&gt;Node11 -->
<g id="edge21" class="edge">
<title>Node18&#45;&gt;Node11</title>
<path fill="none" stroke="midnightblue" d="M965.79,-306.64C950.7,-296.49 933.59,-284.98 919.5,-275.51"/>
<polygon fill="midnightblue" stroke="midnightblue" points="964.15,-309.75 974.4,-312.43 968.06,-303.94 964.15,-309.75"/>
</g>
<!-- Node19 -->
<g id="node19" class="node">
<title>Node19</title>
<g id="a_node19"><a xlink:href="pyramid_8hpp.html" target="_top" xlink:title="Plik zawiera definicję klasy reprezentujacej ostroslup o prostokatnej podstawie w przestrzeni trojwym...">
<polygon fill="none" stroke="black" points="981.5,-234.5 981.5,-275.5 1127.5,-275.5 1127.5,-234.5 981.5,-234.5"/>
<text text-anchor="start" x="989.5" y="-263.5" font-family="Helvetica,sans-Serif" font-size="10.00">/home/krzysztof/PO</text>
<text text-anchor="start" x="989.5" y="-252.5" font-family="Helvetica,sans-Serif" font-size="10.00">/zad5_2&#45;kgliwinski/include</text>
<text text-anchor="middle" x="1054.5" y="-241.5" font-family="Helvetica,sans-Serif" font-size="10.00">/pyramid.hpp</text>
</a>
</g>
</g>
<!-- Node18&#45;&gt;Node19 -->
<g id="edge22" class="edge">
<title>Node18&#45;&gt;Node19</title>
<path fill="none" stroke="midnightblue" d="M1022.26,-304.05C1028.62,-294.57 1035.59,-284.18 1041.41,-275.51"/>
<polygon fill="midnightblue" stroke="midnightblue" points="1019.3,-302.17 1016.63,-312.43 1025.11,-306.07 1019.3,-302.17"/>
</g>
<!-- Node21 -->
<g id="node21" class="node">
<title>Node21</title>
<g id="a_node21"><a xlink:href="triangular_8hpp.html" target="_top" xlink:title=" ">
<polygon fill="none" stroke="black" points="1289.5,-234.5 1289.5,-275.5 1435.5,-275.5 1435.5,-234.5 1289.5,-234.5"/>
<text text-anchor="start" x="1297.5" y="-263.5" font-family="Helvetica,sans-Serif" font-size="10.00">/home/krzysztof/PO</text>
<text text-anchor="start" x="1297.5" y="-252.5" font-family="Helvetica,sans-Serif" font-size="10.00">/zad5_2&#45;kgliwinski/include</text>
<text text-anchor="middle" x="1362.5" y="-241.5" font-family="Helvetica,sans-Serif" font-size="10.00">/triangular.hpp</text>
</a>
</g>
</g>
<!-- Node18&#45;&gt;Node21 -->
<g id="edge25" class="edge">
<title>Node18&#45;&gt;Node21</title>
<path fill="none" stroke="midnightblue" d="M1086.74,-311.79C1172.95,-293.63 1196.83,-293.62 1279.5,-276 1282.69,-275.32 1285.94,-274.61 1289.23,-273.88"/>
<polygon fill="midnightblue" stroke="midnightblue" points="1085.82,-308.41 1076.77,-313.91 1087.28,-315.26 1085.82,-308.41"/>
</g>
<!-- Node23 -->
<g id="node23" class="node">
<title>Node23</title>
<g id="a_node23"><a xlink:href="cuboid_8cpp.html" target="_top" xlink:title=" ">
<polygon fill="none" stroke="black" points="1146,-234.5 1146,-275.5 1271,-275.5 1271,-234.5 1146,-234.5"/>
<text text-anchor="start" x="1154" y="-263.5" font-family="Helvetica,sans-Serif" font-size="10.00">/home/krzysztof/PO</text>
<text text-anchor="start" x="1154" y="-252.5" font-family="Helvetica,sans-Serif" font-size="10.00">/zad5_2&#45;kgliwinski/src</text>
<text text-anchor="middle" x="1208.5" y="-241.5" font-family="Helvetica,sans-Serif" font-size="10.00">/cuboid.cpp</text>
</a>
</g>
</g>
<!-- Node18&#45;&gt;Node23 -->
<g id="edge28" class="edge">
<title>Node18&#45;&gt;Node23</title>
<path fill="none" stroke="midnightblue" d="M1065.84,-308.89C1094.62,-298.22 1128.41,-285.69 1155.89,-275.51"/>
<polygon fill="midnightblue" stroke="midnightblue" points="1064.45,-305.67 1056.29,-312.43 1066.89,-312.23 1064.45,-305.67"/>
</g>
<!-- Node19&#45;&gt;Node6 -->
<g id="edge23" class="edge">
<title>Node19&#45;&gt;Node6</title>
<path fill="none" stroke="midnightblue" d="M971.2,-233.44C923.85,-221.76 865.13,-207.27 819.59,-196.03"/>
<polygon fill="midnightblue" stroke="midnightblue" points="970.57,-236.89 981.12,-235.89 972.25,-230.1 970.57,-236.89"/>
</g>
<!-- Node20 -->
<g id="node20" class="node">
<title>Node20</title>
<g id="a_node20"><a xlink:href="pyramid_8cpp.html" target="_top" xlink:title=" ">
<polygon fill="none" stroke="black" points="992,-156.5 992,-197.5 1117,-197.5 1117,-156.5 992,-156.5"/>
<text text-anchor="start" x="1000" y="-185.5" font-family="Helvetica,sans-Serif" font-size="10.00">/home/krzysztof/PO</text>
<text text-anchor="start" x="1000" y="-174.5" font-family="Helvetica,sans-Serif" font-size="10.00">/zad5_2&#45;kgliwinski/src</text>
<text text-anchor="middle" x="1054.5" y="-163.5" font-family="Helvetica,sans-Serif" font-size="10.00">/pyramid.cpp</text>
</a>
</g>
</g>
<!-- Node19&#45;&gt;Node20 -->
<g id="edge24" class="edge">
<title>Node19&#45;&gt;Node20</title>
<path fill="none" stroke="midnightblue" d="M1054.5,-224.3C1054.5,-215.3 1054.5,-205.65 1054.5,-197.51"/>
<polygon fill="midnightblue" stroke="midnightblue" points="1051,-224.43 1054.5,-234.43 1058,-224.43 1051,-224.43"/>
</g>
<!-- Node21&#45;&gt;Node6 -->
<g id="edge26" class="edge">
<title>Node21&#45;&gt;Node6</title>
<path fill="none" stroke="midnightblue" d="M1279.35,-234.14C1079.15,-203.22 1023.83,-229.41 828.5,-198 825.61,-197.53 822.66,-197.02 819.7,-196.47"/>
<polygon fill="midnightblue" stroke="midnightblue" points="1278.88,-237.61 1289.31,-235.7 1279.97,-230.69 1278.88,-237.61"/>
</g>
<!-- Node22 -->
<g id="node22" class="node">
<title>Node22</title>
<g id="a_node22"><a xlink:href="triangular_8cpp.html" target="_top" xlink:title=" ">
<polygon fill="none" stroke="black" points="1300,-156.5 1300,-197.5 1425,-197.5 1425,-156.5 1300,-156.5"/>
<text text-anchor="start" x="1308" y="-185.5" font-family="Helvetica,sans-Serif" font-size="10.00">/home/krzysztof/PO</text>
<text text-anchor="start" x="1308" y="-174.5" font-family="Helvetica,sans-Serif" font-size="10.00">/zad5_2&#45;kgliwinski/src</text>
<text text-anchor="middle" x="1362.5" y="-163.5" font-family="Helvetica,sans-Serif" font-size="10.00">/triangular.cpp</text>
</a>
</g>
</g>
<!-- Node21&#45;&gt;Node22 -->
<g id="edge27" class="edge">
<title>Node21&#45;&gt;Node22</title>
<path fill="none" stroke="midnightblue" d="M1362.5,-224.3C1362.5,-215.3 1362.5,-205.65 1362.5,-197.51"/>
<polygon fill="midnightblue" stroke="midnightblue" points="1359,-224.43 1362.5,-234.43 1366,-224.43 1359,-224.43"/>
</g>
<!-- Node24&#45;&gt;Node6 -->
<g id="edge30" class="edge">
<title>Node24&#45;&gt;Node6</title>
<path fill="none" stroke="midnightblue" d="M784.94,-302.32C781.56,-282.69 776.36,-256.53 769.5,-234 765.74,-221.63 760.28,-208.22 755.62,-197.63"/>
<polygon fill="midnightblue" stroke="midnightblue" points="781.49,-302.91 786.59,-312.21 788.4,-301.77 781.49,-302.91"/>
</g>
<!-- Node25 -->
<g id="node25" class="node">
<title>Node25</title>
<g id="a_node25"><a xlink:href="plane_8cpp.html" target="_top" xlink:title=" ">
<polygon fill="none" stroke="black" points="636,-234.5 636,-275.5 761,-275.5 761,-234.5 636,-234.5"/>
<text text-anchor="start" x="644" y="-263.5" font-family="Helvetica,sans-Serif" font-size="10.00">/home/krzysztof/PO</text>
<text text-anchor="start" x="644" y="-252.5" font-family="Helvetica,sans-Serif" font-size="10.00">/zad5_2&#45;kgliwinski/src</text>
<text text-anchor="middle" x="698.5" y="-241.5" font-family="Helvetica,sans-Serif" font-size="10.00">/plane.cpp</text>
</a>
</g>
</g>
<!-- Node24&#45;&gt;Node25 -->
<g id="edge31" class="edge">
<title>Node24&#45;&gt;Node25</title>
<path fill="none" stroke="midnightblue" d="M758.1,-305.78C746.21,-295.84 732.88,-284.72 721.86,-275.51"/>
<polygon fill="midnightblue" stroke="midnightblue" points="756.15,-308.7 766.07,-312.43 760.63,-303.33 756.15,-308.7"/>
</g>
<!-- Node27&#45;&gt;Node2 -->
<g id="edge34" class="edge">
<title>Node27&#45;&gt;Node2</title>
<path fill="none" stroke="midnightblue" d="M1032.1,-441.63C1032.42,-450.62 1032.22,-460.27 1031.49,-468.43"/>
<polygon fill="midnightblue" stroke="midnightblue" points="1035.59,-441.27 1031.48,-431.51 1028.6,-441.7 1035.59,-441.27"/>
</g>
<!-- Node29 -->
<g id="node29" class="node">
<title>Node29</title>
<g id="a_node29"><a xlink:href="matrix2_d_8cpp.html" target="_top" xlink:title=" ">
<polygon fill="none" stroke="black" points="1116,-390.5 1116,-431.5 1241,-431.5 1241,-390.5 1116,-390.5"/>
<text text-anchor="start" x="1124" y="-419.5" font-family="Helvetica,sans-Serif" font-size="10.00">/home/krzysztof/PO</text>
<text text-anchor="start" x="1124" y="-408.5" font-family="Helvetica,sans-Serif" font-size="10.00">/zad5_2&#45;kgliwinski/src</text>
<text text-anchor="middle" x="1178.5" y="-397.5" font-family="Helvetica,sans-Serif" font-size="10.00">/matrix2D.cpp</text>
</a>
</g>
</g>
<!-- Node28&#45;&gt;Node29 -->
<g id="edge36" class="edge">
<title>Node28&#45;&gt;Node29</title>
<path fill="none" stroke="midnightblue" d="M1178.65,-458.59C1177,-449.51 1175.79,-439.74 1175.34,-431.51"/>
<polygon fill="midnightblue" stroke="midnightblue" points="1175.23,-459.34 1180.68,-468.43 1182.09,-457.93 1175.23,-459.34"/>
</g>
<!-- Node30 -->
<g id="node30" class="node">
<title>Node30</title>
<g id="a_node30"><a xlink:href="vector2_d_8hpp.html" target="_top" xlink:title="Zawiera deklaracje klasy Vector2D.">
<polygon fill="none" stroke="black" points="1259.5,-390.5 1259.5,-431.5 1405.5,-431.5 1405.5,-390.5 1259.5,-390.5"/>
<text text-anchor="start" x="1267.5" y="-419.5" font-family="Helvetica,sans-Serif" font-size="10.00">/home/krzysztof/PO</text>
<text text-anchor="start" x="1267.5" y="-408.5" font-family="Helvetica,sans-Serif" font-size="10.00">/zad5_2&#45;kgliwinski/include</text>
<text text-anchor="middle" x="1332.5" y="-397.5" font-family="Helvetica,sans-Serif" font-size="10.00">/vector2D.hpp</text>
</a>
</g>
</g>
<!-- Node28&#45;&gt;Node30 -->
<g id="edge38" class="edge">
<title>Node28&#45;&gt;Node30</title>
<path fill="none" stroke="midnightblue" d="M1235.36,-463.63C1254.9,-453.24 1277.39,-441.29 1295.8,-431.51"/>
<polygon fill="midnightblue" stroke="midnightblue" points="1233.51,-460.64 1226.33,-468.43 1236.8,-466.83 1233.51,-460.64"/>
</g>
<!-- Node29&#45;&gt;Node28 -->
<g id="edge37" class="edge">
<title>Node29&#45;&gt;Node28</title>
<path fill="none" stroke="midnightblue" d="M1189.34,-441.34C1190.99,-450.41 1192.2,-460.18 1192.66,-468.43"/>
<polygon fill="midnightblue" stroke="midnightblue" points="1192.76,-440.59 1187.31,-431.51 1185.9,-442.01 1192.76,-440.59"/>
</g>
<!-- Node32 -->
<g id="node32" class="node">
<title>Node32</title>
<g id="a_node32"><a xlink:href="matrix4_d_8cpp.html" target="_top" xlink:title=" ">
<polygon fill="none" stroke="black" points="1424,-390.5 1424,-431.5 1549,-431.5 1549,-390.5 1424,-390.5"/>
<text text-anchor="start" x="1432" y="-419.5" font-family="Helvetica,sans-Serif" font-size="10.00">/home/krzysztof/PO</text>
<text text-anchor="start" x="1432" y="-408.5" font-family="Helvetica,sans-Serif" font-size="10.00">/zad5_2&#45;kgliwinski/src</text>
<text text-anchor="middle" x="1486.5" y="-397.5" font-family="Helvetica,sans-Serif" font-size="10.00">/matrix4D.cpp</text>
</a>
</g>
</g>
<!-- Node31&#45;&gt;Node32 -->
<g id="edge40" class="edge">
<title>Node31&#45;&gt;Node32</title>
<path fill="none" stroke="midnightblue" d="M1479.9,-458.3C1479.58,-449.3 1479.78,-439.65 1480.52,-431.51"/>
<polygon fill="midnightblue" stroke="midnightblue" points="1476.41,-458.66 1480.51,-468.43 1483.4,-458.23 1476.41,-458.66"/>
</g>
<!-- Node32&#45;&gt;Node31 -->
<g id="edge41" class="edge">
<title>Node32&#45;&gt;Node31</title>
<path fill="none" stroke="midnightblue" d="M1493.1,-441.63C1493.42,-450.62 1493.22,-460.27 1492.49,-468.43"/>
<polygon fill="midnightblue" stroke="midnightblue" points="1496.59,-441.27 1492.48,-431.51 1489.6,-441.7 1496.59,-441.27"/>
</g>
</g>
</svg>
