<?xml version="1.0" encoding="UTF-8" standalone="no"?>
<!DOCTYPE svg PUBLIC "-//W3C//DTD SVG 1.1//EN"
 "http://www.w3.org/Graphics/SVG/1.1/DTD/svg11.dtd">
<!-- Generated by graphviz version 2.43.0 (0)
 -->
<!-- Title: /home/krzysztof/PO/zad5_2&#45;kgliwinski/src/matrix4D.cpp Pages: 1 -->
<svg width="154pt" height="128pt"
 viewBox="0.00 0.00 154.00 128.00" xmlns="http://www.w3.org/2000/svg" xmlns:xlink="http://www.w3.org/1999/xlink">
<g id="graph0" class="graph" transform="scale(1 1) rotate(0) translate(4 124)">
<title>/home/krzysztof/PO/zad5_2&#45;kgliwinski/src/matrix4D.cpp</title>
<!-- Node1 -->
<g id="node1" class="node">
<title>Node1</title>
<g id="a_node1"><a xlink:title=" ">
<polygon fill="#bfbfbf" stroke="black" points="10.5,-78.5 10.5,-119.5 135.5,-119.5 135.5,-78.5 10.5,-78.5"/>
<text text-anchor="start" x="18.5" y="-107.5" font-family="Helvetica,sans-Serif" font-size="10.00">/home/krzysztof/PO</text>
<text text-anchor="start" x="18.5" y="-96.5" font-family="Helvetica,sans-Serif" font-size="10.00">/zad5_2&#45;kgliwinski/src</text>
<text text-anchor="middle" x="73" y="-85.5" font-family="Helvetica,sans-Serif" font-size="10.00">/matrix4D.cpp</text>
</a>
</g>
</g>
<!-- Node2 -->
<g id="node2" class="node">
<title>Node2</title>
<g id="a_node2"><a xlink:href="matrix4_d_8hpp.html" target="_top" xlink:title="Zawiera deklaracje klasy Matrix4D.">
<polygon fill="none" stroke="black" points="0,-0.5 0,-41.5 146,-41.5 146,-0.5 0,-0.5"/>
<text text-anchor="start" x="8" y="-29.5" font-family="Helvetica,sans-Serif" font-size="10.00">/home/krzysztof/PO</text>
<text text-anchor="start" x="8" y="-18.5" font-family="Helvetica,sans-Serif" font-size="10.00">/zad5_2&#45;kgliwinski/include</text>
<text text-anchor="middle" x="73" y="-7.5" font-family="Helvetica,sans-Serif" font-size="10.00">/matrix4D.hpp</text>
</a>
</g>
</g>
<!-- Node1&#45;&gt;Node2 -->
<g id="edge1" class="edge">
<title>Node1&#45;&gt;Node2</title>
<path fill="none" stroke="midnightblue" d="M66.4,-68.3C66.08,-59.3 66.28,-49.65 67.02,-41.51"/>
<polygon fill="midnightblue" stroke="midnightblue" points="62.91,-68.66 67.01,-78.43 69.9,-68.23 62.91,-68.66"/>
</g>
<!-- Node2&#45;&gt;Node1 -->
<g id="edge2" class="edge">
<title>Node2&#45;&gt;Node1</title>
<path fill="none" stroke="midnightblue" d="M79.6,-51.63C79.92,-60.62 79.72,-70.27 78.99,-78.43"/>
<polygon fill="midnightblue" stroke="midnightblue" points="83.09,-51.27 78.98,-41.51 76.1,-51.7 83.09,-51.27"/>
</g>
</g>
</svg>
