<?xml version="1.0" encoding="UTF-8" standalone="no"?>
<!DOCTYPE svg PUBLIC "-//W3C//DTD SVG 1.1//EN"
 "http://www.w3.org/Graphics/SVG/1.1/DTD/svg11.dtd">
<!-- Generated by graphviz version 2.43.0 (0)
 -->
<!-- Title: /home/krzysztof/PO/zad5_3&#45;kgliwinski/src/menu.cpp Pages: 1 -->
<!--zoomable 666 -->
<svg id="main" version="1.1" xmlns="http://www.w3.org/2000/svg" xmlns:xlink="http://www.w3.org/1999/xlink" xml:space="preserve" onload="init(evt)">
<style type="text/css"><![CDATA[
.edge:hover path { stroke: red; }
.edge:hover polygon { stroke: red; fill: red; }
]]></style>
<script type="text/javascript"><![CDATA[
var edges = document.getElementsByTagName('g');
if (edges && edges.length) {
  for (var i=0;i<edges.length;i++) {
    if (edges[i].id.substr(0,4)=='edge') {
      edges[i].setAttribute('class','edge');
    }
  }
}
]]></script>
        <defs>
                <circle id="rim" cx="0" cy="0" r="7"/>
                <circle id="rim2" cx="0" cy="0" r="3.5"/>
                <g id="zoomPlus">
                        <use xlink:href="#rim" fill="#404040">
                                <set attributeName="fill" to="#808080" begin="zoomplus.mouseover" end="zoomplus.mouseout"/>
                        </use>
                        <path d="M-4,0h8M0,-4v8" fill="none" stroke="white" stroke-width="1.5" pointer-events="none"/>
                </g>
                <g id="zoomMin">
                        <use xlink:href="#rim" fill="#404040">
                                <set attributeName="fill" to="#808080" begin="zoomminus.mouseover" end="zoomminus.mouseout"/>
                        </use>
                        <path d="M-4,0h8" fill="none" stroke="white" stroke-width="1.5" pointer-events="none"/>
                </g>
                <g id="dirArrow">
                        <path fill="none" stroke="white" stroke-width="1.5" d="M0,-3.0v7 M-2.5,-0.5L0,-3.0L2.5,-0.5"/>
                </g>
               <g id="resetDef">
                       <use xlink:href="#rim2" fill="#404040">
                               <set attributeName="fill" to="#808080" begin="reset.mouseover" end="reset.mouseout"/>
                       </use>
               </g>
        </defs>

<script type="text/javascript">
var viewWidth = 840;
var viewHeight = 666;
var sectionId = 'dynsection-0';
</script>
<script xlink:href="svgpan.js"/>
<svg id="graph" class="graph">
<g id="viewport">
<title>/home/krzysztof/PO/zad5_3&#45;kgliwinski/src/menu.cpp</title>
<!-- Node1 -->
<g id="node1" class="node">
<title>Node1</title>
<g id="a_node1"><a xlink:title=" ">
<polygon fill="#bfbfbf" stroke="black" points="373.08,-616.5 373.08,-657.5 498.08,-657.5 498.08,-616.5 373.08,-616.5"/>
<text text-anchor="start" x="381.08" y="-645.5" font-family="Helvetica,sans-Serif" font-size="10.00">/home/krzysztof/PO</text>
<text text-anchor="start" x="381.08" y="-634.5" font-family="Helvetica,sans-Serif" font-size="10.00">/zad5_3&#45;kgliwinski/src</text>
<text text-anchor="middle" x="435.58" y="-623.5" font-family="Helvetica,sans-Serif" font-size="10.00">/menu.cpp</text>
</a>
</g>
</g>
<!-- Node2 -->
<g id="node2" class="node">
<title>Node2</title>
<g id="a_node2"><a xlink:href="menu_8hpp.html" target="_top" xlink:title="Plik zawiera definicję klasy reprezentujacej menu, obslugujace menu programu.">
<polygon fill="none" stroke="black" points="379.08,-560.5 379.08,-579.5 492.08,-579.5 492.08,-560.5 379.08,-560.5"/>
<text text-anchor="middle" x="435.58" y="-567.5" font-family="Helvetica,sans-Serif" font-size="10.00">../include/menu.hpp</text>
</a>
</g>
</g>
<!-- Node1&#45;&gt;Node2 -->
<g id="edge1" class="edge">
<title>Node1&#45;&gt;Node2</title>
<path fill="none" stroke="midnightblue" d="M435.58,-616.5C435.58,-608.07 435.58,-598.24 435.58,-589.87"/>
<polygon fill="midnightblue" stroke="midnightblue" points="439.08,-589.65 435.58,-579.65 432.08,-589.65 439.08,-589.65"/>
</g>
<!-- Node3 -->
<g id="node3" class="node">
<title>Node3</title>
<g id="a_node3"><a xlink:href="scene_8hpp.html" target="_top" xlink:title="Plik zawiera definicję klasy reprezentujacej scene, obslugujacej zapis do plikow i wytswietlanie w gn...">
<polygon fill="none" stroke="black" points="402.58,-504.5 402.58,-523.5 468.58,-523.5 468.58,-504.5 402.58,-504.5"/>
<text text-anchor="middle" x="435.58" y="-511.5" font-family="Helvetica,sans-Serif" font-size="10.00">scene.hpp</text>
</a>
</g>
</g>
<!-- Node2&#45;&gt;Node3 -->
<g id="edge2" class="edge">
<title>Node2&#45;&gt;Node3</title>
<path fill="none" stroke="midnightblue" d="M435.58,-560.08C435.58,-553.01 435.58,-542.86 435.58,-533.99"/>
<polygon fill="midnightblue" stroke="midnightblue" points="439.08,-533.75 435.58,-523.75 432.08,-533.75 439.08,-533.75"/>
</g>
<!-- Node4 -->
<g id="node4" class="node">
<title>Node4</title>
<g id="a_node4"><a xlink:title=" ">
<polygon fill="none" stroke="#bfbfbf" points="505.58,-0.5 505.58,-19.5 565.58,-19.5 565.58,-0.5 505.58,-0.5"/>
<text text-anchor="middle" x="535.58" y="-7.5" font-family="Helvetica,sans-Serif" font-size="10.00">iostream</text>
</a>
</g>
</g>
<!-- Node3&#45;&gt;Node4 -->
<g id="edge3" class="edge">
<title>Node3&#45;&gt;Node4</title>
<path fill="none" stroke="midnightblue" d="M468.66,-512.35C546.27,-510.28 737.52,-501.79 790.58,-468 819.39,-449.65 831.58,-437.16 831.58,-403 831.58,-403 831.58,-403 831.58,-121 831.58,-67.09 656.88,-31.09 575.9,-17.3"/>
<polygon fill="midnightblue" stroke="midnightblue" points="576.03,-13.77 565.59,-15.58 574.87,-20.68 576.03,-13.77"/>
</g>
<!-- Node5 -->
<g id="node5" class="node">
<title>Node5</title>
<g id="a_node5"><a xlink:title=" ">
<polygon fill="none" stroke="#bfbfbf" points="43.08,-280.5 43.08,-299.5 98.08,-299.5 98.08,-280.5 43.08,-280.5"/>
<text text-anchor="middle" x="70.58" y="-287.5" font-family="Helvetica,sans-Serif" font-size="10.00">fstream</text>
</a>
</g>
</g>
<!-- Node3&#45;&gt;Node5 -->
<g id="edge4" class="edge">
<title>Node3&#45;&gt;Node5</title>
<path fill="none" stroke="midnightblue" d="M402.26,-511.94C307.45,-508.57 41.31,-496.64 15.58,-468 -26.67,-420.98 28.3,-341.9 56.17,-307.65"/>
<polygon fill="midnightblue" stroke="midnightblue" points="59.18,-309.51 62.9,-299.59 53.8,-305.02 59.18,-309.51"/>
</g>
<!-- Node6 -->
<g id="node6" class="node">
<title>Node6</title>
<g id="a_node6"><a xlink:title=" ">
<polygon fill="none" stroke="#bfbfbf" points="109.08,-448.5 109.08,-467.5 162.08,-467.5 162.08,-448.5 109.08,-448.5"/>
<text text-anchor="middle" x="135.58" y="-455.5" font-family="Helvetica,sans-Serif" font-size="10.00">stdlib.h</text>
</a>
</g>
</g>
<!-- Node3&#45;&gt;Node6 -->
<g id="edge5" class="edge">
<title>Node3&#45;&gt;Node6</title>
<path fill="none" stroke="midnightblue" d="M402.36,-508.27C353.81,-501.16 260.48,-486.74 172.18,-468.21"/>
<polygon fill="midnightblue" stroke="midnightblue" points="172.78,-464.76 162.27,-466.11 171.33,-471.61 172.78,-464.76"/>
</g>
<!-- Node7 -->
<g id="node7" class="node">
<title>Node7</title>
<g id="a_node7"><a xlink:title=" ">
<polygon fill="none" stroke="#bfbfbf" points="497.58,-392.5 497.58,-411.5 553.58,-411.5 553.58,-392.5 497.58,-392.5"/>
<text text-anchor="middle" x="525.58" y="-399.5" font-family="Helvetica,sans-Serif" font-size="10.00">unistd.h</text>
</a>
</g>
</g>
<!-- Node3&#45;&gt;Node7 -->
<g id="edge6" class="edge">
<title>Node3&#45;&gt;Node7</title>
<path fill="none" stroke="midnightblue" d="M442.64,-504.37C457.62,-486.05 492.81,-443.05 512.19,-419.36"/>
<polygon fill="midnightblue" stroke="midnightblue" points="514.92,-421.55 518.55,-411.59 509.51,-417.11 514.92,-421.55"/>
</g>
<!-- Node8 -->
<g id="node8" class="node">
<title>Node8</title>
<g id="a_node8"><a xlink:title=" ">
<polygon fill="none" stroke="#bfbfbf" points="255.58,-448.5 255.58,-467.5 313.58,-467.5 313.58,-448.5 255.58,-448.5"/>
<text text-anchor="middle" x="284.58" y="-455.5" font-family="Helvetica,sans-Serif" font-size="10.00">memory</text>
</a>
</g>
</g>
<!-- Node3&#45;&gt;Node8 -->
<g id="edge7" class="edge">
<title>Node3&#45;&gt;Node8</title>
<path fill="none" stroke="midnightblue" d="M411.65,-504.44C386.36,-495.4 346.27,-481.06 317.9,-470.92"/>
<polygon fill="midnightblue" stroke="midnightblue" points="318.99,-467.59 308.39,-467.52 316.63,-474.18 318.99,-467.59"/>
</g>
<!-- Node9 -->
<g id="node9" class="node">
<title>Node9</title>
<g id="a_node9"><a xlink:href="plane_8hpp.html" target="_top" xlink:title="Plik zawiera definicję klasy reprezentujacej plaska powierzchnie, obslugujacej zapis do plikow.">
<polygon fill="none" stroke="black" points="407.08,-392.5 407.08,-411.5 472.08,-411.5 472.08,-392.5 407.08,-392.5"/>
<text text-anchor="middle" x="439.58" y="-399.5" font-family="Helvetica,sans-Serif" font-size="10.00">plane.hpp</text>
</a>
</g>
</g>
<!-- Node3&#45;&gt;Node9 -->
<g id="edge8" class="edge">
<title>Node3&#45;&gt;Node9</title>
<path fill="none" stroke="midnightblue" d="M435.89,-504.37C436.54,-486.62 438.02,-445.67 438.9,-421.6"/>
<polygon fill="midnightblue" stroke="midnightblue" points="442.4,-421.71 439.26,-411.59 435.4,-421.46 442.4,-421.71"/>
</g>
<!-- Node26 -->
<g id="node26" class="node">
<title>Node26</title>
<g id="a_node26"><a xlink:href="pyramid_8hpp.html" target="_top" xlink:title="Plik zawiera definicję klasy reprezentujacej ostroslup o prostokatnej podstawie w przestrzeni trojwym...">
<polygon fill="none" stroke="black" points="585.58,-448.5 585.58,-467.5 663.58,-467.5 663.58,-448.5 585.58,-448.5"/>
<text text-anchor="middle" x="624.58" y="-455.5" font-family="Helvetica,sans-Serif" font-size="10.00">pyramid.hpp</text>
</a>
</g>
</g>
<!-- Node3&#45;&gt;Node26 -->
<g id="edge37" class="edge">
<title>Node3&#45;&gt;Node26</title>
<path fill="none" stroke="midnightblue" d="M465.52,-504.44C497.73,-495.24 549.11,-480.56 584.72,-470.39"/>
<polygon fill="midnightblue" stroke="midnightblue" points="586.11,-473.63 594.77,-467.52 584.19,-466.9 586.11,-473.63"/>
</g>
<!-- Node28 -->
<g id="node28" class="node">
<title>Node28</title>
<g id="a_node28"><a xlink:href="triangular_8hpp.html" target="_top" xlink:title=" ">
<polygon fill="none" stroke="black" points="681.58,-448.5 681.58,-467.5 765.58,-467.5 765.58,-448.5 681.58,-448.5"/>
<text text-anchor="middle" x="723.58" y="-455.5" font-family="Helvetica,sans-Serif" font-size="10.00">triangular.hpp</text>
</a>
</g>
</g>
<!-- Node3&#45;&gt;Node28 -->
<g id="edge40" class="edge">
<title>Node3&#45;&gt;Node28</title>
<path fill="none" stroke="midnightblue" d="M468.61,-506.81C518.2,-497.51 612.31,-479.86 671.29,-468.8"/>
<polygon fill="midnightblue" stroke="midnightblue" points="671.97,-472.24 681.15,-466.95 670.68,-465.36 671.97,-472.24"/>
</g>
<!-- Node29 -->
<g id="node29" class="node">
<title>Node29</title>
<g id="a_node29"><a xlink:href="circus_8hpp.html" target="_top" xlink:title="Plik zawiera definicję klasy reprezentujacej Prism z podwyzszonym centrum, na ksztalt przypomina cyrk...">
<polygon fill="none" stroke="black" points="24.58,-448.5 24.58,-467.5 90.58,-467.5 90.58,-448.5 24.58,-448.5"/>
<text text-anchor="middle" x="57.58" y="-455.5" font-family="Helvetica,sans-Serif" font-size="10.00">circus.hpp</text>
</a>
</g>
</g>
<!-- Node3&#45;&gt;Node29 -->
<g id="edge42" class="edge">
<title>Node3&#45;&gt;Node29</title>
<path fill="none" stroke="midnightblue" d="M402.54,-509.44C343.87,-502.93 217.46,-488.08 101.14,-468.16"/>
<polygon fill="midnightblue" stroke="midnightblue" points="101.45,-464.66 91,-466.41 100.26,-471.56 101.45,-464.66"/>
</g>
<!-- Node31 -->
<g id="node31" class="node">
<title>Node31</title>
<g id="a_node31"><a xlink:href="tent_8hpp.html" target="_top" xlink:title="Plik zawiera definicję klasy reprezentujacej Prism bez gornej podstawy, =Ksztaltem przypomina namiot.">
<polygon fill="none" stroke="black" points="180.08,-448.5 180.08,-467.5 237.08,-467.5 237.08,-448.5 180.08,-448.5"/>
<text text-anchor="middle" x="208.58" y="-455.5" font-family="Helvetica,sans-Serif" font-size="10.00">tent.hpp</text>
</a>
</g>
</g>
<!-- Node3&#45;&gt;Node31 -->
<g id="edge45" class="edge">
<title>Node3&#45;&gt;Node31</title>
<path fill="none" stroke="midnightblue" d="M402.57,-505.15C361.36,-495.34 290.98,-478.6 247.28,-468.21"/>
<polygon fill="midnightblue" stroke="midnightblue" points="247.85,-464.74 237.31,-465.84 246.23,-471.55 247.85,-464.74"/>
</g>
<!-- Node32 -->
<g id="node32" class="node">
<title>Node32</title>
<g id="a_node32"><a xlink:href="volcano_8hpp.html" target="_top" xlink:title="Plik zawiera definicję klasy reprezentujacej wulkan, jest deformacja obiektu Prism.">
<polygon fill="none" stroke="black" points="331.58,-448.5 331.58,-467.5 407.58,-467.5 407.58,-448.5 331.58,-448.5"/>
<text text-anchor="middle" x="369.58" y="-455.5" font-family="Helvetica,sans-Serif" font-size="10.00">volcano.hpp</text>
</a>
</g>
</g>
<!-- Node3&#45;&gt;Node32 -->
<g id="edge47" class="edge">
<title>Node3&#45;&gt;Node32</title>
<path fill="none" stroke="midnightblue" d="M424.97,-504.32C415.12,-496.26 400.23,-484.08 388.36,-474.37"/>
<polygon fill="midnightblue" stroke="midnightblue" points="390.33,-471.46 380.37,-467.83 385.9,-476.88 390.33,-471.46"/>
</g>
<!-- Node33 -->
<g id="node33" class="node">
<title>Node33</title>
<g id="a_node33"><a xlink:href="drone_8hpp.html" target="_top" xlink:title="Plik zawiera definicję klasy reprezentujacej drona, budowanie i przemieszczanie go.">
<polygon fill="none" stroke="black" points="502.08,-448.5 502.08,-467.5 567.08,-467.5 567.08,-448.5 502.08,-448.5"/>
<text text-anchor="middle" x="534.58" y="-455.5" font-family="Helvetica,sans-Serif" font-size="10.00">drone.hpp</text>
</a>
</g>
</g>
<!-- Node3&#45;&gt;Node33 -->
<g id="edge49" class="edge">
<title>Node3&#45;&gt;Node33</title>
<path fill="none" stroke="midnightblue" d="M451.48,-504.32C467.21,-495.74 491.52,-482.49 509.78,-472.52"/>
<polygon fill="midnightblue" stroke="midnightblue" points="511.61,-475.52 518.71,-467.65 508.25,-469.37 511.61,-475.52"/>
</g>
<!-- Node34 -->
<g id="node34" class="node">
<title>Node34</title>
<g id="a_node34"><a xlink:href="lacze__do__gnuplota_8hpp.html" target="_top" xlink:title=" ">
<polygon fill="none" stroke="black" points="667.58,-392.5 667.58,-411.5 795.58,-411.5 795.58,-392.5 667.58,-392.5"/>
<text text-anchor="middle" x="731.58" y="-399.5" font-family="Helvetica,sans-Serif" font-size="10.00">lacze_do_gnuplota.hpp</text>
</a>
</g>
</g>
<!-- Node3&#45;&gt;Node34 -->
<g id="edge57" class="edge">
<title>Node3&#45;&gt;Node34</title>
<path fill="none" stroke="midnightblue" d="M468.79,-511.04C550.2,-505.9 754.58,-490.83 774.58,-468 788.52,-452.08 769.38,-431.35 752.37,-417.63"/>
<polygon fill="midnightblue" stroke="midnightblue" points="754.42,-414.79 744.35,-411.51 750.17,-420.36 754.42,-414.79"/>
</g>
<!-- Node10 -->
<g id="node10" class="node">
<title>Node10</title>
<g id="a_node10"><a xlink:href="block_8hpp.html" target="_top" xlink:title="Plik zawiera definicję klasy reprezentujacej bryle w przestrzeni trojwymiarowej.">
<polygon fill="none" stroke="black" points="407.58,-336.5 407.58,-355.5 471.58,-355.5 471.58,-336.5 407.58,-336.5"/>
<text text-anchor="middle" x="439.58" y="-343.5" font-family="Helvetica,sans-Serif" font-size="10.00">block.hpp</text>
</a>
</g>
</g>
<!-- Node9&#45;&gt;Node10 -->
<g id="edge9" class="edge">
<title>Node9&#45;&gt;Node10</title>
<path fill="none" stroke="midnightblue" d="M439.58,-392.08C439.58,-385.01 439.58,-374.86 439.58,-365.99"/>
<polygon fill="midnightblue" stroke="midnightblue" points="443.08,-365.75 439.58,-355.75 436.08,-365.75 443.08,-365.75"/>
</g>
<!-- Node10&#45;&gt;Node5 -->
<g id="edge12" class="edge">
<title>Node10&#45;&gt;Node5</title>
<path fill="none" stroke="midnightblue" d="M407.48,-340.3C339.46,-330.35 181.11,-307.18 108.36,-296.53"/>
<polygon fill="midnightblue" stroke="midnightblue" points="108.67,-293.04 98.27,-295.05 107.66,-299.96 108.67,-293.04"/>
</g>
<!-- Node11 -->
<g id="node11" class="node">
<title>Node11</title>
<g id="a_node11"><a xlink:title=" ">
<polygon fill="none" stroke="#bfbfbf" points="660.58,-280.5 660.58,-299.5 704.58,-299.5 704.58,-280.5 660.58,-280.5"/>
<text text-anchor="middle" x="682.58" y="-287.5" font-family="Helvetica,sans-Serif" font-size="10.00">string</text>
</a>
</g>
</g>
<!-- Node10&#45;&gt;Node11 -->
<g id="edge10" class="edge">
<title>Node10&#45;&gt;Node11</title>
<path fill="none" stroke="midnightblue" d="M471.92,-338.29C512.71,-329.76 584.98,-314.39 646.58,-300 647.85,-299.7 649.14,-299.4 650.45,-299.08"/>
<polygon fill="midnightblue" stroke="midnightblue" points="651.63,-302.4 660.52,-296.63 649.97,-295.6 651.63,-302.4"/>
</g>
<!-- Node12 -->
<g id="node12" class="node">
<title>Node12</title>
<g id="a_node12"><a xlink:title=" ">
<polygon fill="none" stroke="#bfbfbf" points="723.08,-280.5 723.08,-299.5 770.08,-299.5 770.08,-280.5 723.08,-280.5"/>
<text text-anchor="middle" x="746.58" y="-287.5" font-family="Helvetica,sans-Serif" font-size="10.00">vector</text>
</a>
</g>
</g>
<!-- Node10&#45;&gt;Node12 -->
<g id="edge11" class="edge">
<title>Node10&#45;&gt;Node12</title>
<path fill="none" stroke="midnightblue" d="M471.84,-340.8C521.52,-334.11 619.89,-319.9 712.99,-299.93"/>
<polygon fill="midnightblue" stroke="midnightblue" points="713.83,-303.33 722.86,-297.78 712.34,-296.49 713.83,-303.33"/>
</g>
<!-- Node13 -->
<g id="node13" class="node">
<title>Node13</title>
<g id="a_node13"><a xlink:href="vector3_d_8hpp.html" target="_top" xlink:title="Zawiera deklaracje klasy Vector3D.">
<polygon fill="none" stroke="black" points="266.58,-168.5 266.58,-187.5 348.58,-187.5 348.58,-168.5 266.58,-168.5"/>
<text text-anchor="middle" x="307.58" y="-175.5" font-family="Helvetica,sans-Serif" font-size="10.00">vector3D.hpp</text>
</a>
</g>
</g>
<!-- Node10&#45;&gt;Node13 -->
<g id="edge13" class="edge">
<title>Node10&#45;&gt;Node13</title>
<path fill="none" stroke="midnightblue" d="M432.35,-336.45C417.78,-319.17 383.95,-278.77 356.58,-244 343.79,-227.76 329.62,-208.86 319.82,-195.64"/>
<polygon fill="midnightblue" stroke="midnightblue" points="322.56,-193.46 313.81,-187.5 316.93,-197.62 322.56,-193.46"/>
</g>
<!-- Node14 -->
<g id="node14" class="node">
<title>Node14</title>
<g id="a_node14"><a xlink:href="vector_8hpp.html" target="_top" xlink:title=" ">
<polygon fill="none" stroke="black" points="498.58,-112.5 498.58,-131.5 566.58,-131.5 566.58,-112.5 498.58,-112.5"/>
<text text-anchor="middle" x="532.58" y="-119.5" font-family="Helvetica,sans-Serif" font-size="10.00">vector.hpp</text>
</a>
</g>
</g>
<!-- Node10&#45;&gt;Node14 -->
<g id="edge25" class="edge">
<title>Node10&#45;&gt;Node14</title>
<path fill="none" stroke="midnightblue" d="M471.75,-336.74C495.93,-329.55 529.14,-317.5 554.58,-300 582.31,-280.92 591.23,-274.45 605.58,-244 620.05,-213.27 630.8,-197.27 613.58,-168 604.66,-152.84 588.59,-142.43 573.1,-135.46"/>
<polygon fill="midnightblue" stroke="midnightblue" points="574.18,-132.12 563.6,-131.56 571.52,-138.6 574.18,-132.12"/>
</g>
<!-- Node17 -->
<g id="node17" class="node">
<title>Node17</title>
<g id="a_node17"><a xlink:href="count_8hpp.html" target="_top" xlink:title="Plik zawiera definicję klasy reprezentujacej counter, pozwalajacy na liczenie instancji stworzonych k...">
<polygon fill="none" stroke="black" points="283.08,-56.5 283.08,-75.5 348.08,-75.5 348.08,-56.5 283.08,-56.5"/>
<text text-anchor="middle" x="315.58" y="-63.5" font-family="Helvetica,sans-Serif" font-size="10.00">count.hpp</text>
</a>
</g>
</g>
<!-- Node10&#45;&gt;Node17 -->
<g id="edge24" class="edge">
<title>Node10&#45;&gt;Node17</title>
<path fill="none" stroke="midnightblue" d="M407.55,-344.84C341.14,-342.63 194.58,-327.32 194.58,-235 194.58,-235 194.58,-235 194.58,-177 194.58,-146.9 193.73,-134.63 213.58,-112 228.93,-94.49 252.38,-83.5 272.93,-76.77"/>
<polygon fill="midnightblue" stroke="midnightblue" points="274.18,-80.05 282.73,-73.8 272.15,-73.35 274.18,-80.05"/>
</g>
<!-- Node21 -->
<g id="node21" class="node">
<title>Node21</title>
<g id="a_node21"><a xlink:href="matrix3_d_8hpp.html" target="_top" xlink:title="Zawiera deklaracje klasy Matrix3D.">
<polygon fill="none" stroke="black" points="462.08,-280.5 462.08,-299.5 545.08,-299.5 545.08,-280.5 462.08,-280.5"/>
<text text-anchor="middle" x="503.58" y="-287.5" font-family="Helvetica,sans-Serif" font-size="10.00">matrix3D.hpp</text>
</a>
</g>
</g>
<!-- Node10&#45;&gt;Node21 -->
<g id="edge26" class="edge">
<title>Node10&#45;&gt;Node21</title>
<path fill="none" stroke="midnightblue" d="M449.86,-336.32C459.41,-328.26 473.86,-316.08 485.36,-306.37"/>
<polygon fill="midnightblue" stroke="midnightblue" points="487.72,-308.96 493.11,-299.83 483.21,-303.61 487.72,-308.96"/>
</g>
<!-- Node22 -->
<g id="node22" class="node">
<title>Node22</title>
<g id="a_node22"><a xlink:href="matrix_8hpp.html" target="_top" xlink:title=" ">
<polygon fill="none" stroke="black" points="398.58,-224.5 398.58,-243.5 468.58,-243.5 468.58,-224.5 398.58,-224.5"/>
<text text-anchor="middle" x="433.58" y="-231.5" font-family="Helvetica,sans-Serif" font-size="10.00">matrix.hpp</text>
</a>
</g>
</g>
<!-- Node10&#45;&gt;Node22 -->
<g id="edge36" class="edge">
<title>Node10&#45;&gt;Node22</title>
<path fill="none" stroke="midnightblue" d="M439.11,-336.37C438.14,-318.62 435.9,-277.67 434.59,-253.6"/>
<polygon fill="midnightblue" stroke="midnightblue" points="438.08,-253.39 434.04,-243.59 431.09,-253.77 438.08,-253.39"/>
</g>
<!-- Node13&#45;&gt;Node14 -->
<g id="edge14" class="edge">
<title>Node13&#45;&gt;Node14</title>
<path fill="none" stroke="midnightblue" d="M343.23,-168.44C382.69,-158.97 446.32,-143.7 488.78,-133.51"/>
<polygon fill="midnightblue" stroke="midnightblue" points="489.66,-136.9 498.56,-131.16 488.02,-130.09 489.66,-136.9"/>
</g>
<!-- Node20 -->
<g id="node20" class="node">
<title>Node20</title>
<g id="a_node20"><a xlink:href="vector3_d_8cpp.html" target="_top" xlink:title=" ">
<polygon fill="none" stroke="black" points="223.08,-112.5 223.08,-131.5 330.08,-131.5 330.08,-112.5 223.08,-112.5"/>
<text text-anchor="middle" x="276.58" y="-119.5" font-family="Helvetica,sans-Serif" font-size="10.00">../src/vector3D.cpp</text>
</a>
</g>
</g>
<!-- Node13&#45;&gt;Node20 -->
<g id="edge22" class="edge">
<title>Node13&#45;&gt;Node20</title>
<path fill="none" stroke="midnightblue" d="M302.46,-168.08C298.17,-160.61 291.92,-149.72 286.63,-140.52"/>
<polygon fill="midnightblue" stroke="midnightblue" points="289.61,-138.68 281.6,-131.75 283.54,-142.17 289.61,-138.68"/>
</g>
<!-- Node14&#45;&gt;Node4 -->
<g id="edge15" class="edge">
<title>Node14&#45;&gt;Node4</title>
<path fill="none" stroke="midnightblue" d="M566.84,-117.49C593.24,-112.79 628.09,-101.78 645.58,-76 666.02,-45.85 614.98,-27.64 575.75,-18.45"/>
<polygon fill="midnightblue" stroke="midnightblue" points="576.35,-15 565.83,-16.25 574.83,-21.83 576.35,-15"/>
</g>
<!-- Node15 -->
<g id="node15" class="node">
<title>Node15</title>
<g id="a_node15"><a xlink:title=" ">
<polygon fill="none" stroke="#bfbfbf" points="515.08,-56.5 515.08,-75.5 562.08,-75.5 562.08,-56.5 515.08,-56.5"/>
<text text-anchor="middle" x="538.58" y="-63.5" font-family="Helvetica,sans-Serif" font-size="10.00">cmath</text>
</a>
</g>
</g>
<!-- Node14&#45;&gt;Node15 -->
<g id="edge16" class="edge">
<title>Node14&#45;&gt;Node15</title>
<path fill="none" stroke="midnightblue" d="M533.57,-112.08C534.36,-104.93 535.51,-94.64 536.5,-85.69"/>
<polygon fill="midnightblue" stroke="midnightblue" points="539.98,-86.08 537.6,-75.75 533.02,-85.3 539.98,-86.08"/>
</g>
<!-- Node16 -->
<g id="node16" class="node">
<title>Node16</title>
<g id="a_node16"><a xlink:title=" ">
<polygon fill="none" stroke="#bfbfbf" points="580.58,-56.5 580.58,-75.5 636.58,-75.5 636.58,-56.5 580.58,-56.5"/>
<text text-anchor="middle" x="608.58" y="-63.5" font-family="Helvetica,sans-Serif" font-size="10.00">iomanip</text>
</a>
</g>
</g>
<!-- Node14&#45;&gt;Node16 -->
<g id="edge17" class="edge">
<title>Node14&#45;&gt;Node16</title>
<path fill="none" stroke="midnightblue" d="M544.79,-112.32C556.35,-104.11 573.95,-91.6 587.74,-81.81"/>
<polygon fill="midnightblue" stroke="midnightblue" points="590.02,-84.48 596.14,-75.83 585.96,-78.77 590.02,-84.48"/>
</g>
<!-- Node14&#45;&gt;Node17 -->
<g id="edge18" class="edge">
<title>Node14&#45;&gt;Node17</title>
<path fill="none" stroke="midnightblue" d="M498.19,-112.44C460.29,-103.01 399.28,-87.83 358.33,-77.64"/>
<polygon fill="midnightblue" stroke="midnightblue" points="358.93,-74.18 348.38,-75.16 357.24,-80.97 358.93,-74.18"/>
</g>
<!-- Node19 -->
<g id="node19" class="node">
<title>Node19</title>
<g id="a_node19"><a xlink:title=" ">
<polygon fill="none" stroke="#bfbfbf" points="404.58,-56.5 404.58,-75.5 496.58,-75.5 496.58,-56.5 404.58,-56.5"/>
<text text-anchor="middle" x="450.58" y="-63.5" font-family="Helvetica,sans-Serif" font-size="10.00">../src/vector.tpp</text>
</a>
</g>
</g>
<!-- Node14&#45;&gt;Node19 -->
<g id="edge21" class="edge">
<title>Node14&#45;&gt;Node19</title>
<path fill="none" stroke="midnightblue" d="M519.4,-112.32C506.73,-103.98 487.34,-91.21 472.37,-81.35"/>
<polygon fill="midnightblue" stroke="midnightblue" points="473.99,-78.23 463.72,-75.65 470.14,-84.08 473.99,-78.23"/>
</g>
<!-- Node17&#45;&gt;Node4 -->
<g id="edge19" class="edge">
<title>Node17&#45;&gt;Node4</title>
<path fill="none" stroke="midnightblue" d="M348.51,-56.92C387.71,-47.29 453.16,-31.23 495.32,-20.88"/>
<polygon fill="midnightblue" stroke="midnightblue" points="496.37,-24.23 505.25,-18.44 494.71,-17.43 496.37,-24.23"/>
</g>
<!-- Node18 -->
<g id="node18" class="node">
<title>Node18</title>
<g id="a_node18"><a xlink:title=" ">
<polygon fill="none" stroke="#bfbfbf" points="271.08,-0.5 271.08,-19.5 360.08,-19.5 360.08,-0.5 271.08,-0.5"/>
<text text-anchor="middle" x="315.58" y="-7.5" font-family="Helvetica,sans-Serif" font-size="10.00">../src/count.tpp</text>
</a>
</g>
</g>
<!-- Node17&#45;&gt;Node18 -->
<g id="edge20" class="edge">
<title>Node17&#45;&gt;Node18</title>
<path fill="none" stroke="midnightblue" d="M315.58,-56.08C315.58,-49.01 315.58,-38.86 315.58,-29.99"/>
<polygon fill="midnightblue" stroke="midnightblue" points="319.08,-29.75 315.58,-19.75 312.08,-29.75 319.08,-29.75"/>
</g>
<!-- Node20&#45;&gt;Node20 -->
<g id="edge23" class="edge">
<title>Node20&#45;&gt;Node20</title>
<path fill="none" stroke="midnightblue" d="M307.07,-131.53C327.79,-134.31 348.08,-131.13 348.08,-122 348.08,-114.37 333.9,-110.89 317.15,-111.59"/>
<polygon fill="midnightblue" stroke="midnightblue" points="316.72,-108.11 307.07,-112.47 317.34,-115.08 316.72,-108.11"/>
</g>
<!-- Node21&#45;&gt;Node13 -->
<g id="edge33" class="edge">
<title>Node21&#45;&gt;Node13</title>
<path fill="none" stroke="midnightblue" d="M475.35,-280.44C451.61,-272.65 417.22,-259.94 389.58,-244 364.92,-229.78 339.73,-208.62 323.89,-194.34"/>
<polygon fill="midnightblue" stroke="midnightblue" points="326.25,-191.75 316.52,-187.57 321.52,-196.91 326.25,-191.75"/>
</g>
<!-- Node21&#45;&gt;Node22 -->
<g id="edge27" class="edge">
<title>Node21&#45;&gt;Node22</title>
<path fill="none" stroke="midnightblue" d="M492.33,-280.32C481.78,-272.18 465.78,-259.84 453.13,-250.09"/>
<polygon fill="midnightblue" stroke="midnightblue" points="455.08,-247.17 445.03,-243.83 450.81,-252.71 455.08,-247.17"/>
</g>
<!-- Node25 -->
<g id="node25" class="node">
<title>Node25</title>
<g id="a_node25"><a xlink:href="matrix3_d_8cpp.html" target="_top" xlink:title=" ">
<polygon fill="none" stroke="black" points="487.08,-224.5 487.08,-243.5 596.08,-243.5 596.08,-224.5 487.08,-224.5"/>
<text text-anchor="middle" x="541.58" y="-231.5" font-family="Helvetica,sans-Serif" font-size="10.00">../src/matrix3D.cpp</text>
</a>
</g>
</g>
<!-- Node21&#45;&gt;Node25 -->
<g id="edge34" class="edge">
<title>Node21&#45;&gt;Node25</title>
<path fill="none" stroke="midnightblue" d="M504.68,-280.08C508.52,-272.3 516.25,-260.8 523.8,-251.37"/>
<polygon fill="midnightblue" stroke="midnightblue" points="526.46,-253.63 530.29,-243.75 521.14,-249.09 526.46,-253.63"/>
</g>
<!-- Node22&#45;&gt;Node4 -->
<g id="edge30" class="edge">
<title>Node22&#45;&gt;Node4</title>
<path fill="none" stroke="midnightblue" d="M422.86,-224.3C413.64,-216.07 400.98,-202.79 395.58,-188 375.42,-132.9 361.02,-103.41 395.58,-56 418.17,-25 462.46,-14.89 495.21,-11.82"/>
<polygon fill="midnightblue" stroke="midnightblue" points="495.68,-15.3 505.39,-11.06 495.15,-8.32 495.68,-15.3"/>
</g>
<!-- Node22&#45;&gt;Node13 -->
<g id="edge29" class="edge">
<title>Node22&#45;&gt;Node13</title>
<path fill="none" stroke="midnightblue" d="M413.61,-224.44C392.97,-215.6 360.51,-201.69 336.94,-191.59"/>
<polygon fill="midnightblue" stroke="midnightblue" points="338.02,-188.24 327.45,-187.52 335.26,-194.67 338.02,-188.24"/>
</g>
<!-- Node22&#45;&gt;Node14 -->
<g id="edge28" class="edge">
<title>Node22&#45;&gt;Node14</title>
<path fill="none" stroke="midnightblue" d="M455.37,-224.39C471.72,-216.95 493.6,-204.73 507.58,-188 518.71,-174.67 525.22,-155.84 528.79,-141.88"/>
<polygon fill="midnightblue" stroke="midnightblue" points="532.25,-142.45 531.05,-131.92 525.42,-140.89 532.25,-142.45"/>
</g>
<!-- Node23 -->
<g id="node23" class="node">
<title>Node23</title>
<g id="a_node23"><a xlink:title=" ">
<polygon fill="none" stroke="#bfbfbf" points="555.08,-168.5 555.08,-187.5 604.08,-187.5 604.08,-168.5 555.08,-168.5"/>
<text text-anchor="middle" x="579.58" y="-175.5" font-family="Helvetica,sans-Serif" font-size="10.00">cstdlib</text>
</a>
</g>
</g>
<!-- Node22&#45;&gt;Node23 -->
<g id="edge31" class="edge">
<title>Node22&#45;&gt;Node23</title>
<path fill="none" stroke="midnightblue" d="M456.71,-224.44C481.06,-215.44 519.58,-201.19 547,-191.05"/>
<polygon fill="midnightblue" stroke="midnightblue" points="548.39,-194.27 556.55,-187.52 545.96,-187.7 548.39,-194.27"/>
</g>
<!-- Node24 -->
<g id="node24" class="node">
<title>Node24</title>
<g id="a_node24"><a xlink:title=" ">
<polygon fill="none" stroke="#bfbfbf" points="404.58,-168.5 404.58,-187.5 498.58,-187.5 498.58,-168.5 404.58,-168.5"/>
<text text-anchor="middle" x="451.58" y="-175.5" font-family="Helvetica,sans-Serif" font-size="10.00">../src/matrix.tpp</text>
</a>
</g>
</g>
<!-- Node22&#45;&gt;Node24 -->
<g id="edge32" class="edge">
<title>Node22&#45;&gt;Node24</title>
<path fill="none" stroke="midnightblue" d="M436.55,-224.08C438.96,-216.85 442.44,-206.41 445.44,-197.4"/>
<polygon fill="midnightblue" stroke="midnightblue" points="448.82,-198.34 448.66,-187.75 442.18,-196.13 448.82,-198.34"/>
</g>
<!-- Node25&#45;&gt;Node21 -->
<g id="edge35" class="edge">
<title>Node25&#45;&gt;Node21</title>
<path fill="none" stroke="midnightblue" d="M540.55,-243.75C536.77,-251.48 529.07,-262.97 521.52,-272.43"/>
<polygon fill="midnightblue" stroke="midnightblue" points="518.82,-270.2 515.02,-280.08 524.16,-274.73 518.82,-270.2"/>
</g>
<!-- Node27 -->
<g id="node27" class="node">
<title>Node27</title>
<g id="a_node27"><a xlink:href="cuboid_8hpp.html" target="_top" xlink:title="Plik zawiera definicję klasy reprezentujacej prostopadloscian w przestrzeni trojwymiarowej.">
<polygon fill="none" stroke="black" points="576.58,-392.5 576.58,-411.5 646.58,-411.5 646.58,-392.5 576.58,-392.5"/>
<text text-anchor="middle" x="611.58" y="-399.5" font-family="Helvetica,sans-Serif" font-size="10.00">cuboid.hpp</text>
</a>
</g>
</g>
<!-- Node26&#45;&gt;Node27 -->
<g id="edge38" class="edge">
<title>Node26&#45;&gt;Node27</title>
<path fill="none" stroke="midnightblue" d="M622.43,-448.08C620.71,-440.93 618.23,-430.64 616.08,-421.69"/>
<polygon fill="midnightblue" stroke="midnightblue" points="619.43,-420.65 613.68,-411.75 612.62,-422.29 619.43,-420.65"/>
</g>
<!-- Node27&#45;&gt;Node10 -->
<g id="edge39" class="edge">
<title>Node27&#45;&gt;Node10</title>
<path fill="none" stroke="midnightblue" d="M584.32,-392.44C555.13,-383.28 508.65,-368.69 476.27,-358.52"/>
<polygon fill="midnightblue" stroke="midnightblue" points="477.29,-355.17 466.7,-355.52 475.19,-361.85 477.29,-355.17"/>
</g>
<!-- Node28&#45;&gt;Node27 -->
<g id="edge41" class="edge">
<title>Node28&#45;&gt;Node27</title>
<path fill="none" stroke="midnightblue" d="M705.58,-448.32C687.54,-439.62 659.53,-426.12 638.77,-416.11"/>
<polygon fill="midnightblue" stroke="midnightblue" points="640.05,-412.84 629.53,-411.65 637.01,-419.15 640.05,-412.84"/>
</g>
<!-- Node30 -->
<g id="node30" class="node">
<title>Node30</title>
<g id="a_node30"><a xlink:href="prism_8hpp.html" target="_top" xlink:title="Plik zawiera definicję klasy reprezentujacej graniastoslup o podstawie o 6 wierzcholkach w przestrzen...">
<polygon fill="none" stroke="black" points="324.08,-392.5 324.08,-411.5 389.08,-411.5 389.08,-392.5 324.08,-392.5"/>
<text text-anchor="middle" x="356.58" y="-399.5" font-family="Helvetica,sans-Serif" font-size="10.00">prism.hpp</text>
</a>
</g>
</g>
<!-- Node29&#45;&gt;Node30 -->
<g id="edge43" class="edge">
<title>Node29&#45;&gt;Node30</title>
<path fill="none" stroke="midnightblue" d="M91.02,-449.71C93.91,-449.12 96.79,-448.54 99.58,-448 174.87,-433.35 263,-418.39 314.04,-409.94"/>
<polygon fill="midnightblue" stroke="midnightblue" points="314.75,-413.37 324.05,-408.29 313.61,-406.47 314.75,-413.37"/>
</g>
<!-- Node30&#45;&gt;Node10 -->
<g id="edge44" class="edge">
<title>Node30&#45;&gt;Node10</title>
<path fill="none" stroke="midnightblue" d="M369.91,-392.32C382.74,-383.98 402.36,-371.21 417.52,-361.35"/>
<polygon fill="midnightblue" stroke="midnightblue" points="419.8,-364.04 426.27,-355.65 415.98,-358.17 419.8,-364.04"/>
</g>
<!-- Node31&#45;&gt;Node30 -->
<g id="edge46" class="edge">
<title>Node31&#45;&gt;Node30</title>
<path fill="none" stroke="midnightblue" d="M232.03,-448.44C256.71,-439.44 295.76,-425.19 323.55,-415.05"/>
<polygon fill="midnightblue" stroke="midnightblue" points="325.04,-418.23 333.23,-411.52 322.64,-411.66 325.04,-418.23"/>
</g>
<!-- Node32&#45;&gt;Node30 -->
<g id="edge48" class="edge">
<title>Node32&#45;&gt;Node30</title>
<path fill="none" stroke="midnightblue" d="M367.43,-448.08C365.71,-440.93 363.23,-430.64 361.08,-421.69"/>
<polygon fill="midnightblue" stroke="midnightblue" points="364.43,-420.65 358.68,-411.75 357.62,-422.29 364.43,-420.65"/>
</g>
<!-- Node33&#45;&gt;Node7 -->
<g id="edge56" class="edge">
<title>Node33&#45;&gt;Node7</title>
<path fill="none" stroke="midnightblue" d="M533.09,-448.08C531.9,-440.93 530.18,-430.64 528.69,-421.69"/>
<polygon fill="midnightblue" stroke="midnightblue" points="532.13,-421.04 527.03,-411.75 525.23,-422.19 532.13,-421.04"/>
</g>
<!-- Node33&#45;&gt;Node27 -->
<g id="edge51" class="edge">
<title>Node33&#45;&gt;Node27</title>
<path fill="none" stroke="midnightblue" d="M546.95,-448.32C558.73,-440.06 576.71,-427.45 590.71,-417.63"/>
<polygon fill="midnightblue" stroke="midnightblue" points="593.06,-420.26 599.24,-411.65 589.04,-414.53 593.06,-420.26"/>
</g>
<!-- Node33&#45;&gt;Node30 -->
<g id="edge50" class="edge">
<title>Node33&#45;&gt;Node30</title>
<path fill="none" stroke="midnightblue" d="M506.37,-448.44C476.17,-439.28 428.06,-424.69 394.55,-414.52"/>
<polygon fill="midnightblue" stroke="midnightblue" points="395.23,-411.07 384.65,-411.52 393.2,-417.77 395.23,-411.07"/>
</g>
<!-- Node33&#45;&gt;Node34 -->
<g id="edge52" class="edge">
<title>Node33&#45;&gt;Node34</title>
<path fill="none" stroke="midnightblue" d="M565.79,-448.44C599.51,-439.2 653.38,-424.44 690.51,-414.26"/>
<polygon fill="midnightblue" stroke="midnightblue" points="691.79,-417.54 700.51,-411.52 689.94,-410.78 691.79,-417.54"/>
</g>
<!-- Node34&#45;&gt;Node11 -->
<g id="edge53" class="edge">
<title>Node34&#45;&gt;Node11</title>
<path fill="none" stroke="midnightblue" d="M727.73,-392.37C719.75,-374.46 701.25,-332.92 690.57,-308.95"/>
<polygon fill="midnightblue" stroke="midnightblue" points="693.67,-307.3 686.4,-299.59 687.28,-310.15 693.67,-307.3"/>
</g>
<!-- Node34&#45;&gt;Node12 -->
<g id="edge55" class="edge">
<title>Node34&#45;&gt;Node12</title>
<path fill="none" stroke="midnightblue" d="M732.75,-392.37C735.17,-374.62 740.76,-333.67 744.04,-309.6"/>
<polygon fill="midnightblue" stroke="midnightblue" points="747.52,-309.97 745.4,-299.59 740.59,-309.03 747.52,-309.97"/>
</g>
<!-- Node35 -->
<g id="node35" class="node">
<title>Node35</title>
<g id="a_node35"><a xlink:title=" ">
<polygon fill="none" stroke="#bfbfbf" points="759.58,-336.5 759.58,-355.5 791.58,-355.5 791.58,-336.5 759.58,-336.5"/>
<text text-anchor="middle" x="775.58" y="-343.5" font-family="Helvetica,sans-Serif" font-size="10.00">list</text>
</a>
</g>
</g>
<!-- Node34&#45;&gt;Node35 -->
<g id="edge54" class="edge">
<title>Node34&#45;&gt;Node35</title>
<path fill="none" stroke="midnightblue" d="M738.84,-392.08C745.12,-384.38 754.36,-373.03 762.01,-363.65"/>
<polygon fill="midnightblue" stroke="midnightblue" points="764.84,-365.71 768.45,-355.75 759.42,-361.29 764.84,-365.71"/>
</g>
</g>
</svg>
        <g id="navigator" transform="translate(0 0)" fill="#404254">
                <rect fill="#f2f5e9" fill-opacity="0.5" stroke="#606060" stroke-width=".5" x="0" y="0" width="60" height="60"/>
                <use id="zoomplus" xlink:href="#zoomPlus" x="17" y="9" onmousedown="handleZoom(evt,'in')"/>
                <use id="zoomminus" xlink:href="#zoomMin" x="42" y="9" onmousedown="handleZoom(evt,'out')"/>
                <use id="reset" xlink:href="#resetDef" x="30" y="36" onmousedown="handleReset()"/>
                <g id="arrowUp" xlink:href="#dirArrow" transform="translate(30 24)" onmousedown="handlePan(0,-1)">
                  <use xlink:href="#rim" fill="#404040">
                        <set attributeName="fill" to="#808080" begin="arrowUp.mouseover" end="arrowUp.mouseout"/>
                  </use>
                  <path fill="none" stroke="white" stroke-width="1.5" d="M0,-3.0v7 M-2.5,-0.5L0,-3.0L2.5,-0.5"/>
                </g>
                <g id="arrowRight" xlink:href="#dirArrow" transform="rotate(90) translate(36 -43)" onmousedown="handlePan(1,0)">
                  <use xlink:href="#rim" fill="#404040">
                        <set attributeName="fill" to="#808080" begin="arrowRight.mouseover" end="arrowRight.mouseout"/>
                  </use>
                  <path fill="none" stroke="white" stroke-width="1.5" d="M0,-3.0v7 M-2.5,-0.5L0,-3.0L2.5,-0.5"/>
                </g>
                <g id="arrowDown" xlink:href="#dirArrow" transform="rotate(180) translate(-30 -48)" onmousedown="handlePan(0,1)">
                  <use xlink:href="#rim" fill="#404040">
                        <set attributeName="fill" to="#808080" begin="arrowDown.mouseover" end="arrowDown.mouseout"/>
                  </use>
                  <path fill="none" stroke="white" stroke-width="1.5" d="M0,-3.0v7 M-2.5,-0.5L0,-3.0L2.5,-0.5"/>
                </g>
                <g id="arrowLeft" xlink:href="#dirArrow" transform="rotate(270) translate(-36 17)" onmousedown="handlePan(-1,0)">
                  <use xlink:href="#rim" fill="#404040">
                        <set attributeName="fill" to="#808080" begin="arrowLeft.mouseover" end="arrowLeft.mouseout"/>
                  </use>
                  <path fill="none" stroke="white" stroke-width="1.5" d="M0,-3.0v7 M-2.5,-0.5L0,-3.0L2.5,-0.5"/>
                </g>
        </g>
        <svg viewBox="0 0 15 15" width="100%" height="30px" preserveAspectRatio="xMaxYMin meet">
         <g id="arrow_out" transform="scale(0.3 0.3)">
          <a xlink:href="menu_8cpp__incl_org.svg" target="_base">
           <rect id="button" ry="5" rx="5" y="6" x="6" height="38" width="38"
                fill="#f2f5e9" fill-opacity="0.5" stroke="#606060" stroke-width="1.0"/>
           <path id="arrow"
             d="M 11.500037,31.436501 C 11.940474,20.09759 22.043105,11.32322 32.158766,21.979434 L 37.068811,17.246167 C 37.068811,17.246167 37.088388,32 37.088388,32 L 22.160133,31.978069 C 22.160133,31.978069 26.997745,27.140456 26.997745,27.140456 C 18.528582,18.264221 13.291696,25.230495 11.500037,31.436501 z"
             style="fill:#404040;"/>
          </a>
         </g>
        </svg>
</svg>
