<?xml version="1.0" encoding="UTF-8" standalone="no"?>
<!DOCTYPE svg PUBLIC "-//W3C//DTD SVG 1.1//EN"
 "http://www.w3.org/Graphics/SVG/1.1/DTD/svg11.dtd">
<!-- Generated by graphviz version 2.43.0 (0)
 -->
<!-- Title: /home/krzysztof/PO/zad5_2&#45;kgliwinski/include/menu.hpp Pages: 1 -->
<!--zoomable 610 -->
<svg id="main" version="1.1" xmlns="http://www.w3.org/2000/svg" xmlns:xlink="http://www.w3.org/1999/xlink" xml:space="preserve" onload="init(evt)">
<style type="text/css"><![CDATA[
.edge:hover path { stroke: red; }
.edge:hover polygon { stroke: red; fill: red; }
]]></style>
<script type="text/javascript"><![CDATA[
var edges = document.getElementsByTagName('g');
if (edges && edges.length) {
  for (var i=0;i<edges.length;i++) {
    if (edges[i].id.substr(0,4)=='edge') {
      edges[i].setAttribute('class','edge');
    }
  }
}
]]></script>
        <defs>
                <circle id="rim" cx="0" cy="0" r="7"/>
                <circle id="rim2" cx="0" cy="0" r="3.5"/>
                <g id="zoomPlus">
                        <use xlink:href="#rim" fill="#404040">
                                <set attributeName="fill" to="#808080" begin="zoomplus.mouseover" end="zoomplus.mouseout"/>
                        </use>
                        <path d="M-4,0h8M0,-4v8" fill="none" stroke="white" stroke-width="1.5" pointer-events="none"/>
                </g>
                <g id="zoomMin">
                        <use xlink:href="#rim" fill="#404040">
                                <set attributeName="fill" to="#808080" begin="zoomminus.mouseover" end="zoomminus.mouseout"/>
                        </use>
                        <path d="M-4,0h8" fill="none" stroke="white" stroke-width="1.5" pointer-events="none"/>
                </g>
                <g id="dirArrow">
                        <path fill="none" stroke="white" stroke-width="1.5" d="M0,-3.0v7 M-2.5,-0.5L0,-3.0L2.5,-0.5"/>
                </g>
               <g id="resetDef">
                       <use xlink:href="#rim2" fill="#404040">
                               <set attributeName="fill" to="#808080" begin="reset.mouseover" end="reset.mouseout"/>
                       </use>
               </g>
        </defs>

<script type="text/javascript">
var viewWidth = 831;
var viewHeight = 610;
var sectionId = 'dynsection-0';
</script>
<script xlink:href="svgpan.js"/>
<svg id="graph" class="graph">
<g id="viewport">
<title>/home/krzysztof/PO/zad5_2&#45;kgliwinski/include/menu.hpp</title>
<!-- Node1 -->
<g id="node1" class="node">
<title>Node1</title>
<g id="a_node1"><a xlink:title="Plik zawiera definicję klasy reprezentujacej menu, obslugujace menu programu.">
<polygon fill="#bfbfbf" stroke="black" points="340,-560.5 340,-601.5 486,-601.5 486,-560.5 340,-560.5"/>
<text text-anchor="start" x="348" y="-589.5" font-family="Helvetica,sans-Serif" font-size="10.00">/home/krzysztof/PO</text>
<text text-anchor="start" x="348" y="-578.5" font-family="Helvetica,sans-Serif" font-size="10.00">/zad5_2&#45;kgliwinski/include</text>
<text text-anchor="middle" x="413" y="-567.5" font-family="Helvetica,sans-Serif" font-size="10.00">/menu.hpp</text>
</a>
</g>
</g>
<!-- Node2 -->
<g id="node2" class="node">
<title>Node2</title>
<g id="a_node2"><a xlink:href="scene_8hpp.html" target="_top" xlink:title="Plik zawiera definicję klasy reprezentujacej scene, obslugujacej zapis do plikow i wytswietlanie w gn...">
<polygon fill="none" stroke="black" points="380,-504.5 380,-523.5 446,-523.5 446,-504.5 380,-504.5"/>
<text text-anchor="middle" x="413" y="-511.5" font-family="Helvetica,sans-Serif" font-size="10.00">scene.hpp</text>
</a>
</g>
</g>
<!-- Node1&#45;&gt;Node2 -->
<g id="edge1" class="edge">
<title>Node1&#45;&gt;Node2</title>
<path fill="none" stroke="midnightblue" d="M413,-560.5C413,-552.07 413,-542.24 413,-533.87"/>
<polygon fill="midnightblue" stroke="midnightblue" points="416.5,-533.65 413,-523.65 409.5,-533.65 416.5,-533.65"/>
</g>
<!-- Node3 -->
<g id="node3" class="node">
<title>Node3</title>
<g id="a_node3"><a xlink:title=" ">
<polygon fill="none" stroke="#bfbfbf" points="69,-0.5 69,-19.5 129,-19.5 129,-0.5 69,-0.5"/>
<text text-anchor="middle" x="99" y="-7.5" font-family="Helvetica,sans-Serif" font-size="10.00">iostream</text>
</a>
</g>
</g>
<!-- Node2&#45;&gt;Node3 -->
<g id="edge2" class="edge">
<title>Node2&#45;&gt;Node3</title>
<path fill="none" stroke="midnightblue" d="M379.77,-513.74C295.07,-514.94 74.03,-513.52 20,-468 -3.01,-448.61 1,-433.1 1,-403 1,-403 1,-403 1,-121 1,-77.38 44.5,-43.06 73.53,-25.01"/>
<polygon fill="midnightblue" stroke="midnightblue" points="75.59,-27.86 82.38,-19.73 72,-21.85 75.59,-27.86"/>
</g>
<!-- Node4 -->
<g id="node4" class="node">
<title>Node4</title>
<g id="a_node4"><a xlink:title=" ">
<polygon fill="none" stroke="#bfbfbf" points="29.5,-448.5 29.5,-467.5 82.5,-467.5 82.5,-448.5 29.5,-448.5"/>
<text text-anchor="middle" x="56" y="-455.5" font-family="Helvetica,sans-Serif" font-size="10.00">stdlib.h</text>
</a>
</g>
</g>
<!-- Node2&#45;&gt;Node4 -->
<g id="edge3" class="edge">
<title>Node2&#45;&gt;Node4</title>
<path fill="none" stroke="midnightblue" d="M379.66,-509.08C321.89,-502.11 199.52,-486.53 97,-468 95.71,-467.77 94.4,-467.52 93.08,-467.27"/>
<polygon fill="midnightblue" stroke="midnightblue" points="93.35,-463.75 82.85,-465.19 91.96,-470.61 93.35,-463.75"/>
</g>
<!-- Node5 -->
<g id="node5" class="node">
<title>Node5</title>
<g id="a_node5"><a xlink:title=" ">
<polygon fill="none" stroke="#bfbfbf" points="138.5,-280.5 138.5,-299.5 193.5,-299.5 193.5,-280.5 138.5,-280.5"/>
<text text-anchor="middle" x="166" y="-287.5" font-family="Helvetica,sans-Serif" font-size="10.00">fstream</text>
</a>
</g>
</g>
<!-- Node2&#45;&gt;Node5 -->
<g id="edge4" class="edge">
<title>Node2&#45;&gt;Node5</title>
<path fill="none" stroke="midnightblue" d="M379.91,-512.87C312.25,-511.83 161.82,-505.27 130,-468 90.18,-421.34 132.23,-342.65 154.29,-308.11"/>
<polygon fill="midnightblue" stroke="midnightblue" points="157.32,-309.88 159.9,-299.61 151.47,-306.03 157.32,-309.88"/>
</g>
<!-- Node6 -->
<g id="node6" class="node">
<title>Node6</title>
<g id="a_node6"><a xlink:title=" ">
<polygon fill="none" stroke="#bfbfbf" points="494,-392.5 494,-411.5 550,-411.5 550,-392.5 494,-392.5"/>
<text text-anchor="middle" x="522" y="-399.5" font-family="Helvetica,sans-Serif" font-size="10.00">unistd.h</text>
</a>
</g>
</g>
<!-- Node2&#45;&gt;Node6 -->
<g id="edge5" class="edge">
<title>Node2&#45;&gt;Node6</title>
<path fill="none" stroke="midnightblue" d="M427.28,-504.49C440.53,-496.18 460.35,-482.68 475,-468 489.55,-453.43 502.98,-434 511.72,-420.19"/>
<polygon fill="midnightblue" stroke="midnightblue" points="514.71,-422.01 516.98,-411.66 508.75,-418.33 514.71,-422.01"/>
</g>
<!-- Node7 -->
<g id="node7" class="node">
<title>Node7</title>
<g id="a_node7"><a xlink:title=" ">
<polygon fill="none" stroke="#bfbfbf" points="223,-448.5 223,-467.5 281,-467.5 281,-448.5 223,-448.5"/>
<text text-anchor="middle" x="252" y="-455.5" font-family="Helvetica,sans-Serif" font-size="10.00">memory</text>
</a>
</g>
</g>
<!-- Node2&#45;&gt;Node7 -->
<g id="edge6" class="edge">
<title>Node2&#45;&gt;Node7</title>
<path fill="none" stroke="midnightblue" d="M387.49,-504.44C360.41,-495.36 317.41,-480.94 287.14,-470.78"/>
<polygon fill="midnightblue" stroke="midnightblue" points="287.99,-467.38 277.4,-467.52 285.76,-474.01 287.99,-467.38"/>
</g>
<!-- Node8 -->
<g id="node8" class="node">
<title>Node8</title>
<g id="a_node8"><a xlink:href="plane_8hpp.html" target="_top" xlink:title="Plik zawiera definicję klasy reprezentujacej plaska powierzchnie, obslugujacej zapis do plikow.">
<polygon fill="none" stroke="black" points="410.5,-392.5 410.5,-411.5 475.5,-411.5 475.5,-392.5 410.5,-392.5"/>
<text text-anchor="middle" x="443" y="-399.5" font-family="Helvetica,sans-Serif" font-size="10.00">plane.hpp</text>
</a>
</g>
</g>
<!-- Node2&#45;&gt;Node8 -->
<g id="edge7" class="edge">
<title>Node2&#45;&gt;Node8</title>
<path fill="none" stroke="midnightblue" d="M427.08,-504.26C438.36,-496.35 453.35,-483.58 460,-468 466.57,-452.61 460.44,-434.06 453.78,-420.72"/>
<polygon fill="midnightblue" stroke="midnightblue" points="456.69,-418.74 448.79,-411.68 450.56,-422.13 456.69,-418.74"/>
</g>
<!-- Node24 -->
<g id="node24" class="node">
<title>Node24</title>
<g id="a_node24"><a xlink:href="pyramid_8hpp.html" target="_top" xlink:title="Plik zawiera definicję klasy reprezentujacej ostroslup o prostokatnej podstawie w przestrzeni trojwym...">
<polygon fill="none" stroke="black" points="731,-448.5 731,-467.5 809,-467.5 809,-448.5 731,-448.5"/>
<text text-anchor="middle" x="770" y="-455.5" font-family="Helvetica,sans-Serif" font-size="10.00">pyramid.hpp</text>
</a>
</g>
</g>
<!-- Node2&#45;&gt;Node24 -->
<g id="edge35" class="edge">
<title>Node2&#45;&gt;Node24</title>
<path fill="none" stroke="midnightblue" d="M446.45,-508.58C501.5,-501.22 614.87,-485.63 721.07,-468.1"/>
<polygon fill="midnightblue" stroke="midnightblue" points="721.7,-471.54 730.99,-466.45 720.56,-464.64 721.7,-471.54"/>
</g>
<!-- Node26 -->
<g id="node26" class="node">
<title>Node26</title>
<g id="a_node26"><a xlink:href="triangular_8hpp.html" target="_top" xlink:title=" ">
<polygon fill="none" stroke="black" points="629,-448.5 629,-467.5 713,-467.5 713,-448.5 629,-448.5"/>
<text text-anchor="middle" x="671" y="-455.5" font-family="Helvetica,sans-Serif" font-size="10.00">triangular.hpp</text>
</a>
</g>
</g>
<!-- Node2&#45;&gt;Node26 -->
<g id="edge38" class="edge">
<title>Node2&#45;&gt;Node26</title>
<path fill="none" stroke="midnightblue" d="M446.2,-506.05C490.35,-496.81 568.79,-480.39 620.35,-469.6"/>
<polygon fill="midnightblue" stroke="midnightblue" points="621.21,-473 630.29,-467.52 619.78,-466.15 621.21,-473"/>
</g>
<!-- Node27 -->
<g id="node27" class="node">
<title>Node27</title>
<g id="a_node27"><a xlink:href="circus_8hpp.html" target="_top" xlink:title="Plik zawiera definicję klasy reprezentujacej Prism z podwyzszonym centrum, na ksztalt przypomina cyrk...">
<polygon fill="none" stroke="black" points="139,-448.5 139,-467.5 205,-467.5 205,-448.5 139,-448.5"/>
<text text-anchor="middle" x="172" y="-455.5" font-family="Helvetica,sans-Serif" font-size="10.00">circus.hpp</text>
</a>
</g>
</g>
<!-- Node2&#45;&gt;Node27 -->
<g id="edge40" class="edge">
<title>Node2&#45;&gt;Node27</title>
<path fill="none" stroke="midnightblue" d="M380,-505.6C337.24,-496.02 262.6,-479.3 215.32,-468.71"/>
<polygon fill="midnightblue" stroke="midnightblue" points="215.91,-465.25 205.38,-466.48 214.38,-472.08 215.91,-465.25"/>
</g>
<!-- Node29 -->
<g id="node29" class="node">
<title>Node29</title>
<g id="a_node29"><a xlink:href="tent_8hpp.html" target="_top" xlink:title="Plik zawiera definicję klasy reprezentujacej Prism bez gornej podstawy, =Ksztaltem przypomina namiot.">
<polygon fill="none" stroke="black" points="299.5,-448.5 299.5,-467.5 356.5,-467.5 356.5,-448.5 299.5,-448.5"/>
<text text-anchor="middle" x="328" y="-455.5" font-family="Helvetica,sans-Serif" font-size="10.00">tent.hpp</text>
</a>
</g>
</g>
<!-- Node2&#45;&gt;Node29 -->
<g id="edge43" class="edge">
<title>Node2&#45;&gt;Node29</title>
<path fill="none" stroke="midnightblue" d="M399.35,-504.32C386.09,-495.9 365.74,-482.97 350.16,-473.07"/>
<polygon fill="midnightblue" stroke="midnightblue" points="351.94,-470.06 341.63,-467.65 348.19,-475.97 351.94,-470.06"/>
</g>
<!-- Node30 -->
<g id="node30" class="node">
<title>Node30</title>
<g id="a_node30"><a xlink:href="volcano_8hpp.html" target="_top" xlink:title="Plik zawiera definicję klasy reprezentujacej wulkan, jest deformacja obiektu Prism.">
<polygon fill="none" stroke="black" points="375,-448.5 375,-467.5 451,-467.5 451,-448.5 375,-448.5"/>
<text text-anchor="middle" x="413" y="-455.5" font-family="Helvetica,sans-Serif" font-size="10.00">volcano.hpp</text>
</a>
</g>
</g>
<!-- Node2&#45;&gt;Node30 -->
<g id="edge45" class="edge">
<title>Node2&#45;&gt;Node30</title>
<path fill="none" stroke="midnightblue" d="M413,-504.08C413,-497.01 413,-486.86 413,-477.99"/>
<polygon fill="midnightblue" stroke="midnightblue" points="416.5,-477.75 413,-467.75 409.5,-477.75 416.5,-477.75"/>
</g>
<!-- Node31 -->
<g id="node31" class="node">
<title>Node31</title>
<g id="a_node31"><a xlink:href="drone_8hpp.html" target="_top" xlink:title="Plik zawiera definicję klasy reprezentujacej drona, budowanie i przemieszczanie go.">
<polygon fill="none" stroke="black" points="545.5,-448.5 545.5,-467.5 610.5,-467.5 610.5,-448.5 545.5,-448.5"/>
<text text-anchor="middle" x="578" y="-455.5" font-family="Helvetica,sans-Serif" font-size="10.00">drone.hpp</text>
</a>
</g>
</g>
<!-- Node2&#45;&gt;Node31 -->
<g id="edge47" class="edge">
<title>Node2&#45;&gt;Node31</title>
<path fill="none" stroke="midnightblue" d="M439.15,-504.44C467.03,-495.32 511.35,-480.81 542.4,-470.65"/>
<polygon fill="midnightblue" stroke="midnightblue" points="543.57,-473.95 551.98,-467.52 541.39,-467.3 543.57,-473.95"/>
</g>
<!-- Node32 -->
<g id="node32" class="node">
<title>Node32</title>
<g id="a_node32"><a xlink:href="lacze__do__gnuplota_8hpp.html" target="_top" xlink:title=" ">
<polygon fill="none" stroke="black" points="694,-392.5 694,-411.5 822,-411.5 822,-392.5 694,-392.5"/>
<text text-anchor="middle" x="758" y="-399.5" font-family="Helvetica,sans-Serif" font-size="10.00">lacze_do_gnuplota.hpp</text>
</a>
</g>
</g>
<!-- Node2&#45;&gt;Node32 -->
<g id="edge56" class="edge">
<title>Node2&#45;&gt;Node32</title>
<path fill="none" stroke="midnightblue" d="M446.12,-511.8C538.4,-508.14 793.32,-495.58 818,-468 834.12,-450 807.77,-429.57 785.06,-416.5"/>
<polygon fill="midnightblue" stroke="midnightblue" points="786.45,-413.28 776,-411.54 783.09,-419.42 786.45,-413.28"/>
</g>
<!-- Node9 -->
<g id="node9" class="node">
<title>Node9</title>
<g id="a_node9"><a xlink:href="block_8hpp.html" target="_top" xlink:title="Plik zawiera definicję klasy reprezentujacej bryle w przestrzeni trojwymiarowej.">
<polygon fill="none" stroke="black" points="395,-336.5 395,-355.5 459,-355.5 459,-336.5 395,-336.5"/>
<text text-anchor="middle" x="427" y="-343.5" font-family="Helvetica,sans-Serif" font-size="10.00">block.hpp</text>
</a>
</g>
</g>
<!-- Node8&#45;&gt;Node9 -->
<g id="edge8" class="edge">
<title>Node8&#45;&gt;Node9</title>
<path fill="none" stroke="midnightblue" d="M440.36,-392.08C438.22,-384.85 435.13,-374.41 432.45,-365.4"/>
<polygon fill="midnightblue" stroke="midnightblue" points="435.79,-364.34 429.6,-355.75 429.08,-366.33 435.79,-364.34"/>
</g>
<!-- Node9&#45;&gt;Node5 -->
<g id="edge10" class="edge">
<title>Node9&#45;&gt;Node5</title>
<path fill="none" stroke="midnightblue" d="M395,-338.38C346.74,-328.39 255.5,-309.52 203.95,-298.85"/>
<polygon fill="midnightblue" stroke="midnightblue" points="204.39,-295.37 193.89,-296.77 202.97,-302.22 204.39,-295.37"/>
</g>
<!-- Node10 -->
<g id="node10" class="node">
<title>Node10</title>
<g id="a_node10"><a xlink:title=" ">
<polygon fill="none" stroke="#bfbfbf" points="624,-280.5 624,-299.5 668,-299.5 668,-280.5 624,-280.5"/>
<text text-anchor="middle" x="646" y="-287.5" font-family="Helvetica,sans-Serif" font-size="10.00">string</text>
</a>
</g>
</g>
<!-- Node9&#45;&gt;Node10 -->
<g id="edge9" class="edge">
<title>Node9&#45;&gt;Node10</title>
<path fill="none" stroke="midnightblue" d="M459.32,-337.03C500.89,-326.78 572.66,-309.09 614.05,-298.88"/>
<polygon fill="midnightblue" stroke="midnightblue" points="615.01,-302.25 623.89,-296.45 613.34,-295.45 615.01,-302.25"/>
</g>
<!-- Node11 -->
<g id="node11" class="node">
<title>Node11</title>
<g id="a_node11"><a xlink:href="vector3_d_8hpp.html" target="_top" xlink:title="Zawiera deklaracje klasy Vector3D.">
<polygon fill="none" stroke="black" points="401,-168.5 401,-187.5 483,-187.5 483,-168.5 401,-168.5"/>
<text text-anchor="middle" x="442" y="-175.5" font-family="Helvetica,sans-Serif" font-size="10.00">vector3D.hpp</text>
</a>
</g>
</g>
<!-- Node9&#45;&gt;Node11 -->
<g id="edge11" class="edge">
<title>Node9&#45;&gt;Node11</title>
<path fill="none" stroke="midnightblue" d="M434.99,-336.43C449.59,-320.04 479.93,-282.45 489,-244 491.05,-235.35 492.49,-232.17 489,-224 483.86,-211.95 473.72,-201.58 464.18,-193.84"/>
<polygon fill="midnightblue" stroke="midnightblue" points="466.18,-190.96 456.08,-187.74 461.96,-196.55 466.18,-190.96"/>
</g>
<!-- Node12 -->
<g id="node12" class="node">
<title>Node12</title>
<g id="a_node12"><a xlink:href="vector_8hpp.html" target="_top" xlink:title=" ">
<polygon fill="none" stroke="black" points="274,-112.5 274,-131.5 342,-131.5 342,-112.5 274,-112.5"/>
<text text-anchor="middle" x="308" y="-119.5" font-family="Helvetica,sans-Serif" font-size="10.00">vector.hpp</text>
</a>
</g>
</g>
<!-- Node9&#45;&gt;Node12 -->
<g id="edge23" class="edge">
<title>Node9&#45;&gt;Node12</title>
<path fill="none" stroke="midnightblue" d="M407.22,-336.35C392.19,-328.82 372.1,-316.5 360,-300 323.77,-250.57 312.65,-176.13 309.34,-141.7"/>
<polygon fill="midnightblue" stroke="midnightblue" points="312.83,-141.32 308.5,-131.65 305.85,-141.91 312.83,-141.32"/>
</g>
<!-- Node15 -->
<g id="node15" class="node">
<title>Node15</title>
<g id="a_node15"><a xlink:href="count_8hpp.html" target="_top" xlink:title="Plik zawiera definicję klasy reprezentujacej counter, pozwalajacy na liczenie instancji stworzonych k...">
<polygon fill="none" stroke="black" points="400.5,-56.5 400.5,-75.5 465.5,-75.5 465.5,-56.5 400.5,-56.5"/>
<text text-anchor="middle" x="433" y="-63.5" font-family="Helvetica,sans-Serif" font-size="10.00">count.hpp</text>
</a>
</g>
</g>
<!-- Node9&#45;&gt;Node15 -->
<g id="edge22" class="edge">
<title>Node9&#45;&gt;Node15</title>
<path fill="none" stroke="midnightblue" d="M457.47,-336.4C499.19,-322.53 569,-290.98 569,-235 569,-235 569,-235 569,-177 569,-126.08 510.66,-94.67 470.4,-79.06"/>
<polygon fill="midnightblue" stroke="midnightblue" points="471.45,-75.72 460.85,-75.52 469.01,-82.28 471.45,-75.72"/>
</g>
<!-- Node19 -->
<g id="node19" class="node">
<title>Node19</title>
<g id="a_node19"><a xlink:href="matrix3_d_8hpp.html" target="_top" xlink:title="Zawiera deklaracje klasy Matrix3D.">
<polygon fill="none" stroke="black" points="368.5,-280.5 368.5,-299.5 451.5,-299.5 451.5,-280.5 368.5,-280.5"/>
<text text-anchor="middle" x="410" y="-287.5" font-family="Helvetica,sans-Serif" font-size="10.00">matrix3D.hpp</text>
</a>
</g>
</g>
<!-- Node9&#45;&gt;Node19 -->
<g id="edge24" class="edge">
<title>Node9&#45;&gt;Node19</title>
<path fill="none" stroke="midnightblue" d="M424.2,-336.08C421.92,-328.85 418.63,-318.41 415.8,-309.4"/>
<polygon fill="midnightblue" stroke="midnightblue" points="419.1,-308.24 412.76,-299.75 412.42,-310.34 419.1,-308.24"/>
</g>
<!-- Node20 -->
<g id="node20" class="node">
<title>Node20</title>
<g id="a_node20"><a xlink:href="matrix_8hpp.html" target="_top" xlink:title=" ">
<polygon fill="none" stroke="black" points="229,-224.5 229,-243.5 299,-243.5 299,-224.5 229,-224.5"/>
<text text-anchor="middle" x="264" y="-231.5" font-family="Helvetica,sans-Serif" font-size="10.00">matrix.hpp</text>
</a>
</g>
</g>
<!-- Node9&#45;&gt;Node20 -->
<g id="edge34" class="edge">
<title>Node9&#45;&gt;Node20</title>
<path fill="none" stroke="midnightblue" d="M394.89,-337.42C370.64,-330.55 337.47,-318.62 313,-300 296.19,-287.21 282.3,-267.19 273.66,-252.75"/>
<polygon fill="midnightblue" stroke="midnightblue" points="276.54,-250.74 268.54,-243.8 270.47,-254.21 276.54,-250.74"/>
</g>
<!-- Node11&#45;&gt;Node12 -->
<g id="edge12" class="edge">
<title>Node11&#45;&gt;Node12</title>
<path fill="none" stroke="midnightblue" d="M420.77,-168.44C398.62,-159.52 363.69,-145.44 338.57,-135.32"/>
<polygon fill="midnightblue" stroke="midnightblue" points="339.72,-132.01 329.14,-131.52 337.1,-138.5 339.72,-132.01"/>
</g>
<!-- Node18 -->
<g id="node18" class="node">
<title>Node18</title>
<g id="a_node18"><a xlink:href="vector3_d_8cpp.html" target="_top" xlink:title=" ">
<polygon fill="none" stroke="black" points="388.5,-112.5 388.5,-131.5 495.5,-131.5 495.5,-112.5 388.5,-112.5"/>
<text text-anchor="middle" x="442" y="-119.5" font-family="Helvetica,sans-Serif" font-size="10.00">../src/vector3D.cpp</text>
</a>
</g>
</g>
<!-- Node11&#45;&gt;Node18 -->
<g id="edge20" class="edge">
<title>Node11&#45;&gt;Node18</title>
<path fill="none" stroke="midnightblue" d="M436.84,-168.08C435.33,-160.93 434.9,-150.64 435.55,-141.69"/>
<polygon fill="midnightblue" stroke="midnightblue" points="439.02,-142.13 436.87,-131.75 432.08,-141.2 439.02,-142.13"/>
</g>
<!-- Node12&#45;&gt;Node3 -->
<g id="edge13" class="edge">
<title>Node12&#45;&gt;Node3</title>
<path fill="none" stroke="midnightblue" d="M273.89,-118.95C237.79,-115.26 180.67,-104.93 141,-76 124.76,-64.15 113.15,-43.94 106.31,-29.19"/>
<polygon fill="midnightblue" stroke="midnightblue" points="109.36,-27.41 102.18,-19.62 102.93,-30.19 109.36,-27.41"/>
</g>
<!-- Node13 -->
<g id="node13" class="node">
<title>Node13</title>
<g id="a_node13"><a xlink:title=" ">
<polygon fill="none" stroke="#bfbfbf" points="260.5,-56.5 260.5,-75.5 307.5,-75.5 307.5,-56.5 260.5,-56.5"/>
<text text-anchor="middle" x="284" y="-63.5" font-family="Helvetica,sans-Serif" font-size="10.00">cmath</text>
</a>
</g>
</g>
<!-- Node12&#45;&gt;Node13 -->
<g id="edge14" class="edge">
<title>Node12&#45;&gt;Node13</title>
<path fill="none" stroke="midnightblue" d="M304.04,-112.08C300.79,-104.77 296.08,-94.18 292.05,-85.1"/>
<polygon fill="midnightblue" stroke="midnightblue" points="295.15,-83.47 287.89,-75.75 288.76,-86.31 295.15,-83.47"/>
</g>
<!-- Node14 -->
<g id="node14" class="node">
<title>Node14</title>
<g id="a_node14"><a xlink:title=" ">
<polygon fill="none" stroke="#bfbfbf" points="326,-56.5 326,-75.5 382,-75.5 382,-56.5 326,-56.5"/>
<text text-anchor="middle" x="354" y="-63.5" font-family="Helvetica,sans-Serif" font-size="10.00">iomanip</text>
</a>
</g>
</g>
<!-- Node12&#45;&gt;Node14 -->
<g id="edge15" class="edge">
<title>Node12&#45;&gt;Node14</title>
<path fill="none" stroke="midnightblue" d="M315.6,-112.08C322.23,-104.3 332.02,-92.8 340.06,-83.37"/>
<polygon fill="midnightblue" stroke="midnightblue" points="342.73,-85.63 346.55,-75.75 337.4,-81.09 342.73,-85.63"/>
</g>
<!-- Node12&#45;&gt;Node15 -->
<g id="edge16" class="edge">
<title>Node12&#45;&gt;Node15</title>
<path fill="none" stroke="midnightblue" d="M327.81,-112.44C348.29,-103.6 380.49,-89.69 403.87,-79.59"/>
<polygon fill="midnightblue" stroke="midnightblue" points="405.5,-82.7 413.29,-75.52 402.72,-76.27 405.5,-82.7"/>
</g>
<!-- Node17 -->
<g id="node17" class="node">
<title>Node17</title>
<g id="a_node17"><a xlink:title=" ">
<polygon fill="none" stroke="#bfbfbf" points="150,-56.5 150,-75.5 242,-75.5 242,-56.5 150,-56.5"/>
<text text-anchor="middle" x="196" y="-63.5" font-family="Helvetica,sans-Serif" font-size="10.00">../src/vector.tpp</text>
</a>
</g>
</g>
<!-- Node12&#45;&gt;Node17 -->
<g id="edge19" class="edge">
<title>Node12&#45;&gt;Node17</title>
<path fill="none" stroke="midnightblue" d="M290.01,-112.32C271.97,-103.62 243.96,-90.12 223.2,-80.11"/>
<polygon fill="midnightblue" stroke="midnightblue" points="224.48,-76.84 213.95,-75.65 221.44,-83.15 224.48,-76.84"/>
</g>
<!-- Node15&#45;&gt;Node3 -->
<g id="edge17" class="edge">
<title>Node15&#45;&gt;Node3</title>
<path fill="none" stroke="midnightblue" d="M400.48,-57.84C397.28,-57.19 394.08,-56.57 391,-56 301.49,-39.53 195.77,-24.27 139.32,-16.46"/>
<polygon fill="midnightblue" stroke="midnightblue" points="139.75,-12.98 129.37,-15.09 138.8,-19.92 139.75,-12.98"/>
</g>
<!-- Node16 -->
<g id="node16" class="node">
<title>Node16</title>
<g id="a_node16"><a xlink:title=" ">
<polygon fill="none" stroke="#bfbfbf" points="388.5,-0.5 388.5,-19.5 477.5,-19.5 477.5,-0.5 388.5,-0.5"/>
<text text-anchor="middle" x="433" y="-7.5" font-family="Helvetica,sans-Serif" font-size="10.00">../src/count.tpp</text>
</a>
</g>
</g>
<!-- Node15&#45;&gt;Node16 -->
<g id="edge18" class="edge">
<title>Node15&#45;&gt;Node16</title>
<path fill="none" stroke="midnightblue" d="M433,-56.08C433,-49.01 433,-38.86 433,-29.99"/>
<polygon fill="midnightblue" stroke="midnightblue" points="436.5,-29.75 433,-19.75 429.5,-29.75 436.5,-29.75"/>
</g>
<!-- Node18&#45;&gt;Node11 -->
<g id="edge21" class="edge">
<title>Node18&#45;&gt;Node11</title>
<path fill="none" stroke="midnightblue" d="M447.14,-131.75C448.66,-138.86 449.11,-149.14 448.48,-158.1"/>
<polygon fill="midnightblue" stroke="midnightblue" points="445,-157.71 447.17,-168.08 451.94,-158.62 445,-157.71"/>
</g>
<!-- Node19&#45;&gt;Node11 -->
<g id="edge31" class="edge">
<title>Node19&#45;&gt;Node11</title>
<path fill="none" stroke="midnightblue" d="M431.49,-280.36C446.4,-273.09 465.11,-261.12 474,-244 482.55,-227.55 470.64,-208.49 459.01,-195.28"/>
<polygon fill="midnightblue" stroke="midnightblue" points="461.41,-192.73 451.98,-187.89 456.33,-197.55 461.41,-192.73"/>
</g>
<!-- Node19&#45;&gt;Node20 -->
<g id="edge25" class="edge">
<title>Node19&#45;&gt;Node20</title>
<path fill="none" stroke="midnightblue" d="M386.87,-280.44C362.52,-271.44 324,-257.19 296.58,-247.05"/>
<polygon fill="midnightblue" stroke="midnightblue" points="297.62,-243.7 287.03,-243.52 295.19,-250.27 297.62,-243.7"/>
</g>
<!-- Node23 -->
<g id="node23" class="node">
<title>Node23</title>
<g id="a_node23"><a xlink:href="matrix3_d_8cpp.html" target="_top" xlink:title=" ">
<polygon fill="none" stroke="black" points="355.5,-224.5 355.5,-243.5 464.5,-243.5 464.5,-224.5 355.5,-224.5"/>
<text text-anchor="middle" x="410" y="-231.5" font-family="Helvetica,sans-Serif" font-size="10.00">../src/matrix3D.cpp</text>
</a>
</g>
</g>
<!-- Node19&#45;&gt;Node23 -->
<g id="edge32" class="edge">
<title>Node19&#45;&gt;Node23</title>
<path fill="none" stroke="midnightblue" d="M404.84,-280.08C403.33,-272.93 402.9,-262.64 403.55,-253.69"/>
<polygon fill="midnightblue" stroke="midnightblue" points="407.02,-254.13 404.87,-243.75 400.08,-253.2 407.02,-254.13"/>
</g>
<!-- Node20&#45;&gt;Node3 -->
<g id="edge28" class="edge">
<title>Node20&#45;&gt;Node3</title>
<path fill="none" stroke="midnightblue" d="M228.96,-228.98C183.18,-222.91 106.86,-209.77 90,-188 53.47,-140.82 77.46,-63.54 91.23,-28.85"/>
<polygon fill="midnightblue" stroke="midnightblue" points="94.5,-30.1 95.1,-19.53 88.03,-27.42 94.5,-30.1"/>
</g>
<!-- Node20&#45;&gt;Node11 -->
<g id="edge27" class="edge">
<title>Node20&#45;&gt;Node11</title>
<path fill="none" stroke="midnightblue" d="M292.21,-224.44C322.41,-215.28 370.52,-200.69 404.03,-190.52"/>
<polygon fill="midnightblue" stroke="midnightblue" points="405.38,-193.77 413.93,-187.52 403.35,-187.07 405.38,-193.77"/>
</g>
<!-- Node20&#45;&gt;Node12 -->
<g id="edge26" class="edge">
<title>Node20&#45;&gt;Node12</title>
<path fill="none" stroke="midnightblue" d="M267.46,-224.37C274.62,-206.46 291.23,-164.92 300.82,-140.95"/>
<polygon fill="midnightblue" stroke="midnightblue" points="304.1,-142.18 304.57,-131.59 297.6,-139.58 304.1,-142.18"/>
</g>
<!-- Node21 -->
<g id="node21" class="node">
<title>Node21</title>
<g id="a_node21"><a xlink:title=" ">
<polygon fill="none" stroke="#bfbfbf" points="99.5,-168.5 99.5,-187.5 148.5,-187.5 148.5,-168.5 99.5,-168.5"/>
<text text-anchor="middle" x="124" y="-175.5" font-family="Helvetica,sans-Serif" font-size="10.00">cstdlib</text>
</a>
</g>
</g>
<!-- Node20&#45;&gt;Node21 -->
<g id="edge29" class="edge">
<title>Node20&#45;&gt;Node21</title>
<path fill="none" stroke="midnightblue" d="M241.82,-224.44C218.58,-215.48 181.86,-201.31 155.59,-191.18"/>
<polygon fill="midnightblue" stroke="midnightblue" points="156.67,-187.85 146.08,-187.52 154.15,-194.38 156.67,-187.85"/>
</g>
<!-- Node22 -->
<g id="node22" class="node">
<title>Node22</title>
<g id="a_node22"><a xlink:title=" ">
<polygon fill="none" stroke="#bfbfbf" points="167,-168.5 167,-187.5 261,-187.5 261,-168.5 167,-168.5"/>
<text text-anchor="middle" x="214" y="-175.5" font-family="Helvetica,sans-Serif" font-size="10.00">../src/matrix.tpp</text>
</a>
</g>
</g>
<!-- Node20&#45;&gt;Node22 -->
<g id="edge30" class="edge">
<title>Node20&#45;&gt;Node22</title>
<path fill="none" stroke="midnightblue" d="M255.75,-224.08C248.54,-216.3 237.89,-204.8 229.16,-195.37"/>
<polygon fill="midnightblue" stroke="midnightblue" points="231.47,-192.71 222.11,-187.75 226.33,-197.47 231.47,-192.71"/>
</g>
<!-- Node23&#45;&gt;Node19 -->
<g id="edge33" class="edge">
<title>Node23&#45;&gt;Node19</title>
<path fill="none" stroke="midnightblue" d="M415.14,-243.75C416.66,-250.86 417.11,-261.14 416.48,-270.1"/>
<polygon fill="midnightblue" stroke="midnightblue" points="413,-269.71 415.17,-280.08 419.94,-270.62 413,-269.71"/>
</g>
<!-- Node25 -->
<g id="node25" class="node">
<title>Node25</title>
<g id="a_node25"><a xlink:href="cuboid_8hpp.html" target="_top" xlink:title="Plik zawiera definicję klasy reprezentujacej prostopadloscian w przestrzeni trojwymiarowej.">
<polygon fill="none" stroke="black" points="606,-392.5 606,-411.5 676,-411.5 676,-392.5 606,-392.5"/>
<text text-anchor="middle" x="641" y="-399.5" font-family="Helvetica,sans-Serif" font-size="10.00">cuboid.hpp</text>
</a>
</g>
</g>
<!-- Node24&#45;&gt;Node25 -->
<g id="edge36" class="edge">
<title>Node24&#45;&gt;Node25</title>
<path fill="none" stroke="midnightblue" d="M749.56,-448.44C728.33,-439.56 694.9,-425.56 670.75,-415.45"/>
<polygon fill="midnightblue" stroke="midnightblue" points="671.92,-412.15 661.35,-411.52 669.22,-418.61 671.92,-412.15"/>
</g>
<!-- Node25&#45;&gt;Node9 -->
<g id="edge37" class="edge">
<title>Node25&#45;&gt;Node9</title>
<path fill="none" stroke="midnightblue" d="M607.1,-392.44C569.61,-382.99 509.2,-367.74 468.82,-357.55"/>
<polygon fill="midnightblue" stroke="midnightblue" points="469.56,-354.13 459.01,-355.08 467.85,-360.92 469.56,-354.13"/>
</g>
<!-- Node26&#45;&gt;Node25 -->
<g id="edge39" class="edge">
<title>Node26&#45;&gt;Node25</title>
<path fill="none" stroke="midnightblue" d="M666.05,-448.08C661.9,-440.61 655.85,-429.72 650.74,-420.52"/>
<polygon fill="midnightblue" stroke="midnightblue" points="653.78,-418.79 645.87,-411.75 647.66,-422.19 653.78,-418.79"/>
</g>
<!-- Node28 -->
<g id="node28" class="node">
<title>Node28</title>
<g id="a_node28"><a xlink:href="prism_8hpp.html" target="_top" xlink:title="Plik zawiera definicję klasy reprezentujacej graniastoslup o podstawie o 6 wierzcholkach w przestrzen...">
<polygon fill="none" stroke="black" points="327.5,-392.5 327.5,-411.5 392.5,-411.5 392.5,-392.5 327.5,-392.5"/>
<text text-anchor="middle" x="360" y="-399.5" font-family="Helvetica,sans-Serif" font-size="10.00">prism.hpp</text>
</a>
</g>
</g>
<!-- Node27&#45;&gt;Node28 -->
<g id="edge41" class="edge">
<title>Node27&#45;&gt;Node28</title>
<path fill="none" stroke="midnightblue" d="M201.79,-448.44C233.83,-439.24 284.94,-424.56 320.36,-414.39"/>
<polygon fill="midnightblue" stroke="midnightblue" points="321.71,-417.64 330.35,-411.52 319.78,-410.91 321.71,-417.64"/>
</g>
<!-- Node28&#45;&gt;Node9 -->
<g id="edge42" class="edge">
<title>Node28&#45;&gt;Node9</title>
<path fill="none" stroke="midnightblue" d="M370.77,-392.32C380.77,-384.26 395.89,-372.08 407.93,-362.37"/>
<polygon fill="midnightblue" stroke="midnightblue" points="410.45,-364.83 416.04,-355.83 406.06,-359.38 410.45,-364.83"/>
</g>
<!-- Node29&#45;&gt;Node28 -->
<g id="edge44" class="edge">
<title>Node29&#45;&gt;Node28</title>
<path fill="none" stroke="midnightblue" d="M333.29,-448.08C337.71,-440.61 344.17,-429.72 349.62,-420.52"/>
<polygon fill="midnightblue" stroke="midnightblue" points="352.73,-422.14 354.82,-411.75 346.71,-418.57 352.73,-422.14"/>
</g>
<!-- Node30&#45;&gt;Node28 -->
<g id="edge46" class="edge">
<title>Node30&#45;&gt;Node28</title>
<path fill="none" stroke="midnightblue" d="M404.25,-448.08C396.53,-440.22 385.1,-428.57 375.79,-419.08"/>
<polygon fill="midnightblue" stroke="midnightblue" points="378.1,-416.44 368.59,-411.75 373.1,-421.34 378.1,-416.44"/>
</g>
<!-- Node31&#45;&gt;Node6 -->
<g id="edge54" class="edge">
<title>Node31&#45;&gt;Node6</title>
<path fill="none" stroke="midnightblue" d="M569.01,-448.32C560.81,-440.42 548.5,-428.55 538.53,-418.94"/>
<polygon fill="midnightblue" stroke="midnightblue" points="540.79,-416.26 531.17,-411.83 535.93,-421.29 540.79,-416.26"/>
</g>
<!-- Node31&#45;&gt;Node25 -->
<g id="edge49" class="edge">
<title>Node31&#45;&gt;Node25</title>
<path fill="none" stroke="midnightblue" d="M588.13,-448.32C597.53,-440.26 611.75,-428.08 623.07,-418.37"/>
<polygon fill="midnightblue" stroke="midnightblue" points="625.38,-421 630.7,-411.83 620.83,-415.68 625.38,-421"/>
</g>
<!-- Node31&#45;&gt;Node28 -->
<g id="edge48" class="edge">
<title>Node31&#45;&gt;Node28</title>
<path fill="none" stroke="midnightblue" d="M545.37,-448.92C507.29,-439.48 444.23,-423.86 402.4,-413.5"/>
<polygon fill="midnightblue" stroke="midnightblue" points="403.06,-410.06 392.51,-411.05 401.37,-416.85 403.06,-410.06"/>
</g>
<!-- Node31&#45;&gt;Node32 -->
<g id="edge50" class="edge">
<title>Node31&#45;&gt;Node32</title>
<path fill="none" stroke="midnightblue" d="M606.53,-448.44C637.07,-439.28 685.71,-424.69 719.61,-414.52"/>
<polygon fill="midnightblue" stroke="midnightblue" points="721.04,-417.74 729.62,-411.52 719.03,-411.04 721.04,-417.74"/>
</g>
<!-- Node34 -->
<g id="node34" class="node">
<title>Node34</title>
<g id="a_node34"><a xlink:title=" ">
<polygon fill="none" stroke="#bfbfbf" points="575.5,-336.5 575.5,-355.5 622.5,-355.5 622.5,-336.5 575.5,-336.5"/>
<text text-anchor="middle" x="599" y="-343.5" font-family="Helvetica,sans-Serif" font-size="10.00">vector</text>
</a>
</g>
</g>
<!-- Node31&#45;&gt;Node34 -->
<g id="edge55" class="edge">
<title>Node31&#45;&gt;Node34</title>
<path fill="none" stroke="midnightblue" d="M579.65,-448.37C583.04,-430.62 590.86,-389.67 595.45,-365.6"/>
<polygon fill="midnightblue" stroke="midnightblue" points="598.93,-366.07 597.36,-355.59 592.05,-364.76 598.93,-366.07"/>
</g>
<!-- Node32&#45;&gt;Node10 -->
<g id="edge51" class="edge">
<title>Node32&#45;&gt;Node10</title>
<path fill="none" stroke="midnightblue" d="M749.22,-392.37C730.41,-373.89 686.01,-330.29 662.03,-306.74"/>
<polygon fill="midnightblue" stroke="midnightblue" points="664.34,-304.1 654.75,-299.59 659.43,-309.1 664.34,-304.1"/>
</g>
<!-- Node33 -->
<g id="node33" class="node">
<title>Node33</title>
<g id="a_node33"><a xlink:title=" ">
<polygon fill="none" stroke="#bfbfbf" points="742,-336.5 742,-355.5 774,-355.5 774,-336.5 742,-336.5"/>
<text text-anchor="middle" x="758" y="-343.5" font-family="Helvetica,sans-Serif" font-size="10.00">list</text>
</a>
</g>
</g>
<!-- Node32&#45;&gt;Node33 -->
<g id="edge52" class="edge">
<title>Node32&#45;&gt;Node33</title>
<path fill="none" stroke="midnightblue" d="M758,-392.08C758,-385.01 758,-374.86 758,-365.99"/>
<polygon fill="midnightblue" stroke="midnightblue" points="761.5,-365.75 758,-355.75 754.5,-365.75 761.5,-365.75"/>
</g>
<!-- Node32&#45;&gt;Node34 -->
<g id="edge53" class="edge">
<title>Node32&#45;&gt;Node34</title>
<path fill="none" stroke="midnightblue" d="M732.81,-392.44C705.59,-383.2 662.1,-368.43 632.13,-358.25"/>
<polygon fill="midnightblue" stroke="midnightblue" points="633.12,-354.89 622.53,-354.99 630.87,-361.52 633.12,-354.89"/>
</g>
</g>
</svg>
        <g id="navigator" transform="translate(0 0)" fill="#404254">
                <rect fill="#f2f5e9" fill-opacity="0.5" stroke="#606060" stroke-width=".5" x="0" y="0" width="60" height="60"/>
                <use id="zoomplus" xlink:href="#zoomPlus" x="17" y="9" onmousedown="handleZoom(evt,'in')"/>
                <use id="zoomminus" xlink:href="#zoomMin" x="42" y="9" onmousedown="handleZoom(evt,'out')"/>
                <use id="reset" xlink:href="#resetDef" x="30" y="36" onmousedown="handleReset()"/>
                <g id="arrowUp" xlink:href="#dirArrow" transform="translate(30 24)" onmousedown="handlePan(0,-1)">
                  <use xlink:href="#rim" fill="#404040">
                        <set attributeName="fill" to="#808080" begin="arrowUp.mouseover" end="arrowUp.mouseout"/>
                  </use>
                  <path fill="none" stroke="white" stroke-width="1.5" d="M0,-3.0v7 M-2.5,-0.5L0,-3.0L2.5,-0.5"/>
                </g>
                <g id="arrowRight" xlink:href="#dirArrow" transform="rotate(90) translate(36 -43)" onmousedown="handlePan(1,0)">
                  <use xlink:href="#rim" fill="#404040">
                        <set attributeName="fill" to="#808080" begin="arrowRight.mouseover" end="arrowRight.mouseout"/>
                  </use>
                  <path fill="none" stroke="white" stroke-width="1.5" d="M0,-3.0v7 M-2.5,-0.5L0,-3.0L2.5,-0.5"/>
                </g>
                <g id="arrowDown" xlink:href="#dirArrow" transform="rotate(180) translate(-30 -48)" onmousedown="handlePan(0,1)">
                  <use xlink:href="#rim" fill="#404040">
                        <set attributeName="fill" to="#808080" begin="arrowDown.mouseover" end="arrowDown.mouseout"/>
                  </use>
                  <path fill="none" stroke="white" stroke-width="1.5" d="M0,-3.0v7 M-2.5,-0.5L0,-3.0L2.5,-0.5"/>
                </g>
                <g id="arrowLeft" xlink:href="#dirArrow" transform="rotate(270) translate(-36 17)" onmousedown="handlePan(-1,0)">
                  <use xlink:href="#rim" fill="#404040">
                        <set attributeName="fill" to="#808080" begin="arrowLeft.mouseover" end="arrowLeft.mouseout"/>
                  </use>
                  <path fill="none" stroke="white" stroke-width="1.5" d="M0,-3.0v7 M-2.5,-0.5L0,-3.0L2.5,-0.5"/>
                </g>
        </g>
        <svg viewBox="0 0 15 15" width="100%" height="30px" preserveAspectRatio="xMaxYMin meet">
         <g id="arrow_out" transform="scale(0.3 0.3)">
          <a xlink:href="menu_8hpp__incl_org.svg" target="_base">
           <rect id="button" ry="5" rx="5" y="6" x="6" height="38" width="38"
                fill="#f2f5e9" fill-opacity="0.5" stroke="#606060" stroke-width="1.0"/>
           <path id="arrow"
             d="M 11.500037,31.436501 C 11.940474,20.09759 22.043105,11.32322 32.158766,21.979434 L 37.068811,17.246167 C 37.068811,17.246167 37.088388,32 37.088388,32 L 22.160133,31.978069 C 22.160133,31.978069 26.997745,27.140456 26.997745,27.140456 C 18.528582,18.264221 13.291696,25.230495 11.500037,31.436501 z"
             style="fill:#404040;"/>
          </a>
         </g>
        </svg>
</svg>
