<?xml version="1.0" encoding="UTF-8" standalone="no"?>
<!DOCTYPE svg PUBLIC "-//W3C//DTD SVG 1.1//EN"
 "http://www.w3.org/Graphics/SVG/1.1/DTD/svg11.dtd">
<!-- Generated by graphviz version 2.43.0 (0)
 -->
<!-- Title: PzG::UsunOstatniaNazwePliku Pages: 1 -->
<svg width="402pt" height="88pt"
 viewBox="0.00 0.00 402.00 88.00" xmlns="http://www.w3.org/2000/svg" xmlns:xlink="http://www.w3.org/1999/xlink">
<g id="graph0" class="graph" transform="scale(1 1) rotate(0) translate(4 84)">
<title>PzG::UsunOstatniaNazwePliku</title>
<!-- Node1 -->
<g id="node1" class="node">
<title>Node1</title>
<g id="a_node1"><a xlink:title="Usuwa ostatnia nazwę pliku z listy plików do rysowania.">
<polygon fill="#bfbfbf" stroke="black" points="230,-30 230,-49 394,-49 394,-30 230,-30"/>
<text text-anchor="middle" x="312" y="-37" font-family="Helvetica,sans-Serif" font-size="10.00">PzG::UsunOstatniaNazwePliku</text>
</a>
</g>
</g>
<!-- Node2 -->
<g id="node2" class="node">
<title>Node2</title>
<g id="a_node2"><a xlink:href="class_pz_g_1_1_lacze_do_g_n_u_plota.html#ac9b77a032e256c3143b984509a8b4bb5" target="_top" xlink:title="Usuwa ostatnią nazwę pliku.">
<polygon fill="none" stroke="black" points="0,-49.5 0,-79.5 194,-79.5 194,-49.5 0,-49.5"/>
<text text-anchor="start" x="8" y="-67.5" font-family="Helvetica,sans-Serif" font-size="10.00">PzG::LaczeDoGNUPlota</text>
<text text-anchor="middle" x="97" y="-56.5" font-family="Helvetica,sans-Serif" font-size="10.00">::UsunOstatniaNazwe_ListaGlobalna</text>
</a>
</g>
</g>
<!-- Node1&#45;&gt;Node2 -->
<g id="edge1" class="edge">
<title>Node1&#45;&gt;Node2</title>
<path fill="none" stroke="midnightblue" d="M219.68,-50.22C211.26,-51.21 202.72,-52.21 194.26,-53.2"/>
<polygon fill="midnightblue" stroke="midnightblue" points="220.34,-53.66 229.87,-49.02 219.53,-46.71 220.34,-53.66"/>
</g>
<!-- Node3 -->
<g id="node3" class="node">
<title>Node3</title>
<g id="a_node3"><a xlink:href="class_pz_g_1_1_lacze_do_g_n_u_plota.html#a263a9dba2ef8030028a48217a183ecdf" target="_top" xlink:title="Usuwa ostatnią nazwę pliku.">
<polygon fill="none" stroke="black" points="3,-0.5 3,-30.5 191,-30.5 191,-0.5 3,-0.5"/>
<text text-anchor="start" x="11" y="-18.5" font-family="Helvetica,sans-Serif" font-size="10.00">PzG::LaczeDoGNUPlota</text>
<text text-anchor="middle" x="97" y="-7.5" font-family="Helvetica,sans-Serif" font-size="10.00">::UsunOstatniaNazwe_ListaLokalna</text>
</a>
</g>
</g>
<!-- Node1&#45;&gt;Node3 -->
<g id="edge2" class="edge">
<title>Node1&#45;&gt;Node3</title>
<path fill="none" stroke="midnightblue" d="M219.65,-29.21C210.17,-28.14 200.52,-27.05 191.02,-25.98"/>
<polygon fill="midnightblue" stroke="midnightblue" points="219.54,-32.72 229.87,-30.36 220.32,-25.76 219.54,-32.72"/>
</g>
</g>
</svg>
