<?xml version="1.0" encoding="UTF-8" standalone="no"?>
<!DOCTYPE svg PUBLIC "-//W3C//DTD SVG 1.1//EN"
 "http://www.w3.org/Graphics/SVG/1.1/DTD/svg11.dtd">
<!-- Generated by graphviz version 2.43.0 (0)
 -->
<!-- Title: PzG::CzyJestPlik Pages: 1 -->
<!--zoomable 302 -->
<svg id="main" version="1.1" xmlns="http://www.w3.org/2000/svg" xmlns:xlink="http://www.w3.org/1999/xlink" xml:space="preserve" onload="init(evt)">
<style type="text/css"><![CDATA[
.edge:hover path { stroke: red; }
.edge:hover polygon { stroke: red; fill: red; }
]]></style>
<script type="text/javascript"><![CDATA[
var edges = document.getElementsByTagName('g');
if (edges && edges.length) {
  for (var i=0;i<edges.length;i++) {
    if (edges[i].id.substr(0,4)=='edge') {
      edges[i].setAttribute('class','edge');
    }
  }
}
]]></script>
        <defs>
                <circle id="rim" cx="0" cy="0" r="7"/>
                <circle id="rim2" cx="0" cy="0" r="3.5"/>
                <g id="zoomPlus">
                        <use xlink:href="#rim" fill="#404040">
                                <set attributeName="fill" to="#808080" begin="zoomplus.mouseover" end="zoomplus.mouseout"/>
                        </use>
                        <path d="M-4,0h8M0,-4v8" fill="none" stroke="white" stroke-width="1.5" pointer-events="none"/>
                </g>
                <g id="zoomMin">
                        <use xlink:href="#rim" fill="#404040">
                                <set attributeName="fill" to="#808080" begin="zoomminus.mouseover" end="zoomminus.mouseout"/>
                        </use>
                        <path d="M-4,0h8" fill="none" stroke="white" stroke-width="1.5" pointer-events="none"/>
                </g>
                <g id="dirArrow">
                        <path fill="none" stroke="white" stroke-width="1.5" d="M0,-3.0v7 M-2.5,-0.5L0,-3.0L2.5,-0.5"/>
                </g>
               <g id="resetDef">
                       <use xlink:href="#rim2" fill="#404040">
                               <set attributeName="fill" to="#808080" begin="reset.mouseover" end="reset.mouseout"/>
                       </use>
               </g>
        </defs>

<script type="text/javascript">
var viewWidth = 809;
var viewHeight = 302;
var sectionId = 'dynsection-0';
</script>
<script xlink:href="svgpan.js"/>
<svg id="graph" class="graph">
<g id="viewport">
<title>PzG::CzyJestPlik</title>
<!-- Node1 -->
<g id="node1" class="node">
<title>Node1</title>
<g id="a_node1"><a xlink:title="Funkcja pomocnicza, sprawdza czy plik o podanej nazwie jest na dysku.">
<polygon fill="#bfbfbf" stroke="black" points="706,-98 706,-117 801,-117 801,-98 706,-98"/>
<text text-anchor="middle" x="753.5" y="-105" font-family="Helvetica,sans-Serif" font-size="10.00">PzG::CzyJestPlik</text>
</a>
</g>
</g>
<!-- Node2 -->
<g id="node2" class="node">
<title>Node2</title>
<g id="a_node2"><a xlink:href="class_pz_g_1_1_lacze_do_g_n_u_plota.html#aa815ce8ec16e12fc246cf422e562869e" target="_top" xlink:title="Dodaje nazwę pliku.">
<polygon fill="none" stroke="black" points="515.5,-120.5 515.5,-150.5 645.5,-150.5 645.5,-120.5 515.5,-120.5"/>
<text text-anchor="start" x="523.5" y="-138.5" font-family="Helvetica,sans-Serif" font-size="10.00">PzG::LaczeDoGNUPlota</text>
<text text-anchor="middle" x="580.5" y="-127.5" font-family="Helvetica,sans-Serif" font-size="10.00">::DodajNazwePliku</text>
</a>
</g>
</g>
<!-- Node1&#45;&gt;Node2 -->
<g id="edge1" class="edge">
<title>Node1&#45;&gt;Node2</title>
<path fill="none" stroke="midnightblue" d="M695.54,-116.83C679.59,-119.44 662.14,-122.3 645.8,-124.97"/>
<polygon fill="midnightblue" stroke="midnightblue" points="696.47,-120.22 705.77,-115.15 695.34,-113.31 696.47,-120.22"/>
</g>
<!-- Node14 -->
<g id="node14" class="node">
<title>Node14</title>
<g id="a_node14"><a xlink:href="class_pz_g_1_1_lacze_do_g_n_u_plota.html#a963eeeba41fea78ad1ad107baf8d4b36" target="_top" xlink:title="Dodaje nazwę pliku.">
<polygon fill="none" stroke="black" points="491,-60 491,-101 670,-101 670,-60 491,-60"/>
<text text-anchor="start" x="499" y="-89" font-family="Helvetica,sans-Serif" font-size="10.00">PzG::LaczeDoGNUPlota</text>
<text text-anchor="start" x="499" y="-78" font-family="Helvetica,sans-Serif" font-size="10.00">::DodajNazwePliku_PunktyRoznej</text>
<text text-anchor="middle" x="580.5" y="-67" font-family="Helvetica,sans-Serif" font-size="10.00">Wielkosci</text>
</a>
</g>
</g>
<!-- Node1&#45;&gt;Node14 -->
<g id="edge16" class="edge">
<title>Node1&#45;&gt;Node14</title>
<path fill="none" stroke="midnightblue" d="M695.64,-98.52C687.46,-97.23 678.88,-95.88 670.26,-94.51"/>
<polygon fill="midnightblue" stroke="midnightblue" points="695.35,-102.02 705.77,-100.12 696.44,-95.11 695.35,-102.02"/>
</g>
<!-- Node3 -->
<g id="node3" class="node">
<title>Node3</title>
<g id="a_node3"><a xlink:href="class_scene.html#a8b87eec51d554a3ac01767a613871661" target="_top" xlink:title="Metoda dodajaca object zadany przez uzytkownika.">
<polygon fill="none" stroke="black" points="331,-249 331,-268 436,-268 436,-249 331,-249"/>
<text text-anchor="middle" x="383.5" y="-256" font-family="Helvetica,sans-Serif" font-size="10.00">Scene::add_object</text>
</a>
</g>
</g>
<!-- Node2&#45;&gt;Node3 -->
<g id="edge2" class="edge">
<title>Node2&#45;&gt;Node3</title>
<path fill="none" stroke="midnightblue" d="M546.92,-156.26C521.83,-172.24 486.26,-194.83 455,-214.5 436.07,-226.41 414.22,-240.03 399.92,-248.92"/>
<polygon fill="midnightblue" stroke="midnightblue" points="549.11,-159.02 555.67,-150.7 545.35,-153.12 549.11,-159.02"/>
</g>
<!-- Node6 -->
<g id="node6" class="node">
<title>Node6</title>
<g id="a_node6"><a xlink:href="class_drone.html#a9d09f6cd9ed8d60dfd1979b31101f400" target="_top" xlink:title="Metoda zapisujaca sciezke do pliku oraz do lacza.">
<polygon fill="none" stroke="black" points="312,-186 312,-205 455,-205 455,-186 312,-186"/>
<text text-anchor="middle" x="383.5" y="-193" font-family="Helvetica,sans-Serif" font-size="10.00">Drone::Drone_path_to_file</text>
</a>
</g>
</g>
<!-- Node2&#45;&gt;Node6 -->
<g id="edge5" class="edge">
<title>Node2&#45;&gt;Node6</title>
<path fill="none" stroke="midnightblue" d="M520.55,-153.64C485.95,-164.28 443.64,-177.3 415.48,-185.97"/>
<polygon fill="midnightblue" stroke="midnightblue" points="522.02,-156.85 530.54,-150.56 519.96,-150.16 522.02,-156.85"/>
</g>
<!-- Node10 -->
<g id="node10" class="node">
<title>Node10</title>
<g id="a_node10"><a xlink:href="class_scene.html#ab57c9a7293ccbaf3dd7e9ac469a7a787" target="_top" xlink:title="Metoda inicjalizujaca lacze do gnuplota.">
<polygon fill="none" stroke="black" points="150,-98 150,-117 260,-117 260,-98 150,-98"/>
<text text-anchor="middle" x="205" y="-105" font-family="Helvetica,sans-Serif" font-size="10.00">Scene::init_gnuplot</text>
</a>
</g>
</g>
<!-- Node2&#45;&gt;Node10 -->
<g id="edge9" class="edge">
<title>Node2&#45;&gt;Node10</title>
<path fill="none" stroke="midnightblue" d="M505.17,-142.21C451.25,-145.59 376.73,-147.17 312,-137.5 295.45,-135.03 292.08,-131.14 276,-126.5 264.99,-123.32 252.96,-120.01 242.03,-117.05"/>
<polygon fill="midnightblue" stroke="midnightblue" points="505.58,-145.69 515.33,-141.54 505.12,-138.71 505.58,-145.69"/>
</g>
<!-- Node11 -->
<g id="node11" class="node">
<title>Node11</title>
<g id="a_node11"><a xlink:href="class_scene.html#ae8b7b8c6dc0f947c4da9ba6379519410" target="_top" xlink:title="Metoda iterujaca po kolejnych polach listy objects, zcyztujaca nazwy plikow i podajaca je do gnuplota...">
<polygon fill="none" stroke="black" points="328,-98.5 328,-128.5 439,-128.5 439,-98.5 328,-98.5"/>
<text text-anchor="start" x="336" y="-116.5" font-family="Helvetica,sans-Serif" font-size="10.00">Scene::iterate_over</text>
<text text-anchor="middle" x="383.5" y="-105.5" font-family="Helvetica,sans-Serif" font-size="10.00">_objects</text>
</a>
</g>
</g>
<!-- Node2&#45;&gt;Node11 -->
<g id="edge11" class="edge">
<title>Node2&#45;&gt;Node11</title>
<path fill="none" stroke="midnightblue" d="M505.41,-127.14C483.41,-124.66 459.71,-121.99 439.18,-119.67"/>
<polygon fill="midnightblue" stroke="midnightblue" points="505.05,-130.62 515.38,-128.27 505.84,-123.67 505.05,-130.62"/>
</g>
<!-- Node12 -->
<g id="node12" class="node">
<title>Node12</title>
<g id="a_node12"><a xlink:href="class_drone.html#a577871807280aab8d9c0d4e45b435ec4" target="_top" xlink:title="Metoda rysujaca drona w gnuplocie. Przeznaczona do testow">
<polygon fill="none" stroke="black" points="318,-49.5 318,-79.5 449,-79.5 449,-49.5 318,-49.5"/>
<text text-anchor="start" x="326" y="-67.5" font-family="Helvetica,sans-Serif" font-size="10.00">Drone::Print_to_gnuplot</text>
<text text-anchor="middle" x="383.5" y="-56.5" font-family="Helvetica,sans-Serif" font-size="10.00">_drone</text>
</a>
</g>
</g>
<!-- Node2&#45;&gt;Node12 -->
<g id="edge13" class="edge">
<title>Node2&#45;&gt;Node12</title>
<path fill="none" stroke="midnightblue" d="M507.97,-117.13C502.16,-115.09 496.44,-112.88 491,-110.5 473.82,-102.99 471.98,-96.46 455,-88.5 448.09,-85.26 440.62,-82.24 433.22,-79.51"/>
<polygon fill="midnightblue" stroke="midnightblue" points="507.2,-120.57 517.8,-120.42 509.43,-113.93 507.2,-120.57"/>
</g>
<!-- Node13 -->
<g id="node13" class="node">
<title>Node13</title>
<g id="a_node13"><a xlink:href="class_drone.html#a63898ba4cc161710cf08f7b578f3d90f" target="_top" xlink:title="Metoda ustawiajaca nazwy plikow w laczy do gnuplota (nazwy final!)">
<polygon fill="none" stroke="black" points="323.5,-0.5 323.5,-30.5 443.5,-30.5 443.5,-0.5 323.5,-0.5"/>
<text text-anchor="start" x="331.5" y="-18.5" font-family="Helvetica,sans-Serif" font-size="10.00">Drone::set_filenames</text>
<text text-anchor="middle" x="383.5" y="-7.5" font-family="Helvetica,sans-Serif" font-size="10.00">_gnuplot</text>
</a>
</g>
</g>
<!-- Node2&#45;&gt;Node13 -->
<g id="edge14" class="edge">
<title>Node2&#45;&gt;Node13</title>
<path fill="none" stroke="midnightblue" d="M506.1,-120.19C500.7,-117.47 495.58,-114.27 491,-110.5 463.68,-88.02 481.72,-62.69 455,-39.5 451.09,-36.11 446.69,-33.19 442.03,-30.69"/>
<polygon fill="midnightblue" stroke="midnightblue" points="504.84,-123.46 515.4,-124.33 507.69,-117.07 504.84,-123.46"/>
</g>
<!-- Node4 -->
<g id="node4" class="node">
<title>Node4</title>
<g id="a_node4"><a xlink:href="class_menu.html#acd338552222b744cd030e17776cb5d9b" target="_top" xlink:title="Obsluguje wybor menu.">
<polygon fill="none" stroke="black" points="148,-274 148,-293 262,-293 262,-274 148,-274"/>
<text text-anchor="middle" x="205" y="-281" font-family="Helvetica,sans-Serif" font-size="10.00">Menu::switch_menu</text>
</a>
</g>
</g>
<!-- Node3&#45;&gt;Node4 -->
<g id="edge3" class="edge">
<title>Node3&#45;&gt;Node4</title>
<path fill="none" stroke="midnightblue" d="M320.89,-267.23C301.82,-269.93 280.91,-272.89 262.22,-275.54"/>
<polygon fill="midnightblue" stroke="midnightblue" points="321.56,-270.67 330.97,-265.8 320.58,-263.74 321.56,-270.67"/>
</g>
<!-- Node5 -->
<g id="node5" class="node">
<title>Node5</title>
<g id="a_node5"><a xlink:href="class_menu.html#af7e6a49bd56499facef9cc98561ea169" target="_top" xlink:title="Inicjuje i obsluguje menu.">
<polygon fill="none" stroke="black" points="0,-186 0,-205 98,-205 98,-186 0,-186"/>
<text text-anchor="middle" x="49" y="-193" font-family="Helvetica,sans-Serif" font-size="10.00">Menu::init_menu</text>
</a>
</g>
</g>
<!-- Node4&#45;&gt;Node5 -->
<g id="edge4" class="edge">
<title>Node4&#45;&gt;Node5</title>
<path fill="none" stroke="midnightblue" d="M148.23,-270.71C143.31,-268.88 138.5,-266.82 134,-264.5 103.14,-248.58 73.25,-219.9 58.87,-205.03"/>
<polygon fill="midnightblue" stroke="midnightblue" points="147.17,-274.04 157.76,-273.94 149.41,-267.41 147.17,-274.04"/>
</g>
<!-- Node7 -->
<g id="node7" class="node">
<title>Node7</title>
<g id="a_node7"><a xlink:href="class_drone.html#ac4d24c27fb2c107d2e8bda0c2bf5cfa1" target="_top" xlink:title="Metoda obliczajaca i przeprowadzajaca caly ruch drona (obrot o kat i przelot z zadania 5....">
<polygon fill="none" stroke="black" points="149,-224.5 149,-254.5 261,-254.5 261,-224.5 149,-224.5"/>
<text text-anchor="start" x="157" y="-242.5" font-family="Helvetica,sans-Serif" font-size="10.00">Drone::Drone_basic</text>
<text text-anchor="middle" x="205" y="-231.5" font-family="Helvetica,sans-Serif" font-size="10.00">_motion</text>
</a>
</g>
</g>
<!-- Node6&#45;&gt;Node7 -->
<g id="edge6" class="edge">
<title>Node6&#45;&gt;Node7</title>
<path fill="none" stroke="midnightblue" d="M334.48,-207.47C311.87,-213.11 284.77,-219.86 261.31,-225.71"/>
<polygon fill="midnightblue" stroke="midnightblue" points="335.35,-210.86 344.2,-205.05 333.65,-204.07 335.35,-210.86"/>
</g>
<!-- Node8 -->
<g id="node8" class="node">
<title>Node8</title>
<g id="a_node8"><a xlink:href="class_drone.html#ab7808296cec81143dbddd7516340a371" target="_top" xlink:title="Metoda robiaca &quot;oblot&quot; drona wokol punktu (z modyfikacji)">
<polygon fill="none" stroke="black" points="134,-186 134,-205 276,-205 276,-186 134,-186"/>
<text text-anchor="middle" x="205" y="-193" font-family="Helvetica,sans-Serif" font-size="10.00">Drone::Drone_roundabout</text>
</a>
</g>
</g>
<!-- Node6&#45;&gt;Node8 -->
<g id="edge7" class="edge">
<title>Node6&#45;&gt;Node8</title>
<path fill="none" stroke="midnightblue" d="M301.93,-195.5C293.31,-195.5 284.6,-195.5 276.12,-195.5"/>
<polygon fill="midnightblue" stroke="midnightblue" points="301.98,-199 311.98,-195.5 301.98,-192 301.98,-199"/>
</g>
<!-- Node9 -->
<g id="node9" class="node">
<title>Node9</title>
<g id="a_node9"><a xlink:href="class_drone.html#a5fc9dd645ad3856b5d3c501c63c464e3" target="_top" xlink:title="Metoda animujaca translacje drona i wyrysowujaca calosc w gnuplocie.">
<polygon fill="none" stroke="black" points="135.5,-136.5 135.5,-166.5 274.5,-166.5 274.5,-136.5 135.5,-136.5"/>
<text text-anchor="start" x="143.5" y="-154.5" font-family="Helvetica,sans-Serif" font-size="10.00">Drone::Drone_translation</text>
<text text-anchor="middle" x="205" y="-143.5" font-family="Helvetica,sans-Serif" font-size="10.00">_animation</text>
</a>
</g>
</g>
<!-- Node6&#45;&gt;Node9 -->
<g id="edge8" class="edge">
<title>Node6&#45;&gt;Node9</title>
<path fill="none" stroke="midnightblue" d="M334.26,-183.47C313.32,-178.25 288.58,-172.09 266.43,-166.57"/>
<polygon fill="midnightblue" stroke="midnightblue" points="333.65,-186.93 344.2,-185.95 335.35,-180.14 333.65,-186.93"/>
</g>
<!-- Node10&#45;&gt;Node5 -->
<g id="edge10" class="edge">
<title>Node10&#45;&gt;Node5</title>
<path fill="none" stroke="midnightblue" d="M148.23,-120.29C143.31,-122.12 138.5,-124.18 134,-126.5 103.14,-142.42 73.25,-171.1 58.87,-185.97"/>
<polygon fill="midnightblue" stroke="midnightblue" points="149.41,-123.59 157.76,-117.06 147.17,-116.96 149.41,-123.59"/>
</g>
<!-- Node11&#45;&gt;Node10 -->
<g id="edge12" class="edge">
<title>Node11&#45;&gt;Node10</title>
<path fill="none" stroke="midnightblue" d="M317.62,-111.29C298.76,-110.65 278.37,-109.96 260.24,-109.34"/>
<polygon fill="midnightblue" stroke="midnightblue" points="317.51,-114.79 327.62,-111.63 317.75,-107.8 317.51,-114.79"/>
</g>
<!-- Node13&#45;&gt;Node10 -->
<g id="edge15" class="edge">
<title>Node13&#45;&gt;Node10</title>
<path fill="none" stroke="midnightblue" d="M323.82,-34.25C319.78,-35.91 315.8,-37.67 312,-39.5 276.35,-56.69 238.12,-83.56 218.78,-97.84"/>
<polygon fill="midnightblue" stroke="midnightblue" points="325.3,-37.42 333.34,-30.52 322.75,-30.91 325.3,-37.42"/>
</g>
</g>
</svg>
        <g id="navigator" transform="translate(0 0)" fill="#404254">
                <rect fill="#f2f5e9" fill-opacity="0.5" stroke="#606060" stroke-width=".5" x="0" y="0" width="60" height="60"/>
                <use id="zoomplus" xlink:href="#zoomPlus" x="17" y="9" onmousedown="handleZoom(evt,'in')"/>
                <use id="zoomminus" xlink:href="#zoomMin" x="42" y="9" onmousedown="handleZoom(evt,'out')"/>
                <use id="reset" xlink:href="#resetDef" x="30" y="36" onmousedown="handleReset()"/>
                <g id="arrowUp" xlink:href="#dirArrow" transform="translate(30 24)" onmousedown="handlePan(0,-1)">
                  <use xlink:href="#rim" fill="#404040">
                        <set attributeName="fill" to="#808080" begin="arrowUp.mouseover" end="arrowUp.mouseout"/>
                  </use>
                  <path fill="none" stroke="white" stroke-width="1.5" d="M0,-3.0v7 M-2.5,-0.5L0,-3.0L2.5,-0.5"/>
                </g>
                <g id="arrowRight" xlink:href="#dirArrow" transform="rotate(90) translate(36 -43)" onmousedown="handlePan(1,0)">
                  <use xlink:href="#rim" fill="#404040">
                        <set attributeName="fill" to="#808080" begin="arrowRight.mouseover" end="arrowRight.mouseout"/>
                  </use>
                  <path fill="none" stroke="white" stroke-width="1.5" d="M0,-3.0v7 M-2.5,-0.5L0,-3.0L2.5,-0.5"/>
                </g>
                <g id="arrowDown" xlink:href="#dirArrow" transform="rotate(180) translate(-30 -48)" onmousedown="handlePan(0,1)">
                  <use xlink:href="#rim" fill="#404040">
                        <set attributeName="fill" to="#808080" begin="arrowDown.mouseover" end="arrowDown.mouseout"/>
                  </use>
                  <path fill="none" stroke="white" stroke-width="1.5" d="M0,-3.0v7 M-2.5,-0.5L0,-3.0L2.5,-0.5"/>
                </g>
                <g id="arrowLeft" xlink:href="#dirArrow" transform="rotate(270) translate(-36 17)" onmousedown="handlePan(-1,0)">
                  <use xlink:href="#rim" fill="#404040">
                        <set attributeName="fill" to="#808080" begin="arrowLeft.mouseover" end="arrowLeft.mouseout"/>
                  </use>
                  <path fill="none" stroke="white" stroke-width="1.5" d="M0,-3.0v7 M-2.5,-0.5L0,-3.0L2.5,-0.5"/>
                </g>
        </g>
        <svg viewBox="0 0 15 15" width="100%" height="30px" preserveAspectRatio="xMaxYMin meet">
         <g id="arrow_out" transform="scale(0.3 0.3)">
          <a xlink:href="namespace_pz_g_ae1aad0c681853d7e47da4cdfccefc102_icgraph_org.svg" target="_base">
           <rect id="button" ry="5" rx="5" y="6" x="6" height="38" width="38"
                fill="#f2f5e9" fill-opacity="0.5" stroke="#606060" stroke-width="1.0"/>
           <path id="arrow"
             d="M 11.500037,31.436501 C 11.940474,20.09759 22.043105,11.32322 32.158766,21.979434 L 37.068811,17.246167 C 37.068811,17.246167 37.088388,32 37.088388,32 L 22.160133,31.978069 C 22.160133,31.978069 26.997745,27.140456 26.997745,27.140456 C 18.528582,18.264221 13.291696,25.230495 11.500037,31.436501 z"
             style="fill:#404040;"/>
          </a>
         </g>
        </svg>
</svg>
