<?xml version="1.0" encoding="UTF-8" standalone="no"?>
<!DOCTYPE svg PUBLIC "-//W3C//DTD SVG 1.1//EN"
 "http://www.w3.org/Graphics/SVG/1.1/DTD/svg11.dtd">
<!-- Generated by graphviz version 2.43.0 (0)
 -->
<!-- Title: PzG::DopiszRysowaniePunktowZListy Pages: 1 -->
<svg width="351pt" height="88pt"
 viewBox="0.00 0.00 351.00 88.00" xmlns="http://www.w3.org/2000/svg" xmlns:xlink="http://www.w3.org/1999/xlink">
<g id="graph0" class="graph" transform="scale(1 1) rotate(0) translate(4 84)">
<title>PzG::DopiszRysowaniePunktowZListy</title>
<!-- Node1 -->
<g id="node1" class="node">
<title>Node1</title>
<g id="a_node1"><a xlink:title="Dopisuje do polecenia rysowania wpisy z nazwami plików, w których są współrzędne punktów.">
<polygon fill="#bfbfbf" stroke="black" points="0,-24.5 0,-54.5 170,-54.5 170,-24.5 0,-24.5"/>
<text text-anchor="start" x="8" y="-42.5" font-family="Helvetica,sans-Serif" font-size="10.00">PzG::DopiszRysowaniePunktow</text>
<text text-anchor="middle" x="85" y="-31.5" font-family="Helvetica,sans-Serif" font-size="10.00">ZListy</text>
</a>
</g>
</g>
<!-- Node2 -->
<g id="node2" class="node">
<title>Node2</title>
<g id="a_node2"><a xlink:href="class_pz_g_1_1_atrybuty_rysowania.html#a9f0f08bb69dca9c12e7f55c165c6223e" target="_top" xlink:title="Udostępnia rozmiar rysowania.">
<polygon fill="none" stroke="black" points="206,-49.5 206,-79.5 343,-79.5 343,-49.5 206,-49.5"/>
<text text-anchor="start" x="214" y="-67.5" font-family="Helvetica,sans-Serif" font-size="10.00">PzG::AtrybutyRysowania</text>
<text text-anchor="middle" x="274.5" y="-56.5" font-family="Helvetica,sans-Serif" font-size="10.00">::WezRozmiar</text>
</a>
</g>
</g>
<!-- Node1&#45;&gt;Node2 -->
<g id="edge1" class="edge">
<title>Node1&#45;&gt;Node2</title>
<path fill="none" stroke="midnightblue" d="M170.15,-50.72C178.67,-51.86 187.28,-53 195.73,-54.13"/>
<polygon fill="midnightblue" stroke="midnightblue" points="195.54,-57.64 205.92,-55.49 196.47,-50.7 195.54,-57.64"/>
</g>
<!-- Node3 -->
<g id="node3" class="node">
<title>Node3</title>
<g id="a_node3"><a xlink:href="class_pz_g_1_1_atrybuty_rysowania.html#a85f1665049d64618e1ac1d18c000ff76" target="_top" xlink:title="Udostępnia styl rysowania.">
<polygon fill="none" stroke="black" points="206,-0.5 206,-30.5 343,-30.5 343,-0.5 206,-0.5"/>
<text text-anchor="start" x="214" y="-18.5" font-family="Helvetica,sans-Serif" font-size="10.00">PzG::AtrybutyRysowania</text>
<text text-anchor="middle" x="274.5" y="-7.5" font-family="Helvetica,sans-Serif" font-size="10.00">::WezStyl</text>
</a>
</g>
</g>
<!-- Node1&#45;&gt;Node3 -->
<g id="edge2" class="edge">
<title>Node1&#45;&gt;Node3</title>
<path fill="none" stroke="midnightblue" d="M170.15,-28.73C178.67,-27.64 187.28,-26.54 195.73,-25.45"/>
<polygon fill="midnightblue" stroke="midnightblue" points="196.44,-28.89 205.92,-24.15 195.55,-21.95 196.44,-28.89"/>
</g>
</g>
</svg>
