<?xml version="1.0" encoding="UTF-8" standalone="no"?>
<!DOCTYPE svg PUBLIC "-//W3C//DTD SVG 1.1//EN"
 "http://www.w3.org/Graphics/SVG/1.1/DTD/svg11.dtd">
<!-- Generated by graphviz version 2.43.0 (0)
 -->
<!-- Title: PzG::CzyJestPlik Pages: 1 -->
<!--zoomable 365 -->
<svg id="main" version="1.1" xmlns="http://www.w3.org/2000/svg" xmlns:xlink="http://www.w3.org/1999/xlink" xml:space="preserve" onload="init(evt)">
<style type="text/css"><![CDATA[
.edge:hover path { stroke: red; }
.edge:hover polygon { stroke: red; fill: red; }
]]></style>
<script type="text/javascript"><![CDATA[
var edges = document.getElementsByTagName('g');
if (edges && edges.length) {
  for (var i=0;i<edges.length;i++) {
    if (edges[i].id.substr(0,4)=='edge') {
      edges[i].setAttribute('class','edge');
    }
  }
}
]]></script>
        <defs>
                <circle id="rim" cx="0" cy="0" r="7"/>
                <circle id="rim2" cx="0" cy="0" r="3.5"/>
                <g id="zoomPlus">
                        <use xlink:href="#rim" fill="#404040">
                                <set attributeName="fill" to="#808080" begin="zoomplus.mouseover" end="zoomplus.mouseout"/>
                        </use>
                        <path d="M-4,0h8M0,-4v8" fill="none" stroke="white" stroke-width="1.5" pointer-events="none"/>
                </g>
                <g id="zoomMin">
                        <use xlink:href="#rim" fill="#404040">
                                <set attributeName="fill" to="#808080" begin="zoomminus.mouseover" end="zoomminus.mouseout"/>
                        </use>
                        <path d="M-4,0h8" fill="none" stroke="white" stroke-width="1.5" pointer-events="none"/>
                </g>
                <g id="dirArrow">
                        <path fill="none" stroke="white" stroke-width="1.5" d="M0,-3.0v7 M-2.5,-0.5L0,-3.0L2.5,-0.5"/>
                </g>
               <g id="resetDef">
                       <use xlink:href="#rim2" fill="#404040">
                               <set attributeName="fill" to="#808080" begin="reset.mouseover" end="reset.mouseout"/>
                       </use>
               </g>
        </defs>

<script type="text/javascript">
var viewWidth = 959;
var viewHeight = 365;
var sectionId = 'dynsection-0';
</script>
<script xlink:href="svgpan.js"/>
<svg id="graph" class="graph">
<g id="viewport">
<title>PzG::CzyJestPlik</title>
<!-- Node1 -->
<g id="node1" class="node">
<title>Node1</title>
<g id="a_node1"><a xlink:title="Funkcja pomocnicza, sprawdza czy plik o podanej nazwie jest na dysku.">
<polygon fill="#bfbfbf" stroke="black" points="856,-120 856,-139 951,-139 951,-120 856,-120"/>
<text text-anchor="middle" x="903.5" y="-127" font-family="Helvetica,sans-Serif" font-size="10.00">PzG::CzyJestPlik</text>
</a>
</g>
</g>
<!-- Node2 -->
<g id="node2" class="node">
<title>Node2</title>
<g id="a_node2"><a xlink:href="class_pz_g_1_1_lacze_do_g_n_u_plota.html#aa815ce8ec16e12fc246cf422e562869e" target="_top" xlink:title="Dodaje nazwę pliku.">
<polygon fill="none" stroke="black" points="665.5,-142.5 665.5,-172.5 795.5,-172.5 795.5,-142.5 665.5,-142.5"/>
<text text-anchor="start" x="673.5" y="-160.5" font-family="Helvetica,sans-Serif" font-size="10.00">PzG::LaczeDoGNUPlota</text>
<text text-anchor="middle" x="730.5" y="-149.5" font-family="Helvetica,sans-Serif" font-size="10.00">::DodajNazwePliku</text>
</a>
</g>
</g>
<!-- Node1&#45;&gt;Node2 -->
<g id="edge1" class="edge">
<title>Node1&#45;&gt;Node2</title>
<path fill="none" stroke="midnightblue" d="M845.54,-138.83C829.59,-141.44 812.14,-144.3 795.8,-146.97"/>
<polygon fill="midnightblue" stroke="midnightblue" points="846.47,-142.22 855.77,-137.15 845.34,-135.31 846.47,-142.22"/>
</g>
<!-- Node17 -->
<g id="node17" class="node">
<title>Node17</title>
<g id="a_node17"><a xlink:href="class_pz_g_1_1_lacze_do_g_n_u_plota.html#a963eeeba41fea78ad1ad107baf8d4b36" target="_top" xlink:title="Dodaje nazwę pliku.">
<polygon fill="none" stroke="black" points="641,-82 641,-123 820,-123 820,-82 641,-82"/>
<text text-anchor="start" x="649" y="-111" font-family="Helvetica,sans-Serif" font-size="10.00">PzG::LaczeDoGNUPlota</text>
<text text-anchor="start" x="649" y="-100" font-family="Helvetica,sans-Serif" font-size="10.00">::DodajNazwePliku_PunktyRoznej</text>
<text text-anchor="middle" x="730.5" y="-89" font-family="Helvetica,sans-Serif" font-size="10.00">Wielkosci</text>
</a>
</g>
</g>
<!-- Node1&#45;&gt;Node17 -->
<g id="edge19" class="edge">
<title>Node1&#45;&gt;Node17</title>
<path fill="none" stroke="midnightblue" d="M845.64,-120.52C837.46,-119.23 828.88,-117.88 820.26,-116.51"/>
<polygon fill="midnightblue" stroke="midnightblue" points="845.35,-124.02 855.77,-122.12 846.44,-117.11 845.35,-124.02"/>
</g>
<!-- Node3 -->
<g id="node3" class="node">
<title>Node3</title>
<g id="a_node3"><a xlink:href="class_scene.html#a8b87eec51d554a3ac01767a613871661" target="_top" xlink:title="Metoda dodajaca object zadany przez uzytkownika.">
<polygon fill="none" stroke="black" points="481,-186 481,-205 586,-205 586,-186 481,-186"/>
<text text-anchor="middle" x="533.5" y="-193" font-family="Helvetica,sans-Serif" font-size="10.00">Scene::add_object</text>
</a>
</g>
</g>
<!-- Node2&#45;&gt;Node3 -->
<g id="edge2" class="edge">
<title>Node2&#45;&gt;Node3</title>
<path fill="none" stroke="midnightblue" d="M655.55,-171.91C631.45,-176.61 605.31,-181.7 583.51,-185.95"/>
<polygon fill="midnightblue" stroke="midnightblue" points="656.23,-175.34 665.38,-170 654.89,-168.47 656.23,-175.34"/>
</g>
<!-- Node6 -->
<g id="node6" class="node">
<title>Node6</title>
<g id="a_node6"><a xlink:href="class_drone.html#ae1e0bb7bf7063795bce4bbf5ef99cb74" target="_top" xlink:title="Metoda zapisujaca sciezke do pliku oraz do lacza.">
<polygon fill="none" stroke="black" points="462,-224 462,-243 605,-243 605,-224 462,-224"/>
<text text-anchor="middle" x="533.5" y="-231" font-family="Helvetica,sans-Serif" font-size="10.00">Drone::Drone_path_to_file</text>
</a>
</g>
</g>
<!-- Node2&#45;&gt;Node6 -->
<g id="edge5" class="edge">
<title>Node2&#45;&gt;Node6</title>
<path fill="none" stroke="midnightblue" d="M690.69,-177.29C666.47,-189.13 634.41,-203.89 605,-214.5 595.22,-218.03 584.48,-221.25 574.38,-223.99"/>
<polygon fill="midnightblue" stroke="midnightblue" points="692.48,-180.31 699.89,-172.75 689.38,-174.04 692.48,-180.31"/>
</g>
<!-- Node11 -->
<g id="node11" class="node">
<title>Node11</title>
<g id="a_node11"><a xlink:href="class_scene.html#ab57c9a7293ccbaf3dd7e9ac469a7a787" target="_top" xlink:title="Metoda inicjalizujaca lacze do gnuplota.">
<polygon fill="none" stroke="black" points="300,-74 300,-93 410,-93 410,-74 300,-74"/>
<text text-anchor="middle" x="355" y="-81" font-family="Helvetica,sans-Serif" font-size="10.00">Scene::init_gnuplot</text>
</a>
</g>
</g>
<!-- Node2&#45;&gt;Node11 -->
<g id="edge10" class="edge">
<title>Node2&#45;&gt;Node11</title>
<path fill="none" stroke="midnightblue" d="M655.41,-162.27C600.48,-163.37 524.6,-159.7 462,-137.5 443.64,-130.99 443.1,-121.84 426,-112.5 412.26,-105 396.17,-98.2 382.88,-93.08"/>
<polygon fill="midnightblue" stroke="midnightblue" points="655.5,-165.77 665.41,-162.01 655.32,-158.77 655.5,-165.77"/>
</g>
<!-- Node12 -->
<g id="node12" class="node">
<title>Node12</title>
<g id="a_node12"><a xlink:href="class_scene.html#a904ed1e89f26c05070e221bc832e9a2f" target="_top" xlink:title="Metoda iterujaca po kolejnych polach listy objects, zczytujaca nazwy plikow i podajaca je do gnuplota...">
<polygon fill="none" stroke="black" points="478,-49.5 478,-79.5 589,-79.5 589,-49.5 478,-49.5"/>
<text text-anchor="start" x="486" y="-67.5" font-family="Helvetica,sans-Serif" font-size="10.00">Scene::iterate_over</text>
<text text-anchor="middle" x="533.5" y="-56.5" font-family="Helvetica,sans-Serif" font-size="10.00">_objects</text>
</a>
</g>
</g>
<!-- Node2&#45;&gt;Node12 -->
<g id="edge12" class="edge">
<title>Node2&#45;&gt;Node12</title>
<path fill="none" stroke="midnightblue" d="M655.68,-140.5C650.54,-138.16 645.59,-135.51 641,-132.5 619.87,-118.65 625.76,-102.9 605,-88.5 600.11,-85.11 594.71,-82.16 589.12,-79.61"/>
<polygon fill="midnightblue" stroke="midnightblue" points="654.5,-143.8 665.08,-144.37 657.17,-137.32 654.5,-143.8"/>
</g>
<!-- Node13 -->
<g id="node13" class="node">
<title>Node13</title>
<g id="a_node13"><a xlink:href="class_drone.html#a577871807280aab8d9c0d4e45b435ec4" target="_top" xlink:title="Metoda rysujaca drona w gnuplocie. Przeznaczona do testow">
<polygon fill="none" stroke="black" points="468,-98.5 468,-128.5 599,-128.5 599,-98.5 468,-98.5"/>
<text text-anchor="start" x="476" y="-116.5" font-family="Helvetica,sans-Serif" font-size="10.00">Drone::Print_to_gnuplot</text>
<text text-anchor="middle" x="533.5" y="-105.5" font-family="Helvetica,sans-Serif" font-size="10.00">_drone</text>
</a>
</g>
</g>
<!-- Node2&#45;&gt;Node13 -->
<g id="edge14" class="edge">
<title>Node2&#45;&gt;Node13</title>
<path fill="none" stroke="midnightblue" d="M655.54,-140.81C637.04,-136.64 617.34,-132.19 599.33,-128.13"/>
<polygon fill="midnightblue" stroke="midnightblue" points="654.85,-144.24 665.38,-143.03 656.4,-137.42 654.85,-144.24"/>
</g>
<!-- Node14 -->
<g id="node14" class="node">
<title>Node14</title>
<g id="a_node14"><a xlink:href="class_scene.html#aa5fc0e5a94bfa0766f6e5ff10993630d" target="_top" xlink:title="Skanowanie powierzchni pod dronem, gdy dron nie moze wyladowac w danym miejscu &#160;&#160;Rysowany jest rownie...">
<polygon fill="none" stroke="black" points="480,-299 480,-318 587,-318 587,-299 480,-299"/>
<text text-anchor="middle" x="533.5" y="-306" font-family="Helvetica,sans-Serif" font-size="10.00">Scene::scan_plane</text>
</a>
</g>
</g>
<!-- Node2&#45;&gt;Node14 -->
<g id="edge15" class="edge">
<title>Node2&#45;&gt;Node14</title>
<path fill="none" stroke="midnightblue" d="M702.05,-178.76C659.16,-211.97 577.95,-274.85 546.95,-298.86"/>
<polygon fill="midnightblue" stroke="midnightblue" points="704.33,-181.42 710.09,-172.53 700.04,-175.89 704.33,-181.42"/>
</g>
<!-- Node16 -->
<g id="node16" class="node">
<title>Node16</title>
<g id="a_node16"><a xlink:href="class_drone.html#a63898ba4cc161710cf08f7b578f3d90f" target="_top" xlink:title="Metoda ustawiajaca nazwy plikow w laczy do gnuplota (nazwy final!)">
<polygon fill="none" stroke="black" points="473.5,-0.5 473.5,-30.5 593.5,-30.5 593.5,-0.5 473.5,-0.5"/>
<text text-anchor="start" x="481.5" y="-18.5" font-family="Helvetica,sans-Serif" font-size="10.00">Drone::set_filenames</text>
<text text-anchor="middle" x="533.5" y="-7.5" font-family="Helvetica,sans-Serif" font-size="10.00">_gnuplot</text>
</a>
</g>
</g>
<!-- Node2&#45;&gt;Node16 -->
<g id="edge18" class="edge">
<title>Node2&#45;&gt;Node16</title>
<path fill="none" stroke="midnightblue" d="M655.94,-142.83C650.54,-139.97 645.46,-136.56 641,-132.5 608.22,-102.67 636.98,-70.19 605,-39.5 601.46,-36.1 597.41,-33.18 593.09,-30.67"/>
<polygon fill="midnightblue" stroke="midnightblue" points="654.76,-146.14 665.31,-147.14 657.69,-139.78 654.76,-146.14"/>
</g>
<!-- Node4 -->
<g id="node4" class="node">
<title>Node4</title>
<g id="a_node4"><a xlink:href="class_menu.html#acd338552222b744cd030e17776cb5d9b" target="_top" xlink:title="Obsluguje wybor menu.">
<polygon fill="none" stroke="black" points="134,-112 134,-131 248,-131 248,-112 134,-112"/>
<text text-anchor="middle" x="191" y="-119" font-family="Helvetica,sans-Serif" font-size="10.00">Menu::switch_menu</text>
</a>
</g>
</g>
<!-- Node3&#45;&gt;Node4 -->
<g id="edge3" class="edge">
<title>Node3&#45;&gt;Node4</title>
<path fill="none" stroke="midnightblue" d="M486.2,-182.58C477.89,-179.48 469.5,-175.79 462,-171.5 443.67,-161.02 445.48,-148.64 426,-140.5 368.84,-116.6 297.06,-114.39 248.18,-116.53"/>
<polygon fill="midnightblue" stroke="midnightblue" points="485.25,-185.96 495.85,-185.96 487.57,-179.35 485.25,-185.96"/>
</g>
<!-- Node5 -->
<g id="node5" class="node">
<title>Node5</title>
<g id="a_node5"><a xlink:href="class_menu.html#af7e6a49bd56499facef9cc98561ea169" target="_top" xlink:title="Inicjuje i obsluguje menu.">
<polygon fill="none" stroke="black" points="0,-93 0,-112 98,-112 98,-93 0,-93"/>
<text text-anchor="middle" x="49" y="-100" font-family="Helvetica,sans-Serif" font-size="10.00">Menu::init_menu</text>
</a>
</g>
</g>
<!-- Node4&#45;&gt;Node5 -->
<g id="edge4" class="edge">
<title>Node4&#45;&gt;Node5</title>
<path fill="none" stroke="midnightblue" d="M123.75,-112.51C115.08,-111.33 106.33,-110.14 98.04,-109.02"/>
<polygon fill="midnightblue" stroke="midnightblue" points="123.48,-116 133.86,-113.88 124.42,-109.07 123.48,-116"/>
</g>
<!-- Node7 -->
<g id="node7" class="node">
<title>Node7</title>
<g id="a_node7"><a xlink:href="class_drone.html#a7eecbd031df9009e113d355a9dcdf4e1" target="_top" xlink:title="Metoda obliczajaca i przeprowadzajaca caly ruch drona (obrot o kat i przelot z zadania 5....">
<polygon fill="none" stroke="black" points="299,-150.5 299,-180.5 411,-180.5 411,-150.5 299,-150.5"/>
<text text-anchor="start" x="307" y="-168.5" font-family="Helvetica,sans-Serif" font-size="10.00">Drone::Drone_basic</text>
<text text-anchor="middle" x="355" y="-157.5" font-family="Helvetica,sans-Serif" font-size="10.00">_motion_flight</text>
</a>
</g>
</g>
<!-- Node6&#45;&gt;Node7 -->
<g id="edge6" class="edge">
<title>Node6&#45;&gt;Node7</title>
<path fill="none" stroke="midnightblue" d="M477.84,-220.8C472.4,-218.93 467.03,-216.84 462,-214.5 444.34,-206.29 443.38,-198.3 426,-189.5 419.58,-186.25 412.62,-183.27 405.66,-180.61"/>
<polygon fill="midnightblue" stroke="midnightblue" points="477.08,-224.23 487.67,-223.91 479.2,-217.55 477.08,-224.23"/>
</g>
<!-- Node8 -->
<g id="node8" class="node">
<title>Node8</title>
<g id="a_node8"><a xlink:href="class_drone.html#aec9abadf85777ab20e361d1389aab466" target="_top" xlink:title="Metoda obliczajaca i przeprowadzajaca koncowy ruch drona (obrot o kat i koncowy przelot z zadania 5....">
<polygon fill="none" stroke="black" points="294.5,-287.5 294.5,-317.5 415.5,-317.5 415.5,-287.5 294.5,-287.5"/>
<text text-anchor="start" x="302.5" y="-305.5" font-family="Helvetica,sans-Serif" font-size="10.00">Drone::Drone_motion</text>
<text text-anchor="middle" x="355" y="-294.5" font-family="Helvetica,sans-Serif" font-size="10.00">_after_update</text>
</a>
</g>
</g>
<!-- Node6&#45;&gt;Node8 -->
<g id="edge7" class="edge">
<title>Node6&#45;&gt;Node8</title>
<path fill="none" stroke="midnightblue" d="M500.76,-247.09C479.67,-256 451.3,-267.76 426,-277.5 417.33,-280.84 408,-284.28 399.06,-287.49"/>
<polygon fill="midnightblue" stroke="midnightblue" points="502.35,-250.22 510.19,-243.09 499.62,-243.77 502.35,-250.22"/>
</g>
<!-- Node9 -->
<g id="node9" class="node">
<title>Node9</title>
<g id="a_node9"><a xlink:href="class_drone.html#ab7808296cec81143dbddd7516340a371" target="_top" xlink:title="Metoda robiaca &quot;oblot&quot; drona wokol punktu (z modyfikacji)">
<polygon fill="none" stroke="black" points="284,-249 284,-268 426,-268 426,-249 284,-249"/>
<text text-anchor="middle" x="355" y="-256" font-family="Helvetica,sans-Serif" font-size="10.00">Drone::Drone_roundabout</text>
</a>
</g>
</g>
<!-- Node6&#45;&gt;Node9 -->
<g id="edge8" class="edge">
<title>Node6&#45;&gt;Node9</title>
<path fill="none" stroke="midnightblue" d="M455.18,-244.45C444.57,-245.95 433.75,-247.49 423.34,-248.96"/>
<polygon fill="midnightblue" stroke="midnightblue" points="455.86,-247.89 465.27,-243.02 454.88,-240.96 455.86,-247.89"/>
</g>
<!-- Node10 -->
<g id="node10" class="node">
<title>Node10</title>
<g id="a_node10"><a xlink:href="class_drone.html#a5fc9dd645ad3856b5d3c501c63c464e3" target="_top" xlink:title="Metoda animujaca translacje drona i wyrysowujaca calosc w gnuplocie.">
<polygon fill="none" stroke="black" points="285.5,-199.5 285.5,-229.5 424.5,-229.5 424.5,-199.5 285.5,-199.5"/>
<text text-anchor="start" x="293.5" y="-217.5" font-family="Helvetica,sans-Serif" font-size="10.00">Drone::Drone_translation</text>
<text text-anchor="middle" x="355" y="-206.5" font-family="Helvetica,sans-Serif" font-size="10.00">_animation</text>
</a>
</g>
</g>
<!-- Node6&#45;&gt;Node10 -->
<g id="edge9" class="edge">
<title>Node6&#45;&gt;Node10</title>
<path fill="none" stroke="midnightblue" d="M451.81,-224.81C442.75,-223.84 433.58,-222.85 424.68,-221.89"/>
<polygon fill="midnightblue" stroke="midnightblue" points="451.66,-228.32 461.98,-225.91 452.41,-221.36 451.66,-228.32"/>
</g>
<!-- Node11&#45;&gt;Node5 -->
<g id="edge11" class="edge">
<title>Node11&#45;&gt;Node5</title>
<path fill="none" stroke="midnightblue" d="M289.63,-87.52C232.44,-91.1 150.11,-96.24 98.37,-99.48"/>
<polygon fill="midnightblue" stroke="midnightblue" points="289.89,-91.01 299.65,-86.9 289.45,-84.03 289.89,-91.01"/>
</g>
<!-- Node12&#45;&gt;Node11 -->
<g id="edge13" class="edge">
<title>Node12&#45;&gt;Node11</title>
<path fill="none" stroke="midnightblue" d="M467.62,-71.48C448.76,-73.51 428.37,-75.71 410.24,-77.66"/>
<polygon fill="midnightblue" stroke="midnightblue" points="468.05,-74.96 477.62,-70.41 467.3,-68 468.05,-74.96"/>
</g>
<!-- Node15 -->
<g id="node15" class="node">
<title>Node15</title>
<g id="a_node15"><a xlink:href="class_scene.html#a5fb0b9741a75dec929b5ea5d6ac917a1" target="_top" xlink:title="Przelot aktywnego drona.">
<polygon fill="none" stroke="black" points="323,-337 323,-356 387,-356 387,-337 323,-337"/>
<text text-anchor="middle" x="355" y="-344" font-family="Helvetica,sans-Serif" font-size="10.00">Scene::fly</text>
</a>
</g>
</g>
<!-- Node14&#45;&gt;Node15 -->
<g id="edge16" class="edge">
<title>Node14&#45;&gt;Node15</title>
<path fill="none" stroke="midnightblue" d="M478.1,-320.21C448.24,-326.64 412.3,-334.38 387.17,-339.79"/>
<polygon fill="midnightblue" stroke="midnightblue" points="478.92,-323.62 487.96,-318.09 477.45,-316.77 478.92,-323.62"/>
</g>
<!-- Node15&#45;&gt;Node4 -->
<g id="edge17" class="edge">
<title>Node15&#45;&gt;Node4</title>
<path fill="none" stroke="midnightblue" d="M313.14,-341.77C302.74,-338.96 292.19,-334.51 284,-327.5 220.02,-272.74 198.62,-164.66 193.4,-131.45"/>
<polygon fill="midnightblue" stroke="midnightblue" points="312.47,-345.21 323,-344 314.01,-338.38 312.47,-345.21"/>
</g>
</g>
</svg>
        <g id="navigator" transform="translate(0 0)" fill="#404254">
                <rect fill="#f2f5e9" fill-opacity="0.5" stroke="#606060" stroke-width=".5" x="0" y="0" width="60" height="60"/>
                <use id="zoomplus" xlink:href="#zoomPlus" x="17" y="9" onmousedown="handleZoom(evt,'in')"/>
                <use id="zoomminus" xlink:href="#zoomMin" x="42" y="9" onmousedown="handleZoom(evt,'out')"/>
                <use id="reset" xlink:href="#resetDef" x="30" y="36" onmousedown="handleReset()"/>
                <g id="arrowUp" xlink:href="#dirArrow" transform="translate(30 24)" onmousedown="handlePan(0,-1)">
                  <use xlink:href="#rim" fill="#404040">
                        <set attributeName="fill" to="#808080" begin="arrowUp.mouseover" end="arrowUp.mouseout"/>
                  </use>
                  <path fill="none" stroke="white" stroke-width="1.5" d="M0,-3.0v7 M-2.5,-0.5L0,-3.0L2.5,-0.5"/>
                </g>
                <g id="arrowRight" xlink:href="#dirArrow" transform="rotate(90) translate(36 -43)" onmousedown="handlePan(1,0)">
                  <use xlink:href="#rim" fill="#404040">
                        <set attributeName="fill" to="#808080" begin="arrowRight.mouseover" end="arrowRight.mouseout"/>
                  </use>
                  <path fill="none" stroke="white" stroke-width="1.5" d="M0,-3.0v7 M-2.5,-0.5L0,-3.0L2.5,-0.5"/>
                </g>
                <g id="arrowDown" xlink:href="#dirArrow" transform="rotate(180) translate(-30 -48)" onmousedown="handlePan(0,1)">
                  <use xlink:href="#rim" fill="#404040">
                        <set attributeName="fill" to="#808080" begin="arrowDown.mouseover" end="arrowDown.mouseout"/>
                  </use>
                  <path fill="none" stroke="white" stroke-width="1.5" d="M0,-3.0v7 M-2.5,-0.5L0,-3.0L2.5,-0.5"/>
                </g>
                <g id="arrowLeft" xlink:href="#dirArrow" transform="rotate(270) translate(-36 17)" onmousedown="handlePan(-1,0)">
                  <use xlink:href="#rim" fill="#404040">
                        <set attributeName="fill" to="#808080" begin="arrowLeft.mouseover" end="arrowLeft.mouseout"/>
                  </use>
                  <path fill="none" stroke="white" stroke-width="1.5" d="M0,-3.0v7 M-2.5,-0.5L0,-3.0L2.5,-0.5"/>
                </g>
        </g>
        <svg viewBox="0 0 15 15" width="100%" height="30px" preserveAspectRatio="xMaxYMin meet">
         <g id="arrow_out" transform="scale(0.3 0.3)">
          <a xlink:href="namespace_pz_g_ae1aad0c681853d7e47da4cdfccefc102_icgraph_org.svg" target="_base">
           <rect id="button" ry="5" rx="5" y="6" x="6" height="38" width="38"
                fill="#f2f5e9" fill-opacity="0.5" stroke="#606060" stroke-width="1.0"/>
           <path id="arrow"
             d="M 11.500037,31.436501 C 11.940474,20.09759 22.043105,11.32322 32.158766,21.979434 L 37.068811,17.246167 C 37.068811,17.246167 37.088388,32 37.088388,32 L 22.160133,31.978069 C 22.160133,31.978069 26.997745,27.140456 26.997745,27.140456 C 18.528582,18.264221 13.291696,25.230495 11.500037,31.436501 z"
             style="fill:#404040;"/>
          </a>
         </g>
        </svg>
</svg>
