<?xml version="1.0" encoding="UTF-8" standalone="no"?>
<!DOCTYPE svg PUBLIC "-//W3C//DTD SVG 1.1//EN"
 "http://www.w3.org/Graphics/SVG/1.1/DTD/svg11.dtd">
<!-- Generated by graphviz version 2.43.0 (0)
 -->
<!-- Title: /home/krzysztof/PO/zad5_3&#45;kgliwinski/src/prism.cpp Pages: 1 -->
<!--zoomable 498 -->
<svg id="main" version="1.1" xmlns="http://www.w3.org/2000/svg" xmlns:xlink="http://www.w3.org/1999/xlink" xml:space="preserve" onload="init(evt)">
<style type="text/css"><![CDATA[
.edge:hover path { stroke: red; }
.edge:hover polygon { stroke: red; fill: red; }
]]></style>
<script type="text/javascript"><![CDATA[
var edges = document.getElementsByTagName('g');
if (edges && edges.length) {
  for (var i=0;i<edges.length;i++) {
    if (edges[i].id.substr(0,4)=='edge') {
      edges[i].setAttribute('class','edge');
    }
  }
}
]]></script>
        <defs>
                <circle id="rim" cx="0" cy="0" r="7"/>
                <circle id="rim2" cx="0" cy="0" r="3.5"/>
                <g id="zoomPlus">
                        <use xlink:href="#rim" fill="#404040">
                                <set attributeName="fill" to="#808080" begin="zoomplus.mouseover" end="zoomplus.mouseout"/>
                        </use>
                        <path d="M-4,0h8M0,-4v8" fill="none" stroke="white" stroke-width="1.5" pointer-events="none"/>
                </g>
                <g id="zoomMin">
                        <use xlink:href="#rim" fill="#404040">
                                <set attributeName="fill" to="#808080" begin="zoomminus.mouseover" end="zoomminus.mouseout"/>
                        </use>
                        <path d="M-4,0h8" fill="none" stroke="white" stroke-width="1.5" pointer-events="none"/>
                </g>
                <g id="dirArrow">
                        <path fill="none" stroke="white" stroke-width="1.5" d="M0,-3.0v7 M-2.5,-0.5L0,-3.0L2.5,-0.5"/>
                </g>
               <g id="resetDef">
                       <use xlink:href="#rim2" fill="#404040">
                               <set attributeName="fill" to="#808080" begin="reset.mouseover" end="reset.mouseout"/>
                       </use>
               </g>
        </defs>

<script type="text/javascript">
var viewWidth = 714;
var viewHeight = 498;
var sectionId = 'dynsection-0';
</script>
<script xlink:href="svgpan.js"/>
<svg id="graph" class="graph">
<g id="viewport">
<title>/home/krzysztof/PO/zad5_3&#45;kgliwinski/src/prism.cpp</title>
<!-- Node1 -->
<g id="node1" class="node">
<title>Node1</title>
<g id="a_node1"><a xlink:title=" ">
<polygon fill="#bfbfbf" stroke="black" points="192.5,-448.5 192.5,-489.5 317.5,-489.5 317.5,-448.5 192.5,-448.5"/>
<text text-anchor="start" x="200.5" y="-477.5" font-family="Helvetica,sans-Serif" font-size="10.00">/home/krzysztof/PO</text>
<text text-anchor="start" x="200.5" y="-466.5" font-family="Helvetica,sans-Serif" font-size="10.00">/zad5_3&#45;kgliwinski/src</text>
<text text-anchor="middle" x="255" y="-455.5" font-family="Helvetica,sans-Serif" font-size="10.00">/prism.cpp</text>
</a>
</g>
</g>
<!-- Node2 -->
<g id="node2" class="node">
<title>Node2</title>
<g id="a_node2"><a xlink:href="prism_8hpp.html" target="_top" xlink:title="Plik zawiera definicję klasy reprezentujacej graniastoslup o podstawie o 6 wierzcholkach w przestrzen...">
<polygon fill="none" stroke="black" points="198.5,-392.5 198.5,-411.5 311.5,-411.5 311.5,-392.5 198.5,-392.5"/>
<text text-anchor="middle" x="255" y="-399.5" font-family="Helvetica,sans-Serif" font-size="10.00">../include/prism.hpp</text>
</a>
</g>
</g>
<!-- Node1&#45;&gt;Node2 -->
<g id="edge1" class="edge">
<title>Node1&#45;&gt;Node2</title>
<path fill="none" stroke="midnightblue" d="M255,-448.5C255,-440.07 255,-430.24 255,-421.87"/>
<polygon fill="midnightblue" stroke="midnightblue" points="258.5,-421.65 255,-411.65 251.5,-421.65 258.5,-421.65"/>
</g>
<!-- Node3 -->
<g id="node3" class="node">
<title>Node3</title>
<g id="a_node3"><a xlink:href="block_8hpp.html" target="_top" xlink:title="Plik zawiera definicję klasy reprezentujacej bryle w przestrzeni trojwymiarowej.">
<polygon fill="none" stroke="black" points="223,-336.5 223,-355.5 287,-355.5 287,-336.5 223,-336.5"/>
<text text-anchor="middle" x="255" y="-343.5" font-family="Helvetica,sans-Serif" font-size="10.00">block.hpp</text>
</a>
</g>
</g>
<!-- Node2&#45;&gt;Node3 -->
<g id="edge2" class="edge">
<title>Node2&#45;&gt;Node3</title>
<path fill="none" stroke="midnightblue" d="M255,-392.08C255,-385.01 255,-374.86 255,-365.99"/>
<polygon fill="midnightblue" stroke="midnightblue" points="258.5,-365.75 255,-355.75 251.5,-365.75 258.5,-365.75"/>
</g>
<!-- Node4 -->
<g id="node4" class="node">
<title>Node4</title>
<g id="a_node4"><a xlink:title=" ">
<polygon fill="none" stroke="#bfbfbf" points="0,-280.5 0,-299.5 44,-299.5 44,-280.5 0,-280.5"/>
<text text-anchor="middle" x="22" y="-287.5" font-family="Helvetica,sans-Serif" font-size="10.00">string</text>
</a>
</g>
</g>
<!-- Node3&#45;&gt;Node4 -->
<g id="edge3" class="edge">
<title>Node3&#45;&gt;Node4</title>
<path fill="none" stroke="midnightblue" d="M222.66,-338.46C184.6,-330.61 119.29,-316.7 54.31,-300.22"/>
<polygon fill="midnightblue" stroke="midnightblue" points="54.86,-296.75 44.3,-297.66 53.13,-303.53 54.86,-296.75"/>
</g>
<!-- Node5 -->
<g id="node5" class="node">
<title>Node5</title>
<g id="a_node5"><a xlink:title=" ">
<polygon fill="none" stroke="#bfbfbf" points="62.5,-280.5 62.5,-299.5 109.5,-299.5 109.5,-280.5 62.5,-280.5"/>
<text text-anchor="middle" x="86" y="-287.5" font-family="Helvetica,sans-Serif" font-size="10.00">vector</text>
</a>
</g>
</g>
<!-- Node3&#45;&gt;Node5 -->
<g id="edge4" class="edge">
<title>Node3&#45;&gt;Node5</title>
<path fill="none" stroke="midnightblue" d="M228.22,-336.44C198.74,-327.02 151.31,-311.87 119.42,-301.68"/>
<polygon fill="midnightblue" stroke="midnightblue" points="120.24,-298.27 109.65,-298.56 118.11,-304.94 120.24,-298.27"/>
</g>
<!-- Node6 -->
<g id="node6" class="node">
<title>Node6</title>
<g id="a_node6"><a xlink:title=" ">
<polygon fill="none" stroke="#bfbfbf" points="127.5,-280.5 127.5,-299.5 182.5,-299.5 182.5,-280.5 127.5,-280.5"/>
<text text-anchor="middle" x="155" y="-287.5" font-family="Helvetica,sans-Serif" font-size="10.00">fstream</text>
</a>
</g>
</g>
<!-- Node3&#45;&gt;Node6 -->
<g id="edge5" class="edge">
<title>Node3&#45;&gt;Node6</title>
<path fill="none" stroke="midnightblue" d="M238.93,-336.32C223.04,-327.74 198.49,-314.49 180.04,-304.52"/>
<polygon fill="midnightblue" stroke="midnightblue" points="181.49,-301.33 171.03,-299.65 178.16,-307.49 181.49,-301.33"/>
</g>
<!-- Node7 -->
<g id="node7" class="node">
<title>Node7</title>
<g id="a_node7"><a xlink:href="vector3_d_8hpp.html" target="_top" xlink:title="Zawiera deklaracje klasy Vector3D.">
<polygon fill="none" stroke="black" points="405,-168.5 405,-187.5 487,-187.5 487,-168.5 405,-168.5"/>
<text text-anchor="middle" x="446" y="-175.5" font-family="Helvetica,sans-Serif" font-size="10.00">vector3D.hpp</text>
</a>
</g>
</g>
<!-- Node3&#45;&gt;Node7 -->
<g id="edge6" class="edge">
<title>Node3&#45;&gt;Node7</title>
<path fill="none" stroke="midnightblue" d="M265,-336.31C295.68,-309.64 388.8,-228.72 428.14,-194.52"/>
<polygon fill="midnightblue" stroke="midnightblue" points="430.85,-196.81 436.1,-187.61 426.26,-191.52 430.85,-196.81"/>
</g>
<!-- Node8 -->
<g id="node8" class="node">
<title>Node8</title>
<g id="a_node8"><a xlink:href="vector_8hpp.html" target="_top" xlink:title=" ">
<polygon fill="none" stroke="black" points="412,-112.5 412,-131.5 480,-131.5 480,-112.5 412,-112.5"/>
<text text-anchor="middle" x="446" y="-119.5" font-family="Helvetica,sans-Serif" font-size="10.00">vector.hpp</text>
</a>
</g>
</g>
<!-- Node3&#45;&gt;Node8 -->
<g id="edge18" class="edge">
<title>Node3&#45;&gt;Node8</title>
<path fill="none" stroke="midnightblue" d="M246.42,-336.46C215.64,-305.33 113.89,-198.23 140,-168 173.27,-129.48 325.08,-123.33 401.62,-122.74"/>
<polygon fill="midnightblue" stroke="midnightblue" points="401.91,-126.24 411.89,-122.69 401.88,-119.24 401.91,-126.24"/>
</g>
<!-- Node12 -->
<g id="node12" class="node">
<title>Node12</title>
<g id="a_node12"><a xlink:href="count_8hpp.html" target="_top" xlink:title="Plik zawiera definicję klasy reprezentujacej counter, pozwalajacy na liczenie instancji stworzonych k...">
<polygon fill="none" stroke="black" points="628.5,-56.5 628.5,-75.5 693.5,-75.5 693.5,-56.5 628.5,-56.5"/>
<text text-anchor="middle" x="661" y="-63.5" font-family="Helvetica,sans-Serif" font-size="10.00">count.hpp</text>
</a>
</g>
</g>
<!-- Node3&#45;&gt;Node12 -->
<g id="edge17" class="edge">
<title>Node3&#45;&gt;Node12</title>
<path fill="none" stroke="midnightblue" d="M287.14,-343.1C382.29,-336.62 656,-311.34 656,-235 656,-235 656,-235 656,-177 656,-144.91 658.15,-107.62 659.63,-85.74"/>
<polygon fill="midnightblue" stroke="midnightblue" points="663.14,-85.77 660.35,-75.55 656.15,-85.28 663.14,-85.77"/>
</g>
<!-- Node16 -->
<g id="node16" class="node">
<title>Node16</title>
<g id="a_node16"><a xlink:href="matrix3_d_8hpp.html" target="_top" xlink:title="Zawiera deklaracje klasy Matrix3D.">
<polygon fill="none" stroke="black" points="416.5,-280.5 416.5,-299.5 499.5,-299.5 499.5,-280.5 416.5,-280.5"/>
<text text-anchor="middle" x="458" y="-287.5" font-family="Helvetica,sans-Serif" font-size="10.00">matrix3D.hpp</text>
</a>
</g>
</g>
<!-- Node3&#45;&gt;Node16 -->
<g id="edge19" class="edge">
<title>Node3&#45;&gt;Node16</title>
<path fill="none" stroke="midnightblue" d="M287.17,-336.44C322.06,-327.16 377.89,-312.31 416.17,-302.13"/>
<polygon fill="midnightblue" stroke="midnightblue" points="417.22,-305.47 425.98,-299.52 415.42,-298.7 417.22,-305.47"/>
</g>
<!-- Node17 -->
<g id="node17" class="node">
<title>Node17</title>
<g id="a_node17"><a xlink:href="matrix_8hpp.html" target="_top" xlink:title=" ">
<polygon fill="none" stroke="black" points="290,-224.5 290,-243.5 360,-243.5 360,-224.5 290,-224.5"/>
<text text-anchor="middle" x="325" y="-231.5" font-family="Helvetica,sans-Serif" font-size="10.00">matrix.hpp</text>
</a>
</g>
</g>
<!-- Node3&#45;&gt;Node17 -->
<g id="edge29" class="edge">
<title>Node3&#45;&gt;Node17</title>
<path fill="none" stroke="midnightblue" d="M260.49,-336.37C271.99,-318.3 298.8,-276.18 313.99,-252.31"/>
<polygon fill="midnightblue" stroke="midnightblue" points="317.12,-253.91 319.53,-243.59 311.21,-250.15 317.12,-253.91"/>
</g>
<!-- Node7&#45;&gt;Node8 -->
<g id="edge7" class="edge">
<title>Node7&#45;&gt;Node8</title>
<path fill="none" stroke="midnightblue" d="M446,-168.08C446,-161.01 446,-150.86 446,-141.99"/>
<polygon fill="midnightblue" stroke="midnightblue" points="449.5,-141.75 446,-131.75 442.5,-141.75 449.5,-141.75"/>
</g>
<!-- Node15 -->
<g id="node15" class="node">
<title>Node15</title>
<g id="a_node15"><a xlink:href="vector3_d_8cpp.html" target="_top" xlink:title=" ">
<polygon fill="none" stroke="black" points="498.5,-112.5 498.5,-131.5 605.5,-131.5 605.5,-112.5 498.5,-112.5"/>
<text text-anchor="middle" x="552" y="-119.5" font-family="Helvetica,sans-Serif" font-size="10.00">../src/vector3D.cpp</text>
</a>
</g>
</g>
<!-- Node7&#45;&gt;Node15 -->
<g id="edge15" class="edge">
<title>Node7&#45;&gt;Node15</title>
<path fill="none" stroke="midnightblue" d="M463.03,-168.32C480.03,-159.66 506.38,-146.24 525.99,-136.25"/>
<polygon fill="midnightblue" stroke="midnightblue" points="527.69,-139.31 535.01,-131.65 524.51,-133.08 527.69,-139.31"/>
</g>
<!-- Node9 -->
<g id="node9" class="node">
<title>Node9</title>
<g id="a_node9"><a xlink:title=" ">
<polygon fill="none" stroke="#bfbfbf" points="430,-0.5 430,-19.5 490,-19.5 490,-0.5 430,-0.5"/>
<text text-anchor="middle" x="460" y="-7.5" font-family="Helvetica,sans-Serif" font-size="10.00">iostream</text>
</a>
</g>
</g>
<!-- Node8&#45;&gt;Node9 -->
<g id="edge8" class="edge">
<title>Node8&#45;&gt;Node9</title>
<path fill="none" stroke="midnightblue" d="M447.1,-112.37C449.36,-94.62 454.57,-53.67 457.63,-29.6"/>
<polygon fill="midnightblue" stroke="midnightblue" points="461.12,-29.95 458.91,-19.59 454.17,-29.07 461.12,-29.95"/>
</g>
<!-- Node10 -->
<g id="node10" class="node">
<title>Node10</title>
<g id="a_node10"><a xlink:title=" ">
<polygon fill="none" stroke="#bfbfbf" points="488.5,-56.5 488.5,-75.5 535.5,-75.5 535.5,-56.5 488.5,-56.5"/>
<text text-anchor="middle" x="512" y="-63.5" font-family="Helvetica,sans-Serif" font-size="10.00">cmath</text>
</a>
</g>
</g>
<!-- Node8&#45;&gt;Node10 -->
<g id="edge9" class="edge">
<title>Node8&#45;&gt;Node10</title>
<path fill="none" stroke="midnightblue" d="M456.6,-112.32C466.46,-104.26 481.35,-92.08 493.22,-82.37"/>
<polygon fill="midnightblue" stroke="midnightblue" points="495.68,-84.88 501.2,-75.83 491.25,-79.46 495.68,-84.88"/>
</g>
<!-- Node11 -->
<g id="node11" class="node">
<title>Node11</title>
<g id="a_node11"><a xlink:title=" ">
<polygon fill="none" stroke="#bfbfbf" points="554,-56.5 554,-75.5 610,-75.5 610,-56.5 554,-56.5"/>
<text text-anchor="middle" x="582" y="-63.5" font-family="Helvetica,sans-Serif" font-size="10.00">iomanip</text>
</a>
</g>
</g>
<!-- Node8&#45;&gt;Node11 -->
<g id="edge10" class="edge">
<title>Node8&#45;&gt;Node11</title>
<path fill="none" stroke="midnightblue" d="M467.55,-112.44C490.03,-103.52 525.49,-89.44 550.98,-79.32"/>
<polygon fill="midnightblue" stroke="midnightblue" points="552.55,-82.46 560.55,-75.52 549.97,-75.95 552.55,-82.46"/>
</g>
<!-- Node8&#45;&gt;Node12 -->
<g id="edge11" class="edge">
<title>Node8&#45;&gt;Node12</title>
<path fill="none" stroke="midnightblue" d="M480.07,-112.44C517.62,-103.01 578.06,-87.83 618.64,-77.64"/>
<polygon fill="midnightblue" stroke="midnightblue" points="619.65,-80.99 628.5,-75.16 617.95,-74.2 619.65,-80.99"/>
</g>
<!-- Node14 -->
<g id="node14" class="node">
<title>Node14</title>
<g id="a_node14"><a xlink:title=" ">
<polygon fill="none" stroke="#bfbfbf" points="340,-56.5 340,-75.5 432,-75.5 432,-56.5 340,-56.5"/>
<text text-anchor="middle" x="386" y="-63.5" font-family="Helvetica,sans-Serif" font-size="10.00">../src/vector.tpp</text>
</a>
</g>
</g>
<!-- Node8&#45;&gt;Node14 -->
<g id="edge14" class="edge">
<title>Node8&#45;&gt;Node14</title>
<path fill="none" stroke="midnightblue" d="M436.36,-112.32C427.49,-104.34 414.13,-92.31 403.39,-82.65"/>
<polygon fill="midnightblue" stroke="midnightblue" points="405.59,-79.92 395.82,-75.83 400.91,-85.13 405.59,-79.92"/>
</g>
<!-- Node12&#45;&gt;Node9 -->
<g id="edge12" class="edge">
<title>Node12&#45;&gt;Node9</title>
<path fill="none" stroke="midnightblue" d="M629.15,-56.44C594.09,-47.03 537.69,-31.87 499.76,-21.68"/>
<polygon fill="midnightblue" stroke="midnightblue" points="500.62,-18.29 490.06,-19.08 498.81,-25.05 500.62,-18.29"/>
</g>
<!-- Node13 -->
<g id="node13" class="node">
<title>Node13</title>
<g id="a_node13"><a xlink:title=" ">
<polygon fill="none" stroke="#bfbfbf" points="616.5,-0.5 616.5,-19.5 705.5,-19.5 705.5,-0.5 616.5,-0.5"/>
<text text-anchor="middle" x="661" y="-7.5" font-family="Helvetica,sans-Serif" font-size="10.00">../src/count.tpp</text>
</a>
</g>
</g>
<!-- Node12&#45;&gt;Node13 -->
<g id="edge13" class="edge">
<title>Node12&#45;&gt;Node13</title>
<path fill="none" stroke="midnightblue" d="M661,-56.08C661,-49.01 661,-38.86 661,-29.99"/>
<polygon fill="midnightblue" stroke="midnightblue" points="664.5,-29.75 661,-19.75 657.5,-29.75 664.5,-29.75"/>
</g>
<!-- Node15&#45;&gt;Node15 -->
<g id="edge16" class="edge">
<title>Node15&#45;&gt;Node15</title>
<path fill="none" stroke="midnightblue" d="M582.49,-131.53C603.22,-134.31 623.5,-131.13 623.5,-122 623.5,-114.37 609.33,-110.89 592.57,-111.59"/>
<polygon fill="midnightblue" stroke="midnightblue" points="592.15,-108.11 582.49,-112.47 592.76,-115.08 592.15,-108.11"/>
</g>
<!-- Node16&#45;&gt;Node7 -->
<g id="edge26" class="edge">
<title>Node16&#45;&gt;Node7</title>
<path fill="none" stroke="midnightblue" d="M457.06,-280.37C455.12,-262.62 450.65,-221.67 448.03,-197.6"/>
<polygon fill="midnightblue" stroke="midnightblue" points="451.5,-197.15 446.94,-187.59 444.54,-197.91 451.5,-197.15"/>
</g>
<!-- Node16&#45;&gt;Node17 -->
<g id="edge20" class="edge">
<title>Node16&#45;&gt;Node17</title>
<path fill="none" stroke="midnightblue" d="M436.93,-280.44C414.94,-271.52 380.27,-257.44 355.34,-247.32"/>
<polygon fill="midnightblue" stroke="midnightblue" points="356.56,-244.04 345.98,-243.52 353.92,-250.52 356.56,-244.04"/>
</g>
<!-- Node20 -->
<g id="node20" class="node">
<title>Node20</title>
<g id="a_node20"><a xlink:href="matrix3_d_8cpp.html" target="_top" xlink:title=" ">
<polygon fill="none" stroke="black" points="471.5,-224.5 471.5,-243.5 580.5,-243.5 580.5,-224.5 471.5,-224.5"/>
<text text-anchor="middle" x="526" y="-231.5" font-family="Helvetica,sans-Serif" font-size="10.00">../src/matrix3D.cpp</text>
</a>
</g>
</g>
<!-- Node16&#45;&gt;Node20 -->
<g id="edge27" class="edge">
<title>Node16&#45;&gt;Node20</title>
<path fill="none" stroke="midnightblue" d="M463.81,-280.32C472.43,-272.06 487.98,-259.45 501.5,-249.63"/>
<polygon fill="midnightblue" stroke="midnightblue" points="503.83,-252.27 509.99,-243.65 499.8,-246.55 503.83,-252.27"/>
</g>
<!-- Node17&#45;&gt;Node7 -->
<g id="edge22" class="edge">
<title>Node17&#45;&gt;Node7</title>
<path fill="none" stroke="midnightblue" d="M344.17,-224.44C363.91,-215.64 394.89,-201.81 417.49,-191.72"/>
<polygon fill="midnightblue" stroke="midnightblue" points="419.21,-194.79 426.92,-187.52 416.36,-188.4 419.21,-194.79"/>
</g>
<!-- Node17&#45;&gt;Node8 -->
<g id="edge21" class="edge">
<title>Node17&#45;&gt;Node8</title>
<path fill="none" stroke="midnightblue" d="M334.62,-224.14C348.25,-211.61 373.97,-187.99 396,-168 406.83,-158.17 419.04,-147.18 428.68,-138.52"/>
<polygon fill="midnightblue" stroke="midnightblue" points="431.29,-140.89 436.39,-131.6 426.61,-135.68 431.29,-140.89"/>
</g>
<!-- Node17&#45;&gt;Node9 -->
<g id="edge23" class="edge">
<title>Node17&#45;&gt;Node9</title>
<path fill="none" stroke="midnightblue" d="M324.73,-224.29C323.75,-190.55 320.98,-69.62 331,-56 351.38,-28.32 390.02,-17.56 419.72,-13.43"/>
<polygon fill="midnightblue" stroke="midnightblue" points="420.29,-16.89 429.81,-12.23 419.46,-9.93 420.29,-16.89"/>
</g>
<!-- Node18 -->
<g id="node18" class="node">
<title>Node18</title>
<g id="a_node18"><a xlink:title=" ">
<polygon fill="none" stroke="#bfbfbf" points="149.5,-168.5 149.5,-187.5 198.5,-187.5 198.5,-168.5 149.5,-168.5"/>
<text text-anchor="middle" x="174" y="-175.5" font-family="Helvetica,sans-Serif" font-size="10.00">cstdlib</text>
</a>
</g>
</g>
<!-- Node17&#45;&gt;Node18 -->
<g id="edge24" class="edge">
<title>Node17&#45;&gt;Node18</title>
<path fill="none" stroke="midnightblue" d="M301.07,-224.44C275.78,-215.4 235.7,-201.06 207.32,-190.92"/>
<polygon fill="midnightblue" stroke="midnightblue" points="208.41,-187.59 197.81,-187.52 206.05,-194.18 208.41,-187.59"/>
</g>
<!-- Node19 -->
<g id="node19" class="node">
<title>Node19</title>
<g id="a_node19"><a xlink:title=" ">
<polygon fill="none" stroke="#bfbfbf" points="217,-168.5 217,-187.5 311,-187.5 311,-168.5 217,-168.5"/>
<text text-anchor="middle" x="264" y="-175.5" font-family="Helvetica,sans-Serif" font-size="10.00">../src/matrix.tpp</text>
</a>
</g>
</g>
<!-- Node17&#45;&gt;Node19 -->
<g id="edge25" class="edge">
<title>Node17&#45;&gt;Node19</title>
<path fill="none" stroke="midnightblue" d="M315.2,-224.32C306.18,-216.34 292.59,-204.31 281.68,-194.65"/>
<polygon fill="midnightblue" stroke="midnightblue" points="283.79,-191.84 273.98,-187.83 279.15,-197.08 283.79,-191.84"/>
</g>
<!-- Node20&#45;&gt;Node16 -->
<g id="edge28" class="edge">
<title>Node20&#45;&gt;Node16</title>
<path fill="none" stroke="midnightblue" d="M520.02,-243.83C511.37,-252.11 495.92,-264.62 482.48,-274.38"/>
<polygon fill="midnightblue" stroke="midnightblue" points="480.2,-271.71 474.04,-280.32 484.23,-277.43 480.2,-271.71"/>
</g>
</g>
</svg>
        <g id="navigator" transform="translate(0 0)" fill="#404254">
                <rect fill="#f2f5e9" fill-opacity="0.5" stroke="#606060" stroke-width=".5" x="0" y="0" width="60" height="60"/>
                <use id="zoomplus" xlink:href="#zoomPlus" x="17" y="9" onmousedown="handleZoom(evt,'in')"/>
                <use id="zoomminus" xlink:href="#zoomMin" x="42" y="9" onmousedown="handleZoom(evt,'out')"/>
                <use id="reset" xlink:href="#resetDef" x="30" y="36" onmousedown="handleReset()"/>
                <g id="arrowUp" xlink:href="#dirArrow" transform="translate(30 24)" onmousedown="handlePan(0,-1)">
                  <use xlink:href="#rim" fill="#404040">
                        <set attributeName="fill" to="#808080" begin="arrowUp.mouseover" end="arrowUp.mouseout"/>
                  </use>
                  <path fill="none" stroke="white" stroke-width="1.5" d="M0,-3.0v7 M-2.5,-0.5L0,-3.0L2.5,-0.5"/>
                </g>
                <g id="arrowRight" xlink:href="#dirArrow" transform="rotate(90) translate(36 -43)" onmousedown="handlePan(1,0)">
                  <use xlink:href="#rim" fill="#404040">
                        <set attributeName="fill" to="#808080" begin="arrowRight.mouseover" end="arrowRight.mouseout"/>
                  </use>
                  <path fill="none" stroke="white" stroke-width="1.5" d="M0,-3.0v7 M-2.5,-0.5L0,-3.0L2.5,-0.5"/>
                </g>
                <g id="arrowDown" xlink:href="#dirArrow" transform="rotate(180) translate(-30 -48)" onmousedown="handlePan(0,1)">
                  <use xlink:href="#rim" fill="#404040">
                        <set attributeName="fill" to="#808080" begin="arrowDown.mouseover" end="arrowDown.mouseout"/>
                  </use>
                  <path fill="none" stroke="white" stroke-width="1.5" d="M0,-3.0v7 M-2.5,-0.5L0,-3.0L2.5,-0.5"/>
                </g>
                <g id="arrowLeft" xlink:href="#dirArrow" transform="rotate(270) translate(-36 17)" onmousedown="handlePan(-1,0)">
                  <use xlink:href="#rim" fill="#404040">
                        <set attributeName="fill" to="#808080" begin="arrowLeft.mouseover" end="arrowLeft.mouseout"/>
                  </use>
                  <path fill="none" stroke="white" stroke-width="1.5" d="M0,-3.0v7 M-2.5,-0.5L0,-3.0L2.5,-0.5"/>
                </g>
        </g>
        <svg viewBox="0 0 15 15" width="100%" height="30px" preserveAspectRatio="xMaxYMin meet">
         <g id="arrow_out" transform="scale(0.3 0.3)">
          <a xlink:href="prism_8cpp__incl_org.svg" target="_base">
           <rect id="button" ry="5" rx="5" y="6" x="6" height="38" width="38"
                fill="#f2f5e9" fill-opacity="0.5" stroke="#606060" stroke-width="1.0"/>
           <path id="arrow"
             d="M 11.500037,31.436501 C 11.940474,20.09759 22.043105,11.32322 32.158766,21.979434 L 37.068811,17.246167 C 37.068811,17.246167 37.088388,32 37.088388,32 L 22.160133,31.978069 C 22.160133,31.978069 26.997745,27.140456 26.997745,27.140456 C 18.528582,18.264221 13.291696,25.230495 11.500037,31.436501 z"
             style="fill:#404040;"/>
          </a>
         </g>
        </svg>
</svg>
