<?xml version="1.0" encoding="UTF-8" standalone="no"?>
<!DOCTYPE svg PUBLIC "-//W3C//DTD SVG 1.1//EN"
 "http://www.w3.org/Graphics/SVG/1.1/DTD/svg11.dtd">
<!-- Generated by graphviz version 2.43.0 (0)
 -->
<!-- Title: /home/krzysztof/PO/zad5_2&#45;kgliwinski/include/pyramid.hpp Pages: 1 -->
<svg width="571pt" height="498pt"
 viewBox="0.00 0.00 570.50 498.00" xmlns="http://www.w3.org/2000/svg" xmlns:xlink="http://www.w3.org/1999/xlink">
<g id="graph0" class="graph" transform="scale(1 1) rotate(0) translate(4 494)">
<title>/home/krzysztof/PO/zad5_2&#45;kgliwinski/include/pyramid.hpp</title>
<!-- Node1 -->
<g id="node1" class="node">
<title>Node1</title>
<g id="a_node1"><a xlink:title="Plik zawiera definicję klasy reprezentujacej ostroslup o prostokatnej podstawie w przestrzeni trojwym...">
<polygon fill="#bfbfbf" stroke="black" points="111,-448.5 111,-489.5 257,-489.5 257,-448.5 111,-448.5"/>
<text text-anchor="start" x="119" y="-477.5" font-family="Helvetica,sans-Serif" font-size="10.00">/home/krzysztof/PO</text>
<text text-anchor="start" x="119" y="-466.5" font-family="Helvetica,sans-Serif" font-size="10.00">/zad5_2&#45;kgliwinski/include</text>
<text text-anchor="middle" x="184" y="-455.5" font-family="Helvetica,sans-Serif" font-size="10.00">/pyramid.hpp</text>
</a>
</g>
</g>
<!-- Node2 -->
<g id="node2" class="node">
<title>Node2</title>
<g id="a_node2"><a xlink:href="cuboid_8hpp.html" target="_top" xlink:title="Plik zawiera definicję klasy reprezentujacej prostopadloscian w przestrzeni trojwymiarowej.">
<polygon fill="none" stroke="black" points="149,-392.5 149,-411.5 219,-411.5 219,-392.5 149,-392.5"/>
<text text-anchor="middle" x="184" y="-399.5" font-family="Helvetica,sans-Serif" font-size="10.00">cuboid.hpp</text>
</a>
</g>
</g>
<!-- Node1&#45;&gt;Node2 -->
<g id="edge1" class="edge">
<title>Node1&#45;&gt;Node2</title>
<path fill="none" stroke="midnightblue" d="M184,-448.5C184,-440.07 184,-430.24 184,-421.87"/>
<polygon fill="midnightblue" stroke="midnightblue" points="187.5,-421.65 184,-411.65 180.5,-421.65 187.5,-421.65"/>
</g>
<!-- Node3 -->
<g id="node3" class="node">
<title>Node3</title>
<g id="a_node3"><a xlink:href="block_8hpp.html" target="_top" xlink:title="Plik zawiera definicję klasy reprezentujacej bryle w przestrzeni trojwymiarowej.">
<polygon fill="none" stroke="black" points="152,-336.5 152,-355.5 216,-355.5 216,-336.5 152,-336.5"/>
<text text-anchor="middle" x="184" y="-343.5" font-family="Helvetica,sans-Serif" font-size="10.00">block.hpp</text>
</a>
</g>
</g>
<!-- Node2&#45;&gt;Node3 -->
<g id="edge2" class="edge">
<title>Node2&#45;&gt;Node3</title>
<path fill="none" stroke="midnightblue" d="M184,-392.08C184,-385.01 184,-374.86 184,-365.99"/>
<polygon fill="midnightblue" stroke="midnightblue" points="187.5,-365.75 184,-355.75 180.5,-365.75 187.5,-365.75"/>
</g>
<!-- Node4 -->
<g id="node4" class="node">
<title>Node4</title>
<g id="a_node4"><a xlink:title=" ">
<polygon fill="none" stroke="#bfbfbf" points="0,-280.5 0,-299.5 44,-299.5 44,-280.5 0,-280.5"/>
<text text-anchor="middle" x="22" y="-287.5" font-family="Helvetica,sans-Serif" font-size="10.00">string</text>
</a>
</g>
</g>
<!-- Node3&#45;&gt;Node4 -->
<g id="edge3" class="edge">
<title>Node3&#45;&gt;Node4</title>
<path fill="none" stroke="midnightblue" d="M158.33,-336.44C130.04,-327.01 84.48,-311.83 53.91,-301.64"/>
<polygon fill="midnightblue" stroke="midnightblue" points="54.76,-298.23 44.17,-298.39 52.55,-304.87 54.76,-298.23"/>
</g>
<!-- Node5 -->
<g id="node5" class="node">
<title>Node5</title>
<g id="a_node5"><a xlink:title=" ">
<polygon fill="none" stroke="#bfbfbf" points="62.5,-280.5 62.5,-299.5 117.5,-299.5 117.5,-280.5 62.5,-280.5"/>
<text text-anchor="middle" x="90" y="-287.5" font-family="Helvetica,sans-Serif" font-size="10.00">fstream</text>
</a>
</g>
</g>
<!-- Node3&#45;&gt;Node5 -->
<g id="edge4" class="edge">
<title>Node3&#45;&gt;Node5</title>
<path fill="none" stroke="midnightblue" d="M168.9,-336.32C154.1,-327.82 131.31,-314.73 114.02,-304.8"/>
<polygon fill="midnightblue" stroke="midnightblue" points="115.48,-301.6 105.07,-299.65 111.99,-307.67 115.48,-301.6"/>
</g>
<!-- Node6 -->
<g id="node6" class="node">
<title>Node6</title>
<g id="a_node6"><a xlink:href="vector3_d_8hpp.html" target="_top" xlink:title="Zawiera deklaracje klasy Vector3D.">
<polygon fill="none" stroke="black" points="468,-168.5 468,-187.5 550,-187.5 550,-168.5 468,-168.5"/>
<text text-anchor="middle" x="509" y="-175.5" font-family="Helvetica,sans-Serif" font-size="10.00">vector3D.hpp</text>
</a>
</g>
</g>
<!-- Node3&#45;&gt;Node6 -->
<g id="edge5" class="edge">
<title>Node3&#45;&gt;Node6</title>
<path fill="none" stroke="midnightblue" d="M201.02,-336.31C254.43,-309.02 419.04,-224.95 483.11,-192.22"/>
<polygon fill="midnightblue" stroke="midnightblue" points="484.84,-195.27 492.15,-187.61 481.65,-189.04 484.84,-195.27"/>
</g>
<!-- Node7 -->
<g id="node7" class="node">
<title>Node7</title>
<g id="a_node7"><a xlink:href="vector_8hpp.html" target="_top" xlink:title=" ">
<polygon fill="none" stroke="black" points="315,-112.5 315,-131.5 383,-131.5 383,-112.5 315,-112.5"/>
<text text-anchor="middle" x="349" y="-119.5" font-family="Helvetica,sans-Serif" font-size="10.00">vector.hpp</text>
</a>
</g>
</g>
<!-- Node3&#45;&gt;Node7 -->
<g id="edge17" class="edge">
<title>Node3&#45;&gt;Node7</title>
<path fill="none" stroke="midnightblue" d="M184.38,-336.38C186.08,-308.38 195.1,-218.88 242,-168 258.58,-150.01 283.5,-138.96 305.12,-132.32"/>
<polygon fill="midnightblue" stroke="midnightblue" points="306.12,-135.67 314.78,-129.57 304.2,-128.94 306.12,-135.67"/>
</g>
<!-- Node11 -->
<g id="node11" class="node">
<title>Node11</title>
<g id="a_node11"><a xlink:href="count_8hpp.html" target="_top" xlink:title="Plik zawiera definicję klasy reprezentujacej counter, pozwalajacy na liczenie instancji stworzonych k...">
<polygon fill="none" stroke="black" points="121.5,-56.5 121.5,-75.5 186.5,-75.5 186.5,-56.5 121.5,-56.5"/>
<text text-anchor="middle" x="154" y="-63.5" font-family="Helvetica,sans-Serif" font-size="10.00">count.hpp</text>
</a>
</g>
</g>
<!-- Node3&#45;&gt;Node11 -->
<g id="edge16" class="edge">
<title>Node3&#45;&gt;Node11</title>
<path fill="none" stroke="midnightblue" d="M178.72,-336.23C168.27,-318.04 146,-274.6 146,-235 146,-235 146,-235 146,-177 146,-144.86 149.44,-107.58 151.81,-85.72"/>
<polygon fill="midnightblue" stroke="midnightblue" points="155.31,-85.87 152.95,-75.54 148.36,-85.09 155.31,-85.87"/>
</g>
<!-- Node15 -->
<g id="node15" class="node">
<title>Node15</title>
<g id="a_node15"><a xlink:href="matrix3_d_8hpp.html" target="_top" xlink:title="Zawiera deklaracje klasy Matrix3D.">
<polygon fill="none" stroke="black" points="392.5,-280.5 392.5,-299.5 475.5,-299.5 475.5,-280.5 392.5,-280.5"/>
<text text-anchor="middle" x="434" y="-287.5" font-family="Helvetica,sans-Serif" font-size="10.00">matrix3D.hpp</text>
</a>
</g>
</g>
<!-- Node3&#45;&gt;Node15 -->
<g id="edge18" class="edge">
<title>Node3&#45;&gt;Node15</title>
<path fill="none" stroke="midnightblue" d="M216.17,-338.05C258.86,-328.83 334.64,-312.46 384.6,-301.67"/>
<polygon fill="midnightblue" stroke="midnightblue" points="385.51,-305.05 394.54,-299.52 384.03,-298.21 385.51,-305.05"/>
</g>
<!-- Node16 -->
<g id="node16" class="node">
<title>Node16</title>
<g id="a_node16"><a xlink:href="matrix_8hpp.html" target="_top" xlink:title=" ">
<polygon fill="none" stroke="black" points="266,-224.5 266,-243.5 336,-243.5 336,-224.5 266,-224.5"/>
<text text-anchor="middle" x="301" y="-231.5" font-family="Helvetica,sans-Serif" font-size="10.00">matrix.hpp</text>
</a>
</g>
</g>
<!-- Node3&#45;&gt;Node16 -->
<g id="edge28" class="edge">
<title>Node3&#45;&gt;Node16</title>
<path fill="none" stroke="midnightblue" d="M193.18,-336.37C212.83,-317.89 259.21,-274.29 284.25,-250.74"/>
<polygon fill="midnightblue" stroke="midnightblue" points="286.97,-252.99 291.86,-243.59 282.18,-247.89 286.97,-252.99"/>
</g>
<!-- Node6&#45;&gt;Node7 -->
<g id="edge6" class="edge">
<title>Node6&#45;&gt;Node7</title>
<path fill="none" stroke="midnightblue" d="M483.65,-168.44C456.73,-159.36 414,-144.94 383.91,-134.78"/>
<polygon fill="midnightblue" stroke="midnightblue" points="384.83,-131.4 374.23,-131.52 382.59,-138.03 384.83,-131.4"/>
</g>
<!-- Node14 -->
<g id="node14" class="node">
<title>Node14</title>
<g id="a_node14"><a xlink:href="vector3_d_8cpp.html" target="_top" xlink:title=" ">
<polygon fill="none" stroke="black" points="455.5,-112.5 455.5,-131.5 562.5,-131.5 562.5,-112.5 455.5,-112.5"/>
<text text-anchor="middle" x="509" y="-119.5" font-family="Helvetica,sans-Serif" font-size="10.00">../src/vector3D.cpp</text>
</a>
</g>
</g>
<!-- Node6&#45;&gt;Node14 -->
<g id="edge14" class="edge">
<title>Node6&#45;&gt;Node14</title>
<path fill="none" stroke="midnightblue" d="M503.83,-168.08C502.32,-160.93 501.89,-150.64 502.54,-141.69"/>
<polygon fill="midnightblue" stroke="midnightblue" points="506.02,-142.13 503.87,-131.75 499.08,-141.2 506.02,-142.13"/>
</g>
<!-- Node8 -->
<g id="node8" class="node">
<title>Node8</title>
<g id="a_node8"><a xlink:title=" ">
<polygon fill="none" stroke="#bfbfbf" points="201,-0.5 201,-19.5 261,-19.5 261,-0.5 201,-0.5"/>
<text text-anchor="middle" x="231" y="-7.5" font-family="Helvetica,sans-Serif" font-size="10.00">iostream</text>
</a>
</g>
</g>
<!-- Node7&#45;&gt;Node8 -->
<g id="edge7" class="edge">
<title>Node7&#45;&gt;Node8</title>
<path fill="none" stroke="midnightblue" d="M373.68,-112.35C402.41,-100.93 443.69,-79.52 425,-56 406.19,-32.32 322.48,-19.99 271.37,-14.56"/>
<polygon fill="midnightblue" stroke="midnightblue" points="271.6,-11.06 261.3,-13.53 270.89,-18.03 271.6,-11.06"/>
</g>
<!-- Node9 -->
<g id="node9" class="node">
<title>Node9</title>
<g id="a_node9"><a xlink:title=" ">
<polygon fill="none" stroke="#bfbfbf" points="472.5,-56.5 472.5,-75.5 519.5,-75.5 519.5,-56.5 472.5,-56.5"/>
<text text-anchor="middle" x="496" y="-63.5" font-family="Helvetica,sans-Serif" font-size="10.00">cmath</text>
</a>
</g>
</g>
<!-- Node7&#45;&gt;Node9 -->
<g id="edge8" class="edge">
<title>Node7&#45;&gt;Node9</title>
<path fill="none" stroke="midnightblue" d="M372.29,-112.44C396.81,-103.44 435.6,-89.19 463.2,-79.05"/>
<polygon fill="midnightblue" stroke="midnightblue" points="464.64,-82.25 472.82,-75.52 462.22,-75.68 464.64,-82.25"/>
</g>
<!-- Node10 -->
<g id="node10" class="node">
<title>Node10</title>
<g id="a_node10"><a xlink:title=" ">
<polygon fill="none" stroke="#bfbfbf" points="250,-56.5 250,-75.5 306,-75.5 306,-56.5 250,-56.5"/>
<text text-anchor="middle" x="278" y="-63.5" font-family="Helvetica,sans-Serif" font-size="10.00">iomanip</text>
</a>
</g>
</g>
<!-- Node7&#45;&gt;Node10 -->
<g id="edge9" class="edge">
<title>Node7&#45;&gt;Node10</title>
<path fill="none" stroke="midnightblue" d="M337.59,-112.32C326.89,-104.18 310.66,-91.84 297.84,-82.09"/>
<polygon fill="midnightblue" stroke="midnightblue" points="299.69,-79.1 289.61,-75.83 295.46,-84.67 299.69,-79.1"/>
</g>
<!-- Node7&#45;&gt;Node11 -->
<g id="edge10" class="edge">
<title>Node7&#45;&gt;Node11</title>
<path fill="none" stroke="midnightblue" d="M318.1,-112.44C284.73,-103.2 231.41,-88.44 194.65,-78.26"/>
<polygon fill="midnightblue" stroke="midnightblue" points="195.33,-74.81 184.75,-75.52 193.46,-81.56 195.33,-74.81"/>
</g>
<!-- Node13 -->
<g id="node13" class="node">
<title>Node13</title>
<g id="a_node13"><a xlink:title=" ">
<polygon fill="none" stroke="#bfbfbf" points="324,-56.5 324,-75.5 416,-75.5 416,-56.5 324,-56.5"/>
<text text-anchor="middle" x="370" y="-63.5" font-family="Helvetica,sans-Serif" font-size="10.00">../src/vector.tpp</text>
</a>
</g>
</g>
<!-- Node7&#45;&gt;Node13 -->
<g id="edge13" class="edge">
<title>Node7&#45;&gt;Node13</title>
<path fill="none" stroke="midnightblue" d="M352.47,-112.08C355.31,-104.77 359.43,-94.18 362.96,-85.1"/>
<polygon fill="midnightblue" stroke="midnightblue" points="366.23,-86.34 366.6,-75.75 359.71,-83.8 366.23,-86.34"/>
</g>
<!-- Node11&#45;&gt;Node8 -->
<g id="edge11" class="edge">
<title>Node11&#45;&gt;Node8</title>
<path fill="none" stroke="midnightblue" d="M166.37,-56.32C178.16,-48.06 196.13,-35.45 210.14,-25.63"/>
<polygon fill="midnightblue" stroke="midnightblue" points="212.48,-28.26 218.66,-19.65 208.46,-22.53 212.48,-28.26"/>
</g>
<!-- Node12 -->
<g id="node12" class="node">
<title>Node12</title>
<g id="a_node12"><a xlink:title=" ">
<polygon fill="none" stroke="#bfbfbf" points="94.5,-0.5 94.5,-19.5 183.5,-19.5 183.5,-0.5 94.5,-0.5"/>
<text text-anchor="middle" x="139" y="-7.5" font-family="Helvetica,sans-Serif" font-size="10.00">../src/count.tpp</text>
</a>
</g>
</g>
<!-- Node11&#45;&gt;Node12 -->
<g id="edge12" class="edge">
<title>Node11&#45;&gt;Node12</title>
<path fill="none" stroke="midnightblue" d="M151.52,-56.08C149.51,-48.85 146.61,-38.41 144.11,-29.4"/>
<polygon fill="midnightblue" stroke="midnightblue" points="147.48,-28.45 141.43,-19.75 140.74,-30.32 147.48,-28.45"/>
</g>
<!-- Node14&#45;&gt;Node6 -->
<g id="edge15" class="edge">
<title>Node14&#45;&gt;Node6</title>
<path fill="none" stroke="midnightblue" d="M514.13,-131.75C515.66,-138.86 516.1,-149.14 515.47,-158.1"/>
<polygon fill="midnightblue" stroke="midnightblue" points="511.99,-157.71 514.17,-168.08 518.93,-158.62 511.99,-157.71"/>
</g>
<!-- Node15&#45;&gt;Node6 -->
<g id="edge25" class="edge">
<title>Node15&#45;&gt;Node6</title>
<path fill="none" stroke="midnightblue" d="M432.19,-280.29C429.93,-267.09 427.53,-241.72 438,-224 446.53,-209.57 461.69,-199.03 475.82,-191.8"/>
<polygon fill="midnightblue" stroke="midnightblue" points="477.34,-194.95 484.88,-187.51 474.34,-188.62 477.34,-194.95"/>
</g>
<!-- Node15&#45;&gt;Node16 -->
<g id="edge19" class="edge">
<title>Node15&#45;&gt;Node16</title>
<path fill="none" stroke="midnightblue" d="M412.93,-280.44C390.94,-271.52 356.27,-257.44 331.34,-247.32"/>
<polygon fill="midnightblue" stroke="midnightblue" points="332.56,-244.04 321.98,-243.52 329.92,-250.52 332.56,-244.04"/>
</g>
<!-- Node19 -->
<g id="node19" class="node">
<title>Node19</title>
<g id="a_node19"><a xlink:href="matrix3_d_8cpp.html" target="_top" xlink:title=" ">
<polygon fill="none" stroke="black" points="446.5,-224.5 446.5,-243.5 555.5,-243.5 555.5,-224.5 446.5,-224.5"/>
<text text-anchor="middle" x="501" y="-231.5" font-family="Helvetica,sans-Serif" font-size="10.00">../src/matrix3D.cpp</text>
</a>
</g>
</g>
<!-- Node15&#45;&gt;Node19 -->
<g id="edge26" class="edge">
<title>Node15&#45;&gt;Node19</title>
<path fill="none" stroke="midnightblue" d="M439.65,-280.32C448.12,-272.06 463.44,-259.45 476.77,-249.63"/>
<polygon fill="midnightblue" stroke="midnightblue" points="479.04,-252.31 485.15,-243.65 474.98,-246.61 479.04,-252.31"/>
</g>
<!-- Node16&#45;&gt;Node6 -->
<g id="edge21" class="edge">
<title>Node16&#45;&gt;Node6</title>
<path fill="none" stroke="midnightblue" d="M333.96,-224.44C369.79,-215.14 427.16,-200.25 466.39,-190.06"/>
<polygon fill="midnightblue" stroke="midnightblue" points="467.4,-193.42 476.2,-187.52 465.64,-186.64 467.4,-193.42"/>
</g>
<!-- Node16&#45;&gt;Node7 -->
<g id="edge20" class="edge">
<title>Node16&#45;&gt;Node7</title>
<path fill="none" stroke="midnightblue" d="M304.77,-224.37C312.58,-206.46 330.71,-164.92 341.17,-140.95"/>
<polygon fill="midnightblue" stroke="midnightblue" points="344.46,-142.16 345.25,-131.59 338.04,-139.36 344.46,-142.16"/>
</g>
<!-- Node16&#45;&gt;Node8 -->
<g id="edge22" class="edge">
<title>Node16&#45;&gt;Node8</title>
<path fill="none" stroke="midnightblue" d="M282.59,-224.4C268.81,-216.89 250.86,-204.59 242,-188 214.37,-136.28 221.76,-63.54 227.36,-29.69"/>
<polygon fill="midnightblue" stroke="midnightblue" points="230.82,-30.25 229.14,-19.79 223.93,-29.01 230.82,-30.25"/>
</g>
<!-- Node17 -->
<g id="node17" class="node">
<title>Node17</title>
<g id="a_node17"><a xlink:title=" ">
<polygon fill="none" stroke="#bfbfbf" points="250.5,-168.5 250.5,-187.5 299.5,-187.5 299.5,-168.5 250.5,-168.5"/>
<text text-anchor="middle" x="275" y="-175.5" font-family="Helvetica,sans-Serif" font-size="10.00">cstdlib</text>
</a>
</g>
</g>
<!-- Node16&#45;&gt;Node17 -->
<g id="edge23" class="edge">
<title>Node16&#45;&gt;Node17</title>
<path fill="none" stroke="midnightblue" d="M296.71,-224.08C293.15,-216.69 287.98,-205.95 283.58,-196.81"/>
<polygon fill="midnightblue" stroke="midnightblue" points="286.71,-195.24 279.21,-187.75 280.4,-198.28 286.71,-195.24"/>
</g>
<!-- Node18 -->
<g id="node18" class="node">
<title>Node18</title>
<g id="a_node18"><a xlink:title=" ">
<polygon fill="none" stroke="#bfbfbf" points="356,-168.5 356,-187.5 450,-187.5 450,-168.5 356,-168.5"/>
<text text-anchor="middle" x="403" y="-175.5" font-family="Helvetica,sans-Serif" font-size="10.00">../src/matrix.tpp</text>
</a>
</g>
</g>
<!-- Node16&#45;&gt;Node18 -->
<g id="edge24" class="edge">
<title>Node16&#45;&gt;Node18</title>
<path fill="none" stroke="midnightblue" d="M317.39,-224.32C333.67,-215.7 358.87,-202.36 377.72,-192.39"/>
<polygon fill="midnightblue" stroke="midnightblue" points="379.45,-195.43 386.65,-187.65 376.18,-189.24 379.45,-195.43"/>
</g>
<!-- Node19&#45;&gt;Node15 -->
<g id="edge27" class="edge">
<title>Node19&#45;&gt;Node15</title>
<path fill="none" stroke="midnightblue" d="M495.19,-243.83C486.69,-252.11 471.47,-264.62 458.21,-274.38"/>
<polygon fill="midnightblue" stroke="midnightblue" points="455.99,-271.67 449.88,-280.32 460.05,-277.37 455.99,-271.67"/>
</g>
</g>
</svg>
