<?xml version="1.0" encoding="UTF-8" standalone="no"?>
<!DOCTYPE svg PUBLIC "-//W3C//DTD SVG 1.1//EN"
 "http://www.w3.org/Graphics/SVG/1.1/DTD/svg11.dtd">
<!-- Generated by graphviz version 2.43.0 (0)
 -->
<!-- Title: /home/krzysztof/PO/zad5_2&#45;kgliwinski/include/scene_object.hpp Pages: 1 -->
<svg width="1261pt" height="440pt"
 viewBox="0.00 0.00 1261.00 440.00" xmlns="http://www.w3.org/2000/svg" xmlns:xlink="http://www.w3.org/1999/xlink">
<g id="graph0" class="graph" transform="scale(1 1) rotate(0) translate(4 436)">
<title>/home/krzysztof/PO/zad5_2&#45;kgliwinski/include/scene_object.hpp</title>
<!-- Node1 -->
<g id="node1" class="node">
<title>Node1</title>
<g id="a_node1"><a xlink:title=" ">
<polygon fill="#bfbfbf" stroke="black" points="799.5,-390.5 799.5,-431.5 945.5,-431.5 945.5,-390.5 799.5,-390.5"/>
<text text-anchor="start" x="807.5" y="-419.5" font-family="Helvetica,sans-Serif" font-size="10.00">/home/krzysztof/PO</text>
<text text-anchor="start" x="807.5" y="-408.5" font-family="Helvetica,sans-Serif" font-size="10.00">/zad5_2&#45;kgliwinski/include</text>
<text text-anchor="middle" x="872.5" y="-397.5" font-family="Helvetica,sans-Serif" font-size="10.00">/scene_object.hpp</text>
</a>
</g>
</g>
<!-- Node2 -->
<g id="node2" class="node">
<title>Node2</title>
<g id="a_node2"><a xlink:href="$prism_8hpp.html" xlink:title="Plik zawiera definicję klasy reprezentujacej graniastoslup o podstawie o 6 wierzcholkach w przestrzen...">
<polygon fill="none" stroke="black" points="389.5,-312.5 389.5,-353.5 535.5,-353.5 535.5,-312.5 389.5,-312.5"/>
<text text-anchor="start" x="397.5" y="-341.5" font-family="Helvetica,sans-Serif" font-size="10.00">/home/krzysztof/PO</text>
<text text-anchor="start" x="397.5" y="-330.5" font-family="Helvetica,sans-Serif" font-size="10.00">/zad5_2&#45;kgliwinski/include</text>
<text text-anchor="middle" x="462.5" y="-319.5" font-family="Helvetica,sans-Serif" font-size="10.00">/prism.hpp</text>
</a>
</g>
</g>
<!-- Node1&#45;&gt;Node2 -->
<g id="edge1" class="edge">
<title>Node1&#45;&gt;Node2</title>
<path fill="none" stroke="midnightblue" d="M788.92,-394.51C714.46,-380.7 606.58,-360.71 535.51,-347.53"/>
<polygon fill="midnightblue" stroke="midnightblue" points="788.73,-398.03 799.2,-396.41 790.01,-391.15 788.73,-398.03"/>
</g>
<!-- Node16 -->
<g id="node16" class="node">
<title>Node16</title>
<g id="a_node16"><a xlink:href="$cuboid_8hpp.html" xlink:title="Plik zawiera definicję klasy reprezentujacej prostopadloscian w przestrzeni trojwymiarowej.">
<polygon fill="none" stroke="black" points="799.5,-312.5 799.5,-353.5 945.5,-353.5 945.5,-312.5 799.5,-312.5"/>
<text text-anchor="start" x="807.5" y="-341.5" font-family="Helvetica,sans-Serif" font-size="10.00">/home/krzysztof/PO</text>
<text text-anchor="start" x="807.5" y="-330.5" font-family="Helvetica,sans-Serif" font-size="10.00">/zad5_2&#45;kgliwinski/include</text>
<text text-anchor="middle" x="872.5" y="-319.5" font-family="Helvetica,sans-Serif" font-size="10.00">/cuboid.hpp</text>
</a>
</g>
</g>
<!-- Node1&#45;&gt;Node16 -->
<g id="edge18" class="edge">
<title>Node1&#45;&gt;Node16</title>
<path fill="none" stroke="midnightblue" d="M872.5,-380.3C872.5,-371.3 872.5,-361.65 872.5,-353.51"/>
<polygon fill="midnightblue" stroke="midnightblue" points="869,-380.43 872.5,-390.43 876,-380.43 869,-380.43"/>
</g>
<!-- Node22 -->
<g id="node22" class="node">
<title>Node22</title>
<g id="a_node22"><a xlink:href="$scene__object_8cpp.html" xlink:title=" ">
<polygon fill="none" stroke="black" points="964,-312.5 964,-353.5 1089,-353.5 1089,-312.5 964,-312.5"/>
<text text-anchor="start" x="972" y="-341.5" font-family="Helvetica,sans-Serif" font-size="10.00">/home/krzysztof/PO</text>
<text text-anchor="start" x="972" y="-330.5" font-family="Helvetica,sans-Serif" font-size="10.00">/zad5_2&#45;kgliwinski/src</text>
<text text-anchor="middle" x="1026.5" y="-319.5" font-family="Helvetica,sans-Serif" font-size="10.00">/scene_object.cpp</text>
</a>
</g>
</g>
<!-- Node1&#45;&gt;Node22 -->
<g id="edge27" class="edge">
<title>Node1&#45;&gt;Node22</title>
<path fill="none" stroke="midnightblue" d="M921.32,-385.91C942.49,-375.46 966.97,-363.38 986.98,-353.51"/>
<polygon fill="midnightblue" stroke="midnightblue" points="919.58,-382.86 912.16,-390.43 922.68,-389.14 919.58,-382.86"/>
</g>
<!-- Node3 -->
<g id="node3" class="node">
<title>Node3</title>
<g id="a_node3"><a xlink:href="$circus_8hpp.html" xlink:title="Plik zawiera definicję klasy reprezentujacej Prism z podwyzszonym centrum, na ksztalt przypomina cyrk...">
<polygon fill="none" stroke="black" points="471.5,-234.5 471.5,-275.5 617.5,-275.5 617.5,-234.5 471.5,-234.5"/>
<text text-anchor="start" x="479.5" y="-263.5" font-family="Helvetica,sans-Serif" font-size="10.00">/home/krzysztof/PO</text>
<text text-anchor="start" x="479.5" y="-252.5" font-family="Helvetica,sans-Serif" font-size="10.00">/zad5_2&#45;kgliwinski/include</text>
<text text-anchor="middle" x="544.5" y="-241.5" font-family="Helvetica,sans-Serif" font-size="10.00">/circus.hpp</text>
</a>
</g>
</g>
<!-- Node2&#45;&gt;Node3 -->
<g id="edge2" class="edge">
<title>Node2&#45;&gt;Node3</title>
<path fill="none" stroke="midnightblue" d="M491.1,-305.49C501.74,-295.63 513.61,-284.63 523.45,-275.51"/>
<polygon fill="midnightblue" stroke="midnightblue" points="488.57,-303.06 483.62,-312.43 493.33,-308.2 488.57,-303.06"/>
</g>
<!-- Node9 -->
<g id="node9" class="node">
<title>Node9</title>
<g id="a_node9"><a xlink:href="$drone_8hpp.html" xlink:title="Plik zawiera definicję klasy reprezentujacej drona, budowanie i przemieszczanie go.">
<polygon fill="none" stroke="black" points="635.5,-234.5 635.5,-275.5 781.5,-275.5 781.5,-234.5 635.5,-234.5"/>
<text text-anchor="start" x="643.5" y="-263.5" font-family="Helvetica,sans-Serif" font-size="10.00">/home/krzysztof/PO</text>
<text text-anchor="start" x="643.5" y="-252.5" font-family="Helvetica,sans-Serif" font-size="10.00">/zad5_2&#45;kgliwinski/include</text>
<text text-anchor="middle" x="708.5" y="-241.5" font-family="Helvetica,sans-Serif" font-size="10.00">/drone.hpp</text>
</a>
</g>
</g>
<!-- Node2&#45;&gt;Node9 -->
<g id="edge8" class="edge">
<title>Node2&#45;&gt;Node9</title>
<path fill="none" stroke="midnightblue" d="M535.52,-309.44C570.43,-298.66 611.82,-285.87 645.36,-275.51"/>
<polygon fill="midnightblue" stroke="midnightblue" points="534.37,-306.13 525.85,-312.43 536.44,-312.82 534.37,-306.13"/>
</g>
<!-- Node11 -->
<g id="node11" class="node">
<title>Node11</title>
<g id="a_node11"><a xlink:href="$tent_8hpp.html" xlink:title="Plik zawiera definicję klasy reprezentujacej Prism bez gornej podstawy, =Ksztaltem przypomina namiot.">
<polygon fill="none" stroke="black" points="143.5,-234.5 143.5,-275.5 289.5,-275.5 289.5,-234.5 143.5,-234.5"/>
<text text-anchor="start" x="151.5" y="-263.5" font-family="Helvetica,sans-Serif" font-size="10.00">/home/krzysztof/PO</text>
<text text-anchor="start" x="151.5" y="-252.5" font-family="Helvetica,sans-Serif" font-size="10.00">/zad5_2&#45;kgliwinski/include</text>
<text text-anchor="middle" x="216.5" y="-241.5" font-family="Helvetica,sans-Serif" font-size="10.00">/tent.hpp</text>
</a>
</g>
</g>
<!-- Node2&#45;&gt;Node11 -->
<g id="edge11" class="edge">
<title>Node2&#45;&gt;Node11</title>
<path fill="none" stroke="midnightblue" d="M389.48,-309.44C354.57,-298.66 313.18,-285.87 279.64,-275.51"/>
<polygon fill="midnightblue" stroke="midnightblue" points="388.56,-312.82 399.15,-312.43 390.63,-306.13 388.56,-312.82"/>
</g>
<!-- Node13 -->
<g id="node13" class="node">
<title>Node13</title>
<g id="a_node13"><a xlink:href="$volcano_8hpp.html" xlink:title="Plik zawiera definicję klasy reprezentujacej wulkan, jest deformacja obiektu Prism.">
<polygon fill="none" stroke="black" points="307.5,-234.5 307.5,-275.5 453.5,-275.5 453.5,-234.5 307.5,-234.5"/>
<text text-anchor="start" x="315.5" y="-263.5" font-family="Helvetica,sans-Serif" font-size="10.00">/home/krzysztof/PO</text>
<text text-anchor="start" x="315.5" y="-252.5" font-family="Helvetica,sans-Serif" font-size="10.00">/zad5_2&#45;kgliwinski/include</text>
<text text-anchor="middle" x="380.5" y="-241.5" font-family="Helvetica,sans-Serif" font-size="10.00">/volcano.hpp</text>
</a>
</g>
</g>
<!-- Node2&#45;&gt;Node13 -->
<g id="edge14" class="edge">
<title>Node2&#45;&gt;Node13</title>
<path fill="none" stroke="midnightblue" d="M433.9,-305.49C423.26,-295.63 411.39,-284.63 401.55,-275.51"/>
<polygon fill="midnightblue" stroke="midnightblue" points="431.67,-308.2 441.38,-312.43 436.43,-303.06 431.67,-308.2"/>
</g>
<!-- Node15 -->
<g id="node15" class="node">
<title>Node15</title>
<g id="a_node15"><a xlink:href="$prism_8cpp.html" xlink:title=" ">
<polygon fill="none" stroke="black" points="0,-234.5 0,-275.5 125,-275.5 125,-234.5 0,-234.5"/>
<text text-anchor="start" x="8" y="-263.5" font-family="Helvetica,sans-Serif" font-size="10.00">/home/krzysztof/PO</text>
<text text-anchor="start" x="8" y="-252.5" font-family="Helvetica,sans-Serif" font-size="10.00">/zad5_2&#45;kgliwinski/src</text>
<text text-anchor="middle" x="62.5" y="-241.5" font-family="Helvetica,sans-Serif" font-size="10.00">/prism.cpp</text>
</a>
</g>
</g>
<!-- Node2&#45;&gt;Node15 -->
<g id="edge17" class="edge">
<title>Node2&#45;&gt;Node15</title>
<path fill="none" stroke="midnightblue" d="M379.44,-320.21C312.85,-310.19 217.21,-294.5 134.5,-276 131.46,-275.32 128.36,-274.59 125.23,-273.83"/>
<polygon fill="midnightblue" stroke="midnightblue" points="379.05,-323.69 389.45,-321.71 380.08,-316.77 379.05,-323.69"/>
</g>
<!-- Node4 -->
<g id="node4" class="node">
<title>Node4</title>
<g id="a_node4"><a xlink:href="$scene_8hpp.html" xlink:title="Plik zawiera definicję klasy reprezentujacej scene, obslugujacej zapis do plikow i wytswietlanie w gn...">
<polygon fill="none" stroke="black" points="553.5,-156.5 553.5,-197.5 699.5,-197.5 699.5,-156.5 553.5,-156.5"/>
<text text-anchor="start" x="561.5" y="-185.5" font-family="Helvetica,sans-Serif" font-size="10.00">/home/krzysztof/PO</text>
<text text-anchor="start" x="561.5" y="-174.5" font-family="Helvetica,sans-Serif" font-size="10.00">/zad5_2&#45;kgliwinski/include</text>
<text text-anchor="middle" x="626.5" y="-163.5" font-family="Helvetica,sans-Serif" font-size="10.00">/scene.hpp</text>
</a>
</g>
</g>
<!-- Node3&#45;&gt;Node4 -->
<g id="edge3" class="edge">
<title>Node3&#45;&gt;Node4</title>
<path fill="none" stroke="midnightblue" d="M573.1,-227.49C583.74,-217.63 595.61,-206.63 605.45,-197.51"/>
<polygon fill="midnightblue" stroke="midnightblue" points="570.57,-225.06 565.62,-234.43 575.33,-230.2 570.57,-225.06"/>
</g>
<!-- Node8 -->
<g id="node8" class="node">
<title>Node8</title>
<g id="a_node8"><a xlink:href="$circus_8cpp.html" xlink:title=" ">
<polygon fill="none" stroke="black" points="410,-156.5 410,-197.5 535,-197.5 535,-156.5 410,-156.5"/>
<text text-anchor="start" x="418" y="-185.5" font-family="Helvetica,sans-Serif" font-size="10.00">/home/krzysztof/PO</text>
<text text-anchor="start" x="418" y="-174.5" font-family="Helvetica,sans-Serif" font-size="10.00">/zad5_2&#45;kgliwinski/src</text>
<text text-anchor="middle" x="472.5" y="-163.5" font-family="Helvetica,sans-Serif" font-size="10.00">/circus.cpp</text>
</a>
</g>
</g>
<!-- Node3&#45;&gt;Node8 -->
<g id="edge7" class="edge">
<title>Node3&#45;&gt;Node8</title>
<path fill="none" stroke="midnightblue" d="M518.84,-226.92C509.64,-217.2 499.45,-206.45 490.98,-197.51"/>
<polygon fill="midnightblue" stroke="midnightblue" points="516.54,-229.58 525.96,-234.43 521.62,-224.76 516.54,-229.58"/>
</g>
<!-- Node5 -->
<g id="node5" class="node">
<title>Node5</title>
<g id="a_node5"><a xlink:href="$menu_8hpp.html" xlink:title="Plik zawiera definicję klasy reprezentujacej menu, obslugujace menu programu.">
<polygon fill="none" stroke="black" points="476.5,-78.5 476.5,-119.5 622.5,-119.5 622.5,-78.5 476.5,-78.5"/>
<text text-anchor="start" x="484.5" y="-107.5" font-family="Helvetica,sans-Serif" font-size="10.00">/home/krzysztof/PO</text>
<text text-anchor="start" x="484.5" y="-96.5" font-family="Helvetica,sans-Serif" font-size="10.00">/zad5_2&#45;kgliwinski/include</text>
<text text-anchor="middle" x="549.5" y="-85.5" font-family="Helvetica,sans-Serif" font-size="10.00">/menu.hpp</text>
</a>
</g>
</g>
<!-- Node4&#45;&gt;Node5 -->
<g id="edge4" class="edge">
<title>Node4&#45;&gt;Node5</title>
<path fill="none" stroke="midnightblue" d="M599.35,-149.2C589.43,-139.42 578.41,-128.54 569.26,-119.51"/>
<polygon fill="midnightblue" stroke="midnightblue" points="597.09,-151.89 606.67,-156.43 602.01,-146.91 597.09,-151.89"/>
</g>
<!-- Node7 -->
<g id="node7" class="node">
<title>Node7</title>
<g id="a_node7"><a xlink:href="$scene_8cpp.html" xlink:title=" ">
<polygon fill="none" stroke="black" points="641,-78.5 641,-119.5 766,-119.5 766,-78.5 641,-78.5"/>
<text text-anchor="start" x="649" y="-107.5" font-family="Helvetica,sans-Serif" font-size="10.00">/home/krzysztof/PO</text>
<text text-anchor="start" x="649" y="-96.5" font-family="Helvetica,sans-Serif" font-size="10.00">/zad5_2&#45;kgliwinski/src</text>
<text text-anchor="middle" x="703.5" y="-85.5" font-family="Helvetica,sans-Serif" font-size="10.00">/scene.cpp</text>
</a>
</g>
</g>
<!-- Node4&#45;&gt;Node7 -->
<g id="edge6" class="edge">
<title>Node4&#45;&gt;Node7</title>
<path fill="none" stroke="midnightblue" d="M653.65,-149.2C663.57,-139.42 674.59,-128.54 683.74,-119.51"/>
<polygon fill="midnightblue" stroke="midnightblue" points="650.99,-146.91 646.33,-156.43 655.91,-151.89 650.99,-146.91"/>
</g>
<!-- Node6 -->
<g id="node6" class="node">
<title>Node6</title>
<g id="a_node6"><a xlink:href="$menu_8cpp.html" xlink:title=" ">
<polygon fill="none" stroke="black" points="487,-0.5 487,-41.5 612,-41.5 612,-0.5 487,-0.5"/>
<text text-anchor="start" x="495" y="-29.5" font-family="Helvetica,sans-Serif" font-size="10.00">/home/krzysztof/PO</text>
<text text-anchor="start" x="495" y="-18.5" font-family="Helvetica,sans-Serif" font-size="10.00">/zad5_2&#45;kgliwinski/src</text>
<text text-anchor="middle" x="549.5" y="-7.5" font-family="Helvetica,sans-Serif" font-size="10.00">/menu.cpp</text>
</a>
</g>
</g>
<!-- Node5&#45;&gt;Node6 -->
<g id="edge5" class="edge">
<title>Node5&#45;&gt;Node6</title>
<path fill="none" stroke="midnightblue" d="M549.5,-68.3C549.5,-59.3 549.5,-49.65 549.5,-41.51"/>
<polygon fill="midnightblue" stroke="midnightblue" points="546,-68.43 549.5,-78.43 553,-68.43 546,-68.43"/>
</g>
<!-- Node9&#45;&gt;Node4 -->
<g id="edge9" class="edge">
<title>Node9&#45;&gt;Node4</title>
<path fill="none" stroke="midnightblue" d="M679.9,-227.49C669.26,-217.63 657.39,-206.63 647.55,-197.51"/>
<polygon fill="midnightblue" stroke="midnightblue" points="677.67,-230.2 687.38,-234.43 682.43,-225.06 677.67,-230.2"/>
</g>
<!-- Node10 -->
<g id="node10" class="node">
<title>Node10</title>
<g id="a_node10"><a xlink:href="$drone_8cpp.html" xlink:title=" ">
<polygon fill="none" stroke="black" points="718,-156.5 718,-197.5 843,-197.5 843,-156.5 718,-156.5"/>
<text text-anchor="start" x="726" y="-185.5" font-family="Helvetica,sans-Serif" font-size="10.00">/home/krzysztof/PO</text>
<text text-anchor="start" x="726" y="-174.5" font-family="Helvetica,sans-Serif" font-size="10.00">/zad5_2&#45;kgliwinski/src</text>
<text text-anchor="middle" x="780.5" y="-163.5" font-family="Helvetica,sans-Serif" font-size="10.00">/drone.cpp</text>
</a>
</g>
</g>
<!-- Node9&#45;&gt;Node10 -->
<g id="edge10" class="edge">
<title>Node9&#45;&gt;Node10</title>
<path fill="none" stroke="midnightblue" d="M734.16,-226.92C743.36,-217.2 753.55,-206.45 762.02,-197.51"/>
<polygon fill="midnightblue" stroke="midnightblue" points="731.38,-224.76 727.04,-234.43 736.46,-229.58 731.38,-224.76"/>
</g>
<!-- Node11&#45;&gt;Node4 -->
<g id="edge12" class="edge">
<title>Node11&#45;&gt;Node4</title>
<path fill="none" stroke="midnightblue" d="M299.82,-233.84C408.73,-213.23 439.22,-218.5 544.5,-198 547.38,-197.44 550.3,-196.85 553.26,-196.23"/>
<polygon fill="midnightblue" stroke="midnightblue" points="298.9,-230.45 289.74,-235.77 300.22,-237.32 298.9,-230.45"/>
</g>
<!-- Node12 -->
<g id="node12" class="node">
<title>Node12</title>
<g id="a_node12"><a xlink:href="$tent_8cpp.html" xlink:title=" ">
<polygon fill="none" stroke="black" points="124,-156.5 124,-197.5 249,-197.5 249,-156.5 124,-156.5"/>
<text text-anchor="start" x="132" y="-185.5" font-family="Helvetica,sans-Serif" font-size="10.00">/home/krzysztof/PO</text>
<text text-anchor="start" x="132" y="-174.5" font-family="Helvetica,sans-Serif" font-size="10.00">/zad5_2&#45;kgliwinski/src</text>
<text text-anchor="middle" x="186.5" y="-163.5" font-family="Helvetica,sans-Serif" font-size="10.00">/tent.cpp</text>
</a>
</g>
</g>
<!-- Node11&#45;&gt;Node12 -->
<g id="edge13" class="edge">
<title>Node11&#45;&gt;Node12</title>
<path fill="none" stroke="midnightblue" d="M205.01,-224.88C201.39,-215.72 197.49,-205.83 194.2,-197.51"/>
<polygon fill="midnightblue" stroke="midnightblue" points="201.85,-226.41 208.77,-234.43 208.36,-223.84 201.85,-226.41"/>
</g>
<!-- Node13&#45;&gt;Node4 -->
<g id="edge15" class="edge">
<title>Node13&#45;&gt;Node4</title>
<path fill="none" stroke="midnightblue" d="M453.52,-231.44C488.43,-220.66 529.82,-207.87 563.36,-197.51"/>
<polygon fill="midnightblue" stroke="midnightblue" points="452.37,-228.13 443.85,-234.43 454.44,-234.82 452.37,-228.13"/>
</g>
<!-- Node14 -->
<g id="node14" class="node">
<title>Node14</title>
<g id="a_node14"><a xlink:href="$volcano_8cpp.html" xlink:title=" ">
<polygon fill="none" stroke="black" points="267,-156.5 267,-197.5 392,-197.5 392,-156.5 267,-156.5"/>
<text text-anchor="start" x="275" y="-185.5" font-family="Helvetica,sans-Serif" font-size="10.00">/home/krzysztof/PO</text>
<text text-anchor="start" x="275" y="-174.5" font-family="Helvetica,sans-Serif" font-size="10.00">/zad5_2&#45;kgliwinski/src</text>
<text text-anchor="middle" x="329.5" y="-163.5" font-family="Helvetica,sans-Serif" font-size="10.00">/volcano.cpp</text>
</a>
</g>
</g>
<!-- Node13&#45;&gt;Node14 -->
<g id="edge16" class="edge">
<title>Node13&#45;&gt;Node14</title>
<path fill="none" stroke="midnightblue" d="M361.74,-226.05C355.38,-216.57 348.41,-206.18 342.59,-197.51"/>
<polygon fill="midnightblue" stroke="midnightblue" points="358.89,-228.07 367.37,-234.43 364.7,-224.17 358.89,-228.07"/>
</g>
<!-- Node16&#45;&gt;Node9 -->
<g id="edge19" class="edge">
<title>Node16&#45;&gt;Node9</title>
<path fill="none" stroke="midnightblue" d="M821.12,-308.19C798.43,-297.67 772.09,-285.47 750.59,-275.51"/>
<polygon fill="midnightblue" stroke="midnightblue" points="819.72,-311.4 830.27,-312.43 822.66,-305.05 819.72,-311.4"/>
</g>
<!-- Node17 -->
<g id="node17" class="node">
<title>Node17</title>
<g id="a_node17"><a xlink:href="$pyramid_8hpp.html" xlink:title="Plik zawiera definicję klasy reprezentujacej ostroslup o prostokatnej podstawie w przestrzeni trojwym...">
<polygon fill="none" stroke="black" points="799.5,-234.5 799.5,-275.5 945.5,-275.5 945.5,-234.5 799.5,-234.5"/>
<text text-anchor="start" x="807.5" y="-263.5" font-family="Helvetica,sans-Serif" font-size="10.00">/home/krzysztof/PO</text>
<text text-anchor="start" x="807.5" y="-252.5" font-family="Helvetica,sans-Serif" font-size="10.00">/zad5_2&#45;kgliwinski/include</text>
<text text-anchor="middle" x="872.5" y="-241.5" font-family="Helvetica,sans-Serif" font-size="10.00">/pyramid.hpp</text>
</a>
</g>
</g>
<!-- Node16&#45;&gt;Node17 -->
<g id="edge20" class="edge">
<title>Node16&#45;&gt;Node17</title>
<path fill="none" stroke="midnightblue" d="M872.5,-302.3C872.5,-293.3 872.5,-283.65 872.5,-275.51"/>
<polygon fill="midnightblue" stroke="midnightblue" points="869,-302.43 872.5,-312.43 876,-302.43 869,-302.43"/>
</g>
<!-- Node19 -->
<g id="node19" class="node">
<title>Node19</title>
<g id="a_node19"><a xlink:href="$triangular_8hpp.html" xlink:title=" ">
<polygon fill="none" stroke="black" points="963.5,-234.5 963.5,-275.5 1109.5,-275.5 1109.5,-234.5 963.5,-234.5"/>
<text text-anchor="start" x="971.5" y="-263.5" font-family="Helvetica,sans-Serif" font-size="10.00">/home/krzysztof/PO</text>
<text text-anchor="start" x="971.5" y="-252.5" font-family="Helvetica,sans-Serif" font-size="10.00">/zad5_2&#45;kgliwinski/include</text>
<text text-anchor="middle" x="1036.5" y="-241.5" font-family="Helvetica,sans-Serif" font-size="10.00">/triangular.hpp</text>
</a>
</g>
</g>
<!-- Node16&#45;&gt;Node19 -->
<g id="edge23" class="edge">
<title>Node16&#45;&gt;Node19</title>
<path fill="none" stroke="midnightblue" d="M923.88,-308.19C946.57,-297.67 972.91,-285.47 994.41,-275.51"/>
<polygon fill="midnightblue" stroke="midnightblue" points="922.34,-305.05 914.73,-312.43 925.28,-311.4 922.34,-305.05"/>
</g>
<!-- Node21 -->
<g id="node21" class="node">
<title>Node21</title>
<g id="a_node21"><a xlink:href="$cuboid_8cpp.html" xlink:title=" ">
<polygon fill="none" stroke="black" points="1128,-234.5 1128,-275.5 1253,-275.5 1253,-234.5 1128,-234.5"/>
<text text-anchor="start" x="1136" y="-263.5" font-family="Helvetica,sans-Serif" font-size="10.00">/home/krzysztof/PO</text>
<text text-anchor="start" x="1136" y="-252.5" font-family="Helvetica,sans-Serif" font-size="10.00">/zad5_2&#45;kgliwinski/src</text>
<text text-anchor="middle" x="1190.5" y="-241.5" font-family="Helvetica,sans-Serif" font-size="10.00">/cuboid.cpp</text>
</a>
</g>
</g>
<!-- Node16&#45;&gt;Node21 -->
<g id="edge26" class="edge">
<title>Node16&#45;&gt;Node21</title>
<path fill="none" stroke="midnightblue" d="M955.58,-312.01C1029.41,-295.17 1049.46,-293.2 1118.5,-276 1121.52,-275.25 1124.61,-274.46 1127.72,-273.65"/>
<polygon fill="midnightblue" stroke="midnightblue" points="954.77,-308.61 945.8,-314.26 956.33,-315.43 954.77,-308.61"/>
</g>
<!-- Node17&#45;&gt;Node4 -->
<g id="edge21" class="edge">
<title>Node17&#45;&gt;Node4</title>
<path fill="none" stroke="midnightblue" d="M799.48,-231.44C764.57,-220.66 723.18,-207.87 689.64,-197.51"/>
<polygon fill="midnightblue" stroke="midnightblue" points="798.56,-234.82 809.15,-234.43 800.63,-228.13 798.56,-234.82"/>
</g>
<!-- Node18 -->
<g id="node18" class="node">
<title>Node18</title>
<g id="a_node18"><a xlink:href="$pyramid_8cpp.html" xlink:title=" ">
<polygon fill="none" stroke="black" points="861,-156.5 861,-197.5 986,-197.5 986,-156.5 861,-156.5"/>
<text text-anchor="start" x="869" y="-185.5" font-family="Helvetica,sans-Serif" font-size="10.00">/home/krzysztof/PO</text>
<text text-anchor="start" x="869" y="-174.5" font-family="Helvetica,sans-Serif" font-size="10.00">/zad5_2&#45;kgliwinski/src</text>
<text text-anchor="middle" x="923.5" y="-163.5" font-family="Helvetica,sans-Serif" font-size="10.00">/pyramid.cpp</text>
</a>
</g>
</g>
<!-- Node17&#45;&gt;Node18 -->
<g id="edge22" class="edge">
<title>Node17&#45;&gt;Node18</title>
<path fill="none" stroke="midnightblue" d="M891.26,-226.05C897.62,-216.57 904.59,-206.18 910.41,-197.51"/>
<polygon fill="midnightblue" stroke="midnightblue" points="888.3,-224.17 885.63,-234.43 894.11,-228.07 888.3,-224.17"/>
</g>
<!-- Node19&#45;&gt;Node4 -->
<g id="edge24" class="edge">
<title>Node19&#45;&gt;Node4</title>
<path fill="none" stroke="midnightblue" d="M953.22,-233.84C844.71,-213.26 814.39,-218.3 709.5,-198 706.3,-197.38 703.03,-196.72 699.74,-196.03"/>
<polygon fill="midnightblue" stroke="midnightblue" points="952.78,-237.32 963.26,-235.78 954.1,-230.45 952.78,-237.32"/>
</g>
<!-- Node20 -->
<g id="node20" class="node">
<title>Node20</title>
<g id="a_node20"><a xlink:href="$triangular_8cpp.html" xlink:title=" ">
<polygon fill="none" stroke="black" points="1004,-156.5 1004,-197.5 1129,-197.5 1129,-156.5 1004,-156.5"/>
<text text-anchor="start" x="1012" y="-185.5" font-family="Helvetica,sans-Serif" font-size="10.00">/home/krzysztof/PO</text>
<text text-anchor="start" x="1012" y="-174.5" font-family="Helvetica,sans-Serif" font-size="10.00">/zad5_2&#45;kgliwinski/src</text>
<text text-anchor="middle" x="1066.5" y="-163.5" font-family="Helvetica,sans-Serif" font-size="10.00">/triangular.cpp</text>
</a>
</g>
</g>
<!-- Node19&#45;&gt;Node20 -->
<g id="edge25" class="edge">
<title>Node19&#45;&gt;Node20</title>
<path fill="none" stroke="midnightblue" d="M1047.99,-224.88C1051.61,-215.72 1055.51,-205.83 1058.8,-197.51"/>
<polygon fill="midnightblue" stroke="midnightblue" points="1044.64,-223.84 1044.23,-234.43 1051.15,-226.41 1044.64,-223.84"/>
</g>
</g>
</svg>
