<?xml version="1.0" encoding="UTF-8" standalone="no"?>
<!DOCTYPE svg PUBLIC "-//W3C//DTD SVG 1.1//EN"
 "http://www.w3.org/Graphics/SVG/1.1/DTD/svg11.dtd">
<!-- Generated by graphviz version 2.43.0 (0)
 -->
<!-- Title: /home/krzysztof/PO/zad5_2&#45;kgliwinski/src/scene_object.cpp Pages: 1 -->
<svg width="337pt" height="330pt"
 viewBox="0.00 0.00 336.75 330.00" xmlns="http://www.w3.org/2000/svg" xmlns:xlink="http://www.w3.org/1999/xlink">
<g id="graph0" class="graph" transform="scale(1 1) rotate(0) translate(4 326)">
<title>/home/krzysztof/PO/zad5_2&#45;kgliwinski/src/scene_object.cpp</title>
<!-- Node1 -->
<g id="node1" class="node">
<title>Node1</title>
<g id="a_node1"><a xlink:title=" ">
<polygon fill="#bfbfbf" stroke="black" points="150.25,-280.5 150.25,-321.5 275.25,-321.5 275.25,-280.5 150.25,-280.5"/>
<text text-anchor="start" x="158.25" y="-309.5" font-family="Helvetica,sans-Serif" font-size="10.00">/home/krzysztof/PO</text>
<text text-anchor="start" x="158.25" y="-298.5" font-family="Helvetica,sans-Serif" font-size="10.00">/zad5_2&#45;kgliwinski/src</text>
<text text-anchor="middle" x="212.75" y="-287.5" font-family="Helvetica,sans-Serif" font-size="10.00">/scene_object.cpp</text>
</a>
</g>
</g>
<!-- Node2 -->
<g id="node2" class="node">
<title>Node2</title>
<g id="a_node2"><a xlink:href="scene__object_8hpp.html" target="_top" xlink:title=" ">
<polygon fill="none" stroke="black" points="138.25,-224.5 138.25,-243.5 287.25,-243.5 287.25,-224.5 138.25,-224.5"/>
<text text-anchor="middle" x="212.75" y="-231.5" font-family="Helvetica,sans-Serif" font-size="10.00">../include/scene_object.hpp</text>
</a>
</g>
</g>
<!-- Node1&#45;&gt;Node2 -->
<g id="edge1" class="edge">
<title>Node1&#45;&gt;Node2</title>
<path fill="none" stroke="midnightblue" d="M212.75,-280.5C212.75,-272.07 212.75,-262.24 212.75,-253.87"/>
<polygon fill="midnightblue" stroke="midnightblue" points="216.25,-253.65 212.75,-243.65 209.25,-253.65 216.25,-253.65"/>
</g>
<!-- Node3 -->
<g id="node3" class="node">
<title>Node3</title>
<g id="a_node3"><a xlink:href="vector3_d_8hpp.html" target="_top" xlink:title=" ">
<polygon fill="none" stroke="black" points="171.75,-168.5 171.75,-187.5 253.75,-187.5 253.75,-168.5 171.75,-168.5"/>
<text text-anchor="middle" x="212.75" y="-175.5" font-family="Helvetica,sans-Serif" font-size="10.00">vector3D.hpp</text>
</a>
</g>
</g>
<!-- Node2&#45;&gt;Node3 -->
<g id="edge2" class="edge">
<title>Node2&#45;&gt;Node3</title>
<path fill="none" stroke="midnightblue" d="M212.75,-224.08C212.75,-217.01 212.75,-206.86 212.75,-197.99"/>
<polygon fill="midnightblue" stroke="midnightblue" points="216.25,-197.75 212.75,-187.75 209.25,-197.75 216.25,-197.75"/>
</g>
<!-- Node4 -->
<g id="node4" class="node">
<title>Node4</title>
<g id="a_node4"><a xlink:href="vector_8hpp.html" target="_top" xlink:title=" ">
<polygon fill="none" stroke="black" points="72.75,-112.5 72.75,-131.5 140.75,-131.5 140.75,-112.5 72.75,-112.5"/>
<text text-anchor="middle" x="106.75" y="-119.5" font-family="Helvetica,sans-Serif" font-size="10.00">vector.hpp</text>
</a>
</g>
</g>
<!-- Node3&#45;&gt;Node4 -->
<g id="edge3" class="edge">
<title>Node3&#45;&gt;Node4</title>
<path fill="none" stroke="midnightblue" d="M195.72,-168.32C178.72,-159.66 152.37,-146.24 132.76,-136.25"/>
<polygon fill="midnightblue" stroke="midnightblue" points="134.24,-133.08 123.74,-131.65 131.06,-139.31 134.24,-133.08"/>
</g>
<!-- Node11 -->
<g id="node11" class="node">
<title>Node11</title>
<g id="a_node11"><a xlink:href="vector3_d_8cpp.html" target="_top" xlink:title=" ">
<polygon fill="none" stroke="black" points="159.25,-112.5 159.25,-131.5 266.25,-131.5 266.25,-112.5 159.25,-112.5"/>
<text text-anchor="middle" x="212.75" y="-119.5" font-family="Helvetica,sans-Serif" font-size="10.00">../src/vector3D.cpp</text>
</a>
</g>
</g>
<!-- Node3&#45;&gt;Node11 -->
<g id="edge11" class="edge">
<title>Node3&#45;&gt;Node11</title>
<path fill="none" stroke="midnightblue" d="M207.58,-168.08C206.07,-160.93 205.64,-150.64 206.29,-141.69"/>
<polygon fill="midnightblue" stroke="midnightblue" points="209.76,-142.13 207.62,-131.75 202.83,-141.2 209.76,-142.13"/>
</g>
<!-- Node5 -->
<g id="node5" class="node">
<title>Node5</title>
<g id="a_node5"><a xlink:title=" ">
<polygon fill="none" stroke="#bfbfbf" points="8.75,-0.5 8.75,-19.5 68.75,-19.5 68.75,-0.5 8.75,-0.5"/>
<text text-anchor="middle" x="38.75" y="-7.5" font-family="Helvetica,sans-Serif" font-size="10.00">iostream</text>
</a>
</g>
</g>
<!-- Node4&#45;&gt;Node5 -->
<g id="edge4" class="edge">
<title>Node4&#45;&gt;Node5</title>
<path fill="none" stroke="midnightblue" d="M72.69,-115.97C48.95,-110.5 18.92,-99.19 3.75,-76 -6.81,-59.86 7.13,-40.24 20.43,-26.8"/>
<polygon fill="midnightblue" stroke="midnightblue" points="23.11,-29.09 27.99,-19.68 18.31,-23.99 23.11,-29.09"/>
</g>
<!-- Node6 -->
<g id="node6" class="node">
<title>Node6</title>
<g id="a_node6"><a xlink:title=" ">
<polygon fill="none" stroke="#bfbfbf" points="13.25,-56.5 13.25,-75.5 60.25,-75.5 60.25,-56.5 13.25,-56.5"/>
<text text-anchor="middle" x="36.75" y="-63.5" font-family="Helvetica,sans-Serif" font-size="10.00">cmath</text>
</a>
</g>
</g>
<!-- Node4&#45;&gt;Node6 -->
<g id="edge5" class="edge">
<title>Node4&#45;&gt;Node6</title>
<path fill="none" stroke="midnightblue" d="M95.5,-112.32C84.95,-104.18 68.95,-91.84 56.31,-82.09"/>
<polygon fill="midnightblue" stroke="midnightblue" points="58.26,-79.17 48.2,-75.83 53.98,-84.71 58.26,-79.17"/>
</g>
<!-- Node7 -->
<g id="node7" class="node">
<title>Node7</title>
<g id="a_node7"><a xlink:title=" ">
<polygon fill="none" stroke="#bfbfbf" points="78.75,-56.5 78.75,-75.5 134.75,-75.5 134.75,-56.5 78.75,-56.5"/>
<text text-anchor="middle" x="106.75" y="-63.5" font-family="Helvetica,sans-Serif" font-size="10.00">iomanip</text>
</a>
</g>
</g>
<!-- Node4&#45;&gt;Node7 -->
<g id="edge6" class="edge">
<title>Node4&#45;&gt;Node7</title>
<path fill="none" stroke="midnightblue" d="M106.75,-112.08C106.75,-105.01 106.75,-94.86 106.75,-85.99"/>
<polygon fill="midnightblue" stroke="midnightblue" points="110.25,-85.75 106.75,-75.75 103.25,-85.75 110.25,-85.75"/>
</g>
<!-- Node8 -->
<g id="node8" class="node">
<title>Node8</title>
<g id="a_node8"><a xlink:href="count_8hpp.html" target="_top" xlink:title="Plik zawiera definicję klasy reprezentujacej counter, pozwalajacy na liczenie instancji stworzonych k...">
<polygon fill="none" stroke="black" points="153.25,-56.5 153.25,-75.5 218.25,-75.5 218.25,-56.5 153.25,-56.5"/>
<text text-anchor="middle" x="185.75" y="-63.5" font-family="Helvetica,sans-Serif" font-size="10.00">count.hpp</text>
</a>
</g>
</g>
<!-- Node4&#45;&gt;Node8 -->
<g id="edge7" class="edge">
<title>Node4&#45;&gt;Node8</title>
<path fill="none" stroke="midnightblue" d="M119.44,-112.32C131.65,-103.98 150.33,-91.21 164.75,-81.35"/>
<polygon fill="midnightblue" stroke="midnightblue" points="166.81,-84.19 173.09,-75.65 162.86,-78.41 166.81,-84.19"/>
</g>
<!-- Node10 -->
<g id="node10" class="node">
<title>Node10</title>
<g id="a_node10"><a xlink:title=" ">
<polygon fill="none" stroke="#bfbfbf" points="236.75,-56.5 236.75,-75.5 328.75,-75.5 328.75,-56.5 236.75,-56.5"/>
<text text-anchor="middle" x="282.75" y="-63.5" font-family="Helvetica,sans-Serif" font-size="10.00">../src/vector.tpp</text>
</a>
</g>
</g>
<!-- Node4&#45;&gt;Node10 -->
<g id="edge10" class="edge">
<title>Node4&#45;&gt;Node10</title>
<path fill="none" stroke="midnightblue" d="M134.64,-112.44C164.5,-103.28 212.06,-88.69 245.2,-78.52"/>
<polygon fill="midnightblue" stroke="midnightblue" points="246.46,-81.8 254.99,-75.52 244.4,-75.1 246.46,-81.8"/>
</g>
<!-- Node8&#45;&gt;Node5 -->
<g id="edge8" class="edge">
<title>Node8&#45;&gt;Node5</title>
<path fill="none" stroke="midnightblue" d="M162.46,-56.44C137.94,-47.44 99.15,-33.19 71.55,-23.05"/>
<polygon fill="midnightblue" stroke="midnightblue" points="72.53,-19.68 61.93,-19.52 70.11,-26.25 72.53,-19.68"/>
</g>
<!-- Node9 -->
<g id="node9" class="node">
<title>Node9</title>
<g id="a_node9"><a xlink:title=" ">
<polygon fill="none" stroke="#bfbfbf" points="141.25,-0.5 141.25,-19.5 230.25,-19.5 230.25,-0.5 141.25,-0.5"/>
<text text-anchor="middle" x="185.75" y="-7.5" font-family="Helvetica,sans-Serif" font-size="10.00">../src/count.tpp</text>
</a>
</g>
</g>
<!-- Node8&#45;&gt;Node9 -->
<g id="edge9" class="edge">
<title>Node8&#45;&gt;Node9</title>
<path fill="none" stroke="midnightblue" d="M185.75,-56.08C185.75,-49.01 185.75,-38.86 185.75,-29.99"/>
<polygon fill="midnightblue" stroke="midnightblue" points="189.25,-29.75 185.75,-19.75 182.25,-29.75 189.25,-29.75"/>
</g>
<!-- Node11&#45;&gt;Node3 -->
<g id="edge12" class="edge">
<title>Node11&#45;&gt;Node3</title>
<path fill="none" stroke="midnightblue" d="M217.88,-131.75C219.41,-138.86 219.85,-149.14 219.22,-158.1"/>
<polygon fill="midnightblue" stroke="midnightblue" points="215.74,-157.71 217.91,-168.08 222.68,-158.62 215.74,-157.71"/>
</g>
</g>
</svg>
