<?xml version="1.0" encoding="UTF-8" standalone="no"?>
<!DOCTYPE svg PUBLIC "-//W3C//DTD SVG 1.1//EN"
 "http://www.w3.org/Graphics/SVG/1.1/DTD/svg11.dtd">
<!-- Generated by graphviz version 2.43.0 (0)
 -->
<!-- Title: /home/krzysztof/PO/zad5_3&#45;kgliwinski/include/scene.hpp Pages: 1 -->
<!--zoomable 554 -->
<svg id="main" version="1.1" xmlns="http://www.w3.org/2000/svg" xmlns:xlink="http://www.w3.org/1999/xlink" xml:space="preserve" onload="init(evt)">
<style type="text/css"><![CDATA[
.edge:hover path { stroke: red; }
.edge:hover polygon { stroke: red; fill: red; }
]]></style>
<script type="text/javascript"><![CDATA[
var edges = document.getElementsByTagName('g');
if (edges && edges.length) {
  for (var i=0;i<edges.length;i++) {
    if (edges[i].id.substr(0,4)=='edge') {
      edges[i].setAttribute('class','edge');
    }
  }
}
]]></script>
        <defs>
                <circle id="rim" cx="0" cy="0" r="7"/>
                <circle id="rim2" cx="0" cy="0" r="3.5"/>
                <g id="zoomPlus">
                        <use xlink:href="#rim" fill="#404040">
                                <set attributeName="fill" to="#808080" begin="zoomplus.mouseover" end="zoomplus.mouseout"/>
                        </use>
                        <path d="M-4,0h8M0,-4v8" fill="none" stroke="white" stroke-width="1.5" pointer-events="none"/>
                </g>
                <g id="zoomMin">
                        <use xlink:href="#rim" fill="#404040">
                                <set attributeName="fill" to="#808080" begin="zoomminus.mouseover" end="zoomminus.mouseout"/>
                        </use>
                        <path d="M-4,0h8" fill="none" stroke="white" stroke-width="1.5" pointer-events="none"/>
                </g>
                <g id="dirArrow">
                        <path fill="none" stroke="white" stroke-width="1.5" d="M0,-3.0v7 M-2.5,-0.5L0,-3.0L2.5,-0.5"/>
                </g>
               <g id="resetDef">
                       <use xlink:href="#rim2" fill="#404040">
                               <set attributeName="fill" to="#808080" begin="reset.mouseover" end="reset.mouseout"/>
                       </use>
               </g>
        </defs>

<script type="text/javascript">
var viewWidth = 839;
var viewHeight = 554;
var sectionId = 'dynsection-0';
</script>
<script xlink:href="svgpan.js"/>
<svg id="graph" class="graph">
<g id="viewport">
<title>/home/krzysztof/PO/zad5_3&#45;kgliwinski/include/scene.hpp</title>
<!-- Node1 -->
<g id="node1" class="node">
<title>Node1</title>
<g id="a_node1"><a xlink:title="Plik zawiera definicję klasy reprezentujacej scene, obslugujacej zapis do plikow i wytswietlanie w gn...">
<polygon fill="#bfbfbf" stroke="black" points="362.25,-504.5 362.25,-545.5 508.25,-545.5 508.25,-504.5 362.25,-504.5"/>
<text text-anchor="start" x="370.25" y="-533.5" font-family="Helvetica,sans-Serif" font-size="10.00">/home/krzysztof/PO</text>
<text text-anchor="start" x="370.25" y="-522.5" font-family="Helvetica,sans-Serif" font-size="10.00">/zad5_3&#45;kgliwinski/include</text>
<text text-anchor="middle" x="435.25" y="-511.5" font-family="Helvetica,sans-Serif" font-size="10.00">/scene.hpp</text>
</a>
</g>
</g>
<!-- Node2 -->
<g id="node2" class="node">
<title>Node2</title>
<g id="a_node2"><a xlink:title=" ">
<polygon fill="none" stroke="#bfbfbf" points="505.25,-0.5 505.25,-19.5 565.25,-19.5 565.25,-0.5 505.25,-0.5"/>
<text text-anchor="middle" x="535.25" y="-7.5" font-family="Helvetica,sans-Serif" font-size="10.00">iostream</text>
</a>
</g>
</g>
<!-- Node1&#45;&gt;Node2 -->
<g id="edge1" class="edge">
<title>Node1&#45;&gt;Node2</title>
<path fill="none" stroke="midnightblue" d="M508.4,-519.55C598.48,-512.86 745.11,-497.72 790.25,-468 818.78,-449.22 831.25,-437.16 831.25,-403 831.25,-403 831.25,-403 831.25,-121 831.25,-67.09 656.55,-31.09 575.58,-17.3"/>
<polygon fill="midnightblue" stroke="midnightblue" points="575.7,-13.77 565.26,-15.58 574.55,-20.68 575.7,-13.77"/>
</g>
<!-- Node3 -->
<g id="node3" class="node">
<title>Node3</title>
<g id="a_node3"><a xlink:title=" ">
<polygon fill="none" stroke="#bfbfbf" points="42.75,-280.5 42.75,-299.5 97.75,-299.5 97.75,-280.5 42.75,-280.5"/>
<text text-anchor="middle" x="70.25" y="-287.5" font-family="Helvetica,sans-Serif" font-size="10.00">fstream</text>
</a>
</g>
</g>
<!-- Node1&#45;&gt;Node3 -->
<g id="edge2" class="edge">
<title>Node1&#45;&gt;Node3</title>
<path fill="none" stroke="midnightblue" d="M361.89,-519.41C247.59,-511.49 37.69,-493.63 15.25,-468 -26.39,-420.44 28.26,-341.65 55.95,-307.56"/>
<polygon fill="midnightblue" stroke="midnightblue" points="58.91,-309.47 62.63,-299.55 53.54,-304.98 58.91,-309.47"/>
</g>
<!-- Node4 -->
<g id="node4" class="node">
<title>Node4</title>
<g id="a_node4"><a xlink:title=" ">
<polygon fill="none" stroke="#bfbfbf" points="108.75,-448.5 108.75,-467.5 161.75,-467.5 161.75,-448.5 108.75,-448.5"/>
<text text-anchor="middle" x="135.25" y="-455.5" font-family="Helvetica,sans-Serif" font-size="10.00">stdlib.h</text>
</a>
</g>
</g>
<!-- Node1&#45;&gt;Node4 -->
<g id="edge3" class="edge">
<title>Node1&#45;&gt;Node4</title>
<path fill="none" stroke="midnightblue" d="M362.23,-509.46C311.3,-499.11 241.53,-484.52 171.81,-468.3"/>
<polygon fill="midnightblue" stroke="midnightblue" points="172.51,-464.87 161.97,-466 170.91,-471.68 172.51,-464.87"/>
</g>
<!-- Node5 -->
<g id="node5" class="node">
<title>Node5</title>
<g id="a_node5"><a xlink:title=" ">
<polygon fill="none" stroke="#bfbfbf" points="497.25,-392.5 497.25,-411.5 553.25,-411.5 553.25,-392.5 497.25,-392.5"/>
<text text-anchor="middle" x="525.25" y="-399.5" font-family="Helvetica,sans-Serif" font-size="10.00">unistd.h</text>
</a>
</g>
</g>
<!-- Node1&#45;&gt;Node5 -->
<g id="edge4" class="edge">
<title>Node1&#45;&gt;Node5</title>
<path fill="none" stroke="midnightblue" d="M449.91,-504.29C467.42,-480.75 496.41,-441.78 512.85,-419.67"/>
<polygon fill="midnightblue" stroke="midnightblue" points="515.71,-421.69 518.87,-411.57 510.1,-417.51 515.71,-421.69"/>
</g>
<!-- Node6 -->
<g id="node6" class="node">
<title>Node6</title>
<g id="a_node6"><a xlink:title=" ">
<polygon fill="none" stroke="#bfbfbf" points="255.25,-448.5 255.25,-467.5 313.25,-467.5 313.25,-448.5 255.25,-448.5"/>
<text text-anchor="middle" x="284.25" y="-455.5" font-family="Helvetica,sans-Serif" font-size="10.00">memory</text>
</a>
</g>
</g>
<!-- Node1&#45;&gt;Node6 -->
<g id="edge5" class="edge">
<title>Node1&#45;&gt;Node6</title>
<path fill="none" stroke="midnightblue" d="M389.95,-504.5C365.24,-493.86 335.36,-481 313.69,-471.67"/>
<polygon fill="midnightblue" stroke="midnightblue" points="314.92,-468.39 304.35,-467.65 312.15,-474.82 314.92,-468.39"/>
</g>
<!-- Node7 -->
<g id="node7" class="node">
<title>Node7</title>
<g id="a_node7"><a xlink:href="plane_8hpp.html" target="_top" xlink:title="Plik zawiera definicję klasy reprezentujacej plaska powierzchnie, obslugujacej zapis do plikow.">
<polygon fill="none" stroke="black" points="406.75,-392.5 406.75,-411.5 471.75,-411.5 471.75,-392.5 406.75,-392.5"/>
<text text-anchor="middle" x="439.25" y="-399.5" font-family="Helvetica,sans-Serif" font-size="10.00">plane.hpp</text>
</a>
</g>
</g>
<!-- Node1&#45;&gt;Node7 -->
<g id="edge6" class="edge">
<title>Node1&#45;&gt;Node7</title>
<path fill="none" stroke="midnightblue" d="M435.9,-504.29C436.66,-481.48 437.89,-444.19 438.63,-421.78"/>
<polygon fill="midnightblue" stroke="midnightblue" points="442.13,-421.69 438.97,-411.57 435.14,-421.45 442.13,-421.69"/>
</g>
<!-- Node24 -->
<g id="node24" class="node">
<title>Node24</title>
<g id="a_node24"><a xlink:href="pyramid_8hpp.html" target="_top" xlink:title="Plik zawiera definicję klasy reprezentujacej ostroslup o prostokatnej podstawie w przestrzeni trojwym...">
<polygon fill="none" stroke="black" points="585.25,-448.5 585.25,-467.5 663.25,-467.5 663.25,-448.5 585.25,-448.5"/>
<text text-anchor="middle" x="624.25" y="-455.5" font-family="Helvetica,sans-Serif" font-size="10.00">pyramid.hpp</text>
</a>
</g>
</g>
<!-- Node1&#45;&gt;Node24 -->
<g id="edge35" class="edge">
<title>Node1&#45;&gt;Node24</title>
<path fill="none" stroke="midnightblue" d="M491.96,-504.5C523.72,-493.57 562.3,-480.3 589.59,-470.92"/>
<polygon fill="midnightblue" stroke="midnightblue" points="590.77,-474.21 599.09,-467.65 588.5,-467.6 590.77,-474.21"/>
</g>
<!-- Node26 -->
<g id="node26" class="node">
<title>Node26</title>
<g id="a_node26"><a xlink:href="triangular_8hpp.html" target="_top" xlink:title=" ">
<polygon fill="none" stroke="black" points="681.25,-448.5 681.25,-467.5 765.25,-467.5 765.25,-448.5 681.25,-448.5"/>
<text text-anchor="middle" x="723.25" y="-455.5" font-family="Helvetica,sans-Serif" font-size="10.00">triangular.hpp</text>
</a>
</g>
</g>
<!-- Node1&#45;&gt;Node26 -->
<g id="edge38" class="edge">
<title>Node1&#45;&gt;Node26</title>
<path fill="none" stroke="midnightblue" d="M508.3,-507.51C560.82,-495.66 630.13,-480.02 675.66,-469.74"/>
<polygon fill="midnightblue" stroke="midnightblue" points="676.58,-473.12 685.56,-467.51 675.04,-466.29 676.58,-473.12"/>
</g>
<!-- Node27 -->
<g id="node27" class="node">
<title>Node27</title>
<g id="a_node27"><a xlink:href="circus_8hpp.html" target="_top" xlink:title="Plik zawiera definicję klasy reprezentujacej Prism z podwyzszonym centrum, na ksztalt przypomina cyrk...">
<polygon fill="none" stroke="black" points="24.25,-448.5 24.25,-467.5 90.25,-467.5 90.25,-448.5 24.25,-448.5"/>
<text text-anchor="middle" x="57.25" y="-455.5" font-family="Helvetica,sans-Serif" font-size="10.00">circus.hpp</text>
</a>
</g>
</g>
<!-- Node1&#45;&gt;Node27 -->
<g id="edge40" class="edge">
<title>Node1&#45;&gt;Node27</title>
<path fill="none" stroke="midnightblue" d="M362,-512.78C296.08,-502.46 196.33,-486.29 100.55,-468.18"/>
<polygon fill="midnightblue" stroke="midnightblue" points="101.17,-464.74 90.69,-466.31 99.86,-471.62 101.17,-464.74"/>
</g>
<!-- Node29 -->
<g id="node29" class="node">
<title>Node29</title>
<g id="a_node29"><a xlink:href="tent_8hpp.html" target="_top" xlink:title="Plik zawiera definicję klasy reprezentujacej Prism bez gornej podstawy, =Ksztaltem przypomina namiot.">
<polygon fill="none" stroke="black" points="179.75,-448.5 179.75,-467.5 236.75,-467.5 236.75,-448.5 179.75,-448.5"/>
<text text-anchor="middle" x="208.25" y="-455.5" font-family="Helvetica,sans-Serif" font-size="10.00">tent.hpp</text>
</a>
</g>
</g>
<!-- Node1&#45;&gt;Node29 -->
<g id="edge43" class="edge">
<title>Node1&#45;&gt;Node29</title>
<path fill="none" stroke="midnightblue" d="M367.14,-504.5C327.73,-493.21 279.58,-479.42 246.68,-470"/>
<polygon fill="midnightblue" stroke="midnightblue" points="247.57,-466.62 236.99,-467.23 245.64,-473.35 247.57,-466.62"/>
</g>
<!-- Node30 -->
<g id="node30" class="node">
<title>Node30</title>
<g id="a_node30"><a xlink:href="volcano_8hpp.html" target="_top" xlink:title="Plik zawiera definicję klasy reprezentujacej wulkan, jest deformacja obiektu Prism.">
<polygon fill="none" stroke="black" points="331.25,-448.5 331.25,-467.5 407.25,-467.5 407.25,-448.5 331.25,-448.5"/>
<text text-anchor="middle" x="369.25" y="-455.5" font-family="Helvetica,sans-Serif" font-size="10.00">volcano.hpp</text>
</a>
</g>
</g>
<!-- Node1&#45;&gt;Node30 -->
<g id="edge45" class="edge">
<title>Node1&#45;&gt;Node30</title>
<path fill="none" stroke="midnightblue" d="M415.45,-504.5C405.82,-495.01 394.39,-483.76 385.31,-474.81"/>
<polygon fill="midnightblue" stroke="midnightblue" points="387.62,-472.18 378.04,-467.65 382.71,-477.16 387.62,-472.18"/>
</g>
<!-- Node31 -->
<g id="node31" class="node">
<title>Node31</title>
<g id="a_node31"><a xlink:href="drone_8hpp.html" target="_top" xlink:title="Plik zawiera definicję klasy reprezentujacej drona, budowanie i przemieszczanie go.">
<polygon fill="none" stroke="black" points="501.75,-448.5 501.75,-467.5 566.75,-467.5 566.75,-448.5 501.75,-448.5"/>
<text text-anchor="middle" x="534.25" y="-455.5" font-family="Helvetica,sans-Serif" font-size="10.00">drone.hpp</text>
</a>
</g>
</g>
<!-- Node1&#45;&gt;Node31 -->
<g id="edge47" class="edge">
<title>Node1&#45;&gt;Node31</title>
<path fill="none" stroke="midnightblue" d="M464.95,-504.5C480.28,-494.44 498.63,-482.38 512.6,-473.21"/>
<polygon fill="midnightblue" stroke="midnightblue" points="514.63,-476.07 521.07,-467.65 510.79,-470.22 514.63,-476.07"/>
</g>
<!-- Node32 -->
<g id="node32" class="node">
<title>Node32</title>
<g id="a_node32"><a xlink:href="lacze__do__gnuplota_8hpp.html" target="_top" xlink:title=" ">
<polygon fill="none" stroke="black" points="667.25,-392.5 667.25,-411.5 795.25,-411.5 795.25,-392.5 667.25,-392.5"/>
<text text-anchor="middle" x="731.25" y="-399.5" font-family="Helvetica,sans-Serif" font-size="10.00">lacze_do_gnuplota.hpp</text>
</a>
</g>
</g>
<!-- Node1&#45;&gt;Node32 -->
<g id="edge55" class="edge">
<title>Node1&#45;&gt;Node32</title>
<path fill="none" stroke="midnightblue" d="M508.52,-522.57C597.79,-519.09 740.87,-507.35 774.25,-468 787.87,-451.95 769.06,-431.41 752.21,-417.76"/>
<polygon fill="midnightblue" stroke="midnightblue" points="754.31,-414.96 744.24,-411.66 750.05,-420.52 754.31,-414.96"/>
</g>
<!-- Node8 -->
<g id="node8" class="node">
<title>Node8</title>
<g id="a_node8"><a xlink:href="block_8hpp.html" target="_top" xlink:title="Plik zawiera definicję klasy reprezentujacej bryle w przestrzeni trojwymiarowej.">
<polygon fill="none" stroke="black" points="407.25,-336.5 407.25,-355.5 471.25,-355.5 471.25,-336.5 407.25,-336.5"/>
<text text-anchor="middle" x="439.25" y="-343.5" font-family="Helvetica,sans-Serif" font-size="10.00">block.hpp</text>
</a>
</g>
</g>
<!-- Node7&#45;&gt;Node8 -->
<g id="edge7" class="edge">
<title>Node7&#45;&gt;Node8</title>
<path fill="none" stroke="midnightblue" d="M439.25,-392.08C439.25,-385.01 439.25,-374.86 439.25,-365.99"/>
<polygon fill="midnightblue" stroke="midnightblue" points="442.75,-365.75 439.25,-355.75 435.75,-365.75 442.75,-365.75"/>
</g>
<!-- Node8&#45;&gt;Node3 -->
<g id="edge10" class="edge">
<title>Node8&#45;&gt;Node3</title>
<path fill="none" stroke="midnightblue" d="M407.15,-340.3C339.13,-330.35 180.79,-307.18 108.03,-296.53"/>
<polygon fill="midnightblue" stroke="midnightblue" points="108.34,-293.04 97.94,-295.05 107.33,-299.96 108.34,-293.04"/>
</g>
<!-- Node9 -->
<g id="node9" class="node">
<title>Node9</title>
<g id="a_node9"><a xlink:title=" ">
<polygon fill="none" stroke="#bfbfbf" points="660.25,-280.5 660.25,-299.5 704.25,-299.5 704.25,-280.5 660.25,-280.5"/>
<text text-anchor="middle" x="682.25" y="-287.5" font-family="Helvetica,sans-Serif" font-size="10.00">string</text>
</a>
</g>
</g>
<!-- Node8&#45;&gt;Node9 -->
<g id="edge8" class="edge">
<title>Node8&#45;&gt;Node9</title>
<path fill="none" stroke="midnightblue" d="M471.59,-338.29C512.38,-329.76 584.65,-314.39 646.25,-300 647.52,-299.7 648.82,-299.4 650.12,-299.08"/>
<polygon fill="midnightblue" stroke="midnightblue" points="651.31,-302.4 660.19,-296.63 649.65,-295.6 651.31,-302.4"/>
</g>
<!-- Node10 -->
<g id="node10" class="node">
<title>Node10</title>
<g id="a_node10"><a xlink:title=" ">
<polygon fill="none" stroke="#bfbfbf" points="722.75,-280.5 722.75,-299.5 769.75,-299.5 769.75,-280.5 722.75,-280.5"/>
<text text-anchor="middle" x="746.25" y="-287.5" font-family="Helvetica,sans-Serif" font-size="10.00">vector</text>
</a>
</g>
</g>
<!-- Node8&#45;&gt;Node10 -->
<g id="edge9" class="edge">
<title>Node8&#45;&gt;Node10</title>
<path fill="none" stroke="midnightblue" d="M471.51,-340.8C521.19,-334.11 619.56,-319.9 712.67,-299.93"/>
<polygon fill="midnightblue" stroke="midnightblue" points="713.5,-303.33 722.53,-297.78 712.02,-296.49 713.5,-303.33"/>
</g>
<!-- Node11 -->
<g id="node11" class="node">
<title>Node11</title>
<g id="a_node11"><a xlink:href="vector3_d_8hpp.html" target="_top" xlink:title="Zawiera deklaracje klasy Vector3D.">
<polygon fill="none" stroke="black" points="266.25,-168.5 266.25,-187.5 348.25,-187.5 348.25,-168.5 266.25,-168.5"/>
<text text-anchor="middle" x="307.25" y="-175.5" font-family="Helvetica,sans-Serif" font-size="10.00">vector3D.hpp</text>
</a>
</g>
</g>
<!-- Node8&#45;&gt;Node11 -->
<g id="edge11" class="edge">
<title>Node8&#45;&gt;Node11</title>
<path fill="none" stroke="midnightblue" d="M432.02,-336.45C417.46,-319.17 383.63,-278.77 356.25,-244 343.47,-227.76 329.3,-208.86 319.5,-195.64"/>
<polygon fill="midnightblue" stroke="midnightblue" points="322.24,-193.46 313.48,-187.5 316.61,-197.62 322.24,-193.46"/>
</g>
<!-- Node12 -->
<g id="node12" class="node">
<title>Node12</title>
<g id="a_node12"><a xlink:href="vector_8hpp.html" target="_top" xlink:title=" ">
<polygon fill="none" stroke="black" points="498.25,-112.5 498.25,-131.5 566.25,-131.5 566.25,-112.5 498.25,-112.5"/>
<text text-anchor="middle" x="532.25" y="-119.5" font-family="Helvetica,sans-Serif" font-size="10.00">vector.hpp</text>
</a>
</g>
</g>
<!-- Node8&#45;&gt;Node12 -->
<g id="edge23" class="edge">
<title>Node8&#45;&gt;Node12</title>
<path fill="none" stroke="midnightblue" d="M471.42,-336.74C495.61,-329.55 528.81,-317.5 554.25,-300 581.99,-280.92 590.9,-274.45 605.25,-244 619.73,-213.27 630.48,-197.27 613.25,-168 604.33,-152.84 588.26,-142.43 572.77,-135.46"/>
<polygon fill="midnightblue" stroke="midnightblue" points="573.85,-132.12 563.27,-131.56 571.19,-138.6 573.85,-132.12"/>
</g>
<!-- Node15 -->
<g id="node15" class="node">
<title>Node15</title>
<g id="a_node15"><a xlink:href="count_8hpp.html" target="_top" xlink:title="Plik zawiera definicję klasy reprezentujacej counter, pozwalajacy na liczenie instancji stworzonych k...">
<polygon fill="none" stroke="black" points="282.75,-56.5 282.75,-75.5 347.75,-75.5 347.75,-56.5 282.75,-56.5"/>
<text text-anchor="middle" x="315.25" y="-63.5" font-family="Helvetica,sans-Serif" font-size="10.00">count.hpp</text>
</a>
</g>
</g>
<!-- Node8&#45;&gt;Node15 -->
<g id="edge22" class="edge">
<title>Node8&#45;&gt;Node15</title>
<path fill="none" stroke="midnightblue" d="M407.22,-344.84C340.81,-342.63 194.25,-327.32 194.25,-235 194.25,-235 194.25,-235 194.25,-177 194.25,-146.9 193.41,-134.63 213.25,-112 228.6,-94.49 252.05,-83.5 272.6,-76.77"/>
<polygon fill="midnightblue" stroke="midnightblue" points="273.85,-80.05 282.41,-73.8 271.82,-73.35 273.85,-80.05"/>
</g>
<!-- Node19 -->
<g id="node19" class="node">
<title>Node19</title>
<g id="a_node19"><a xlink:href="matrix3_d_8hpp.html" target="_top" xlink:title="Zawiera deklaracje klasy Matrix3D.">
<polygon fill="none" stroke="black" points="461.75,-280.5 461.75,-299.5 544.75,-299.5 544.75,-280.5 461.75,-280.5"/>
<text text-anchor="middle" x="503.25" y="-287.5" font-family="Helvetica,sans-Serif" font-size="10.00">matrix3D.hpp</text>
</a>
</g>
</g>
<!-- Node8&#45;&gt;Node19 -->
<g id="edge24" class="edge">
<title>Node8&#45;&gt;Node19</title>
<path fill="none" stroke="midnightblue" d="M449.53,-336.32C459.09,-328.26 473.53,-316.08 485.04,-306.37"/>
<polygon fill="midnightblue" stroke="midnightblue" points="487.4,-308.96 492.78,-299.83 482.88,-303.61 487.4,-308.96"/>
</g>
<!-- Node20 -->
<g id="node20" class="node">
<title>Node20</title>
<g id="a_node20"><a xlink:href="matrix_8hpp.html" target="_top" xlink:title=" ">
<polygon fill="none" stroke="black" points="398.25,-224.5 398.25,-243.5 468.25,-243.5 468.25,-224.5 398.25,-224.5"/>
<text text-anchor="middle" x="433.25" y="-231.5" font-family="Helvetica,sans-Serif" font-size="10.00">matrix.hpp</text>
</a>
</g>
</g>
<!-- Node8&#45;&gt;Node20 -->
<g id="edge34" class="edge">
<title>Node8&#45;&gt;Node20</title>
<path fill="none" stroke="midnightblue" d="M438.78,-336.37C437.81,-318.62 435.58,-277.67 434.27,-253.6"/>
<polygon fill="midnightblue" stroke="midnightblue" points="437.76,-253.39 433.72,-243.59 430.77,-253.77 437.76,-253.39"/>
</g>
<!-- Node11&#45;&gt;Node12 -->
<g id="edge12" class="edge">
<title>Node11&#45;&gt;Node12</title>
<path fill="none" stroke="midnightblue" d="M342.9,-168.44C382.37,-158.97 445.99,-143.7 488.46,-133.51"/>
<polygon fill="midnightblue" stroke="midnightblue" points="489.33,-136.9 498.24,-131.16 487.7,-130.09 489.33,-136.9"/>
</g>
<!-- Node18 -->
<g id="node18" class="node">
<title>Node18</title>
<g id="a_node18"><a xlink:href="vector3_d_8cpp.html" target="_top" xlink:title=" ">
<polygon fill="none" stroke="black" points="222.75,-112.5 222.75,-131.5 329.75,-131.5 329.75,-112.5 222.75,-112.5"/>
<text text-anchor="middle" x="276.25" y="-119.5" font-family="Helvetica,sans-Serif" font-size="10.00">../src/vector3D.cpp</text>
</a>
</g>
</g>
<!-- Node11&#45;&gt;Node18 -->
<g id="edge20" class="edge">
<title>Node11&#45;&gt;Node18</title>
<path fill="none" stroke="midnightblue" d="M302.13,-168.08C297.84,-160.61 291.59,-149.72 286.31,-140.52"/>
<polygon fill="midnightblue" stroke="midnightblue" points="289.29,-138.68 281.27,-131.75 283.22,-142.17 289.29,-138.68"/>
</g>
<!-- Node12&#45;&gt;Node2 -->
<g id="edge13" class="edge">
<title>Node12&#45;&gt;Node2</title>
<path fill="none" stroke="midnightblue" d="M566.52,-117.49C592.92,-112.79 627.77,-101.78 645.25,-76 665.69,-45.85 614.65,-27.64 575.42,-18.45"/>
<polygon fill="midnightblue" stroke="midnightblue" points="576.02,-15 565.5,-16.25 574.51,-21.83 576.02,-15"/>
</g>
<!-- Node13 -->
<g id="node13" class="node">
<title>Node13</title>
<g id="a_node13"><a xlink:title=" ">
<polygon fill="none" stroke="#bfbfbf" points="514.75,-56.5 514.75,-75.5 561.75,-75.5 561.75,-56.5 514.75,-56.5"/>
<text text-anchor="middle" x="538.25" y="-63.5" font-family="Helvetica,sans-Serif" font-size="10.00">cmath</text>
</a>
</g>
</g>
<!-- Node12&#45;&gt;Node13 -->
<g id="edge14" class="edge">
<title>Node12&#45;&gt;Node13</title>
<path fill="none" stroke="midnightblue" d="M533.24,-112.08C534.04,-104.93 535.18,-94.64 536.17,-85.69"/>
<polygon fill="midnightblue" stroke="midnightblue" points="539.65,-86.08 537.28,-75.75 532.7,-85.3 539.65,-86.08"/>
</g>
<!-- Node14 -->
<g id="node14" class="node">
<title>Node14</title>
<g id="a_node14"><a xlink:title=" ">
<polygon fill="none" stroke="#bfbfbf" points="580.25,-56.5 580.25,-75.5 636.25,-75.5 636.25,-56.5 580.25,-56.5"/>
<text text-anchor="middle" x="608.25" y="-63.5" font-family="Helvetica,sans-Serif" font-size="10.00">iomanip</text>
</a>
</g>
</g>
<!-- Node12&#45;&gt;Node14 -->
<g id="edge15" class="edge">
<title>Node12&#45;&gt;Node14</title>
<path fill="none" stroke="midnightblue" d="M544.46,-112.32C556.03,-104.11 573.63,-91.6 587.41,-81.81"/>
<polygon fill="midnightblue" stroke="midnightblue" points="589.69,-84.48 595.82,-75.83 585.64,-78.77 589.69,-84.48"/>
</g>
<!-- Node12&#45;&gt;Node15 -->
<g id="edge16" class="edge">
<title>Node12&#45;&gt;Node15</title>
<path fill="none" stroke="midnightblue" d="M497.87,-112.44C459.97,-103.01 398.96,-87.83 358.01,-77.64"/>
<polygon fill="midnightblue" stroke="midnightblue" points="358.6,-74.18 348.05,-75.16 356.91,-80.97 358.6,-74.18"/>
</g>
<!-- Node17 -->
<g id="node17" class="node">
<title>Node17</title>
<g id="a_node17"><a xlink:title=" ">
<polygon fill="none" stroke="#bfbfbf" points="404.25,-56.5 404.25,-75.5 496.25,-75.5 496.25,-56.5 404.25,-56.5"/>
<text text-anchor="middle" x="450.25" y="-63.5" font-family="Helvetica,sans-Serif" font-size="10.00">../src/vector.tpp</text>
</a>
</g>
</g>
<!-- Node12&#45;&gt;Node17 -->
<g id="edge19" class="edge">
<title>Node12&#45;&gt;Node17</title>
<path fill="none" stroke="midnightblue" d="M519.08,-112.32C506.4,-103.98 487.02,-91.21 472.05,-81.35"/>
<polygon fill="midnightblue" stroke="midnightblue" points="473.67,-78.23 463.39,-75.65 469.82,-84.08 473.67,-78.23"/>
</g>
<!-- Node15&#45;&gt;Node2 -->
<g id="edge17" class="edge">
<title>Node15&#45;&gt;Node2</title>
<path fill="none" stroke="midnightblue" d="M348.19,-56.92C387.39,-47.29 452.83,-31.23 495,-20.88"/>
<polygon fill="midnightblue" stroke="midnightblue" points="496.05,-24.23 504.93,-18.44 494.38,-17.43 496.05,-24.23"/>
</g>
<!-- Node16 -->
<g id="node16" class="node">
<title>Node16</title>
<g id="a_node16"><a xlink:title=" ">
<polygon fill="none" stroke="#bfbfbf" points="270.75,-0.5 270.75,-19.5 359.75,-19.5 359.75,-0.5 270.75,-0.5"/>
<text text-anchor="middle" x="315.25" y="-7.5" font-family="Helvetica,sans-Serif" font-size="10.00">../src/count.tpp</text>
</a>
</g>
</g>
<!-- Node15&#45;&gt;Node16 -->
<g id="edge18" class="edge">
<title>Node15&#45;&gt;Node16</title>
<path fill="none" stroke="midnightblue" d="M315.25,-56.08C315.25,-49.01 315.25,-38.86 315.25,-29.99"/>
<polygon fill="midnightblue" stroke="midnightblue" points="318.75,-29.75 315.25,-19.75 311.75,-29.75 318.75,-29.75"/>
</g>
<!-- Node18&#45;&gt;Node18 -->
<g id="edge21" class="edge">
<title>Node18&#45;&gt;Node18</title>
<path fill="none" stroke="midnightblue" d="M306.75,-131.53C327.47,-134.31 347.75,-131.13 347.75,-122 347.75,-114.37 333.58,-110.89 316.82,-111.59"/>
<polygon fill="midnightblue" stroke="midnightblue" points="316.4,-108.11 306.75,-112.47 317.01,-115.08 316.4,-108.11"/>
</g>
<!-- Node19&#45;&gt;Node11 -->
<g id="edge31" class="edge">
<title>Node19&#45;&gt;Node11</title>
<path fill="none" stroke="midnightblue" d="M475.02,-280.44C451.29,-272.65 416.9,-259.94 389.25,-244 364.59,-229.78 339.4,-208.62 323.57,-194.34"/>
<polygon fill="midnightblue" stroke="midnightblue" points="325.92,-191.75 316.19,-187.57 321.19,-196.91 325.92,-191.75"/>
</g>
<!-- Node19&#45;&gt;Node20 -->
<g id="edge25" class="edge">
<title>Node19&#45;&gt;Node20</title>
<path fill="none" stroke="midnightblue" d="M492,-280.32C481.45,-272.18 465.45,-259.84 452.81,-250.09"/>
<polygon fill="midnightblue" stroke="midnightblue" points="454.76,-247.17 444.7,-243.83 450.48,-252.71 454.76,-247.17"/>
</g>
<!-- Node23 -->
<g id="node23" class="node">
<title>Node23</title>
<g id="a_node23"><a xlink:href="matrix3_d_8cpp.html" target="_top" xlink:title=" ">
<polygon fill="none" stroke="black" points="486.75,-224.5 486.75,-243.5 595.75,-243.5 595.75,-224.5 486.75,-224.5"/>
<text text-anchor="middle" x="541.25" y="-231.5" font-family="Helvetica,sans-Serif" font-size="10.00">../src/matrix3D.cpp</text>
</a>
</g>
</g>
<!-- Node19&#45;&gt;Node23 -->
<g id="edge32" class="edge">
<title>Node19&#45;&gt;Node23</title>
<path fill="none" stroke="midnightblue" d="M504.36,-280.08C508.2,-272.3 515.92,-260.8 523.47,-251.37"/>
<polygon fill="midnightblue" stroke="midnightblue" points="526.14,-253.63 529.96,-243.75 520.81,-249.09 526.14,-253.63"/>
</g>
<!-- Node20&#45;&gt;Node2 -->
<g id="edge28" class="edge">
<title>Node20&#45;&gt;Node2</title>
<path fill="none" stroke="midnightblue" d="M422.54,-224.3C413.31,-216.07 400.66,-202.79 395.25,-188 375.1,-132.9 360.69,-103.41 395.25,-56 417.85,-25 462.14,-14.89 494.88,-11.82"/>
<polygon fill="midnightblue" stroke="midnightblue" points="495.35,-15.3 505.06,-11.06 494.83,-8.32 495.35,-15.3"/>
</g>
<!-- Node20&#45;&gt;Node11 -->
<g id="edge27" class="edge">
<title>Node20&#45;&gt;Node11</title>
<path fill="none" stroke="midnightblue" d="M413.29,-224.44C392.64,-215.6 360.19,-201.69 336.62,-191.59"/>
<polygon fill="midnightblue" stroke="midnightblue" points="337.69,-188.24 327.12,-187.52 334.94,-194.67 337.69,-188.24"/>
</g>
<!-- Node20&#45;&gt;Node12 -->
<g id="edge26" class="edge">
<title>Node20&#45;&gt;Node12</title>
<path fill="none" stroke="midnightblue" d="M455.04,-224.39C471.39,-216.95 493.28,-204.73 507.25,-188 518.38,-174.67 524.89,-155.84 528.46,-141.88"/>
<polygon fill="midnightblue" stroke="midnightblue" points="531.92,-142.45 530.73,-131.92 525.1,-140.89 531.92,-142.45"/>
</g>
<!-- Node21 -->
<g id="node21" class="node">
<title>Node21</title>
<g id="a_node21"><a xlink:title=" ">
<polygon fill="none" stroke="#bfbfbf" points="554.75,-168.5 554.75,-187.5 603.75,-187.5 603.75,-168.5 554.75,-168.5"/>
<text text-anchor="middle" x="579.25" y="-175.5" font-family="Helvetica,sans-Serif" font-size="10.00">cstdlib</text>
</a>
</g>
</g>
<!-- Node20&#45;&gt;Node21 -->
<g id="edge29" class="edge">
<title>Node20&#45;&gt;Node21</title>
<path fill="none" stroke="midnightblue" d="M456.38,-224.44C480.73,-215.44 519.26,-201.19 546.67,-191.05"/>
<polygon fill="midnightblue" stroke="midnightblue" points="548.06,-194.27 556.22,-187.52 545.63,-187.7 548.06,-194.27"/>
</g>
<!-- Node22 -->
<g id="node22" class="node">
<title>Node22</title>
<g id="a_node22"><a xlink:title=" ">
<polygon fill="none" stroke="#bfbfbf" points="404.25,-168.5 404.25,-187.5 498.25,-187.5 498.25,-168.5 404.25,-168.5"/>
<text text-anchor="middle" x="451.25" y="-175.5" font-family="Helvetica,sans-Serif" font-size="10.00">../src/matrix.tpp</text>
</a>
</g>
</g>
<!-- Node20&#45;&gt;Node22 -->
<g id="edge30" class="edge">
<title>Node20&#45;&gt;Node22</title>
<path fill="none" stroke="midnightblue" d="M436.22,-224.08C438.63,-216.85 442.11,-206.41 445.12,-197.4"/>
<polygon fill="midnightblue" stroke="midnightblue" points="448.49,-198.34 448.33,-187.75 441.85,-196.13 448.49,-198.34"/>
</g>
<!-- Node23&#45;&gt;Node19 -->
<g id="edge33" class="edge">
<title>Node23&#45;&gt;Node19</title>
<path fill="none" stroke="midnightblue" d="M540.22,-243.75C536.44,-251.48 528.74,-262.97 521.19,-272.43"/>
<polygon fill="midnightblue" stroke="midnightblue" points="518.5,-270.2 514.69,-280.08 523.83,-274.73 518.5,-270.2"/>
</g>
<!-- Node25 -->
<g id="node25" class="node">
<title>Node25</title>
<g id="a_node25"><a xlink:href="cuboid_8hpp.html" target="_top" xlink:title="Plik zawiera definicję klasy reprezentujacej prostopadloscian w przestrzeni trojwymiarowej.">
<polygon fill="none" stroke="black" points="576.25,-392.5 576.25,-411.5 646.25,-411.5 646.25,-392.5 576.25,-392.5"/>
<text text-anchor="middle" x="611.25" y="-399.5" font-family="Helvetica,sans-Serif" font-size="10.00">cuboid.hpp</text>
</a>
</g>
</g>
<!-- Node24&#45;&gt;Node25 -->
<g id="edge36" class="edge">
<title>Node24&#45;&gt;Node25</title>
<path fill="none" stroke="midnightblue" d="M622.1,-448.08C620.38,-440.93 617.9,-430.64 615.75,-421.69"/>
<polygon fill="midnightblue" stroke="midnightblue" points="619.1,-420.65 613.36,-411.75 612.3,-422.29 619.1,-420.65"/>
</g>
<!-- Node25&#45;&gt;Node8 -->
<g id="edge37" class="edge">
<title>Node25&#45;&gt;Node8</title>
<path fill="none" stroke="midnightblue" d="M584,-392.44C554.81,-383.28 508.33,-368.69 475.94,-358.52"/>
<polygon fill="midnightblue" stroke="midnightblue" points="476.97,-355.17 466.38,-355.52 474.87,-361.85 476.97,-355.17"/>
</g>
<!-- Node26&#45;&gt;Node25 -->
<g id="edge39" class="edge">
<title>Node26&#45;&gt;Node25</title>
<path fill="none" stroke="midnightblue" d="M705.26,-448.32C687.21,-439.62 659.2,-426.12 638.45,-416.11"/>
<polygon fill="midnightblue" stroke="midnightblue" points="639.73,-412.84 629.2,-411.65 636.69,-419.15 639.73,-412.84"/>
</g>
<!-- Node28 -->
<g id="node28" class="node">
<title>Node28</title>
<g id="a_node28"><a xlink:href="prism_8hpp.html" target="_top" xlink:title="Plik zawiera definicję klasy reprezentujacej graniastoslup o podstawie o 6 wierzcholkach w przestrzen...">
<polygon fill="none" stroke="black" points="323.75,-392.5 323.75,-411.5 388.75,-411.5 388.75,-392.5 323.75,-392.5"/>
<text text-anchor="middle" x="356.25" y="-399.5" font-family="Helvetica,sans-Serif" font-size="10.00">prism.hpp</text>
</a>
</g>
</g>
<!-- Node27&#45;&gt;Node28 -->
<g id="edge41" class="edge">
<title>Node27&#45;&gt;Node28</title>
<path fill="none" stroke="midnightblue" d="M90.7,-449.71C93.59,-449.12 96.47,-448.54 99.25,-448 174.54,-433.35 262.67,-418.39 313.72,-409.94"/>
<polygon fill="midnightblue" stroke="midnightblue" points="314.43,-413.37 323.72,-408.29 313.29,-406.47 314.43,-413.37"/>
</g>
<!-- Node28&#45;&gt;Node8 -->
<g id="edge42" class="edge">
<title>Node28&#45;&gt;Node8</title>
<path fill="none" stroke="midnightblue" d="M369.59,-392.32C382.41,-383.98 402.04,-371.21 417.19,-361.35"/>
<polygon fill="midnightblue" stroke="midnightblue" points="419.48,-364.04 425.95,-355.65 415.66,-358.17 419.48,-364.04"/>
</g>
<!-- Node29&#45;&gt;Node28 -->
<g id="edge44" class="edge">
<title>Node29&#45;&gt;Node28</title>
<path fill="none" stroke="midnightblue" d="M231.7,-448.44C256.38,-439.44 295.44,-425.19 323.23,-415.05"/>
<polygon fill="midnightblue" stroke="midnightblue" points="324.71,-418.23 332.91,-411.52 322.32,-411.66 324.71,-418.23"/>
</g>
<!-- Node30&#45;&gt;Node28 -->
<g id="edge46" class="edge">
<title>Node30&#45;&gt;Node28</title>
<path fill="none" stroke="midnightblue" d="M367.1,-448.08C365.38,-440.93 362.9,-430.64 360.75,-421.69"/>
<polygon fill="midnightblue" stroke="midnightblue" points="364.1,-420.65 358.36,-411.75 357.3,-422.29 364.1,-420.65"/>
</g>
<!-- Node31&#45;&gt;Node5 -->
<g id="edge54" class="edge">
<title>Node31&#45;&gt;Node5</title>
<path fill="none" stroke="midnightblue" d="M532.76,-448.08C531.57,-440.93 529.86,-430.64 528.37,-421.69"/>
<polygon fill="midnightblue" stroke="midnightblue" points="531.81,-421.04 526.71,-411.75 524.9,-422.19 531.81,-421.04"/>
</g>
<!-- Node31&#45;&gt;Node25 -->
<g id="edge49" class="edge">
<title>Node31&#45;&gt;Node25</title>
<path fill="none" stroke="midnightblue" d="M546.62,-448.32C558.41,-440.06 576.38,-427.45 590.39,-417.63"/>
<polygon fill="midnightblue" stroke="midnightblue" points="592.73,-420.26 598.91,-411.65 588.71,-414.53 592.73,-420.26"/>
</g>
<!-- Node31&#45;&gt;Node28 -->
<g id="edge48" class="edge">
<title>Node31&#45;&gt;Node28</title>
<path fill="none" stroke="midnightblue" d="M506.05,-448.44C475.84,-439.28 427.74,-424.69 394.22,-414.52"/>
<polygon fill="midnightblue" stroke="midnightblue" points="394.91,-411.07 384.32,-411.52 392.88,-417.77 394.91,-411.07"/>
</g>
<!-- Node31&#45;&gt;Node32 -->
<g id="edge50" class="edge">
<title>Node31&#45;&gt;Node32</title>
<path fill="none" stroke="midnightblue" d="M565.47,-448.44C599.18,-439.2 653.05,-424.44 690.18,-414.26"/>
<polygon fill="midnightblue" stroke="midnightblue" points="691.46,-417.54 700.18,-411.52 689.61,-410.78 691.46,-417.54"/>
</g>
<!-- Node32&#45;&gt;Node9 -->
<g id="edge51" class="edge">
<title>Node32&#45;&gt;Node9</title>
<path fill="none" stroke="midnightblue" d="M727.41,-392.37C719.43,-374.46 700.93,-332.92 690.25,-308.95"/>
<polygon fill="midnightblue" stroke="midnightblue" points="693.34,-307.3 686.08,-299.59 686.95,-310.15 693.34,-307.3"/>
</g>
<!-- Node32&#45;&gt;Node10 -->
<g id="edge53" class="edge">
<title>Node32&#45;&gt;Node10</title>
<path fill="none" stroke="midnightblue" d="M732.43,-392.37C734.85,-374.62 740.43,-333.67 743.71,-309.6"/>
<polygon fill="midnightblue" stroke="midnightblue" points="747.2,-309.97 745.08,-299.59 740.26,-309.03 747.2,-309.97"/>
</g>
<!-- Node33 -->
<g id="node33" class="node">
<title>Node33</title>
<g id="a_node33"><a xlink:title=" ">
<polygon fill="none" stroke="#bfbfbf" points="759.25,-336.5 759.25,-355.5 791.25,-355.5 791.25,-336.5 759.25,-336.5"/>
<text text-anchor="middle" x="775.25" y="-343.5" font-family="Helvetica,sans-Serif" font-size="10.00">list</text>
</a>
</g>
</g>
<!-- Node32&#45;&gt;Node33 -->
<g id="edge52" class="edge">
<title>Node32&#45;&gt;Node33</title>
<path fill="none" stroke="midnightblue" d="M738.52,-392.08C744.8,-384.38 754.04,-373.03 761.68,-363.65"/>
<polygon fill="midnightblue" stroke="midnightblue" points="764.52,-365.71 768.12,-355.75 759.09,-361.29 764.52,-365.71"/>
</g>
</g>
</svg>
        <g id="navigator" transform="translate(0 0)" fill="#404254">
                <rect fill="#f2f5e9" fill-opacity="0.5" stroke="#606060" stroke-width=".5" x="0" y="0" width="60" height="60"/>
                <use id="zoomplus" xlink:href="#zoomPlus" x="17" y="9" onmousedown="handleZoom(evt,'in')"/>
                <use id="zoomminus" xlink:href="#zoomMin" x="42" y="9" onmousedown="handleZoom(evt,'out')"/>
                <use id="reset" xlink:href="#resetDef" x="30" y="36" onmousedown="handleReset()"/>
                <g id="arrowUp" xlink:href="#dirArrow" transform="translate(30 24)" onmousedown="handlePan(0,-1)">
                  <use xlink:href="#rim" fill="#404040">
                        <set attributeName="fill" to="#808080" begin="arrowUp.mouseover" end="arrowUp.mouseout"/>
                  </use>
                  <path fill="none" stroke="white" stroke-width="1.5" d="M0,-3.0v7 M-2.5,-0.5L0,-3.0L2.5,-0.5"/>
                </g>
                <g id="arrowRight" xlink:href="#dirArrow" transform="rotate(90) translate(36 -43)" onmousedown="handlePan(1,0)">
                  <use xlink:href="#rim" fill="#404040">
                        <set attributeName="fill" to="#808080" begin="arrowRight.mouseover" end="arrowRight.mouseout"/>
                  </use>
                  <path fill="none" stroke="white" stroke-width="1.5" d="M0,-3.0v7 M-2.5,-0.5L0,-3.0L2.5,-0.5"/>
                </g>
                <g id="arrowDown" xlink:href="#dirArrow" transform="rotate(180) translate(-30 -48)" onmousedown="handlePan(0,1)">
                  <use xlink:href="#rim" fill="#404040">
                        <set attributeName="fill" to="#808080" begin="arrowDown.mouseover" end="arrowDown.mouseout"/>
                  </use>
                  <path fill="none" stroke="white" stroke-width="1.5" d="M0,-3.0v7 M-2.5,-0.5L0,-3.0L2.5,-0.5"/>
                </g>
                <g id="arrowLeft" xlink:href="#dirArrow" transform="rotate(270) translate(-36 17)" onmousedown="handlePan(-1,0)">
                  <use xlink:href="#rim" fill="#404040">
                        <set attributeName="fill" to="#808080" begin="arrowLeft.mouseover" end="arrowLeft.mouseout"/>
                  </use>
                  <path fill="none" stroke="white" stroke-width="1.5" d="M0,-3.0v7 M-2.5,-0.5L0,-3.0L2.5,-0.5"/>
                </g>
        </g>
        <svg viewBox="0 0 15 15" width="100%" height="30px" preserveAspectRatio="xMaxYMin meet">
         <g id="arrow_out" transform="scale(0.3 0.3)">
          <a xlink:href="scene_8hpp__incl_org.svg" target="_base">
           <rect id="button" ry="5" rx="5" y="6" x="6" height="38" width="38"
                fill="#f2f5e9" fill-opacity="0.5" stroke="#606060" stroke-width="1.0"/>
           <path id="arrow"
             d="M 11.500037,31.436501 C 11.940474,20.09759 22.043105,11.32322 32.158766,21.979434 L 37.068811,17.246167 C 37.068811,17.246167 37.088388,32 37.088388,32 L 22.160133,31.978069 C 22.160133,31.978069 26.997745,27.140456 26.997745,27.140456 C 18.528582,18.264221 13.291696,25.230495 11.500037,31.436501 z"
             style="fill:#404040;"/>
          </a>
         </g>
        </svg>
</svg>
