<?xml version="1.0" encoding="UTF-8" standalone="no"?>
<!DOCTYPE svg PUBLIC "-//W3C//DTD SVG 1.1//EN"
 "http://www.w3.org/Graphics/SVG/1.1/DTD/svg11.dtd">
<!-- Generated by graphviz version 2.43.0 (0)
 -->
<!-- Title: /home/krzysztof/PO/zad5_2&#45;kgliwinski/include/scene.hpp Pages: 1 -->
<svg width="831pt" height="554pt"
 viewBox="0.00 0.00 830.94 554.00" xmlns="http://www.w3.org/2000/svg" xmlns:xlink="http://www.w3.org/1999/xlink">
<g id="graph0" class="graph" transform="scale(1 1) rotate(0) translate(4 550)">
<title>/home/krzysztof/PO/zad5_2&#45;kgliwinski/include/scene.hpp</title>
<!-- Node1 -->
<g id="node1" class="node">
<title>Node1</title>
<g id="a_node1"><a xlink:title="Plik zawiera definicję klasy reprezentujacej scene, obslugujacej zapis do plikow i wytswietlanie w gn...">
<polygon fill="#bfbfbf" stroke="black" points="339.94,-504.5 339.94,-545.5 485.94,-545.5 485.94,-504.5 339.94,-504.5"/>
<text text-anchor="start" x="347.94" y="-533.5" font-family="Helvetica,sans-Serif" font-size="10.00">/home/krzysztof/PO</text>
<text text-anchor="start" x="347.94" y="-522.5" font-family="Helvetica,sans-Serif" font-size="10.00">/zad5_2&#45;kgliwinski/include</text>
<text text-anchor="middle" x="412.94" y="-511.5" font-family="Helvetica,sans-Serif" font-size="10.00">/scene.hpp</text>
</a>
</g>
</g>
<!-- Node2 -->
<g id="node2" class="node">
<title>Node2</title>
<g id="a_node2"><a xlink:title=" ">
<polygon fill="none" stroke="#bfbfbf" points="68.94,-0.5 68.94,-19.5 128.94,-19.5 128.94,-0.5 68.94,-0.5"/>
<text text-anchor="middle" x="98.94" y="-7.5" font-family="Helvetica,sans-Serif" font-size="10.00">iostream</text>
</a>
</g>
</g>
<!-- Node1&#45;&gt;Node2 -->
<g id="edge1" class="edge">
<title>Node1&#45;&gt;Node2</title>
<path fill="none" stroke="midnightblue" d="M339.89,-522.8C239.64,-519.65 66.49,-508.34 19.94,-468 -2.81,-448.29 0.94,-433.1 0.94,-403 0.94,-403 0.94,-403 0.94,-121 0.94,-77.38 44.43,-43.06 73.47,-25.01"/>
<polygon fill="midnightblue" stroke="midnightblue" points="75.52,-27.86 82.31,-19.73 71.93,-21.85 75.52,-27.86"/>
</g>
<!-- Node3 -->
<g id="node3" class="node">
<title>Node3</title>
<g id="a_node3"><a xlink:title=" ">
<polygon fill="none" stroke="#bfbfbf" points="29.44,-448.5 29.44,-467.5 82.44,-467.5 82.44,-448.5 29.44,-448.5"/>
<text text-anchor="middle" x="55.94" y="-455.5" font-family="Helvetica,sans-Serif" font-size="10.00">stdlib.h</text>
</a>
</g>
</g>
<!-- Node1&#45;&gt;Node3 -->
<g id="edge2" class="edge">
<title>Node1&#45;&gt;Node3</title>
<path fill="none" stroke="midnightblue" d="M339.67,-511.88C275.52,-501.07 179.87,-484.44 96.94,-468 95.65,-467.74 94.34,-467.48 93.02,-467.21"/>
<polygon fill="midnightblue" stroke="midnightblue" points="93.32,-463.7 82.81,-465.06 91.88,-470.55 93.32,-463.7"/>
</g>
<!-- Node4 -->
<g id="node4" class="node">
<title>Node4</title>
<g id="a_node4"><a xlink:title=" ">
<polygon fill="none" stroke="#bfbfbf" points="138.44,-280.5 138.44,-299.5 193.44,-299.5 193.44,-280.5 138.44,-280.5"/>
<text text-anchor="middle" x="165.94" y="-287.5" font-family="Helvetica,sans-Serif" font-size="10.00">fstream</text>
</a>
</g>
</g>
<!-- Node1&#45;&gt;Node4 -->
<g id="edge3" class="edge">
<title>Node1&#45;&gt;Node4</title>
<path fill="none" stroke="midnightblue" d="M339.66,-519.8C264.82,-513.79 156.01,-499.73 129.94,-468 91,-420.6 132.58,-342.3 154.37,-307.99"/>
<polygon fill="midnightblue" stroke="midnightblue" points="157.35,-309.82 159.91,-299.54 151.5,-305.99 157.35,-309.82"/>
</g>
<!-- Node5 -->
<g id="node5" class="node">
<title>Node5</title>
<g id="a_node5"><a xlink:title=" ">
<polygon fill="none" stroke="#bfbfbf" points="493.94,-392.5 493.94,-411.5 549.94,-411.5 549.94,-392.5 493.94,-392.5"/>
<text text-anchor="middle" x="521.94" y="-399.5" font-family="Helvetica,sans-Serif" font-size="10.00">unistd.h</text>
</a>
</g>
</g>
<!-- Node1&#45;&gt;Node5 -->
<g id="edge4" class="edge">
<title>Node1&#45;&gt;Node5</title>
<path fill="none" stroke="midnightblue" d="M437,-504.35C448.97,-494.07 463.31,-480.96 474.94,-468 488.54,-452.84 501.94,-433.79 510.93,-420.24"/>
<polygon fill="midnightblue" stroke="midnightblue" points="513.86,-422.14 516.39,-411.85 508,-418.32 513.86,-422.14"/>
</g>
<!-- Node6 -->
<g id="node6" class="node">
<title>Node6</title>
<g id="a_node6"><a xlink:title=" ">
<polygon fill="none" stroke="#bfbfbf" points="222.94,-448.5 222.94,-467.5 280.94,-467.5 280.94,-448.5 222.94,-448.5"/>
<text text-anchor="middle" x="251.94" y="-455.5" font-family="Helvetica,sans-Serif" font-size="10.00">memory</text>
</a>
</g>
</g>
<!-- Node1&#45;&gt;Node6 -->
<g id="edge5" class="edge">
<title>Node1&#45;&gt;Node6</title>
<path fill="none" stroke="midnightblue" d="M364.63,-504.5C338.05,-493.77 305.86,-480.77 282.7,-471.42"/>
<polygon fill="midnightblue" stroke="midnightblue" points="283.95,-468.15 273.37,-467.65 281.33,-474.64 283.95,-468.15"/>
</g>
<!-- Node7 -->
<g id="node7" class="node">
<title>Node7</title>
<g id="a_node7"><a xlink:href="plane_8hpp.html" target="_top" xlink:title="Plik zawiera definicję klasy reprezentujacej plaska powierzchnie, obslugujacej zapis do plikow.">
<polygon fill="none" stroke="black" points="410.44,-392.5 410.44,-411.5 475.44,-411.5 475.44,-392.5 410.44,-392.5"/>
<text text-anchor="middle" x="442.94" y="-399.5" font-family="Helvetica,sans-Serif" font-size="10.00">plane.hpp</text>
</a>
</g>
</g>
<!-- Node1&#45;&gt;Node7 -->
<g id="edge6" class="edge">
<title>Node1&#45;&gt;Node7</title>
<path fill="none" stroke="midnightblue" d="M435.21,-504.49C444.78,-494.63 454.9,-481.84 459.94,-468 465.66,-452.28 459.63,-433.77 453.23,-420.53"/>
<polygon fill="midnightblue" stroke="midnightblue" points="456.24,-418.74 448.44,-411.57 450.06,-422.04 456.24,-418.74"/>
</g>
<!-- Node23 -->
<g id="node23" class="node">
<title>Node23</title>
<g id="a_node23"><a xlink:href="pyramid_8hpp.html" target="_top" xlink:title="Plik zawiera definicję klasy reprezentujacej ostroslup o prostokatnej podstawie w przestrzeni trojwym...">
<polygon fill="none" stroke="black" points="730.94,-448.5 730.94,-467.5 808.94,-467.5 808.94,-448.5 730.94,-448.5"/>
<text text-anchor="middle" x="769.94" y="-455.5" font-family="Helvetica,sans-Serif" font-size="10.00">pyramid.hpp</text>
</a>
</g>
</g>
<!-- Node1&#45;&gt;Node23 -->
<g id="edge34" class="edge">
<title>Node1&#45;&gt;Node23</title>
<path fill="none" stroke="midnightblue" d="M486.01,-510.89C546.31,-500.03 634.41,-484.11 720.92,-468.18"/>
<polygon fill="midnightblue" stroke="midnightblue" points="721.71,-471.59 730.91,-466.34 720.44,-464.71 721.71,-471.59"/>
</g>
<!-- Node25 -->
<g id="node25" class="node">
<title>Node25</title>
<g id="a_node25"><a xlink:href="triangular_8hpp.html" target="_top" xlink:title=" ">
<polygon fill="none" stroke="black" points="628.94,-448.5 628.94,-467.5 712.94,-467.5 712.94,-448.5 628.94,-448.5"/>
<text text-anchor="middle" x="670.94" y="-455.5" font-family="Helvetica,sans-Serif" font-size="10.00">triangular.hpp</text>
</a>
</g>
</g>
<!-- Node1&#45;&gt;Node25 -->
<g id="edge37" class="edge">
<title>Node1&#45;&gt;Node25</title>
<path fill="none" stroke="midnightblue" d="M486.18,-505.55C531.72,-494.07 588.74,-479.71 627.3,-469.99"/>
<polygon fill="midnightblue" stroke="midnightblue" points="628.33,-473.34 637.17,-467.51 626.62,-466.56 628.33,-473.34"/>
</g>
<!-- Node26 -->
<g id="node26" class="node">
<title>Node26</title>
<g id="a_node26"><a xlink:href="circus_8hpp.html" target="_top" xlink:title="Plik zawiera definicję klasy reprezentujacej Prism z podwyzszonym centrum, na ksztalt przypomina cyrk...">
<polygon fill="none" stroke="black" points="138.94,-448.5 138.94,-467.5 204.94,-467.5 204.94,-448.5 138.94,-448.5"/>
<text text-anchor="middle" x="171.94" y="-455.5" font-family="Helvetica,sans-Serif" font-size="10.00">circus.hpp</text>
</a>
</g>
</g>
<!-- Node1&#45;&gt;Node26 -->
<g id="edge39" class="edge">
<title>Node1&#45;&gt;Node26</title>
<path fill="none" stroke="midnightblue" d="M340.63,-504.5C299.11,-493.3 248.46,-479.64 213.55,-470.22"/>
<polygon fill="midnightblue" stroke="midnightblue" points="214.27,-466.79 203.7,-467.57 212.44,-473.55 214.27,-466.79"/>
</g>
<!-- Node28 -->
<g id="node28" class="node">
<title>Node28</title>
<g id="a_node28"><a xlink:href="tent_8hpp.html" target="_top" xlink:title="Plik zawiera definicję klasy reprezentujacej Prism bez gornej podstawy, =Ksztaltem przypomina namiot.">
<polygon fill="none" stroke="black" points="299.44,-448.5 299.44,-467.5 356.44,-467.5 356.44,-448.5 299.44,-448.5"/>
<text text-anchor="middle" x="327.94" y="-455.5" font-family="Helvetica,sans-Serif" font-size="10.00">tent.hpp</text>
</a>
</g>
</g>
<!-- Node1&#45;&gt;Node28 -->
<g id="edge42" class="edge">
<title>Node1&#45;&gt;Node28</title>
<path fill="none" stroke="midnightblue" d="M387.43,-504.5C374.53,-494.63 359.12,-482.84 347.21,-473.74"/>
<polygon fill="midnightblue" stroke="midnightblue" points="349.32,-470.95 339.25,-467.65 345.07,-476.51 349.32,-470.95"/>
</g>
<!-- Node29 -->
<g id="node29" class="node">
<title>Node29</title>
<g id="a_node29"><a xlink:href="volcano_8hpp.html" target="_top" xlink:title="Plik zawiera definicję klasy reprezentujacej wulkan, jest deformacja obiektu Prism.">
<polygon fill="none" stroke="black" points="374.94,-448.5 374.94,-467.5 450.94,-467.5 450.94,-448.5 374.94,-448.5"/>
<text text-anchor="middle" x="412.94" y="-455.5" font-family="Helvetica,sans-Serif" font-size="10.00">volcano.hpp</text>
</a>
</g>
</g>
<!-- Node1&#45;&gt;Node29 -->
<g id="edge44" class="edge">
<title>Node1&#45;&gt;Node29</title>
<path fill="none" stroke="midnightblue" d="M412.94,-504.5C412.94,-496.07 412.94,-486.24 412.94,-477.87"/>
<polygon fill="midnightblue" stroke="midnightblue" points="416.44,-477.65 412.94,-467.65 409.44,-477.65 416.44,-477.65"/>
</g>
<!-- Node30 -->
<g id="node30" class="node">
<title>Node30</title>
<g id="a_node30"><a xlink:href="drone_8hpp.html" target="_top" xlink:title="Plik zawiera definicję klasy reprezentujacej drona, budowanie i przemieszczanie go.">
<polygon fill="none" stroke="black" points="545.44,-448.5 545.44,-467.5 610.44,-467.5 610.44,-448.5 545.44,-448.5"/>
<text text-anchor="middle" x="577.94" y="-455.5" font-family="Helvetica,sans-Serif" font-size="10.00">drone.hpp</text>
</a>
</g>
</g>
<!-- Node1&#45;&gt;Node30 -->
<g id="edge46" class="edge">
<title>Node1&#45;&gt;Node30</title>
<path fill="none" stroke="midnightblue" d="M462.44,-504.5C489.69,-493.77 522.68,-480.77 546.41,-471.42"/>
<polygon fill="midnightblue" stroke="midnightblue" points="547.95,-474.57 555.97,-467.65 545.39,-468.06 547.95,-474.57"/>
</g>
<!-- Node31 -->
<g id="node31" class="node">
<title>Node31</title>
<g id="a_node31"><a xlink:href="lacze__do__gnuplota_8hpp.html" target="_top" xlink:title=" ">
<polygon fill="none" stroke="black" points="693.94,-392.5 693.94,-411.5 821.94,-411.5 821.94,-392.5 693.94,-392.5"/>
<text text-anchor="middle" x="757.94" y="-399.5" font-family="Helvetica,sans-Serif" font-size="10.00">lacze_do_gnuplota.hpp</text>
</a>
</g>
</g>
<!-- Node1&#45;&gt;Node31 -->
<g id="edge55" class="edge">
<title>Node1&#45;&gt;Node31</title>
<path fill="none" stroke="midnightblue" d="M485.99,-524.87C590.75,-524.37 775.74,-516.43 817.94,-468 833.72,-449.88 807.8,-429.64 785.26,-416.63"/>
<polygon fill="midnightblue" stroke="midnightblue" points="786.7,-413.43 776.25,-411.69 783.34,-419.56 786.7,-413.43"/>
</g>
<!-- Node8 -->
<g id="node8" class="node">
<title>Node8</title>
<g id="a_node8"><a xlink:href="block_8hpp.html" target="_top" xlink:title="Plik zawiera definicję klasy reprezentujacej bryle w przestrzeni trojwymiarowej.">
<polygon fill="none" stroke="black" points="394.94,-336.5 394.94,-355.5 458.94,-355.5 458.94,-336.5 394.94,-336.5"/>
<text text-anchor="middle" x="426.94" y="-343.5" font-family="Helvetica,sans-Serif" font-size="10.00">block.hpp</text>
</a>
</g>
</g>
<!-- Node7&#45;&gt;Node8 -->
<g id="edge7" class="edge">
<title>Node7&#45;&gt;Node8</title>
<path fill="none" stroke="midnightblue" d="M440.29,-392.08C438.15,-384.85 435.06,-374.41 432.39,-365.4"/>
<polygon fill="midnightblue" stroke="midnightblue" points="435.73,-364.34 429.53,-355.75 429.01,-366.33 435.73,-364.34"/>
</g>
<!-- Node8&#45;&gt;Node4 -->
<g id="edge9" class="edge">
<title>Node8&#45;&gt;Node4</title>
<path fill="none" stroke="midnightblue" d="M394.93,-338.38C346.67,-328.39 255.43,-309.52 203.88,-298.85"/>
<polygon fill="midnightblue" stroke="midnightblue" points="204.32,-295.37 193.82,-296.77 202.91,-302.22 204.32,-295.37"/>
</g>
<!-- Node9 -->
<g id="node9" class="node">
<title>Node9</title>
<g id="a_node9"><a xlink:title=" ">
<polygon fill="none" stroke="#bfbfbf" points="623.94,-280.5 623.94,-299.5 667.94,-299.5 667.94,-280.5 623.94,-280.5"/>
<text text-anchor="middle" x="645.94" y="-287.5" font-family="Helvetica,sans-Serif" font-size="10.00">string</text>
</a>
</g>
</g>
<!-- Node8&#45;&gt;Node9 -->
<g id="edge8" class="edge">
<title>Node8&#45;&gt;Node9</title>
<path fill="none" stroke="midnightblue" d="M459.25,-337.03C500.82,-326.78 572.59,-309.09 613.99,-298.88"/>
<polygon fill="midnightblue" stroke="midnightblue" points="614.95,-302.25 623.82,-296.45 613.27,-295.45 614.95,-302.25"/>
</g>
<!-- Node10 -->
<g id="node10" class="node">
<title>Node10</title>
<g id="a_node10"><a xlink:href="vector3_d_8hpp.html" target="_top" xlink:title="Zawiera deklaracje klasy Vector3D.">
<polygon fill="none" stroke="black" points="400.94,-168.5 400.94,-187.5 482.94,-187.5 482.94,-168.5 400.94,-168.5"/>
<text text-anchor="middle" x="441.94" y="-175.5" font-family="Helvetica,sans-Serif" font-size="10.00">vector3D.hpp</text>
</a>
</g>
</g>
<!-- Node8&#45;&gt;Node10 -->
<g id="edge10" class="edge">
<title>Node8&#45;&gt;Node10</title>
<path fill="none" stroke="midnightblue" d="M434.92,-336.43C449.52,-320.04 479.86,-282.45 488.94,-244 490.98,-235.35 492.43,-232.17 488.94,-224 483.79,-211.95 473.66,-201.58 464.11,-193.84"/>
<polygon fill="midnightblue" stroke="midnightblue" points="466.11,-190.96 456.02,-187.74 461.9,-196.55 466.11,-190.96"/>
</g>
<!-- Node11 -->
<g id="node11" class="node">
<title>Node11</title>
<g id="a_node11"><a xlink:href="vector_8hpp.html" target="_top" xlink:title=" ">
<polygon fill="none" stroke="black" points="273.94,-112.5 273.94,-131.5 341.94,-131.5 341.94,-112.5 273.94,-112.5"/>
<text text-anchor="middle" x="307.94" y="-119.5" font-family="Helvetica,sans-Serif" font-size="10.00">vector.hpp</text>
</a>
</g>
</g>
<!-- Node8&#45;&gt;Node11 -->
<g id="edge22" class="edge">
<title>Node8&#45;&gt;Node11</title>
<path fill="none" stroke="midnightblue" d="M407.16,-336.35C392.12,-328.82 372.03,-316.5 359.94,-300 323.7,-250.57 312.58,-176.13 309.28,-141.7"/>
<polygon fill="midnightblue" stroke="midnightblue" points="312.76,-141.32 308.43,-131.65 305.78,-141.91 312.76,-141.32"/>
</g>
<!-- Node14 -->
<g id="node14" class="node">
<title>Node14</title>
<g id="a_node14"><a xlink:href="count_8hpp.html" target="_top" xlink:title="Plik zawiera definicję klasy reprezentujacej counter, pozwalajacy na liczenie instancji stworzonych k...">
<polygon fill="none" stroke="black" points="400.44,-56.5 400.44,-75.5 465.44,-75.5 465.44,-56.5 400.44,-56.5"/>
<text text-anchor="middle" x="432.94" y="-63.5" font-family="Helvetica,sans-Serif" font-size="10.00">count.hpp</text>
</a>
</g>
</g>
<!-- Node8&#45;&gt;Node14 -->
<g id="edge21" class="edge">
<title>Node8&#45;&gt;Node14</title>
<path fill="none" stroke="midnightblue" d="M457.4,-336.4C499.12,-322.53 568.94,-290.98 568.94,-235 568.94,-235 568.94,-235 568.94,-177 568.94,-126.08 510.59,-94.67 470.33,-79.06"/>
<polygon fill="midnightblue" stroke="midnightblue" points="471.38,-75.72 460.79,-75.52 468.94,-82.28 471.38,-75.72"/>
</g>
<!-- Node18 -->
<g id="node18" class="node">
<title>Node18</title>
<g id="a_node18"><a xlink:href="matrix3_d_8hpp.html" target="_top" xlink:title="Zawiera deklaracje klasy Matrix3D.">
<polygon fill="none" stroke="black" points="368.44,-280.5 368.44,-299.5 451.44,-299.5 451.44,-280.5 368.44,-280.5"/>
<text text-anchor="middle" x="409.94" y="-287.5" font-family="Helvetica,sans-Serif" font-size="10.00">matrix3D.hpp</text>
</a>
</g>
</g>
<!-- Node8&#45;&gt;Node18 -->
<g id="edge23" class="edge">
<title>Node8&#45;&gt;Node18</title>
<path fill="none" stroke="midnightblue" d="M424.13,-336.08C421.85,-328.85 418.57,-318.41 415.73,-309.4"/>
<polygon fill="midnightblue" stroke="midnightblue" points="419.03,-308.24 412.69,-299.75 412.36,-310.34 419.03,-308.24"/>
</g>
<!-- Node19 -->
<g id="node19" class="node">
<title>Node19</title>
<g id="a_node19"><a xlink:href="matrix_8hpp.html" target="_top" xlink:title=" ">
<polygon fill="none" stroke="black" points="228.94,-224.5 228.94,-243.5 298.94,-243.5 298.94,-224.5 228.94,-224.5"/>
<text text-anchor="middle" x="263.94" y="-231.5" font-family="Helvetica,sans-Serif" font-size="10.00">matrix.hpp</text>
</a>
</g>
</g>
<!-- Node8&#45;&gt;Node19 -->
<g id="edge33" class="edge">
<title>Node8&#45;&gt;Node19</title>
<path fill="none" stroke="midnightblue" d="M394.82,-337.42C370.57,-330.55 337.41,-318.62 312.94,-300 296.12,-287.21 282.24,-267.19 273.59,-252.75"/>
<polygon fill="midnightblue" stroke="midnightblue" points="276.48,-250.74 268.47,-243.8 270.4,-254.21 276.48,-250.74"/>
</g>
<!-- Node10&#45;&gt;Node11 -->
<g id="edge11" class="edge">
<title>Node10&#45;&gt;Node11</title>
<path fill="none" stroke="midnightblue" d="M420.7,-168.44C398.55,-159.52 363.62,-145.44 338.5,-135.32"/>
<polygon fill="midnightblue" stroke="midnightblue" points="339.65,-132.01 329.07,-131.52 337.04,-138.5 339.65,-132.01"/>
</g>
<!-- Node17 -->
<g id="node17" class="node">
<title>Node17</title>
<g id="a_node17"><a xlink:href="vector3_d_8cpp.html" target="_top" xlink:title=" ">
<polygon fill="none" stroke="black" points="388.44,-112.5 388.44,-131.5 495.44,-131.5 495.44,-112.5 388.44,-112.5"/>
<text text-anchor="middle" x="441.94" y="-119.5" font-family="Helvetica,sans-Serif" font-size="10.00">../src/vector3D.cpp</text>
</a>
</g>
</g>
<!-- Node10&#45;&gt;Node17 -->
<g id="edge19" class="edge">
<title>Node10&#45;&gt;Node17</title>
<path fill="none" stroke="midnightblue" d="M436.77,-168.08C435.26,-160.93 434.83,-150.64 435.48,-141.69"/>
<polygon fill="midnightblue" stroke="midnightblue" points="438.95,-142.13 436.81,-131.75 432.01,-141.2 438.95,-142.13"/>
</g>
<!-- Node11&#45;&gt;Node2 -->
<g id="edge12" class="edge">
<title>Node11&#45;&gt;Node2</title>
<path fill="none" stroke="midnightblue" d="M273.82,-118.95C237.72,-115.26 180.6,-104.93 140.94,-76 124.69,-64.15 113.08,-43.94 106.25,-29.19"/>
<polygon fill="midnightblue" stroke="midnightblue" points="109.29,-27.41 102.11,-19.62 102.86,-30.19 109.29,-27.41"/>
</g>
<!-- Node12 -->
<g id="node12" class="node">
<title>Node12</title>
<g id="a_node12"><a xlink:title=" ">
<polygon fill="none" stroke="#bfbfbf" points="260.44,-56.5 260.44,-75.5 307.44,-75.5 307.44,-56.5 260.44,-56.5"/>
<text text-anchor="middle" x="283.94" y="-63.5" font-family="Helvetica,sans-Serif" font-size="10.00">cmath</text>
</a>
</g>
</g>
<!-- Node11&#45;&gt;Node12 -->
<g id="edge13" class="edge">
<title>Node11&#45;&gt;Node12</title>
<path fill="none" stroke="midnightblue" d="M303.97,-112.08C300.72,-104.77 296.02,-94.18 291.98,-85.1"/>
<polygon fill="midnightblue" stroke="midnightblue" points="295.09,-83.47 287.83,-75.75 288.69,-86.31 295.09,-83.47"/>
</g>
<!-- Node13 -->
<g id="node13" class="node">
<title>Node13</title>
<g id="a_node13"><a xlink:title=" ">
<polygon fill="none" stroke="#bfbfbf" points="325.94,-56.5 325.94,-75.5 381.94,-75.5 381.94,-56.5 325.94,-56.5"/>
<text text-anchor="middle" x="353.94" y="-63.5" font-family="Helvetica,sans-Serif" font-size="10.00">iomanip</text>
</a>
</g>
</g>
<!-- Node11&#45;&gt;Node13 -->
<g id="edge14" class="edge">
<title>Node11&#45;&gt;Node13</title>
<path fill="none" stroke="midnightblue" d="M315.53,-112.08C322.16,-104.3 331.96,-92.8 339.99,-83.37"/>
<polygon fill="midnightblue" stroke="midnightblue" points="342.66,-85.63 346.48,-75.75 337.33,-81.09 342.66,-85.63"/>
</g>
<!-- Node11&#45;&gt;Node14 -->
<g id="edge15" class="edge">
<title>Node11&#45;&gt;Node14</title>
<path fill="none" stroke="midnightblue" d="M327.74,-112.44C348.22,-103.6 380.42,-89.69 403.8,-79.59"/>
<polygon fill="midnightblue" stroke="midnightblue" points="405.43,-82.7 413.22,-75.52 402.65,-76.27 405.43,-82.7"/>
</g>
<!-- Node16 -->
<g id="node16" class="node">
<title>Node16</title>
<g id="a_node16"><a xlink:title=" ">
<polygon fill="none" stroke="#bfbfbf" points="149.94,-56.5 149.94,-75.5 241.94,-75.5 241.94,-56.5 149.94,-56.5"/>
<text text-anchor="middle" x="195.94" y="-63.5" font-family="Helvetica,sans-Serif" font-size="10.00">../src/vector.tpp</text>
</a>
</g>
</g>
<!-- Node11&#45;&gt;Node16 -->
<g id="edge18" class="edge">
<title>Node11&#45;&gt;Node16</title>
<path fill="none" stroke="midnightblue" d="M289.94,-112.32C271.9,-103.62 243.89,-90.12 223.13,-80.11"/>
<polygon fill="midnightblue" stroke="midnightblue" points="224.41,-76.84 213.89,-75.65 221.37,-83.15 224.41,-76.84"/>
</g>
<!-- Node14&#45;&gt;Node2 -->
<g id="edge16" class="edge">
<title>Node14&#45;&gt;Node2</title>
<path fill="none" stroke="midnightblue" d="M400.41,-57.84C397.22,-57.19 394.02,-56.57 390.94,-56 301.42,-39.53 195.7,-24.27 139.25,-16.46"/>
<polygon fill="midnightblue" stroke="midnightblue" points="139.68,-12.98 129.3,-15.09 138.73,-19.92 139.68,-12.98"/>
</g>
<!-- Node15 -->
<g id="node15" class="node">
<title>Node15</title>
<g id="a_node15"><a xlink:title=" ">
<polygon fill="none" stroke="#bfbfbf" points="388.44,-0.5 388.44,-19.5 477.44,-19.5 477.44,-0.5 388.44,-0.5"/>
<text text-anchor="middle" x="432.94" y="-7.5" font-family="Helvetica,sans-Serif" font-size="10.00">../src/count.tpp</text>
</a>
</g>
</g>
<!-- Node14&#45;&gt;Node15 -->
<g id="edge17" class="edge">
<title>Node14&#45;&gt;Node15</title>
<path fill="none" stroke="midnightblue" d="M432.94,-56.08C432.94,-49.01 432.94,-38.86 432.94,-29.99"/>
<polygon fill="midnightblue" stroke="midnightblue" points="436.44,-29.75 432.94,-19.75 429.44,-29.75 436.44,-29.75"/>
</g>
<!-- Node17&#45;&gt;Node10 -->
<g id="edge20" class="edge">
<title>Node17&#45;&gt;Node10</title>
<path fill="none" stroke="midnightblue" d="M447.07,-131.75C448.59,-138.86 449.04,-149.14 448.41,-158.1"/>
<polygon fill="midnightblue" stroke="midnightblue" points="444.93,-157.71 447.1,-168.08 451.87,-158.62 444.93,-157.71"/>
</g>
<!-- Node18&#45;&gt;Node10 -->
<g id="edge30" class="edge">
<title>Node18&#45;&gt;Node10</title>
<path fill="none" stroke="midnightblue" d="M431.42,-280.36C446.33,-273.09 465.05,-261.12 473.94,-244 482.48,-227.55 470.58,-208.49 458.94,-195.28"/>
<polygon fill="midnightblue" stroke="midnightblue" points="461.34,-192.73 451.91,-187.89 456.27,-197.55 461.34,-192.73"/>
</g>
<!-- Node18&#45;&gt;Node19 -->
<g id="edge24" class="edge">
<title>Node18&#45;&gt;Node19</title>
<path fill="none" stroke="midnightblue" d="M386.8,-280.44C362.45,-271.44 323.93,-257.19 296.51,-247.05"/>
<polygon fill="midnightblue" stroke="midnightblue" points="297.56,-243.7 286.96,-243.52 295.13,-250.27 297.56,-243.7"/>
</g>
<!-- Node22 -->
<g id="node22" class="node">
<title>Node22</title>
<g id="a_node22"><a xlink:href="matrix3_d_8cpp.html" target="_top" xlink:title=" ">
<polygon fill="none" stroke="black" points="355.44,-224.5 355.44,-243.5 464.44,-243.5 464.44,-224.5 355.44,-224.5"/>
<text text-anchor="middle" x="409.94" y="-231.5" font-family="Helvetica,sans-Serif" font-size="10.00">../src/matrix3D.cpp</text>
</a>
</g>
</g>
<!-- Node18&#45;&gt;Node22 -->
<g id="edge31" class="edge">
<title>Node18&#45;&gt;Node22</title>
<path fill="none" stroke="midnightblue" d="M404.77,-280.08C403.26,-272.93 402.83,-262.64 403.48,-253.69"/>
<polygon fill="midnightblue" stroke="midnightblue" points="406.95,-254.13 404.81,-243.75 400.01,-253.2 406.95,-254.13"/>
</g>
<!-- Node19&#45;&gt;Node2 -->
<g id="edge27" class="edge">
<title>Node19&#45;&gt;Node2</title>
<path fill="none" stroke="midnightblue" d="M228.89,-228.98C183.12,-222.91 106.79,-209.77 89.94,-188 53.4,-140.82 77.39,-63.54 91.16,-28.85"/>
<polygon fill="midnightblue" stroke="midnightblue" points="94.43,-30.1 95.03,-19.53 87.97,-27.42 94.43,-30.1"/>
</g>
<!-- Node19&#45;&gt;Node10 -->
<g id="edge26" class="edge">
<title>Node19&#45;&gt;Node10</title>
<path fill="none" stroke="midnightblue" d="M292.14,-224.44C322.35,-215.28 370.45,-200.69 403.97,-190.52"/>
<polygon fill="midnightblue" stroke="midnightblue" points="405.31,-193.77 413.86,-187.52 403.28,-187.07 405.31,-193.77"/>
</g>
<!-- Node19&#45;&gt;Node11 -->
<g id="edge25" class="edge">
<title>Node19&#45;&gt;Node11</title>
<path fill="none" stroke="midnightblue" d="M267.39,-224.37C274.55,-206.46 291.17,-164.92 300.76,-140.95"/>
<polygon fill="midnightblue" stroke="midnightblue" points="304.04,-142.18 304.5,-131.59 297.54,-139.58 304.04,-142.18"/>
</g>
<!-- Node20 -->
<g id="node20" class="node">
<title>Node20</title>
<g id="a_node20"><a xlink:title=" ">
<polygon fill="none" stroke="#bfbfbf" points="99.44,-168.5 99.44,-187.5 148.44,-187.5 148.44,-168.5 99.44,-168.5"/>
<text text-anchor="middle" x="123.94" y="-175.5" font-family="Helvetica,sans-Serif" font-size="10.00">cstdlib</text>
</a>
</g>
</g>
<!-- Node19&#45;&gt;Node20 -->
<g id="edge28" class="edge">
<title>Node19&#45;&gt;Node20</title>
<path fill="none" stroke="midnightblue" d="M241.75,-224.44C218.51,-215.48 181.79,-201.31 155.52,-191.18"/>
<polygon fill="midnightblue" stroke="midnightblue" points="156.61,-187.85 146.02,-187.52 154.09,-194.38 156.61,-187.85"/>
</g>
<!-- Node21 -->
<g id="node21" class="node">
<title>Node21</title>
<g id="a_node21"><a xlink:title=" ">
<polygon fill="none" stroke="#bfbfbf" points="166.94,-168.5 166.94,-187.5 260.94,-187.5 260.94,-168.5 166.94,-168.5"/>
<text text-anchor="middle" x="213.94" y="-175.5" font-family="Helvetica,sans-Serif" font-size="10.00">../src/matrix.tpp</text>
</a>
</g>
</g>
<!-- Node19&#45;&gt;Node21 -->
<g id="edge29" class="edge">
<title>Node19&#45;&gt;Node21</title>
<path fill="none" stroke="midnightblue" d="M255.68,-224.08C248.47,-216.3 237.83,-204.8 229.09,-195.37"/>
<polygon fill="midnightblue" stroke="midnightblue" points="231.4,-192.71 222.04,-187.75 226.27,-197.47 231.4,-192.71"/>
</g>
<!-- Node22&#45;&gt;Node18 -->
<g id="edge32" class="edge">
<title>Node22&#45;&gt;Node18</title>
<path fill="none" stroke="midnightblue" d="M415.07,-243.75C416.59,-250.86 417.04,-261.14 416.41,-270.1"/>
<polygon fill="midnightblue" stroke="midnightblue" points="412.93,-269.71 415.1,-280.08 419.87,-270.62 412.93,-269.71"/>
</g>
<!-- Node24 -->
<g id="node24" class="node">
<title>Node24</title>
<g id="a_node24"><a xlink:href="cuboid_8hpp.html" target="_top" xlink:title="Plik zawiera definicję klasy reprezentujacej prostopadloscian w przestrzeni trojwymiarowej.">
<polygon fill="none" stroke="black" points="605.94,-392.5 605.94,-411.5 675.94,-411.5 675.94,-392.5 605.94,-392.5"/>
<text text-anchor="middle" x="640.94" y="-399.5" font-family="Helvetica,sans-Serif" font-size="10.00">cuboid.hpp</text>
</a>
</g>
</g>
<!-- Node23&#45;&gt;Node24 -->
<g id="edge35" class="edge">
<title>Node23&#45;&gt;Node24</title>
<path fill="none" stroke="midnightblue" d="M749.5,-448.44C728.27,-439.56 694.84,-425.56 670.68,-415.45"/>
<polygon fill="midnightblue" stroke="midnightblue" points="671.86,-412.15 661.28,-411.52 669.15,-418.61 671.86,-412.15"/>
</g>
<!-- Node24&#45;&gt;Node8 -->
<g id="edge36" class="edge">
<title>Node24&#45;&gt;Node8</title>
<path fill="none" stroke="midnightblue" d="M607.03,-392.44C569.54,-382.99 509.14,-367.74 468.75,-357.55"/>
<polygon fill="midnightblue" stroke="midnightblue" points="469.49,-354.13 458.94,-355.08 467.78,-360.92 469.49,-354.13"/>
</g>
<!-- Node25&#45;&gt;Node24 -->
<g id="edge38" class="edge">
<title>Node25&#45;&gt;Node24</title>
<path fill="none" stroke="midnightblue" d="M665.98,-448.08C661.83,-440.61 655.78,-429.72 650.67,-420.52"/>
<polygon fill="midnightblue" stroke="midnightblue" points="653.71,-418.79 645.8,-411.75 647.6,-422.19 653.71,-418.79"/>
</g>
<!-- Node27 -->
<g id="node27" class="node">
<title>Node27</title>
<g id="a_node27"><a xlink:href="prism_8hpp.html" target="_top" xlink:title="Plik zawiera definicję klasy reprezentujacej graniastoslup o podstawie o 6 wierzcholkach w przestrzen...">
<polygon fill="none" stroke="black" points="327.44,-392.5 327.44,-411.5 392.44,-411.5 392.44,-392.5 327.44,-392.5"/>
<text text-anchor="middle" x="359.94" y="-399.5" font-family="Helvetica,sans-Serif" font-size="10.00">prism.hpp</text>
</a>
</g>
</g>
<!-- Node26&#45;&gt;Node27 -->
<g id="edge40" class="edge">
<title>Node26&#45;&gt;Node27</title>
<path fill="none" stroke="midnightblue" d="M201.73,-448.44C233.77,-439.24 284.87,-424.56 320.29,-414.39"/>
<polygon fill="midnightblue" stroke="midnightblue" points="321.64,-417.64 330.29,-411.52 319.71,-410.91 321.64,-417.64"/>
</g>
<!-- Node27&#45;&gt;Node8 -->
<g id="edge41" class="edge">
<title>Node27&#45;&gt;Node8</title>
<path fill="none" stroke="midnightblue" d="M370.7,-392.32C380.7,-384.26 395.82,-372.08 407.87,-362.37"/>
<polygon fill="midnightblue" stroke="midnightblue" points="410.39,-364.83 415.98,-355.83 405.99,-359.38 410.39,-364.83"/>
</g>
<!-- Node28&#45;&gt;Node27 -->
<g id="edge43" class="edge">
<title>Node28&#45;&gt;Node27</title>
<path fill="none" stroke="midnightblue" d="M333.22,-448.08C337.65,-440.61 344.1,-429.72 349.55,-420.52"/>
<polygon fill="midnightblue" stroke="midnightblue" points="352.66,-422.14 354.75,-411.75 346.64,-418.57 352.66,-422.14"/>
</g>
<!-- Node29&#45;&gt;Node27 -->
<g id="edge45" class="edge">
<title>Node29&#45;&gt;Node27</title>
<path fill="none" stroke="midnightblue" d="M404.18,-448.08C396.47,-440.22 385.03,-428.57 375.72,-419.08"/>
<polygon fill="midnightblue" stroke="midnightblue" points="378.03,-416.44 368.53,-411.75 373.03,-421.34 378.03,-416.44"/>
</g>
<!-- Node30&#45;&gt;Node5 -->
<g id="edge53" class="edge">
<title>Node30&#45;&gt;Node5</title>
<path fill="none" stroke="midnightblue" d="M568.94,-448.32C560.74,-440.42 548.43,-428.55 538.46,-418.94"/>
<polygon fill="midnightblue" stroke="midnightblue" points="540.73,-416.26 531.1,-411.83 535.87,-421.29 540.73,-416.26"/>
</g>
<!-- Node30&#45;&gt;Node24 -->
<g id="edge48" class="edge">
<title>Node30&#45;&gt;Node24</title>
<path fill="none" stroke="midnightblue" d="M588.06,-448.32C597.46,-440.26 611.68,-428.08 623.01,-418.37"/>
<polygon fill="midnightblue" stroke="midnightblue" points="625.32,-421 630.63,-411.83 620.76,-415.68 625.32,-421"/>
</g>
<!-- Node30&#45;&gt;Node27 -->
<g id="edge47" class="edge">
<title>Node30&#45;&gt;Node27</title>
<path fill="none" stroke="midnightblue" d="M545.3,-448.92C507.22,-439.48 444.16,-423.86 402.33,-413.5"/>
<polygon fill="midnightblue" stroke="midnightblue" points="402.99,-410.06 392.44,-411.05 401.31,-416.85 402.99,-410.06"/>
</g>
<!-- Node30&#45;&gt;Node31 -->
<g id="edge49" class="edge">
<title>Node30&#45;&gt;Node31</title>
<path fill="none" stroke="midnightblue" d="M606.46,-448.44C637,-439.28 685.64,-424.69 719.54,-414.52"/>
<polygon fill="midnightblue" stroke="midnightblue" points="720.98,-417.74 729.55,-411.52 718.96,-411.04 720.98,-417.74"/>
</g>
<!-- Node33 -->
<g id="node33" class="node">
<title>Node33</title>
<g id="a_node33"><a xlink:title=" ">
<polygon fill="none" stroke="#bfbfbf" points="575.44,-336.5 575.44,-355.5 622.44,-355.5 622.44,-336.5 575.44,-336.5"/>
<text text-anchor="middle" x="598.94" y="-343.5" font-family="Helvetica,sans-Serif" font-size="10.00">vector</text>
</a>
</g>
</g>
<!-- Node30&#45;&gt;Node33 -->
<g id="edge54" class="edge">
<title>Node30&#45;&gt;Node33</title>
<path fill="none" stroke="midnightblue" d="M579.58,-448.37C582.97,-430.62 590.79,-389.67 595.39,-365.6"/>
<polygon fill="midnightblue" stroke="midnightblue" points="598.86,-366.07 597.3,-355.59 591.98,-364.76 598.86,-366.07"/>
</g>
<!-- Node31&#45;&gt;Node9 -->
<g id="edge50" class="edge">
<title>Node31&#45;&gt;Node9</title>
<path fill="none" stroke="midnightblue" d="M749.15,-392.37C730.34,-373.89 685.94,-330.29 661.97,-306.74"/>
<polygon fill="midnightblue" stroke="midnightblue" points="664.27,-304.1 654.68,-299.59 659.37,-309.1 664.27,-304.1"/>
</g>
<!-- Node32 -->
<g id="node32" class="node">
<title>Node32</title>
<g id="a_node32"><a xlink:title=" ">
<polygon fill="none" stroke="#bfbfbf" points="741.94,-336.5 741.94,-355.5 773.94,-355.5 773.94,-336.5 741.94,-336.5"/>
<text text-anchor="middle" x="757.94" y="-343.5" font-family="Helvetica,sans-Serif" font-size="10.00">list</text>
</a>
</g>
</g>
<!-- Node31&#45;&gt;Node32 -->
<g id="edge51" class="edge">
<title>Node31&#45;&gt;Node32</title>
<path fill="none" stroke="midnightblue" d="M757.94,-392.08C757.94,-385.01 757.94,-374.86 757.94,-365.99"/>
<polygon fill="midnightblue" stroke="midnightblue" points="761.44,-365.75 757.94,-355.75 754.44,-365.75 761.44,-365.75"/>
</g>
<!-- Node31&#45;&gt;Node33 -->
<g id="edge52" class="edge">
<title>Node31&#45;&gt;Node33</title>
<path fill="none" stroke="midnightblue" d="M732.74,-392.44C705.52,-383.2 662.03,-368.43 632.06,-358.25"/>
<polygon fill="midnightblue" stroke="midnightblue" points="633.05,-354.89 622.46,-354.99 630.8,-361.52 633.05,-354.89"/>
</g>
</g>
</svg>
