<?xml version="1.0" encoding="UTF-8" standalone="no"?>
<!DOCTYPE svg PUBLIC "-//W3C//DTD SVG 1.1//EN"
 "http://www.w3.org/Graphics/SVG/1.1/DTD/svg11.dtd">
<!-- Generated by graphviz version 2.43.0 (0)
 -->
<!-- Title: /home/krzysztof/PO/zad5_2&#45;kgliwinski/include/vector.hpp Pages: 1 -->
<svg width="336pt" height="162pt"
 viewBox="0.00 0.00 336.45 162.00" xmlns="http://www.w3.org/2000/svg" xmlns:xlink="http://www.w3.org/1999/xlink">
<g id="graph0" class="graph" transform="scale(1 1) rotate(0) translate(4 158)">
<title>/home/krzysztof/PO/zad5_2&#45;kgliwinski/include/vector.hpp</title>
<!-- Node1 -->
<g id="node1" class="node">
<title>Node1</title>
<g id="a_node1"><a xlink:title=" ">
<polygon fill="#bfbfbf" stroke="black" points="33.45,-112.5 33.45,-153.5 179.45,-153.5 179.45,-112.5 33.45,-112.5"/>
<text text-anchor="start" x="41.45" y="-141.5" font-family="Helvetica,sans-Serif" font-size="10.00">/home/krzysztof/PO</text>
<text text-anchor="start" x="41.45" y="-130.5" font-family="Helvetica,sans-Serif" font-size="10.00">/zad5_2&#45;kgliwinski/include</text>
<text text-anchor="middle" x="106.45" y="-119.5" font-family="Helvetica,sans-Serif" font-size="10.00">/vector.hpp</text>
</a>
</g>
</g>
<!-- Node2 -->
<g id="node2" class="node">
<title>Node2</title>
<g id="a_node2"><a xlink:title=" ">
<polygon fill="none" stroke="#bfbfbf" points="8.45,-0.5 8.45,-19.5 68.45,-19.5 68.45,-0.5 8.45,-0.5"/>
<text text-anchor="middle" x="38.45" y="-7.5" font-family="Helvetica,sans-Serif" font-size="10.00">iostream</text>
</a>
</g>
</g>
<!-- Node1&#45;&gt;Node2 -->
<g id="edge1" class="edge">
<title>Node1&#45;&gt;Node2</title>
<path fill="none" stroke="midnightblue" d="M45.85,-112.45C29.19,-103.98 13.07,-92.18 3.45,-76 -6.41,-59.42 7.41,-39.88 20.48,-26.58"/>
<polygon fill="midnightblue" stroke="midnightblue" points="23.06,-28.96 27.91,-19.54 18.24,-23.88 23.06,-28.96"/>
</g>
<!-- Node3 -->
<g id="node3" class="node">
<title>Node3</title>
<g id="a_node3"><a xlink:title=" ">
<polygon fill="none" stroke="#bfbfbf" points="12.95,-56.5 12.95,-75.5 59.95,-75.5 59.95,-56.5 12.95,-56.5"/>
<text text-anchor="middle" x="36.45" y="-63.5" font-family="Helvetica,sans-Serif" font-size="10.00">cmath</text>
</a>
</g>
</g>
<!-- Node1&#45;&gt;Node3 -->
<g id="edge2" class="edge">
<title>Node1&#45;&gt;Node3</title>
<path fill="none" stroke="midnightblue" d="M85.45,-112.5C75.13,-102.92 62.86,-91.53 53.19,-82.54"/>
<polygon fill="midnightblue" stroke="midnightblue" points="55.48,-79.89 45.77,-75.65 50.71,-85.02 55.48,-79.89"/>
</g>
<!-- Node4 -->
<g id="node4" class="node">
<title>Node4</title>
<g id="a_node4"><a xlink:title=" ">
<polygon fill="none" stroke="#bfbfbf" points="78.45,-56.5 78.45,-75.5 134.45,-75.5 134.45,-56.5 78.45,-56.5"/>
<text text-anchor="middle" x="106.45" y="-63.5" font-family="Helvetica,sans-Serif" font-size="10.00">iomanip</text>
</a>
</g>
</g>
<!-- Node1&#45;&gt;Node4 -->
<g id="edge3" class="edge">
<title>Node1&#45;&gt;Node4</title>
<path fill="none" stroke="midnightblue" d="M106.45,-112.5C106.45,-104.07 106.45,-94.24 106.45,-85.87"/>
<polygon fill="midnightblue" stroke="midnightblue" points="109.95,-85.65 106.45,-75.65 102.95,-85.65 109.95,-85.65"/>
</g>
<!-- Node5 -->
<g id="node5" class="node">
<title>Node5</title>
<g id="a_node5"><a xlink:href="count_8hpp.html" target="_top" xlink:title="Plik zawiera definicję klasy reprezentujacej counter, pozwalajacy na liczenie instancji stworzonych k...">
<polygon fill="none" stroke="black" points="152.95,-56.5 152.95,-75.5 217.95,-75.5 217.95,-56.5 152.95,-56.5"/>
<text text-anchor="middle" x="185.45" y="-63.5" font-family="Helvetica,sans-Serif" font-size="10.00">count.hpp</text>
</a>
</g>
</g>
<!-- Node1&#45;&gt;Node5 -->
<g id="edge4" class="edge">
<title>Node1&#45;&gt;Node5</title>
<path fill="none" stroke="midnightblue" d="M130.15,-112.5C142.03,-102.72 156.19,-91.07 167.21,-82.01"/>
<polygon fill="midnightblue" stroke="midnightblue" points="169.43,-84.71 174.93,-75.65 164.99,-79.3 169.43,-84.71"/>
</g>
<!-- Node7 -->
<g id="node7" class="node">
<title>Node7</title>
<g id="a_node7"><a xlink:title=" ">
<polygon fill="none" stroke="#bfbfbf" points="236.45,-56.5 236.45,-75.5 328.45,-75.5 328.45,-56.5 236.45,-56.5"/>
<text text-anchor="middle" x="282.45" y="-63.5" font-family="Helvetica,sans-Serif" font-size="10.00">../src/vector.tpp</text>
</a>
</g>
</g>
<!-- Node1&#45;&gt;Node7 -->
<g id="edge7" class="edge">
<title>Node1&#45;&gt;Node7</title>
<path fill="none" stroke="midnightblue" d="M159.25,-112.5C188.57,-101.67 224.13,-88.54 249.5,-79.17"/>
<polygon fill="midnightblue" stroke="midnightblue" points="250.85,-82.4 259.02,-75.65 248.43,-75.83 250.85,-82.4"/>
</g>
<!-- Node5&#45;&gt;Node2 -->
<g id="edge5" class="edge">
<title>Node5&#45;&gt;Node2</title>
<path fill="none" stroke="midnightblue" d="M162.16,-56.44C137.64,-47.44 98.85,-33.19 71.25,-23.05"/>
<polygon fill="midnightblue" stroke="midnightblue" points="72.23,-19.68 61.63,-19.52 69.81,-26.25 72.23,-19.68"/>
</g>
<!-- Node6 -->
<g id="node6" class="node">
<title>Node6</title>
<g id="a_node6"><a xlink:title=" ">
<polygon fill="none" stroke="#bfbfbf" points="140.95,-0.5 140.95,-19.5 229.95,-19.5 229.95,-0.5 140.95,-0.5"/>
<text text-anchor="middle" x="185.45" y="-7.5" font-family="Helvetica,sans-Serif" font-size="10.00">../src/count.tpp</text>
</a>
</g>
</g>
<!-- Node5&#45;&gt;Node6 -->
<g id="edge6" class="edge">
<title>Node5&#45;&gt;Node6</title>
<path fill="none" stroke="midnightblue" d="M185.45,-56.08C185.45,-49.01 185.45,-38.86 185.45,-29.99"/>
<polygon fill="midnightblue" stroke="midnightblue" points="188.95,-29.75 185.45,-19.75 181.95,-29.75 188.95,-29.75"/>
</g>
</g>
</svg>
