<?xml version="1.0" encoding="UTF-8" standalone="no"?>
<!DOCTYPE svg PUBLIC "-//W3C//DTD SVG 1.1//EN"
 "http://www.w3.org/Graphics/SVG/1.1/DTD/svg11.dtd">
<!-- Generated by graphviz version 2.43.0 (0)
 -->
<!-- Title: /home/krzysztof/PO/zad5_2&#45;kgliwinski/src/vector3D.cpp Pages: 1 -->
<svg width="1593pt" height="752pt"
 viewBox="0.00 0.00 1592.50 752.00" xmlns="http://www.w3.org/2000/svg" xmlns:xlink="http://www.w3.org/1999/xlink">
<g id="graph0" class="graph" transform="scale(1 1) rotate(0) translate(4 748)">
<title>/home/krzysztof/PO/zad5_2&#45;kgliwinski/src/vector3D.cpp</title>
<!-- Node1 -->
<g id="node1" class="node">
<title>Node1</title>
<g id="a_node1"><a xlink:title=" ">
<polygon fill="#bfbfbf" stroke="black" points="982,-702.5 982,-743.5 1107,-743.5 1107,-702.5 982,-702.5"/>
<text text-anchor="start" x="990" y="-731.5" font-family="Helvetica,sans-Serif" font-size="10.00">/home/krzysztof/PO</text>
<text text-anchor="start" x="990" y="-720.5" font-family="Helvetica,sans-Serif" font-size="10.00">/zad5_2&#45;kgliwinski/src</text>
<text text-anchor="middle" x="1044.5" y="-709.5" font-family="Helvetica,sans-Serif" font-size="10.00">/vector3D.cpp</text>
</a>
</g>
</g>
<!-- Node2 -->
<g id="node2" class="node">
<title>Node2</title>
<g id="a_node2"><a xlink:href="vector3_d_8hpp.html" target="_top" xlink:title="Zawiera deklaracje klasy Vector3D.">
<polygon fill="none" stroke="black" points="971.5,-624.5 971.5,-665.5 1117.5,-665.5 1117.5,-624.5 971.5,-624.5"/>
<text text-anchor="start" x="979.5" y="-653.5" font-family="Helvetica,sans-Serif" font-size="10.00">/home/krzysztof/PO</text>
<text text-anchor="start" x="979.5" y="-642.5" font-family="Helvetica,sans-Serif" font-size="10.00">/zad5_2&#45;kgliwinski/include</text>
<text text-anchor="middle" x="1044.5" y="-631.5" font-family="Helvetica,sans-Serif" font-size="10.00">/vector3D.hpp</text>
</a>
</g>
</g>
<!-- Node1&#45;&gt;Node2 -->
<g id="edge1" class="edge">
<title>Node1&#45;&gt;Node2</title>
<path fill="none" stroke="midnightblue" d="M1037.9,-692.3C1037.58,-683.3 1037.78,-673.65 1038.52,-665.51"/>
<polygon fill="midnightblue" stroke="midnightblue" points="1034.41,-692.66 1038.51,-702.43 1041.4,-692.23 1034.41,-692.66"/>
</g>
<!-- Node2&#45;&gt;Node1 -->
<g id="edge33" class="edge">
<title>Node2&#45;&gt;Node1</title>
<path fill="none" stroke="midnightblue" d="M1051.1,-675.63C1051.42,-684.62 1051.22,-694.27 1050.49,-702.43"/>
<polygon fill="midnightblue" stroke="midnightblue" points="1054.59,-675.27 1050.48,-665.51 1047.6,-675.7 1054.59,-675.27"/>
</g>
<!-- Node3 -->
<g id="node3" class="node">
<title>Node3</title>
<g id="a_node3"><a xlink:href="block_8hpp.html" target="_top" xlink:title="Plik zawiera definicję klasy reprezentujacej bryle w przestrzeni trojwymiarowej.">
<polygon fill="none" stroke="black" points="823.5,-390.5 823.5,-431.5 969.5,-431.5 969.5,-390.5 823.5,-390.5"/>
<text text-anchor="start" x="831.5" y="-419.5" font-family="Helvetica,sans-Serif" font-size="10.00">/home/krzysztof/PO</text>
<text text-anchor="start" x="831.5" y="-408.5" font-family="Helvetica,sans-Serif" font-size="10.00">/zad5_2&#45;kgliwinski/include</text>
<text text-anchor="middle" x="896.5" y="-397.5" font-family="Helvetica,sans-Serif" font-size="10.00">/block.hpp</text>
</a>
</g>
</g>
<!-- Node2&#45;&gt;Node3 -->
<g id="edge2" class="edge">
<title>Node2&#45;&gt;Node3</title>
<path fill="none" stroke="midnightblue" d="M1026.39,-615.61C995.96,-567.91 935.33,-472.86 909.09,-431.73"/>
<polygon fill="midnightblue" stroke="midnightblue" points="1023.55,-617.67 1031.88,-624.22 1029.45,-613.91 1023.55,-617.67"/>
</g>
<!-- Node27 -->
<g id="node27" class="node">
<title>Node27</title>
<g id="a_node27"><a xlink:href="matrix_8hpp.html" target="_top" xlink:title=" ">
<polygon fill="none" stroke="black" points="1103.5,-546.5 1103.5,-587.5 1249.5,-587.5 1249.5,-546.5 1103.5,-546.5"/>
<text text-anchor="start" x="1111.5" y="-575.5" font-family="Helvetica,sans-Serif" font-size="10.00">/home/krzysztof/PO</text>
<text text-anchor="start" x="1111.5" y="-564.5" font-family="Helvetica,sans-Serif" font-size="10.00">/zad5_2&#45;kgliwinski/include</text>
<text text-anchor="middle" x="1176.5" y="-553.5" font-family="Helvetica,sans-Serif" font-size="10.00">/matrix.hpp</text>
</a>
</g>
</g>
<!-- Node2&#45;&gt;Node27 -->
<g id="edge34" class="edge">
<title>Node2&#45;&gt;Node27</title>
<path fill="none" stroke="midnightblue" d="M1087.57,-619.2C1105.43,-608.92 1125.86,-597.16 1142.62,-587.51"/>
<polygon fill="midnightblue" stroke="midnightblue" points="1085.41,-616.41 1078.49,-624.43 1088.91,-622.47 1085.41,-616.41"/>
</g>
<!-- Node28 -->
<g id="node28" class="node">
<title>Node28</title>
<g id="a_node28"><a xlink:href="matrix3_d_8hpp.html" target="_top" xlink:title="Zawiera deklaracje klasy Matrix3D.">
<polygon fill="none" stroke="black" points="971.5,-468.5 971.5,-509.5 1117.5,-509.5 1117.5,-468.5 971.5,-468.5"/>
<text text-anchor="start" x="979.5" y="-497.5" font-family="Helvetica,sans-Serif" font-size="10.00">/home/krzysztof/PO</text>
<text text-anchor="start" x="979.5" y="-486.5" font-family="Helvetica,sans-Serif" font-size="10.00">/zad5_2&#45;kgliwinski/include</text>
<text text-anchor="middle" x="1044.5" y="-475.5" font-family="Helvetica,sans-Serif" font-size="10.00">/matrix3D.hpp</text>
</a>
</g>
</g>
<!-- Node2&#45;&gt;Node28 -->
<g id="edge46" class="edge">
<title>Node2&#45;&gt;Node28</title>
<path fill="none" stroke="midnightblue" d="M1044.5,-614.36C1044.5,-583.61 1044.5,-536.36 1044.5,-509.83"/>
<polygon fill="midnightblue" stroke="midnightblue" points="1041,-614.5 1044.5,-624.5 1048,-614.5 1041,-614.5"/>
</g>
<!-- Node4 -->
<g id="node4" class="node">
<title>Node4</title>
<g id="a_node4"><a xlink:href="prism_8hpp.html" target="_top" xlink:title="Plik zawiera definicję klasy reprezentujacej graniastoslup o podstawie o 6 wierzcholkach w przestrzen...">
<polygon fill="none" stroke="black" points="389.5,-312.5 389.5,-353.5 535.5,-353.5 535.5,-312.5 389.5,-312.5"/>
<text text-anchor="start" x="397.5" y="-341.5" font-family="Helvetica,sans-Serif" font-size="10.00">/home/krzysztof/PO</text>
<text text-anchor="start" x="397.5" y="-330.5" font-family="Helvetica,sans-Serif" font-size="10.00">/zad5_2&#45;kgliwinski/include</text>
<text text-anchor="middle" x="462.5" y="-319.5" font-family="Helvetica,sans-Serif" font-size="10.00">/prism.hpp</text>
</a>
</g>
</g>
<!-- Node3&#45;&gt;Node4 -->
<g id="edge3" class="edge">
<title>Node3&#45;&gt;Node4</title>
<path fill="none" stroke="midnightblue" d="M813.28,-395.43C732.89,-381.35 612.34,-360.24 535.57,-346.8"/>
<polygon fill="midnightblue" stroke="midnightblue" points="812.91,-398.92 823.37,-397.19 814.12,-392.02 812.91,-398.92"/>
</g>
<!-- Node18 -->
<g id="node18" class="node">
<title>Node18</title>
<g id="a_node18"><a xlink:href="cuboid_8hpp.html" target="_top" xlink:title="Plik zawiera definicję klasy reprezentujacej prostopadloscian w przestrzeni trojwymiarowej.">
<polygon fill="none" stroke="black" points="930.5,-312.5 930.5,-353.5 1076.5,-353.5 1076.5,-312.5 930.5,-312.5"/>
<text text-anchor="start" x="938.5" y="-341.5" font-family="Helvetica,sans-Serif" font-size="10.00">/home/krzysztof/PO</text>
<text text-anchor="start" x="938.5" y="-330.5" font-family="Helvetica,sans-Serif" font-size="10.00">/zad5_2&#45;kgliwinski/include</text>
<text text-anchor="middle" x="1003.5" y="-319.5" font-family="Helvetica,sans-Serif" font-size="10.00">/cuboid.hpp</text>
</a>
</g>
</g>
<!-- Node3&#45;&gt;Node18 -->
<g id="edge20" class="edge">
<title>Node3&#45;&gt;Node18</title>
<path fill="none" stroke="midnightblue" d="M932.21,-384.64C946.5,-374.49 962.7,-362.98 976.04,-353.51"/>
<polygon fill="midnightblue" stroke="midnightblue" points="930.18,-381.78 924.06,-390.43 934.23,-387.49 930.18,-381.78"/>
</g>
<!-- Node24 -->
<g id="node24" class="node">
<title>Node24</title>
<g id="a_node24"><a xlink:href="plane_8hpp.html" target="_top" xlink:title="Plik zawiera definicję klasy reprezentujacej plaska powierzchnie, obslugujacej zapis do plikow.">
<polygon fill="none" stroke="black" points="716.5,-312.5 716.5,-353.5 862.5,-353.5 862.5,-312.5 716.5,-312.5"/>
<text text-anchor="start" x="724.5" y="-341.5" font-family="Helvetica,sans-Serif" font-size="10.00">/home/krzysztof/PO</text>
<text text-anchor="start" x="724.5" y="-330.5" font-family="Helvetica,sans-Serif" font-size="10.00">/zad5_2&#45;kgliwinski/include</text>
<text text-anchor="middle" x="789.5" y="-319.5" font-family="Helvetica,sans-Serif" font-size="10.00">/plane.hpp</text>
</a>
</g>
</g>
<!-- Node3&#45;&gt;Node24 -->
<g id="edge29" class="edge">
<title>Node3&#45;&gt;Node24</title>
<path fill="none" stroke="midnightblue" d="M860.79,-384.64C846.5,-374.49 830.3,-362.98 816.96,-353.51"/>
<polygon fill="midnightblue" stroke="midnightblue" points="858.77,-387.49 868.94,-390.43 862.82,-381.78 858.77,-387.49"/>
</g>
<!-- Node26 -->
<g id="node26" class="node">
<title>Node26</title>
<g id="a_node26"><a xlink:href="block_8cpp.html" target="_top" xlink:title=" ">
<polygon fill="none" stroke="black" points="1095,-312.5 1095,-353.5 1220,-353.5 1220,-312.5 1095,-312.5"/>
<text text-anchor="start" x="1103" y="-341.5" font-family="Helvetica,sans-Serif" font-size="10.00">/home/krzysztof/PO</text>
<text text-anchor="start" x="1103" y="-330.5" font-family="Helvetica,sans-Serif" font-size="10.00">/zad5_2&#45;kgliwinski/src</text>
<text text-anchor="middle" x="1157.5" y="-319.5" font-family="Helvetica,sans-Serif" font-size="10.00">/block.cpp</text>
</a>
</g>
</g>
<!-- Node3&#45;&gt;Node26 -->
<g id="edge32" class="edge">
<title>Node3&#45;&gt;Node26</title>
<path fill="none" stroke="midnightblue" d="M973.39,-387.61C1012.12,-376.33 1058.48,-362.83 1094.99,-352.2"/>
<polygon fill="midnightblue" stroke="midnightblue" points="972.34,-384.27 963.71,-390.43 974.29,-390.99 972.34,-384.27"/>
</g>
<!-- Node5 -->
<g id="node5" class="node">
<title>Node5</title>
<g id="a_node5"><a xlink:href="circus_8hpp.html" target="_top" xlink:title="Plik zawiera definicję klasy reprezentujacej Prism z podwyzszonym centrum, na ksztalt przypomina cyrk...">
<polygon fill="none" stroke="black" points="471.5,-234.5 471.5,-275.5 617.5,-275.5 617.5,-234.5 471.5,-234.5"/>
<text text-anchor="start" x="479.5" y="-263.5" font-family="Helvetica,sans-Serif" font-size="10.00">/home/krzysztof/PO</text>
<text text-anchor="start" x="479.5" y="-252.5" font-family="Helvetica,sans-Serif" font-size="10.00">/zad5_2&#45;kgliwinski/include</text>
<text text-anchor="middle" x="544.5" y="-241.5" font-family="Helvetica,sans-Serif" font-size="10.00">/circus.hpp</text>
</a>
</g>
</g>
<!-- Node4&#45;&gt;Node5 -->
<g id="edge4" class="edge">
<title>Node4&#45;&gt;Node5</title>
<path fill="none" stroke="midnightblue" d="M491.1,-305.49C501.74,-295.63 513.61,-284.63 523.45,-275.51"/>
<polygon fill="midnightblue" stroke="midnightblue" points="488.57,-303.06 483.62,-312.43 493.33,-308.2 488.57,-303.06"/>
</g>
<!-- Node11 -->
<g id="node11" class="node">
<title>Node11</title>
<g id="a_node11"><a xlink:href="drone_8hpp.html" target="_top" xlink:title="Plik zawiera definicję klasy reprezentujacej drona, budowanie i przemieszczanie go.">
<polygon fill="none" stroke="black" points="817.5,-234.5 817.5,-275.5 963.5,-275.5 963.5,-234.5 817.5,-234.5"/>
<text text-anchor="start" x="825.5" y="-263.5" font-family="Helvetica,sans-Serif" font-size="10.00">/home/krzysztof/PO</text>
<text text-anchor="start" x="825.5" y="-252.5" font-family="Helvetica,sans-Serif" font-size="10.00">/zad5_2&#45;kgliwinski/include</text>
<text text-anchor="middle" x="890.5" y="-241.5" font-family="Helvetica,sans-Serif" font-size="10.00">/drone.hpp</text>
</a>
</g>
</g>
<!-- Node4&#45;&gt;Node11 -->
<g id="edge10" class="edge">
<title>Node4&#45;&gt;Node11</title>
<path fill="none" stroke="midnightblue" d="M545.49,-317.26C624.39,-303.25 741.89,-282.39 817.35,-268.99"/>
<polygon fill="midnightblue" stroke="midnightblue" points="544.82,-313.83 535.59,-319.02 546.05,-320.72 544.82,-313.83"/>
</g>
<!-- Node13 -->
<g id="node13" class="node">
<title>Node13</title>
<g id="a_node13"><a xlink:href="tent_8hpp.html" target="_top" xlink:title="Plik zawiera definicję klasy reprezentujacej Prism bez gornej podstawy, =Ksztaltem przypomina namiot.">
<polygon fill="none" stroke="black" points="143.5,-234.5 143.5,-275.5 289.5,-275.5 289.5,-234.5 143.5,-234.5"/>
<text text-anchor="start" x="151.5" y="-263.5" font-family="Helvetica,sans-Serif" font-size="10.00">/home/krzysztof/PO</text>
<text text-anchor="start" x="151.5" y="-252.5" font-family="Helvetica,sans-Serif" font-size="10.00">/zad5_2&#45;kgliwinski/include</text>
<text text-anchor="middle" x="216.5" y="-241.5" font-family="Helvetica,sans-Serif" font-size="10.00">/tent.hpp</text>
</a>
</g>
</g>
<!-- Node4&#45;&gt;Node13 -->
<g id="edge13" class="edge">
<title>Node4&#45;&gt;Node13</title>
<path fill="none" stroke="midnightblue" d="M389.48,-309.44C354.57,-298.66 313.18,-285.87 279.64,-275.51"/>
<polygon fill="midnightblue" stroke="midnightblue" points="388.56,-312.82 399.15,-312.43 390.63,-306.13 388.56,-312.82"/>
</g>
<!-- Node15 -->
<g id="node15" class="node">
<title>Node15</title>
<g id="a_node15"><a xlink:href="volcano_8hpp.html" target="_top" xlink:title="Plik zawiera definicję klasy reprezentujacej wulkan, jest deformacja obiektu Prism.">
<polygon fill="none" stroke="black" points="307.5,-234.5 307.5,-275.5 453.5,-275.5 453.5,-234.5 307.5,-234.5"/>
<text text-anchor="start" x="315.5" y="-263.5" font-family="Helvetica,sans-Serif" font-size="10.00">/home/krzysztof/PO</text>
<text text-anchor="start" x="315.5" y="-252.5" font-family="Helvetica,sans-Serif" font-size="10.00">/zad5_2&#45;kgliwinski/include</text>
<text text-anchor="middle" x="380.5" y="-241.5" font-family="Helvetica,sans-Serif" font-size="10.00">/volcano.hpp</text>
</a>
</g>
</g>
<!-- Node4&#45;&gt;Node15 -->
<g id="edge16" class="edge">
<title>Node4&#45;&gt;Node15</title>
<path fill="none" stroke="midnightblue" d="M433.9,-305.49C423.26,-295.63 411.39,-284.63 401.55,-275.51"/>
<polygon fill="midnightblue" stroke="midnightblue" points="431.67,-308.2 441.38,-312.43 436.43,-303.06 431.67,-308.2"/>
</g>
<!-- Node17 -->
<g id="node17" class="node">
<title>Node17</title>
<g id="a_node17"><a xlink:href="prism_8cpp.html" target="_top" xlink:title=" ">
<polygon fill="none" stroke="black" points="0,-234.5 0,-275.5 125,-275.5 125,-234.5 0,-234.5"/>
<text text-anchor="start" x="8" y="-263.5" font-family="Helvetica,sans-Serif" font-size="10.00">/home/krzysztof/PO</text>
<text text-anchor="start" x="8" y="-252.5" font-family="Helvetica,sans-Serif" font-size="10.00">/zad5_2&#45;kgliwinski/src</text>
<text text-anchor="middle" x="62.5" y="-241.5" font-family="Helvetica,sans-Serif" font-size="10.00">/prism.cpp</text>
</a>
</g>
</g>
<!-- Node4&#45;&gt;Node17 -->
<g id="edge19" class="edge">
<title>Node4&#45;&gt;Node17</title>
<path fill="none" stroke="midnightblue" d="M379.44,-320.21C312.85,-310.19 217.21,-294.5 134.5,-276 131.46,-275.32 128.36,-274.59 125.23,-273.83"/>
<polygon fill="midnightblue" stroke="midnightblue" points="379.05,-323.69 389.45,-321.71 380.08,-316.77 379.05,-323.69"/>
</g>
<!-- Node6 -->
<g id="node6" class="node">
<title>Node6</title>
<g id="a_node6"><a xlink:href="scene_8hpp.html" target="_top" xlink:title="Plik zawiera definicję klasy reprezentujacej scene, obslugujacej zapis do plikow i wytswietlanie w gn...">
<polygon fill="none" stroke="black" points="673.5,-156.5 673.5,-197.5 819.5,-197.5 819.5,-156.5 673.5,-156.5"/>
<text text-anchor="start" x="681.5" y="-185.5" font-family="Helvetica,sans-Serif" font-size="10.00">/home/krzysztof/PO</text>
<text text-anchor="start" x="681.5" y="-174.5" font-family="Helvetica,sans-Serif" font-size="10.00">/zad5_2&#45;kgliwinski/include</text>
<text text-anchor="middle" x="746.5" y="-163.5" font-family="Helvetica,sans-Serif" font-size="10.00">/scene.hpp</text>
</a>
</g>
</g>
<!-- Node5&#45;&gt;Node6 -->
<g id="edge5" class="edge">
<title>Node5&#45;&gt;Node6</title>
<path fill="none" stroke="midnightblue" d="M605.93,-230.89C634.29,-220.22 667.59,-207.69 694.66,-197.51"/>
<polygon fill="midnightblue" stroke="midnightblue" points="604.65,-227.63 596.52,-234.43 607.11,-234.18 604.65,-227.63"/>
</g>
<!-- Node10 -->
<g id="node10" class="node">
<title>Node10</title>
<g id="a_node10"><a xlink:href="circus_8cpp.html" target="_top" xlink:title=" ">
<polygon fill="none" stroke="black" points="482,-156.5 482,-197.5 607,-197.5 607,-156.5 482,-156.5"/>
<text text-anchor="start" x="490" y="-185.5" font-family="Helvetica,sans-Serif" font-size="10.00">/home/krzysztof/PO</text>
<text text-anchor="start" x="490" y="-174.5" font-family="Helvetica,sans-Serif" font-size="10.00">/zad5_2&#45;kgliwinski/src</text>
<text text-anchor="middle" x="544.5" y="-163.5" font-family="Helvetica,sans-Serif" font-size="10.00">/circus.cpp</text>
</a>
</g>
</g>
<!-- Node5&#45;&gt;Node10 -->
<g id="edge9" class="edge">
<title>Node5&#45;&gt;Node10</title>
<path fill="none" stroke="midnightblue" d="M544.5,-224.3C544.5,-215.3 544.5,-205.65 544.5,-197.51"/>
<polygon fill="midnightblue" stroke="midnightblue" points="541,-224.43 544.5,-234.43 548,-224.43 541,-224.43"/>
</g>
<!-- Node7 -->
<g id="node7" class="node">
<title>Node7</title>
<g id="a_node7"><a xlink:href="menu_8hpp.html" target="_top" xlink:title="Plik zawiera definicję klasy reprezentujacej menu, obslugujace menu programu.">
<polygon fill="none" stroke="black" points="596.5,-78.5 596.5,-119.5 742.5,-119.5 742.5,-78.5 596.5,-78.5"/>
<text text-anchor="start" x="604.5" y="-107.5" font-family="Helvetica,sans-Serif" font-size="10.00">/home/krzysztof/PO</text>
<text text-anchor="start" x="604.5" y="-96.5" font-family="Helvetica,sans-Serif" font-size="10.00">/zad5_2&#45;kgliwinski/include</text>
<text text-anchor="middle" x="669.5" y="-85.5" font-family="Helvetica,sans-Serif" font-size="10.00">/menu.hpp</text>
</a>
</g>
</g>
<!-- Node6&#45;&gt;Node7 -->
<g id="edge6" class="edge">
<title>Node6&#45;&gt;Node7</title>
<path fill="none" stroke="midnightblue" d="M719.35,-149.2C709.43,-139.42 698.41,-128.54 689.26,-119.51"/>
<polygon fill="midnightblue" stroke="midnightblue" points="717.09,-151.89 726.67,-156.43 722.01,-146.91 717.09,-151.89"/>
</g>
<!-- Node9 -->
<g id="node9" class="node">
<title>Node9</title>
<g id="a_node9"><a xlink:href="scene_8cpp.html" target="_top" xlink:title=" ">
<polygon fill="none" stroke="black" points="761,-78.5 761,-119.5 886,-119.5 886,-78.5 761,-78.5"/>
<text text-anchor="start" x="769" y="-107.5" font-family="Helvetica,sans-Serif" font-size="10.00">/home/krzysztof/PO</text>
<text text-anchor="start" x="769" y="-96.5" font-family="Helvetica,sans-Serif" font-size="10.00">/zad5_2&#45;kgliwinski/src</text>
<text text-anchor="middle" x="823.5" y="-85.5" font-family="Helvetica,sans-Serif" font-size="10.00">/scene.cpp</text>
</a>
</g>
</g>
<!-- Node6&#45;&gt;Node9 -->
<g id="edge8" class="edge">
<title>Node6&#45;&gt;Node9</title>
<path fill="none" stroke="midnightblue" d="M773.65,-149.2C783.57,-139.42 794.59,-128.54 803.74,-119.51"/>
<polygon fill="midnightblue" stroke="midnightblue" points="770.99,-146.91 766.33,-156.43 775.91,-151.89 770.99,-146.91"/>
</g>
<!-- Node8 -->
<g id="node8" class="node">
<title>Node8</title>
<g id="a_node8"><a xlink:href="menu_8cpp.html" target="_top" xlink:title=" ">
<polygon fill="none" stroke="black" points="607,-0.5 607,-41.5 732,-41.5 732,-0.5 607,-0.5"/>
<text text-anchor="start" x="615" y="-29.5" font-family="Helvetica,sans-Serif" font-size="10.00">/home/krzysztof/PO</text>
<text text-anchor="start" x="615" y="-18.5" font-family="Helvetica,sans-Serif" font-size="10.00">/zad5_2&#45;kgliwinski/src</text>
<text text-anchor="middle" x="669.5" y="-7.5" font-family="Helvetica,sans-Serif" font-size="10.00">/menu.cpp</text>
</a>
</g>
</g>
<!-- Node7&#45;&gt;Node8 -->
<g id="edge7" class="edge">
<title>Node7&#45;&gt;Node8</title>
<path fill="none" stroke="midnightblue" d="M669.5,-68.3C669.5,-59.3 669.5,-49.65 669.5,-41.51"/>
<polygon fill="midnightblue" stroke="midnightblue" points="666,-68.43 669.5,-78.43 673,-68.43 666,-68.43"/>
</g>
<!-- Node11&#45;&gt;Node6 -->
<g id="edge11" class="edge">
<title>Node11&#45;&gt;Node6</title>
<path fill="none" stroke="midnightblue" d="M844.32,-229.63C824.64,-219.24 802,-207.29 783.46,-197.51"/>
<polygon fill="midnightblue" stroke="midnightblue" points="842.94,-232.86 853.42,-234.43 846.21,-226.67 842.94,-232.86"/>
</g>
<!-- Node12 -->
<g id="node12" class="node">
<title>Node12</title>
<g id="a_node12"><a xlink:href="drone_8cpp.html" target="_top" xlink:title=" ">
<polygon fill="none" stroke="black" points="838,-156.5 838,-197.5 963,-197.5 963,-156.5 838,-156.5"/>
<text text-anchor="start" x="846" y="-185.5" font-family="Helvetica,sans-Serif" font-size="10.00">/home/krzysztof/PO</text>
<text text-anchor="start" x="846" y="-174.5" font-family="Helvetica,sans-Serif" font-size="10.00">/zad5_2&#45;kgliwinski/src</text>
<text text-anchor="middle" x="900.5" y="-163.5" font-family="Helvetica,sans-Serif" font-size="10.00">/drone.cpp</text>
</a>
</g>
</g>
<!-- Node11&#45;&gt;Node12 -->
<g id="edge12" class="edge">
<title>Node11&#45;&gt;Node12</title>
<path fill="none" stroke="midnightblue" d="M894.41,-224.3C895.59,-215.3 896.86,-205.65 897.93,-197.51"/>
<polygon fill="midnightblue" stroke="midnightblue" points="890.91,-224.06 893.08,-234.43 897.85,-224.97 890.91,-224.06"/>
</g>
<!-- Node13&#45;&gt;Node6 -->
<g id="edge14" class="edge">
<title>Node13&#45;&gt;Node6</title>
<path fill="none" stroke="midnightblue" d="M299.97,-233.85C439.88,-209.49 478.24,-216.27 615.5,-198 634.31,-195.5 654.61,-192.53 673.47,-189.66"/>
<polygon fill="midnightblue" stroke="midnightblue" points="298.96,-230.47 289.72,-235.66 300.18,-237.37 298.96,-230.47"/>
</g>
<!-- Node14 -->
<g id="node14" class="node">
<title>Node14</title>
<g id="a_node14"><a xlink:href="tent_8cpp.html" target="_top" xlink:title=" ">
<polygon fill="none" stroke="black" points="154,-156.5 154,-197.5 279,-197.5 279,-156.5 154,-156.5"/>
<text text-anchor="start" x="162" y="-185.5" font-family="Helvetica,sans-Serif" font-size="10.00">/home/krzysztof/PO</text>
<text text-anchor="start" x="162" y="-174.5" font-family="Helvetica,sans-Serif" font-size="10.00">/zad5_2&#45;kgliwinski/src</text>
<text text-anchor="middle" x="216.5" y="-163.5" font-family="Helvetica,sans-Serif" font-size="10.00">/tent.cpp</text>
</a>
</g>
</g>
<!-- Node13&#45;&gt;Node14 -->
<g id="edge15" class="edge">
<title>Node13&#45;&gt;Node14</title>
<path fill="none" stroke="midnightblue" d="M216.5,-224.3C216.5,-215.3 216.5,-205.65 216.5,-197.51"/>
<polygon fill="midnightblue" stroke="midnightblue" points="213,-224.43 216.5,-234.43 220,-224.43 213,-224.43"/>
</g>
<!-- Node15&#45;&gt;Node6 -->
<g id="edge17" class="edge">
<title>Node15&#45;&gt;Node6</title>
<path fill="none" stroke="midnightblue" d="M463.65,-233.79C540.59,-216.96 618.24,-201.88 673.35,-191.5"/>
<polygon fill="midnightblue" stroke="midnightblue" points="462.8,-230.39 453.78,-235.96 464.3,-237.23 462.8,-230.39"/>
</g>
<!-- Node16 -->
<g id="node16" class="node">
<title>Node16</title>
<g id="a_node16"><a xlink:href="volcano_8cpp.html" target="_top" xlink:title=" ">
<polygon fill="none" stroke="black" points="318,-156.5 318,-197.5 443,-197.5 443,-156.5 318,-156.5"/>
<text text-anchor="start" x="326" y="-185.5" font-family="Helvetica,sans-Serif" font-size="10.00">/home/krzysztof/PO</text>
<text text-anchor="start" x="326" y="-174.5" font-family="Helvetica,sans-Serif" font-size="10.00">/zad5_2&#45;kgliwinski/src</text>
<text text-anchor="middle" x="380.5" y="-163.5" font-family="Helvetica,sans-Serif" font-size="10.00">/volcano.cpp</text>
</a>
</g>
</g>
<!-- Node15&#45;&gt;Node16 -->
<g id="edge18" class="edge">
<title>Node15&#45;&gt;Node16</title>
<path fill="none" stroke="midnightblue" d="M380.5,-224.3C380.5,-215.3 380.5,-205.65 380.5,-197.51"/>
<polygon fill="midnightblue" stroke="midnightblue" points="377,-224.43 380.5,-234.43 384,-224.43 377,-224.43"/>
</g>
<!-- Node18&#45;&gt;Node11 -->
<g id="edge21" class="edge">
<title>Node18&#45;&gt;Node11</title>
<path fill="none" stroke="midnightblue" d="M965.79,-306.64C950.7,-296.49 933.59,-284.98 919.5,-275.51"/>
<polygon fill="midnightblue" stroke="midnightblue" points="964.15,-309.75 974.4,-312.43 968.06,-303.94 964.15,-309.75"/>
</g>
<!-- Node19 -->
<g id="node19" class="node">
<title>Node19</title>
<g id="a_node19"><a xlink:href="pyramid_8hpp.html" target="_top" xlink:title="Plik zawiera definicję klasy reprezentujacej ostroslup o prostokatnej podstawie w przestrzeni trojwym...">
<polygon fill="none" stroke="black" points="981.5,-234.5 981.5,-275.5 1127.5,-275.5 1127.5,-234.5 981.5,-234.5"/>
<text text-anchor="start" x="989.5" y="-263.5" font-family="Helvetica,sans-Serif" font-size="10.00">/home/krzysztof/PO</text>
<text text-anchor="start" x="989.5" y="-252.5" font-family="Helvetica,sans-Serif" font-size="10.00">/zad5_2&#45;kgliwinski/include</text>
<text text-anchor="middle" x="1054.5" y="-241.5" font-family="Helvetica,sans-Serif" font-size="10.00">/pyramid.hpp</text>
</a>
</g>
</g>
<!-- Node18&#45;&gt;Node19 -->
<g id="edge22" class="edge">
<title>Node18&#45;&gt;Node19</title>
<path fill="none" stroke="midnightblue" d="M1022.26,-304.05C1028.62,-294.57 1035.59,-284.18 1041.41,-275.51"/>
<polygon fill="midnightblue" stroke="midnightblue" points="1019.3,-302.17 1016.63,-312.43 1025.11,-306.07 1019.3,-302.17"/>
</g>
<!-- Node21 -->
<g id="node21" class="node">
<title>Node21</title>
<g id="a_node21"><a xlink:href="triangular_8hpp.html" target="_top" xlink:title=" ">
<polygon fill="none" stroke="black" points="1289.5,-234.5 1289.5,-275.5 1435.5,-275.5 1435.5,-234.5 1289.5,-234.5"/>
<text text-anchor="start" x="1297.5" y="-263.5" font-family="Helvetica,sans-Serif" font-size="10.00">/home/krzysztof/PO</text>
<text text-anchor="start" x="1297.5" y="-252.5" font-family="Helvetica,sans-Serif" font-size="10.00">/zad5_2&#45;kgliwinski/include</text>
<text text-anchor="middle" x="1362.5" y="-241.5" font-family="Helvetica,sans-Serif" font-size="10.00">/triangular.hpp</text>
</a>
</g>
</g>
<!-- Node18&#45;&gt;Node21 -->
<g id="edge25" class="edge">
<title>Node18&#45;&gt;Node21</title>
<path fill="none" stroke="midnightblue" d="M1086.74,-311.79C1172.95,-293.63 1196.83,-293.62 1279.5,-276 1282.69,-275.32 1285.94,-274.61 1289.23,-273.88"/>
<polygon fill="midnightblue" stroke="midnightblue" points="1085.82,-308.41 1076.77,-313.91 1087.28,-315.26 1085.82,-308.41"/>
</g>
<!-- Node23 -->
<g id="node23" class="node">
<title>Node23</title>
<g id="a_node23"><a xlink:href="cuboid_8cpp.html" target="_top" xlink:title=" ">
<polygon fill="none" stroke="black" points="1146,-234.5 1146,-275.5 1271,-275.5 1271,-234.5 1146,-234.5"/>
<text text-anchor="start" x="1154" y="-263.5" font-family="Helvetica,sans-Serif" font-size="10.00">/home/krzysztof/PO</text>
<text text-anchor="start" x="1154" y="-252.5" font-family="Helvetica,sans-Serif" font-size="10.00">/zad5_2&#45;kgliwinski/src</text>
<text text-anchor="middle" x="1208.5" y="-241.5" font-family="Helvetica,sans-Serif" font-size="10.00">/cuboid.cpp</text>
</a>
</g>
</g>
<!-- Node18&#45;&gt;Node23 -->
<g id="edge28" class="edge">
<title>Node18&#45;&gt;Node23</title>
<path fill="none" stroke="midnightblue" d="M1065.84,-308.89C1094.62,-298.22 1128.41,-285.69 1155.89,-275.51"/>
<polygon fill="midnightblue" stroke="midnightblue" points="1064.45,-305.67 1056.29,-312.43 1066.89,-312.23 1064.45,-305.67"/>
</g>
<!-- Node19&#45;&gt;Node6 -->
<g id="edge23" class="edge">
<title>Node19&#45;&gt;Node6</title>
<path fill="none" stroke="midnightblue" d="M971.2,-233.44C923.85,-221.76 865.13,-207.27 819.59,-196.03"/>
<polygon fill="midnightblue" stroke="midnightblue" points="970.57,-236.89 981.12,-235.89 972.25,-230.1 970.57,-236.89"/>
</g>
<!-- Node20 -->
<g id="node20" class="node">
<title>Node20</title>
<g id="a_node20"><a xlink:href="pyramid_8cpp.html" target="_top" xlink:title=" ">
<polygon fill="none" stroke="black" points="992,-156.5 992,-197.5 1117,-197.5 1117,-156.5 992,-156.5"/>
<text text-anchor="start" x="1000" y="-185.5" font-family="Helvetica,sans-Serif" font-size="10.00">/home/krzysztof/PO</text>
<text text-anchor="start" x="1000" y="-174.5" font-family="Helvetica,sans-Serif" font-size="10.00">/zad5_2&#45;kgliwinski/src</text>
<text text-anchor="middle" x="1054.5" y="-163.5" font-family="Helvetica,sans-Serif" font-size="10.00">/pyramid.cpp</text>
</a>
</g>
</g>
<!-- Node19&#45;&gt;Node20 -->
<g id="edge24" class="edge">
<title>Node19&#45;&gt;Node20</title>
<path fill="none" stroke="midnightblue" d="M1054.5,-224.3C1054.5,-215.3 1054.5,-205.65 1054.5,-197.51"/>
<polygon fill="midnightblue" stroke="midnightblue" points="1051,-224.43 1054.5,-234.43 1058,-224.43 1051,-224.43"/>
</g>
<!-- Node21&#45;&gt;Node6 -->
<g id="edge26" class="edge">
<title>Node21&#45;&gt;Node6</title>
<path fill="none" stroke="midnightblue" d="M1279.35,-234.14C1079.15,-203.22 1023.83,-229.41 828.5,-198 825.61,-197.53 822.66,-197.02 819.7,-196.47"/>
<polygon fill="midnightblue" stroke="midnightblue" points="1278.88,-237.61 1289.31,-235.7 1279.97,-230.69 1278.88,-237.61"/>
</g>
<!-- Node22 -->
<g id="node22" class="node">
<title>Node22</title>
<g id="a_node22"><a xlink:href="triangular_8cpp.html" target="_top" xlink:title=" ">
<polygon fill="none" stroke="black" points="1300,-156.5 1300,-197.5 1425,-197.5 1425,-156.5 1300,-156.5"/>
<text text-anchor="start" x="1308" y="-185.5" font-family="Helvetica,sans-Serif" font-size="10.00">/home/krzysztof/PO</text>
<text text-anchor="start" x="1308" y="-174.5" font-family="Helvetica,sans-Serif" font-size="10.00">/zad5_2&#45;kgliwinski/src</text>
<text text-anchor="middle" x="1362.5" y="-163.5" font-family="Helvetica,sans-Serif" font-size="10.00">/triangular.cpp</text>
</a>
</g>
</g>
<!-- Node21&#45;&gt;Node22 -->
<g id="edge27" class="edge">
<title>Node21&#45;&gt;Node22</title>
<path fill="none" stroke="midnightblue" d="M1362.5,-224.3C1362.5,-215.3 1362.5,-205.65 1362.5,-197.51"/>
<polygon fill="midnightblue" stroke="midnightblue" points="1359,-224.43 1362.5,-234.43 1366,-224.43 1359,-224.43"/>
</g>
<!-- Node24&#45;&gt;Node6 -->
<g id="edge30" class="edge">
<title>Node24&#45;&gt;Node6</title>
<path fill="none" stroke="midnightblue" d="M784.94,-302.32C781.56,-282.69 776.36,-256.53 769.5,-234 765.74,-221.63 760.28,-208.22 755.62,-197.63"/>
<polygon fill="midnightblue" stroke="midnightblue" points="781.49,-302.91 786.59,-312.21 788.4,-301.77 781.49,-302.91"/>
</g>
<!-- Node25 -->
<g id="node25" class="node">
<title>Node25</title>
<g id="a_node25"><a xlink:href="plane_8cpp.html" target="_top" xlink:title=" ">
<polygon fill="none" stroke="black" points="636,-234.5 636,-275.5 761,-275.5 761,-234.5 636,-234.5"/>
<text text-anchor="start" x="644" y="-263.5" font-family="Helvetica,sans-Serif" font-size="10.00">/home/krzysztof/PO</text>
<text text-anchor="start" x="644" y="-252.5" font-family="Helvetica,sans-Serif" font-size="10.00">/zad5_2&#45;kgliwinski/src</text>
<text text-anchor="middle" x="698.5" y="-241.5" font-family="Helvetica,sans-Serif" font-size="10.00">/plane.cpp</text>
</a>
</g>
</g>
<!-- Node24&#45;&gt;Node25 -->
<g id="edge31" class="edge">
<title>Node24&#45;&gt;Node25</title>
<path fill="none" stroke="midnightblue" d="M758.1,-305.78C746.21,-295.84 732.88,-284.72 721.86,-275.51"/>
<polygon fill="midnightblue" stroke="midnightblue" points="756.15,-308.7 766.07,-312.43 760.63,-303.33 756.15,-308.7"/>
</g>
<!-- Node27&#45;&gt;Node28 -->
<g id="edge35" class="edge">
<title>Node27&#45;&gt;Node28</title>
<path fill="none" stroke="midnightblue" d="M1133.43,-541.2C1115.57,-530.92 1095.14,-519.16 1078.38,-509.51"/>
<polygon fill="midnightblue" stroke="midnightblue" points="1132.09,-544.47 1142.51,-546.43 1135.59,-538.41 1132.09,-544.47"/>
</g>
<!-- Node30 -->
<g id="node30" class="node">
<title>Node30</title>
<g id="a_node30"><a xlink:href="matrix2_d_8hpp.html" target="_top" xlink:title="Zawiera deklaracje klasy Matrix2D.">
<polygon fill="none" stroke="black" points="1135.5,-468.5 1135.5,-509.5 1281.5,-509.5 1281.5,-468.5 1135.5,-468.5"/>
<text text-anchor="start" x="1143.5" y="-497.5" font-family="Helvetica,sans-Serif" font-size="10.00">/home/krzysztof/PO</text>
<text text-anchor="start" x="1143.5" y="-486.5" font-family="Helvetica,sans-Serif" font-size="10.00">/zad5_2&#45;kgliwinski/include</text>
<text text-anchor="middle" x="1208.5" y="-475.5" font-family="Helvetica,sans-Serif" font-size="10.00">/matrix2D.hpp</text>
</a>
</g>
</g>
<!-- Node27&#45;&gt;Node30 -->
<g id="edge39" class="edge">
<title>Node27&#45;&gt;Node30</title>
<path fill="none" stroke="midnightblue" d="M1188.64,-537.17C1192.53,-527.93 1196.74,-517.92 1200.29,-509.51"/>
<polygon fill="midnightblue" stroke="midnightblue" points="1185.4,-535.85 1184.74,-546.43 1191.85,-538.57 1185.4,-535.85"/>
</g>
<!-- Node33 -->
<g id="node33" class="node">
<title>Node33</title>
<g id="a_node33"><a xlink:href="matrix4_d_8hpp.html" target="_top" xlink:title="Zawiera deklaracje klasy Matrix4D.">
<polygon fill="none" stroke="black" points="1438.5,-468.5 1438.5,-509.5 1584.5,-509.5 1584.5,-468.5 1438.5,-468.5"/>
<text text-anchor="start" x="1446.5" y="-497.5" font-family="Helvetica,sans-Serif" font-size="10.00">/home/krzysztof/PO</text>
<text text-anchor="start" x="1446.5" y="-486.5" font-family="Helvetica,sans-Serif" font-size="10.00">/zad5_2&#45;kgliwinski/include</text>
<text text-anchor="middle" x="1511.5" y="-475.5" font-family="Helvetica,sans-Serif" font-size="10.00">/matrix4D.hpp</text>
</a>
</g>
</g>
<!-- Node27&#45;&gt;Node33 -->
<g id="edge43" class="edge">
<title>Node27&#45;&gt;Node33</title>
<path fill="none" stroke="midnightblue" d="M1259.64,-547.14C1314.46,-534.7 1385.58,-518.57 1438.26,-506.61"/>
<polygon fill="midnightblue" stroke="midnightblue" points="1258.58,-543.79 1249.6,-549.42 1260.13,-550.62 1258.58,-543.79"/>
</g>
<!-- Node28&#45;&gt;Node3 -->
<g id="edge36" class="edge">
<title>Node28&#45;&gt;Node3</title>
<path fill="none" stroke="midnightblue" d="M997.31,-463.77C977.02,-453.35 953.63,-441.34 934.48,-431.51"/>
<polygon fill="midnightblue" stroke="midnightblue" points="995.89,-466.97 1006.39,-468.43 999.09,-460.75 995.89,-466.97"/>
</g>
<!-- Node29 -->
<g id="node29" class="node">
<title>Node29</title>
<g id="a_node29"><a xlink:href="matrix3_d_8cpp.html" target="_top" xlink:title=" ">
<polygon fill="none" stroke="black" points="988,-390.5 988,-431.5 1113,-431.5 1113,-390.5 988,-390.5"/>
<text text-anchor="start" x="996" y="-419.5" font-family="Helvetica,sans-Serif" font-size="10.00">/home/krzysztof/PO</text>
<text text-anchor="start" x="996" y="-408.5" font-family="Helvetica,sans-Serif" font-size="10.00">/zad5_2&#45;kgliwinski/src</text>
<text text-anchor="middle" x="1050.5" y="-397.5" font-family="Helvetica,sans-Serif" font-size="10.00">/matrix3D.cpp</text>
</a>
</g>
</g>
<!-- Node28&#45;&gt;Node29 -->
<g id="edge37" class="edge">
<title>Node28&#45;&gt;Node29</title>
<path fill="none" stroke="midnightblue" d="M1040.24,-458.3C1040.63,-449.3 1041.6,-439.65 1042.98,-431.51"/>
<polygon fill="midnightblue" stroke="midnightblue" points="1036.74,-458.37 1040.06,-468.43 1043.74,-458.49 1036.74,-458.37"/>
</g>
<!-- Node29&#45;&gt;Node28 -->
<g id="edge38" class="edge">
<title>Node29&#45;&gt;Node28</title>
<path fill="none" stroke="midnightblue" d="M1054.76,-441.63C1054.38,-450.62 1053.41,-460.27 1052.03,-468.43"/>
<polygon fill="midnightblue" stroke="midnightblue" points="1058.26,-441.57 1054.94,-431.51 1051.27,-441.44 1058.26,-441.57"/>
</g>
<!-- Node31 -->
<g id="node31" class="node">
<title>Node31</title>
<g id="a_node31"><a xlink:href="matrix2_d_8cpp.html" target="_top" xlink:title=" ">
<polygon fill="none" stroke="black" points="1141,-390.5 1141,-431.5 1266,-431.5 1266,-390.5 1141,-390.5"/>
<text text-anchor="start" x="1149" y="-419.5" font-family="Helvetica,sans-Serif" font-size="10.00">/home/krzysztof/PO</text>
<text text-anchor="start" x="1149" y="-408.5" font-family="Helvetica,sans-Serif" font-size="10.00">/zad5_2&#45;kgliwinski/src</text>
<text text-anchor="middle" x="1203.5" y="-397.5" font-family="Helvetica,sans-Serif" font-size="10.00">/matrix2D.cpp</text>
</a>
</g>
</g>
<!-- Node30&#45;&gt;Node31 -->
<g id="edge40" class="edge">
<title>Node30&#45;&gt;Node31</title>
<path fill="none" stroke="midnightblue" d="M1199.94,-458.3C1199.03,-449.3 1198.6,-439.65 1198.8,-431.51"/>
<polygon fill="midnightblue" stroke="midnightblue" points="1196.5,-458.95 1201.22,-468.43 1203.44,-458.07 1196.5,-458.95"/>
</g>
<!-- Node32 -->
<g id="node32" class="node">
<title>Node32</title>
<g id="a_node32"><a xlink:href="vector2_d_8hpp.html" target="_top" xlink:title="Zawiera deklaracje klasy Vector2D.">
<polygon fill="none" stroke="black" points="1284.5,-390.5 1284.5,-431.5 1430.5,-431.5 1430.5,-390.5 1284.5,-390.5"/>
<text text-anchor="start" x="1292.5" y="-419.5" font-family="Helvetica,sans-Serif" font-size="10.00">/home/krzysztof/PO</text>
<text text-anchor="start" x="1292.5" y="-408.5" font-family="Helvetica,sans-Serif" font-size="10.00">/zad5_2&#45;kgliwinski/include</text>
<text text-anchor="middle" x="1357.5" y="-397.5" font-family="Helvetica,sans-Serif" font-size="10.00">/vector2D.hpp</text>
</a>
</g>
</g>
<!-- Node30&#45;&gt;Node32 -->
<g id="edge42" class="edge">
<title>Node30&#45;&gt;Node32</title>
<path fill="none" stroke="midnightblue" d="M1256.01,-463.77C1276.43,-453.35 1299.99,-441.34 1319.26,-431.51"/>
<polygon fill="midnightblue" stroke="midnightblue" points="1254.19,-460.77 1246.87,-468.43 1257.37,-467 1254.19,-460.77"/>
</g>
<!-- Node31&#45;&gt;Node30 -->
<g id="edge41" class="edge">
<title>Node31&#45;&gt;Node30</title>
<path fill="none" stroke="midnightblue" d="M1212.05,-441.63C1212.97,-450.62 1213.4,-460.27 1213.2,-468.43"/>
<polygon fill="midnightblue" stroke="midnightblue" points="1215.5,-440.98 1210.77,-431.51 1208.55,-441.87 1215.5,-440.98"/>
</g>
<!-- Node34 -->
<g id="node34" class="node">
<title>Node34</title>
<g id="a_node34"><a xlink:href="matrix4_d_8cpp.html" target="_top" xlink:title=" ">
<polygon fill="none" stroke="black" points="1449,-390.5 1449,-431.5 1574,-431.5 1574,-390.5 1449,-390.5"/>
<text text-anchor="start" x="1457" y="-419.5" font-family="Helvetica,sans-Serif" font-size="10.00">/home/krzysztof/PO</text>
<text text-anchor="start" x="1457" y="-408.5" font-family="Helvetica,sans-Serif" font-size="10.00">/zad5_2&#45;kgliwinski/src</text>
<text text-anchor="middle" x="1511.5" y="-397.5" font-family="Helvetica,sans-Serif" font-size="10.00">/matrix4D.cpp</text>
</a>
</g>
</g>
<!-- Node33&#45;&gt;Node34 -->
<g id="edge44" class="edge">
<title>Node33&#45;&gt;Node34</title>
<path fill="none" stroke="midnightblue" d="M1504.9,-458.3C1504.58,-449.3 1504.78,-439.65 1505.52,-431.51"/>
<polygon fill="midnightblue" stroke="midnightblue" points="1501.41,-458.66 1505.51,-468.43 1508.4,-458.23 1501.41,-458.66"/>
</g>
<!-- Node34&#45;&gt;Node33 -->
<g id="edge45" class="edge">
<title>Node34&#45;&gt;Node33</title>
<path fill="none" stroke="midnightblue" d="M1518.1,-441.63C1518.42,-450.62 1518.22,-460.27 1517.49,-468.43"/>
<polygon fill="midnightblue" stroke="midnightblue" points="1521.59,-441.27 1517.48,-431.51 1514.6,-441.7 1521.59,-441.27"/>
</g>
</g>
</svg>
