<?xml version="1.0" encoding="UTF-8" standalone="no"?>
<!DOCTYPE svg PUBLIC "-//W3C//DTD SVG 1.1//EN"
 "http://www.w3.org/Graphics/SVG/1.1/DTD/svg11.dtd">
<!-- Generated by graphviz version 2.43.0 (0)
 -->
<!-- Title: /home/krzysztof/PO/zad5_2&#45;kgliwinski/include/vector2D.hpp Pages: 1 -->
<svg width="526pt" height="386pt"
 viewBox="0.00 0.00 525.50 386.00" xmlns="http://www.w3.org/2000/svg" xmlns:xlink="http://www.w3.org/1999/xlink">
<g id="graph0" class="graph" transform="scale(1 1) rotate(0) translate(4 382)">
<title>/home/krzysztof/PO/zad5_2&#45;kgliwinski/include/vector2D.hpp</title>
<!-- Node1 -->
<g id="node1" class="node">
<title>Node1</title>
<g id="a_node1"><a xlink:title="Zawiera deklaracje klasy Vector2D.">
<polygon fill="#bfbfbf" stroke="black" points="149,-336.5 149,-377.5 295,-377.5 295,-336.5 149,-336.5"/>
<text text-anchor="start" x="157" y="-365.5" font-family="Helvetica,sans-Serif" font-size="10.00">/home/krzysztof/PO</text>
<text text-anchor="start" x="157" y="-354.5" font-family="Helvetica,sans-Serif" font-size="10.00">/zad5_2&#45;kgliwinski/include</text>
<text text-anchor="middle" x="222" y="-343.5" font-family="Helvetica,sans-Serif" font-size="10.00">/vector2D.hpp</text>
</a>
</g>
</g>
<!-- Node2 -->
<g id="node2" class="node">
<title>Node2</title>
<g id="a_node2"><a xlink:href="vector_8hpp.html" target="_top" xlink:title=" ">
<polygon fill="none" stroke="black" points="213,-112.5 213,-131.5 281,-131.5 281,-112.5 213,-112.5"/>
<text text-anchor="middle" x="247" y="-119.5" font-family="Helvetica,sans-Serif" font-size="10.00">vector.hpp</text>
</a>
</g>
</g>
<!-- Node1&#45;&gt;Node2 -->
<g id="edge1" class="edge">
<title>Node1&#45;&gt;Node2</title>
<path fill="none" stroke="midnightblue" d="M199.55,-336.45C189.42,-326.49 178.15,-313.62 171,-300 143.21,-247.06 112.35,-218.09 145,-168 157.86,-148.26 181.56,-137.12 202.87,-130.86"/>
<polygon fill="midnightblue" stroke="midnightblue" points="203.99,-134.19 212.76,-128.24 202.2,-127.42 203.99,-134.19"/>
</g>
<!-- Node9 -->
<g id="node9" class="node">
<title>Node9</title>
<g id="a_node9"><a xlink:href="matrix2_d_8hpp.html" target="_top" xlink:title="Zawiera deklaracje klasy Matrix2D.">
<polygon fill="none" stroke="black" points="180.5,-280.5 180.5,-299.5 263.5,-299.5 263.5,-280.5 180.5,-280.5"/>
<text text-anchor="middle" x="222" y="-287.5" font-family="Helvetica,sans-Serif" font-size="10.00">matrix2D.hpp</text>
</a>
</g>
</g>
<!-- Node1&#45;&gt;Node9 -->
<g id="edge9" class="edge">
<title>Node1&#45;&gt;Node9</title>
<path fill="none" stroke="midnightblue" d="M222,-336.5C222,-328.07 222,-318.24 222,-309.87"/>
<polygon fill="midnightblue" stroke="midnightblue" points="225.5,-309.65 222,-299.65 218.5,-309.65 225.5,-309.65"/>
</g>
<!-- Node16 -->
<g id="node16" class="node">
<title>Node16</title>
<g id="a_node16"><a xlink:href="vector2_d_8cpp.html" target="_top" xlink:title=" ">
<polygon fill="none" stroke="black" points="281.5,-280.5 281.5,-299.5 388.5,-299.5 388.5,-280.5 281.5,-280.5"/>
<text text-anchor="middle" x="335" y="-287.5" font-family="Helvetica,sans-Serif" font-size="10.00">../src/vector2D.cpp</text>
</a>
</g>
</g>
<!-- Node1&#45;&gt;Node16 -->
<g id="edge21" class="edge">
<title>Node1&#45;&gt;Node16</title>
<path fill="none" stroke="midnightblue" d="M255.9,-336.5C273.73,-326.24 295.15,-313.93 311.2,-304.69"/>
<polygon fill="midnightblue" stroke="midnightblue" points="313.03,-307.67 319.96,-299.65 309.54,-301.6 313.03,-307.67"/>
</g>
<!-- Node3 -->
<g id="node3" class="node">
<title>Node3</title>
<g id="a_node3"><a xlink:title=" ">
<polygon fill="none" stroke="#bfbfbf" points="263,-0.5 263,-19.5 323,-19.5 323,-0.5 263,-0.5"/>
<text text-anchor="middle" x="293" y="-7.5" font-family="Helvetica,sans-Serif" font-size="10.00">iostream</text>
</a>
</g>
</g>
<!-- Node2&#45;&gt;Node3 -->
<g id="edge2" class="edge">
<title>Node2&#45;&gt;Node3</title>
<path fill="none" stroke="midnightblue" d="M250.61,-112.37C258.1,-94.46 275.47,-52.92 285.49,-28.95"/>
<polygon fill="midnightblue" stroke="midnightblue" points="288.78,-30.17 289.41,-19.59 282.32,-27.47 288.78,-30.17"/>
</g>
<!-- Node4 -->
<g id="node4" class="node">
<title>Node4</title>
<g id="a_node4"><a xlink:title=" ">
<polygon fill="none" stroke="#bfbfbf" points="306.5,-56.5 306.5,-75.5 353.5,-75.5 353.5,-56.5 306.5,-56.5"/>
<text text-anchor="middle" x="330" y="-63.5" font-family="Helvetica,sans-Serif" font-size="10.00">cmath</text>
</a>
</g>
</g>
<!-- Node2&#45;&gt;Node4 -->
<g id="edge3" class="edge">
<title>Node2&#45;&gt;Node4</title>
<path fill="none" stroke="midnightblue" d="M260.34,-112.32C273.16,-103.98 292.78,-91.21 307.94,-81.35"/>
<polygon fill="midnightblue" stroke="midnightblue" points="310.22,-84.04 316.7,-75.65 306.41,-78.17 310.22,-84.04"/>
</g>
<!-- Node5 -->
<g id="node5" class="node">
<title>Node5</title>
<g id="a_node5"><a xlink:title=" ">
<polygon fill="none" stroke="#bfbfbf" points="0,-56.5 0,-75.5 56,-75.5 56,-56.5 0,-56.5"/>
<text text-anchor="middle" x="28" y="-63.5" font-family="Helvetica,sans-Serif" font-size="10.00">iomanip</text>
</a>
</g>
</g>
<!-- Node2&#45;&gt;Node5 -->
<g id="edge4" class="edge">
<title>Node2&#45;&gt;Node5</title>
<path fill="none" stroke="midnightblue" d="M212.78,-112.56C172.97,-102.75 107.42,-86.58 66.04,-76.38"/>
<polygon fill="midnightblue" stroke="midnightblue" points="66.62,-72.92 56.07,-73.92 64.94,-79.71 66.62,-72.92"/>
</g>
<!-- Node6 -->
<g id="node6" class="node">
<title>Node6</title>
<g id="a_node6"><a xlink:href="count_8hpp.html" target="_top" xlink:title="Plik zawiera definicję klasy reprezentujacej counter, pozwalajacy na liczenie instancji stworzonych k...">
<polygon fill="none" stroke="black" points="184.5,-56.5 184.5,-75.5 249.5,-75.5 249.5,-56.5 184.5,-56.5"/>
<text text-anchor="middle" x="217" y="-63.5" font-family="Helvetica,sans-Serif" font-size="10.00">count.hpp</text>
</a>
</g>
</g>
<!-- Node2&#45;&gt;Node6 -->
<g id="edge5" class="edge">
<title>Node2&#45;&gt;Node6</title>
<path fill="none" stroke="midnightblue" d="M242.05,-112.08C237.9,-104.61 231.85,-93.72 226.73,-84.52"/>
<polygon fill="midnightblue" stroke="midnightblue" points="229.78,-82.79 221.86,-75.75 223.66,-86.19 229.78,-82.79"/>
</g>
<!-- Node8 -->
<g id="node8" class="node">
<title>Node8</title>
<g id="a_node8"><a xlink:title=" ">
<polygon fill="none" stroke="#bfbfbf" points="74,-56.5 74,-75.5 166,-75.5 166,-56.5 74,-56.5"/>
<text text-anchor="middle" x="120" y="-63.5" font-family="Helvetica,sans-Serif" font-size="10.00">../src/vector.tpp</text>
</a>
</g>
</g>
<!-- Node2&#45;&gt;Node8 -->
<g id="edge8" class="edge">
<title>Node2&#45;&gt;Node8</title>
<path fill="none" stroke="midnightblue" d="M226.88,-112.44C205.98,-103.56 173.07,-89.56 149.28,-79.45"/>
<polygon fill="midnightblue" stroke="midnightblue" points="150.6,-76.21 140.03,-75.52 147.86,-82.65 150.6,-76.21"/>
</g>
<!-- Node6&#45;&gt;Node3 -->
<g id="edge6" class="edge">
<title>Node6&#45;&gt;Node3</title>
<path fill="none" stroke="midnightblue" d="M229.21,-56.32C240.78,-48.11 258.38,-35.6 272.16,-25.81"/>
<polygon fill="midnightblue" stroke="midnightblue" points="274.44,-28.48 280.57,-19.83 270.39,-22.77 274.44,-28.48"/>
</g>
<!-- Node7 -->
<g id="node7" class="node">
<title>Node7</title>
<g id="a_node7"><a xlink:title=" ">
<polygon fill="none" stroke="#bfbfbf" points="156.5,-0.5 156.5,-19.5 245.5,-19.5 245.5,-0.5 156.5,-0.5"/>
<text text-anchor="middle" x="201" y="-7.5" font-family="Helvetica,sans-Serif" font-size="10.00">../src/count.tpp</text>
</a>
</g>
</g>
<!-- Node6&#45;&gt;Node7 -->
<g id="edge7" class="edge">
<title>Node6&#45;&gt;Node7</title>
<path fill="none" stroke="midnightblue" d="M214.36,-56.08C212.21,-48.85 209.12,-38.41 206.45,-29.4"/>
<polygon fill="midnightblue" stroke="midnightblue" points="209.79,-28.34 203.59,-19.75 203.08,-30.33 209.79,-28.34"/>
</g>
<!-- Node10 -->
<g id="node10" class="node">
<title>Node10</title>
<g id="a_node10"><a xlink:href="matrix_8hpp.html" target="_top" xlink:title=" ">
<polygon fill="none" stroke="black" points="302,-224.5 302,-243.5 372,-243.5 372,-224.5 302,-224.5"/>
<text text-anchor="middle" x="337" y="-231.5" font-family="Helvetica,sans-Serif" font-size="10.00">matrix.hpp</text>
</a>
</g>
</g>
<!-- Node9&#45;&gt;Node10 -->
<g id="edge10" class="edge">
<title>Node9&#45;&gt;Node10</title>
<path fill="none" stroke="midnightblue" d="M240.22,-280.44C258.9,-271.68 288.16,-257.94 309.62,-247.86"/>
<polygon fill="midnightblue" stroke="midnightblue" points="311.3,-250.93 318.86,-243.52 308.32,-244.6 311.3,-250.93"/>
</g>
<!-- Node15 -->
<g id="node15" class="node">
<title>Node15</title>
<g id="a_node15"><a xlink:href="matrix2_d_8cpp.html" target="_top" xlink:title=" ">
<polygon fill="none" stroke="black" points="167.5,-224.5 167.5,-243.5 276.5,-243.5 276.5,-224.5 167.5,-224.5"/>
<text text-anchor="middle" x="222" y="-231.5" font-family="Helvetica,sans-Serif" font-size="10.00">../src/matrix2D.cpp</text>
</a>
</g>
</g>
<!-- Node9&#45;&gt;Node15 -->
<g id="edge19" class="edge">
<title>Node9&#45;&gt;Node15</title>
<path fill="none" stroke="midnightblue" d="M216.83,-280.08C215.32,-272.93 214.89,-262.64 215.54,-253.69"/>
<polygon fill="midnightblue" stroke="midnightblue" points="219.02,-254.13 216.87,-243.75 212.08,-253.2 219.02,-254.13"/>
</g>
<!-- Node10&#45;&gt;Node2 -->
<g id="edge11" class="edge">
<title>Node10&#45;&gt;Node2</title>
<path fill="none" stroke="midnightblue" d="M337.59,-224.12C338.03,-210.71 337.05,-185.06 325,-168 314.69,-153.41 298.04,-142.88 282.77,-135.69"/>
<polygon fill="midnightblue" stroke="midnightblue" points="284.07,-132.44 273.5,-131.64 281.26,-138.85 284.07,-132.44"/>
</g>
<!-- Node10&#45;&gt;Node3 -->
<g id="edge16" class="edge">
<title>Node10&#45;&gt;Node3</title>
<path fill="none" stroke="midnightblue" d="M341.84,-224.23C356.02,-197.25 394.55,-113.79 363,-56 355.18,-41.68 340.64,-31.24 326.82,-24.04"/>
<polygon fill="midnightblue" stroke="midnightblue" points="328,-20.72 317.47,-19.56 324.98,-27.03 328,-20.72"/>
</g>
<!-- Node11 -->
<g id="node11" class="node">
<title>Node11</title>
<g id="a_node11"><a xlink:href="vector3_d_8hpp.html" target="_top" xlink:title="Zawiera deklaracje klasy Vector3D.">
<polygon fill="none" stroke="black" points="417,-168.5 417,-187.5 499,-187.5 499,-168.5 417,-168.5"/>
<text text-anchor="middle" x="458" y="-175.5" font-family="Helvetica,sans-Serif" font-size="10.00">vector3D.hpp</text>
</a>
</g>
</g>
<!-- Node10&#45;&gt;Node11 -->
<g id="edge12" class="edge">
<title>Node10&#45;&gt;Node11</title>
<path fill="none" stroke="midnightblue" d="M356.17,-224.44C375.91,-215.64 406.89,-201.81 429.49,-191.72"/>
<polygon fill="midnightblue" stroke="midnightblue" points="431.21,-194.79 438.92,-187.52 428.36,-188.4 431.21,-194.79"/>
</g>
<!-- Node13 -->
<g id="node13" class="node">
<title>Node13</title>
<g id="a_node13"><a xlink:title=" ">
<polygon fill="none" stroke="#bfbfbf" points="154.5,-168.5 154.5,-187.5 203.5,-187.5 203.5,-168.5 154.5,-168.5"/>
<text text-anchor="middle" x="179" y="-175.5" font-family="Helvetica,sans-Serif" font-size="10.00">cstdlib</text>
</a>
</g>
</g>
<!-- Node10&#45;&gt;Node13 -->
<g id="edge17" class="edge">
<title>Node10&#45;&gt;Node13</title>
<path fill="none" stroke="midnightblue" d="M311.96,-224.44C285.31,-215.33 242.94,-200.85 213.21,-190.69"/>
<polygon fill="midnightblue" stroke="midnightblue" points="214.25,-187.35 203.66,-187.43 211.99,-193.97 214.25,-187.35"/>
</g>
<!-- Node14 -->
<g id="node14" class="node">
<title>Node14</title>
<g id="a_node14"><a xlink:title=" ">
<polygon fill="none" stroke="#bfbfbf" points="222,-168.5 222,-187.5 316,-187.5 316,-168.5 222,-168.5"/>
<text text-anchor="middle" x="269" y="-175.5" font-family="Helvetica,sans-Serif" font-size="10.00">../src/matrix.tpp</text>
</a>
</g>
</g>
<!-- Node10&#45;&gt;Node14 -->
<g id="edge18" class="edge">
<title>Node10&#45;&gt;Node14</title>
<path fill="none" stroke="midnightblue" d="M326.07,-224.32C315.83,-216.18 300.28,-203.84 288,-194.09"/>
<polygon fill="midnightblue" stroke="midnightblue" points="290.13,-191.31 280.12,-187.83 285.78,-196.79 290.13,-191.31"/>
</g>
<!-- Node11&#45;&gt;Node2 -->
<g id="edge13" class="edge">
<title>Node11&#45;&gt;Node2</title>
<path fill="none" stroke="midnightblue" d="M424.57,-168.44C388.14,-159.12 329.77,-144.18 289.97,-134"/>
<polygon fill="midnightblue" stroke="midnightblue" points="290.83,-130.61 280.28,-131.52 289.1,-137.39 290.83,-130.61"/>
</g>
<!-- Node12 -->
<g id="node12" class="node">
<title>Node12</title>
<g id="a_node12"><a xlink:href="vector3_d_8cpp.html" target="_top" xlink:title=" ">
<polygon fill="none" stroke="black" points="410.5,-112.5 410.5,-131.5 517.5,-131.5 517.5,-112.5 410.5,-112.5"/>
<text text-anchor="middle" x="464" y="-119.5" font-family="Helvetica,sans-Serif" font-size="10.00">../src/vector3D.cpp</text>
</a>
</g>
</g>
<!-- Node11&#45;&gt;Node12 -->
<g id="edge14" class="edge">
<title>Node11&#45;&gt;Node12</title>
<path fill="none" stroke="midnightblue" d="M453.82,-168.08C453.11,-160.93 453.82,-150.64 455.47,-141.69"/>
<polygon fill="midnightblue" stroke="midnightblue" points="458.92,-142.3 457.9,-131.75 452.12,-140.63 458.92,-142.3"/>
</g>
<!-- Node12&#45;&gt;Node11 -->
<g id="edge15" class="edge">
<title>Node12&#45;&gt;Node11</title>
<path fill="none" stroke="midnightblue" d="M468.16,-131.75C468.9,-138.86 468.2,-149.14 466.57,-158.1"/>
<polygon fill="midnightblue" stroke="midnightblue" points="463.11,-157.54 464.16,-168.08 469.91,-159.19 463.11,-157.54"/>
</g>
<!-- Node15&#45;&gt;Node9 -->
<g id="edge20" class="edge">
<title>Node15&#45;&gt;Node9</title>
<path fill="none" stroke="midnightblue" d="M227.13,-243.75C228.66,-250.86 229.1,-261.14 228.47,-270.1"/>
<polygon fill="midnightblue" stroke="midnightblue" points="224.99,-269.71 227.17,-280.08 231.93,-270.62 224.99,-269.71"/>
</g>
<!-- Node16&#45;&gt;Node16 -->
<g id="edge22" class="edge">
<title>Node16&#45;&gt;Node16</title>
<path fill="none" stroke="midnightblue" d="M365.49,-299.53C386.22,-302.31 406.5,-299.13 406.5,-290 406.5,-282.37 392.33,-278.89 375.57,-279.59"/>
<polygon fill="midnightblue" stroke="midnightblue" points="375.15,-276.11 365.49,-280.47 375.76,-283.08 375.15,-276.11"/>
</g>
</g>
</svg>
