<?xml version="1.0" encoding="UTF-8" standalone="no"?>
<!DOCTYPE svg PUBLIC "-//W3C//DTD SVG 1.1//EN"
 "http://www.w3.org/Graphics/SVG/1.1/DTD/svg11.dtd">
<!-- Generated by graphviz version 2.43.0 (0)
 -->
<!-- Title: /home/krzysztof/PO/zad5_3&#45;kgliwinski/include/vector2D.hpp Pages: 1 -->
<svg width="454pt" height="386pt"
 viewBox="0.00 0.00 454.00 386.00" xmlns="http://www.w3.org/2000/svg" xmlns:xlink="http://www.w3.org/1999/xlink">
<g id="graph0" class="graph" transform="scale(1 1) rotate(0) translate(4 382)">
<title>/home/krzysztof/PO/zad5_3&#45;kgliwinski/include/vector2D.hpp</title>
<!-- Node1 -->
<g id="node1" class="node">
<title>Node1</title>
<g id="a_node1"><a xlink:title="Zawiera deklaracje klasy Vector2D.">
<polygon fill="#bfbfbf" stroke="black" points="188.5,-336.5 188.5,-377.5 334.5,-377.5 334.5,-336.5 188.5,-336.5"/>
<text text-anchor="start" x="196.5" y="-365.5" font-family="Helvetica,sans-Serif" font-size="10.00">/home/krzysztof/PO</text>
<text text-anchor="start" x="196.5" y="-354.5" font-family="Helvetica,sans-Serif" font-size="10.00">/zad5_3&#45;kgliwinski/include</text>
<text text-anchor="middle" x="261.5" y="-343.5" font-family="Helvetica,sans-Serif" font-size="10.00">/vector2D.hpp</text>
</a>
</g>
</g>
<!-- Node2 -->
<g id="node2" class="node">
<title>Node2</title>
<g id="a_node2"><a xlink:href="vector_8hpp.html" target="_top" xlink:title=" ">
<polygon fill="none" stroke="black" points="105.5,-112.5 105.5,-131.5 173.5,-131.5 173.5,-112.5 105.5,-112.5"/>
<text text-anchor="middle" x="139.5" y="-119.5" font-family="Helvetica,sans-Serif" font-size="10.00">vector.hpp</text>
</a>
</g>
</g>
<!-- Node1&#45;&gt;Node2 -->
<g id="edge1" class="edge">
<title>Node1&#45;&gt;Node2</title>
<path fill="none" stroke="midnightblue" d="M235.99,-336.35C201.62,-308.01 142.24,-252 120.5,-188 115.14,-172.21 121.55,-153.96 128.34,-140.83"/>
<polygon fill="midnightblue" stroke="midnightblue" points="131.51,-142.33 133.41,-131.91 125.42,-138.87 131.51,-142.33"/>
</g>
<!-- Node9 -->
<g id="node9" class="node">
<title>Node9</title>
<g id="a_node9"><a xlink:href="matrix2_d_8hpp.html" target="_top" xlink:title="Zawiera deklaracje klasy Matrix2D.">
<polygon fill="none" stroke="black" points="220,-280.5 220,-299.5 303,-299.5 303,-280.5 220,-280.5"/>
<text text-anchor="middle" x="261.5" y="-287.5" font-family="Helvetica,sans-Serif" font-size="10.00">matrix2D.hpp</text>
</a>
</g>
</g>
<!-- Node1&#45;&gt;Node9 -->
<g id="edge9" class="edge">
<title>Node1&#45;&gt;Node9</title>
<path fill="none" stroke="midnightblue" d="M261.5,-336.5C261.5,-328.07 261.5,-318.24 261.5,-309.87"/>
<polygon fill="midnightblue" stroke="midnightblue" points="265,-309.65 261.5,-299.65 258,-309.65 265,-309.65"/>
</g>
<!-- Node16 -->
<g id="node16" class="node">
<title>Node16</title>
<g id="a_node16"><a xlink:href="vector2_d_8cpp.html" target="_top" xlink:title=" ">
<polygon fill="none" stroke="black" points="321,-280.5 321,-299.5 428,-299.5 428,-280.5 321,-280.5"/>
<text text-anchor="middle" x="374.5" y="-287.5" font-family="Helvetica,sans-Serif" font-size="10.00">../src/vector2D.cpp</text>
</a>
</g>
</g>
<!-- Node1&#45;&gt;Node16 -->
<g id="edge21" class="edge">
<title>Node1&#45;&gt;Node16</title>
<path fill="none" stroke="midnightblue" d="M295.4,-336.5C313.23,-326.24 334.65,-313.93 350.7,-304.69"/>
<polygon fill="midnightblue" stroke="midnightblue" points="352.53,-307.67 359.46,-299.65 349.04,-301.6 352.53,-307.67"/>
</g>
<!-- Node3 -->
<g id="node3" class="node">
<title>Node3</title>
<g id="a_node3"><a xlink:title=" ">
<polygon fill="none" stroke="#bfbfbf" points="336.5,-0.5 336.5,-19.5 396.5,-19.5 396.5,-0.5 336.5,-0.5"/>
<text text-anchor="middle" x="366.5" y="-7.5" font-family="Helvetica,sans-Serif" font-size="10.00">iostream</text>
</a>
</g>
</g>
<!-- Node2&#45;&gt;Node3 -->
<g id="edge2" class="edge">
<title>Node2&#45;&gt;Node3</title>
<path fill="none" stroke="midnightblue" d="M173.65,-120.13C213.32,-117.55 279.1,-108.27 324.5,-76 340.89,-64.35 352.47,-44.1 359.27,-29.3"/>
<polygon fill="midnightblue" stroke="midnightblue" points="362.66,-30.25 363.37,-19.67 356.23,-27.5 362.66,-30.25"/>
</g>
<!-- Node4 -->
<g id="node4" class="node">
<title>Node4</title>
<g id="a_node4"><a xlink:title=" ">
<polygon fill="none" stroke="#bfbfbf" points="0,-56.5 0,-75.5 47,-75.5 47,-56.5 0,-56.5"/>
<text text-anchor="middle" x="23.5" y="-63.5" font-family="Helvetica,sans-Serif" font-size="10.00">cmath</text>
</a>
</g>
</g>
<!-- Node2&#45;&gt;Node4 -->
<g id="edge3" class="edge">
<title>Node2&#45;&gt;Node4</title>
<path fill="none" stroke="midnightblue" d="M121.12,-112.44C102.28,-103.68 72.77,-89.94 51.12,-79.86"/>
<polygon fill="midnightblue" stroke="midnightblue" points="52.34,-76.56 41.79,-75.52 49.38,-82.91 52.34,-76.56"/>
</g>
<!-- Node5 -->
<g id="node5" class="node">
<title>Node5</title>
<g id="a_node5"><a xlink:title=" ">
<polygon fill="none" stroke="#bfbfbf" points="65.5,-56.5 65.5,-75.5 121.5,-75.5 121.5,-56.5 65.5,-56.5"/>
<text text-anchor="middle" x="93.5" y="-63.5" font-family="Helvetica,sans-Serif" font-size="10.00">iomanip</text>
</a>
</g>
</g>
<!-- Node2&#45;&gt;Node5 -->
<g id="edge4" class="edge">
<title>Node2&#45;&gt;Node5</title>
<path fill="none" stroke="midnightblue" d="M131.9,-112.08C125.27,-104.3 115.48,-92.8 107.44,-83.37"/>
<polygon fill="midnightblue" stroke="midnightblue" points="110.1,-81.09 100.95,-75.75 104.77,-85.63 110.1,-81.09"/>
</g>
<!-- Node6 -->
<g id="node6" class="node">
<title>Node6</title>
<g id="a_node6"><a xlink:href="count_8hpp.html" target="_top" xlink:title="Plik zawiera definicję klasy reprezentujacej counter, pozwalajacy na liczenie instancji stworzonych k...">
<polygon fill="none" stroke="black" points="250,-56.5 250,-75.5 315,-75.5 315,-56.5 250,-56.5"/>
<text text-anchor="middle" x="282.5" y="-63.5" font-family="Helvetica,sans-Serif" font-size="10.00">count.hpp</text>
</a>
</g>
</g>
<!-- Node2&#45;&gt;Node6 -->
<g id="edge5" class="edge">
<title>Node2&#45;&gt;Node6</title>
<path fill="none" stroke="midnightblue" d="M162.16,-112.44C185.9,-103.48 223.41,-89.31 250.24,-79.18"/>
<polygon fill="midnightblue" stroke="midnightblue" points="251.83,-82.32 259.95,-75.52 249.36,-75.77 251.83,-82.32"/>
</g>
<!-- Node8 -->
<g id="node8" class="node">
<title>Node8</title>
<g id="a_node8"><a xlink:title=" ">
<polygon fill="none" stroke="#bfbfbf" points="139.5,-56.5 139.5,-75.5 231.5,-75.5 231.5,-56.5 139.5,-56.5"/>
<text text-anchor="middle" x="185.5" y="-63.5" font-family="Helvetica,sans-Serif" font-size="10.00">../src/vector.tpp</text>
</a>
</g>
</g>
<!-- Node2&#45;&gt;Node8 -->
<g id="edge8" class="edge">
<title>Node2&#45;&gt;Node8</title>
<path fill="none" stroke="midnightblue" d="M147.1,-112.08C153.73,-104.3 163.52,-92.8 171.56,-83.37"/>
<polygon fill="midnightblue" stroke="midnightblue" points="174.23,-85.63 178.05,-75.75 168.9,-81.09 174.23,-85.63"/>
</g>
<!-- Node6&#45;&gt;Node3 -->
<g id="edge6" class="edge">
<title>Node6&#45;&gt;Node3</title>
<path fill="none" stroke="midnightblue" d="M296,-56.32C309.1,-47.9 329.21,-34.97 344.61,-25.07"/>
<polygon fill="midnightblue" stroke="midnightblue" points="346.52,-28.01 353.04,-19.65 342.73,-22.12 346.52,-28.01"/>
</g>
<!-- Node7 -->
<g id="node7" class="node">
<title>Node7</title>
<g id="a_node7"><a xlink:title=" ">
<polygon fill="none" stroke="#bfbfbf" points="230,-0.5 230,-19.5 319,-19.5 319,-0.5 230,-0.5"/>
<text text-anchor="middle" x="274.5" y="-7.5" font-family="Helvetica,sans-Serif" font-size="10.00">../src/count.tpp</text>
</a>
</g>
</g>
<!-- Node6&#45;&gt;Node7 -->
<g id="edge7" class="edge">
<title>Node6&#45;&gt;Node7</title>
<path fill="none" stroke="midnightblue" d="M281.18,-56.08C280.12,-48.93 278.59,-38.64 277.27,-29.69"/>
<polygon fill="midnightblue" stroke="midnightblue" points="280.72,-29.13 275.8,-19.75 273.8,-30.16 280.72,-29.13"/>
</g>
<!-- Node10 -->
<g id="node10" class="node">
<title>Node10</title>
<g id="a_node10"><a xlink:href="matrix_8hpp.html" target="_top" xlink:title=" ">
<polygon fill="none" stroke="black" points="172.5,-224.5 172.5,-243.5 242.5,-243.5 242.5,-224.5 172.5,-224.5"/>
<text text-anchor="middle" x="207.5" y="-231.5" font-family="Helvetica,sans-Serif" font-size="10.00">matrix.hpp</text>
</a>
</g>
</g>
<!-- Node9&#45;&gt;Node10 -->
<g id="edge10" class="edge">
<title>Node9&#45;&gt;Node10</title>
<path fill="none" stroke="midnightblue" d="M252.58,-280.08C244.72,-272.22 233.07,-260.57 223.58,-251.08"/>
<polygon fill="midnightblue" stroke="midnightblue" points="225.8,-248.35 216.25,-243.75 220.85,-253.3 225.8,-248.35"/>
</g>
<!-- Node15 -->
<g id="node15" class="node">
<title>Node15</title>
<g id="a_node15"><a xlink:href="matrix2_d_8cpp.html" target="_top" xlink:title=" ">
<polygon fill="none" stroke="black" points="261,-224.5 261,-243.5 370,-243.5 370,-224.5 261,-224.5"/>
<text text-anchor="middle" x="315.5" y="-231.5" font-family="Helvetica,sans-Serif" font-size="10.00">../src/matrix2D.cpp</text>
</a>
</g>
</g>
<!-- Node9&#45;&gt;Node15 -->
<g id="edge19" class="edge">
<title>Node9&#45;&gt;Node15</title>
<path fill="none" stroke="midnightblue" d="M265.25,-280.08C271.58,-272.06 283.2,-260.1 293.81,-250.51"/>
<polygon fill="midnightblue" stroke="midnightblue" points="296.35,-252.94 301.62,-243.75 291.77,-247.65 296.35,-252.94"/>
</g>
<!-- Node10&#45;&gt;Node2 -->
<g id="edge11" class="edge">
<title>Node10&#45;&gt;Node2</title>
<path fill="none" stroke="midnightblue" d="M177.62,-224.39C159.96,-217.59 139.05,-206.15 128.5,-188 120.16,-173.65 124.8,-154.7 130.39,-140.96"/>
<polygon fill="midnightblue" stroke="midnightblue" points="133.68,-142.19 134.65,-131.64 127.31,-139.28 133.68,-142.19"/>
</g>
<!-- Node10&#45;&gt;Node3 -->
<g id="edge16" class="edge">
<title>Node10&#45;&gt;Node3</title>
<path fill="none" stroke="midnightblue" d="M242.87,-225.67C299.84,-213.77 405.89,-191.26 408.5,-188 446.94,-140.01 402.62,-62.64 379.18,-28.33"/>
<polygon fill="midnightblue" stroke="midnightblue" points="381.84,-26.02 373.22,-19.86 376.11,-30.05 381.84,-26.02"/>
</g>
<!-- Node11 -->
<g id="node11" class="node">
<title>Node11</title>
<g id="a_node11"><a xlink:href="vector3_d_8hpp.html" target="_top" xlink:title="Zawiera deklaracje klasy Vector3D.">
<polygon fill="none" stroke="black" points="317.5,-168.5 317.5,-187.5 399.5,-187.5 399.5,-168.5 317.5,-168.5"/>
<text text-anchor="middle" x="358.5" y="-175.5" font-family="Helvetica,sans-Serif" font-size="10.00">vector3D.hpp</text>
</a>
</g>
</g>
<!-- Node10&#45;&gt;Node11 -->
<g id="edge12" class="edge">
<title>Node10&#45;&gt;Node11</title>
<path fill="none" stroke="midnightblue" d="M231.43,-224.44C256.72,-215.4 296.8,-201.06 325.18,-190.92"/>
<polygon fill="midnightblue" stroke="midnightblue" points="326.45,-194.18 334.69,-187.52 324.09,-187.59 326.45,-194.18"/>
</g>
<!-- Node13 -->
<g id="node13" class="node">
<title>Node13</title>
<g id="a_node13"><a xlink:title=" ">
<polygon fill="none" stroke="#bfbfbf" points="138,-168.5 138,-187.5 187,-187.5 187,-168.5 138,-168.5"/>
<text text-anchor="middle" x="162.5" y="-175.5" font-family="Helvetica,sans-Serif" font-size="10.00">cstdlib</text>
</a>
</g>
</g>
<!-- Node10&#45;&gt;Node13 -->
<g id="edge17" class="edge">
<title>Node10&#45;&gt;Node13</title>
<path fill="none" stroke="midnightblue" d="M200.07,-224.08C193.65,-216.38 184.19,-205.03 176.38,-195.65"/>
<polygon fill="midnightblue" stroke="midnightblue" points="178.88,-193.19 169.79,-187.75 173.51,-197.67 178.88,-193.19"/>
</g>
<!-- Node14 -->
<g id="node14" class="node">
<title>Node14</title>
<g id="a_node14"><a xlink:title=" ">
<polygon fill="none" stroke="#bfbfbf" points="205.5,-168.5 205.5,-187.5 299.5,-187.5 299.5,-168.5 205.5,-168.5"/>
<text text-anchor="middle" x="252.5" y="-175.5" font-family="Helvetica,sans-Serif" font-size="10.00">../src/matrix.tpp</text>
</a>
</g>
</g>
<!-- Node10&#45;&gt;Node14 -->
<g id="edge18" class="edge">
<title>Node10&#45;&gt;Node14</title>
<path fill="none" stroke="midnightblue" d="M214.93,-224.08C221.35,-216.38 230.81,-205.03 238.62,-195.65"/>
<polygon fill="midnightblue" stroke="midnightblue" points="241.49,-197.67 245.21,-187.75 236.12,-193.19 241.49,-197.67"/>
</g>
<!-- Node11&#45;&gt;Node2 -->
<g id="edge13" class="edge">
<title>Node11&#45;&gt;Node2</title>
<path fill="none" stroke="midnightblue" d="M323.8,-168.44C285.8,-159.07 224.79,-144.03 183.47,-133.84"/>
<polygon fill="midnightblue" stroke="midnightblue" points="184.23,-130.42 173.68,-131.43 182.55,-137.22 184.23,-130.42"/>
</g>
<!-- Node12 -->
<g id="node12" class="node">
<title>Node12</title>
<g id="a_node12"><a xlink:href="vector3_d_8cpp.html" target="_top" xlink:title=" ">
<polygon fill="none" stroke="black" points="274,-112.5 274,-131.5 381,-131.5 381,-112.5 274,-112.5"/>
<text text-anchor="middle" x="327.5" y="-119.5" font-family="Helvetica,sans-Serif" font-size="10.00">../src/vector3D.cpp</text>
</a>
</g>
</g>
<!-- Node11&#45;&gt;Node12 -->
<g id="edge14" class="edge">
<title>Node11&#45;&gt;Node12</title>
<path fill="none" stroke="midnightblue" d="M353.38,-168.08C349.09,-160.61 342.84,-149.72 337.56,-140.52"/>
<polygon fill="midnightblue" stroke="midnightblue" points="340.54,-138.68 332.52,-131.75 334.47,-142.17 340.54,-138.68"/>
</g>
<!-- Node12&#45;&gt;Node12 -->
<g id="edge15" class="edge">
<title>Node12&#45;&gt;Node12</title>
<path fill="none" stroke="midnightblue" d="M357.99,-131.53C378.72,-134.31 399,-131.13 399,-122 399,-114.37 384.83,-110.89 368.07,-111.59"/>
<polygon fill="midnightblue" stroke="midnightblue" points="367.65,-108.11 357.99,-112.47 368.26,-115.08 367.65,-108.11"/>
</g>
<!-- Node15&#45;&gt;Node9 -->
<g id="edge20" class="edge">
<title>Node15&#45;&gt;Node9</title>
<path fill="none" stroke="midnightblue" d="M311.81,-243.83C305.49,-251.87 293.79,-263.91 283.13,-273.54"/>
<polygon fill="midnightblue" stroke="midnightblue" points="280.56,-271.13 275.29,-280.32 285.14,-276.43 280.56,-271.13"/>
</g>
<!-- Node16&#45;&gt;Node16 -->
<g id="edge22" class="edge">
<title>Node16&#45;&gt;Node16</title>
<path fill="none" stroke="midnightblue" d="M404.99,-299.53C425.72,-302.31 446,-299.13 446,-290 446,-282.37 431.83,-278.89 415.07,-279.59"/>
<polygon fill="midnightblue" stroke="midnightblue" points="414.65,-276.11 404.99,-280.47 415.26,-283.08 414.65,-276.11"/>
</g>
</g>
</svg>
